<svg viewBox="0 0 24 24" xmlns="http://www.w3.org/2000/svg" role="img"><path d="M11.64 23.916c-2.843-.75-5.547-2.44-7.3-4.561-.178-.215-.21-.244-.266-.234-.035.006-.3.043-.59.084-.522.073-1.21.178-1.338.205l-.066.013v-6.025h.504c.383 0 .507-.007.513-.03a42.7 42.7 0 0 0 .073-1.05c.158-2.487.384-4.996.592-6.55.105-.787.12-.852.237-.97.197-.201.574-.37 1.173-.524l.32-.083.19-.368a7.67 7.67 0 0 1 .755-1.173c.212-.266.83-.884 1.089-1.09A7.38 7.38 0 0 1 10.55.133c.533-.11.78-.132 1.426-.133.652 0 .83.015 1.389.122a7.068 7.068 0 0 1 4.542 3.032c.192.288.458.76.534.945l.051.127.269.066c.771.19 1.258.434 1.334.669.048.147.186 1.192.3 2.271.147 1.386.344 3.803.445 5.458.014.224.031.475.039.558l.013.15h1.028v6.025l-.066-.013a54.09 54.09 0 0 0-1.938-.283c-.067-.007-.094.018-.319.286-1.624 1.935-4.166 3.585-6.697 4.346-.366.11-.877.244-.92.241a6.561 6.561 0 0 1-.34-.084zm.732-.84c2.118-.558 4.2-1.729 5.804-3.262.268-.257.745-.77.745-.802 0-.009-.112-.027-.25-.042l-.251-.026-.415.413a12.494 12.494 0 0 1-3.258 2.332c-.79.396-1.69.737-2.44.925l-.319.08-.27-.069c-2.132-.542-4.223-1.74-5.79-3.316l-.36-.364-.24.024a1.348 1.348 0 0 0-.255.04c-.028.026.566.656.928.986a13.644 13.644 0 0 0 4.782 2.83c.484.164 1.086.333 1.193.335.04.001.218-.037.396-.084zM9.997 20.44v-.108H9.78v.216h.216zm1.035.023a.592.592 0 0 0 .171-.203l.069-.132-.103-.008c-.067-.005-.107.003-.113.022a.56.56 0 0 1-.086.112.32.32 0 0 1-.507-.05c-.037-.06-.048-.133-.054-.365a1.78 1.78 0 0 1 .02-.394c.07-.264.368-.337.547-.134a.533.533 0 0 1 .08.109c.006.017.049.025.11.02l.1-.008-.048-.108a.496.496 0 0 0-.226-.258c-.267-.14-.601-.04-.72.217-.054.115-.059.154-.059.497 0 .414.024.503.162.634.113.107.191.133.382.126.148-.005.187-.016.275-.077zm1.208.04a.541.541 0 0 0 .277-.319 2.44 2.44 0 0 0 .019-.464c-.008-.356-.01-.366-.08-.48-.173-.279-.62-.32-.845-.08-.088.096-.127.225-.142.482-.028.488.05.73.277.85a.63.63 0 0 0 .494.011zm-.41-.19c-.126-.08-.154-.175-.154-.531 0-.348.023-.44.132-.525.08-.063.266-.071.373-.016.12.062.152.157.162.48.011.335-.014.454-.114.55a.36.36 0 0 1-.399.041zm1.214-.286c0-.294.009-.51.02-.497.012.012.1.198.196.412.163.366.178.39.24.39.061 0 .075-.023.239-.402.096-.22.183-.412.195-.424.012-.014.021.2.021.51v.532h.192v-1.536h-.186l-.224.503a6.76 6.76 0 0 1-.238.504c-.007 0-.114-.226-.238-.504l-.224-.503h-.185v1.535h.192zm-7.755-2.061.126-.016v-.833h.215v-.383l-.108.015-.107.015v-.915l-.078.01-.192.024-.114.014v.454c0 .388-.006.455-.036.455-.02 0-.192.017-.383.038-.19.02-.366.034-.39.03-.039-.007.022-.16.441-1.112l.487-1.105c.006-.01-.4.045-.411.057-.009.009-.238.517-.51 1.13l-.494 1.112v.35l.078-.01c.043-.006.289-.033.546-.059.257-.026.514-.053.57-.06l.102-.014v.819h.066c.036-.001.122-.008.192-.016zm14.942-.507c-.007-.007-.34-.046-.74-.087l-.726-.075-.006-.45c-.004-.262.003-.45.015-.45.013 0 .28.028.594.06.314.034.59.06.615.06.04 0 .043-.018.037-.185l-.007-.186-.612-.065-.63-.066c-.01 0-.018-.206-.018-.457 0-.425.003-.456.044-.456.024 0 .355.033.736.072l.7.072a1.2 1.2 0 0 0 .008-.192c0-.158-.007-.192-.038-.192-.046 0-1.643-.162-1.768-.18l-.09-.012.006 1.482.007 1.481.935.096.936.096.007-.176a.799.799 0 0 0-.005-.19zm-12.993.233a.946.946 0 0 0 .656-.396c.127-.193.138-.308.13-1.275-.006-.863-.008-.886-.062-1.003-.11-.237-.25-.326-.545-.343-.468-.025-.823.161-.992.52l-.063.135-.007.907c-.008 1.028 0 1.093.156 1.267.172.19.379.243.727.188zm-.312-.4a.317.317 0 0 1-.132-.139c-.045-.09-.048-.144-.048-.923 0-.81.001-.83.053-.928.088-.164.249-.248.472-.247.15 0 .225.035.296.141.054.08.055.086.055.93 0 .659-.008.866-.033.927-.092.22-.445.347-.663.238zm10.743.3c-.02-.03-.265-.447-.545-.926l-.51-.872.046-.052c.164-.185.894-1.05.894-1.06 0-.006-.11-.011-.246-.011h-.246l-.6.743c-.33.408-.608.742-.617.743-.01 0-.018-.343-.018-.764v-.764l-.112-.015a1.932 1.932 0 0 0-.204-.016h-.092v1.473c0 1.321.004 1.475.038 1.488.02.008.112.014.204.014h.166v-.855l.25-.293.251-.292.202.342.434.738.231.396.162.014c.088.008.203.016.254.018.09.004.092.003.058-.05zm-7.936-1.326V14.98h.84v-.384H8.485v.384h.84v2.567h.408zm1.847-.192v-1.476h-.408v2.951h.408zm1.344 1.045v-.43l.24-.29c.132-.159.244-.29.248-.29.005 0 .202.324.438.72l.43.719h.248l.248.001-.034-.054c-.227-.349-1.027-1.732-1.018-1.758.011-.029.754-.938.887-1.085l.048-.054h-.5l-.612.776-.611.776-.007-.776-.006-.776h-.407v2.951h.408zm-1.002-3.57a.326.326 0 0 0-.108 0c-.03.007-.005.011.054.011.06 0 .084-.005.054-.01zm-.258-.03-.096-.015.084-.015a5.43 5.43 0 0 1 .408-.03 8.58 8.58 0 0 0 2.723-.612c.13-.053.24-.091.246-.086.005.005-.04.039-.1.074a.488.488 0 0 0-.11.076c0 .014.414-.206.581-.31l.113-.069-.136-.072a2.264 2.264 0 0 1-.243-.15l-.107-.08-.19.069a6.867 6.867 0 0 1-.99.252c-.275.047-1.168.057-1.36.015-.093-.02-.12-.018-.144.01-.054.066-.294.24-.487.352a4.68 4.68 0 0 1-.867.36l-.172.051.054.067c.047.06.078.07.291.1.246.033.693.046.502.014zm-1.044-.128a1.733 1.733 0 0 0-.305-.12c-.71-.232-1.324-.582-1.759-1.004l-.174-.169-.254-.057a4.985 4.985 0 0 1-.359-.093c-.136-.046-.114-.019.162.2a6.512 6.512 0 0 0 2.39 1.192c.365.095.343.091.299.05zm-6.381-.001c0-.065.136-1.989.181-2.57.17-2.173.403-4.335.506-4.699a9.84 9.84 0 0 0 .104-.46c.039-.185.077-.355.086-.377.021-.056.009-.054-.164.033-.193.096-.337.215-.384.314-.103.218-.377 2.71-.556 5.045-.077 1-.18 2.515-.18 2.633v.09h.203c.112 0 .204-.004.204-.009zm15.917-.105a41.71 41.71 0 0 1-.048-.69c-.19-3.021-.559-6.706-.696-6.971a.547.547 0 0 0-.138-.145c-.107-.08-.38-.218-.396-.202-.005.005.013.11.04.233.027.123.057.267.065.32.008.053.035.16.06.24.115.363.343 2.46.526 4.822.075.977.168 2.326.168 2.44v.067h.43zm-6.46-1.025c.335-.045.694-.13 1.035-.245l.26-.088.174-.208c.432-.515.813-1.139 1.003-1.643l.037-.096-.12-.216a9.188 9.188 0 0 0-.77-1.13 5.853 5.853 0 0 0-.273-.329 1.336 1.336 0 0 0-.285.046c-.528.12-1.247.225-1.802.263l-.245.017-.232.399c-.282.483-.618 1-.89 1.367a4.41 4.41 0 0 0-.215.304c-.016.04.108.232.62.963l.407.58.136.016c.075.008.147.019.16.023.069.024.765.007 1-.023zm-.772-.173c-.211-.021-.142-.048.16-.063a5.937 5.937 0 0 0 1.508-.296c.193-.063.216-.078.34-.218a9.99 9.99 0 0 0 .727-.986c.216-.356.21-.26-.011.175a5.01 5.01 0 0 1-.567.871l-.178.223-.288.093a3.738 3.738 0 0 1-1.2.205 6.987 6.987 0 0 1-.491-.003zM8.61 10.771l.102-.312-.216-.324a6.764 6.764 0 0 1-.575-1.03 8.907 8.907 0 0 1-.347-.973c-.026-.096-.026-.096-.5-.328a8.19 8.19 0 0 1-.712-.39c-.132-.087-.253-.154-.268-.148-.09.035-.362.543-.467.872-.063.199-.058.244.078.717a6.662 6.662 0 0 0 1.232 2.32c.154.19.183.212.348.282.273.116.415.163.755.25l.31.079.079-.352a9.07 9.07 0 0 1 .18-.663zm-.57.728c-.339-.113-.75-.297-.724-.323a.568.568 0 0 1 .15.04c.14.048.573.167.61.167.01 0 .033-.073.05-.162.016-.09.065-.28.109-.424l.08-.261-.137-.206a6.539 6.539 0 0 1-.601-1.231 3.205 3.205 0 0 1-.1-.334c.001-.018.08.129.176.327.211.435.342.665.62 1.093l.21.325-.103.335a9.92 9.92 0 0 0-.135.466c-.052.224-.064.235-.204.188zm3.34-1.142c.352-.47.78-1.134 1.07-1.661l.087-.157-.122-.215a22.013 22.013 0 0 1-.796-1.643l-.132-.324-.2-.042c-.652-.134-2.243-.308-2.316-.252-.042.032-.83 1.222-1.05 1.584-.215.355-.212.323-.071.747.188.57.449 1.095.816 1.65.232.349.148.305.791.413a9.99 9.99 0 0 0 1.477.154l.254.004zm-1.007.053a7.579 7.579 0 0 1-.977-.19l-.108-.036.156.011.588.046c.237.02.557.042.71.05l.279.015.213-.284c.117-.157.358-.492.536-.745a5.56 5.56 0 0 1 .332-.45c.016.016-.285.58-.45.842-.081.131-.236.36-.342.508l-.194.27-.242-.003a5.717 5.717 0 0 1-.5-.034zm6.707-.83a2.98 2.98 0 0 0 .572-.35c.118-.088.146-.126.214-.288.296-.71.426-1.398.4-2.132-.01-.342-.016-.376-.082-.518a4.475 4.475 0 0 0-.474-.75c-.188-.239-.578-.622-.612-.601-.113.07-1.207.668-1.36.744l-.193.096-.015.3a9.601 9.601 0 0 1-.284 1.803l-.073.28.138.162c.345.407.799 1.062.967 1.395l.075.149.244-.085a4.88 4.88 0 0 0 .483-.205zm-.106-.253c.148-.089.336-.216.418-.284.142-.117.153-.135.24-.368a6.46 6.46 0 0 0 .357-1.503 1.43 1.43 0 0 1 .048-.286c.01-.013.022.057.024.156.016.668-.064 1.135-.298 1.722-.09.228-.109.256-.22.337-.164.12-.323.207-.559.305-.302.125-.305.098-.01-.08zm1.239-.271c.238-.734.344-1.48.315-2.231a8 8 0 0 0-.031-.503l-.016-.108-.029.084a.472.472 0 0 0-.01.215c.028.195.026.736-.003 1.002a5.686 5.686 0 0 1-.403 1.52c-.067.15-.07.17-.05.324.012.09.022.18.023.2.003.052.107-.207.203-.503zM5.627 7.634c.068-.135.174-.314.236-.397l.114-.152.004-.46c.005-.62.101-1.162.318-1.796l.071-.209-.048-.151a1.824 1.824 0 0 1-.062-.354l-.013-.202-.113.226a6.435 6.435 0 0 0-.68 2.841c-.003.371.023.9.044.9.003 0 .062-.11.13-.246zm.084-.75a4.929 4.929 0 0 1-.02-.527c0-.438.043-.715.172-1.128.063-.2.217-.554.233-.537a2.37 2.37 0 0 1-.06.333c-.147.69-.258 1.43-.263 1.752a.708.708 0 0 1-.021.18c-.016.038-.024.023-.04-.073zm6.244-1.212c.315-.35.853-.88 1.071-1.055.075-.059.136-.124.136-.145.003-.078-.197-.818-.32-1.186a9.307 9.307 0 0 0-.24-.639l-.113-.255-.232-.061a8.439 8.439 0 0 0-1.735-.248l-.35-.016-.202.122c-.537.326-1.086.891-1.489 1.531l-.14.223.123.391c.067.215.214.647.328.96l.206.57h.123c.322 0 1.538.143 2.111.248l.288.053.072-.084.363-.409zm-.89.168a55.589 55.589 0 0 0-.876-.142c-.697-.11-.825-.14-.576-.143a11.9 11.9 0 0 1 1.594.15l.176.03.366-.38a9.72 9.72 0 0 1 .616-.589c.426-.354.421-.347-.228.367-.189.208-.415.463-.504.567-.185.218-.166.213-.569.14zm4.712-.386c.448-.237 1.225-.673 1.24-.697.02-.034-.036-.439-.1-.715-.126-.536-.372-1.169-.53-1.36-.11-.137-.43-.404-.653-.548a4.507 4.507 0 0 0-1.562-.586l-.156-.025-.264.128c-.146.07-.354.183-.463.25-.238.148-.604.417-.605.445 0 .01.05.134.11.274.151.346.37 1.018.478 1.472l.09.375.195.078c.527.212 1.347.654 1.73.934.091.067.177.122.19.122.012 0 .147-.066.3-.147zm-.394-.156a9.607 9.607 0 0 0-.468-.321 19.728 19.728 0 0 1-.444-.298c-.045-.035-.044-.036.02-.013.122.043.672.33.844.44l.166.108.193-.105.576-.318.384-.212-.007-.107a6.412 6.412 0 0 0-.21-.97 1.825 1.825 0 0 1-.076-.308c.015-.044.256.555.33.816.084.301.136.624.105.654-.076.075-1.25.698-1.31.696a.278.278 0 0 1-.103-.062zM6.99 4.22a5.098 5.098 0 0 1 1.11-.356c.074-.013.097-.036.183-.188.12-.21.4-.587.618-.833.279-.314.644-.62.985-.826l.137-.082.004-.457c.004-.362-.002-.46-.027-.47a1.38 1.38 0 0 0-.23-.013c-.188 0-.216.007-.47.12a6.611 6.611 0 0 0-2.705 2.251l-.137.2-.008.289c-.008.246.021.537.059.599.006.009.085-.026.177-.078.091-.052.229-.122.305-.157zm.127-.391c.209-.106.54-.229.78-.29.081-.02.108-.046.178-.162.27-.454.817-1.047 1.217-1.32.121-.082.227-.15.236-.15.008 0-.145.16-.342.354a6.652 6.652 0 0 0-.916 1.098l-.196.287-.257.054c-.14.03-.4.097-.574.15a5.034 5.034 0 0 1-.335.095c-.01 0 .084-.053.209-.116zm9.44-1.437a6.277 6.277 0 0 0-1.529-1.109 6.72 6.72 0 0 0-1.71-.614c-.026-.007.036.037.139.098.201.12.49.376.57.507.033.052.07.082.103.082.107 0 .511.098.781.189a3.877 3.877 0 0 1 1.472.866c.214.207.24.222.402.236.02.002-.083-.113-.228-.255zm-6.4-1.579c-.007-.009-.027-.01-.045-.003-.019.008-.013.014.015.015.025 0 .04-.005.031-.013z"/></svg>