<svg viewBox="0 0 24 24" xmlns="http://www.w3.org/2000/svg" role="img"><path d="M2.032 15.078c-.563-.07-.873-.197-1.146-.469-.39-.388-.618-1.147-.549-1.824a3.424 3.424 0 0 1 .752-1.811c.088-.109.152-.21.142-.226-.027-.045-.295-.032-.402.019a.321.321 0 0 0-.181.277c0 .154-.013.16-.329.16H.025l-.019-.15c-.027-.216.037-.788.119-1.072.125-.432.29-.66.58-.797l.156-.074 1.617-.008a62.043 62.043 0 0 1 1.616.003c0 .006-.057.316-.127.69-.07.373-.12.689-.112.702.026.042.056.025.241-.136.5-.433.875-.554 1.262-.41.192.072.371.228.585.509.201.263.388.459.44.459.02 0 .239-.185.486-.41.273-.25.517-.447.62-.503.458-.243.89-.08 1.307.492.19.262.285.366.316.347.013-.008.024-.212.024-.454v-.439l.166-.112c.612-.416 1.452-.726 2.069-.763.887-.053 1.622.423 1.865 1.206.22.709.086 1.408-.37 1.926-.064.073-.109.146-.1.161.024.037.25-.064.633-.284.421-.242.82-.512 1.371-.93a7.07 7.07 0 0 1 .605-.423c.415-.21.802-.128 1.038.221.121.18.233.516.26.782.023.232.055.331.104.315.025-.01.032-.08.026-.252a1.94 1.94 0 0 1 .378-1.237.906.906 0 0 1 .864-.406c.37.027.601.188.798.557.13.245.177.457.175.803-.001.278-.042.502-.155.848-.03.093.09.13.35.112.281-.02.293-.033.241-.254-.038-.162-.038-.379 0-.79.006-.066-.004-.072-.128-.08l-.136-.01V9.718l1.004.014c1.066.015 1.295.037 1.746.172.125.038.247.077.27.087.033.014.072-.03.151-.164.19-.326.681-.94.736-.923.013.004.23.297.482.65.4.56.451.644.408.669a5.03 5.03 0 0 0-.61.431l-.157.138.09.18c.131.263.188.515.203.903.022.572-.089 1.044-.335 1.421-.186.284-.413.478-.755.644-.47.227-.9.303-1.552.274a6.033 6.033 0 0 1-.527-.04.552.552 0 0 0-.285.03c-.681.212-1.354.216-1.87.009l-.183-.073-.127.063c-.156.077-.422.097-.713.052-.4-.062-.656-.239-.82-.564-.103-.207-.153-.38-.244-.859-.074-.39-.102-.459-.185-.459-.071 0-.322.16-.629.4a12.1 12.1 0 0 1-1.93 1.221c-1.249.626-2.182.787-3.131.541a3.26 3.26 0 0 1-1.608-1.004c-.41-.484-.812-1.193-.842-1.484-.01-.088-.028-.167-.042-.176-.015-.009-.087.041-.162.111-.322.302-.64.448-.97.448-.39 0-.646-.155-1.036-.629-.129-.155-.247-.282-.264-.282-.017 0-.068.04-.114.088-.151.16-.634.505-.845.605-.397.188-.735.209-1.031.064-.197-.097-.274-.186-.522-.605a3.282 3.282 0 0 0-.245-.377c-.037-.03-.077-.015-.245.094-.507.327-.742.69-.742 1.142 0 .237.066.414.218.582.185.206.366.269.724.25.462-.024 1.035-.248 1.828-.714l.363-.214v1.84l-.292.173c-.847.5-1.665.719-2.368.631zm.44-.343c.49-.06.957-.209 1.544-.49l.363-.173v-.523c0-.287-.003-.522-.007-.522s-.196.096-.427.212c-.943.477-1.648.584-2.135.324-.526-.28-.729-.949-.482-1.59.087-.226.319-.518.565-.71.211-.164.676-.43.752-.429.022 0 .175.227.34.504.364.61.428.671.708.687.335.02.646-.14 1.2-.613.468-.4.463-.4.864.088.318.386.472.52.664.576.322.093.592-.03 1.048-.475.19-.186.367-.332.443-.366.303-.138.562-.032.833.337.153.21.535.604.736.759.514.398 1.055.557 1.592.469.493-.081 1.119-.403 1.468-.754.346-.348.488-.718.46-1.198-.021-.342-.101-.586-.276-.834-.516-.735-1.457-.806-2.692-.202a5.804 5.804 0 0 0-.42.224l-.135.086v.513c0 .281.006.512.013.512.007 0 .08-.06.163-.132a3.77 3.77 0 0 1 1.116-.703c.215-.082.258-.088.602-.09.322 0 .391.009.534.066.178.071.47.278.527.373.053.087-.015.202-.261.443-.24.234-.563.433-.984.602-.868.35-1.456.262-2.065-.308a4.634 4.634 0 0 1-.45-.502c-.39-.523-.557-.66-.798-.66-.17 0-.306.092-.791.538-.497.457-.64.535-.839.459-.099-.038-.353-.28-.503-.48-.292-.39-.465-.517-.702-.517-.182 0-.415.117-.665.334l-.396.346c-.24.209-.366.271-.513.252-.165-.023-.288-.095-.468-.277l-.167-.169.083-.031c.046-.017.2-.082.34-.144l.257-.112.08-.449c.044-.246.087-.47.094-.498.014-.047-.065-.05-1.36-.05-1.338 0-1.378.002-1.498.06-.222.108-.378.42-.451.906a3.6 3.6 0 0 0-.04.359v.085l.039-.085a.636.636 0 0 1 .323-.308c.124-.057.19-.062.826-.072.43-.006.69 0 .69.017 0 .016-.129.128-.287.25-.716.556-1.095 1.17-1.239 2.007-.108.633.075 1.345.442 1.71.191.192.41.304.69.355.265.048.354.05.652.013zm9.457-.535c.923-.243 2.013-.83 3.16-1.7.211-.161.453-.327.536-.369.198-.098.393-.122.51-.062.16.083.209.21.321.843.052.291.161.604.257.733.11.151.335.265.564.286a.513.513 0 0 0 .325-.057c.086-.04.208-.117.27-.174l.113-.102.097.073c.475.355 1.13.435 1.823.222.282-.088.283-.088.596-.043.133.019.349.03.48.026l.238-.01-.15-.284c-.337-.64-.7-1.148-1.053-1.475l-.208-.193.28-.412c.155-.227.288-.412.297-.412.027 0 .387.46.501.639.131.206.28.526.327.7l.034.128.067-.228c.144-.492.4-1.125.457-1.125.062 0 .264.258.32.409.124.33.122.338-.147.822a9.176 9.176 0 0 0-.616 1.3l-.06.154.183-.019c.896-.091 1.477-.541 1.674-1.295.075-.286.082-.818.014-1.099-.17-.704-.678-1.133-1.571-1.327-.247-.054-.402-.064-1.174-.077l-.89-.014v.975h.213c.14 0 .214.01.214.032 0 .018-.034.123-.075.235-.06.16-.078.268-.087.516-.01.29-.005.332.072.556.058.166.074.248.053.261a3.6 3.6 0 0 1-.26.097 1.65 1.65 0 0 1-1.176-.06l-.092-.038.097-.21c.332-.719.306-1.34-.073-1.773-.152-.172-.474-.22-.702-.104-.124.063-.297.268-.4.475-.166.33-.193.776-.074 1.227.04.155.08.308.087.34.013.055.003.058-.18.048-.453-.023-.678-.227-.75-.68-.092-.576-.189-.822-.37-.945-.083-.056-.124-.065-.234-.053-.185.022-.236.052-.827.495-.733.548-1.218.86-1.745 1.12-.738.365-1.427.566-2.122.62-.65.051-1.092-.06-1.625-.41-.202-.131-.718-.62-.999-.944-.15-.174-.25-.198-.327-.079-.1.154.024.495.38 1.04.462.707.957 1.126 1.586 1.343.378.13.635.166 1.099.155a2.58 2.58 0 0 0 .742-.098zm-1.056-2.782c.4-.147.784-.36 1.015-.562.09-.08.094-.089.047-.125-.083-.063-.403-.153-.546-.153-.199 0-.442.07-.73.211-.248.122-.67.418-.807.566l-.068.073.139.045c.222.07.68.044.95-.055zM6.11 13.66l-.306-.306.307-.306.307-.306.312.314.312.313-.298.299a5.08 5.08 0 0 1-.313.3c-.008 0-.153-.139-.321-.308zm7.527-3.723-.298-.3.312-.313.313-.313.285.285.286.284.285-.285.285-.284.312.313.313.314-.306.306-.305.305-.279-.277c-.153-.153-.291-.277-.307-.277-.015 0-.15.121-.298.27-.148.149-.276.27-.284.27-.008 0-.15-.134-.314-.298zm2.955-.008-.306-.307.307-.306.306-.306.313.314.312.313-.298.3a4.702 4.702 0 0 1-.313.298c-.008 0-.153-.138-.321-.306z"/></svg>