<svg viewBox="0 0 24 24" xmlns="http://www.w3.org/2000/svg" role="img"><path d="M22.62 18.205c-.648-.284-1.023-.642-1.495-1.428-.537-.894-1.109-2.816-1.307-4.392l-.057-.454-.175.089c-.73.372-2.137.749-2.8.749-.23 0-.28.024-.828.399l-.584.399-.229-.352c-.126-.193-.254-.351-.285-.351-.105-.001-.76-.365-1.091-.606-.21-.152-.379-.24-.46-.24-.072 0-.363.063-.648.14-.64.175-.917.18-1.222.026l-.228-.116-.3.268c-.432.384-1.083.884-1.31 1.005l-.194.104-1.133-.758c-1.052-.705-1.168-.77-1.638-.922-.549-.177-1.184-.311-1.473-.311-.1 0-.183-.023-.183-.05 0-.155-.607-.235-1.014-.133-.333.084-.31.15.045.128.226-.015.311-.004.311.037 0 .032-.038.07-.084.085-.192.06-.82.118-1.325.12-.622.003-1.12.093-1.35.246-.155.103-.16.116-.138.342.054.55.452 1.196 1.018 1.652.394.318 1.086.677 1.62.842.233.072.445.155.47.185.104.12 1.639.408 2.632.495.626.054 2.027.035 2.337-.033.121-.026.13-.018.129.13 0 .143-.02.167-.211.245-.117.048-.212.104-.212.125 0 .02-.17.052-.379.07-.354.032-.393.046-.599.225-.174.15-.223.174-.235.112-.02-.105-.16-.099-.384.016-.144.073-.277.094-.606.094-.435 0-.529.035-.588.223-.024.075-.086.08-.72.052-1.088-.047-1.957-.246-2.626-.603-.445-.238-1.875-1.245-1.979-1.394a25.156 25.156 0 0 0-.498-.642C.072 13.365 0 13.225 0 12.875c0-.693.225-1.133.905-1.768.557-.52.655-.589.844-.591.071-.001.314-.063.54-.138.51-.168 1.188-.287 1.642-.287.19 0 .345-.016.345-.035 0-.02.039-.084.085-.143l.083-.108.428.143c.402.135.978.197 1.06.115.043-.043-.015-.16-.08-.16-.032 0-.081-.05-.109-.111-.028-.061-.146-.158-.262-.214-.154-.074-.284-.2-.48-.464-.422-.568-.726-.855-.906-.855-.024 0-.06.233-.078.517l-.034.517h-.136c-.077 0-.136-.026-.136-.06 0-.031-.123-.2-.273-.374-.342-.395-.5-.716-.567-1.148-.048-.313-.04-.391.118-1.15.093-.449.188-.835.21-.859.024-.026.202.026.448.133.3.13.416.162.442.12.048-.078.275-.018.41.108a.666.666 0 0 1 .152.268c.193.718 1.58 2.213 2.82 3.039.24.16.333.259.44.465.094.18.28.392.595.683.347.32.483.482.564.668l.107.244.129-.282c.337-.735.283-1.668-.122-2.091-.1-.105-.112-.157-.103-.438.009-.27-.004-.33-.082-.387-.084-.062-.087-.086-.033-.29.032-.123.125-.333.205-.466.14-.233.165-.25.563-.392.399-.143.555-.156.555-.046 0 .097.212.335.548.616.252.212.378.36.494.584.15.29.153.303.077.431-.071.12-.072.158-.01.413.045.18.074.564.08 1.067.01.857.009.855.286.78.376-.101.713-.49 1.132-1.31.253-.496.274-.523.392-.5.337.068.368.1.396.405.053.593.491 1.226.958 1.385.121.041.223.07.227.063.004-.006.12-.308.258-.67.21-.547.34-.794.782-1.481.462-.718.599-.892 1.061-1.342 1.01-.986 1.706-1.367 2.692-1.477.42-.047.455-.044.568.044.095.075.138.084.204.042.15-.093.238-.014.238.215 0 .159.043.28.18.507.503.827.76 1.778.482 1.778-.183 0-.192.316-.032 1.188.063.341.16 1.001.214 1.466.227 1.929.504 3.034 1.003 3.994.327.628.994 1.245 1.348 1.245.053 0 .11.034.126.077.068.177-.37 1.325-.595 1.558-.212.22-.424.245-.778.09zm-3.194-8.018c.015-.025-.035-.263-.112-.529-.177-.61-.334-1.308-.334-1.493 0-.077-.01-.141-.024-.141s-.199.137-.411.305c-.229.18-.432.305-.499.305a.657.657 0 0 0-.268.098c-.206.127-.536.504-.536.612 0 .146.323.407.698.563.553.23 1.416.393 1.486.28zm-8.641 6.531c-.054-.059-.176-.102-.348-.123a1.51 1.51 0 0 1-.348-.075c-.078-.04-.315-.462-.383-.68-.04-.13.12-.322.528-.63.3-.226.37-.252.619-.235.41.027.993.418 1.057.709.045.203-.129.53-.452.855-.223.224-.296.27-.43.27a.334.334 0 0 1-.243-.09z"/></svg>