<svg viewBox="0 0 24 24" xmlns="http://www.w3.org/2000/svg" role="img"><path d="M12 0C5.373 0 0 5.373 0 12s5.373 12 12 12 12-5.373 12-12S18.627 0 12 0zm0 2c5.523 0 10 4.477 10 10a10 10 0 0 1-4 7.988V12a6 6 0 0 0-1.76-4.24L18 6h-6a6 6 0 0 0-4.24 1.76l-.002-.002-2.828 2.828L3.516 12l1.414 1.414 2.12 2.121-2.788 2.79A10 10 0 0 1 2 12C2 6.477 6.477 2 12 2zm0 6a4 4 0 0 1 4 4v9.152A10 10 0 0 1 12 22a10 10 0 0 1-6.324-2.262l1.02-1.02 1.835-1.835 1.348-1.348A7998.88 7998.88 0 0 0 6.344 12L9.17 9.172l.002.002A4 4 0 0 1 12 8zm-1 1.75a1.25 1.25 0 0 0-.541 2.377h.002v-.002A1.25 1.25 0 1 0 11 9.75z"/></svg>