<svg role="img" viewBox="0 0 24 24" xmlns="http://www.w3.org/2000/svg"><path d="M13.753 14.79c-.3-.22-.104-.787.272-.787.178 0 .43.26.43.444s-.252.444-.43.444a.554.554 0 0 1-.272-.101zm1.606-.015c-.367-.256-.06-.865.368-.732.213.067.279.165.28.418.001.19-.224.43-.405.43-.043 0-.153-.052-.243-.116zm2.491.067c-.107-.03-.288-.316-.288-.459 0-.118.308-.38.447-.38.188 0 .441.254.441.444 0 .168-.25.448-.388.435a1.57 1.57 0 0 1-.212-.04zM1.423 13.16C.517 12.837.013 12.152 0 11.228c-.01-.787.492-1.579 1.21-1.908.309-.142.476-.153 2.367-.158l2.035-.006.022.421.022.421-2.02.023c-1.98.022-2.024.026-2.262.196-.287.204-.535.655-.535.973 0 .513.413 1.042.91 1.163.13.032 1.06.042 2.064.022 1.697-.035 1.84-.048 2.03-.19.357-.267.48-.502.55-1.055.159-1.269.842-1.889 2.188-1.984.371-.026.762-.026.87 0 .18.046.194.08.194.455v.406h-.648c-.82 0-1.11.083-1.418.4-.21.218-.26.342-.342.85-.16 1.001-.507 1.495-1.303 1.856-.295.134-.486.146-2.283.145-1.412-.001-2.035-.029-2.228-.098zm6.55 0c-.022-.056-.029-.248-.016-.425l.023-.323 1.994-.022c1.847-.02 2.01-.032 2.234-.17.356-.22.545-.571.545-1.013 0-.446-.153-.743-.508-.986-.225-.155-.359-.18-1.062-.202l-.805-.025.022-.42.022-.418.84.014c.742.012.89.037 1.238.208 1.334.652 1.534 2.416.386 3.4-.513.438-.796.485-2.96.485-1.563 0-1.92-.02-1.953-.103zm5.608-.313l.023-.435.348-.015c.44-.019.735-.171.998-.516.203-.266.208-.295.244-1.498l.038-1.227.388-.004.389-.003-.006 1.261c-.003.768-.04 1.354-.093 1.497-.287.778-.974 1.277-1.84 1.34l-.512.036.023-.436zm2.427-.016v-.432h.315c.487 0 1.013-.326 1.163-.72.042-.111.076-.713.076-1.338V9.205l.204-.036a1.99 1.99 0 0 1 .425-.018l.222.018.037 1.214c.042 1.354.077 1.475.522 1.792.223.16.377.209.661.211l.371.003v.874h-.32c-.485 0-1.021-.19-1.362-.482l-.307-.262-.386.292a2.088 2.088 0 0 1-1.32.452h-.3zm5.323.293c-.69-.27-1.098-.726-1.282-1.435-.197-.755.082-1.565.714-2.074.458-.369.702-.425 2.035-.467L24 9.109v.898h-1.017c-1.158 0-1.486.068-1.791.366-.57.558-.415 1.522.307 1.898.147.076.506.104 1.35.104H24v.888l-1.165-.004c-.938-.003-1.232-.03-1.504-.135z"/></svg>