<svg viewBox="0 0 24 24" xmlns="http://www.w3.org/2000/svg" role="img"><path d="M2.246 18.56a3.381 3.381 0 0 1-.66-.151c-.832-.307-1.369-1-1.548-2.001-.04-.226-.044-.952-.03-5.586L.02 6.73h4.01l.045-.093c.055-.113.102-.14.177-.102.044.023.054.04.063.11l.01.085H24v11.849l-10.807-.002c-6.104 0-10.868-.009-10.948-.017zm12.55-.579a.991.991 0 0 0 .128-.057c.01-.007.198-.105.42-.218l.56-.287c.236-.121.655-.28.794-.3.332-.049.422-.09.595-.267.513-.528.722-.89.933-1.626.118-.408.24-1.287.199-1.437-.017-.063-.033-.044-.073.084-.248.796-.348.998-.809 1.634a4.18 4.18 0 0 1-.538.63 9.397 9.397 0 0 1-1.05.926c-.06.047-.343.243-.629.435-.537.36-.652.444-.68.496-.023.044.013.04.15-.013zm-10.574.01c.745-.016 1.046-.038 1.497-.109.321-.05.974-.177 1.21-.236a26.265 26.265 0 0 0 1.815-.533 16.35 16.35 0 0 0 1.413-.605c.256-.128.966-.54 1.197-.695.092-.062.223-.148.291-.192.266-.172.767-.57 1.305-1.035.298-.259.865-.86 1.197-1.27.178-.221.55-.723.55-.743 0-.005.066-.12.145-.258.08-.136.19-.335.245-.441.055-.106.119-.223.14-.26.02-.037.067-.13.1-.21a7.693 7.693 0 0 0 .509-1.6c.083-.44.148-1.54.123-2.095l-.013-.285-.066.1a8.56 8.56 0 0 0-.427.858c-.074.212-.085.31-.085.785 0 .471-.024 1.02-.05 1.187a4.678 4.678 0 0 1-.271.797c-.088.185-.23.415-.304.495-.025.027-.045.058-.045.07 0 .012-.01.024-.013.027a.5.5 0 0 0-.078.098c-.306.431-.768.903-1.485 1.517-.34.291-.498.416-.788.622-.734.522-1.348.876-2.162 1.246-.106.049-.253.118-.326.155-.285.142-.774.328-1.459.554-.446.147-.945.279-1.34.354l-.344.067a8.65 8.65 0 0 1-.402.07l-.36.052c-.093.013-.248.03-.344.038a8.91 8.91 0 0 0-.319.033c-.217.03-.996.046-1.483.033-.428-.012-.975-.05-1.173-.082-.055-.01-.222-.036-.369-.06a6.894 6.894 0 0 1-.738-.165 5.759 5.759 0 0 1-.734-.29.848.848 0 0 0-.218-.085c-.053.008-.076.107-.077.333 0 .229.017.344.082.503.137.335.314.537.696.79.37.246.813.368 1.576.432l.452.039c.123.01.214.01.93-.005zm12.772-.075c.42-.168.417-.167.693-.163.234.004.254.002.36-.04.21-.083.6-.372.76-.563.102-.123.383-.567.383-.606 0-.004.045-.101.099-.215.093-.193.24-.62.321-.927.209-.794.268-1.199.35-2.405l.026-.34c0-.045.02-.452.033-.906.024-.821.037-1.033.083-1.335.068-.447.113-.721.13-.8.02-.095.01-.143-.025-.13-.03.012-.347.688-.347.737 0 .005-.035.079-.077.164a2.634 2.634 0 0 0-.216.56 3.957 3.957 0 0 0-.042.39c-.01.153-.022.292-.026.31 0 .02-.019.513-.033 1.099-.037 1.537-.05 1.825-.099 2.095a3.866 3.866 0 0 1-.233.789c-.073.175-.28.537-.354.619a6.907 6.907 0 0 0-.187.234c-.28.364-.72.764-1.03.94a2.717 2.717 0 0 0-.198.124 8.7 8.7 0 0 1-.304.194c-.23.14-.316.201-.341.246-.021.036.059.016.273-.07zm-.539-2.18c.1-.05.164-.1.288-.224.164-.164.184-.193.353-.513.09-.168.103-.21.151-.444.092-.451.084-.878-.019-1.023-.046-.065-.179-.126-.4-.184-.258-.068-.26-.068-.3.039-.046.124-.216.663-.23.73-.015.072-.085.154-.133.154-.08 0-.158-.113-.236-.344-.036-.107-.046-.18-.059-.425-.022-.407 0-.82.08-1.326a15.9 15.9 0 0 0 .065-.486c.026-.232.032-.633.01-.668-.018-.028-.063.077-.145.34-.034.111-.073.232-.086.269a1.847 1.847 0 0 0-.047.176c-.191.892-.274 1.442-.32 2.129-.06.88.044 1.43.325 1.71.133.132.232.17.427.16a.52.52 0 0 0 .277-.07zM4.843 15.16c.528-.045.778-.07.921-.09l.327-.05c.092-.014.217-.03.277-.036.405-.043 1.318-.286 1.986-.528.334-.12.851-.329.987-.397.063-.032.183-.088.267-.124.083-.036.163-.076.178-.088.014-.013.147-.086.294-.162.148-.077.31-.167.36-.2.052-.034.18-.114.286-.177.106-.063.334-.21.507-.326l.4-.264c.278-.174.751-.573 1.13-.951.455-.456.694-.742.991-1.184.225-.335.372-.602.505-.912.096-.224.214-.574.2-.588a.44.44 0 0 0-.057.09c-.028.054-.13.218-.227.365a4.6 4.6 0 0 1-.793.946 16.43 16.43 0 0 0-.2.18c-.257.242-1.118.92-1.222.959a3.028 3.028 0 0 0-.266.165c-.244.163-.655.408-.841.5-.065.033-.213.112-.328.175-.496.271-1.191.537-2.272.868-.157.048-.486.13-.813.203a25.38 25.38 0 0 1-1.005.178 16.7 16.7 0 0 1-1.83.14c-.423 0-1.312-.07-1.564-.124a1.205 1.205 0 0 0-.16-.026c-.066 0-.53-.11-.712-.168a4.666 4.666 0 0 1-.636-.248c-.213-.112-.41-.33-.41-.456-.002-.083.081-.213.216-.338.167-.156.298-.236 1.053-.645.18-.097.227-.125.302-.175a.312.312 0 0 1 .095-.048.947.947 0 0 0 .171-.157c.168-.179.313-.401.425-.651.053-.119.086-.173.112-.183.066-.024.098.028.163.26.033.118.072.24.086.27a.841.841 0 0 0 .276.3c.088.05.101.052.277.052.186 0 .186 0 .333-.073.236-.117.413-.324.593-.692.16-.33.247-.65.266-.978.015-.27-.026-.422-.146-.542-.068-.068-.078-.072-.393-.163L4.723 9c-.023-.007-.04.029-.096.197-.037.113-.099.323-.138.466-.092.344-.14.398-.248.276-.076-.087-.117-.177-.163-.358-.067-.265-.083-.515-.06-.954.022-.406.067-.855.12-1.174.016-.107.036-.25.043-.318l.012-.123-.073.005-.073.005-.072.21c-.116.34-.169.505-.196.612-.039.153-.073.474-.102.955-.043.714-.138 1.193-.3 1.515-.15.298-.422.573-.836.845-.488.322-.686.45-.714.46-.03.011-.074.047-.334.279-.463.412-.836.975-.968 1.46-.06.221-.076.554-.033.7.053.18.204.363.422.511.249.168.728.367.98.405l.4.068a13.2 13.2 0 0 0 1.057.123c.163.013 1.326.009 1.491-.005zm4.93-4.272c.012-.017.06-.072.106-.123.405-.443.44-.486.511-.642.135-.292.08-.453-.215-.641a6.138 6.138 0 0 0-.536-.302l-.157-.08-.066.075c-.037.042-.14.17-.229.285-.366.473-.566.758-.55.785.01.01.091.048.19.088.229.09.324.137.448.222.09.06.304.242.387.327.042.044.084.046.112.005zm7.848-1.205c.395-.38.692-.571.982-.632.162-.034.196-.033.57.024.18.027.39.054.47.06.328.024.933-.058 1.24-.168.281-.102.674-.314.846-.457.086-.072.463-.427.544-.512.201-.214.483-.65.565-.879.037-.102.037-.105.01-.105-.018 0-.057.029-.088.063-.246.28-.451.45-.75.622-.48.274-1.196.387-1.81.286-.376-.062-.443-.069-.586-.058a2.005 2.005 0 0 0-.57.15 1.197 1.197 0 0 1-.14.06c-.087.028-.383.226-.505.337a3.743 3.743 0 0 0-.666.797c-.08.13-.265.503-.265.532 0 .026.03.002.158-.12zM4.205 6.825v-.172l-.033.061a1.84 1.84 0 0 0-.074.172l-.042.11h.15zm-.376-.374c-.149-.078-.185-.172-.17-.44.016-.317.063-.456.154-.456.068 0 .096.046.086.142-.012.114.018.18.097.217.061.03.064.03.107-.003a.446.446 0 0 0 .146-.234c.03-.104.08-.14.147-.11.032.015.042.036.05.108.01.055.022.098.039.11.04.03.132.027.163-.004.03-.03.06-.13.06-.201 0-.028.016-.075.034-.105.04-.067.096-.071.152-.011.04.041.041.053.041.264 0 .212 0 .225-.052.33a.634.634 0 0 1-.28.307c-.137.066-.175.07-.265.024-.068-.035-.082-.037-.11-.017-.131.1-.296.132-.399.078zm.27-.143a.517.517 0 0 0 .098-.067c.016-.026.088-.017.155.018.078.042.106.042.186.001a.544.544 0 0 0 .282-.47c0-.108 0-.117-.012-.063-.034.136-.11.197-.246.197-.084 0-.182-.046-.2-.093-.01-.02-.015-.021-.033-.006-.013.01-.023.026-.023.035 0 .066-.175.198-.262.198-.064 0-.202-.087-.228-.144-.018-.039-.02-.04-.032-.013a.627.627 0 0 0-.013.17c0 .157.023.223.095.262.07.039.134.032.232-.025z"/></svg>