<svg role="img" viewBox="0 0 24 24" xmlns="http://www.w3.org/2000/svg"><path d="M16.829 16.662a1.558 1.558 0 0 1-.493-.306c-.214-.197-.293-.09 1.08-1.467 1.669-1.672 1.698-1.697 1.999-1.694.28.002.256-.019 1.801 1.524 1.14 1.137 1.396 1.404 1.396 1.454 0 .12-.353.392-.628.485a.815.815 0 0 1-.36.041.738.738 0 0 1-.393-.098c-.172-.084-.23-.136-1-.902l-.816-.812-.817.811c-.733.728-.834.82-.99.902-.165.086-.186.09-.417.098-.19.005-.27-.002-.362-.036zm5.19-2.744c-1.213-1.216-1.401-1.414-1.46-1.535-.117-.245-.083-.459.114-.719.109-.141 2.66-2.698 2.731-2.735.045-.023.08-.027.12-.011.082.03.28.285.38.486.086.17.087.177.087.452v.28l-.092.173c-.081.155-.178.262-.895.985l-.805.81.767.777c.98.99 1.049 1.094 1.032 1.532a.74.74 0 0 1-.105.417c-.12.241-.33.483-.42.484-.05 0-.307-.247-1.454-1.396zm-14.056.806c-.163-.058-.248-.175-.248-.338 0-.198.125-.343.314-.364.134-.015.203.005.297.087.21.185.13.53-.145.622-.097.032-.108.032-.218-.007zm.88 0c-.177-.064-.263-.205-.242-.396.021-.187.167-.312.364-.312.269 0 .445.276.328.515a.363.363 0 0 1-.45.193zM0 13.738c0-.013.038-.1.084-.191.11-.217.304-.41.488-.484l.135-.055 1.621-.011c1.622-.012 1.622-.012 1.704-.063a.465.465 0 0 0 .133-.142c.05-.09.052-.107.052-.952v-.86l.376.006.377.006.011.9.012.899.085.078a.52.52 0 0 0 .173.102c.056.015.409.025.94.025.697 0 .852.006.852.031 0 .068-.149.324-.258.443-.23.251-.451.303-1.234.285-.528-.012-.644-.035-.822-.166l-.076-.057-.108.069c-.242.154-.124.146-2.442.154-1.476.005-2.103 0-2.103-.017zm8.178 0a.987.987 0 0 1-.744-.572c-.054-.134-.055-.142-.061-1.222-.006-1.043-.005-1.094.04-1.245a.642.642 0 0 1 .186-.305 1.2 1.2 0 0 1 .457-.304l.051-.015.007 1.316c.007 1.47 0 1.397.173 1.53.074.055.106.064.24.064.133 0 .165-.009.239-.065.12-.092.16-.183.179-.417.022-.263.092-.409.277-.58.111-.104.388-.27.447-.27.007 0 .016.238.02.529.007.515.01.53.063.61a.618.618 0 0 0 .138.137l.081.056 2.452.006c2.018.005 2.452.012 2.452.037 0 .076-.16.339-.277.456a.783.783 0 0 1-.5.253c-.099.014-.926.023-2.131.023-1.205 0-2.032-.009-2.131-.023a.799.799 0 0 1-.462-.21l-.106-.094-.098.084c-.239.204-.563.277-.992.221zm6.91-1.048.006-1.049.064-.13c.102-.207.34-.405.61-.507l.056-.022v2.756h-.743zm-9.453-.149a.357.357 0 0 1-.076-.595.35.35 0 0 1 .51.019c.068.07.08.1.09.221.008.12.001.152-.05.228a.375.375 0 0 1-.474.127zm.876-.004c-.365-.195-.161-.761.246-.685a.434.434 0 0 1 .287.267.392.392 0 0 1-.07.328.388.388 0 0 1-.463.09zm12.718-1.748a1.204 1.204 0 0 1-.197-.108c-.063-.043-.722-.683-1.465-1.423-1.553-1.549-1.447-1.405-1.204-1.624.082-.075.227-.172.336-.226a.764.764 0 0 1 .378-.106.999.999 0 0 1 .63.163c.092.059.426.373.926.87l.781.779.806-.8c.777-.772.812-.804 1.003-.898a.937.937 0 0 1 .694-.086c.271.07.695.373.695.498 0 .038-.333.39-1.245 1.314-1.304 1.321-1.521 1.528-1.695 1.612a.663.663 0 0 1-.443.035zm-14.99-.05c0-.069.135-.304.243-.424a.883.883 0 0 1 .263-.196l.154-.076 1.06-.007c.74-.005 1.061 0 1.061.018a.932.932 0 0 1-.072.167c-.1.2-.29.391-.468.473l-.143.067-1.049.007c-.944.006-1.048.003-1.048-.03zm9.94.003c0-.065.145-.319.246-.43a.885.885 0 0 1 .259-.193l.154-.076 1.074-.007 1.074-.007-.016.053a1.2 1.2 0 0 1-.445.567c-.194.114-.286.122-1.356.123-.812 0-.99-.005-.99-.031z"/></svg>