<svg role="img" viewBox="0 0 24 24" xmlns="http://www.w3.org/2000/svg"><path d="M5.778 17.156a25.696 25.696 0 0 1-1.111-1.978v-.008a14.385 14.385 0 0 0 2.155-1.918l.03-.03a14.444 14.444 0 0 0 1.444-1.866h.008c.74.563 1.518 1.074 2.326 1.525h.007v.015a17.26 17.26 0 0 1-4.385 4.57l-.008.008-.03.022-.147.104h-.008l-.266-.415zm6.555.637v.007a21.393 21.393 0 0 1-3.592 3.215h-.008a26 26 0 0 1-1.777-2.14v-.008a19.481 19.481 0 0 0 2.651-2.237 23.556 23.556 0 0 0 2.719 1.163zm2.37-3.2h-.007l-.015.03v.007a21.26 21.26 0 0 1-1.377 2v.007h-.008a19.676 19.676 0 0 1-2.689-1.096H10.6a18.815 18.815 0 0 0 1.4-1.897l.03-.044h.007c.837.378 1.704.711 2.593.97h.014l.037.015zM22.134 0v2.778l-.007.03H1.904v-.023h-.037V.007h20zM4.652 4.356v.007a8.385 8.385 0 0 1-2.126 4.844v.015l-.007-.015-.112-.526a25.785 25.785 0 0 1-.496-4.318zm7.66 5.237a16.763 16.763 0 0 1-.993 2.148v.015h-.008A17.63 17.63 0 0 1 8.978 10.2a14.2 14.2 0 0 0 .948-2.267V7.92l.015.007a16.052 16.052 0 0 0 2.37 1.66zM5.14 8.148v-.015a9.852 9.852 0 0 0 1.081-3.77h2.8a13.015 13.015 0 0 1-.37 2.356A12.563 12.563 0 0 1 4.6 13.222c-.2.17-.407.341-.615.497h-.007a25.881 25.881 0 0 1-1.008-2.77 9.926 9.926 0 0 0 2.104-2.682l.007-.015.015-.022.037-.074zm8.244-3.792v.007a17.185 17.185 0 0 1-.644 3.94h-.008a14.689 14.689 0 0 1-2.422-1.807V6.49a13.57 13.57 0 0 0 .274-2.126zm3.37 5.703v.015a20.94 20.94 0 0 1-1.392 3.333 18.333 18.333 0 0 1-2.652-.948v-.015a17.378 17.378 0 0 0 1.43-3.407 19.289 19.289 0 0 0 .74-3.778l.067-.889v-.014h2.793v.007a21.57 21.57 0 0 1-.956 5.593v.014l-.007.03zm5.341-5.703v.007a25.926 25.926 0 0 1-2.066 9.348 24.74 24.74 0 0 1-.763 1.622l-.023.037a25.733 25.733 0 0 1-1.296 2.223v.014c-.015 0-.015.015-.022.023-.282.422-.57.844-.867 1.244l-.044.052v.015a27.622 27.622 0 0 1-1.734 2.074l-.014.015-.015.014A25.993 25.993 0 0 1 12.007 24a25.896 25.896 0 0 1-2.163-1.852h-.007v-.007a23.296 23.296 0 0 0 5.052-5.03l.007-.015a23.126 23.126 0 0 0 2.963-5.459l.037-.104a22.956 22.956 0 0 0 1.408-7.17z"/></svg>