<svg viewBox="0 0 24 24" xmlns="http://www.w3.org/2000/svg" role="img"><path d="M.092 23.913c-.06-.038-.077-.971-.087-4.632-.012-4.435-.01-4.587.097-4.693.103-.103.184-.108 1.28-.079.644.017 1.199.049 1.233.07.094.058.086 9.22-.007 9.313-.08.08-2.392.1-2.516.02zm4.203-.179c-.066-.124-.076-10.993-.01-11.548l.037-.318 1.234-.015c.861-.011 1.257.004 1.313.05.11.091.12 11.764.01 11.874-.05.05-.419.07-1.297.07-1.154 0-1.23-.008-1.287-.112zm4.16.032c-.085-.102-.083-14.725.002-14.885.049-.091.172-.101 1.286-.101.967 0 1.246.017 1.297.078.048.058.061 2.068.05 7.519l-.014 7.44-1.277.016c-1.045.012-1.288 0-1.344-.067zm3.607.03c-.017-.028-.033-3.534-.035-7.792-.003-5.272-.023-7.797-.065-7.916-.035-.1-.114-.188-.185-.205-.068-.017-1.042-.024-2.163-.015-1.942.016-2.044.023-2.122.13-.065.088-.082.373-.082 1.359 0 .893-.02 1.267-.069 1.316-.051.051-.564.07-1.95.07-1.608 0-1.899.013-2.009.09-.125.087-.128.118-.128 1.208 0 .958-.013 1.131-.094 1.212-.084.084-.256.093-1.44.077-1.009-.014-1.365-.037-1.422-.094-.057-.057-.073-.378-.07-1.356.003-1.066.025-1.393.13-1.945.278-1.458.554-2.27 1.187-3.495.582-1.126 1.122-1.869 2.05-2.816C5.486 1.697 7.655.58 10.356.144c.89-.144 2.77-.142 3.607.002 1.255.217 2.203.518 3.29 1.044 1.26.61 2.083 1.182 3.084 2.14 1.92 1.838 3.075 4.033 3.563 6.777.119.67.137 2.594.032 3.386-.23 1.735-.71 3.062-1.742 4.811-.738 1.251-2.74 3.21-3.94 3.856l-.68.366c-.78.421-2.072.882-2.978 1.063-1.071.213-2.455.326-2.53.206z"/></svg>