<svg viewBox="0 0 24 24" xmlns="http://www.w3.org/2000/svg" role="img"><path d="M10.806 21.127c-.356-.395-.352-.443.104-1.06.455-.614.503-.63.985-.314.608.398.651.946.115 1.431-.508.46-.746.448-1.204-.057zm2.366-.342c-.35-.265-.375-.394-.163-.858.347-.763.847-.895 1.378-.364.424.424.428.472.085.996-.409.624-.706.675-1.3.226zm5.393-3.111c.071-1.285.258-2.518.434-2.866.409-.81.233-.925-.625-.404-1.05.637-3.875 1.523-6.076 1.906-1.711.299-3.931.31-5.763.028-.286-.044-.471.171-.69.799-.345.995-1.206 1.827-1.884 1.822-1.411-.01-1.696-1.355-1.209-5.72.224-2.004.532-3.252.75-3.034.06.06.023.967-.082 2.017-.104 1.05-.174 1.93-.155 1.957.065.09 5.159-4.974 6.098-6.062.721-.836.895-.955.78-.537-.328 1.195-1.289 2.436-3.432 4.439-1.24 1.157-2.255 2.184-2.255 2.282 0 .097.075.13.168.073.092-.057.841.042 1.664.22 2.23.481 6.267.276 8.906-.453 3.137-.866 5.697-2.184 7.464-3.842.868-.816.895-1.216.08-1.216-.986 0-1.236-.487-.776-1.508.69-1.53 2.038-.883 2.038.977 0 1.466-1.498 3.335-4.043 5.041-.428.287-.5.58-.651 2.685-.106 1.476-.301 2.604-.518 3.007-.335.619-.343.555-.223-1.611zm-13.45-.652c.553-.296.539-1.2-.025-1.501-.241-.13-.749-.205-1.127-.169-.52.05-.705.182-.755.539-.16 1.118.832 1.706 1.906 1.131zm3.244-3.64c.039-.112.642-.666 1.341-1.231.7-.565 1.607-1.51 2.017-2.101.65-.936.726-.991.593-.43-.226.958-1.118 2.385-1.788 2.86-.765.544-2.254 1.165-2.163.902zm5.294-.818c1.075-.79 1.971-1.602 1.971-1.785 0-.106-.19-.192-.422-.192-.686 0-.902-.68-.48-1.511.455-.895.774-1.006 1.262-.437.51.596.597.57 1.13-.333.4-.677.538-.761 1.075-.654.476.096.696.015.965-.35l.348-.474-.138.537c-.198.77-.907 1.474-1.365 1.354-.439-.115-1.086.676-1.945 2.376-.462.913-.688 1.117-1.611 1.458-1.308.482-1.434.483-.79.01zm-13.6-1.476c.118-.109.971-.765 1.895-1.459.925-.693 1.915-1.605 2.202-2.027.592-.87.7-.564.167.472-.644 1.249-1.387 2.056-2.294 2.49-1.027.49-2.3.829-1.97.524zm6.044-3.455c.102-.206.185-1.188.185-2.182 0-1.145.088-1.837.24-1.888.299-.1.506.626.504 1.762-.002.82-.676 2.684-.972 2.684-.077 0-.058-.169.043-.376zm5.257-2.577-.451-.376.444-.691c.43-.668.464-.68.965-.352.607.398.644.663.186 1.318-.404.575-.558.59-1.144.101zm4.84-.582c-.384-.291-.384-.322-.008-.96.448-.758.73-.82 1.23-.266.456.503.448.745-.037 1.184-.473.428-.666.435-1.185.042zm5.029-.32c-.406-.305-.454-.45-.267-.8.126-.235.384-.556.574-.714.294-.244.414-.219.804.171.407.407.426.518.173.991-.382.715-.692.8-1.284.353z"/></svg>