<svg role="img" viewBox="0 0 24 24" xmlns="http://www.w3.org/2000/svg"><path d="M12.798 3.084A5.416 5.416 0 0 0 7.683 7.27H5.979l1.084-1.08-1.166-1.166L4.732 6.19l1.081 1.08h-.397a5.42 5.42 0 0 0-5.41 5.186C0 12.532 0 13.164 0 13.241a5.414 5.414 0 0 0 4.495 5.336v-1.681a3.796 3.796 0 0 1-2.848-3.655c0-.056 0-.668.004-.723a3.772 3.772 0 0 1 3.764-3.603h6.697V7.27H9.396a3.769 3.769 0 0 1 7.331 1.227v1.17h-2.335v1.647h3.97a3.978 3.978 0 1 1 .01 7.957v-7.31h-1.645v8.957h1.637A5.643 5.643 0 0 0 24 15.304v-.024a5.643 5.643 0 0 0-5.626-5.613v-1.17a5.416 5.416 0 0 0-5.575-5.413zm-2.29 6.487a3.16 3.16 0 0 0 .093 6.319h1.513v.336a.708.708 0 0 1-.728.704H7.429v1.647h3.957c1.31 0 2.375-1.054 2.375-2.35V12.73a3.16 3.16 0 0 0-3.253-3.16zm-5.37.096v8.91h1.648v-8.91zm5.399 1.55a1.513 1.513 0 0 1 1.576 1.513v1.513H10.6a1.513 1.513 0 0 1-.063-3.025zm3.881.744v4.224a2.987 2.987 0 0 1-2.983 2.984h-1.062v1.647h1.062a4.635 4.635 0 0 0 4.63-4.63v-4.225zm-6.66 7.194a.124.124 0 0 0-.006 0 .176.176 0 0 0-.085.017.207.207 0 0 0-.052.039v-.047h-.1v.598h.115v-.458a.103.103 0 0 1 .034-.033.093.093 0 0 1 .042-.009.061.061 0 0 1 .044.015.078.078 0 0 1 .015.052v.432h.116v-.457a.173.173 0 0 0-.033-.115.124.124 0 0 0-.09-.034zm-1.752 0a.098.098 0 0 0-.005 0 .145.145 0 0 0-.075.02.243.243 0 0 0-.057.051v-.059h-.1v.598h.115l-.003-.453a.122.122 0 0 1 .033-.035.067.067 0 0 1 .04-.014.04.04 0 0 1 .039.02.09.09 0 0 1 .01.041.18.18 0 0 1 0 .033.22.22 0 0 1-.008.036h.103a.34.34 0 0 0 .012-.091.276.276 0 0 0-.006-.056.143.143 0 0 0-.018-.046.095.095 0 0 0-.034-.032.098.098 0 0 0-.047-.012zm-.686.004a.252.252 0 0 0-.083.01.118.118 0 0 0-.08.086.248.248 0 0 0-.01.067.326.326 0 0 0 0 .035c0 .01.003.019.004.029h.104a.258.258 0 0 1-.006-.054.085.085 0 0 1 .013-.052.064.064 0 0 1 .055-.019.076.076 0 0 1 .051.015.07.07 0 0 1 .015.052v.06a.58.58 0 0 1-.085.028.561.561 0 0 0-.086.028.19.19 0 0 0-.036.02.089.089 0 0 0-.023.027.111.111 0 0 0-.014.038.324.324 0 0 0-.004.055l.004.055a.127.127 0 0 0 .036.104.146.146 0 0 0 .097.031.217.217 0 0 0 .051-.006.164.164 0 0 0 .039-.014.111.111 0 0 0 .025-.018.114.114 0 0 0 .016-.02.096.096 0 0 0 .03.04.098.098 0 0 0 .064.019.14.14 0 0 0 .04-.006.076.076 0 0 0 .03-.017v-.075a.068.068 0 0 1-.016.01.043.043 0 0 1-.019.005.03.03 0 0 1-.021-.01.032.032 0 0 1-.01-.025v-.325a.302.302 0 0 0-.008-.076.117.117 0 0 0-.03-.055.124.124 0 0 0-.056-.032.31.31 0 0 0-.088-.01zm1.747 0a.253.253 0 0 0-.083.01.12.12 0 0 0-.081.086.248.248 0 0 0-.01.067.31.31 0 0 0 0 .035c0 .01 0 .019.005.029H7a.261.261 0 0 1-.005-.054.085.085 0 0 1 .013-.052.064.064 0 0 1 .055-.019.075.075 0 0 1 .051.015.07.07 0 0 1 .015.052v.06a.58.58 0 0 1-.08.025.555.555 0 0 0-.086.028.175.175 0 0 0-.036.02.09.09 0 0 0-.024.026.123.123 0 0 0-.014.039.324.324 0 0 0-.004.054v.06a.127.127 0 0 0 .037.103.146.146 0 0 0 .096.031.225.225 0 0 0 .052-.006.169.169 0 0 0 .038-.014.115.115 0 0 0 .026-.018.136.136 0 0 0 .016-.02.096.096 0 0 0 .03.04.1.1 0 0 0 .064.019.138.138 0 0 0 .04-.006.073.073 0 0 0 .03-.017v-.075a.058.058 0 0 1-.016.01.042.042 0 0 1-.02.005.031.031 0 0 1-.021-.01.032.032 0 0 1-.01-.025v-.325a.33.33 0 0 0-.007-.076.122.122 0 0 0-.03-.055.119.119 0 0 0-.056-.032.307.307 0 0 0-.088-.01zm-.762.006.126.598h.128l.128-.598h-.106l-.081.412h-.004l-.077-.412zm.83.303v.169a.188.188 0 0 1-.031.023.08.08 0 0 1-.043.012.065.065 0 0 1-.044-.015.067.067 0 0 1-.016-.051v-.038a.067.067 0 0 1 .015-.047.12.12 0 0 1 .037-.026.234.234 0 0 1 .044-.016.192.192 0 0 0 .037-.01zm-1.748.002v.167a.173.173 0 0 1-.03.024.077.077 0 0 1-.043.012.064.064 0 0 1-.044-.015.065.065 0 0 1-.017-.052v-.036a.067.067 0 0 1 .016-.047.115.115 0 0 1 .037-.026.234.234 0 0 1 .044-.016.207.207 0 0 0 .037-.01zm.313.544v.794h.115v-.794zm1.685.002v.23a.115.115 0 0 0-.046-.033.164.164 0 0 0-.062-.012.197.197 0 0 0-.061.009.094.094 0 0 0-.044.03.14.14 0 0 0-.027.055.356.356 0 0 0-.01.088v.271a.18.18 0 0 0 .036.127.136.136 0 0 0 .103.036.17.17 0 0 0 .072-.013.155.155 0 0 0 .051-.043v.047h.104v-.791zm.828.184a.197.197 0 0 0-.116.043.165.165 0 0 0-.048.131v.268a.164.164 0 0 0 .051.132.196.196 0 0 0 .133.043.207.207 0 0 0 .085-.016.15.15 0 0 0 .055-.041.173.173 0 0 0 .03-.06.281.281 0 0 0 .008-.068.391.391 0 0 0-.003-.044.3.3 0 0 0-.016-.039h-.103c0 .01.003.02.004.031v.034a.245.245 0 0 1 0 .034.1.1 0 0 1-.011.03.06.06 0 0 1-.021.021.07.07 0 0 1-.037.008.064.064 0 0 1-.024-.004.06.06 0 0 1-.022-.012.066.066 0 0 1-.015-.022.075.075 0 0 1-.006-.033v-.234a.132.132 0 0 1 .015-.07.076.076 0 0 1 .108-.004.098.098 0 0 1 .015.059.213.213 0 0 1 0 .026.203.203 0 0 1-.003.025h.103a.25.25 0 0 0 .008-.066.275.275 0 0 0-.009-.071.124.124 0 0 0-.028-.055.144.144 0 0 0-.051-.034.254.254 0 0 0-.083-.012.197.197 0 0 0-.02 0zm1.449 0a.124.124 0 0 0-.006 0 .199.199 0 0 0-.077.014.193.193 0 0 0-.064.044.089.089 0 0 0-.042-.043.152.152 0 0 0-.069-.014.182.182 0 0 0-.084.016.237.237 0 0 0-.052.04v-.047h-.103v.598h.116v-.458a.084.084 0 0 1 .076-.042.06.06 0 0 1 .044.014.074.074 0 0 1 .015.052v.433h.116v-.459a.084.084 0 0 1 .076-.042.061.061 0 0 1 .045.015.077.077 0 0 1 .014.051v.433l.117.003v-.457a.172.172 0 0 0-.031-.116.124.124 0 0 0-.091-.035zm-4.354 0a.199.199 0 0 0-.115.044.167.167 0 0 0-.048.13l-.006.268a.164.164 0 0 0 .052.132.196.196 0 0 0 .132.043.207.207 0 0 0 .086-.015.143.143 0 0 0 .054-.041.155.155 0 0 0 .03-.06.258.258 0 0 0 .008-.069.296.296 0 0 0-.003-.043.236.236 0 0 0-.008-.04h-.103c0 .01.003.02.004.031v.034a.184.184 0 0 1 0 .034.086.086 0 0 1-.01.03.057.057 0 0 1-.022.021.068.068 0 0 1-.037.008.061.061 0 0 1-.023-.004.057.057 0 0 1-.022-.012.066.066 0 0 1-.015-.022.068.068 0 0 1-.007-.033v-.234a.131.131 0 0 1 .016-.07.06.06 0 0 1 .055-.024.061.061 0 0 1 .052.02.098.098 0 0 1 .015.06.216.216 0 0 1 0 .025.203.203 0 0 1-.003.025h.103a.251.251 0 0 0 .007-.066.276.276 0 0 0-.008-.071.125.125 0 0 0-.029-.054.137.137 0 0 0-.052-.034.258.258 0 0 0-.083-.012.199.199 0 0 0-.02 0zm.896 0a.195.195 0 0 0-.007 0 .192.192 0 0 0-.131.045.177.177 0 0 0-.052.138v.253a.175.175 0 0 0 .052.137.189.189 0 0 0 .131.045.193.193 0 0 0 .133-.045.173.173 0 0 0 .052-.137v-.253a.176.176 0 0 0-.052-.138.195.195 0 0 0-.125-.044zm2.586 0a.195.195 0 0 0-.007 0 .19.19 0 0 0-.131.045.177.177 0 0 0-.052.138v.253a.175.175 0 0 0 .052.137.188.188 0 0 0 .131.045.193.193 0 0 0 .133-.045.173.173 0 0 0 .052-.138v-.252a.176.176 0 0 0-.052-.138.195.195 0 0 0-.125-.044zm-2.213.01v.458a.18.18 0 0 0 .029.115.115.115 0 0 0 .093.034.18.18 0 0 0 .082-.015.187.187 0 0 0 .051-.041v.047h.104v-.598h-.117v.456a.088.088 0 0 1-.032.032.096.096 0 0 1-.041.01.057.057 0 0 1-.043-.015.085.085 0 0 1-.014-.058v-.425zm2.198.096a.057.057 0 0 1 .007 0 .061.061 0 0 1 .055.023.103.103 0 0 1 .015.055v.252a.08.08 0 0 1-.016.051.068.068 0 0 1-.051.019.064.064 0 0 1-.052-.018.08.08 0 0 1-.017-.052v-.252a.1.1 0 0 1 .015-.056.057.057 0 0 1 .045-.022zm-1.468 0a.052.052 0 0 1 .009.001.085.085 0 0 1 .038.01.092.092 0 0 1 .034.032l-.002.317a.123.123 0 0 1-.037.031.092.092 0 0 1-.039.01.067.067 0 0 1-.031-.007.04.04 0 0 1-.018-.017.096.096 0 0 1-.008-.032.42.42 0 0 1 0-.047v-.19a.212.212 0 0 1 .011-.082.052.052 0 0 1 .043-.025zm-1.12 0a.058.058 0 0 1 .007.001.06.06 0 0 1 .054.023.103.103 0 0 1 .015.055v.25a.08.08 0 0 1-.016.052.068.068 0 0 1-.051.018.064.064 0 0 1-.052-.018.08.08 0 0 1-.015-.051l-.002-.25a.1.1 0 0 1 .015-.057.058.058 0 0 1 .046-.022zm1.513.36v.141h.142v-.141z"/></svg>