<svg viewBox="0 0 24 24" xmlns="http://www.w3.org/2000/svg" role="img"><path d="M14.103 23.158c-.495-.152-.622-.327-.416-.574.085-.102.117-.186.073-.186-.045 0 .088-.336.295-.746l.376-.745 1.083-.152c2.799-.391 4.17-1.27 5.052-3.234.712-1.587.753-2.028.655-7.064-.048-2.479-.04-2.586.29-3.64.526-1.678 1.699-3.448 2.285-3.448.292 0 .293-.015-.145 1.466-.217.736-.263 1.248-.265 2.938-.001 1.368-.043 1.982-.126 1.854-.094-.146-.124-.095-.125.214-.001.224.084.493.19.598.116.117.185.405.176.743-.015.527-.02.534-.124.17-.077-.274-.09-.165-.044.377.035.42.133.806.219.86.105.067.078.1-.084.101-.192.002-.227.072-.174.353.036.193.022.466-.032.607a.695.695 0 0 0 .029.498c.095.183.076.27-.08.357-.113.064-.206.184-.206.269 0 .298-1.366 3.103-1.972 4.048-.93 1.45-2.846 3.29-4.044 3.883-1.052.52-2.123.688-2.886.453zm2.032-.69c.029.028.25-.131.492-.353.27-.248.34-.364.184-.3-.14.058-.4.13-.575.161l-.319.056.318-.277.318-.278-.7.066c-.384.036-.807.007-.94-.063-.17-.092-.215-.088-.153.011.052.085-.019.14-.18.14-.513 0-.47.482.06.684.07.026.093.086.05.133-.043.047-.23.027-.415-.043-.217-.083-.337-.084-.337-.004a.67.67 0 0 1-.032.204c-.018.044.253.104.602.134.348.03.656.076.682.103.027.027.24-.058.472-.189.232-.13.445-.214.473-.186zm5.804-5.63c.119-.31-.047-.366-.205-.07-.1.185-.101.266-.007.266.075 0 .17-.088.212-.197zm-.507-8.257c-.04-.101-.071-.071-.077.078-.006.134.024.21.067.167.042-.042.047-.152.01-.245zm-11.9 12.412c-.044-.07-.019-.128.056-.128.074 0 .135.058.135.128s-.025.128-.056.128-.092-.058-.135-.128zm-1.086-.218c-.777-.285-1.36-.632-1.794-1.065l-.505-.505v-1.128c0-.62.038-1.166.085-1.213.047-.046.335.17.641.48.845.856 1.54 1.14 2.952 1.202 1.751.076 3.546-.368 4.908-1.215.552-.344.933-.38 1.04-.1.06.153.029.17-.137.077-.29-.162-.805.085-.805.385 0 .13.044.228.096.22.264-.042.415.034.415.207 0 .217-.2.257-.319.064-.129-.21-.318-.145-.232.078.063.164.023.189-.195.12-.215-.069-.257-.044-.197.113.054.14 0 .2-.18.2-.195 0-.241.062-.19.255.036.14.007.255-.066.255a1.49 1.49 0 0 0-.366.081c-.208.072-.205.057.021-.134.229-.192.209-.191-.191.01-.246.122-.525.207-.62.188-.095-.019-.134.027-.087.103.046.075-.011.174-.128.219-.117.045-.256.011-.309-.074-.064-.104-.25-.127-.56-.069-.54.102-.528.298.013.219.233-.034.426.021.536.153.248.3-.175.607-.729.528-.228-.032-.415-.01-.415.047 0 .117-.732.254-.83.155-.035-.034-.35-.07-.702-.079-.445-.01-.64.034-.64.149 0 .17-.178.196-.51.074zm2.043-.562c0-.077.085-.109.188-.07.103.04.221.018.263-.05.043-.07-.148-.121-.448-.121-.45 0-.5.026-.359.186.198.225.356.25.356.055zm.987-.19c-.042-.043-.152-.048-.244-.011-.102.04-.072.071.077.077.134.006.21-.024.167-.067zm.29-.882c0-.105-.057-.191-.127-.191s-.128.086-.128.191c0 .106.058.192.128.192s.127-.086.127-.192zm2.857-1.369c-.048-.077-.122-.059-.189.047-.174.275-.13.41.077.238.104-.087.155-.215.112-.285zm-1.476 2.24c.093-.037.203-.032.245.01.043.042-.033.073-.168.067-.148-.006-.179-.036-.077-.077zm.407-.172c0-.068.087-.124.192-.124.105 0 .192.023.192.05 0 .028-.087.084-.192.124-.105.04-.192.018-.192-.05zm1.597-.89c.043-.07.104-.128.135-.128.031 0 .056.058.056.128s-.06.128-.135.128c-.074 0-.1-.058-.056-.128zm1.307-1.61c-.042-.041-.014-.213.062-.381.106-.232.18-.272.305-.168.13.108.134.19.013.382-.16.255-.252.296-.38.168zm-6.313-.197c-.18-.07-.153-.093.12-.1.194-.005.352-.06.352-.122 0-.063-.094-.106-.21-.096-.115.01-.235-.054-.266-.142-.038-.108.09-.16.394-.16.248 0 .477-.044.51-.098.034-.054-.159-.077-.427-.051-.995.095-2.854-.775-3.116-1.458-.046-.118.145-.01.423.242.542.49 1.171.86 1.44.846.092-.004.029-.063-.14-.13-.168-.067-.276-.151-.24-.187.035-.036.22-.006.408.066.191.073.312.079.272.013-.079-.127-.968-.46-1.119-.42-.05.014-.057-.063-.016-.17.064-.167.112-.17.347-.02.278.18.846.362.846.272 0-.028-.19-.13-.424-.228-.234-.097-.636-.363-.894-.59-.258-.226-.47-.355-.47-.287 0 .07.086.197.192.285.105.087.191.216.191.286 0 .176-.338-.12-.67-.586-.23-.324-.24-.372-.054-.301.187.072.199.046.08-.177-.103-.192-.182-.225-.302-.126-.213.177-.331.046-.329-.363.002-.26.028-.289.126-.138.074.115.125.13.126.04.003-.268-.226-.305-.46-.073-.216.214-.223.214-.141 0 .046-.124.028-.375-.042-.558l-.127-.333-.942.973c-.518.535-.99.975-1.05.978-.06.003-.309.175-.552.383-.243.208-.516.378-.607.378-.09 0-.164.057-.164.128 0 .07-.058.127-.128.127-.244 0-.125-.201.248-.422.377-.223.522-.805.165-.668-.105.04-.136.01-.08-.08.062-.102-.004-.123-.217-.07l-.307.078.301-.25c.38-.313.215-.31-.365.007-.342.188-.387.247-.192.255l.256.009-.256.193a.706.706 0 0 1-.547.12c-.161-.04-.49.02-.731.135-.402.19-.455.191-.643.004-.112-.113-.154-.205-.093-.205s.174.063.25.14c.092.09.166.094.218.01.104-.167-.598-.32-.973-.213-.45.129.514-.45 1.083-.65a8.55 8.55 0 0 0 1.979-.976c.299-.202.543-.333.543-.291 0 .041.072.014.16-.06.087-.074.49-.347.893-.607.404-.26.735-.522.735-.582 0-.06.31-.476.689-.922.379-.447.845-1.147 1.036-1.555l.533-1.148c.228-.491.529-.63.793-.366.177.177.162.335-.15 1.582-.241.963-.347 1.715-.347 2.468 0 .99.033 1.133.383 1.662.273.411.615.703 1.182 1.005.72.385.897.425 1.837.42.928-.006 1.14-.056 1.99-.47.523-.255 1.104-.605 1.291-.779.443-.41 1.439-1.094 1.593-1.094.067 0 .185-.077.263-.171.164-.197 1.727-.269 1.607-.073-.041.066-.137.082-.213.035-.083-.052-.102-.027-.048.061.139.224.842.187.842-.044 0-.105.056-.191.125-.191.068 0 .357-.489.642-1.086.504-1.056.808-1.33.979-.884.18.47-.983 3.832-1.532 4.424-.242.261-.389.3-1.046.282-1.11-.032-1.513.132-2.935 1.198-.702.526-1.593 1.098-1.98 1.271-.73.327-2.47.564-2.898.395zm.344-1.15c0-.108-.751-.037-.87.082-.043.042.136.063.396.045.261-.018.474-.075.474-.128zm.67-.065a.493.493 0 0 0-.318 0c-.088.035-.016.064.16.064.175 0 .247-.029.159-.064zm3.306-.267c.159-.202.154-.207-.049-.048-.122.097-.223.197-.223.224 0 .105.105.037.272-.176zm-4.04-.16c-.043-.07-.176-.123-.294-.118-.176.007-.17.03.04.119.34.147.345.147.255 0zm.575 0a.128.128 0 0 0-.127-.127.128.128 0 0 0-.128.128.128.128 0 0 0 .255 0zm4.103-.35c.16-.203.155-.208-.048-.049-.123.097-.224.197-.224.224 0 .105.105.037.272-.176zM2.06 13.944c.002-.193-.261-.235-.331-.053-.054.14-.188.174-.478.125-.296-.051-.354-.035-.218.06.102.072.231.102.287.068.056-.035.102-.008.102.06 0 .073.13.063.318-.024.175-.082.319-.188.32-.236zm2.192.033c.183-.322.187-.383.026-.445-.103-.04-.333.024-.51.14-.323.211-.323.212-.054.356.149.08.23.185.181.234-.049.05-.036.089.028.089s.213-.17.33-.374zm-.37-.225c.119-.118.259-.173.311-.12.052.052.01.148-.093.213-.31.197-.449.138-.218-.093zm-1.332-.055c-.113-.072-.022-.115.277-.129.246-.011.533-.027.638-.034.236-.016.925-.471.841-.555-.033-.034-.216.06-.406.21-.19.15-.38.235-.422.189-.042-.046 0-.11.092-.143.287-.103.858-.646.77-.734-.061-.06-1.632.748-2.26 1.165-.148.098.154.266.375.209.202-.053.225-.096.095-.178zm15.037-.127c.08-.13-.213-.15-.51-.035-.11.042-.172.123-.137.18.075.12.548.015.647-.145zm.054-.497c0-.076.107-.063.263.032.225.137.29.125.445-.084.142-.192.149-.285.03-.429-.123-.147-.104-.22.09-.362.222-.162.2-.177-.26-.173-.45.003-.48.022-.278.176.214.162.212.175-.041.241a.514.514 0 0 0-.335.328c-.037.142-.163.284-.278.314-.143.038-.118.061.077.071.158.008.287-.043.287-.114zm-2.043 3.782c0-.033.187-.19.415-.35.294-.207.362-.226.234-.066-.183.227-.65.526-.65.416zm-11.54-2.041c.86-.644 1.467-1.213 2.057-1.931.229-.278.415-.438.415-.356 0 .254-1.407 1.686-2.242 2.281-1.024.731-1.206.735-.23.006zm6.102-3.154c-.217-.063-.497-.228-.623-.367-.22-.244-.216-.303.115-1.636.447-1.802.458-1.818.963-1.393.223.187.55.377.726.421.322.08 1.325.01 2.277-.16.467-.083.496-.072.336.122-.097.117-.251.213-.344.213-.256 0-.366.268-.168.41.14.099.132.11-.035.058-.116-.037-.242-.036-.281.003-.112.112.285.448.426.36.072-.044.096.004.054.112-.04.104-.312.308-.605.453-.293.145-.453.264-.357.264.148 0 .148.033.001.21-.156.188-.14.2.144.121.301-.084.305-.078.078.104-.132.106-.664.264-1.182.35-.902.152-1.045.268-.493.401.143.035.06.063-.192.065a3.538 3.538 0 0 1-.84-.111zm2.977-1.6c-.043-.043-.153-.047-.245-.01-.102.04-.072.07.077.077.135.005.21-.025.168-.067zm-.924 1.61c.044-.07.105-.128.136-.128.03 0 .056.057.056.127s-.06.128-.135.128c-.075 0-.1-.057-.057-.128zm11.132-1.363a.352.352 0 0 1-.085-.217c0-.08.06-.072.151.02.084.082.122.18.086.216-.037.037-.105.028-.152-.019zM4.232 5.664c0-.068.086-.124.191-.124.106 0 .192.023.192.05 0 .028-.086.084-.192.124-.105.04-.191.018-.191-.05zM3.72 5.54c0-.07.072-.129.16-.13.087-.002.303-.122.478-.267.241-.2.26-.246.078-.186-.214.07-.221.054-.064-.137.162-.197.152-.202-.113-.06-.16.085-.263.2-.23.255.035.055-.021.1-.123.1-.103 0-.186-.048-.186-.107 0-.058.043-.106.097-.106.053 0 .24-.13.415-.288.176-.158.577-.426.893-.597.316-.17.603-.342.638-.383.428-.491 3.506-1.734 4.608-1.86.37-.042.715-.104.768-.136.203-.126 2.706-.071 2.84.062.172.173.382.18.277.01-.122-.197.228-.152.544.069.238.166.271.168.211.011-.057-.15.176-.123 1.183.133 3.516.894 4.01.844 6.127-.63.503-.35.977-.597 1.054-.55.286.178.122.696-.502 1.584-1.284 1.828-3.543 3.123-5.356 3.068-.559-.017-.552-.02.187-.114.762-.095 1.657-.36 1.557-.461-.03-.03-.219.01-.422.088-.203.078-.8.166-1.327.196-.526.03-1.044.064-1.149.075-.384.037-.652-.024-.584-.135.039-.062-.058-.154-.216-.203l-.286-.09.32-.093c.175-.051.348-.058.383-.015.035.043.61.084 1.277.091.667.008 1.07-.015.894-.05-.176-.035-.362-.13-.413-.21-.066-.103-.095-.094-.096.028-.001.126-.047.138-.162.043-.087-.073-.418-.17-.734-.217a26.33 26.33 0 0 1-1.596-.322c-.91-.211-3.24-.554-3.576-.526-1.265.103-2.533.302-2.937.46l-.511.2.51-.076c1.317-.195 2.322-.262 2.555-.172.304.119.252.13-.861.19-.984.054-2.613.443-3.698.884-.408.165-.741.257-.741.203 0-.11.568-.393.804-.399.085-.002.269-.096.41-.209.23-.184.231-.196.017-.122-.175.06-.219.033-.166-.104.048-.125.01-.163-.113-.116-.101.04-.154.12-.117.18.037.06-.104.197-.314.306-.442.229-.568.248-.457.07.1-.163-.07-.163-.32 0-.105.067-.134.127-.063.132.07.005-.21.117-.624.249-.413.132-.813.3-.888.376-.171.171-.34.176-.34.008zm4.214-1.277c.17-.11.17-.124 0-.124a.845.845 0 0 0-.383.124c-.17.11-.17.124 0 .124a.845.845 0 0 0 .383-.124zm9.642-.255c-.191-.082-.102-.112.359-.119.452-.006.59-.05.524-.168-.072-.128-.056-.128.082 0 .216.2.422.208.3.012-.055-.089-.035-.113.05-.06.077.047.33.003.562-.1.41-.18.4-.182-.408-.11-.457.04-.872.136-.924.213-.063.094-.095.083-.096-.033-.001-.124-.144-.16-.503-.125-.275.026-.49 0-.479-.058.024-.113-.89-.476-.978-.388-.03.029-.512-.067-1.073-.212-1.504-.39-1.558-.4-2.46-.433-.598-.022-.9.025-1.076.169-.135.11-.203.127-.152.039.058-.1.018-.16-.106-.16-.11 0-.199.06-.199.133 0 .089-.077.09-.236.005-.175-.093-.365-.058-.734.137-.722.38-.762.458-.218.42.267-.017.647-.038.845-.044.226-.008.326-.064.271-.153-.06-.099-.016-.103.153-.015.131.068.583.154 1.005.19.421.036 1.513.24 2.426.453l1.916.446c.14.032.514.062.83.065.43.004.51-.022.32-.104zM8.602 3.4c.19-.033.414-.14.497-.24.122-.147.107-.164-.081-.092-.176.067-.205.045-.124-.093.065-.11.007-.094-.149.042-.14.123-.308.225-.373.228-.065.002-.232.096-.373.208l-.255.205.255-.099c.14-.055.412-.126.603-.159zm9.354-.28c.04-.065-.028-.115-.153-.11-.124.004-.472-.051-.774-.124-.455-.11-.524-.102-.405.04.078.095.325.195.548.223l.557.071a.248.248 0 0 0 .227-.1zm.902-.002c-.042-.067-.16-.09-.263-.05-.264.102-.233.173.075.173.145 0 .23-.055.188-.123zm-2.597-.406c-.257-.235-2.834-.715-2.834-.527 0 .07.143.11.318.092.176-.02.352.018.392.083.04.065.122.089.18.052.148-.091 1.411.21 1.343.32-.03.049.113.082.318.075.205-.007.332-.05.283-.095zm1.98.064c-.044-.044-.317-.102-.605-.128-.289-.026-.65-.118-.803-.206a1.665 1.665 0 0 0-.405-.176 1.101 1.101 0 0 1-.192-.043 4.557 4.557 0 0 0-.444-.087c-.652-.105-.245.107.793.414.944.28 1.83.4 1.656.226Zm-5.006-.685c-.043-.07-.176-.123-.295-.119-.176.008-.169.03.04.12.341.146.346.146.255 0zm-1.759-.077c-.042-.042-.152-.047-.244-.01-.102.04-.072.071.077.077.134.006.21-.025.167-.067zm1.025-.01a1.049 1.049 0 0 0-.447 0c-.123.031-.023.058.223.058s.347-.027.224-.059zm1.274-.245c-.042-.043-.152-.047-.245-.01-.101.04-.071.07.078.077.134.005.21-.025.167-.067zm.737 3.052c-.303-.074-.568-.293-.355-.293.078 0 .243-.039.366-.086.163-.063.195-.04.119.083-.08.13-.025.148.247.08.258-.065.336-.045.296.077-.062.185-.292.233-.673.14zm-1.555-.585c-.037-.06-.152-.076-.256-.036-.252.096-1.19-.059-1.19-.197 0-.06.244-.088.543-.06.298.026.718.054.933.061.215.007.502.098.639.203.233.18.223.189-.177.164-.234-.015-.455-.076-.492-.135z"/></svg>