<svg role="img" viewBox="0 0 24 24" xmlns="http://www.w3.org/2000/svg"><path d="M13.343 17.863c-1.324-1.001-2.92-.042-3.672.767-2.274 2.441-3.823.468-3.823.468s.795 2.538 3.908 2.58c.936.013 1.76-.149 2.862-1.088.852-.727 1.476-2.159.725-2.727zm-7.49.85c.058-.174.217-.337.611-.346.636-.015 1.351.582 1.965.953a2.18 2.18 0 0 1-.836.273 1.715 1.715 0 0 1-.968-.194 2.126 2.126 0 0 1-.57-.442l-.202-.245zM18.027 8.487c-1.834.958-1.603 3.268-1.093 4.547 1.54 3.864-1.51 4.559-1.51 4.559s3.284.456 4.991-3.03c.513-1.048.771-2.064.299-3.806-.365-1.347-1.646-2.815-2.687-2.27zm-.918 6.276c.028.403-.01.81-.154 1.19a2.182 2.182 0 0 1-.87 1.066 2.536 2.536 0 0 1-.693.324c-.114.03-.228.059-.343.087-.195-.149-.343-.423-.12-.921.33-.744 1.432-1.239 2.18-1.746zM.73 9.487c2.719-1.907 5.843.126 7.291 1.797 4.374 5.047 7.615 1.211 7.615 1.211s-1.772 5.02-8.003 4.882c-1.874-.042-3.513-.423-5.649-2.382C.331 13.48-.817 10.57.728 9.487zm9.47 3.405c1.307-.674 2.897-1.984 4.256-1.904 1.03.06 1.238.622 1.243 1.054l-.26.298-.025.028-.018.02a4.218 4.218 0 0 1-1.986 1.151 3.614 3.614 0 0 1-1.594.026 4.865 4.865 0 0 1-1.615-.673zm-1.17-2.678c2.72 1.908 5.845-.126 7.292-1.797 4.375-5.047 7.615-1.211 7.615-1.211s-1.772-5.02-8.003-4.882c-1.874.042-3.512.424-5.649 2.383C8.634 6.22 7.486 9.13 9.03 10.214zm9.473-3.405c.55-.346 1.156-.608 1.802-.706a3.603 3.603 0 0 1 1.225.02c.343.064.676.18.99.334a4.365 4.365 0 0 1 1.195.876c.096.106.191.213.285.321-.003.433-.209.999-1.243 1.06-1.358.08-2.948-1.23-4.254-1.905z"/></svg>