<svg role="img" viewBox="0 0 24 24" xmlns="http://www.w3.org/2000/svg"><path d="M7.42 3.908a.456.456 0 0 0-.455.457v.56c0 .253.203.456.455.456h.562a.454.454 0 0 0 .455-.455v-.56a.456.456 0 0 0-.455-.458H7.42zm4.012.428a.454.454 0 0 0-.455.455v.563c0 .252.202.455.455.455h.562a.454.454 0 0 0 .455-.455V4.79a.454.454 0 0 0-.455-.455h-.562zm7.07.219c-1.604.032-3.462.333-5.434.898v.961c3.878-.79 6.98-.284 7.778 1.516.562 1.259-.1 2.93-1.637 4.623v1.644c3.557-2.618 5.464-5.549 4.574-7.562-.636-1.445-2.607-2.135-5.281-2.08zm-9.104.513a.456.456 0 0 0-.457.455v.563c0 .252.205.455.457.455h.561a.454.454 0 0 0 .455-.455v-.563a.454.454 0 0 0-.455-.455h-.56zm-1.978.74a.454.454 0 0 0-.455.456v.562c0 .252.203.455.455.455h.562a.454.454 0 0 0 .455-.455v-.562a.454.454 0 0 0-.455-.455H7.42zm4.012.428a.454.454 0 0 0-.455.455v.561c0 .252.202.457.455.457h.562a.456.456 0 0 0 .455-.457v-.56a.454.454 0 0 0-.455-.456h-.562zm2.035.399a.454.454 0 0 0-.455.455v.56c0 .253.203.457.455.457h.562a.456.456 0 0 0 .455-.457v-.56a.454.454 0 0 0-.455-.455h-.562zm4.027 0a.454.454 0 0 0-.455.455v.56c0 .253.203.457.455.457h.563a.456.456 0 0 0 .455-.457v-.56a.454.454 0 0 0-.455-.455h-.563zm-8.096.334a.456.456 0 0 0-.457.455v.562c0 .253.205.455.457.455h.561a.454.454 0 0 0 .455-.455v-.562a.454.454 0 0 0-.455-.455h-.56zm6.377.54a.735.735 0 0 0-.736.737c0 .408.328.736.736.736a.735.735 0 0 0 .737-.736.735.735 0 0 0-.737-.736zm-9.836.128c-4.475 3.038-6.893 7.03-5.584 9.79 1.587 3.352 8.118 3.557 14.579.526l.617-.299v-.633c-.275.148-.56.283-.854.407-5.926 2.846-11.917 2.617-13.383-.471-1.138-2.376.82-5.877 4.625-8.61v-.71zm1.48.072a.454.454 0 0 0-.454.455v.563c0 .252.203.455.455.455h.562a.454.454 0 0 0 .455-.455v-.563a.454.454 0 0 0-.455-.455H7.42zm4.013.361a.456.456 0 0 0-.455.457v.56c0 .253.202.456.455.456h.562a.454.454 0 0 0 .455-.455v-.56a.456.456 0 0 0-.455-.458h-.562zm2.035.457a.454.454 0 0 0-.455.455v.561c0 .252.203.457.455.457h.562a.456.456 0 0 0 .455-.457v-.56a.454.454 0 0 0-.455-.456h-.562zm4.027 0a.454.454 0 0 0-.455.455v.561c0 .252.203.457.455.457h.563a.456.456 0 0 0 .455-.457v-.56a.454.454 0 0 0-.455-.456h-.563zm-8.096.34a.457.457 0 0 0-.457.457v.56c0 .253.205.456.457.456h.561a.454.454 0 0 0 .455-.455v-.56a.456.456 0 0 0-.455-.458h-.56zm6.096.541a.454.454 0 0 0-.455.455v.563c0 .252.203.455.455.455h.563a.454.454 0 0 0 .455-.455v-.563a.454.454 0 0 0-.455-.455h-.563zm-9.555.115a13.543 13.543 0 0 0-1.732 1.707 8.514 8.514 0 0 0-1.148 1.739 5.48 5.48 0 0 0-.33.85 4.036 4.036 0 0 0-.153.82 3.13 3.13 0 0 0 .035.777 2.773 2.773 0 0 0 .235.723c.118.254.274.486.465.693.19.207.413.39.668.549.254.16.54.296.851.408.624.224 1.354.352 2.16.383.403.015.825.005 1.262-.027.437-.033.89-.09 1.353-.172.464-.082.94-.188 1.422-.319v-.625c-1.35.38-2.63.557-3.75.54-.746-.013-1.42-.11-1.994-.298a3.99 3.99 0 0 1-.783-.347 3.064 3.064 0 0 1-.33-.22 2.49 2.49 0 0 1-.52-.544 2.264 2.264 0 0 1-.373-.912 2.643 2.643 0 0 1-.029-.64c.016-.22.057-.445.121-.676.194-.693.6-1.43 1.182-2.164.194-.245.409-.49.64-.733.232-.243.482-.484.748-.723v-.789zm1.48.084a.454.454 0 0 0-.454.456v.562c0 .252.203.455.455.455h.562a.454.454 0 0 0 .455-.455v-.563a.454.454 0 0 0-.455-.455H7.42zm4.013.293a.454.454 0 0 0-.455.455v.561c0 .252.202.457.455.457h.562a.456.456 0 0 0 .455-.457v-.56a.454.454 0 0 0-.455-.456h-.562zm2.035.526a.454.454 0 0 0-.455.455v.562c0 .253.203.455.455.455h.562a.454.454 0 0 0 .455-.455v-.562a.454.454 0 0 0-.455-.455h-.562zm4.027 0a.454.454 0 0 0-.455.455v.562c0 .253.203.455.455.455h.563a.454.454 0 0 0 .455-.455v-.562a.454.454 0 0 0-.455-.455h-.563zm-8.096.342a.456.456 0 0 0-.457.455v.562c0 .252.205.455.457.455h.561a.454.454 0 0 0 .455-.455v-.562a.454.454 0 0 0-.455-.455h-.56zm6.096.54a.454.454 0 0 0-.455.456v.562c0 .252.203.455.455.455h.563a.454.454 0 0 0 .455-.455v-.562a.454.454 0 0 0-.455-.455h-.563zm-8.074.2a.454.454 0 0 0-.455.455v.562c0 .253.203.455.455.455h.562a.454.454 0 0 0 .455-.455v-.562a.454.454 0 0 0-.455-.455H7.42zm4.012.22a.454.454 0 0 0-.455.456v.562c0 .252.202.455.455.455h.562a.454.454 0 0 0 .455-.455v-.562a.454.454 0 0 0-.455-.455h-.562zm2.035.598a.454.454 0 0 0-.455.455v.563c0 .252.203.455.455.455h.562a.454.454 0 0 0 .455-.455v-.563a.454.454 0 0 0-.455-.455h-.562zm4.027 0a.454.454 0 0 0-.455.455v.563c0 .252.203.455.455.455h.563a.454.454 0 0 0 .455-.455v-.563a.454.454 0 0 0-.455-.455h-.563zm-8.096.342a.456.456 0 0 0-.457.455v.563c0 .252.205.455.457.455h.561a.454.454 0 0 0 .455-.455v-.563a.454.454 0 0 0-.455-.455h-.56zm6.096.539a.456.456 0 0 0-.455.457v.56c0 .253.203.456.455.456h.563a.454.454 0 0 0 .455-.455v-.56a.456.456 0 0 0-.455-.458h-.563zm-4.062.393a.454.454 0 0 0-.455.455v.562c0 .252.202.455.455.455h.562a.454.454 0 0 0 .455-.455v-.562a.454.454 0 0 0-.455-.455h-.562zm2.035.625a.454.454 0 0 0-.455.455v.562c0 .252.203.455.455.455h.562a.454.454 0 0 0 .455-.455v-.562a.454.454 0 0 0-.455-.455h-.562zm4.027 0a.454.454 0 0 0-.455.455v.562c0 .252.203.455.455.455h.563a.454.454 0 0 0 .455-.455v-.562a.454.454 0 0 0-.455-.455h-.563zm-8.096.341a.456.456 0 0 0-.457.455v.563c0 .252.205.455.457.455h.561a.454.454 0 0 0 .455-.455v-.563a.454.454 0 0 0-.455-.455h-.56zm6.096.541a.454.454 0 0 0-.455.456v.562c0 .252.203.455.455.455h.563a.454.454 0 0 0 .455-.455v-.563a.454.454 0 0 0-.455-.455h-.563zm-4.062.32a.454.454 0 0 0-.455.456v.562c0 .253.202.455.455.455h.562a.454.454 0 0 0 .455-.455v-.562a.454.454 0 0 0-.455-.455h-.562zm2.035.698a.454.454 0 0 0-.455.455v.563c0 .252.203.455.455.455h.562a.454.454 0 0 0 .455-.455v-.563a.454.454 0 0 0-.455-.455h-.562zm4.027 0a.454.454 0 0 0-.455.455v.563c0 .252.203.455.455.455h.563a.454.454 0 0 0 .455-.455v-.563a.454.454 0 0 0-.455-.455h-.563z"/></svg>