<svg role="img" viewBox="0 0 24 24" xmlns="http://www.w3.org/2000/svg"><path d="M7.119.001a4.126 4.126 0 0 0-4.117 3.216l-.62 2.749c1.788-2.84 4.79-4.838 8.28-5.25L7.936.102a4.126 4.126 0 0 0-.817-.1zM12 1.894C6.418 1.894 1.894 6.418 1.894 12c0 5.581 4.524 10.106 10.106 10.106S22.106 17.58 22.106 12c0-5.582-4.524-10.106-10.106-10.106zm6.034.487c2.84 1.789 4.837 4.792 5.25 8.28l.615-2.726A4.126 4.126 0 0 0 20.783 3zm-8.56 2.67a2.527 2.527 0 0 1 0 5.054 2.527 2.527 0 0 1 0-5.053zm6.948 1.896a2.527 2.527 0 0 1 0 5.053 2.527 2.527 0 0 1 0-5.053zm-4.414 3.761a1.263 1.263 0 0 1 1.254 1.29 1.263 1.263 0 0 1-2.525.002 1.263 1.263 0 0 1 1.27-1.292zM7.578 12a2.527 2.527 0 0 1 0 5.053 2.527 2.527 0 0 1 0-5.053zm-6.86 1.338L.1 16.063a4.126 4.126 0 0 0 3.117 4.935l2.748.62c-2.84-1.789-4.837-4.79-5.249-8.28zm13.809.557a2.527 2.527 0 0 1 0 5.053 2.527 2.527 0 0 1 0-5.053zm7.092 4.139c-1.789 2.84-4.791 4.837-8.28 5.249l2.725.615a4.126 4.126 0 0 0 4.934-3.116z"/></svg>