<svg viewBox="0 0 24 24" xmlns="http://www.w3.org/2000/svg" role="img"><path d="M13.073 16.643a2.69 2.69 0 0 1-.736-.247 2.53 2.53 0 0 1-.718-.516 2.687 2.687 0 0 1-.806-1.88c-.002-.259.019-.354.11-.513a.886.886 0 0 1 1.465-.09c.11.147.152.27.172.504a1.9 1.9 0 0 0 .052.312c.098.324.38.598.701.682.132.034.378.035.504.001.34-.09.616-.362.722-.71.03-.095.033-.175.033-.734v-.629l-.109-.022a.873.873 0 0 1-.681-.987.88.88 0 0 1 .688-.727l.111-.02v-.712c0-.781.003-.811.109-.997a.844.844 0 0 1 .76-.431c.348 0 .632.169.784.468.094.184.102.272.103 1.008v.67h.747c.655 0 .746-.003.737-.026a4.88 4.88 0 0 1-.13-.47c-.05-.236-.045-.814.01-1.065.119-.553.36-.999.755-1.393a2.69 2.69 0 0 1 1.378-.756c.182-.041.194-.041 1.356-.041h1.172l.15.074a.879.879 0 0 1-.11 1.623c-.112.04-.129.04-1.17.05-1.16.01-1.084.004-1.313.126-.13.07-.26.193-.351.334a.985.985 0 0 0 .131 1.235c.12.12.244.197.416.259l.116.041 1.56.01 1.562.008.095.04c.26.112.45.317.524.571.04.137.037.377-.007.52a.855.855 0 0 1-.433.513c-.212.108-.023.103-3.767.103h-3.428v.593c0 .326-.008.675-.019.776a2.755 2.755 0 0 1-2.267 2.446 3.47 3.47 0 0 1-.978 0zm-7.525-.507c-.103-.056-.102-.046-.102-1.045 0-.784.004-.923.027-.967.072-.14.317-.14.39 0 .02.04.026.12.026.376v.325h.19c.17 0 .203.005.29.046.132.062.24.173.307.315l.056.118v.739l-.066.06c-.057.052-.08.061-.153.061-.062 0-.1-.01-.136-.038-.084-.067-.098-.128-.098-.445 0-.318-.007-.344-.11-.397-.072-.038-.154-.02-.219.048l-.052.054-.009.322c-.006.215-.016.336-.031.363-.05.086-.21.12-.31.065zm3.288-.017a.264.264 0 0 1-.073-.111c-.024-.089-.024-1.746 0-1.834.028-.098.107-.156.214-.156.075 0 .097.009.154.06l.066.061.005.343.005.343h.19c.172 0 .2.005.29.05a.71.71 0 0 1 .318.345c.033.086.04.147.048.403.01.346-.005.427-.087.495-.042.036-.073.046-.141.046-.075 0-.098-.009-.154-.06l-.066-.061-.01-.325c-.005-.217-.016-.339-.031-.365a.23.23 0 0 0-.164-.094.23.23 0 0 0-.163.094c-.015.026-.026.148-.032.365l-.009.325-.066.06c-.057.052-.079.061-.154.061-.068 0-.1-.01-.142-.045zm-1.17.009a.771.771 0 0 1-.569-.523c-.014-.053-.032-.076-.074-.095-.073-.032-.13-.153-.113-.242.012-.064.099-.168.14-.168.012 0 .032-.034.045-.075a.714.714 0 0 1 .184-.312c.376-.397 1.062-.261 1.256.249.051.133.064.362.025.444-.06.124-.074.128-.555.134a3.37 3.37 0 0 0-.43.02c0 .02.053.064.118.097.045.022.112.028.307.028.175 0 .268.007.31.025.167.07.172.316.009.404-.051.027-.1.032-.318.03a2.95 2.95 0 0 1-.334-.016zm.386-1.092c-.072-.077-.136-.1-.248-.092a.275.275 0 0 0-.166.056c-.035.027-.064.056-.064.065 0 .01.108.017.26.017h.26zM.16 16.09a.375.375 0 0 1-.12-.101c-.04-.06-.04-.062-.04-.81 0-.751 0-.751.044-.891.185-.586.86-.862 1.427-.585.16.078.363.282.442.443.069.141.109.316.109.477v.118l.09.009a.28.28 0 0 1 .265.284c0 .17-.099.281-.27.305l-.085.012v.268c0 .235-.005.278-.036.344a.297.297 0 0 1-.458.089c-.089-.08-.108-.158-.108-.442v-.261h-.23c-.307 0-.39-.02-.47-.107a.295.295 0 0 1-.021-.38c.077-.102.133-.116.443-.116h.277v-.1a.413.413 0 0 0-.81-.153c-.018.062-.023.233-.023.744 0 .624-.002.667-.035.731a.292.292 0 0 1-.391.122zm3.961.002a.723.723 0 0 1-.499-.647c-.007-.134-.005-.146.04-.2a.23.23 0 0 1 .244-.076c.093.03.137.088.156.205a.563.563 0 0 0 .05.158.32.32 0 0 0 .36.135c.077-.02.193-.118.193-.162 0-.013-.184-.134-.409-.27-.5-.3-.521-.321-.508-.525a.706.706 0 0 1 .417-.617c.131-.065.14-.066.33-.066.184 0 .204.004.316.056a.747.747 0 0 1 .365.358c.06.121.066.147.066.28 0 .129-.005.15-.043.19-.145.156-.371.071-.397-.149-.022-.18-.145-.29-.319-.288a.306.306 0 0 0-.251.145l-.027.05.43.259c.49.294.51.313.51.484a.73.73 0 0 1-.51.681.956.956 0 0 1-.514-.001zm-1.44-.044a.264.264 0 0 1-.073-.111c-.023-.084-.023-1.018 0-1.183a.825.825 0 0 1 .454-.624.578.578 0 0 1 .289-.072l.16-.01.063.063c.055.056.062.073.062.154 0 .139-.082.232-.205.232-.15 0-.324.126-.36.26a5.38 5.38 0 0 0-.02.615c0 .603-.006.643-.108.695-.081.043-.2.034-.263-.02zm1.097-3.292a.889.889 0 0 1-.676-.605 1.06 1.06 0 0 1 .019-.582.943.943 0 0 1 .494-.495.619.619 0 0 1 .12-.036c.037 0 .036-.984 0-1.158a.923.923 0 0 0-.274-.494.92.92 0 0 0-.71-.3.921.921 0 0 0-.454.107 1.057 1.057 0 0 0-.486.547l-.045.118-.01 1.082c-.01 1.04-.012 1.087-.048 1.193a.886.886 0 0 1-.839.608.877.877 0 0 1-.833-.603c-.037-.109-.038-.13-.031-1.293C.01 9.711.013 9.657.049 9.5c.24-1.03.977-1.806 1.973-2.08a3.162 3.162 0 0 1 1.118-.072 2.762 2.762 0 0 1 2.224 1.824c.125.359.14.485.148 1.205l.007.643 3.578.005 3.577.005.097.04a.976.976 0 0 1 .5.5c.058.149.066.421.017.583a.88.88 0 0 1-.694.605c-.147.024-8.674.022-8.816-.002zm3.069-1.906a.987.987 0 0 1-.737-.747.973.973 0 0 1 .09-.657.991.991 0 0 1 .645-.503c.142-.03.432-.013.56.034.29.106.517.349.605.65.038.13.043.37.01.506a.982.982 0 0 1-1.173.717zm2.04.016a1.012 1.012 0 0 1-.789-.725 1.179 1.179 0 0 1-.008-.455c.068-.328.34-.622.67-.724.143-.045.415-.048.554-.006a.997.997 0 0 1 .692.732c.029.14.01.41-.036.543a.998.998 0 0 1-1.083.635zm1.991-.015a.986.986 0 0 1-.718-1.242c.087-.284.32-.53.601-.633.128-.046.415-.062.562-.032a.99.99 0 0 1 .638.493c.205.39.137.84-.173 1.15a.964.964 0 0 1-.91.264z"/></svg>