<svg role="img" viewBox="0 0 24 24" xmlns="http://www.w3.org/2000/svg"><path d="M3.34 0h17.32C22.49 0 24 1.51 24 3.34v17.32c0 1.83-1.51 3.34-3.34 3.34H3.34C1.51 24 0 22.49 0 20.66V3.34A3.331 3.331 0 0 1 .976.978 3.341 3.341 0 0 1 3.34 0zM23 11c-1.444 2.883-3.548 5.621-7.078 5.64-4.44 0-13.995-10.235-14.922-.127v3.946c-.001.674.263 1.32.735 1.797A2.5 2.5 0 0 0 3.514 23h16.972a2.5 2.5 0 0 0 1.78-.744A2.547 2.547 0 0 0 23 20.46zM3.53 1C2.158 1 1.018 2.145 1 3.522V13c1.46-2.862 3.563-5.67 7.072-5.67 4.472 0 14.144 10.463 14.928-.017V3.522A2.514 2.514 0 0 0 20.488 1z"/></svg>