<svg viewBox="0 0 24 24" xmlns="http://www.w3.org/2000/svg" role="img"><path d="M11.95 23.987c-.412-.034-.845-.147-1.441-.376a6.618 6.618 0 0 1-1.313-.712c-.626-.47-1.109-1.125-1.422-1.93a9.074 9.074 0 0 1-.315-1.103c-.005-.025-.014-.046-.018-.046a1.16 1.16 0 0 0-.115.06 2.9 2.9 0 0 1-.58.227l-.168.045-.082-.08a2.435 2.435 0 0 1-.38-.516c-.162-.304-.336-.858-.363-1.156l-.013-.15.17.017c.244.026.79.013 1.005-.023.374-.063.694-.181 1.129-.418.272-.147.53-.348.786-.613l.38-.392.157-.163-.014.081a8.693 8.693 0 0 1-.063.306c-.147.656-.233 1.14-.263 1.47-.03.328-.03.378.002.642.083.704.236 1.145.546 1.578.433.605.662.818 1.219 1.136.418.238.809.349 1.232.349.18 0 .281-.01.402-.043a9.18 9.18 0 0 1 .206-.053c.036-.008.077.018.183.119.388.366.978.644 1.69.798l.211.045-.15.114c-.423.322-1.173.671-1.628.758-.21.04-.685.054-.99.03zm-4.07-.968c-.375-.027-.869-.14-1.128-.258a6.328 6.328 0 0 1-.795-.45c-.399-.296-.764-.673-1.153-1.193-.47-.63-.711-1.106-.85-1.683a3.967 3.967 0 0 1-.134-.947c-.017-.548.05-1.029.225-1.634l.09-.308H4.07c-.101 0-.538-.118-.687-.186-.143-.065-.152-.077-.203-.261-.031-.115-.03-.656.003-.895a2.55 2.55 0 0 1 .225-.698l.082-.175.194.132c.675.461 1.578.694 2.285.59.278-.04.83-.168 1.166-.268a1.47 1.47 0 0 1 .25-.062 3.63 3.63 0 0 1-.311.342 10.11 10.11 0 0 0-.501.556c-.42.525-.867 1.393-.98 1.901-.043.2-.062.78-.033 1.06.025.244.136.7.225.922.233.582.744 1.184 1.202 1.415.129.065.383.142.47.142.05 0 .058.014.121.197.078.226.302.63.524.941.18.256.3.4.525.633.093.097.169.181.169.188 0 .013-.74.012-.915 0zm7.17-.17a3.62 3.62 0 0 1-1.425-.439 6.297 6.297 0 0 1-1.325-1.014l-.33-.329-.064.1a6.29 6.29 0 0 1-.513.581c-.083.069-.475-.083-.821-.317-.338-.23-.631-.527-.744-.754l-.064-.13.045-.036c.024-.02.152-.093.283-.163.132-.07.294-.163.361-.209.157-.105.501-.409.625-.55.235-.27.482-.66.592-.938.085-.215.347-1.066.38-1.237.013-.065.027-.115.032-.11.004.004.022.085.04.18.045.243.176.742.263 1.004.076.225.225.532.367.755l.164.255c.124.193.459.588.671.791.17.163.5.399.76.544.139.077.598.236.82.283.126.026.268.035.583.036.406 0 .425-.001.68-.066.456-.116.776-.28.999-.51.11-.115.127-.126.185-.116.212.04.791.068 1.025.052.463-.033.669-.075.999-.204.114-.044.211-.076.217-.07a.422.422 0 0 1-.024.133c-.109.39-.638 1.145-1.054 1.503-.315.272-1.12.676-1.684.844-.427.128-1.384.19-2.043.13zm.263-1.982c-.303-.048-.73-.202-.921-.33-.03-.022-.007-.068.17-.34.292-.452.422-.85.475-1.454.07-.79.05-.957-.184-1.654a4.636 4.636 0 0 1-.153-.508c.005-.014.196.164.425.394.595.597.932.854 1.473 1.12.366.179.564.246.971.325.277.055.372.064.622.064.324 0 .732-.06 1.06-.157.608-.177 1.409-.764 1.624-1.19.074-.148.1-.25.118-.467l.014-.172.183-.064c.53-.185 1.262-.68 1.703-1.154l.117-.126.005.295c.015.885-.026 1.254-.189 1.702-.201.552-.92 1.509-1.43 1.905-.643.498-1.446.924-1.995 1.056-.337.081-.454.096-.866.109-.668.021-1.294-.069-1.787-.256a2.575 2.575 0 0 0-.21-.071c-.054-.013-.055-.012-.055.08 0 .102-.048.309-.147.633l-.063.208-.144.034a2.673 2.673 0 0 1-.816.018zM3.596 19.831c-.206-.08-.593-.318-.86-.53a4.627 4.627 0 0 1-.872-.959c-.126-.195-.403-.834-.5-1.155a7.313 7.313 0 0 1-.14-.61c-.172-.932-.15-1.507.089-2.286.147-.48.31-.807.575-1.158.213-.282.695-.825.9-1.012l.178-.164-.12-.073a2.393 2.393 0 0 1-.502-.49l-.07-.101.047-.14c.154-.453.542-.967.984-1.302.18-.136.173-.137.232.037.227.678.99 1.44 1.772 1.77.391.164.668.25 1.03.314.118.022.237.048.264.058.044.017.04.022-.064.07a2.284 2.284 0 0 1-.336.106 5.51 5.51 0 0 0-1.388.518c-.388.2-.54.306-.772.53-.182.176-.52.58-.673.806a3.45 3.45 0 0 0-.387.822 2.965 2.965 0 0 0-.119 1.034c.014.442.06.683.2 1.017.1.24.2.386.39.563l.135.125-.03.15c-.043.215-.062.955-.031 1.206a6 6 0 0 0 .112.554c.048.193.087.35.085.35l-.13-.05zm14.696-1.937c0-.221-.01-.49-.02-.6a3.564 3.564 0 0 0-.591-1.567 8.426 8.426 0 0 0-.543-.604c-.233-.24-.43-.448-.438-.46-.01-.018.019-.016.103.004.688.166 1.111.246 1.443.273.847.07 1.61-.06 2.224-.38.248-.13.663-.445.915-.696.175-.175.247-.266.384-.488.334-.541.444-.913.423-1.432-.008-.205-.019-.27-.063-.38a1.387 1.387 0 0 1-.054-.149c0-.008.066-.098.147-.201.269-.345.529-.802.664-1.17.063-.17.164-.591.165-.688.001-.057.004-.056.12.066.203.214.409.573.552.962.198.543.25.875.238 1.528-.007.407-.014.482-.064.7-.184.8-.596 1.682-1.043 2.23a4.56 4.56 0 0 1-1.278 1.112c-.342.2-1.137.495-1.55.574a.448.448 0 0 0-.138.04c-.005.01.036.203.092.432.056.229.102.44.102.467 0 .148-.1.254-.387.413-.402.223-1.025.415-1.347.416h-.056v-.402zm-6.582-2.406a3.598 3.598 0 0 1-3.11-2.453c-.129-.393-.161-.614-.161-1.105 0-.49.032-.71.161-1.105a3.592 3.592 0 0 1 2.525-2.353c.314-.08.52-.104.872-.103.511 0 .91.08 1.373.274 1.419.593 2.311 2.053 2.18 3.567a3.426 3.426 0 0 1-.35 1.276 3.566 3.566 0 0 1-3.491 2.002zm-10.837-.85c-.262-.307-.611-.985-.717-1.391a3.767 3.767 0 0 1-.117-1.012c.026-.498.076-.767.246-1.33.27-.889.794-1.767 1.359-2.274a3.954 3.954 0 0 1 1.082-.728c.383-.184 1.016-.385 1.375-.437l.095-.013-.091-.217c-.147-.35-.19-.47-.202-.58-.012-.1-.009-.108.073-.2.16-.181.628-.44 1.01-.557.194-.059.286-.075.467-.084l.227-.011.01.455c.01.48.038.696.13 1.011.148.515.622 1.266 1.047 1.66.081.074.203.196.27.27l.123.134-.122-.014a4.05 4.05 0 0 1-.386-.083c-.717-.186-1.003-.225-1.505-.206-.801.03-1.137.106-1.687.378-.447.22-.742.463-1.078.884-.302.378-.536.832-.611 1.18-.06.28-.048.875.022 1.121.01.033-.01.07-.086.153a4.45 4.45 0 0 0-.554.881c-.153.342-.285.801-.286.992 0 .053-.007.095-.015.095a.35.35 0 0 1-.079-.077zm19.615-.444c-.103-.315-.436-.814-.778-1.163-.337-.345-.552-.495-.956-.67-.247-.108-.399-.15-.899-.249a189.25 189.25 0 0 1-.376-.074c-.044-.009-.03-.02.102-.087.083-.042.23-.101.325-.131.831-.264 1.413-.543 1.89-.906.249-.189.709-.71.903-1.022.155-.248.3-.633.393-1.042.03-.132.037-.25.036-.62 0-.468-.02-.636-.105-.905a2.39 2.39 0 0 0-.484-.803l-.127-.133.027-.183c.098-.648.012-1.478-.205-1.99-.016-.037-.009-.039.107-.028.28.025.836.362 1.229.743.41.397.563.636.904 1.404.16.36.218.557.282.949.073.45.091.714.091 1.299 0 .668-.035.877-.225 1.322-.274.643-.498.977-1.145 1.71l-.376.427.095.08c.131.11.35.338.493.515l.119.147-.078.15a3.066 3.066 0 0 1-.598.832c-.15.15-.422.378-.565.47l-.054.035zm-.009-4.506c-.224-.218-.59-.42-.995-.554-.373-.123-.858-.182-1.375-.167-.401.012-.528.036-.976.188-.257.087-.528.144-.528.11 0-.008.09-.1.2-.205.183-.173.591-.64.85-.973.295-.381.588-.972.7-1.414.085-.337.106-.583.095-1.084-.009-.398-.015-.456-.061-.603-.338-1.073-.88-1.715-1.623-1.92a1.237 1.237 0 0 0-.194-.042c-.036 0-.048-.022-.076-.138-.034-.14-.242-.587-.375-.808a4.625 4.625 0 0 0-.627-.777l-.247-.248.155-.036c.12-.028.246-.036.562-.036.629 0 .838.053 1.515.38.25.122.425.223.59.342.248.18.665.574.894.843.32.376.723 1.001.888 1.378.124.283.265.746.313 1.027.09.528.03 1.215-.192 2.16-.079.335-.085.378-.055.39.018.006.124.022.236.035.21.023.652.134.696.173.04.035.071.422.056.673-.024.39-.124.828-.268 1.17-.04.094-.078.177-.085.183-.007.006-.04-.015-.073-.048zM1.028 8.333c0-.562.021-.819.095-1.13.088-.377.202-.65.409-.987.377-.613 1.095-1.326 1.692-1.68.69-.41 1.108-.589 1.622-.693.276-.056 1.102-.05 1.449.01.313.056.552.112.844.198.123.036.256.071.295.079l.072.012.025-.166c.027-.185.168-.645.227-.743.058-.095.18-.115.613-.103.293.008.389.019.557.063.339.088.631.225.682.32.015.028-.009.08-.101.227-.383.61-.57 1.345-.544 2.13.014.396.036.51.186.955.062.184.118.38.126.434l.013.1-.049-.024a2.664 2.664 0 0 1-.282-.262c-.486-.496-.947-.845-1.45-1.1-.636-.321-.95-.402-1.631-.42-.366-.01-.483-.007-.64.021a3.97 3.97 0 0 0-1.203.463c-.147.095-.509.4-.617.52C3.17 6.835 3 7.185 3 7.42c0 .09-.004.099-.056.11-.219.047-.712.278-.948.443a6.806 6.806 0 0 0-.78.66l-.188.188zm13.584-1.098c0-.01.018-.062.04-.114.061-.142.18-.543.226-.762.051-.241.087-.872.07-1.23-.035-.732-.158-1.248-.412-1.719-.14-.261-.224-.374-.47-.633a2.835 2.835 0 0 0-.722-.576c-.514-.294-.762-.376-1.183-.392-.273-.01-.294-.008-.533.055l-.248.066-.167-.155a3.247 3.247 0 0 0-.799-.511 2.61 2.61 0 0 0-.734-.245 19.177 19.177 0 0 1-.29-.06l-.047-.01.065-.083C9.675.529 10.83.06 11.53.006c.377-.03 1.05.065 1.515.214.86.277 1.586.7 2.187 1.277.294.283.644.77.82 1.144.191.406.404 1 .514 1.435a.272.272 0 0 0 .038.097.584.584 0 0 0 .165-.06 4.2 4.2 0 0 1 .432-.153l.283-.085.08.078c.115.11.325.434.433.664.121.26.188.541.205.865l.014.256-.506.003c-.575.003-.723.023-1.105.15-.58.19-.974.448-1.557 1.018-.235.23-.437.38-.437.326zm-2.73-.922a10.128 10.128 0 0 1-.22-.636 4.302 4.302 0 0 0-.46-.965c-.267-.439-.418-.636-.697-.918-.334-.336-.669-.546-1.2-.753-.415-.161-.88-.22-1.437-.182-.366.025-.51.064-.82.219-.192.096-.26.144-.389.27a1.63 1.63 0 0 0-.175.19c-.017.032-.03.034-.11.015a4.464 4.464 0 0 0-.496-.035c-.537-.016-.85.019-1.426.158-.294.07-.313.072-.313.018 0-.065.268-.571.439-.827.167-.25.46-.572.72-.789.638-.532 1.524-.839 2.654-.92a5.522 5.522 0 0 1 1.322.045c.264.04.74.193.99.316.184.09.519.304.728.462.165.125.682.59.849.765l.164.17.261-.253c.32-.312.46-.412.575-.412.094 0 .36.13.56.274.347.248.76.726.833.961.013.041.007.046-.053.046-.17.001-.82.419-1.124.723-.17.17-.43.506-.564.727a2.98 2.98 0 0 0-.179.371 8.94 8.94 0 0 0-.285 1.03c-.014.071-.034.118-.05.118-.014 0-.058-.084-.097-.188z"/></svg>