<svg role="img" viewBox="0 0 24 24" xmlns="http://www.w3.org/2000/svg"><path d="M.695 23.55c-.787-.457-.921-1.647-.254-2.25.407-.369.433-.37 5.18-.369 4.165.002 4.486.011 4.778.144.852.387 1.102 1.391.534 2.142-.384.509-.228.494-5.34.492-4.518-.002-4.631-.005-4.898-.16zm12.985.018c-.678-.364-.964-1.189-.635-1.833.189-.37.36-.532.731-.687.235-.098.698-.119 2.67-.119h2.387l.456-.297c1.267-.827 1.886-1.997 1.886-3.566 0-1.53-.64-2.707-1.757-3.23l-.445-.209-3.22-.038-3.22-.039-.33-.233c-.455-.319-.632-.648-.632-1.17 0-.52.29-.99.758-1.224.287-.145.505-.157 3.36-.193l3.052-.039.425-.232c.903-.492 1.56-1.397 1.856-2.557.463-1.81-.151-3.744-1.455-4.581l-.376-.241-1.81-.002c-1.587-.001-1.847-.02-2.12-.144-.853-.387-1.104-1.392-.536-2.143.351-.464.51-.493 2.64-.493 2.16 0 2.448.044 3.423.525.443.219.744.45 1.275.981.943.943 1.362 1.685 1.757 3.111.241.873.24 2.874-.002 3.767-.28 1.031-.843 2.07-1.512 2.79l-.582.626.272.262c.415.4.928 1.155 1.267 1.864 1.352 2.827.647 6.26-1.663 8.096-.654.52-1.153.798-2 1.115l-.736.276h-2.458c-2.247 0-2.481-.012-2.726-.143zM1.066 13.358c-1.196-.36-1.45-1.856-.43-2.532.315-.209.343-.213 1.695-.236 1.578-.028 1.879.046 2.273.563.272.356.352 1.041.164 1.404-.21.407-.586.708-.994.796-.441.094-2.398.098-2.708.005zm6.405-.032a1.397 1.397 0 0 1-.093-2.606c.42-.19 1.212-.19 1.635.003.608.276.982 1.038.796 1.62-.121.378-.414.756-.702.905-.334.173-1.265.218-1.636.079zM.814 2.97a1.402 1.402 0 0 1-.812-1.28C.002 1.125.328.62.83.405 1.187.252 5.688.25 6.052.402c.8.334 1.085 1.448.542 2.118-.45.556-.472.56-3.152.557C1.612 3.075.991 3.049.814 2.97zm8.485-.04c-.94-.428-1.031-1.751-.164-2.401.244-.184.313-.194 1.53-.218 1.484-.03 1.73.023 2.113.447.555.614.525 1.38-.077 1.95-.346.327-.572.372-1.866.37-1.024-.001-1.263-.025-1.536-.148z"/></svg>