<svg viewBox="0 0 24 24" xmlns="http://www.w3.org/2000/svg" role="img"><path d="M22.963 17.41a7.616 7.616 0 0 1-.286-.223 8.144 8.144 0 0 0-.328-.254c-.057-.04-.088-.073-.082-.09.019-.049.744-1.148.773-1.17.038-.032.092-.009.266.111.368.255.515.564.41.862-.076.22-.339.563-.532.697-.143.1-.163.105-.221.067zm-10.328-1.135a6.022 6.022 0 0 0-.365-.28c-.071-.047-.13-.098-.13-.112 0-.034.718-1.134.77-1.178.035-.03.041-.03.098-.002.326.168.584.467.617.718.029.21-.16.568-.44.834-.119.112-.264.215-.306.215a4.7 4.7 0 0 1-.245-.195zM1.647 15.54c-.462-.07-.818-.233-1.104-.502-.303-.286-.46-.612-.524-1.084a2.039 2.039 0 0 1-.007-.504c.061-.866.315-1.688.852-2.76.148-.294.17-.328.186-.29.03.066-.008.213-.145.562-.296.75-.452 1.409-.428 1.806.013.22.05.362.15.562.201.401.655.67 1.292.766.184.028.375.025.621-.007.868-.116 1.574-.52 2.064-1.181.387-.52.573-1.017.66-1.757.02-.17.028-.45.028-.977 0-.813.007-.877.113-.986.082-.083.17-.104.394-.09a.952.952 0 0 0 .527-.1c.08-.04.122-.078.3-.269.035-.038.05-.042.091-.026.114.043.172.025.268-.082.05-.055.13-.178.18-.272.095-.182.144-.221.166-.133.015.059-.03.307-.089.487-.123.376-.346.673-.553.734a.753.753 0 0 1-.162.031c-.046 0-.069.015-.105.068a.932.932 0 0 1-.558.36l-.109.02-.022.211c-.122 1.14-.302 1.905-.635 2.697-.71 1.688-1.86 2.677-3.164 2.717a2.795 2.795 0 0 1-.287-.001zm6.095-2.188c-.022-.013-.023-.027-.008-.062.042-.09.138-.18.588-.548.51-.418.872-.755.997-.93.18-.252.323-.63.67-1.77.134-.442.203-.558.278-.468.02.025.015.084-.029.34-.138.81-.256 1.352-.402 1.858-.234.804-.399 1.057-.814 1.25-.21.097-.663.242-.933.299-.254.054-.305.058-.347.031zm2.772.006c0-.046.134-.147.523-.398.503-.323.87-.647 1.08-.953.08-.116.196-.332.196-.365 0-.003-.063.01-.139.03-.202.053-.481.04-.632-.028-.16-.074-.236-.14-.292-.253-.069-.141-.067-.28.008-.503.133-.397.437-.942.616-1.103a.77.77 0 0 1 .167-.111c.278-.123.628.136.758.56l.04.133.105-.068c.13-.085.242-.191.282-.267.035-.067.04-.222.016-.557l-.017-.232.215-.639c.119-.35.227-.65.241-.665.022-.023.031-.023.058 0 .029.023.031.092.023.753-.008.649-.014.748-.05.915a3.309 3.309 0 0 1-.41 1.012c-.135.23-.256.39-.437.58-.113.12-.153.176-.18.258-.048.15-.241.6-.351.82a3.47 3.47 0 0 1-.4.617c-.131.147-.363.252-.865.392-.238.066-.555.107-.555.072zm3.753-.005c-.075-.047.054-.182.6-.627.68-.556.909-.78 1.063-1.043.14-.238.218-.45.479-1.297.248-.808.291-.9.377-.815.029.03.028.054-.022.352-.203 1.215-.445 2.142-.677 2.592a.98.98 0 0 1-.485.478 5.143 5.143 0 0 1-.99.328c-.251.053-.305.058-.345.032zm4.823.005c-.087-.035.047-.19.44-.508.687-.554 1.029-.875 1.172-1.098.155-.24.283-.583.566-1.519a6.68 6.68 0 0 1 .195-.582c.055-.098.098-.125.138-.085.028.027.024.066-.04.44-.257 1.516-.539 2.442-.842 2.77-.155.167-.446.31-.917.449-.365.108-.645.16-.712.133zm3.59-.013c-.179-.066-.307-.19-.402-.39-.134-.279-.19-.708-.152-1.172.064-.795.328-2.719.47-3.42.072-.357.386-1.193.452-1.206.048-.01.051.05.014.303-.02.131-.07.51-.112.84-.205 1.613-.278 2.517-.233 2.91.034.295.121.486.277.603.157.118.308.134.473.05.113-.056.217-.187.277-.348.063-.168.143-.321.174-.333.087-.034.105.091.054.383-.127.725-.395 1.367-.675 1.617-.18.159-.442.228-.618.163zm-5.374-.374c0-.02.025-.119.056-.22.156-.504.286-1.442.355-2.547.033-.542.068-.845.125-1.08.036-.147.516-1.323.585-1.43.015-.024.045-.044.067-.044.034 0 .039.01.031.053-.113.638-.159 1.02-.225 1.89-.128 1.687-.234 2.177-.654 3-.147.288-.34.503-.34.378zM20.9 8.122a5.77 5.77 0 0 0-.35-.272c-.049-.03-.089-.07-.089-.089 0-.05.745-1.179.786-1.192.054-.017.32.163.463.314.158.168.212.278.22.452a.476.476 0 0 1-.04.253c-.124.306-.537.754-.691.75-.022 0-.156-.097-.3-.216z"/></svg>