<svg viewBox="0 0 24 24" xmlns="http://www.w3.org/2000/svg" role="img"><path d="M22.305 16.614a.627.627 0 0 1-.389-.21.673.673 0 0 1-.167-.31.825.825 0 0 1 .01-.325.686.686 0 0 1 .431-.458.714.714 0 0 1 .449.005c.192.068.36.247.42.448a.845.845 0 0 1 0 .361.716.716 0 0 1-.495.478.803.803 0 0 1-.255.011zM.008 15.09v-.95h1.857v-.781c0-.491 0-.824-.011-.895a1.502 1.502 0 0 0-.448-.937 1.206 1.206 0 0 0-.358-.259c-.204-.096-.342-.118-.743-.118H.01v-1.9l.41.005c.435.005.519.013.769.065.264.056.482.13.724.247.515.249 1 .68 1.334 1.19l.063.096V7.477h1.918v1.774h1.62v1.074l.076-.096c.043-.052.138-.158.211-.234.399-.41.806-.645 1.27-.73.125-.023.524-.026.7-.006.837.097 1.492.491 1.968 1.183.086.125.194.318.257.46l.068.154c.01.02.012-.113.013-.531 0-.436 0-.553.014-.537.087.14.142.21.236.3.06.057.131.117.16.134l.054.03v1.956c0 2.208.01 2.027-.081 2.115a.224.224 0 0 1-.104.064.701.701 0 0 1-.299 0 .271.271 0 0 1-.168-.157l-.024-.058-.01-1.093c-.01-1.123-.01-1.129-.052-1.398-.152-.911-.654-1.636-1.357-1.96a2.612 2.612 0 0 0-.715-.197 2.773 2.773 0 0 0-.608.006c-.61.132-1.145.617-1.65 1.497-.09.155-.34.65-.394.78a.2.2 0 0 1-.032.06s-.01-.529-.01-1.176V9.716h-.99v2.276c0 1.546 0 2.299-.01 2.344-.02.122-.066.196-.15.24-.035.02-.058.023-.154.023-.103 0-.119-.003-.167-.028a.25.25 0 0 1-.125-.143c-.017-.043-.018-.213-.02-3.266v-3.22h-.99v3.232c0 2.818 0 3.243.015 3.32.03.179.096.34.198.495.056.084.237.272.323.335.164.119.363.202.557.234.13.021.66.022.737.002a.517.517 0 0 0 .208-.114.36.36 0 0 1 .06-.047s.027.015.054.034a.782.782 0 0 0 .263.12c.083.02.128.02 1.942.02 1.994 0 1.926.003 2.12-.051.104-.03.286-.118.383-.189l.08-.057.085.061a1.2 1.2 0 0 0 .75.237c.205 0 .365-.03.512-.098a.928.928 0 0 0 .242-.156l.05-.047.064.048c.169.126.35.204.56.238.08.013.344.015 1.764.015a68.42 68.42 0 0 0 1.79-.01 2.807 2.807 0 0 0 1.33-.452c.351-.232.7-.61.929-1.007.477-.83.51-1.946.082-2.79a3.068 3.068 0 0 0-1.118-1.197 4.119 4.119 0 0 0-.39-.197c-.045-.017-.059-.028-.056-.04.04-.118.06-.21.07-.318l.012-.127.026.007c.038.009.26.103.346.146.522.262.994.681 1.327 1.177l.092.137V7.457h3.372v4.56h1.454v1.165c0 .749 0 1.202-.01 1.266a1.734 1.734 0 0 1-.307.807 2.75 2.75 0 0 1-.36.38l-.032.022-.017-.054a1.059 1.059 0 0 0-.144-.28l-.057-.08.097-.101c.207-.216.323-.454.357-.733.01-.054.011-.434.011-1.008v-.92h-1v1.892l-.03.054a.202.202 0 0 1-.166.114.2.2 0 0 1-.176-.065c-.085-.085-.077.249-.077-3.349V7.921h-1v3.21c0 3.459 0 3.29.052 3.483.05.18.163.367.315.525l.095.1-.04.05a1.38 1.38 0 0 0-.154.292c-.013.036-.027.065-.032.065-.014 0-.14-.114-.216-.192l-.068-.071-.053.108a.96.96 0 0 1-.596.5c-.112.033-.29.045-.407.027a.98.98 0 0 1-.795-.788c-.01-.043-.01-.196-.01-.466v-.402l-.078.122c-.588.92-1.477 1.455-2.564 1.543-.096.008-.68.01-1.867.008l-1.727-.003-.112-.023a1.846 1.846 0 0 1-.384-.126l-.083-.038-.07.035a1.936 1.936 0 0 1-.408.134c-.077.014-.15.018-.345.018-.218 0-.26-.003-.354-.023a1.69 1.69 0 0 1-.375-.123l-.1-.047-.112.047a1.76 1.76 0 0 1-.272.095c-.204.053-.078.05-2.145.054-2.112.004-2.028.006-2.212-.058l-.083-.028-.046.02c-.13.057-.168.062-.53.066-.378.005-.49-.003-.671-.049a1.706 1.706 0 0 1-.786-.437 1.858 1.858 0 0 1-.272-.318l-.038-.059-.059.087a1.789 1.789 0 0 1-1.096.75c-.1.022-.106.022-1.243.026l-1.142.003v-.95zm2.247.469c.52-.085.96-.53 1.048-1.064.015-.09.016-.215.013-1.143 0-1.005 0-1.047-.026-1.176a2.82 2.82 0 0 0-.275-.875c-.15-.3-.29-.495-.532-.743a2.68 2.68 0 0 0-1.91-.842H.471v.97h.075c.223 0 .524.072.73.176.433.216.789.636.947 1.12.1.302.106.399.102 1.494 0 .793 0 .891-.02.93a.276.276 0 0 1-.194.182c-.049.015-.15.017-.848.017H.472v.969h.843c.704 0 .859-.003.94-.015zm17.98-.006a.52.52 0 0 0 .38-.39c.01-.036.01-1.284.01-3.648V7.92h-.98v3.576c0 1.967.001 3.604.01 3.638a.58.58 0 0 0 .225.351.484.484 0 0 0 .363.066zM6.57 14.584a.239.239 0 0 1-.142-.107c-.045-.066-.058-.141-.052-.285.01-.142.017-.176.188-.604.341-.85.754-1.65 1.114-2.155.28-.394.55-.64.792-.724.08-.027.095-.03.24-.028.175 0 .293.019.445.067.526.168.894.654 1.014 1.34.037.212.042.384.04 1.32 0 .826 0 .907-.022.955a.355.355 0 0 1-.132.182c-.1.062-.01.059-1.794.059-1.563 0-1.637-.001-1.69-.02zm3.175-1.277c0-.484 0-.88-.01-.946a1.754 1.754 0 0 0-.154-.622c-.172-.362-.41-.546-.763-.59-.14-.017-.176-.014-.244.02-.423.214-1.138 1.427-1.68 2.855l-.044.116h2.896zm3.311 1.277a.249.249 0 0 1-.1-.065c-.082-.087-.076.08-.076-2.092V10.49l.07-.037a1.2 1.2 0 0 0 .373-.337c0-.005 0-.009.01-.009s.011.128.013.347v.346l.063-.091c.17-.246.462-.557.69-.74.291-.232.62-.415.949-.531l.12-.043-.01.04a1.28 1.28 0 0 0 .061.414c0 .012-.019.026-.1.057-.637.248-1.222.79-1.54 1.429-.361.727-.39 1.673-.072 2.437.107.259.255.5.447.731a1.2 1.2 0 0 1 .075.096c0 .003-.208.005-.462.005-.425 0-.466-.002-.518-.02zm2.96.014a9.268 9.268 0 0 0-.118-.015 1.863 1.863 0 0 1-.779-.291 2.246 2.246 0 0 1-.46-.425c-.355-.455-.485-1.052-.364-1.66a1.968 1.968 0 0 1 1.425-1.486 2.247 2.247 0 0 1 1.005 0 1.966 1.966 0 0 1 1.337 1.197c.085.219.123.443.123.721 0 .423-.093.75-.302 1.068a1.865 1.865 0 0 1-.306.36 1.77 1.77 0 0 1-.447.325 1.93 1.93 0 0 1-.672.201c-.093.01-.382.013-.442.004zm.43-.381a1.56 1.56 0 0 0 .909-.473 1.563 1.563 0 0 0-.168-2.311 1.567 1.567 0 0 0-1.41-.273c-.135.04-.348.143-.467.228a1.617 1.617 0 0 0-.63.968 2.28 2.28 0 0 0-.015.517 1.582 1.582 0 0 0 1.326 1.345c.116.018.328.018.455-.001zm-4.203-4.079a.585.585 0 0 1-.291-.175.56.56 0 0 1-.132-.175.674.674 0 0 1 .383-.94.557.557 0 0 1 .216-.025c.12 0 .15.004.216.026a.711.711 0 0 1 .44.466.844.844 0 0 1 0 .339.635.635 0 0 1-.186.304.614.614 0 0 1-.315.185.787.787 0 0 1-.328-.005zm3.892.011a.71.71 0 0 1-.502-.454.831.831 0 0 1-.014-.365.598.598 0 0 1 .18-.316.595.595 0 0 1 .317-.18.794.794 0 0 1 .378.018.708.708 0 0 1 .421.42.51.51 0 0 1 .024.211c0 .13 0 .152-.027.219a.74.74 0 0 1-.449.432 1.143 1.143 0 0 1-.328.015zM12.33 8.714a.67.67 0 0 1-.548-.452.478.478 0 0 1-.031-.207c0-.068.01-.143.013-.175a.685.685 0 0 1 .357-.438.582.582 0 0 1 .304-.061c.098 0 .133.006.202.028a.69.69 0 0 1 .434.434.707.707 0 0 1-.033.488.686.686 0 0 1-.698.383zm3.854.001a.602.602 0 0 1-.382-.19.642.642 0 0 1-.198-.52.636.636 0 0 1 .217-.46.608.608 0 0 1 .446-.165c.196 0 .33.053.47.187.135.13.194.256.203.438a.61.61 0 0 1-.067.341.848.848 0 0 1-.297.3.69.69 0 0 1-.392.07z"/></svg>