<svg viewBox="0 0 24 24" xmlns="http://www.w3.org/2000/svg" role="img"><path d="M11.425 23.987a12.218 12.218 0 0 1-2.95-.514 6.578 6.578 0 0 0-.336-.116C4.936 22.303 2.22 19.763.913 16.599a11.92 11.92 0 0 1-.9-4.063C.005 12.377.001 10.246 0 6.74 0 .71-.005 1.137.07.903.23.394.673.05 1.224.005c.421-.034.7.088 1.603.699.562.38 1.119.78 1.796 1.289.315.237.353.261.376.247l.35-.23c.58-.381 1.11-.677 1.7-.945A11.913 11.913 0 0 1 9.766.21a11.19 11.19 0 0 1 2.041-.2c1.14-.016 2.077.091 3.152.36 3.55.888 6.538 3.411 8.028 6.78.492 1.113.845 2.43.945 3.522.033.366.039.43.053.611.008.105.015.406.015.669 0 .783-.065 1.57-.169 2.064a5.474 5.474 0 0 0-.046.26c-.056.378-.214.987-.399 1.535-.205.613-.367.999-.684 1.633a11.95 11.95 0 0 1-2.623 3.436c-.44.396-.829.705-1.26 1.003-.647.445-1.307.812-2.039 1.134-.6.265-1.44.539-2.101.686a11.165 11.165 0 0 1-1.178.202 12.28 12.28 0 0 1-2.076.082zm-.61-5.92c.294-.06.678-.209.864-.337.144-.099.428-.376 2.064-2.013a161.8 161.8 0 0 1 1.764-1.753c.017 0 1.687-1.67 1.687-1.689 0-.02 1.64-1.648 1.661-1.648.01 0 .063-.047.118-.106.467-.495.682-.957.716-1.547.026-.433-.06-.909-.217-1.196a2.552 2.552 0 0 0-.983-1.024c-.281-.163-.512-.233-.888-.27-.306-.031-.688 0-.948.075-.243.07-.603.274-.853.481-.042.035-1.279 1.265-2.748 2.733l-2.671 2.67-1.093-1.09c-.6-.6-1.12-1.114-1.155-1.142a2.419 2.419 0 0 0-1.338-.51c-.404-.013-.91.09-1.224.25a2.89 2.89 0 0 0-.659.526c-.108.12-.287.357-.29.385-.003.03-.009.044-.065.16a2.312 2.312 0 0 0-.224.91c-.011.229-.01.265.019.491.045.353.24.781.51 1.115.05.063.97.992 2.044 2.064 1.507 1.505 1.98 1.97 2.074 2.039.327.24.683.388 1.101.456.182.03.5.016.734-.03z"/></svg>