<svg viewBox="0 0 24 24" xmlns="http://www.w3.org/2000/svg" role="img"><path d="M4.254 16.498A4.497 4.497 0 0 1 .898 14.7a4.576 4.576 0 0 1-.634-1.172 4.501 4.501 0 0 1 1.542-5.134 4.503 4.503 0 0 1 7.187 3.295c.012.162.01.615-.01.768a4.458 4.458 0 0 1-.454 1.559 4.533 4.533 0 0 1-1.445 1.674 4.477 4.477 0 0 1-2.83.808zm.672-.464a4.068 4.068 0 0 0 2.222-.963 4.059 4.059 0 0 0 1.361-2.456c.035-.22.042-.328.043-.61 0-.3-.01-.408-.05-.661a4.056 4.056 0 0 0-3.738-3.389 5.441 5.441 0 0 0-.675.012 4.039 4.039 0 0 0-2.42 1.138A4.024 4.024 0 0 0 .454 11.84a4.03 4.03 0 0 0 1.361 3.193c.67.591 1.488.939 2.377 1.011.132.011.608.004.736-.01zM2.692 14.29v-.669l.181-.227.181-.228V8.944l1.466.002c1.385.002 1.469.003 1.511.016.26.077.388.301.291.506-.015.032-.275.365-.853 1.09-.697.876-.83 1.047-.824 1.058 0 .007.458.606 1.006 1.332.55.726 1.008 1.337 1.019 1.357.128.237-.011.513-.31.617-.107.037-.064.036-1.926.036H2.692zm3.56.388c.123-.039.198-.11.198-.188 0-.017-.01-.04-.012-.053a351.981 351.981 0 0 0-1.972-2.609s-.345.423-.758.943l-.752.946v.978l1.628-.002c1.481-.002 1.631-.003 1.667-.015zm-2.328-2.606 1.349-1.694c.444-.558.81-1.023.812-1.032.011-.043-.026-.09-.095-.117l-.042-.017-1.315-.002-1.315-.002v3.624l.032-.04.573-.72zm18.608 1.886a1.377 1.377 0 0 1-.282-.075c-.33-.127-.594-.418-.716-.79a1.863 1.863 0 0 1-.021-1.027 1.32 1.32 0 0 1 .32-.577c.09-.095.147-.141.248-.201.185-.112.409-.17.645-.17.264 0 .494.066.704.205.1.066.25.218.322.326.134.201.218.452.243.724a3 3 0 0 1-.012.457 1.52 1.52 0 0 1-.24.623c-.052.075-.17.203-.245.262a1.244 1.244 0 0 1-.582.243 1.77 1.77 0 0 1-.384 0zm.391-.444a.82.82 0 0 0 .25-.127c.157-.131.262-.34.302-.602.01-.04.01-.133.01-.241 0-.188-.01-.253-.038-.38a.895.895 0 0 0-.276-.466.859.859 0 0 0-.247-.124 1.237 1.237 0 0 0-.33-.012.68.68 0 0 0-.504.385 1.25 1.25 0 0 0-.125.597c0 .242.038.426.125.596a.684.684 0 0 0 .479.381c.069.015.288.01.355-.008zm-7.34.433c-.246-.024-.41-.095-.543-.236-.117-.123-.18-.278-.219-.534-.012-.079-.013-.202-.015-1.42 0-1.272 0-1.333.011-1.337.012-.004.464-.08.473-.08v.815h1.027v.438H15.29v.719c0 .635 0 .726.016.783.045.226.13.334.299.382.04.011.077.013.203.013.185 0 .23-.008.394-.068a1.85 1.85 0 0 1 .117-.04c.01 0 .101.39.1.416 0 .014-.062.04-.203.085a1.63 1.63 0 0 1-.64.064zm4.035-.012a1.417 1.417 0 0 1-.693-.227 1.465 1.465 0 0 1-.313-.316 1.444 1.444 0 0 1-.205-.504 1.768 1.768 0 0 1-.034-.381c0-.757.368-1.281.98-1.394.092-.017.297-.022.402-.01.148.015.301.061.448.132l.066.032c0 .001.01-.3.01-.67v-.672s.444-.096.47-.103l.017-.004v3.978l-.028.007c-.222.058-.48.105-.666.121a5.775 5.775 0 0 1-.453.01zm.44-.452c.045-.006.111-.016.149-.023l.068-.012V11.73l-.047-.03a1.538 1.538 0 0 0-.272-.129.949.949 0 0 0-.644.026.73.73 0 0 0-.217.166c-.142.171-.21.415-.21.75 0 .206.024.353.082.49.116.28.349.457.65.491.077.01.34.003.441-.01zm-9.258.437-.173-.01a4.455 4.455 0 0 1-.574-.067l-.06-.013v-3.787l.023-.006a4.94 4.94 0 0 1 .615-.075 6.41 6.41 0 0 1 .77.004 2.3 2.3 0 0 1 .598.125c.164.064.269.128.377.233.145.14.221.288.25.486.024.153.012.337-.03.47a.853.853 0 0 1-.447.497.165.165 0 0 0-.052.032c0 .005.03.02.068.033.093.032.192.081.278.137.096.063.22.187.266.266.092.158.134.373.117.605a.964.964 0 0 1-.282.656c-.246.248-.63.376-1.229.411a6.845 6.845 0 0 1-.514.003zm.676-.477c.141-.02.204-.034.299-.065a.78.78 0 0 0 .315-.182.577.577 0 0 0 .17-.441c0-.364-.205-.573-.63-.642-.152-.024-.277-.03-.696-.03h-.401v1.365l.089.005c.049.003.095.006.103.008.01.002.156.002.329 0a2.94 2.94 0 0 0 .422-.018zm-.04-1.838c.24-.037.374-.096.49-.212a.466.466 0 0 0 .128-.223.837.837 0 0 0 0-.305c-.083-.275-.366-.422-.864-.449a6.83 6.83 0 0 0-.614.012l-.043.005v1.191l.413-.003c.333-.003.428-.006.491-.015zm2.084 1.127v-1.14h-.332l.001-.031c0-.018.011-.116.024-.217l.024-.185.387-.002.386-.002v2.717h-.49v-1.14zm3.683 0v-1.14h-.17c-.093 0-.17-.001-.17-.003l.026-.216.026-.215c0-.002.175-.003.389-.003h.389v2.716h-.491zm-3.522-2.07a.294.294 0 0 1-.147-.088c-.063-.065-.078-.107-.078-.226 0-.09 0-.097.023-.144a.323.323 0 0 1 .489-.107c.077.063.11.138.11.25 0 .15-.068.255-.198.304a.402.402 0 0 1-.2.01zm3.684 0a.315.315 0 0 1-.235-.343.305.305 0 0 1 .318-.29c.195.002.327.15.311.351a.306.306 0 0 1-.077.185.322.322 0 0 1-.317.097z"/></svg>