<svg role="img" viewBox="0 0 24 24" xmlns="http://www.w3.org/2000/svg"><path d="M6.874 19.41c-.51-.33-1.307-1.139-1.59-1.613-.524-.882-.678-1.526-.628-2.635.04-.875.15-1.283.587-2.174.35-.715.797-1.311 1.509-2.015.625-.617 1.107-.968 1.753-1.274.748-.355 1.748-.588 2.077-.484.131.042.14.077.119.502l-.023.458.17-.012c.093-.006.352-.143.576-.304.993-.72 1.495-.948 1.823-.831.524.186.618 1.089.208 1.99-.139.303-.126.298-.976.398-.485.057-.668.117-1.299.427-.65.32-.767.358-1.025.329-.399-.045-.545-.207-.581-.643-.026-.307-.002-.397.194-.755.284-.517.333-.719.201-.828-.13-.108-.549-.005-1.07.264-.41.212-.43.227-.877.625-.836.748-1.446 1.937-1.597 3.117-.197 1.532.377 2.884 1.614 3.8.166.123.302.261.303.307.001.046-.122.262-.274.48-.152.218-.365.553-.472.745-.107.192-.222.358-.255.37-.033.01-.243-.1-.467-.244zm6.266-3.544c-.1-.12.112-1.644.514-3.71.316-1.62.457-2.17.598-2.325.151-.167.827-.342 1.222-.316l.32.02-.017.216c-.02.247.073.392.252.392.068 0 .345-.165.616-.365.609-.452 1.258-.786 1.527-.786.614 0 .827.879.451 1.866-.079.209-.194.39-.269.426-.071.034-.39.09-.707.126-1.21.136-2.137.79-2.552 1.802-.194.472-.239.752-.282 1.758l-.042.96-.774.018c-.638.014-.788 0-.857-.082zm5.222.053c-.081-.081-.041-.806.083-1.514.07-.393.174-1.001.233-1.353a46.62 46.62 0 0 1 .296-1.535 284.4 284.4 0 0 0 .247-1.182 1.37 1.37 0 0 1 .177-.448c.152-.205.69-.375 1.204-.38L21 9.503l.019.304c.029.448.163.434.924-.097 1.213-.847 1.718-.923 1.978-.3.165.395.063 1.24-.205 1.699-.123.21-.133.214-.794.288-1.963.22-2.972 1.503-2.935 3.733.006.37.008.708.004.752-.005.059-.212.08-.796.08-.434 0-.808-.02-.831-.043zm-7.19-.128c-.29-.143-.477-.43-.511-.79-.05-.516.106-.8.615-1.127.013-.008-.037-.078-.11-.157-.722-.774.172-2.04 1.151-1.63.604.253.829.993.463 1.521-.093.134-.188.243-.212.243a.456.456 0 0 0-.157.084c-.109.08-.106.097.05.326.23.34.27.622.136.973a1.032 1.032 0 0 1-1.425.557zm11.237-1.49c-.53-.156-.828-.515-.828-.998 0-.718.643-1.19 1.33-.978.497.155.819.726.692 1.23-.117.466-.766.872-1.194.746zM.895 12.579c-.329-.152-.563-.405-.748-.806-.237-.514-.194-1.613.177-4.54.185-1.46.36-2.686.392-2.737.116-.192 1.465-.202 1.723-.014.105.078.105.105.002.521-.06.242-.167.641-.237.887-.429 1.509-.644 2.706-.65 3.614-.003.63.018.79.148 1.117.278.698.519.678 1.367-.114 1.019-.95 1.757-1.387 2.514-1.488.36-.048 1.145.15 1.29.324.044.053.104.096.133.096.03 0 .174.11.32.246l.266.246-.215.15c-.119.084-.23.167-.248.186-.017.02-.175.15-.351.291-.542.434-1.245 1.24-1.58 1.81l-.161.276-.032-.438c-.05-.7-.325-1.104-.75-1.104-.232 0-.693.258-1.04.584-.45.42-1.055.85-1.323.941a1.416 1.416 0 0 1-.997-.048zM8.5 8.78c-.287-.11-.448-.292-.565-.638-.16-.476.01-.927.446-1.182a1.035 1.035 0 0 1 1.488.563c.28.839-.527 1.58-1.369 1.257zm7.806-.01c-.273-.128-.382-.228-.502-.462-.24-.465-.074-1.024.4-1.344.39-.262 1.01-.158 1.306.22l.123.155.2-.192c.518-.5 1.215-.424 1.62.178.276.409.15 1.052-.262 1.333-.43.295-.93.263-1.313-.083l-.242-.219-.154.167c-.3.325-.79.428-1.176.247z"/></svg>