<svg viewBox="0 0 24 24" xmlns="http://www.w3.org/2000/svg" role="img"><path d="M.012 19.04v-4.96l.1-.084c.055-.047.139-.126.185-.176.046-.05.094-.085.106-.079.012.007.015.005.01-.004-.017-.018.097-.143.131-.143.013 0 .027-.017.033-.038a.211.211 0 0 1 .074-.076.334.334 0 0 0 .1-.096c.018-.033.04-.059.048-.059.01 0 .133-.116.276-.259.144-.143.275-.26.292-.26.017 0 .027-.006.021-.016-.01-.009.178-.197.407-.418.92-.888 1.008-.969 1.035-.958.013.005.019-.002.014-.015-.01-.02.496-.521.71-.706a4.29 4.29 0 0 0 .21-.203c.074-.076.142-.134.15-.128.01.005.015.002.012-.008-.01-.024.428-.444.46-.445a.026.026 0 0 0 .024-.026c0-.031.1-.129.13-.129.014 0 .024-.01.024-.025 0-.025.077-.109.1-.109.01 0 .124-.114.263-.252l.251-.253V5.128H9.19l.39-.399c.216-.219.428-.436.473-.483.045-.047.087-.077.094-.067.01.01.023.018.034.018.022 0 .667.612 1.097 1.041.13.13.243.235.252.235.023 0 .098.086.098.112 0 .012.012.023.026.023.028 0 .108.078.108.105 0 .01-.086.104-.19.21l-.33.337c-.075.08-.353.367-.617.64l-.48.494-1.36-.005-1.361-.005v1.339c0 .88-.01 1.339-.02 1.339s-.018.011-.018.025c0 .014-.032.054-.072.09a.633.633 0 0 1-.072.058c0-.003-.073.07-.163.16-.09.092-.174.166-.186.166a.048.048 0 0 0-.036.022c-.01.015 0 .018.013.008a3.208 3.208 0 0 0-.249.243.906.906 0 0 1-.182.163c-.012-.002-.021.007-.022.02 0 .028-.109.131-.13.124-.01-.003-.02.008-.028.025-.018.046-.277.288-.301.281-.012-.004-.015 0-.01.008.018.018-.1.142-.134.142a.025.025 0 0 0-.025.026c0 .03-.058.086-.12.117-.024.012-.043.034-.043.049s-.03.048-.067.073a.348.348 0 0 0-.083.073c-.01.015-.025.022-.037.015-.012-.007-.016-.004-.01.006.015.024-.11.146-.129.126-.01-.008-.012-.005-.01.007 0 .012-.076.103-.177.202a260.147 260.147 0 0 1-1.666 1.605c-.122.12-.212.194-.228.188-.016-.006-.021-.002-.014.01.01.012-.067.098-.167.195-.1.095-.266.256-.371.358a1.87 1.87 0 0 1-.194.175c0-.005-.017.002-.034.016-.017.015-.027.034-.02.044.01.009 0 .017-.01.017a.319.319 0 0 0-.088.069l-.072.07v6.734h6.665l.097-.092c.213-.201.457-.45.457-.466 0-.01.01-.018.015-.018.023 0 .292-.266.292-.288 0-.01.01-.02.015-.02.023 0 .292-.265.292-.288 0-.01.021-.03.048-.041.043-.02.056-.014.13.055.045.042.13.12.187.17.058.052.166.151.24.221.074.07.165.155.202.188.131.117.452.416.528.492.043.042.136.128.208.19l.13.114-.116.114a.886.886 0 0 0-.117.126c0 .007-.064.076-.143.153a1.308 1.308 0 0 0-.139.148c.01.011-.48.539-.73.792a1.2 1.2 0 0 0-.14.156c0 .023-.085.098-.111.098-.012 0-.023.012-.023.027s-.032.055-.072.09c-.04.035-.07.07-.068.076a.687.687 0 0 1-.108.12l-.111.11H.004zm13.908 4.782a1.289 1.289 0 0 1-.167-.192c0-.008 0-.013-.01-.01-.01.003-.05-.034-.091-.08a2.822 2.822 0 0 0-.148-.153c-.039-.036-.066-.075-.059-.085.01-.01 0-.013-.01-.007-.01.007-.044-.02-.074-.058a1.653 1.653 0 0 0-.146-.16c-.051-.049-.086-.096-.078-.105.01-.009.01-.01-.01-.004-.022.013-.14-.097-.142-.13 0-.011-.01-.02-.016-.02a.414.414 0 0 1-.119-.112c0-.005-.069-.075-.153-.158a.884.884 0 0 1-.154-.175.025.025 0 0 0-.025-.025c-.029 0-.128-.098-.128-.126 0-.01-.02-.027-.043-.038a.355.355 0 0 1-.103-.11c-.033-.05-.064-.086-.069-.081-.013.013-.457-.446-.457-.472 0-.01-.01-.014-.022-.007-.016.01-.018.003-.01-.022.01-.02.01-.03 0-.022-.02.02-.105-.064-.09-.088.01-.011 0-.014-.01-.007-.02.012-.062-.03-.659-.658-.184-.194-.39-.408-.458-.475-.076-.075-.118-.132-.111-.15.01-.016 0-.023-.014-.017-.014.005-.142-.115-.301-.283-.153-.16-.316-.33-.364-.378a.344.344 0 0 1-.082-.103c0-.009 0-.014-.01-.01-.01.002-.018-.005-.022-.015 0-.01-.024-.031-.044-.045a.178.178 0 0 1-.054-.072c-.01-.026-.029-.047-.043-.047-.014 0-.055-.032-.092-.07-.037-.04-.054-.064-.04-.055.02.011.023.009.013-.006-.01-.013-.02-.018-.029-.013-.01.005-.044-.021-.079-.058-.035-.036-.056-.067-.046-.068.01 0 .001-.009-.02-.017-.02-.01-.93-.018-2.02-.018l-1.982-.001V14.83l-.055-.06a.444.444 0 0 1-.067-.092c-.01-.017-.021-.026-.031-.02-.011.007-.02-.003-.02-.02 0-.019-.01-.028-.012-.021-.017.017-.083-.044-.083-.077a.025.025 0 0 0-.025-.026c-.036 0-.152-.124-.134-.143.01-.009.01-.01-.01-.004-.012.007-.06-.029-.108-.079a8.507 8.507 0 0 0-.211-.21c-.131-.125-.157-.162-.152-.226 0-.035 0-.035-.012-.003-.018.042-.048.045-.053.006-.01-.035.345-.382.366-.362.01.008.01.004 0-.01-.01-.016.078-.116.246-.286a3.61 3.61 0 0 0 .26-.275c0-.021.088-.097.112-.097.013 0 .023-.01.023-.023 0-.03.097-.13.127-.13.013 0 .027-.013.03-.028.01-.032.32-.356.343-.356.01 0 .02-.01.023-.023.01-.03.07-.006.086.035.011.03.198.221.198.203 0-.005.028.019.062.052.034.034.062.07.062.08 0 .01.01.018.02.018.028 0 .278.254.278.283 0 .014.015.03.034.036a.414.414 0 0 1 .105.09c.04.042.072.072.072.065 0-.007.024.012.053.04.03.029.053.06.053.07 0 .008.013.022.03.028.046.019.268.236.268.263 0 .013.015.03.034.035.019.006.103.077.187.158.084.08.14.14.124.132-.023-.013-.024-.01 0 .01.019.02.024.322.024 1.376v1.35h1.353c1.01 0 1.354.005 1.354.021 0 .013.035.052.077.088.042.036.077.078.077.093s.01.028.023.028c.03 0 .13.097.13.128 0 .014.012.025.028.025.015 0 .047.028.071.063.055.079.106.13.132.13.011 0 .02.006.02.015 0 .01.132.15.293.314.357.365.41.421.402.443 0 .01 0 .012.012.006.01-.006.098.074.197.176l.564.587.51.53.34.352c.119.123.216.232.216.244 0 .012.01.016.019.01.011-.007.019-.004.019.006s.083.103.185.208l.36.369c.096.098.175.187.175.197 0 .01.01.018.019.018.031.001.143.12.132.138-.01.01.01.022.03.028.022.006.04.017.04.024 0 .008.086.1.192.204.105.104.192.199.192.21 0 .01.019.028.043.039.024.01.06.046.082.08.02.034.049.062.06.063.013 0 .046.029.073.063.027.034.068.08.09.103.026.027.033.045.019.052-.013.006-.012.008 0 .005.014-.003.053.019.088.049l.063.055h6.699V15.08l-.615-.615a14.026 14.026 0 0 1-.614-.636c0-.011.021-.037.048-.058.026-.02.048-.043.048-.05 0-.005.063-.076.14-.155a1.74 1.74 0 0 0 .133-.144.78.78 0 0 1 .096-.11c.058-.061.207-.22.331-.355.124-.135.235-.24.246-.233.011.007.014.003.006-.01-.008-.012.058-.093.16-.197.096-.097.174-.18.174-.186a.15.15 0 0 1 .03-.045c.029-.031.035-.031.077-.004.026.017.046.042.046.057s.012.027.025.027c.035 0 .152.124.134.142-.008.008-.006.012.005.008.026-.008.132.08.149.125.007.019.02.03.03.024.009-.006.046.022.083.06.037.04.127.124.2.188.171.15.286.254.363.33.035.034.105.098.156.142.083.07.178.16.672.62l.122.114v9.88h-9.918l-.172-.177zm-.058-3.986c.01-.01 0-.016-.023-.015-.018.001-.042-.017-.052-.04-.011-.024-.03-.044-.041-.044a.904.904 0 0 1-.164-.148 1.585 1.585 0 0 0-.152-.15.464.464 0 0 1-.124-.128c0-.008-.01-.014-.016-.013-.025.003-.128-.102-.128-.131 0-.014-.02-.034-.043-.044a.475.475 0 0 1-.1-.069c-.033-.028-.046-.044-.03-.036.024.012.025.01 0-.012-.014-.015-.03-.027-.038-.027-.019 0-.11-.093-.11-.112 0-.009-.017-.026-.04-.038-.073-.04-.332-.29-.32-.308.01-.01 0-.013-.01-.007-.01.006-.068-.04-.128-.103l-.11-.114.056-.057c.03-.032.065-.058.077-.058.012 0 .02-.007.017-.015-.01-.021.097-.129.125-.13.013 0 .022-.01.02-.02a.92.92 0 0 1 .153-.174c.087-.084.158-.156.158-.161a.39.39 0 0 1 .125-.114c.01 0 .016-.006.014-.015-.01-.02.122-.15.142-.144.01.003.014-.003.01-.012 0-.009.084-.106.19-.216l.352-.362a.96.96 0 0 1 .176-.158c.01.003.017-.004.017-.015 0-.012.467-.02 1.362-.02h1.363l.01-1.348.01-1.348.17-.164c.092-.09.18-.166.196-.169.015-.003.028-.016.028-.028 0-.03.098-.129.128-.129a.025.025 0 0 0 .025-.025c0-.025.077-.11.1-.11.01 0 .149-.135.317-.302.83-.821 1.696-1.647 1.721-1.64.012.005.016 0 .008-.007-.021-.022.237-.261.268-.25.016.006.024 0 .02-.017-.005-.032.554-.586.593-.586.014 0 .026-.007.026-.016 0-.028.125-.157.153-.157.014 0 .021-.005.015-.01-.015-.016.073-.1.12-.115.02-.007.038-.022.038-.035 0-.03.229-.253.275-.27.02-.006.03-.019.025-.028-.012-.018.102-.127.132-.127.01 0 .02-.01.02-.023 0-.012.03-.047.067-.077a3.06 3.06 0 0 0 .201-.196.963.963 0 0 1 .18-.158c.026-.01.04-.024.034-.03-.016-.017.064-.102.096-.102.014 0 .039-.026.056-.059a.276.276 0 0 1 .082-.09c.029-.019.051-.044.05-.058-.002-.013-.004-1.527-.005-3.364l-.002-3.34h-6.653l-.091.087c-.052.05-.1.082-.113.074-.013-.008-.017-.005-.01.009.019.03-.114.164-.144.146-.015-.01-.018-.006-.01.009.019.03-.116.162-.146.144-.014-.008-.017-.005-.01.008.019.03-.114.164-.144.146-.015-.01-.018-.006-.01.009.019.03-.116.162-.146.144-.014-.008-.017-.005-.01.008.019.03-.114.164-.144.145-.015-.009-.018-.006-.01.01.019.03-.116.162-.146.143-.014-.009-.017-.005-.01.01.02.035-.08.12-.134.114-.044-.006-.381-.31-.693-.625a1.224 1.224 0 0 0-.175-.159c-.025 0-.1-.084-.1-.111 0-.013-.013-.023-.028-.023-.015 0-.055-.032-.09-.072a.384.384 0 0 0-.074-.072c-.027 0-.152-.132-.142-.15.01-.01 0-.014-.01-.008-.01.007-.037-.007-.059-.03a1.596 1.596 0 0 0-.118-.107c-.043-.035-.078-.073-.078-.083 0-.01.01-.014.016-.008.01.006.028-.011.042-.037.014-.026.037-.047.051-.047.014 0 .025-.012.025-.027s.035-.058.077-.096a.331.331 0 0 0 .077-.086c0-.01.032-.047.072-.083a1.46 1.46 0 0 0 .124-.127.344.344 0 0 1 .067-.067c.01-.002.013-.01.011-.017a.25.25 0 0 1 .062-.071.267.267 0 0 0 .067-.074c0-.029.153-.162.172-.15.011.007.015 0 .01-.015-.01-.015.014-.052.043-.083a25.073 25.073 0 0 1 .77-.83c.076-.077.138-.147.138-.155 0-.008.02-.02.043-.027.024-.006 2.257-.012 4.963-.012h4.92v9.914l-.167.159a.998.998 0 0 1-.193.16c-.015 0-.022.006-.017.015.014.023-.15.18-.169.162-.008-.008-.012-.006-.008.004.006.019-.078.116-.1.116-.006 0-.078.07-.16.157a.818.818 0 0 1-.171.154c-.012-.002-.022.007-.022.02-.001.028-.11.131-.13.124-.009-.003-.022.01-.029.028-.016.042-.103.12-.135.12-.013 0-.024.013-.024.027 0 .036-.09.115-.113.1-.013-.008-.016 0-.008.02.01.025.006.03-.015.017-.015-.009-.02-.009-.012 0 .017.02-.098.144-.134.144a.025.025 0 0 0-.026.024c0 .023-.08.11-.101.11-.006 0-.143.132-.305.294-.25.25-.753.734-1.321 1.276l-.326.311c-.104.101-.192.17-.207.165-.015-.006-.02 0-.013.01.017.028-.59.622-.612.6-.007-.007-.013.001-.013.017 0 .017-.024.046-.053.064a.96.96 0 0 0-.134.123.35.35 0 0 1-.105.088c-.014 0-.023.01-.02.022.003.023-.11.139-.14.14-.01 0-.018.008-.018.016 0 .022-.1.12-.124.12-.01 0-.038.035-.06.078s-.03.073-.02.066c.015-.009.021.557.02 1.951 0 1.276-.01 1.954-.019 1.936-.012-.02-.019-.021-.019-.005 0 .019-.41.024-1.988.024-1.749 0-1.989.003-1.998.029-.01.015-.02.028-.028.028-.026 0-.094.064-.094.088 0 .026-.075.094-.123.112-.02.007-.031.018-.024.025.017.017-.084.12-.116.12a.025.025 0 0 0-.025.026c0 .031-.1.129-.131.129-.013 0-.023.01-.023.025 0 .035-.124.15-.144.133-.01-.008-.01-.005 0 .006.017.03-.15.189-.18.17-.014-.008-.018-.006-.01.007.016.025 0 .081-.03.081-.01 0-.012-.008-.01-.017zm-2.197-4.132c-.266-.034-.489-.096-.864-.242-.214-.083-.422-.182-.422-.2 0-.01-.01-.015-.014-.013-.031.008-.14-.064-.128-.084.01-.013 0-.016-.01-.008-.012.008-.022.005-.022-.007s-.01-.019-.014-.017c-.039.012-.374-.249-.357-.277.01-.012 0-.015-.01-.01-.026.017-.163-.1-.147-.125.01-.012 0-.015-.01-.007-.012.008-.027.001-.033-.015a.27.27 0 0 0-.08-.069c-.036-.022-.071-.057-.076-.078-.01-.02-.021-.038-.035-.038-.014 0-.05-.032-.08-.072a.757.757 0 0 0-.066-.082 1.293 1.293 0 0 1-.094-.182l-.164-.352a.693.693 0 0 1-.072-.2c.01-.01 0-.014-.01-.007-.012.008-.037-.03-.062-.098-.041-.109-.041-.118-.021-.58.012-.26.02-.563.02-.676 0-.229 0-.237.125-.237.07 0 .077-.005.083-.053 0-.033.014-.048.027-.04.014.008.017.002.01-.019-.01-.017 0-.032.01-.032s.02-.012.02-.027c0-.043.08-.02.129.038.024.027.043.065.043.085 0 .02.01.041.016.047a.46.46 0 0 1 .03.16c.01.081.03.265.05.408l.046.339c.01.044.015.101.022.127.012.048.012.048-.151.055-.14.006-.17.013-.212.052a.237.237 0 0 0-.061.101c-.025.113.097.366.3.626a.732.732 0 0 1 .094.14c0 .01.012.019.027.019.022 0 .094.084.1.115 0 .005.04.048.086.096.047.047.146.155.22.24.154.174.397.416.407.406.01-.01-.032-.103-.085-.19-.024-.04-.038-.072-.029-.072.01 0 .01-.007-.01-.015a1.972 1.972 0 0 1-.143-.184 3.817 3.817 0 0 0-.205-.262.436.436 0 0 1-.083-.114c0-.013-.01-.018-.018-.012-.025.016-.103-.1-.086-.126.01-.013.01-.017-.01-.01-.031.019-.302-.36-.281-.394.01-.01 0-.016-.01-.016-.027 0-.083-.093-.092-.153-.027-.17.353-.132.508.05.033.039.06.064.06.056 0-.019.135.152.196.249.061.096.285.32.392.393.067.045.116.059.27.076.244.028.508.078.539.102.013.01.024.014.024.007 0-.025.202.07.276.128.128.101.147.12.348.361.08.095.125.174.112.194-.01.011 0 .015.01.009.011-.007.03.01.042.037.018.04.028.045.05.027a.147.147 0 0 0 .04-.06c.01-.02.023-.036.04-.036.015 0 .022-.01.016-.02-.023-.036.372-.497.415-.485.01.003.024-.011.035-.03.018-.034.167-.11.245-.125a.539.539 0 0 0 .064-.018.9.9 0 0 1 .105-.025 6.08 6.08 0 0 0 .106-.021c.016-.003.132-.02.26-.036.16-.02.245-.041.282-.067a.274.274 0 0 1 .063-.037c.013 0 .149-.124.216-.197.027-.028.057-.046.068-.04.011.007.014.004.01-.007-.013-.022.054-.14.08-.14.01 0 .022-.016.03-.034a.654.654 0 0 1 .18-.226c.024-.01.043-.03.043-.043 0-.014.015-.03.034-.038a.153.153 0 0 0 .057-.042c.013-.017.024-.022.024-.011 0 .01.01.009.015-.004.014-.022.043-.03.187-.057a.268.268 0 0 1 .132.02c.065.027.072.036.06.082a.686.686 0 0 1-.07.133.4.4 0 0 0-.056.102c0 .012-.01.02-.02.02s-.018.012-.018.027c0 .014-.017.041-.038.06-.021.02-.038.046-.038.059 0 .013-.013.028-.03.035-.015.006-.028.02-.028.032 0 .047-.3.397-.333.387-.01-.003-.01.002-.01.011.01.009-.023.052-.063.096-.04.044-.069.084-.064.089.01.007-.132.207-.168.241-.02.02-.13.26-.122.268.01.007.147-.12.206-.187.126-.143.201-.215.223-.215.014 0 .021-.005.014-.012-.017-.018.157-.23.374-.454a.664.664 0 0 0 .086-.1c0-.003.027-.043.064-.089a1.13 1.13 0 0 0 .077-.102c.01-.011.047-.082.092-.158.094-.156.124-.31.079-.392a.181.181 0 0 1-.023-.056c0-.015-.087-.025-.248-.027-.084 0-.14-.009-.13-.019.01-.009.011-.028.01-.043-.01-.014 0-.041 0-.06a.571.571 0 0 0 .021-.147c0-.063.017-.129.026-.147.01-.017.013-.036.01-.042-.01-.005 0-.099.018-.208l.04-.305c.025-.217.064-.292.169-.318.045-.01.053-.007.053.028 0 .022.01.04.02.04.013 0 .018.017.012.039-.01.02 0 .033.01.027.01-.006.017.007.017.029 0 .034.01.038.085.034.047-.003.08 0 .077.008 0 .007 0 .016.01.02s.027.246.039.563c.01.306.025.613.03.681.01.116.01.135-.057.265a1.073 1.073 0 0 0-.07.158c0 .01-.01.019-.018.019-.01 0-.02.01-.02.022 0 .012-.04.104-.087.205a6.752 6.752 0 0 0-.118.257c-.016.04-.037.073-.047.073-.01 0-.013.008-.01.018.015.025-.336.386-.36.371-.01-.006-.014-.003-.01.01.018.03-.467.427-.523.427a.02.02 0 0 0-.021.02c0 .011-.01.015-.017.01-.01-.006-.022.002-.028.017a.606.606 0 0 1-.229.13c-.01-.003-.014.004-.014.016 0 .011-.01.015-.019.008-.01-.007-.019-.003-.019.008s-.013.02-.028.02a.277.277 0 0 0-.09.035.488.488 0 0 1-.194.064c-.01-.002-.014.004-.014.014 0 .012-.174.078-.288.109-.01 0-.023.008-.038.014a2.195 2.195 0 0 1-.316.08l-.202.03c-.15.021-.632.02-.806-.002zm-.615-1.7a.335.335 0 0 1-.096-.045.16.16 0 0 0-.05-.027.307.307 0 0 1-.093-.06.436.436 0 0 0-.064-.051.228.228 0 0 1-.05-.035c-.12-.097-.163-.14-.16-.16 0-.012-.01-.02-.019-.018-.013.002-.08-.062-.15-.144a1.668 1.668 0 0 1-.24-.383c-.15-.308-.29-.681-.317-.846 0-.029-.022-.113-.037-.186a3.765 3.765 0 0 1-.03-.894c.027-.183.114-.463.181-.582.104-.183.119-.204.145-.204.015 0 .022-.006.015-.013-.017-.017.1-.16.126-.155.012.002.022-.006.023-.02 0-.022.05-.074.134-.139.03-.022.034-.023.021-.002-.01.019-.01.023.01.014a.052.052 0 0 0 .022-.038c0-.025.132-.108.172-.108.013 0 .035-.012.05-.028a.596.596 0 0 1 .28-.08c.02.004.035 0 .035-.009 0-.01.081-.015.187-.01a.86.86 0 0 1 .37.078c.331.131.392.15.538.16.08.005.192 0 .254-.014l.124-.023a.25.25 0 0 0 .072-.034.441.441 0 0 1 .188-.062c.01.002.014-.005.014-.014 0-.029.293-.098.415-.098.063 0 .166.009.229.02.137.025.433.166.528.253l.14.126c.082.07.246.31.231.334-.01.009 0 .016.018.016.015 0 .034.02.042.043.017.053.015.047.054.137.018.04.032.08.032.088 0 .008.013.039.028.07.046.092.087.382.087.61 0 .5-.102.95-.328 1.461a.386.386 0 0 1-.074.125c.023 0-.112.249-.174.32a3.83 3.83 0 0 0-.1.122 1.31 1.31 0 0 1-.124.131 3.162 3.162 0 0 0-.116.112c-.059.06-.244.179-.263.167-.01-.005-.016 0-.016.01 0 .011-.037.04-.082.063-.12.063-.393.07-.73.018a2.051 2.051 0 0 0-.772-.002c-.303.045-.562.048-.681.006zm7.052-2.411a98.284 98.284 0 0 1-.59-.573c-.233-.228-.53-.517-.659-.641l-.235-.227v-2.72H15.28c-1.246 0-1.341-.002-1.379-.034-.064-.053-.171-.2-.16-.218.01-.01 0-.012-.016-.007-.015.006-.136-.106-.303-.282a35.81 35.81 0 0 0-.364-.378.347.347 0 0 1-.082-.103c0-.009 0-.013-.017-.01-.012.002-.048-.036-.082-.086-.033-.05-.07-.09-.081-.091-.031-.002-.142-.13-.127-.146.01-.008 0-.01-.01-.003-.021.012-.156-.113-.147-.137 0-.007 0-.013-.015-.013-.011 0-.046-.03-.077-.067-.078-.093-.16-.173-.177-.173-.01 0-.014-.01-.014-.022 0-.012-.04-.056-.087-.097-.05-.044-.081-.086-.074-.099.01-.012.01-.016 0-.008-.02.018-.144-.098-.144-.134a.025.025 0 0 0-.025-.025c-.029 0-.109-.079-.109-.108 0-.011-.019-.036-.042-.057-.027-.023-.036-.026-.026-.008.01.016-.01.008-.035-.017-.028-.026-.05-.055-.05-.066a.305.305 0 0 0-.078-.084c-.042-.037-.072-.074-.066-.084.01-.01 0-.017-.016-.017-.034 0-.505-.492-.498-.52 0-.011 0-.016-.01-.01-.01.005-.099-.074-.198-.177-1.23-1.267-1.345-1.39-1.333-1.42.01-.015 0-.02-.012-.012s-.119-.087-.255-.225l-.232-.238h-6.7l-.01 3.322c-.01 1.976 0 3.338.01 3.364.01.024.027.043.04.043.03 0 .129.105.113.121-.01.007 0 .018.024.026.05.018.142.105.13.125-.01.009.01.024.034.033a.3.3 0 0 1 .092.07c.026.03.035.046.02.037-.026-.014-.026-.012 0 .016.013.018.036.033.048.033.031 0 .13.105.114.12-.01.008.01.021.033.03.025.01.067.043.094.072.026.029.035.046.02.036-.026-.014-.026-.011 0 .017.013.017.036.032.048.032.031 0 .13.105.114.12-.01.008.01.021.033.031.025.01.067.042.094.07.026.03.035.047.02.038-.026-.015-.026-.012 0 .016.013.018.036.032.048.032.013 0 .047.025.077.056l.054.057-.121.136c-.067.075-.133.132-.146.127-.015-.006-.019.002-.012.022.01.02 0 .026-.01.017-.014-.008-.022-.005-.019.005.01.028-.253.312-.275.298-.01-.006-.016-.003-.013.007.01.032-.12.179-.145.165-.012-.007-.016-.006-.01.003.01.009-.035.065-.096.125a1.78 1.78 0 0 0-.144.16c-.02.028-.047.05-.062.05s-.028.013-.028.027c0 .015-.034.058-.077.096a.464.464 0 0 0-.077.08c0 .02-.104.115-.12.11-.01-.004-.013.001-.01.011.011.02-.093.118-.124.118-.018 0-.097-.068-.279-.24a7.469 7.469 0 0 0-.145-.132c-.298-.266-.514-.48-.504-.497.01-.012 0-.016-.016-.009-.018.007-.066-.028-.13-.093a.699.699 0 0 0-.115-.103c-.022 0-.097-.087-.097-.112 0-.012-.012-.023-.026-.023-.014 0-.06-.036-.103-.081a1.602 1.602 0 0 0-.147-.137c-.038-.03-.064-.064-.057-.075.01-.01 0-.014-.01-.008-.01.007-.049-.02-.083-.059a.312.312 0 0 0-.078-.072.367.367 0 0 1-.092-.08C.074 9.963.04 9.932.04 9.94c0 .007-.01.004-.02-.007C.006 9.92 0 8.333 0 4.981V.025C0 .005 1.025 0 4.934 0c2.712 0 4.945.005 4.962.011.017.006.031.024.031.039 0 .014.011.026.025.026.03 0 .098.071.115.12.01.019.024.034.038.034.025 0 .11.077.11.099 0 .006.123.135.273.288.332.337.39.402.384.424 0 .01 0 .013.011.007.016-.01.743.73.743.757 0 .007.03.038.067.068a1.3 1.3 0 0 1 .124.122c.032.037.092.1.134.141.098.096.166.188.153.208-.01.01 0 .012.016.006.03-.011.461.429.445.455-.01.009 0 .017.016.017.024 0 .272.244.273.269 0 .005.069.076.154.158.084.082.153.16.153.173 0 .013.011.024.024.024.022 0 .13.102.13.124 0 .006.071.078.158.162.086.084.152.162.145.173-.01.011 0 .014 0 .006.02-.018.144.098.144.134 0 .014.012.025.028.025.015 0 .044.024.065.053.02.029.19.206.376.394.192.195.333.351.325.363-.01.012 0 .016.01.01s.086.057.169.141l.15.153 1.99.005c1.752.004 1.989.008 1.99.033 0 .016 0 .919.01 2.006l.01 1.978.485.47.485.47-.055.05c-.03.027-.055.058-.055.069 0 .026-.083.102-.112.102-.012 0-.022.012-.022.026 0 .031-.1.128-.132.128-.013 0-.02.007-.014.016.006.01-.06.085-.147.168a2.028 2.028 0 0 0-.158.162.368.368 0 0 1-.13.125c-.013 0-.022.01-.02.021a.512.512 0 0 1-.112.133 1.127 1.127 0 0 0-.134.147c-.01.02-.027.03-.038.024-.01-.006-.016-.004-.014.004.01.031-.38.428-.422.428-.014 0-.1-.071-.191-.158zm-5.999-1.72c-.028-.052-.037-.492-.012-.58.01-.026.023-.085.034-.131.023-.095.053-.16.084-.18.012-.008.022-.029.023-.048 0-.037.113-.215.184-.295.061-.069.227-.199.228-.178 0 .01.01.007.014-.004a.4.4 0 0 1 .17-.085c.014 0 .026-.007.026-.015 0-.022.28-.089.305-.073.012.007.022.03.022.05 0 .021.01.038.022.038.037 0 .01.446-.04.612-.04.133-.106.289-.135.31a.621.621 0 0 0-.075.1.43.43 0 0 1-.072.092c-.01 0 0-.01 0-.023.01-.014.01-.016-.01-.008-.013.008-.018.02-.012.026.012.012-.084.12-.106.12-.01 0-.039.023-.07.052a.754.754 0 0 1-.15.1.777.777 0 0 0-.104.057.79.79 0 0 1-.23.095c-.068.015-.076.013-.1-.031z"/></svg>