<svg role="img" viewBox="0 0 24 24" xmlns="http://www.w3.org/2000/svg"><path d="M2.857 23.978c-.198-.051-.271-.166-.256-.4.025-.391-.925-.351 9.152-.386 9.403-.032 9.087-.038 9.191.157.08.15.049.38-.066.486-.107.099-.127.1-1.316.128-1.734.039-16.56.052-16.705.015zm2.251-.972c-.887-.014-1.62-.035-1.63-.046-.011-.011.012-.347.05-.747l.07-.727.139.002c.076 0 .275.006.442.01l.304.008-.03.405-.031.404.801.013c.937.015.838.08.92-.615.03-.25.068-.477.084-.504.018-.029.22-.06.49-.075l.46-.026-.015.189-.014.188h.898l.022-.15.021-.15.439-.012.438-.012v.348l.46-.012.46-.012.013-.16.013-.16h.904l-.026.202c-.014.112-.039.343-.054.514l-.028.31H7.055l-.054.428c-.054.423-.056.427-.168.42-.062-.004-.838-.02-1.725-.034zm7.292-.36l.026-.357-.35-.027a10.541 10.541 0 0 0-.608-.029c-.364-.002-.492-.126-.492-.478 0-.238.118-.455.303-.558.135-.075.21-.08.96-.055.896.03 1.054.06 1.125.217l.049.105h1.67v-.342h.898v.342h.835c.913 0 1.066.03 1.2.234.057.088.068.168.048.377-.031.328-.211.918-.231.758-.032-.255-.105-.422-.216-.496-.104-.07-.26-.082-1.38-.109-.693-.016-1.646-.033-2.117-.037l-.855-.007-.037.41-.038.41h-.815zm.116-.834c0-.02.013-.1.028-.176l.027-.137-.43.014c-.455.016-.609.08-.609.257 0 .072.043.08.492.08.27 0 .492-.018.492-.038zm5.578.914c.049-.48.112-.7.255-.89.265-.352.663-.455 1.77-.456l.653-.001v.757l-.738.03c-.881.036-.904.048-.977.497a1.869 1.869 0 0 1-.06.291 3.935 3.935 0 0 1-.475.04l-.458.023zm1.652.118c0-.065.012-.19.027-.278l.026-.16h.802v.181c-.002.374-.002.374-.454.374h-.402v-.117zM6.314 20.79c0-.065.013-.19.027-.279l.027-.16h.801v.182c-.001.374-.001.374-.454.374h-.401zm1.875-.182l.014-.3h.842l-.021.246c-.033.372-.01.353-.452.353h-.397l.014-.3zm1.847.075c0-.375 0-.375.453-.375h.402v.182c-.002.374-.002.374-.454.374h-.402zm5.14-.086l.014-.267.417-.013.417-.012v.12c-.001.065-.013.19-.028.279l-.026.16h-.806l.013-.267zm-12.045-.593c-.102-.08-.113-.115-.102-.308.023-.401-.942-.36 9.168-.395 8.104-.028 8.91-.025 9.031.038.152.078.185.144.185.367 0 .198-.085.283-.342.342-.13.03-3.097.045-9.009.045l-8.816.001zm8.669-2.312a.214.214 0 0 1-.054-.131c0-.243-.297-.659-.568-.794-.368-.183-.548-.196-1.244-.09-.572.087-.68.092-1.07.048-1.091-.125-2.422-.785-3.252-1.614-.501-.502-1.26-1.752-1.73-2.85-1.215-2.84-1.117-5.572.284-7.93C5.194 2.603 7.075 1.18 9.355.404c.812-.276 2.005-.54 1.382-.307-.115.044-.499.202-.851.353-3 1.281-4.848 2.962-5.693 5.176-.394 1.033-.54 2.443-.384 3.691.184 1.463.5 2.322 1.085 2.956.5.541.982.68 1.872.537.645-.104.69-.11 1.173-.14 1.094-.069 2.028.188 2.663.731.378.324.74.99.847 1.562.12.632.124.636.382.403l.176-.16.166.163c.091.089.192.152.223.14.033-.013.078-.158.108-.348.163-1.02.665-1.75 1.474-2.138.839-.402 1.8-.465 3.265-.213.542.093.97.063 1.287-.093.66-.322 1.233-1.225 1.471-2.317.432-1.977.293-3.765-.408-5.265-.726-1.555-1.976-2.816-3.838-3.875A23.07 23.07 0 0 0 13.377.14c-.174-.067-.295-.13-.27-.138.061-.02.963.212 1.462.377 1.557.514 2.96 1.352 4.013 2.396 1.064 1.055 1.79 2.312 2.144 3.711.303 1.2.287 2.831-.04 4.093-.359 1.38-1.05 2.854-1.91 4.068-.682.964-2.234 1.878-3.509 2.067-.441.066-.68.057-1.266-.044-.447-.077-.554-.082-.776-.038-.54.106-.826.373-.983.917-.046.161-.061.174-.22.186-.094.007-.193-.01-.222-.04zm-.025-4.495c-.66-1.055-1.566-1.565-2.916-1.64-.484-.028-.792-.002-1.86.157-.534.08-.656.085-.875.041-.444-.09-.777-.391-1.062-.964-.363-.726-.515-1.571-.516-2.866 0-.938.011-1.01.3-1.775.779-2.065 2.298-3.698 4.392-4.724.624-.306 1.097-.504 1.096-.46 0 .017-.282.184-.627.372C8.46 2.02 7.28 2.892 6.65 3.595 5.743 4.607 5.245 5.748 5.245 6.81c0 .632.163.958.585 1.165.311.152.86.186 1.318.082.644-.147.816-.165 1.129-.119.77.114 1.284.603 1.587 1.505.073.217.34 1.423.342 1.547 0 .014.128.1.283.191.352.206.787.631.907.887.11.233.152.264.24.176.127-.127.066-.587-.175-1.324a4.14 4.14 0 0 0-.597-1.18c-.41-.584-.735-1.373-.924-2.237-.082-.375-.094-.558-.093-1.373 0-.913.006-.956.133-1.433a5.52 5.52 0 0 1 .721-1.654c.268-.403.853-1.04 1.132-1.234l.169-.118.236.182c.748.577 1.425 1.602 1.71 2.588.51 1.76.146 3.988-.876 5.369-.334.451-.553.987-.724 1.772-.09.415-.078.603.044.668.067.036.094.012.183-.162.057-.112.184-.296.284-.408.176-.2.676-.587.757-.587.082 0 .173-.153.218-.364.025-.117.078-.387.117-.599.266-1.428.87-2.141 1.884-2.225.196-.016.416.008.792.086.931.193 1.441.128 1.798-.229.328-.328.417-.847.27-1.58-.225-1.12-.658-1.891-1.578-2.814-.792-.794-1.567-1.351-2.895-2.083-.883-.486-.574-.424.476.096 1.058.525 1.663.947 2.453 1.713.995.963 1.61 1.94 2.114 3.358.151.425.152.432.17 1.282.011.514-.002 1.018-.031 1.262-.233 1.89-.924 2.872-1.943 2.763a19.5 19.5 0 0 1-.817-.12c-1.076-.18-2.075-.122-2.839.164-.584.22-1.216.768-1.6 1.392-.1.161-.193.293-.208.293-.016 0-.115-.14-.222-.31z"/></svg>