<svg viewBox="0 0 24 24" xmlns="http://www.w3.org/2000/svg" role="img"><path d="M13.734.834A7.917 7.917 0 0 0 6.89 4.438l.32.108a5.521 5.521 0 0 1 4.434-2.586 5.521 5.521 0 0 1 2.015.289 5.521 5.521 0 0 1 3.511 6.793l4.077 1.385a7.917 7.917 0 0 0-5.184-9.18 7.917 7.917 0 0 0-2.33-.413zM2.455 4.647a7.917 7.917 0 0 0 5.184 9.18 7.917 7.917 0 0 0 9.172-3.19l-.324-.11a5.436 5.436 0 0 1-.026.035 5.521 5.521 0 0 1-6.354 2.142 5.521 5.521 0 0 1-3.549-6.662zm9.322.372a2.46 2.46 0 0 0-.245.023 2.46 2.46 0 0 0-.92.329 2.46 2.46 0 0 0-.393.294 2.46 2.46 0 0 0-.172.176 2.46 2.46 0 0 0-.154.191 2.46 2.46 0 0 0-.135.206 2.46 2.46 0 0 0-.203.447 2.46 2.46 0 0 0-.058.201 2.46 2.46 0 0 0-.025.121 2.46 2.46 0 0 0-.022.12 2.46 2.46 0 0 0-.013.125 2.46 2.46 0 0 0-.009.12 2.46 2.46 0 0 0 0 .125 2.46 2.46 0 0 0 .002.121 2.46 2.46 0 0 0 .011.123 2.46 2.46 0 0 0 .015.121 2.46 2.46 0 0 0 .024.121 2.46 2.46 0 0 0 .027.12 2.46 2.46 0 0 0 .036.12 2.46 2.46 0 0 0 .038.113 2.46 2.46 0 0 0 .048.116 2.46 2.46 0 0 0 .05.11 2.46 2.46 0 0 0 .058.109 2.46 2.46 0 0 0 .061.106 2.46 2.46 0 0 0 .07.103 2.46 2.46 0 0 0 .07.099 2.46 2.46 0 0 0 .08.095 2.46 2.46 0 0 0 .08.092 2.46 2.46 0 0 0 .089.087 2.46 2.46 0 0 0 .089.082 2.46 2.46 0 0 0 .096.078 2.46 2.46 0 0 0 .098.074 2.46 2.46 0 0 0 .103.067 2.46 2.46 0 0 0 .104.064 2.46 2.46 0 0 0 .11.057 2.46 2.46 0 0 0 .11.053 2.46 2.46 0 0 0 .196.077 2.46 2.46 0 0 0 .203.058 2.46 2.46 0 0 0 .113.024 2.46 2.46 0 0 0 .13.023 2.46 2.46 0 0 0 .11.012 2.46 2.46 0 0 0 .136.01 2.46 2.46 0 0 0 .106.001 2.46 2.46 0 0 0 .14-.003 2.46 2.46 0 0 0 .103-.01 2.46 2.46 0 0 0 .143-.018 2.46 2.46 0 0 0 .096-.018 2.46 2.46 0 0 0 .146-.033 2.46 2.46 0 0 0 .088-.027 2.46 2.46 0 0 0 .146-.049 2.46 2.46 0 0 0 .084-.035 2.46 2.46 0 0 0 .142-.064 2.46 2.46 0 0 0 .077-.041 2.46 2.46 0 0 0 .138-.08 2.46 2.46 0 0 0 .07-.047 2.46 2.46 0 0 0 .132-.095 2.46 2.46 0 0 0 .062-.051 2.46 2.46 0 0 0 .125-.11 2.46 2.46 0 0 0 .054-.055 2.46 2.46 0 0 0 .115-.125 2.46 2.46 0 0 0 .064-.079 2.46 2.46 0 0 0 .07-.091 2.46 2.46 0 0 0 .001 0 2.46 2.46 0 0 0 .326-.634 2.46 2.46 0 0 0-.096-1.818 2.46 2.46 0 0 0-.11-.212 2.46 2.46 0 0 0-.004-.008 2.46 2.46 0 0 0-.124-.19 2.46 2.46 0 0 0-.012-.017 2.46 2.46 0 0 0-.133-.164 2.46 2.46 0 0 0-.023-.028 2.46 2.46 0 0 0-.138-.139 2.46 2.46 0 0 0-.037-.037 2.46 2.46 0 0 0-.141-.116 2.46 2.46 0 0 0-.05-.04 2.46 2.46 0 0 0-.14-.094 2.46 2.46 0 0 0-.067-.044 2.46 2.46 0 0 0-.131-.07 2.46 2.46 0 0 0-.088-.046 2.46 2.46 0 0 0-.123-.05 2.46 2.46 0 0 0-.12-.048 2.46 2.46 0 0 0-.002 0 2.46 2.46 0 0 0-.2-.057 2.46 2.46 0 0 0-.12-.026 2.46 2.46 0 0 0-.122-.021 2.46 2.46 0 0 0-.122-.013 2.46 2.46 0 0 0-.122-.01 2.46 2.46 0 0 0-.21 0zm10.757 6.401c-.014.024-.284.289-.81.796-.354.347-.64.623-.86.828-.283.269-.601.546-.955.831-.444.366-.907.74-1.39 1.122-.522.42-.861.717-1.02.891a1.744 1.744 0 0 0-.25.333 3 3 0 0 0-.195.435c.016.026.073 0 .17-.078l.148-.12c.052-.04.105-.084.16-.131l.746-.584c.316-.229.606-.45.87-.661.111-.083.227-.174.347-.273.123-.099.253-.206.393-.322.353-.302.647-.556.88-.764a9.166 9.166 0 0 0 .874-.849c.132-.146.256-.297.372-.453a3.48 3.48 0 0 0 .293-.456c.116-.198.188-.339.216-.421.029-.083.032-.124.01-.124zm-.626.223c-.036.002-.136.064-.301.184-.167.12-.336.26-.506.42-.332.305-.53.503-.594.595a.734.734 0 0 0-.032.096.413.413 0 0 1-.032.085c.432-.312.799-.62 1.1-.924.22-.217.341-.369.365-.456zM1.876 14.216a.111.111 0 0 0-.046.009c-.038.019-.12.152-.244.4-.125.247-.188.41-.188.488 0 .04.025.081.074.124.06.047.148.112.266.194.118.08.187.12.208.12.052 0 .137-.104.255-.314.118-.212.177-.374.177-.485-.009-.085-.085-.201-.226-.35-.113-.123-.205-.185-.276-.186zm21.621.08a.11.11 0 0 0-.045.01c-.038.018-.12.152-.244.4-.125.247-.188.41-.188.487 0 .04.025.082.074.124.06.047.148.112.266.195.118.08.187.12.208.12.052 0 .137-.105.255-.315.118-.212.177-.374.177-.484-.009-.085-.085-.202-.226-.35-.105-.114-.191-.175-.26-.185a.121.121 0 0 0-.017-.001zm-7.518.626a.111.111 0 0 0-.046.009c-.038.019-.12.152-.244.4-.125.247-.188.41-.188.488 0 .04.025.081.075.124.059.047.147.112.265.194.118.08.188.12.209.12.052 0 .137-.105.255-.314.117-.213.176-.374.176-.485-.009-.085-.084-.202-.226-.35-.104-.114-.19-.175-.26-.185a.12.12 0 0 0-.016 0zM5.59 15.16a.283.283 0 0 0-.137.04.977.977 0 0 0-.188.138.693.693 0 0 0-.141.19.54.54 0 0 0-.06.199.23.23 0 0 0 .039.145c.028.04.06.073.099.099a.295.295 0 0 0 .11.046c.037.007.068.01.091.01a.737.737 0 0 1-.102.22 1.961 1.961 0 0 1-.191.258 2.54 2.54 0 0 1-.252.244c-.092.078-.184.14-.276.188-.02.016-.031.033-.031.05 0 .016.007.026.02.031l.04.007a.152.152 0 0 0 .046-.01c.18-.088.34-.2.48-.337a2.223 2.223 0 0 0 .559-.895 1.58 1.58 0 0 0 .082-.364c.005-.09-.009-.152-.042-.188a.175.175 0 0 0-.146-.07zm-.208.326c.054 0 .084.025.089.075a.263.263 0 0 1-.029.145.32.32 0 0 1-.053.004.197.197 0 0 1-.063-.018.192.192 0 0 1-.054-.042.124.124 0 0 1-.017-.068c.033-.066.075-.098.127-.095zm-4.66.197c-.017 0-.034.018-.05.055-.172.439-.287.745-.343.92a35.09 35.09 0 0 0-.234 1.68c-.056.524-.088.905-.095 1.143-.007.326.036.59.13.796.107.208.255.315.446.322.189-.009.348-.106.478-.29.132-.184.236-.419.311-.704.076-.288.116-.495.12-.623.008-.075-.008-.113-.05-.113-.03 0-.063.053-.098.16a1.168 1.168 0 0 1-.131.272.354.354 0 0 1-.506.085c-.174-.118-.256-.39-.244-.818.035-.453.092-.983.17-1.592.078-.608.121-1.02.13-1.238 0-.028-.008-.046-.028-.053-.002 0-.005 0-.007-.002zm10.62.175a1.214 1.214 0 0 0-.378.159 4.715 4.715 0 0 0-.743.548 6.19 6.19 0 0 0-.552.62c-.248.31-.44.628-.577.951-.134.32-.201.586-.201.796a.55.55 0 0 0 .085.325c.056.08.139.147.247.199a.808.808 0 0 0 .152.06c.045.009.117.03.216.063.102.031.152.08.152.149a.78.78 0 0 1-.113.368 2.241 2.241 0 0 1-.333.439 1.86 1.86 0 0 1-.54.396c-.29.146-.592.22-.903.22-.375 0-.666-.086-.874-.256a.85.85 0 0 1-.308-.69c0-.275.104-.69.312-1.241a94.306 94.306 0 0 1 .347-.8l.127-.3.099-.259a.269.269 0 0 0 .018-.127c0-.057-.018-.085-.053-.085-.026 0-.056.028-.089.085-.03.057-.06.114-.088.173l-.248.531-.322.686c-.13.283-.24.577-.333.881a3.681 3.681 0 0 0-.173 1.129c0 .153.02.315.06.484.04.17.113.33.22.482.233.297.575.449 1.026.456.396 0 .746-.1 1.05-.3.158-.105.306-.23.442-.376.14-.144.261-.287.365-.431.2-.312.362-.678.485-1.1a4.06 4.06 0 0 0 .187-1.13c0-.237-.058-.397-.173-.477a.939.939 0 0 0-.22-.106.982.982 0 0 1-.226-.113.225.225 0 0 1-.074-.18c0-.052.048-.147.145-.284.096-.139.23-.287.403-.445.175-.16.334-.277.478-.35a.852.852 0 0 1 .353-.11c.022 0 .044.01.068.032l.085.06c.042 0 .092-.045.148-.135a3.02 3.02 0 0 0 .124-.254c.07-.15.12-.265.149-.347.03-.083.053-.169.067-.258a.129.129 0 0 0-.01-.089c-.015-.033-.04-.05-.079-.05zm2.939.731c-.02.003-.042.022-.067.06a7.48 7.48 0 0 0-.269.59c-.042.111-.08.226-.113.344a2.436 2.436 0 0 0-.07.34 6.091 6.091 0 0 0-.025.816c.007.354.005.629-.007.825a3.92 3.92 0 0 1-.078.601 9.364 9.364 0 0 0-.064.322c-.005.028.002.048.021.06.022.012.051 0 .089-.035.033-.035.074-.092.124-.17a2.65 2.65 0 0 0 .208-.467c.09-.236.149-.506.177-.81a5.08 5.08 0 0 0 .029-.517 63.929 63.929 0 0 1 .025-.859l.007-.23.014-.258.014-.245.018-.198a.926.926 0 0 1 .017-.11c.002-.028-.008-.046-.031-.056-.006-.003-.013-.004-.02-.003zm2.748.085a.054.054 0 0 0-.026.009c-.035.07-.11.227-.226.47a8.515 8.515 0 0 0-.22.563c-.056.181-.084.442-.084.782 0 .165-.005.44-.015.828-.011.391-.04.665-.084.82-.007.069-.075.144-.202.227l-.069.044a13.2 13.2 0 0 1-.465.264c-.17.084-.32.205-.45.36-.117.142-.265.393-.442.754-.051.118-.162.238-.332.36a7.18 7.18 0 0 1-.563.347l-.382.227c-.217.139-.325.249-.325.329 0 .014.032.021.095.021h.124c.05 0 .092-.004.128-.01.448-.052.759-.14.934-.266.172-.12.349-.362.53-.725.1-.198.185-.335.258-.41.114-.116.3-.236.56-.361.056-.027.107-.056.153-.086l.001.008c.272-.148.484-.389.637-.722.158-.334.25-.626.276-.873.057-.404.096-.912.117-1.525.017-.552.028-.868.035-.948 0-.054.018-.185.053-.393.01-.062.003-.093-.017-.094zm5.369.23a.56.56 0 0 0-.425.184c-.035.04-.115.155-.24.346-.088.142-.109.224-.064.248.028.014.063-.001.103-.046a.814.814 0 0 0 .063-.064 1.76 1.76 0 0 1 .078-.085c.054-.063.132-.095.234-.095.106 0 .258.04.456.12.064.029.151.071.262.128 0 .028-.073.115-.22.261-.073.08-.222.23-.449.45-.042.05-.184.066-.424.05a2.398 2.398 0 0 0-.694.042l-.002.002c0-.001 0-.002-.002-.002l-.117.02a.52.52 0 0 0-.113.036 3.272 3.272 0 0 0-.718.393c-.25.177-.51.432-.778.764a16.27 16.27 0 0 0-.609.85 4.827 4.827 0 0 1-.272.399c-.2.318-.413.598-.637.838-.226.243-.446.45-.658.623a6.758 6.758 0 0 1-.577.421c-.148.118-.25.205-.304.262-.042.05-.058.082-.046.099.038.026.087.026.149 0a.65.65 0 0 0 .085-.032 3.286 3.286 0 0 0 .51-.248c.14-.082.295-.183.463-.304.165-.12.375-.305.63-.555.254-.248.504-.544.75-.888.245-.347.455-.631.629-.853.177-.224.396-.408.658-.552.18-.085.32-.141.425-.17.115-.033.22-.049.314-.049.095 0 .167.004.216.01h.003a.815.815 0 0 0 .329-.004.955.955 0 0 0 .17-.048c.08-.029.178-.105.294-.23.118-.123.226-.251.325-.386l.52-.513c.173-.17.335-.322.489-.456.177-.156.26-.229.247-.22a.873.873 0 0 0 .138-.159c.057-.078.11-.187.16-.329a.34.34 0 0 0 .031-.13c-.007-.027-.02-.043-.042-.05-.017-.007-.045 0-.085.021-.066.04-.126.07-.18.092a.595.595 0 0 1-.202.035c-.094 0-.243-.036-.446-.11-.205-.077-.348-.116-.428-.116zM4.46 18.46c-.034.004-.087.07-.16.201a1.086 1.086 0 0 1-.19.276 1.358 1.358 0 0 1-.277.163c-.148.078-.252.133-.311.166-.16.102-.277.202-.35.3-.076.098-.185.306-.33.627-.14.323-.225.5-.25.53a3.222 3.222 0 0 1-.683.56 5.797 5.797 0 0 0-.382.247c-.168.12-.266.191-.294.213-.078.056-.113.101-.106.134.026.052.085.073.177.064.106 0 .252-.02.438-.06.182-.031.327-.068.436-.11a1.04 1.04 0 0 0 .52-.52c.07-.16.165-.39.283-.686a1.99 1.99 0 0 1 .205-.382.748.748 0 0 1 .134-.12c.066-.05.254-.15.563-.298.22-.11.417-.481.594-1.11.024-.121.02-.186-.01-.195H4.46zm7.984 1.256c-.045-.005-.087.035-.127.117-.038.08-.103.232-.195.456-.09.222-.19.443-.3.662-.111.22-.211.384-.301.495a2.278 2.278 0 0 1-.446.386c-.207.146-.39.268-.548.364-.158.097-.256.176-.294.237-.028.038-.039.07-.032.096.007.023.029.038.064.042.035 0 .12-.011.255-.035.137-.024.317-.067.541-.13.226-.067.39-.14.488-.22a1.15 1.15 0 0 0 .28-.347c.085-.153.183-.379.293-.676.114-.297.204-.57.273-.82.068-.253.105-.426.11-.52 0-.064-.02-.1-.06-.107zm-8.357 1.77a.112.112 0 0 0-.046.01c-.038.019-.119.152-.244.4-.125.247-.188.41-.188.488 0 .04.025.081.075.124.059.047.147.11.265.19.118.083.188.125.209.125.052 0 .137-.107.255-.319.117-.21.176-.37.176-.48-.009-.086-.085-.204-.226-.355-.104-.111-.19-.172-.26-.18a.126.126 0 0 0-.016-.002zm16.478.047a.113.113 0 0 0-.046.009c-.038.019-.119.152-.244.4-.125.247-.188.41-.188.488 0 .04.025.081.075.123.059.048.147.111.265.191.118.083.188.124.209.124.052 0 .137-.106.255-.318.117-.21.176-.37.176-.481-.009-.085-.083-.203-.222-.354-.107-.111-.194-.172-.263-.181a.13.13 0 0 0-.017-.001z"/></svg>