<svg role="img" viewBox="0 0 24 24" xmlns="http://www.w3.org/2000/svg"><path d="M11.178 22.911c-.412-.021-.941-.098-1.175-.17a1.059 1.059 0 0 0-.227-.046c-.041 0-.14-.02-.22-.044l-.378-.112c-.376-.11-.862-.28-1.179-.41a17.26 17.26 0 0 0-.387-.156c-.476-.175-1.84-.955-2.45-1.4-2.042-1.491-3.53-3.27-4.39-5.244a8.801 8.801 0 0 1-.478-1.404 1.53 1.53 0 0 0-.063-.224c-.033-.053-.11-.504-.139-.806a8.933 8.933 0 0 0-.06-.496c-.043-.26-.043-1.104 0-1.365.018-.11.045-.341.06-.512.039-.446.1-.758.268-1.38.052-.189.248-.787.29-.883l.126-.295c.897-2.114 2.529-3.922 4.68-5.185.225-.132 1.07-.56 1.258-.636l.324-.135a6.92 6.92 0 0 1 .357-.138l.34-.116c.523-.18.878-.277 1.505-.413.393-.085.456-.095 1.233-.202.47-.064 1.487-.092 2.178-.06.384.02.782.046.884.06l.45.063c.864.12 2.036.426 2.744.717.108.045.462.187.559.225.168.066 1.019.496 1.249.632 1.16.684 2.153 1.501 2.952 2.428.815.946 1.474 2.034 1.862 3.074.328.88.504 1.6.558 2.275.014.171.04.401.058.512.044.26.044 1.072 0 1.334-.017.11-.045.34-.06.511-.051.573-.178 1.118-.433 1.861a8.9 8.9 0 0 1-.575 1.334c-1.392 2.74-4.012 5.023-7.054 6.145-.437.161-.963.322-1.287.392l-.45.102c-.715.166-1.782.227-2.93.167zm1.902-1.647a.579.579 0 0 1 .17-.027c.119 0 .632-.089.72-.125a.866.866 0 0 1 .154-.041c.188-.031.405-.085.457-.114a.324.324 0 0 1 .132-.03c.043 0 .078-.014.078-.031s.024-.031.053-.031c.047 0 .206-.05.397-.124.633-.246.734-.29 1.177-.515.475-.24.648-.333.668-.357.009-.01.078-.053.155-.096.286-.161.34-.196.34-.218 0-.013.022-.024.047-.024.026 0 .047-.013.047-.028 0-.016.024-.037.054-.047.03-.01.103-.06.163-.11a.62.62 0 0 1 .127-.094c.01 0 .05-.026.086-.058.037-.032.116-.092.175-.132.06-.04.108-.084.108-.097 0-.012.016-.023.035-.023.02 0 .058-.024.086-.054.027-.03.12-.11.205-.178.159-.126 1.225-1.181 1.225-1.213 0-.01.017-.034.039-.056.02-.021.08-.092.131-.158.052-.066.13-.162.174-.215.13-.154.4-.542.4-.576 0-.017.014-.03.031-.03s.031-.022.031-.047c0-.026.013-.047.03-.047.015 0 .036-.025.046-.056a.388.388 0 0 1 .073-.117.658.658 0 0 0 .097-.163.604.604 0 0 1 .077-.14c.018-.02.076-.12.127-.222a.954.954 0 0 1 .116-.196c.013-.006.023-.037.023-.07 0-.033.014-.06.031-.06a.03.03 0 0 0 .031-.03 1.1 1.1 0 0 1 .074-.193c.041-.09.113-.262.16-.381l.109-.28a4.76 4.76 0 0 0 .077-.232 2.18 2.18 0 0 1 .08-.224.307.307 0 0 0 .028-.117c0-.034.012-.087.027-.117.042-.083.128-.476.128-.582 0-.052.013-.108.028-.124.03-.031.036-.086.094-.825.044-.57.002-1.26-.12-1.965-.051-.292-.11-.536-.134-.56-.013-.013-.023-.068-.023-.122 0-.054-.01-.107-.02-.118a1.593 1.593 0 0 1-.134-.401c0-.03-.015-.055-.032-.055s-.031-.026-.031-.06a.712.712 0 0 0-.058-.193 20.432 20.432 0 0 0-.255-.57.684.684 0 0 1-.06-.163c0-.02-.012-.037-.027-.037s-.035-.024-.044-.054a1.944 1.944 0 0 0-.177-.318.81.81 0 0 1-.064-.109 1.686 1.686 0 0 0-.155-.263.871.871 0 0 1-.077-.117c-.032-.055-.07-.1-.083-.1-.013 0-.024-.018-.024-.04 0-.021-.035-.076-.077-.122a.397.397 0 0 1-.078-.103c0-.01-.017-.037-.039-.06a1.587 1.587 0 0 1-.1-.127 1.792 1.792 0 0 0-.093-.12 11.376 11.376 0 0 0-1.398-1.398 1.751 1.751 0 0 0-.12-.093 1.597 1.597 0 0 1-.127-.1c-.023-.022-.05-.04-.06-.04a.397.397 0 0 1-.103-.077c-.046-.042-.101-.077-.123-.077-.021 0-.039-.012-.039-.026 0-.015-.048-.053-.108-.085-.06-.032-.109-.07-.109-.082 0-.014-.02-.024-.044-.024-.024 0-.048-.01-.054-.024a1.08 1.08 0 0 0-.304-.194.031.031 0 0 1-.032-.03c0-.018-.02-.032-.044-.032a.148.148 0 0 1-.085-.038 2.23 2.23 0 0 0-.29-.163 1.553 1.553 0 0 1-.258-.147c-.006-.013-.028-.024-.05-.024a.697.697 0 0 1-.175-.07 5.43 5.43 0 0 0-.354-.16 3.008 3.008 0 0 1-.248-.111 1.644 1.644 0 0 0-.224-.08c-.107-.033-.194-.07-.194-.083 0-.012-.028-.023-.061-.023a.444.444 0 0 1-.132-.028 4.494 4.494 0 0 0-.257-.082 4.378 4.378 0 0 1-.248-.078 1.05 1.05 0 0 0-.14-.04c-.042-.01-.224-.047-.403-.084a4.286 4.286 0 0 1-.388-.094 1.057 1.057 0 0 0-.217-.04 22.48 22.48 0 0 1-.558-.071c-.574-.079-2.124-.079-2.698 0-.222.03-.473.062-.558.07a1.024 1.024 0 0 0-.217.041 4.285 4.285 0 0 1-.388.094l-.403.083a1.068 1.068 0 0 0-.14.041 4.375 4.375 0 0 1-.248.078c-.102.03-.218.067-.257.082a.44.44 0 0 1-.132.028c-.033 0-.06.01-.06.023s-.087.05-.192.083a3.042 3.042 0 0 0-.34.132 1.4 1.4 0 0 1-.166.072c-.009 0-.121.049-.25.109-.13.06-.247.108-.261.108a.042.042 0 0 0-.037.024 1.57 1.57 0 0 1-.258.147 2.23 2.23 0 0 0-.29.162.148.148 0 0 1-.085.04c-.024 0-.044.013-.044.03a.031.031 0 0 1-.032.031c-.037 0-.29.16-.304.194-.006.013-.03.024-.054.024-.025 0-.044.01-.044.024 0 .013-.05.05-.109.082-.06.032-.108.07-.108.085 0 .014-.018.026-.04.026-.021 0-.076.035-.122.077a.397.397 0 0 1-.103.078c-.01 0-.037.017-.06.038a1.589 1.589 0 0 1-.124.1 2.74 2.74 0 0 0-.14.108l-.22.188c-.23.194-.856.822-1.006 1.008-.068.085-.138.17-.155.188a1.742 1.742 0 0 0-.093.12 1.6 1.6 0 0 1-.1.127c-.022.023-.04.05-.04.06 0 .01-.034.057-.077.103-.042.046-.077.1-.077.122 0 .022-.012.04-.026.04-.015 0-.053.048-.085.108-.032.06-.07.109-.082.109-.013 0-.024.02-.024.046s-.011.047-.024.047c-.014 0-.052.062-.086.139-.033.076-.071.14-.084.14-.013 0-.023.02-.023.046s-.011.047-.024.047c-.013 0-.05.063-.084.14-.034.076-.072.139-.086.139-.013 0-.024.017-.024.038a.882.882 0 0 1-.074.194c-.178.371-.298.666-.298.732 0 .032-.014.06-.03.06-.018 0-.032.023-.032.052 0 .049-.059.236-.125.397a.952.952 0 0 0-.041.14 12.62 12.62 0 0 1-.066.279c-.027.11-.057.264-.066.34a.94.94 0 0 1-.044.202c-.03.07-.042.185-.092.895-.038.553.012 1.425.103 1.772.009.034.04.18.07.326.03.145.066.277.08.293.015.016.026.075.026.132 0 .056.014.102.031.102s.031.024.031.053c0 .048.054.219.124.397l.065.17c.048.131.256.593.334.745.16.307.239.45.256.465.01.009.029.047.041.085.012.038.032.07.045.07.013 0 .042.049.066.108.023.06.05.109.06.109.01 0 .045.049.077.108.032.06.07.109.085.109.014 0 .026.014.026.032 0 .03.024.066.116.168.021.024.039.052.039.063 0 .018.032.06.116.154.021.024.039.052.039.062 0 .01.042.061.093.115a.429.429 0 0 1 .093.123c0 .013.056.08.124.148.068.067.124.13.124.14 0 .047.826.885 1.11 1.126.084.073.199.174.254.225.055.052.11.094.12.094.011 0 .069.043.129.095.156.137.74.556.772.556.016 0 .033.012.04.026.013.034.358.253.398.253a.03.03 0 0 1 .03.03c0 .017.035.04.078.05.042.011.077.032.077.048 0 .015.02.027.047.027.025 0 .046.01.046.024 0 .013.063.052.14.086.076.033.139.071.139.084 0 .013.021.023.047.023s.103.035.17.078a.52.52 0 0 0 .17.077c.026 0 .047.014.047.031s.014.031.031.031c.018 0 .104.035.192.078a.901.901 0 0 0 .202.077c.022 0 .04.014.04.031s.02.031.046.031c.025 0 .098.023.163.051.064.028.145.061.18.074a5.033 5.033 0 0 0 .372.139c.085.028.182.063.216.076.034.014.118.04.186.058.069.018.197.055.285.081.089.027.196.049.239.049.043 0 .086.014.097.03.01.018.065.032.12.032.057 0 .143.013.193.03.128.043.532.098.912.125.396.028 1.631.003 1.73-.035zm-7.096-5.889a2.19 2.19 0 0 0-.302-.028 1.932 1.932 0 0 1-.583-.115.797.797 0 0 0-.178-.042c-.03 0-.054-.014-.054-.031s-.022-.031-.05-.031c-.028 0-.157-.072-.287-.16a1.358 1.358 0 0 1-.402-.392 2.929 2.929 0 0 1-.201-.314.419.419 0 0 0-.053-.096c-.025-.02-.169-.386-.22-.558-.053-.174-.057-1.028-.006-1.163.02-.051.061-.18.093-.286.03-.107.067-.194.08-.194.013 0 .023-.022.023-.049a.78.78 0 0 1 .109-.217c.06-.094.108-.176.108-.185 0-.02.119-.158.236-.275.211-.213.327-.3.558-.42l.243-.126h1.227v1.427h-.402c-.351 0-.417.008-.52.065-.147.082-.195.133-.304.324-.082.143-.087.177-.09.523-.002.27.008.373.037.382.021.007.039.027.039.044 0 .037.041.079.189.19l.111.084h.722c.678 0 .728-.004.839-.066.204-.115.2-.083.21-1.6l.009-1.373H8.56l-.009 1.75c-.007 1.35-.017 1.76-.047 1.79a.146.146 0 0 0-.039.089c0 .047-.111.287-.194.417-.12.188-.474.45-.607.45a.142.142 0 0 0-.084.029c-.04.036-.44.094-.885.127-.198.014-.407.033-.465.041a.96.96 0 0 1-.246-.01zm4.399-.27a1.126 1.126 0 0 0-.158-.142 4.034 4.034 0 0 1-.186-.156 4.04 4.04 0 0 0-.194-.162 9.607 9.607 0 0 1-.399-.33.516.516 0 0 0-.117-.086c-.011 0-.029-.023-.04-.05-.016-.044.105-.216.308-.434.034-.037.106-.12.16-.187.053-.066.123-.15.154-.187a6.85 6.85 0 0 0 .14-.17 6.54 6.54 0 0 1 .32-.381c.035-.036.104-.12.154-.189.05-.068.12-.152.155-.186a2 2 0 0 0 .156-.186c.129-.172.175-.228.269-.327.045-.048.122-.14.17-.205a3.1 3.1 0 0 1 .151-.184c.034-.035.118-.135.186-.221.068-.087.183-.197.255-.246a.607.607 0 0 0 .132-.105.55.55 0 0 1 .156-.076c.085-.034.155-.072.155-.085 0-.013.041-.024.091-.024.05 0 .099-.012.108-.026.025-.042.528-.104.871-.11.17-.001.544.009.83.024.403.022.519.037.519.07 0 .023.014.042.031.042s.031.016.031.037c0 .02.05.142.112.27l.184.39c.211.465.266.575.29.575.03 0 .172-.155.299-.326.05-.068.124-.159.162-.202.04-.042.123-.142.186-.22.12-.15.487-.418.616-.45.04-.01.074-.031.074-.046s.04-.028.09-.028c.051 0 .1-.012.108-.026.027-.044.544-.105.89-.107.177 0 .815.01 1.416.024l1.093.024v1.419h-2.915l-.12.123c-.066.068-.16.177-.208.24a2.446 2.446 0 0 1-.122.152 7.51 7.51 0 0 0-.172.197 49.791 49.791 0 0 1-.381.447 6.71 6.71 0 0 1-.168.191c-.021.022-.039.05-.039.06a.49.49 0 0 1-.101.119 2.099 2.099 0 0 0-.192.223c-.05.068-.136.17-.193.226a.62.62 0 0 0-.103.118c0 .01-.017.035-.039.057a6.813 6.813 0 0 0-.167.192c-.07.083-.159.186-.196.228-.166.193-.187.22-.187.237 0 .035-.2.194-.216.172a2.235 2.235 0 0 0-.163-.139 4.243 4.243 0 0 1-.186-.156 2.343 2.343 0 0 0-.164-.13 2.12 2.12 0 0 1-.22-.193c-.054-.055-.113-.1-.132-.1-.02 0-.035-.011-.036-.024 0-.013-.041-.051-.092-.085-.134-.09-.138-.133-.024-.263.055-.064.157-.183.225-.265.195-.235.308-.369.341-.406.017-.019.073-.088.124-.154a6.84 6.84 0 0 1 .341-.404 1.86 1.86 0 0 0 .124-.153c.034-.048.097-.123.14-.167a2.13 2.13 0 0 0 .162-.193c.071-.095.077-.116.036-.132-.026-.01-.551-.019-1.166-.019h-1.118l-.097.103a3.81 3.81 0 0 0-.19.222 3.397 3.397 0 0 1-.17.201c-.043.045-.12.137-.17.205a2.31 2.31 0 0 1-.158.188c-.036.037-.12.134-.186.217a2.605 2.605 0 0 1-.176.202c-.03.027-.054.059-.054.07a.518.518 0 0 1-.102.12 2.238 2.238 0 0 0-.194.225c-.05.068-.136.168-.192.222a.558.558 0 0 0-.102.116c0 .017-.021.044-.187.235a40.9 40.9 0 0 0-.196.23c-.07.082-.146.169-.167.19-.021.023-.039.049-.039.059 0 .045-.207.215-.222.182zm7.563-.032c-.028-.052.017-.509.05-.519.113-.033.51-.179.555-.204a.277.277 0 0 1 .11-.029.15.15 0 0 0 .086-.026c.036-.033.333-.129.4-.129.026 0 .048-.012.048-.027s.038-.035.085-.044c.047-.009.117-.026.155-.038.068-.021.07-.017.07.222v.244l-.1.041a9.956 9.956 0 0 1-.226.089c-.068.026-.148.06-.178.075a.3.3 0 0 1-.116.028c-.034 0-.062.014-.062.03 0 .018-.018.032-.038.032-.021 0-.136.036-.256.08-.213.078-.251.092-.429.164-.101.04-.137.043-.154.011zm.55-1.248a.48.48 0 0 0-.146-.029c-.047 0-.086-.016-.086-.033s-.015-.03-.034-.03c-.058 0-.261-.226-.308-.342a.898.898 0 0 1 .012-.568c.106-.223.41-.424.643-.424.24 0 .552.208.658.439.098.21.048.549-.11.74a.778.778 0 0 1-.374.23 1.94 1.94 0 0 0-.156.032.182.182 0 0 1-.098-.015zM9.21 10.972v-2.17h1.364v1.437c0 1.34-.004 1.441-.055 1.501-.048.055-.422.472-.519.578-.017.019-.108.124-.201.234-.094.11-.244.277-.333.371-.09.095-.163.183-.163.196 0 .013-.021.024-.047.024-.04 0-.046-.262-.046-2.17zm-3.455-.585c-.01-.015-.056-.035-.103-.045-.095-.019-.271-.172-.365-.316-.049-.075-.06-.144-.058-.355.002-.166.016-.267.038-.274a.055.055 0 0 0 .035-.05c0-.054.21-.267.264-.267.026 0 .047-.014.047-.03 0-.018.035-.032.077-.032a.306.306 0 0 0 .137-.036c.06-.037.154-.02.412.074.182.067.397.415.397.643 0 .213-.162.493-.344.594-.194.108-.496.16-.537.094z"/></svg>