<svg role="img" viewBox="0 0 24 24" xmlns="http://www.w3.org/2000/svg"><path d="M.51 22.661 0 22.233V1.767l.51-.428C.977.945 1.142.91 2.565.91h1.548l.061 7.49c.06 7.283.072 7.522.442 8.648.847 2.58 2.46 4.67 4.318 5.595l.896.447H1.019zm15.628-.017c2.087-1.085 3.934-3.723 4.463-6.375.32-1.605.32-2.462 0-4.07-.594-2.989-2.362-5.406-4.823-6.592-1.126-.542-1.487-.633-2.757-.695-1.057-.051-1.756.009-2.524.217l-1.062.287v4.991l.455-.436c.66-.633 1.55-.95 2.664-.95 1.237 0 2.017.326 2.892 1.208 1.042 1.052 1.488 2.096 1.567 3.673.084 1.65-.346 2.932-1.346 4.017-1.391 1.509-3.147 1.922-4.832 1.138-1.394-.65-2.608-2.349-2.734-3.83-.016-.181-.02-3.477-.01-7.324L8.111.91h15.013l.438.406.438.406v20.556l-.438.406-.438.406-3.907-.008-3.907-.008.828-.43z"/></svg>