<svg viewBox="0 0 24 24" xmlns="http://www.w3.org/2000/svg" role="img"><path d="m10.732 23.133-1.293-.862-1.702-.033c-.936-.018-1.72-.044-1.742-.058-.022-.014-.149-.226-.282-.473-.508-.937-1.119-1.991-1.22-2.103-.056-.064-.29-.225-.517-.358-.227-.133-.72-.432-1.096-.666a15.464 15.464 0 0 0-.704-.424c-.012 0-.151-.083-.31-.184l-.287-.184.023-1.624.023-1.624-.148-.275a39.345 39.345 0 0 0-.497-.872C.388 12.381.1 11.863.1 11.807c0-.075.328-.602 1.372-2.21.322-.496.295-.27.276-2.353-.007-.712 0-1.317.018-1.344.026-.043.524-.335 1.181-.695a99.362 99.362 0 0 0 1.231-.68 9.93 9.93 0 0 1 .314-.172c.06-.03.253-.301.43-.602.176-.3.372-.627.434-.726a34.5 34.5 0 0 0 .492-.835l.378-.655 1.687.006 1.686.006.52-.321c.287-.177.66-.408.83-.516.81-.513 1.148-.71 1.216-.71.04 0 .187.074.326.163.4.26.728.467 1.279.812.282.176.629.396.77.489l.259.168 1.64.036c.901.02 1.646.043 1.655.051.01.008.38.623.824 1.366l.808 1.352.484.287a350.999 350.999 0 0 0 2.035 1.197l.218.129v1.63l.002 1.63.211.384c.668 1.215 1.223 2.279 1.223 2.343 0 .068-.437.884-1.162 2.169l-.274.485-.006 1.464a51.624 51.624 0 0 1-.018 1.514 1.518 1.518 0 0 0-.02.188c-.007.14-.095.201-.935.659-.13.07-.596.333-1.036.585l-.8.456-.423.749c-.384.682-.855 1.505-1.065 1.864l-.082.14h-1.71l-1.71.001-.264.171-.548.351c-.155.1-.622.403-1.037.676a20.13 20.13 0 0 1-.77.491c-.007-.002-.595-.392-1.307-.866zm2.807-1.184c.324-.05.696-.116.826-.146a15.76 15.76 0 0 0 1.496-.486l.466-.207c.888-.393 2.028-1.198 2.833-2.001 1.514-1.512 2.47-3.36 2.818-5.443.117-.7.138-2.095.044-2.87-.252-2.068-1.128-3.976-2.567-5.595-.344-.387-1.072-1.04-1.454-1.305-1.38-.956-2.292-1.38-3.744-1.745-.851-.214-2.6-.29-3.616-.156-1.912.25-3.75 1.08-5.306 2.398C4.108 5.43 3.034 6.955 2.484 8.437c-.44 1.186-.606 2.139-.61 3.513-.004 1.1.053 1.605.281 2.488.276 1.063.59 1.813 1.141 2.718.48.79.67 1.035 1.402 1.813 1.469 1.562 3.65 2.67 5.907 3.003.705.104 2.189.092 2.934-.023zm-1.416-.451c.015-.024.18-.133.368-.243.505-.296 1.356-.997 1.734-1.43 1.571-1.802 1.968-3.862 1.492-7.747-.367-3-.398-3.364-.386-4.524.009-.853.1-1.524.282-2.08.135-.412.38-.935.548-1.174a.612.612 0 0 0 .096-.174c0-.096-1.379.144-1.973.343-.732.246-1.355.658-1.736 1.148-.247.316-.565.975-.67 1.383-.1.397-.237 1.314-.237 1.6 0 .121-.023.221-.052.221-.028 0-.184-.09-.346-.199-.735-.497-1.236-.646-2.171-.647-.495 0-.721.02-.778.066-.218.181-.246 1.679-.043 2.32.118.376.445.952.705 1.243.276.31.245.346-.292.346-1.219 0-2.05.403-2.41 1.168-.214.456-.08 1.015.367 1.524.28.32.972.718 1.57.905.177.055.321.116.321.137 0 .02-.122.199-.271.397-.59.783-.735 1.46-.452 2.101.132.298.525.666.908.849.34.162 1.045.336 1.17.288.037-.014.084-.138.103-.274.083-.589.354-1.055.695-1.196.267-.11.916-.045 1.2.12.477.28.672.622.639 1.118-.03.425-.145.654-.553 1.088-.268.285-.42.397-.756.555-.547.258-.883.317-1.58.28-.632-.033-1.468-.24-1.922-.478a.697.697 0 0 0-.164-.068c-.051 0-.764-.428-1.077-.645-.734-.512-1.633-1.368-2.16-2.057-.715-.935-1.392-2.322-1.66-3.401-.228-.912-.27-1.336-.253-2.488.025-1.712.275-2.779.974-4.172.482-.959.964-1.614 1.797-2.445 1.561-1.555 3.32-2.43 5.571-2.768.504-.076 1.564-.105 2.1-.057a9.816 9.816 0 0 1 5 1.945c.623.476 1.614 1.478 1.943 1.964.567.838.795 1.25 1.159 2.097.506 1.178.788 3.013.665 4.322-.222 2.344-1.084 4.239-2.688 5.904-1.419 1.472-3.31 2.444-5.451 2.8-.508.084-1.37.107-1.326.035zm.816-2.195c-.041-.017-.052-.104-.033-.268.034-.286-.057-.775-.196-1.048-.247-.486-.775-.79-1.464-.843-.397-.03-.68.025-1.118.219-.39.172-.574.38-.764.857-.093.233-.202.247-.51.066-.552-.323-.708-.712-.515-1.279.164-.48.856-1.027 1.47-1.162.237-.052.38-.053.705-.003.867.132 1.44.42 2.054 1.03.486.485.697.843.748 1.273.034.288-.052.823-.168 1.049-.074.142-.097.154-.21.108zm.688-1.361c-.264-1.082-.645-1.643-1.394-2.056-.795-.437-1.65-.655-3.283-.834-.834-.091-1.072-.174-1.515-.53-.498-.4-.667-.748-.558-1.155.057-.216.44-.662.67-.78.593-.307 2.549.337 3.775 1.244.524.387 1.422 1.297 1.763 1.786.575.823.762 1.371.76 2.23 0 .297-.018.568-.04.602-.022.036-.097-.179-.178-.507zm.663-.44a3.183 3.183 0 0 1-.08-.439c-.106-.761-.515-1.574-1.266-2.515-.51-.641-.944-1.083-1.97-2.007-1.103-.994-1.442-1.355-1.852-1.972-.404-.609-.507-.896-.507-1.41 0-.943.538-.983 1.765-.131 1.877 1.303 3.166 3.262 3.799 5.774.191.762.329 2.062.263 2.495-.035.224-.092.302-.152.204zm.613-1.36c-.013-.063-.052-.3-.086-.525-.057-.369-.206-.945-.5-1.929a13.897 13.897 0 0 0-.386-1.026c-.868-2.091-1.357-3.64-1.446-4.587-.08-.837.433-1.892 1.243-2.56.444-.367 1.178-.751 1.242-.65.055.088.025.211-.151.605a3.594 3.594 0 0 0-.208.692c-.1.56-.084 2.244.026 2.916.176 1.068.26 1.724.397 3.128.071.727.09 3.438.027 3.809-.044.258-.12.32-.158.128z"/></svg>