<svg role="img" viewBox="0 0 24 24" xmlns="http://www.w3.org/2000/svg"><path d="M7.809 18.544c-3.56-.058-3.64-.062-4.21-.209-1.702-.439-2.764-1.89-2.843-3.885-.012-.32-.014-.328-.055-.319-.114.027-.65.131-.674.131-.022 0-.027-.224-.027-1.294v-1.294l.653-.125c.36-.07.689-.136.732-.15.072-.021.092-.047.274-.347a29.577 29.577 0 0 0 1.992-3.92c.146-.349.478-1.226.572-1.514a1.31 1.31 0 0 1 .061-.167c.004 0 .04.107.081.238.379 1.204 1.049 2.575 1.839 3.762.359.538.61.881.647.881.02 0 .388-.072.819-.161a70 70 0 0 1 .79-.162c.004 0 .007.587.007 1.305 0 1.226-.002 1.306-.035 1.315-.02.005-.157.03-.306.057-.268.046-.27.047-.259.098l.042.192c.016.078.036.203.043.279.008.08.023.136.037.136.012 0 .269-.017.57-.04a71.139 71.139 0 0 1 5.56-.203c2.852 0 5.052.141 7.424.478.818.116 2.26.368 2.293.4.015.016.084.476.117.783.046.422.061 1.216.032 1.641-.035.51-.109 1.048-.151 1.103-.048.06-.701.245-1.29.364-1.546.312-3.6.484-7.22.602-.594.02-6.637.04-7.515.025zm7.383-.086c4.398-.133 6.982-.4 8.377-.87l.222-.074.034-.203c.08-.475.107-.857.106-1.479 0-.617-.015-.842-.092-1.413-.033-.242-.051-.325-.076-.338a6.313 6.313 0 0 0-.468-.1c-2.256-.429-4.636-.67-7.427-.754-.882-.026-3.515-.013-4.311.021-1.363.06-3.305.174-3.588.212l-.063.01-.013-.166a3.303 3.303 0 0 0-.063-.387 1.303 1.303 0 0 1-.041-.23c.005-.005.144-.034.308-.064l.3-.054.005-1.24c.003-.681 0-1.239-.004-1.239l-.755.152-.797.163c-.046.009-.072-.02-.286-.32-.972-1.364-1.676-2.695-2.153-4.072l-.125-.36-.128.36c-.573 1.611-1.407 3.35-2.405 5.014-.183.304-.264.423-.297.43a67.65 67.65 0 0 1-.672.132c-.345.067-.649.126-.674.132l-.045.01v1.226c0 1.153.002 1.225.035 1.224.02 0 .186-.031.37-.068l.334-.068.014.333c.052 1.198.393 2.125 1.058 2.868.562.63 1.449 1.051 2.412 1.147.243.025 1.548.06 3.08.083 1.448.021 6.927.009 7.829-.018zm-7.626-.39c-.735-.009-1.523-.022-1.75-.03l-.412-.012.2-.105a3.74 3.74 0 0 0 .926-.677c.656-.642 1.097-1.462 1.309-2.435a5.05 5.05 0 0 0 .102-.822v-.145l.126-.013c.455-.046 2.203-.136 3.408-.177.91-.03 3.426-.03 4.305 0 2.796.096 5.099.31 7.201.667l.446.075.025.101c.076.305.096.546.095 1.115 0 .559-.03.93-.117 1.502l-.024.158-.11.025c-1.997.453-4.692.693-8.731.776-1.104.023-5.027.021-7-.003zm11.68-.606c.272-.203.513-.485.567-.666l.025-.083.7-.002c.386 0 .956-.008 1.268-.015l.567-.013.112-.057a.77.77 0 0 0 .337-.335l.058-.114.006-.704.006-.704h-.689l-.006.582c-.006.578-.006.583-.055.65-.09.126-.076.125-1.237.125h-1.054v-1.361l-.592.009c-.508.008-.624.015-.811.053-1.114.228-1.593.819-1.08 1.331.305.304.881.5 1.6.543a.88.88 0 0 1 .168.02c.03.03-.137.24-.266.33l-.059.042.158.226c.087.124.16.225.162.225.002 0 .054-.037.114-.082zm-.313-1.094c-.672-.078-1.067-.308-1.067-.62 0-.125.04-.206.151-.308.188-.172.518-.283 1.06-.356l.086-.012v1.318l-.046-.003a4.345 4.345 0 0 1-.184-.018zm2.367 1.065c.204-.119.15-.35-.096-.417a.337.337 0 0 0-.34.08c-.092.088-.104.157-.043.257.082.134.32.174.48.08zm-9.787-.323c.574-.11.88-.367.976-.819.022-.1.029-.306.03-.808v-.674h-.685l-.008.593c-.008.562-.01.598-.056.712-.083.211-.248.337-.544.413-.113.029-.233.035-.733.035-.564 0-.607-.003-.76-.047-.269-.078-.411-.186-.5-.379-.044-.097-.047-.129-.057-.709l-.01-.607h-.689l.001.688c.001.751.01.82.125 1.056.07.143.26.322.434.407.148.074.408.141.642.167.086.01.493.015.905.012.604-.004.784-.012.929-.04zm4.764-.378a.71.71 0 0 0 .52-.399l.067-.135.006-.694.006-.695h-.689l-.006.583c-.006.572-.007.583-.053.648-.1.141-.06.137-1.22.137-1.01 0-1.045-.001-1.113-.041a.34.34 0 0 1-.117-.131c-.045-.09-.045-.1-.045-.926v-.837h-.689v.927c0 .964.006 1.035.09 1.198a.795.795 0 0 0 .5.365c.135.027 2.599.026 2.743 0zM10.68 14.68c.104-.044.166-.124.166-.215 0-.139-.14-.243-.325-.243-.163 0-.313.116-.313.243 0 .176.272.3.472.215zm4.02-.012c.16-.072.206-.227.101-.341-.179-.195-.582-.1-.582.138 0 .19.265.302.48.203zm.747.001c.104-.047.15-.11.15-.206 0-.244-.424-.334-.588-.124a.231.231 0 0 0-.007.245c.044.063.18.123.28.123a.476.476 0 0 0 .165-.038zM3.87 17.926c-1.264-.235-2.126-1.107-2.492-2.524a6.22 6.22 0 0 1-.187-1.383l-.005-.212.223-.045c.681-.138 1.494-.291 1.502-.283.005.005-.023.112-.061.239a3.564 3.564 0 0 0-.177 1.13c0 .445.062.723.227 1.035.045.084.122.198.172.253l.09.101-.016-.121c-.03-.23-.018-.756.022-.94.14-.66.527-1.332.996-1.733l.114-.098.101.1c.466.453.845 1.11.982 1.699.05.214.052.764.002.962l-.032.131.08-.09c.112-.129.271-.461.33-.693.178-.692.08-1.549-.255-2.241a1.035 1.035 0 0 1-.09-.22c.011-.011.077-.025 1.137-.23.402-.078.746-.141.766-.141.042 0 .061.045.127.306.184.726.14 1.569-.123 2.327a5.599 5.599 0 0 1-.408.869c-.478.79-1.247 1.433-2.045 1.71-.224.077-.473.143-.487.129a.787.787 0 0 1 .075-.177c.294-.587.364-1.328.178-1.903-.076-.235-.286-.616-.33-.601-.039.012-.174.272-.256.489-.26.692-.23 1.39.085 1.994.054.104.099.193.099.197 0 .016-.144.001-.344-.036zM.511 12.92l.005-.774.314-.065c.482-.099.616-.086.71.067.084.135.046.396-.07.493-.03.024-.027.03.027.064.175.106.183.431.017.648-.109.14-.236.197-.62.274-.185.037-.349.067-.363.068-.02 0-.024-.161-.02-.775zm.492.389c.25-.048.334-.118.334-.279 0-.133-.089-.161-.347-.111l-.19.037-.006.198c-.006.197-.006.198.04.188l.169-.033zm.024-.669c.21-.039.308-.13.277-.254-.02-.082-.088-.1-.267-.07-.27.044-.247.024-.247.208v.162l.056-.011.18-.035zm1.191.7a.931.931 0 0 0-.074-.018c-.076-.016-.173-.103-.226-.202-.042-.08-.045-.11-.05-.663l-.007-.58.13-.023c.071-.012.14-.022.152-.022.017 0 .025.167.03.579l.005.579.06.05c.05.045.072.05.151.04.112-.016.182-.063.23-.156.03-.061.035-.136.035-.631v-.562l.046-.01c.132-.03.23-.05.244-.051.01 0 .014.27.01.602l-.006.603-.06.118a.603.603 0 0 1-.466.336c-.12.022-.165.024-.203.012zm1.286-.86c0-.346-.004-.628-.009-.628-.01 0-.281.055-.351.071-.046.01-.047.008-.04-.136l.005-.147.476-.094.553-.108.077-.014-.006.147-.006.147-.121.024-.198.037-.076.014v1.267l-.129.024a1.84 1.84 0 0 1-.152.024c-.016 0-.023-.173-.023-.628zm.637.46.241-.815.23-.77.09-.022c.048-.012.122-.028.164-.036l.075-.014.234.713c.13.393.232.723.228.734-.007.022-.274.079-.298.064a.573.573 0 0 1-.05-.141c-.02-.073-.046-.133-.059-.133-.04 0-.438.079-.457.09-.01.006-.023.036-.03.067l-.044.159-.03.103-.128.024c-.176.032-.181.031-.166-.022zm.667-.665c.12-.025.127-.035.095-.131l-.074-.241-.055-.183-.077.274a5.83 5.83 0 0 0-.078.288c0 .022.055.02.189-.008zm.763-.342v-.769l.045-.01c.233-.053.247-.054.271-.02.014.017.132.228.264.467l.24.435.005-.516c.006-.582-.013-.525.182-.55l.106-.013v1.54l-.116.023c-.064.013-.13.027-.148.032-.024.007-.1-.111-.294-.459l-.262-.468-.005.517-.005.517-.102.022c-.201.043-.181.126-.181-.748zm1.382-.268.005-.775.425-.084c.234-.046.455-.09.491-.095l.066-.011v.311l-.309.058c-.17.032-.33.062-.354.068-.042.01-.046.021-.046.16 0 .106.007.15.026.15.013 0 .16-.026.325-.058l.3-.058-.007.143-.006.144-.319.06-.319.06v.188a.86.86 0 0 0 .01.19c.013 0 .621-.117.695-.133.045-.01.046-.007.04.127l-.006.137-.476.095c-.261.052-.492.096-.511.096-.034.001-.036-.045-.03-.773zm-5.11-.086c0-.005.058-.1.129-.208a24.433 24.433 0 0 0 2.091-4.006c.105-.256.2-.484.21-.506l.017-.04.016.04c.16.418.582 1.307.839 1.772.356.644.85 1.378 1.26 1.876a.984.984 0 0 1 .118.162c0 .014-1.916.398-1.97.394-.014-.001-.188-.532-.24-.73-.028-.11-.012-.145-.19.405a6.005 6.005 0 0 1-.151.43c-.014.015-2.044.42-2.103.42-.014 0-.026-.004-.026-.01z"/></svg>