<svg viewBox="0 0 24 24" xmlns="http://www.w3.org/2000/svg" role="img"><path d="M4.45 3.002c-.157.004-.344-.013-.451.128-1.274 1.272-2.54 2.552-3.82 3.816-.085.086-.193.177-.174.314-.002 2.969.002 5.937-.002 8.907.005.28-.02.565.022.845.267.315.585.583.867.885 1.044 1.018 2.042 2.087 3.112 3.077 1.067.042 2.14.016 3.21.011-1.491-1.548-3.035-3.047-4.55-4.572-.164-.19-.455-.337-.405-.63-.003-2.455.003-4.912-.003-7.367.004-.15-.016-.329.124-.427 1.664-1.656 3.318-3.322 4.984-4.977-.97-.007-1.942-.007-2.913-.01zm10.913.002c-.086 0-.174.007-.255.001-2.216.014-4.432-.023-6.648.02-1.665 1.726-3.385 3.4-5.077 5.1-.149.177-.423.317-.395.583-.002 2.327.001 4.654-.002 6.982-.021.164.061.31.178.419 1.455 1.447 2.903 2.902 4.357 4.352.18.171.33.381.541.518.538.033 1.08.01 1.62.013.131.016.21-.103.294-.179.676-.7 1.376-1.38 2.036-2.097-.996-.022-1.996.03-2.989-.024-1.213-1.182-2.395-2.396-3.602-3.585-.157-.112-.138-.315-.14-.485.007-1.648 0-3.297.003-4.945-.03-.176.093-.304.205-.42 1.26-1.253 2.517-2.511 3.773-3.77.098-.074.184-.206.323-.193h4.847c.172-.03.298.09.413.2 1.176 1.177 2.35 2.356 3.531 3.528.203.212.505.416.44.75-.02 1.738.038 3.48-.028 5.214a272.905 272.905 0 0 1-3.702 3.701c-.996.067-2.001.002-3 .03.636.712 1.341 1.359 1.997 2.052.1.093.187.239.346.22.537 0 1.077.03 1.613-.017.256-.19.458-.444.687-.664 1.324-1.321 2.642-2.65 3.97-3.966.176-.19.448-.356.412-.652.012-2.262.002-4.526.005-6.79-.015-.161.032-.361-.108-.482-1.756-1.756-3.513-3.511-5.266-5.27-.095-.126-.235-.145-.379-.144zm4.201 0c-.963.005-1.925-.007-2.888.01 1.65 1.693 3.343 3.344 5.004 5.025.099.097.055.254.073.377-.005 2.537.005 5.074-.005 7.61-1.66 1.64-3.324 3.28-4.945 4.957 1.074.025 2.15.002 3.226.011 1.27-1.278 2.545-2.55 3.821-3.82.092-.087.165-.196.147-.329.003-3.164-.003-6.328.002-9.492.001-.13.001-.275-.115-.358-1.297-1.28-2.578-2.577-3.869-3.863-.107-.143-.293-.126-.45-.128zM12.02 6.306c-.093.067-.173.149-.254.229-1.965 1.983-3.958 3.941-5.917 5.932.876.829 1.71 1.701 2.568 2.548 1.203 1.212 2.426 2.405 3.617 3.63 2.09-2.038 4.122-4.134 6.208-6.176-.376-.435-.806-.82-1.206-1.234l-4.744-4.744c-.084-.067-.155-.178-.272-.185z"/></svg>