<svg viewBox="0 0 24 24" xmlns="http://www.w3.org/2000/svg" role="img"><path d="M0 10.034v3.84h2.021c.386 0 .696-.08.929-.24.294-.207.44-.512.44-.917a.966.966 0 0 0-.174-.576.937.937 0 0 0-.486-.349v-.016c.32-.137.48-.382.48-.735a.9.9 0 0 0-.365-.761c-.214-.164-.501-.246-.859-.246zm1.813.87c.088 0 .174.031.244.086a.288.288 0 0 1 .102.231.278.278 0 0 1-.096.228.403.403 0 0 1-.263.079h-.699v-.624h.712zm14.488.142c-.43 0-.78.138-1.052.414-.273.275-.409.623-.409 1.041 0 .423.139.77.416 1.042.278.27.639.407 1.083.407.342 0 .635-.076.875-.23.287-.182.461-.404.521-.661h-.983c-.075.136-.202.204-.38.204-.293 0-.473-.17-.537-.51h1.954c.01-.587-.15-1.033-.48-1.337-.268-.246-.603-.37-1.008-.37zm-3 .005c-.351 0-.646.078-.886.234a.728.728 0 0 0-.36.641.912.912 0 0 0 .062.35.708.708 0 0 0 .15.24.723.723 0 0 0 .237.15 1.966 1.966 0 0 0 .545.142l.086.01c.15.017.297.05.44.1a.197.197 0 0 1 .144.195c0 .157-.117.236-.35.236-.258 0-.395-.12-.414-.36h-.971a.836.836 0 0 0 .38.72c.25.171.583.257 1 .257.4 0 .725-.08.973-.236.25-.157.374-.392.374-.704a.9.9 0 0 0-.249-.64.829.829 0 0 0-.273-.162 1.921 1.921 0 0 0-.295-.091 5.285 5.285 0 0 0-.315-.052 2.818 2.818 0 0 1-.433-.086c-.089-.027-.132-.075-.132-.144a.164.164 0 0 1 .083-.147.391.391 0 0 1 .208-.051c.207 0 .322.08.344.246h.957a.778.778 0 0 0-.357-.629c-.22-.146-.537-.219-.948-.219zm9.739.001c-.361 0-.655.154-.881.462h-.016v-.377h-.967v2.737h1.014v-1.475a.596.596 0 0 1 .113-.373.361.361 0 0 1 .3-.147c.255 0 .382.157.382.472v1.521H24v-1.768c.001-.323-.081-.578-.246-.768-.165-.189-.403-.284-.714-.284zm-18.02.004c-.451 0-.814.138-1.09.412-.276.275-.414.623-.414 1.045 0 .42.139.768.414 1.04.275.272.639.408 1.09.408.451 0 .812-.136 1.085-.407.271-.273.407-.619.407-1.041 0-.423-.136-.772-.407-1.045-.273-.274-.635-.412-1.085-.412zm14.411 0c-.451 0-.815.138-1.09.412-.276.275-.414.622-.414 1.045 0 .42.138.768.414 1.04.276.272.639.408 1.09.408.451 0 .813-.136 1.085-.407.271-.273.408-.62.408-1.041 0-.423-.137-.772-.408-1.045-.272-.274-.634-.412-1.085-.412zm-7.674.022h-.02c-.356 0-.632.158-.833.473h-.015v-.413H9.92v2.736h1.015v-1.12c0-.308.083-.528.247-.66.165-.134.397-.174.698-.124h.021v-.864a.383.383 0 0 0-.145-.028zm-5.01.06V12.9c0 .327.083.584.248.774.165.19.407.285.727.285.354 0 .64-.146.854-.44h.017v.354h.965v-2.736H8.545v1.477a.527.527 0 0 1-.11.354.385.385 0 0 1-.31.129c-.243 0-.364-.148-.364-.435v-1.525zm9.595.59c.108.003.21.05.284.13.088.1.14.227.153.36h-.945c.057-.327.22-.49.488-.49h.02zM5.01 11.74a.384.384 0 0 1 .351.209c.081.139.121.327.121.564 0 .236-.04.425-.12.563a.384.384 0 0 1-.352.21.376.376 0 0 1-.344-.206c-.079-.137-.117-.326-.117-.566 0-.24.039-.429.117-.568a.373.373 0 0 1 .344-.206zm14.41 0a.384.384 0 0 1 .351.209c.08.139.12.327.12.564 0 .236-.04.425-.12.563a.383.383 0 0 1-.351.21.376.376 0 0 1-.344-.206c-.079-.137-.117-.326-.117-.566 0-.24.038-.429.117-.568a.375.375 0 0 1 .344-.206zm-17.504.507c.1 0 .198.035.278.097.079.069.121.17.115.274a.348.348 0 0 1-.113.273.418.418 0 0 1-.295.103h-.8v-.746h.815z"/></svg>