<svg role="img" viewBox="0 0 24 24" xmlns="http://www.w3.org/2000/svg"><path d="M8.207 23.994a3.21 3.21 0 0 1-1.43-.438 3.128 3.128 0 0 1-.86-.796c-.273-.366-.367-.53-.57-1-.217-.5-.326-.864-.458-1.52a7.5 7.5 0 0 0-.069-.323c-.006-.016-.118-.058-.446-.167-.743-.247-1.368-.514-1.798-.767-.592-.348-.864-.548-1.195-.878-.33-.328-.515-.577-.677-.905a3.175 3.175 0 0 1-.322-1.07 5.815 5.815 0 0 1-.013-.797 6.39 6.39 0 0 1 .203-1.037c.165-.546.285-.846.627-1.558l.174-.363-.1-.17c-.44-.74-.688-1.234-.885-1.76-.283-.758-.385-1.264-.37-1.849a2.66 2.66 0 0 1 .32-1.28c.092-.185.126-.238.268-.425a4.606 4.606 0 0 1 1.197-1.068c.438-.285 1.085-.617 1.743-.896.506-.215.687-.294.7-.306.008-.007.09-.219.182-.47.277-.75.339-.897.546-1.3.226-.44.43-.77.669-1.087.263-.349.412-.505.713-.753.25-.206.394-.3.645-.42.549-.266.918-.347 1.573-.347.376 0 .628.03 1.124.135.498.106 1.247.388 1.906.718l.167.084.241-.13c.563-.306.98-.493 1.58-.709A5.66 5.66 0 0 1 14.69.054c.395-.055.447-.058.751-.051.398.01.586.037.948.139.286.08.556.215.922.461.382.256.84.77 1.205 1.353.276.44.635 1.17.872 1.776.061.156.118.296.126.312.009.018.034.035.062.044.37.114.763.249.929.318.518.217 1.007.458 1.295.639.362.227.808.59 1.037.84.198.218.233.262.39.485.317.453.498.953.586 1.62.03.222.03.734 0 .953-.09.681-.188 1.06-.449 1.745-.114.301-.23.57-.336.78l-.059.116.189.41c.217.472.316.722.475 1.208.188.572.3 1.093.338 1.566.018.234.015.7-.006.865a3.19 3.19 0 0 1-.16.71c-.112.333-.26.636-.414.845a4.445 4.445 0 0 1-1.195 1.144 6.67 6.67 0 0 1-.857.478c-.386.189-.575.27-.929.4l-.272.101c-.041.015-.042.018-.13.274-.154.446-.374.967-.59 1.396a8.895 8.895 0 0 1-.47.794c-.25.35-.553.686-.797.89-.325.271-.58.443-.826.559a3.485 3.485 0 0 1-1.055.328c-.471.06-.829.059-1.355-.006-.546-.067-1.296-.3-2.033-.63l-.318-.143-.262.131c-.69.346-1.306.595-2.007.812a7.3 7.3 0 0 1-1.388.274c-.14.011-.523.013-.7.004zm.474-.599a.547.547 0 0 0 .127-.088c.047-.046.056-.062.056-.1 0-.08-.048-.147-.172-.242-.122-.093-.345-.174-.727-.264a1.938 1.938 0 0 1-.308-.09 1.354 1.354 0 0 1-.311-.167c-.032-.022-.06-.037-.064-.034-.01.01.079.274.126.371.054.11.169.268.263.36.068.067.236.175.348.224.132.057.212.07.407.066.172-.003.188-.005.255-.036zm7.85-.423c.176-.04.396-.163.522-.29.03-.032.082-.102.115-.157.058-.097.06-.102.06-.192 0-.086-.003-.095-.036-.133a.22.22 0 0 0-.08-.056c-.1-.033-.327.018-.511.116a9.281 9.281 0 0 0-.414.24 2.23 2.23 0 0 1-.346.182c-.09.034-.208.064-.268.07-.077.005-.055.03.083.096.251.12.358.145.616.148a.968.968 0 0 0 .26-.024zm-3.715-.472a12.48 12.48 0 0 0 1.584-.242 9.936 9.936 0 0 0 2.355-.866c.933-.484 1.43-.823 2.193-1.493.518-.455 1.01-.973 1.352-1.423.69-.909 1.107-1.639 1.505-2.636.322-.806.557-1.73.645-2.538.076-.69.081-.786.073-1.336a11.027 11.027 0 0 0-.09-1.35 10.596 10.596 0 0 0-.467-1.996 11.402 11.402 0 0 0-.838-1.848c-.55-.93-1.183-1.731-1.877-2.377-.43-.399-.835-.74-1.106-.928-.564-.392-.843-.56-1.402-.85a10.751 10.751 0 0 0-2.343-.849c-.847-.2-1.466-.27-2.395-.27-.6 0-.915.018-1.349.075-1 .134-2.002.418-2.975.845a10.613 10.613 0 0 0-2.2 1.343c-.597.491-1.078.955-1.457 1.402a10.6 10.6 0 0 0-1.616 2.544c-.409.88-.732 2.02-.837 2.957-.074.66-.08.782-.08 1.349s.008.717.08 1.343c.128 1.108.518 2.37 1.049 3.395.591 1.141 1.29 2.078 2.144 2.873.886.825 1.464 1.234 2.503 1.774.72.373 1.508.663 2.342.86.53.124 1.358.24 1.923.266.326.016.98.003 1.284-.024zm-1.255-.658c-.751-.025-1.7-.177-2.372-.381a10.421 10.421 0 0 1-1.81-.727 9.41 9.41 0 0 1-1.898-1.287c-.632-.57-.823-.77-1.327-1.389a9.823 9.823 0 0 1-1.274-2.1 9.073 9.073 0 0 1-.457-1.266c-.21-.757-.274-1.106-.363-1.981a6.248 6.248 0 0 1-.026-.763c0-.537.01-.698.082-1.272a9.72 9.72 0 0 1 .447-1.934c.23-.66.504-1.254.818-1.774A9.632 9.632 0 0 1 4.942 4.95a9.83 9.83 0 0 1 2.987-2.061c.55-.25 1.021-.409 1.78-.599.648-.162 1.824-.278 2.489-.244 1.068.053 1.573.132 2.486.385.396.11.926.305 1.313.484.415.192.97.496 1.272.697.716.476 1.125.807 1.657 1.338.316.316.557.586.791.888.474.607.919 1.338 1.244 2.04a9.75 9.75 0 0 1 .786 2.757c.064.496.083.771.09 1.265.008.518.002.616-.074 1.266a9.637 9.637 0 0 1-.438 1.934c-.294.89-.737 1.75-1.346 2.615a10.187 10.187 0 0 1-2.254 2.26c-.303.213-.674.453-.852.552a17.71 17.71 0 0 1-.935.468c-.505.23-1.237.479-1.768.6a11.85 11.85 0 0 1-1.461.225c-.24.017-.906.03-1.148.022zm1.038-1.276c.516-.044.963-.12 1.488-.255a7.397 7.397 0 0 0 1.041-.336 12 12 0 0 0 1.073-.522c.24-.144.544-.338.72-.458.455-.314 1.08-.876 1.507-1.357.304-.343.729-.933.985-1.37.23-.393.593-1.195.717-1.587.317-1.002.438-1.76.438-2.74 0-.716-.057-1.226-.217-1.94a7.92 7.92 0 0 0-.203-.733 8.937 8.937 0 0 0-.703-1.593c-.478-.797-.858-1.288-1.444-1.868-.555-.548-1.008-.898-1.75-1.345a10.03 10.03 0 0 0-1.578-.716c-1.002-.317-1.76-.438-2.74-.438-.556 0-1.097.045-1.53.129a8.862 8.862 0 0 0-2.328.774 9.134 9.134 0 0 0-1.14.691c-.74.54-1.235 1.013-1.84 1.764-.217.268-.676.982-.836 1.3-.308.614-.445.966-.658 1.699a9.243 9.243 0 0 0-.237 1.183 7.868 7.868 0 0 0-.064 1.094c0 .434.01.594.064 1.1.063.583.281 1.44.528 2.07.102.262.415.906.561 1.154.276.468.622.955.92 1.295a8.78 8.78 0 0 0 1.291 1.226c.265.213.98.672 1.295.83a8.202 8.202 0 0 0 1.845.7c.52.132.931.203 1.444.248.26.023 1.084.023 1.35 0zm-6.611-6.75 1.38-1.392.668-.001.668-.001-1.387 1.387-1.387 1.387-.66.006-.662.006zm1.974.081c.665-.72 1.21-1.312 1.21-1.314a.196.196 0 0 0-.055-.012 2.097 2.097 0 0 1-.52-.238c-.263-.195-.46-.387-.518-.5a.388.388 0 0 0-.043-.069 2.473 2.473 0 0 1-.219-.467c-.08-.254-.096-.477-.053-.798a1.65 1.65 0 0 1 .171-.587c.094-.187.169-.296.31-.45.257-.282.505-.435.903-.556.086-.026.397-.07.497-.07.1 0 .41.044.497.07.24.073.421.157.572.262.17.12.384.333.502.503.111.157.225.415.278.627.01.039.027.147.038.241.036.296.007.59-.077.805a2.08 2.08 0 0 0-.035.095 3.43 3.43 0 0 1-.176.343 2.108 2.108 0 0 0-.057.083 2.923 2.923 0 0 1-.232.254c-.11.11-.807.848-1.55 1.639l-1.352 1.437-.65.006-.65.006zm1.943-2.108a1.02 1.02 0 0 0 .323-.142c.273-.207.393-.375.466-.652a1.354 1.354 0 0 0-.006-.49.99.99 0 0 0-.185-.409 1.179 1.179 0 0 0-.374-.317 1.055 1.055 0 0 0-.484-.117 1.053 1.053 0 0 0-.587.178c-.126.074-.29.254-.364.4a1.082 1.082 0 0 0-.117.525c0 .198.024.303.111.477.041.081.088.143.193.255.162.171.36.273.598.31.09.013.347.002.426-.018zm.952 1.405 1.834-2.013.448-.001.447-.001-.026-.045a1.877 1.877 0 0 1-.26-.695c-.03-.165-.03-.32 0-.544a1.47 1.47 0 0 1 .103-.426c.156-.398.422-.727.752-.93.18-.111.203-.124.34-.179a1.66 1.66 0 0 1 .51-.123c.177-.02.193-.02.367 0 .313.037.48.093.778.262a1.854 1.854 0 0 1 .677.675c.024.039.06.103.08.142.04.083.132.35.132.385 0 .014.008.056.017.094.041.158.043.602.003.715a.66.66 0 0 0-.025.104.949.949 0 0 1-.036.136 2.523 2.523 0 0 1-.192.39l-.029.039h2.829v.97h-1.444c-.82 0-1.443.004-1.443.01s.008.017.017.025c.018.015.082.12.157.26.05.095.13.326.161.474.042.195.046.536.009.727-.02.1-.081.294-.122.385a3.13 3.13 0 0 1-.202.36 2.825 2.825 0 0 1-.428.428c-.3.2-.55.297-.9.35a2.476 2.476 0 0 1-.567-.019.404.404 0 0 0-.09-.019c-.04 0-.33-.1-.41-.142a2.906 2.906 0 0 1-.352-.224 2.68 2.68 0 0 1-.373-.397 2.233 2.233 0 0 1-.289-.621 2.01 2.01 0 0 1 .036-1.035c.051-.16.17-.403.235-.483a.535.535 0 0 0 .054-.072c0-.004-.116-.006-.257-.006h-.258l-1.402 1.523-1.402 1.522-.656.006-.657.006 1.834-2.013zm4.575 1.13c.072-.017.154-.047.237-.089a.792.792 0 0 0 .246-.177.921.921 0 0 0 .241-.323.99.99 0 0 0 .07-.684.928.928 0 0 0-.132-.338 1.48 1.48 0 0 0-.202-.245 1.4 1.4 0 0 0-.443-.236 1.166 1.166 0 0 0-.404-.026 1.174 1.174 0 0 0-.538.242 1.06 1.06 0 0 0-.326.465c-.052.139-.057.17-.058.39 0 .239-.007.213.11.46.064.138.071.147.2.273a.994.994 0 0 0 .745.312.978.978 0 0 0 .254-.024zm.081-3.167a.904.904 0 0 0 .1-.034.96.96 0 0 0 .343-.247.979.979 0 0 0 .298-.674.806.806 0 0 0-.026-.29.938.938 0 0 0-.134-.346 1.51 1.51 0 0 0-.253-.289 2.742 2.742 0 0 0-.355-.185c-.1-.042-.4-.053-.53-.02a1.37 1.37 0 0 0-.42.203c-.15.11-.28.29-.355.491-.048.128-.053.153-.06.342-.007.162-.005.187.02.278.07.258.196.445.422.624.065.052.197.118.289.145.111.033.549.034.661.002zm2.991 3.696a.618.618 0 0 0-.1-.017 1.059 1.059 0 0 1-.466-.182 1.394 1.394 0 0 1-.279-.28c-.148-.242-.202-.463-.172-.71a.961.961 0 0 1 .032-.158c.01-.028.025-.077.033-.11a.48.48 0 0 1 .043-.108l.07-.117c.05-.085.214-.249.304-.302l.109-.066c.044-.027.184-.074.291-.1.098-.022.317-.017.432.011a.968.968 0 0 1 .364.156c.08.046.21.17.273.258.144.201.208.41.207.671a.97.97 0 0 1-.193.603c-.05.066-.195.21-.26.257-.05.036-.168.097-.24.123-.12.044-.426.093-.448.07zm-12.28-3.029a.618.618 0 0 0-.1-.017 1.065 1.065 0 0 1-.454-.173c-.161-.115-.326-.312-.38-.456-.086-.23-.105-.354-.083-.54.018-.143.088-.357.147-.447l.058-.089c.042-.064.207-.22.279-.263l.107-.064c.044-.027.184-.075.292-.1a1.29 1.29 0 0 1 .432.01.968.968 0 0 1 .362.156c.126.074.29.253.363.4.083.164.118.318.118.524a.901.901 0 0 1-.111.477 1.021 1.021 0 0 1-.194.255.984.984 0 0 1-.387.256c-.122.045-.427.093-.448.071zm.842-2.496a.903.903 0 0 1-.155-.057.503.503 0 0 1-.184-.147 39.606 39.606 0 0 1-.88-1.107c0-.005 1.105.393 1.23.443a.75.75 0 0 1 .414.352c.04.076.04.235.004.305a.408.408 0 0 1-.266.211c-.072.02-.077.02-.163 0zm5.146 0a.436.436 0 0 1-.263-.214.345.345 0 0 1-.01-.24c.044-.168.138-.267.373-.39a47.614 47.614 0 0 1 1.284-.467c0 .014-.832 1.062-.898 1.13a.648.648 0 0 1-.319.181c-.08.02-.098.02-.167 0zm-3.993-.723a.43.43 0 0 1-.197-.182.335.335 0 0 1 .001-.249.326.326 0 0 1 .543-.11.33.33 0 0 1 .086.314c-.036.172-.26.289-.433.227zm2.55-.003a.411.411 0 0 1-.12-.087c-.058-.058-.07-.076-.082-.135a.338.338 0 0 1 .082-.314.328.328 0 0 1 .47-.008c.092.09.126.253.077.368a.417.417 0 0 1-.193.176.362.362 0 0 1-.234 0zm-1.29-.583a.415.415 0 0 1-.27-.325c-.024-.126.011-.292.214-1l.181-.633.195.68.195.682v.153c-.001.154-.001.154-.044.237a.378.378 0 0 1-.251.214.344.344 0 0 1-.22-.008zm8.07 10.52c.014-.018.014-.018-.005-.003-.02.015-.026.025-.016.025a.069.069 0 0 0 .02-.02zm.294-.256a.42.42 0 0 0 .058-.066.6.6 0 0 0-.07.066.42.42 0 0 0-.058.065.6.6 0 0 0 .07-.065zm.438-.438a.607.607 0 0 0 .07-.077.818.818 0 0 0-.082.077.607.607 0 0 0-.07.077.92.92 0 0 0 .082-.077zm.148-.16c.011-.013.018-.024.015-.024a.105.105 0 0 0-.027.024c-.012.013-.019.024-.016.024.004 0 .016-.01.028-.024zm.088-.1c.016-.017.025-.03.022-.03a.14.14 0 0 0-.034.03c-.015.016-.025.03-.021.03a.14.14 0 0 0 .033-.03zm.089-.101c.012-.013.019-.024.016-.024-.004 0-.016.01-.028.024-.012.013-.019.024-.015.024.003 0 .015-.01.027-.024zm1.789-3.658c-.004-.009-.007-.007-.008.007 0 .013.003.02.007.016s.004-.014 0-.023zm.07-.343c-.003-.009-.006-.007-.007.007 0 .013.003.02.007.016s.004-.014 0-.023zm.012-.059c-.003-.009-.006-.007-.007.007 0 .013.003.02.006.016.004-.004.005-.014.001-.023zm.012-.059c-.004-.009-.006-.007-.007.007 0 .012.002.02.006.015.004-.004.004-.014.001-.022zm.012-.06c-.004-.008-.007-.006-.007.008 0 .012.002.02.006.015.004-.004.004-.014 0-.022zm.012-.083c-.004-.008-.006 0-.006.015 0 .016.002.023.006.015a.045.045 0 0 0 0-.03zm.011-.106c-.003-.008-.006-.001-.006.015s.003.022.006.014a.045.045 0 0 0 0-.03zm.013-.112c-.003-.012-.006-.005-.006.014 0 .02.002.03.005.021a.069.069 0 0 0 0-.035zm.011-.107c-.003-.011-.005-.005-.005.015s.002.029.005.02a.069.069 0 0 0 0-.035zm.012-.13c-.003-.012-.005-.002-.005.02 0 .023.002.033.005.021a.096.096 0 0 0 0-.041zm.012-.142c-.003-.012-.005-.002-.005.02 0 .023.002.033.005.021a.096.096 0 0 0 0-.041zm.012-.142c-.003-.012-.006-.002-.006.02 0 .023.003.033.006.021a.096.096 0 0 0 0-.041zm.012-.26c-.002-.031-.004-.006-.004.056s.002.087.004.056a.878.878 0 0 0 0-.112zm-18.801 4.96c.076-.023.11-.057.125-.13.013-.054.01-.072-.018-.178a1.21 1.21 0 0 0-.06-.174 2.646 2.646 0 0 0-.206-.317 1.811 1.811 0 0 1-.083-.113 1.43 1.43 0 0 0-.08-.106 1.49 1.49 0 0 1-.316-.6c-.004-.018-.011-.033-.017-.033-.012 0-.068.14-.106.265a2.002 2.002 0 0 0-.055.48c.027.235.108.44.239.6.145.18.245.252.412.3.089.027.096.027.165.006zm20.55-.056a1.21 1.21 0 0 0 .725-.452.891.891 0 0 0 .169-.315c.038-.108.04-.119.04-.29 0-.174 0-.178-.037-.256-.03-.065-.047-.084-.086-.104a.223.223 0 0 0-.08-.024c-.091 0-.224.107-.318.254a3.755 3.755 0 0 0-.263.592c-.074.22-.197.443-.31.559a.48.48 0 0 0-.06.07c0 .01.093-.005.22-.034zM1.141 8.758c.083-.041.15-.172.193-.373.028-.133.032-.182.041-.548.006-.258.016-.435.027-.491a.993.993 0 0 1 .093-.269c.047-.057-.086-.003-.21.085-.16.114-.35.32-.418.454-.054.106-.105.26-.118.356a.99.99 0 0 0 .059.545c.058.146.113.209.21.244.057.02.078.02.123-.003zm21.817-.422c.068-.141.085-.199.126-.405.03-.156.026-.296-.014-.467a.963.963 0 0 0-.145-.326.767.767 0 0 0-.157-.193.597.597 0 0 0-.337-.176c-.06-.005-.076-.002-.122.025a.219.219 0 0 0-.066.054.492.492 0 0 0-.012.131c0 .09.006.125.035.206.063.179.227.477.403.734.089.13.189.387.189.485 0 .036.011.065.026.065.006 0 .04-.06.074-.133zM7.05 1.917c.176-.074.33-.186.537-.386a2.45 2.45 0 0 1 .15-.137c.014-.009.062-.046.106-.082.111-.09.24-.166.35-.206a.302.302 0 0 0 .092-.043c0-.01-.096-.04-.23-.075a1.54 1.54 0 0 0-.45-.031 1.509 1.509 0 0 0-.354.088 1.74 1.74 0 0 0-.325.226.983.983 0 0 0-.22.353c-.093.286.059.416.345.293zm9.682-.413c0-.016-.067-.182-.117-.289a1.36 1.36 0 0 0-.458-.52 1.045 1.045 0 0 0-.706-.147c-.214.035-.34.125-.34.243 0 .136.109.227.402.34.097.037.25.073.545.128.302.056.473.119.614.224.042.031.06.038.06.021z"/></svg>