<svg role="img" viewBox="0 0 24 24" xmlns="http://www.w3.org/2000/svg"><path d="M1.293 23.949C.81 23.818.358 23.426.13 22.94l-.125-.266V1.315l.126-.27C.307.672.637.336 1.01.153L1.318 0h21.364l.31.152c.371.183.701.52.877.894l.126.268v21.362l-.153.31a1.957 1.957 0 0 1-.893.877l-.269.126-10.586.01c-8.29.006-10.633-.005-10.8-.05zm19.476-1.964c.069-.069.074-.396.01-.583a5.036 5.036 0 0 1-.115-.488 12.06 12.06 0 0 0-.115-.54 26.143 26.143 0 0 1-.122-.516c-.04-.18-.094-.413-.118-.516a2.102 2.102 0 0 1-.045-.372c-.001-.101-.017-.169-.035-.15-.032.031-.105-.246-.196-.746l-.043-.235.553-.568c.304-.313.592-.63.64-.704.047-.075.19-.281.318-.459.654-.908 1.199-2.234 1.373-3.339.09-.567.102-1.904.022-2.441-.08-.528-.155-.869-.2-.897-.022-.013-.04-.06-.04-.105 0-.15-.242-.822-.449-1.25-.32-.657-.524-1.001-.848-1.422-.165-.214-.299-.408-.299-.433 0-.024-.074-.103-.164-.175-.09-.072-.165-.156-.165-.186 0-.07-.99-1.001-1.066-1.001-.032 0-.093-.053-.135-.118-.042-.064-.099-.117-.125-.117-.027 0-.135-.07-.241-.157-.35-.285-1.097-.745-1.578-.971-.168-.08-.41-.194-.54-.254a8.797 8.797 0 0 0-.587-.24 12.67 12.67 0 0 1-.499-.191 6.173 6.173 0 0 0-.657-.184 7.081 7.081 0 0 1-.604-.16c-.504-.22-2.903-.355-4.178-.236-.678.064-1.469.181-1.566.233a5.269 5.269 0 0 1-.576.16 8.403 8.403 0 0 0-.868.262 4.011 4.011 0 0 1-.405.142c-.042 0-.657.288-1.233.576-.206.104-.55.307-.765.452-.214.145-.425.284-.468.31-.434.256-1.414 1.161-1.943 1.793a5.14 5.14 0 0 0-.321.406c0 .012-.145.24-.322.507-.346.523-.747 1.346-.877 1.8a1.926 1.926 0 0 1-.115.33c-.048.063-.174.666-.234 1.118-.063.473-.063 1.75 0 2.223.061.458.186 1.056.235 1.118.02.026.072.174.116.329.072.255.523 1.281.588 1.338.015.013.075.118.134.234.06.117.222.364.362.55.14.187.254.356.254.376 0 .154 1.835 1.938 1.993 1.938.02 0 .143.078.273.174.346.254.744.506.979.621.113.055.279.139.37.186.337.177.785.374 1.126.497.194.07.415.155.493.19.077.033.373.117.657.185.284.068.559.143.61.167.052.024.4.09.775.148.58.088.884.104 2.042.106.857.002 1.518-.019 1.784-.056.703-.099 1.077-.166 1.127-.2.026-.02.216-.07.422-.114.417-.088.635-.149.845-.237.328-.136.805-.306.86-.306.034 0 .206.096.384.212.178.116.346.211.374.211.027 0 .049.016.049.036 0 .02.041.056.091.082.05.025.359.215.685.422 2.035 1.286 2.043 1.29 2.158 1.29a.252.252 0 0 0 .155-.055zm-2.103-5.947c-.342-.182-.432-.81-.153-1.068.167-.155.32-.142.506.044.266.266.277.724.023.978-.158.158-.166.159-.376.046zM6.73 15a.949.949 0 0 1-.573-.473c-.245-.45-.21-1.256.076-1.722.166-.271.217-.201.191.263-.026.462.024.682.205.897.16.19.391.26.617.187.592-.195.887-.867.843-1.922-.028-.662-.117-.969-.357-1.22-.16-.17-.2-.188-.41-.188-.29 0-.528.151-.7.443-.066.114-.275.627-.464 1.14-.461 1.253-.637 1.603-.944 1.884-.349.319-.556.37-1.618.399l-.869.023.47-.152c.658-.214.94-.372 1.276-.713.348-.353.444-.533.865-1.626.377-.978.476-1.183.758-1.565.228-.31.555-.555.854-.639.24-.068.757-.064.941.007.382.147.694.55.877 1.13.096.307.109.444.109 1.124 0 .426-.017.875-.038.997-.034.201-.027.234.08.34.105.105.157.118.46.118.368 0 .617-.054.761-.164.087-.066.087-.077.01-.314-.184-.572-.143-1.237.11-1.754.257-.524.662-.81 1.21-.855.432-.035.689.054.98.338.279.272.346.452.347.924 0 .264-.026.362-.173.657-.201.402-.722.956-1.035 1.1-.109.05-.198.116-.2.144 0 .03.13.11.288.182.252.113.332.127.622.108.523-.034.903-.277 1.324-.847.478-.646.544-1.63.16-2.38-.228-.448-.738-.827-1.258-.936-1.151-.24-2.23.28-2.753 1.327-.146.294-.167.317-.171.194-.025-.726.144-1.234.56-1.68.41-.442.912-.697 1.539-.782 1.446-.198 2.784.691 3.139 2.084.094.373.092 1.203-.005 1.636-.17.753-.648 1.443-1.254 1.808-.986.593-2.106.55-2.84-.109l-.226-.204-.29.144c-.243.12-.361.147-.732.167-.532.028-.635.006-.85-.183l-.165-.145-.216.24c-.422.47-1.066.708-1.531.568zm4.765-2.123c.203-.16.38-.442.455-.727.103-.393-.14-.67-.587-.67-.185 0-.242.023-.373.154-.33.33-.412 1.234-.137 1.51.064.064.092.06.269-.028.108-.055.276-.163.373-.24zm5.449 1.486c-.25-.092-.583-.385-.735-.644-.296-.506-.356-.91-.455-3.061-.062-1.354-.21-2.896-.323-3.357l-.085-.352.192-.032c.106-.017.313-.033.46-.035l.265-.003.05.227c.154.724.224 1.564.31 3.763.07 1.763.112 2.11.303 2.484.05.1.161.239.245.31l.154.129.586-.034c.335-.019.661-.064.763-.104.358-.144.555-.522.555-1.069 0-.359-.185-1.3-.35-1.783-.089-.257-.15-.485-.137-.505.012-.021.198-.038.413-.038h.39l.143.575c.211.854.264 1.22.266 1.843.002.52-.008.584-.13.845-.174.375-.457.657-.782.78-.354.134-1.79.177-2.098.062z"/></svg>