<svg role="img" viewBox="0 0 24 24" xmlns="http://www.w3.org/2000/svg"><path d="M11.271 23.985c-1.159-.095-1.936-.24-2.865-.53a11.95 11.95 0 0 1-3.885-2.07A11.994 11.994 0 0 1 0 12.023C-.003 7.644 2.337 3.66 6.176 1.508A11.982 11.982 0 0 1 10.269.126c.665-.095.904-.111 1.717-.112.827 0 1.057.014 1.747.112 2.906.41 5.606 1.928 7.502 4.214a11.952 11.952 0 0 1 2.719 6.574c.081.88.054 1.895-.075 2.804a12.004 12.004 0 0 1-9.832 10.11c-.731.126-1.042.151-1.921.158h-.855zm1.226-.583c1.76-.088 3.383-.535 4.87-1.34a11.386 11.386 0 0 0 5.444-6.516c.494-1.515.66-3.158.483-4.78a11.359 11.359 0 0 0-3.496-7A11.358 11.358 0 0 0 9.192 1.009c-2 .5-3.824 1.547-5.296 3.037A10.8 10.8 0 0 0 2.539 5.7C.856 8.199.244 11.26.83 14.256a11.363 11.363 0 0 0 1.99 4.522c.565.77 1.396 1.626 2.148 2.212a11.316 11.316 0 0 0 5.404 2.308c.767.107 1.418.14 2.126.104zm-1.42-.837a4.52 4.52 0 0 1-.419-.034 1.302 1.302 0 0 0-.224-.021c-.156 0-.406-.034-.769-.102l-.5-.094c-.227-.042-.772-.203-1.273-.374-.967-.331-1.952-.903-3.016-1.75a8.651 8.651 0 0 1-.778-.712c-.244-.244-.44-.451-.437-.461.007-.02.294-.158.851-.407l1.253-.567 1.504-.678.632-.283.06.035c.033.02.352.228.71.462 1.856 1.218 1.723 1.132 2.85 1.852.185.117.653.423 1.04.678a1846.482 1846.482 0 0 0 2.395 1.577c.249.164.487.318.529.342.09.051.085.056-.128.1-.087.018-.288.06-.446.095-.158.034-.434.084-.613.11-.179.026-.417.064-.53.083-.112.02-.333.049-.491.064l-.502.05c-.474.047-1.086.059-1.699.034zm5.171-.77a.843.843 0 0 0-.15-.102c-.153-.09-.912-.585-1.299-.847a239.55 239.55 0 0 0-3.307-2.169 1.156 1.156 0 0 1-.165-.113c-.02-.024-.013-.028.049-.03h.082c.006 0 .194-.01.418-.026.224-.015.612-.035.862-.045a8.3 8.3 0 0 0 .568-.037 3.49 3.49 0 0 1 .39-.018c.153 0 .346-.01.429-.019.083-.01.338-.028.566-.038.228-.01.486-.023.573-.028.087-.01.889-.05 1.782-.1.894-.05 1.792-.1 1.997-.113.204-.012.509-.03.677-.037.169-.01.457-.023.64-.033.184-.011.337-.016.34-.013.013.013-.057.132-.196.335-.157.229-.641.847-.719.919a2.137 2.137 0 0 0-.15.17c-.147.183-.811.799-1.141 1.057a9.24 9.24 0 0 1-1.03.7c-.314.187-1.07.59-1.143.608a.066.066 0 0 1-.073-.018zm-13.16-3.56a31.497 31.497 0 0 1-.338-.46 11.67 11.67 0 0 0-.244-.33.79.79 0 0 1-.092-.133c0-.01.194-.111.432-.23.702-.35 1.684-.83 1.696-.83.006 0 .325-.156.71-.348.385-.191.809-.398.941-.459.133-.06.517-.246.854-.411l.613-.301 1.244-.102a64.82 64.82 0 0 1 1.25-.096c.005 0-.01.032-.032.062a1.561 1.561 0 0 0-.1.182c-.032.07-.105.206-.163.303-.057.097-.152.267-.212.378-.093.175-.102.199-.063.178.07-.037 1.08-.72 1.28-.866.176-.128.244-.173.268-.173.011 0 .003.509-.018 1.05-.015.366-.043.374.218-.066.374-.627.68-1.122.697-1.128.01 0 .069.147.13.334.206.628.471 1.398.487 1.414.016.017.055-.1.055-.168 0-.038.078-.406.204-.962.03-.133.064-.3.077-.372a.68.68 0 0 1 .035-.144c.007-.01.308.269.67.615.362.347.66.628.664.625.003 0-.007-.026-.023-.05a.955.955 0 0 1-.069-.164 15.67 15.67 0 0 0-.354-.86.708.708 0 0 1-.05-.13c.004 0 .115 0 .248.01s.409.022.613.031c.332.016.471.025.724.048.044 0 .224.077.437.177l.807.38c.246.116.569.265.72.332.15.067.63.291 1.067.497.437.206 1.062.498 1.389.648.613.282 1.177.549 1.192.564.019.019-1.14.102-1.714.123-.195.01-.364.018-.375.025-.011.01-.177.02-.37.03-.446.023-1.226.07-1.537.094-.133.01-.4.026-.594.035-.194.01-.441.025-.548.036-.107.01-.383.028-.613.039-.23.01-.493.028-.585.038a12.3 12.3 0 0 1-.51.037c-.19.01-.453.027-.586.037-.132.01-.387.026-.566.035-.179.01-.442.025-.585.035-.143.01-.431.028-.64.04a43.843 43.843 0 0 0-1.087.074l-.223.013-1.16-.772c-.805-.535-1.175-.77-1.207-.77a5.91 5.91 0 0 0-.548.216 9812.021 9812.021 0 0 1-3.073 1.308c-.444.189-.896.384-1.004.434-.107.05-.209.091-.225.091-.017 0-.111-.107-.215-.246zm18.378-1.427a22.613 22.613 0 0 0-.4-.195 38.433 38.433 0 0 1-.566-.277 14.074 14.074 0 0 0-.418-.2 5.549 5.549 0 0 1-.315-.156 8.998 8.998 0 0 0-.409-.2c-.153-.07-.47-.225-.705-.344a29.65 29.65 0 0 0-1.032-.5c-.157-.07-.18-.098-.141-.158.053-.081.323-.813.381-1.032.066-.25.122-.51.15-.706a.409.409 0 0 1 .044-.154c.012-.01.16-.01.328 0 .338.012 1.418.037 2.804.065.496.01 1.025.024 1.177.031l.276.012-.012.132a5.911 5.911 0 0 1-.049.343c-.02.117-.036.234-.036.26 0 .027-.021.162-.047.3l-.076.408a3.11 3.11 0 0 1-.065.279l-.052.176c-.142.487-.175.6-.188.631l-.075.205c-.067.19-.257.655-.327.805a3.833 3.833 0 0 0-.088.204c-.022.057-.053.106-.067.108a.277.277 0 0 1-.092-.032zm-19.253-.322a9.99 9.99 0 0 1-.438-1.162 8.43 8.43 0 0 0-.094-.334c-.202-.645-.428-2-.342-2.054.014-.01.406-.018.87-.02.465 0 1.157-.015 1.537-.025.38-.01 1.025-.018 1.433-.018h.74l.013.116c.007.064.036.217.065.34.03.122.076.318.103.435.05.217.154.525.252.741.056.122.066.17.038.17a.954.954 0 0 0-.225.104c-.093.053-1.25.631-2.646 1.324-.5.248-.968.484-1.037.523a.681.681 0 0 1-.149.071c-.012 0-.066-.095-.12-.21zm4.953-2.148a8.403 8.403 0 0 1-.183-.75c-.02-.092-.05-.234-.066-.316-.038-.178-.053-.302-.094-.743a5.534 5.534 0 0 1 .096-1.662A5.46 5.46 0 0 1 7.283 9.8a4.95 4.95 0 0 1 1.082-1.365c.06-.046.18-.143.268-.215.127-.105.46-.324.492-.324a6.492 6.492 0 0 1 1.395-.637 4.877 4.877 0 0 1 3.128.016c.486.16 1.274.613 1.788 1.026.324.26.345.282.543.564a7.24 7.24 0 0 1 .804 1.556c.216.584.27.896.271 1.55a5.248 5.248 0 0 1-.355 1.987c-.117.318-.146.381-.176.381-.036 0-.536-.242-1.556-.752a26.9 26.9 0 0 0-.771-.373c-.112-.05-.338-.16-.501-.245a23.805 23.805 0 0 0-.511-.258c-.117-.057-.433-.21-.7-.342a5.026 5.026 0 0 0-.53-.24.378.378 0 0 0-.126.047c-.165.09-.87.43-1.3.628-.188.087-.527.247-.751.356a56 56 0 0 1-1.17.559c-.154.071-.35.166-.437.212a5.168 5.168 0 0 1-.307.147 9.36 9.36 0 0 0-.383.18 1.75 1.75 0 0 1-.264.118c-.015 0-.038-.018-.05-.039zm14.606-2.22c-.04 0-.492-.014-1.003-.025-2.187-.046-2.656-.058-2.668-.07a2.586 2.586 0 0 1-.034-.33 4.593 4.593 0 0 0-.067-.538c-.026-.123-.059-.29-.074-.371-.03-.162-.09-.38-.157-.562a.437.437 0 0 1-.035-.122 40.93 40.93 0 0 1 1.076-.51c.179-.082.432-.2.563-.262a6.47 6.47 0 0 1 .245-.114c.004 0 .077-.034.162-.075l.385-.179a39.9 39.9 0 0 0 .54-.247c.168-.08.364-.17.436-.204l.43-.206a4.12 4.12 0 0 1 .317-.147c.01 0 .028.036.04.079.014.043.052.142.085.22.034.076.076.18.093.231.069.204.231.79.26.937.016.087.046.229.066.316.078.338.141.746.185 1.197.009.092.025.256.037.363.01.108.018.292.015.409l-.005.213h-.892zm-20.49-.242c0-.12.009-.278.019-.35.01-.072.026-.234.035-.362a6.93 6.93 0 0 1 .103-.789 4.5 4.5 0 0 0 .047-.286 5.73 5.73 0 0 1 .195-.79l.101-.344c.076-.258.315-.915.344-.945.004 0 .674.325 1.49.731.814.407 1.733.863 2.042 1.015.308.151.564.282.569.29a.546.546 0 0 1-.036.153c-.189.6-.276 1.051-.299 1.546a1.64 1.64 0 0 1-.023.263c-.028.016-.766.03-2.35.048-.95.01-1.842.023-1.983.029l-.255.01v-.219zm16.06-2.657c-.14-.251-.649-.989-.684-.989-.008 0-.022-.017-.031-.037a3.424 3.424 0 0 0-.282-.304 4.333 4.333 0 0 1-.264-.28c0-.011.092-.121.288-.343l.195-.225c.256-.298.38-.438.426-.481.027-.025.114-.126.194-.223s.176-.21.213-.251c.073-.082.388-.425.484-.53.033-.035.123-.14.201-.231.078-.092.183-.214.235-.27.113-.124.278-.312.44-.5.21-.25.336-.372.362-.357.068.038.643.622.937.952.25.28.391.462.615.79l.157.228a12.44 12.44 0 0 1 .697 1.17c.016.03.017.047.004.052-.01 0-.136.061-.278.128-.143.067-.322.15-.398.184-.077.034-.236.107-.353.163-.523.25-.93.44-.937.44-.005 0-.187.085-.53.246l-.297.14c-.184.084-.352.164-.62.29a5.421 5.421 0 0 1-.227.105c-.004 0-.09.04-.191.09a2.9 2.9 0 0 1-.218.1c-.02.01-.047.015-.063.02-.02.01-.042-.014-.076-.076zM6.437 9.196a4.109 4.109 0 0 0-.297-.153 6.101 6.101 0 0 1-.292-.144 5.046 5.046 0 0 0-.242-.12c-.066-.03-.291-.142-.5-.248-.668-.338-.756-.383-1.56-.78-.435-.214-.84-.412-.901-.44-.175-.078-.172-.063-.055-.283a7.531 7.531 0 0 1 .496-.801c.219-.33.232-.35.339-.494.33-.448 1.087-1.272 1.453-1.582.089-.075.094-.077.129-.046.02.018.09.108.155.2.066.094.219.303.34.465l.339.453c.148.198.134.18.213.279l.159.204.324.417c.127.164.243.315.258.337.015.022.19.255.39.518.466.615.537.716.538.76 0 .02-.082.118-.195.233a4.07 4.07 0 0 0-.237.255l-.172.23a8.35 8.35 0 0 0-.212.295 1.72 1.72 0 0 1-.093.13 3.435 3.435 0 0 0-.205.374c0 .03-.047.015-.172-.058zm1.867-2.14l-.195-.271a3.987 3.987 0 0 0-.155-.205 11.62 11.62 0 0 1-.279-.365c-.222-.3-.444-.594-.782-1.04a78.091 78.091 0 0 1-.406-.538 40.68 40.68 0 0 0-.81-1.053c-.039-.045-.023-.074.066-.12.031-.016.12-.077.197-.136.144-.11.505-.348.557-.367.016-.01.037-.018.047-.027.088-.075.85-.464 1.235-.63.447-.194 1.118-.426 1.357-.47.085-.016.102.01.119.148.007.061.033.208.057.325.024.118.062.318.083.446.02.127.054.3.074.385.04.17.092.429.137.683.09.508.131.723.17.882.024.097.052.247.064.334.012.087.032.204.046.26.014.056.04.19.057.297.017.107.05.274.076.371.025.097.05.22.056.272l.011.095-.071.023c-.04.013-.219.086-.397.162-.532.228-.854.404-1.136.621a.524.524 0 0 1-.074.052c-.004 0-.05-.06-.104-.135zm6.824-.133a3.987 3.987 0 0 0-.682-.358 5.769 5.769 0 0 1-.177-.07 3.55 3.55 0 0 0-.431-.17c-.081-.025-.117-.044-.117-.065 0-.016.038-.146.085-.287.046-.142.1-.325.121-.407.068-.266.254-.935.297-1.067.008-.026.045-.164.082-.307.092-.355.137-.515.188-.668.024-.072.081-.27.127-.442.046-.17.126-.445.177-.608.051-.164.107-.352.124-.419a.49.49 0 0 1 .054-.146c.027-.027.001-.033.5.13a9.19 9.19 0 0 1 1.588.72 10.386 10.386 0 0 1 .993.607 7 7 0 0 0 .256.173c.058.037.106.08.106.096 0 .015-.006.028-.014.028a1.01 1.01 0 0 0-.134.15c-.067.084-.133.16-.149.173a1.223 1.223 0 0 0-.111.123c-.046.056-.092.11-.103.12a3.46 3.46 0 0 0-.13.148c-.061.07-.14.158-.177.195a5.72 5.72 0 0 0-.222.252c-.129.154-.376.433-.655.74-.09.099-.22.253-.26.305a3.48 3.48 0 0 1-.15.171c-.15.161-.247.27-.448.501-.253.293-.46.51-.492.516-.016 0-.126-.057-.246-.134zm-4.215-.82c-.011-.02-.007 0-.108-.528a299.836 299.836 0 0 0-.36-1.857 88.29 88.29 0 0 1-.084-.445l-.084-.437-.101-.52a59.493 59.493 0 0 0-.104-.527c-.018-.088-.022-.145-.01-.156.015-.016.114-.035.456-.087.219-.033.73-.075 1.124-.09a9.915 9.915 0 0 1 1.754.091c.418.06.705.111.722.128.009.01.007.052-.003.096-.025.105-.17.628-.234.842-.063.21-.05.163-.393 1.365a187.742 187.742 0 0 0-.35 1.224c-.004.01-.029.09-.054.188a8.1 8.1 0 0 1-.197.667c-.02.035-.033.038-.146.028-.068-.01-.179-.02-.246-.031-.134-.022-.955-.01-1.178.019-.282.036-.394.043-.404.028z"/></svg>