<svg role="img" viewBox="0 0 24 24" xmlns="http://www.w3.org/2000/svg"><path d="M17.364 14.547c-.025-.295-.04-.31-.316-.31-.266 0-.291-.022-.315-.27l-.026-.268h1.252v1.159h-.285c-.27 0-.286-.018-.31-.311zm-14.93-.345c-.018-.019-.034-.14-.034-.269V13.7h.57c.547 0 .573.009.625.216.03.12.034.238.008.263-.053.054-1.117.076-1.169.024zm-1.69-.065c-.43-.158-.744-.69-.744-1.262v-.418h1.159v.29c0 .276-.014.29-.29.29-.335 0-.355.06-.118.36a.505.505 0 0 0 .449.219c.453 0 .62-.293.62-1.085 0-.635.006-.651.245-.775.332-.172.335-.17.335.195 0 .362.148.532.43.492.176-.025.193-.072.215-.615.022-.542.04-.596.238-.686.118-.054.237-.075.266-.047.028.029.051.468.051.976v.924l-.594.024c-.582.024-.595.03-.647.266-.068.31-.324.633-.624.788-.233.12-.746.153-.99.064zm12.663-.19c0-.218.029-.248.239-.248.188 0 .246.043.277.205.049.254.013.291-.282.291-.205 0-.234-.03-.234-.248zm6.372-.207v-.29H24v.58h-4.22zm-4.22-.538c0-.137-.056-.165-.326-.165-.365 0-.757-.126-.85-.275-.035-.054-.064-.585-.064-1.181l-.001-1.083.227-.114.29-.145c.034-.016.062.434.062 1.001 0 1.111.052 1.257.43 1.203.17-.024.193-.078.215-.49.023-.437.04-.47.313-.6l.288-.137 1.487.598 1.488.598v.625h-1.48c-1.41 0-1.482.007-1.524.165-.031.12-.113.166-.299.166-.2 0-.256-.036-.256-.166zm1.82-.83c0-.052-1.058-.494-1.181-.494-.033 0-.06.132-.06.293v.294l.62-.02c.342-.011.621-.044.621-.074zm-13.324.375v-.29h1.159v-1.344c.001-.74.023-1.425.05-1.521.038-.144.334-.362.491-.362.021 0 .038.663.038 1.474 0 1.602.046 1.793.418 1.74.18-.025.207-.078.244-.48.037-.402.07-.467.31-.607l.27-.156v1.836h-2.98zm3.448.234c-.03-.03-.055-.6-.055-1.267v-1.212l.29-.138.29-.138v2.811h-.235c-.129 0-.26-.025-.29-.056zm1.296-.028c-.243-.098-.358-.333-.358-.736 0-.287.035-.353.245-.461.331-.171.335-.17.335.188 0 .173.044.36.099.414.07.07.528.1 1.531.1h1.432v-.662h-1.07c-1.351 0-1.33.016-1.33-1.041v-.78h2.98l-.11.269-.11.269-1.095.023-1.096.023.026.308.025.308 1.07.023c.592.013 1.118.062 1.176.11.059.049.116.315.13.598l.024.51h.58l.041-.451c.037-.403.07-.468.31-.608l.27-.156v1.836l-2.463-.006c-1.354-.002-2.543-.038-2.643-.078zm10.98-.201v-.285l1.03-.026 1.029-.025.124.26c.068.144.101.283.074.31-.027.028-.546.05-1.153.05h-1.104zm1.947-.622a1.519 1.519 0 0 1-.126-.29c0-.024.54-.045 1.2-.045H24v.58h-2.147zm-17.67-.824v-.83l.243-.127a1.67 1.67 0 0 1 .283-.126c.02 0 .032.419.025.93l-.014.932-.269.026-.269.026zm15.723-.214v-.29H24v.58h-4.22zm-13.324-.414c0-.276.014-.29.29-.29.276 0 .29.014.29.29 0 .276-.014.29-.29.29-.276 0-.29-.014-.29-.29zm.017-1.055.025-.435 1.263-.022 1.263-.023-.11.27-.111.272-.85.024c-.766.02-.856.04-.894.186-.032.122-.114.162-.327.162h-.284z"/></svg>