<svg role="img" viewBox="0 0 24 24" xmlns="http://www.w3.org/2000/svg"><path d="M6.931 21.778a.893.893 0 0 1-.405-1.121c.155-.37.652-.625 1.02-.523.432.119.667.437.667.9 0 .338-.158.585-.478.747-.302.152-.512.151-.804-.003zm.753-.235c.17-.1.316-.36.316-.562 0-.168-.205-.473-.375-.559a.647.647 0 0 0-.584.012c-.229.118-.32.284-.32.577 0 .225.024.285.18.442.15.148.222.181.406.181.123 0 .293-.04.377-.09zm8.581.238c-.32-.162-.478-.409-.478-.747 0-.463.235-.781.667-.9.369-.102.866.153 1.02.523a.893.893 0 0 1-.405 1.121c-.292.154-.502.155-.804.003zm.834-.328c.157-.157.181-.217.181-.442 0-.293-.092-.459-.32-.577-.312-.161-.631-.071-.838.235-.142.21-.153.376-.041.612.106.225.322.35.605.352.193 0 .262-.029.413-.18zm-5.685-.143a1.911 1.911 0 0 1-.48-.361l-.24-.252-1.067-.228a81.653 81.653 0 0 1-4.48-1.102C2.609 18.638.953 17.94.333 17.34.15 17.162 0 16.975 0 16.925c0-.065.063-.03.226.129.334.324.612.5 1.336.847 1.564.75 3.953 1.353 7.181 1.814.809.116 1.537.222 1.617.237.14.025.147.016.152-.2.003-.123.022-.285.043-.358l.037-.133-1.114-.17c-.613-.093-1.128-.183-1.145-.2-.087-.087.128-.082 1.17.026l1.14.118.323-.322c.23-.23.39-.342.558-.39.13-.037.255-.083.278-.103.023-.02.064-.68.092-1.47l.05-1.434-.158-.241-.158-.241v.36c-.001.288-.017.36-.083.36-.069 0-.08-.078-.067-.489.01-.318.038-.496.079-.51.035-.012.171.14.304.338l.24.358.016-.337c.01-.211.042-.347.083-.36.05-.017.067.105.067.495 0 .467-.01.515-.093.493-.087-.023-.093.035-.077.78.01.443.033 1.055.053 1.36l.037.554.262.077c.196.057.342.157.584.4l.324.322 1.14-.118c1.043-.108 1.257-.113 1.17-.026-.017.017-.532.107-1.145.2l-1.114.17.038.133c.02.073.04.235.042.359.005.215.012.224.152.199.08-.015.809-.121 1.617-.237 3.228-.461 5.617-1.065 7.181-1.814.725-.347 1.002-.523 1.336-.847.315-.306.295-.128-.025.213-.398.426-1.163.826-2.602 1.363-1.443.538-4.161 1.28-6.64 1.81l-1.2.257-.24.252c-.319.335-.625.47-1.067.47-.235 0-.424-.036-.586-.11zm1.355-1.735c.103-.04.107-.097.014-.19-.052-.053-.255-.069-.787-.062-.393.004-.731.01-.75.013-.073.01-.1.185-.034.226.079.05 1.43.061 1.557.013zM2.081 15.539c-.435-.22-.272-.998.21-.998.207 0 .405.166.355.298-.037.096-.044.094-.133-.023-.132-.176-.38-.143-.478.064-.085.177-.032.444.104.53.118.074.34.007.4-.12.03-.07.072-.092.116-.064.1.062.024.212-.152.303-.183.095-.25.097-.422.01zm19.493.005c-.125-.07-.185-.15-.186-.243-.001-.104.126-.079.2.04.078.124.291.14.384.029.09-.11.03-.177-.211-.243-.228-.06-.374-.177-.374-.297 0-.126.204-.29.362-.29.174 0 .385.134.385.244 0 .101-.14.099-.18-.003-.04-.105-.332-.106-.373-.001-.03.081.11.187.249.187.12 0 .357.212.357.32 0 .124-.243.32-.394.319a.546.546 0 0 1-.22-.062zm-16.56-.033c0-.024.078-.246.175-.493.108-.277.205-.45.253-.45.064 0 .464.796.475.946.008.1-.165.026-.22-.093-.049-.108-.1-.134-.26-.134-.167 0-.204.021-.232.134-.03.12-.192.196-.192.09zm.516-.546c-.056-.147-.068-.153-.13-.07-.103.143-.08.232.062.232.121 0 .125-.01.068-.162zm2.737.078c0-.385.016-.506.067-.49.036.012.18.186.32.388l.253.366v-.388c0-.286.017-.381.067-.365.045.015.071.179.082.511.014.451.007.489-.087.489-.066 0-.18-.118-.321-.333l-.22-.334v.334c-.001.26-.019.333-.081.333-.066 0-.08-.092-.08-.511zm6.453.002v-.51l.356.017c.225.01.364.04.378.082.016.048-.062.067-.276.067-.282 0-.298.007-.298.133 0 .124.018.133.267.133.201 0 .267.02.267.08s-.066.08-.267.08c-.26 0-.267.004-.267.16 0 .159.003.16.294.16.161 0 .293.024.293.054s-.16.053-.373.053h-.374zm3.209.09c-.132-.481-.143-.612-.049-.581.037.012.101.17.143.351.042.181.096.329.12.329.024 0 .044-.032.044-.07 0-.187.17-.623.244-.623.087 0 .084-.006.217.453l.092.32.085-.373c.058-.256.11-.374.163-.374.094 0 .095-.012-.056.55-.149.557-.237.566-.397.037l-.113-.373-.101.386c-.14.534-.24.526-.392-.033zm-14.062-.89c.176-.101.74-.398 1.253-.66 3.436-1.749 7.263-3.064 13.067-4.488.836-.206 1.552-.384 1.59-.398.044-.015-.052-.137-.253-.324-.178-.165-.324-.32-.324-.347 0-.026.104-.047.23-.047.186 0 .319.056.705.298l.475.299.426-.086c.275-.055.444-.067.477-.033.06.06.043.068-.473.204l-.373.099-.279.503c-.197.354-.323.521-.427.566-.272.12-.281.097-.149-.384.069-.25.11-.453.09-.452-.02 0-.263.069-.542.152-.356.105-.502.173-.49.225.018.089 1.714 3.576 1.767 3.636.02.022.24-.9.487-2.051.351-1.634.475-2.122.565-2.227.102-.12.163-.137.546-.154.238-.011.431-.012.43-.001-.001.01-.284 1.327-.628 2.926l-.625 2.906-.51.015c-.43.013-.53 0-.619-.08-.059-.052-.486-.899-.95-1.881-.464-.983-.933-1.973-1.043-2.2l-.2-.415-.107.467c-.1.43-.664 3.097-.809 3.814l-.061.307h-.373c-.424 0-.58-.06-.58-.224 0-.1.819-4.098.885-4.318.023-.08.004-.081-.2-.021-.124.036-.234.09-.244.12-.01.029-.228 1.035-.485 2.235l-.468 2.181-.51.015c-.425.013-.526 0-.617-.08-.06-.052-.438-.79-.84-1.641-.4-.85-.736-1.553-.744-1.561-.01-.01-.886.287-.973.33-.01.005-.604 2.899-.604 2.941 0 .056-.837.018-.896-.041-.097-.097-.079-.245.168-1.41.217-1.027.222-1.073.118-1.033-.942.36-.993.385-.968.472.03.099.352 1.935.352 2.003 0 .024-.192.035-.426.024-.592-.027-.61-.049-.753-.965-.064-.404-.133-.734-.154-.734-.125 0-2.436 1.115-3.14 1.515l-.338.192-.888-.002-.888-.001zm11.51-3.366c.08-.376.106-.59.069-.578-.223.067-1.609.523-1.621.533-.009.007.229.514.527 1.126l.542 1.114.177-.8c.097-.44.235-1.068.305-1.395zM2.411 14.292c-.318-.113-.773-.544-.91-.865-.17-.392-.2-.907-.09-1.56.306-1.845 1.1-2.874 2.486-3.223.402-.102 2.48-.169 2.604-.085.063.043.064.09.007.294-.112.399-.087.392-1.522.423-1.37.029-1.7.083-1.975.32-.359.31-.837 2.605-.671 3.217.153.564.527.818 1.278.87l.461.031-.602.333c-.331.184-.655.332-.72.33a1.569 1.569 0 0 1-.345-.085zm2.369-.991c.022-.037.696-1.1 1.497-2.36 1.262-1.988 1.48-2.302 1.63-2.357.094-.035.404-.065.688-.067l.517-.003.055.28c.153.773.43 2.506.408 2.543-.053.086-.843.334-.88.275-.019-.03-.104-.56-.189-1.174-.084-.615-.17-1.107-.192-1.094-.02.013-.466.758-.99 1.656-.849 1.457-.972 1.642-1.138 1.712-.103.044-.46.209-.795.367-.334.159-.617.288-.63.288-.012 0-.003-.03.019-.066zm6.314-2.513c.001-.034.105-.553.23-1.154l.228-1.093.397-.017c.736-.03.694-.061 1.119.828.204.428.366.784.358.79a4.501 4.501 0 0 1-.333.102l-.411.116c-.067.02-.126-.042-.221-.23l-.13-.256-.063.24a19.18 19.18 0 0 1-.086.324c-.03.103-1.09.444-1.088.35zm4.612-1.434c.141-.692.202-.753.78-.779.337-.015.416-.005.397.053a5.42 5.42 0 0 0-.083.375l-.06.303-.481.11a7.385 7.385 0 0 1-.535.111c-.032 0-.039-.07-.018-.173zm1.5-.185c-.013-.012-.004-.099.02-.192s.058-.236.076-.316c.032-.146.036-.147.472-.146.558 0 .665.031.762.218.074.144.072.153-.043.18-.564.134-1.27.274-1.288.256zM3.82 6.96c-.062-.313-.061-.314.328-.314.406 0 .69-.115.798-.326.043-.082.066-.384.067-.86v-.734h.492l-.022.787c-.018.676-.037.817-.136 1.006-.227.433-.56.606-1.167.607-.323 0-.327-.002-.36-.166zm2.1.1c0-.044-.015-.155-.033-.247l-.034-.167h.383c.443 0 .658-.088.777-.318.112-.218.101-.269-.056-.269-.273 0-.603-.12-.748-.271-.12-.125-.153-.216-.171-.47-.044-.601.157-.9.636-.945.551-.052.818.224.883.913l.033.359.528-.022c.388-.015.542-.042.578-.099.027-.043.05-.24.05-.438v-.36h.428v.337c0 .493.055.546.559.53.224-.006.43-.026.458-.043.027-.016.05-.209.05-.427v-.397h.48v.375c0 .433-.087.68-.295.843-.129.101-.214.115-.69.115-.381 0-.572-.022-.645-.074-.088-.065-.123-.065-.247 0-.098.05-.328.074-.702.074h-.557l-.037.2a.982.982 0 0 1-.494.691c-.197.115-.33.147-.689.166-.37.02-.445.01-.445-.056zm1.088-2.127c-.103-.113-.34-.133-.437-.036-.085.085-.083.558.002.61a.955.955 0 0 0 .28.07l.214.03.016-.287c.012-.212-.007-.312-.075-.387zm.986 2.12c-.144-.071-.194-.267-.098-.383.085-.102.342-.098.447.007.212.212-.068.516-.349.377zm.8 0c-.144-.071-.194-.267-.098-.383.085-.102.342-.098.447.007.212.212-.068.516-.349.377zm3.988-.005a1.01 1.01 0 0 1-.574-.52c-.081-.159-.101-.313-.101-.786v-.59h.427v1.133l.18.182.182.181h1.088l.182-.181.18-.182V4.727h.481v.367c0 .276.022.385.088.44.071.059.532.076 2.367.09 2.043.013 2.288.006 2.365-.071.048-.048.087-.11.087-.14 0-.028-.264-.327-.587-.664-.383-.4-.587-.653-.587-.73 0-.065-.015-.169-.031-.23-.027-.1.042-.137.726-.386.416-.152.778-.262.804-.246.026.016.048.118.048.227v.196l-.507.184c-.278.102-.506.195-.506.209 0 .013.187.23.417.482.23.252.481.554.56.671.24.358.17.737-.162.875-.172.071-4.836.062-4.98-.01-.068-.034-.1.021-.175.29-.11.395-.38.697-.702.787-.291.08-1.021.07-1.27-.019zm.316-2.21c-.127-.14-.087-.332.089-.43.132-.074.161-.074.293 0 .184.102.213.278.07.422-.138.137-.332.14-.452.007zM9.76 4.3c-.278-.277.068-.618.43-.424.146.078.137.342-.015.448-.16.112-.287.105-.415-.024zm-4.853-.48c-.133-.132-.136-.276-.01-.391.114-.103.387-.117.48-.025.105.107.075.349-.055.44-.16.112-.287.105-.415-.024zM16.64 2.525c0-.038.166-.158.368-.267.292-.158.373-.183.397-.121.02.053-.077.135-.316.267-.376.206-.449.226-.449.121z"/></svg>