<svg viewBox="0 0 24 24" xmlns="http://www.w3.org/2000/svg" role="img"><path d="M6.739 19.528a7.499 7.499 0 0 1-4.472-2.12C1.042 16.215.29 14.71.047 12.968c-.056-.404-.064-1.426-.014-1.83.362-2.923 2.301-5.333 5.057-6.284a7.578 7.578 0 0 1 7.036 1.125c.288.22.609.516.89.823.262.284.658.766.658.798 0 .011-.035.04-.079.067-.19.112-.63.461-.858.68-.692.667-1.198 1.478-1.534 2.463-.013.037-.04-.016-.104-.197-.435-1.245-1.444-2.145-2.748-2.453-.26-.062-.344-.069-.801-.07-.441 0-.547.007-.782.06a3.69 3.69 0 0 0-1.902 1.037c-.548.548-.868 1.144-1.036 1.925a4.274 4.274 0 0 0 0 1.466c.17.79.49 1.381 1.048 1.937.346.343.62.537 1.051.743a3.519 3.519 0 0 0 1.592.356 3.71 3.71 0 0 0 1.518-.307c.207-.088.222-.091.254-.048.045.062.089.275.089.43 0 .314-.204.828-.482 1.216-.08.11-.135.2-.125.2.048 0 .513-.378.725-.589.932-.932 1.606-2.485 1.715-3.951a6.127 6.127 0 0 1 .382-1.773 6.213 6.213 0 0 1 2.39-2.931 6.71 6.71 0 0 1 2.553-1.026 6.417 6.417 0 0 1 5.923 2.144c.797.93 1.293 2.026 1.488 3.285.065.421.066 1.36 0 1.78a6.542 6.542 0 0 1-.98 2.604c-.289.44-.487.682-.867 1.06-.974.97-2.196 1.577-3.614 1.796-.418.065-1.359.065-1.78 0a6.426 6.426 0 0 1-3.434-1.622l-.23-.206.214-.226a8.329 8.329 0 0 0 1.092-1.424c.296-.496.651-1.32.775-1.8.066-.255.076-.26.143-.08a2.614 2.614 0 0 0 1.774 1.487c.267.067.895.06 1.163-.014.944-.258 1.6-.914 1.86-1.859.044-.164.054-.275.054-.606 0-.447-.034-.625-.19-1.002-.295-.706-.972-1.276-1.734-1.459-.386-.092-.684-.095-1.174-.01-.09.015-.094.012-.123-.085-.128-.44 0-.928.402-1.52.176-.26.17-.265-.093-.072-.387.285-.83.767-1.143 1.244-.516.785-.932 1.952-1.027 2.88-.121 1.182-.793 2.697-1.649 3.717a9.765 9.765 0 0 1-1.111 1.064 7.624 7.624 0 0 1-3.624 1.578c-.46.07-1.466.091-1.916.04z"/></svg>