<svg role="img" viewBox="0 0 24 24" xmlns="http://www.w3.org/2000/svg"><path d="M14.458 23.444l-.992-.555-.007-2.554-.007-2.554-.2-.03a8.735 8.735 0 0 1-2.627-.837 8.883 8.883 0 0 1-2.87-2.274 8.908 8.908 0 0 1-1.965-4.371 9.09 9.09 0 0 1 .046-2.96c.014-.072.024-.133.022-.135-.013-.013-.894-.083-1.407-.113-.4-.023-1.66-.03-2.109-.013-.633.024-1.17.065-1.65.125a3.096 3.096 0 0 1-.233.025c0-.008 3.022-4.506 3.04-4.523.012-.014.067-.01.274.017a23.42 23.42 0 0 1 3.752.785c.012.003.055-.04.115-.117a8.921 8.921 0 0 1 11.914-1.87 8.959 8.959 0 0 1 3.05 3.449 8.981 8.981 0 0 1 .76 5.768 8.946 8.946 0 0 1-5.008 6.329l-.207.095-.007 2.963-.007 2.963-.99.47c-.546.26-.997.472-1.002.472-.005 0-.01-1.41-.01-3.133 0-2.233-.004-3.134-.015-3.134-.008 0-.117.015-.242.033-.126.018-.27.036-.319.041l-.09.01v3.091c0 1.701-.003 3.092-.01 3.092-.004 0-.456-.25-1-.556zm1.279-6.109l.294-.042.103-.017V14.64c0-2.546.001-2.643.026-2.848.17-1.374.68-2.5 1.524-3.37A5.154 5.154 0 0 1 19.39 7.25c.167-.068.335-.127.341-.12.015.017 2.23 3.312 2.23 3.317a.48.48 0 0 1-.103.015c-1.055.089-1.865.43-2.503 1.05-.6.584-.987 1.347-1.17 2.303l-.035.186-.004 1.32-.004 1.321.103-.047a8.494 8.494 0 0 0 4.76-6.434c.069-.475.08-.634.08-1.223 0-.577-.011-.764-.073-1.204a8.456 8.456 0 0 0-1.901-4.258 11.877 11.877 0 0 0-1.046-1.045A8.461 8.461 0 0 0 15.808.53a9.512 9.512 0 0 0-1.696-.069 8.46 8.46 0 0 0-5.967 2.987.818.818 0 0 0-.132.18c.006.006.134.054.284.107 3.632 1.288 6.014 3.562 6.872 6.559.109.38.205.848.252 1.232.051.41.051.406.049 3.15l-.003 2.685h.039c.022 0 .125-.012.23-.026zm.53-9.696a2.806 2.806 0 0 1-.999-.271 2.632 2.632 0 0 1-1.422-2.583 2.618 2.618 0 0 1 1.636-2.18c1.262-.5 2.692.05 3.304 1.272.272.543.34 1.2.187 1.808a2.63 2.63 0 0 1-1.134 1.557c-.14.09-.423.222-.594.277a2.738 2.738 0 0 1-.978.12zm-2.81 7.55l-.005-2.146-.036-.229c-.129-.812-.33-1.472-.637-2.083-.651-1.302-1.753-2.28-3.193-2.835a6.438 6.438 0 0 0-1.103-.314 53.581 53.581 0 0 1-.512-.095c-.54-.103-.988-.174-1.61-.259l-.055-.007-.029.157a7.905 7.905 0 0 0-.135 1.554c0 .686.058 1.224.201 1.863a8.504 8.504 0 0 0 5.166 6.027c.368.145.899.307 1.265.387.128.028.631.12.676.125.006 0 .008-.965.006-2.145z"/></svg>