<svg viewBox="0 0 24 24" xmlns="http://www.w3.org/2000/svg" role="img"><path d="M15.756 9.388h-.162c-.035.234-.157.474-.366.719a.836.836 0 0 1-.251-.048.918.918 0 0 1-.233-.106c.198-.08.35-.164.455-.253.095-.079.177-.183.245-.312-.275 0-.455-.04-.539-.118 0-.187.04-.346.122-.476a.52.52 0 0 1 .186-.188c.082 0 .157.033.225.1a.58.58 0 0 1 .156.34h.198c.031 0 .08-.06.145-.176.08-.145.146-.243.196-.294.168 0 .29.041.363.123.068.077.102.202.102.373-.073.179-.149.297-.227.355-.138 0-.275-.068-.412-.203-.06.11-.128.164-.203.164zm-9.297-.971-.156.339a.407.407 0 0 0-.139-.027c-.145 0-.26.103-.349.309.005.03.053.059.146.085l.254.071c.09.035.135.078.135.128 0 .12-.036.276-.11.47a1.9 1.9 0 0 1-.97.277.574.574 0 0 1-.362-.103c-.096-.075-.144-.186-.144-.334 0-.094.023-.207.07-.34a1.56 1.56 0 0 1 .136-.296c.044-.003.076.012.097.046a.777.777 0 0 0-.104.374c0 .205.137.308.41.308.113 0 .253-.02.422-.059.18-.042.314-.09.4-.143a.955.955 0 0 0-.33-.123c-.121-.027-.2-.068-.239-.124 0-.045.018-.13.053-.254.124-.431.316-.647.578-.647.064 0 .131.014.202.043zm.725.88c0 .101-.045.24-.136.416-.087.17-.176.3-.267.389-.06 0-.14-.02-.24-.061a.693.693 0 0 1-.214-.123c.156-.07.295-.152.418-.245.144-.11.229-.208.256-.296a.579.579 0 0 0-.24-.278l.179-.34a.69.69 0 0 1 .17.247c.05.11.074.207.074.29zm1.002.498-.208.193-.205-.2.212-.191zm.85-.408a.273.273 0 0 1-.196-.09.363.363 0 0 1-.105-.19.331.331 0 0 1-.11.187c-.065.062-.13.093-.196.093h-.104a.273.273 0 0 1-.195-.09.363.363 0 0 1-.104-.19.331.331 0 0 1-.11.187c-.066.062-.131.093-.197.093h-.037c-.165 0-.272-.067-.322-.2-.034-.091-.056-.293-.068-.606a4.024 4.024 0 0 0-.019-.323 1.093 1.093 0 0 0-.083-.311l.237-.244a.63.63 0 0 1 .074.286c.003.046.005.145.005.296v.374a.89.89 0 0 0 .024.244c.03.09.088.136.176.136a.234.234 0 0 0 .206-.114.374.374 0 0 0 .06-.21h.11c0 .09.02.165.059.223a.223.223 0 0 0 .199.101h.076a.234.234 0 0 0 .206-.114.373.373 0 0 0 .06-.21h.11c0 .09.02.165.058.223a.223.223 0 0 0 .2.101h.095c.023 0 .071-.004.144-.011a.294.294 0 0 1-.155-.267c0-.117.063-.23.19-.342.118-.102.223-.153.316-.153.148 0 .268.078.362.236.016.026.017.04.004.04a.121.121 0 0 1-.035-.01.561.561 0 0 0-.186-.026.616.616 0 0 0-.377.105c.018.165.115.285.29.358l.488-.124-.15.32c-.17.037-.395.09-.675.16a1.834 1.834 0 0 1-.326.062zm.04-1.172-.18.175-.18-.156-.166.164-.19-.164.179-.18.18.16.166-.167zm1.357-.513c.022.108.033.264.033.466 0 .334-.03.699-.093 1.096l-.13.193-.002-.478c0-.443-.038-.782-.115-1.016zm2.798 1.686h-.066a.257.257 0 0 1-.19-.09.372.372 0 0 1-.097-.193.374.374 0 0 1-.098.188.29.29 0 0 1-.217.095c-.133 0-.218-.084-.255-.253-.068.168-.162.252-.282.252a.232.232 0 0 1-.182-.087.381.381 0 0 1-.078-.15c-.069.158-.168.238-.298.238h-.066c-.145 0-.244-.121-.297-.363a.756.756 0 0 1-.112.248c-.263 0-.437-.059-.522-.176a4.93 4.93 0 0 1 .09-.3A1.38 1.38 0 0 1 11 8.553a1.036 1.036 0 0 0-.042-.135l.148-.223c.045.065.078.175.1.33.03.207.05.325.058.354.032.11.084.165.157.165h.02v.002h.05c.076 0 .136-.037.18-.11a.374.374 0 0 0 .056-.198h.112c0 .205.066.308.199.308.088 0 .153-.04.194-.12a.404.404 0 0 0 .042-.188h.113c0 .095.009.164.027.208.029.067.083.1.164.1.092 0 .16-.04.206-.12a.38.38 0 0 0 .05-.19h.112c0 .207.072.31.216.31h.037l-.07-.002h.127c.084 0 .146-.041.186-.123a.415.415 0 0 0 .041-.184h.112c0 .206.076.309.23.309.101 0 .175-.04.22-.12a.378.378 0 0 0 .046-.19h.112c0 .206.068.308.202.308a.35.35 0 0 0 .237-.076c0-.022-.053-.11-.16-.265l.193-.253c.03.032.06.085.09.16.033.08.05.15.05.204a.733.733 0 0 1-.044.182c-.013.04-.036.1-.069.18a.399.399 0 0 1-.128.146.313.313 0 0 1-.183.065.232.232 0 0 1-.174-.08.32.32 0 0 1-.087-.175c-.047.17-.15.255-.31.255-.118 0-.21-.085-.278-.254-.086.17-.19.254-.31.254zm-2.137-.411-.055-.278a.778.778 0 0 0-.36.193c.05.06.151.09.306.09.04 0 .076-.001.11-.005zm4.325.113a.511.511 0 0 0-.092-.137c-.048-.051-.095-.076-.14-.076-.024 0-.05.02-.077.062a.279.279 0 0 0-.043.095c.009.028.042.05.098.065a.458.458 0 0 0 .124.018.284.284 0 0 0 .13-.027zm.99.087a.468.468 0 0 0 .002-.048c0-.157-.084-.254-.253-.29a.247.247 0 0 0-.097.145c.065.09.18.154.347.193zm-8.143 6.389h-.784a.564.564 0 0 1-.564-.564c0-.063.05-.114.113-.114h1.728c.07 0 .125.056.125.125v1.172c0 .062-.05.113-.113.113H8.77a.504.504 0 0 1-.504-.504zm5.493-2.383c-.02.531.303.749.604.578.273-.154.55-1.089.762-1.883.097-.363.184-.697.24-.914a.34.34 0 0 1 .33-.255h.653a.171.171 0 0 1 .162.224c-.177.541-.645 1.939-1.034 2.786-.317.69-.702.8-1.172.792-.04 0-.34-.028-.497-.244-.158-.217-.248-.538-.166-.793l.01-.031c-.04.096-.081.189-.121.276-.317.69-.702.8-1.173.792-.04 0-.339-.028-.496-.244a1.036 1.036 0 0 1-.197-.592l-.021.044c-.284.574-.702.8-1.173.792-.04 0-.49.05-.82-.256-.192-.178-.363-.596-.403-.903-.054.13-.107.253-.16.367-.316.69-.701.8-1.172.792a.822.822 0 0 1-.497-.244c-.157-.176-.254-.485-.288-.759a9.93 9.93 0 0 1-.094.21c-.316.691-.701.8-1.172.793a.822.822 0 0 1-.497-.244c-.185-.207-.286-.596-.3-.897-.052.124-.104.242-.154.351-.316.69-.565 1.134-1.318 1.652-1.65 1.135-3.414.288-3.583-1.197-.09-.792.353-1.927 1.08-2.9.14-.188.595-.08.595-.08-.057.433-1.65 1.911-1 3.358.201.449 1.175.558 1.895.241.442-.195.831-.584 1.119-1.057.182-.301.547-1.063.76-1.858l.24-.913a.34.34 0 0 1 .33-.256h.754a.17.17 0 0 1 .163.224c-.125.38-.393 1.185-.677 1.923-.06.785.334 1.083.652.903.274-.154.55-1.089.762-1.883.097-.363.184-.697.24-.914a.34.34 0 0 1 .33-.255h.653a.17.17 0 0 1 .162.224 41.085 41.085 0 0 1-.753 2.12c.014.639.367.872.658.708.273-.154.549-1.089.761-1.883.097-.363.184-.697.24-.914a.34.34 0 0 1 .33-.255h.653a.171.171 0 0 1 .163.224 42.56 42.56 0 0 1-.704 1.992c-.013.568.316 1.005.995.825.396-.105.666-1.078.878-1.872.097-.363.185-.697.24-.914a.34.34 0 0 1 .33-.255h.657a.171.171 0 0 1 .163.222c-.145.466-.503 1.575-.864 2.41.043.415.33.573.6.42.273-.154.549-1.089.762-1.883.097-.363.184-.697.24-.914a.34.34 0 0 1 .33-.255h.652a.17.17 0 0 1 .163.224 39.484 39.484 0 0 1-.805 2.25zm-7.096 1.83v.428a.125.125 0 0 1-.125.125H5.131a.564.564 0 0 1-.564-.564.113.113 0 0 1 .112-.114h1.859c.069 0 .125.056.125.125zm16.72-5.753c-.447-.075-1.28-.073-2.157.09-.991.185-1.695.708-2.105 1.298 2.674-.28 2.158 1.631 1.607 2.498-.746 1.176-1.904 1.404-2.545 1.41-.17.002-1.279-.11-1.575-1.036-.3-.943-.034-1.86.274-2.78.273-.818.57-1.432 1.166-2.408.121-.2.34-.32.574-.315l.836.018a.104.104 0 0 1 .077.173c-1.043 1.221-1.881 2.589-2.026 3.546-.139.92.315 1.831 1.34 1.813 1.377-.024 2.109-1.144 1.954-1.489-.334-.741-1.765-.685-2.438-.608a.208.208 0 0 1-.204-.295 5.414 5.414 0 0 1 1.045-1.51c.701-.708 1.753-1.095 2.554-1.35.608-.195 1.624-.198 2.051-.188a.193.193 0 0 1 .188.21c-.027.311-.1.576-.239.791a.357.357 0 0 1-.377.132zM3.928 11.04l-.229.627a.728.728 0 0 1-.684.48h-.168a.452.452 0 0 1-.425-.607l.133-.367a.77.77 0 0 1 .723-.506h.389a.278.278 0 0 1 .26.373z"/></svg>