<svg role="img" viewBox="0 0 24 24" xmlns="http://www.w3.org/2000/svg"><path d="M11.886 23.937c-2.308-1.284-4.055-2.486-5.398-3.714a15.99 15.99 0 0 1-.913-.908c-.83-.902-1.45-1.83-1.88-2.814a8.936 8.936 0 0 1-.484-1.432c-.255-1.034-.355-2.168-.328-3.733.007-.394.013-.632.042-1.484.039-1.166.044-1.392.044-2.093 0-.568-.002-.72-.016-1.092a20.615 20.615 0 0 0-.439-3.622 21.859 21.859 0 0 1 3.068-1.64C7.113.742 8.652.31 10.168.118c.476-.06.89-.094 1.414-.113.171-.006.765-.006.934 0 .301.011.525.024.767.045 2.616.22 5.213 1.134 7.83 2.753.205.127.374.236.374.241l-.03.149a20.483 20.483 0 0 0-.403 3.322c-.018.43-.022.63-.022 1.242 0 .716.004.9.046 2.155.048 1.435.055 1.99.032 2.647-.049 1.417-.254 2.533-.657 3.585a9.073 9.073 0 0 1-.78 1.553c-1.303 2.083-3.67 4.057-7.324 6.11-.192.108-.346.193-.349.193l-.113-.063zm.808-1.558c1.889-1.09 3.395-2.176 4.513-3.255.914-.881 1.583-1.761 2.055-2.703.268-.535.461-1.06.608-1.648.209-.84.302-1.742.302-2.939 0-.426-.008-.767-.038-1.676a55.147 55.147 0 0 1-.045-1.855c-.008-1.386.073-2.513.263-3.655a20 20 0 0 1 .134-.714l.005-.022-.043-.027a19.48 19.48 0 0 0-2.56-1.382c-1.6-.71-3.205-1.128-4.81-1.254-.362-.028-.656-.04-1.034-.039-.27 0-.429.004-.661.015-1.585.08-3.18.442-4.778 1.09a19.405 19.405 0 0 0-3.092 1.599 2.66 2.66 0 0 0 .032.176c.254 1.27.366 2.5.367 4.067 0 .276.001.308.006.285a.404.404 0 0 1 .065-.16c.03-.037.068-.053.14-.06a.263.263 0 0 0 .11-.033c.026-.014.068-.052.068-.062 0-.006-.003-.006-.025-.003-.045.006-.068.004-.088-.008-.018-.01-.035-.036-.035-.052s.011-.03.032-.04a.313.313 0 0 1 .106-.013c.092-.005.107-.01.123-.031.007-.01.008-.013.003-.039a.087.087 0 0 1 0-.043c.025-.085.238-.157.489-.164.063-.002.552.009.555.012 0 0 0 .011-.003.025a.849.849 0 0 0 .01.199.703.703 0 0 0 .066.187l-.207-.11-.228-.118a.204.204 0 0 0-.113-.007.155.155 0 0 0-.082.062.16.16 0 0 0-.03.1c0 .037.044.34.055.383a.193.193 0 0 0 .055.089.229.229 0 0 0 .09.053c.03.011.123.051.193.083l.033.015-.04.007a.56.56 0 0 0-.23.097c-.04.03-.076.018-.067-.023.005-.02.024-.038.04-.038.043 0 .055-.039.029-.095a.37.37 0 0 0-.177-.163c-.192-.099-.381-.082-.65.056a3.054 3.054 0 0 1-.26.128l-.034.013-.003.057c0 .032-.005.154-.007.272-.005.242-.013.537-.034 1.138a46.297 46.297 0 0 0-.036 1.518c-.005.733.02 1.31.08 1.854.164 1.46.593 2.66 1.365 3.812.538.805 1.259 1.594 2.167 2.374 1.005.863 2.248 1.724 3.759 2.603l.16.092c.001 0 .002-1.456.002-3.236v-3.236l-.089-.013a4.956 4.956 0 0 1-1.843-.658 5.017 5.017 0 0 1-1.1-.894 4.984 4.984 0 0 1-1.291-3.976 4.97 4.97 0 0 1 .673-1.979A5.018 5.018 0 0 1 9.75 6.523a4.95 4.95 0 0 1 1.847-.52 4.963 4.963 0 0 1 3.189.831 5.01 5.01 0 0 1 1.83 2.234 5.003 5.003 0 0 1-.905 5.26 4.986 4.986 0 0 1-3.017 1.602l-.09.012-.018.002v3.247c0 1.785.002 3.246.004 3.246s.05-.026.105-.059zm-2.302-1.543c-.04-.208.015-.406.165-.593.058-.073.16-.17.254-.24a.21.21 0 0 0 .034-.028l-.055.006a3.65 3.65 0 0 1-.665.04l.01.04c.058.219.005.35-.164.403a.698.698 0 0 1-.24.024c-.132 0-.15 0-.41-.03a6.827 6.827 0 0 0-.33-.032h-.012l.03-.057c.142-.272.302-.398.526-.414l.04-.003-.045-.01a3.358 3.358 0 0 1-.58-.193l-.05-.022-.047.007c-.135.02-.306.026-.416.013a1.182 1.182 0 0 1-.274-.064 1.782 1.782 0 0 1-.219-.108 9.63 9.63 0 0 1-.325-.217l.067-.008a2.29 2.29 0 0 1 .232-.007 1.5 1.5 0 0 1 .316.02l.063.01a5.157 5.157 0 0 1-.817-.76c-.063-.072-.066-.076-.053-.052.006.01.01.02.01.021a.33.33 0 0 1-.046-.004c-.3-.039-.528-.127-.708-.271a1.81 1.81 0 0 1-.29-.31 11.61 11.61 0 0 0-.102-.125l-.021-.026.015.003c.041.007.15.033.21.049a1.643 1.643 0 0 1 .683.35 10.618 10.618 0 0 1-.495-.72l-.05-.08-.067-.027c-.344-.138-.57-.3-.73-.523a2.75 2.75 0 0 1-.239-.443l-.045-.097.014.006.122.06c.24.118.394.216.55.352.009.007.008.003-.006-.024l-.066-.124c-.086-.16-.189-.361-.31-.608l-.119-.238-.04-.03a1.04 1.04 0 0 1-.088-.078c-.148-.146-.224-.316-.263-.585l-.024-.201a7.113 7.113 0 0 0-.027-.22l.014.03c.04.099.113.185.265.315.164.14.232.226.27.338.025.075.029.1.028.203a.867.867 0 0 1-.028.237l-.007.033.131.261a18.583 18.583 0 0 0 .503.944s-.003-.023-.01-.05a.905.905 0 0 1-.016-.213c.004-.113.018-.195.073-.433a3.076 3.076 0 0 0 .057-.273c.002 0 .004.015.006.034.008.109.048.213.157.4.092.16.129.247.144.335a.724.724 0 0 1-.001.198 1.09 1.09 0 0 1-.145.358l-.028.046.063.099c.239.376.48.705.724.99.183.212.389.42.583.585.168.143.419.325.489.355.065.027.138.068.216.12a.917.917 0 0 0 .1.059 3.093 3.093 0 0 0 1 .29 2.356 2.356 0 0 1-.183-.092 1.576 1.576 0 0 1-.35-.26 2.068 2.068 0 0 1-.33-.431 58.806 58.806 0 0 0-.154-.245l-.008-.013.01.004c.024.01.123.057.194.093.252.126.443.261.614.432.15.15.257.297.357.493l.018.034.046.002a3.709 3.709 0 0 0 .815-.058l.024-.005-.04-.003a1.385 1.385 0 0 1-.715-.264c-.122-.087-.21-.166-.48-.426l-.14-.133-.043-.041.038.023c.078.047.176.087.274.113.064.017.105.025.249.05.07.013.148.027.174.033.225.05.37.128.517.28.078.081.144.169.206.274.048.082.044.078.061.074a7.28 7.28 0 0 0 .19-.044c.006-.002.007 0 .007.035v.038l-.07.017-.093.021-.02.005.02.057c.023.066.048.16.058.216.01.061.01.158-.002.204-.039.155-.155.25-.43.355-.052.02-.293.104-.298.104a.38.38 0 0 1-.008-.035zm.25-.241c.047-.034.117-.117.207-.246a1.29 1.29 0 0 0 .128-.21c-.008-.007-.193.197-.293.326-.056.072-.09.128-.084.138.005.008.025.004.042-.009zm-1.118-.308a1.51 1.51 0 0 0 .399-.097c.024-.013.046-.03.046-.037 0-.009-.117.004-.232.026a6.082 6.082 0 0 0-.442.103c-.003.003.012.01.033.014.02.004.136 0 .196-.009zm.245-.589a2.631 2.631 0 0 0-.47-.37c-.052-.033-.059-.034-.043-.004.042.084.239.246.404.334.039.021.112.055.118.055.002 0-.002-.007-.009-.015zm1.007-.006c.007-.005.007-.006-.006-.014a7.096 7.096 0 0 0-.328-.16c-.233-.106-.408-.174-.42-.163-.01.01.196.131.352.206.227.108.37.155.403.131zm-2.133-.057c.014-.003.014-.004-.028-.02a1.561 1.561 0 0 0-.414-.087 4.55 4.55 0 0 0-.23-.017.65.65 0 0 0 .109.044c.12.04.276.073.407.084.027.002.14 0 .156-.005zm-1.47-1.185a1.777 1.777 0 0 0-.142-.12 3.137 3.137 0 0 0-.216-.146c-.077-.047-.167-.09-.167-.08 0 .003.044.045.08.076a2.104 2.104 0 0 0 .453.28l-.008-.01zm-.908-1.315c-.011-.063-.086-.167-.218-.303a1.068 1.068 0 0 0-.19-.169c-.01.009.065.106.19.249.086.098.214.238.218.238.002 0 .002-.007 0-.015zm.417-.118a2.017 2.017 0 0 0-.084-.531c-.005-.006-.006.004-.004.087.005.215.043.497.073.53.013.015.015.003.015-.086zm-.947-1.436a1.437 1.437 0 0 0-.238-.48 2.234 2.234 0 0 0-.046-.062l-.008-.01.006.032c.027.154.098.303.227.476a.77.77 0 0 0 .07.087l-.01-.043zm7.731 5.26c-.328-.113-.446-.17-.535-.255a.345.345 0 0 1-.11-.275c0-.09.014-.167.056-.291l.026-.078c.002-.005-.003-.008-.029-.014a4.615 4.615 0 0 1-.146-.034l-.015-.004v-.075l.045.012c.085.02.17.04.176.037a.168.168 0 0 0 .025-.039 1.98 1.98 0 0 1 .067-.107c.14-.21.283-.338.468-.417a1.6 1.6 0 0 1 .385-.098l.176-.032c.155-.035.257-.076.379-.152a13.375 13.375 0 0 0-.258.249 4.037 4.037 0 0 1-.263.241 1.685 1.685 0 0 1-.347.233c-.156.078-.31.121-.486.137l-.06.005.038.007a3.666 3.666 0 0 0 .762.057l.087-.003.025-.05c.2-.399.531-.704 1.017-.938.075-.036.147-.07.147-.067l-.018.031-.1.16c-.126.204-.18.282-.262.38a1.677 1.677 0 0 1-.585.44.63.63 0 0 0-.058.028 3.141 3.141 0 0 0 .886-.238c.1-.044.162-.075.222-.116a1.32 1.32 0 0 1 .196-.11.983.983 0 0 0 .166-.101c.337-.233.662-.537.977-.914a8.59 8.59 0 0 0 .705-.983l.023-.037-.028-.047a1.098 1.098 0 0 1-.14-.336.728.728 0 0 1-.009-.195c.014-.104.05-.19.148-.357.111-.191.146-.282.16-.417l.003-.028.009.054c.01.063.012.073.051.242.055.238.066.308.07.43a.875.875 0 0 1-.026.253 18.575 18.575 0 0 0 .49-.921c.135-.267.145-.289.141-.3a.063.063 0 0 0-.005-.015.406.406 0 0 0-.1.04 1.747 1.747 0 0 1-.207.082 2.71 2.71 0 0 0-.247.085c-.044.02-.075.022-.104.008-.05-.025-.067-.082-.038-.139.035-.069.054-.26.065-.624.002-.082.005-.169.007-.193l.002-.045.144-.073c.165-.083.184-.093.247-.136.085-.057.13-.101.14-.138.035-.118.248-.319.337-.319.012 0 .02.003.034.014.04.03.07.013.146-.08a.493.493 0 0 1 .109-.11.129.129 0 0 1 .09-.023c.053.003.106.027.125.055.012.018.01.04-.005.084a.497.497 0 0 0-.038.125c0 .017 0 .018.045.059.127.115.178.134.223.083a.23.23 0 0 0 .053-.138c.002-.023.009-.064.014-.09.01-.052.066-.251.07-.251.003 0 .083.173.1.214.031.08.052.169.06.253.008.095.048.22.126.4.089.204.118.314.118.447a.632.632 0 0 1-.107.356 3.242 3.242 0 0 1-.388.494.439.439 0 0 1-.06.05.724.724 0 0 1-.141.034.514.514 0 0 1-.17-.008.147.147 0 0 1-.058-.037.285.285 0 0 1-.033-.068.682.682 0 0 1-.03-.166c-.007-.079-.011-.102-.023-.114-.01-.012-.018-.01-.053.01a.148.148 0 0 1-.048.02c-.025.004-.04-.012-.066-.065a.175.175 0 0 0-.043-.061.224.224 0 0 0-.14-.055c-.03-.003-.033-.002-.043.007a1.425 1.425 0 0 0-.075.144c-.115.239-.348.692-.43.837-.014.026-.013.025.04-.02.089-.076.204-.154.34-.23a5.89 5.89 0 0 1 .306-.153s-.008.021-.02.045a5.364 5.364 0 0 0-.052.106 4.56 4.56 0 0 1-.134.266c-.03.052-.086.135-.12.178a1.63 1.63 0 0 1-.17.173 1.653 1.653 0 0 1-.193.136 2.61 2.61 0 0 1-.31.152.768.768 0 0 0-.084.037 10.155 10.155 0 0 1-.548.8l.021-.017c.168-.15.408-.27.691-.344.072-.018.19-.044.195-.043.002.001-.005.012-.015.024l-.096.118c-.104.13-.143.174-.207.236a1.011 1.011 0 0 1-.171.14c-.133.089-.288.15-.478.188a1.93 1.93 0 0 1-.194.03c-.001-.002.003-.011.009-.022l.01-.02-.019.023-.07.08a5.065 5.065 0 0 1-.794.729.254.254 0 0 0 .047-.006c.098-.018.151-.023.295-.025.129-.002.252.003.327.014l.017.002-.157.105c-.159.105-.2.131-.282.172-.128.063-.252.1-.4.114a1.79 1.79 0 0 1-.398-.016l-.046-.007-.05.023c-.177.077-.34.133-.531.181-.08.02-.09.024-.07.024.03 0 .096.01.132.02.161.046.3.181.41.4l.026.052-.06.005c-.034.003-.151.014-.261.026-.275.03-.344.035-.462.033-.168-.004-.257-.028-.322-.09-.074-.07-.09-.178-.05-.336l.01-.041a.99.99 0 0 0-.097-.001 3.712 3.712 0 0 1-.622-.047l.041.034c.319.241.46.51.417.794a.215.215 0 0 1-.015.068l-.088-.03zm-.11-.24c.006-.015-.053-.102-.146-.214a1.918 1.918 0 0 0-.231-.247 1.983 1.983 0 0 0 .327.449c.025.019.046.024.05.012zm1.295-.31c.007-.003.013-.006.013-.008 0-.003-.14-.038-.265-.067a2.644 2.644 0 0 0-.368-.065c-.045-.003-.045-.003-.04.006.025.049.283.117.52.139a.74.74 0 0 0 .14-.005zm-.42-.6a1.57 1.57 0 0 0 .323-.207c.036-.03.1-.094.12-.12.017-.021.04-.063.036-.066a1.762 1.762 0 0 0-.235.154 2.304 2.304 0 0 0-.282.24c-.023.027-.022.027.039 0zm-.948-.007a2.97 2.97 0 0 0 .632-.31c.022-.016.024-.02.017-.02-.019-.003-.11.03-.254.091a7.057 7.057 0 0 0-.476.224c-.028.017-.03.018-.022.024.011.008.06.004.103-.01zm2.258-.053c.068-.009.178-.03.25-.05a.95.95 0 0 0 .195-.07.075.075 0 0 0-.023 0l-.11.008c-.157.012-.27.027-.37.052a.765.765 0 0 0-.177.06c.01.011.152.011.235 0zm1.302-1.203a1.87 1.87 0 0 0 .447-.305c.028-.03.025-.03-.04.002a2.244 2.244 0 0 0-.471.33c0 .004.013-.001.064-.027zm.96-1.396c.127-.142.208-.236.256-.3a.26.26 0 0 0 .045-.073 1.038 1.038 0 0 0-.164.142c-.156.157-.248.282-.248.338v.013l.021-.022.09-.098zm-.508.062c.021-.04.045-.188.06-.37.008-.08.012-.198.009-.223l-.003-.022-.005.012a2.13 2.13 0 0 0-.071.365c-.017.13-.018.254-.002.254.002 0 .007-.007.011-.016zm-8.424 2.53c-.322-.185-.535-.389-.69-.659a3.176 3.176 0 0 1-.19-.407l-.07-.168-.01-.023.008.005c.018.01.146.098.2.137.22.165.39.334.527.524a1.876 1.876 0 0 1 .287.625.838.838 0 0 1-.061-.034zm-.286-.364a1.867 1.867 0 0 0-.296-.418.733.733 0 0 0-.128-.104l-.02-.012.011.02a3.107 3.107 0 0 0 .454.561l-.02-.047zm6.44.385a2.15 2.15 0 0 1 .072-.216c.138-.352.373-.645.732-.912.063-.048.213-.15.216-.148 0 0-.004.014-.012.029l-.077.184c-.13.312-.199.437-.324.595a2.23 2.23 0 0 1-.227.229c-.11.089-.23.17-.35.235l-.032.018zm.399-.41a2.885 2.885 0 0 0 .388-.505.136.136 0 0 0-.027.015c-.115.074-.265.254-.379.452a.431.431 0 0 0-.056.116l.074-.077zm-7.945-.745a1.62 1.62 0 0 1-.24-.357 1.13 1.13 0 0 1-.116-.529c0-.092.007-.296.013-.357l.003-.03.043.058c.281.38.401.73.372 1.083a1.376 1.376 0 0 1-.028.177c-.002.004-.016-.009-.047-.045zm-.075-.36a3.18 3.18 0 0 1-.03-.153c-.045-.243-.068-.324-.102-.353-.012-.01-.013-.01-.015-.003a.37.37 0 0 0 .003.114 2 2 0 0 0 .145.457l.007.01v-.015a.244.244 0 0 0-.008-.056zm9.023.39a1.156 1.156 0 0 1-.026-.269c0-.101.005-.155.022-.242.039-.198.13-.408.269-.615a2.09 2.09 0 0 1 .127-.176.73.73 0 0 1 .005.085c.001.047.004.118.007.157.014.27-.013.45-.095.636-.044.099-.099.19-.175.292-.038.05-.117.144-.126.15-.002 0-.006-.006-.008-.017zm.136-.348c.05-.106.119-.332.136-.447a.358.358 0 0 0 0-.105c-.005-.01-.025.01-.04.041-.023.053-.04.121-.076.32a3.766 3.766 0 0 1-.033.162c-.009.032-.01.056-.004.056a.096.096 0 0 0 .017-.027zm-8.8-.782a.318.318 0 0 1-.086-.074.588.588 0 0 1-.111-.199.384.384 0 0 0-.06-.128c-.05-.077-.055-.098-.028-.105.025-.007.03-.014.03-.054a.543.543 0 0 0-.091-.271.595.595 0 0 1-.064-.23 4.308 4.308 0 0 1-.026-.407c-.035-.809-.058-1.065-.11-1.222a.36.36 0 0 0-.15-.199.5.5 0 0 1-.066-.056c-.12-.144-.38-.663-.415-.826a.286.286 0 0 1 0-.096 1.32 1.32 0 0 1 .065-.367 1.89 1.89 0 0 1 .058-.124.644.644 0 0 0 .068-.173.684.684 0 0 0-.003-.18.508.508 0 0 1-.003-.156c.004-.004.007-.004.017 0 .029.012.055-.008.102-.08a.329.329 0 0 1 .112-.114c.02-.01.048-.014.053-.006l.024.081a5.158 5.158 0 0 0 1.703 2.562c.047.038.057.047.053.052-.008.01-.025.016-.048.018-.052.005-.12.046-.182.109-.07.07-.095.116-.102.189a2.163 2.163 0 0 1-.175.526c-.031.065-.05.092-.075.104-.023.011-.04.01-.099-.004-.066-.016-.08-.016-.08.002 0 .005.012.033.027.063a.31.31 0 0 1 .044.128.14.14 0 0 1-.033.106c-.022.025-.048.037-.092.042a.156.156 0 0 0-.045.01c-.027.013-.039.043-.042.103-.004.062-.017.078-.053.067-.042-.012-.057-.008-.066.018-.008.026.003.061.028.084.021.02.026.032.025.072 0 .027-.004.05-.014.09-.029.11-.03.158-.005.212a.28.28 0 0 1 .026.117.82.82 0 0 1-.023.248c-.009.03-.027.067-.037.072-.012.006-.032.005-.05-.004zm11.93-3.29a.383.383 0 0 1-.213-.163c-.03-.046-.044-.06-.063-.06-.019 0-.029.005-.086.041-.08.052-.107.06-.15.043-.084-.031-.157-.118-.166-.197a.147.147 0 0 0-.05-.095.464.464 0 0 0-.107-.078.398.398 0 0 1-.102-.076c-.07-.072-.103-.156-.086-.215.008-.029.01-.03.056-.018a.126.126 0 0 1 .047.017c.01.011.03.06.043.096.013.04.02.05.031.05.013 0 .025-.01.06-.045a.226.226 0 0 1 .044-.037c.063-.029.142-.005.312.096.18.106.244.177.295.322a.552.552 0 0 0 .143.247c.03.026.04.037.046.05.004.01.003.013-.004.02-.01.009-.021.01-.05.002zm-2.6-.452c-.038-.02-.065-.05-.102-.113a5.054 5.054 0 0 1-.152-.312 2.686 2.686 0 0 0-.113-.223l-.01-.018.02-.051a.789.789 0 0 1 .024-.053.791.791 0 0 1 .113.122c.094.117.172.237.234.36.021.044.046.1.054.125.026.077.024.141-.005.164-.014.01-.042.01-.063 0zm.491-.15a.415.415 0 0 1-.088-.027.112.112 0 0 1-.032-.027.723.723 0 0 1-.088-.22.192.192 0 0 1 .006-.094.264.264 0 0 1 .05-.056 3.51 3.51 0 0 0 .2-.206c.101-.115.14-.15.177-.16a.066.066 0 0 1 .023-.003c.007.002.006.005-.01.025a.157.157 0 0 0-.038.133c.006.035.014.05.065.127l.04.061-.007.045c-.03.203-.1.35-.191.393a.107.107 0 0 1-.061.01.51.51 0 0 1-.046-.001zm-13.006-.17a1.752 1.752 0 0 1-.16-.163c0-.002.002-.006.005-.009.003-.003.069-.02.145-.04l.362-.092c.122-.031.23-.06.238-.064.05-.022.072-.066.061-.127-.004-.024-.006-.028-.013-.029-.01 0-.01.008-.024-.149a1.969 1.969 0 0 0-.056-.36.368.368 0 0 0-.032-.091 4.646 4.646 0 0 0-.066.243c-.015.074-.009.103.034.163.04.058.044.064.041.082-.005.035-.039.05-.089.037a.523.523 0 0 1-.234-.147.236.236 0 0 1-.056-.156c0-.065.016-.122.067-.237.036-.083.07-.167.08-.205a1.32 1.32 0 0 0 .031-.186c.007-.064.012-.076.03-.076.007 0 .245.077.251.082l.007.047c.018.132.045.187.157.316a.759.759 0 0 1 .134.18.74.74 0 0 1 .07.272c.008.087.01.092.016.092l.006.001.014.07c.029.137.022.22-.026.294a.265.265 0 0 1-.086.082.616.616 0 0 1-.187.068c-.186.05-.476.14-.561.175-.063.025-.053.03-.159-.072zm14.28-.174a1.198 1.198 0 0 1-.165-.036c-.134-.043-.202-.103-.23-.204a.71.71 0 0 1-.002-.219l.011-.08a.226.226 0 0 1 .033-.084.344.344 0 0 1 .081-.084l.02-.013-.024-.026a.291.291 0 0 1-.076-.152.95.95 0 0 1 .01-.201.2.2 0 0 1 .056-.095.321.321 0 0 1 .036-.033c.007-.003.004-.008-.027-.037-.056-.056-.07-.098-.07-.205v-.063h.05v-.051c0-.06.005-.077.038-.127a.47.47 0 0 0 .02-.032.158.158 0 0 0-.027-.018.153.153 0 0 1-.066-.067c-.008-.017-.01-.026-.01-.066 0-.041.002-.048.011-.068a.303.303 0 0 1 .025-.041.12.12 0 0 0 .014-.02c-.053-.025-.079-.05-.088-.082a.297.297 0 0 1 .003-.124.623.623 0 0 1-.2.001c-.142-.031-.237-.13-.293-.303a1.18 1.18 0 0 1-.05-.304c0-.147.043-.26.126-.332a.403.403 0 0 1 .136-.07.69.69 0 0 1 .258-.005c.11.015.16.043.16.087 0 .045-.04.063-.148.063-.072 0-.09.005-.12.03-.042.038-.058.092-.057.194 0 .2.075.426.151.462.052.025.099-.018.179-.167a.147.147 0 0 1 .025-.039c.004 0 .255.083.272.09.004.002.007.005.007.008a.419.419 0 0 1-.03.055c-.065.106-.085.159-.08.218.001.034.008.052.024.07.015.016.03.02.082.025.057.005.074.01.085.032a.08.08 0 0 1 .007.03c0 .024-.016.04-.058.057-.082.034-.092.043-.092.089 0 .03.011.054.03.068a.21.21 0 0 0 .094.016c.044 0 .074.022.074.053 0 .014-.002.019-.02.035a.187.187 0 0 1-.055.034c-.063.026-.074.048-.063.116.01.058.017.05-.065.067l-.071.015h.089l.002.053c.003.061.009.088.028.112.018.024.032.032.086.051.026.01.052.02.06.025a.056.056 0 0 1 .016.076c-.01.015-.024.021-.091.04-.054.016-.07.027-.086.065-.011.024-.012.029-.015.115a.51.51 0 0 0 0 .105c.009.028.033.048.07.059.01.003.144.01.305.016l.297.014a.757.757 0 0 1 .081.152c.04.083.073.154.073.157 0 .005-.003.006-.017.004a88.516 88.516 0 0 0-.386-.037c-.402-.037-.391-.037-.425-.015-.024.016-.033.032-.037.068l-.018.127c-.018.118-.018.132-.004.143.013.01.023.008.054-.01a1.18 1.18 0 0 0 .122-.093c.015-.013.029-.021.034-.021.007 0 .035.026.114.109a2.7 2.7 0 0 1 .107.116c.006.012.001.017-.032.036a.554.554 0 0 1-.358.065zm-.678-.047a.965.965 0 0 1-.08-.126c0-.005.02-.023.057-.053l.055-.045-.04-.06a.343.343 0 0 1-.038-.07c0-.003.027-.028.06-.055.049-.04.061-.047.066-.044a.87.87 0 0 1 .09.132c0 .006-.016.02-.051.05a3.58 3.58 0 0 1-.057.046c-.005.004 0 .013.035.064.022.032.04.062.04.066a.952.952 0 0 1-.122.105c-.004.002-.009 0-.015-.01zm-1.138-.038c-.065-.046-.187-.266-.187-.336a.169.169 0 0 0-.009-.04l-.009-.027.013-.04c.022-.068.018-.065.038-.028l.045.076c.045.07.056.09.088.154a.59.59 0 0 1 .065.197c.003.054-.011.068-.045.044zm.974-.1a.985.985 0 0 1-.083-.134.665.665 0 0 1 .126-.101c.005.002.072.097.085.12.003.007.004.013.002.018a1.225 1.225 0 0 1-.118.1c-.005.003-.008.002-.012-.003zm-11.45-.38a.815.815 0 0 1-.215-.198.805.805 0 0 1-.053-.09.556.556 0 0 0-.042-.074.346.346 0 0 0-.144-.108c-.051-.02-.06-.025-.06-.034a.2.2 0 0 0-.035-.07 1.763 1.763 0 0 0-.163-.145.157.157 0 0 0-.176 0l-.015.01-.065-.033a1.252 1.252 0 0 1-.206-.131.307.307 0 0 1-.072-.075.11.11 0 0 1 .035-.015c.167-.054.272-.195.288-.389l.01-.12c.014-.175.004-.27-.04-.364a.405.405 0 0 0-.248-.212.958.958 0 0 0-.517-.033c-.022.006-.026.007-.028.002a.745.745 0 0 0-.03-.05.461.461 0 0 1-.067-.147.685.685 0 0 1 .03-.381c.017-.048.061-.158.067-.164l.02.01a.15.15 0 0 0 .039.018c.01.003.018.007.017.01-.024.052-.024.054-.024.105 0 .043.002.054.01.074.047.12.23.246.416.285a.66.66 0 0 0 .188.002.43.43 0 0 0 .228-.13c.094-.1.169-.268.227-.51.05-.203.055-.366.016-.5a.647.647 0 0 0-.09-.18l.05-.001a.376.376 0 0 0 .302-.166 1.475 1.475 0 0 0 .213-.552c.003-.033.005-.038.025-.07a1.11 1.11 0 0 0 .113-.23c.002-.016.004-.017.012-.014a.44.44 0 0 0 .06.004c.029 0 .064.003.078.005a.133.133 0 0 0 .082-.012.53.53 0 0 0 .1-.071c.031-.031.026-.032-.039-.007a.371.371 0 0 1-.068.02l-.023.003.02-.027a4.33 4.33 0 0 0 .146-.219l.032-.05.044-.003c.088-.007.101-.003.116.027a.316.316 0 0 1 .012.132c-.009.06-.03.09-.087.118-.029.015-.042.024-.042.03 0 .006.032.019.078.03.039.01.052.011.108.011.053 0 .07-.002.1-.009a.246.246 0 0 0 .109-.052l.016-.017-.001-.032c-.001-.04.005-.053.04-.086.025-.024.068-.05.082-.05.013 0 .018.01.021.05.002.02.006.044.01.054.007.018.023.032.034.032.01 0 .027.021.032.04a.55.55 0 0 1 .007.054.137.137 0 0 0 .008.046c.005.007.006.006.022-.002a.655.655 0 0 0 .063-.047c.077-.064.126-.093.152-.09.017.002.023.019.018.044-.021.102-.085.151-.23.182a.406.406 0 0 0-.182.072.69.69 0 0 0-.03.033c-.022.027-.054.042-.104.051-.051.01-.076.021-.085.042a.353.353 0 0 1-.115.093.812.812 0 0 0-.138.095c-.126.117-.08.242.13.348a.39.39 0 0 0 .106.041c.03 0 .047.025.05.077l.001.035-.032.075a5.064 5.064 0 0 0-.169.46l-.026.085c-.001.004-.005.004-.016-.001a.055.055 0 0 0-.031-.003c-.015.002-.02 0-.03-.01-.017-.013-.03-.04-.042-.08-.017-.063-.041-.09-.091-.104a.101.101 0 0 0-.052-.002c-.055.01-.104.042-.16.105-.026.03-.034.044-.026.044l.04-.013a.13.13 0 0 1 .067-.01c.086.005.18.063.195.12.004.014.003.023-.002.052-.008.04-.007.07.004.085.011.017.035.013.073-.014a.193.193 0 0 1 .03-.018c0 .004-.025.095-.027.098 0 .002-.008.004-.015.006a.23.23 0 0 0-.047.019c-.045.023-.052.039-.019.048.01.003.028.004.042.002.019-.002.025-.001.023.003a5.183 5.183 0 0 0-.103.658l-.004.056-.023.024a.364.364 0 0 0-.086.128.784.784 0 0 0-.024.22c-.008.194-.011.227-.024.227-.009 0-.034-.033-.048-.063a.443.443 0 0 1-.034-.134.188.188 0 0 0-.073-.141.317.317 0 0 0-.11-.057.211.211 0 0 0-.1 0 .158.158 0 0 0-.044.027.138.138 0 0 1-.102.036.199.199 0 0 1-.054-.007c-.08-.026-.168 0-.242.074-.105.104-.164.275-.171.497a.497.497 0 0 0 .037.238c.027.056.065.084.114.084.065 0 .134-.05.216-.16.064-.084.107-.12.14-.118.027.002.04.04.034.093a.996.996 0 0 1-.08.268l-.042.105.15.001.148.001-.003.027-.013.123c-.01.101-.013.207-.006.257.016.108.057.173.111.174.02 0 .038.009.05.024.01.012.012.016.01.038a.076.076 0 0 1-.006.032c-.008.009-.032.008-.055-.004zm.168-2.743a.052.052 0 0 0 .016-.029.377.377 0 0 1 .079-.162c.064-.09.07-.112.03-.112-.047 0-.112.076-.16.187-.037.087-.034.128.01.13.009 0 .016-.005.025-.014zm10.407 2.622c-.02-.004-.058-.044-.139-.151l-.042-.057.01-.038c.058-.227.11-.54.131-.792.015-.171.017-.222.017-.449a5.098 5.098 0 0 0-1.239-3.34c-.095-.11-.092-.107-.083-.103.014.006.29.008.375.003l.079-.005.05.037a.81.81 0 0 0 .23.127.538.538 0 0 0 .472-.058l.021-.014v.027a.51.51 0 0 0 .084.253c.01.016.143.2.18.248 0 .001.007-.003.015-.009l.014-.01.017.007.017.008.01.053a.79.79 0 0 0 .29.473c.03.02.034.025.032.032a.326.326 0 0 0-.003.058c0 .044-.001.05-.007.051-.004.001-.007.004-.007.005 0 .006.11.269.126.304.09.185.224.3.386.334l.034.007v.021a.542.542 0 0 1-.088.255c-.025.03-.04.034-.075.023-.038-.012-.053.002-.059.054-.003.032-.004.033-.018.045a.498.498 0 0 0-.153.227l-.024-.019a.242.242 0 0 0-.042-.03c-.025-.013-.05-.013-.096.001-.027.008-.031.01-.042.004-.017-.008-.022-.024-.025-.074-.003-.048-.006-.057-.02-.05a.785.785 0 0 0-.124.158c-.02.037-.016.055.016.085.035.032.087.042.144.027.02-.005.029-.006.042-.002.031.01.05.032.05.062 0 .017-.005.021-.026.025-.036.006-.05.029-.05.079 0 .06.026.126.084.216a.65.65 0 0 1 .052.649.371.371 0 0 1-.253.204.89.89 0 0 0-.122.048.311.311 0 0 1-.14.04c-.073.007-.1.02-.12.063-.01.02-.011.027-.011.057 0 .057.02.105.073.177a.704.704 0 0 1 .155.348.303.303 0 0 1-.071.219.464.464 0 0 1-.094.082c-.016.007-.017.008-.033.005zm-11.367-.204a3.082 3.082 0 0 1-.114-.1.024.024 0 0 1-.005-.015.99.99 0 0 1 .112-.155c.004 0 .035.027.071.059.047.042.065.06.065.067 0 .008-.095.145-.105.152-.007.005-.01.004-.024-.008zm12.437-.174a.46.46 0 0 1-.066-.08c0-.002.021-.028.048-.057l.048-.054-.044-.048a.806.806 0 0 1-.048-.057c-.004-.008-.008-.003.074-.097.024-.027.034-.034.042-.03.011.008.104.113.104.12a.32.32 0 0 1-.044.056.89.89 0 0 0-.047.054.272.272 0 0 0 .045.055.358.358 0 0 1 .046.056.882.882 0 0 1-.112.126.203.203 0 0 1-.046-.044zm-13.75-.58c-.01-.005-.028-.032-.097-.145-.087-.142-.097-.16-.094-.17.003-.008.033-.007.427.004.222.006.337.008.35.006.045-.008.072-.037.08-.083.004-.032.023-.227.023-.252 0-.038-.022-.048-.056-.026a.907.907 0 0 0-.115.094c-.025.024-.04.035-.046.035a.677.677 0 0 1-.117-.101 2.582 2.582 0 0 1-.114-.11c-.007-.012-.003-.017.032-.04a.532.532 0 0 1 .3-.086.8.8 0 0 1 .343.074c.1.055.144.169.13.332a3.843 3.843 0 0 0-.009.12.537.537 0 0 1-.03.167.247.247 0 0 1-.064.1.232.232 0 0 1-.094.052c-.049.017-.09.02-.226.017a7.117 7.117 0 0 0-.587.017c-.017.002-.025.001-.036-.005zm-.053-.586l-.055-.072c-.031-.042-.04-.057-.038-.063a.989.989 0 0 1 .137-.127c.008 0 .113.14.113.151a.907.907 0 0 1-.137.128c-.004 0-.012-.008-.02-.017zm.954-.797a.556.556 0 0 1-.3-.144c-.032-.03-.046-.057-.043-.079.007-.042.035-.048.112-.024a.178.178 0 0 0 .112 0c.04-.018.084-.07.117-.142a1.3 1.3 0 0 0 .077-.22c.06-.21.082-.304.082-.362 0-.031-.01-.064-.02-.068-.018-.006-.077.026-.133.073a.137.137 0 0 1-.04.025 3.554 3.554 0 0 1-.215-.24c-.006-.014.069-.055.133-.074a.467.467 0 0 1 .184-.008c.044.008.106.03.153.053a.418.418 0 0 1 .237.275c.01.039.01.045.01.137a.69.69 0 0 1-.008.148 1.52 1.52 0 0 1-.171.507.494.494 0 0 1-.054.064.222.222 0 0 1-.069.051.283.283 0 0 1-.164.029zm-.192-.392l-.033-.01-.023-.007.017-.011a.2.2 0 0 0 .066-.079.167.167 0 0 0 .006-.109l-.008-.025.024-.022a.152.152 0 0 0 .05-.109c.002-.032.003-.033.011-.031l.03.005c.016.002.02.004.019.009l-.027.095a1.583 1.583 0 0 1-.066.207.293.293 0 0 1-.053.09.072.072 0 0 1-.013-.003zm-.29-.156a.404.404 0 0 1-.033-.077.396.396 0 0 1 .06-.041l.058-.037a.547.547 0 0 0-.03-.065.352.352 0 0 1-.028-.07c.002-.005.12-.079.136-.085.005-.002.012.007.03.045.045.097.05.107.043.114a.497.497 0 0 1-.06.038.313.313 0 0 0-.054.036c0 .002.013.032.03.066.021.045.028.064.026.069a.778.778 0 0 1-.134.079c-.007 0-.015-.014-.044-.071zm13.335-.262a.329.329 0 0 1-.188-.107.72.72 0 0 1-.144-.246c-.022-.053-.026-.065-.021-.068.005-.003.004-.008-.008-.031-.036-.071-.034-.139.008-.223l.014-.03s-.007-.003-.017-.004a.323.323 0 0 1-.133-.06.662.662 0 0 1-.203-.313.446.446 0 0 1-.022-.158l.002-.042-.038-.006c-.063-.01-.098-.032-.127-.078-.012-.018-.016-.022-.02-.018-.01.007-.076-.086-.106-.146a.285.285 0 0 1 .01-.3.557.557 0 0 1 .12-.13c.138-.127.267-.25.38-.366.063-.063.119-.117.125-.12.009-.003.027.001.115.029.222.069.226.07.215.086a.564.564 0 0 1-.044.042c-.198.174-.515.455-.534.473-.043.043-.054.087-.03.134a.155.155 0 0 0 .02.035c.008.01.011.011.018.007.008-.004.01-.002.026.026.021.039.034.053.053.062.023.01.04.01.103-.006.068-.017.08-.017.095-.004.009.01.01.013.008.027-.003.02-.014.038-.049.085a.437.437 0 0 0-.036.056c-.012.025-.013.052-.002.058a.537.537 0 0 0 .055.012l.106.018c.23.04.36.111.42.227.021.04.029.07.029.112a.231.231 0 0 1-.072.172.285.285 0 0 1-.152.082c-.02.004-.025.006-.027.013-.003.012.004.032.025.069.02.034.02.036.011.042-.005.004 0 .016.028.085.065.158.111.254.14.295.022.029.043.038.062.025.012-.01.011-.026-.004-.045a.769.769 0 0 1-.075-.156.209.209 0 0 1-.015-.094c0-.048 0-.05.013-.076a.173.173 0 0 1 .091-.082.404.404 0 0 1 .174-.04c.159-.007.237.049.253.177.011.091-.037.195-.138.295a.77.77 0 0 1-.355.2.49.49 0 0 1-.158.006zm.412-.343c.02-.021.025-.092.01-.126-.014-.028-.04-.05-.059-.05a.047.047 0 0 0-.024.007c-.01.006-.01.009-.007.031a.423.423 0 0 0 .048.129c.012.02.022.022.033.01zm-.522-.56c.026-.023.033-.04.031-.075-.005-.076-.069-.143-.183-.191a.961.961 0 0 0-.12-.041l-.012-.003.01.02c.082.15.153.246.214.288.032.021.039.022.06.002zm.83.684c.007-.01.013-.02.014-.018.002.002-.007.024-.014.031-.012.014-.012.007 0-.013zM5.83 8.792a1.202 1.202 0 0 1-.194-.088 7.033 7.033 0 0 0-.493-.228c-.075-.03-.066-.01-.097-.216a2.068 2.068 0 0 1-.023-.185c.002-.01.004-.01.011-.01l.327.172.343.18c.046.022.08.02.11-.008.017-.014.04-.055.037-.063 0-.003.008-.021.02-.041.017-.032.032-.077.027-.082-.001 0-.015 0-.032.004-.054.01-.076.001-.125-.045a.368.368 0 0 1-.083-.113.492.492 0 0 1-.045-.314.282.282 0 0 1 .273-.23.26.26 0 0 1 .117.016c.022.01.047.035.047.048 0 .012-.02.04-.054.08a.54.54 0 0 0-.133.21c-.034.1-.032.16.006.176.013.006.016.006.032 0 .068-.026.155-.16.234-.357a.678.678 0 0 1 .034-.078c.004-.004.008-.005.013-.002.007.003.096.102.172.19.038.045.07.087.07.094 0 .014-.097.189-.128.231-.012.018-.013.02-.013.05a.84.84 0 0 1-.078.298 9.46 9.46 0 0 0-.046.103c-.055.124-.117.19-.2.212a.286.286 0 0 1-.129-.004zm13.186-.046a.738.738 0 0 1-.082-.037c-.005-.005-.003-.016.023-.094a.672.672 0 0 1 .034-.094c.005-.004.01-.003.03.003a.886.886 0 0 1 .138.062c.003.005-.002.027-.025.096-.025.078-.033.096-.04.095l-.078-.031zm-.293-.253l-.057-.006-.04-.003.005-.03a.244.244 0 0 0-.006-.117c-.015-.035-.046-.057-.06-.044-.003.003-.007-.007-.013-.033a.43.43 0 0 0-.028-.079l-.02-.041.01.003a.241.241 0 0 0 .093.003.152.152 0 0 0 .082-.047c.03-.03.037-.052.059-.161.01-.055.02-.1.022-.101 0-.001.081.024.177.056.173.058.242.08.27.085a.37.37 0 0 1 .152.072c.031.03.041.057.025.072-.017.014-.075.006-.134-.022a.258.258 0 0 0-.117-.025.14.14 0 0 0-.097.027c-.018.012-.021.017-.021.026 0 .014.007.02.072.054.083.044.113.073.114.106 0 .026-.01.032-.067.038-.052.006-.075.014-.095.03-.013.01-.018.011-.054.013a.144.144 0 0 0-.063.013.171.171 0 0 0-.07.06c-.013.02-.014.022-.059.038-.047.017-.053.018-.08.013zm-.238-.513a.284.284 0 0 1-.08-.027c-.005-.007.03-.179.036-.188.002-.003.008-.005.012-.005.01 0 .153.036.16.04.002.002.004.008.004.015 0 .014-.031.177-.035.182-.004.006-.017.004-.097-.017zm-.257-.054a1.335 1.335 0 0 0-.167-.05l-.04-.009.008-.022a.252.252 0 0 0 .01-.05c.003-.032-.005-.03.082-.019.05.007.15.026.154.03l-.012.065-.013.064zM6.612 7.767a.087.087 0 0 1-.022-.023c-.007-.014-.008-.017-.003-.06a1.336 1.336 0 0 0-.007-.408c-.014-.069-.019-.08-.04-.101-.069-.064-.293-.128-.377-.106a.213.213 0 0 0-.027.009.103.103 0 0 0 .004.028l.006.026h-.292l-.012-.011a2.62 2.62 0 0 1-.148-.254c-.013-.041.015-.062.102-.078a.984.984 0 0 1 .197-.002 1.267 1.267 0 0 1 .53.197.798.798 0 0 0-.05-.134 9.803 9.803 0 0 0-.228-.454 1.486 1.486 0 0 1-.063-.127c-.004-.016-.004-.02.003-.037.01-.024.029-.036.051-.032.03.006.107.077.279.256.164.172.163.171.207.211.066.062.115.095.149.102.021.004.037-.005.06-.037a.16.16 0 0 1 .025-.029c.002 0 .005.003.008.006a.534.534 0 0 0 .057.05l-.027-.034a.189.189 0 0 1-.022-.033.78.78 0 0 1 .064-.063l.063-.06-.012-.016a2.34 2.34 0 0 0-.298-.308 1.502 1.502 0 0 0-.18-.122c-.022-.011-.034-.02-.034-.024 0-.014.044-.314.048-.33.004-.015.005-.016.018-.014.013.002.323.163.336.174.014.013.006.027-.032.048l-.021.012.012.012a1.081 1.081 0 0 1 .212.368l.01.028.002-.044a1.85 1.85 0 0 1 .038-.305c.042-.188.123-.305.227-.326.06-.012.127.014.176.067a.584.584 0 0 1 .128.437 1.001 1.001 0 0 1-.013.096.837.837 0 0 1-.16.333 1.762 1.762 0 0 1-.218.224 1.94 1.94 0 0 0-.152.15c-.053.068-.094.095-.15.098a.147.147 0 0 1-.06-.007.735.735 0 0 1-.213-.142.294.294 0 0 0-.035-.029l.012.03c.048.095.134.324.149.399.004.02-.025.072-.127.232-.083.13-.113.166-.132.166a.056.056 0 0 1-.02-.009zm.744-1.423c.093-.092.156-.182.164-.232.002-.015 0-.018-.01-.032-.06-.068-.157-.014-.202.112a1.07 1.07 0 0 0-.043.225v.01l.013-.01a1.42 1.42 0 0 0 .078-.073zm.583 1.408c-.097-.007-.162-.03-.181-.06-.015-.025-.007-.048.024-.08a.3.3 0 0 1 .104-.063c.021-.003.03.004.04.038.014.042.026.041.071-.002a.21.21 0 0 1 .04-.031c.021-.01.057-.007.09.009.046.022.045.018.006.062l-.071.084-.038.047h-.022l-.063-.004zM6.407 7.64l-.027-.03.009-.012c.011-.015.053-.048.057-.045a.568.568 0 0 1-.01.112c-.003.002-.016-.01-.03-.026zm10.25-.062c-.123-.02-.252-.095-.383-.225-.242-.24-.284-.457-.129-.675.071-.1.262-.245.352-.269.031-.008.046-.005.063.015.017.018.02.03.018.054-.003.028-.026.056-.086.108a.353.353 0 0 0-.093.105c-.031.061-.027.14.012.221.073.153.282.352.457.435.027.013.033.014.042.01.009-.004.01-.006.008-.017-.003-.015 0-.01-.11-.152-.102-.128-.123-.163-.135-.218-.014-.063 0-.107.05-.157a.685.685 0 0 1 .275-.157c.144-.048.253-.034.329.042.05.05.068.1.064.19-.004.094-.03.162-.079.21-.028.027-.045.035-.054.026a.781.781 0 0 1-.037-.066.502.502 0 0 0-.1-.15c-.047-.045-.113-.07-.163-.062-.026.004-.037.013-.033.03.003.015.049.082.123.182.03.042.062.088.069.102.012.025.013.029.012.07a.173.173 0 0 1-.037.12.748.748 0 0 1-.137.141.506.506 0 0 1-.146.076.646.646 0 0 1-.152.011zm-8.713-.081c-.044-.006-.068-.02-.082-.049-.01-.018-.01-.032-.002-.047.022-.042.088-.056.175-.037a.348.348 0 0 0 .06.009c.033 0 .036-.007.023-.05-.01-.032.01-.05.05-.05a.196.196 0 0 0 .09-.03.506.506 0 0 0 .062-.056c.046-.046.081-.068.119-.073.041-.005.049-.013.047-.051-.001-.019 0-.02.012-.029.025-.017.09-.025.202-.026h.071l-.059.05c-.073.06-.16.138-.237.211l-.058.055-.043.01a.278.278 0 0 1-.142.008.437.437 0 0 0-.042-.01c-.01 0 .004.012.044.036.068.042.072.054.024.078a.487.487 0 0 1-.064.024.787.787 0 0 1-.25.027zm7.146-1.104a18.589 18.589 0 0 1-.355-.216c-.013-.01-.027-.034-.027-.047 0-.013.013-.04.024-.049.008-.007.014-.008.113-.007.17.002.324-.01.403-.03.036-.009.069-.025.069-.033 0-.002-.007-.008-.015-.013a2.032 2.032 0 0 1-.111-.075c-.069-.055-.089-.095-.086-.17a.278.278 0 0 1 .04-.133.764.764 0 0 1 .136-.192c.077-.08.138-.115.202-.116.03 0 .036.001.064.015a.197.197 0 0 1 .109.141.583.583 0 0 1-.02.246c-.003.01 0 .013.039.036a.152.152 0 0 1 .041.03c0 .008.149.117.163.12.042.01.045-.034.014-.193a.25.25 0 0 1-.009-.072c.004-.007.271-.125.283-.125.009 0 .011.008.014.058a.725.725 0 0 1-.12.413c-.088.14-.17.223-.242.246-.068.02-.151.003-.238-.053a.51.51 0 0 1-.085-.065c.002-.002-.028-.023-.033-.022a.162.162 0 0 0-.024.033.75.75 0 0 1-.232.243c-.061.036-.09.043-.116.03zm.371-.691c.01-.017-.006-.063-.032-.096-.023-.03-.073-.045-.096-.031-.013.008-.025.03-.022.04.006.02.041.05.096.078.036.02.048.021.054.01zm-7.26.412c-.044-.023-.16-.152-.481-.538l-.158-.19.03-.209c.03-.204.034-.228.041-.228.005 0 .056.055.092.098.046.055.112.144.162.22.053.079.228.365.254.413.056.106.114.278.12.357.006.076-.014.102-.06.077zm.815-.062c-.121-.016-.22-.097-.276-.229-.052-.118-.085-.3-.068-.377.008-.038.037-.06.062-.047.027.014.046.05.068.127.018.067.032.095.06.12a.12.12 0 0 0 .093.033.403.403 0 0 0 .184-.057c.086-.045.14-.091.164-.139.01-.021.011-.027.011-.065 0-.047-.001-.05-.04-.13a3.074 3.074 0 0 0-.137-.24 8.466 8.466 0 0 0-.336-.493c-.016-.02-.021-.03-.02-.037.004-.014.118-.286.124-.296.014-.021.011-.024.194.155a.85.85 0 0 1 .103.11c.005.02-.008.03-.051.04-.014.002-.025.006-.024.008a6.507 6.507 0 0 1 .356.75c.077.212.068.404-.024.543a.556.556 0 0 1-.317.213.416.416 0 0 1-.126.012zm5.16-.214a1.19 1.19 0 0 1-.03-.068 2.028 2.028 0 0 0-.029-.063l-.062.03c-.046.023-.062.029-.066.026a.864.864 0 0 1-.066-.153c.001-.007.015-.016.066-.042a.393.393 0 0 1 .072-.033c.006.001.015.017.037.068l.03.067.06-.03c.047-.025.061-.03.066-.027a.845.845 0 0 1 .071.158 1.627 1.627 0 0 1-.136.07c-.005.001-.01 0-.013-.003zm.405-.25a2.765 2.765 0 0 1-.208-.094.215.215 0 0 1-.104-.14l-.007-.027-.018.013a.187.187 0 0 1-.158.038.384.384 0 0 1-.115-.048c0-.005-.01-.009-.03-.015-.087-.027-.151-.108-.183-.234l-.01-.039c0-.003-.02.013-.049.043-.09.09-.145.12-.226.12a.297.297 0 0 1-.213-.084c-.043-.047-.061-.11-.057-.196a.587.587 0 0 1 .063-.239c.028-.06.057-.093.08-.093a.06.06 0 0 1 .049.032.292.292 0 0 1 .01.07c.006.062.01.074.036.098.036.034.093.05.171.05a.212.212 0 0 0 .071-.007c.035-.013.035-.004.005-.216a9.937 9.937 0 0 1-.026-.195.49.49 0 0 1 .114-.083 1.68 1.68 0 0 1 .121-.076c.007-.001.01 0 .011.01.001.006.014.127.027.268.013.14.027.268.03.282a.15.15 0 0 0 .05.086.25.25 0 0 0 .053.022c.028.007.035.01.036.017 0 .006.009.011.03.02.059.023.1.023.134.001a.358.358 0 0 0 .05-.06.36.36 0 0 1 .05-.06c.014-.009.04-.009.05 0 .023.015.025.032.017.12-.004.046-.004.054.002.073.013.037.045.065.105.089l.057.024a.248.248 0 0 0 .096.032c.015 0 .02-.002.033-.015.012-.012.018-.023.027-.053a4.688 4.688 0 0 0 .13-.623 5.59 5.59 0 0 1 .293-.098c.008 0 .012.003.014.009.002.005.004.097.005.205.002.214.002.214-.02.214-.01 0-.022-.007-.051-.03l-.016-.013-.017.045-.098.273c-.091.252-.119.314-.165.376-.07.092-.162.132-.25.108zm-2.279-.13a11.425 11.425 0 0 1-.195-.017c-.042-.005-.059-.023-.059-.06 0-.016.002-.025.008-.032a.818.818 0 0 1 .113-.063c.213-.105.359-.2.384-.25l.008-.014-.009-.002a.76.76 0 0 0-.053-.006.528.528 0 0 1-.15-.032c-.063-.03-.096-.097-.096-.193 0-.145.056-.335.124-.42.04-.05.082-.073.133-.073.083 0 .144.049.183.145.032.08.046.172.046.306 0 .265-.054.507-.145.644a.258.258 0 0 1-.072.078c-.016.007-.011.007-.22-.01zm.269-.772c.015-.006.004-.035-.022-.059-.049-.044-.12-.047-.141-.006-.021.04.002.06.075.068a.34.34 0 0 0 .088-.002zm3.72.767l-.015-.071a.565.565 0 0 0-.014-.065.305.305 0 0 0-.066.01c-.052.012-.065.013-.07.01a1.097 1.097 0 0 1-.032-.16c0-.006.002-.012.005-.014l.073-.017a.268.268 0 0 1 .074-.012c.005.003.01.023.02.072.007.038.015.07.016.072a.263.263 0 0 0 .064-.01c.069-.015.074-.015.078.01l.017.082c.007.037.012.07.01.071a1.24 1.24 0 0 1-.147.031c-.007 0-.011-.003-.014-.009zm-5.245-.08c-.049-.04-.067-.059-.067-.065 0-.005.02-.037.046-.072.056-.078.056-.078.065-.078a.59.59 0 0 1 .073.055c.05.041.066.057.067.065a.679.679 0 0 1-.11.15.34.34 0 0 1-.074-.055zm-1.25-.09a.227.227 0 0 1-.163-.111.56.56 0 0 1-.06-.3c.004-.061.017-.083.045-.083.018 0 .025.006.052.047.037.057.059.073.1.073.07 0 .253-.062.28-.095.02-.027.001-.05-.075-.087a1.28 1.28 0 0 0-.236-.082.933.933 0 0 1-.066-.018 5.549 5.549 0 0 1 .05-.342c.004-.01.007-.013.019-.013.058 0 .19.067.28.143a.64.64 0 0 1 .22.436.369.369 0 0 1-.082.297.493.493 0 0 1-.363.134zm.82-.215a.21.21 0 0 1-.113-.065c-.055-.055-.08-.115-.106-.26a10.318 10.318 0 0 0-.145-.665.206.206 0 0 1-.008-.05.818.818 0 0 1 .115-.14 3.22 3.22 0 0 1 .12-.13c.008-.003.019.006.019.015 0 .012.137.793.142.81a.124.124 0 0 0 .042.062c.012.008.018.01.048.01a.46.46 0 0 0 .122-.017.12.12 0 0 0 .076-.063.57.57 0 0 0 .016-.07c.015-.083.025-.1.061-.1.027 0 .04.015.057.066.026.078.039.099.07.115.021.011.048.013.106.008a2.7 2.7 0 0 1 .133-.01c.095-.004.109-.008.111-.03.002-.022-.016-.047-.09-.121a.9.9 0 0 1-.07-.074l.056-.105c.115-.205.105-.193.128-.168a.72.72 0 0 1 .081.128.783.783 0 0 1 .064.242c.006.058.003.244-.006.289a.3.3 0 0 1-.085.173.323.323 0 0 1-.055.034c-.057.028-.093.035-.229.045-.09.007-.128-.005-.182-.06l-.03-.03-.014.025a.23.23 0 0 1-.071.081.28.28 0 0 1-.123.037c-.031.004-.07.01-.086.014a.505.505 0 0 1-.155.004zm8.08-.26l-.494-.221a.554.554 0 0 1-.077-.04c0-.004.58-1.297.584-1.301.002-.002.963.425.97.432 0 0-.021.05-.049.11l-.049.11-.02-.008-.352-.158a7.843 7.843 0 0 0-.335-.146 8.617 8.617 0 0 0-.128.285c0 .001.147.069.326.149.18.08.327.148.327.15 0 .008-.096.216-.1.216l-.324-.146-.326-.145a5.014 5.014 0 0 0-.16.354l.36.164c.198.088.36.162.363.164a.624.624 0 0 1-.04.098.57.57 0 0 1-.057.122l-.42-.188zm-13.64.02a.647.647 0 0 1-.438-.287 1.045 1.045 0 0 1-.17-.607.61.61 0 0 1 .272-.462.75.75 0 0 1 .448-.125c.122.01.224.055.308.136a.538.538 0 0 1 .088.104l-.123.083-.12.079-.006-.01a.307.307 0 0 0-.178-.125.327.327 0 0 0-.163.007.335.335 0 0 0-.21.176.284.284 0 0 0-.032.15c0 .09.019.17.065.287.079.2.165.299.292.335a.37.37 0 0 0 .16.001.297.297 0 0 0 .221-.196.433.433 0 0 0 .019-.16.332.332 0 0 1-.002-.049 3.5 3.5 0 0 1 .292-.015.661.661 0 0 1 .001.077c0 .083-.008.14-.027.201a.524.524 0 0 1-.198.27.826.826 0 0 1-.29.123.766.766 0 0 1-.209.006zm1.464-.48a40.442 40.442 0 0 1-.092-.282l-.092-.278a28.375 28.375 0 0 0-.38-.317 17.59 17.59 0 0 1-.374-.313c.003-.002.313-.104.318-.103 0 0 .114.097.25.216s.248.215.249.213l.068-.319c.038-.173.07-.317.072-.319.004-.004.31-.104.312-.103l-.119.475-.12.478.093.289c.05.156.092.284.091.285a11.2 11.2 0 0 1-.268.086c-.003 0-.006-.004-.008-.009zm10.946-.038a.792.792 0 0 1-.3-.117.685.685 0 0 1-.162-.16.643.643 0 0 1-.105-.411c.02-.24.145-.506.3-.636a.642.642 0 0 1 .279-.138.869.869 0 0 1 .25.002c.14.03.267.093.352.174a.497.497 0 0 1 .156.286c.007.04.01.154.005.16a5.298 5.298 0 0 1-.278-.029l-.012-.002v-.045a.27.27 0 0 0-.03-.133.299.299 0 0 0-.124-.128.391.391 0 0 0-.198-.045c-.168.016-.281.137-.365.39-.077.23-.063.373.046.482a.31.31 0 0 0 .132.08.231.231 0 0 0 .086.015.253.253 0 0 0 .128-.023.411.411 0 0 0 .156-.135c.015-.021.026-.033.03-.032.004.002.055.04.178.136l.051.04-.025.032a.583.583 0 0 1-.362.237.816.816 0 0 1-.188 0zm-10.03-.268c-.017-.057-.363-1.358-.363-1.362 0-.004.575-.16.667-.18a.617.617 0 0 1 .244-.019c.069.015.13.048.18.096a.34.34 0 0 1 .008.482l-.026.027.032.003a.353.353 0 0 1 .232.107.37.37 0 0 1 .097.263c0 .16-.073.285-.207.354-.066.034-.18.068-.6.18l-.259.07zm.392-.332c.255-.068.296-.084.338-.129a.157.157 0 0 0 .039-.152c-.02-.087-.072-.139-.153-.15-.05-.007-.13.008-.353.067-.074.02-.135.037-.136.039-.002.002.036.151.092.357.003.012.004.013.016.01.007-.003.078-.021.157-.043zm-.185-.596c.238-.063.267-.074.309-.112a.148.148 0 0 0 .045-.149c-.017-.07-.059-.113-.123-.123a.259.259 0 0 0-.11.01c-.049.012-.348.09-.35.093-.001 0 .075.292.082.313 0 .003.004.005.006.005l.141-.037zm8.714.814a3.86 3.86 0 0 1-.133-.041 140.9 140.9 0 0 1 .395-1.346c.004-.015.01-.027.013-.027.01 0 .268.079.27.082.003.008-.402 1.37-.408 1.37a1.546 1.546 0 0 1-.137-.038zm-5.023.017a.507.507 0 0 1-.095-.1c0-.01.091-.123.101-.125.005 0 .025.015.059.047l.051.048.042-.051a.388.388 0 0 1 .048-.055.03.03 0 0 1 .018.006c.018.015.11.104.11.108 0 .005-.095.118-.105.124-.007.005-.012.002-.057-.043a.58.58 0 0 0-.054-.048.4.4 0 0 0-.042.047c-.056.069-.05.065-.076.042zm4.201-.236a89.803 89.803 0 0 1-.486-.115c0-.001.322-1.38.325-1.383.002-.002.275.061.278.064.001.001-.058.26-.132.576l-.134.574a71.881 71.881 0 0 0 .7.164 2.775 2.775 0 0 1-.06.234c-.003 0-.224-.051-.49-.114zM8.842 3.69c-.007-.024-.268-1.4-.265-1.401a82.41 82.41 0 0 1 1.03-.199h.011l.023.117c.012.064.021.118.02.118-.001.001-.17.034-.377.073l-.377.074c-.002.001.01.072.026.156.03.153.03.154.04.153l.343-.065.345-.065c.01 0 .01 0 .032.115.012.064.022.118.02.119l-.352.07-.352.067s.071.38.073.382l.393-.074c.335-.064.392-.074.394-.069.004.01.045.229.044.23-.001.001-.456.089-1.042.2-.025.006-.027.005-.03 0zm5.33-.217c-.26-.027-.445-.134-.555-.32a.663.663 0 0 1-.081-.231 1.16 1.16 0 0 1 .002-.282c.036-.237.113-.392.248-.505a.578.578 0 0 1 .35-.144.95.95 0 0 1 .372.05.622.622 0 0 1 .396.442.733.733 0 0 1 .022.197.978.978 0 0 1-.123.492.616.616 0 0 1-.426.293 1.008 1.008 0 0 1-.205.008zm.098-.25a.37.37 0 0 0 .255-.159.72.72 0 0 0 .1-.312.898.898 0 0 0-.009-.224c-.047-.189-.196-.296-.403-.288a.328.328 0 0 0-.188.06c-.107.073-.17.203-.194.398a.967.967 0 0 0 .002.195c.03.189.162.315.348.331.02.002.043.003.05.002l.04-.004zm-4.11.214a497.3 497.3 0 0 1-.144-1.396v-.016l.316-.033c.174-.018.349-.035.388-.037a.985.985 0 0 1 .21.006c.161.028.28.172.292.355a.39.39 0 0 1-.035.21c-.046.095-.13.16-.258.202l-.039.013.041.022a.706.706 0 0 1 .222.187 9.5 9.5 0 0 1 .287.37l-.328.034c-.012 0-.02-.007-.167-.186-.245-.294-.269-.318-.334-.34a.488.488 0 0 0-.167-.008l-.052.005-.001.014c0 .008.012.141.028.296.017.156.029.284.027.285l-.13.016c-.07.007-.134.013-.141.015-.013.002-.013.002-.015-.016zm.334-.851c.282-.029.343-.042.386-.084.058-.056.065-.166.016-.237-.034-.049-.096-.074-.17-.068-.04.003-.398.039-.399.04 0 0 .035.353.037.358 0 .003.007.004.017.003l.113-.012zm1.763.722a1.535 1.535 0 0 1-.095-.005c-.002-.002.043-1.43.044-1.431.002-.002.5.014.581.019.085.005.17.014.205.022a.384.384 0 0 1 .272.245.6.6 0 0 1 .008.318.407.407 0 0 1-.307.29 2.04 2.04 0 0 1-.402.01.914.914 0 0 0-.095 0 78.457 78.457 0 0 1-.018.492l-.002.045H12.4l-.143-.005zm.58-.782a.193.193 0 0 0 .153-.222.177.177 0 0 0-.052-.104c-.038-.04-.082-.057-.159-.064a3.615 3.615 0 0 0-.29-.011 8.809 8.809 0 0 0-.013.353v.052l.061.002c.108.004.271 0 .301-.006zm-.53 12.69a4.239 4.239 0 0 0 3.022-1.6 4.235 4.235 0 0 0 .909-2.874 4.237 4.237 0 0 0-2.89-3.786A4.132 4.132 0 0 0 12 6.74a4.237 4.237 0 0 0-3.242 1.504 4.227 4.227 0 0 0-1 2.912c.031.722.233 1.398.601 2.011a4.27 4.27 0 0 0 1.704 1.595c.536.275 1.1.426 1.719.462.093.005.43.002.525-.006zm-.299-.13a4.856 4.856 0 0 0-.08-.256c-.055-.164-.068-.215-.071-.28a.62.62 0 0 1 .027-.201c.046-.2.057-.334.04-.45a1.688 1.688 0 0 0-.1-.366l.026.003c.027.004.069 0 .102-.01.105-.032.16-.122.144-.24a.797.797 0 0 0-.046-.171l-.018-.046.013-.01a.352.352 0 0 0 .062-.065c0-.004.006-.008.01-.009a.087.087 0 0 0 .024-.014l.015-.012.01.02.099.209c.106.229.092.213.168.184.05-.019.058-.027.062-.06a.185.185 0 0 1 .009-.041.35.35 0 0 1 .067-.102c.027-.027.031-.04.019-.07-.005-.011-.008-.02-.007-.02h.119l.118.002.026.044c.024.04.028.044.042.048.015.004.019.003.06-.016.049-.022.058-.032.058-.06v-.016l.354.002c.194 0 .354.002.355.003l-.056.078c-.096.13-.118.162-.151.212a.818.818 0 0 0-.12.244.49.49 0 0 0 .019.264 1.053 1.053 0 0 1 .028.55c-.011.035-.02.048-.045.065a.78.78 0 0 0-.127.13c-.096.124-.133.204-.133.286v.03l-.045.012a4.178 4.178 0 0 1-.981.144l-.09.003-.006-.018zm-2.953-1.225a3.72 3.72 0 0 1-.308-.352c-.054-.07-.056-.072-.045-.068a.9.9 0 0 0 .09.008.406.406 0 0 1 .137.023c.014.007.023.016.023.023 0 .024.055.075.123.112a.26.26 0 0 1 .101.094c.014.03.016.085.004.133a.503.503 0 0 1-.04.11c-.001 0-.04-.038-.085-.084zm1.663-.199c-.077-.02-.118-.081-.136-.2a.829.829 0 0 1 .002-.194c.019-.088.064-.134.144-.145a.172.172 0 0 1 .182.084c.038.07.052.236.03.325-.02.075-.055.113-.12.13a.244.244 0 0 1-.101 0zm.095-.048c.04-.02.053-.055.056-.142a.661.661 0 0 0-.03-.252c-.04-.082-.145-.074-.173.013a.574.574 0 0 0-.009.182c.007.103.02.153.048.182a.093.093 0 0 0 .108.017zm-.648.035c-.088-.013-.13-.048-.15-.126a.542.542 0 0 1 .002-.184c.024-.139.07-.209.15-.23a.193.193 0 0 1 .177.044c.034.035.047.075.047.15 0 .123-.034.241-.083.296a.17.17 0 0 1-.143.05zm.057-.054c.034-.019.054-.056.07-.135.03-.144.029-.24-.001-.28-.021-.028-.071-.04-.104-.027-.049.02-.074.078-.094.216-.02.146-.006.21.056.234.02.007.053.004.074-.007zm1.061.006c-.065-.018-.114-.081-.144-.186a.564.564 0 0 1-.023-.18c.002-.058.01-.084.035-.115.041-.053.143-.073.21-.042.067.031.107.101.134.233a.352.352 0 0 1-.01.216c-.03.061-.124.095-.202.074zm.106-.051a.088.088 0 0 0 .03-.03c.01-.018.01-.02.01-.077a.462.462 0 0 0-.011-.114c-.028-.135-.055-.194-.1-.215-.046-.02-.106.003-.12.048-.015.043-.013.085.007.185.027.131.053.187.1.21a.1.1 0 0 0 .084-.007zm-1.92-.059a.162.162 0 0 1-.024-.009s.207-.488.214-.5a.246.246 0 0 1 .067.02 2.7 2.7 0 0 1-.077.187l-.08.185.016.016.016.017.019-.006c.05-.016.12-.023.116-.013-.017.042-.015.04-.034.04a.51.51 0 0 0-.128.027.305.305 0 0 0-.053.028.16.16 0 0 1-.027.016l-.025-.008zm2.366-.008c-.072-.017-.133-.093-.175-.22-.062-.185-.028-.284.107-.311a.145.145 0 0 1 .058-.002.207.207 0 0 1 .092.04.459.459 0 0 1 .103.189c.048.146.033.24-.044.282a.23.23 0 0 1-.141.022zm.097-.053a.093.093 0 0 0 .03-.026c.01-.014.012-.021.013-.049a.455.455 0 0 0-.036-.168c-.048-.14-.088-.193-.147-.193-.062 0-.098.045-.09.114.007.062.06.221.089.267.04.063.088.082.14.055zm-.074-.051a.728.728 0 0 1-.106-.283c0-.02.003-.022.052-.02h.034l.018.037c.017.035.049.124.062.178a.24.24 0 0 1 .007.053c0 .026 0 .028-.01.037-.017.015-.039.014-.057-.003zm.414-.292a70.33 70.33 0 0 1-.115-.248.214.214 0 0 1 .068-.025l.086.182c.089.192.086.187.115.187.012 0 .015-.003.032-.03a.313.313 0 0 1 .063-.074c.002 0 .008.009.013.02l.01.022-.02.022c-.047.056-.08.12-.08.157 0 .01-.003.013-.019.02a.202.202 0 0 1-.029.01c-.01.002-.013-.006-.124-.243zm-3.3.132a.203.203 0 0 1-.119-.089c-.035-.07.007-.165.127-.282.085-.082.15-.118.217-.118a.18.18 0 0 1 .155.104c.02.05.004.106-.048.177a1.114 1.114 0 0 1-.148.15c-.066.049-.131.07-.183.058zm.075-.064a.587.587 0 0 0 .127-.11.577.577 0 0 0 .11-.138c.011-.025.013-.032.011-.05a.082.082 0 0 0-.084-.075c-.047 0-.08.02-.166.106-.097.097-.134.148-.14.195-.005.034.02.069.055.083.023.009.06.004.087-.011zm3.72-.262a60.788 60.788 0 0 0-.141-.238c-.005-.009-.005-.009.026-.025l.032-.016.02.033a50.092 50.092 0 0 1 .19.322l.023-.001.022-.002.015-.03a.255.255 0 0 1 .055-.078c.004 0 .024.033.024.04a.109.109 0 0 1-.016.025.441.441 0 0 0-.052.098.453.453 0 0 0-.01.047l-.004.03-.024.012-.025.012zm-.414.075c-.061-.132-.069-.15-.066-.162a.038.038 0 0 1 .029-.03.217.217 0 0 0 .067-.053c.024-.035.03-.046.03-.056 0-.017.019-.044.05-.07.012-.01.015-.011.012-.005a.24.24 0 0 0-.006.05.149.149 0 0 1-.024.084c-.006.01-.008.018-.006.028.004.027.01.09.014.147.007.085.006.083.023.117l.01.02-.025.03a.684.684 0 0 0-.032.039c-.006.009-.008.005-.075-.139zm-.917.06c-.02-.001-.033-.003-.033-.006l.01-.035a.238.238 0 0 0 .013-.077c.002-.042.001-.049-.007-.064-.01-.022-.01-.04 0-.066.019-.05.003-.107-.037-.128a.062.062 0 0 1-.02-.02c-.01-.018-.04-.038-.056-.038-.02 0-.036.01-.07.044a.117.117 0 0 0-.018.034c-.01.028-.014.024-.008-.007a.062.062 0 0 0 0-.032.052.052 0 0 1 0-.024c.006-.027-.006-.05-.026-.05a.155.155 0 0 0-.037.013l-.03.014v-.011c0-.01-.01-.042-.014-.05a.044.044 0 0 1-.003-.019c-.002-.034-.012-.056-.025-.056a.164.164 0 0 1-.036-.024.332.332 0 0 0-.04-.029c-.006-.003-.008-.009-.01-.023a.106.106 0 0 1 0-.043c.005-.03-.009-.043-.054-.047-.029-.003-.029-.003-.029-.015 0-.017-.018-.033-.046-.041-.045-.013-.045-.012-.048-.038-.002-.022-.01-.039-.02-.045-.003-.002-.006-.008-.007-.015a.105.105 0 0 0-.019-.03.076.076 0 0 1-.016-.025.39.39 0 0 0-.027-.08.304.304 0 0 1-.017-.048.072.072 0 0 0-.015-.033.085.085 0 0 1-.015-.026.122.122 0 0 0-.017-.03.107.107 0 0 1-.02-.05c-.002-.011-.002-.012.007-.007.014.007.034.002.05-.014.02-.018.02-.038.003-.054-.01-.01-.01-.012-.006-.02a.1.1 0 0 0 .006-.031c0-.017.002-.021.008-.023a.133.133 0 0 0 .027-.017c.012-.009.02-.013.026-.011.02.007.051-.017.051-.04 0-.008.003-.012.013-.016.012-.005.014-.004.027.004.008.005.018.01.024.01.007 0 .014.004.02.012.01.013.034.022.052.017a.234.234 0 0 0 .041-.019c.03-.016.031-.016.04-.009a.03.03 0 0 1 .007.021c0 .02.008.033.045.073a.25.25 0 0 1 .032.039c0 .002.007.013.015.023.027.032.034.045.029.054-.008.016-.004.035.015.067a.05.05 0 0 0 .018.017c.009.004.01.006.007.015-.01.024 0 .042.024.043.012.001.014.002.02.021a.78.78 0 0 0 .037.096.3.3 0 0 1 .017.045c.004.013.01.027.014.031s.01.015.014.024c.008.015.024.027.036.027.003 0 .006.002.006.004 0 .01.027.017.07.02l.046.002.03.022a.23.23 0 0 0 .044.025.08.08 0 0 1 .025.015c.013.012.013.012.008.03-.004.014-.004.019.001.024a.317.317 0 0 0 .06.041.076.076 0 0 1 .017.012.04.04 0 0 0 .017.009c.005 0 .018.007.06.029a.057.057 0 0 0 .023.007c.012 0 .017.005.021.022.004.017.016.032.03.037a.643.643 0 0 1 .024.009c.008.003.04.006.073.007l.06.002.006.011c.007.014.017.02.031.02.015 0 .023.004.023.012 0 .004.003.01.007.014.006.006.012.006.04.004.037-.003.064-.012.08-.028a.107.107 0 0 1 .023-.016.075.075 0 0 0 .021-.018c.008-.011.01-.012.035-.012.015 0 .03-.002.037-.006a.11.11 0 0 0 .038-.042c.002-.005.01-.009.021-.012a.41.41 0 0 0 .05-.02.208.208 0 0 1 .098-.025c.034 0 .047.004.065.022.024.022.036.057.045.128l.006.049c.003.015.002.016-.012.02-.011.005-.014.009-.019.023a.056.056 0 0 0-.003.023l.111.19c.06.1.109.184.109.186 0 .004-.22 0-.237-.004-.015-.004-.027-.02-.032-.042a.49.49 0 0 1-.016-.103.697.697 0 0 0-.005-.072c-.006-.053-.006-.057.004-.069.01-.012.016-.043.02-.091.002-.022.004-.037.008-.04.009-.007.011-.03.006-.044-.007-.016-.025-.024-.06-.024-.021 0-.028.002-.035.008-.005.004-.01.01-.01.012s-.007.01-.016.016a.105.105 0 0 0-.033.043.242.242 0 0 0-.027.058c0 .01-.02.032-.036.04a.043.043 0 0 0-.016.011c0 .002-.004.005-.009.006a.092.092 0 0 0-.026.017c-.014.013-.018.014-.028.01-.009-.002-.02 0-.068.019l-.056.022-.007.017-.007.018.017.036c.02.043.02.044-.014.064a.157.157 0 0 0-.033.027.418.418 0 0 1-.06.061c-.002 0-.006-.005-.01-.012a.25.25 0 0 0-.122-.1.27.27 0 0 0-.132-.006.213.213 0 0 0-.14.096l-.015.026h-.023l-.06.001h-.071zm.106-.334c.01-.002.017-.006.017-.008a.273.273 0 0 1-.02-.074c-.005-.034-.012-.049-.028-.057-.018-.009-.064-.004-.064.007 0 .002.007.009.016.014.013.008.016.014.022.032a.07.07 0 0 1 .005.025.348.348 0 0 1-.056-.062c-.009-.013-.011-.02-.009-.025a.461.461 0 0 1 .058-.048l.053-.041-.023-.01a.15.15 0 0 0-.029-.008.268.268 0 0 0-.046.034.246.246 0 0 1-.047.034c-.008 0-.024-.02-.024-.031 0-.004.003-.011.006-.015a.031.031 0 0 0 .006-.015c0-.006-.003-.007-.021-.005l-.022.003-.012-.017c-.014-.018-.018-.038-.007-.028.004.004.01.004.023 0 .033-.01.033-.01.014-.037a1.459 1.459 0 0 1-.034-.057c-.015-.026-.021-.033-.032-.036-.018-.005-.048 0-.058.01l-.008.009.017.007c.018.007.022.011.034.032l.007.01-.027-.013c-.037-.02-.054-.021-.077-.01-.05.027-.045.089.01.148.023.025.036.032.043.025.003-.003 0-.01-.01-.026-.032-.047-.035-.066-.015-.089.023-.026.062-.026.093 0 .006.007.006.008-.006.016-.017.01-.031.032-.031.046 0 .017.023.048.04.055.014.005.016.008.016.019 0 .019.017.041.036.047.015.004.016.006.016.02 0 .011.004.02.018.039.02.027.04.04.076.05a.096.096 0 0 1 .038.02c.016.016.018.016.042.01zm.053-.136c0-.012-.002-.016-.009-.018-.018-.005-.022-.003-.024.013-.003.016 0 .02.02.02.013.001.013 0 .013-.015zm-.305-.015c0-.013-.003-.015-.012-.016-.01-.001-.011-.003-.01-.014 0-.011 0-.013-.012-.015-.015-.003-.017-.002-.017.014 0 .011.002.013.012.015s.012.004.01.014c-.002.013 0 .015.022.017.008 0 .009-.001.008-.015zm-.037-.127c.004-.019 0-.022-.018-.022-.016 0-.016 0-.016.015 0 .013 0 .016.009.018.02.004.022.003.025-.011zm-.077-.204a.12.12 0 0 0 .047-.06c.004-.015-.002-.037-.012-.043-.012-.006-.04-.005-.056.004-.028.015-.031.03-.01.058.017.022.015.029-.003.012-.023-.022-.04-.05-.038-.059a.26.26 0 0 1 .054-.048.488.488 0 0 0 .052-.042c0-.002-.012-.007-.028-.012l-.027-.01-.046.038c-.066.054-.075.064-.075.083 0 .025.036.074.066.09.02.011.05.006.076-.011zm0-.061c-.007-.007-.008-.012-.006-.015.005-.005.015.002.018.013.003.013-.004.013-.013.001zm-.194-.036a.179.179 0 0 0 .04-.028c.02-.017.025-.027.03-.055l.004-.012-.021.003c-.035.005-.04.008-.04.024 0 .022-.006.034-.017.034a.453.453 0 0 1-.086-.028c-.01-.004-.014-.004-.017 0-.003.002.002.012.02.038l.026.034h.02a.107.107 0 0 0 .041-.01zm.281-.021c0-.013-.002-.016-.009-.018-.02-.005-.023-.003-.023.013 0 .018.002.02.019.02.013 0 .013 0 .013-.015zm-.319-.12c.02-.006.059-.038.059-.047 0-.003-.006-.006-.014-.007-.011 0-.015 0-.022.01-.005.006-.01.01-.014.008-.01-.004-.012-.02-.004-.03.011-.017.009-.02-.014-.017-.017.002-.02.002-.024-.006a.064.064 0 0 1-.003-.03l.002-.019-.02.003c-.034.004-.035.005-.035.022a.111.111 0 0 1-.002.022c-.007.019-.045-.006-.066-.044-.014-.024-.015-.035-.002-.045.03-.02.03-.021.025-.028-.006-.008-.027-.004-.053.01-.045.025-.05.064-.01.116.029.038.068.05.102.03l.012-.007.004.011a.023.023 0 0 0 .015.014c.007.002.01.005.01.012 0 .012.015.03.026.03a.145.145 0 0 0 .028-.006zm2.074 1.052c0-.008.035-.068.052-.088.022-.026.024-.042.009-.067l-.013-.02.015-.007c.024-.01.052-.012.061-.004.005.005.022.01.048.013a.133.133 0 0 1 .052.013c.05.036.121.05.18.034.02-.005.028-.005.033-.002a.043.043 0 0 0 .016.005c.004 0 .009.002.01.004 0 .002.008.004.014.004s.025.006.04.014c.047.021.09.023.098.003.002-.005.006-.001.014.014.016.028.043.041.057.028.009-.01.02-.014.04-.017a.102.102 0 0 0 .026-.008c.005-.003.014-.005.023-.003.023.004.043-.002.056-.016l.011-.013.105.001a.71.71 0 0 0 .116-.003.049.049 0 0 0 .02-.018c.006-.009.012-.014.018-.014.009 0 .009 0 .003.01-.01.013-.008.03.005.043.006.006.014.011.018.011.005 0 .006.007.006.044v.045h-.567c-.456 0-.567-.001-.567-.005zm.665-.124a.136.136 0 0 0-.015-.02c-.009-.01-.009-.01-.004-.026a.515.515 0 0 0 .01-.066.26.26 0 0 1 .013-.068.347.347 0 0 0 .014-.056c.007-.043.014-.056.028-.056.015 0 .037-.01.043-.02.003-.005.007-.008.01-.008a.11.11 0 0 1 .027.026c.018.021.025.026.038.028.015.003.019.001.057-.025.035-.024.042-.03.046-.044a.048.048 0 0 0 0-.028c-.002-.007-.003-.014-.002-.015a.248.248 0 0 1 .035-.005l.033-.003-.01.03c-.027.073-.072.17-.123.267-.026.05-.029.052-.042.055a.048.048 0 0 0-.025.013c-.006.006-.01.009-.012.006-.003-.01-.025-.018-.038-.015-.014.003-.026.013-.026.022 0 .005-.005.008-.017.01-.01 0-.021.003-.026.004-.006.002-.01 0-.014-.007zm-.796-.046c-.024-.04-.024-.042-.015-.042a.138.138 0 0 0 .03-.008c.026-.01.044-.01.061.001l.014.01-.01.01a.345.345 0 0 0-.031.04.224.224 0 0 1-.022.03.386.386 0 0 1-.027-.042zm.656.001l-.018-.009.017-.017a.186.186 0 0 0 .045-.094c.013-.08-.038-.193-.143-.316-.077-.09-.159-.133-.241-.126a.234.234 0 0 0-.185.116c-.044.089-.012.191.108.348l.008.01h-.024a.127.127 0 0 0-.034.005c-.008.004-.013.002-.036-.01-.04-.023-.06-.027-.123-.027h-.054l-.033-.017-.034-.017-.039-.066a.358.358 0 0 0-.048-.071.054.054 0 0 0-.027-.003c-.02.002-.017.006-.027-.053a.707.707 0 0 0-.015-.068l-.012-.046c-.006-.024-.033-.048-.066-.058a.269.269 0 0 0-.183.005.614.614 0 0 1-.059.024c-.04.015-.054.024-.065.043-.01.015-.011.016-.03.017a.11.11 0 0 0-.068.03.143.143 0 0 1-.03.022.32.32 0 0 0-.026.014c-.008.005-.011.005-.032-.005a.142.142 0 0 1-.036-.027c-.019-.02-.032-.023-.1-.023-.067 0-.08-.003-.088-.024a.11.11 0 0 0-.043-.047.523.523 0 0 0-.047-.018c-.06-.02-.079-.033-.096-.07a.16.16 0 0 0-.08-.08.383.383 0 0 1-.05-.029.134.134 0 0 0-.087-.025.108.108 0 0 1-.043-.006.14.14 0 0 1-.046-.057.264.264 0 0 0-.018-.043.381.381 0 0 1-.024-.074.325.325 0 0 0-.02-.064.39.39 0 0 1-.024-.05.106.106 0 0 0-.025-.035c-.007-.005-.011-.012-.011-.017 0-.017-.025-.056-.065-.106-.048-.06-.058-.074-.063-.095-.01-.033-.041-.07-.067-.077-.014-.004-.046.003-.073.017-.019.009-.019.009-.03.002a.063.063 0 0 0-.028-.007c-.008 0-.015-.001-.015-.002l.012-.014a.036.036 0 0 0 .008-.044c-.004-.007-.009-.008-.084-.008h-.08v.01a.124.124 0 0 1-.005.028.048.048 0 0 0 0 .035c.009.024.009.024-.01.03-.016.004-.017.004-.02-.006a.187.187 0 0 0-.043-.06.138.138 0 0 1-.02-.025c-.006-.01-.01-.011-.027-.012l-.021-.001-.001-.025c-.001-.025-.001-.025-.013-.025h-.012v.06l.018.02c.057.059.078.086.078.102a.006.006 0 0 1-.006.006c-.003 0-.01.004-.014.009-.009.01-.01.037-.003.057.004.012.004.015-.006.026a.047.047 0 0 0-.01.017c0 .014-.007.016-.03.011-.039-.008-.07.007-.07.035 0 .017.012.03.031.03.008 0 .016 0 .019.002.003.002.007.018.01.035a.11.11 0 0 0 .022.057c.01.014.02.032.022.041a.053.053 0 0 0 .01.021.051.051 0 0 1 .014.03.15.15 0 0 0 .016.04c.009.017.02.045.024.061a.198.198 0 0 0 .02.046.422.422 0 0 1 .018.03.13.13 0 0 0 .017.026c.006.006.009.016.01.033.003.021.005.025.019.039a.11.11 0 0 0 .046.024l.03.009.002.021c.002.029.016.043.039.04.013-.002.014-.001.013.007-.002.01.008.032.019.038.004.002.008.008.008.012 0 .015.012.032.027.039a.317.317 0 0 1 .07.053c.009.008.009.009.001.02-.006.01-.006.014-.002.024.003.006.008.013.013.014.013.004.02.027.018.053-.003.03-.005.035-.017.04-.016.007-.02.023-.013.038.004.007.008.02.01.03a.107.107 0 0 0 .017.033c.009.013.011.018.008.02a1.982 1.982 0 0 1-.214.033.608.608 0 0 1-.203-.002c-.04-.015-.07-.053-.157-.196a2.504 2.504 0 0 1-.243-.49.347.347 0 0 1-.014-.08c-.003-.047.002-.064.021-.086.021-.023.027-.053.027-.136 0-.039-.002-.1-.005-.135a.825.825 0 0 1 .094-.48c.02-.042.052-.1.07-.13.035-.058.035-.061.015-.083-.01-.011-.015-.013-.032-.013a.088.088 0 0 1-.027-.004.602.602 0 0 1-.051-.044.353.353 0 0 0-.047-.04.13.13 0 0 1-.028-.016.185.185 0 0 0-.046-.022c-.034-.01-.044-.014-.05-.023-.008-.011-.008-.036 0-.05.005-.01.005-.013 0-.017a.202.202 0 0 1-.02-.035c-.022-.046-.028-.053-.045-.053-.02 0-.026-.005-.043-.034a.34.34 0 0 0-.033-.047c-.01-.011-.017-.024-.017-.03 0-.004.005-.02.012-.034.011-.025.015-.053.008-.057-.002-.001-.006-.01-.008-.018-.01-.032.01-.065.036-.065.012 0 .012 0 .01.018l-.002.018h.049l-.01.008a.048.048 0 0 1-.022.008h-.013l.006.013c.009.018.007.052-.003.082l-.01.026.009.009c.005.005.015.02.023.032.012.018.018.023.026.023.022 0 .045.024.065.068a.192.192 0 0 0 .023.037c.009.01.01.015.01.034a.14.14 0 0 1-.002.028c0 .004.006.008.022.013a.21.21 0 0 1 .044.021.38.38 0 0 1 .087.066c.04.037.04.037.06.037a.09.09 0 0 1 .032.006c.018.01.072.079.072.093a.545.545 0 0 1 .042.07c.015.028.016.031.015.062a.682.682 0 0 1-.01.09c-.015.077-.015.076.004.076.02 0 .042.014.048.032a.147.147 0 0 1 .005.041v.027h2.995l.013-.019a.17.17 0 0 0 .024-.065.093.093 0 0 0-.025-.051l-.012-.013-.007.015a.099.099 0 0 1-.021.027c-.011.01-.014.014-.01.018.006.01.003.03-.006.044-.025.038-.09.023-.09-.02 0-.014.001-.02.012-.029a.064.064 0 0 1 .016-.011c.002 0 .004-.006.004-.014s.004-.022.008-.03l.008-.019c0-.003-.042 0-.073.005l-.015.002-.002-.037a1.817 1.817 0 0 0-.04-.345 1.292 1.292 0 0 1-.018-.103c0-.014.011-.039.027-.06l.01-.012-.014-.016a.177.177 0 0 1-.021-.029.565.565 0 0 1-.02-.118c-.004-.031.003-.047.035-.08.018-.018.022-.025.02-.033-.002-.009 0-.009.023-.009.027 0 .04-.005.059-.024.026-.028.034-.056.04-.14.001-.033.003-.037.018-.06l.017-.025v-.05c0-.052-.004-.076-.016-.089-.006-.006-.006-.009 0-.02a.232.232 0 0 0 .005-.103c-.009-.07-.01-.071-.116-.071-.06 0-.08-.001-.085-.005a.225.225 0 0 1-.025-.034c-.032-.049-.044-.062-.062-.067a.17.17 0 0 1-.078-.043.2.2 0 0 1-.056-.087c-.006-.022-.006-.028 0-.064.008-.047.004-.069-.013-.082-.012-.01-.037-.011-.06-.002-.035.012-.116.075-.112.087.002.007.016.01.045.01.024.001.038.006.033.011-.003.003-.116.006-.131.003-.006 0-.013-.007-.017-.013-.004-.007-.01-.012-.013-.012-.004 0-.015-.007-.026-.016-.025-.02-.034-.025-.053-.024a.383.383 0 0 1-.09-.012c-.005-.002-.01-.012-.013-.025-.014-.06-.042-.08-.071-.049-.012.013-.016.014-.027.012a.037.037 0 0 1-.019-.008c-.006-.008-.039-.014-.072-.014-.023 0-.029 0-.04.01a.062.062 0 0 0-.016.024l-.005.014h-.07a.33.33 0 0 0-.152.021.608.608 0 0 1-.042.016.24.24 0 0 0-.074.069.082.082 0 0 0-.01.03c0 .017-.017.036-.031.036a.133.133 0 0 0-.037.012.246.246 0 0 1-.097.019c-.014-.005-.017-.04-.017-.197 0-.147 0-.153.01-.176.01-.03.01-.042-.001-.059a.047.047 0 0 0-.031-.02.087.087 0 0 1-.054-.048.05.05 0 0 0-.024-.025c-.015-.007-.043-.01-.054-.003-.007.004-.008.002-.01-.01-.002-.011 0-.019.011-.04a.134.134 0 0 0 .015-.036c0-.011-.018-.027-.032-.027-.014 0-.03-.012-.038-.029a.075.075 0 0 0-.025-.025l-.019-.011.012-.006a.038.038 0 0 0 .018-.023l.006-.016-.027-.056c-.026-.051-.028-.058-.026-.074a.155.155 0 0 1 .042-.082c.039-.037.042-.031.039.069-.002.067-.002.076.005.089.016.032.059.04.223.04a.958.958 0 0 0 .195-.012c.036-.01.056-.036.064-.082.013-.08.023-.108.045-.124.01-.007.016-.008.036-.007.023 0 .047-.007.047-.015 0-.002.009.002.019.01a.22.22 0 0 0 .152.045c.086-.005.157-.048.188-.114.033-.07.027-.185-.015-.315-.036-.109-.091-.177-.165-.203a.263.263 0 0 0-.187.015.314.314 0 0 1-.03.013c-.001 0-.003-.005-.003-.011 0-.025-.02-.026-.051-.003a1.133 1.133 0 0 0-.13.134c-.053.067-.075.107-.075.14 0 .014.004.028.018.055.015.03.029.081.02.073a3.402 3.402 0 0 1-.058-.15c-.054-.146-.055-.148-.07-.156l-.015-.01-.047.014c-.056.017-.063.023-.07.06a.22.22 0 0 1-.018.05.4.4 0 0 1-.078.092.055.055 0 0 0-.022.04l.017.052.017.046.02.005c.018.005.019.005.035-.006a.528.528 0 0 0 .051-.046l.035-.034.05.136.051.136-.008.013a.262.262 0 0 1-.052.06c-.035.026-.066 0-.098-.08a.503.503 0 0 0-.046-.104c-.024-.035-.056-.041-.125-.026a.239.239 0 0 1-.068.007c-.043-.002-.047-.006-.054-.059a1.061 1.061 0 0 0-.015-.083c-.012-.05-.011-.065.005-.095a.454.454 0 0 1 .118-.11.672.672 0 0 0 .223-.23.356.356 0 0 1 .04-.056.926.926 0 0 1 .436-.25.433.433 0 0 1 .211.04c.082.036.152.065.24.097a.62.62 0 0 1 .175.083c.024.02.04.044.033.054a.12.12 0 0 1-.02.018c-.017.012-.018.013-.065.012a.916.916 0 0 1-.147-.018.443.443 0 0 0-.099-.013c.007.012.109.141.125.159.015.017.017.021.013.027-.004.006-.004.02 0 .058l.005.05.018.013.017.012.037-.018a.615.615 0 0 0 .06-.034l.025-.016.002.016.018.185.015.168.012.012.013.012.046-.002c.077-.004.082-.005.094-.021l.01-.014-.027-.295-.028-.296.015-.02c.02-.025.028-.045.028-.065 0-.042.011-.043.051-.006.037.035.05.042.08.04.019 0 .03-.006.06-.022a.522.522 0 0 1 .251-.061c.107-.006.157-.02.166-.044a.034.034 0 0 1 .013-.017c.025-.013.13.003.208.032a.391.391 0 0 1 .1.05c.035.023.047.024.046.004-.001-.022-.02-.055-.053-.09a.336.336 0 0 1-.04-.053.127.127 0 0 1-.009-.084c.012-.043.062-.074.094-.058.052.027.149.177.183.283.013.04.013.049.005.104-.004.024.002.03.03.028.026-.002.046-.02.054-.049.015-.048.001-.1-.04-.163a.366.366 0 0 1-.051-.094c-.011-.039.002-.056.045-.06l.026-.002.062.047a4.101 4.101 0 0 1 1.64 3.022c.007.094.007.459 0 .549-.006.075-.02.22-.024.24-.002.011-.011.024-.043.056-.122.126-.26.314-.305.417a.652.652 0 0 0-.052.228.984.984 0 0 1-.037.217.298.298 0 0 1-.052.104c-.024.019-.047.013-.064-.016-.047-.075-.15-.353-.227-.61a2.288 2.288 0 0 1-.07-.286.364.364 0 0 0-.027-.113c-.008-.013-.016-.01-.028.007a.06.06 0 0 1-.019.02c-.01.004-.032-.004-.045-.017l-.01-.008.014-.019c.019-.024.02-.043.002-.07a.17.17 0 0 1-.018-.044.373.373 0 0 1-.002-.12c.007-.029-.002-.041-.056-.074l-.045-.027-.019.007c-.018.007-.018.008-.025.034a.514.514 0 0 0-.014.098.177.177 0 0 1-.037-.025.233.233 0 0 0-.061-.038 2.758 2.758 0 0 1-.132-.076c-.144-.087-.132-.086-.182-.019a.295.295 0 0 0-.034.052c0 .007-.005.007-.057-.007-.038-.01-.053-.02-.066-.04-.02-.034-.057-.05-.131-.056a.317.317 0 0 1-.07-.012.365.365 0 0 1-.16-.136.395.395 0 0 0-.11-.104c-.03-.015-.043-.015-.055-.002-.008.008-.009.014-.009.038a.63.63 0 0 0 .093.26c.024.037.033.045.056.045.026 0 .05.019.075.058.025.041.044.062.055.062.015 0 .033-.015.076-.063.06-.067.092-.093.112-.088.011.003.017.017.02.049.005.045.036.098.095.16a.42.42 0 0 1 .035.04s-.011 0-.023-.003a.238.238 0 0 0-.138.026.255.255 0 0 0-.095.097c-.013.027-.014.03-.014.072 0 .043 0 .045.016.076a.369.369 0 0 0 .075.105l.028.028-.032.032a.35.35 0 0 1-.077.06 2.062 2.062 0 0 0-.065.04l-.02.013-.021-.019a5.411 5.411 0 0 1-.083-.077c-.059-.056-.062-.06-.08-.06-.017-.001-.019 0-.062.036l-.045.038v.04l.074.07c.04.04.073.072.073.074a.194.194 0 0 1-.029.024c-.027.021-.028.022-.035.014a.044.044 0 0 0-.02-.01.093.093 0 0 1-.033-.017.194.194 0 0 0-.079-.038c-.034-.01-.043-.016-.077-.049a.21.21 0 0 1-.052-.065.618.618 0 0 0-.022-.047.366.366 0 0 0-.09-.145c-.028-.031-.033-.04-.03-.054a.326.326 0 0 1 .043-.054.83.83 0 0 0 .075-.094l.022-.027h-.065l-.012.017a.714.714 0 0 1-.064.077c-.035.04-.052.068-.052.09 0 .02.017.047.058.094a.36.36 0 0 1 .04.052l.03.065a.313.313 0 0 1 .024.064c0 .013.008.023.022.027.004.001.013.01.018.017.005.008.017.02.026.028l.024.02a.196.196 0 0 0 .072.034.178.178 0 0 1 .056.026.173.173 0 0 0 .033.022c.01.004.018.01.02.015a.5.5 0 0 1 .004.073l.002.066-.015.024a.563.563 0 0 0-.043.084 3.85 3.85 0 0 1-.13-.146l-.13-.148h-.016c-.015 0-.024.004-.061.03a.838.838 0 0 0-.049.035.084.084 0 0 0-.007.022l-.002.017.127.145.16.185.034.039-.009.009a.066.066 0 0 1-.026.014c-.036.009-.05.03-.06.088a.341.341 0 0 1-.015.056.252.252 0 0 0-.014.074l-.006.057-.015.003a.04.04 0 0 0-.026.014c-.012.014-.011.014-.035.003zm1.77-1.774a.204.204 0 0 0 .137-.114c.017-.035.017-.036.017-.08 0-.042 0-.045-.013-.072a.216.216 0 0 0-.046-.06.45.45 0 0 0-.145-.096.668.668 0 0 0-.265-.078.22.22 0 0 0-.195.11c-.057.1-.022.197.1.275a.865.865 0 0 0 .306.12.33.33 0 0 0 .104-.005zm-.102-.046a.865.865 0 0 1-.284-.113.266.266 0 0 1-.089-.09c-.021-.047-.007-.11.035-.151a.185.185 0 0 1 .142-.05c.114.012.29.09.36.161.032.033.044.06.044.096a.103.103 0 0 1-.015.059c-.03.06-.073.087-.145.09l-.048-.001zm.091-.058a.088.088 0 0 0 .06-.077c0-.05-.046-.087-.176-.146-.165-.073-.237-.083-.279-.037a.072.072 0 0 0-.015.083c.017.037.067.07.178.12.123.054.187.07.232.057zm-.093-.057a.91.91 0 0 1-.264-.13c-.012-.014-.01-.03.002-.041.009-.008.013-.01.035-.009a.62.62 0 0 1 .18.06c.134.059.173.095.135.124-.01.008-.055.006-.088-.005zm.42-.376c.012-.008.016-.014.027-.052.012-.042.013-.044.007-.059a.047.047 0 0 0-.012-.018c-.037-.02-.078-.091-.09-.154-.007-.036-.015-.042-.078-.057l-.053-.012-.017.012-.016.013.003.023a.526.526 0 0 0 .024.094c.003.006.002.007-.004.005a43.002 43.002 0 0 0-.201-.048l-.194-.047-.015.008c-.017.01-.016.006-.036.076l-.013.042.01.016.008.016.313.075.319.076c.004 0 .012-.004.02-.01zm-.32-.114l-.291-.071a.193.193 0 0 1 .02-.058l.214.05c.115.028.212.05.215.048a.06.06 0 0 0 .016-.017l.01-.016-.013-.03a.289.289 0 0 1-.026-.083c0-.002.013 0 .028.003l.027.006.007.026a.297.297 0 0 0 .08.146l.019.019-.005.02a.111.111 0 0 1-.008.022 3.611 3.611 0 0 1-.293-.065zm-1.3-.172c.024-.028.032-.117.022-.241-.007-.096-.023-.149-.052-.174a.287.287 0 0 0-.04-.027.345.345 0 0 1-.098-.093c-.04-.063-.033-.084.042-.121.038-.02.058-.035.062-.046.004-.012-.01-.036-.039-.065-.04-.043-.064-.05-.102-.03a.505.505 0 0 0-.147.135.078.078 0 0 0-.012.05c0 .034.013.066.054.138a.97.97 0 0 1 .07.138c.014.04.03.104.03.127 0 .027.01.076.022.102a.178.178 0 0 0 .06.076c.066.05.106.06.129.031zm1.742-.317l.015-.014v-.045c0-.053-.003-.058-.046-.08a.207.207 0 0 1-.055-.04.344.344 0 0 1-.064-.089c0-.003-.006-.01-.012-.015-.012-.01-.014-.01-.071-.01h-.06l-.01.016c-.007.011-.01.019-.008.025a.447.447 0 0 0 .042.08l.015.023h-.414l-.013.013-.013.012v.113l.013.013.012.013h.653zm-.642-.067v-.03h.445l.008-.018a.152.152 0 0 0 .008-.023.186.186 0 0 0-.022-.03.269.269 0 0 1-.046-.072c0-.004.007-.005.027-.005h.027l.01.02a.35.35 0 0 0 .123.127l.025.014v.047h-.605v-.03zm.162-.359c.05-.01.13-.035.186-.059.147-.064.212-.153.186-.255a.21.21 0 0 0-.1-.133c-.08-.042-.197-.035-.356.024-.122.044-.19.093-.223.158a.124.124 0 0 0-.015.066.17.17 0 0 0 .02.097c.03.058.087.1.156.11a.51.51 0 0 0 .146-.008zm-.158-.046a.145.145 0 0 1-.102-.086.105.105 0 0 1-.012-.058c0-.042.013-.069.05-.102a.687.687 0 0 1 .252-.114c.137-.034.221-.019.269.049a.14.14 0 0 1 .015.139.263.263 0 0 1-.09.084.925.925 0 0 1-.252.088.35.35 0 0 1-.13 0zm.122-.064c.088-.022.21-.068.25-.094.056-.035.071-.083.042-.125-.036-.051-.1-.05-.27.008-.176.058-.231.111-.191.182.024.044.077.053.169.03zm-.12-.048c-.034-.033.015-.068.165-.118.139-.046.193-.051.208-.02.015.031-.032.061-.165.107a.642.642 0 0 1-.17.041c-.025 0-.03 0-.038-.01zm-.465-.437l.189-.241c.174-.223.18-.231.179-.245a.055.055 0 0 0-.005-.019.4.4 0 0 0-.094-.057.094.094 0 0 0-.031.01.251.251 0 0 1-.12.022.61.61 0 0 1-.073-.004c-.033-.006-.04 0-.079.047l-.032.041.006.02.006.02.029.006a.538.538 0 0 0 .065.01l.04.005c0 .001-.05.069-.115.15l-.116.149.003.018.003.018.05.033c.048.03.052.032.068.03.013-.002.02-.005.026-.013zm-.065-.058a.1.1 0 0 1-.025-.02c0-.002.056-.074.124-.161a3.37 3.37 0 0 0 .124-.164.068.068 0 0 0-.009-.02l-.009-.016h-.057c-.055-.002-.08-.005-.08-.01a.14.14 0 0 1 .015-.02l.015-.017.02.004a.476.476 0 0 0 .136-.002.333.333 0 0 0 .054-.016l.025-.01.022.014a.137.137 0 0 1 .021.016c0 .005-.341.436-.345.437a.09.09 0 0 1-.03-.015zm-.396-.162c.068-.017.125-.07.168-.154a.572.572 0 0 0 .071-.314c-.018-.099-.108-.164-.223-.164a.195.195 0 0 0-.147.061.365.365 0 0 0-.08.117c-.057.119-.081.246-.06.316.027.085.115.143.215.144a.291.291 0 0 0 .056-.006zm-.093-.048c-.06-.013-.1-.042-.122-.09-.012-.024-.013-.029-.012-.068a.57.57 0 0 1 .07-.243c.036-.07.076-.11.126-.125.085-.027.186.016.214.09.023.06.003.178-.05.289-.042.089-.093.137-.156.149a.138.138 0 0 1-.07-.002zm.063-.048c.041-.017.076-.076.117-.197a.452.452 0 0 0 .033-.143c0-.042-.006-.058-.028-.078a.087.087 0 0 0-.082-.02c-.052.012-.09.074-.138.221-.03.096-.035.146-.016.182.017.034.073.052.114.035zm-.057-.048c-.029-.016-.025-.061.015-.178.038-.11.071-.164.1-.164.054 0 .056.047.007.188a.515.515 0 0 1-.07.143c-.016.016-.036.02-.052.01zm-.404.047l.013-.01.026-.295.026-.294-.011-.012-.011-.014a.65.65 0 0 0-.051-.005c-.06-.005-.067-.003-.088.03a.193.193 0 0 1-.035.037.428.428 0 0 1-.113.059c-.032.009-.04.02-.044.065-.007.062-.006.066.012.08l.015.012.033-.01a.486.486 0 0 0 .064-.023.106.106 0 0 1 .032-.012 9.63 9.63 0 0 1-.03.355c-.002.008.001.014.011.025.013.014.014.014.06.018.075.006.076.006.09-.006zm-.088-.044h-.023l.002-.014.034-.38c0-.003-.01-.01-.02-.016l-.018-.01-.03.017a.354.354 0 0 1-.095.04.077.077 0 0 1 0-.023c.003-.022.003-.022.022-.03a.577.577 0 0 0 .116-.063.306.306 0 0 0 .038-.038l.017-.02.028.002a.53.53 0 0 0 .029.003l-.023.265-.024.267c0 .003-.007.003-.053 0zm-.263 4.293c-.073-.01-.153-.077-.232-.197-.073-.11-.084-.192-.035-.25a.22.22 0 0 1 .085-.053c.103-.032.197.024.302.18.096.144.094.238-.007.297a.175.175 0 0 1-.113.023zm.08-.057a.107.107 0 0 0 .03-.024c.01-.015.011-.017.011-.05a.101.101 0 0 0-.015-.065.916.916 0 0 0-.09-.138c-.086-.114-.141-.146-.201-.115-.031.015-.046.038-.046.068 0 .013.003.032.007.044.016.047.111.185.164.238.05.049.098.064.14.042zm-.067-.047a.626.626 0 0 1-.149-.176c-.053-.083-.058-.115-.018-.129.027-.009.065.021.122.096a.54.54 0 0 1 .106.178c.002.015 0 .018-.008.026-.014.013-.034.015-.053.004zm-2.214.033a.553.553 0 0 1-.025-.04l-.007-.015.013.011a.047.047 0 0 0 .024.011c.01 0 .011 0 .013.029l.001.03a.14.14 0 0 1-.019-.026zm-2.61-.055a.155.155 0 0 1-.12-.119c-.019-.079.04-.146.189-.218.135-.064.241-.082.308-.05.033.015.059.04.076.076a.1.1 0 0 1 .013.059.095.095 0 0 1-.013.056c-.029.055-.109.11-.234.16a.403.403 0 0 1-.218.036zm.096-.064c.045-.013.13-.049.197-.083.059-.03.097-.06.109-.086a.08.08 0 0 0-.03-.1c-.016-.01-.019-.011-.058-.011a.197.197 0 0 0-.083.015c-.055.019-.15.061-.2.088-.088.048-.116.102-.081.152.028.04.071.047.146.025zm2.475.053c-.005-.009-.004-.009.002-.002.004.004.006.008.005.01-.001 0-.005-.003-.007-.008zm.159-.028c.004-.011.009-.02.014-.021a.064.064 0 0 0 .018-.012c.012-.012.016-.01.03.016l.01.018h-.01a.304.304 0 0 0-.061.014c-.006.003-.007.002-.001-.015zm-.17-.005c0-.005 0-.006.001-.002v.008s-.002-.001-.002-.005zm.055-.006a.114.114 0 0 0-.006-.026c-.005-.014-.005-.016.001-.02.006-.005.007-.005.008.001 0 .004.003.01.005.011.004.005 0 .038-.005.04-.002.002-.004-.001-.004-.006zm2.52-.304a9.076 9.076 0 0 1-.183-.214c0-.003.01-.013.026-.023l.027-.02.138.16c.135.154.138.157.15.155.026-.006.03-.01.039-.04a.293.293 0 0 1 .04-.086.08.08 0 0 1 .018.019l.016.018-.015.033a.292.292 0 0 0-.03.14l.001.037-.02.015a.19.19 0 0 1-.023.014l-.184-.208zm.35.1c0-.014.004-.034.008-.044a.115.115 0 0 0 .006-.05c-.001-.027-.003-.032-.012-.038a.038.038 0 0 0-.018-.008c-.005 0-.011-.006-.016-.014-.01-.016-.007-.018.016-.018.027 0 .042.023.042.064a.48.48 0 0 1-.02.11l-.007.024zm-.072-.01l.007-.023c.003-.009.009-.027.015-.039l.01-.022.001.017c.001.01 0 .02-.005.026a.108.108 0 0 0-.009.028c-.002.017-.004.019-.012.019-.007 0-.01-.002-.008-.006zm.136-.401a12.024 12.024 0 0 1-.205-.198c0-.002.01-.012.024-.024l.024-.02.013.011.14.133.143.135.014.013.02-.008c.019-.007.022-.01.022-.02a.37.37 0 0 1 .024-.092l.009-.02.02.02.019.019-.01.026a.292.292 0 0 0-.016.16l.006.024-.015.013a.437.437 0 0 1-.021.017c-.006.004-.035-.02-.211-.189zm-5.698.042a.378.378 0 0 0-.117-.104.12.12 0 0 1-.036-.023.11.11 0 0 1-.003-.024v-.016l.025-.002c.094-.01.574-.042.576-.04a.294.294 0 0 1 .006.058l-.223.017-.222.016-.006.022-.006.022.027.027c.026.026.058.069.053.07l-.029.002-.025.002-.02-.026zm6.197-.222a.273.273 0 0 1-.082-.031.726.726 0 0 1-.23-.188c-.035-.053-.044-.1-.024-.141a.21.21 0 0 1 .072-.076c.087-.048.187-.019.33.096a.41.41 0 0 1 .133.158.136.136 0 0 1-.006.093.182.182 0 0 1-.12.09.15.15 0 0 1-.073-.001zm.083-.052a.084.084 0 0 0 .06-.088c-.007-.044-.071-.11-.195-.199-.097-.07-.156-.083-.2-.048-.034.027-.04.062-.02.103.018.037.086.1.184.17.05.035.086.055.117.062.028.007.03.007.054 0zm-.286-.223c-.019-.02-.033-.042-.033-.051 0-.002.005-.01.01-.016.008-.01.014-.013.025-.013.019 0 .053.012.055.018a.392.392 0 0 1-.035.083l-.022-.021zm-5.735.018c-.157-.014-.297-.063-.34-.12a.135.135 0 0 1-.017-.13.156.156 0 0 1 .1-.09.628.628 0 0 1 .19-.004c.227.033.333.108.31.218-.021.095-.105.138-.243.126zm.121-.066c.04-.009.069-.04.069-.08 0-.058-.053-.09-.203-.12-.155-.03-.23-.031-.268-.002a.083.083 0 0 0-.022.097c.018.039.08.065.22.091a.57.57 0 0 0 .204.014zm6.04-.228l-.248-.151c-.004-.004.033-.054.039-.052l.186.112.181.11.02-.012.018-.012v-.059c0-.033 0-.06.003-.062.004-.004.05.024.048.03a.658.658 0 0 0-.003.046.278.278 0 0 0 .022.133.08.08 0 0 1 .01.03.16.16 0 0 1-.029.035s-.112-.066-.246-.148zm-2.96.023l-.018-.025-.03.005a.42.42 0 0 1-.175-.011l-.018-.005.04-.003a.378.378 0 0 0 .136-.028c.001-.002-.002-.006-.007-.008a.633.633 0 0 1-.101-.084.445.445 0 0 1-.11-.191.279.279 0 0 1-.01-.103.43.43 0 0 1 .009-.105.433.433 0 0 1 .105-.215c.034-.036.036-.034.014.011a.507.507 0 0 0-.036.378.5.5 0 0 0 .132.207l.044.044.001-.017c0-.009-.002-.1-.007-.202a7.735 7.735 0 0 1-.008-.312v-.127l.009-.005a.227.227 0 0 0 .03-.025l.02-.02.022.02a.22.22 0 0 0 .03.025l.01.005v.14c0 .08-.005.224-.009.328a3.548 3.548 0 0 0-.006.187.601.601 0 0 0 .092-.091.45.45 0 0 0 .107-.297.526.526 0 0 0-.058-.241.2.2 0 0 1-.017-.037.111.111 0 0 1 .026.022.42.42 0 0 1 .11.217.566.566 0 0 1 0 .212.548.548 0 0 1-.07.146.603.603 0 0 1-.13.124l-.023.014.011.004a.535.535 0 0 0 .149.025h.024l-.018.006a.412.412 0 0 1-.2.008c-.005 0-.012.006-.026.024a.14.14 0 0 1-.022.026.118.118 0 0 1-.021-.025zm-.311-.146a.405.405 0 0 1-.15-.243.456.456 0 0 1 .006-.163.364.364 0 0 1 .201-.238c.068-.033.07-.033.027.012a.552.552 0 0 0-.14.254.531.531 0 0 0-.003.19.663.663 0 0 0 .086.207l-.028-.02zm.655-.012a.491.491 0 0 0-.074-.619.312.312 0 0 1-.035-.039.418.418 0 0 1 .222.167.384.384 0 0 1-.018.415.504.504 0 0 1-.1.1l-.013.007zm-3.362-.22l-.202-.079-.016.016-.016.016.009.028c.005.015.01.043.01.06l.003.034-.026-.01-.026-.01-.005-.036a.302.302 0 0 0-.054-.147.09.09 0 0 1-.015-.022c0-.008.018-.04.023-.04.006 0 .543.208.547.212.004.004-.021.056-.027.056l-.205-.08zm.252-.25a.76.76 0 0 1-.288-.162c-.059-.058-.073-.107-.046-.163a.166.166 0 0 1 .184-.095c.128.019.326.14.368.226.01.02.012.029.011.054 0 .033-.01.058-.036.09-.04.05-.117.07-.192.05zm.122-.056a.089.089 0 0 0 .05-.073c0-.02-.019-.053-.042-.073a1.07 1.07 0 0 0-.288-.16c-.038-.01-.058-.008-.083.005a.077.077 0 0 0-.045.07c0 .034.017.06.066.096.063.046.19.115.245.134.036.011.077.012.098.002zm2.584-.154a.066.066 0 0 1-.047-.063c0-.026.005-.03.016-.014.025.041.064.05.097.02l.015-.014.011.01c.035.033.071.028.102-.014l.011-.016.004.011c.01.025-.008.061-.036.076-.027.014-.064.01-.082-.01-.007-.008-.007-.008-.02.002a.094.094 0 0 1-.048.018.101.101 0 0 1-.024-.006zm-1.661-.163c0-.002.009-.014.02-.026a.128.128 0 0 0 .02-.026c0-.002.005-.005.01-.006.035-.008.054-.032.054-.068 0-.024-.002-.03-.031-.083-.008-.015-.005-.02.016-.026.028-.007.047-.026.05-.05.002-.016 0-.02-.01-.03-.017-.017-.04-.022-.095-.022h-.047l-.02-.019a.088.088 0 0 0-.03-.022c-.012-.002-.014-.005-.018-.02-.011-.044-.022-.069-.034-.08-.007-.008-.016-.014-.019-.014-.004 0-.007-.007-.008-.025-.003-.027-.009-.04-.026-.05-.01-.006-.01-.008-.01-.032.001-.025.001-.026-.013-.04-.013-.013-.015-.017-.014-.032a.085.085 0 0 0-.024-.06.092.092 0 0 1-.02-.063c0-.025-.011-.045-.027-.049a.073.073 0 0 1-.023-.016l-.013-.013.01-.02a.09.09 0 0 0 .008-.026c0-.004.005-.014.012-.021.016-.018.016-.033 0-.052a.059.059 0 0 0-.022-.016c-.01-.002-.01-.004-.01-.035 0-.044-.005-.069-.015-.083-.007-.009-.008-.016-.008-.035 0-.02-.001-.027-.008-.037l-.01-.012h.056l.004-.021a.57.57 0 0 1 .015-.067c.003-.003.03.026.035.038.003.007.013.02.021.03.01.01.022.027.029.037a.08.08 0 0 0 .036.03.074.074 0 0 1 .025.017c.014.034.027.042.09.059.037.01.047.01.12.01.096.001.104-.001.138-.04a.168.168 0 0 1 .032-.03.53.53 0 0 0 .08-.056.419.419 0 0 1 .065-.042.563.563 0 0 0 .047-.026c.023-.014.033-.014.048.001l.013.012-.01.013c-.01.01-.011.015-.01.033a.07.07 0 0 0 .01.033.073.073 0 0 1 .01.014.077.077 0 0 1-.021.013c-.034.017-.043.035-.03.062.008.014.037.04.05.043.006.002.009.005.009.01 0 .016.015.03.034.036a.097.097 0 0 1 .04.023c.023.021.034.028.045.028.007 0 .01.004.011.02a.379.379 0 0 0 .03.102c.03.066.046.083.114.117a.202.202 0 0 0 .083.019c.066.006.078.011.097.042.02.03.043.054.077.074l.039.025a.04.04 0 0 0 .02.01.08.08 0 0 1 .029.01.41.41 0 0 0 .042.015l.044.014c.1.036.417.03.493-.01.021-.011.022-.011.095-.01a.332.332 0 0 0 .073-.004c0-.01-.013-.122-.014-.128-.002-.005.004-.007.028-.01a.303.303 0 0 0 .058-.018.133.133 0 0 1 .037-.012c.01 0 .035-.016.048-.03a.09.09 0 0 0 .02-.049c0-.02.034-.05.081-.07l.04-.017.108-.002.108-.002.003-.016.005-.025c.002-.01.003-.01.023-.007.012 0 .03.007.042.013.023.011.063.016.076.01.007-.004.008-.003.01.01.006.033.032.05.084.058a.246.246 0 0 1 .1.035c.004.004.01.008.015.008.004 0 .011.004.016.01.016.017.033.02.113.02h.074l.015.012a.14.14 0 0 0 .028.017c.01.004.014.009.016.019a.173.173 0 0 0 .039.064c.015.017.039.03.053.03.005 0 .022.006.038.012.029.01.03.012.05.04.051.076.052.077.145.077h.069l.009.017c.008.015.009.022.008.05-.001.027-.003.034-.011.042a.045.045 0 0 0-.007.05c.004.007.008.013.01.013s.008.008.013.017c.012.023.009.073-.006.092-.02.026-.023.039-.027.093-.005.063-.008.078-.022.094l-.01.013h-1.68c-1.229 0-1.68-.001-1.68-.004zm-.72-.2l-.174-.127-.02.01-.02.011v.027a.322.322 0 0 1-.012.086l-.004.013-.022-.016a.132.132 0 0 1-.022-.019l.006-.034a.312.312 0 0 0-.008-.15l-.01-.027.019-.019.019-.018.23.169c.127.093.23.17.23.173a.122.122 0 0 1-.02.026l-.02.023-.173-.127zm.364-.349a23.48 23.48 0 0 0-.158-.142c-.005-.004-.01-.003-.026.004-.019.008-.021.01-.021.02a.35.35 0 0 1-.02.088l-.01.023-.02-.018-.022-.018.01-.027c.015-.04.023-.1.018-.134a.17.17 0 0 0-.009-.038c-.004-.01-.003-.012.017-.03l.021-.019.012.011.19.173c.16.144.18.163.183.177a.06.06 0 0 0 .014.026l.009.01-.012.012c-.023.024-.012.032-.177-.118zm1.714.01l-.046-.007a.291.291 0 0 1-.05-.012.275.275 0 0 0-.043-.012.136.136 0 0 1-.05-.019.471.471 0 0 1-.054-.022.641.641 0 0 0-.052-.022c-.002 0-.008-.006-.014-.012a.365.365 0 0 0-.02-.025.047.047 0 0 1-.012-.017c0-.009-.029-.042-.043-.05a.264.264 0 0 0-.1-.022c-.062-.007-.08-.013-.107-.038a.177.177 0 0 1-.054-.131.14.14 0 0 0-.004-.038c-.003-.006-.003-.01 0-.014.005-.004.007-.024.008-.059l.002-.052.018-.005.024-.007c.01-.006.028-.04.032-.06.004-.018.006-.022.013-.022.004 0 .014-.006.021-.014.018-.018.018-.032 0-.057-.017-.021-.017-.026-.004-.054a.201.201 0 0 0 .014-.063c.006-.06.004-.055.037-.058.016-.001.165-.002.331-.001h.303l.003.013a.09.09 0 0 0 .035.051.088.088 0 0 1 .02.022.115.115 0 0 0 .027.026l.02.018-.008.022c-.007.02-.008.021-.001.046.006.024.006.027 0 .03-.012.007-.023.036-.025.066-.004.054.014.093.042.093.015 0 .028-.01.031-.025.003-.013.01-.074.012-.093 0-.016 0-.016.017-.017.015-.001.017 0 .028.015.017.025.04.044.059.047.008 0 .015.005.015.007l-.008.028a.483.483 0 0 0-.01.136.806.806 0 0 0 .036.32.25.25 0 0 0 .005.026l.003.013h-.026a.406.406 0 0 0-.149.031.122.122 0 0 1-.045.01.16.16 0 0 0-.043.007c-.01.004-.17.005-.187.002zm-.751-.484a.237.237 0 0 0-.03-.018.054.054 0 0 1-.025-.024.053.053 0 0 0-.026-.025c-.01-.005-.02-.011-.02-.014a.193.193 0 0 1 .064-.024l.038.05.038.05-.01.007c-.013.01-.015.01-.03-.003zM8.32 9.127a6.06 6.06 0 0 1 .108-.2l.014-.024.021.004.03.005c.013.002.038.025.044.04a.058.058 0 0 1-.007.06.417.417 0 0 1-.1.084c-.031.019-.12.066-.126.066a.222.222 0 0 1 .015-.035zm2.023.01l-.015-.02.009-.015a.313.313 0 0 0 .05-.172l-.002-.018.024-.015.024-.015.014.017.058.076.045.06-.017.01a.182.182 0 0 1-.032.017c-.014.005-.016.005-.02-.002-.02-.027-.02-.027-.044-.022-.021.005-.023.006-.025.019a.465.465 0 0 1-.048.097c-.004.003-.009 0-.02-.016zM10.845 9c-.094-.142-.111-.244-.05-.305.05-.05.13-.07.192-.045.061.024.13.098.19.201l.01.02H11.1l-.034-.052a.345.345 0 0 0-.112-.12c-.04-.02-.078-.014-.107.017-.02.021-.022.03-.02.066.002.033.017.068.057.136l.03.05-.003.025c-.004.032-.016.053-.03.054A.27.27 0 0 1 10.845 9zm.654-.288l-.08-.158h-.043l-.013.023a.45.45 0 0 1-.059.078c-.007.007-.008.006-.019-.017l-.011-.024.017-.018a.407.407 0 0 0 .064-.1.387.387 0 0 0 .013-.048l.005-.026.026-.01a.098.098 0 0 1 .027-.01c.002.003.23.464.23.467a.203.203 0 0 1-.039.002h-.039zm.51-.145a7.692 7.692 0 0 0-.072-.19.075.075 0 0 0-.023-.005l-.02-.003-.021.028a.383.383 0 0 1-.071.072l-.01-.023-.007-.022.032-.033a.281.281 0 0 0 .082-.138c.003-.014.004-.015.031-.023a.345.345 0 0 1 .03-.008 91.965 91.965 0 0 1 .187.504c.002.005-.004.008-.029.016l-.035.01a2.119 2.119 0 0 1-.074-.186zm-.905.103l-.029-.028.012-.006c.026-.013.039-.002.044.038a.465.465 0 0 1 .003.024l-.03-.028zm1.367-.031c-.066-.023-.104-.07-.136-.166a.499.499 0 0 1-.026-.26.146.146 0 0 1 .09-.096.244.244 0 0 1 .13-.005c.061.021.102.071.134.164a.566.566 0 0 1 .034.227c-.01.075-.048.118-.119.137a.228.228 0 0 1-.107-.001zm.115-.051a.106.106 0 0 0 .027-.03c.01-.017.01-.022.01-.066a.71.71 0 0 0-.036-.198c-.031-.105-.065-.144-.123-.145-.056 0-.09.04-.09.105 0 .05.03.19.055.255.015.038.043.075.066.085a.085.085 0 0 0 .045.007c.025 0 .031-.003.046-.013zm-.077-.045a.16.16 0 0 1-.036-.06c0-.002.016-.005.035-.005a.152.152 0 0 0 .044-.007c.01-.005.01-.005.002-.013-.01-.012-.032-.017-.065-.015h-.029l-.006-.02a.577.577 0 0 1-.028-.195c.003-.017.02-.03.04-.03.012 0 .03.014.043.034a.9.9 0 0 1 .063.234c.007.058-.003.082-.034.087-.014.002-.018 0-.03-.01zm.55-.168a7.18 7.18 0 0 0-.02-.198c-.002-.01-.006-.013-.022-.019l-.021-.008-.016.015a.456.456 0 0 1-.081.056c-.017.008-.017.008-.017 0a.404.404 0 0 0-.002-.025c-.002-.016-.002-.018.006-.02a.402.402 0 0 0 .144-.13l.01-.02.03-.003c.016 0 .03-.002.03-.002.002.003.05.533.049.535-.001 0-.018.003-.038.004l-.035.002zm-3.83.048c-.061-.02-.12-.098-.14-.185a.475.475 0 0 1-.012-.096l-.002-.06.058-.056c.46-.441.984-.76 1.577-.956l.044-.015.029.012a.176.176 0 0 1 .041.022l.013.01-.009.009a.12.12 0 0 1-.028.014.253.253 0 0 0-.102.062.432.432 0 0 0-.093.134c-.042.098-.097.168-.149.193a.114.114 0 0 0-.055.047c-.009.019-.008.057.002.099a.347.347 0 0 1 .008.053c0 .017 0 .019-.009.019a.212.212 0 0 1-.05-.026c-.075-.048-.097-.048-.093-.002.001.014.01.03.021.038a.102.102 0 0 0 .035.009c.028.004.034.009.026.025-.017.033-.12.075-.21.087a.753.753 0 0 0-.292.112c-.06.038-.171.093-.224.11a.234.234 0 0 0-.11.066.443.443 0 0 0-.093.133.343.343 0 0 1-.078.113c-.035.033-.067.042-.104.029zm-5.258.172a.22.22 0 0 0 .033-.031c.006-.01.006-.011 0-.016a.099.099 0 0 0-.036-.007c-.033-.003-.046-.01-.054-.03-.004-.013-.005-.005-.005.059v.073l.018-.013a.882.882 0 0 0 .044-.034z"/></svg>