<svg role="img" viewBox="0 0 24 24" xmlns="http://www.w3.org/2000/svg"><path d="M10.612 20.556a10.98 10.98 0 0 1-2.353-.524c-1.78-.591-3.564-1.634-5.223-3.053-.533-.456-.844-.753-1.575-1.504-.577-.594-1.44-1.584-1.46-1.677-.012-.05.399-.06 2.799-.06h2.813l.066.095c.037.052.26.387.496.745.501.758.74 1.075 1.27 1.679 1.357 1.55 2.742 2.432 4.297 2.735.365.072.548.083 1.051.067.336-.011.704-.044.82-.072.618-.153.87-.232 1.022-.32l.11-.064-.125.023c-.324.057-1.243.073-1.595.028-2.07-.27-4.05-1.582-6.34-4.202-.781-.892-2.052-2.537-2.012-2.602.03-.05 5.639-.059 5.712-.01.025.017.162.257.302.534.886 1.74 1.792 2.828 2.863 3.433.422.238 1.166.375 1.574.288l.335-.071c.227-.049.96-.427 1.238-.64.343-.26.923-.835 1.257-1.244.255-.311.705-.962 1.044-1.509.099-.158.19-.277.205-.263.04.04-.229 1.026-.476 1.748-.639 1.864-1.458 3.292-2.52 4.39-.615.636-1.192 1.065-1.902 1.412-.934.456-1.64.62-2.77.64a14.75 14.75 0 0 1-.923-.002zm2.923-8.465c-.032-.052-.185-.34-.341-.64-.575-1.104-1.04-1.76-1.741-2.455-.546-.54-.878-.761-1.45-.963-.85-.3-1.783-.098-2.706.587-.729.54-1.594 1.568-2.232 2.651-.294.498-.38.541-.266.132.038-.135.084-.312.103-.392.17-.744.697-2.15 1.118-2.985 1.298-2.57 2.976-4.007 5.25-4.494.397-.085.567-.097 1.356-.095.656 0 1.017.021 1.322.074 3.09.531 6.217 2.412 8.914 5.36.66.72 1.137 1.289 1.138 1.353 0 .017-1.276.027-2.837.021l-2.837-.01-.348-.544c-.642-1.004-1.21-1.728-1.923-2.451-1.157-1.175-2.32-1.876-3.637-2.193-.281-.067-.503-.086-1.03-.088-.724-.003-1.12.055-1.7.247-.351.116-.49.207-.252.164.081-.015.37-.038.642-.053 2.51-.134 5.062 1.512 8.01 5.169.743.92 1.22 1.575 1.195 1.64-.02.051-.435.06-2.856.06h-2.834z"/></svg>