<svg role="img" viewBox="0 0 24 24" xmlns="http://www.w3.org/2000/svg"><path d="M2.295 17.274C1.15 16.997.268 16.084.061 14.962.023 14.755 0 13.608 0 11.887c0-2.973.009-3.076.317-3.684.179-.353.671-.881 1.044-1.121.15-.096.446-.236.656-.31.38-.134.405-.135 2.642-.136 2.479 0 2.566.009 3.186.34.68.362 1.17.939 1.425 1.676.132.381.132.389.132 3.29 0 2.314-.016 2.966-.078 3.191-.298 1.069-1.197 1.924-2.258 2.15-.535.113-4.295.106-4.77-.009zm4.751-.222c.918-.216 1.642-.852 1.993-1.75l.132-.338-.007-2.95c-.008-3.294-.006-3.279-.4-3.887a2.771 2.771 0 0 0-1.622-1.18c-.487-.127-4.366-.127-4.852 0-.734.19-1.429.741-1.76 1.393-.28.555-.302.816-.303 3.718-.001 2.891.01 3.02.304 3.6.36.71 1.187 1.303 2.01 1.44.078.014 1.044.027 2.146.031 1.592.005 2.078-.01 2.36-.077zm-4.86-1.012a1.602 1.602 0 0 1-1.058-1.182c-.043-.198-.057-1.18-.045-3.085l.018-2.795.153-.29c.165-.313.382-.521.744-.715.229-.123.271-.125 2.491-.125 2.175 0 2.269.004 2.513.119.32.149.583.417.763.779.13.26.14.344.14 1.058v.776l.212.018c.137.011.217.048.228.105.017.088-1.33 1.307-1.481 1.341-.11.025-1.507-1.233-1.487-1.34.01-.053.096-.1.21-.117l.193-.028v-.342c0-.189-.019-.372-.041-.409-.03-.049-.355-.06-1.233-.04-.655.015-1.2.035-1.21.045-.01.01-.035.962-.056 2.116-.031 1.669-.024 2.116.033 2.185.061.074.257.087 1.248.087.8 0 1.188-.02 1.215-.063.02-.034.034-.314.028-.62l-.01-.56h2.152v.902c0 1.094-.083 1.39-.51 1.816-.433.433-.516.446-2.931.443-1.589-.002-2.114-.02-2.28-.08zm10.456 1.043c-.72-.218-.99-1.214-.487-1.788.23-.261.435-.36.75-.36.291 0 .433.059.667.275.3.278.298.33-.012.48-.279.134-.28.134-.392.021-.223-.223-.578-.09-.66.246-.027.11.002.19.114.325.175.207.336.226.512.06.123-.115.129-.115.413-.014.159.056.288.134.288.173 0 .13-.44.515-.66.576-.245.068-.324.07-.533.006zm5.221-.075c-.28-.229-.975-.717-1.02-.717-.024 0-.043.171-.043.38v.382h-.565l-.015-1.059c-.008-.582-.003-1.059.012-1.059s.295.19.623.424c.327.233.596.404.599.381.002-.023 0-.201-.004-.395l-.008-.353h.629v1.073c0 .59-.011 1.073-.024 1.073a.99.99 0 0 1-.184-.13zm3.118.005a1.17 1.17 0 0 1-.575-.895c-.027-.264-.008-.35.133-.618.136-.258.216-.337.48-.471.383-.197.65-.174 1.007.084.597.432.589 1.338-.016 1.82a.93.93 0 0 1-1.029.08zm.681-.685c.28-.24.134-.715-.22-.715-.175 0-.378.22-.378.408 0 .174.217.44.36.44.047 0 .154-.06.238-.133zm-7.816.654c.193-.415 1.04-2.047 1.062-2.047.017 0 .274.47.573 1.045l.542 1.045h-.325c-.284 0-.337-.018-.418-.141-.08-.123-.134-.142-.403-.142-.276 0-.317.016-.374.142-.057.125-.099.14-.37.14-.17 0-.298-.018-.287-.042zm1.2-.664c-.007-.13-.097-.366-.14-.366-.063 0-.229.341-.193.399.04.064.337.034.333-.033zm3.418.679-.003-1.003v-.974h.713c.712 0 .714 0 .85.159.191.222.183.508-.02.699-.112.106-.133.154-.077.174.31.109.397.588.15.834-.132.133-.168.139-.874.139-.406 0-.738-.013-.739-.028zm1.045-.459c.084-.084.084-.1-.007-.2-.065-.073-.156-.104-.27-.092-.14.013-.174.044-.18.158a.486.486 0 0 0 .017.183c.046.078.348.044.44-.049zm-.026-.841c.058-.07.053-.106-.028-.197-.1-.109-.218-.122-.353-.038-.056.035-.063.158-.02.306.017.056.344-.003.401-.071zm-9.065-1.322c.019-.06.107-.308.195-.55l.161-.443.766-.015.765-.016.017-.351.017-.352.55-.011.551-.011v.734c0 .761-.06 1.013-.257 1.088-.05.02-.7.036-1.445.036-1.312 0-1.354-.003-1.32-.11zm9.19-1.063.016-.664h1.072v.613l-.552.358-.552.357zm-5.565-.028.01-.636h1.109v.616l-.526.327c-.289.18-.543.328-.564.328-.022 0-.034-.286-.029-.635zm-3.495-.989c-.176-.202-.194-.34-.174-1.36.016-.854.036-1.06.116-1.18.155-.238.728-.568 1.306-.753.796-.255 1.047-.293 1.283-.195.299.125.354.323.364 1.306l.01.841-.57.016-.569.016.025-.564c.024-.56-.013-.694-.157-.583-.038.029-.24.124-.45.211l-.381.159v.943l1.27.008c.7.005 1.303.01 1.342.014.054.004.077-.352.099-1.541l.028-1.547.536-.217c.295-.12.543-.217.55-.218.007 0 .02.793.028 1.764l.015 1.765h.678l.01-1.18c.007-.649.032-1.2.057-1.223.025-.024.249-.126.498-.228a4.38 4.38 0 0 0 .505-.23.19.19 0 0 1 .099-.048c.025 0 .045.85.045 1.888v1.887l-.174.174-.174.174H13.7c-2.848 0-3.07-.007-3.15-.1zm7.379-.04-.139-.138V9.545c0-1.438.022-2.572.05-2.572.027 0 .079.036.115.079.036.044.268.212.514.374l.45.294.014 1.718.015 1.717 1.878.013c1.378.009 1.877-.005 1.877-.053 0-.035-.035-.078-.079-.094a5.295 5.295 0 0 1-.494-.327c-.434-.31-1.27-.782-1.387-.784-.048 0-.073.156-.085.511l-.016.512-.522.01-.523.011V9.31l.156-.142c.25-.23.476-.291.967-.263.485.028.997.232 1.56.62l1.002.69.72.493v.67c0 .368-.016.71-.035.76-.095.248-.205.257-3.127.257h-2.773zm-2.002-4.343v-.529l.494-.184c.272-.1.518-.206.548-.233.122-.113.147-.024.132.47l-.017.518-.559.244c-.308.134-.568.243-.579.243-.01 0-.02-.238-.02-.529z"/></svg>