<svg viewBox="0 0 24 24" xmlns="http://www.w3.org/2000/svg" role="img"><path d="M4.485 23.956C3.12 23.84 1.82 23.093.947 21.922a5.516 5.516 0 0 1-.685-1.339c-.24-.725-.232-.451-.232-8.581 0-8.336-.014-7.924.283-8.737C.873 1.733 2.127.586 3.73.144l.45-.125 7.597-.014C18.58-.007 19.422 0 19.832.067c1.103.181 1.993.66 2.79 1.497.62.652 1.014 1.373 1.246 2.277l.102.399v7.714c0 7.063-.006 7.744-.079 8.068-.486 2.177-2.22 3.731-4.39 3.937-.6.057-14.341.054-15.016-.003zm5.22-5.523c.39-.19.738-.563.877-.934.071-.19.11-.422.127-.786l.026-.517.31.103c.837.278 1.942.353 2.785.187a5.646 5.646 0 0 0 4.47-4.391c.108-.498.12-1.65.025-2.134-.534-2.693-2.792-4.579-5.493-4.586-1.396-.004-2.629.445-3.669 1.336-.148.127-.29.218-.316.202-.026-.016-.048-.16-.048-.32 0-.535-.143-.81-.54-1.043-.302-.177-.593-.203-1.876-.165-1.065.031-1.192.044-1.406.139-.426.19-.675.536-.75 1.044-.042.283.002.477.15.653.254.3.731.447 2.279.698.742.12 1.092.197 1.145.25.07.07.065.1-.067.395a7.927 7.927 0 0 0-.444 1.35c-.048.219-.062 1.076-.062 3.846 0 3.543 0 3.565.1 3.775.234.492.574.808 1.065.99.379.141.916.104 1.313-.092zm2.593-5.428c-.585-.142-1.127-.597-1.402-1.18-.142-.3-.15-.346-.15-.858 0-.532.003-.549.176-.898.412-.835 1.328-1.322 2.198-1.17.824.144 1.5.75 1.703 1.529a2.104 2.104 0 0 1-1.606 2.6c-.32.066-.574.06-.919-.023z"/></svg>