<svg viewBox="0 0 24 24" xmlns="http://www.w3.org/2000/svg" role="img"><path d="M7.47 13.673V11.32h2.703v.833l-.828.006-.827.006v1.058l.76.006.76.005v.833l-.76.005-.76.006-.006.547-.006.546h1.758v.856H7.47Zm3.131 0V11.32h2.68v.833l-.816.006-.817.006-.006.535-.006.535h1.533v.833l-.76.006-.76.005-.007.547-.006.546h1.758v.856H10.6zm3.13 0V11.32h1.528l.033.096.305.884.472 1.374c.171.496.252.772.311 1.066.021.104.06.031.134-.256.042-.16.298-.935.57-1.722l.495-1.43.745-.006.745-.006v4.708h-1.013v-1.661c.002-.914.01-1.773.02-1.91.017-.23.007-.32-.031-.26a2.24 2.24 0 0 0-.07.266c-.03.131-.31.987-.622 1.902l-.567 1.663h-.422c-.419 0-.423 0-.438-.05-.034-.112-.592-1.696-.854-2.428-.19-.532-.297-.866-.338-1.058-.057-.272-.083-.342-.11-.299-.007.011-.003.187.008.39.012.204.021 1.062.022 1.908v1.537h-.923zm5.654 2.347c0-.004.163-.453.362-.997a769.089 769.089 0 0 0 1.113-3.062l.23-.63.618-.006.619-.006.424 1.188c.471 1.323.944 2.654 1.128 3.176l.121.344h-.56c-.512 0-.56-.004-.575-.04a26.63 26.63 0 0 1-.169-.523l-.154-.485-.855-.006-.856-.005-.09.287-.166.53-.075.242h-.558c-.306 0-.557-.004-.557-.007zm2.894-1.862c.008-.012-.105-.393-.249-.846a14.088 14.088 0 0 1-.284-.975c-.032-.207-.036-.217-.072-.187-.017.014-.036.079-.043.144-.007.065-.09.361-.187.658l-.28.872c-.071.22-.099.335-.082.342.053.021 1.183.014 1.197-.008zM2.46 15.968c-.039-.102-.667-1.811-1.328-3.612-.415-1.134-.84-2.291-.944-2.572L0 9.274l.464-.17c.896-.326 1.999-.731 2.333-.858.428-.161.69-.23 1-.26.706-.071 1.332.17 1.727.663.07.086.156.216.193.29.037.074.259.658.492 1.297.233.64.485 1.327.56 1.529.235.629.305.955.305 1.413-.001.34-.049.55-.185.81-.131.251-.322.425-.647.59-.431.22-.516.253-2.206.86-.62.222-1.224.44-1.344.484-.18.065-.22.073-.23.046zm1.428-1.79c.167-.063.638-.236 1.047-.384.408-.148.774-.294.814-.324.133-.101.203-.327.145-.466-.012-.028-.317-.867-.678-1.863-.36-.996-.673-1.834-.693-1.861a.416.416 0 0 0-.316-.163c-.114-.007-.178.01-.598.163-.854.312-1.613.597-1.68.632a.438.438 0 0 0-.205.439c.01.043.197.565.413 1.16.217.595.514 1.415.661 1.824.292.811.328.879.516.947.126.046.224.029.574-.104zm.28-.761a.334.334 0 0 1-.107-.122c-.107-.225.035-.466.273-.466.131 0 .22.05.275.157.117.23-.021.473-.27.473a.365.365 0 0 1-.171-.042z"/></svg>