<svg role="img" viewBox="0 0 24 24" xmlns="http://www.w3.org/2000/svg"><path d="M12.413 21.539c-.574-.125-1.24-.47-1.61-.837-.235-.233-.413-.503-.668-1.016a14.199 14.199 0 0 1-.436-.943 58.904 58.904 0 0 0-.212-.573c-.069-.182-.112-.343-.097-.359.016-.015.124.081.241.215.132.15.37.314.624.43 1.367.626 3.498.456 5.798-.462.908-.362 2.426-1.138 2.426-1.24 0-.024-.095-.242-.21-.484-.116-.242-.204-.446-.196-.455a9.91 9.91 0 0 1 .773.044l1.913.147c2.235.173 2.177.164 2.044.309-.029.032-.252.44-.495.909-.243.468-.543 1.042-.666 1.276-.124.234-.427.816-.673 1.292-.246.477-.468.867-.493.867-.025 0-.145-.178-.267-.396-.121-.217-.233-.395-.247-.395a5.37 5.37 0 0 0-.436.206c-1.17.587-2.804 1.167-3.976 1.41-.597.124-.875.146-1.733.142-.617-.003-1.174-.037-1.404-.087zM8.24 18.29c-.6-.12-.693-.192-.656-.512.043-.369.136-.402.815-.289.325.054.625.133.666.175.118.118.07.514-.078.638-.07.058-.145.104-.166.1a43.157 43.157 0 0 1-.58-.112zm-1.655-.516c-.364-.172-.57-.307-.596-.388-.049-.154.11-.547.24-.597.096-.037 1.22.434 1.285.539.099.16-.16.723-.328.712a7.4 7.4 0 0 1-.601-.266zm-3.512-.257c.013-.184.044-.366.068-.405a.307.307 0 0 0 .027-.182c-.045-.272.28-.38.448-.148.097.133.099.129.069-.137-.05-.445-.181-.851-.275-.851-.047 0-.176-.056-.288-.125-.277-.172-.516-.232-.678-.173-.134.05-.194.237-.076.237.034 0 .061-.043.061-.095 0-.059.042-.088.107-.076.125.024.177.276.078.376-.079.078-.458.107-.832.063l-.251-.03.08-.256c.112-.362.316-.756.407-.789.137-.049.29.077.29.24 0 .133-.014.145-.093.08-.102-.085-.186-.045-.123.058.075.12.212.066.31-.123.064-.125.091-.315.082-.577-.008-.215 0-.405.019-.424.018-.018.106.092.195.244l.162.276-.122.276-.121.275.134-.012c.374-.031.455.005.614.276.086.147.265.353.397.458.227.18.238.204.214.467-.015.152-.043.304-.064.338-.026.041 0 .042.075.003.063-.032.201-.075.307-.095.162-.03.232-.003.426.17.19.17.214.213.131.245-.055.022-.206.01-.334-.026-.458-.127-.876-.019-.79.205.055.145.176.115.13-.032-.035-.107-.019-.123.101-.106.112.015.143.057.143.195 0 .097-.041.197-.091.223a2.698 2.698 0 0 1-.739.258l-.221.033.023-.334zm.538-.5c.018-.03-.005-.07-.052-.088-.089-.034-.157.005-.157.091 0 .068.166.065.209-.004zm8.907.702c-.015-.014-.738-.04-1.606-.058-.868-.017-1.588-.055-1.599-.083-.01-.028-.395-.672-.853-1.43l-.833-1.38-.881-.643L5.05 12.89l-.814-.592.039-1.49c.02-.818.039-1.762.039-2.097v-.609l.744-.474 1.384-.888.638-.413L8.265 4.68a74.076 74.076 0 0 1 1.258-1.719c.08-.079 1.208-.085 3.068-.017l1.074.04.96 1.511.96 1.511.884.655c.487.36 1.208.887 1.602 1.17l.718.517-.034 1.307c-.018.719-.033 1.651-.033 2.072v.765l-1.441.937-1.442.937-1.189 1.672-1.19 1.672-.457.018c-.251.01-.47.006-.485-.008zm.465-5.193c.493-.694 1.138-1.592 1.433-1.997.295-.405.537-.751.537-.77 0-.018-.199-.179-.441-.357a726.4 726.4 0 0 1-2.927-2.163c-.331-.247-.621-.427-.645-.4a553.68 553.68 0 0 0-2.571 3.616 4.722 4.722 0 0 0-.286.433c0 .015.567.448 1.261.962s1.562 1.16 1.93 1.434c.368.275.702.5.74.502.04 0 .476-.566.969-1.26zm-7.713 4.47c-.492-.382-.713-.608-.713-.73 0-.17.25-.472.391-.472.145 0 1.088.746 1.118.883.029.133-.213.496-.356.533-.082.022-.226-.048-.44-.214zM4.09 15.9c-.416-.442-.704-.89-.664-1.032.051-.182.363-.422.486-.375.135.052.887 1.027.887 1.15 0 .114-.338.455-.45.455-.04 0-.157-.089-.259-.198zm-.915-1.31c-.04-.026-.199-.312-.352-.635-.229-.483-.268-.612-.214-.712.085-.158.403-.323.536-.278.13.043.681 1.205.643 1.353-.03.111-.337.322-.468.32a.332.332 0 0 1-.145-.048zm-1.132-.765c-.314-.323-.54-.432-.71-.34-.068.036-.102.1-.082.151.04.106.144.061.144-.063 0-.05.036-.071.09-.05.052.02.092.11.092.208 0 .22-.176.332-.339.213-.061-.045-.147-.069-.19-.052-.042.016-.2-.03-.35-.103l-.272-.132.141-.223c.382-.603.773-.802.817-.416.017.15.004.168-.106.133-.134-.043-.176.052-.056.126.128.08.4-.303.444-.626.04-.298.121-.497.178-.44.017.016.065.158.106.315.075.279.073.29-.12.53l-.198.245h.151c.084 0 .169.028.19.061.02.034.087.061.149.061.084 0 .13.076.185.307.04.17.059.323.04.34-.018.02-.155-.091-.304-.245zm.44-.906c-.056-.042-.164-.348-.25-.712-.173-.724-.142-.866.203-.935.307-.061.368.022.542.731.196.803.184.842-.307.966-.05.013-.135-.01-.189-.05zm-.94-1.06c-.194-.313-.432-.564-.534-.564-.04 0-.037.028.009.073.212.213-.065.588-.287.388-.058-.053-.137-.096-.176-.096-.075 0-.553-.313-.556-.365-.003-.05.38-.422.596-.576.221-.157.341-.146.443.043.05.094.043.144-.033.219-.063.063-.097.071-.097.023 0-.04-.04-.074-.09-.074-.12 0-.119.116 0 .161.15.057.395-.15.537-.454.202-.433.227-.465.29-.367.028.046.051.192.051.326 0 .207-.032.266-.21.395-.24.174-.255.213-.106.27.299.112.38.19.384.368.002.1.014.258.026.35.032.243-.043.206-.246-.12zm-.635-.476c0-.052-.027-.078-.06-.057-.034.02-.061.063-.061.094a.06.06 0 0 0 .06.058c.034 0 .061-.043.061-.095zm1.195-.32c-.154-.171-.146-1.349.01-1.491.147-.132.453-.129.576.007.126.14.161 1.361.043 1.504-.108.13-.504.117-.629-.02zm-.57-1.173a5.107 5.107 0 0 1-.182-.442c-.12-.331-.397-.592-.51-.48-.037.038-.047.1-.022.14.034.057.055.056.091-.001.026-.042.077-.057.114-.034.11.068.077.269-.056.34-.103.055-.161.034-.357-.135a4.145 4.145 0 0 1-.392-.39l-.159-.19.241-.16c.132-.088.295-.16.36-.16.066 0 .136-.027.157-.06.062-.1.247-.07.365.06.106.118.106.126 0 .244-.101.112-.102.121-.007.121.112 0 .278-.152.532-.487.198-.26.262-.213.207.153-.038.255-.065.29-.308.409l-.267.13.216.203.216.204-.083.34c-.078.322-.087.332-.156.196zM1.03 8.652c0-.05-.026-.092-.057-.092-.077 0-.132.095-.083.144.068.068.14.042.14-.052zm1.351.716a.405.405 0 0 1-.224-.158c-.076-.117-.069-.208.064-.773.176-.749.259-.845.603-.7.118.048.23.13.25.18.041.11-.208 1.31-.296 1.419-.06.076-.138.082-.397.032zm-.459-1.52c-.024-.039-.068-.267-.098-.508-.056-.445-.217-.728-.362-.638-.115.071-.074.166.054.126.085-.027.122-.011.122.052 0 .385-.282.382-.526-.006C.87 6.486.77 6.242.831 6.182c.027-.027.25-.078.497-.113.507-.072.632-.023.602.236-.02.172-.231.265-.231.102 0-.099-.071-.126-.142-.056-.07.07.09.203.244.203.174 0 .347-.083.586-.282.286-.238.362-.192.231.14-.114.293-.17.326-.567.338l-.165.005.12.151c.065.083.118.186.118.23 0 .042.03.087.066.099.041.014.012.145-.08.353-.085.195-.162.302-.188.26zm.862-.276a.708.708 0 0 1-.19-.227c-.037-.126.533-1.252.66-1.3.115-.045.435.122.534.28.052.082.009.22-.206.662-.15.307-.309.595-.353.64-.116.119-.262.1-.445-.055zm13.93-1.14a12.783 12.783 0 0 1-.698-.575l-.304-.276.456-.426c.618-.577 1.749-1.328 2.705-1.795.878-.43 1.33-.59 2.05-.726 1.407-.267 2.403.134 2.933 1.18.197.39.194.414-.033.223a1.001 1.001 0 0 0-.35-.192 63.23 63.23 0 0 0-.28-.058c-.214-.043-.97.084-1.463.247-1.197.395-2.628 1.225-4.522 2.625-.084.062-.163.025-.494-.227zM3.626 6.02c-.09-.094-.163-.221-.163-.283 0-.205.762-1.127.931-1.127.138 0 .467.32.467.455 0 .143-.845 1.125-.968 1.125-.057 0-.177-.076-.267-.17zm-.864-.545c.039-.488.032-.542-.08-.644-.12-.109-.253-.093-.253.03 0 .034.056.043.127.02.106-.033.123-.017.106.103-.04.286-.476.19-.476-.104 0-.078-.024-.156-.054-.175-.03-.018-.072-.131-.095-.25a2.448 2.448 0 0 0-.078-.315c-.032-.086.022-.092.472-.058.57.044.706.122.643.37-.04.16-.275.234-.258.082.005-.042-.019-.083-.052-.091-.13-.033-.053.136.101.223.15.084.192.079.547-.068.212-.087.405-.146.43-.131.024.015-.03.138-.12.274-.16.241-.169.246-.457.218-.254-.024-.29-.014-.254.07.15.364.142.512-.044.747-.1.128-.198.232-.215.232-.018 0-.013-.24.01-.533zm1.982-.766c-.07-.113-.126-.244-.126-.292 0-.19.977-.966 1.157-.919.15.04.363.328.363.491 0 .152-.947.922-1.135.924-.085 0-.177-.072-.259-.204zm1.533-.817c-.04-.025-.115-.144-.164-.263-.079-.187-.08-.233-.005-.34.114-.162 1.093-.582 1.247-.533.143.046.291.485.207.616-.048.074-1.078.571-1.179.568a.318.318 0 0 1-.107-.048zm1.479-.688c-.123-.176-.128-.5-.009-.6.05-.04.348-.118.663-.171.652-.111.728-.086.794.263.064.345-.021.423-.555.508-.261.04-.547.09-.635.108-.12.024-.184-.001-.258-.108z"/></svg>