<svg role="img" viewBox="0 0 24 24" xmlns="http://www.w3.org/2000/svg"><path d="M11.372 23.983a11.867 11.867 0 0 1-6-1.997 12.167 12.167 0 0 1-2.818-2.613 12.226 12.226 0 0 1-1.96-3.706 4.458 4.458 0 0 1-.116-.39c0-.035.016-.035 3.586-.035h3.587l.01.065c.111.671.33 1.238.684 1.768a4.371 4.371 0 0 0 1.983 1.637c.266.112.423.157.889.256.205.045.398.087.426.095l.053.014.004 2.46.004 2.458-.11-.003a8.912 8.912 0 0 1-.223-.01zm-1.562-.88a2.568 2.568 0 0 0 1.369-.844c0-.032-.374-.37-.51-.46a2.41 2.41 0 0 0-1.455-.429 2.32 2.32 0 0 0-1.404.535c-.133.108-.368.34-.368.363 0 .013.07.088.155.166.402.371.845.605 1.31.692.2.037.7.025.903-.023zm-.035-2.334a2.6 2.6 0 0 0 1.23-.664c.096-.092.174-.172.174-.18 0-.028-.34-.35-.47-.443a2.489 2.489 0 0 0-1.013-.426 3.408 3.408 0 0 0-.878.017c-.467.095-1.008.413-1.309.77l-.074.088.157.149c.468.442.836.625 1.445.723.155.024.568.006.738-.034zm2.532.82c0-1.327.003-2.438.01-2.471l.011-.06.158-.022a4.954 4.954 0 0 0 1.509-.462 4.256 4.256 0 0 0 1.955-1.955c.188-.384.38-.966.43-1.299l.012-.079h3.585c1.971 0 3.588.006 3.593.014.012.02-.228.722-.361 1.056a12.355 12.355 0 0 1-1.748 3.081 12.513 12.513 0 0 1-2.245 2.203c-1.92 1.445-4.269 2.295-6.617 2.393l-.29.012zm2.898 1.514c.237-.05.37-.094.578-.195.275-.133.473-.29.66-.524l.104-.128-.04-.056c-.116-.165-.382-.389-.636-.535a2.474 2.474 0 0 0-1.497-.277c-.326.05-.704.202-1.002.402a2.42 2.42 0 0 0-.447.42c-.03.047-.03.049.032.133.162.22.49.473.781.602a2.52 2.52 0 0 0 1.467.158zm-.063-2.328a2.554 2.554 0 0 0 1.376-.77l.064-.077-.093-.11a2.614 2.614 0 0 0-.556-.46 2.406 2.406 0 0 0-.921-.312 3.168 3.168 0 0 0-.772.028 2.383 2.383 0 0 0-1.226.693l-.156.162.112.113c.302.308.67.542 1.037.662a3.5 3.5 0 0 0 .54.105c.109.014.448-.006.595-.034zm-3.407-8.406l-.006-6.662-.038-.224a5.593 5.593 0 0 0-.225-.87 4.84 4.84 0 0 0-.8-1.362c-.718-.838-1.814-1.405-2.885-1.492l-.142-.012-.011 3.401a331.99 331.99 0 0 1-.022 3.502l-.01.1H.464l.086-.28a12.164 12.164 0 0 1 2.1-3.956 12.593 12.593 0 0 1 1.775-1.8A12.027 12.027 0 0 1 9.103.358a11.274 11.274 0 0 1 2.69-.356 11.69 11.69 0 0 1 3.135.354 12.049 12.049 0 0 1 6.532 4.255c.87 1.109 1.556 2.41 2.032 3.858l.089.277c0 .003-1.613.005-3.583.005h-3.583l.006-3.502.006-3.503-.155.013c-1.291.102-2.465.803-3.232 1.93a4.149 4.149 0 0 0-.72 2.027c-.011.136-.018 2.695-.018 6.767v6.548h-.561zm5.794 2.26c-1.046-.01-1.114-.012-1.113-.041.001-.017.004-.275.005-.575l.003-.543h7.492l-.01.057a24.014 24.014 0 0 1-.173 1.094c-.01.01-5.256.017-6.204.008zM.287 14.527a45.12 45.12 0 0 1-.178-1.034c0-.02.665-.023 3.766-.023H7.64l-.012.478a12.42 12.42 0 0 1-.023.579l-.011.1H.307zm-.236-1.76a9.02 9.02 0 0 1-.044-.841l.005-.167.147-.02c.108-.016 1.1-.023 3.785-.027l3.638-.005.013.061c.016.074.015 1.036 0 1.077-.011.026-.303.029-3.773.029H.062zm17.015.094l-.665-.006.011-.186c.006-.103.012-.362.012-.575v-.387h3.785l3.784.002v.563c0 .31-.006.569-.013.576-.014.013-5.686.023-6.914.012z"/></svg>