<svg role="img" viewBox="0 0 24 24" xmlns="http://www.w3.org/2000/svg"><path d="M8.859 8.746c-.4.016-.803-.02-1.202.018-.697.835-1.393 1.67-2.083 2.512.416.55.88 1.06 1.295 1.61-.528.002-1.056-.007-1.583.006-.137-.086-.258-.207-.236-.384-.007-1.251.002-2.503-.004-3.753-.299-.007-.598-.005-.896-.005-.01 1.358 0 2.716-.005 4.074-.034.543.484 1 1.01.988 1.226-.001 2.452.005 3.678-.003-.674-.853-1.373-1.687-2.062-2.529.698-.843 1.412-1.673 2.088-2.534zm-6.173.002c-.009 1.076 0 2.152-.004 3.228-.004.281.032.573-.064.844a1.159 1.159 0 0 1-.382.067c-.746-.002-1.49-.002-2.236-.002v.927c.874-.002 1.748.004 2.622-.002.548-.008 1.02-.519.988-1.065-.004-1.33.005-2.661-.004-3.992-.307-.006-.613-.005-.92-.005zM0 8.75v3.61h.924V8.75zm20.82 1.473c-.009.292-.037.582-.028.875.712-.003 1.425.004 2.138-.004.074.103.23.182.204.331-.026.478.065.971-.066 1.437-.754.091-1.518-.018-2.274.07-.004.287-.01.575.025.86.581-.024 1.163-.006 1.744-.011.306-.008.643.052.913-.13.35-.135.535-.544.523-.903-.005-.606.007-1.213-.008-1.82l-.075.017c.014-.119-.045-.22-.09-.324l-.045.012c-.019-.103-.081-.163-.186-.179l.017-.052c-.107-.039-.21-.091-.327-.095l.02-.066c-.829-.024-1.657.009-2.485-.018zm-6.858.002c-.017.291-.031.582-.023.873.634-.006 1.269.01 1.902-.009l-.012.053c.176.037.16.23.17.369.003.465-.001.93 0 1.396-.978.028-1.962-.063-2.938.026a.866.866 0 0 0-.236-.17 42.83 42.83 0 0 1 .001-1.603c-.286.017-.634-.128-.882.033-.041.549.048 1.105-.06 1.648-.135.03-.272.06-.411.059-.897.005-1.795-.024-2.69.025.295.244.495.579.758.856h2.242c.266.017.49-.165.755-.16l-.033.09c.169.03.337.072.51.07h6.427l-.005-.06.256-.043c.156-.119.296-.257.414-.415l.044-.254.061.002c.005-.617-.01-1.235.009-1.852-.287-.005-.579-.072-.861-.008-.11.562.063 1.15-.07 1.709-.798.082-1.602.023-2.402.035-.024-.68.05-1.364-.065-2.038l-.097.007.057-.138-.086-.018a.58.58 0 0 0-.335-.335l-.013-.044c-.157-.046-.314-.101-.48-.095-.635-.004-1.271.01-1.907-.008zm-3.834 4.129a.96.96 0 0 0-.313.044c-.084.264-.024.575-.008.856.286-.014.573-.012.86-.006-.007-.286-.007-.572.003-.858-.176-.004-.362-.035-.542-.036zm8.018.006c-.286.03-.575.026-.862.03.012.285.01.572.005.859.287-.007.574-.008.861.005a26.597 26.597 0 0 1-.004-.894zm-6.533 0c-.219.001-.437.013-.656.025.013.29.011.579.004.868.29-.013.582-.013.874 0a26.377 26.377 0 0 1-.003-.89 7.99 7.99 0 0 0-.22-.003zm7.161.004a1.61 1.61 0 0 0-.317.028c.01.284.008.569.006.853.279-.002.558-.003.838.007.013-.288.02-.575.005-.863-.177-.004-.354-.024-.532-.024zm-3.482.007a1.444 1.444 0 0 0-.223.019c.008.285.007.57.005.856.296-.002.592-.002.888-.001-.001-.284-.003-.568.003-.852-.224.01-.449-.025-.673-.022z"/></svg>