<svg viewBox="0 0 24 24" xmlns="http://www.w3.org/2000/svg" role="img"><path d="M21.137 14.657a.352.352 0 0 1-.198-.207.381.381 0 0 1 .155-.473l.042-.027-.063-.074a.35.35 0 0 1-.095-.292.366.366 0 0 1 .19-.296c.189-.116.443-.036.548.173a.52.52 0 0 1 .004.318.515.515 0 0 1-.11.134l-.087.078.059.057c.18.174.127.483-.102.6a.396.396 0 0 1-.343.009zm-19.282-.08C.552 14.438-.2 13.403.046 12.084c.158-.84.765-1.475 1.648-1.72.377-.105.668-.129 1.587-.13.545 0 .653.005.653.024 0 .013-.027.311-.06.663-.032.35-.06.651-.06.667 0 .027-.062.03-.781.035-.78.006-.782.006-.922.05a.935.935 0 0 0-.437.27.804.804 0 0 0-.221.693c.055.352.294.541.719.567.462.028.825-.172 1.017-.56.044-.088.09-.215.104-.28.02-.102.077-.58.077-.652 0-.02.089-.024.503-.024h.503l.01-.047a2.49 2.49 0 0 0 .019-.175c.016-.19.087-.53.155-.742.15-.47.398-.843.718-1.08.324-.24.682-.345 1.118-.325.395.017.623.105.847.327.148.146.253.322.299.502l.022.088h.727l.469-.462.469-.461h2.559l-.691.691c-.38.38-.688.695-.684.699a.557.557 0 0 0 .093.027 1 1 0 0 1 .345.183l.072.058.01-.073c.009-.065.06-.625.06-.652 0-.006.328-.01.728-.01h.727l-.009.055c-.005.03-.032.325-.06.654-.029.329-.056.63-.061.67l-.01.073h2.117l.078-.161c.104-.217.188-.337.364-.52.43-.453 1.009-.699 1.776-.754.276-.02 1.564-.024 1.564-.005l-.06.654c-.033.352-.06.658-.06.68v.038h-.714c-.403 0-.762.008-.824.018-.352.055-.617.238-.758.52-.125.251-.095.607.067.8a.712.712 0 0 0 .323.205c.1.031.158.037.342.036a.918.918 0 0 0 .359-.046c.325-.107.547-.345.657-.704.032-.104.047-.206.096-.671l.01-.09h1.005l.009-.055c.005-.03.051-.54.104-1.133.052-.592.099-1.102.103-1.134l.01-.057.67.008c.689.01.778.017.994.09.27.09.451.237.548.442.056.118.11.293.11.356 0 .029.023.03.38.026l.38-.005.037-.41c.02-.226.038-.432.039-.46l.001-.048.491.008c.442.007.505.012.62.046.225.066.335.13.487.281.282.282.366.58.367 1.303 0 .356-.017.618-.103 1.558l-.05.56c0 .004-1.126.008-2.502.008h-2.502l-.103.21c-.322.652-.885 1.08-1.63 1.24-.497.107-1.1.083-1.519-.06a1.919 1.919 0 0 1-1.232-1.258l-.04-.132h-2.128l-.01.047c-.04.204-.097.317-.21.418-.129.117-.167.122-.924.13l-.673.005.011-.15c.022-.29.023-.291.094-.303.068-.01.225-.101.225-.13 0-.012-.368-.017-1.118-.017H8.47l-.01.074a.58.58 0 0 1-.345.474c-.1.04-.115.04-.767.046-.365.003-.67 0-.676-.008a.984.984 0 0 1 .006-.218l.018-.204.065-.014a.358.358 0 0 0 .199-.106L7 13.07l-1.218.004-1.217.004-.048.112a2.428 2.428 0 0 1-.728.92 3 3 0 0 1-.662.336c-.355.117-.875.17-1.271.128zm.498-.428c.62-.044 1.02-.207 1.378-.563.22-.219.367-.46.47-.77.026-.08.054-.153.062-.162.01-.011.493-.015 1.407-.01 1.165.004 1.392.001 1.392-.018 0-.013.031-.364.069-.78.037-.416.068-.846.068-.957 0-.757-.205-1.072-.735-1.132a1.371 1.371 0 0 0-.795.146c-.393.22-.653.65-.787 1.297-.052.254-.073.618-.043.785a.359.359 0 0 1 .009.128 7.1 7.1 0 0 1-.544.011h-.532l-.029.168c-.07.412-.206.696-.447.937-.292.293-.654.422-1.13.403-.381-.015-.621-.11-.849-.336-.225-.225-.318-.478-.3-.821.027-.502.288-.899.738-1.121.286-.141.34-.15 1.044-.157l.618-.007.01-.089a6.54 6.54 0 0 0 .022-.256l.012-.169-.631.007c-.692.008-.802.021-1.139.134-.544.181-.95.551-1.13 1.028a1.756 1.756 0 0 0-.121.714c0 .322.03.487.133.708.14.303.385.554.69.708a2.286 2.286 0 0 0 .825.188 4.31 4.31 0 0 0 .265-.014zm3.436-2.057a.466.466 0 0 1-.334-.332c-.085-.277.008-.794.202-1.112.152-.249.3-.36.499-.374a.524.524 0 0 1 .33.068.41.41 0 0 1 .095.131c.043.091.045.108.043.36a11.49 11.49 0 0 1-.047.75 31.64 31.64 0 0 0-.045.508c0 .02-.056.024-.337.023a2.19 2.19 0 0 1-.406-.022zm.35-.434c0-.016.016-.21.034-.431.019-.221.034-.434.034-.474 0-.066-.004-.073-.041-.073-.125 0-.3.459-.306.8-.003.194.008.208.171.208.092 0 .108-.005.108-.03zM16.83 14.13c.319-.038.652-.153.889-.308.346-.226.62-.596.754-1.017.026-.083.05-.154.054-.159.003-.004.724-.007 1.604-.006 1.212.002 1.6-.003 1.605-.018.004-.01.026-.235.05-.498.024-.263.062-.683.086-.932.023-.249.043-.47.043-.491 0-.039 0-.039-.288-.039h-.288l-.01.082a79.59 79.59 0 0 0-.065.727l-.057.645-.223-.005-.223-.005-.031-.064c-.051-.105-.052-.289-.005-.799.08-.855.078-.928-.025-1.14-.058-.12-.134-.189-.283-.255-.168-.074-.294-.092-.735-.103l-.413-.011-.01.075c-.016.113-.164 1.772-.164 1.83v.048h.283c.21 0 .284-.005.29-.02a30.7 30.7 0 0 0 .063-.68l.057-.658h.094c.116 0 .216.048.268.126.05.076.05.142-.004.735-.05.559-.053.712-.01.835l.03.09-.565.004c-.311.002-.79 0-1.063-.002l-.498-.006-.02.14c-.066.447-.258.825-.54 1.06-.28.234-.623.339-1.047.32-.38-.016-.61-.106-.835-.328a.97.97 0 0 1-.29-.521 1.552 1.552 0 0 1 .022-.608c.122-.444.463-.774.957-.925.15-.046.155-.046.776-.053l.626-.007.01-.105c.006-.058.016-.174.022-.257l.012-.15-.63.006c-.685.008-.78.019-1.124.127a1.898 1.898 0 0 0-.984.712c-.2.292-.308.732-.287 1.155.02.426.17.762.458 1.036.392.371.921.503 1.664.416zm-8.822-.959a1.17 1.17 0 0 0 .05-.295l.021-.239 1.344.006 1.344.006.01-.058c.005-.031.023-.228.04-.437.024-.306.026-.399.01-.476a.672.672 0 0 0-.369-.477c-.17-.083-.25-.094-.693-.094h-.387l.671-.671c.37-.37.671-.677.671-.684a2.4 2.4 0 0 0-.355-.012h-.354l-.679.675-.678.674-.018.21c-.01.115-.022.234-.026.264l-.007.055.721.005.721.005.072.04c.094.055.125.13.125.31v.137H8.12l.01-.081c.02-.168.111-1.244.111-1.307v-.065H7.68l-.01.056c-.004.03-.024.247-.043.482-.02.235-.065.757-.102 1.16-.057.618-.073.743-.102.8l-.034.066h.592zm3.714.012c.02-.03.033-.104.043-.227.008-.1.018-.213.023-.252l.01-.069 1.22.007 1.22.007.009-.04c.005-.023.013-.103.018-.178.006-.075.015-.178.021-.229l.01-.091-1.224.007-1.225.007v-.07c0-.038.009-.142.017-.231.023-.223.103-1.113.103-1.14 0-.018-.065-.023-.29-.023-.16 0-.291.006-.291.013l-.06.688-.104 1.18c-.04.457-.054.551-.107.67-.003.007.125.013.286.013h.291zm11.731-.548.054-.577a8.88 8.88 0 0 0 .055-1.07c0-.546-.015-.69-.095-.85a.715.715 0 0 0-.475-.365 2.059 2.059 0 0 0-.325-.023l-.23-.001-.012.091c-.006.05-.016.159-.023.241l-.012.15.16.01c.248.013.353.073.425.24.059.136.059.299 0 .975-.028.337-.052.624-.052.637 0 .02-.062.024-.35.024-.322 0-.35.002-.352.03 0 .016-.01.13-.023.252a1.841 1.841 0 0 0-.015.235c.008.015 1.27.017 1.27.002zm-.89-1.395a7.26 7.26 0 0 0 .033-.5c-.005-.04-.017-.052-.063-.064a.455.455 0 0 0-.12-.01l-.062.005-.037.41-.047.508-.01.099h.267zM9.66 9.753c0-.007-.06-.013-.133-.013h-.133l-.345.347c-.336.337-.346.35-.346.416 0 .038-.005.107-.01.153l-.011.084.49-.487c.268-.268.488-.493.488-.5zm9.952 4.216c-.364-.181-.24-.726.167-.73a.382.382 0 0 1 .255.677.366.366 0 0 1-.422.053z"/></svg>