<svg viewBox="0 0 24 24" xmlns="http://www.w3.org/2000/svg" role="img"><path d="M2.974 16.302a3.32 3.32 0 0 1-2.638-1.849 3.247 3.247 0 0 1-.154-2.51A3.321 3.321 0 0 1 2.26 9.887c.188-.062.387-.112.397-.1.008.01.226 1.132.226 1.16 0 .018-.047.038-.16.07a2.12 2.12 0 0 0-1.084.743 2.082 2.082 0 0 0 1.02 3.237c.208.068.386.095.638.095.571 0 1.07-.206 1.468-.605a2.01 2.01 0 0 0 .605-1.468c0-.435-.111-.806-.348-1.164-.206-.313-.484-.545-.893-.746-.295-.145-.475-.27-.624-.43-.375-.405-.564-.918-.585-1.582-.014-.48.044-.756.248-1.17l.119-.24.013.133c.044.432.102.681.222.934.103.218.205.365.387.555.197.205.418.372.897.676.205.13.44.286.522.344.455.325.736.642.939 1.056.224.46.321.943.32 1.6 0 .392-.02.548-.107.878a3.326 3.326 0 0 1-2.636 2.405 4.034 4.034 0 0 1-.87.034zm2.037-.1a3.09 3.09 0 0 0 .475-.311c.316-.242.51-.442.758-.787l.141-.195h1.738v.435L8.07 15.3a.344.344 0 0 0-.263-.098c-.235 0-.402.172-.402.415 0 .168.097.318.247.38.12.051.296.022.415-.07l.055-.04v.058c0 .054.004.059.05.059h.05v-1.095h.491l-.007.05c-.009.06.02.1.072.1a.083.083 0 0 0 .084-.103l-.009-.047h1.16v.438l-.056-.054a.447.447 0 0 0-.25-.102.44.44 0 0 0-.282.126.415.415 0 0 0 .01.599c.144.137.394.142.533.01l.045-.044v.06c0 .06.002.062.058.062h.058v-1.095h3.118v1.095h.1v-.212c0-.298.023-.372.138-.459.063-.047.207-.047.26 0 .07.062.082.122.082.405v.266h.1v-.278c0-.313-.011-.369-.084-.445-.11-.112-.295-.11-.429.004l-.068.058v-.434h8.906l-.01.047a.083.083 0 0 0 .085.103c.052 0 .08-.04.072-.1l-.007-.05h1.586v1.393h-6.405c-4.03-.001-6.391-.008-6.367-.017a.33.33 0 0 0 .179-.172c.038-.081.04-.098.04-.495v-.41h-.05c-.048 0-.05.003-.05.07v.069l-.046-.043a.384.384 0 0 0-.55.017.399.399 0 0 0 .144.66.439.439 0 0 0 .417-.082l.04-.036-.01.099a.334.334 0 0 1-.042.14c-.105.142-.367.155-.497.025-.038-.039-.072-.057-.105-.057-.026 0-.048.006-.048.013 0 .039.095.142.162.177l.079.04-3.018.002H4.833l.18-.1zm7.445-.204a.51.51 0 0 0 .107-.068l.054-.045v.06c0 .059.002.06.054.056l.054-.005v-.78h-.05c-.046 0-.05.005-.055.063l-.005.062-.067-.057c-.187-.16-.477-.093-.598.138a.417.417 0 0 0-.027.32.503.503 0 0 0 .22.247.49.49 0 0 0 .313.01zm-.198-.077a.32.32 0 0 1-.237-.394.318.318 0 0 1 .227-.219c.282-.067.488.26.316.501a.33.33 0 0 1-.306.112zm2.742.065c.07-.034.187-.153.187-.19 0-.01-.017-.027-.038-.036-.033-.016-.044-.01-.093.049-.128.152-.35.158-.471.013a.406.406 0 0 1-.077-.187c0-.007.16-.013.356-.013.405 0 .378.013.33-.147a.407.407 0 0 0-.57-.234c-.289.149-.286.601.004.745a.498.498 0 0 0 .372 0zm-.458-.509c.034-.09.165-.185.256-.186.113 0 .255.089.288.183l.017.049h-.578zm4.116.521a.405.405 0 0 0 .244-.384.363.363 0 0 0-.1-.28.396.396 0 0 0-.417-.12c-.354.104-.404.6-.075.764a.489.489 0 0 0 .348.02zm-.307-.111a.358.358 0 0 1-.108-.102c-.038-.057-.046-.087-.046-.172 0-.089.007-.114.05-.174a.298.298 0 0 1 .53.055c.065.156-.013.353-.162.41a.377.377 0 0 1-.264-.017zm1.576.108a.458.458 0 0 0 .207-.198.472.472 0 0 0 0-.367c-.15-.284-.537-.314-.708-.056a.424.424 0 0 0 .173.62.56.56 0 0 0 .328 0zm-.318-.113c-.194-.117-.193-.43 0-.535.133-.073.241-.063.349.031a.287.287 0 0 1 .105.235.31.31 0 0 1-.17.285.344.344 0 0 1-.284-.016zm2.155.098c.055-.084-.033-.174-.117-.119-.045.03-.057.104-.022.14.035.034.11.023.139-.021zm-12.932-.37-.004-.394-.046-.005-.045-.005v.798h.1zm6.972.141c.006-.23.01-.26.046-.323a.249.249 0 0 1 .114-.107c.069-.033.08-.034.142-.012.111.038.126.087.126.417v.278h.114l.005-.273c.006-.296.012-.318.117-.396.068-.05.185-.045.242.011.044.045.044.046.052.347l.008.303.056.005.055.005-.005-.304c-.005-.259-.01-.313-.037-.368-.084-.169-.307-.186-.453-.034-.06.063-.07.069-.08.04a.274.274 0 0 0-.066-.08c-.11-.096-.265-.082-.385.035l-.054.052v-.07c0-.066-.002-.07-.05-.07h-.05v.797h.096zm1.658-.025c.005-.255.009-.283.043-.338.04-.063.111-.1.166-.087.021.006.037-.004.05-.035.026-.057.027-.054-.028-.066-.057-.013-.146.021-.192.074l-.033.037-.008-.047c-.007-.04-.017-.048-.058-.048h-.05l-.004.394-.004.394h.114zm3.695.236v-.041h-.207c-.126 0-.207-.006-.207-.017 0-.009.093-.162.207-.34a4.75 4.75 0 0 0 .207-.34c0-.01-.11-.016-.281-.016h-.282v.098l.196.005.197.005-.213.331a6.765 6.765 0 0 0-.213.345c0 .006.134.012.298.012h.298zm1.211-.357v-.4l-.046.006-.045.005-.004.394-.004.394h.1zm.58.163c0-.266.015-.34.082-.414.034-.04.06-.052.102-.052.094 0 .135-.083.05-.102-.057-.013-.145.021-.192.074l-.033.037-.008-.047c-.007-.04-.017-.048-.058-.048h-.05l-.004.394-.004.394h.117v-.236zm-15.197.15c-.249-.053-.324-.383-.126-.55a.395.395 0 0 1 .19-.077c.1 0 .246.1.285.194.027.064.03.184.005.248a.386.386 0 0 1-.14.16.349.349 0 0 1-.214.024zm1.939.011a1.14 1.14 0 0 0-.062-.015.363.363 0 0 1-.19-.17.446.446 0 0 1-.022-.14c0-.273.324-.408.516-.216a.317.317 0 0 1 .066.36.329.329 0 0 1-.175.161.376.376 0 0 1-.133.02zm1.194-.048c-.176-.076-.226-.32-.097-.474a.287.287 0 0 1 .24-.106c.08-.001.106.006.165.048.102.072.135.142.128.274-.007.13-.051.204-.153.25a.413.413 0 0 1-.283.008zm-7.919-1.178a1.723 1.723 0 0 1-1.203-.93 1.71 1.71 0 0 1 1.056-2.403 1.72 1.72 0 0 1 1.44.226c.138.09.356.306.448.442.099.148.207.383.252.55.034.122.039.18.039.43 0 .35-.027.472-.165.755-.17.347-.434.611-.78.78-.268.131-.393.16-.714.167a1.79 1.79 0 0 1-.373-.017zm.572-.88c.386-.1.66-.47.634-.854a.854.854 0 0 0-.341-.617.728.728 0 0 0-.445-.158l-.152-.009.017.073a.567.567 0 0 1-.053.357.513.513 0 0 1-.47.294.845.845 0 0 1-.164-.011l-.046-.012v.13c0 .167.045.314.135.449a.822.822 0 0 0 .885.358zm-.662-1.03a.475.475 0 0 0 .262-.263.472.472 0 0 0-.02-.366.426.426 0 0 0-.44-.253.44.44 0 0 0-.422.416c-.016.219.1.399.304.472a.586.586 0 0 0 .316-.007zm4.551-.593v-1.718h.398v1.657c0 1.564-.002 1.658-.029 1.665l-.348.106c-.017.006-.02-.343-.02-1.71zm1.986.2-.004-1.512-.098-.005c-.432-.022-.776.237-.842.634a.748.748 0 0 0 .407.78c.065.032.16.064.21.071l.09.013.038.124.063.205.024.082-.17-.01a1.085 1.085 0 0 1-.493-.13 1.205 1.205 0 0 1-.59-.728 1.442 1.442 0 0 1-.001-.58c.089-.332.323-.612.632-.755.198-.092.307-.107.746-.107h.39v3.312l-.12.035-.199.06-.078.024zm.585-.202V10.48l1.165.006c1.303.006 1.222 0 1.488.13.113.056.17.099.282.212.2.202.294.39.333.673.048.34-.082.708-.34.962-.14.137-.283.225-.466.285a.849.849 0 0 1-.34.044.85.85 0 0 1-.34-.044 1.173 1.173 0 0 1-.742-.711c-.051-.136-.052-.143-.058-.487l-.006-.35.196-.057.196-.058.01.34c.007.3.013.353.045.435.078.198.198.33.379.416a.706.706 0 0 0 1.023-.567.76.76 0 0 0-.59-.803 32.533 32.533 0 0 0-.946-.017l-.875-.008v1.45c0 .916-.006 1.452-.016 1.459-.009.005-.085.03-.17.056l-.191.058-.037.013zm10.195 1.691a.406.406 0 0 1-.216-.576.4.4 0 0 1 .705.001c.18.322-.144.702-.49.575zm.978.002a.402.402 0 0 1-.256-.49.399.399 0 0 1 .22-.259.29.29 0 0 1 .195-.036.36.36 0 0 1 .26.115c.078.078.115.17.115.287 0 .128-.04.215-.137.3a.388.388 0 0 1-.397.083zm-7.745-1.097a59.86 59.86 0 0 1-.012-1.718c0-1.354.004-1.705.02-1.705.012 0 .103.024.204.054l.182.054.004 1.654.004 1.654h-.137a1.51 1.51 0 0 0-.195.01c-.032.005-.063.003-.07-.003zm1.538-.002a1.197 1.197 0 0 1-.978-.887 1.366 1.366 0 0 1 .007-.551 1.176 1.176 0 0 1 .896-.849l.042.21c.023.111.04.205.037.206a.78.78 0 0 1-.085.03.73.73 0 0 0-.43.39c-.05.104-.053.121-.053.302 0 .188.001.194.062.317a.724.724 0 0 0 1.303 0c.06-.123.061-.129.061-.317 0-.18-.003-.197-.053-.303a.788.788 0 0 0-.371-.37.708.708 0 0 1-.406-.547.884.884 0 0 1 .036-.486c.055-.149.09-.184.09-.091 0 .092.043.245.095.343.067.124.176.223.422.384.29.192.35.243.447.38.12.172.166.327.175.606.01.267-.013.39-.111.59a1.13 1.13 0 0 1-.514.52 1.343 1.343 0 0 1-.232.093 1.59 1.59 0 0 1-.44.03zm2.38-.017a1.138 1.138 0 0 1-.607-.327 1.127 1.127 0 0 1-.29-.457c-.037-.107-.037-.117-.048-1.36a70.155 70.155 0 0 1-.005-1.26c.006-.006.286.07.366.1l.037.015v1.086c0 .734.006 1.114.019 1.173.047.225.2.42.409.523.124.061.13.063.318.063.19 0 .195-.001.32-.063a.658.658 0 0 0 .393-.635.739.739 0 0 0-.51-.704c-.09-.028-.154-.033-.428-.033a2.47 2.47 0 0 1-.322-.01c0-.006.023-.087.05-.179a30 30 0 0 0 .06-.196c.007-.027.035-.03.268-.029.405.001.595.047.825.2.236.159.42.427.481.705.041.183.026.45-.034.625a1.18 1.18 0 0 1-.84.75c-.097.022-.36.03-.462.013zm1.128 0c0-.008.025-.095.055-.196l.055-.182.563-.01c.52-.008.57-.011.657-.044a.762.762 0 0 0 .493-.817.745.745 0 0 0-.514-.598c-.085-.027-.154-.032-.425-.032-.252 0-.322-.004-.316-.02.004-.012.033-.106.063-.21l.055-.188.325.007c.365.01.472.033.691.155.136.075.339.274.418.408.23.392.207.89-.057 1.262l-.057.079h.146c.178-.001.336-.033.453-.093a.803.803 0 0 0 .379-.49 8.08 8.08 0 0 0 .017-.698c0-.345.006-.626.013-.626.013 0 .172.042.348.092l.087.025v.584c0 .675-.008.733-.126.974a.885.885 0 0 1-.215.293.933.933 0 0 1-.292.211c-.257.127-.228.125-1.601.125a29.79 29.79 0 0 1-1.215-.012zm3.25.006a9.087 9.087 0 0 0 .075-.247l.043-.145h.502c.289 0 .544-.008.6-.018a.755.755 0 0 0 .608-.62.749.749 0 0 0-.415-.784l-.126-.063-.353-.005c-.316-.005-.353-.009-.353-.033 0-.016.025-.106.055-.202l.054-.174h.314c.247.002.338.008.422.031.386.105.718.437.823.823.04.145.04.434.001.58a1.168 1.168 0 0 1-.633.755c-.215.1-.285.108-.986.108-.347 0-.63-.003-.63-.006zm-9.812-.572a.6.6 0 0 1-.371-.365.682.682 0 0 1 .018-.459.738.738 0 0 1 .29-.29c.072-.036.106-.041.257-.041.166 0 .178.002.278.056a.588.588 0 0 1 .267.282c.037.08.043.115.043.25 0 .14-.005.169-.046.253a.654.654 0 0 1-.288.288.652.652 0 0 1-.448.026zm.374-.306c.098-.065.14-.157.132-.288-.005-.086-.016-.115-.058-.167-.074-.092-.142-.126-.252-.126a.374.374 0 0 0-.143.026.328.328 0 0 0-.012.577.36.36 0 0 0 .333-.022zm2.64.31a.603.603 0 0 1-.358-.815.688.688 0 0 1 .289-.299c.083-.04.111-.045.259-.045.147 0 .176.005.259.045a.695.695 0 0 1 .293.308c.037.08.044.117.044.235a.46.46 0 0 1-.045.236.669.669 0 0 1-.29.303.687.687 0 0 1-.45.032zm.308-.332c.116-.055.184-.186.153-.296a.311.311 0 0 0-.158-.185c-.087-.037-.105-.03-.105.037 0 .048-.013.073-.064.124-.054.054-.076.065-.133.065-.067 0-.069.001-.058.045a.285.285 0 0 0 .164.209c.064.034.13.034.2 0zm-.21-.363a.156.156 0 0 0-.004-.22.156.156 0 0 0-.268.11c0 .149.166.215.272.11zm2.378.689a.636.636 0 0 1-.401-.329c-.039-.083-.045-.115-.044-.26 0-.151.005-.175.049-.263a.604.604 0 0 1 .892-.218.6.6 0 0 1-.171 1.054.661.661 0 0 1-.325.016zm.29-.302a.303.303 0 0 0 .122-.112c.044-.068.048-.087.043-.186-.005-.09-.014-.12-.053-.171a.313.313 0 0 0-.34-.126.388.388 0 0 0-.211.17c-.054.106-.018.3.071.381a.346.346 0 0 0 .367.044zm-.536-1.56.055-.195.046-.158 1.024-.004c.97-.004 1.024-.003 1.016.025l-.06.199-.051.17h-2.04zm-9.706-.213a.394.394 0 0 1-.222-.363c-.002-.467.66-.558.79-.109a.41.41 0 0 1-.032.306.505.505 0 0 1-.203.178.5.5 0 0 1-.333-.012zm9.837-.26a6.53 6.53 0 0 1 .056-.203l.046-.158 1.01-.004a21.18 21.18 0 0 1 1.022.008.857.857 0 0 1-.048.208l-.058.195h-2.038zm6.493-.693c-.018-.021-.017-.03.006-.053.026-.026.03-.026.055 0 .023.022.024.032.006.053-.012.014-.027.026-.034.026-.007 0-.022-.012-.034-.026zm-3.686-.014c-.138-.052-.18-.145-.136-.313.03-.118.041-.134.082-.118.021.008.026.022.019.054-.031.137-.03.21.004.25.03.038.046.042.148.042.082 0 .127-.008.16-.03.054-.036.046-.054-.03-.068-.158-.03-.16-.23-.004-.325.053-.033.137-.043.171-.02.012.008.014.025.005.05-.01.028-.027.037-.07.037a.134.134 0 0 0-.1.043c-.069.069-.058.1.045.13.09.026.11.047.11.114-.001.12-.244.213-.403.154zm.452-.012c-.01-.019-.016-.036-.013-.038.18-.112.211-.159.18-.278a.256.256 0 0 1-.01-.096c.023-.036.07-.016.097.04l.028.059h.214c.237 0 .263-.01.245-.098-.007-.035-.002-.051.016-.058.052-.02.073-.01.073.035 0 .11.011.12.123.12a.627.627 0 0 0 .297-.07c.028-.02.022-.025-.062-.054l-.092-.031-.039.036c-.036.034-.04.035-.076.01-.036-.026-.036-.027-.008-.06.08-.087.137-.09.302-.019a.482.482 0 0 0 .12.04c.023 0 .031.012.031.047 0 .042-.012.053-.128.107-.16.074-.276.1-.399.088a1.385 1.385 0 0 0-.12-.008l-.265.003-.24.003-.027.059c-.028.062-.17.198-.207.198-.012 0-.03-.016-.04-.035zm-3.424.007c-.13-.028-.18-.087-.181-.212-.001-.098.037-.241.063-.24.055 0 .06.025.034.133-.03.125-.015.19.052.215.094.035.298 0 .298-.05 0-.016-.03-.034-.08-.05-.07-.02-.079-.028-.074-.066.005-.042.006-.042.174-.047l.17-.004.004-.22c.004-.198.007-.219.036-.224.05-.01.06.027.06.242v.203h.082c.1 0 .137-.03.123-.1-.008-.041-.003-.052.03-.064.021-.008.041-.013.044-.01.003.003.01.04.017.085.011.079.013.08.07.08h.057V8.62c0-.207.001-.212.038-.221.021-.006.043-.005.049 0 .006.006.012.102.013.214l.005.215c.005.027.219.012.309-.022a.403.403 0 0 0 .1-.047c.003-.007-.033-.027-.083-.044-.09-.03-.09-.03-.139.005-.041.031-.052.033-.079.013-.03-.021-.03-.024.008-.064.077-.08.117-.085.26-.029.07.028.146.051.169.051.037 0 .04.005.03.046-.006.025-.023.052-.037.06-.043.024.01.043.122.043.132 0 .154-.021.115-.117a.256.256 0 0 1-.022-.073.588.588 0 0 1 .04-.022c.03-.016.037-.012.054.025a.58.58 0 0 1 .03.114c.008.065.004.077-.043.124-.051.052-.055.053-.184.047-.103-.005-.141-.014-.18-.043l-.05-.037-.08.034c-.094.04-.314.061-.365.035-.023-.013-.039-.013-.051 0-.01.01-.05.013-.098.006a.79.79 0 0 0-.25 0c-.065.007-.112.005-.125-.006a.037.037 0 0 0-.046-.003.211.211 0 0 1-.086.016c-.06 0-.061.002-.052.05.022.107-.184.208-.35.171zm.63-.072c-.029-.032-.029-.035-.003-.062.026-.026.03-.026.062.006.033.033.033.034.003.062-.03.026-.033.026-.062-.006zm.133 0c-.029-.032-.03-.035-.003-.062.026-.026.03-.026.062.006.032.033.032.034.003.062-.03.026-.033.026-.062-.006zm3.4 0c-.03-.033-.03-.035.002-.067l.033-.033.031.034c.03.034.03.035-.002.068l-.033.033zm1.91-.013c-.026-.029-.026-.033.002-.059.03-.026.033-.025.059.003.026.029.026.033-.003.059-.029.026-.033.025-.059-.003zm.132 0c-.026-.029-.026-.033.003-.059.029-.026.033-.025.058.003.026.029.026.033-.003.059-.028.026-.032.025-.058-.003zm.381 0c-.025-.029-.025-.033.003-.059.03-.026.033-.025.061.006.024.027.026.037.009.058-.027.033-.039.032-.073-.005zm.133 0c-.026-.029-.025-.033.003-.059.029-.026.033-.025.06.006.025.027.027.037.01.058-.027.033-.04.032-.073-.005zm-1.59-.186c-.041-.042-.048-.06-.04-.103a.313.313 0 0 1 .04-.095.315.315 0 0 0 .038-.074.1.1 0 0 1 .038-.05c.026-.015.04-.006.095.057.036.041.073.1.083.13.051.152-.136.252-.253.135zm.178-.066c.012-.02-.04-.119-.068-.128-.023-.007-.079.105-.064.128.013.022.119.021.132 0zm.23.096c-.053-.025-.058-.047-.067-.289-.008-.215-.007-.217.03-.227.022-.006.043-.001.05.01.008.011.014.112.014.224v.203h.106c.167 0 .187-.068.06-.206-.055-.06-.065-.08-.057-.12.01-.042.027-.055.158-.109.143-.059.148-.06.165-.028.01.018.014.038.01.046A.615.615 0 0 1 23 8.48l-.116.046.054.078c.03.042.073.11.094.148.043.079.071.091.191.084l.082-.006-.002-.058a.388.388 0 0 0-.014-.094c-.01-.027-.003-.04.024-.055.046-.024.05-.02.077.084.018.072.018.094-.002.142-.029.068-.078.09-.203.09a.266.266 0 0 1-.148-.035c-.03-.02-.056-.028-.056-.02 0 .048-.245.074-.327.034zm.914-.02c-.038-.038-.041-.053-.041-.214 0-.095-.004-.195-.01-.222-.01-.044-.005-.051.035-.061.025-.007.048-.009.051-.006.003.004.01.103.012.221l.006.214.11.005c.146.007.153-.007.088-.163-.008-.018.002-.032.032-.046.04-.018.044-.016.067.038a.382.382 0 0 1 .024.123c0 .053-.01.074-.051.108-.045.037-.067.043-.167.043s-.12-.005-.156-.04zM19.3 8.88v-.042l.195.004c.188.005.195.006.2.042.005.037.003.038-.195.038h-.2zm-.423-.357c-.029-.031-.029-.035-.003-.062.026-.026.03-.025.062.006.032.033.032.035.003.062-.03.026-.033.026-.062-.006zm.133 0c-.03-.031-.03-.035-.003-.062.026-.026.03-.025.061.006.033.033.033.035.003.062-.03.026-.033.026-.061-.006zm2.59-.013c-.026-.029-.026-.033.005-.06.033-.03.035-.03.067 0 .031.027.031.031.006.06-.015.017-.033.03-.04.03-.005 0-.023-.013-.038-.03zm1.2-.11c0-.032.246-.133.27-.11.011.012.004.021-.023.032l-.107.044c-.135.057-.14.059-.14.034z"/></svg>