<svg role="img" viewBox="0 0 24 24" xmlns="http://www.w3.org/2000/svg"><path d="M19.656 15.585a3.802 3.802 0 0 1-.458-.38c-.038-.042-.054-.07-.054-.098 0-.022.068-.173.172-.383.175-.351.275-.531.311-.56.041-.033.086-.018.202.07.217.162.366.341.394.473.005.023.013.042.018.042.005 0 .045-.074.09-.163.097-.196.214-.4.242-.422.04-.033.086-.018.201.07.27.201.4.38.412.57.007.118-.015.199-.108.386-.153.308-.308.447-.452.403-.05-.014-.277-.192-.43-.336l-.065-.062-.06.107c-.078.14-.157.229-.24.27-.075.037-.112.04-.175.013zm.166-.124c.086-.068.219-.281.287-.463.082-.217.009-.394-.249-.607-.196-.162-.169-.158-.237-.042-.062.103-.377.736-.377.755 0 .02.375.346.44.384.035.02.09.009.136-.027zm.946.002c.075-.053.206-.264.285-.458a.419.419 0 0 0-.066-.437 2.01 2.01 0 0 0-.311-.284l-.047-.035-.06.1c-.087.146-.38.745-.373.764.008.019.37.332.424.366.045.029.093.023.148-.016zM2.825 14.286a.64.64 0 0 1-.354-.166.865.865 0 0 1-.19-.294l-.008-.036h-.838l-.104.063a2.084 2.084 0 0 1-.216.11c-.165.07-.447.16-.523.169-.062.006-.07.004-.106-.033-.063-.063-.047-.138.053-.251l.051-.058H0v-3.4h2.553l.139-.346c.154-.386.175-.42.258-.42.065 0 .104.044.104.117 0 .04-.05.404-.083.608l-.007.042h3.964l.034-.074c.119-.26.251-.382.432-.396.163-.013.316.072.464.259.04.05.086.117.104.15l.032.06h3.195l.042-.076c.052-.095.093-.128.157-.128.075 0 .1.033.1.128v.077l.975.001.975.002-.412.035c-.273.023-.42.04-.432.052-.02.017-.02.12 0 .389l.02.326c.008.13.017.246.02.259.015.05.031.05.833-.016l2.678-.223c1.568-.13 1.906-.161 1.923-.178.022-.023.023-.146.002-.404a3.956 3.956 0 0 1-.012-.195v-.048h1.706l.095-.258c.11-.293.142-.343.223-.343.065 0 .11.046.11.111 0 .027-.015.144-.032.26a7.686 7.686 0 0 0-.032.22c0 .006.871.01 1.936.01H24v3.4h-1.796l-.102.03c-.137.044-.222.044-.262.001l-.03-.032h-1.145l-.084.083a.653.653 0 0 1-.933-.003l-.08-.08h-2.057c-1.988 0-2.063.001-2.226.026a26.49 26.49 0 0 1-2.07.223c-.995.062-1.783.051-2.857-.039a3.992 3.992 0 0 1-.957-.184c-.072-.024-.105-.026-.622-.026h-.547l-.061.111a1.023 1.023 0 0 1-.114.167c-.048.05-.058.054-.113.054-.113 0-.155-.097-.104-.242a.44.44 0 0 0 .02-.072c0-.015-.321-.018-2.058-.018H3.745l-.066.1c-.085.126-.242.28-.333.325a1.067 1.067 0 0 1-.521.072zm.357-.12a.556.556 0 0 0 .134-.05c.093-.055.23-.213.399-.46.236-.346.237-.348.27-.366.027-.015.041-.011.14.042.189.1.267.119.52.12.27 0 .392-.022.728-.13.57-.185.881-.378 1.26-.785a.728.728 0 0 1 .207-.178c.094-.047.12-.048.24-.007.107.037.22.042.288.014.203-.085.513-.663.606-1.13.047-.237.03-.54-.04-.728a.928.928 0 0 0-.206-.318c-.11-.115-.177-.157-.267-.166-.1-.01-.165.012-.245.086-.08.072-.146.192-.274.491-.118.278-.14.364-.124.483a.214.214 0 0 0 .16.176c.09.024.3.01.367-.023.07-.037.084-.036.13.013a.588.588 0 0 1 .139.299c.005.073.002.09-.034.163-.036.074-.047.085-.1.105-.057.022-.063.022-.2-.006-.288-.057-.304-.05-.542.236-.25.301-.371.413-.672.62l-.118.08c-.02.015-.057-.011-.057-.04 0-.01.023-.045.051-.077a1.83 1.83 0 0 0 .238-.482c.023-.08.035-.159.04-.257.01-.203 0-.251-.064-.32-.081-.089-.11-.1-.258-.1-.112 0-.138.005-.204.035-.17.078-.439.354-.614.629-.054.084-.268.439-.303.5-.048.087-.103.111-.212.094a.709.709 0 0 1-.15-.047c-.089-.04-.182-.052-.236-.03-.053.023-.123.105-.25.294-.118.178-.152.218-.22.26-.244.154-.602.114-.824-.092a.863.863 0 0 1-.217-.423c-.038-.167-.037-.466.001-.799.06-.512.12-.99.188-1.457.1-.693.1-.695.09-.705-.015-.015-.023.003-.21.475l-.178.448-.046.364c-.273 2.152-.28 2.261-.18 2.643.06.23.19.412.344.483.119.054.32.063.505.022zm1.741-1.45a.062.062 0 0 1-.016-.038c0-.022.275-.436.36-.541.126-.156.229-.218.358-.218.16 0 .349.124.325.213a1.216 1.216 0 0 1-.639.55.645.645 0 0 1-.238.044c-.099.004-.138.002-.15-.01zM.806 13.968c.328-.107.566-.235.704-.38.155-.161.28-.423.4-.839.071-.249.09-.362.08-.51-.017-.261-.125-.481-.344-.699-.085-.085-.202-.18-.223-.18-.007 0-.024.028-.038.062l-.203.454a8.531 8.531 0 0 0-.17.397c.064.042.168.132.22.192.252.29.324.464.253.603-.073.142-.284.362-.571.593-.22.176-.287.236-.33.291-.075.1-.041.102.222.016zm7.222-.026a4.39 4.39 0 0 0 .221-.428c.24-.564.286-.762.34-1.456.05-.652.101-1.356.101-1.39v-.027l-.03.029c-.037.034-.125.251-.257.633-.053.155-.109.31-.124.345-.022.053-.03.116-.044.357-.043.723-.144 1.385-.28 1.834a.788.788 0 0 0-.032.145c0 .061.05.042.105-.042zm4.962.007c.42-.022.578-.035 1.01-.078a39.71 39.71 0 0 0 1.853-.242c1.405-.222 2.278-.417 2.85-.636.168-.065.306-.135.357-.182.039-.035.045-.05.045-.098 0-.101-.085-.15-.265-.15-.11-.001-.513.052-1.754.229-1.154.165-1.44.2-2.019.249-1.563.131-2.427.133-3.8.006-.826-.076-1.308-.176-1.644-.342-.216-.106-.285-.186-.263-.303.014-.074.105-.192.223-.29.184-.152.294-.216.538-.313.073-.03.32-.143.485-.225.073-.036.238-.191.318-.3a4.41 4.41 0 0 0 .334-.584c.095-.195.112-.24.127-.337.015-.095-.011-.086-.076.027-.196.342-.381.562-.597.71a5.85 5.85 0 0 1-.571.338c-.297.149-.45.292-.9.84a1.807 1.807 0 0 0-.335.626.69.69 0 0 0-.053.283c0 .102.004.133.028.182.12.246.669.458 1.381.532a67.13 67.13 0 0 0 1.272.082c.223.01 1.103-.005 1.456-.024zm7.243.004c.173-.036.304-.15.46-.399.205-.326.3-.433.455-.51.089-.043.123-.047.271-.029.108.013.16-.012.26-.122.15-.17.303-.518.301-.688 0-.069.007-.076-.123.12a1.9 1.9 0 0 1-.118.165.216.216 0 0 1-.252.052.305.305 0 0 0-.24.026 1.1 1.1 0 0 0-.252.243c-.178.224-.317.3-.548.3-.344 0-.558-.216-.62-.625a1.842 1.842 0 0 1-.019-.224c0-.248.083-.95.238-2.022a3.08 3.08 0 0 0 .04-.344c-.006-.005-.015-.004-.022.003a9.59 9.59 0 0 0-.326.887l-.084.613c-.132.937-.167 1.246-.174 1.53-.008.276.003.388.05.532a.85.85 0 0 0 .172.315.51.51 0 0 0 .272.169.502.502 0 0 0 .259.008zm1.899-.247c.3-.096.548-.219.686-.342.183-.164.326-.452.468-.949.109-.376.075-.677-.105-.94a1.773 1.773 0 0 0-.32-.339.606.606 0 0 0-.08-.056c-.004 0-.016.018-.025.041l-.199.444c-.099.22-.18.41-.18.422 0 .011.016.03.035.04.059.035.199.178.275.28.158.21.205.325.177.43-.038.142-.274.396-.644.693-.23.185-.303.257-.303.298 0 .034.053.029.215-.022zm-9.448-2.272a5.41 5.41 0 0 1-.019-.29 14.4 14.4 0 0 0-.028-.444 1.203 1.203 0 0 1-.009-.176c.006-.005 5.343-.454 5.348-.45.012.012.064.929.053.929-.02 0-5.245.435-5.285.44-.037.005-.056.002-.06-.009zm1.367-.231a.337.337 0 0 0 .047-.113c.013-.059.02-.072.05-.084.093-.035.116-.191.04-.275-.018-.02-.02-.02-.044.018l-.024.04.04.037c.048.044.044.067-.012.072-.029.003-.054-.005-.085-.029l-.044-.033-.025.042c-.025.041-.025.042-.001.061.104.083.102.08.083.116a.268.268 0 0 1-.056.066c-.02.018-.034.037-.029.041.005.005.003.007-.004.005-.016-.005-.134.056-.134.07 0 .004.037.009.082.009.079 0 .084-.002.116-.043zm-.509-.043a.185.185 0 0 0 .107-.178c0-.07-.032-.17-.054-.17-.006 0-.009-.006-.005-.012.004-.006 0-.018-.01-.025-.013-.011-.021-.004-.038.032l-.023.046.041.043c.023.023.045.04.05.037.005-.003.008.014.007.038-.001.04-.033.088-.061.093-.006 0-.042.008-.082.016-.09.019-.176.007-.21-.03-.021-.022-.025-.038-.02-.082.01-.067-.011-.072-.03-.007-.017.064-.016.086.006.138.03.07.086.098.188.092a.39.39 0 0 0 .134-.03zm.698-.03c.01 0 .023.008.026.017.004.011.012.01.03-.007.021-.02.021-.023.001-.043-.02-.02-.023-.02-.046 0-.02.019-.03.02-.053.008s-.032-.011-.049.005c-.018.019-.018.022.005.039.022.016.028.016.045 0a.073.073 0 0 1 .04-.018zm.761.026a.289.289 0 0 0 .087-.032c.02-.016.01-.017-.08-.01-.13.01-.185 0-.227-.043-.066-.066-.036-.2.058-.257.061-.037.092-.04.097-.01.015.087.055.122.137.122.043 0 .109-.022.11-.037a.06.06 0 0 1 .01-.024c.009-.014.019-.01.047.016.038.035.069.034.11-.002.017-.014.028-.015.047-.005.052.028.22.007.22-.026 0-.007.004-.01.01-.006.013.008.082-.062.103-.103.019-.037.018-.11 0-.13a.12.12 0 0 0-.062-.015c-.066 0-.147.06-.24.178-.014.018-.02.016-.048-.018-.03-.036-.032-.037-.032-.01a.054.054 0 0 1-.026.042c-.043.023-.08.01-.102-.035-.022-.05-.038-.054-.038-.01 0 .016-.006.034-.013.038-.007.005-.01.013-.007.018.003.006 0 .01-.01.011a5.18 5.18 0 0 0-.086.01c-.058.008-.075.005-.093-.013-.027-.027-.01-.044.043-.045.023 0 .04-.012.056-.04.013-.02.02-.04.018-.043a1.84 1.84 0 0 0-.187-.007c-.2-.002-.21.002-.24.074-.027.063-.021.077.015.038.029-.03.041-.035.115-.035.045 0 .082.003.082.007a.206.206 0 0 1-.054.033c-.15.076-.21.189-.156.293.04.078.178.11.336.076zm.462-.382c0-.006.02-.03.046-.051.04-.036.054-.04.113-.038.064.003.067.005.066.036 0 .028-.01.035-.059.048-.07.018-.166.021-.166.005zm-.216.28c.011-.023.01-.03-.01-.045-.02-.014-.026-.014-.045.003-.021.02-.021.022-.002.044.028.03.04.03.057-.003zm-1.472-.196a2.27 2.27 0 0 0-.01-.23l-.008-.061-.043.044-.042.044.02.1c.046.225.062.286.073.28a.733.733 0 0 0 .01-.177zm.64-.05a3.034 3.034 0 0 0-.01-.23l-.009-.062-.043.044-.043.045.021.1.041.193c.01.05.025.09.031.085a.714.714 0 0 0 .011-.176zm2.868.025a.31.31 0 0 0 .039-.178c0-.072-.004-.105-.015-.109-.01-.003-.013-.01-.01-.017.01-.016-.028-.086-.057-.1-.05-.028-.086-.015-.078.029 0 .005-.004.007-.01.003-.013-.008-.034.045-.047.12-.012.067.026.097.117.094.077-.003.082.005.043.07a.586.586 0 0 1-.194.143c-.007 0-.008.006-.004.013.005.008.044.012.093.01l.085-.004zm-.132-.263a.027.027 0 0 1-.01-.032c.011-.028.077-.026.104.003.02.023.02.025-.008.032-.04.01-.065.01-.086-.003zm-.195.302c.083-.09.089-.28.01-.354l-.031-.029-.022.042-.021.042.052.048c.03.027.053.056.053.064 0 .033-.07.103-.147.148-.045.026-.079.052-.075.057.003.006.04.01.08.01.06 0 .078-.005.1-.028zm.587-.051c.088-.093.09-.283.003-.361-.022-.02-.024-.02-.043.017-.027.052-.026.057.017.083.02.012.046.039.057.06.01.021.013.035.007.031-.007-.004-.012 0-.012.01 0 .025-.058.077-.144.128-.04.024-.07.048-.065.052a.242.242 0 0 0 .081.009c.059 0 .078-.006.1-.03zm-1.289-.031l.015-.032.045.04a.18.18 0 0 0 .058.039c.03 0 .064-.028.057-.046-.004-.011-.001-.016.006-.012.019.012.015-.077-.006-.127a.138.138 0 0 0-.041-.056c-.013-.008-.018-.014-.011-.015.025 0-.026-.025-.053-.025-.039 0-.081.058-.081.11 0 .048-.027.069-.057.044a.466.466 0 0 1-.046-.137l-.028-.122-.024.04a.165.165 0 0 0-.024.064c0 .013-.023.042-.051.065-.089.07-.081.133.017.149.037.006.051.002.065-.016.016-.022.017-.022.026.004.012.038.066.079.095.071.013-.003.03-.02.038-.038zm.107-.038c-.023-.01-.054-.074-.054-.113 0-.047.051-.044.08.005.041.07.027.129-.026.108zm-.316-.054c-.021-.005-.038-.014-.037-.021.002-.015.066-.064.073-.057.012.013.023.089.013.088l-.05-.01zm-2.613.031c-.025-.024-.027-.024-.048-.004-.02.02-.02.023.002.048.023.024.025.025.048.004s.023-.022-.002-.048zm3.213.057c.042-.016.083-.084.083-.138 0-.049-.026-.117-.053-.14-.016-.013-.022-.008-.04.027-.02.043-.02.044.018.077.02.018.037.038.037.045 0 .025-.094.037-.109.013a1.34 1.34 0 0 1-.022-.179.976.976 0 0 0-.021-.165.146.146 0 0 0-.037.025l-.03.025.02.166c.02.178.03.205.074.237.034.023.037.023.08.007zm.031-.382c.009-.016.008-.028-.002-.038-.02-.02-.033-.019-.058.006-.019.02-.018.022.004.038.032.024.041.023.056-.006zm.27-.031c0-.007-.01-.024-.021-.036-.02-.022-.022-.022-.044.005-.023.028-.023.029.004.05.029.022.06.012.06-.019zm-12.152-.207a3.84 3.84 0 0 1-.44-.357c-.11-.105-.11-.098.112-.54.26-.519.29-.56.38-.536.046.012.317.238.382.318a.69.69 0 0 1 .136.261c.007.042.012.034.118-.173.205-.398.245-.447.331-.4.07.038.241.181.332.276.144.152.204.312.178.477-.022.139-.188.464-.295.576a.414.414 0 0 1-.184.11c-.077.016-.176-.05-.52-.352-.037-.033-.065-.05-.068-.04-.015.045-.14.234-.186.282-.055.058-.162.117-.207.116a.232.232 0 0 1-.068-.018zm.14-.112c.1-.067.275-.35.325-.526.045-.154 0-.29-.142-.442-.082-.086-.295-.265-.304-.254-.049.058-.43.81-.43.848 0 .025.331.318.428.379.05.03.07.03.123-.005zm.971-.012a.663.663 0 0 0 .098-.106 1.77 1.77 0 0 0 .22-.45c.034-.182-.066-.355-.32-.555a2.403 2.403 0 0 0-.12-.09c-.023-.014-.092.107-.295.514l-.162.326.075.072c.075.071.174.156.317.271.084.068.115.071.187.018zm15.945-.003c-.06-.021-.197-.13-.431-.343-.104-.095-.127-.126-.128-.176 0-.038.306-.674.419-.868.116-.201.13-.203.336-.039.328.26.452.491.394.739a2.622 2.622 0 0 1-.226.471c-.123.18-.252.257-.364.216zm.11-.101c.09-.038.223-.226.33-.468a.424.424 0 0 0 .055-.23.336.336 0 0 0-.04-.193c-.047-.1-.153-.217-.317-.35a1.493 1.493 0 0 0-.125-.097c-.022 0-.47.876-.47.917 0 .026.436.41.486.429.03.011.036.01.08-.008zM7.01 9.836a3.771 3.771 0 0 1-.393-.32c-.087-.078-.111-.113-.112-.156 0-.033.304-.65.404-.818.049-.082.08-.121.106-.132.046-.019.06-.012.205.1.215.167.33.31.371.461l.015.057.118-.23c.173-.335.22-.4.29-.4.005 0 .067.042.136.094.177.133.302.268.36.389.042.09.046.107.046.213a.44.44 0 0 1-.048.228c-.102.244-.247.452-.356.507a.21.21 0 0 1-.217-.012 3.931 3.931 0 0 1-.249-.202l-.192-.166-.05.094c-.13.247-.293.357-.434.293zm.193-.139c.078-.072.147-.175.227-.34.064-.134.065-.137.065-.257 0-.103-.004-.13-.031-.185-.04-.08-.169-.217-.306-.324-.102-.08-.108-.083-.125-.059a5.656 5.656 0 0 0-.293.55l-.136.28.088.082c.048.045.15.132.226.195.168.138.194.143.285.058zm.941.015c.071-.058.154-.181.236-.352.072-.148.074-.154.074-.26 0-.145-.038-.224-.172-.358-.087-.088-.26-.23-.28-.23-.02 0-.437.808-.436.847 0 .015.086.093.325.296.136.114.174.123.253.057z"/></svg>