<svg viewBox="0 0 24 24" xmlns="http://www.w3.org/2000/svg" role="img"><path d="M18.622 16.23a8.3 8.3 0 0 1-.448-.374c-.03-.031-.032-.041-.027-.085.013-.097.401-.831.49-.927.045-.047.11-.047.194.002.067.039.283.249.373.364a.48.48 0 0 0 .063.07c.004 0 .083-.128.177-.285.184-.307.246-.391.288-.391.162 0 .472.303.538.527.036.12.013.25-.073.42-.114.223-.333.488-.416.504-.058.01-.09-.01-.255-.164-.167-.155-.302-.272-.308-.265-.002.003-.04.069-.082.148-.135.249-.244.397-.335.458-.07.046-.112.045-.179-.002zm-5.083-.778a1.513 1.513 0 0 1-.733-.243c-.415-.282-.626-.85-.582-1.565.014-.242.045-.473.089-.67.08-.363.267-.9.454-1.313a135.481 135.481 0 0 1 .554-1.187c.2-.427.246-.504.298-.504.038 0 .051.03.051.12 0 .094-.046.214-.401 1.038-.32.74-.423 1.024-.521 1.422-.065.262-.08.368-.08.557 0 .308.069.498.249.689.213.227.487.339.91.372a2.291 2.291 0 0 0 1.704-.606 2.95 2.95 0 0 0 .46-.587.999.999 0 0 0 .114-.36c.002-.06-.002-.08-.021-.107-.049-.066-.087-.083-.39-.17a.925.925 0 0 1-.396-.225c-.159-.162-.186-.433-.085-.83.129-.502.41-1.04.808-1.543.21-.264.443-.53.584-.663.373-.354.965-.745 1.232-.813.075-.02.077-.02.108.004.047.035.056.076.039.176-.028.168-.11.383-.29.76-.07.143-.1.192-.149.243a.268.268 0 0 1-.08.064.362.362 0 0 1-.09-.051c-.049-.035-.085-.052-.109-.052-.113 0-.386.11-.558.227-.367.248-.787.688-.934.98-.05.099-.055.17-.019.251.036.08.095.12.339.217.272.11.346.19.393.426.026.127.017.484-.018.715a5.62 5.62 0 0 1-.493 1.597c-.164.33-.262.473-.536.785-.285.324-.616.57-.95.703a2.262 2.262 0 0 1-.952.143zM1.426 15.29a1.679 1.679 0 0 1-.769-.26 1.768 1.768 0 0 1-.394-.408c-.279-.452-.335-1.05-.172-1.837.09-.438.25-.883.5-1.385.187-.38.315-.594.354-.594.027 0 .042.057.036.138-.005.063-.021.106-.103.28-.27.576-.407 1.03-.444 1.472-.032.382.082.722.318.945.239.225.556.35.98.388.43.039.988-.084 1.449-.32.523-.265.959-.785 1.156-1.378.077-.23.08-.267.088-.992l.008-.654.036-.166c.075-.351.272-.909.381-1.077.077-.12.133-.104.121.033-.01.114-.028.62-.035.998-.01.521-.049.889-.138 1.325-.214 1.053-.712 2.024-1.372 2.675-.434.43-.906.685-1.444.783a2.83 2.83 0 0 1-.39.04 1.503 1.503 0 0 1-.166-.007zM4.6 13.416c-.008-.02.022-.07.064-.106.053-.046.182-.131.546-.358.564-.352.798-.544 1.05-.858.22-.273.364-.51.6-.993.218-.445.315-.592.392-.592.03 0 .051.029.051.07 0 .014-.023.096-.051.183a2.65 2.65 0 0 0-.12.469c0 .024.007.085.017.135.056.298.186.495.396.598.137.068.233.085.424.078.314-.012.47-.107.47-.29 0-.05-.054-.15-.114-.212-.084-.087-.2-.109-.406-.077-.078.012-.091.01-.107-.005-.017-.017-.016-.024.01-.081.072-.157.22-.33.363-.425.315-.21.683-.302.974-.242.229.047.363.172.378.353.012.148-.035.28-.195.555a.472.472 0 0 0-.06.127.684.684 0 0 0 .136.008.51.51 0 0 0 .34-.096c.197-.128.38-.36.614-.776.169-.302.266-.425.493-.625.128-.113.244-.259.355-.447l.048-.08c.007-.009.095.082.191.198.194.233.283.393.292.525.023.322-.24.707-.505.739a.8.8 0 0 1-.214-.023c-.218-.041-.287-.04-.388.012-.1.05-.23.181-.364.371a5.315 5.315 0 0 1-.537.618c-.198.178-.326.215-.623.18a1.259 1.259 0 0 0-.204-.012c-.03.006-.055.029-.124.113-.18.219-.413.434-.617.573-.29.195-.623.251-.91.152a.706.706 0 0 1-.294-.19 1.239 1.239 0 0 1-.3-.561 8.662 8.662 0 0 0-.029-.114c-.003-.009-.058.061-.122.155l-.18.26c-.203.294-.394.424-.753.512-.696.171-.811.196-.925.196-.039 0-.057-.005-.062-.017zm17.406-.19c-.011-.006-.02-.02-.02-.029 0-.028.106-.132.209-.206.48-.343.998-.832 1.138-1.075.027-.047.031-.064.027-.122-.013-.181-.236-.465-.614-.784-.12-.1-.146-.139-.145-.22 0-.05.02-.096.138-.339.076-.154.186-.385.244-.513.113-.246.118-.252.19-.239.059.011.268.158.391.274.324.306.467.673.429 1.1-.034.38-.117.674-.277.984-.17.328-.375.588-.589.748a2.535 2.535 0 0 1-.906.4c-.147.036-.184.04-.215.021zm-2.96-.017c-.4-.074-.661-.4-.76-.951-.074-.406.053-1.764.292-3.137.052-.294.06-.33.132-.525.08-.22.292-.772.318-.826.022-.044.064-.049.074-.008.015.062-.03.514-.15 1.473-.17 1.354-.202 1.761-.161 2.036.052.349.193.573.443.7a.75.75 0 0 0 .445.075c.248-.034.401-.137.607-.405a1.92 1.92 0 0 1 .352-.363.557.557 0 0 1 .117-.054c.059-.017.061-.017.166.02.13.045.236.05.295.015.027-.015.085-.09.189-.246.152-.226.177-.25.206-.205.016.027-.014.173-.085.409a1.768 1.768 0 0 1-.222.5.64.64 0 0 1-.226.23c-.067.038-.079.039-.366.029l-.121-.004-.091.045c-.164.08-.369.307-.538.594a1.667 1.667 0 0 1-.295.381c-.2.19-.398.26-.622.218zm-16.532-.883a7.228 7.228 0 0 1-.393-.318c-.13-.112-.19-.185-.182-.22.007-.032.224-.5.277-.597.06-.11.206-.363.26-.45l.045-.07.197.158c.227.18.32.275.365.372.093.196.073.387-.071.681-.069.14-.134.232-.244.345-.081.084-.147.128-.188.128a.17.17 0 0 1-.066-.03zm18.851-3.11c-.247-.158-.43-.288-.463-.326-.032-.038-.036-.07-.017-.142.05-.192.333-.757.445-.89.031-.037.038-.04.101-.04.057 0 .078.007.134.04.167.102.418.388.453.518.036.134-.124.508-.345.805-.05.067-.123.135-.147.135-.004 0-.076-.045-.16-.1z"/></svg>