<svg role="img" viewBox="0 0 24 24" xmlns="http://www.w3.org/2000/svg"><path d="M17.921 19.908a.425.425 0 0 1-.202-.339c0-.126.126-.309.249-.36.206-.085.47.053.538.283.027.089.023.12-.03.23-.11.226-.355.308-.555.186zM.036 18.203v-.366h.686c.737 0 .829-.014.919-.143.06-.087.062-.43.002-.581-.084-.21-.376-.333-.605-.258a.488.488 0 0 0-.296.325l-.023.112-.36.008-.359.008.017-.16c.023-.222.163-.493.353-.683.47-.47 1.158-.478 1.644-.019.152.144.285.348.34.524.018.054.043.211.057.349.025.243.029.254.137.354.14.132.26.164.604.165.449 0 .521-.077.543-.578l.014-.318h.664v.318c0 .284.007.328.064.412.094.14.166.165.49.165.347 0 .433-.034.51-.204.042-.09.054-.183.054-.404l.001-.287h.672v.297c0 .339.04.46.18.546.08.05.169.052 1.66.053h1.573v.729l-1.658-.008c-1.653-.008-1.658-.008-1.816-.072a.705.705 0 0 1-.192-.105c-.048-.057-.093-.051-.212.03-.171.115-.3.14-.766.14s-.596-.025-.767-.14c-.127-.087-.133-.087-.262-.002-.175.115-.395.155-.846.155-.478 0-.672-.04-.888-.183a.852.852 0 0 0-.172-.097.824.824 0 0 0-.17.097c-.23.156-.286.165-1.071.176l-.72.01zm9.677.344a3.484 3.484 0 0 1-.002-.379l.009-.355.078-.017c.08-.018.224-.15.28-.258a.458.458 0 0 0 .03-.17c0-.319.12-.644.322-.868a1.205 1.205 0 0 1 1.784-.007c.631.69.302 1.764-.614 2.002-.278.073-.26.095-.26-.336v-.377h.065c.089 0 .24-.106.319-.222.081-.122.088-.37.012-.485-.185-.28-.528-.315-.743-.076a1.993 1.993 0 0 0-.103.118l-.038.273c-.056.403-.13.567-.35.783a1.6 1.6 0 0 1-.366.272c-.186.092-.404.145-.423.102zm5.729-.027a1.3 1.3 0 0 1-.858-.69 1.258 1.258 0 0 1-.11-.436c-.03-.295-.101-.426-.27-.497-.338-.141-.683.078-.682.434a.45.45 0 0 0 .37.466l.077.017v.703l-.159-.017c-.591-.06-1.096-.743-.991-1.34.089-.507.475-.9.992-1.008.419-.087.931.154 1.19.562.098.154.171.39.172.548 0 .385.2.574.61.575.32 0 .43-.088.386-.315-.009-.05-.158-.378-.33-.73-.287-.582-.315-.652-.316-.797 0-.188.072-.312.233-.394.056-.029.494-.177.973-.33l.87-.278.114.254c.063.14.105.263.095.273-.01.01-.164.06-.341.108-.703.194-1.19.34-1.224.368-.078.065-.031.205.251.756.304.594.44.781.655.908.298.174.72.23.9.12.137-.083.173-.199.173-.558v-.31l.315.008.315.008.018.255c.023.331.1.491.29.594.075.042.322.048 2.462.06l2.378.015v.7h-4.73l-.133-.067a1.065 1.065 0 0 1-.258-.205c-.069-.077-.137-.135-.15-.13a.704.704 0 0 0-.12.135c-.134.18-.295.252-.604.271-.475.031-.82-.075-1.055-.327-.071-.077-.145-.14-.164-.14-.019 0-.065.046-.103.102-.204.3-.759.447-1.242.33zm5.232-2.027a.367.367 0 0 1-.207-.55c.138-.201.377-.226.547-.055.166.166.147.412-.043.544-.1.07-.197.09-.297.061zm1.198-.01a.379.379 0 0 1-.237-.395c.018-.165.189-.321.35-.321.168 0 .378.198.378.357 0 .25-.277.453-.491.359zm1.231 0a.498.498 0 0 1-.25-.297c-.039-.173.17-.42.355-.42a.41.41 0 0 1 .372.31c.03.133-.075.318-.22.388-.139.067-.144.068-.257.019zm-20.004-.055a.445.445 0 0 1-.237-.269c-.062-.214.184-.478.406-.436.17.032.321.204.321.365 0 .236-.284.434-.49.34zm1.204-.014a.427.427 0 0 1-.211-.259c-.023-.078-.017-.116.036-.218.125-.243.383-.29.57-.103.179.18.138.438-.09.569-.134.076-.196.078-.305.011zm1.205-.01c-.227-.133-.267-.378-.091-.564.186-.197.45-.15.575.102.065.131.065.137.019.258-.084.22-.315.313-.503.204zm-.926-2.837c-1.378-.144-2.466-.715-3.33-1.749A4.71 4.71 0 0 1 .65 6.743c.733-1.49 2.144-2.49 3.764-2.668.124-.014.234-.016.246-.005.011.01.018.56.014 1.22l-.007 1.202-.112.024c-.546.117-.91.302-1.247.633a2.327 2.327 0 0 0-.169 3.14c.672.835 1.906 1.076 2.888.563.773-.403 1.26-1.333 1.19-2.266-.033-.424-.24-.914-.54-1.275-.306-.368-.863-.695-1.297-.762-.249-.038-.224.106-.224-1.28V4.036l.231.019c.29.024.797.136 1.11.246A4.68 4.68 0 0 1 8.22 5.36c.126.122.24.222.251.222.012 0 .106-.08.209-.177.736-.694 1.572-1.122 2.534-1.295.382-.069 1.206-.07 1.58-.002a4.84 4.84 0 0 1 2.457 1.238c.139.13.264.235.277.235a.537.537 0 0 0 .136-.114 4.925 4.925 0 0 1 2.169-1.266c.482-.127.629-.145 1.243-.145.51 0 .63.01.909.067.449.093.77.202 1.161.393 1.278.625 2.172 1.704 2.53 3.052a4.66 4.66 0 0 1 .028 2.372 4.801 4.801 0 0 1-2.474 3.131c-.393.205-1.108.426-1.514.469l-.284.032-.119.015.007-1.238.007-1.238.238-.05a2.373 2.373 0 0 0 1.579-1.243 2.344 2.344 0 0 0-.003-2.02 2.32 2.32 0 0 0-1.11-1.084 2.016 2.016 0 0 0-.844-.2c-.988-.05-1.852.5-2.25 1.435-.242.569-.219 1.343.057 1.894.322.643.943 1.118 1.606 1.23l.223.038.007 1.234.007 1.233-.12-.013c-.644-.07-1.15-.203-1.632-.43-.483-.225-1.084-.648-1.393-.978l-.136-.146-.2.194c-1.869 1.817-4.827 1.834-6.67.038a2.251 2.251 0 0 0-.219-.198c-.008 0-.105.082-.216.182-.764.691-1.655 1.138-2.564 1.285-.271.044-.907.075-1.106.054zm7.9-2.514a2.23 2.23 0 0 0 1.167-.662 2.33 2.33 0 0 0 .606-1.177c.051-.256.043-.78-.015-1.002-.197-.745-.786-1.36-1.544-1.615-.206-.069-.26-.075-.685-.076-.407-.001-.487.006-.672.064a2.363 2.363 0 0 0-1.47 1.31c-.115.261-.152.467-.152.863 0 .71.214 1.237.69 1.697.339.326.712.52 1.198.621.14.03.698.015.877-.023z"/></svg>