<svg role="img" viewBox="0 0 24 24" xmlns="http://www.w3.org/2000/svg"><path d="M12.286 14.6l1.107-1.108.037.032c1.284 1.1 3.2 2.742 4.796 3.046.118.01.236.017.354.017.007 0 .016-.002.023 0H18.6h.008a1.944 1.944 0 0 0 1.927-1.934 1.947 1.947 0 0 0-1.935-1.935v-3.46h.923a4.506 4.506 0 0 1 4.27 3.147 4.496 4.496 0 0 1-1.08 4.496 4.482 4.482 0 0 1-3.19 1.35l-.047-.001c-2.698-.014-5.255-1.946-7.19-3.65zM1.974 12.297a2.92 2.92 0 0 0 0 2.94c.52.882 1.5 1.348 2.505 1.348 3.816 0 5.987-4.764 7.824-7.329.19-.266.389-.525.597-.772.28-.335.579-.65.9-.94 1.19-1.072 2.695-1.787 4.767-1.795h.033v3.507c-.94 0-1.834.345-2.706.9-.408.258-.81.563-1.21.899-1.901 1.597-3.459 3.56-5.384 5.132-.311.254-.627.494-.949.713a10.09 10.09 0 0 1-.72.45c-.96.543-2.018.899-3.131.899a4.507 4.507 0 0 1-3.214-1.35A4.48 4.48 0 0 1 0 13.755c0-.47.072-.923.206-1.35A4.507 4.507 0 0 1 4.5 9.258c1.202.003 2.342.35 3.401.9.479.248.944.537 1.399.853l.066.046c.04.028.097.058.158.1l.323.219.005.004-.85 1.229c-1.276-.927-2.863-1.78-4.483-1.78a2.89 2.89 0 0 0-2.545 1.47z"/></svg>