<svg viewBox="0 0 24 24" xmlns="http://www.w3.org/2000/svg" role="img"><path d="M10.124 14.57a1.62 1.62 0 0 1-.739-.269 1.62 1.62 0 0 1-.647-.9c-.042-.16-.041-.177.01-.287.14-.302.192-.549.192-.898 0-.357-.055-.607-.204-.923l-.054-.114v-1.077l.322-.342.322-.342.006 1.853c.006 2.044 0 1.873.072 2.057a.95.95 0 0 0 .737.582c.046.007.212.012.369.012h.285l.415-.484.415-.484h.417c.248 0 .415.004.413.01-.002.005-.18.217-.394.47-.215.252-.395.465-.4.473-.007.012.012.015.1.015h.108l.87-1.044c.761-.912.884-1.054.975-1.13.253-.21.515-.328.82-.369.137-.018.474-.007.602.021.396.086.729.308.939.628.105.16.198.394.245.612.056.264.03.624-.064.907a2.068 2.068 0 0 1-.179.37c0 .003.266.004.592.002.67-.004.65-.002.844-.096a.961.961 0 0 0 .502-.61c.022-.078.025-.126.03-.398l.007-.309.32-.289.319-.289.003.565c.002.349-.002.6-.009.654-.012.096-.002.146.055.258.07.138.225.304.36.383.099.06.282.12.405.134.104.011.511.016.511.005 0-.004-.027-.053-.061-.11a1.582 1.582 0 0 1-.236-.842c0-.423.165-.826.456-1.117.217-.216.509-.369.828-.433.26-.053.65-.012.923.097.256.103.53.322.685.548.126.184.235.438.272.631a2.12 2.12 0 0 1-.006.578 1.536 1.536 0 0 1-1.423 1.29 39.54 39.54 0 0 1-1.08.008c-1.065 0-1.046 0-1.278-.077a1.53 1.53 0 0 1-.622-.392l-.128-.129-.125.124a1.546 1.546 0 0 1-1.001.468c-.156.014-6.976.013-7.096-.001zm4.902-.678c.364-.102.614-.402.667-.8a.98.98 0 0 0-.111-.584.81.81 0 0 0-.226-.296c-.155-.127-.311-.182-.545-.19a.906.906 0 0 0-.234.011 1.08 1.08 0 0 0-.527.286 119.34 119.34 0 0 0-1.33 1.598c0 .003.5.004 1.11.002 1.107-.003 1.108-.003 1.196-.027zm6.41.019a1.2 1.2 0 0 0 .379-.126c.094-.052.233-.184.298-.282a.908.908 0 0 0 .137-.51.973.973 0 0 0-.104-.43.834.834 0 0 0-.246-.305.937.937 0 0 0-.338-.18.682.682 0 0 0-.253-.031.805.805 0 0 0-.44.104.852.852 0 0 0-.4.398.83.83 0 0 0-.094.438c0 .165 0 .174.036.277.07.2.172.34.347.473.13.099.25.148.423.173a.83.83 0 0 0 .255 0zM23.33 12.3v-2.283l.326-.298c.18-.164.33-.298.336-.298.005 0 .009 1.162.009 2.58v2.581h-.671zM0 11.996c0-1.416.002-2.575.005-2.575s.207.148.454.328l.449.328.003.394.003.393-.049.063a2.16 2.16 0 0 0-.398.872c-.032.157-.054.408-.036.418.008.005.008.009 0 .012-.01.003-.01.043-.002.147.032.42.171.795.417 1.124l.067.09v.967l-.1.007c-.056.004-.261.007-.457.007H0Zm2.393 2.31a2.06 2.06 0 0 1-1.28-.576 2.077 2.077 0 0 1-.624-1.204 2.738 2.738 0 0 1 .02-.717 2.05 2.05 0 0 1 .593-1.073c.138-.134.242-.215.385-.3a2.11 2.11 0 0 1 1.83-.155c.391.155.736.448 1.059.901.165.231.323.499.642 1.084.403.74.69 1.103 1.04 1.314.43.261 1.006.271 1.48.026.152-.077.277-.172.407-.307a1.56 1.56 0 0 0 .414-.797 1.92 1.92 0 0 0-.005-.597 1.577 1.577 0 0 0-1.27-1.236 1.946 1.946 0 0 0-.542 0c-.46.082-.813.34-1.163.852-.043.063-.081.11-.086.105a4.336 4.336 0 0 1-.113-.19 10.9 10.9 0 0 0-.138-.236l-.034-.054.064-.084c.384-.503.797-.784 1.31-.894.142-.03.52-.041.697-.02.86.1 1.596.778 1.774 1.638a2.082 2.082 0 0 1-1.44 2.427c-.236.068-.31.078-.607.078-.22 0-.295-.004-.374-.02-.585-.116-1.035-.443-1.45-1.055-.158-.23-.245-.378-.537-.912-.38-.695-.562-.962-.822-1.211a1.481 1.481 0 0 0-1.191-.428 1.56 1.56 0 0 0-1.425 1.313 1.902 1.902 0 0 0 0 .498c.066.385.267.732.56.968a1.573 1.573 0 0 0 1.514.259c.333-.122.636-.393.913-.815a.866.866 0 0 1 .077-.108.348.348 0 0 1 .062.093c.029.054.092.163.14.244l.087.146-.028.041c-.015.023-.066.09-.114.15-.363.456-.777.728-1.247.82a3.633 3.633 0 0 1-.451.042l-.127-.01zm14.19-3.625v-.313h1.002c.55 0 1.001.002 1.001.005s-.124.144-.276.314l-.277.308h-1.45zm3.797.006v-.308h.996c.549 0 .996.004.994.008-.002.005-.125.144-.273.309l-.268.299H20.38Z"/></svg>