<svg role="img" viewBox="0 0 24 24" xmlns="http://www.w3.org/2000/svg"><path d="M3.027 19.52c-.014-.036-.006-.07.019-.078.09-.03.573-.365.655-.454.097-.106.08-.16-.098-.33l-.11-.105.097-.204.107-.22c.005-.008.07.045.143.118.125.125.147.133.363.133.127 0 .23-.012.23-.028a.69.69 0 0 0-.112-.165l-.113-.136.122-.177c.067-.098.136-.169.153-.158.017.01.061.086.099.169.097.214.096.687-.001.848-.081.132-.302.212-.5.18-.117-.02-.12-.017-.12.117a.918.918 0 0 1-.1.334l-.1.197-.354.01c-.309.01-.358.003-.38-.052zm9.755.02c-.38-.09-.553-.35-.46-.694.055-.204.193-.331.469-.432l.231-.084-.133-.115c-.157-.136-.166-.208-.04-.324a.487.487 0 0 1 .502-.078c.179.074.23.193.152.346-.033.064-.084.125-.113.136-.028.011-.052.035-.052.053 0 .039.96.037 1.09-.002.086-.026.08-.032-.09-.108-.173-.077-.255-.08-.446-.02-.069.022-.082.012-.082-.058 0-.166.255-.434.413-.434.031 0 .194.073.362.161.167.089.364.172.437.186.152.028.157.048.07.262-.05.118-.084.154-.147.154-.122 0-.3.084-.492.23-.205.156-.468.222-.806.2-.228-.014-.255-.025-.368-.15-.068-.073-.123-.166-.123-.206 0-.103-.078-.091-.194.03-.19.198-.199.438-.022.607.089.085.146.103.397.125.314.028.348.041.317.123-.042.108-.568.164-.872.092zm2.53-.02c-.014-.036-.007-.07.018-.078.09-.03.574-.365.655-.454.097-.106.081-.16-.097-.33l-.11-.105.097-.204c.053-.113.101-.212.106-.22.005-.008.07.045.145.12.104.104.159.132.242.124.058-.006.118-.035.131-.065.141-.308.17-.345.284-.378.179-.05.356.045.445.242.083.184.091.428.019.568-.1.195-.404.235-.55.074-.064-.071-.065-.07-.165.024-.076.074-.122.09-.193.073-.088-.022-.094-.015-.094.116a.89.89 0 0 1-.1.337l-.1.197-.354.01c-.309.01-.358.003-.38-.052zm1.804-1.076c0-.145-.08-.256-.168-.24-.149.029-.059.358.098.358.057 0 .071-.024.07-.118zM1.246 19.51a.61.61 0 0 1-.362-.243c-.129-.197-.031-.838.123-.807.053.011.063.045.054.196-.017.268.056.32.46.334.501.017.618-.093.392-.37l-.128-.155.108-.19c.06-.103.124-.178.144-.166.09.056.192.34.208.584.025.384-.082.637-.324.762-.127.066-.512.097-.676.055zm13.145-.095-.086-.092.098-.098.098-.098.091.092.092.091-.103.099-.103.099zm-10.17-.029-.079-.084.085-.08.085-.08.067.074.067.074.083-.079.084-.078.07.086c.064.08.065.09.01.167-.074.102-.087.102-.17.011l-.066-.073-.078.073-.078.074zm15.738 0-.08-.084.085-.08.085-.08.067.074.067.074.084-.079.083-.078.07.086c.065.08.065.09.01.167-.074.102-.087.102-.17.011l-.065-.073-.079.073-.078.074zm-1.587-.42c-.29-.075-.395-.229-.393-.57.003-.358.159-.533.207-.233.034.217.173.29.551.29.37 0 .635-.078.813-.238a.71.71 0 0 1 .166-.126c.016 0 .02.066.008.146l-.02.145h.234c.128 0 .232-.012.232-.028a.69.69 0 0 0-.112-.165l-.113-.136.122-.177c.067-.098.136-.169.153-.158.017.01.061.086.099.169.097.214.096.687-.001.848-.129.21-.592.257-.747.075l-.072-.085-.236.12a1.079 1.079 0 0 1-.51.136c-.15.01-.321.003-.381-.012zM2.656 18.86c-.037-.071-.2-.945-.227-1.229-.009-.092.025-.154.187-.341l.199-.23.028.124c.016.068.033.394.037.724.008.6-.02.81-.131.961-.05.068-.052.067-.093-.01zm2.508 0c-.038-.071-.2-.945-.227-1.229-.009-.092.025-.154.187-.341l.198-.23.03.124c.015.068.031.394.036.724.008.6-.02.81-.131.961-.05.068-.052.067-.093-.01zm1.16.018c-.092-.031-.147-.083-.196-.184-.061-.124-.064-.162-.025-.336.05-.221.101-.245.191-.086.06.103.074.108.298.108.13 0 .246-.016.258-.036.028-.045-.133-.197-.335-.316l-.153-.09.109-.216.11-.217.104.075a.9.9 0 0 1 .402.754c0 .274-.086.439-.27.523a.61.61 0 0 1-.494.021zm1.21-.006c-.194-.085-.219-.164-.246-.783a8.733 8.733 0 0 0-.042-.637c-.014-.057.03-.107.202-.228l.22-.155v.615c0 .68.01.71.222.69.097-.01.125-.034.16-.137.056-.17.112-.177.163-.023.023.071.062.13.087.13.025 0 .121-.089.214-.197.171-.198.417-.349.568-.349.045 0 .132.05.193.111.102.103.11.126.09.291l-.022.18h.16c.167 0 .195-.022.255-.197.054-.159.118-.155.162.009.021.079.064.153.096.165.107.041.689.024.734-.021.075-.075.05-.086-.169-.085-.295.002-.344-.046-.325-.316.026-.357.251-.557.456-.404.174.13.24.287.255.609.023.5-.151.724-.602.771-.238.025-.422-.023-.46-.12-.016-.044-.04-.037-.132.04-.178.15-.482.12-.61-.06-.048-.069-.05-.069-.127.003-.17.158-.547.184-.795.056-.065-.034-.12-.043-.132-.023-.078.12-.373.153-.574.065zm1.503-.537c.05-.05.052-.07.014-.117-.09-.108-.274-.064-.492.117l-.108.09.263-.015c.18-.01.281-.033.323-.075zm1.684-.42c0-.056-.088-.117-.169-.117-.089 0-.139.052-.104.11.027.042.273.049.273.006zm.694.944c-.037-.07-.2-.944-.227-1.228-.009-.092.025-.154.187-.342l.199-.229.028.124c.016.068.033.394.037.723.008.602-.02.81-.131.962-.05.067-.052.067-.093-.01zm9.53.013c-.194-.085-.219-.164-.246-.783a8.733 8.733 0 0 0-.042-.637c-.014-.057.03-.107.202-.228l.22-.155v.612c0 .671.008.699.21.699.104 0 .128-.018.174-.127.03-.07.07-.128.089-.128.02 0 .059.058.088.128.041.097.075.127.145.127.072 0 .098-.024.122-.116.042-.162.105-.166.17-.011.046.112.07.13.155.12.09-.01.101-.026.101-.14a.46.46 0 0 1 .06-.218l.06-.09.044.11c.061.154.026.565-.06.714-.1.17-.237.212-.37.113-.103-.075-.105-.075-.164-.007-.076.088-.172.089-.284.001-.085-.067-.089-.067-.172 0-.101.082-.333.09-.501.016zm-19.606-.78-.086-.071.1-.102.1-.1.097.096.098.097-.088.074c-.11.091-.116.091-.22.005zm17.213-.295c-.065-.072-.065-.076.011-.152.077-.076.08-.077.153-.011.071.065.076.065.148 0 .072-.066.076-.065.166.024l.091.092-.096.063c-.091.06-.1.06-.166 0-.065-.058-.074-.058-.136-.002-.084.076-.09.075-.17-.014zm-8.95-.118-.08-.086.084-.08.085-.08.067.075c.066.073.067.073.142.003.075-.07.077-.07.163 0l.087.071-.085.09-.084.09-.077-.072c-.077-.072-.077-.072-.15 0l-.073.073-.08-.085zm.707-.456c-.057-.062-.055-.071.025-.147.076-.07.09-.073.132-.024.06.072.106.07.19-.006.064-.058.072-.057.147.018l.08.08-.08.08c-.077.077-.081.077-.153.012-.07-.063-.079-.063-.14-.007-.086.077-.127.075-.201-.006zm-3.753-1.47c-.116-.064-.772-.61-.788-.656-.053-.151.687-1.519.85-1.57.113-.036.363.135.639.437l.25.274.142-.243c.313-.535.488-.776.565-.776.216 0 .666.399.805.714.131.297.026.655-.337 1.144-.218.295-.363.41-.472.376-.042-.013-.226-.161-.409-.33a3.823 3.823 0 0 0-.356-.305c-.012 0-.102.141-.199.314-.185.33-.42.605-.547.638a.224.224 0 0 1-.143-.018zm2.725-.915c-.031-.082.026-.138.495-.488.479-.357 1.276-1.117 1.474-1.404.113-.165.13-.214.11-.32-.04-.218-.285-.539-.73-.959-.38-.36-.43-.421-.43-.527 0-.077.127-.386.356-.865a16.9 16.9 0 0 1 .392-.79c.085-.107.21-.051.616.27.293.232.554.586.675.914.226.613.11 1.552-.291 2.35-.467.93-1 1.395-1.972 1.718-.436.144-.665.178-.695.101zm-9.254-.005c-.052-.052-.027-.156.063-.263.05-.06.422-.329.827-.599.845-.564 1.16-.815 1.391-1.108.203-.258.7-1.228 1-1.952.344-.832.42-.963.549-.963.157 0 .122.361-.117 1.2-.16.557-.362 1.138-.597 1.712-.516 1.258-.772 1.483-2.07 1.812-.56.143-.998.21-1.046.161zm3.025-.03c0-.083.257-.282 1.073-.832.878-.592 1.197-.884 1.413-1.295a2.92 2.92 0 0 0 .168-.368c.037-.129-.013-.138-.26-.05-.42.152-.976-.166-.976-.557 0-.17.103-.473.314-.917.252-.533.483-.902.667-1.068.127-.115.17-.132.329-.132.308 0 .553.172.726.51.07.137.152.538.12.59-.009.015.005.027.031.027s.317-.275.647-.61c.33-.336.641-.636.691-.667.145-.09.236-.1.525-.059.221.031.284.029.333-.012.033-.028.174-.22.312-.426.139-.206.272-.368.295-.36.075.027.03.308-.108.676-.189.507-.287.684-.51.917-.256.268-.374.323-.7.323h-.26l-.48.465c-.263.256-.578.54-.698.632-.193.147-.225.19-.268.357-.146.568-.553 1.464-.848 1.863-.267.362-.441.45-1.641.828-.705.222-.895.257-.895.164zm10.407 0c-.407-.132-.704-.466-.846-.949-.07-.239-.106-1.051-.07-1.599.108-1.675.438-3.873.684-4.558.396-1.107.522-1.367.6-1.24.027.042-.057.911-.183 1.909-.305 2.413-.362 3.25-.255 3.704.078.33.215.574.43.767.212.19.437.272.752.272.52 0 .698-.112 1.073-.674.405-.605.454-.631.888-.475.132.047.308.098.391.111.14.024.157.018.242-.095.05-.066.205-.311.345-.544.592-.982.91-1.357 1.352-1.593.275-.146.543-.166.772-.057.221.105.3.273.3.638 0 .401-.089.739-.308 1.175-.148.296-.163.344-.097.31.244-.127.771-.624 1.16-1.094.162-.194.356-.397.433-.45.13-.09.155-.095.366-.067.125.016.323.03.441.032.193.002.221-.007.29-.098.148-.198.068-.64-.153-.839-.071-.064-.081-.064-.237-.005-.23.088-.709.067-.823-.036-.245-.223-.246-.443-.004-1.048.33-.823.475-1.057.734-1.189.272-.139.533-.068.823.222.448.447.654 1.133.54 1.797-.134.782-.57 1.768-.95 2.148-.215.215-.387.262-.67.184-.445-.124-.452-.12-.993.405-.536.52-.653.609-1.194.895-.373.197-1.365.599-1.72.696-.242.067-.859.065-1.12-.003a2.631 2.631 0 0 1-.429-.165c-.215-.11-.223-.11-.296-.046-.04.036-.228.298-.416.582-.514.778-.814.998-1.389 1.017a1.535 1.535 0 0 1-.464-.039zm4.506-2.77c.143-.032.354-.107.467-.167.42-.22.903-.694.903-.883 0-.245-.59-.404-.87-.233a.986.986 0 0 0-.192.154c-.059.066-.687.999-.77 1.142-.037.064.14.06.462-.013zm4.79 2.299c-.028-.034-.008-.197.073-.59.112-.54.112-.547.142-2.196.032-1.71.039-1.797.21-2.398.093-.326.344-.942.527-1.29.113-.216.171-.291.225-.291.055 0 .072.022.067.09l-.044.6c-.022.28-.057 1.114-.078 1.854-.057 1.962-.132 2.482-.481 3.348-.245.608-.534 1.002-.64.873zm-6.84-5.666c-.203-.165-.393-.335-.421-.378-.048-.072-.03-.12.224-.618.367-.718.516-.936.648-.951.129-.015.41.195.643.48.09.11.174.201.188.202.014.001.135-.18.27-.404a5.31 5.31 0 0 1 .34-.514c.094-.104.101-.106.24-.06.183.06.555.43.667.664.109.227.09.45-.063.76-.122.248-.403.615-.558.73-.122.09-.226.065-.394-.094-.07-.066-.223-.207-.34-.313l-.214-.193-.168.303c-.193.347-.497.686-.614.686-.045 0-.24-.131-.448-.3zM3.852 8.648c-.34-.225-.702-.502-.75-.574-.05-.078-.05-.105.002-.287.073-.25.498-1.104.624-1.254.162-.192.315-.137.673.242.29.308.374.473.35.687-.02.183-.222.625-.434.951-.2.308-.287.352-.465.235zm16.492-1.886c-.382-.307-.537-.453-.537-.504 0-.144.73-1.451.845-1.513.108-.058.291.06.61.393.163.17.3.303.306.296.005-.006.113-.183.24-.393.417-.69.437-.704.737-.506.37.246.632.674.589.965-.03.201-.212.557-.431.841-.195.254-.327.35-.44.32-.045-.01-.233-.159-.418-.33a6.928 6.928 0 0 0-.348-.309c-.007 0-.073.11-.147.245a4.976 4.976 0 0 1-.26.416c-.117.162-.317.32-.405.32-.022 0-.175-.108-.34-.241zM8.15 6.64c-.403-.273-.555-.42-.555-.535 0-.197.504-1.258.693-1.46.152-.161.4-.03.75.394.269.325.299.44.196.754-.089.27-.385.813-.528.967-.05.053-.122.097-.162.097-.04 0-.217-.098-.394-.217z"/></svg>