<svg viewBox="0 0 24 24" xmlns="http://www.w3.org/2000/svg" role="img"><path d="M22.411 14.567c0-1.251.008-1.602.039-1.614.02-.008.151-.008.29.001l.252.015v2.923l-.275.137c-.15.076-.28.138-.29.138-.009 0-.016-.72-.016-1.6zm1.008-.622v-1l.282.006.283.006.008.85.008.85-.29.144-.291.144zm-19.327.1v-.534h.442c.468 0 .463-.002.424.145-.017.064-.035.068-.276.068h-.258l.009.115.009.114.244.004.244.004.01.096.01.095h-.523v.214h.289c.17 0 .296.014.308.033.01.017.011.065 0 .106l-.018.075h-.915zm1.526.487a.502.502 0 0 1-.183-.157c-.065-.095-.076-.146-.076-.343 0-.262.062-.387.239-.483.144-.079.55-.074.69.008a.35.35 0 0 1 .114.093c.006.017-.048.06-.12.095-.13.063-.133.063-.203.006a.23.23 0 0 0-.325.023c-.061.067-.075.113-.075.256 0 .232.076.335.245.335.154 0 .274-.056.274-.127 0-.045-.024-.056-.122-.056-.119 0-.122-.003-.122-.107v-.107h.52v.461l-.161.075c-.188.087-.52.1-.695.027zm1.16-.487v-.534h.303l.01.221.008.221.206.01.206.008v-.366l.159-.047c.087-.026.162-.047.167-.047.005 0 .01.24.01.534v.534h-.332l-.01-.175-.008-.176H7.1l-.01.176-.008.175h-.303zm1.725.503a2.294 2.294 0 0 1-.012-.397c.004-.2-.002-.375-.014-.387a.503.503 0 0 0-.18-.022l-.16-.002-.009-.115-.009-.114h.521c.482 0 .521.004.521.055 0 .1-.076.167-.201.174l-.12.007-.008.416-.008.416h-.15c-.082 0-.158-.014-.169-.031zm.993-.503v-.534h.443c.462 0 .495.01.404.13-.029.039-.097.053-.282.06l-.244.009v.213l.263.01c.227.007.266.016.28.065.025.1-.021.121-.285.13l-.258.01v.183l.297.009.298.009v.242h-.916zm1.45.506a.39.39 0 0 1-.194-.22c-.036-.094-.003-.118.16-.118.075 0 .116.023.167.092.048.065.093.091.156.091.102 0 .196-.079.171-.144a.326.326 0 0 1-.017-.055 1.84 1.84 0 0 0-.258-.09c-.284-.086-.353-.147-.353-.315 0-.146.042-.206.183-.262.223-.09.567-.047.656.08.053.076.04.093-.104.141-.091.03-.112.027-.17-.026-.076-.072-.206-.08-.258-.017-.059.07-.017.1.257.183.285.087.383.172.383.332 0 .122-.114.286-.226.325-.104.037-.465.038-.553.002zm1.09.003.206-.535.196-.508h.38l.202.508c.11.279.201.52.201.534 0 .015-.075.027-.166.027-.159 0-.166-.004-.185-.092-.02-.091-.021-.092-.234-.092-.21 0-.215.002-.249.092-.032.086-.044.092-.198.092-.09 0-.16-.012-.154-.026zm.709-.397c.015-.025-.083-.33-.118-.364-.017-.018-.03.01-.09.213-.023.078-.034.15-.025.16.027.027.215.02.233-.01zm.802.403c-.011-.011-.02-.253-.019-.538v-.517l.393.01c.34.01.402.02.461.072.165.147.23.483.138.705-.06.144-.103.182-.272.239-.143.049-.66.07-.701.029zm.62-.286c.046-.046.062-.101.062-.225 0-.22-.079-.324-.247-.324h-.12v.61h.122c.082 0 .143-.02.184-.06zm.953.242c-.188-.095-.26-.249-.245-.52.02-.346.199-.501.575-.5.38.003.529.141.543.504.01.259-.04.393-.186.501-.132.096-.51.105-.687.015zm.43-.178c.218-.083.172-.592-.054-.614-.215-.021-.29.058-.29.307 0 .156.012.197.075.26.08.08.15.092.269.047zm.762-.285.008-.527.157-.009.157-.009.21.296.209.296.015-.254.015-.255.145-.037.145-.036v1.062h-.3l-.206-.29c-.113-.16-.217-.29-.231-.29-.014 0-.026.13-.026.29v.29h-.307zm1.367.041v-.486l.143-.048c.078-.027.154-.05.168-.05.013 0 .025.186.025.413v.412h.549v.245h-.885zm1.182.445c-.035-.09-.017-.903.02-.933a.554.554 0 0 1 .165-.06l.129-.029v1.062h-.15c-.096 0-.154-.014-.164-.04zm.62-.494v-.534h.166c.135 0 .173.011.2.06.049.093.34.473.37.484.015.006.027-.092.027-.217 0-.248-.003-.244.236-.312l.069-.02v1.074l-.16-.001-.16-.001-.2-.289a1.953 1.953 0 0 0-.22-.289c-.013 0-.023.13-.023.29v.29h-.306v-.534zm1.372.512-.004-.527-.002-.504.449-.008.449-.008-.021.07c-.034.112-.057.12-.31.126l-.239.005-.009.114-.009.115h.553v.18l-.267.01-.267.008-.01.1-.01.099h.584v.244h-.443c-.243 0-.443-.01-.444-.023zM.981 14.12c-.31-.065-.647-.3-.793-.557-.132-.23-.187-.495-.187-.9v-.344h1.222l-.01.298-.008.298-.298.009c-.295.009-.298.009-.298.085 0 .164.155.377.343.474a.61.61 0 0 0 .77-.212l.093-.132.01-.685.008-.685.275-.138c.15-.076.287-.13.304-.12.016.01.03.165.03.345 0 .437.01.448.356.448h.264l-.003-.458a6.74 6.74 0 0 1 .013-.582c.017-.122.024-.128.274-.252.14-.07.27-.128.286-.128.02 0 .03.372.03 1.023v1.023H2.444l-.018.115c-.077.46-.328.801-.727.985a1.269 1.269 0 0 1-.719.09zm1.482.01c-.025-.025-.027-.445-.002-.51.016-.042.099-.049.61-.049h.593v.58h-.59c-.325 0-.6-.009-.611-.02zm15.033-1.047v-.152l-3.183-.008-3.184-.007-.127-.068a.682.682 0 0 1-.198-.168c-.071-.1-.072-.104-.08-1.204l-.01-1.104.296-.14c.163-.078.298-.14.3-.14.005 0 .008.304.014 1.228.006 1.055-.015 1 .37 1 .212 0 .245-.007.247-.053.001-.03 0-.205-.002-.391-.007-.478-.01-.468.292-.619a2.24 2.24 0 0 1 .288-.128c.016 0 .033.145.037.323l.01.323.335-.338.335-.338h1.032c1.126 0 1.188.008 1.295.171.047.072.057.164.067.569l.01.483.31-.009.31-.009.008-.581.008-.581.29-.144.289-.144v.658c0 .657 0 .658.075.733.067.067.1.075.32.075h.246l.002-.558c.003-.641.008-.684.093-.775.118-.126.198-.137.88-.127l.648.009.087.097c.115.129.127.25.116 1.185l-.01.764-.602.008-.603.008v.304h-.611v-.152zm-2.474-1.037c0-.384.036-.368-.823-.368h-.687l-.298.297a3.113 3.113 0 0 0-.298.32c0 .014.474.024 1.053.024h1.053zm3.696.22c.01-.404-.004-.755-.03-.781-.039-.04-.419-.052-.513-.017-.067.025-.069.038-.069.438v.413h.306c.27 0 .305-.006.306-.053zm-14.606.644c-.011-.012-.02-.15-.02-.306v-.285h1.22V9.36l.275-.139a2.37 2.37 0 0 1 .305-.137c.021 0 .031.517.031 1.551 0 1.84-.035 1.685.382 1.685h.258l.008-.465.008-.466.282-.145.283-.146v1.833H5.638c-.829 0-1.516-.01-1.527-.02zm3.48 0c-.01-.012-.02-.587-.02-1.278v-1.257l.176-.087.29-.143.114-.056v2.84h-.27c-.148 0-.278-.008-.29-.02zm1.005-.079c-.009-.055-.013-.264-.009-.466L8.595 12h.58l.01.16.008.16h.304c.167 0 .304-.01.304-.022 0-.013-.174-.197-.387-.41l-.386-.388.086-.294c.048-.161.097-.3.11-.307.011-.007.256.22.544.505l.523.52-.008.495-.008.497-.83.008-.831.008zm11.148.055c-.027-.07-.023-3.35.004-3.45.02-.071.072-.112.282-.22a2.85 2.85 0 0 1 .28-.132c.014 0 .024.864.024 1.922v1.924h-.287c-.222 0-.29-.01-.304-.044zm1.038.024c-.011-.012-.02-.54-.02-1.176V10.58l.274-.137c.15-.076.281-.138.29-.138.009 0 .016.59.016 1.313v1.313h-.27c-.148 0-.279-.01-.29-.02zm1.001-.018a110.02 110.02 0 0 1-.007-2.405l.008-2.366.183-.092c.101-.05.235-.116.298-.145l.115-.052v5.098h-.291c-.205 0-.296-.011-.306-.038zm-17.672-.898c-.011-.012-.02-.382-.02-.823v-.803l.281-.137c.203-.1.288-.127.305-.101.027.043.033 1.765.006 1.836-.015.038-.07.048-.285.048-.147 0-.276-.01-.287-.02zm2.46-1.408.008-.297.283-.01.282-.008v.613h-.582zm9.086-.817a2.402 2.402 0 0 1 0-.29c.007-.018.245-.03.604-.03h.592v.58h-1.186zm2.112-.03v-.29h1.221v.58h-1.22zM6.565 9.511v-.458h1.297c.714 0 1.298.007 1.298.015s-.065.146-.145.306l-.144.292-.856-.003-.855-.003-.009.154-.009.155h-.577V9.51z"/></svg>