<svg role="img" viewBox="0 0 24 24" xmlns="http://www.w3.org/2000/svg"><path d="M11.811 23.932a72.21 72.21 0 0 1-1.1-.632 429.968 429.968 0 0 0-1.886-1.09 5132.78 5132.78 0 0 0-3.789-2.185l-1.525-.88c-.173-.101-.647-.373-1.053-.605-.407-.233-.77-.458-.81-.5l-.07-.079v-5.968c0-5.64.003-5.972.055-6.032.03-.034.394-.258.81-.496A648.623 648.623 0 0 0 4.878 4.06l.613-.353a2242.189 2242.189 0 0 1 2.248-1.3l2.405-1.387c.398-.229.955-.552 1.24-.718.351-.206.546-.302.612-.302.068 0 .328.134.852.436a5394.803 5394.803 0 0 0 1.933 1.117 588.5 588.5 0 0 0 2.531 1.461c.536.308 1.053.606 1.148.663l1.415.818c.683.393 1.48.854 1.772 1.025.291.17.54.309.554.309.014 0 .07.04.123.091l.097.091v11.95l-.07.078c-.04.042-.51.328-1.046.634-.536.307-1.038.597-1.116.644-.078.048-.714.417-1.415.82a1754.111 1754.111 0 0 0-4.48 2.582l-.723.419c-.98.57-1.513.863-1.57.862a.597.597 0 0 1-.19-.068zm.774-.845c.3-.175.88-.51 1.286-.744a2485.321 2485.321 0 0 0 4.669-2.697 1413.467 1413.467 0 0 0 2.075-1.196l.691-.398.566-.327L21.88 12l.008-5.724-.464-.266a571.69 571.69 0 0 0-1.989-1.147c-.389-.224-.898-.518-1.131-.654-.75-.435-1.019-.59-1.164-.67A16.919 16.919 0 0 0 12.002.578c-.012 0-.354.196-1.307.746L9.28 2.14c-1.248.72-2.77 1.6-3.175 1.835-.372.216-.889.514-2.232 1.287L2.7 5.94l-.59.344v11.425l.182.108c.1.06.47.275.825.479l.927.533 2.531 1.463a2941.73 2941.73 0 0 0 4.276 2.467c1.05.607 1.115.643 1.151.644.02 0 .281-.142.582-.316zm-.93-.609-2.123-1.227-4.92-2.84-1.855-1.072V6.643l1.226-.708a2764.422 2764.422 0 0 1 3.584-2.07l.817-.473 1.73-.996a232.97 232.97 0 0 0 1.545-.894 2.08 2.08 0 0 1 .325-.17c.04 0 .244.113.931.512.622.36 1.793 1.035 2.323 1.336.26.148.521.3.582.34.06.039.5.293.975.565.475.273 1.218.7 1.65.951a641.72 641.72 0 0 0 2.61 1.507l.157.092.008 5.343c.007 5.063.005 5.345-.047 5.377-.098.061-1.502.874-2.602 1.506-.277.159-.578.333-.67.388-.091.055-.172.1-.179.1-.007 0-.151.082-.32.183-.17.101-.698.408-1.173.682a1817.9 1817.9 0 0 0-2.846 1.643c-1.024.592-1.381.792-1.414.79a2.65 2.65 0 0 1-.315-.169zm1.28-4.876.794-.454c.052-.03.731-.42 1.51-.865.778-.447 1.485-.851 1.571-.899.226-.124.385-.266.457-.407a.909.909 0 0 0 .02-.605.737.737 0 0 0-1.011-.363c-.087.042-.348.188-.582.325a51.67 51.67 0 0 1-.629.361c-.112.063-.536.305-.943.54a219.286 219.286 0 0 1-1.58.905l-.558.321-1.439-.825-1.94-1.115-.504-.29-.008-2.245-.008-2.245.275-.159.685-.395a254.01 254.01 0 0 1 2.926-1.681c.024-.01.153.046.288.124l.354.204a1247.438 1247.438 0 0 1 3.003 1.734l.251.144v1.406l-.959.55-1.73.991c-1.73.993-1.8 1.042-1.881 1.31a.732.732 0 0 0 .784.939c.117-.011.353-.134 1.242-.643l2.403-1.376c.717-.41 1.345-.784 1.395-.83a.79.79 0 0 0 .148-.21c.054-.115.059-.226.06-1.412 0-1.225-.003-1.293-.063-1.417a.804.804 0 0 0-.134-.197 10.387 10.387 0 0 0-.73-.448 4126.847 4126.847 0 0 0-3.019-1.749l-1.132-.656h-.503l-.754.439a928.744 928.744 0 0 1-3.128 1.809l-.587.342c-.434.253-.558.38-.61.615-.023.11-.03 1.008-.024 2.91.01 2.75.01 2.752.078 2.877.087.163.195.258.467.415l3.002 1.723c.718.41 1.322.76 1.342.777.111.088.348.151.521.138.163-.011.248-.051.88-.413z"/></svg>