<svg viewBox="0 0 24 24" xmlns="http://www.w3.org/2000/svg" role="img"><path d="m17.182 15.451.08-.303.108-.403a.863.863 0 0 1 .045-.137 2.64 2.64 0 0 1 .23-.115l.565-.263a548.82 548.82 0 0 0 1.25-.583 910.718 910.718 0 0 0 2.04-.952 1470.878 1470.878 0 0 1 1.488-.693c.007 0 0 .029-.049.21l-.112.417a1.911 1.911 0 0 1-.072.238c-.01.01-.203.102-.493.236a327.973 327.973 0 0 0-1.254.586 30.37 30.37 0 0 1-.296.137 10875.567 10875.567 0 0 1-3.526 1.645c-.007.003-.008-.001-.004-.02zm3.157-.013a3.71 3.71 0 0 1-1.405-.398 17.498 17.498 0 0 1 .827-.386.494.494 0 0 1 .133.02c.25.055.4.07.664.07.23 0 .354-.013.55-.052a2.725 2.725 0 0 0 1.922-1.51c.173-.361.255-.704.27-1.135a4.28 4.28 0 0 1 .008-.156l.004-.044.033-.014.321-.15c.16-.073.293-.134.297-.134.011 0 .023.102.033.28a3.496 3.496 0 0 1-.452 1.868 3.52 3.52 0 0 1-1.125 1.192 3.325 3.325 0 0 1-1.491.538 5.2 5.2 0 0 1-.59.01zm-18.903-.305-.015-.058a.656.656 0 0 0-.011-.042c-.003-.01.004-.013.03-.016.065-.01.173-.038.218-.059a.37.37 0 0 0 .195-.194.502.502 0 0 0 .007-.254.893.893 0 0 0-.048-.149c.01-.006.133-.045.135-.043.002.002.016.045.031.096.032.105.05.137.092.165l.029.019.45.002c.27 0 .467 0 .494-.005.061-.01.091-.027.116-.067l.02-.034v-.112a.716.716 0 0 0-.011-.155l-.011-.044.036-.01c.072-.02.09-.024.095-.02a.327.327 0 0 1 .022.067.826.826 0 0 1 .004.315c-.028.091-.068.14-.14.175-.083.04-.1.041-.618.041h-.47l-.037-.018c-.04-.02-.036-.024-.05.042a.604.604 0 0 1-.037.097c-.064.135-.21.23-.413.269-.115.021-.106.022-.114-.008zm8.718 0a2.186 2.186 0 0 1-.017-.069l-.01-.042.07-.013c.184-.031.304-.102.359-.212a.36.36 0 0 0 .035-.199.408.408 0 0 0-.028-.147 2.332 2.332 0 0 0-.03-.081c-.004-.008-.002-.013.003-.013s.036-.01.068-.021c.045-.017.06-.02.064-.013a.907.907 0 0 1 .028.085c.036.125.063.164.125.185.03.01.895.012.948.001.083-.015.118-.053.133-.14a.684.684 0 0 0-.017-.23l-.009-.041.036-.01c.072-.02.09-.024.095-.02a.328.328 0 0 1 .022.067.81.81 0 0 1 .003.319c-.041.119-.1.171-.224.2-.043.01-.108.012-.526.012h-.478l-.036-.018-.036-.018-.012.052a.5.5 0 0 1-.097.195.645.645 0 0 1-.374.182c-.098.017-.088.018-.096-.011zm2.088-.043-.017-.07.067-.011c.197-.036.318-.103.37-.208l.022-.043-.1-.004c-.182-.007-.255-.04-.3-.13-.021-.044-.023-.05-.022-.124 0-.064.003-.085.02-.13a.328.328 0 0 1 .147-.193c.03-.016.042-.018.104-.018.06 0 .075.002.104.017.093.048.155.17.18.359l.008.068.091-.003c.08-.002.096-.005.13-.02.07-.033.087-.08.08-.22l-.006-.084.066-.008.066-.007.009.106c.005.057.012.12.018.14.01.036.038.07.053.064a.273.273 0 0 0 .043-.059c.113-.182.252-.331.366-.392a.356.356 0 0 1 .323-.007c.038.02.093.072.115.11a.321.321 0 0 1 0 .321c-.024.044-.022.047.042.054.07.008.287-.001.317-.012a.145.145 0 0 0 .085-.092.645.645 0 0 0 0-.232 3.05 3.05 0 0 1-.013-.072c0-.007.019-.015.062-.026a.216.216 0 0 1 .067-.01.72.72 0 0 1 .035.16c.023.188-.028.331-.139.39-.068.036-.125.045-.283.046-.157 0-.223-.01-.288-.045l-.037-.02-.03.013a.983.983 0 0 1-.335.053c-.219.01-.38-.025-.446-.094l-.02-.021-.033.03c-.063.06-.125.08-.255.086l-.091.004-.012.043a.389.389 0 0 1-.108.185c-.091.091-.209.14-.41.17l-.028.005zm.444-.522a.473.473 0 0 0-.071-.22.143.143 0 0 0-.091-.04c-.071 0-.133.097-.125.194.003.03.007.042.024.059.033.032.064.04.171.04h.096l-.004-.033zm1.12.023a.437.437 0 0 0 .179-.052c.115-.067.119-.221.007-.283a.196.196 0 0 0-.158-.008c-.09.037-.2.145-.306.302a.406.406 0 0 0-.03.047c0 .008.237.003.307-.006zm-10.887.488-.059-.06.06-.059.058-.059.06.06.06.059-.06.059-.06.06s-.026-.028-.059-.06zm.27-.002-.06-.061.059-.06.059-.058.06.06.062.061-.06.06-.059.059zm8.449.002-.06-.06.06-.059.059-.059.06.06.061.061-.058.058a.92.92 0 0 1-.06.058.86.86 0 0 1-.062-.06zm.272 0-.06-.06.046-.046c.079-.081.064-.08.132-.012l.059.059-.06.059-.059.06zm-11.531.044c-.16-.02-.279-.095-.334-.21A.531.531 0 0 1 0 14.64a.831.831 0 0 1 .058-.296l.018-.049.032.013.066.027.034.014-.011.027a.846.846 0 0 0-.053.367.277.277 0 0 0 .13.193.388.388 0 0 0 .202.046.476.476 0 0 0 .244-.04c.17-.08.223-.293.135-.553a.757.757 0 0 1-.026-.085c.005-.004.122-.045.129-.045.015 0 .059.14.075.24a.616.616 0 0 1-.082.445.467.467 0 0 1-.284.17 1.35 1.35 0 0 1-.289.008zm15.573-3.083V9.193h.237v5.694h-.237zM1.265 14.75c-.003-.003-.005-.27-.005-.596v-.591h.142l-.001.596-.002.596h-.065a.266.266 0 0 1-.07-.005zm2.316-.591v-.596h.14v1.192h-.14zm1.912.588a.295.295 0 0 1-.149-.067.28.28 0 0 1-.084-.154c-.012-.05-.013-.08-.013-.508v-.455h.139l.002.451c.002.5 0 .48.049.536.047.054.025.052.643.05l.543-.002.042-.021c.072-.036.086-.077.077-.223l-.005-.078.065-.007a.372.372 0 0 1 .067-.005l.011.116c.009.113.02.155.044.182.011.013.037.017.037.006 0-.013.127-.196.177-.255.13-.152.244-.224.366-.232a.307.307 0 0 1 .309.178c.021.044.022.051.022.127 0 .08 0 .081-.028.136l-.03.06c-.006.013.086.021.207.019.117-.002.133-.004.165-.019.078-.035.088-.058.087-.2v-.105l.064-.007a.677.677 0 0 1 .066-.006l.006.085c.009.152.019.19.061.221.04.03.061.033.236.033.121 0 .18-.003.223-.011.104-.02.164-.06.18-.122.013-.045.009-.048-.042-.036a.593.593 0 0 1-.135.008c-.082-.002-.095-.005-.134-.023-.077-.035-.112-.087-.119-.179a.41.41 0 0 1 .043-.205.247.247 0 0 1 .12-.13.177.177 0 0 1 .104-.021.18.18 0 0 1 .104.022c.113.056.18.201.19.419.009.187-.035.31-.13.367-.076.046-.201.065-.426.065-.191 0-.247-.015-.306-.082l-.03-.033-.031.03a.278.278 0 0 1-.067.046c-.069.03-.105.035-.249.035-.152-.001-.212-.01-.28-.044l-.042-.02-.03.013c-.114.05-.429.07-.602.037a.37.37 0 0 1-.178-.08l-.018-.022-.034.031a.301.301 0 0 1-.126.072c-.035.012-.075.013-.582.014-.299 0-.56 0-.58-.005zm1.98-.163a.329.329 0 0 0 .147-.058.154.154 0 0 0 .07-.133.145.145 0 0 0-.065-.128c-.125-.086-.287.007-.47.271a.51.51 0 0 0-.04.062c0 .01.306-.002.358-.014zm1.566-.297c.024-.008.026-.01.022-.03a.78.78 0 0 0-.044-.15c-.054-.107-.165-.11-.216-.005-.047.095-.03.161.047.19.031.012.15.01.192-.005zm.39-.128v-.596h.139v1.192h-.14zm-4.98.585a1.09 1.09 0 0 0-.04-.007l-.033-.004v-.077c0-.076 0-.077.015-.073.051.013.151.02.222.017a.418.418 0 0 0 .207-.05c.045-.03.06-.06.055-.112-.007-.102-.097-.212-.276-.335l-.062-.042a.714.714 0 0 1 .082-.121c.013 0 .133.083.192.133a.603.603 0 0 1 .193.256.319.319 0 0 1 .016.123c0 .07-.002.08-.02.12-.04.086-.128.143-.258.165-.054.01-.271.015-.293.007zm-4.004-.502-.059-.059.06-.059.058-.059.06.059.06.058-.06.06-.06.06zM8 14.012l-.06-.059.06-.059.059-.06.057.058c.032.032.058.06.058.065 0 .006-.107.115-.113.115a1.15 1.15 0 0 1-.061-.06zm.266.002-.057-.057.06-.062.06-.061.06.06.06.06-.059.06a.73.73 0 0 1-.063.058.728.728 0 0 1-.06-.057zm9.463-.034c-.31-.493-.467-.87-.557-1.338a3.032 3.032 0 0 1-.06-.66 3.45 3.45 0 0 1 .684-2.06c.152-.204.4-.467.588-.623.505-.42 1.073-.659 1.765-.744.14-.018.541-.017.691 0 .44.05.82.157 1.234.345a.59.59 0 0 1 .092.047 7.28 7.28 0 0 1-.406.196c-.44.205-.43.201-.5.18a3.954 3.954 0 0 0-.388-.075 3.536 3.536 0 0 0-.659-.003 2.68 2.68 0 0 0-1.409.607c-.097.08-.302.286-.382.383a2.74 2.74 0 0 0-.536 1.033 2.68 2.68 0 0 0-.045 1.257c.085.407.273.818.534 1.164.024.032.042.06.039.063-.006.005-.633.3-.638.3l-.047-.072zm-3.344-.035-.057-.058.06-.059.058-.059.06.06.06.06-.056.057a.473.473 0 0 1-.062.056.497.497 0 0 1-.063-.057zm.271-.001-.058-.058.056-.057a.476.476 0 0 1 .062-.056.5.5 0 0 1 .063.057l.057.058-.057.057a.78.78 0 0 1-.061.058.752.752 0 0 1-.062-.059zm-5.958-.257-.057-.058.059-.059.06-.058.059.058.059.06-.058.057a.691.691 0 0 1-.06.058.707.707 0 0 1-.062-.058zm.27-.002-.058-.06.055-.055a.386.386 0 0 1 .063-.056.39.39 0 0 1 .064.058l.058.058-.058.057a.767.767 0 0 1-.061.057.79.79 0 0 1-.063-.06zm9.54-.395a2.813 2.813 0 0 1-.238-.459c-.059-.144-.072-.12.124-.212a6108.03 6108.03 0 0 0 2.565-1.197l.986-.46a973.948 973.948 0 0 1 1.475-.688l.042-.02-.023.085a162.225 162.225 0 0 1-.206.766c-.009.024 0 .019-.396.204a5053.04 5053.04 0 0 0-4.294 2.004c-.01.005-.017 0-.034-.023zm-14.996-.17-.06-.24a9.68 9.68 0 0 1-.059-.242c0-.004.026-.01.058-.012a3.05 3.05 0 0 0 .365-.06c.116-.028.217-.064.303-.109a.706.706 0 0 0 .41-.608 1.353 1.353 0 0 0-.139-.67.697.697 0 0 1-.039-.096c.007-.007.492-.173.495-.169l.073.248c.039.134.081.266.094.293.046.098.116.15.22.163.067.01 3.012.01 3.174 0 .274-.014.345-.055.391-.226.035-.127.011-.429-.052-.671-.014-.056-.018-.08-.012-.082.014-.005.452-.115.458-.115.014 0 .066.19.093.335.026.14.034.255.03.403-.005.19-.032.318-.092.445-.126.266-.338.393-.714.427a70.6 70.6 0 0 1-1.732.006l-1.645-.002-.052-.015-.067-.02c-.013-.004-.016 0-.024.036a1.229 1.229 0 0 1-.162.375c-.229.33-.63.528-1.218.6-.098.012-.097.012-.097.007zm4.714-.17-.174-.174.174-.175.174-.174.162.162.163.162.162-.162.162-.162.174.174.174.175-.174.174-.174.174-.162-.162-.162-.162-.163.162-.162.162zm2.419.166-.06-.237a5.945 5.945 0 0 0-.06-.238c-.002-.008.012-.011.072-.018.104-.011.235-.033.328-.054.254-.057.478-.17.59-.297.05-.059.091-.123.08-.127a3.25 3.25 0 0 0-.184-.006.974.974 0 0 1-.36-.05.572.572 0 0 1-.404-.418.644.644 0 0 1-.016-.206c0-.121.003-.153.016-.216.064-.298.218-.526.423-.63a.597.597 0 0 1 .269-.065.572.572 0 0 1 .463.169c.166.167.274.444.324.835l.009.068h.185c.526 0 .752-.04.875-.154a.195.195 0 0 0 .066-.146c.004-.083-.03-.166-.108-.26a6.632 6.632 0 0 0-.564-.504c-.154-.124-.218-.197-.263-.299a.379.379 0 0 1-.035-.17.41.41 0 0 1 .044-.2.45.45 0 0 1 .169-.18c.066-.04.02-.021.636-.255a99.053 99.053 0 0 0 .68-.258c.13-.05.272-.104.275-.104.002 0 .002.118.001.263l-.002.262-.282.106a810.615 810.615 0 0 1-.968.363c-.001 0 .008.01.02.021.227.187.589.528.687.647.108.13.185.294.213.45.005.029.009.097.009.156a.68.68 0 0 1-.048.272c-.085.226-.322.388-.673.46-.183.037-.231.04-.598.045l-.344.004-.019.066a1.07 1.07 0 0 1-.482.635c-.214.133-.513.227-.839.264a9.933 9.933 0 0 0-.092.01c-.021.004-.03.002-.033-.004zm.994-1.536a1.535 1.535 0 0 0-.05-.256c-.042-.121-.109-.207-.18-.231a.203.203 0 0 0-.14.006c-.08.041-.147.19-.15.331 0 .076.01.108.048.137.058.043.143.057.349.056l.125-.001zM1.125 13.043c-.369-.037-.626-.145-.808-.337-.181-.193-.272-.452-.279-.798a2.193 2.193 0 0 1 .12-.746c.037-.116.1-.279.111-.29.003-.003.103.034.222.083.118.05.22.091.227.094.01.004.01.012-.015.072-.063.155-.12.354-.143.505a1.74 1.74 0 0 0-.008.395c.033.215.13.355.305.437.213.1.606.114.87.03a.611.611 0 0 0 .438-.476c.071-.308.013-.68-.159-1.02l-.021-.043.017-.007c.05-.019.48-.167.482-.165.006.008.068.175.095.256.14.413.167.785.08 1.132a1.087 1.087 0 0 1-.855.83 1.705 1.705 0 0 1-.46.048h-.22zm1.947-2.327V9.291h.495v2.85h-.495zm6.677 0V9.291h.502v2.85h-.502zm4.622.002.002-1.423.25-.002.249-.002v2.85h-.502zm3.756 1.181.055-.207c.123-.466.144-.54.157-.555a.363.363 0 0 1 .076-.045 983.234 983.234 0 0 1 2.624-1.224 1133.149 1133.149 0 0 0 2.335-1.09l.542-.25a3.81 3.81 0 0 1-.046.186c-.148.552-.177.659-.186.672a.139.139 0 0 1-.047.033l-.305.142a245.477 245.477 0 0 1-1.038.485l-.833.388a901.239 901.239 0 0 0-2.408 1.124 162.536 162.536 0 0 1-.918.427l-.035.016zm-16.97-.986-.175-.176.174-.174.174-.174.176.176.176.176-.174.174-.174.174z"/></svg>