<svg role="img" viewBox="0 0 24 24" xmlns="http://www.w3.org/2000/svg"><path d="M20.25 16.5c2.07 0 3.75 1.68 3.75 3.75 0 2.07-1.68 3.75-3.75 3.75-2.07 0-3.75-1.68-3.75-3.75 0-2.07 1.68-3.75 3.75-3.75zM17.069.21a.266.266 0 0 1 .26-.21h6.57a.1.1 0 0 1 .091.144L12.713 23.858a.249.249 0 0 1-.225.142h-.278a.249.249 0 0 1-.243-.302L17.069.21zm-3.79 0a.266.266 0 0 1 .26-.21h1.995a.266.266 0 0 1 .26.323l-5.101 23.48a.25.25 0 0 1-.243.197H8.42a.249.249 0 0 1-.242-.302L13.28.21zM11.284.152a.266.266 0 0 1 .24-.152h.208a.266.266 0 0 1 .26.323l-5.1 23.48a.25.25 0 0 1-.244.197H.1a.1.1 0 0 1-.091-.144L11.283.152zM3.75 0C5.82 0 7.5 1.68 7.5 3.75c0 2.07-1.68 3.75-3.75 3.75C1.68 7.5 0 5.82 0 3.75 0 1.68 1.68 0 3.75 0z"/></svg>