<svg viewBox="0 0 24 24" xmlns="http://www.w3.org/2000/svg" role="img"><path d="M.059 16.27C.026 16.236 0 15.564 0 14.775c0-1.255.019-1.47.148-1.723.178-.347.493-.593.926-.723.567-.17.565-.175.565 1.372 0 1.608-.098 1.974-.626 2.34-.3.208-.845.338-.954.227zm14.892-.043c-.02-.06-.048-1.109-.06-2.332l-.023-2.225-.213-.363c-.118-.2-.311-.436-.43-.525l-.215-.16.725-.002c1-.003 1.413.21 1.691.875.096.23.12.634.12 1.983 0 1.567-.012 1.72-.165 2.037-.096.198-.29.424-.463.538-.356.236-.911.336-.967.174zM4.254 14.805c-.512-.244-.761-.591-.805-1.122l-.034-.413h1.838c1.567 0 1.856-.018 1.961-.122.14-.14.161-.518.042-.741-.075-.141-.177-.151-1.474-.151H4.389l-.037-.193c-.062-.327.028-1.393.135-1.6.145-.28.374-.47.718-.592.37-.132 3.773-.16 4.01-.032.21.112.194.374-.025.424-.096.023-1.004.05-2.017.06-1.501.017-1.868.042-1.983.137-.127.106.014.122 1.38.157 1.52.039 1.522.039 1.844.262.187.13.39.365.487.563.148.308.162.45.139 1.47-.029 1.272-.063 1.363-.683 1.802l-.331.234-1.691.022c-1.644.02-1.702.016-2.081-.165zm7.98.071c-.457-.163-.659-.327-.894-.727-.213-.364-.218-.393-.196-1.423.02-.958.04-1.08.217-1.383.113-.193.335-.415.53-.53.291-.17.43-.196 1.017-.196.432 0 .757.04.891.11.409.212.735.695.837 1.239l.055.29h-.823c-.926 0-1.068.066-1.068.497 0 .397.098.44 1.03.44h.843v1.794l-1.073-.003c-.689-.002-1.178-.04-1.365-.107zm4.677.06c-.029-.03-.052-.416-.052-.86v-.806h1.585c1.15 0 1.618-.026 1.707-.097.182-.145.233-.552.094-.75-.112-.16-.174-.167-1.518-.167h-1.4v-.576c0-.317.022-.685.049-.82l.048-.243h1.727c1.643.002 1.742.01 2.032.176.168.096.413.31.546.474l.242.3v1.189c0 1.172-.003 1.193-.22 1.52-.152.23-.344.39-.624.521-.393.183-.462.188-2.285.19-1.033 0-1.903-.023-1.931-.052zm-7.65-.079c-.097-.098-.059-2.719.042-2.82.132-.132 1.318-.124 1.5.01.125.091.139.203.113.956-.026.759-.053.893-.242 1.216a1.236 1.236 0 0 1-.551.527c-.33.16-.758.215-.861.112zm13.116.003c-.03-.03-.055-1.59-.055-3.467 0-3.038.013-3.418.123-3.46.325-.125 1.056.24 1.34.67l.215.324v5.944l-.784.022c-.432.012-.81-.002-.84-.033zM2.59 13.184a1.865 1.865 0 0 1-.546-.444l-.21-.277V7.69h1.56v5.62l-.234.021c-.129.012-.385-.054-.57-.147zm1.248-2.67.024-1.744.22-.287c.12-.158.357-.357.526-.444.289-.147.436-.155 2.512-.135l2.206.02v1.561l-2.146.04c-2.084.037-2.155.044-2.442.222-.466.29-.622.683-.665 1.67-.028.662-.06.839-.148.839-.095 0-.109-.266-.087-1.743zm13.011.279c-.011-2.064-.004-2.112.41-2.489.452-.41.537-.423 2.739-.4l2.05.02v1.561l-1.996.04-1.997.038-.323.215c-.49.324-.59.578-.626 1.6-.024.683-.055.878-.14.878-.089 0-.11-.27-.117-1.464zm-7.276.835a.794.794 0 0 1-.253-.43c-.165-.88.948-1.344 1.398-.582.201.341.166.679-.098.944a.793.793 0 0 1-1.047.068z"/></svg>