<svg viewBox="0 0 24 24" xmlns="http://www.w3.org/2000/svg" role="img"><path d="M10.87 23.99a.428.428 0 0 1-.097-.031c-.09-.045-.1-.113-.1-.738 0-.323.008-.613.017-.644.027-.097.103-.129.307-.129.17 0 .184.003.238.057.052.052.057.074.064.232l.007.175h-.229l-.006-.119-.006-.118h-.144v1.091l.077.006.078.006v-.682h.226v.88l-.126.013a1.106 1.106 0 0 1-.306 0zm2.103-.006a.293.293 0 0 1-.113-.061c-.043-.043-.044-.058-.044-.702v-.658l.052-.052c.102-.103.454-.09.525.018.022.034.036.129.045.318l.013.271h-.254v-.453h-.07c-.06 0-.07.008-.082.064a5.987 5.987 0 0 0-.013.492c0 .235.006.456.013.492.012.057.021.064.083.064h.069v-.474h.253l-.011.263c-.013.285-.032.361-.097.396a.857.857 0 0 1-.369.022zm-3.05-.69c0-.461.007-.706.022-.74.035-.076.111-.105.274-.105.196 0 .251.018.295.098.032.059.037.144.043.751l.007.685h-.25v-.33h-.165v.33h-.227zm.386-.233-.006-.386h-.144l-.006.386-.006.387h.166zm1.137.16v-.762h.433v.206h-.206v.185h.206v.206h-.207l.006.356.006.355.108.006.108.006v.204h-.453zm.556-.001v-.763l.128.006.128.006.088.39c.048.214.092.4.097.412.005.012.01-.166.01-.395l.003-.417h.206v1.524h-.242l-.1-.407-.1-.407-.007.407-.006.407h-.205v-.763zm1.69.504c0-.236-.01-.3-.105-.726a31.474 31.474 0 0 0-.114-.503c-.01-.032.005-.036.111-.036h.123l.036.24c.02.133.043.265.052.294l.015.053.012-.052c.007-.028.027-.14.045-.247.05-.314.035-.288.165-.288.062 0 .113.005.113.012s-.051.233-.114.503c-.105.456-.113.51-.113.75v.26h-.227zm-3.77-3.047v-1.246h.721v.33h-.35v.329h.329v.309h-.329v1.195h.35v.329h-.72zm.906 0v-1.246h.392v2.492h-.392zm.66 0v-1.246h.257c.142 0 .257.008.257.019 0 .031.165 1.472.172 1.505.012.054.033-.094.106-.751.04-.352.077-.67.083-.706l.012-.067h.513v2.492h-.309v-.756c0-.415-.008-.747-.017-.736-.01.01-.056.325-.104.7-.048.373-.092.705-.098.736l-.011.058-.168-.006-.168-.006-.096-.734c-.052-.404-.1-.747-.106-.763-.006-.015-.012.318-.013.74l-.002.767h-.309zm1.63.129c.007-1.095.008-1.12.051-1.214.07-.15.126-.17.46-.17.316-.001.386.022.463.154.04.07.042.107.048 1.21l.006 1.137h-.372v-.556h-.288v.556h-.374zm.656-.362c0-.467-.006-.622-.027-.65-.02-.028-.05-.035-.128-.03-.102.006-.102.007-.117.09a9.128 9.128 0 0 0-.015.643l-.001.561h.288zm-1.926-2.19a10.48 10.48 0 0 1-1.04-.164c-.496-.139-1-.392-1.833-.92-.723-.46-1.06-.746-1.241-1.056-.088-.15-.097-.234-.045-.412.042-.142.192-.295.383-.389l.135-.066.152.054.267.092c.115.039.778.137 1.325.197.672.074 2.396.097 2.923.04.97-.106 1.884-.32 2.371-.554.42-.202.438-.219 1.05-.95.17-.206.321-.391.334-.413.023-.037.026-.037.086-.003.095.055.177.046.263-.03.123-.108.137-.02.037.247a.764.764 0 0 0-.049.187c0 .031-.032.152-.072.267-.08.232-.12.508-.122.858a7.773 7.773 0 0 1-.03.506c-.028.29-.027.302.014.396l.043.096-.05.191a1.312 1.312 0 0 1-.314.597c-.19.22-.372.37-.557.466-.22.113-.723.3-1.34.497-.534.17-.777.227-1.145.267-.24.027-1.303.026-1.545 0zm2.161-2.962c-.118-.028-.454-.225-.556-.328a.513.513 0 0 0-.175-.121 1.22 1.22 0 0 1-.251-.152 12.755 12.755 0 0 0-.756-.468c-.658-.383-.84-.507-1.106-.754a2.467 2.467 0 0 1-.536-.699c-.173-.346-.282-.469-.965-1.083-.445-.402-1.384-1.316-1.574-1.534-.312-.357-.91-1.204-.937-1.326a1.006 1.006 0 0 0-.126-.222c-.121-.175-.128-.204-.08-.339.016-.049.045-.15.062-.224.065-.286.32-.728.764-1.322.272-.363.47-.585.823-.916.222-.21.3-.271.332-.263.024.006.103-.02.19-.064.094-.047.157-.068.17-.056.012.012-.02.112-.084.266a6.396 6.396 0 0 0-.17.461c-.063.2-.067.233-.067.523 0 .27.009.363.076.731.074.403.083.433.19.65.199.396.307.521.49.56.052.012.205.098.39.219.167.109.32.198.34.198.02 0 .106.044.19.097.201.125.354.193.612.274.302.093.302.093.231-.132-.031-.1-.076-.21-.1-.241-.043-.058-.055-.152-.026-.198.01-.016.025.007.04.064.022.083.227.478.304.584.018.026.043.047.056.047.032 0 .57-.534.605-.602a.254.254 0 0 0 .029-.09c0-.02-.091-.13-.202-.244-.367-.376-.538-.638-.96-1.464a46.952 46.952 0 0 0-.438-.837c-.497-.91-.655-1.453-.789-2.705a29.656 29.656 0 0 0-.105-.876c-.115-.78-.126-1.126-.05-1.56.056-.32.11-.478.225-.65.214-.323.534-.493.929-.495.399-.002.653.134.812.436.014.026.092.24.175.474.083.234.257.666.387.961.329.746.422 1.005.562 1.565.026.102.062.227.081.278.148.397.24 1.354.168 1.734-.043.224-.094.334-.367.807-.358.617-.346.581-.349 1.1-.002.491.02.636.151 1.007.12.338.097.326.339.178.37-.226.798-.473.97-.56.359-.18 1.123-.462 1.65-.611.552-.156.575-.16.631-.104.065.065.18.277.366.676.16.345.163.353.193.61l.042.367c.025.215-.108.394-.643.863a8.14 8.14 0 0 0-.53.511c-.28.308-.632.747-.632.79 0 .06.503.92.667 1.139.217.289.363.585.363.735a.447.447 0 0 1-.044.198c-.026.051-.231.277-.5.55-.774.784-.96 1.024-1.094 1.405-.05.146-.217.223-.393.182z"/></svg>