<svg role="img" viewBox="0 0 24 24" xmlns="http://www.w3.org/2000/svg"><path d="M16.149 17.302a7.96 7.96 0 0 0-.76-.748c-.49-.39-1.037-.662-1.519-.754-.518-.099-1.197-.096-1.843.008-.47.076-.692.135-1.47.393-1.441.477-2.143.688-2.944.887-.65.16-1.289.228-2.03.213-1.315-.026-2.14-.344-2.93-1.128-.304-.303-.472-.532-.633-.863-.18-.37-.27-.85-.23-1.21.009-.08.019-.154.023-.164.005-.013-.034-.02-.166-.025a2.149 2.149 0 0 1-.82-.205c-.426-.211-.696-.59-.78-1.093a20.771 20.771 0 0 1-.03-.958L0 10.78l.376-.484c.433-.557.385-.498.393-.49.003.003.019.363.035.8.031.815.044.955.1 1.105a.388.388 0 0 0 .238.238c.134.04.351.027.581-.035l.053-.014v-1.312l-.001-1.311-.228-.136-.228-.136-.004-1.1-.005-1.1.053.03c1.108.658 1.46.859 1.475.842a517.277 517.277 0 0 1 .666-.895l.15-.2.007.805.007.805.232.139 1.108.661.876.524-.004 1.006-.004 1.005-1.087.725-1.088.725.005.64c.006.58.009.653.034.768a.995.995 0 0 0 .305.551c.237.22.59.366 1.058.436a6.26 6.26 0 0 0 1.146 0c.386-.047.574-.083 1.243-.24.764-.18 1.49-.387 2.718-.776.594-.188.772-.239 1.158-.33 1.24-.297 2.124-.326 3.187-.104.24.05.681.169.78.21.049.02.044.013-.061-.095l-.469-.482-.355-.365.68-.68c.374-.373.686-.679.694-.678.008 0 .069.062.135.137l.493.545.66.727c.158.175.289.317.29.316.002-.002.01-.073.019-.158.111-1.095.562-1.9 1.26-2.248.14-.07.355-.142.536-.181.216-.046.638-.047.877-.001.51.097 1.005.325 1.504.691l.146.108-.008.955c-.005.526-.012.959-.015.962a.958.958 0 0 1-.151-.085c-.708-.444-1.37-.7-1.904-.735-.459-.03-.97.175-1.462.59-.022.018-.038.04-.035.048.01.03.273.288.377.372.327.26.608.395.972.464.136.025.214.03.492.03.461.002.694-.03 1.182-.162a19.011 19.011 0 0 0 1.443-.46c.414-.156.931-.41 1.25-.612a.608.608 0 0 1 .114-.064c.006.006-.015.094-.224.948-.08.325-.175.711-.21.859l-.066.268-.15.093c-1.134.698-2.641 1.17-3.838 1.203-.675.018-1.34-.095-1.83-.312l-.074-.033-.673.66a36.6 36.6 0 0 1-.683.66.886.886 0 0 1-.104-.116zm-9.512-.403c.378-.045.664-.1.955-.18.12-.033 3.06-.929 3.436-1.047 1.086-.34 2.204-.427 2.997-.232.53.13 1.07.406 1.576.805.085.067.274.242.42.389l.264.266.13-.124.454-.444.325-.319-.187-.202c-.162-.173-.185-.205-.17-.225.008-.014.05-.075.093-.137a.639.639 0 0 1 .089-.113.46.46 0 0 1 .084.053 3.817 3.817 0 0 0 1.79.666c.202.024.797.02 1.063-.007a7.763 7.763 0 0 0 2.619-.784c.2-.1.58-.31.607-.336.013-.011.29-1.101.284-1.11a6.52 6.52 0 0 0-.375.144c-1.38.551-2.292.782-3.094.783-.688 0-1.18-.183-1.711-.636a3.63 3.63 0 0 1-.43-.444.28.28 0 0 0-.063-.07c-.003.004.03.182.072.398.043.215.076.394.073.396a4.561 4.561 0 0 1-.445-.296c-.45-.332-.924-.796-1.485-1.452a13.79 13.79 0 0 1-.201-.239l-.033-.042-.4.408c-.219.224-.399.412-.399.417a47.396 47.396 0 0 0 1.102 1.178c.013.01.023.029.023.04 0 .014-.14.238-.177.284a1.538 1.538 0 0 1-.186-.059 8.874 8.874 0 0 0-1.945-.454 7.213 7.213 0 0 0-1.02-.006c-.686.053-1.304.18-2.124.437-1.913.598-3.575 1.04-4.264 1.133-.26.035-.783.043-1.048.015-.576-.061-1.095-.225-1.417-.447a1.512 1.512 0 0 1-.325-.324 1.707 1.707 0 0 1-.242-.605 9.637 9.637 0 0 1-.024-.627 7.941 7.941 0 0 0-.018-.535 8.83 8.83 0 0 0-.233.154 3.631 3.631 0 0 1-.696.38l-.218.093v.265c.005.943.255 1.511.87 1.974.231.173.736.459 1.032.583.275.116.865.227 1.419.268.038.003.26.003.492.001.316-.003.482-.011.661-.033zm-4.699-3.405c.305-.064.68-.227.943-.41.211-.147.797-.537 2.55-1.699l.074-.049-.004-.81-.004-.81-.647-.388-.911-.545-.264-.158v1.403l.429.236c.236.129.429.24.429.245 0 .005-.071.073-.158.152-.452.405-.916.72-1.742 1.185-.181.102-.337.191-.345.198a2.375 2.375 0 0 1-.17.088c-.307.153-.549.215-.78.202-.404-.024-.734-.284-.821-.65a3.935 3.935 0 0 1-.036-.436 8.256 8.256 0 0 0-.023-.4L.45 10.8l-.036.036-.037.037.014.835.014.834.038.127c.149.49.44.775.864.844.157.026.457.017.63-.02zm16.042-.345a2.994 2.994 0 0 1 1.258-.63c.213-.046.615-.046.83 0 .39.085.838.277 1.185.51.068.046.126.083.13.083.004 0 .007-.258.007-.574v-.575l-.031-.029a3.434 3.434 0 0 0-.398-.26c-.428-.234-.805-.345-1.22-.359a1.707 1.707 0 0 0-.672.09 1.378 1.378 0 0 0-.627.4c-.285.298-.521.8-.632 1.342a90.18 90.18 0 0 1-.03.146c-.008.038-.023.049.2-.144zM2.773 11.34l.54-.315-.01-1.267c-.006-.697-.015-1.446-.02-1.664l-.009-.397-.573.762-.574.762v.67c0 .37.004.928.01 1.243l.009.572.043-.025.583-.341zm1.126-.713.033-.021-.083-.05a28.766 28.766 0 0 1-.128-.077l-.045-.027v.311l.095-.057.128-.079zM2.267 8.445c.187-.242.34-.445.339-.45 0-.01-.89-.537-.93-.551-.007-.003-.013.25-.013.662v.668l.11.079c.102.074.11.077.132.055.012-.013.175-.222.362-.463zm19.574 5.487c0-.006.026-.084.058-.173.144-.407.269-.935.322-1.357.083-.666.098-1.093.099-2.693V8.37l.15-.185c.828-1.023 1.209-1.484 1.24-1.5a.243.243 0 0 1 .12-.013c.073.005.09.012.124.05.039.044.04.05.04.197 0 .126-.027 1.553-.063 3.338-.005.228-.015.475-.022.549-.05.5-.195 1.03-.392 1.442a3.12 3.12 0 0 1-.371.603c-.429.568-.854.94-1.216 1.065-.09.031-.089.03-.089.017zm.868-1.101c.496-.59.712-1.053.822-1.755.024-.154.03-.297.042-.982l.032-1.773c.01-.534.017-.973.016-.975a47.89 47.89 0 0 0-.763.93c-.105.13-.16.21-.164.24-.005.024-.01.374-.015.776-.028 2.363-.042 2.738-.129 3.307a8.972 8.972 0 0 1-.085.478c-.012.044.075-.044.244-.246zm-9.796-1.703-.661-.661.661-.661.661-.662.563.563.563.563.567-.566.566-.567.662.662.662.662-.665.665-.664.665-.564-.563-.564-.564-.563.563-.563.563zm1.084-.24.422-.421-.43-.43-.429-.429-.429.43-.429.429.422.422c.232.232.429.422.436.422.009 0 .204-.19.437-.422zm2.265.001.422-.422-.422-.422a10.37 10.37 0 0 0-.435-.422c-.007 0-.202.188-.433.418l-.42.418.426.426c.234.234.429.426.433.426.004 0 .197-.19.429-.422z"/></svg>