<svg viewBox="0 0 24 24" xmlns="http://www.w3.org/2000/svg" role="img"><path d="M11.452 23.995a12.023 12.023 0 0 1-8.353-3.95 11.967 11.967 0 0 1-3.03-6.723 10.32 10.32 0 0 1-.07-1.32c0-.545.016-.829.07-1.322A11.962 11.962 0 0 1 2.39 4.816a12.124 12.124 0 0 1 4.764-3.797 11.999 11.999 0 0 1 6.832-.858 12.027 12.027 0 0 1 7.417 4.386 12.03 12.03 0 0 1 2.475 5.708A11.1 11.1 0 0 1 24 12c0 .666-.032 1.13-.121 1.747a12.03 12.03 0 0 1-2.477 5.709 12.753 12.753 0 0 1-1.742 1.78 11.958 11.958 0 0 1-6.856 2.743 15.79 15.79 0 0 1-1.352.016zm1.198-1.004a10.943 10.943 0 0 0 6.218-2.391c.421-.335.955-.84 1.321-1.249a10.975 10.975 0 0 0 2.762-8.478 10.976 10.976 0 0 0-2.762-6.222 13.934 13.934 0 0 0-.947-.936 10.945 10.945 0 0 0-5.676-2.61c-.585-.084-.829-.1-1.55-.1-.648-.001-.836.01-1.298.062-1.936.228-3.76.96-5.325 2.135-.72.54-1.438 1.237-1.992 1.933a10.978 10.978 0 0 0-2.35 7.995c.191 1.898.884 3.72 2.01 5.29a11.265 11.265 0 0 0 2.332 2.38 10.995 10.995 0 0 0 5.928 2.19c.288.018 1.039.019 1.329 0zm-5.7-3.217a3.676 3.676 0 0 1-1.387-.384c-1.127-.552-1.89-1.597-2.09-2.86a4.753 4.753 0 0 1 .01-1.143c.108-.63.346-1.183.73-1.696a5.33 5.33 0 0 1 .655-.673 3.846 3.846 0 0 1 1.852-.793 3.795 3.795 0 0 1 2.735.686l.151.11.096-.078c.382-.31.932-.583 1.429-.707.343-.086.496-.103.94-.103.44 0 .594.02.96.115.367.096.77.278 1.1.494.105.07.194.125.199.125 0 0 .12-.102.256-.227.712-.654 1.222-1.31 1.605-2.068.336-.664.528-1.3.62-2.056a9.441 9.441 0 0 0 0-1.221c-.12-.98-.44-1.8-.991-2.54a5.517 5.517 0 0 0-.886-.886 4.667 4.667 0 0 0-2.177-.887 9.513 9.513 0 0 0-.81-.039c-.537-.013-.669-.01-.866.01a9.063 9.063 0 0 0-5.105 2.24c-.21.186-.64.617-.82.825a9.064 9.064 0 0 0-2.243 6.34c.021.523.091 1.094.185 1.514l.03.136-.06.146a4.924 4.924 0 0 0-.32 1.256c-.01.065-.016.113-.022.107a7.456 7.456 0 0 1-.22-.639 9.937 9.937 0 0 1-.234-4.822 9.956 9.956 0 0 1 8.067-7.836 8.975 8.975 0 0 1 1.677-.131c.59 0 .89.02 1.391.092a9.947 9.947 0 0 1 8.481 8.972c.037.4.037 1.32 0 1.708-.163 1.693-.686 3.198-1.596 4.582-.562.858-1.017 1.332-1.622 1.69a3.66 3.66 0 0 1-1.801.516 3.545 3.545 0 0 1-1.264-.173c-.404-.13-.823-.342-1.087-.55a.259.259 0 0 0-.072-.045.748.748 0 0 0-.137.091 3.777 3.777 0 0 1-4.475.02l-.147-.106-.107.086a3.753 3.753 0 0 1-2.116.807 2.759 2.759 0 0 1-.514 0zm.713-.842a2.923 2.923 0 0 0 1.217-.468c.185-.126.215-.148.215-.162 0-.01-.042-.066-.092-.134a3.78 3.78 0 0 1-.35-3.926 3.71 3.71 0 0 1 .32-.536.695.695 0 0 0 .06-.088s-.068-.053-.151-.108a3.003 3.003 0 0 0-1.203-.468 3.729 3.729 0 0 0-.895 0 2.961 2.961 0 0 0-1.694.886 2.917 2.917 0 0 0-.829 2.162c.026.677.261 1.296.685 1.8a2.967 2.967 0 0 0 2.717 1.042zm4.705-.054a3.055 3.055 0 0 0 1.439-.552l.036-.029-.1-.13a3.807 3.807 0 0 1-.75-1.757 5.017 5.017 0 0 1 .01-1.155 3.835 3.835 0 0 1 .663-1.6l.116-.161-.036-.029a2.878 2.878 0 0 0-1.79-.516c-.46.014-.82.104-1.23.308-.154.076-.478.282-.516.327-.017.02-.01.038.05.113.412.538.682 1.223.754 1.92.04.394 0 .91-.101 1.313a3.982 3.982 0 0 1-.524 1.165l-.133.197.166.11c.569.377 1.278.55 1.947.477zm4.79-.068a3.002 3.002 0 0 0 1.392-.574c.156-.116.451-.41.574-.573a2.99 2.99 0 0 0 .543-2.429 3.017 3.017 0 0 0-1.67-2.084 2.81 2.81 0 0 0-1.166-.263 2.79 2.79 0 0 0-1.293.25 3.193 3.193 0 0 0-.521.3l-.052.043.1.13c.393.51.643 1.1.748 1.764.04.245.04.827 0 1.086a3.857 3.857 0 0 1-.685 1.68l-.102.141.037.03c.072.055.321.199.44.253.26.119.604.218.872.253.168.022.613.018.784-.01zm-2.506-1.43a2.977 2.977 0 0 0-.113-3.106c-.126-.186-.155-.225-.164-.216l-.09.132a3.02 3.02 0 0 0-.485 1.26 3.6 3.6 0 0 0 .03 1 3.007 3.007 0 0 0 .57 1.235l.031.034.068-.096a3.4 3.4 0 0 0 .152-.243zm-4.85.109c.267-.45.406-.964.406-1.502a2.944 2.944 0 0 0-.589-1.775c-.017 0-.2.317-.267.464a3.028 3.028 0 0 0-.259 1.537c.055.51.248 1.028.528 1.414.058.08.046.09.181-.138z"/></svg>