<svg viewBox="0 0 24 24" xmlns="http://www.w3.org/2000/svg" role="img"><path d="M9.632 23.719c-2.474-.566-4.193-1.547-6.029-3.442-1.88-1.94-2.887-3.862-3.399-6.49-.671-3.444.326-7.01 2.803-10.02C4.287 2.21 7.212.35 8.81.077c.691-.118.662-.086-.543.591-2.333 1.312-4.12 3.38-5.15 5.962-.436 1.093-.483 1.448-.488 3.678-.004 2.226.043 2.594.476 3.74 1.07 2.83 2.929 4.933 5.51 6.232 5.245 2.642 11.373 1.009 14.62-3.896.928-1.402 1.035-.993.192.731-1.186 2.426-3.08 4.376-5.401 5.56-2.451 1.25-5.715 1.655-8.394 1.043zm1.824-3.358c-1.505-.38-2.694-1-4.036-2.104-4.188-3.446-5.05-9.673-1.922-13.888C7.163 2.126 9.015.862 11.548.237c1.92-.474 5.216-.207 6.57.53.369.202.051.24-2.064.246-2.268.007-2.613.055-3.733.515-2.103.864-3.462 2.017-4.712 4.003-2.265 3.596-1.748 7.98 1.32 11.176 2.253 2.347 4.325 3.11 7.91 2.912 2.272-.126 2.276.071.016.682-1.516.41-3.91.436-5.399.06zm1.718-2.139c-2.862-1.03-4.994-3.64-5.536-6.778-.53-3.072 1.052-6.522 3.834-8.358 2.35-1.552 6.284-1.645 8.831-.21 1.09.613 2.61 2.03 3.034 2.829.26.49.064.408-.703-.297-1.515-1.391-3.193-2.033-5.357-2.048-.764-.006-1.748.09-2.187.213-2.114.593-4.01 2.217-4.994 4.277-.492 1.03-.54 1.3-.533 3.029.009 2.645.424 3.716 2.11 5.447.694.711 1.33 1.293 1.416 1.293.085 0 .512.213.95.472.95.566.523.63-.865.131zm1.75-1.107c-1.933-.725-3.86-2.944-4.12-4.743-.433-3.008.847-5.633 3.431-7.036.869-.472 1.148-.523 2.878-.528 1.69-.004 2.035.053 2.92.488 1.313.645 2.473 1.845 3.075 3.18.404.898.484 1.338.484 2.688 0 1.396-.07 1.754-.515 2.658-.687 1.395-1.452 2.194-2.77 2.894-.951.505-1.323.59-2.829.645-1.266.046-1.955-.02-2.554-.246z"/></svg>