<svg role="img" viewBox="0 0 24 24" xmlns="http://www.w3.org/2000/svg"><path d="M7.406 20.514c-2.245-1.153-2.413-1.24-2.413-1.245 0 0 .197-.07.437-.15 1.264-.424 1.86-.65 2.5-.95.527-.247 1.202-.575 2.2-1.069a81.601 81.601 0 0 1 2.168-1.053c.919-.425 1.611-.695 2.094-.817.08-.02.254-.059.265-.059 0 0-.039-.089-.09-.197-.246-.517-.345-.775-.427-1.115a4.666 4.666 0 0 1-.032-2.032c.079-.4.203-.794.363-1.147a5.322 5.322 0 0 1 1.73-2.077 4.865 4.865 0 0 1 2.421-.865c.149-.01.513-.01.662 0 1.372.1 2.693.783 3.58 1.85.587.705.96 1.538 1.092 2.433.041.28.046.357.046.72 0 .356 0 .435-.042.696a5.012 5.012 0 0 1-.45 1.448c-.66 1.342-1.945 2.36-3.39 2.681a5.236 5.236 0 0 1-1.045.121c-.103 0-.662.051-1.145.104-.9.1-1.538.217-2.188.405-.245.071-.422.13-.841.284-1.702.62-3.011 1.225-5.53 2.553-.259.136-.471.247-.473.246l-1.492-.765zm11.867-6.928a1.039 1.039 0 1 0-.34-2.05 1.039 1.039 0 0 0 .34 2.05zM4.017 18.752C2.46 17.99.255 16.885.265 16.876c0 0 .105-.032.225-.065 1.144-.31 2.622-.77 3.78-1.173 2.218-.775 3.795-1.498 4.626-2.122a.736.736 0 0 0 .212-.209c.16-.247.203-.588.114-.896a1.323 1.323 0 0 0-.062-.15.721.721 0 0 0-.139-.199c-.206-.234-.336-.329-.515-.375a1.202 1.202 0 0 0-.427-.025c-.17.016-.192.023-.28.075-.338.201-1.17.611-2.086 1.028-.482.22-1.361.605-1.565.686l-.038.015-.01-.258c-.018-.858-.015-1.96.01-2.996l.01-.238.663-.33c1.164-.58 1.662-.844 2.41-1.276.264-.152.508-.28.587-.308a5.843 5.843 0 0 1 1.284-.305 5.39 5.39 0 0 1 .771-.017 3.583 3.583 0 0 1 2.155.908c.119.104.358.35.463.475.277.332.59.823.686 1.076.162.431.265.888.31 1.383a9.33 9.33 0 0 1 0 .885c-.098.972-.408 1.786-.924 2.417a5.9 5.9 0 0 1-.555.55c-.522.435-1.24.874-2.277 1.394-1.175.589-2.64 1.204-4.271 1.795-.37.134-.963.343-.97.342l-.429-.21zM.005 15.845c.01-.511.018-1.315.06-5.396.038-3.846.048-4.473.077-4.615a2.979 2.979 0 0 1 .853-1.573c.417-.417.928-.75 1.645-1.072.221-.099.729-.298.738-.29.013.014-.12 11.6-.138 12.07l-.01.148-.807.27c-.826.276-1.168.386-1.949.625l-.463.141c-.015 0-.016 0-.01-.308zm18.932-8.32a72.32 72.32 0 0 1-.327-.207c-.137-.088-.772-.51-1.13-.752a6.367 6.367 0 0 0-.533-.333 1.182 1.182 0 0 1-.324-.239.956.956 0 0 1-.181-1.111c.142-.317.383-.646.736-1.005.34-.347.72-.665 1.227-1.029l.18-.128.08.073c.335.302.691.572 1.332 1.008.58.394.745.52.936.71.136.138.18.196.229.306.119.269.118.612 0 .944a.7.7 0 0 1-.1.175 5.471 5.471 0 0 1-1.929 1.71l-.193-.121z"/></svg>