<svg role="img" viewBox="0 0 24 24" xmlns="http://www.w3.org/2000/svg"><path d="m9.1 23.981-.022-.023-.002-2.114-.002-2.114-1.201.002a88.55 88.55 0 0 1-1.268-.004c-.045.002-.075 0-.079-.007-.004-.007-.05-.007-.159 0a2.07 2.07 0 0 1-.212.005 31.066 31.066 0 0 0-.708-.006c-.36 0-.646-.004-.643-.008.007-.012-.036-.018-.054-.007-.01.006-.014.006-.01 0 .003-.005-.01-.01-.029-.01-.052-.004-.137.008-.132.017.003.004-.008.008-.023.008-.017 0-.026-.004-.023-.01.007-.01-.017-.011-.174-.01-.083.002-.12 0-.12-.007 0-.006-.01-.01-.024-.008a.102.102 0 0 1-.041-.005.095.095 0 0 0-.042-.003c-.015.002-.025 0-.022-.004.003-.004-.002-.007-.012-.005-.009.002-.016-.002-.016-.01 0-.017-.023-.027-.077-.033a2.356 2.356 0 0 1-.484-.114 2.243 2.243 0 0 1-.348-.173.398.398 0 0 0-.096-.052.754.754 0 0 0-.12-.102 2.74 2.74 0 0 1-.263-.265.393.393 0 0 0-.057-.064.248.248 0 0 1-.047-.056.322.322 0 0 0-.037-.054c-.011-.012-.018-.026-.016-.03.003-.004 0-.007-.005-.007s-.007-.006-.004-.012a.016.016 0 0 0-.006-.02c-.008-.005-.009-.003-.004.005.005.008.004.01-.003.005-.006-.004-.01-.014-.01-.024s-.005-.017-.01-.017c-.007 0-.009-.003-.006-.006.003-.003-.004-.018-.016-.032-.012-.014-.02-.032-.017-.04.003-.007.001-.013-.004-.013-.008 0-.02-.023-.024-.045a.41.41 0 0 0-.02-.036c-.019-.029-.024-.047-.022-.066.001-.004-.003-.007-.007-.007s-.016-.018-.027-.04c-.01-.023-.022-.041-.027-.041-.004 0-.01-.023-.013-.052a1.098 1.098 0 0 0-.019-.12 1.976 1.976 0 0 0-.026-.14.69.69 0 0 1-.014-.102 2.448 2.448 0 0 1-.009-.316c.002-.028 0-.037-.009-.034-.016.006-.011-15.87.005-15.912a.313.313 0 0 0 .015-.059c.006-.042.008-.047.036-.131a.593.593 0 0 1 .058-.151.076.076 0 0 0 .014-.03.538.538 0 0 1 .083-.16c.004.004.005.002.001-.004-.003-.006.003-.02.013-.034.01-.013.016-.024.012-.024s0-.007.007-.015a2.475 2.475 0 0 1 .234-.313c.074-.085.225-.226.279-.26a.469.469 0 0 0 .07-.05A.026.026 0 0 1 3.081.4c.006 0 .01-.004.01-.01 0-.004.007-.008.014-.008S3.12.378 3.12.374s.013-.015.03-.023a2.768 2.768 0 0 1 .346-.173 1.708 1.708 0 0 1 .219-.071.151.151 0 0 1 .028-.01.717.717 0 0 0 .039-.01.374.374 0 0 1 .108-.016c.004.002.007 0 .007-.004s.005-.008.011-.01c.02 0 .11-.012.133-.017.054-.012 1.253-.014 8.151-.018C16.205.02 19.501.016 19.516.014 19.54.01 19.82 0 19.84.001l.059.005c.287.025.301.027.46.079a2.065 2.065 0 0 1 .69.365c.015.011.06.05.098.088.19.183.308.343.416.565.051.105.112.26.122.308.003.014.008.025.012.022.006-.004.04.138.05.208l.009.059c.009.045.022.29.016.3a.517.517 0 0 0-.009.092 3.26 3.26 0 0 1-.008.136c-.007.068-.007.106.005.809.01.577.014 3.897.005 3.905a42.943 42.943 0 0 0 .001 1.328c.003.005.003 1.374 0 3.043l-.01 4.813c-.002 1.68-.004 1.832-.026 1.915l-.024.1c-.028.122-.027.122-.036.127-.004.003-.005.01-.002.018.003.007 0 .013-.005.013a.488.488 0 0 0-.077.153.398.398 0 0 1-.053.11c-.004.003-.008.009-.007.014a.265.265 0 0 1-.042.092.908.908 0 0 1-.15.221c-.006-.003-.007-.003-.004.001.01.011-.01.042-.023.035-.006-.003-.008-.003-.004.001.015.017-.183.237-.203.225-.006-.004-.008-.003-.004.001.007.008-.063.086-.077.086-.004 0-.017.008-.028.019-.037.035-.087.073-.087.066 0-.004-.006.002-.014.012-.008.011-.02.02-.027.02a1.59 1.59 0 0 1-.348.184c-.008 0-.015.002-.018.005-.01.013-.056.028-.066.022-.006-.003-.007-.003-.003.002.008.01-.11.052-.122.044-.004-.003-.008 0-.008.004 0 .005-.007.01-.015.01a.455.455 0 0 0-.075.017.853.853 0 0 1-.109.024l-.09.013c-.022.003-.04.01-.038.016 0 .006-.005.008-.014.006a.466.466 0 0 0-.088.008c-.058.01-.309.013-1.251.016-1.56.005-2.422.005-2.594 0a89.718 89.718 0 0 0-1.203-.003l-1.064.002-.038.057a4.85 4.85 0 0 1-.503.604c-.375.383-.74.699-1.123.969-.141.1-.303.209-.465.313-.163.105-.211.143-.492.385l-.402.346c-.05.042-.115.1-.145.127-.03.028-.152.134-.272.237-.217.187-.217.188-.474.488-.598.7-.595.696-.636.729-.035.027-.077.026-.105-.003zm.547-1.046a2.91 2.91 0 0 1 .446-.446c1.106-.955 1.131-.977 1.271-1.066a8.818 8.818 0 0 0 1.188-.884 8.99 8.99 0 0 0 .63-.632 4.63 4.63 0 0 0 .256-.34c0-.006.054-.092.12-.192.333-.501.496-.832.612-1.244l.04-.135c.03-.096.07-.246.119-.457l.042-.18.005-5.047.005-5.046-.221.257-.221.258-.61.524a63.77 63.77 0 0 0-.69.598 2.61 2.61 0 0 1-.27.194 12.461 12.461 0 0 0-.487.331c-.151.106-.39.293-.535.42-.254.223-.61.575-.729.72a6.931 6.931 0 0 0-.69 1.016c-.186.332-.296.634-.425 1.17a9.286 9.286 0 0 1-.077.304c-.015.051-.016.1-.013 1.043.002.544.007 1.364.012 1.821.005.467.005 1.618 0 2.625l-.007 3.226c0 1.358 0 1.431.015 1.412.01-.01.105-.123.214-.25zm-1.064-7.448.489-.006-.003-1.224-.003-1.223.02-.074a4.29 4.29 0 0 0 .065-.26c.007-.033.089-.346.11-.415.093-.316.196-.575.315-.795a7.21 7.21 0 0 1 .865-1.258c.188-.207.596-.59.835-.787.233-.19.556-.422.87-.624.123-.08.208-.143.32-.24a177.185 177.185 0 0 1 .751-.647c.104-.09.253-.217.33-.285.133-.113.167-.15.48-.515.37-.432.553-.637.578-.65.043-.024.09-.005.108.042.005.014.008 1.805.008 4.489v4.466l.82.006c.451.003 1.091.006 1.422.006h.602l-.004-3.07a602.07 602.07 0 0 0-.009-3.293c.006-.364.007-4.57.001-4.79l-.006-.214-.186-.003c-.102 0-2.625-.002-5.605 0l-5.42.002v11.358l.445.002a90.87 90.87 0 0 0 1.803 0z"/></svg>