<svg viewBox="0 0 24 24" xmlns="http://www.w3.org/2000/svg" role="img"><path d="M17.399 23.957c-.053-.042-.054-.044-.022-.092.038-.057.05-.06.106-.014l.042.034-.036.058-.036.057zm-8.187.006c-.153-.047-.205-.123-.205-.298 0-.09.012-.14.048-.214.026-.052.055-.096.065-.096.021 0 .021 0-.011.093-.061.173-.012.304.132.352.14.046.575-.017.585-.084.002-.01-.049-.028-.112-.04a.463.463 0 0 1-.143-.043c-.047-.039-.034-.122.03-.195.107-.122.091-.12.831-.12.4 0 .698-.008.739-.019.046-.012.092-.048.144-.11.1-.119.134-.119.265.002.057.051.13.1.163.11.034.01.372.018.753.017.626 0 .83-.01.862-.042.006-.006-.008-.037-.032-.07-.041-.057-.041-.059-.008-.12.019-.035.043-.06.054-.057.01.004.03.047.045.095.03.109.005.225-.065.29l-.046.043-.773.005c-.664.004-.783.001-.842-.023a.272.272 0 0 0-.07-.024c-.015.044-.05.08-.078.084-.02.003-.085-.026-.145-.065l-.11-.072-.083.052-.082.052h-.687c-.652 0-.801.01-.775.054.006.009.05.022.098.029.115.017.171.054.171.113 0 .164-.215.292-.526.312a.687.687 0 0 1-.192-.01zm2.278-.686a.197.197 0 0 0-.036-.066c-.019-.02-.028-.019-.054.007-.03.03-.03.034.02.066.068.045.085.043.07-.007zm3.55.594c-.038-.02-.07-.045-.07-.055 0-.01.05-.018.11-.018.095 0 .117-.007.182-.06a.91.91 0 0 0 .134-.147c.063-.092.063-.108-.004-.202-.018-.026-.016-.045.009-.099l.032-.067.058.049.057.049.916-.006c.587-.004.927-.013.948-.025.03-.018.029-.024-.012-.085l-.045-.065.037-.059c.046-.072.06-.073.089-.005.051.124.011.306-.078.357-.032.018-.26.026-.954.033l-.912.009-.025.085a.653.653 0 0 1-.207.307.252.252 0 0 1-.265.004zm2.234-.093c-.05-.038-.05-.039-.02-.092.038-.063.04-.063.097-.023.042.03.045.029.078-.01l.033-.042.056.04.056.04-.038.054c-.045.062-.05.063-.105.025-.037-.025-.042-.025-.06.01-.025.045-.033.045-.097-.003zm.747-.018c-.043-.022-.078-.05-.078-.065 0-.03-.005-.03.069-.009.084.024.17-.004.282-.093.175-.138.196-.22.091-.352-.052-.066-.053-.07-.026-.134.035-.084.069-.083.122.003.036.058.043.094.043.217 0 .17-.033.25-.15.367-.115.115-.215.133-.353.065zm1.613-.003c-.064-.037-.094-.088-.042-.073.113.033.253-.021.378-.146.117-.116.123-.182.028-.295-.044-.052-.046-.061-.026-.129.026-.085.06-.092.11-.022.135.191.065.497-.15.653a.258.258 0 0 1-.298.012zm.866.02c-.137-.075-.152-.115-.033-.088a.212.212 0 0 0 .149-.02c.15-.066.28-.202.28-.292a.324.324 0 0 0-.057-.127c-.056-.082-.057-.085-.028-.146.036-.075.053-.078.103-.014.084.107.093.28.023.439a.583.583 0 0 1-.208.243.303.303 0 0 1-.229.005zm-16.83-.365c-.03-.03-.054-.071-.054-.092 0-.021-.003-.039-.007-.039a.557.557 0 0 0-.074.064.34.34 0 0 1-.302.075c-.122-.022-.14-.063-.086-.19.028-.065.03-.067.045-.027.029.073.144.097.282.059.105-.03.117-.074.08-.284-.03-.163-.03-.178 0-.24.026-.053.057-.085.063-.061l.044.29c.038.245.05.29.086.32.04.032.093.033 1.021.028.646-.004.991-.012 1.013-.025.03-.019.03-.023-.01-.083-.043-.064-.043-.064-.008-.124.043-.074.057-.075.087-.003a.36.36 0 0 1-.007.27c-.061.118-.036.116-1.129.116h-.99zm2.508.017c-.06-.047-.063-.06-.106-.49l-.036-.364.037-.053c.021-.029.045-.053.053-.053.014 0 .026.126.049.508.014.243.033.316.086.33.023.006.51.01 1.085.01.792 0 1.054-.005 1.088-.022a.457.457 0 0 0 .113-.14c.075-.13.097-.15.167-.15.067 0 .106.05.131.172.02.095.019.108-.016.155-.049.066-.09.07-.201.023-.087-.037-.093-.037-.11-.007a.49.49 0 0 1-.06.075l-.04.043H7.321c-1.066 0-1.098-.001-1.143-.037zm2.57-.213c0-.034-.043-.082-.074-.082-.045 0-.047.047-.004.072.036.02.079.026.079.01zm5.324.23c-.099-.051-.094-.225.01-.377.07-.101.13-.107.216-.02.064.063.065.067.06.197-.005.119-.011.137-.053.169-.058.043-.178.058-.233.03zm.186-.157c.063-.024.01-.104-.085-.128-.043-.01-.054-.005-.072.034-.032.07-.01.105.064.105a.341.341 0 0 0 .093-.011zm.302.166c-.034-.01-.04-.043-.021-.111.009-.035.024-.04.126-.04.143-.001.267-.033.282-.073.014-.035-.106-.15-.207-.198-.073-.034-.076-.045-.037-.122.037-.071.078-.068.173.012.098.085.15.186.15.292 0 .118-.03.17-.117.205a.898.898 0 0 1-.35.035zm4.136-.01c-.025-.02-.03-.038-.018-.08.015-.055.018-.056.141-.06.137-.004.235-.03.268-.069.025-.03-.056-.117-.178-.188-.076-.045-.082-.054-.072-.105.018-.09.042-.109.1-.078a.61.61 0 0 1 .202.203.41.41 0 0 1 .007.284c-.033.06-.125.094-.284.107-.097.008-.143.004-.166-.014zm1.653-.09a7.576 7.576 0 0 0-.034-.423l-.032-.31.043-.077c.023-.042.05-.076.058-.076s.015.035.014.078c0 .044.01.234.022.423.02.293.019.353-.005.413-.04.107-.063.097-.066-.028zm-14.678-.468-.058-.041.037-.06c.043-.067.055-.07.118-.029.056.037.056.058.004.122l-.042.05zm7.557 0-.054-.043.034-.058c.041-.069.05-.07.12-.02l.054.037-.041.064a.248.248 0 0 1-.05.063.301.301 0 0 1-.063-.043zm6.628-.018-.054-.043.043-.059a.22.22 0 0 1 .054-.058c.006 0 .035.02.064.043l.054.044-.041.058c-.023.032-.047.058-.054.058a.252.252 0 0 1-.066-.043zM2.822 17.253v-4.07h4.659c2.562 0 4.663.004 4.67.01a.501.501 0 0 1-.06.152c-.158.321-.155.304-.143.932.012.554.06 1.364.114 1.878.033.311.096.886.185 1.68.066.586.198 1.794.23 2.114.01.101.036.4.056.664.02.264.042.532.048.596l.01.115h-1.36c-1.081 0-1.358-.005-1.35-.023.331-.755.465-1.326.487-2.082.037-1.266-.322-2.276-1.072-3.013a1.054 1.054 0 0 0-.182-.154c-.087-.028-.123.034-.435.747l-.3.686.193.212c.603.66.97 1.238 1.089 1.716.046.184.042.428-.01.591-.103.334-.362.72-.753 1.122l-.193.198H2.822zM8.516 15c.329-.493.397-.606.379-.628-.046-.055-1.13-.803-1.152-.795-.028.011-.84 1.188-.84 1.218 0 .013.089.083.198.157.11.073.369.249.577.39.208.142.392.259.408.259.018 0 .179-.224.43-.6zm4.96 5.985c0-.2-.02-.568-.046-.89-.044-.535-.071-.889-.13-1.696l-.055-.757c-.025-.332-.084-1.252-.112-1.736l-.038-.655a39.26 39.26 0 0 1-.039-1.27l-.011-.798h8.148v8.142H16.95l.08-.184c.363-.823.499-1.79.384-2.733-.085-.707-.315-1.302-.707-1.827-.138-.185-.431-.49-.5-.518-.103-.043-.117-.02-.44.72-.165.378-.297.693-.294.702.003.009.093.114.201.234.74.825 1.107 1.49 1.105 2 0 .372-.264.838-.795 1.408l-.185.198h-2.324zm-10.664-8.71c-.005-.014-.007-1.985-.004-4.381l.005-4.357 9.19-.005 9.19-.005v8.769h-3.676c-2.739 0-3.673-.005-3.668-.02.004-.012.094-.067.2-.123.823-.432 1.511-.944 1.656-1.232.116-.232.23-.736.253-1.117.006-.097.018-.284.028-.416a15.39 15.39 0 0 0 0-1.477c-.011-.101-.023-.23-.028-.286-.02-.234-.155-.739-.276-1.035-.08-.197-.243-.532-.268-.553a1.801 1.801 0 0 1-.091-.137c-.387-.619-.875-1.018-1.335-1.093a1.075 1.075 0 0 0-.716.114 1.166 1.166 0 0 1-.123.064c-.02 0-.24.186-.321.27-.395.415-.847 1.3-1.022 2.001a3.28 3.28 0 0 0-.12.87c-.001.275.032.474.113.675a.83.83 0 0 0 .263.388c.253.232.556.326 1.054.326.427 0 .724-.073 1.057-.26.31-.172.616-.489.705-.725.048-.128.065-.166.077-.166a.48.48 0 0 1 .088.076c.093.093.195.3.222.449.048.262.006.664-.082.805-.085.135-.305.33-.572.507-.389.259-.706.417-1.458.725-.23.094-1.02.376-1.2.43-.031.008-.176.053-.324.098a26.66 26.66 0 0 1-.867.252l-.352.09a9.133 9.133 0 0 1-.378.093c-.05.01-.24.051-.42.092a8.35 8.35 0 0 1-.392.083.31.31 0 0 0-.078.016.548.548 0 0 1-.107.021c-.05.006-.229.036-.396.066a17.77 17.77 0 0 1-.702.111c-.015.002-1.172.008-2.571.012-2.052.006-2.546.003-2.553-.016zm10.092-4.382a.391.391 0 0 1-.21-.118c-.095-.085-.12-.158-.12-.358-.003-.33.117-.655.311-.846.137-.134.24-.171.443-.16.2.012.349.087.525.262.173.174.277.335.336.523.05.16.055.355.009.37-.012.005-.022.016-.022.027 0 .063-.224.179-.492.256-.248.07-.612.092-.78.044zm.542-5.192a3.617 3.617 0 0 1-.184-.122c-.07-.049-.374-.254-.673-.456-.564-.38-.639-.445-.62-.538.004-.027.094-.172.198-.323.104-.15.267-.385.361-.523.35-.505.455-.656.492-.697.029-.032.057-.041.126-.041.076 0 .106.012.213.09.23.164.622.438.845.593.473.326.514.367.478.476-.014.043-.25.401-.88 1.34-.163.24-.226.276-.356.201z"/></svg>