<svg viewBox="0 0 24 24" xmlns="http://www.w3.org/2000/svg" role="img"><path d="M2.319 16.136a1.45 1.45 0 0 1-.15-.107 16.316 16.316 0 0 0-.129-.1c-.01-.006.407-.55.424-.55.007 0 .07.038.141.085.115.076.169.105.254.138.04.016.105-.04.172-.152.089-.147.226-.271.3-.271.086 0 .255.139.316.26.05.099.05.143 0 .23a.798.798 0 0 1-.263.261.203.203 0 0 1-.13.026c-.059-.004-.078-.012-.163-.069-.106-.07-.166-.096-.224-.096-.032 0-.048.01-.088.053-.249.269-.353.335-.46.292zm17.86-.229a3.673 3.673 0 0 1-3.299-2.463 3.7 3.7 0 0 1-.2-1.14v-.112h.733l.006.154c.012.299.039.48.102.7a2.938 2.938 0 0 0 3.052 2.122 2.89 2.89 0 0 0 1.387-.481c.448-.3.774-.672 1.01-1.152.382-.779.4-1.626.055-2.462a2.849 2.849 0 0 0-.25-.46A2.918 2.918 0 0 0 21.652 9.6l-.146-.075.104-.1a1.19 1.19 0 0 0 .273-.398l.04-.097.113.06c.527.28.998.705 1.339 1.209.415.615.625 1.3.625 2.049 0 .327-.032.595-.108.896a3.674 3.674 0 0 1-2.841 2.697c-.258.05-.64.08-.873.067zm-8.045-.777c0-.007.038-.038.085-.068.167-.109.307-.22.442-.355a4.89 4.89 0 0 0 .536-.63 7.3 7.3 0 0 1 .3-.377 1.91 1.91 0 0 1 .553-.41c.156-.078.288-.168.297-.203a.54.54 0 0 0-.036-.223.178.178 0 0 0-.043-.043c-.03-.019-.028-.02-.12.034-.056.033-.165.03-.238-.008a.239.239 0 0 1-.076-.057c-.041-.064-.015-.16.085-.316a.89.89 0 0 0 .064-.114c.028-.072.122-.25.156-.298.097-.132.28-.12.41.025.124.14.163.243.161.434 0 .195-.05.35-.204.635a1.593 1.593 0 0 1-.292.409c-.1.101-.18.153-.382.249-.094.045-.21.108-.258.14a2.392 2.392 0 0 0-.427.427c-.216.288-.489.537-.702.644-.092.046-.312.12-.311.105zm-7.438-.141a3.776 3.776 0 0 1-.673-.062c-.22-.044-.383-.117-.49-.22-.077-.073-.09-.116-.104-.319a.89.89 0 0 1 .042-.399c.02-.032.063-.032.14-.001.033.013.097.035.143.05.046.013.149.047.229.075.219.076.375.097.975.136.36.023 1.145.033 1.337.017.26-.022.48-.044.601-.061.065-.01.228-.027.363-.04.22-.021.569-.072.919-.135.174-.03.873-.2 1.056-.256a6.892 6.892 0 0 0 1.052-.424c.167-.084.209-.11.28-.177.122-.114.135-.147.157-.407.045-.506.103-.926.158-1.142.018-.067.064-.184.13-.323a2.73 2.73 0 0 0 .188-.481c.014-.065.06-.13.245-.345.144-.166.264-.275.556-.505.422-.332.91-.686 1.387-1.007.33-.222.64-.449.714-.522.061-.06.098-.085.11-.074.016.018.002.06-.057.159a1.29 1.29 0 0 1-.333.387 17.58 17.58 0 0 1-.833.585 2.476 2.476 0 0 0-.192.126l-.312.229c-.48.35-.925.707-1.07.858a.488.488 0 0 1-.113.09.186.186 0 0 0-.053.032.978.978 0 0 0-.023.134 2.728 2.728 0 0 1-.05.255c-.038.152-.055.287-.095.73-.057.651-.095.843-.222 1.134-.082.186-.167.292-.414.517-.29.263-.627.448-1.366.747a3.65 3.65 0 0 1-.623.198 9.58 9.58 0 0 0-.304.08 6.28 6.28 0 0 1-.63.14 3.877 3.877 0 0 0-.202.038c-.004.002-.16.024-.346.05-.186.024-.421.057-.522.072a6.083 6.083 0 0 1-1.103.07c-.212 0-.505-.005-.652-.01zm-4.673-.16c-.03-.031-.03-.067-.002-.104.027-.034.029-.048.005-.048-.012 0-.015-.008-.01-.03.014-.063.015-.064.043-.037.035.032.076.027.085-.01.004-.02.014-.029.03-.029.061-.001.588-.42.686-.546.142-.183.218-.329.338-.65.102-.273.15-.356.188-.325a.055.055 0 0 1 .017.037c0 .048-.06.289-.106.426a9.655 9.655 0 0 1-.277.687c-.094.198-.238.376-.374.464a.82.82 0 0 1-.326.119 1.244 1.244 0 0 0-.183.05c-.066.029-.084.028-.114-.003zm1.376-.014c-.004-.004-.007-.024-.007-.045 0-.047.044-.095.11-.12.073-.027.34-.212.436-.302.022-.02.075-.06.117-.09.162-.108.393-.324.433-.402.042-.082.02-.096-.1-.065-.073.02-.117.014-.199-.022a.295.295 0 0 1-.152-.131c-.04-.078-.027-.125.1-.38.062-.123.123-.256.137-.294.038-.11.079-.135.205-.126.089.005.202.092.264.203.013.024.029.043.034.043a.61.61 0 0 0 .162-.127c.025-.028.1-.132.165-.232.134-.206.145-.22.247-.324.136-.139.268-.176.402-.114.035.017.08.028.109.028.044 0 .05-.004.076-.044.034-.054.07-.077.086-.055a.212.212 0 0 1 .005.085c-.009.122-.127.337-.247.447l-.053.049-.068-.01c-.241-.033-.418.028-.53.182-.162.22-.358.57-.39.694a1.263 1.263 0 0 1-.122.255c-.02.033-.058.108-.086.167a2.16 2.16 0 0 1-.21.345.306.306 0 0 1-.168.08c-.065.014-.18.05-.31.1a.417.417 0 0 0-.112.067.56.56 0 0 1-.216.116c-.085.03-.105.034-.117.022zm18.534-.243a2.29 2.29 0 0 1-1.317-.65c-.125-.123-.155-.16-.112-.141.172.075.522.16.764.184.189.019.507.008.646-.022a1.89 1.89 0 0 0 .918-.473 1.17 1.17 0 0 0 .381-.996c-.034-.432-.254-.811-.59-1.02a1.089 1.089 0 0 0-.13-.07c-.04-.015-.06-.035-.103-.1a1.472 1.472 0 0 0-.116-.147l-.06-.065-.004-.14-.004-.138-.064-.111c-.103-.181-.134-.302-.108-.425.021-.105.035-.124.108-.146.08-.024.336-.028.363-.005.01.008.03.056.047.106.04.123.073.17.134.197.042.018.055.031.077.08.015.033.04.104.054.16a.981.981 0 0 0 .044.134c.02.04.092.106.144.135.056.03.182.025.292-.012a.57.57 0 0 1 .14-.03c.063 0 .33.08.396.118a.786.786 0 0 1 .126.116.493.493 0 0 0 .24.16.456.456 0 0 0 .008-.103l.001-.095.06.122a2.433 2.433 0 0 1-.076 2.281 2.45 2.45 0 0 1-.706.757 2.366 2.366 0 0 1-.962.343 3.532 3.532 0 0 1-.59-.004zm-8.26-.09c-.11-.039-.213-.184-.248-.35-.034-.16-.02-.3.106-.988.06-.338.117-.66.124-.714.007-.054.028-.138.046-.187a6.33 6.33 0 0 1 .234-.666c.021-.04.04-.021.047.05.01.08-.026.329-.088.638-.168.83-.19 1.145-.091 1.339a.426.426 0 0 0 .17.166c.053.023.134.02.189-.007.049-.023.088-.082.116-.172.022-.072.046-.117.062-.117.072 0-.01.372-.14.622-.094.183-.237.333-.365.38-.069.027-.103.028-.162.007zm7.585-.977a1.994 1.994 0 0 1-.668-.878 2.074 2.074 0 0 1-.127-.644V11.9l.07.008c.068.007.071.006.078-.02a.302.302 0 0 0 .007-.064c0-.032.008-.045.042-.069.07-.05.174-.15.209-.199.029-.042.033-.059.039-.16a.426.426 0 0 1 .037-.18l.031-.07.147-.009.147-.01.024-.067c.013-.036.03-.068.04-.07.044-.008.153.118.153.177 0 .02-.055.074-.185.185-.183.157-.21.207-.267.5-.025.128-.031.19-.033.35a6.819 6.819 0 0 1-.01.313 1.5 1.5 0 0 0 .179.799c.032.058.103.159.163.234.02.025 0 .015-.076-.044zm.166-.62a.248.248 0 0 1-.063-.065c-.219-.343-.26-.417-.276-.506-.016-.09-.004-.23.042-.475.044-.24.07-.287.247-.436a3.24 3.24 0 0 0 .168-.15l.048-.05-.024-.073c-.043-.13-.099-.185-.23-.23a1.419 1.419 0 0 0-.067-.022.33.33 0 0 0-.022.058.817.817 0 0 1-.034.09l-.016.03h-.126c-.145 0-.14-.003-.197.111a.376.376 0 0 0-.043.19c-.008.13-.015.146-.103.23-.06.056-.176.149-.187.149-.025 0 .045-.362.102-.523a1.889 1.889 0 0 1 1.346-1.175 1.87 1.87 0 0 1 1.466.292c.348.233.617.548.667.779.005.022.003.036-.003.036a.62.62 0 0 1-.096-.092 1.084 1.084 0 0 0-.131-.123 1.246 1.246 0 0 0-.208-.083c-.203-.065-.283-.07-.416-.022-.118.041-.186.04-.253-.003a.241.241 0 0 1-.106-.156 1.202 1.202 0 0 0-.08-.236c-.028-.055-.073-.098-.104-.098-.033 0-.053-.035-.1-.166a1.915 1.915 0 0 0-.048-.13c-.016-.017-.157-.03-.276-.025a.636.636 0 0 0-.217.032c-.077.027-.077.027-.104.094a.663.663 0 0 0-.024.327c.016.073.07.197.13.294l.043.07-.003.135-.003.135.05.053c.123.126.23.297.23.367 0 .034-.016.051-.157.18a1.961 1.961 0 0 1-.17.146 1.39 1.39 0 0 1-.173-.04c-.149-.04-.158-.042-.158-.021 0 .011.015.114.034.228.032.188.034.208.017.217-.047.026-.095.178-.13.414-.027.184-.042.226-.085.243-.06.023-.118.023-.156 0zm-12.253-.04c-.077-.028-.129-.099-.114-.156.009-.035.036-.043.097-.03a.29.29 0 0 0 .202-.04c.045-.025.052-.033.045-.052-.036-.107.042-.353.146-.462.09-.094.179-.116.242-.06l.036.032-.031.057a.755.755 0 0 1-.065.097c-.034.042-.056.047-.108.024-.014-.006-.017.008-.017.09 0 .097 0 .1-.06.219-.112.226-.246.327-.373.281zm10.236-1.307c-.021-.004-.025-.012-.025-.049 0-.091-.046-.132-.19-.172a1.053 1.053 0 0 1-.076-.022.157.157 0 0 1 .01-.05c.01-.035.016-.044.03-.04.154.047.204.067.241.098a.217.217 0 0 1 .078.218c-.007.025-.017.027-.068.017zm-.42-.283c-.016-.024-.012-.053.01-.068.022-.016.06-.009.072.013.016.03.015.04-.006.061-.024.025-.056.022-.075-.006zm.518-.011c-.037-.014-.035-.012-.024-.052.012-.042.008-.044-.03-.014-.057.045-.174.02-.217-.047-.063-.097 0-.22.11-.22.028 0 .068.008.09.018.044.022.059.011.059-.041 0-.034-.018-.052-.097-.094-.033-.017-.059-.036-.059-.041a.18.18 0 0 1 .017-.043l.017-.033.066.033c.08.04.122.043.152.009.026-.03.067-.106.06-.112a4.415 4.415 0 0 0-.09-.057l-.086-.054.022-.037c.013-.021.025-.038.029-.038.011 0 .259.161.259.169 0 .004-.025.05-.056.1-.053.089-.102.143-.13.143-.007 0-.01.017-.006.048a.15.15 0 0 1-.018.094c-.023.044-.023.048-.006.117.014.057.015.08.005.118-.013.048-.021.052-.067.034zm-.112-.144c.034-.018.03-.07-.008-.087-.023-.011-.034-.01-.055.004-.015.01-.027.023-.027.031 0 .026.03.054.065.063a.092.092 0 0 0 .025-.011zm-15.756.095c0-.01-.014-.026-.031-.036a.171.171 0 0 1-.053-.057.16.16 0 0 0-.138-.088c-.05-.005-.056-.009-.056-.03a.16.16 0 0 1 .028-.067.938.938 0 0 0 .051-.087 1.04 1.04 0 0 1 .087-.13c.035-.047.085-.12.11-.163a.643.643 0 0 1 .074-.104l.026-.025.054.047c.113.097.211.198.23.238.054.112-.015.328-.145.455-.049.048-.094.064-.178.064-.046 0-.059-.004-.059-.017zm10.742-.006c-.073-.013-.148-.06-.261-.164-.063-.057-.064-.06-.057-.103.005-.032.046-.097.151-.242.193-.266.187-.26.215-.26.037 0 .244.217.269.282.062.162-.078.452-.234.485a.263.263 0 0 1-.083.002zm.618-.104a.963.963 0 0 1-.231-.187c-.03-.04-.016-.078.069-.193l.136-.19c.039-.054.09-.119.112-.143l.042-.043.047.038a.625.625 0 0 1 .227.296c.021.071.01.142-.039.243-.086.18-.22.246-.363.179zm4.677-.087c-.019-.019-.017-.06.003-.076.042-.035.107.03.072.073-.017.02-.057.021-.076.003zm.053-.098c-.012-.012-.022-.03-.022-.037 0-.018.035-.052.054-.052.015 0 .057.04.057.055s-.041.056-.056.056c-.006 0-.02-.01-.033-.022zm-13.733-.016a.793.793 0 0 1-.161-.115c-.047-.038-.067-.047-.102-.047-.038 0-.044-.004-.044-.027a.56.56 0 0 1 .09-.147c.048-.067.115-.171.147-.231.064-.12.103-.175.125-.175.024 0 .27.23.284.267.021.05.01.17-.026.258a.409.409 0 0 1-.093.138c-.09.091-.147.112-.22.079zm10.392-.197c-.08-.013-.103-.028-.156-.096-.061-.077-.08-.086-.143-.07-.095.023-.091.01.067-.237.064-.1.136-.221.16-.27a.564.564 0 0 1 .067-.108c.02-.018.023-.017.076.025.118.093.223.252.236.355.012.1-.058.27-.145.355-.054.051-.08.059-.162.046zm2.97-.2c-.027-.017-.025-.073.005-.089.017-.01.029-.008.05.005.032.022.035.052.007.077-.024.021-.034.022-.06.007zm.509-.22a.695.695 0 0 1-.094-.073l-.059-.053.035-.035.035-.035.055.052c.068.063.104.075.144.045.016-.012.08-.076.14-.141.123-.132.126-.146.026-.138a.16.16 0 0 0-.096.04l-.042.033-.04-.04c-.05-.053-.064-.081-.064-.13 0-.045.064-.23.08-.23a.16.16 0 0 1 .043.018l.033.016-.033.09c-.052.14-.045.158.04.12.083-.037.172-.019.27.054.019.015.035.03.035.035 0 .017-.315.343-.354.367a.152.152 0 0 1-.154.005zm.547-.475c-.04-.018-.062-.041-.195-.211l-.104-.133.03-.026a.123.123 0 0 1 .04-.026 1.4 1.4 0 0 1 .13.15c.135.173.145.177.24.116l.055-.035-.025-.04a2.448 2.448 0 0 0-.056-.088c-.036-.053-.034-.062.013-.087l.033-.016.08.127c.044.07.08.13.081.135a.993.993 0 0 1-.25.143.14.14 0 0 1-.072-.008zm.423-.142c-.018-.034-.017-.035.01-.058.066-.056.068-.115.007-.24a.709.709 0 0 1-.042-.096.341.341 0 0 1 .08-.037.733.733 0 0 1 .03.054c.056.113.076.126.153.1l.035-.013-.022-.04c-.046-.087-.014-.165.09-.217a.396.396 0 0 1 .073-.03c.016 0 .13.28.119.29a2.405 2.405 0 0 1-.342.122c-.022 0-.029.005-.03.025 0 .043-.04.115-.08.146-.049.038-.06.037-.081-.006zm.402-.344c.008-.012-.026-.111-.038-.111-.016 0-.035.028-.035.05 0 .048.054.093.073.061zm-.848.071c-.01-.041.009-.065.05-.063.026 0 .035-.004.035-.018 0-.025.022-.045.05-.045.03 0 .05.02.05.05 0 .044-.056.068-.086.037-.01-.01-.012-.007-.006.011.008.033-.015.058-.054.058-.025 0-.033-.006-.039-.03zm2.263-.087a.73.73 0 0 1-.538-.471.884.884 0 0 1-.02-.415.755.755 0 0 1 .467-.512.726.726 0 0 1 .565 1.335.72.72 0 0 1-.474.063zm-1.538-.262c-.03-.033-.008-.078.039-.078.045 0 .065.035.04.073-.022.033-.052.035-.079.005z"/></svg>