<svg role="img" viewBox="0 0 24 24" xmlns="http://www.w3.org/2000/svg"><path d="M1.64 23.956a2.032 2.032 0 0 1-1.033-.563 2.016 2.016 0 0 1-.564-1.044C.001 22.145 0 21.806 0 12.001 0 2.195 0 1.856.043 1.65.128 1.247.313.903.607.609A2.02 2.02 0 0 1 1.651.045C1.855 0 2.194 0 12 0c9.806 0 10.145.001 10.349.044.406.084.75.27 1.044.564.294.294.48.638.564 1.044.042.204.044.543.044 10.349 0 9.805-.002 10.144-.044 10.348-.084.406-.27.75-.564 1.044a2.02 2.02 0 0 1-1.044.564c-.204.043-.54.044-10.36.043-9.695-.001-10.159-.003-10.35-.044zm5.955-2.275c.345-.61.704-1.163.726-1.12a.613.613 0 0 1 .033.124c.017.1.16.36.585 1.066l.26.434.015-.328c.008-.18.023-1.497.032-2.924l.018-2.597-.993.006-.994.006-.007 2.942c-.004 1.93.001 2.933.016 2.918.013-.013.152-.25.309-.527zm12.283-1.533c.51-.097.724-.307.724-.707 0-.384-.245-.638-.691-.716-.127-.022-1.325-.025-5.283-.014a965.31 965.31 0 0 0-5.124.021 25.09 25.09 0 0 0-.018.716l-.011.71 4.398.003c2.418.002 4.566.01 4.772.02.486.023 1.014.01 1.233-.033zM7.03 19.434v-.724l-.3.012c-.593.024-1.146-.07-1.539-.261-.367-.18-.816-.558-1.088-.917a3.16 3.16 0 0 1-.426-.867 3.13 3.13 0 0 1-.046-.991c.177-1.102 1.075-1.994 2.245-2.23.426-.087.858-.103 2.42-.087.805.008 3.722.016 6.48.017 4.494.002 5.033-.002 5.175-.035.207-.049.322-.11.439-.23.265-.277.24-.702-.057-.977-.126-.115-.203-.152-.4-.19-.182-.034-13.502-.034-13.911 0-.574.05-.978.158-1.442.388a3.62 3.62 0 0 0-1.031.748 3.704 3.704 0 0 0-.761 1.052c-.725 1.437-.596 3.049.34 4.246.517.663 1.319 1.205 2.261 1.53.54.186.793.232 1.307.237l.334.003zm0-2.195v-.668h-.177c-.245 0-.366-.035-.49-.144-.213-.187-.228-.399-.04-.584.21-.21.49-.258 1.316-.23.573.02 10.977.025 11.311.005l.26-.015.168-.47c.165-.46.286-.84.286-.895 0-.038-11.578-.072-12.137-.035-1.169.076-1.86.307-2.268.758-.16.177-.303.459-.353.696-.074.347 0 .864.17 1.203.211.42.6.769 1.047.936.167.062.235.073.52.087.18.01.341.018.357.02.023.003.03-.143.03-.664zm7.77.598c1.74-.013 3.546-.03 4.012-.038l.848-.014-.183-.53c-.238-.69-.255-.731-.315-.75-.027-.01-1.805-.005-3.952.01-2.146.016-4.311.03-4.81.03l-.909.002v1.342l1.072-.015c.59-.008 2.497-.025 4.237-.038zm-3.637-6.672.531-.016V9.797h-.902c-.496 0-.903-.006-.903-.013 0-.027.079-.162.224-.387.254-.392.362-.641.475-1.088.103-.413.13-.68.115-1.134a3.37 3.37 0 0 0-.608-1.871 4.407 4.407 0 0 0-.95-.97c-1.042-.726-2.286-.926-3.42-.55C4.503 4.193 3.52 5.296 3.23 6.59c-.048.215-.054.303-.053.759 0 .481.005.534.066.795.09.385.181.63.358.976.504.982 1.452 1.723 2.47 1.93.412.083.584.092 2.098.107l1.994.02c.259.002.71-.003 1.002-.011zm-4.567-1.4a2.415 2.415 0 0 1-1.528-.892 2.944 2.944 0 0 1-.45-.88c-.34-1.271.336-2.532 1.585-2.957a2.42 2.42 0 0 1 1.167-.103c1.306.212 2.22 1.465 2.02 2.767a2.43 2.43 0 0 1-1.34 1.83 2.477 2.477 0 0 1-1.454.235zm11.427 1.362c.455-.063.716-.129 1.036-.264.76-.32 1.508-1.046 1.884-1.83.457-.952.491-2.1.09-3.075a3.716 3.716 0 0 0-3.62-2.318c-1.976.076-3.473 1.51-3.634 3.48-.07.853.211 1.848.71 2.513l.113.152-.323.015c-.177.008-.59.016-.915.018l-.591.003v1.363l2.49-.01c2.093-.008 2.533-.016 2.76-.047zm-.904-1.34c-.918-.143-1.7-.841-1.965-1.753-.312-1.077.147-2.207 1.13-2.781.341-.2.7-.304 1.118-.323a2.342 2.342 0 0 1 1.767.66 2.42 2.42 0 0 1 .742 2.18c-.175 1.07-1.044 1.892-2.145 2.026-.247.03-.405.028-.647-.01z"/></svg>