<svg viewBox="0 0 24 24" xmlns="http://www.w3.org/2000/svg" role="img"><path d="M11.652 23.995a11.96 11.96 0 0 1-7.707-3.094 17.285 17.285 0 0 1-.874-.876 12.268 12.268 0 0 1-1.585-2.221 16.352 16.352 0 0 1-.437-.87 12.002 12.002 0 0 1-1.033-4.112 21.712 21.712 0 0 1 0-1.662A11.976 11.976 0 0 1 4.21 2.847a11.954 11.954 0 0 1 6.83-2.83c.28-.023 1.633-.023 1.91 0a11.955 11.955 0 0 1 6.861 2.852 11.964 11.964 0 0 1 4.148 8.021c.037.409.041.52.041 1.103 0 .6-.008.787-.051 1.205a12.02 12.02 0 0 1-12.297 10.797zm-.493-4.64c.739-.1 1.456-.42 2.044-.916a4.312 4.312 0 0 0 .504-.523c.003 0-.028.102-.07.226-.265.808-.287.88-.287.94 0 .108.048.171.15.203.076.023.366.035.567.024a2.29 2.29 0 0 0 .68-.124c.613-.203 1.16-.607 1.653-1.22.153-.19.245-.32.393-.556.31-.494.415-.638.604-.825.316-.313.735-.575 1.611-1.007.213-.105.428-.217.478-.249a2.14 2.14 0 0 0 .398-.334 3.558 3.558 0 0 0 .908-1.678c.095-.382.129-.647.12-.917-.024-.63-.236-1.127-.664-1.555a2.215 2.215 0 0 0-1.115-.61 1.877 1.877 0 0 0-.504-.036.491.491 0 0 0-.373.238c-.044.076-.072.165-.198.634a4.6 4.6 0 0 1-.25.67c-.117.273-.2.507-.219.618a.52.52 0 0 0 .023.282c.053.117.207.248.376.321.327.142.831.15 1.105.016a.682.682 0 0 0 .26-.24c.024-.042.046-.068.056-.068.03 0 .129.038.207.078a.968.968 0 0 1 .314.314c.09.175.093.33.006.465-.088.14-.186.187-1.233.592-.491.19-.6.237-.753.322-.236.13-.412.263-.605.456-.18.179-.282.306-.75.93-.46.615-.549.724-.715.885-.252.244-.514.4-.85.507a3.104 3.104 0 0 1-.852.149h-.084l.075-.113a4.64 4.64 0 0 0 .5-1.062 7.095 7.095 0 0 0 .369-2.257c0-.511.072-1.442.168-2.16.114-.856.302-1.634.542-2.235.027-.067.027-.108.001-.134-.035-.035-.075-.027-.134.028-.185.173-.354.434-.512.795a9 9 0 0 1-.538 1.012 5.398 5.398 0 0 0-.137.237c-.167.332-.282.73-.35 1.214-.05.348-.064.614-.077 1.482-.023 1.46-.028 1.626-.05 1.69-.093.27-.343.569-.672.806-.433.31-1.087.573-1.675.672-.155.026-.39.046-.39.034a7.145 7.145 0 0 0 .62-.614c.451-.545.775-1.144 1.023-1.891.156-.47.309-1.13.329-1.425.042-.61-.24-1.131-.75-1.386a2.63 2.63 0 0 0-.664-.19 2.483 2.483 0 0 0-.547-.005c-.365.055-.749.235-.942.442-.127.135-.2.27-.268.5-.09.297-.212.573-.372.84-.12.2-.165.295-.182.39-.016.093-.007.139.03.156.04.018.048.016.13-.028.401-.21.799-.296 1.272-.273.471.023.822.16 1.107.433.17.164.303.361.303.45 0 .085-.084.205-.275.396-.401.403-.958.725-1.624.939-.53.17-1.014.247-1.63.258-.815.014-1.352-.071-1.776-.282a2.061 2.061 0 0 1-.43-.28c-.163-.134-.215-.155-.295-.114-.066.033-.116.115-.192.313-.126.33-.194.557-.276.915a1.373 1.373 0 0 0-.015.468c.048.238.204.437.475.605.383.237.811.366 1.406.423.283.027.85.013 1.18-.028.668-.083 1.307-.298 1.808-.608a.453.453 0 0 1 .108-.058c0 .005-.057.157-.128.338-.17.437-.322.841-.348.927-.066.212.01.337.227.379.094.018.473.012.64-.011zM4.81 15.439a1.09 1.09 0 0 0 .435-.189c.032-.023.179-.164.327-.313.425-.427.55-.504.722-.439.089.034.149.082.498.398.22.2.374.283.562.307.389.049.862-.274 1.247-.85.127-.19.22-.38.23-.466a.272.272 0 0 0-.07-.228c-.045-.049-.07-.065-.273-.16-.192-.091-.36-.24-.572-.504-.153-.192-.235-.272-.324-.318a.234.234 0 0 0-.139-.033.26.26 0 0 0-.147.034c-.112.053-.164.098-.488.423-.363.364-.459.44-.637.498a.689.689 0 0 1-.627-.092c-.07-.045-.16-.129-.419-.388a6.152 6.152 0 0 0-.375-.356.184.184 0 0 0-.101-.026c-.083-.001-.138.031-.19.113-.284.444-.42.612-.87 1.076-.252.26-.28.302-.278.43.001.097.026.163.105.283.175.265.503.544.834.71.205.102.357.127.55.09zm.813-3.217c.808-.068 1.614-.393 2.364-.952.375-.28.787-.684 1.08-1.058a4.843 4.843 0 0 0 .347-.515c.005-.003.021.027.037.068.047.123.168.35.256.482.27.406.6.665.962.756.119.03.373.038.512.016.394-.063.72-.29.985-.684.082-.122.23-.422.293-.59.112-.304.2-.68.25-1.073.043-.334.053-.88.018-1.015-.026-.104-.06-.152-.11-.152-.033 0-.053.018-.08.07a.77.77 0 0 0-.051.21 1.3 1.3 0 0 1-.1.292c-.09.187-.253.39-.395.491-.326.233-.726.173-1.157-.174a1.444 1.444 0 0 1-.4-.471c-.167-.326-.213-.694-.15-1.196.03-.236.032-.31.01-.351-.04-.08-.14-.065-.18.027-.01.022-.056.147-.103.279-.27.75-.555 1.262-.987 1.773a4.669 4.669 0 0 1-3.106 1.607c-.724.071-1.638-.106-1.967-.382-.091-.076-.15-.095-.216-.07-.068.026-.098.076-.17.284a5.378 5.378 0 0 0-.25.996c-.044.308-.007.508.133.713.304.448 1.192.7 2.175.619zm12.98-2.801c.08-.033.322-.231.497-.407.254-.253.472-.548.561-.757.026-.06.028-.077.027-.178a1.024 1.024 0 0 0-.161-.53 2.147 2.147 0 0 0-.824-.746c-.16-.079-.265-.097-.393-.07-.121.026-.21.094-.296.227-.22.34-.39.558-.692.88a.873.873 0 0 0-.172.223c-.04.078-.043.092-.043.163 0 .137.045.192.239.299.295.16.482.306.814.634.25.246.29.277.368.277a.238.238 0 0 0 .075-.015zM6.13 8.681a.38.38 0 0 0 .063-.073.405.405 0 0 0-.138-.127c-.02 0-.136.11-.136.128 0 .012.125.136.137.136a.372.372 0 0 0 .074-.063zm-1.555-.278c.074-.044.18-.222.211-.356a.982.982 0 0 0 .001-.357c-.033-.127-.121-.264-.165-.255a.479.479 0 0 0-.089.115l-.071.11.05.041c.084.07.164.157.176.195.039.116-.146.28-.454.403-.083.032-.094.041-.094.075 0 .042.015.046.216.046.157 0 .197-.003.22-.016zm3.035-.01c.01-.003.02-.02.026-.038.015-.045.048-.396.071-.749.028-.41.029-.44.015-.444a.736.736 0 0 0-.135.088c-.114.085-.124.095-.119.12.029.144.065.498.077.756.01.205.014.235.034.26.011.015.01.015.031.008zm-1.686-.028c.052-.024.11-.08.122-.118.009-.03.017-.026.043.02a.294.294 0 0 0 .144.11c.051.018.292.015.385-.004.107-.022.187-.055.348-.144.186-.103.25-.132.316-.146l.057-.01.048-.108c.052-.117.051-.135-.008-.135-.053 0-.174-.035-.41-.121-.268-.098-.304-.107-.361-.092-.058.016-.157.118-.2.206-.04.08-.039.113.003.117.023.003.037-.006.073-.044l.044-.048.064.005a.893.893 0 0 1 .226.07l.161.063-.08.03a1.01 1.01 0 0 1-.428.076c-.186.005-.197.004-.241-.018-.062-.03-.098-.079-.117-.16-.027-.108-.067-.111-.097-.008a.279.279 0 0 1-.126.165c-.044.023-.051.023-.334.023-.269 0-.29 0-.328-.02-.072-.037-.071-.03-.071-.498 0-.358-.002-.418-.015-.423-.01-.003-.056.023-.113.064l-.098.07.006.121.012.376c.003.14.01.282.016.315a.36.36 0 0 0 .148.24c.076.047.093.05.435.05.32 0 .327 0 .377-.024zm.775-.941a.288.288 0 0 0 .054-.073.42.42 0 0 0-.134-.131.49.49 0 0 0-.13.138c0 .018.116.126.136.126.012 0 .043-.025.074-.06z"/></svg>