<svg viewBox="0 0 24 24" xmlns="http://www.w3.org/2000/svg" role="img"><path d="M11.593 23.993c-2.608-.129-4.903-1.128-6.732-2.932a10.075 10.075 0 0 1-2.966-6.083c-.054-.453-.067-1.102-.024-1.13.015-.008.24.035.5.096l1.002.237.529.124.023.362c.11 1.727.964 3.552 2.286 4.88a8.105 8.105 0 0 0 4.62 2.34 8.998 8.998 0 0 0 2.336 0 8.108 8.108 0 0 0 4.586-2.305 8.156 8.156 0 0 0 2.32-4.688 9.81 9.81 0 0 0 0-2.127 8.19 8.19 0 0 0-1.743-4.058l-.24-.296.47-.466c.257-.256.557-.588.665-.737l.212-.287c.02-.024.304.297.597.677a10.172 10.172 0 0 1 2.085 5.195c.047.436.047 1.629 0 2.065-.26 2.395-1.284 4.526-2.982 6.2a9.987 9.987 0 0 1-5.378 2.783c-.645.113-1.59.179-2.166.15zm-.796-3.72A6.52 6.52 0 0 1 7.43 18.69a5.778 5.778 0 0 1-.463-.453l-.14-.168.303.114c.37.139.958.29 1.444.371.526.088 1.803.087 2.206-.001 1.041-.228 1.982-.714 2.626-1.357.332-.332.514-.58.699-.95.24-.48.33-.88.33-1.457 0-1.98-1.386-3.582-3.094-3.575-.753.003-1.387.267-1.96.816-.706.678-1.085 1.561-1.127 2.626-.039.972.23 1.856.789 2.589.106.14.171.237.144.218-1.107-.822-1.743-1.661-2.126-2.809-.205-.615-.254-.943-.254-1.708 0-.592.011-.745.076-1.049.312-1.45 1.13-2.677 2.314-3.465 1.25-.832 2.664-1.103 4.161-.798.883.18 1.524.483 2.265 1.072 1.257 1 2.108 2.554 2.352 4.297.084.601.052 1.637-.069 2.211a6.648 6.648 0 0 1-2.54 3.993c-.687.513-1.747.927-2.728 1.067-.441.062-1.429.061-1.84-.003zm-7.506-7.056c-.136-.034-.33-.124-.33-.154 0-.026.102-.217.116-.217.006 0 .077.023.156.05a.863.863 0 0 0 .235.051c.175 0 .306-.228.306-.534 0-.133-.005-.142-.065-.11a.322.322 0 0 0-.108.15c-.039.109-.049.115-.163.097a.816.816 0 0 1-.13-.026 2.765 2.765 0 0 1 .046-.343c.092-.546.071-.62-.197-.708a2.71 2.71 0 0 1-.202-.07c-.018-.011.027-.201.058-.242.003-.004.106.022.228.06.239.074.316.065.349-.038.03-.099-.033-.153-.275-.233a1.61 1.61 0 0 1-.218-.082c0-.033.078-.222.091-.222.01 0 .101.024.204.054.208.06.316.036.38-.085.035-.064.017-.074-.255-.157l-.292-.09.021-.104a.42.42 0 0 1 .037-.12c.017-.017.734.193.802.235.07.043-.057.38-.185.493-.102.09-.107.102-.066.188.063.13.012.297-.118.384-.076.051-.096.084-.075.119a.71.71 0 0 1 .031.24v.193l.141.01c.13.01.144.02.19.146.11.31-.014.85-.232 1.008-.105.076-.306.1-.48.057zm-.601-2.328c-.054-.044-.069-.081-.052-.134.042-.131.233-.135.274-.005.043.136-.109.23-.222.139zm-.229-.216c-.097-.097-.008-.245.135-.224.143.02.108.265-.038.265a.159.159 0 0 1-.097-.041zm.317-.08c-.073-.073-.067-.137.02-.198.093-.065.198-.015.198.093 0 .144-.12.202-.218.105zm1.565-.237c-.085-.046-.09-.06-.073-.21.017-.143.008-.176-.073-.273a1.27 1.27 0 0 0-.326-.228 1.192 1.192 0 0 1-.232-.135c0-.01.024-.064.053-.12.06-.118.065-.117.373.055.253.141.442.344.473.505.026.14-.002.322-.062.4-.037.049-.052.05-.133.006zm.349-.751c-.064-.053-.068-.072-.034-.18.061-.197-.03-.346-.33-.536a1.826 1.826 0 0 1-.247-.172.456.456 0 0 1 .075-.113l.076-.095.26.17c.318.207.444.378.447.607.003.177-.068.378-.133.378-.023 0-.075-.026-.114-.059zM3.3 9.36a.135.135 0 0 1 .119-.203.135.135 0 1 1 0 .27.14.14 0 0 1-.119-.067zm1.856-.447c-.086-.067-.088-.075-.038-.152.065-.099.04-.13-.058-.078-.181.097-.466-.076-.542-.327-.034-.116-.032-.156.014-.254.225-.472.9-.151.9.428 0 .154-.11.46-.163.455a.478.478 0 0 1-.113-.072zm-.136-.508c.095-.095.023-.264-.112-.264-.15 0-.195.127-.085.237.078.077.138.086.197.027zm.802-.902a.883.883 0 0 1-.286-.256l-.15-.194.1-.08.099-.082.17.186c.125.138.192.186.259.185.062 0 .213-.098.482-.31.216-.17.392-.323.392-.338 0-.048-.126-.097-.247-.097a.486.486 0 0 0-.238.083l-.123.083-.08-.109c-.204-.273-.206-.383-.014-.739.079-.146.159-.266.177-.265.02 0 .07.027.112.06l.077.06-.138.25c-.145.266-.16.363-.05.347l.194-.03a.788.788 0 0 1 .28.023c.165.046.466.285.45.357-.016.065-1.022.847-1.148.89-.14.05-.158.049-.318-.024zm11.046-.227a13.263 13.263 0 0 0-1.462-.763l-.265-.11.164-.061c.501-.19 1.112-.882 1.504-1.703.25-.524.316-.799.314-1.304a2.82 2.82 0 0 0-.317-1.37c-.37-.753-.94-1.282-1.694-1.573-.454-.175-.755-.217-1.404-.195-.51.017-.559.014-.43-.026.561-.175 1.553-.225 2.149-.107 1.41.277 2.644 1.173 3.217 2.337.201.408.286.698.325 1.112.12 1.284-.353 2.48-1.392 3.52-.219.218-.417.396-.441.395a1.375 1.375 0 0 1-.268-.152zm-9.48-.96c-.068-.059-.238-.31-.385-.565l-.263-.46.083-.063a.319.319 0 0 1 .116-.064c.018 0 .148.2.288.444.14.244.287.466.328.493.068.044.09.041.233-.03.087-.043.165-.097.174-.12.009-.024-.039-.142-.106-.264a1.556 1.556 0 0 1-.122-.254c0-.017.045-.055.1-.083l.098-.05.117.21c.065.116.157.29.205.385l.087.174-.278.161c-.365.212-.511.23-.675.087zm1.252-.219c-.053-.11-.052-.111.06-.201.168-.134.182-.269.062-.59a2.59 2.59 0 0 1-.097-.293c0-.017.048-.051.107-.075l.106-.044.094.221c.052.122.121.235.155.253a.41.41 0 0 0 .2.01c.122-.02.136-.03.115-.093a1.342 1.342 0 0 1-.04-.21c-.025-.222.13-.363.52-.47.066-.018.079.01.178.409.06.235.103.432.098.437-.022.018-.94.22-1.004.22-.048 0-.078.036-.107.126a.689.689 0 0 1-.307.365c-.083.044-.09.04-.14-.065zm1.226-.875c0-.08-.07-.296-.096-.296-.093 0-.134.156-.071.273.038.072.168.09.167.023zm3.093.413a2.073 2.073 0 0 1-1.183-.653 2.007 2.007 0 0 1 .002-2.686c.47-.52 1.16-.76 1.839-.64.793.14 1.42.724 1.618 1.51.075.298.05.848-.054 1.141a2.093 2.093 0 0 1-1.307 1.26c-.25.078-.68.11-.915.068zm-5.516-.383c-.053-.14.072-.272.187-.2.059.036.067.03.077-.051.009-.077.027-.092.108-.092.121 0 .19.091.134.178-.023.036-.076.057-.137.054-.071-.003-.108.016-.13.068-.04.088-.21.118-.239.043zm2.166-.815c-.051-.132.073-.27.181-.201.128.08.073.25-.081.25-.045 0-.09-.022-.1-.049z"/></svg>