<svg role="img" viewBox="0 0 24 24" xmlns="http://www.w3.org/2000/svg"><path d="M10.026 23.981c-.021-.013-.011-.03.042-.066.238-.163.24-.207.028-.517-.105-.153-.143-.262-.116-.334.01-.027.062-.112.115-.189.081-.118.096-.155.096-.241a.562.562 0 0 0-.033-.181c-.043-.103-.221-.29-.472-.494a3.97 3.97 0 0 1-.246-.213.73.73 0 0 1-.144-.344c-.022-.16-.035-.168-.1-.068a.526.526 0 0 0-.092.356c.014.12.065.224.224.459.176.26.21.338.21.467 0 .208-.126.332-.34.332-.13 0-.29-.051-.29-.093 0-.015.026-.038.058-.052.19-.085.276-.197.283-.367.003-.076-.01-.116-.075-.217-.167-.26-.209-.373-.22-.595-.016-.346.068-.584.296-.833.146-.159.33-.275.615-.387.11-.043.206-.084.212-.09.006-.006-.012-.067-.04-.135-.03-.068-.047-.13-.039-.138.008-.008.118-.005.246.007.374.034.547-.002.707-.146.152-.136.196-.232.196-.424 0-.165-.024-.232-.187-.511-.032-.056-.053-.106-.047-.113.006-.006.063.008.125.031.063.024.175.054.249.066.21.037.24.055.309.187.126.24.135.408.036.698-.1.292-.177.378-.579.647-.232.156-.298.225-.348.366-.069.196-.023.294.188.399.18.09.265.159.3.243.056.134-.018.259-.204.34-.11.05-.272.08-.272.053 0-.01.042-.06.093-.11.106-.102.137-.191.09-.262a1.2 1.2 0 0 0-.255-.17 2.347 2.347 0 0 1-.255-.154c-.039-.039-.039-.177 0-.305.02-.066.023-.104.009-.113-.073-.045-.48.12-.657.267a.546.546 0 0 0-.181.382c0 .203.116.335.518.586.362.226.504.387.528.598.012.105-.03.203-.141.33-.12.134-.19.247-.19.3 0 .044.028.093.197.336.048.07.057.1.049.174-.012.112-.041.147-.173.208-.106.05-.269.065-.323.03zm.417-3.453c.307-.084.6-.259.805-.48.182-.197.215-.284.215-.561 0-.187-.007-.243-.037-.29-.042-.064-.135-.081-.11-.02.07.171.067.43-.008.621-.096.248-.302.407-.74.574-.252.096-.482.201-.482.22 0 .02.15-.007.358-.064zm4.788 2.824c-.007-.012.035-.068.094-.124.166-.156.204-.26.132-.362a.858.858 0 0 0-.23-.14.78.78 0 0 1-.218-.133c-.036-.067-.026-.173.032-.34.096-.28.067-.393-.152-.587-.13-.116-.833-.549-.855-.527-.028.026-.12.506-.12.628 0 .204.111.292.431.34.209.031.279.066.318.16.036.086.026.136-.069.333a.603.603 0 0 0-.07.237c0 .075-.007.09-.04.09-.05 0-.163-.092-.18-.147a.532.532 0 0 1 .02-.177.86.86 0 0 0 .028-.216c-.008-.1-.054-.125-.309-.169-.238-.04-.31-.077-.384-.193-.053-.083-.06-.114-.06-.254 0-.087.014-.22.031-.295.017-.075.047-.227.067-.337.035-.196.035-.202-.008-.336a6.322 6.322 0 0 0-.139-.364 4.543 4.543 0 0 1-.152-.442 3.994 3.994 0 0 0-.065-.223c-.014-.018-.207.16-.294.27-.127.161-.127.242 0 .427.142.209.146.217.117.306a1.403 1.403 0 0 1-.129.235.624.624 0 0 0-.097.187c.003.017.035.04.07.05.034.01.1.035.144.054.079.033.08.036.07.124-.011.107-.06.189-.131.221-.064.03-.084.013-.054-.043.031-.058.01-.103-.069-.143-.134-.068-.267-.186-.31-.276-.063-.13-.042-.227.108-.49.069-.12.125-.236.126-.256 0-.02-.033-.116-.074-.214a1.034 1.034 0 0 1-.073-.233c0-.1.085-.223.315-.462.176-.181.233-.256.251-.323.044-.161-.025-.302-.192-.394-.098-.053-.138-.062-.324-.069a1.382 1.382 0 0 0-.462.05c-.221.052-.29.058-.58.056a3.824 3.824 0 0 1-.462-.026 1.004 1.004 0 0 1-.543-.286l-.108-.118-.123.055c-.156.07-.24.07-.308.003-.074-.075-.064-.11.046-.162.134-.063.152-.118.175-.529.023-.413.057-.537.213-.762a2.75 2.75 0 0 1 .506-.548 5.41 5.41 0 0 1 .393-.239l.288-.161-.007-.141a.476.476 0 0 1 .003-.141c.006 0 .074.03.152.066.136.064.146.066.267.043.327-.06.866-.43 1.05-.718.08-.124.077-.162-.013-.2a.279.279 0 0 1-.158-.257v-.088l.153.012c.151.011.156.01.233-.057.206-.181.37-.742.37-1.262 0-.22-.023-.263-.154-.282a.383.383 0 0 1-.13-.042c-.036-.027-.034-.035.048-.127.13-.147.174-.3.174-.6 0-.32-.042-.58-.148-.926-.1-.329-.193-.531-.316-.694-.096-.126-.188-.297-.188-.346 0-.196.47.373.695.84.105.22.177.422.358 1.013.022.072.106.27.186.442.08.171.14.318.132.325a.421.421 0 0 1-.09.037l-.076.024-.015.407a4.025 4.025 0 0 1-.13 1.003c-.082.376-.089.529-.03.717.023.073.042.145.042.16 0 .038-.066.032-.2-.018-.142-.053-.126-.063-.368.233a3.27 3.27 0 0 1-.915.8c-.223.135-.284.204-.284.326 0 .05-.008.097-.017.103-.031.019-.179-.069-.233-.137-.046-.059-.058-.064-.133-.052-.206.033-.525.248-.811.547-.238.249-.307.38-.317.601-.013.295.12.518.362.607.26.096.356.1.855.025.92-.137 1.135-.11 1.413.183.127.133.146.179.271.654.062.236.174.361.324.361.043 0 .053.01.053.053 0 .084-.106.136-.278.136-.164 0-.16-.01-.102.216.078.303.248.577.52.837.197.188.307.267.54.385l.172.087.41.01c.45.012.504.026.576.149.052.088.044.13-.073.354-.09.171-.104.213-.085.249.025.047.105.07.248.07.115 0 .121.04.021.134-.123.117-.327.15-.45.076-.062-.038-.068-.051-.068-.145a.67.67 0 0 1 .063-.252c.082-.193.081-.229-.008-.266-.084-.035-.518-.068-.518-.04 0 .01.034.07.075.132.162.24.17.323.05.558a1.145 1.145 0 0 0-.083.192c0 .065.086.122.294.195.204.072.223.084.267.162.073.128.066.262-.018.358a.633.633 0 0 1-.409.194c-.078.006-.134.002-.142-.011zm-1.04-2.456a2.228 2.228 0 0 1-.518-.879c-.043-.128-.058-.238-.084-.616a10.153 10.153 0 0 0-.046-.534.51.51 0 0 0-.16-.284c-.206-.175-.542-.193-1.117-.06-.125.028-.3.057-.389.064-.476.036-.89-.172-1.061-.534-.061-.13-.068-.161-.068-.342 0-.183.006-.213.07-.348.083-.174.262-.416.407-.546.116-.104.512-.312.873-.46.51-.208.808-.39 1.098-.674.41-.4.747-1.035.89-1.677.041-.186.049-.278.049-.618 0-.388-.013-.515-.05-.515-.011 0-.025.158-.033.352-.024.641-.082.979-.243 1.42-.09.249-.316.582-.576.851-.33.344-.588.513-1.034.68-.524.196-.865.395-1.159.677-.281.27-.373.497-.371.92 0 .294.043.428.187.588.262.291.731.359 1.544.221.478-.08.711-.056.884.092.143.122.172.204.19.544.02.352.025.386.107.7.065.25.16.482.257.624.05.073.472.513.493.513.005 0-.06-.072-.14-.16zm-5.753-1.397c.016-.128 0-.151-.164-.233-.151-.077-.186-.126-.186-.262 0-.098.007-.114.089-.193.05-.047.172-.139.273-.204.102-.064.184-.13.184-.148 0-.016-.054-.076-.12-.132a1.815 1.815 0 0 1-.147-.133c-.045-.055-.032-.216.026-.325l.053-.1-.073-.08c-.075-.084-.13-.227-.098-.258.01-.01.08 0 .16.026.077.024.194.043.258.043.226 0 .352-.102.638-.521.236-.345.316-.407.666-.517.19-.06.3-.068.472-.032.153.031.353.123.353.16a.64.64 0 0 1-.131.166l-.132.135-.163-.031a.866.866 0 0 0-.23-.019c-.28.052-.585.348-.585.566 0 .041.03.143.065.225.09.205.072.266-.128.425-.161.13-.21.189-.21.254 0 .05.063.115.16.164.089.045.176.153.176.217 0 .036-.047.102-.154.214a.94.94 0 0 0-.192.261c-.021.055-.045.1-.052.1a.48.48 0 0 1-.149-.162 1 1 0 0 1 .107-.181c.124-.183.12-.215-.029-.29-.14-.07-.204-.141-.204-.225 0-.061.024-.097.154-.233.191-.198.225-.247.224-.328 0-.08-.071-.24-.114-.255-.018-.007-.059.01-.093.039a1.02 1.02 0 0 1-.205.111c-.164.068-.233.115-.285.193-.041.064-.036.084.086.29.05.085.086.174.086.21 0 .084-.067.175-.213.292-.145.117-.186.2-.136.276.019.03.047.053.063.053s.063.038.105.084c.085.094.097.171.043.276-.029.055-.2.187-.244.187-.009 0-.01-.047-.004-.105zm1.12-2.435c.123-.24.418-.383.785-.384.104 0 .185-.009.185-.02 0-.044-.09-.064-.278-.064-.173 0-.211.007-.326.062a.841.841 0 0 0-.376.341c-.05.096-.063.144-.041.144a.265.265 0 0 0 .05-.08zm4.466 1.338-.11-.042v-.096c0-.104.009-.115.292-.365.06-.052.108-.112.108-.132 0-.045-.094-.103-.278-.174a1.33 1.33 0 0 1-.217-.105.292.292 0 0 0-.125-.05c-.027 0-.154.036-.282.082a3.65 3.65 0 0 1-.39.116c-.337.07-.788.025-1.175-.116-.234-.085-.55-.254-.558-.299-.004-.022.036-.078.1-.141.13-.126.182-.133.412-.053.276.095.443.122.756.123.322.001.648-.046.758-.11.057-.034.063-.046.063-.15v-.115h.189c.166 0 .205-.008.313-.061.144-.07.368-.274.543-.494.155-.195.353-.528.368-.622.01-.068.006-.074-.08-.118-.1-.05-.166-.1-.166-.128 0-.01.066-.05.146-.091.212-.107.302-.246.369-.568.062-.3.022-1.103-.059-1.184-.022-.023-.041-.022-.105.005-.095.04-.088.053-.13-.251-.05-.362-.105-.53-.303-.923-.215-.425-.398-.919-.34-.919.035 0 .193.197.311.39.231.374.538.722.802.909.252.178.403.303.403.333 0 .017-.036.056-.08.087l-.08.057.047.2c.14.586.149 1.052.03 1.505-.08.307-.1.529-.066.709.05.26.182.4.411.438.157.025.214.064.245.167.039.13-.011.23-.243.483a1.399 1.399 0 0 0-.234.309c-.033.085-.033.095 0 .145.045.069.09.085.284.103.086.008.162.02.168.026.022.022-.15.154-.228.176-.127.035-.299.026-.375-.021-.217-.132-.195-.38.057-.673.185-.214.225-.322.166-.451-.026-.056-.04-.063-.175-.086a.7.7 0 0 1-.163-.055c-.076-.038-.098-.07-.158-.227l-.02-.051-.036.051c-.02.028-.1.165-.177.303-.132.237-.162.275-.48.593a4.031 4.031 0 0 0-.352.379.304.304 0 0 0 .004.11c.012.058.029.076.078.09.105.027.29.15.342.227.1.148.019.285-.259.436-.123.067-.148.09-.154.14-.005.045.01.078.06.129.055.057.06.07.03.081-.059.023-.142.013-.257-.031zm-1.13-.966c.225-.032.377-.076.587-.169.818-.363 1.266-.833 1.655-1.733.23-.535.278-.755.277-1.263-.001-.343-.038-.652-.101-.845a3.264 3.264 0 0 0-.138-.311c-.182-.369-.231-.392-.09-.043.197.485.202.508.213.921.012.449-.019.782-.1 1.099-.166.64-.476 1.162-.927 1.559a3.585 3.585 0 0 1-.66.46c-.505.25-1.258.293-1.841.107-.17-.054-.225-.05-.15.012.112.09.69.223.98.226.081 0 .214-.008.295-.02zm-4.451-.743a1.957 1.957 0 0 1-.252-.135 1.213 1.213 0 0 0-.241-.121c-.083-.017-.149.036-.187.148-.034.099-.065.106-.123.028-.09-.12-.037-.387.091-.454.11-.058.223-.015.458.174.075.06.108.073.191.073.203 0 .251-.163.14-.478a1.131 1.131 0 0 1-.054-.185c0-.064.064-.155.157-.222.07-.05.09-.075.074-.094-.036-.042-.37-.177-.44-.177a1.68 1.68 0 0 0-.266.052c-.24.062-.307.065-.35.016a.454.454 0 0 1-.08-.26c0-.054-.013-.093-.04-.116a7.007 7.007 0 0 1-.096-.085c-.031-.029-.062-.047-.068-.04-.021.02-.092-.033-.133-.1-.077-.127-.028-.351.096-.441l.052-.038v.083c0 .122.014.145.14.225.118.076.166.152.146.233a.265.265 0 0 0 .056.22c.038.04.059.044.161.034.065-.006.167-.022.226-.035l.109-.025-.048-.179c-.062-.23-.104-.274-.292-.306-.115-.019-.152-.035-.194-.085-.028-.033-.051-.073-.051-.088s.028-.09.063-.166a.875.875 0 0 0 .063-.169c0-.016-.042-.064-.093-.106-.11-.09-.134-.164-.088-.273.04-.096.111-.106.122-.019.006.05.018.06.09.071a.256.256 0 0 1 .192.18.425.425 0 0 1-.043.172c-.066.157-.067.182-.007.223.077.054.134.041.185-.04a.578.578 0 0 1 .144-.14c.13-.089.192-.146.192-.179 0-.015-.056-.065-.124-.112-.162-.11-.217-.19-.229-.327-.008-.099-.003-.116.059-.186.065-.074.072-.077.21-.077.218 0 .234.013.129.104-.104.088-.157.214-.123.29a.94.94 0 0 0 .176.174c.207.17.207.218.006.431-.138.148-.188.239-.188.344 0 .34.403.586.818.5a.995.995 0 0 0 .244-.085c.198-.116.396-.403.495-.717.036-.115.05-.229.063-.525.017-.4.028-.448.145-.68.066-.131.174-.255.328-.375l.084-.066-.047-.065a.244.244 0 0 1-.048-.11v-.047l.342.013c.77.029 1.267-.064 1.625-.304.368-.246.555-.573.56-.981 0-.078.008-.16.018-.183.015-.037.023-.03.061.052.035.075.044.137.044.295.001.763-.43 1.234-1.369 1.492a5.347 5.347 0 0 0-.38.116.487.487 0 0 0-.26.254c-.02.052-.048.094-.063.094-.014 0-.063-.044-.108-.097l-.083-.098-.065.034a.6.6 0 0 0-.237.286 3.94 3.94 0 0 0-.043.401c-.04.567-.089.759-.263 1.032-.097.152-.176.237-.407.439-.166.145-.234.235-.234.313 0 .027.02.107.045.179.038.11.041.143.021.216-.025.09-.085.135-.183.135-.058 0-.065-.033-.019-.094.045-.059.04-.081-.043-.18-.05-.06-.073-.109-.073-.155 0-.106-.026-.118-.186-.081-.166.037-.269.086-.339.161-.066.07-.08.248-.034.412.073.253.082.341.048.424a.398.398 0 0 1-.247.193.295.295 0 0 1-.128-.015zm.796-1.414a.94.94 0 0 0 .443-.204c.248-.189.465-.53.55-.866.022-.085.051-.309.064-.498.025-.352.044-.467.098-.571a.755.755 0 0 1 .285-.28c.115-.059.49-.17.88-.263.32-.076.399-.1.399-.124 0-.01-.064 0-.142.022a5.948 5.948 0 0 1-.478.094c-.437.07-.583.104-.714.17a.64.64 0 0 0-.3.29c-.063.123-.143.47-.175.76-.065.59-.085.664-.237.877-.193.27-.381.411-.72.542-.226.088-.21.105.047.051zm1.372 1.08a2.605 2.605 0 0 1-.18-.083c-.052-.034.045-.62.17-1.035.158-.518.35-.91.612-1.243.257-.328.255-.322.166-.434-.104-.13-.097-.158.048-.198.494-.135.602-.19.92-.47.329-.288.63-.673.772-.986.182-.403.152-.88-.079-1.235-.094-.145-.131-.233-.108-.256.027-.027.128.02.216.102.112.103.217.31.282.553.066.245.081.665.032.886-.085.382-.277.712-.675 1.155-.4.447-.586.719-.662.972-.015.05-.036.09-.047.09a.447.447 0 0 1-.114-.076l-.093-.077-.075.071c-.207.199-.604.926-.762 1.397a2.238 2.238 0 0 0-.118.547 7.654 7.654 0 0 1-.043.341c-.014.065-.07.06-.262-.022zm.08-.21a.8.8 0 0 0 .045-.195 4.25 4.25 0 0 1 .848-1.949c.187-.242.255-.31.574-.575.253-.21.45-.4.645-.626.111-.127.114-.157.005-.062l-.462.393c-.779.659-.93.832-1.225 1.414a9.72 9.72 0 0 0-.267.564 4.382 4.382 0 0 0-.222.806c-.031.204-.004.31.059.23zm4.392-4.017a1.171 1.171 0 0 1-.023-.11c-.025-.153-.064-.195-.353-.383-.309-.201-.481-.338-.613-.487-.1-.114-.188-.235-.177-.245.004-.004.093.03.197.074.221.096.326.104.546.04.15-.042.191-.032.17.043a2.784 2.784 0 0 0-.024.092l-.015.061.114-.015c.2-.026.44-.164.467-.268.01-.034-.008-.066-.068-.126-.07-.07-.094-.08-.177-.08-.136 0-.143-.035-.03-.138.22-.199.36-.207.55-.032l.091.085.076-.031a.566.566 0 0 1 .18-.032c.089 0 .118.01.18.065.094.082.101.16.017.178-.118.027-.133.035-.182.1a.893.893 0 0 0-.097.225c-.08.273-.174.39-.448.55-.073.044-.101.075-.117.133-.032.118-.118.249-.19.29-.051.03-.067.033-.074.011zm.21-.729c.139-.063.358-.332.342-.42-.005-.023-.026-.003-.064.062a.714.714 0 0 1-.31.28c-.083.038-.134.044-.4.043h-.305l.115.035c.165.052.507.052.621 0zm-3.051.56a.661.661 0 0 1-.015-.11c-.006-.081-.01-.085-.084-.091a.514.514 0 0 0-.155.015c-.06.016-.091.014-.14-.01-.058-.031-.064-.03-.137.034-.145.128-.294.159-.391.082a.267.267 0 0 1-.083-.238c.013-.065.018-.066.122-.022.095.04.198.026.251-.033.053-.058.068-.16.047-.31-.018-.12-.015-.142.035-.244a.534.534 0 0 1 .123-.162c.078-.059.19-.065.606-.032.218.016.221.016.278-.037a.353.353 0 0 0 .081-.151c.038-.15.072-.086.07.132-.004.411-.156.521-.488.354-.202-.102-.256-.099-.388.025-.048.045-.058.072-.058.157 0 .089.009.112.065.165.036.033.086.06.11.06a.942.942 0 0 1 .314.142c.026.024.037.065.037.146 0 .102-.005.115-.054.134-.074.028-.135.026-.146-.006zm-.845-.852a3.027 3.027 0 0 0-.073-.167c-.07-.148-.078-.153-.39-.205-.35-.059-.517-.153-.616-.348-.09-.176-.08-.287.063-.62.1-.233.123-.378.076-.469-.06-.114-.198-.21-.433-.3-.412-.16-.48-.229-.547-.56l-.037-.184-.154-.026c-.361-.061-.792-.387-.896-.678a.69.69 0 0 1 .027-.455c.137-.369.138-.376.113-.47-.03-.114-.091-.18-.336-.367-.248-.19-.28-.233-.291-.39l-.01-.124.123-.014c.165-.02.274.037.432.225.137.163.209.299.273.514.115.386.471.8.792.923l.095.037.047-.059.046-.059.082.052a1.1 1.1 0 0 0 .382.169l.089.011v-.084c0-.073.005-.082.037-.07.079.035.249.074.317.074.053 0 .073-.01.082-.042.01-.039.028-.042.23-.042a.88.88 0 0 1 .339.044c.066.025.187.053.268.062.193.021.208.029.24.12.017.045.109.16.224.278.15.155.21.235.26.344.035.078.089.175.12.217.049.063.063.112.084.289l.025.213.095.084a.371.371 0 0 1 .121.175.42.42 0 0 0 .117.177.382.382 0 0 1 .103.15c.025.116.063.14.223.14.135 0 .144.002.144.047 0 .07-.073.177-.167.241-.08.055-.084.064-.085.168 0 .127-.03.153-.166.153-.077 0-.086.006-.107.072a.411.411 0 0 1-.075.126c-.041.045-.07.055-.155.055-.058 0-.11-.01-.117-.02-.007-.01.017-.047.051-.082.048-.048.064-.083.064-.141 0-.083-.022-.109-.21-.247-.069-.05-.1-.092-.118-.152-.017-.063-.052-.106-.144-.178a.722.722 0 0 1-.15-.148c-.016-.032-.069-.07-.132-.095-.084-.033-.155-.095-.361-.315a4.721 4.721 0 0 0-.287-.29c-.073-.042-.068.004.011.103.102.128.116.163.184.449.062.264.11.354.225.43.084.055.108.057.217.023.04-.012.047-.005.053.045.006.05.018.061.075.067.058.006.069.015.069.06 0 .05.005.053.079.04l.078-.015-.072.075c-.069.071-.08.075-.21.075-.233-.001-.34-.073-.494-.33-.091-.154-.163-.217-.247-.217h-.06v.201c0 .111.01.219.02.24.029.052.14.088.226.072.06-.01.07-.007.07.028 0 .088-.184.195-.334.195-.067 0-.094-.012-.137-.063-.076-.09-.087-.184-.046-.391.034-.17.034-.182-.003-.255-.045-.09-.072-.098-.091-.027a4.231 4.231 0 0 1-.123.297 1.84 1.84 0 0 0-.108.281c0 .061.083.178.152.214.036.018.184.045.334.061.345.036.419.073.491.246.044.105.04.19-.01.29-.047.093-.058.1-.077.047zm2.509-.436c-.123-.05-.266-.15-.28-.194-.006-.015.074-.026.24-.031.279-.01.358-.037.429-.15.042-.067.045-.196.008-.293-.012-.03-.002-.037.054-.037.068 0 .21.071.21.106 0 .033.155.125.21.126.07 0 .219.086.227.131.006.03-.009.037-.084.038-.127 0-.216.037-.441.18-.317.201-.362.21-.573.124zm-.37-.371c-.109-.02-.253-.08-.253-.105 0-.009.036-.023.079-.03.142-.025.225-.05.276-.086.059-.041.108-.15.108-.24 0-.078.04-.098.127-.062.184.076.153.397-.048.489a.445.445 0 0 1-.29.034zm-.349-.259c-.022-.016-.036-.033-.03-.038.006-.004.037-.025.07-.045a.4.4 0 0 0 .113-.153c.064-.141.102-.16.167-.083.095.11.049.256-.1.316-.102.04-.167.042-.22.004zm-6.256-.903c0-.016.023-.083.052-.148.064-.143.065-.192.012-.28-.055-.09-.126-.123-.35-.165a1.32 1.32 0 0 1-.263-.073c-.166-.085-.293-.317-.293-.534 0-.277.183-.612.454-.834.167-.136.238-.235.2-.28a1.084 1.084 0 0 0-.17-.108c-.186-.102-.306-.227-.324-.339-.018-.108.035-.304.12-.447.108-.18.31-.385.449-.455.073-.037.197-.133.304-.236.1-.096.19-.174.2-.174a.37.37 0 0 0 .095-.081c.072-.077.09-.084.309-.125a1.72 1.72 0 0 0 .287-.072c.055-.029.06-.025.231.142.2.195.234.271.164.365a.335.335 0 0 1-.13.088.492.492 0 0 0-.159.11c-.089.097-.148.11-.29.07a1.153 1.153 0 0 0-.135-.034c-.01 0-.039.04-.063.09a.838.838 0 0 1-.322.363c-.3.192-.308.37-.024.56.224.15.298.252.298.411 0 .085-.02.136-.127.322-.087.153-.123.235-.115.268a1.7 1.7 0 0 0 .133.244c.19.309.21.419.098.53-.088.088-.116.07-.116-.079 0-.129 0-.131-.097-.215-.28-.244-.301-.28-.262-.425.012-.045.057-.139.1-.208.151-.245.175-.305.175-.433 0-.111-.006-.128-.072-.192a1.361 1.361 0 0 0-.211-.152c-.236-.138-.319-.276-.264-.441.014-.043.106-.163.213-.28.103-.112.207-.243.23-.29.07-.146.044-.223-.03-.086a1.45 1.45 0 0 1-.252.247c-.341.282-.44.409-.44.57 0 .107.042.162.232.307.202.153.217.17.23.275.024.176 0 .223-.255.484a2.63 2.63 0 0 0-.274.315.757.757 0 0 0-.047.232c-.009.143-.005.167.04.233.076.112.166.16.491.263.344.109.41.158.41.305 0 .117-.03.179-.135.28-.114.11-.307.181-.307.112zm1.178-.37c-.041-.078-.02-.162.105-.422.16-.332.162-.368.017-.488-.31-.255-.327-.337-.144-.654.122-.211.146-.307.099-.406a2.084 2.084 0 0 0-.24-.295 3.618 3.618 0 0 1-.243-.28.365.365 0 0 1-.015-.296c.034-.083.07-.055.117.091.055.17.123.272.233.35.138.096.236.19.272.258.05.095.036.25-.044.488-.116.35-.099.454.11.644.17.153.237.257.237.36 0 .113-.044.191-.213.372-.095.102-.151.182-.166.237-.024.092-.087.112-.125.041zm-.41-.968c-.108-.11-.106-.194.01-.468.091-.218.112-.368.063-.459a2.34 2.34 0 0 0-.212-.244c-.214-.225-.253-.309-.21-.452.027-.09.236-.336.25-.295a.365.365 0 0 1-.026.118.837.837 0 0 0-.033.223v.126l.21.207c.116.114.225.241.242.283.04.095.041.293.002.367a3.239 3.239 0 0 1-.128.203c-.085.127-.097.158-.09.232a.69.69 0 0 0 .045.164c.033.075.033.079-.003.079-.021 0-.075-.038-.12-.084zm3.78-.453c-.163-.036-.365-.142-.447-.235-.068-.078-.085-.189-.032-.21.05-.018.209.07.349.195.071.064.18.15.243.191a.85.85 0 0 1 .113.083c0 .014-.095.004-.225-.024zm1.16.002a1.072 1.072 0 0 1-.224-.092c-.174-.098-.534-.334-.55-.36-.022-.035.108-.029.242.01.125.038.84.402.84.429 0 .045-.149.051-.308.013zm-.525-.012a1.162 1.162 0 0 1-.414-.142c-.144-.075-.299-.22-.283-.265.01-.028.16-.022.244.01.07.027.61.381.611.402.001.017-.005.017-.158-.005zm-2.27-.108-.186-.107-.036.047-.036.048-.136-.077c-.293-.163-.47-.386-.607-.763-.105-.289-.147-.358-.362-.59-.207-.222-.231-.271-.162-.327.085-.069.154-.05.255.071.13.154.386.368.528.44.162.082.395.159.634.208.234.048.424.111.497.166.048.035.053.054.054.194 0 .145.009.17.11.366.06.116.114.252.122.303l.015.092-.082-.015a1.305 1.305 0 0 1-.203-.064l-.121-.048-.013.055c-.03.139-.03.139-.27.001zm3.416.087c-.112-.02-.168-.047-.44-.211a3.005 3.005 0 0 0-.373-.19c-.23-.09-.227-.125.013-.125.177 0 .314.043.67.21.281.132.468.192.655.21.004 0-.003.014-.017.03-.048.058-.351.104-.508.076zm-2.495-.106c-.126-.072-.217-.18-.223-.266-.004-.053.002-.06.054-.056a.23.23 0 0 1 .108.043c.054.043.286.31.286.33 0 .034-.128.004-.224-.05zm3.01-.094a4.27 4.27 0 0 1-.41-.17 6.98 6.98 0 0 0-.45-.19c-.164-.058-.202-.083-.144-.1.184-.052.358-.03.814.104.175.052.399.108.497.125.226.04.32.07.31.101a.37.37 0 0 1-.097.087c-.079.056-.11.064-.251.068a1.063 1.063 0 0 1-.27-.025zm.407-.357c-.399-.137-.585-.18-.852-.198-.222-.015-.263-.042-.137-.092.264-.104.57-.099 1.037.016.44.11.598.136.799.138.203.002.273.018.228.055-.046.037-.27.126-.41.162-.214.056-.301.045-.665-.08zm-3.298.004c-.09-.045-.168-.144-.125-.159a.54.54 0 0 1 .132.016c.129.027.29.142.243.172-.05.032-.154.02-.25-.029zm-.357-.008c-.074-.05-.105-.092-.105-.148 0-.066.051-.082.117-.039.057.037.136.151.136.196 0 .037-.087.032-.148-.008zm.821.012c-.131-.053-.169-.145-.058-.145.17 0 .455.1.425.148-.016.026-.3.024-.367-.003zm.452-.103c-.098-.065-.081-.095.053-.094.127.001.343.062.38.107.02.024-.008.029-.173.029-.16 0-.208-.008-.26-.042zm.49-.091c-.174-.04-.19-.067-.054-.097.142-.032.514.046.439.092-.048.03-.264.032-.385.004zm2.76-.071c-.04-.004-.277-.045-.526-.09a17.278 17.278 0 0 0-.641-.107c-.28-.035-.281-.057-.011-.158.214-.08.463-.08.978.002.313.05.448.06.783.062.47.002.51.015.352.115-.251.16-.558.217-.935.176zm-4.386-.021c-.106-.026-.071-.049.075-.049.616 0 1.11-.121 1.713-.42.316-.157.572-.25.786-.282.065-.01.089-.007.083.01-.004.014-.226.136-.491.27-.5.254-.863.395-1.18.455-.152.03-.882.04-.986.016zm1.956-.073c-.144-.028-.16-.052-.061-.094.067-.028.127-.032.314-.023.245.012.311.027.299.065-.024.072-.304.099-.552.052zm-2.046-.184c-.125-.032-.123-.038.068-.144.078-.044.11-.047.44-.047.348 0 .356 0 .32.04a.668.668 0 0 1-.162.096c-.107.048-.162.058-.362.065-.129.004-.266 0-.304-.01zm2.46-.044c-.181-.027-.175-.052.034-.127.114-.04.159-.046.326-.035.193.011.314.039.276.062-.03.02-.345.095-.44.106a.83.83 0 0 1-.195-.007zM10.07 6.14c-.027-.01-.044-.028-.037-.038.024-.04.204-.108.316-.121.157-.019.16.031.006.104-.135.065-.221.081-.285.055zm5.17-.094a14.156 14.156 0 0 0-.941-.073c-.066 0-.013-.043.147-.116.222-.103.368-.113.873-.063.624.062 1.202.02 1.5-.11.07-.03.132-.048.14-.04.022.022-.13.166-.257.243-.064.038-.18.094-.258.124-.133.05-.169.054-.573.059a4.391 4.391 0 0 1-.63-.024zM9.554 6.02c-.017-.027.032-.047.11-.047a.709.709 0 0 0 .376-.145c.21-.166.33-.444.366-.844.026-.294.062-.401.17-.52.093-.1.133-.115.112-.043a3.052 3.052 0 0 0-.108.53c-.063.488-.128.658-.33.86a.725.725 0 0 1-.51.22c-.107.006-.178.002-.186-.011zm4.018-.11c-.234-.024-.238-.044-.025-.124a2.12 2.12 0 0 1 .662-.055c.084.014.086.016.052.054-.103.113-.357.16-.689.125zm-2.717-.02c-.037-.014-.028-.024.064-.07.133-.068.176-.075.58-.098.285-.016.338-.024.413-.067.048-.028.093-.043.101-.034.028.027-.061.102-.21.177-.13.066-.17.075-.4.092-.307.022-.492.022-.548 0zm-.404-.057c-.01-.024.007-.054.05-.093.073-.064.286-.151.35-.142.04.006.039.01-.013.07a.77.77 0 0 1-.315.187c-.044.01-.062.005-.072-.022zm-1.075-.121a.593.593 0 0 0-.192-.096c-.144-.035-.187-.09-.233-.302-.062-.28-.127-.372-.3-.424-.089-.027-.099-.026-.133.011-.02.023-.052.041-.072.041-.035 0-.207-.168-.28-.273-.034-.05-.037-.05-.095-.016-.048.028-.337.078-.46.079a.237.237 0 0 0-.087.052c-.081.069-.096.067-.08-.013a.587.587 0 0 1 .132-.193c.147-.159.17-.211.188-.444.02-.24.055-.287.256-.335.078-.02.163-.035.189-.035.073 0 .114.087.135.29.017.16.027.19.075.23l.056.045-.078.046c-.042.025-.077.054-.077.065 0 .051.126.129.293.179.304.093.334.115.596.45.103.13.22.204.354.222.112.015.186-.033.253-.166.04-.076.043-.108.03-.287l-.014-.2.063-.07c.05-.054.08-.068.145-.068.104 0 .118.016.075.082-.044.067-.043.208.003.297.045.088.048.235.005.3a.847.847 0 0 0-.069.175c-.042.148-.096.214-.19.231a.832.832 0 0 0-.21.106.836.836 0 0 1-.165.092.409.409 0 0 1-.113-.071zM8.08 4.233c.038-.025.072-.105.06-.138-.006-.016-.036-.04-.066-.054-.102-.047-.186.057-.14.175.012.034.104.045.146.017zm4.741 1.489c0-.059.4-.241.684-.313.092-.024.286-.065.431-.091.25-.047.31-.049 1.273-.05.968 0 1.018-.003 1.23-.048.349-.076.839-.277 1.029-.421l.072-.055-.011.098c-.033.285-.31.563-.69.69a3.163 3.163 0 0 1-.831.14c-.292.013-1.02-.019-1.304-.058a9.597 9.597 0 0 0-.642-.033l-.494-.013-.354.087c-.388.096-.393.097-.393.067zm-1.767-.112c0-.036.075-.105.159-.147.079-.04.301-.087.62-.13a2.91 2.91 0 0 0 .384-.077.46.46 0 0 1 .155-.033c.026.026-.086.145-.186.195-.149.076-.365.127-.703.165-.16.019-.323.039-.36.045-.05.008-.069.003-.069-.018zm-.441-.092c0-.028.139-.155.27-.247.103-.072.117-.076.147-.046.03.03.027.039-.029.097-.12.125-.388.26-.388.196zm2.398-.078c0-.071.414-.34.699-.454.285-.114.756-.193 1.383-.233.495-.03.812-.07 1.275-.158.836-.158 1.212-.346 1.426-.712a.521.521 0 0 1 .1-.139c.01 0 .018.055.018.122 0 .61-.563 1.018-1.64 1.192-.122.02-.482.04-.926.053-.836.024-1.42.056-1.63.088a1.59 1.59 0 0 0-.414.146 5.101 5.101 0 0 1-.28.124c-.006 0-.011-.013-.011-.03zm-1.842-.141c-.024-.038.168-.201.292-.248.063-.023.223-.058.354-.076.49-.068.696-.12.755-.19.034-.042.062-.04.062.004 0 .055-.191.226-.322.288-.141.067-.408.13-.625.15a2.37 2.37 0 0 0-.314.054c-.182.048-.184.048-.202.018zm-.472-.098c0-.092.409-.487.455-.441.007.007-.016.073-.05.147-.064.137-.112.183-.273.265-.092.046-.132.055-.132.029zm2.526-.155c.167-.21.335-.352.551-.462.252-.128.296-.164.365-.3.05-.097.054-.1.091-.067.021.02.045.058.052.086.008.032.028.051.053.051.074 0 .758-.148.848-.183.195-.077.31-.188.31-.3 0-.097.092-.032.16.114.052.109.111.123.342.083.341-.06.796-.21 1.06-.35.15-.08.362-.3.394-.41.012-.044.034-.157.047-.253.015-.1.034-.17.047-.167.055.019.202.234.234.344.094.323-.151.73-.571.947-.304.158-.621.23-1.44.333-1.774.22-2.061.278-2.31.461-.237.175-.34.207-.233.073zm-6.387.016c-.014-.057.026-.165.105-.28.068-.101.067-.113-.005-.113-.08 0-.092-.016-.057-.083.05-.097.09-.116.227-.11l.126.007-.017-.07c-.032-.13-.017-.28.057-.57.025-.099.126-.218.164-.195.03.02.023.099-.032.355-.039.182-.023.267.051.267.068 0 .082-.045.092-.295.01-.228.016-.253.098-.434a.816.816 0 0 0 .086-.279c0-.094.024-.107.098-.056.052.037.202.263.249.375l.033.079h-.057a.424.424 0 0 0-.29.167.722.722 0 0 0-.117.367c0 .12-.059.236-.193.381-.122.132-.185.234-.185.3 0 .049-.157.203-.188.184-.012-.008-.022-.032-.022-.055 0-.062-.047-.048-.112.033-.069.087-.093.092-.11.024zm4.408-.12c0-.04.065-.148.14-.23.1-.112.237-.16.611-.21.509-.071.659-.102.774-.158.14-.069.162-.068.145.004-.024.101-.11.19-.245.256-.129.062-.304.101-.815.181-.134.02-.291.063-.4.107-.194.078-.21.082-.21.05zM9.28 4.837a.963.963 0 0 1-.14-.175c-.143-.212-.141-.211-.336-.195a.82.82 0 0 1-.2 0c-.053-.02-.04-.063.029-.092.034-.014.115-.067.18-.118.132-.101.168-.11.275-.058.092.044.123.089.178.26.051.158.126.243.187.211.104-.056.19-.222.19-.37 0-.186.237-.259.4-.122.089.075.08.105-.034.118-.134.015-.19.065-.297.259-.123.223-.186.285-.303.296a.263.263 0 0 1-.129-.014zm1.486-.067c.026-.13.202-.352.33-.417.107-.055.167-.054.167.002 0 .101-.139.26-.355.406-.14.095-.16.096-.142.008zm.623-.301c0-.006.013-.038.03-.069.084-.163.322-.273.759-.35.463-.084.85-.166.946-.203a.906.906 0 0 1 .121-.04c.033 0 .014.06-.043.139-.119.163-.374.255-.909.325-.403.054-.474.07-.668.147-.145.058-.236.077-.236.05zm-.56-.082c-.02-.052.072-.216.172-.303.13-.115.346-.227.368-.191.046.074-.201.35-.422.47-.09.048-.107.052-.118.024zm-.366-.022a1 1 0 0 1 .09-.208c.157-.305.495-.592.999-.851.411-.211.846-.365 2.05-.727.895-.27 1.268-.41 1.43-.54.096-.076.105-.077.088-.004-.082.342-.576.715-1.3.983-.219.081-.726.225-1.495.422-1.063.274-1.443.449-1.701.784-.119.155-.16.192-.16.141zm-1.087-.122a1.757 1.757 0 0 1-.11-.149c-.07-.103-.172-.166-.232-.144a.726.726 0 0 0-.119.082.657.657 0 0 1-.154.093c-.094.033-.157-.017-.265-.213-.084-.15-.105-.173-.186-.198-.057-.018-.007-.07.083-.087.095-.018.174.033.277.18.044.064.1.118.122.122.024.003.094-.038.172-.1.114-.093.142-.106.226-.106.08 0 .11.012.175.072l.078.072.01.212c.012.226 0 .25-.077.164zm2.084-.13c-.017-.044.042-.142.137-.228.181-.164.498-.276 1.107-.392.434-.083.754-.168.987-.262.103-.042.19-.072.195-.068.02.02-.024.12-.095.213-.153.202-.42.3-1.14.42-.602.102-.894.18-1.058.284-.115.073-.117.074-.133.034zm-1.039-.051c0-.107.08-.327.17-.465.17-.262.48-.541.827-.746.502-.295.905-.466 1.938-.82 1.984-.682 2.089-.726 2.4-1.008.165-.148.201-.121.102.076-.133.264-.578.655-.97.853-.186.094-.646.26-1.732.625-1.198.403-1.708.615-2.093.87-.214.141-.442.366-.539.532a.944.944 0 0 1-.093.143c-.005 0-.01-.027-.01-.06zm-.092-.217c-.02-.133.02-.413.084-.58.085-.228.17-.353.407-.6.124-.13.236-.255.248-.278a.618.618 0 0 0 .035-.147c.019-.133.032-.179.052-.179.01 0 .047.042.084.094l.067.094.246-.15c.313-.188.48-.273.678-.344.236-.085.507-.228.582-.307a.362.362 0 0 0 .09-.191c.032-.153.072-.158.131-.017.024.058.06.11.08.116.02.006.173-.031.34-.084a18 18 0 0 1 .502-.15c.375-.1.915-.265 1.068-.325.462-.183.727-.383.94-.708.033-.049.066-.09.075-.09.032 0 .042.148.02.284-.073.459-.343.735-.957.98-.167.066-1.2.428-1.945.682-1.098.374-1.872.762-2.27 1.138a2.206 2.206 0 0 0-.522.808c-.019.049-.022.045-.035-.046z"/></svg>