<svg role="img" viewBox="0 0 24 24" xmlns="http://www.w3.org/2000/svg"><path d="M10.788 19.295c-.222-.021-.408-.083-.68-.225-.268-.14-.497-.32-.788-.616a4.936 4.936 0 0 1-.458-.537 6.665 6.665 0 0 1-.564-.87 12.011 12.011 0 0 1-.55-1.079c-.107-.239-.34-.807-.34-.828 0-.006.119.106.263.25.411.408.678.634 1.027.868.26.174.339.222.544.324.15.076.393.16.616.213.134.032.146.033.383.034.278 0 .39-.014.579-.075a3.08 3.08 0 0 0 .834-.471 6.76 6.76 0 0 0 .584-.564c.26-.291.715-.893 1.009-1.334.058-.088.136-.203.173-.257l.067-.096-.047-.127a2.699 2.699 0 0 1-.063-.18 3.39 3.39 0 0 0-.07-.201 5.66 5.66 0 0 1-.08-.229 15.545 15.545 0 0 0-.107-.313l-.113-.335a4.642 4.642 0 0 0-.072-.207 2.496 2.496 0 0 1-.059-.172l-.018-.065.053-.068c.03-.037.087-.12.13-.183a7.83 7.83 0 0 1 .2-.281 130.246 130.246 0 0 0 .604-.82c.258-.364.376-.526.613-.847l.088-.119.033.098c.081.238.196.4.387.543.095.073.29.176.332.176a.2.2 0 0 1 .052.014c.105.044.3.085.463.098l.098.007V6.942l.242-.121c.133-.067.34-.176.46-.243.12-.066.258-.141.308-.166.05-.025.2-.103.332-.173l.242-.127v4.706h1.297c.713 0 1.297-.002 1.297-.004 0-.024-.234-.51-.279-.58a1.689 1.689 0 0 1-.07-.123 1.868 1.868 0 0 0-.155-.244.692.692 0 0 1-.05-.075.89.89 0 0 0-.074-.1 2.784 2.784 0 0 0-.567-.573 2.77 2.77 0 0 1-.12-.077 1.823 1.823 0 0 0-.104-.065 1.518 1.518 0 0 0-.185-.083c-.005 0 .001-.037.015-.082.035-.115.077-.266.111-.39.036-.132.076-.276.117-.415l.182-.643a9.17 9.17 0 0 1 .138-.48l.036-.113.043-.005.77-.119a3499.727 3499.727 0 0 1 2.987-.465c.72-.113.803-.12.904-.07.089.044.146.115.186.232.018.05.02.086.02.25a1.094 1.094 0 0 1-.019.25 4.61 4.61 0 0 0-.055.286 6.242 6.242 0 0 1-.058.308 7.4 7.4 0 0 0-.063.33 6.188 6.188 0 0 1-.054.287 8.53 8.53 0 0 0-.064.345c-.057.33-.083.452-.095.452a.925.925 0 0 1-.026-.162c-.026-.231-.045-.329-.08-.407a3.678 3.678 0 0 1-.026-.058.327.327 0 0 0-.025-.044l-.035-.051a.442.442 0 0 0-.176-.11c-.095-.032-.226-.023-.733.046a26.49 26.49 0 0 1-.414.054c-.185.02-.407.054-.663.1a5.36 5.36 0 0 1-.283.047c-.026 0-.22.042-.228.05a.472.472 0 0 0 .07.081c.213.219.32.42.44.831.14.483.173 1.158.09 1.819a8.354 8.354 0 0 1-.307 1.349 5.506 5.506 0 0 1-.717 1.413c-.19.276-.538.593-.826.753-.251.14-.48.2-.77.199a2.54 2.54 0 0 1-.266-.015c-.316-.04-.735-.249-1.098-.547a1.24 1.24 0 0 0-.147-.11 2.878 2.878 0 0 0-.139.08c-.233.14-.653.353-.8.406a5.56 5.56 0 0 1-.627.19 5.787 5.787 0 0 1-.32.04c-.232.023-.26.023-.52.012a3.037 3.037 0 0 1-.457-.045 5.272 5.272 0 0 0-.192-.032c-.006 0-.04.099-.073.22a14.15 14.15 0 0 1-.65 1.893A8.013 8.013 0 0 1 13 17.948c-.214.339-.549.716-.804.908-.37.277-.55.36-.923.43-.155.028-.27.03-.486.01zm-.05-3.551a4.565 4.565 0 0 0-.013-.637 1.015 1.015 0 0 0-.098-.297c-.071-.107-.146-.15-.302-.174a.815.815 0 0 0-.284.002c-.172.019-.461.056-.682.089-.437.063-1.14.074-1.457.023a.536.536 0 0 1-.266-.129.557.557 0 0 1-.127-.203c-.034-.051-.048-.316-.027-.512a.924.924 0 0 0 .007-.087 9.828 9.828 0 0 1-1.558.815 17.48 17.48 0 0 1-.75.27c-.377.12-1.113.284-1.503.336-.417.054-.49.059-.904.059-.344 0-.425-.003-.59-.024a2.954 2.954 0 0 1-1.06-.307 1.88 1.88 0 0 1-.98-1.104A2.57 2.57 0 0 1 0 12.963c0-.176.004-.222.032-.383a4.27 4.27 0 0 1 .133-.576 8.306 8.306 0 0 1 .766-1.792 8.681 8.681 0 0 1 .717-1.094c.09-.12.182-.242.201-.271.047-.07.223-.28.351-.42a7.46 7.46 0 0 0 .178-.202c.084-.1.343-.361.343-.345a.42.42 0 0 1-.036.074l-.083.15A16.444 16.444 0 0 0 1.82 9.58c-.053.122-.191.485-.22.579-.089.282-.123.57-.084.701a.391.391 0 0 0 .193.207c.043.015.31.016 2.539.016 1.777 0 2.506-.003 2.546-.011.048-.01.065-.021.113-.072a.31.31 0 0 0 .098-.195l.01-.061-.123-.247a5.682 5.682 0 0 0-.188-.354 4.079 4.079 0 0 0-.5-.688 2.585 2.585 0 0 0-.56-.428 3.433 3.433 0 0 1-.113-.056l-.054-.03.05-.21a18.699 18.699 0 0 0 .227-.917c.015-.064.035-.138.044-.164a6.56 6.56 0 0 0 .08-.317c.035-.148.075-.306.089-.351a1.71 1.71 0 0 0 .039-.146l.013-.064.123-.018a9.21 9.21 0 0 0 .283-.05c.088-.017.281-.05.43-.073.15-.024.318-.053.376-.064.057-.012.23-.041.382-.065.154-.024.339-.055.412-.07.074-.014.22-.04.325-.057.104-.017.225-.039.268-.048.043-.009.213-.037.377-.063.165-.027.348-.058.406-.07.059-.012.243-.043.41-.07.166-.026.362-.059.435-.074a.55.55 0 0 1 .218-.016c.218.026.376.097.459.206.077.102.11.197.132.374.01.088.01.132-.005.26a1.735 1.735 0 0 1-.038.229c-.021.074-.05.185-.085.335a7.687 7.687 0 0 1-.092.356c-.02.07-.045.166-.057.212-.044.177-.076.3-.095.372a2.33 2.33 0 0 0-.04.168c-.02.1-.04.12-.05.048a1.627 1.627 0 0 0-.022-.12 6.221 6.221 0 0 1-.028-.128.734.734 0 0 0-.053-.138c-.036-.074-.05-.09-.1-.124a.343.343 0 0 0-.104-.046c-.032-.006-.34.036-1.184.161l-1.14.169.082.085c.08.082.103.111.183.238.047.074.128.231.159.309.026.067.088.285.105.372.036.178.065.501.065.712a5.881 5.881 0 0 1-.074.885c0 .017.078.019 1.39.021 1.057.002 1.398.006 1.426.016.07.024.139.107.181.216.066.167.097.605.058.817l-.127.602c-.061.28-.118.555-.128.61-.01.056-.09.441-.18.856s-.172.8-.181.856a16.87 16.87 0 0 1-.185.843c-.004.005-.004-.024.001-.063zm-8.101-4.816c.125-.127.236-.268.28-.354a.893.893 0 0 0 .077-.285.908.908 0 0 0-.068-.386.546.546 0 0 1-.035-.098.705.705 0 0 0-.046-.116c-.08-.17-.088-.26-.04-.381.068-.165.127-.284.171-.343a1.4 1.4 0 0 1 .388-.336.512.512 0 0 0 .066-.045c.011-.01.025-.019.03-.019a.361.361 0 0 0 .072-.036c.1-.06.588-.248.693-.266a1.61 1.61 0 0 0 .117-.027 6.832 6.832 0 0 1 .467-.112c.018-.004-.004.01-.047.029-.188.084-.324.219-.366.359a.658.658 0 0 0 .055.437c.03.065.143.243.183.291.027.03.06.173.076.314.014.133.003.282-.026.338a2.22 2.22 0 0 0-.037.078.832.832 0 0 1-.257.274 2.073 2.073 0 0 1-.401.195.828.828 0 0 0-.12.05 2.118 2.118 0 0 1-.142.063c-.042.017-.124.05-.182.075a4.241 4.241 0 0 1-.176.068c-.038.014-.1.04-.136.059a3.532 3.532 0 0 1-.32.134c-.162.062-.228.09-.32.134l-.09.043zm9.344-.5l-.506-.807-.485-.777.587-.817.588-.817.49.854.492.855-.563.763c-.31.42-.568.767-.573.77-.005.003-.019-.007-.03-.024zm-5.7-4.552l.09-.336 2.326-.387c1.297-.216 2.325-.383 2.325-.377 0 .006-.042.152-.093.324l-.093.314-1.988.342-2.322.4-.335.056zm12.983-.09l.096-.33 2.32-.388C23.012 4.845 24 4.684 24 4.69c0 .006-.04.152-.088.324l-.088.314-1.647.279-2.328.394-.68.115z"/></svg>