<svg role="img" viewBox="0 0 24 24" xmlns="http://www.w3.org/2000/svg"><path d="M2.056 16.064a3.055 3.055 0 0 1-.757-.258 2.1 2.1 0 0 1-.553-.398 2.238 2.238 0 0 1-.515-.741c-.235-.523-.292-1.06-.165-1.553a2.75 2.75 0 0 1 .434-.939c.084-.118.25-.302.26-.29 0 0 0 .027-.01.052a1.35 1.35 0 0 0-.063.442c0 .496.147.92.45 1.282.236.28.633.512 1.015.59.195.04.551.04.746 0a1.36 1.36 0 0 0 .51-.224.838.838 0 0 0 .283-.37c.02-.064.02-.105.014-1.374l-.01-1.309.668-.668c.367-.367.672-.668.676-.668 0 0 .01.51.01 1.133v1.133h.767v-.955l.663-.664.664-.663v2.282h.777v-.955l.662-.66c.363-.364.664-.662.668-.662v1.681l-.01 1.681-.03.09a.867.867 0 0 1-.233.365.594.594 0 0 1-.22.164c-.202.097-.152.092-.932.096h-.688v-.375l-.001-.376-.024.089c-.08.29-.297.511-.607.619l-.107.037-.674.01-.675.01-.013.124c-.045.42-.204.87-.427 1.203a2.658 2.658 0 0 1-.493.531c-.294.23-.707.411-1.112.49-.096.019-.154.02-.489.02a5.182 5.182 0 0 1-.466-.016zm7.215.01a2.02 2.02 0 0 1-.827-.315c-.109-.073-.263-.204-.263-.225 0 0 .02 0 .043.01.2.071.509.063.765-.018.471-.15.793-.486.928-.969l.029-.103v-3.487l.663-.663.664-.664v2.27l.034.01c.018 0 .193.01.389.01h.354v-.934l.675-.675.675-.674v2.272h.712v-.934l.67-.669.668-.669v2.272h.767v-.945l.669-.669.67-.669v2.283h.776v-.955l.664-.664.664-.664v2.261h1.899l.012-.044a1.333 1.333 0 0 0 0-.709 1.396 1.396 0 0 0-.502-.742 1.38 1.38 0 0 0-.641-.258l-.042-.01 1.105-1.106 1.106-1.105H24l-.969.969c-.532.533-.968.972-.968.976 0 0 .024.022.053.039.161.099.34.26.455.413.23.302.329.563.366.97.015.162.022 1.464.01 1.6a.877.877 0 0 1-.336.619c-.152.121-.285.168-.531.186-.072.01-.645.01-1.298 0l-1.168-.01v-.574l-.032.067a.964.964 0 0 1-.206.283.874.874 0 0 1-.345.208l-.103.036h-1.382l-.01-.367c0-.202-.01-.357-.01-.344a1.13 1.13 0 0 1-.097.262 1.1 1.1 0 0 1-.258.278 1.09 1.09 0 0 1-.34.154c-.085.02-.126.022-.74.022h-.65l-.001-.364v-.364l-.025.08a.936.936 0 0 1-.627.608c-.117.036-.315.043-.942.034l-.489-.01v-.303c0-.262 0-.298-.015-.265a.917.917 0 0 1-.471.495c-.187.09-.157.088-.909.088h-.666v.294c0 .385-.02.543-.105.81a1.775 1.775 0 0 1-.45.747 1.779 1.779 0 0 1-.9.492 2.718 2.718 0 0 1-.585.02zm10.557-5.895 1.126-1.134 1.126-1.13h.31l-1.095 1.098-1.095 1.1-.095.01c-.083.01-.198.03-.259.048h-.019zM4.85 9.221l-.399-.4.4-.399.399-.4.35.349c.193.192.375.37.403.396l.05.048.398-.397.398-.397.402.396.401.397.399-.398.399-.399.405.405.405.405-.403.396-.402.395-.394-.393a11.69 11.69 0 0 0-.404-.393c-.01 0-.189.178-.407.397l-.398.396-.4-.4-.399-.398-.396.396c-.218.219-.4.397-.402.397 0 0-.185-.18-.405-.4zm5.58 0-.399-.4.4-.399.399-.4.286.284.402.397.116.113.4-.4.399-.398.4.399c.22.22.398.404.396.41 0 .01-.181.188-.4.404l-.397.393-.399-.398-.399-.4-.397.398c-.218.218-.399.396-.402.396 0 0-.185-.18-.404-.4z"/></svg>