<svg viewBox="0 0 24 24" xmlns="http://www.w3.org/2000/svg" role="img"><path d="M11.461 23.836a12.105 12.105 0 0 1-4.288-.994 12.052 12.052 0 0 1-5.379-4.64c-.243-.39-.409-.69-.591-1.069a12.998 12.998 0 0 1-.852-2.357 14.211 14.211 0 0 1-.327-2.08 10.448 10.448 0 0 1 .005-1.492c.077-.881.193-1.588.356-2.177C.67 8 1.085 6.99 1.569 6.142a11.836 11.836 0 0 1 3.107-3.535A12.138 12.138 0 0 1 10.471.24c.502-.063.777-.08 1.384-.087.484-.005.593-.003.9.018.647.044 1.25.13 1.845.261a12.061 12.061 0 0 1 5.36 2.703c.272.238.838.801 1.07 1.065a12.192 12.192 0 0 1 1.646 2.385c.263.501.557 1.207.754 1.812.312.962.46 1.716.553 2.829.012.148.017.367.017.818 0 .577-.002.636-.03.918a14.146 14.146 0 0 1-.332 1.983c-.186.73-.322 1.111-.674 1.895-.466 1.04-.58 1.34-.685 1.795a3.45 3.45 0 0 0-.098.804c-.006.261-.004.312.018.467.04.288.123.582.227.805.117.252.365.615.603.883.08.09.278.292.44.45.307.298.406.406.484.528l.047.072v.244l-.054.039a1.495 1.495 0 0 1-.514.22c-.219.049-1.047.07-1.502.04a8.495 8.495 0 0 1-2.994-.761c-.306-.145-.357-.161-.522-.162a.76.76 0 0 0-.253.032 4.578 4.578 0 0 0-.602.237c-.72.343-1.223.548-1.784.73a12.3 12.3 0 0 1-4.314.573zm1.412-1.669a12.51 12.51 0 0 0 1.457-.186c.368-.078 1.037-.298 1.564-.516.296-.123.706-.305.886-.396.342-.171.807-.317 1.34-.42.201-.038.282-.041.469-.018.377.048.647.133 1.355.429.174.072.396.16.495.197.19.069.456.15.464.141a.519.519 0 0 0-.029-.11c-.114-.35-.25-.907-.31-1.264a3.001 3.001 0 0 1 0-1.051c.036-.242.15-.771.172-.811.006-.01.032-.101.057-.203a8.135 8.135 0 0 1 .436-1.265.2.2 0 0 0 .021-.06c.002-.013.069-.168.15-.342.373-.81.55-1.291.694-1.887.202-.84.286-1.821.246-2.847a11.668 11.668 0 0 0-.153-1.485 53.968 53.968 0 0 1-.068-.4c-.021-.137-.166-.635-.195-.669a.225.225 0 0 1-.028-.062 15.257 15.257 0 0 0-.348-.872 13.75 13.75 0 0 0-.75-1.446.442.442 0 0 1-.05-.096c0-.02-.216-.347-.23-.348a1.29 1.29 0 0 1-.126-.156 11.594 11.594 0 0 0-2.102-2.132 2.213 2.213 0 0 1-.178-.15 2.13 2.13 0 0 0-.208-.147 11.798 11.798 0 0 0-2.792-1.35c-.523-.173-.683-.215-1.058-.278a12.297 12.297 0 0 0-4.056-.016c-.414.068-.558.105-1.063.27-.842.277-1.627.634-2.374 1.079-.28.166-.617.384-.621.4a1.9 1.9 0 0 1-.183.152 11.62 11.62 0 0 0-2.16 2.179 1.004 1.004 0 0 1-.113.138 1.54 1.54 0 0 0-.177.27.25.25 0 0 1-.039.076 13.204 13.204 0 0 0-1.17 2.483.553.553 0 0 1-.049.12c-.007.003-.012.019-.013.034 0 .014-.02.092-.045.172-.179.596-.26 1.129-.318 2.1-.056.916.045 2.098.253 2.953.124.508.418 1.302.717 1.935.058.123.107.235.109.248.007.058.528.965.585 1.02.015.014.092.117.172.228.65.909 1.445 1.714 2.388 2.418.266.199.464.326.86.551.55.313 1.151.6 1.698.807.34.13.902.31 1.158.37.293.07.97.165 1.437.204.575.047 1.229.05 1.823.01zM7.707 17.1c-.699-.128-1.122-.905-.891-1.639.123-.393.417-.693.788-.803.095-.028.117-.03.487-.04.214-.006.946-.01 1.626-.006 1.091.004 1.247.006 1.317.022.331.077.585.25.764.521.137.207.205.529.176.836-.019.211-.059.392-.103.47-.186.33-.425.524-.77.627-.078.023-.094.023-1.693.025-1.34.002-1.63 0-1.7-.013zm.086-3.838a1.193 1.193 0 0 1-.89-.618c-.098-.189-.128-.346-.128-.663 0-.226.01-.29.062-.435.102-.284.314-.522.583-.658.186-.094.325-.115.79-.123a837.07 837.07 0 0 1 4.19.004l3.831.01.096.03a1.224 1.224 0 0 1 .832.852c.036.134.044.41.019.573-.093.582-.464.955-1.02 1.024-.09.01-8.279.015-8.365.004zm5.232-3.86a1.59 1.59 0 0 1-.266-.065 1.32 1.32 0 0 1-.592-.469c-.015-.023-.032-.04-.037-.037-.014.009-.078-.181-.109-.32-.056-.262-.044-.624.026-.832.079-.23.252-.454.46-.594a1.27 1.27 0 0 1 .36-.159l.113-.03h3.24l.113.03c.388.105.693.383.82.747.082.235.085.666.005.933-.044.15-.172.388-.207.388a.032.032 0 0 0-.024.014 1.468 1.468 0 0 1-.217.188 1.45 1.45 0 0 1-.316.157c-.182.058-.15.057-1.8.056-.844-.001-1.55-.004-1.57-.006z"/></svg>