<svg role="img" viewBox="0 0 24 24" xmlns="http://www.w3.org/2000/svg"><path d="M10.573 23.537a53.08 53.08 0 0 1-.41-.09 15.121 15.121 0 0 0-.577-.116c-.364-.064-.47-.092-.53-.14-.033-.025-.047-.175-.047-.506 0-.258-.013-.49-.028-.513-.027-.042-.473-.236-.543-.236-.041 0-.419-.162-.835-.357a1.851 1.851 0 0 0-.317-.127c-.025 0-.213.167-.417.372s-.4.372-.435.372c-.035 0-.21-.1-.391-.224-.18-.124-.438-.296-.57-.382-.495-.32-.59-.424-.488-.531.019-.02.079-.17.133-.333.055-.163.113-.314.13-.335a.494.494 0 0 0 .054-.153c.022-.102.01-.127-.116-.222-.078-.058-.371-.34-.651-.624l-.51-.519-.16.075c-.324.15-.92.354-.973.334-.03-.012-.215-.261-.412-.555a59.65 59.65 0 0 0-.488-.72c-.072-.102-.127-.203-.122-.224.005-.02.185-.197.4-.39.215-.194.412-.372.438-.397.058-.055.06-.133.003-.19a.599.599 0 0 1-.09-.165 31.23 31.23 0 0 0-.212-.532 9.393 9.393 0 0 1-.215-.57.94.94 0 0 0-.089-.213c-.037-.05-.302-.09-.995-.15-.136-.012-.275-.042-.31-.067-.047-.035-.072-.166-.111-.584a19.567 19.567 0 0 1-.063-.888l-.013-.35.114-.064c.063-.036.155-.076.205-.09.05-.015.141-.05.203-.079.061-.029.212-.09.335-.137l.223-.085.021-.651c.012-.359.024-.657.028-.663.018-.027 1.155.003 1.202.032.042.027.052.188.052.862 0 .85.055 1.403.19 1.91.034.123.075.294.092.38.042.206.21.71.279.836.03.054.054.117.054.14 0 .038.114.3.295.673.106.22.307.574.36.636a.228.228 0 0 1 .052.08c0 .031.414.635.559.813.42.519 1.04 1.13 1.498 1.477.39.295.666.494.688.494.012 0 .05.023.082.052.139.124 1.144.627 1.622.813.458.177.9.301 1.583.445l.577.121 1.135-.002c.899 0 1.205-.015 1.465-.064.18-.034.344-.071.362-.083a1.54 1.54 0 0 1 .267-.057c.741-.115 2.165-.723 2.989-1.275.481-.323.545-.367.615-.435a4.69 4.69 0 0 1 .224-.184c.242-.187 1.024-.965 1.135-1.13.052-.077.12-.17.15-.204.16-.185.277-.337.277-.359a.45.45 0 0 1 .093-.125.42.42 0 0 0 .093-.13c0-.015.046-.1.101-.186.301-.469.674-1.24.84-1.74.219-.657.328-1.145.434-1.936.063-.467.068-.625.038-1.173a14.865 14.865 0 0 0-.065-.851c-.043-.305-.032-.314.477-.398.456-.075.67-.096.712-.07.06.038.142.622.143 1.026 0 .227.016.352.048.377.054.044.524.205.79.272.103.026.235.07.293.1.106.052.106.054.088.338-.03.505-.14 1.431-.177 1.5-.025.046-.099.072-.25.088a8.233 8.233 0 0 0-.419.057c-.112.019-.284.045-.38.057-.203.025-.29.094-.29.228 0 .051-.092.368-.205.703-.112.336-.204.618-.204.628 0 .01.146.136.325.28l.466.377c.077.063.14.137.14.164a.873.873 0 0 1-.122.237c-.108.167-.548.918-.701 1.197-.147.268-.186.307-.289.288a4.213 4.213 0 0 1-.69-.253c-.08-.038-.2-.08-.265-.092-.108-.02-.134-.005-.265.15a19.56 19.56 0 0 1-.73.823c-.21.221-.274.384-.177.444.02.013.09.136.153.272.064.137.148.294.186.348.13.184.097.255-.23.498a29.27 29.27 0 0 0-.859.654 8.702 8.702 0 0 1-.415.312l-.103.066-.4-.414-.4-.414-.521.26c-.287.142-.546.26-.577.262-.03.002-.14.049-.242.105l-.186.1-.005.494c-.005.5-.031.603-.154.603a1.51 1.51 0 0 0-.247.054c-.104.029-.399.106-.655.17l-.6.151a1.101 1.101 0 0 1-.207.035c-.072 0-.235-.142-.235-.205a2.96 2.96 0 0 0-.196-.364l-.195-.331-.555.022c-.306.012-.725.021-.933.021h-.377l-.105.233c-.36.798-.345.773-.497.768a1.77 1.77 0 0 1-.27-.032zm-.819-2.794a169.89 169.89 0 0 0-.671-.238 1.724 1.724 0 0 1-.391-.188l-.11-.089.162-.166c.09-.092.151-.185.137-.208-.048-.078-.156-.04-.3.108-.08.082-.176.15-.213.15-.037 0-.213-.079-.392-.175a36.69 36.69 0 0 0-.469-.247c-.182-.094-.203-.154-.094-.266.164-.165.263-.32.242-.375-.036-.094-.113-.06-.302.132-.101.102-.205.186-.232.186-.026 0-.169-.087-.318-.192-1.005-.715-1.75-1.402-2.254-2.079-.248-.333-.66-.998-.635-1.024.009-.009.064.008.123.039.117.06.166.046.101-.032s-.432-.833-.556-1.143c-.207-.52-.274-.783-.453-1.787-.087-.488-.095-.655-.034-.692.078-.049.17.138.19.385.011.132.04.259.064.283.042.04.038-.23-.017-1.056-.034-.503.098-1.911.225-2.401a9.2 9.2 0 0 0 .095-.41c.052-.26.19-.63.433-1.165.194-.426.215-.457.305-.447.139.016.147.213.021.498-.053.12-.128.337-.167.48a32.6 32.6 0 0 1-.109.392c-.164.567-.28 1.225-.216 1.228.015 0 .117-.17.226-.38.273-.528.5-.925.648-1.134a.715.715 0 0 0 .084-.137c0-.11 1.034-1.588 1.448-2.071.308-.359.386-.402.491-.276.042.051.036.083-.038.213a4.334 4.334 0 0 1-.262.378 7.955 7.955 0 0 0-.338.485 5.1 5.1 0 0 1-.218.323c-.069.082-.34.574-.51.924l-.246.51c-.062.127-.105.25-.097.275.008.025.127-.095.262-.267.45-.57 1.306-1.384 1.507-1.435.093-.023.197.04.197.119 0 .026-.148.204-.329.395-.18.191-.386.415-.457.497-.326.375-.964 1.303-.964 1.401a.695.695 0 0 1-.085.172c-.299.483-.646 1.454-.79 2.206a9.572 9.572 0 0 1-.095.45 1.125 1.125 0 0 0-.035.224c0 .083.005.08.074-.032.132-.216.187-.162.188.186.002.875.34 2.143.784 2.943l.151.28c.063.116.184.306.269.422.084.116.179.248.21.293.134.199.284.37.341.39.066.023.412-.192 1.028-.641l.465-.338c.145-.105.214-.091.542.106.134.081.271.147.305.147.118 0 1.01-.56 1.385-.87.098-.08.215-.144.266-.144.053 0 .208.087.365.203.15.112.293.215.317.229.058.033.689-.3.781-.413.03-.036.037-.164.023-.409-.018-.3-.011-.375.047-.482.067-.125.067-.127-.012-.182-.12-.084-.143-.246-.115-.799.055-1.095.022-2.806-.064-3.343-.02-.132-.01-.164.077-.252.097-.097.112-.1.367-.076.15.014.29.048.32.078.044.044.05.334.043 1.807-.006 1.263.005 1.848.04 2.09.056.4.037.447-.207.492-.244.045-.202.12.06.106.262-.014.309.035.275.289-.024.184-.023.186.128.295.083.06.465.263.848.45.383.187.74.364.795.393.135.074.161.07.475-.061.321-.135.394-.131.768.041a8.7 8.7 0 0 0 .743.32c.102.038.252.105.332.15l.147.083.218-.114c.182-.095.247-.11.382-.091.155.02.531.197.655.307.089.078.158.063.229-.05l.111-.177c.311-.495.543-.977.734-1.53.099-.288.162-.54.304-1.225a4.15 4.15 0 0 0 .033-.559c.001-.225.015-.429.03-.452.03-.049.164.04.208.137.013.03.016.012.007-.04a5.514 5.514 0 0 1-.042-.317c-.046-.428-.33-1.425-.552-1.934-.2-.461-.655-1.282-.794-1.433a.415.415 0 0 1-.084-.116c0-.053-.479-.638-.832-1.016-.28-.3-.379-.431-.379-.503 0-.084.015-.096.115-.092.07.003.187.06.298.143.251.19 1.082 1.034 1.273 1.292.318.431.311.312-.022-.379-.286-.592-.952-1.663-1.309-2.103-.113-.14-.149-.214-.141-.298.008-.09.03-.114.106-.123.076-.01.134.03.274.184.097.107.205.238.239.29.063.1.107.157.268.352.208.253.966 1.37.966 1.424a.57.57 0 0 0 .086.14c.112.15.6 1.003.892 1.56.092.176.149.135.096-.067a7.333 7.333 0 0 1-.09-.428 5.843 5.843 0 0 0-.109-.484 6.725 6.725 0 0 1-.092-.354 7.342 7.342 0 0 0-.186-.577c-.167-.466-.171-.595-.022-.595.07 0 .108.038.175.176.046.098.104.202.129.233.024.03.07.131.1.224.032.092.086.234.121.316.036.082.087.229.115.326l.107.372c.23.79.37 2.462.29 3.444-.035.418-.003.505.061.168.062-.326.09-.399.166-.413.065-.013.068.005.043.223-.015.13-.04.372-.058.539-.036.345-.23 1.145-.337 1.387a.905.905 0 0 0-.072.213c0 .08-.403.934-.565 1.197-.064.103-.066.12-.016.12.033 0 .06-.016.06-.036 0-.021.024-.038.055-.038.089 0 .067.083-.1.377-.143.251-.261.42-.544.774-.163.206-.797.87-.938.983-.072.058-.206.17-.298.251a8.842 8.842 0 0 1-.726.577 3.022 3.022 0 0 0-.258.192c-.08.068-.18.123-.223.123-.078 0-.469-.388-.469-.466 0-.022.02-.06.043-.083.076-.076.006-.159-.134-.159-.118 0-.356-.069-.505-.147a.987.987 0 0 0-.187-.057 2.223 2.223 0 0 1-.329-.117 1.168 1.168 0 0 0-.253-.088c-.03 0-.14-.04-.247-.087a14.971 14.971 0 0 0-.51-.212c-.174-.068-.417-.17-.54-.223l-.595-.263c-.205-.09-.431-.192-.503-.226-.071-.034-.143-.054-.158-.045-.015.01-.028.206-.028.435 0 .468.034.559.222.596.062.013.184.058.271.1.204.1.56.249.773.323.092.032.21.075.26.096.196.08.697.254.88.305.365.103.684.225.684.262 0 .054-.353.037-.614-.03-.394-.1-1.09-.345-1.464-.515a2.404 2.404 0 0 0-.258-.107c-.022 0-.451-.195-.577-.263a.289.289 0 0 0-.102-.034c-.055 0-.043.288.033.8.037.246.059.468.05.493-.01.026-.053.047-.097.047a.885.885 0 0 0-.513.205c-.238.19-.258.177-.236-.14.034-.51.045-1.035.021-1.05-.013-.007-.115.07-.227.172a36.28 36.28 0 0 1-.577.509c-.205.176-.405.35-.444.387a.283.283 0 0 1-.097.066.516.516 0 0 0-.133.095 1.07 1.07 0 0 1-.232.148c-.131.057-.143.14-.022.158.205.03.463.132.463.182 0 .03-.08.146-.177.257-.212.242-.222.242-.754.052zm-.653-1.191c.143-.06.274-.11.291-.11.018 0 .119-.04.225-.089.106-.048.235-.1.286-.116a17.139 17.139 0 0 0 1.49-.71 6.33 6.33 0 0 0 .422-.23l.145-.09-.016-.461c-.008-.254-.026-.472-.04-.485-.024-.025-.394.214-1.22.786a44.9 44.9 0 0 1-.837.566l-.516.339c-.236.157-.812.452-.883.452-.075 0-.025.098.088.173.162.11.261.105.565-.025zm-1.452-.778a.643.643 0 0 1 .197-.098c.163-.06.62-.239 1.126-.443.113-.045.264-.109.335-.142.178-.08.623-.266.782-.326.174-.065.222-.11.116-.11-.075 0-.517-.11-.884-.22-.185-.054-.732-.327-.944-.47-.107-.071-.217-.13-.246-.13-.028 0-.127.105-.22.233-.244.34-.376.493-.698.816-.159.16-.289.313-.289.34 0 .028.063.107.14.175l.297.267c.156.14.246.175.288.108zm9.17-.145c.122-.078.732-.7 1.026-1.048.381-.45.39-.406-.132-.615l-.336-.135-.142.094a1.231 1.231 0 0 0-.246.23c-.152.198-.547.579-.857.825-.147.118-.269.233-.27.256-.002.04.219.13.592.242.091.027.191.08.222.115.064.074.077.078.143.036zm-1.6-.82a21.933 21.933 0 0 0 1.343-.75c.176-.107.194-.15.064-.15-.05 0-.1-.014-.111-.032-.011-.017-.077-.041-.146-.052-.124-.02-.419-.127-.856-.31a1.34 1.34 0 0 0-.274-.09c-.048 0-.341.197-.869.582-.06.044-.196.159-.304.255l-.195.175.092.07c.05.038.175.097.278.13.102.034.204.076.226.095.037.03.436.17.511.179.016.002.125-.044.242-.102zm-4.28-.467c.178-.09.398-.207.49-.26a.751.751 0 0 1 .233-.098c.039 0 .065-.028.065-.07 0-.05-.034-.075-.12-.09-.134-.021-.502-.227-.798-.445-.105-.077-.216-.14-.248-.14-.227 0-1.068.772-1.068.98 0 .048.323.138.76.212.122.02.229.045.24.056.042.042.141.01.447-.145zm2.347-.421a5.92 5.92 0 0 1 .336-.143c.536-.2.807-.353.624-.353-.03 0-.17-.051-.31-.114l-.366-.165a43.88 43.88 0 0 1-.475-.22c-.2-.094-.387-.17-.417-.17-.043 0-.055.1-.064.542-.006.299.003.568.02.6.046.081.251.159.36.135.05-.011.182-.062.292-.112zm-1.396-.343a.467.467 0 0 0-.031-.182c-.035-.035-.3.123-.3.18 0 .025.026.058.057.072l.13.067c.117.064.15.033.144-.137zm1.836 4.219a6.422 6.422 0 0 0-.184-.206.44.44 0 0 1-.102-.144c0-.049.11-.102.341-.166.19-.052.638-.21 1.137-.397l.23-.087.188.193c.104.107.189.22.189.253 0 .032-.054.081-.121.11a.683.683 0 0 0-.15.08.684.684 0 0 1-.187.074c-.261.074-.934.307-1.003.348a.261.261 0 0 1-.338-.058zm1.804-.852c-.085-.092-.154-.184-.154-.204 0-.02.122-.116.27-.21.365-.235.595-.394.654-.452.067-.064.113-.03.323.229.13.16.17.235.145.274-.047.074-.908.527-1.006.528-.046 0-.141-.066-.232-.165zm-2.675-5.763c.024-.16.334-1.038.49-1.387.476-1.066.902-1.635 1.473-1.965.231-.134.615-.249.835-.25.394 0 .966.214 1.353.508.926.704 1.679 1.693 2.036 2.676.1.28.114.353.062.353-.018 0-.174-.115-.346-.255-.554-.45-1.178-.781-1.744-.923-.366-.093-1.027-.107-1.42-.031-.778.15-1.595.573-2.417 1.254-.093.078-.208.141-.255.141-.076 0-.084-.014-.067-.12zm-1.878-.41c-1.168-.928-2.106-1.33-3.1-1.33-.577 0-1.093.122-1.617.384a4.884 4.884 0 0 0-.951.628c-.142.118-.271.205-.289.194-.048-.03-.036-.137.025-.218a.306.306 0 0 0 .057-.148.617.617 0 0 1 .071-.207c.038-.072.104-.204.147-.293.043-.09.157-.274.255-.409.097-.135.205-.29.239-.345.107-.172 1.001-1.072 1.257-1.265.885-.669 1.753-.717 2.525-.14.193.144.641.638.727.802.407.774.605 1.22.79 1.786.072.222.148.433.168.468.02.036.037.107.037.158 0 .14-.11.12-.341-.064zm11.645-3.4a1.1 1.1 0 0 1-.023-.255c0-.193.004-.2.227-.406.242-.223.265-.31.08-.295-.185.015-.307.076-.307.154 0 .074-.093.132-.152.096-.019-.012-.034-.054-.034-.093 0-.04-.031-.169-.07-.287a14.07 14.07 0 0 1-.118-.381 1.5 1.5 0 0 0-.116-.284c-.099-.168-.089-.214.039-.188.083.016.133-.002.223-.083.138-.123.14-.145.037-.32-.071-.121-.093-.133-.214-.122-.094.01-.147.039-.176.096a.574.574 0 0 1-.065.107c-.041.041-.173-.108-.173-.197 0-.046-.017-.095-.037-.108-.02-.012-.037-.057-.037-.1 0-.062.014-.071.083-.048.145.05.515.06.959.026.423-.032.618-.008.679.082.057.084.065.074-.383.468-.539.475-.631.577-.631.698 0 .21.059.216.599.07.27-.074.513-.135.542-.135.029 0 .068-.042.088-.093.037-.098.125-.123.171-.05.015.025.04.104.057.178.016.073.058.238.092.367.08.3.033.495-.146.607-.136.086-.363.077-.468-.018-.058-.053-.073-.053-.155.003a.973.973 0 0 0-.374.412c-.07.162-.157.205-.197.1zm1.099-.902c.102-.092.111-.115.073-.186-.046-.087-.134-.103-.272-.047a1.22 1.22 0 0 1-.188.057c-.075.016-.102.044-.102.107 0 .121.07.174.23.174a.352.352 0 0 0 .258-.105zm-.833-1.562c.01-.032-.035-.046-.15-.046-.202 0-.226.021-.15.135.057.089.06.089.171.024.062-.037.12-.087.129-.113zM1.395 10.201c-.028-.063-.112-.104-.353-.172a6.73 6.73 0 0 0-.494-.12 1.045 1.045 0 0 1-.214-.055c-.02-.013-.09.003-.154.034-.063.032-.13.049-.148.038-.04-.025-.043-.143-.005-.18a.778.778 0 0 0 .066-.22c.03-.153.054-.196.116-.205.05-.007.084.013.096.057.011.044.093.092.231.135.118.037.222.06.23.051.035-.035.133-.477.116-.522-.01-.026-.106-.07-.214-.097-.175-.045-.199-.043-.23.01C.4 9.028.26 9.039.26 8.97c0-.042.117-.441.17-.587.017-.044.039-.035.102.042.11.133.19.17.53.24.16.032.355.085.435.117.17.069.309.026.36-.11.045-.118-.004-.194-.309-.487-.676-.648-.66-.629-.648-.75l.011-.113.28.013c.153.007.388.027.52.045.418.058.687.045.761-.036.129-.142.066-.225-.35-.468a26.353 26.353 0 0 1-.475-.282c-.068-.043-.098-.044-.158-.007-.227.142-.194-.007.092-.42.133-.192.242-.366.242-.387 0-.04.119-.114.181-.114s.268.19.245.226c-.011.019-.077.034-.147.034-.145 0-.325.16-.308.273.006.037.091.113.19.167l.179.1.092-.106c.088-.1.09-.112.034-.197-.058-.088-.049-.162.02-.162.019 0 .118.051.221.115.21.129.244.22.082.22-.073 0-.13.033-.187.11l-.082.112.178.131c.173.129.21.136.41.074.119-.037.109.048-.027.227a.825.825 0 0 0-.112.174c0 .015-.077.132-.17.259-.094.127-.18.277-.191.334-.034.168-.198.241-.198.088 0-.055-.27-.117-.334-.076a.601.601 0 0 0-.112.165l-.071.14.124.121c.11.107.132.115.201.071.107-.066.196.01.126.11a1.106 1.106 0 0 0-.088.156c-.023.052-.08.169-.127.261a1.366 1.366 0 0 0-.111.347c-.031.207-.108.263-.2.144-.074-.096-.298-.193-.449-.193-.086 0-.116.02-.129.084l-.038.186c-.011.056-.03.142-.043.19-.02.084-.008.091.225.135.224.043.254.04.32-.02.057-.051.085-.057.118-.023.034.033.026.111-.031.332-.078.3-.152.377-.219.227zm.236-2.353c.018-.094-.022-.123-.217-.154l-.168-.026.13.135c.136.143.233.16.255.045zm10.11 2.271-.103-.088-.026-1.894c-.014-1.042-.041-1.962-.062-2.044-.06-.242-.132-.974-.106-1.076.031-.126.172-.16.336-.082.169.08.307.076.421-.014.224-.176.283-.074.23.395-.03.264-.03.966-.006 2.49.02 1.173.022 2.16.004 2.208-.07.192-.51.259-.689.105zm9.815-2.659a4.168 4.168 0 0 1-.242-.304c-.144-.198-.148-.213-.148-.506 0-.29.005-.308.127-.448.07-.08.195-.184.277-.231.427-.245 1.05.048 1.257.592l.074.192-.086.092c-.211.226-.361.186-.223-.06.077-.137.078-.15.02-.266-.178-.356-.497-.421-.871-.177-.232.152-.333.31-.333.518 0 .13.02.187.089.252l.09.084.133-.087c.142-.092.162-.138.09-.21-.034-.033-.034-.055-.003-.086.06-.061.154-.013.198.102.02.055.087.162.148.239.144.182.14.226-.016.216-.09-.006-.165.02-.258.092-.163.124-.205.123-.324-.004zM4.515 7.2a2.794 2.794 0 0 0-.13-.249 64.7 64.7 0 0 0-.171-.258c-.14-.21-.152-.38-.026-.37.087.009.377.095.614.183.092.034.221.06.287.059.161-.004.173.031.064.192-.098.145-.2.174-.276.081-.064-.076-.162-.07-.24.016-.081.09-.026.214.11.248.05.013.092.03.092.04 0 .041-.167.236-.202.235-.022 0-.077-.08-.122-.177zm.026-.47c0-.028-.026-.062-.058-.074-.086-.033-.09-.03-.09.052 0 .05.024.074.074.074.041 0 .075-.023.075-.052zm14.878.54c-.052-.057-.057-.088-.024-.15.043-.079.1-.094.204-.054.082.031.074.19-.013.236-.094.05-.092.05-.167-.033zm-.512-.606c-.186-.19-.188-.195-.172-.392.018-.213.129-.372.335-.48.334-.174.791.078.835.462.018.154.006.194-.097.336a.61.61 0 0 1-.542.267c-.158 0-.187-.016-.36-.193zm.537-.125a.758.758 0 0 0 .212-.237c.065-.128.067-.15.016-.221-.14-.2-.325-.18-.582.063-.335.317-.03.656.354.395zM5.132 6.415a.673.673 0 0 1-.391-.33c-.127-.3-.012-.57.347-.816.073-.05.091-.049.177.007.138.09.123.166-.033.166a.31.31 0 0 0-.318.303c0 .155.07.26.24.367.17.104.34.108.438.009.108-.109.064-.195-.1-.195-.072 0-.131-.01-.131-.023 0-.012.051-.088.114-.168.114-.143.258-.194.258-.092 0 .03.044.085.099.125.078.057.093.091.074.167-.045.18-.466.521-.625.507a1.285 1.285 0 0 1-.149-.028zm13.1-.41c-.35-.273-.411-.517-.201-.793.149-.196.328-.266.59-.231.15.02.216.056.368.198.101.095.185.191.185.213 0 .055-.131.199-.181.199-.024 0-.043-.05-.043-.11 0-.116-.128-.276-.253-.316-.107-.034-.327.076-.433.215-.199.26-.06.58.232.533.15-.025.198.054.1.163-.093.103-.16.09-.364-.07zm-14.835.042c.01-.036.029-.09.04-.121.027-.067-.828-.707-.944-.707-.042 0-.095.045-.128.108-.05.095-.05.122-.003.212.104.2-.02.222-.2.037-.131-.136-.13-.156.024-.32.084-.09.524-.65.648-.826l.061-.086.144.115c.185.15.187.22.006.22-.143 0-.29.091-.29.18 0 .026.092.115.205.195.113.08.313.226.444.323.237.176.33.21.374.14.013-.021.048-.038.077-.038.082 0 .064.128-.032.228-.047.049-.14.16-.208.247-.124.161-.253.216-.217.093zm17.173-.075c-.191-.11-.41-.356-.463-.519-.083-.257.017-.4.604-.867.177-.141.21-.185.202-.276-.01-.145.066-.163.169-.04l.208.244c.129.15.127.241-.004.207-.104-.027-.181.019-.542.32-.422.354-.47.516-.21.695.177.12.301.088.647-.17.365-.274.42-.338.396-.457-.011-.052-.003-.12.018-.151.03-.046.07-.02.222.149.22.245.236.314.065.288-.11-.017-.242.021-.288.083-.054.072-.597.449-.721.5-.175.072-.165.073-.303-.007zM6.068 5.729c0-.045-.068-.157-.152-.248a1.855 1.855 0 0 1-.187-.233.401.401 0 0 0-.146-.123c-.06-.032-.11-.078-.11-.104 0-.025.076-.118.169-.206.135-.127.203-.163.344-.179.145-.017.19-.006.259.06a.29.29 0 0 1 .084.18c0 .055.013.118.028.139.042.059.316.166.4.156.116-.013.089.09-.045.169-.118.069-.121.068-.342-.02-.167-.068-.228-.08-.242-.044-.019.05.105.178.21.215.09.032.082.07-.037.18-.15.14-.233.16-.233.058zm.037-.718a.204.204 0 0 0-.082-.144c-.192-.134-.271-.014-.121.183.08.104.112.123.152.09.028-.023.051-.081.051-.129zm11.12.19a1.498 1.498 0 0 1-.221-.153 1.096 1.096 0 0 0-.192-.132c-.207-.093-.52-.28-.532-.317-.008-.023.012-.068.044-.1.031-.031.057-.08.057-.11 0-.067-.119-.176-.192-.176-.084 0-.186.129-.158.2.013.033.009.06-.008.06-.034 0-.553-.194-.74-.276a2.101 2.101 0 0 0-.194-.075c-.12-.036-.234-.198-.234-.333-.001-.153-.05-.226-.131-.195-.054.021-.061.056-.043.21.024.209.016.214-.215.133-.176-.06-.206-.12-.099-.194a.196.196 0 0 0 .08-.137c0-.045.041-.18.09-.301.062-.149.08-.24.058-.282-.06-.112.004-.148.186-.105.362.085.492.175.541.375.022.087.004.123-.11.231-.131.124-.135.135-.097.27a.768.768 0 0 0 .093.21c.075.097.227.055.26-.073.013-.053.065-.183.116-.289.061-.126.085-.225.07-.29-.03-.137.03-.16.224-.087.187.072.236.148.131.204-.065.035-.246.373-.314.588-.03.098.031.194.125.194.034 0 .21-.126.393-.28.182-.153.362-.288.4-.3.073-.023.19.046.16.094a4.696 4.696 0 0 0-.078.45c-.06.403-.059.423.006.47.037.027.086.05.11.05.022 0 .131-.13.242-.287.141-.203.198-.318.192-.391-.004-.057 0-.104.013-.104.048 0 .305.148.349.2.053.064.026.135-.052.135-.049 0-.466.535-.466.598 0 .016.048.064.106.105.08.057.14.07.243.054.122-.02.134-.015.112.048-.028.079-.12.163-.18.163a.508.508 0 0 1-.145-.056zm-.772-1.132c.02-.038.027-.08.014-.093-.032-.032-.123.05-.123.111 0 .074.066.063.11-.018zm-1.45-.692c.082-.088.083-.096.024-.186-.085-.13-.117-.12-.187.057-.092.23 0 .302.162.129zM6.83 5.019a.863.863 0 0 1-.233-.187c-.1-.113-.12-.168-.12-.313 0-.357.227-.585.578-.58.304.004.503.19.554.516.057.371-.427.721-.78.564zm.481-.244c.095-.1.1-.12.063-.234-.05-.153-.278-.395-.401-.426-.092-.023-.208.052-.276.178-.084.156.249.571.47.588.022.002.087-.046.144-.106zm12.063.01c-.2-.135-.349-.313-.35-.417 0-.117.137-.304.223-.304.062 0 .067.023.048.206-.019.181-.01.218.065.298.103.11.174.114.287.02.1-.083.11-.231.028-.425a.917.917 0 0 1-.055-.295c0-.136.02-.181.132-.29.113-.11.157-.127.3-.124.198.004.437.153.547.342l.07.12-.1.132c-.127.168-.186.147-.186-.065 0-.255-.127-.355-.32-.252-.095.05-.09.15.022.431.09.226.092.239.033.385-.133.334-.453.436-.744.239zm-14.668-.09c-.014-.023-.006-.06.016-.083.076-.075.044-.178-.105-.336-.362-.387-.6-.621-.628-.621-.017 0-.068.038-.112.086-.059.062-.078.125-.072.228.005.084-.009.15-.034.159-.046.016-.236-.235-.236-.312 0-.025.063-.092.14-.15.077-.056.216-.175.31-.264.095-.088.212-.188.261-.221.05-.033.135-.11.19-.171.114-.123.15-.112.297.095.1.14.044.217-.1.14-.084-.045-.11-.044-.197.009-.055.033-.105.084-.111.113-.006.029.17.24.39.471l.402.42.107-.057c.16-.084.262-.271.214-.393a12.33 12.33 0 0 1-.251-.91c-.044-.177-.045-.233-.005-.315.068-.141.138-.14.328.003.778.588.89.659 1.03.659.101 0 .155-.022.188-.074.049-.078.052-.07-.248-.596a4.32 4.32 0 0 1-.161-.308c-.028-.063-.074-.102-.12-.103-.109 0-.183-.057-.16-.12.027-.068.585-.343.815-.4.162-.042.182-.038.326.057.21.14.274.34.17.53-.098.18-.262.3-.323.238-.036-.036-.036-.06 0-.118.067-.108.057-.159-.067-.33-.088-.122-.135-.154-.224-.154-.132 0-.182.086-.113.196.062.099.18.307.283.5.15.282.24.384.336.384.063 0 .09.02.089.065-.001.044-.107.116-.326.223a2.5 2.5 0 0 1-.367.159c-.024 0-.05.012-.056.028-.016.037-.399.27-.443.27-.019 0-.035-.049-.035-.108 0-.078-.034-.133-.126-.203l-.126-.097-.153.11c-.173.126-.175.13-.095.292.043.084.085.117.152.117.112 0 .109.1-.005.164a2.654 2.654 0 0 0-.193.125.789.789 0 0 1-.135.083c-.009 0-.146.126-.304.28-.281.273-.362.32-.412.238zm.954-1.45c.062 0 .036-.113-.03-.138a.213.213 0 0 1-.095-.073.114.114 0 0 0-.088-.05c-.045 0-.052.024-.033.103.035.136.095.203.16.179a.31.31 0 0 1 .086-.02zm2.1 1.117c-.034-.056.017-.186.073-.186.027 0 .07-.025.096-.056a.197.197 0 0 1 .134-.056c.137 0 .109.116-.057.233-.156.11-.209.124-.245.065zm.603-.184a.893.893 0 0 0-.117-.373.776.776 0 0 1-.094-.18c0-.019-.034-.063-.075-.1-.04-.038-.074-.079-.074-.092 0-.014.086-.062.191-.108.205-.09.314-.065.219.05-.04.05-.033.091.05.26.054.11.098.219.098.24 0 .02.052.097.116.169.063.072.108.15.1.173-.007.023-.071.063-.142.088a5.36 5.36 0 0 0-.189.073c-.05.021-.064-.012-.083-.2zm.558-.153a.371.371 0 0 0-.016-.196 3.081 3.081 0 0 1-.107-.314c-.044-.147-.093-.24-.134-.254-.036-.011-.065-.036-.065-.054 0-.037.195-.148.259-.148.022 0 .182.094.357.21.175.115.328.198.34.186.04-.039-.073-.327-.145-.372-.128-.08-.056-.195.137-.216.104-.012.11-.005.116.136.003.082.026.216.05.298.025.082.06.208.077.28.017.071.043.167.057.213.018.057.008.09-.029.104-.055.022-.136-.023-.567-.308A3.376 3.376 0 0 0 9 3.43c-.007 0-.005.063.004.14a.56.56 0 0 0 .2.375c.095.07.083.106-.05.152-.208.072-.257.057-.231-.073zm9.32-.165c-.025-.031-.061-.056-.08-.056a.507.507 0 0 1-.154-.09 2.507 2.507 0 0 0-.25-.16c-.296-.162-.409-.245-.409-.298 0-.044.028-.051.13-.032.143.027.145.025.37-.295.28-.4.426-.65.392-.671-.044-.028-.046-.156-.003-.183.018-.01.106.035.195.102.09.066.234.154.321.194.087.04.158.085.158.098 0 .013.06.059.131.101.154.091.166.183.043.326-.104.121-.188.092-.156-.056.017-.075.001-.12-.063-.178-.119-.109-.255-.174-.286-.137-.101.122-.227.312-.227.343 0 .061.232.16.275.117.054-.053.134-.047.157.013.029.077-.204.403-.278.388-.041-.01-.057-.044-.05-.111.01-.097-.1-.216-.199-.216-.053 0-.277.311-.277.385 0 .058.18.184.326.228.05.015.13.002.2-.032.203-.102.248.008.073.173-.12.113-.267.133-.339.047zm-8.175-.177c.027-.176-.056-.632-.131-.722-.022-.026-.03-.078-.017-.116.016-.052.088-.08.296-.118.362-.064.563-.029.717.125.353.353.097.858-.47.928a4.722 4.722 0 0 0-.294.047l-.126.025zm.595-.125c.142-.097.143-.1.126-.305-.014-.166-.037-.223-.118-.293-.11-.095-.377-.123-.403-.042-.02.056.097.55.154.657.054.101.068.1.24-.017zm2.955.219c-.16-.017-.192-.114-.067-.201.045-.032.08-.114.095-.219a2.72 2.72 0 0 1 .057-.295c.055-.208-.032-.26-.277-.167-.076.03-.079-.087-.004-.185.04-.052.083-.064.175-.049.238.04.72.137.766.155.06.023.059.1-.004.186-.05.067-.054.067-.139-.012-.048-.045-.113-.077-.143-.071-.076.014-.195.52-.171.726.02.175.04.166-.288.132zm-2.024-.156c-.084-.038-.162-.094-.174-.125a2.733 2.733 0 0 1-.047-.367c-.016-.19-.048-.337-.082-.376-.102-.116-.032-.178.198-.178h.21l-.03.103a2.055 2.055 0 0 0-.026.398c.002.26.013.305.085.363.111.09.194.084.292-.02.106-.112.115-.516.015-.693-.079-.14-.033-.186.167-.168.165.016.185.038.11.122-.05.054-.061.14-.057.417l.005.35-.145.122c-.168.142-.295.155-.52.052zm.944-.008c-.1-.075-.14-.229-.068-.273.018-.011.085.03.149.094.122.122.212.13.278.026.033-.054.009-.095-.15-.247-.214-.203-.26-.3-.2-.415.054-.1.255-.223.365-.223.15 0 .306.104.306.203 0 .126-.05.143-.16.057-.103-.08-.231-.097-.27-.034-.013.021.078.135.203.252.17.16.227.238.227.314 0 .264-.442.424-.68.246zm4.44-.537a3.155 3.155 0 0 1-.088-.328c-.173-.793-.28-1.06-.344-.853a4.32 4.32 0 0 1-.147.336c-.144.304-.152.352-.073.418.078.065.072.187-.009.186a.345.345 0 0 1-.158-.074.347.347 0 0 0-.143-.073.658.658 0 0 1-.168-.051 2.594 2.594 0 0 0-.483-.164c-.125-.022-.174-.116-.087-.165.041-.023.062-.083.062-.18 0-.125-.016-.155-.11-.204-.17-.087-.275-.07-.37.058-.081.11-.082.118-.02.187.05.054.056.084.024.115-.03.03-.095.025-.248-.023-.114-.036-.207-.08-.207-.097 0-.018-.14-.022-.31-.01-.444.031-.756-.09-.976-.38-.089-.115-.101-.165-.1-.39.002-.332.12-.526.418-.686.175-.095.24-.109.487-.106.213.002.324.023.441.083.153.078.156.082.145.254-.015.224-.113.263-.177.069-.057-.17-.286-.294-.456-.245a.507.507 0 0 0-.361.305c-.085.176-.106.51-.042.677.09.237.53.33.722.152.162-.15.243-.183.272-.11a.168.168 0 0 1-.02.132.28.28 0 0 0-.043.108c0 .06.198-.002.252-.08a13.66 13.66 0 0 0 .413-.507c.15-.189.315-.377.367-.419.118-.092.232-.096.24-.01.005.036.01.09.015.121.005.031.01.313.012.626.004.566.005.57.103.66.054.051.123.092.152.092.069 0 .193-.148.195-.23 0-.035.016-.073.034-.084.019-.011.105-.166.192-.345.156-.32.158-.326.096-.434-.1-.175-.024-.2.223-.076l.212.108.106.39.148.55c.023.087.056.158.073.158.03 0 .22-.38.272-.544.015-.05.004-.095-.032-.125a.174.174 0 0 1-.057-.117c0-.092.112-.091.229 0 .05.04.131.077.182.085.113.016.129.153.02.174-.095.019-.14.067-.242.267a7.285 7.285 0 0 0-.264.521c-.163.347-.166.352-.254.365-.059.01-.09-.015-.118-.087zm-1.63-1.516a.532.532 0 0 0 0-.176c-.023-.028-.232.23-.232.287 0 .028.045.048.108.048.1 0 .11-.013.125-.159zM7.95 2.727c-.012-.02-.002-.077.022-.13.033-.072.031-.135-.005-.272a1.131 1.131 0 0 0-.076-.215 2.313 2.313 0 0 1-.112-.298c-.099-.304-.131-.354-.226-.354-.042 0-.07-.026-.07-.067 0-.048.06-.086.214-.137.118-.039.237-.087.265-.108.027-.021.182-.04.343-.04.268-.002.301.007.391.096a.423.423 0 0 1 .118.272c.019.17.015.179-.158.34-.193.18-.197.18-.279.129-.049-.03-.047-.049.01-.145.082-.14.08-.219-.008-.365-.088-.144-.212-.191-.291-.112-.059.059-.049.095.27.956.032.084.08.137.136.15.126.03.108.12-.032.155-.065.017-.13.048-.142.068-.012.02-.062.037-.11.037-.05 0-.1.016-.113.037-.028.047-.119.048-.147.003zm1.193-.407c-.01-.017.03-.078.09-.136.099-.095.104-.112.06-.2a1.813 1.813 0 0 1-.097-.34c-.086-.437-.146-.587-.248-.612-.101-.026-.108-.122-.013-.173.03-.016.19-.057.354-.09.163-.034.369-.079.455-.1.182-.046.236-.018.31.16.07.17-.004.222-.155.11-.092-.066-.149-.08-.266-.064a.45.45 0 0 0-.186.057c-.047.047.044.38.112.405.094.037.224-.026.247-.12.04-.158.209-.091.209.082 0 .048.02.12.045.16.064.102-.016.188-.112.12-.112-.08-.142-.087-.243-.048-.119.045-.132.166-.04.36.047.098.083.126.162.126.142 0 .336-.104.372-.2a.365.365 0 0 1 .088-.13c.048-.039.065-.033.1.034.066.123.016.314-.095.365a3.74 3.74 0 0 1-.474.12c-.21.044-.396.094-.416.113-.044.042-.233.044-.259.002zm1.432-.26c-.06-.02-.046-.118.021-.144.053-.02.058-.073.036-.417-.04-.647-.06-.756-.14-.777-.048-.012-.068-.045-.06-.097.01-.072.037-.08.29-.089.355-.011.405.005.316.103-.045.05-.067.136-.068.27l-.002.195.292.011c.161.006.305-.002.32-.018.016-.017.02-.116.008-.221-.015-.156-.036-.2-.108-.232-.15-.069-.112-.154.07-.154.087 0 .223-.018.302-.04.186-.052.246-.002.16.129-.054.082-.056.15-.02.607.039.485.046.519.138.597.132.112.083.146-.26.176-.311.028-.384-.007-.273-.13.052-.057.06-.109.038-.276-.014-.113-.04-.214-.057-.225-.018-.011-.15-.01-.295.005l-.264.024v.22c0 .195.01.222.091.26.099.044.153.138.106.182-.03.03-.574.064-.642.042z"/></svg>