<svg role="img" viewBox="0 0 24 24" xmlns="http://www.w3.org/2000/svg"><path d="M8.934 17.848a7.997 7.997 0 0 0-.261-.764.486.486 0 0 0-.036-.109.226.226 0 0 1-.014-.04 7.95 7.95 0 0 0-.254-.751.152.152 0 0 0-.015-.048.308.308 0 0 1-.018-.052 10.972 10.972 0 0 0-.26-.763.283.283 0 0 0-.015-.048.253.253 0 0 1-.015-.044 6.149 6.149 0 0 0-.229-.668.152.152 0 0 0-.013-.048.308.308 0 0 1-.02-.052.296.296 0 0 0-.014-.044.322.322 0 0 1-.014-.043 6.033 6.033 0 0 0-.229-.668.156.156 0 0 0-.013-.048.65.65 0 0 1-.023-.063.22.22 0 0 0-.014-.04.239.239 0 0 1-.015-.04 10.407 10.407 0 0 1-.174-.54c0-.001.257-.003.571-.003h.572l.018.056.027.09a.109.109 0 0 0 .016.04c.003.001.006.01.006.018a.6.6 0 0 0 .021.08c.029.092.079.253.095.31a.754.754 0 0 0 .051.156c.003.002.006.011.006.02 0 .008.003.025.007.037l.044.142a126.75 126.75 0 0 0 .103.323c.003.002.006.01.006.019 0 .008.006.035.014.06l.044.141a1.648 1.648 0 0 0 .043.135.95.95 0 0 0 .029.1l.043.139a4.627 4.627 0 0 0 .088.283c0 .007.006.032.014.056.008.025.028.087.043.139a4.732 4.732 0 0 0 .103.327c0 .007.006.03.014.053a1 1 0 0 1 .022.075.112.112 0 0 0 .016.038c.003.002.006.01.006.019a.6.6 0 0 0 .021.08c.024.076.079.254.086.281.003.01.01.018.016.018.013 0 .035-.043.036-.068a.16.16 0 0 1 .014-.047c.017-.037.059-.158.059-.172 0-.006.007-.024.014-.04a.144.144 0 0 0 .015-.045c0-.014.005-.028.026-.078a.312.312 0 0 0 .015-.047.109.109 0 0 1 .01-.032 21.6 21.6 0 0 0 .354-1.074.145.145 0 0 0 .015-.044c0-.007.007-.027.015-.043a.144.144 0 0 0 .014-.045c0-.013.004-.026.026-.076a18.48 18.48 0 0 0 .322-.98.144.144 0 0 0 .014-.048c0-.009.003-.02.007-.023a1.31 1.31 0 0 0 .072-.217.118.118 0 0 0 .016-.038.464.464 0 0 1 .018-.057.36.36 0 0 0 .015-.041.065.065 0 0 1 .014-.027 5.52 5.52 0 0 1 .464-.006l.456.002.014.045a.259.259 0 0 0 .02.05c.003.003.005.013.005.022 0 .01.007.03.015.047a.145.145 0 0 1 .014.043c0 .007.003.015.007.017.004.002.007.013.007.023s.007.031.015.048a26.81 26.81 0 0 1 .325.987.107.107 0 0 1 .01.032.292.292 0 0 0 .015.047.407.407 0 0 1 .02.057.11.11 0 0 0 .015.039c.003.002.006.01.006.019 0 .018.028.1.037.11.004.004.006.013.006.021 0 .018.028.1.037.11a60.562 60.562 0 0 0 .361 1.107.11.11 0 0 0 .016.038c.003.002.006.012.006.022 0 .01.007.032.014.048a.15.15 0 0 1 .015.041c0 .014.029.097.037.106.004.004.006.014.006.024 0 .009.007.03.014.047a.15.15 0 0 1 .015.04c0 .024.018.06.03.06.008 0 .016-.015.027-.053l.088-.286a.312.312 0 0 0 .014-.056 1.452 1.452 0 0 0 .044-.135l.101-.333.102-.33a.293.293 0 0 0 .014-.06c0-.008.003-.016.006-.019a.117.117 0 0 0 .016-.038 33.5 33.5 0 0 0 .124-.405.295.295 0 0 0 .013-.06c0-.008.003-.016.006-.018a.117.117 0 0 0 .016-.039c.005-.019.018-.063.03-.097a.461.461 0 0 0 .02-.077c0-.008.004-.017.007-.02a.117.117 0 0 0 .015-.038c.01-.036.027-.096.051-.173a.314.314 0 0 0 .014-.055c0-.006.006-.023.014-.039a.489.489 0 0 0 .022-.065c.005-.02.016-.054.023-.076a.236.236 0 0 0 .014-.056c0-.008.003-.017.006-.019a.117.117 0 0 0 .015-.039c.012-.045.03-.105.058-.191a.569.569 0 0 0 .022-.085c0-.008.003-.016.006-.018a.117.117 0 0 0 .015-.039 4.68 4.68 0 0 1 .085-.272l.018-.049h.558c.306 0 .557.001.557.003a73.28 73.28 0 0 1-.442 1.316 15.732 15.732 0 0 1-.16.47.164.164 0 0 1-.014.042.144.144 0 0 0-.014.047c0 .01-.003.02-.007.024a.804.804 0 0 0-.059.174c-.004.004-.03.077-.058.163a8.41 8.41 0 0 1-.087.257 1.22 1.22 0 0 1-.037.103.147.147 0 0 0-.014.048c0 .009-.003.02-.007.023a.804.804 0 0 0-.059.174c-.004.004-.05.136-.101.293a9.01 9.01 0 0 1-.11.317.147.147 0 0 0-.014.048c0 .009-.003.02-.007.023a.804.804 0 0 0-.058.174 4.217 4.217 0 0 0-.088.25 8.88 8.88 0 0 1-.105.308.296.296 0 0 1-.015.043.322.322 0 0 0-.014.044.382.382 0 0 1-.019.052.145.145 0 0 0-.014.048 2.38 2.38 0 0 0-.073.208c-.032.097-.063.191-.07.208l-.01.031h-.94l-.005-.016a6.01 6.01 0 0 1-.077-.223 3.832 3.832 0 0 0-.078-.225 1.133 1.133 0 0 0-.103-.293c-.004-.004-.007-.014-.007-.023a.146.146 0 0 0-.014-.048 4.11 4.11 0 0 1-.073-.208 2.547 2.547 0 0 0-.073-.205.062.062 0 0 0-.007-.025 3.567 3.567 0 0 1-.062-.18 4.489 4.489 0 0 0-.065-.188 8.432 8.432 0 0 1-.08-.232 6.933 6.933 0 0 0-.08-.232 5.795 5.795 0 0 1-.064-.188 4.676 4.676 0 0 0-.066-.188 6.538 6.538 0 0 1-.069-.2 3.897 3.897 0 0 0-.078-.224 4.778 4.778 0 0 1-.052-.154.305.305 0 0 0-.039-.09c-.004 0-.03.07-.059.154l-.055.162a2.334 2.334 0 0 0-.014.044 4.116 4.116 0 0 1-.145.415.061.061 0 0 0-.006.025 2.38 2.38 0 0 0-.073.204 5.182 5.182 0 0 1-.069.2 5.795 5.795 0 0 0-.065.188 5.05 5.05 0 0 1-.065.189 7.056 7.056 0 0 0-.073.21 4.807 4.807 0 0 1-.076.219.147.147 0 0 0-.014.047c0 .01-.003.02-.007.024a1.418 1.418 0 0 0-.052.14 3.566 3.566 0 0 1-.054.157 8.346 8.346 0 0 0-.08.231c-.038.116-.074.22-.08.232a3.723 3.723 0 0 0-.05.145c-.022.068-.044.13-.049.14l-.008.016h-.47c-.465 0-.47 0-.47-.015zm-8.929-.02C.002 17.827 0 16.733 0 15.399v-2.426l.535.002.534.002.002.958.002.958.98-.002.98-.002.004-.956.004-.957.534-.002.534-.002v4.862H3.037l-.002-.976-.002-.976-.957-.002-.958-.002-.022.018-.023.02-.002.957-.002.957-.53.002c-.29.001-.53 0-.534-.003zm5.014 0c-.003-.002-.005-.796-.005-1.764v-1.759l.527.002.527.002v3.521l-.522.002c-.287.001-.524 0-.527-.003zm10.278-2.423l.002-2.43 1.83-.002c1.458 0 1.83 0 1.834.007.007.01.008.92.002.937-.004.01-.138.01-1.288.01-1.237 0-1.285.001-1.296.014-.011.012-.012.054-.01.487l.001.474 1.143.002 1.143.002v.957l-1.143.002-1.143.002v1.007l1.317.002 1.317.002v.956h-3.71zm4.58 0l.002-2.43h1.253c.946 0 1.265.002 1.3.01l.11.016a.899.899 0 0 1 .086.015 1.173 1.173 0 0 1 .15.036.289.289 0 0 0 .06.014c.007 0 .016.003.019.007.002.004.01.007.017.007.007 0 .026.007.042.015a.185.185 0 0 0 .036.014c.003 0 .026.01.05.022a.262.262 0 0 0 .053.021c.005 0 .023.01.04.02.016.012.04.025.051.031.072.035.153.098.25.192.056.056.107.11.113.12.005.01.016.025.023.033a.23.23 0 0 1 .028.04l.022.036a.799.799 0 0 1 .075.154c.018.04.04.114.051.168a.632.632 0 0 0 .017.065c.005.013.008.09.008.21 0 .153-.002.201-.013.254l-.02.094a.7.7 0 0 1-.043.132.389.389 0 0 1-.062.126.967.967 0 0 1-.171.23.995.995 0 0 1-.21.164.68.68 0 0 0-.093.068.15.15 0 0 0 .05.022.23.23 0 0 1 .053.021.833.833 0 0 0 .096.052c.081.04.2.114.304.189.11.078.257.29.309.442.009.026.018.05.022.054.004.004.006.015.006.026 0 .01.006.038.014.062.02.064.025.125.025.329 0 .203-.005.265-.025.329a.262.262 0 0 0-.014.062c0 .01-.003.022-.006.026a.268.268 0 0 0-.022.054c-.024.07-.07.161-.121.239-.06.09-.21.24-.31.308a2.248 2.248 0 0 1-.325.17.441.441 0 0 1-.065.022.11.11 0 0 0-.039.015c-.002.003-.01.006-.019.006a.299.299 0 0 0-.059.014.887.887 0 0 1-.084.022 3.125 3.125 0 0 1-.42.067 71.56 71.56 0 0 1-1.346.01l-1.27.003zm2.465 1.476a.838.838 0 0 0 .235-.047.444.444 0 0 0 .23-.14.405.405 0 0 0 .115-.179.8.8 0 0 0 .012-.25l-.014-.065a.346.346 0 0 0-.048-.109.857.857 0 0 0-.123-.127.142.142 0 0 1-.036-.02.336.336 0 0 0-.056-.03 1.15 1.15 0 0 1-.054-.022.456.456 0 0 0-.069-.021l-.065-.015c-.1-.024-.121-.025-.835-.027l-.716-.003v.528c0 .29.002.53.005.533.003.003.3.005.662.005.515 0 .678-.002.758-.01zm-.178-1.966a.862.862 0 0 0 .24-.073.43.43 0 0 0 .137-.098c.091-.09.13-.19.13-.33a.495.495 0 0 0-.007-.09c-.034-.13-.045-.15-.125-.228a.516.516 0 0 0-.259-.147l-.076-.018c-.045-.011-.116-.013-.668-.015l-.618-.003v.506c0 .279.002.509.005.512.003.003.268.004.589.002.557-.003.586-.004.652-.018zm-17.166-1.02c-.012-.004-.013-.03-.011-.469l.002-.465.552-.002.553-.002.004.016c.002.01.003.22.002.47l-.002.452-.544.001c-.299.001-.549 0-.556-.002zM1.99 11.423a36.968 36.968 0 0 1 0-1.14l.005-.022h1.158v1.169h-.579c-.318 0-.58-.002-.583-.005zm5.29 0a16.61 16.61 0 0 1-.005-.583v-.578l.643-.003c.64-.003.643-.003.697-.02a.483.483 0 0 0 .098-.036.496.496 0 0 0 .183-.133.865.865 0 0 0 .081-.087.765.765 0 0 0 .096-.25l.002-.026-.446-.004c-.419-.004-.471-.007-.594-.028a1.29 1.29 0 0 1-.129-.03.377.377 0 0 1-.101-.03.144.144 0 0 0-.044-.013.24.24 0 0 1-.056-.021 1.85 1.85 0 0 1-.274-.138c-.005 0-.126-.08-.168-.11a3.88 3.88 0 0 1-.32-.325.64.64 0 0 0-.043-.058.265.265 0 0 1-.03-.043 1.448 1.448 0 0 0-.033-.056.188.188 0 0 1-.02-.036A1.006 1.006 0 0 1 6.71 8.6a1.771 1.771 0 0 1-.123-.498 2.351 2.351 0 0 1 .014-.478 1.876 1.876 0 0 1 .116-.404 1.955 1.955 0 0 1 .266-.439c.036-.046.194-.204.235-.235l.055-.042c.065-.051.177-.12.284-.174a1.867 1.867 0 0 1 .162-.075 1.7 1.7 0 0 1 .408-.104c.042-.006.329-.009 1.09-.009h1.033l.002.984.002.983H9.137v-.804h-.422c-.233 0-.437.004-.455.008a.686.686 0 0 0-.232.09 1.454 1.454 0 0 0-.187.189.458.458 0 0 0-.063.131.657.657 0 0 0 0 .395.991.991 0 0 1 .02.05.318.318 0 0 0 .03.055c.01.017.02.033.02.037 0 .01.15.157.18.177a.726.726 0 0 0 .138.067c.102.034.065.033 1.103.033h.977v.614c0 .368-.003.64-.007.68-.012.099-.02.156-.029.192l-.012.058a.24.24 0 0 1-.014.047.322.322 0 0 0-.014.043.922.922 0 0 1-.055.154.996.996 0 0 1-.108.215c0 .005-.1.156-.145.218a4.19 4.19 0 0 1-.294.29 2.601 2.601 0 0 1-.366.22 1.89 1.89 0 0 1-.517.146c-.065.01-1.397.017-1.405.01zm5.557 0a.374.374 0 0 0-.075-.01 1.763 1.763 0 0 1-.247-.043l-.058-.014a1.425 1.425 0 0 1-.21-.073c-.008 0-.248-.121-.26-.132a.26.26 0 0 0-.053-.032.15.15 0 0 1-.026-.019.788.788 0 0 0-.055-.04 2.97 2.97 0 0 1-.072-.05 4.737 4.737 0 0 1-.308-.31 1.943 1.943 0 0 1-.025-.037l-.06-.089a.775.775 0 0 1-.059-.095 1.444 1.444 0 0 1-.134-.285.478.478 0 0 1-.021-.056 3.228 3.228 0 0 1-.044-.156l-.015-.061a2.168 2.168 0 0 1-.03-.18 12.18 12.18 0 0 1-.007-.628v-.576h1.159l.004.016c.002.009.005.262.006.563l.002.547.03.088a.717.717 0 0 0 .075.158c0 .021.155.187.206.22.073.047.18.092.281.116.025.006.236.008.766.008.779 0 .746.001.863-.037a.654.654 0 0 0 .274-.169.667.667 0 0 0 .181-.286.537.537 0 0 0 .037-.223.412.412 0 0 0-.05-.229.38.38 0 0 0-.097-.127c-.071-.07-.102-.094-.143-.109a.727.727 0 0 1-.04-.016l-.036-.015c-.016-.007-.137-.01-.507-.013l-.485-.004v-.623c0-.46.003-.64.01-.689.016-.124.021-.152.028-.18.014-.054.036-.13.048-.164a.242.242 0 0 0 .011-.044.17.17 0 0 1 .015-.041 1.94 1.94 0 0 1 .075-.162 1.92 1.92 0 0 1 .22-.342c.033-.042.208-.221.234-.239l.05-.038a1.403 1.403 0 0 1 .17-.112.208.208 0 0 1 .036-.022.212.212 0 0 0 .032-.017.567.567 0 0 1 .104-.055 1.831 1.831 0 0 1 .286-.103c.078-.018.164-.035.22-.044a10.1 10.1 0 0 1 .505-.01l.458-.003.004.024c.002.013.003.275.002.582l-.002.557-.42.004c-.473.005-.443.001-.57.064a.465.465 0 0 0-.164.126c-.07.07-.094.1-.114.14a.534.534 0 0 0-.064.206v.047l.025.005.054.012.058.014a.845.845 0 0 1 .13.044 1.277 1.277 0 0 1 .275.131c.005 0 .115.073.175.116.028.021.276.269.29.29a.71.71 0 0 0 .07.102c.01.019.024.041.033.052a2.86 2.86 0 0 1 .131.268c.021.046.05.136.074.234.043.168.046.574.006.735l-.021.091a1.7 1.7 0 0 1-.03.105.251.251 0 0 0-.014.052.169.169 0 0 1-.014.04.182.182 0 0 0-.015.037c0 .003-.007.02-.014.036a1.796 1.796 0 0 1-.13.26 1.318 1.318 0 0 1-.124.178c0 .013-.04.058-.149.168-.11.11-.177.17-.19.17a1.186 1.186 0 0 1-.197.134 1.997 1.997 0 0 1-.24.12.928.928 0 0 1-.079.03.435.435 0 0 0-.054.021.09.09 0 0 1-.029.01.984.984 0 0 0-.076.019.976.976 0 0 1-.09.022l-.08.014c-.144.025-.271.029-.994.029-.394 0-.72-.002-.722-.004zm5.766-.532a2.692 2.692 0 0 1-.22-.029 2.613 2.613 0 0 1-.441-.13 3.202 3.202 0 0 1-.28-.145 3.24 3.24 0 0 1-.25-.166 8.344 8.344 0 0 1-.352-.352 2.493 2.493 0 0 1-.315-.534 2.396 2.396 0 0 1-.145-.52c-.023-.127-.024-.196-.027-1.524L16.57 6.14h.584c.32 0 .584.001.585.002l.006 1.353c.004 1.268.005 1.355.017 1.399a.425.425 0 0 0 .02.06.082.082 0 0 1 .006.027.16.16 0 0 0 .015.045 1.126 1.126 0 0 0 .124.241c.047.07.172.203.229.244a.712.712 0 0 0 .128.084.336.336 0 0 0 .055.03.946.946 0 0 1 .063.027c.058.027.13.048.136.04a.156.156 0 0 0-.018-.048.34.34 0 0 1-.021-.05.186.186 0 0 0-.014-.036.787.787 0 0 1-.059-.186 1.289 1.289 0 0 1-.044-.298 1.326 1.326 0 0 1 0-.232c.007-.112.012-.147.03-.234l.013-.07a1.51 1.51 0 0 1 .103-.288.773.773 0 0 1 .08-.15 1.5 1.5 0 0 1 .057-.094l.047-.072.004-.457.004-.456 1.705-.002c1.627-.002 1.838 0 1.933.019l.068.011a1.958 1.958 0 0 1 .823.376.217.217 0 0 0 .032.023c.035.02.272.268.325.342a1.378 1.378 0 0 1 .12.183 1.962 1.962 0 0 1 .168.366.296.296 0 0 0 .014.044.307.307 0 0 1 .014.043l.012.05a1.321 1.321 0 0 1 .044.23c.012.082.012.427 0 .503a1.956 1.956 0 0 1-.103.422.18.18 0 0 0-.014.037.24.24 0 0 1-.014.036 1.942 1.942 0 0 1-.232.412 1.69 1.69 0 0 0-.04.054 4.199 4.199 0 0 1-.299.305 2.56 2.56 0 0 1-.614.331.229.229 0 0 0-.051.013.809.809 0 0 1-.08.023.725.725 0 0 1-.141.03.463.463 0 0 0-.08.017c-.02.01-3.59.013-3.706.005zm1.574-1.167a.59.59 0 0 0 .097-.021.249.249 0 0 1 .053-.014c.019 0 .13-.056.185-.093a.995.995 0 0 0 .21-.208.661.661 0 0 0 .087-.174.679.679 0 0 0 .044-.328.694.694 0 0 0-.05-.203.661.661 0 0 0-.079-.154 1.094 1.094 0 0 0-.186-.194.79.79 0 0 0-.124-.073.727.727 0 0 0-.677.009.574.574 0 0 0-.197.147.729.729 0 0 0-.151.202l-.019.045a.739.739 0 0 0-.025.515.81.81 0 0 0 .068.158c.038.066.058.09.133.164.09.088.103.098.198.145a.716.716 0 0 0 .433.078zm2.002-.003a.777.777 0 0 0 .412-.217.684.684 0 0 0 .193-.306.66.66 0 0 0 .04-.252.752.752 0 0 0-.13-.417 1.081 1.081 0 0 0-.189-.198.929.929 0 0 0-.308-.137 3.499 3.499 0 0 0-.28-.01l-.243-.004-.023.026-.022.026.014.025a.121.121 0 0 1 .014.033 1.402 1.402 0 0 1 .073.21c.013.055.042.202.05.25.01.059.006.377-.006.453a1.514 1.514 0 0 1-.117.419.16.16 0 0 1-.014.034l-.014.029.023.023.022.024h.225c.158 0 .241-.004.28-.01zM0 9.121v-.583l2.11-.002c1.981-.002 2.114-.003 2.158-.016l.072-.018c.041-.01.116-.036.156-.054l.055-.025a1.04 1.04 0 0 0 .126-.075c.073-.047.287-.266.287-.293a.925.925 0 0 0 .108-.217.9.9 0 0 0 .055-.213c.008-.05.01-.192.01-.774V6.14h1.168l-.003.788c-.002.514-.006.799-.01.82-.004.018-.012.06-.017.094a.959.959 0 0 1-.015.084 7.37 7.37 0 0 0-.05.199 1.377 1.377 0 0 1-.072.209 3.94 3.94 0 0 1-.16.308c0 .006-.05.08-.105.157l-.052.072a6.28 6.28 0 0 1-.335.338l-.058.042a3.168 3.168 0 0 1-.269.175 1.159 1.159 0 0 1-.197.097 1.076 1.076 0 0 1-.092.037.481.481 0 0 0-.055.02 3.167 3.167 0 0 1-.283.078c-.011.002-.047.01-.079.015a2.32 2.32 0 0 1-.116.018c-.038.005-.804.008-2.197.01L0 9.706z"/></svg>