<svg role="img" viewBox="0 0 24 24" xmlns="http://www.w3.org/2000/svg"><path d="M14.977 23.842c-1.055-.154-1.726-.798-1.902-1.827-.151-.882.148-1.749.776-2.245.49-.387.852-.486 1.755-.48.656.005.826.03 1.181.166l.415.16.019.52c.021.602 0 .618-.434.33-.896-.597-1.867-.463-2.277.313-.198.376-.21 1.165-.024 1.53.432.849 1.52.985 2.422.303.12-.09.242-.148.272-.13.03.019.054.26.054.535v.502l-.399.132c-.37.122-1.168.267-1.388.252a11.524 11.524 0 0 1-.47-.06zm4.58.001c-.773-.13-1.353-.557-1.66-1.223-.163-.357-.182-.466-.18-1.037.003-.502.033-.715.143-.993.388-.983 1.55-1.505 2.85-1.278.813.141 1.347.54 1.671 1.25.152.332.175.462.174.989-.002.707-.146 1.162-.497 1.573-.3.35-.86.633-1.421.718-.514.079-.615.079-1.08.001zm1.177-.965c.144-.09.273-.253.377-.482.141-.308.156-.412.133-.933-.02-.47-.054-.634-.171-.823-.509-.823-1.617-.713-1.968.196-.236.612-.104 1.578.263 1.923.358.337.933.387 1.366.119zM1.468 21.55v-2.234h1.209l.018.813.018.814.877.018.878.018v-1.662h3.383v.829H5.745v.83h1.979v.83h-1.98v1.149h2.107v.83H4.468v-1.983l-.878.018-.877.018-.018.973-.017.974h-1.21zm7.292.016.017-2.218h1.276c1.387 0 1.663.052 2.13.4.649.483.577 1.658-.132 2.18-.374.275-.801.388-1.467.388h-.563v1.468H8.743zm1.865-.08c.498-.08.69-.262.699-.659.004-.19-.032-.327-.107-.41-.143-.158-.52-.272-.9-.272h-.296v.703c0 .796-.048.745.604.639zm2.601-3.331c-.057-.058-.077-.59-.077-2.045v-1.968l-1.133.018-1.133.017-.034 1.979a76.072 76.072 0 0 1-.048 1.995c-.035.04-5.672.008-5.736-.033-.04-.026-1.197-1.451-2.57-3.167L0 11.832V6.24l.372-.435c.204-.239.743-.895 1.196-1.458.454-.564 1.386-1.71 2.07-2.546L4.954.191c.097-.12 5.7-.13 5.82-.01.057.056.077.591.077 2.012 0 1.49.018 1.943.08 1.965.044.016.554.037 1.133.046l1.053.017.034-2.01a76.16 76.16 0 0 1 .048-2.027c.008-.01 1.294-.016 2.859-.016h2.845l.214.239c.118.132 1.265 1.56 2.549 3.175L24 6.517v5.56l-.6.731-2.51 3.062-1.908 2.33-2.84.016c-2.154.013-2.857-.002-2.916-.06zm4.791-3.786 1.248-1.583c.41-.519.94-1.19 1.176-1.491l.431-.548-.001-1.508-.002-1.509-1.025-1.308c-.563-.72-1.257-1.61-1.54-1.979-.833-1.082-.753-1.021-1.362-1.021-.419 0-.532.02-.563.101-.021.055-.039.932-.039 1.947v1.846H7.66V3.359H6.523L4.858 5.45 3.192 7.54v3.064l1.671 2.154 1.672 2.154h1.123l.017-1.994.017-1.995 3.287-.002c1.808-.001 3.747.013 4.308.032l1.022.034.016 1.946c.009 1.071.03 1.984.047 2.03.022.06.177.077.587.063l.556-.018.502-.638z"/></svg>