<svg role="img" viewBox="0 0 24 24" xmlns="http://www.w3.org/2000/svg"><path d="M0 15.956v-.704h.446v.587h.492l.007-.227.007-.227.198-.066a1.77 1.77 0 0 1 .23-.067c.023 0 .03.143.03.704v.705H.94v-.471l-.24.007-.241.007-.007.229-.007.228H0zm2.96.68c-.36-.075-.562-.36-.536-.76.019-.288.133-.478.359-.595.096-.05.158-.063.343-.071.288-.013.442.028.59.158.167.147.215.271.215.553 0 .195-.009.256-.055.358a.62.62 0 0 1-.323.316c-.119.052-.436.075-.594.042zm.398-.372c.076-.054.115-.167.116-.338.003-.259-.12-.405-.323-.385-.19.02-.274.163-.258.44.007.116.022.18.057.227.09.122.278.147.408.056zm1.597-.308v-.704H5.4l.265.377.266.377.007-.318.007-.318.194-.059a2.87 2.87 0 0 1 .21-.06c.01 0 .017.318.017.705v.705l-.217-.001-.217-.001-.259-.366-.258-.366-.006.367-.006.367h-.445v-.705zm2.45.653c.008-.03.128-.347.267-.706l.254-.652.258.007.258.006.263.669c.145.368.264.682.265.699 0 .021-.06.029-.232.029h-.233l-.04-.117-.038-.118h-.505l-.034.112-.035.111-.23.007c-.231.007-.232.007-.218-.047zm.908-.518c0-.016-.03-.124-.067-.24l-.066-.21-.074.222a3.23 3.23 0 0 0-.075.24c0 .01.064.018.141.018.098 0 .141-.01.14-.03zm1.668-.136v-.706l.51.008c.486.007.516.01.607.062.135.077.185.172.184.344 0 .171-.052.279-.165.345l-.08.048.053.054c.042.042.206.467.206.535 0 .01-.105.016-.233.016h-.233l-.063-.187c-.068-.206-.117-.259-.24-.259h-.077v.446h-.47zm.798-.116a.175.175 0 0 0 .047-.106c0-.103-.076-.152-.235-.152h-.14v.305h.14c.11 0 .151-.01.188-.047zm1.55.117v-.704h.217l.217.002.255.363c.14.2.263.363.272.363.009 0 .131-.164.272-.364l.256-.364h.436v1.408h-.421l-.006-.38-.006-.379-.258.367a5.231 5.231 0 0 1-.272.368 4.88 4.88 0 0 1-.27-.364l-.257-.364-.006.376-.006.376h-.421zm2.912-.002v-.706l.499.008c.45.007.508.013.591.056a.48.48 0 0 1 .138.11c.052.068.076.234.054.356-.018.096-.114.22-.194.25l-.054.021.054.055c.032.031.091.162.14.307l.084.252-.237-.007-.237-.007-.055-.165c-.064-.192-.138-.27-.256-.27h-.081v.446h-.446v-.706zm.779-.107c.053-.049.055-.167.004-.224-.03-.033-.074-.043-.188-.043h-.15v.306h.146c.102 0 .157-.012.188-.04zm2.022.79c-.333-.07-.53-.32-.533-.68-.004-.333.113-.555.354-.674.114-.055.173-.068.352-.075.37-.014.593.087.723.327.058.106.071.161.08.33.017.368-.107.609-.374.724a1.315 1.315 0 0 1-.602.048zm.4-.373c.08-.069.11-.16.11-.333 0-.204-.044-.31-.152-.36-.23-.11-.429.045-.433.338a.554.554 0 0 0 .087.329c.075.092.296.107.389.026zm2.151.374a.653.653 0 0 1-.37-.2c-.14-.16-.156-.21-.156-.505 0-.234.007-.283.052-.368.131-.246.308-.342.652-.355.292-.012.459.04.611.194.14.14.184.283.172.572-.008.196-.019.244-.078.352a.614.614 0 0 1-.34.283 1.564 1.564 0 0 1-.543.027zm.38-.356c.118-.06.17-.44.083-.604-.069-.13-.253-.18-.391-.109-.107.055-.15.16-.15.364 0 .16.011.204.076.3.052.08.27.107.382.05zm1.618.157v-.222l.38-.265.378-.266-.379-.006-.379-.006v-.421H24v.435l-.367.258-.368.258.368.006.367.006v.445h-1.409zm-13.498-3.48c.008-1.652.002-1.594.155-1.755.141-.149.209-.166.689-.175l.438-.01.008-.637.008-.638.065-.132a.502.502 0 0 1 .336-.276c.135-.038 1.7-.035 1.827.003.056.016.138.07.195.127.172.171.172.17.172 1.61v1.263h-.869v-.446h-2.16v1.923l-.412.313a9.677 9.677 0 0 1-.435.32c-.017.006-.022-.463-.018-1.491zm2.954-2.3c0-.356 0-.366-.058-.422-.055-.056-.069-.058-.375-.058-.432 0-.412-.022-.412.47v.376h.845zm2.434 3.097a.952.952 0 0 1-.015-.23.794.794 0 0 0-.022-.236c-.012-.013-.029-.197-.038-.41a5.605 5.605 0 0 0-.076-.799l-.017-.105-.028.129a33.16 33.16 0 0 0-.067.317c-.09.446-.13.406-.141-.142a4.113 4.113 0 0 0-.021-.429c-.007-.007-.015.04-.017.103l-.004.116-.016-.118c-.012-.092-.017-.06-.021.153-.003.176-.013.253-.026.223-.012-.03-.021.105-.024.352-.003.313-.009.382-.027.317-.025-.084-.007-4.776.018-5.11l.013-.167.416-.191a7.02 7.02 0 0 1 .434-.192c.011 0 .013.172.005.382-.008.21-.019.805-.024 1.321-.017 1.684-.058 3.682-.081 3.934a2.754 2.754 0 0 1-.05.34 4.2 4.2 0 0 0-.054.248c-.038.195-.067.244-.117.194zm-14.48-.171c0-.013.091-.209.204-.435l.205-.41.54-.006.541-.006.006-1.237.006-1.237.41-.213a5.65 5.65 0 0 1 .435-.213c.016 0 .022.626.018 1.884l-.006 1.885-1.18.006C.403 13.607 0 13.6 0 13.585zm2.748.006c0-.01.098-.208.217-.44l.216-.424.851-.006.852-.006v-.82H3.17v-1.04c.001-.623.011-1.081.026-1.145a.489.489 0 0 1 .259-.34l.126-.07.829-.008c.938-.008 1.014.001 1.179.15.185.168.176.063.176 2.23v1.925l-1.509.006c-.83.003-1.508-.002-1.507-.012zm2.136-2.952v-.386l-.064-.05c-.06-.047-.087-.05-.375-.043-.413.01-.393-.012-.403.445a3.32 3.32 0 0 0 .005.387c.01.027.092.033.425.033h.411zm1.292 2.952c0-.01.099-.208.217-.44l.217-.424.37-.006.37-.006v-2.464l.422-.211c.232-.117.428-.212.434-.212.007 0 .012.85.012 1.89v1.891H7.198c-.562 0-1.021-.008-1.02-.018zm9.163-.417.217-.435h.858v-2.477l.42-.217c.23-.12.425-.218.432-.218.007 0 .016.22.02.488.01.53.017.562.145.64.065.04.12.046.396.046h.322l-.014-.632-.014-.632.426-.213c.235-.117.437-.213.45-.213.015 0 .024.291.024.845v.845h.842l.007-.665.007-.665.072-.115a.45.45 0 0 1 .21-.186l.138-.071.641-.008.642-.008v-.325h.873l.773.755.773.755v1.425h-1.55v.447h-.869v-.447h-4.298v1.715h-2.16zm6.241-2.512c0-.186-.01-.364-.022-.396-.03-.081-.136-.11-.4-.11-.247 0-.364.028-.4.095-.013.023-.023.202-.023.397V11h.845zm1.691.331c0-.011-.756-.706-.792-.728-.023-.014-.03.064-.03.36V11h.411c.226 0 .411-.004.411-.008zM1.48 8.618v-.435h.892v.869H1.48zm16.673 0v-.435h.869v.869h-.869z"/></svg>