<svg role="img" viewBox="0 0 24 24" xmlns="http://www.w3.org/2000/svg"><path d="M5.68 11.03C4.204 11.03 3 9.797 3 8.285 3 6.774 4.204 5.54 5.68 5.54c1.477 0 2.68 1.234 2.68 2.745 0 1.512-1.203 2.745-2.68 2.745zm12.64.05c-1.477 0-2.68-1.232-2.68-2.744 0-1.512 1.203-2.745 2.68-2.745 1.476 0 2.68 1.233 2.68 2.745s-1.204 2.745-2.68 2.745zm-6.295 3.627c-1.477 0-2.68-1.233-2.68-2.745s1.203-2.745 2.68-2.745c1.476 0 2.68 1.233 2.68 2.745s-1.204 2.745-2.68 2.745zm0-7.303c-1.991 0-3.615-1.663-3.615-3.702C8.41 1.663 10.034 0 12.025 0c1.99 0 3.614 1.663 3.614 3.702 0 2.039-1.623 3.702-3.614 3.702zm-5.41 9.116c-.962 0-1.746-.803-1.746-1.788 0-.984.784-1.788 1.746-1.788.961 0 1.746.804 1.746 1.788 0 .985-.785 1.788-1.746 1.788zm10.844 0c-.961 0-1.746-.803-1.746-1.788 0-.984.785-1.788 1.746-1.788.962 0 1.746.804 1.746 1.788 0 .985-.784 1.788-1.746 1.788zM12 20.248c-.962 0-1.746-.804-1.746-1.788 0-.985.784-1.788 1.746-1.788s1.746.803 1.746 1.788c0 .984-.784 1.788-1.746 1.788zm-4.45 1.914a.923.923 0 0 1-.91-.932c0-.513.408-.932.91-.932.5 0 .909.419.909.932a.923.923 0 0 1-.91.932zm9.024 0a.923.923 0 0 1-.91-.932c0-.513.409-.932.91-.932.5 0 .91.419.91.932a.923.923 0 0 1-.91.932zM12.049 24a.923.923 0 0 1-.91-.932c0-.513.41-.932.91-.932.501 0 .91.419.91.932a.923.923 0 0 1-.91.932z"/></svg>