<svg role="img" viewBox="0 0 24 24" xmlns="http://www.w3.org/2000/svg"><path d="M13.083 23.972c-.088-.051-.063-.22.063-.422.376-.604.553-1.162.584-1.845.031-.694-.149-1.398-.533-2.082-.152-.272-.723-1.113-.755-1.113a.587.587 0 0 0-.115.049.875.875 0 0 1-.271.059c-.15.01-.2 0-.352-.073-.162-.077-.486-.392-3.873-3.78-2.765-2.766-3.711-3.729-3.757-3.824a.596.596 0 0 1-.013-.56c.066-.144.231-.321 1.275-1.367l1.199-1.201-.058-.082c-.129-.18-.16-.314-.16-.67 0-.32.004-.348.087-.522.231-.489.835-.799 1.37-.704.105.02.27.074.364.12l.172.087.24-.245.241-.245-.195-.174c-.38-.338-.78-.741-.93-.941a3.106 3.106 0 0 1-.64-1.91c0-.763.248-1.27.976-1.99.445-.439.566-.533.69-.537.18-.005.212.118.131.5a2.92 2.92 0 0 0-.003.947c.144.749.578 1.499 1.376 2.374l.152.167.31-.294c.171-.162.442-.43.601-.598.37-.388.479-.454.749-.455.19-.001.212.006.361.108.088.06.193.15.233.197.11.132 5.69 5.726 6.521 6.538.801.782.881.886.88 1.14-.003.323.109.2-3.084 3.387l-2.927 2.921.273.36c.386.51.603.85.796 1.25.498 1.035.628 2.054.379 2.984-.23.863-.763 1.557-1.691 2.204-.356.248-.54.315-.666.242zm.528-.423c1.126-.761 1.622-1.495 1.735-2.565.127-1.21-.328-2.46-1.369-3.755-.477-.594-.908-1.02-2.267-2.243-.78-.701-1.073-.986-1.176-1.144-.037-.056-.038-.084-.009-.184.038-.128.282-.612.31-.612.02 0 .16.12.96.831.757.674 1.048.921 1.417 1.209.394.306.914.644.963.625.022-.009.14-.081.26-.162 1.11-.744 1.939-1.964 2.236-3.296.086-.383.093-1.12.014-1.482a3.507 3.507 0 0 0-.43-1.097c-.121-.204-.122-.207-.06-.23a39.095 39.095 0 0 1 1.046-.397c.008 0 .085-.026.17-.058.187-.07.189-.077.073-.423-.152-.454-.45-.973-.698-1.217l-.137-.134-.42.187c-.448.198-1.162.49-1.2.49-.013 0-.141-.098-.285-.219-.426-.358-.745-.597-1.767-1.324-1.614-1.149-2.08-1.519-2.706-2.144-.92-.92-1.506-1.886-1.66-2.73a3.66 3.66 0 0 1-.031-.51c0-.29.013-.402.075-.674l.016-.067-.093.078c-.96.799-1.271 1.26-1.352 2.003-.057.52.03.994.273 1.49.268.546.574.887 1.493 1.664.495.419 1.056.966 1.056 1.03 0 .016-.104.157-.23.314-.726.902-.991 1.565-.994 2.483-.002.807.2 1.398.8 2.348.14.222.255.42.255.44 0 .019-.07.226-.155.46a6.449 6.449 0 0 0-.155.455c0 .016-.008.03-.019.03-.044 0-.333-.249-.55-.474a3.963 3.963 0 0 1-1.041-2.104c-.049-.284-.056-.412-.042-.802a5.91 5.91 0 0 1 .035-.547c.02-.08.014-.078-.24.098-.707.489-1.038.894-1.19 1.454-.08.296-.085.875-.011 1.22.147.691.525 1.363 1.143 2.033.274.297.872.816 1.547 1.343 1.457 1.138 1.97 1.576 2.566 2.19 1.166 1.2 1.825 2.237 2.069 3.257.239.999.099 1.924-.426 2.812a3.97 3.97 0 0 0-.151.269c0 .017.031-.002.352-.219zm1.563-9.482l-.45-.298c-.453-.3-.984-.7-1.352-1.02-.39-.34-1.155-1.13-1.155-1.194 0-.011.032-.035.071-.053.04-.018.365-.218.722-.444.358-.227.793-.487.967-.578l.315-.166.168.177c.645.674 1.011 1.843.912 2.908-.025.272-.102.723-.123.716a.913.913 0 0 1-.075-.048zm-4.119-3.86c-.129-.137-.361-.51-.501-.802-.335-.702-.474-1.431-.394-2.065.033-.261.126-.63.159-.63.008 0 .144.07.302.157.347.191.814.522 1.225.867.54.455 1.303 1.153 1.28 1.172a9.66 9.66 0 0 1-.314.209c-.16.104-.497.338-.746.52-.387.281-.793.564-.908.631-.017.01-.063-.016-.103-.058zM8.02 7.988a.95.95 0 0 0 .484-.478c.16-.337.13-.707-.08-1.016-.111-.165-.207-.246-.432-.364-.142-.075-.179-.081-.45-.081-.27 0-.31.007-.465.082-.429.211-.658.65-.578 1.108.095.546.5.861 1.085.843.215-.007.281-.02.436-.094z"/></svg>