<svg role="img" viewBox="0 0 24 24" xmlns="http://www.w3.org/2000/svg"><path d="M21.638 5.555c-.713 0-1.401.37-1.81 1.06l-4.707 7.926c-.656 1.104-.343 2.595.701 3.342l.061.044c1.044.747 2.413.46 3.068-.644l4.706-7.926c.656-1.104.343-2.595-.701-3.342l-.061-.044a2.16 2.16 0 0 0-1.257-.416zm-7.33.027c-.713 0-1.4.37-1.81 1.06L7.79 14.568c-.655 1.104-.343 2.595.702 3.342l.06.044c1.045.747 2.413.46 3.068-.644l4.707-7.926c.655-1.104.342-2.595-.702-3.342l-.06-.044a2.16 2.16 0 0 0-1.257-.416zm-7.448.075c-.713 0-1.401.37-1.811 1.06L.343 14.643c-.656 1.104-.343 2.595.701 3.342l.061.044c1.044.747 2.412.46 3.068-.644L8.879 9.46c.655-1.104.343-2.595-.701-3.342l-.061-.044a2.16 2.16 0 0 0-1.257-.416z"/></svg>