<svg role="img" viewBox="0 0 24 24" xmlns="http://www.w3.org/2000/svg"><path d="M9.645 0C8.135.002 6.59.78 5.578 2.752a4.302 4.302 0 0 0-.385 3.013h-.094v.213h.147c.02.07.04.142.063.213h-.21v.213h.282l.081.214H5.1v.213h.453c.032.07.065.142.1.213H5.1v.213h.66c.037.071.075.143.115.214H5.1v.213H6l.13.213H5.1v.213h1.17c.047.072.096.143.146.214H5.099v.213h1.469c.052.071.106.142.16.213h-1.63v.213h1.797c.057.072.115.143.174.214h-1.97v.213h2.149c.06.071.122.142.185.213H5.099v.213h2.525c.065.072.13.143.197.214H5.099v.213h2.923l.206.213h-3.13v.213H8.44c.071.072.144.143.216.214H5.1v.213h3.776l.224.213h-4v.214h4.227l.23.213H5.1v.213h4.69l.237.213h-4.93v.214h5.17l.242.213H5.1v.213h5.655l.247.213H5.099v.214h6.15l.249.213h-6.4v.213h6.65l.252.213H5.099v.214h7.153l.165.139v-2.45c-1.81-1.746-3.948-3.379-5.847-5.87-.55-.722-.251-2.255.377-3.07 2.38-2.39 4.946-.76 4.979.776.033 1.537.544 2.035 1.175 2.035a1.13 1.13 0 0 0 1.137-1.018c.016-.068.022-.148.034-.332.145-2.28-2.194-4.295-4.627-4.292zM5.099 5.503v.048h.042zm1.866.37L8.812 7.72l1.847-1.847zm3.96 0l1.847 1.847 1.847-1.847zm3.96 0l1.848 1.847 1.847-1.847zm-4.278.318l-.214.213h.797l-.213-.213zm3.96 0l-.213.213h.797l-.213-.213zm-4.387.427l-.213.213h1.65l-.213-.213zm3.96 0l-.212.213h1.65l-.214-.213zm-4.386.426l-.214.213h2.503l-.213-.213zm3.96 0l-.213.213h2.503l-.213-.213zm-4.387.427l-.213.213h3.356l-.213-.213zm3.96 0l-.212.213h3.356l-.214-.213zm-4.298.426l.213.213h3.18l.213-.213zm3.96 0l.214.213h3.18l.213-.213zm-.177.089l-.124.124h.249zm-3.356.338l.213.213h2.326l.213-.213zm3.019 0l-.214.213h1.102l-.213-.213zm.941 0l.213.213h2.327l.213-.213zm-3.534.426l.213.213h1.474l.213-.213zm2.166 0l-.213.213h1.955l-.214-.213zm1.795 0l.213.213h1.473l.213-.213zm-3.534.427l.213.213h.62l.213-.213zm1.313 0l-.214.213h2.808l-.213-.213zm2.647 0l.213.213h.62l.214-.213zm-3.534.426l.097.097.097-.097zm.46 0l-.213.213h3.66l-.213-.213zm3.5 0l.098.097.096-.097zm-3.533.427l.213.213h2.875l.213-.213zm3.726.203l-1.885 1.885v11.474l1.814-1.048zm-3.3.223l.213.213h2.022l.213-.213zm.427.427l.213.213h1.169l.213-.213zm.426.426l.213.214h.316l.213-.214zm2.98 2.161v2.96h-.005v.21h.195c.105.071.205.143.3.214h-.495v.213h.76c.083.071.16.142.234.214h-.994v.213h1.199c.063.07.122.142.177.213h-1.376v.213h1.528c.047.071.089.142.128.214h-1.656v.213h1.76c.031.07.059.142.083.213h-1.843v.213h1.904c.017.072.031.143.042.214h-1.946v.213h1.968c.004.071.005.142.004.213h-1.972v.213h1.957a2.813 2.813 0 0 1-.032.214h-1.925v.213h1.876c-.02.071-.041.143-.066.213h-1.81v.213h1.727c-.03.072-.063.143-.098.214h-1.629v.213h1.514a4.523 4.523 0 0 1-.132.213h-1.382v.214h1.235a5.554 5.554 0 0 1-.164.213h-1.07v.213h.89c-.064.072-.13.143-.197.213h-.694v.214h.478a7.733 7.733 0 0 1-.234.213h-.244v.204c-.83.67-1.773 1.167-2.508 1.378 5.5-.495 9.08-6.711 2.514-10.51zm-10.282.825v.213h7.311v-.213zm0 .426v.214h7.311v-.214zm0 .427v.213h7.311v-.213zm0 .426v.214h7.311v-.214zm0 .427v.213h7.311v-.213zm0 .427v.213h7.311v-.213zm0 .426v.213h7.311v-.213zm0 .427v.213h7.311v-.213zm0 .426v.213h7.311v-.213zm0 .427v.213h7.311v-.213zm0 .426v.214h7.311v-.214zm.009.427c.006.071.013.142.024.213h7.279v-.213zm.065.426c.016.072.035.143.056.213h7.182v-.213zm.13.427c.027.071.057.143.089.213h7.019v-.213zm.195.426c.04.072.08.143.124.213h6.789v-.213zm.266.427c.05.072.104.143.16.213h6.487v-.213zm.338.426c.063.072.13.144.198.214h6.11v-.214zm.417.427c.078.072.159.143.242.213h5.65v-.213zm.507.426a8.1 8.1 0 0 0 .29.214h5.095v-.214zm.61.427c.115.073.232.144.352.213h4.423V22.4zm.741.426c.143.075.288.146.435.214h3.599v-.214zm.926.427c.188.076.378.147.569.213h2.539v-.213zm1.26.426c.32.088.64.16.954.214h.894v-.214zm1.811.32l.037.002v-.003z"/></svg>