<svg viewBox="0 0 24 24" xmlns="http://www.w3.org/2000/svg" role="img"><path d="M15.76 17.283C4.98 26.41-5.72 12.552 3.506 3.213-.79 13.338 7.113 21 15.76 17.283zm1.485-9.185c9.282 10.653-4.36 21.611-13.827 12.517 10.169 4.139 17.679-3.911 13.827-12.517zM8.201 6.657c10.72-9.197 21.51 4.592 12.343 13.99 4.231-10.152-3.72-17.764-12.343-13.99zm-1.793 8.645c-8.232-11.488 6.384-21.1 14.95-11.147-9.733-5.087-17.97 2.214-14.95 11.147zM12 16.5A4.509 4.509 0 0 1 7.5 12c0-2.478 2.021-4.5 4.5-4.5s4.5 2.022 4.5 4.5c0 2.479-2.021 4.5-4.5 4.5z"/></svg>