<svg role="img" viewBox="0 0 24 24" xmlns="http://www.w3.org/2000/svg"><path d="M7.419 16.392a.424.424 0 0 1-.304-.253.595.595 0 0 1-.018-.272.477.477 0 0 1 .129-.217c.089-.073.148-.092.286-.092.11 0 .13.003.192.032a.429.429 0 0 1 .206.216.43.43 0 0 1 .027.172c0 .092 0 .115-.033.179a.443.443 0 0 1-.485.235zm.174-.126c.134-.094.131-.503 0-.588-.089-.055-.196.004-.234.132a.783.783 0 0 0 0 .33c.041.137.147.192.24.126zm4.36.127a.424.424 0 0 1-.33-.509.397.397 0 0 1 .42-.326c.11 0 .13.003.19.032a.417.417 0 0 1 .194.194c.044.095.05.257.013.358a.421.421 0 0 1-.223.225.552.552 0 0 1-.263.026zm.172-.128c.057-.04.086-.123.09-.259.01-.15-.014-.236-.071-.298a.14.14 0 0 0-.179-.03c-.128.081-.142.466-.02.577a.138.138 0 0 0 .18.01zm3.282.124a.395.395 0 0 1-.21-.113.368.368 0 0 1-.114-.26c-.016-.271.162-.464.43-.464.096 0 .17.022.234.068.05.037.107.105.099.118a.283.283 0 0 1-.054.042c-.032.023-.051.03-.054.02a.263.263 0 0 0-.103-.116c-.126-.072-.263.003-.297.16-.04.191.015.368.132.421.109.05.211.008.284-.114l.023-.038.046.03.05.035c.01.008-.05.09-.099.132a.432.432 0 0 1-.366.079zm2.559.003a.437.437 0 0 1-.291-.219.486.486 0 0 1-.038-.273.392.392 0 0 1 .22-.304c.073-.036.086-.039.201-.039.109 0 .13.004.19.031.171.08.262.263.23.462a.406.406 0 0 1-.387.347.574.574 0 0 1-.125-.005zm.174-.127a.249.249 0 0 0 .058-.078c.027-.053.03-.07.03-.215 0-.171-.014-.216-.08-.279-.072-.067-.182-.036-.231.066a.743.743 0 0 0-.017.38c.04.138.143.192.24.126zm1.347.127a.425.425 0 0 1-.292-.22c-.03-.06-.033-.077-.033-.2 0-.125 0-.139.032-.196a.418.418 0 0 1 .19-.185c.064-.03.08-.034.192-.034.108 0 .13.004.188.031a.402.402 0 0 1 .2.195c.034.07.038.087.038.183 0 .149-.025.214-.115.305a.37.37 0 0 1-.138.096.552.552 0 0 1-.263.025zm.172-.127c.134-.097.133-.5 0-.585a.14.14 0 0 0-.181.027c-.057.063-.078.15-.071.299.01.17.048.255.133.281a.134.134 0 0 0 .121-.022zm.762.127a.428.428 0 0 1-.302-.236.338.338 0 0 1-.034-.178c0-.094 0-.114.036-.183a.408.408 0 0 1 .198-.204c.063-.031.079-.034.197-.034.12 0 .132.002.191.035.061.034.142.114.142.14 0 .007-.022.027-.05.046-.045.032-.05.032-.06.013a.323.323 0 0 0-.132-.123.232.232 0 0 0-.177.02c-.113.084-.139.36-.047.499.063.094.19.127.275.07.025-.016.027-.025.027-.128v-.11h.222v.242l-.059.038a.646.646 0 0 1-.428.093zm1.88 0a.426.426 0 0 1-.301-.236.33.33 0 0 1-.033-.18c0-.093 0-.114.036-.182a.405.405 0 0 1 .197-.203c.063-.031.079-.034.197-.034.11 0 .135.004.177.026a.441.441 0 0 1 .144.12l.023.032-.054.038c-.05.036-.055.037-.065.018a.334.334 0 0 0-.134-.124.221.221 0 0 0-.177.023c-.046.032-.083.11-.096.202-.02.142.012.265.088.335.106.097.231.075.322-.058l.038-.056.045.03c.025.017.045.037.045.045a.207.207 0 0 1-.036.063.397.397 0 0 1-.186.13.626.626 0 0 1-.231.011zm.84-.006a.41.41 0 0 1-.3-.271.521.521 0 0 1 .02-.332.419.419 0 0 1 .194-.193c.06-.029.08-.032.19-.033.108 0 .13.003.187.03a.405.405 0 0 1 .24.352.42.42 0 0 1-.073.286.438.438 0 0 1-.46.161zm.153-.103c.078-.034.12-.112.133-.253a.59.59 0 0 0-.044-.282c-.048-.095-.161-.12-.233-.05-.057.055-.075.121-.075.28 0 .122 0 .147.028.201.033.073.076.108.145.118 0 .001.026-.006.047-.014zm.526.097c-.034-.013-.066-.076-.057-.112.027-.109.193-.095.193.016 0 .052-.01.072-.048.091-.037.02-.052.02-.089.005zM.051 15.975v-.406l.114-.003.114-.003v.819H.045zm.418-.004v-.41l.23.005c.21.004.237.007.293.031.108.049.165.145.149.254a.203.203 0 0 1-.12.156l-.06.03.093.163c.05.09.092.167.092.172a.45.45 0 0 1-.126.01H.893l-.096-.203a3.948 3.948 0 0 1-.095-.209c0-.004.032-.009.071-.012.092-.007.13-.04.136-.122.01-.098-.04-.15-.15-.163l-.068-.008v.716H.47zm.714.396c0-.008.064-.193.138-.41l.133-.395.11.003.112.003.138.38c.076.209.142.391.146.406.01.027.01.027-.114.024l-.121-.003-.041-.115-.041-.114-.134.003-.133.003-.037.111-.037.111-.061.004c-.046.003-.06 0-.057-.012zm.371-.468a2.976 2.976 0 0 0-.05-.134c0-.002-.01.016-.017.04-.01.024-.026.085-.042.135l-.028.09h.184zm.494.076v-.406l.124-.003.123-.003.128.199.128.199v-.397h.128v.818h-.137l-.186-.289-.185-.287v.575h-.128zm.827-.003v-.409h.222v.818h-.222zm.315.4c0-.005.061-.19.136-.41l.136-.4.11.003.112.003.144.397c.079.219.144.401.144.406a.411.411 0 0 1-.12.01H3.73l-.039-.115-.039-.114-.135-.003-.134-.003-.038.118-.038.117h-.058c-.032 0-.058-.004-.058-.01zm.37-.476-.048-.135-.038.114-.045.134c-.01.02 0 .021.086.021h.093zm.495.076v-.409h.251l.128.201.129.201v-.403l.06.004.062.004v.812h-.138l-.185-.286-.185-.286v.572h-.128zm1.194.003v-.406l.114-.003.113-.003v.818h-.233zm.417-.003v-.41l.126.004.125.003.12.185c.065.103.124.192.131.198.01.008.012-.049.012-.188v-.201h.116v.819l-.067-.004-.067-.003-.184-.286-.184-.285v.576h-.128zm.818 0v-.409h.514v.117h-.28v.234h.268v.116h-.269v.35h-.233zm1.588 0v-.41l.231.004c.21.004.236.007.289.031.096.044.136.092.151.185a.25.25 0 0 1-.04.171.266.266 0 0 1-.082.057l-.057.027.092.164c.051.09.092.167.092.172a.444.444 0 0 1-.126.009h-.126L8.4 16.18a4.195 4.195 0 0 1-.096-.208c0-.004.032-.01.071-.013.092-.007.129-.04.136-.122.01-.098-.04-.15-.151-.163l-.067-.008v.716H8.07zm.809.003v-.406l.106-.003.106-.003.086.211c.048.116.09.21.092.21 0 0 .027-.05.052-.113l.086-.21.04-.097h.22v.818h-.222v-.248c0-.152 0-.243-.01-.236-.01.006-.055.117-.108.247a1.42 1.42 0 0 1-.11.237c-.01 0-.058-.11-.114-.243l-.101-.242v.485h-.129zm1.012 0 .138-.406.11-.003.111-.003.142.39.149.409c.01.02 0 .02-.118.017l-.125-.003-.022-.064a6.284 6.284 0 0 0-.04-.114l-.02-.05h-.265l-.038.117-.038.117h-.123zm.276.035c0-.011-.024-.066-.044-.122a.494.494 0 0 0-.043-.103s-.022.044-.039.097c-.054.167-.059.149.044.149.081 0 .09-.002.082-.02zm.543.02v-.35h-.21v-.117h.654v.117h-.21v.701h-.234zm.54-.055v-.406l.114-.003.114-.003v.819h-.234zm1.343 0v-.406l.124-.003.124-.003.127.199.127.199v-.397h.128v.818h-.136l-.186-.289-.185-.288v.577h-.128zm1.317.056v-.35h-.21v-.118h.654v.117h-.21v.701h-.234zm.55-.059v-.409h.501v.117h-.28v.228l.131.003.132.003v.11l-.131.003-.132.003v.233h.292v.117h-.513zm1.53 0v-.41l.113.004.114.003v.344h.22v-.344l.114-.003.114-.003v.818h-.233v-.35h-.222v.35h-.234zm.875 0v-.41l.125.004.125.003.119.184c.065.101.124.19.131.198.01.01.014-.034.014-.187v-.201h.116v.817h-.134l-.169-.265a8.827 8.827 0 0 0-.19-.289c-.018-.023-.02-.01-.02.265v.29h-.118v-.41zm1.752 0v-.409h.222v.701h.292v.117h-.514zm2.5.212v-.197l-.111-.2a2.9 2.9 0 0 1-.111-.212c0-.006.053-.012.122-.012h.123l.077.154.077.154.048-.087c.123-.224.115-.214.176-.218.036-.002.055 0 .055.01 0 .007-.05.104-.111.215l-.111.201v.389h-.234zm-20.85-1.22a.368.368 0 0 1-.244-.226c-.02-.055-.024-.091-.024-.273v-.21h.21v.19c0 .169 0 .194.023.228.043.07.082.084.237.084.149 0 .178-.008.23-.064.03-.03.03-.031.034-.299v-.267h.22v.213c0 .335-.018.41-.124.523-.084.09-.142.109-.343.113a.996.996 0 0 1-.222-.012zm3.404 0c-.061-.028-.09-.107-.06-.163.03-.056.108-.08.175-.052.054.023.07.047.073.102 0 .09-.101.151-.188.112zm.28-.001a.138.138 0 0 1-.074-.116c0-.042.053-.099.099-.108.05-.009.117.013.14.046.023.033.022.1 0 .135a.187.187 0 0 1-.112.06.198.198 0 0 1-.052-.017zm1.278-.002c0-.012-.01-.049-.013-.08 0-.033-.01-.073-.014-.091l-.01-.032h.141c.157 0 .187-.01.239-.07l.03-.037v-.524h.222v.134c0 .12 0 .135.024.146.028.015.35.016.374 0 .014-.008.018-.041.021-.145v-.135h.223l-.01.161c0 .144-.01.167-.034.212a.38.38 0 0 1-.073.087l-.045.036h-.488l-.012.058a.392.392 0 0 1-.23.266c-.044.02-.084.026-.203.03-.137.005-.149.003-.154-.016zm.766.002a.121.121 0 0 1-.068-.13c.019-.1.173-.128.24-.044.044.056.02.138-.051.172-.048.023-.072.023-.12.002zm.28 0c-.068-.03-.094-.118-.05-.174.052-.066.17-.066.221 0 .044.056.02.139-.053.173-.045.022-.069.022-.117 0zm8.1 0a.37.37 0 0 1-.196-.136c-.07-.088-.082-.145-.082-.375v-.197l.108.003.108.003.01.199c.01.222.013.243.085.278a.737.737 0 0 0 .335.002c.044-.023.094-.084.094-.115 0-.061-.044-.078-.2-.078h-.116v-.158c0-.179.01-.21.077-.286.073-.08.111-.094.273-.094h.141v.087c0 .048 0 .095.01.105.01.016-.01.019-.11.019-.133 0-.159.012-.17.082l-.01.041.104.014c.162.02.2.057.209.204.012.199-.094.353-.274.4a1.202 1.202 0 0 1-.392.001zm.804-.014c0-.018-.01-.06-.014-.092 0-.032-.01-.067-.013-.078 0-.016.012-.02.133-.023.156-.005.213-.025.25-.085.02-.032.021-.062.021-.29v-.254h.224v.272c0 .265 0 .273-.035.337a.443.443 0 0 1-.194.205c-.06.029-.081.033-.214.037l-.148.005-.01-.034zm.748 0c0-.018-.01-.06-.014-.092 0-.032-.01-.068-.013-.079-.01-.018.01-.02.132-.02.158 0 .202-.015.247-.082l.027-.04-.074-.009c-.179-.02-.254-.091-.274-.258a.535.535 0 0 1 .043-.261c.037-.06.126-.097.232-.097.11 0 .173.026.22.092.054.075.066.144.066.38 0 .198 0 .215-.027.266a.45.45 0 0 1-.198.193c-.058.027-.086.032-.214.036l-.148.005zm.378-.6c0-.094-.013-.117-.065-.117-.033 0-.043.006-.052.03-.026.069 0 .139.05.149.067.013.067.013.067-.063zm5.806.536a.913.913 0 0 1-.014-.112c0-.01.045-.014.15-.017.134-.003.152-.006.188-.032.065-.047.072-.077.072-.351v-.246h.21v.128c0 .16 0 .164.153.164.137 0 .139-.002.139-.164v-.128h.21v.134c0 .13 0 .135.029.153a.11.11 0 0 0 .06.015l.034-.004v-.298h.221v.14c0 .126 0 .14.023.151.036.02.081.015.094-.01a.49.49 0 0 0 .012-.152v-.13h.21v.167c0 .151 0 .172-.028.227a.287.287 0 0 1-.072.093c-.04.03-.053.034-.133.034-.078 0-.095-.004-.14-.033-.044-.03-.051-.032-.07-.015a.268.268 0 0 1-.15.054.226.226 0 0 1-.113-.041.673.673 0 0 0-.073-.041s-.022.012-.042.026c-.034.024-.049.026-.202.026h-.165l-.01.052a.348.348 0 0 1-.118.198c-.086.08-.14.097-.316.104l-.153.006-.014-.098zm-20.82-.269a.204.204 0 0 1-.135-.09l-.03-.043v-.8h.212v.348c0 .198 0 .355.011.365.01.015.162.017 1.25.017h1.24l.022-.027c.02-.023.022-.047.022-.143v-.116h.208v.133c0 .074.01.138.014.143.017.017.287.02.306.004.013-.01.017-.044.017-.147v-.133h.222v.143c0 .08-.01.162-.012.185a.275.275 0 0 1-.114.148c-.041.025-.056.026-.258.027-.16 0-.221-.004-.245-.017-.027-.014-.041-.014-.095 0-.053.014-.274.016-1.325.015a44.79 44.79 0 0 1-1.307-.011zm3.579-.43v-.444h.21v.887h-.21zm1.787 0v-.444h.21v.887h-.21zm.85.417a.273.273 0 0 1-.114-.148.814.814 0 0 1-.011-.185v-.143h.222v.139c0 .116 0 .14.018.146a5 5 0 0 0 .36.007c.25 0 .344-.004.355-.014.01-.009.014-.059.014-.146v-.132h.224v.166c0 .157-.01.17-.037.222a.242.242 0 0 1-.083.085l-.05.03h-.425c-.42 0-.426-.001-.469-.027zm1.39.01a.198.198 0 0 1-.139-.118c-.02-.042-.022-.082-.022-.429v-.382h.209v.355c0 .195.01.36.013.365.015.014 1.962.018 1.953.004a.43.43 0 0 1-.017-.202c.039-.145.2-.225.372-.184.066.016.2.098.2.123a.64.64 0 0 1-.106.169c-.01 0-.013-.006-.018-.013a.372.372 0 0 0-.16-.069c-.072 0-.104.093-.055.156.024.031.025.031.191.031h.167l.01.073c0 .04.011.088.015.105l.01.032H10.24c-1.007-.001-1.295-.004-1.34-.016zm2.884 0a.177.177 0 0 1-.115-.106c-.019-.042-.02-.083-.022-.435v-.388h.21v.355c0 .34.001.357.023.368a.473.473 0 0 0 .22-.002c.01-.01.015-.108.015-.368v-.354h.222v.343c0 .39 0 .375.097.389l.055.007v-.74h.222v.409l.05-.035c.184-.13.41.03.409.292 0 .09-.024.153-.077.21-.066.069-.08.071-.433.071-.319 0-.32 0-.361-.028l-.042-.028-.056.028c-.051.026-.07.028-.214.027a.806.806 0 0 1-.204-.016zm1.157-.208c.017-.016.02-.119 0-.149-.038-.07-.119-.015-.215.149-.012.02.193.02.213 0zm.423-.22v-.443h.222v.888h-.222zm3.5.432a.21.21 0 0 1-.137-.09l-.029-.042v-.801h.212v.347c0 .198 0 .355.01.365.01.015.121.018.863.02.784.004.853.003.868-.016.01-.013.017-.06.02-.146v-.127h.208v.12c0 .175-.015.166.257.17.238.004.334-.009.162-.021-.177-.014-.244-.077-.244-.232 0-.098.031-.165.1-.212.145-.1.333-.06.417.091.03.054.036.08.046.205.017.209-.012.288-.124.346l-.058.03-1.262.002c-.727 0-1.281-.003-1.307-.01zm2.562-.427c0-.01-.018-.036-.04-.058-.032-.032-.049-.04-.087-.04-.043 0-.084.023-.084.045 0 .025.04.06.073.064.096.012.137.009.137-.01zm.823.421a.24.24 0 0 1-.109-.11c-.028-.048-.03-.065-.035-.213v-.16h.225v.123c0 .068.01.133.012.146.012.021.028.022.351.022.211 0 .348-.005.362-.012.02-.01.023-.025.023-.146v-.134h.222v.127c0 .104 0 .13.019.143.014.013.075.017.245.02.196.003.227.001.233-.014 0-.013-.051-.078-.178-.212l-.185-.193-.015-.095a.497.497 0 0 1-.01-.104c.014-.014.556-.21.562-.203.01.006.038.208.033.211l-.163.063-.16.062.06.07c.154.173.245.287.268.334a.22.22 0 0 1-.064.263c-.031.024-.05.025-.351.028-.247.003-.33 0-.365-.012-.038-.013-.053-.013-.081-.001-.026.01-.142.015-.45.015-.353 0-.419-.002-.449-.018zM.393 14.26a.127.127 0 0 1-.089-.08.129.129 0 0 1 .04-.14c.031-.027.043-.03.104-.026.077.006.119.035.13.093a.141.141 0 0 1-.053.13.21.21 0 0 1-.132.023zm22.83-.208c-.064-.054-.058-.137.013-.18.143-.088.285.085.156.189-.039.032-.126.027-.169-.01zm.287-.004c-.077-.068-.037-.182.07-.196.129-.017.202.103.115.19-.034.034-.048.04-.093.04-.043 0-.061-.007-.091-.034zm-19.246-.012c-.03-.028-.034-.044-.034-.092 0-.046.01-.063.03-.088a.157.157 0 0 1 .158-.032.114.114 0 0 1 .085.113c0 .084-.056.133-.15.133-.045 0-.06-.006-.089-.034zm3.469 0a.098.098 0 0 1-.034-.08c0-.026 0-.056.01-.066.01-.03.068-.053.127-.053.044 0 .06.006.088.034.05.05.047.106-.01.16-.034.033-.048.04-.094.04-.045 0-.06-.007-.089-.035zm.282.004c-.031-.026-.036-.038-.036-.085 0-.08.04-.118.122-.118.124 0 .178.11.095.194a.13.13 0 0 1-.181.009zm12.425-.003c-.031-.028-.037-.042-.038-.089-.001-.047 0-.06.032-.083.026-.023.046-.029.096-.029.08 0 .12.031.13.102.01.045 0 .053-.035.09-.035.036-.049.042-.095.042a.115.115 0 0 1-.09-.033zm.279 0c-.033-.03-.038-.042-.037-.09 0-.077.04-.11.125-.11.09 0 .146.056.131.134-.018.095-.144.133-.22.065zm-2.195-.01c-.038-.024-.056-.061-.056-.116 0-.083.057-.127.154-.118.1.01.15.09.11.175a.15.15 0 0 1-.208.06zm4.867-.185c-.049-.025-.065-.051-.065-.105a.1.1 0 0 1 .026-.073c.068-.064.177-.057.22.013.027.045.027.068 0 .115-.032.06-.12.084-.186.05zm-4.137-.022c-.064-.028-.093-.114-.055-.167a.14.14 0 0 1 .192-.035c.077.052.067.16-.018.2-.047.023-.07.023-.119.001zm-1.195-.691c-.857-.042-1.877-.199-2.453-.378a1.068 1.068 0 0 0-.084-.024s-.01.086-.012.19v.19h-1.063l-.01-.429-.01-.429-.088-.056a3.089 3.089 0 0 1-.354-.257 1.42 1.42 0 0 1-.454-.737 1.415 1.415 0 0 1 .02-.567c.092-.355.26-.585.572-.79l.105-.07-.555-.003-.554-.003v-.852l.657-.003.657-.003V7.599h1.062v1.293l.231.007c.336.01.503.042.564.108l.027.03V9.4c0 .42 0 .406-.119.486-.114.076-.35.155-.603.2l-.085.016v2.152l.236.048c.526.108 1.01.182 1.487.23.393.039.765.053.765.03 0-.007.055-.012.141-.012.125 0 .14.002.127.017-.013.016.052.018.568.018.775 0 1.242-.023 1.713-.083.304-.039.307-.043.025-.044-.21-.001-.261-.004-.273-.018-.012-.015.04-.018.399-.021l.413-.004.163-.04.164-.042-.608-.006c-.393-.004-.607-.01-.607-.017 0-.008.22-.013.63-.015.549-.003.627 0 .615.014-.047.057.827-.25 1.114-.39.485-.24.944-.628 1.096-.93.1-.197.157-.547.126-.764-.01-.053-.03-.14-.05-.191a2.443 2.443 0 0 0-.23-.456.342.342 0 0 1-.054-.088c0-.004.052.04.109.099.264.272.396.587.418.997a1.2 1.2 0 0 1-.149.662 1.6 1.6 0 0 1-.34.444c-.238.232-.48.406-.78.564a7.622 7.622 0 0 1-1.752.643c-.49.117-.855.166-1.589.211-.195.012-1.17.024-1.331.016zm-3.628-2.737c-.01-.01-.191.089-.347.19-.23.15-.332.268-.375.437a.415.415 0 0 0 .058.356c.068.093.267.247.519.4l.146.087v-1.469zM.056 13.097c0-.008.252-.329.55-.712l.542-.698H2.6c.8 0 1.454.002 1.454.005s-.248.323-.55.712l-.55.707H1.502c-1.16 0-1.452-.003-1.445-.014zm5.595.007c0-.004-.01-.756-.01-1.67V9.772l-.657-.003-.657-.003v-.853l1.188-.003 1.189-.003v4.205H6.18c-.288 0-.527-.004-.531-.008zm1.329-.007V8.913h1.035v.42l-.001.42.102-.107a3.61 3.61 0 0 1 .449-.396c.1-.067.334-.178.474-.226.222-.075.517-.116.905-.125l.277-.007v.873l-.21.008c-.333.012-.48.046-.737.167a1.657 1.657 0 0 0-.398.26c-.259.211-.434.4-.594.64a1.29 1.29 0 0 0-.19.405l-.031.109-.01.876-.01.876-.529.003c-.417.002-.53 0-.534-.012zm4.838.007c0-.004-.01-.756-.01-1.67V9.772l-.657-.003-.657-.003v-.853l1.188-.003 1.189-.003v4.205h-.524c-.288 0-.527-.004-.532-.008zm6.048-.664c-.02-.015.01-.017.233-.017.225 0 .253.002.24.017-.021.026-.439.025-.473 0zm.784.001c-.01-.016 0-.019.057-.019a.186.186 0 0 0 .064-.006c0-.003-.01-.017-.017-.032-.022-.034-.018-.055.021-.101a.506.506 0 0 0 .054-.08c.038-.074.06-.087.125-.072a.269.269 0 0 1 .069.023c.01.006.03.012.052.014.044.004.065.033.024.033-.023 0-.025.004-.018.036 0 .02.01.041.01.047 0 .006.019.01.042.01.05 0 .05.027 0 .033a.104.104 0 0 0-.056.027c-.028.03-.06.042-.195.071-.159.035-.217.04-.226.016zm-.93-.13c0-.015.047-.017.356-.017.311 0 .355.002.349.017-.01.015-.056.018-.356.018-.303 0-.35-.002-.35-.018zm3.355-.069a1.16 1.16 0 0 1-.122-.029 2.295 2.295 0 0 0-.33-.014c-.332 0-.344-.019-.022-.03.105-.004.19-.01.19-.014a.458.458 0 0 0-.168-.083c-.034 0-.04-.02-.01-.032a.255.255 0 0 0 .05-.03c.03-.022.146-.03.197-.014.018.006.028 0 .043-.025a.193.193 0 0 1 .055-.057c.025-.016.043-.043.06-.092.03-.084.056-.099.173-.1.174 0 .264-.087.29-.277.017-.125.023-.133.086-.125l.051.007.183-.173a2.35 2.35 0 0 0 .198-.201c.011-.02.012-.045 0-.088-.027-.155-.029-.222-.01-.274.012-.028.02-.055.015-.06-.01-.016.03-.05.05-.042.01.004.06.007.114.007.08 0 .098.003.098.017 0 .014-.017.018-.082.018-.09 0-.096.006-.058.06.021.029.032.033.082.033.043 0 .058.004.058.018 0 .012-.012.017-.04.017-.024 0-.042.006-.042.012 0 .023.034.079.053.086.017.006.016.01 0 .036-.015.022-.018.043-.013.076v.053c-.01.004-.012.032-.012.063 0 .03-.01.06-.013.068-.01.007-.014.033-.016.057a.28.28 0 0 1-.017.08.312.312 0 0 0-.02.07c0 .02-.014.046-.022.059a.188.188 0 0 0-.023.053c-.01.037-.05.122-.138.3-.118.233-.136.266-.152.272-.024.009-.077.077-.077.098 0 .01-.012.024-.026.03-.03.011-.102.082-.1.1 0 .01-.01.016-.06.039a1.052 1.052 0 0 1-.477.032zm-3.38-.056v-.032c0-.01-.012-.018-.025-.018-.017 0-.023.007-.02.027 0 .017 0 .026-.016.026-.012 0-.016-.007-.012-.02.01-.022-.044-.087-.079-.1-.01-.004-.019-.018-.019-.03s-.022-.045-.048-.072l-.048-.05V11.8c.001-.065.01-.136.014-.159.016-.053.016-.124 0-.154-.01-.013-.032-.048-.055-.078a1.058 1.058 0 0 1-.09-.16.467.467 0 0 1-.059-.214c-.01-.113-.027-.153-.07-.153a.823.823 0 0 1-.174-.081.21.21 0 0 0-.047-.017c-.03-.006-.039-.018-.06-.075a.513.513 0 0 1-.03-.12.116.116 0 0 0-.015-.06c-.01-.005-.01-.014 0-.025.01-.01.014-.045.013-.08 0-.083.01-.174.017-.2.01-.011.01-.041 0-.067-.01-.043-.01-.046.022-.046.027 0 .098-.061.1-.085 0-.005-.027-.009-.06-.009-.042 0-.058-.004-.054-.014 0-.01.037-.017.091-.02.072-.006.094-.012.13-.04.025-.018.045-.038.045-.044a.365.365 0 0 0-.123-.01c-.101 0-.123-.003-.123-.018 0-.014.025-.017.161-.017.152 0 .164 0 .227-.032a.225.225 0 0 0 .067-.04c0-.006-.095-.01-.212-.013-.18-.003-.214-.006-.214-.02 0-.015.047-.019.322-.025a2.3 2.3 0 0 0 .397-.026c.115-.029.136-.026.142.016 0 .02 0 .045-.01.056-.02.026-.02.054 0 .096.017.033.021.035.094.035a.37.37 0 0 1 .097.01c.011.007.03.036.041.065.016.043.034.063.087.098.083.054.086.08.014.116-.04.02-.054.034-.06.064-.013.052-.01.063.04.072.06.01.1.048.133.122a.393.393 0 0 0 .057.095c.017.018.03.05.036.087 0 .033.018.082.03.11a.688.688 0 0 1 .034.125c.016.102.015.101.106.169.067.05.1.065.186.087.106.027.209.077.211.103 0 .031 0 .061-.019.078a.3.3 0 0 0-.037.064.64.64 0 0 1-.12.139c-.055.05-.116.11-.135.13a.425.425 0 0 1-.135.082c-.162.068-.23.15-.177.21a.51.51 0 0 0 .212.11c.028.004.054.013.057.021 0 .01-.018.015-.083.015a.526.526 0 0 0-.192.035.862.862 0 0 1-.124.035c-.01 0-.019.005-.019.011 0 .007.076.012.204.012.177 0 .204.002.198.018-.01.015-.063.017-.415.017-.317 0-.407-.003-.408-.014zm2.495-.879c-.019-.016-.035-.035-.035-.043 0-.023-.055-.091-.072-.091-.026 0-.055-.059-.058-.119 0-.047 0-.062.022-.078.095-.075.1-.099.026-.131-.057-.026-.062-.035-.034-.063.018-.018.014-.019-.038-.012-.054.007-.059.005-.096-.033-.03-.031-.038-.049-.034-.071 0-.02 0-.032-.013-.036a2.144 2.144 0 0 0-.297-.03.212.212 0 0 1-.102-.02c-.03-.017-.033-.023-.027-.068.01-.07-.018-.087-.143-.087a.35.35 0 0 1-.14-.02.293.293 0 0 0-.059-.02c-.01 0-.04-.034-.073-.074a.354.354 0 0 0-.07-.073.233.233 0 0 1-.07-.04l-.059-.039-.035.037-.035.037.023.046c.03.061.065.09.11.087.062-.003.065 0 .065.043 0 .034.01.052.045.088.053.053.08.056.179.02.082-.03.098-.022.112.06.01.044.015.056.048.071.034.016.07.058.07.083a.28.28 0 0 1-.066.055.76.76 0 0 0-.123.11.389.389 0 0 1-.219.141 2.349 2.349 0 0 1-.196.01c-.143 0-.171-.006-.171-.041 0-.023-.061-.09-.081-.09-.01 0-.02 0-.02-.003 0-.002 0-.029-.01-.061 0-.032-.01-.06-.016-.062-.01-.002-.01-.024 0-.048.01-.037 0-.048-.021-.067-.022-.017-.028-.033-.028-.074 0-.03 0-.063-.01-.075-.01-.018-.01-.021.01-.016.01.004.02.001.024-.007.01-.02 0-.089-.016-.096-.01-.004-.01-.022-.01-.04a.125.125 0 0 0-.027-.066.341.341 0 0 1-.057-.148.275.275 0 0 0-.068-.11c-.038-.04-.04-.068 0-.08l.09-.04a1.53 1.53 0 0 1 .106-.047l.035-.013-.027-.022a.515.515 0 0 0-.176-.07c-.066 0-.176-.196-.133-.238 0-.005.01-.015.01-.023 0-.01.048-.014.16-.017.145-.003.165 0 .21.022.027.014.065.03.084.035.068.02.147-.046.147-.122 0-.02-.012-.036-.04-.054a.36.36 0 0 1-.056-.04.824.824 0 0 0-.23-.046.454.454 0 0 0-.116.044.786.786 0 0 1-.143.055c-.06.013-.107.056-.095.087 0 .01-.01.025-.031.038-.03.019-.045.02-.084.012-.026-.006-.053-.01-.061-.006-.02.007-.054-.014-.054-.034 0-.009.01-.017.015-.017.01 0 .024-.021.036-.047a.133.133 0 0 1 .118-.081c.049 0 .039-.04-.016-.066-.052-.025-.068-.048-.04-.06a.137.137 0 0 0 .045-.036c.02-.023.039-.03.093-.034.05-.004.074-.012.089-.03.042-.05.03-.056-.107-.052l-.127.004.01-.032.01-.032h-.271c-.252 0-.27-.001-.267-.02 0-.02.028-.022.281-.024l.278-.003.01-.03a.082.082 0 0 0 .012-.041.386.386 0 0 0-.129-.01.465.465 0 0 1-.128-.01c0-.029.035-.037.158-.037.128 0 .13 0 .144-.03a.098.098 0 0 0 .014-.041c0-.006-.05-.011-.115-.011-.12 0-.139-.005-.117-.031.01-.012.05-.016.15-.016.107 0 .146-.004.171-.019.032-.018.035-.018.08.012a.668.668 0 0 1 .064.046c.017.017.033.02.172.043.085.014.1.01.118-.032.01-.018.027-.05.043-.072.044-.06.039-.068-.04-.062-.109.008-.149-.004-.168-.048-.041-.095-.045-.107-.033-.11.019-.007.028-.077.015-.123-.01-.036-.01-.045.011-.062.035-.032.027-.04-.041-.04-.045 0-.065-.005-.07-.017-.01-.015.01-.018.087-.018.088 0 .097-.002.14-.037a.18.18 0 0 0 .046-.047c0-.005-.092-.01-.205-.01-.185 0-.238-.008-.185-.028.01-.004.117-.007.238-.007h.22l.058-.038a.28.28 0 0 0 .06-.046c0-.005-.08-.01-.177-.012-.154-.003-.174-.005-.145-.017a.831.831 0 0 1 .216-.015c.181 0 .184 0 .268-.038a.337.337 0 0 0 .085-.047.484.484 0 0 0-.131-.009c-.105 0-.128-.003-.116-.014.01-.01.079-.017.215-.022.162-.006.224-.014.318-.038a.812.812 0 0 1 .228-.03c.12 0 .359.024.506.052.05.01.112.017.138.017.053 0 .154.023.144.033-.01.01.262.095.301.096.041 0 .078.019.078.04 0 .029.109.088.161.088.026 0 .056.003.066.007.031.012.021.028-.016.028-.019 0-.035.003-.035.006s.02.024.044.047c.037.034.053.04.098.04.03 0 .063.005.073.008.032.012.02.027-.022.027-.022 0-.04.004-.04.01a.19.19 0 0 0 .034.046c.032.035.041.038.103.038.047 0 .073.006.083.018.013.015.01.017-.045.017-.033 0-.06.003-.06.008a.2.2 0 0 0 .03.047c.03.038.032.039.116.039.062 0 .09.005.1.017.013.016 0 .018-.07.018a.306.306 0 0 0-.082.006.3.3 0 0 0 .026.047l.026.04h.106c.08 0 .11.004.122.018.013.015 0 .017-.093.017-.06 0-.106.004-.104.01 0 .004.012.023.02.04l.016.032h.13c.124 0 .159.008.159.038a.468.468 0 0 1-.129.009.727.727 0 0 0-.128.006c0 .004.01.022.018.04l.018.035h.149c.142 0 .177.007.177.038a.646.646 0 0 1-.152.009.502.502 0 0 0-.152.01c0 .007.01.025.014.042l.014.03h.172c.13 0 .175.003.185.015.01.01.01.02.01.023 0 .004-.084.008-.176.008h-.17l.01.027c0 .014.01.033.01.04 0 .012.046.015.186.015.141 0 .189.004.199.016.01.009.01.02.01.023a1.2 1.2 0 0 1-.187.008c-.19 0-.187 0-.172.056.01.026.01.026.21.026.172 0 .202.003.208.019 0 .01.01.02.01.023 0 .003-.092.005-.204.005-.216 0-.213 0-.197.056.01.026.01.026.22.026.164 0 .216.004.226.016.01.009.01.019.01.023s-.104.008-.222.008c-.171 0-.214.003-.214.016 0 .009-.01.025-.023.036-.013.012-.023.028-.023.036 0 .008-.01.02-.016.028-.01.007-.019.03-.023.05-.01.028 0 .04.016.052.013.01.024.026.024.037 0 .01.013.034.03.052.022.025.037.032.08.032.047 0 .086.021.07.039a.221.221 0 0 1-.077.008c-.047 0-.068.005-.068.014 0 .008 0 .027-.01.041-.01.026 0 .026.076.026.066 0 .083.004.083.018 0 .014-.018.017-.088.017-.076 0-.088.003-.088.02 0 .012 0 .033-.01.048-.01.025 0 .026.082.026.071 0 .09.003.09.017 0 .014-.019.018-.093.018h-.092l-.013.037a.13.13 0 0 0-.013.046c0 .005.058.01.129.01.106 0 .128.003.128.018 0 .014-.023.017-.139.017-.137 0-.139 0-.146.028 0 .016-.01.037-.014.047-.01.017.012.019.16.019.146 0 .164.002.151.017-.012.014-.047.018-.175.018h-.16l-.013.03c-.028.061-.025.063.122.063.103 0 .134.003.13.015 0 .01-.047.015-.15.018l-.146.003-.02.033a.146.146 0 0 0-.02.047c0 .009.048.012.146.012.122 0 .146.003.146.018s-.026.017-.163.017h-.162l-.024.034a.141.141 0 0 0-.024.047c0 .009.059.013.185.013.154 0 .187.003.193.017.01.015-.022.018-.206.018h-.213l-.032.04a.22.22 0 0 0-.032.047c0 .004.115.006.257.006.22 0 .257.002.257.017 0 .015-.04.018-.278.018h-.278l-.037.038a.201.201 0 0 0-.037.047c0 .005.136.008.303.008.262 0 .304.002.304.017 0 .016-.044.018-.329.018-.326 0-.328 0-.322-.024.01-.034-.012-.09-.048-.124-.028-.028-.034-.03-.112-.023a.265.265 0 0 0-.135.042c-.065.042-.218.208-.213.231 0 .01-.01.02-.019.023-.025.007-.073.065-.077.095 0 .01-.017.026-.034.035-.038.019-.06.07-.044.097.016.026-.014.052-.069.062-.033.005-.048 0-.076-.022zm-.928-1.412c-.01-.013-.01-.033 0-.085.024-.11.017-.168-.023-.202-.037-.031-.041-.054-.037-.219 0-.07-.012-.08-.098-.067-.053.008-.076.029-.076.07a.13.13 0 0 1-.025.054c-.021.03-.023.04-.012.064.01.016.013.045.013.064 0 .02.013.058.03.087.025.043.029.06.022.104v.093l.01.04.083.005.106.006c.018.002.02-.001.01-.015zm.829-.714a.136.136 0 0 1 .05-.024c.036-.009.04-.018.072-.123a.434.434 0 0 1 .048-.108l.029-.043h-.196l.01.074.01.073-.1.076c-.135.101-.137.11-.023.099a.315.315 0 0 0 .109-.024zm-1.049-.531a.32.32 0 0 1 .19-.076c.04-.005.12-.018.181-.03.107-.022.113-.025.159-.077l.047-.054.022.05c.027.06.046.07.13.07h.069l.014-.061c.016-.07.018-.114.01-.114l-.16-.011c-.128-.01-.156-.008-.189.008-.034.016-.056.017-.187.004l-.148-.014-.066.04a.977.977 0 0 1-.108.058.14.14 0 0 0-.087.116c-.01.034 0 .047.03.083a.213.213 0 0 0 .046.043s.027-.016.05-.036zM.03 11.19c0-.008.255-.337.559-.729l.552-.713h1.475c.811 0 1.475.003 1.475.006 0 .004-.253.332-.562.73l-.561.723H1.495c-1.285 0-1.472-.002-1.466-.017zm21.226-.025c-.021-.021 0-.027.106-.027.103 0 .112.002.09.018-.022.017-.18.025-.196.009zm-.16-.138c-.013-.016.017-.018.257-.018s.27.002.257.018c-.012.014-.056.017-.257.017s-.245-.003-.257-.017zm.965-.643c.01-.014.03-.017.117-.017.09 0 .11.003.11.017 0 .015-.021.018-.117.018-.099 0-.115-.003-.11-.018zm.016-.128c0-.014.02-.018.106-.018s.105.003.105.018c0 .014-.02.017-.105.017-.086 0-.106-.003-.106-.017zm-.015-.119c-.019-.019.014-.027.11-.027.085 0 .104.003.104.017 0 .015-.019.018-.103.018a.491.491 0 0 1-.11-.007zm-.017-.135c0-.01.038-.016.106-.018.085-.003.102 0 .102.014 0 .015-.018.018-.106.018-.08 0-.105-.004-.102-.014zm.032-.132c.01-.01.035-.017.07-.017.04 0 .058.005.062.017.01.015-.01.018-.07.018-.067 0-.075-.002-.062-.018zm-5.101-.248c0-.019.033-.02.388-.023.368-.002.427.002.427.032 0 .007-.154.012-.41.012-.384 0-.41-.001-.405-.02zm.047-.128c0-.02.029-.02.336-.02.308 0 .333.001.337.02 0 .019-.02.02-.337.02-.318 0-.34 0-.336-.02zm4.885 0-.035-.02.098-.004c.096-.003.129.006.113.032-.013.02-.136.014-.176-.008zm-4.845-.116c0-.004 0-.015.01-.023.01-.012.054-.016.175-.016.152 0 .22.011.22.037 0 .011-.389.013-.4.002zm.07-.128c0-.004 0-.015.01-.024.024-.03.256-.01.256.021a.979.979 0 0 1-.261.003zm.314-.132c-.019-.031.015-.036.265-.036.207 0 .256.003.244.015-.01.01-.066.015-.174.018a5.214 5.214 0 0 0-.244.01c-.054.004-.086.002-.09-.006zm.084-.253c0-.005-.01-.016-.01-.024 0-.012.025-.016.106-.016.095 0 .106.002.102.02 0 .018-.019.022-.098.024a.342.342 0 0 1-.102-.005zm0-.138c0-.022.035-.034.054-.017.026.02.02.033-.019.033-.022 0-.035-.006-.035-.016zM5.64 8.13V7.6h1.063v1.062H5.64zm6.167 0V7.6h1.063v1.062h-1.063z"/></svg>