<svg role="img" viewBox="0 0 24 24" xmlns="http://www.w3.org/2000/svg"><path d="M.007 12.581l.008-9.475 6.282-.008 6.282-.008.276-.26c.65-.612 1.262-.885 1.983-.885.698 0 1.352.245 2.574.965 1.797 1.06 2.409 1.31 3.553 1.46.914.12 1.734 0 2.623-.385l.372-.161.02 1.465c.011.806.02 2.124.02 2.93v1.464l-.354.08c-.765.174-1.619.247-2.586.223a10.427 10.427 0 0 1-.98-.065c-.294-.045-.82-.164-.942-.213-.05-.02-.053.286-.053 6.163v6.184H0zm18.927 3.113c0-3.416.006-6.21.014-6.21.007 0 .134.04.282.09.629.21 1.736.306 2.852.246.67-.036 1.258-.112 1.598-.207l.179-.05-.02-1.718a302.3 302.3 0 0 1-.02-2.75V4.061l-.325.132c-1.011.411-2.004.48-3.184.224-.738-.161-1.473-.492-2.717-1.223-1.455-.856-2.068-1.099-2.771-1.099-.673 0-1.271.285-1.957.932l-.26.244H.18v18.634h18.753zM.542 12.574v-8.97h12.054l.014.094c.008.051.017 1.249.02 2.66.004 1.412.012 2.572.019 2.578.006.006.16-.099.343-.234.698-.514 1.27-.857 1.646-.983.233-.079.594-.091.89-.032.467.095.748.241 1.504.78.569.407.902.619 1.247.793l.263.133v12.15h-18zm6.213 7.581c1.678-.13 2.89-.387 3.681-.784.717-.36 1.294-.966 1.235-1.299-.002-.01-.108.086-.237.215a1.558 1.558 0 0 1-.55.385c-.847.404-1.896.605-3.672.703-.818.045-2.319.021-2.87-.045-1.147-.138-2.003-.373-2.113-.58l-.04-.075-.027.07a2.04 2.04 0 0 0-.043.356c-.032.554.115.68 1.001.86.954.193 2.547.278 3.635.194zm5.672-.325c.164-.183.342-.542.42-.844a4.98 4.98 0 0 0 .09-.669c.018-.24.052-.523.077-.629.074-.325-.019-.278-.196.098-.148.314-.174.426-.215.938-.046.58-.07.67-.26.952a1.84 1.84 0 0 0-.162.271c0 .075.128.014.246-.117zm.89.008c.258-.124.56-.404.698-.646.098-.172.205-.57.175-.648-.03-.077-.102-.05-.138.05-.058.167-.292.516-.475.706-.15.156-.559.485-.728.585-.044.026-.045.033-.005.06.068.045.232.008.473-.107zm-1.907-.024c.263-.13.595-.428.732-.656.157-.262.237-.66.133-.66-.015 0-.085.097-.155.215-.225.38-.59.726-1.081 1.024-.303.183-.313.222-.05.201.149-.012.26-.044.421-.124zm3.087-.022c.19-.082.485-.394.608-.645.08-.165.103-.25.104-.387.001-.161-.007-.183-.097-.264-.123-.11-.253-.116-.353-.016-.094.094-.257.42-.257.513 0 .085.03.11.163.137.074.015.093.035.093.093 0 .06-.056.113-.301.279a4.43 4.43 0 0 0-.36.263c-.058.057-.057.058.015.086.09.034.211.016.385-.059zm-8.039-1.105a.587.587 0 0 0 .175-.409c0-.12-.014-.146-.15-.273a.882.882 0 0 0-.173-.14c-.032 0-.157.21-.262.438l-.083.18.16.143c.089.079.182.143.208.144.026 0 .082-.037.125-.083zm.71-.05c.12-.135.202-.353.175-.461a.705.705 0 0 0-.176-.23c-.181-.171-.163-.183-.37.225-.107.212-.124.269-.095.307.055.072.303.261.342.261.02 0 .075-.045.125-.102zm7.335-.854a.68.68 0 0 0 .15-.394c0-.092-.026-.133-.17-.273l-.17-.164-.073.117c-.092.147-.25.487-.25.538 0 .021.078.1.173.175.19.15.222.15.34 0zm-7.885-.763c1.718-.115 3.103-.408 3.87-.816.632-.337 1.099-.797 1.182-1.165.014-.061.02-.117.013-.123-.007-.007-.11.089-.232.212a1.64 1.64 0 0 1-.522.377c-.822.416-1.988.638-3.844.732-1.14.058-1.981.035-2.91-.078-1.003-.122-1.871-.373-1.93-.557-.036-.114-.073-.019-.102.263-.059.568.065.724.702.885.932.236 2.557.352 3.773.27zm10.17-.528c.173-.196.357-.57.428-.866.033-.14.08-.484.104-.764.025-.28.057-.553.073-.607.039-.129-.007-.15-.084-.041-.078.11-.232.45-.272.6a5.464 5.464 0 0 0-.063.549c-.043.55-.084.694-.271.974a1.44 1.44 0 0 0-.15.259c0 .078.124.023.235-.104zm-4.277.075c.355-.058.716-.31.966-.676.14-.204.24-.457.24-.608.001-.104-.015-.14-.091-.204-.118-.099-.161-.098-.372.01l-.172.086.02-.094c.01-.052.065-.263.121-.47.11-.4.122-.484.071-.484-.055 0-.236.436-.343.828-.12.438-.135.47-.3.65a3.12 3.12 0 0 0-.187.222c-.06.085-.063.086-.157.037-.243-.126-.27-.381-.094-.93.09-.283.103-.385.047-.385-.176 0-.504 1.343-.412 1.685.047.175.173.308.32.336l.133.026c.008.002.103-.011.21-.028zm.086-.714c.104-.145.453-.458.536-.478.114-.03.288.009.356.077l.06.06-.137.132a.937.937 0 0 1-.656.287l-.223.012zm3.136.58c.265-.125.633-.475.769-.73.085-.161.187-.562.155-.613-.04-.065-.109-.02-.174.116-.213.441-.602.847-1.145 1.194-.1.064-.166.125-.154.144.035.057.314.001.549-.11zm-1.202.046a.808.808 0 0 0 .218-.186c.055-.07.156-.186.225-.258.122-.128.13-.131.305-.126.206.006.267-.025.401-.208.137-.186.234-.519.152-.519-.015 0-.074.065-.13.144-.095.131-.12.147-.288.181a.601.601 0 0 0-.329.168c-.226.2-.283.23-.432.23a.524.524 0 0 1-.475-.27c-.09-.178-.085-.297.023-.649.093-.304.11-.407.064-.407-.045 0-.11.123-.209.392-.174.474-.228.697-.23.95-.002.278.073.476.215.564.115.071.345.068.49-.006zm-8.088-.882c.13-.137.19-.27.19-.419 0-.114-.017-.144-.15-.273a.869.869 0 0 0-.177-.145c-.04 0-.339.593-.32.637.018.041.315.295.347.297a.5.5 0 0 0 .11-.097zm.726-.065c.14-.159.202-.35.158-.483-.033-.1-.254-.32-.322-.32-.029 0-.25.394-.309.55-.029.077-.02.09.137.219.092.075.185.136.207.136.021 0 .08-.046.129-.102zm3.202-.546c.453-.23.86-.952.724-1.282-.082-.197-.306-.271-.458-.152-.107.084-.303.483-.29.592.008.076.029.094.153.131.24.073.188.158-.295.478-.322.214-.378.269-.314.312.069.047.311.007.48-.078zm5.028-.294c.108-.11.189-.284.189-.401 0-.11-.074-.223-.221-.336l-.125-.096-.086.138a2.97 2.97 0 0 0-.165.32l-.079.181.165.146c.09.08.178.145.196.146.017 0 .074-.044.126-.098zm.694-.03a.656.656 0 0 0 .188-.427c0-.113-.09-.242-.245-.353-.087-.062-.091-.062-.132-.008-.067.091-.29.558-.28.588.01.03.33.295.357.297.01 0 .06-.043.112-.097zM6.03 14.126c1.001-.077 1.989-.24 2.638-.438.643-.194 1.055-.384 1.778-.815.232-.14.466-.261.52-.272.067-.013.155.002.278.048.117.044.209.06.26.047.103-.025.436-.343.555-.529.19-.296.27-.734.169-.929-.146-.28-.434-.335-.6-.116-.153.2-.3.5-.281.574.026.103.157.18.274.16.11-.018.135-.006.206.099.068.1.065.13-.027.24-.1.118-.187.119-.445.002-.183-.083-.212-.088-.343-.059a2.27 2.27 0 0 0-.454.215c-.844.499-1.969.82-3.534 1.01-.552.067-2.442.078-2.804.017-.927-.158-1.5-.455-1.7-.882-.104-.22-.086-.586.05-1.039.08-.265.1-.371.076-.4-.085-.103-.257.261-.424.897-.076.29-.091.408-.094.723-.003.365 0 .382.086.539.272.49 1.01.808 2.106.906a13.59 13.59 0 0 0 1.71.002zm-.106-1.296c.487-.168.899-.585 1.042-1.056.066-.217.068-.393.005-.414-.022-.007-.058.037-.086.103-.088.213-.369.602-.576.797a4.96 4.96 0 0 1-.484.384c-.154.105-.271.203-.262.218.028.046.173.033.361-.032zm1.424-.032c.382-.164.775-.843.688-1.19-.044-.177-.256-.277-.411-.194-.059.031-.227.334-.27.486-.032.11.038.207.15.207.046 0 .1.018.118.04.051.062-.05.173-.378.415-.155.115-.281.228-.281.251 0 .088.16.081.384-.015zm2.635-.862a.812.812 0 0 0 .177-.422c0-.097-.024-.135-.17-.277l-.17-.164-.091.148c-.106.17-.233.446-.233.507 0 .023.077.103.172.178.179.142.213.146.315.03zM6.75 10.884c1.938-.145 3.732-.485 4.773-.903.564-.227 1.147-.612 1.007-.666-.072-.028-.26.007-.592.11-1.24.382-3.288.71-5.095.815-.759.044-2.244.019-2.769-.047-.732-.091-1.326-.241-1.406-.355-.067-.096-.059-.13.065-.267.135-.149.415-.294.78-.405.324-.098.515-.191.666-.323.159-.14.343-.434.342-.548l-.001-.093-.173.183c-.226.24-.26.26-.681.405-.599.206-.872.37-1.212.73-.258.27-.345.436-.345.655 0 .309.143.438.62.557.872.218 2.374.275 4.021.152zm1.102-.991c.157-.066.36-.27.514-.517.138-.222.14-.223.22-.182.224.114.467.08.876-.12.46-.227.796-.618.838-.975.017-.138.011-.157-.074-.242-.125-.125-.274-.125-.471 0a.562.562 0 0 1-.156.081 1.768 1.768 0 0 1 .046-.286c.08-.386.11-.731.064-.731-.07 0-.211.39-.302.833-.085.416-.102.463-.23.652a1.829 1.829 0 0 1-.166.22c-.055.034-.245-.088-.292-.187-.05-.106-.049-.123.1-.929.051-.277.022-.352-.075-.194-.156.255-.272.702-.345 1.332-.036.308-.06.413-.122.518a.73.73 0 0 1-.58.355c-.203.003-.218-.04-.077-.209.256-.307.383-.652.46-1.25.031-.243.066-.477.076-.52.038-.15-.068-.087-.153.091-.142.3-.144.307-.319 1.207-.022.114-.079.224-.21.405-.248.344-.237.505.044.633.15.068.2.07.334.015zm1.47-1.442c.313-.357.49-.445.7-.35.094.043.096.078.008.177-.18.203-.515.361-.767.361h-.106zM6.451 9.816c.074-.038.172-.097.218-.13.186-.138.474-.648.476-.843 0-.125-.047-.101-.165.084-.145.227-.261.264-.405.13-.094-.087-.079-.196.044-.32.105-.105.108-.106.3-.086.208.021.244.002.215-.115-.039-.152-.347-.179-.533-.046-.126.09-.247.284-.347.559-.049.134-.099.223-.124.223-.085 0-.22-.093-.268-.184-.113-.218-.086-.47.123-1.171.074-.247.079-.333.018-.333-.039 0-.308.696-.409 1.055a3 3 0 0 0-.096.573c-.015.263-.01.298.056.422.112.208.254.277.536.263a.846.846 0 0 0 .361-.08zm4.008-.535a2.62 2.62 0 0 0 .363-.697c.08-.24.141-.64.168-1.106.011-.199.038-.44.059-.535.07-.32-.041-.236-.21.156-.141.332-.156.406-.208 1.052-.049.6-.073.682-.294 1.023-.19.292-.097.373.122.107zm1.622-.506c.18-.282.167-.431-.058-.634-.147-.132-.159-.137-.198-.085-.041.055-.308.57-.308.595 0 .007.083.082.183.166.18.15.185.152.253.1a.661.661 0 0 0 .128-.142zM6.445 7.162c1.282-.071 2.62-.286 3.385-.544.286-.097.788-.34 1.023-.496.235-.156.52-.422.66-.616.091-.127.201-.418.17-.45-.008-.008-.108.08-.22.197-.33.34-.789.56-1.588.764-.785.2-1.654.303-3.046.364-1.177.051-2.164.003-3.15-.155-.7-.112-1.342-.322-1.44-.472-.043-.066-.051-.069-.077-.023a1.65 1.65 0 0 0-.044.358c-.013.253-.006.328.036.418.19.399 1.31.608 3.635.68.074.002.37-.01.656-.025zm.024-1.455a.627.627 0 0 0 .164-.419c0-.112-.016-.142-.141-.258-.078-.073-.162-.128-.188-.123-.04.008-.334.536-.334.6 0 .036.331.298.377.298.021 0 .077-.044.122-.098zm.693-.037c.116-.123.206-.367.177-.48-.01-.043-.088-.14-.172-.216-.183-.164-.18-.166-.37.215l-.133.27.173.158c.095.087.185.158.2.158a.433.433 0 0 0 .125-.105zm13.49 3.752a6.703 6.703 0 0 1-2.064-.605c-.408-.196-.738-.388-1.417-.825-.758-.487-.955-.601-1.255-.728-.333-.14-.563-.192-.856-.192-.579 0-1.096.247-1.822.869l-.153.131v-.715c0-.596.007-.71.04-.681.032.025.054.02.093-.024.036-.04.042-.063.018-.078-.019-.012-.042-.013-.052-.003-.01.01 0 .018.023.018.03 0 .032.009.008.033-.022.022-.051.024-.084.005-.045-.025-.04-.038.046-.11.053-.044.09-.087.083-.095-.008-.008-.039.013-.07.046-.056.063-.105.08-.105.036 0-.033.485-.393.71-.527.21-.125.567-.273.784-.325.27-.065.747-.045 1.054.045.393.115.972.412 1.643.843.8.515.945.6 1.432.851 1.006.518 1.766.696 2.85.667a7.11 7.11 0 0 0 1.607-.215c.267-.062.266-.062.243.035-.033.132-.132.177-.132.06 0-.053-.006-.058-.029-.023-.038.06.02.126.102.115.062-.01.063.002.07.572.009.579.009.58-.06.61-.086.036-.46.11-.851.17-.36.054-1.533.08-1.855.04zm.288-1.207c.011-.035.012-.07.002-.08-.01-.01-.018.001-.018.025 0 .025-.028.046-.063.05-.04.002-.057-.01-.047-.037.012-.03-.004-.035-.063-.019-.08.021-.133.093-.069.093.02 0 .026-.013.016-.03-.01-.016.001-.03.025-.03s.052.02.061.045c.026.067.133.055.156-.017zm.122.002c.024 0 .043.013.043.03s.013.03.03.03c.015 0 .02-.02.01-.047-.02-.054-.137-.047-.148.01-.004.022-.001.025.008.008.008-.017.034-.03.058-.03zm.194.015c0-.025-.011-.045-.025-.045-.014 0-.025.02-.025.045 0 .025.011.045.025.045.014 0 .025-.02.025-.045zm.09.015c-.03-.02-.033-.03-.007-.03.021 0 .064.016.094.035.065.04.155.015.154-.042 0-.027-.009-.025-.03.007-.025.04-.029.04-.03 0 0-.04-.003-.04-.03 0-.025.038-.034.038-.056.005-.031-.048-.13-.036-.147.018-.007.021.012.038.043.037.046 0 .048-.005.01-.03zm.35-.03c.023 0 .042.014.042.032 0 .044.128.022.144-.025.007-.02-.003-.037-.022-.037-.02 0-.026.013-.016.03.01.016-.003.03-.028.03-.026 0-.047-.014-.047-.03 0-.017-.034-.03-.076-.03-.052 0-.075.016-.073.052.001.032.01.038.018.016a.066.066 0 0 1 .058-.038zm-1.073-.015c0-.025-.015-.045-.032-.045-.018 0-.024.013-.013.03.01.016.004.03-.015.03-.018 0-.04-.02-.05-.045-.019-.05-.161-.064-.161-.016 0 .016.02.021.044.012.024-.01.066.005.093.031.06.06.134.062.134.003zm1.374-.015c.024 0 .043.013.043.03 0 .016.034.03.075.03.063 0 .075-.014.073-.083l-.003-.083-.024.076-.024.075-.006-.075-.006-.076-.025.076-.024.075-.003-.075c-.002-.043-.013-.062-.025-.043a.181.181 0 0 1-.075.051c-.03.011-.052.037-.05.058.001.03.005.031.017.001.008-.02.034-.037.058-.037zm.347-.005c.053.033.062.033.051 0-.018-.055-.151-.051-.166.005-.011.04-.01.04.019 0 .027-.039.041-.04.096-.005zm-2.032-.07c.005-.047.003-.049-.01-.008-.02.072-.1.066-.1-.007 0-.044-.015-.055-.052-.04-.032.012-.038.024-.015.032.02.007.036.032.036.056 0 .071.134.038.141-.034zm2.18.03c0-.025-.011-.046-.025-.046-.014 0-.025.02-.025.046 0 .025.011.045.025.045.014 0 .025-.02.025-.045zm.102 0c-.022-.055 0-.058.079-.008.046.029.067.029.096 0 .029-.03.023-.037-.03-.037-.04 0-.066-.019-.066-.048 0-.043-.004-.043-.047 0-.026.026-.06.048-.075.048s-.019.02-.01.045c.01.025.03.045.044.045.014 0 .018-.02.009-.045zm-2.503-.03c-.01-.025-.023-.046-.03-.046-.006 0-.011.02-.011.046 0 .024.013.045.03.045.015 0 .02-.02.011-.045zm1.203.023a.917.917 0 0 0-.196 0c-.054.007-.01.012.098.012s.152-.005.098-.012zm.467.001a.235.235 0 0 0-.105 0c-.03.008-.005.014.052.014.058 0 .082-.006.053-.014zm-1.749-.062c.007-.02-.003-.038-.022-.038-.018 0-.026.014-.015.03.033.055-.031.032-.084-.03-.053-.062-.143-.082-.143-.03 0 .015.02.02.043.012.025-.01.058.01.078.048.036.067.122.072.143.008zm.709.033a.121.121 0 0 0-.076 0c-.02.008-.004.015.038.015.042 0 .059-.007.038-.015zm1.236 0a.121.121 0 0 0-.075 0c-.021.008-.004.015.037.015.042 0 .059-.007.038-.015zm-1.493-.029c-.01-.01-.036-.01-.058-.002-.024.01-.017.017.018.018.032.001.05-.006.04-.015zm.12 0c-.01-.01-.035-.01-.057-.002-.024.01-.017.017.018.018.032.001.05-.006.04-.015zm2.523-.006c.008-.013.002-.044-.013-.068-.023-.036-.028-.034-.028.01 0 .028-.021.052-.046.052-.025 0-.045-.016-.045-.035 0-.02-.008-.027-.018-.017-.01.01-.01.033.002.05.023.038.126.043.148.008zm.09-.051c-.01-.025-.03-.045-.044-.045-.014 0-.018.02-.009.045.01.025.03.045.044.045.014 0 .018-.02.009-.045zm-3.49-.02c.012-.021.007-.026-.014-.013-.02.012-.035.006-.035-.012 0-.019-.016-.024-.035-.012-.023.014-.03.002-.019-.04.013-.05.004-.059-.048-.047-.044.01-.052.005-.025-.014.028-.02.018-.037-.042-.064-.044-.02-.086-.03-.093-.023-.007.007.015.023.05.034.053.016.058.028.028.064-.029.034-.029.052 0 .08.029.029.032.025.017-.016-.016-.04-.01-.049.028-.035.027.01.049.037.049.058 0 .036.04.066.096.073.011 0 .03-.014.042-.033zm.417.008a.35.35 0 0 0-.134-.044c-.105-.017-.105-.017.015.025.15.052.154.052.119.02zm2.941-.063c.06-.02.063-.024.015-.024a.549.549 0 0 0-.135.024c-.06.019-.063.024-.016.024a.55.55 0 0 0 .136-.024zm-3.204-.018c-.01-.01-.036-.012-.058-.002-.024.01-.017.016.018.018.032 0 .05-.006.04-.016zm-.444-.058c0-.025-.015-.045-.032-.045-.018 0-.023.015-.01.034.012.021.004.028-.022.02-.023-.009-.039-.03-.035-.048.01-.046-.112-.079-.15-.04-.022.021-.013.026.03.015s.064.002.076.047c.02.073.143.088.143.017zm-.284-.129c.004-.02.001-.024-.008-.008-.008.017-.028.031-.044.031-.017 0-.015-.027.004-.067.03-.062.029-.063-.01-.016-.023.03-.061.053-.084.054-.034 0-.033.006.003.03.057.038.128.026.138-.024zm-.219-.059c-.015-.043-.011-.046.022-.015.022.02.05.038.062.038.011 0 .027-.017.035-.038.009-.024-.014-.038-.065-.039-.089 0-.14.048-.085.083.05.032.052.03.031-.029zm-.077-.062c.007-.02-.004-.036-.022-.036-.02 0-.026.014-.016.03.01.017.003.03-.016.03-.02 0-.042-.026-.05-.058-.019-.072-.099-.106-.143-.062-.023.024-.018.028.02.013.036-.013.06-.002.073.036.037.1.127.127.154.047zm-.283-.113c.011-.03.006-.04-.015-.026-.023.014-.026-.003-.012-.052.021-.07.02-.07-.028-.01-.05.059-.05.059-.032-.008.015-.053.008-.064-.028-.05-.032.013-.043.006-.033-.022.01-.026-.04-.072-.135-.124-.207-.114-.234-.104-.034.013.13.076.152.1.113.121-.055.03-.066.084-.017.084.018 0 .024-.013.013-.03-.01-.016-.004-.03.014-.03.018 0 .045.033.06.072.016.04.046.08.068.088l.044.019a.14.14 0 0 0 .022-.045zm.23-.013a.523.523 0 0 0-.136-.058c-.017 0 .017.026.075.058a.55.55 0 0 0 .136.057c.017 0-.017-.026-.075-.057zm-.5-.15c.01-.015.002-.037-.017-.05-.022-.013-.027-.008-.014.014.012.019.006.035-.013.035-.02 0-.042-.026-.05-.058-.019-.072-.098-.107-.143-.062-.023.024-.018.027.02.013.036-.014.06-.002.074.036.032.089.11.128.144.073zm-.26-.158c.02-.02.036-.05.036-.066 0-.017-.021-.004-.048.028-.045.056-.046.057-.03.001.017-.05.013-.052-.031-.015-.045.038-.048.035-.028-.03.015-.046.012-.064-.009-.052a.036.036 0 0 1-.05-.01c-.01-.018-.002-.031.02-.031.04 0-.003-.033-.194-.148-.158-.096-.141-.057.02.045.113.071.126.09.09.126-.043.042-.031.097.02.097.015 0 .018-.022.007-.05-.013-.034-.008-.043.016-.028a.08.08 0 0 1 .036.059c0 .038.058.11.09.11.01 0 .035-.017.055-.037zm-.294-.213c-.033-.03-.036-.03-.017.004.016.029.01.037-.018.027-.023-.008-.039-.03-.035-.048.008-.036-.108-.11-.132-.086-.008.008.013.024.048.035.035.011.055.034.044.05-.026.043.086.12.122.084.018-.017.014-.042-.012-.065zm-.23-.13c.028-.076-.006-.1-.088-.063-.069.032-.07.038-.024.073.066.05.089.047.111-.01zm-.073-.01c0-.016.013-.038.03-.048.017-.01.03-.005.03.011a.067.067 0 0 1-.03.05c-.017.01-.03.004-.03-.012zm-.142-.086c-.018-.047-.014-.048.032-.01.043.035.059.035.089.003.028-.031.028-.035-.003-.017-.022.012-.058.007-.08-.013-.047-.038-.094.007-.062.06.03.048.045.034.023-.023zm-.065-.082c0-.016-.016-.035-.036-.042-.021-.007-.028.002-.016.022.012.019.007.034-.009.034-.046 0-.063-.043-.035-.088.02-.033.047-.028.134.026.06.037.109.06.109.053a.793.793 0 0 0-.151-.112c-.124-.079-.16-.09-.196-.06-.06.05-.057.085.007.08.028-.002.052.009.053.026.003.088.138.147.14.061zm-.17-.137c-.01-.016-.005-.03.012-.03.016 0 .038.014.048.03.01.017.005.03-.011.03a.064.064 0 0 1-.049-.03zm-3.724 0c-.026-.016-.027-.028-.003-.043.019-.011.045-.013.06-.005.014.01.05-.002.08-.024.05-.036.05-.045.008-.106-.039-.054-.05-.058-.064-.02a.163.163 0 0 0 0 .1c.015.041.01.045-.019.018-.051-.047-.156.047-.114.102.016.021.043.03.06.02.018-.012.015-.028-.008-.042zm.09-.152c0-.018.014-.024.031-.013.017.01.03.024.03.031 0 .007-.013.014-.03.014s-.03-.015-.03-.032zm3.556.115c.04-.064.04-.066-.013-.023-.051.041-.054.04-.035-.012.02-.05.016-.052-.03-.015-.045.037-.049.036-.032-.01.013-.033.006-.05-.017-.045-.02.004-.033-.01-.029-.031.008-.039-.247-.22-.307-.218-.018 0 .04.043.128.094.145.085.155.096.105.133-.046.034-.048.046-.012.08.036.033.04.03.023-.016-.013-.037-.007-.051.018-.043.02.007.038.032.038.056 0 .038.068.114.106.117.008 0 .034-.03.057-.067zm-.285-.141c.01-.016 0-.038-.018-.05-.022-.014-.027-.01-.014.013.012.019.006.035-.013.035-.02 0-.042-.027-.05-.059-.019-.071-.099-.106-.143-.061-.023.023-.018.027.02.013.036-.014.06-.002.074.036.032.089.11.128.144.073zm-3.062-.05c.05.03.15-.048.13-.101-.015-.04-.01-.041.03-.008.033.026.055.029.068.008.01-.017.004-.032-.014-.032-.019 0-.025-.014-.014-.031.01-.017.043-.024.073-.014.073.023.145-.064.095-.114-.03-.029-.033-.024-.018.024l.02.06-.051-.06c-.05-.06-.05-.06-.031.015.019.072.018.073-.027.017-.027-.033-.047-.042-.047-.021 0 .02-.014.03-.03.019-.024-.015-.146.054-.325.181-.005.003 0 .029.01.056.016.039.03.043.06.017.023-.018.055-.025.071-.015zm-.101-.037c.088-.075.254-.187.275-.186.014 0-.016.036-.066.079-.05.043-.073.068-.052.057.02-.01.037-.008.037.007 0 .05-.039.067-.077.036-.026-.022-.044-.022-.057 0a.072.072 0 0 1-.054.031c-.021 0-.023-.009-.006-.024zm2.903-.113c.02-.043.023-.07.007-.06-.015.008-.033 0-.04-.02-.008-.022-.02-.016-.032.017-.012.031-.008.045.01.034.016-.01.03-.003.03.016 0 .02-.017.029-.038.021-.02-.007-.036-.036-.033-.065.003-.032-.01-.045-.037-.035-.022.009-.049.003-.059-.013-.01-.016 0-.03.022-.03.021-.002-.04-.043-.137-.093a.687.687 0 0 0-.188-.08c-.007.008.055.044.138.083.12.057.143.079.116.112-.027.032-.025.05.005.078.03.029.034.028.018-.001-.04-.071.035-.038.085.038.062.095.09.095.133-.002zm-.297-.12c0-.024-.014-.044-.032-.044-.017 0-.022.015-.01.034.012.02.005.028-.021.019-.023-.008-.039-.03-.035-.048.01-.042-.104-.105-.143-.08a.07.07 0 0 0-.03.054c0 .024.01.022.027-.006.03-.048.094-.02.094.04 0 .042.043.07.113.075.02 0 .037-.018.037-.043zm-1.932-.055c.047.009.093.005.103-.01.026-.043-.03-.11-.07-.085-.028.018-.027.03.004.052.03.02.021.024-.03.013-.094-.02-.155.006-.154.067 0 .044.004.044.03-.002.023-.038.055-.048.117-.035zm1.647-.082c.01-.034.011-.07.002-.08-.01-.01-.018.005-.018.032 0 .032-.025.05-.068.05-.055.001-.06.007-.023.03.067.043.085.038.107-.032zm-1.459.006c-.03-.02-.032-.031-.005-.048a.058.058 0 0 1 .068.01c.046.046.144-.013.144-.087 0-.032-.014-.06-.03-.06s-.02.024-.01.051c.013.034.008.043-.016.029-.019-.012-.035-.01-.035.007 0 .016-.024.023-.053.016a.138.138 0 0 0-.094.015c-.046.03-.021.094.036.093.024 0 .022-.009-.005-.026zm-.215-.033c.024-.016.031-.03.015-.03a.18.18 0 0 0-.076.03c-.025.016-.031.029-.015.029a.18.18 0 0 0 .076-.03zm1.356-.046c0-.024-.014-.045-.032-.045-.017 0-.023.014-.013.03.01.017.005.03-.012.03-.016 0-.043-.023-.06-.052-.016-.029-.037-.044-.048-.034-.026.026.07.117.122.117.024 0 .043-.02.043-.045zm.211-.012c0-.014-.036-.017-.082-.01-.073.015-.075.019-.022.038.063.023.104.011.104-.029zm-1.417-.002c.025-.016.032-.03.015-.03a.18.18 0 0 0-.075.03c-.025.016-.032.029-.015.029a.18.18 0 0 0 .075-.03zm.573 0c.036-.022.037-.036.008-.065-.03-.03-.037-.027-.037.013 0 .056-.046.07-.076.021-.023-.036-.166-.04-.166-.004 0 .015.034.02.076.012.044-.008.075 0 .075.02 0 .04.06.042.12.003zm.138-.06c.024 0 .043.013.043.03 0 .016.034.03.075.03.06 0 .075-.015.074-.068-.002-.065-.003-.065-.028-.008l-.026.06-.004-.06-.004-.06-.026.06c-.02.046-.026.048-.028.012-.002-.036-.023-.045-.078-.035-.045.01-.074.034-.073.064.002.031.008.036.018.012a.066.066 0 0 1 .058-.038zm.278-.017c-.009-.009-.026.007-.037.038-.016.043-.013.046.017.017.02-.02.03-.045.02-.055zm.27-.002c-.01-.01-.037-.01-.058-.002-.024.01-.017.017.018.019.032 0 .05-.006.04-.016zm-.828-.031a.172.172 0 0 0-.09-.001c-.03.008-.014.014.036.015.05 0 .074-.006.053-.014zm.677.002c-.01-.01-.036-.011-.058-.002-.024.01-.017.017.018.018.032.001.05-.006.04-.016zm-.436-.032a.172.172 0 0 0-.09 0c-.03.007-.013.013.036.014.05 0 .074-.006.054-.014zm3.324 1.288c-.01-.018-.076-.034-.146-.036-.09-.003-.102-.008-.043-.018.1-.015.104-.04.02-.116-.16-.144-.195-.448-.076-.63.068-.104.088-.084.045.042a.591.591 0 0 0 .067.47l.072.104.015-.369c.011-.275.006-.374-.023-.392-.07-.045-.038-.067.098-.069.129-.002.18.032.098.064-.047.018-.069.737-.022.737.051 0 .143-.179.164-.317a.441.441 0 0 0-.027-.243c-.061-.145-.037-.169.041-.04.13.213.102.5-.062.65-.078.07-.07.1.027.103.08.002.08.003.015.029a.189.189 0 0 1-.113.01.095.095 0 0 0-.088.018c-.029.024-.048.025-.062.003zm-.422-.265c-.124-.183-.082-.48.085-.597.087-.061.13-.056.07.01a.693.693 0 0 0-.14.36.67.67 0 0 0 .059.212c.072.158.03.167-.074.015zm.768.107a.63.63 0 0 1 .049-.113c.068-.137.045-.424-.044-.545-.08-.108-.044-.119.064-.018a.44.44 0 0 1 .007.62c-.042.04-.076.065-.076.056zm2.397-.265a6.123 6.123 0 0 1-1.9-.436c-.546-.225-.97-.467-2.095-1.198-1.013-.657-1.46-.827-2.11-.802-.274.01-.398.03-.588.096a3.8 3.8 0 0 0-1.013.567c-.186.141-.269.189-.269.155 0-.027.024-.067.053-.089.045-.033.047-.044.01-.078-.024-.024-.033-.025-.021-.004.01.02.009.042-.005.05-.029.018-.028.042-.036-.698-.005-.422.003-.563.035-.6.022-.028.174-.15.339-.273.653-.487 1.227-.678 1.833-.61.555.063.946.252 2.134 1.03.715.468.922.592 1.357.81.881.441 1.681.632 2.645.632.677 0 1.315-.08 1.822-.226.077-.022.149-.033.158-.023.032.031.02 1.274-.011 1.274-.016 0-.021.02-.012.045.01.025.002.046-.016.046-.018 0-.035-.024-.036-.053-.002-.035-.011-.028-.027.022-.017.054-.025.06-.028.021-.002-.03-.016-.046-.031-.037-.058.036.005.113.08.098.044-.009.067 0 .06.02-.006.019-.189.07-.406.114a7.714 7.714 0 0 1-1.922.147zm-.136-.091c0-.017-.028-.03-.063-.03-.044 0-.058-.014-.046-.046.01-.025.004-.045-.012-.045-.033 0-.04.1-.01.13.032.032.131.024.131-.01zm.332-.015c0-.025-.014-.046-.032-.046-.018 0-.023.014-.013.03.01.017-.003.03-.029.03-.026 0-.047-.013-.047-.03 0-.016-.02-.03-.046-.03-.038 0-.04.008-.008.044.052.06.175.06.175.001zm.09.015c-.038-.025-.037-.03.008-.03.03 0 .053.013.053.03 0 .016.034.03.076.03.041 0 .075-.015.075-.032 0-.018-.014-.024-.03-.013-.017.01-.032-.013-.033-.051-.003-.07-.003-.07-.027.006l-.024.075-.005-.075c-.003-.042-.013-.059-.021-.038-.008.02-.041.038-.073.038-.032 0-.058.02-.058.045 0 .025.024.045.053.045.045 0 .046-.005.008-.03zm.32-.03c.023 0 .042.013.042.03 0 .016.034.03.076.03.047 0 .075-.017.075-.045 0-.025-.014-.046-.032-.046-.017 0-.023.014-.013.03.01.017-.003.03-.029.03-.025 0-.047-.014-.047-.032 0-.045-.129-.021-.138.026-.004.021 0 .024.008.008.008-.017.034-.031.058-.031zm.294.015c-.01-.025-.002-.046.017-.046.02 0 .042.02.052.045.009.024.042.04.073.036.093-.014.105-.05.018-.05-.044 0-.08-.014-.08-.03 0-.017-.017-.03-.038-.03-.063 0-.122.05-.1.086.031.05.078.04.058-.012zm-1.337-.029c0-.024-.01-.05-.024-.058-.013-.008-.024.012-.024.043 0 .032.011.059.024.059.013 0 .024-.02.024-.044zm.094.022c-.034-.013-.034-.02 0-.042.033-.02.03-.026-.011-.026-.03 0-.053.02-.053.044 0 .025.024.045.053.043.037-.002.04-.007.011-.018zm-.204-.054c-.018-.048-.161-.064-.161-.018 0 .015.027.02.06.012.034-.01.06-.001.06.018 0 .018.013.033.03.033.015 0 .02-.02.011-.045zm1.98.018c0-.015-.026-.02-.058-.012-.031.008-.066 0-.077-.018-.011-.018-.035-.033-.052-.033-.02 0-.018.017.005.045.04.049.18.063.18.018zm-2.178-.078c.008-.05.004-.053-.022-.015s-.032.036-.035-.015c-.003-.051-.006-.052-.018-.008-.008.029-.026.053-.04.053-.015 0-.021-.017-.013-.038.009-.023-.014-.04-.06-.042-.08-.005-.128.065-.062.09.03.012.037.001.024-.035-.013-.036.001-.031.05.019.078.08.162.076.176-.01zm2.268.045c-.04-.025-.039-.03.006-.03.028 0 .058.012.068.027.009.015.044.02.077.012.042-.011.06-.04.057-.095l-.003-.08-.024.076c-.02.064-.025.066-.03.015-.004-.059-.005-.059-.027-.002-.015.036-.03.046-.043.025-.028-.044-.141-.012-.141.04 0 .024.023.042.053.042.045 0 .046-.005.008-.03zm-1.237-.011c0-.006-.033-.019-.075-.026-.041-.008-.075-.003-.075.011 0 .014.034.026.075.026.042 0 .075-.005.075-.011zm.61-.024c.021-.013-.05-.016-.157-.006-.108.01-.203.025-.21.032-.028.024.328-.001.367-.026zm-1.966-.038c0-.024-.014-.052-.03-.062-.017-.011-.022.002-.012.028.014.036.004.043-.038.03-.046-.016-.048-.013-.01.014.061.044.09.041.09-.01zm.746.026a.732.732 0 0 0-.187-.04c-.093-.013-.159-.013-.146 0a.375.375 0 0 0 .145.035l.163.017c.023.003.035-.003.025-.012zm2.207-.016c.033.053.134.029.147-.035.006-.029-.004-.053-.022-.053-.017 0-.023.02-.014.046.01.028 0 .045-.028.045-.026 0-.052-.016-.058-.034-.014-.042-.144-.006-.144.04 0 .019.019.016.047-.008.039-.032.052-.033.072-.001zm-.466-.026c.078-.016.094-.025.045-.026-.041-.001-.13.01-.196.023-.077.016-.093.026-.045.027.042 0 .13-.01.196-.024zm.716.008c-.02-.008-.03-.027-.02-.042.008-.016.002-.028-.016-.028-.017 0-.032.02-.032.045 0 .025.024.044.053.043.032-.001.038-.008.015-.018zm-3.335-.053c.054.017.054.016.002-.017-.03-.02-.074-.028-.098-.019-.024.01-.044.003-.044-.014s-.016-.021-.035-.009c-.024.015-.029.005-.016-.028.01-.028.006-.05-.01-.05s-.03.023-.033.052c-.003.047-.005.047-.016.003-.017-.062-.136-.096-.167-.047-.016.025-.023.02-.024-.016 0-.03-.015-.053-.032-.053-.018 0-.024.014-.013.03.036.059-.025.03-.094-.045-.081-.088-.059-.093.11-.026.067.027.128.043.135.036.007-.007-.069-.043-.169-.079-.1-.036-.173-.053-.164-.038.009.015.003.036-.014.047-.053.033-.033.07.03.054.04-.01.06-.001.06.028 0 .025.053.065.118.09.099.04.116.04.103.005-.012-.03-.001-.037.032-.024.026.01.04.031.031.046-.018.03.11.088.146.067.012-.007.022.003.022.022 0 .027.01.027.042 0a.116.116 0 0 1 .098-.016zm.147-.063a.75.75 0 0 0-.181-.039c-.033 0-.006.019.06.04a.75.75 0 0 0 .181.04c.033 0 .006-.02-.06-.041zm3.045.016l.06-.026h-.06a.85.85 0 0 0-.15.025l-.091.023.09.001c.05.001.118-.01.151-.024zm.12-.03c.01-.017.005-.03-.013-.03a.031.031 0 0 0-.032.03c0 .016.006.03.014.03.007 0 .021-.014.032-.03zm-4.055-.183c0-.018-.015-.023-.033-.011-.023.014-.027-.002-.012-.051.021-.07.02-.07-.029-.012-.049.06-.05.06-.03-.007.014-.055.008-.064-.034-.047-.036.014-.046.009-.03-.016.03-.05-.416-.255-.563-.258-.069-.001-.113-.018-.113-.04 0-.021-.014-.038-.032-.038-.017 0-.023.013-.013.03.01.016.004.03-.014.03-.018 0-.045-.032-.06-.071-.03-.078-.122-.131-.123-.071 0 .025-.007.026-.022.004a.268.268 0 0 0-.079-.064c-.038-.02-.045-.038-.023-.052.02-.012.034-.008.034.008s.024.026.052.022c.03-.004.125.038.214.095s.168.097.176.09c.018-.019-.327-.22-.359-.21C18.01 5.29 18 5.28 18 5.261c0-.017-.014-.023-.03-.013-.017.01-.03.005-.03-.012s-.021-.023-.047-.013c-.028.01-.043.003-.038-.02.005-.02-.06-.082-.144-.137-.146-.095-.154-.097-.188-.041-.03.047-.028.057.01.057.027 0 .04-.013.03-.03-.01-.016-.009-.03.005-.03.053.002.111.059.12.118.013.082-.015.08-.046-.002-.019-.052-.027-.055-.042-.019-.012.032.022.072.104.126.087.057.117.066.103.032-.012-.031-.005-.044.02-.035.02.007.034.033.03.057-.01.052.129.134.204.122.03-.005.058.015.067.048.008.032.06.08.114.107.117.059.13.06.102.015-.014-.022-.008-.027.013-.014a.08.08 0 0 1 .035.062c0 .049.164.112.227.087.027-.01.044.001.044.03 0 .04.083.11.13.11.038 0 .042-.087.006-.1-.03-.012-.036-.002-.023.032.012.032.007.041-.017.026a.083.083 0 0 1-.035-.063c0-.049-.106-.088-.155-.058-.02.013-.028.005-.019-.02.018-.05.052-.045.24.04.127.056.137.067.091.101-.044.033-.046.044-.01.078.035.034.04.031.024-.013-.01-.029-.005-.053.011-.053.017 0 .04.024.05.053.032.088.16.14.16.066zm-.633-.3c0-.018-.013-.025-.03-.015-.017.01-.03.005-.03-.011 0-.017.013-.039.03-.05.017-.01.03-.002.03.016 0 .019.014.025.03.015.017-.01.03-.005.03.012 0 .016-.013.038-.03.048-.016.01-.03.003-.03-.015zm-.763-.486c-.018-.067.008-.072.083-.016.054.039.053.041-.007.057-.043.011-.066 0-.077-.04zm-.23-.18c.024-.046.025-.059.001-.044-.018.011-.033.003-.034-.02 0-.024-.013-.018-.032.014-.016.03-.046.053-.065.053-.025 0-.025-.01.001-.036.02-.02.036-.048.036-.061 0-.014-.104-.093-.23-.175-.21-.137-.236-.147-.282-.105-.028.025-.06.036-.07.025-.012-.01-.02-.005-.02.013 0 .034.094.074.189.08.03.002.07.037.091.078.043.086.128.102.122.023-.004-.053.023-.07.058-.034.011.01.006.044-.01.074-.02.037-.018.06.006.076.023.014.027.008.011-.018-.016-.025-.01-.034.018-.024.023.008.042.026.043.041.002.108.116.135.167.04zm-.077.003c.01-.016.024-.03.032-.03.007 0 .013.014.013.03 0 .017-.014.03-.032.03-.017 0-.023-.013-.013-.03zm-.12-.12c-.01-.017-.006-.03.01-.03.017 0 .04.013.05.03.01.016.005.03-.012.03s-.038-.014-.049-.03zm-.166-.03c-.024-.015-.034-.037-.022-.049.029-.029-.091-.11-.13-.087-.016.01-.03.003-.03-.015 0-.019-.013-.026-.03-.015-.017.01-.021-.002-.01-.031.015-.04.024-.042.044-.01.014.023.026.03.026.015.001-.055.193.1.197.159a.277.277 0 0 1 .002.062l-.047-.028zm-3.845-.12c.01-.018-.003-.022-.033-.01-.037.013-.045.008-.029-.019.013-.02.049-.031.079-.023s.076-.01.102-.037c.041-.046.042-.058.002-.11-.044-.057-.045-.057-.025 0 .015.043.01.05-.02.032-.03-.019-.035-.01-.018.033.017.044.014.05-.014.022-.028-.028-.049-.021-.09.03-.052.064-.051.11.001.11.015 0 .035-.012.045-.029zm3.466-.125c-.014-.022 0-.027.04-.014.034.011.07.008.078-.007.01-.014-.03-.024-.088-.022-.075.002-.104-.01-.104-.043 0-.038-.005-.039-.027-.005s-.03.034-.051 0c-.028-.045-.044-.117-.025-.117.006 0 .056.028.11.06.054.034.112.06.127.061.024 0-.11-.093-.285-.196-.04-.024-.04-.02 0 .029.042.051.04.053-.022.034-.043-.014-.068-.01-.068.012 0 .019.014.026.03.015.017-.01.041.01.054.045a.317.317 0 0 0 .113.12c.103.066.147.076.118.028zM13.57 4.49c.072.02.105-.026.038-.052-.06-.023-.168.067-.138.115.013.02.025.013.032-.022.007-.038.03-.051.068-.04zm.032-.13c.164-.1.227-.117.127-.034-.045.038-.057.068-.038.097.021.035.027.033.027-.009 0-.032.017-.045.043-.035.023.009.052 0 .065-.021.015-.025.01-.03-.017-.013-.027.017-.032.013-.017-.012.013-.02.04-.03.06-.023.019.008.065-.002.102-.022.06-.033.063-.04.02-.095-.044-.058-.044-.058-.024.001.019.054.015.056-.03.019-.047-.038-.05-.036-.031.015.019.05.016.052-.03.015-.031-.025-.05-.029-.05-.008 0 .018-.017.027-.038.02-.02-.007-.112.033-.204.09-.09.058-.153.105-.139.105a.81.81 0 0 0 .174-.09zm2.8.018c0-.007.008-.038.017-.068.016-.05.015-.05-.016-.004-.05.077-.13.036-.088-.044.029-.053.026-.059-.018-.042a.348.348 0 0 1-.063.02c-.022 0 .028.105.06.127.035.024.108.031.108.01zm-.203-.11c-.012-.047-.023-.053-.04-.025-.026.042-.01.087.03.087.015 0 .019-.028.01-.063zm-.075-.053c.007-.02-.004-.036-.023-.036s-.026.014-.016.03c.01.017.003.03-.016.03s-.041-.026-.05-.058c-.019-.071-.098-.106-.142-.061-.024.024-.018.027.02.013.035-.014.059-.002.073.036.036.099.127.126.154.046zm.127-.02c0-.018-.291-.167-.323-.165-.013 0 .05.04.142.089.185.098.181.096.181.076zm-1.969-.057c.013-.013 0-.042-.03-.064-.05-.037-.049-.041.03-.07.047-.017.07-.032.05-.033a.473.473 0 0 0-.131.038l-.098.041.083.021c.061.016.075.03.05.054-.024.025-.044.024-.074 0-.031-.026-.054-.026-.093.003-.045.033-.036.038.068.037.066-.001.132-.013.145-.026zm1.547-.019c0-.017-.028-.03-.062-.03-.05 0-.059-.013-.042-.064.013-.043.009-.058-.013-.044-.046.028-.043.13.004.148.064.026.113.022.113-.01zm-1.763-.054c-.01-.01-.034 0-.054.02-.03.03-.026.033.017.017.03-.011.046-.028.037-.037zm.296.009c-.01-.025-.022-.046-.029-.046-.007 0-.012.02-.012.046 0 .024.014.045.03.045s.021-.02.012-.045zm1.258.003c-.027-.033-.026-.046.004-.058.027-.011.028-.017.003-.018-.056-.004-.082.061-.035.09.06.039.069.034.028-.014zm-1.033-.105c.005-.035-.004-.064-.021-.064-.018 0-.024.024-.015.053.014.044.008.042-.034-.008-.05-.06-.05-.06-.03.008.011.04.006.067-.013.067-.018 0-.032-.023-.032-.052 0-.043-.006-.045-.028-.011-.038.06.029.122.103.094a.12.12 0 0 0 .07-.087zm.94.058c0-.015-.015-.038-.034-.05-.022-.013-.027-.008-.014.014.012.019.007.034-.011.034s-.04-.02-.05-.045c-.01-.025-.03-.045-.046-.045-.015 0-.013.026.004.06.033.06.151.086.151.032zm-.863-.047c.01-.025.004-.045-.012-.045s-.03.02-.03.045c0 .025.006.045.013.045.007 0 .02-.02.029-.045zm.23.002c0-.024-.013-.052-.03-.062-.017-.01-.022.002-.011.029.02.05-.034.065-.064.016a.068.068 0 0 0-.05-.03c-.021 0-.02.017.004.045.048.058.15.06.15.002zm.102-.002c-.01-.025-.002-.045.017-.045.019 0 .04.018.05.04.007.022.041.038.073.036.064-.005.122-.046.065-.046-.02 0-.037-.024-.039-.053-.003-.05-.004-.05-.017 0-.008.03-.028.053-.045.053-.017 0-.024-.018-.016-.04.011-.03-.005-.037-.057-.027-.082.016-.115.052-.088.097.03.048.076.035.057-.015zm.32-.049c0-.016-.013-.021-.03-.011-.016.01-.03.032-.03.049 0 .016.014.021.03.011a.064.064 0 0 0 .03-.049zm.302.004a.217.217 0 0 0-.106-.027l-.06.002.06.026a.384.384 0 0 0 .106.027c.04.001.04-.002 0-.027zm-.72-.084c-.073-.006-.144.001-.157.015-.014.013.046.018.132.01l.157-.015zm.494.024c-.083-.036-.13-.036-.076 0a.186.186 0 0 0 .09.028c.03-.001.026-.01-.014-.028z"/></svg>