<svg viewBox="0 0 24 24" xmlns="http://www.w3.org/2000/svg" role="img"><path d="M20.151 0a17.515 17.515 0 0 0-2.666.214c-2.12.342-7.26.894-10.55 3.995-3.1 3.285-3.785 8.434-4.133 10.55-.235 1.476-.403 3.54-.091 3.851.73.73 1.052-.858 1.599-2.355.705-1.92 2.104-6.513 5.936-10.345a19.93 19.93 0 0 1 8.404-4.368c1.553-.373 3.29-.644 2.687-1.354-.103-.127-.57-.184-1.186-.188zm-.004 5.111c-.6-.006-1.303.079-1.835.16-1.594.24-5.129.619-7.484 2.836-2.217 2.355-2.636 5.706-2.922 7.377-.184 1.057-.445 2.738.112 3.147.603.44.808-.608 1.196-1.686.5-1.38 1.558-4.634 3.73-6.933 2.288-2.17 3.892-2.784 5.282-3.249 1.23-.414 3.382-.654 3.131-1.272-.115-.278-.61-.374-1.21-.38zm.14 4.965c-.31.004-.632.034-.881.059-1.364.143-3.24.46-4.705 1.844-1.38 1.471-1.686 3.765-1.845 4.695-.107.664-.311 1.768.194 1.962.435.168.506-.383.746-1.047.317-.859.971-2.764 2.325-4.195 1.435-1.476 2.467-1.864 3.673-2.176.685-.179 1.701-.378 1.573-.823-.073-.265-.562-.326-1.08-.319zm.61 4.095c-.153-.005-.526.122-.7.22-.337.189-.51.296-.955.7-.311.275-.623.69-.832 1.093-.297.572-.404.91-.49 1.292-.072.348-.062.675 0 .828.101.26.28.322.525.27.409-.091 1.226-.684 1.88-1.547.726-.956 1.088-2.039 1.017-2.432-.036-.19-.164-.409-.444-.424zm-2.16 6.273c-.838 0-1.497.169-1.972.496-.476.327-.71.756-.71 1.282 0 .327.102.629.3.9.205.265.491.48.87.643.367.153.863.235 1.465.235.72 0 1.298-.117 1.737-.337.44-.22.695-.511.767-.853l-1.104-.062c-.025.194-.168.373-.413.521-.246.143-.542.215-.89.215-.434 0-.786-.107-1.047-.322-.265-.22-.398-.531-.398-.95 0-.409.117-.726.368-.94.245-.215.592-.322 1.037-.322.69 0 1.144.255 1.343.782l1.104-.062c-.113-.398-.383-.7-.823-.909-.44-.21-.98-.317-1.635-.317zm-16.129.046v3.454h1.185V20.49zm1.916 0v.532h1.752v2.922h1.277l.005-2.922h1.753v-.532zm5.512 0v3.454h1.19v-1.42h1.676l1.027 1.42h1.257l-1.165-1.528c.792-.163 1.19-.47 1.19-.914 0-.302-.178-.542-.556-.73-.368-.19-.96-.282-1.753-.282zm1.186.496H12.8c.373 0 .66.051.869.143.21.092.311.214.311.368 0 .168-.107.296-.317.388-.209.097-.526.143-.955.143h-1.486z"/></svg>