<svg viewBox="0 0 24 24" xmlns="http://www.w3.org/2000/svg" role="img"><path d="M11.18.015a12.478 12.478 0 0 0-2.56.46c-.368.104-1.034.344-1.37.492l-.144.065c-.512.226-1.3.659-1.755.967-1.785 1.21-3.146 2.752-4.083 4.624a11.876 11.876 0 0 0-1.257 5.86 11.694 11.694 0 0 0 .84 3.962 12.032 12.032 0 0 0 8.968 7.353 12.074 12.074 0 0 0 6.993-.804l.206-.093c2.115-.962 4.004-2.643 5.236-4.662a11.97 11.97 0 0 0 1.674-4.91c.065-.618.072-.756.072-1.343-.002-.59-.043-1.277-.097-1.558a2.95 2.95 0 0 1-.027-.188c-.053-.482-.274-1.4-.492-2.06a12.041 12.041 0 0 0-4.656-6.127A12.512 12.512 0 0 0 16.472.85a12.48 12.48 0 0 0-1.084-.376 16.7 16.7 0 0 0-.895-.224 9.633 9.633 0 0 0-1.075-.174c-.127-.014-.3-.035-.385-.046-.188-.025-1.585-.036-1.853-.016zm5.47 3.515c1.505.165 2.221.688 2.221 1.619 0 .116-.009.242-.02.28-.017.067-.039.277-.1.973-.021.24-.04.364-.052.364-.01 0-.04-.032-.068-.072a2.427 2.427 0 0 0-.431-.422 3.8 3.8 0 0 0-.591-.312.523.523 0 0 1-.09-.036 4.165 4.165 0 0 0-.465-.141 7.863 7.863 0 0 0-1.209-.181 32.143 32.143 0 0 0-2.033.016l-.519.045c-.892.077-2.365.29-3.537.51l-.295.056a113 113 0 0 0-2.167.447l-.313.07c-.093.02-.239.054-.323.074a28.955 28.955 0 0 1-.517.118c-.034.01-.041.007-.034-.013.016-.043 1.547-2.322 1.59-2.367.021-.023.104-.047.28-.077.135-.025.341-.061.454-.08.21-.038.312-.058.68-.122l.466-.083c1.564-.28 2.896-.476 3.924-.582a6.73 6.73 0 0 0 .376-.043c.023-.005.261-.023.526-.04.267-.015.488-.031.493-.037.021-.021 1.51.01 1.755.036zm-.904 2.735c1.578.085 2.468.47 2.731 1.181.049.131.077.373.063.529a7.89 7.89 0 0 1-.115.653c-.01.045-.043.213-.073.376a17.109 17.109 0 0 1-.099.496c-.012.067-.037.077-.053.024-.02-.063-.262-.294-.41-.394-.486-.324-1.152-.51-2.189-.61-.58-.058-1.735-.058-2.532-.003a44.33 44.33 0 0 0-4.513.575c-.816.149-1.067.193-1.37.254-.196.038-.413.08-.483.097l-.385.079c-.27.055-.913.191-.976.207l-.492.11a75.2 75.2 0 0 0-.6.134 1.748 1.748 0 0 1-.174.034c-.023 0 .054-.125.267-.444l.79-1.177c.27-.404.505-.746.52-.763.026-.026.146-.055.54-.132l.93-.186a82.315 82.315 0 0 1 1.38-.27l.394-.072c.433-.08 1.22-.215 1.513-.26.09-.014.27-.041.403-.063a88.475 88.475 0 0 1 1.271-.177c.217-.03.71-.082 1.38-.145.173-.016.714-.048 1.011-.06a17.9 17.9 0 0 1 1.271.006zM9.473 9.468c.024.01.115.04.203.065.09.027.193.057.232.071a35.39 35.39 0 0 0 .466.143 35.387 35.387 0 0 0 .466.144c.039.012.317.098.617.188.301.091.556.175.566.186.015.012.033.233.05.61.133 2.576.042 4.875-.26 6.635-.074.432-.23 1.134-.293 1.317a4.64 4.64 0 0 0-.064.206 7.807 7.807 0 0 1-.25.687c0 .005-.037.09-.084.185-.154.324-.367.671-.494.807l-.055.058-1.997-.002c-1.689 0-1.99-.004-1.945-.025.03-.013.122-.049.204-.081.774-.292 1.404-.895 1.827-1.751a5.86 5.86 0 0 0 .38-.989c.04-.116.152-.596.21-.922.25-1.38.298-3.403.155-6.637a32.268 32.268 0 0 1-.027-.757c0-.165.005-.174.093-.138zm3.358 1.033c.184.056.367.111.725.223l.23.07.232.07.233.073.475.145c.19.059.326.1.59.179.138.043.26.082.271.091.01.009.025.07.03.138l.049.496c.143 1.46.17 1.955.168 3.098 0 1.456-.097 2.435-.33 3.376-.21.847-.497 1.429-.904 1.837a1.535 1.535 0 0 1-.55.388l-.166.076-1.33.005-1.33.005.119-.147c.623-.774 1.05-2.036 1.26-3.75.189-1.526.22-3.57.09-5.883a17.807 17.807 0 0 0-.027-.426.344.344 0 0 1 0-.111c.004 0 .079.022.165.047z"/></svg>