<svg role="img" viewBox="0 0 24 24" xmlns="http://www.w3.org/2000/svg"><path d="M11.186 23.852c-2.064-.825-3.726-1.788-5.452-3.158-2.243-1.78-3.717-4.028-4.404-6.714-.16-.625-.26-1.24-.326-1.996-.045-.52-.054-1.458-.053-5.561 0-5.69-.048-5.057.404-5.172A58.066 58.066 0 0 1 3.46.798c.179-.032.398-.073.487-.09C5.121.488 7.08.237 8.442.134c2.16-.164 4.835-.178 6.644-.034 1.052.084 2.195.194 2.6.25.138.02.496.07.794.11a44.2 44.2 0 0 1 3.863.719c.44.1.519.129.607.223l.1.109-.012 5.224c-.014 5.652-.006 5.412-.211 6.524-.231 1.252-.772 2.754-1.325 3.683-.37.62-.482.794-.77 1.192-.83 1.144-1.697 2.002-3.029 2.996-1.524 1.138-3.008 1.966-4.83 2.694L12.43 24l-.441-.002c-.43-.002-.452-.006-.803-.146zm.997-.16c.087-.03.19-.068.23-.086l.506-.204c2.166-.861 4.344-2.228 6.026-3.783.39-.36.922-.95 1.29-1.432a11.72 11.72 0 0 0 2.267-5.195c.173-.994.183-1.354.183-6.486 0-2.641-.012-4.82-.026-4.842-.08-.117-3.012-.685-4.63-.897a64.401 64.401 0 0 1-.687-.093A52.632 52.632 0 0 0 14.96.457C13.21.345 10.95.331 9.59.423c-1.336.09-1.616.112-2.104.163-.516.053-.64.068-1.498.18a46.28 46.28 0 0 0-3.295.56l-.307.069c-.798.178-1.005.233-1.04.273-.055.068-.025 10.015.033 10.489.257 2.098.855 3.764 1.933 5.39.848 1.278 1.71 2.16 3.205 3.279a20.816 20.816 0 0 0 5.374 2.896c.088.032.127.028.293-.03zm-.437-.688c-1.82-.709-3.432-1.597-4.886-2.694-1.412-1.063-2.385-2.077-3.14-3.267a11.202 11.202 0 0 1-1.723-5.013c-.022-.246-.036-2.2-.036-5.137v-4.74l.08-.035c.097-.042.364-.1 1.237-.271a39.705 39.705 0 0 1 2.528-.431c.238-.032.539-.074.668-.093.44-.064 1.702-.178 2.78-.25a46.912 46.912 0 0 1 3.836-.071c1.115.032 1.265.039 2.212.105.506.036.68.052 1.57.145.77.08 2.32.299 2.835.399.556.108 1.174.227 1.3.25.355.065.908.192.966.223.06.032.063.3.063 4.844 0 4.561-.004 4.838-.07 5.351a10.975 10.975 0 0 1-.295 1.562 11.274 11.274 0 0 1-1.869 3.854c-1.35 1.788-3.825 3.639-6.396 4.785-.343.153-1.394.58-1.419.576-.004 0-.112-.042-.241-.092zm.661-.246c2.387-.937 4.67-2.388 6.253-3.974a10.89 10.89 0 0 0 3.194-7.078c.058-.888.051-9.388-.007-9.432-.049-.036-.674-.179-1.309-.298a67.31 67.31 0 0 1-.577-.11c-.1-.02-.384-.07-.632-.11l-.65-.106c-.11-.019-.329-.05-.488-.07-.159-.02-.475-.061-.703-.092-1.955-.262-4.644-.387-6.78-.315-1.435.05-1.956.081-3.042.188-.773.077-2.018.23-2.329.287-.1.018-.4.068-.668.11a29.02 29.02 0 0 0-1.589.293c-.794.162-.88.185-.93.244-.056.068-.064 8.414-.009 9.368.174 3.001 1.543 5.75 3.85 7.731a19.337 19.337 0 0 0 5.032 3.133c.813.341.918.384.951.387.016.002.211-.069.433-.156zm-.336-1.79c0-.024.108-.216.24-.428.754-1.2 1.661-3.109 1.823-3.836.11-.49.119-1.37.02-1.828a5.904 5.904 0 0 0-.747-1.83c-.283-.462-.337-.652-.315-1.106.02-.41.097-.675.31-1.049.152-.27.502-.684.578-.684.034 0 .13.07.214.155l.152.155-.059.173c-.108.318-.066.465.286.987a8.23 8.23 0 0 1 1.143 2.523c.092.361.11.5.11.863 0 .723-.143 1.4-.404 1.914-.647 1.273-1.756 2.675-2.882 3.643-.456.392-.47.402-.47.348zm-.21-.225c-.023-.024-.043-.062-.043-.085 0-.074-.349-.894-.592-1.394A14.461 14.461 0 0 0 6.04 13.44a9.27 9.27 0 0 1-.533-.358c-.035-.034-.038-.09-.012-.223.019-.098.053-.3.077-.45.14-.888.492-1.937.958-2.852 1.63-3.201 4.922-5.361 8.447-5.542.51-.026.596-.04.596-.1 0-.097.215-.487.356-.646.278-.313.755-.536 1.146-.536.177 0 .303.059.303.14 0 .016-.074.218-.165.449-.187.477-.195.426.117.758.097.103.355.39.573.636.218.247.53.596.692.776.36.4.415.54.324.83a1.3 1.3 0 0 0-.06.278c0 .081.26.558.549 1.007.112.174.433.7 1.547 2.535.302.498.335.603.28.877-.056.27-.131.372-.39.524-.403.235-.788.53-1.062.812-.216.223-.283.271-.375.271a.232.232 0 0 1-.224-.234c-.001-.133-.17-.44-.297-.537-.11-.084-.384-.204-.466-.204-.051 0-.176.14-.176.198 0 .03.146.178.325.33.306.26.325.284.325.417 0 .19-.053.202-.43.108a3.136 3.136 0 0 0-.599-.082 2.775 2.775 0 0 1-.352-.02c-.105-.027-.167-.192-.145-.383.023-.207.013-.22-.442-.58a14.455 14.455 0 0 1-.343-.276c-.01-.01-.153-.129-.319-.263-.277-.224-.315-.243-.473-.243-.246 0-.683-.12-.986-.273a2.35 2.35 0 0 1-.685-.48l-.171-.164-.136.11c-.31.248-.644.76-.799 1.222-.097.293-.153.818-.11 1.047.036.2.222.594.501 1.065a4.677 4.677 0 0 1 .328 3.98c-.192.496-.792 1.666-1.402 2.736-.386.677-.408.706-.47.643zm-6.795-7.876c-.141-.09-1.275-.641-1.762-.858l-.314-.14.003-.136c.004-.19.156-.665.43-1.347a11.778 11.778 0 0 1 7.965-7c.93-.241 1.575-.329 2.614-.353.77-.017 1.726.024 1.779.076.027.028-.012.09-.256.4l-.227.289-.395.023c-.847.05-1.739.23-2.616.527-1.076.365-2.011.86-2.925 1.549a10.383 10.383 0 0 0-3.6 4.978 12.54 12.54 0 0 0-.406 1.643c-.075.495-.07.489-.29.349z"/></svg>