<svg role="img" viewBox="0 0 24 24" xmlns="http://www.w3.org/2000/svg"><path d="M15.735 20.56a2.964 2.964 0 0 1-.611-.082l-.189-.04a5.37 5.37 0 0 1-.184-.05 2.096 2.096 0 0 0-.173-.045.17.17 0 0 1-.052-.018.86.86 0 0 0-.107-.039 5.68 5.68 0 0 1-.86-.351 4.01 4.01 0 0 1-.213-.113.495.495 0 0 0-.072-.039.466.466 0 0 1-.07-.04 2.204 2.204 0 0 1-.208-.129 3.828 3.828 0 0 0-.145-.092.352.352 0 0 1-.075-.055 2.253 2.253 0 0 0-.097-.072 1.162 1.162 0 0 1-.113-.086 5.08 5.08 0 0 1-.876-.885 8.065 8.065 0 0 1-.322-.492 5.41 5.41 0 0 1-.488-1.193 5.911 5.911 0 0 1-.16-.869 15.722 15.722 0 0 0-.024-.228 7.294 7.294 0 0 1-.018-.406c-.01-.452.02-1.004.07-1.25a3.14 3.14 0 0 1 .061-.27 3.845 3.845 0 0 1 .162-.44c0-.015.105-.216.115-.22.006-.002.01-.01.01-.017 0-.03.206-.334.312-.458.046-.055.307-.318.387-.39.086-.078.278-.213.459-.323a4.32 4.32 0 0 1 .197-.117c.003 0 .04-.015.083-.034a9.9 9.9 0 0 1 .185-.083 1.28 1.28 0 0 1 .126-.048 2.815 2.815 0 0 1 .4-.12l.177-.04a3.383 3.383 0 0 1 1.237-.005l.06.012.001.294.003.516v.223l-.062-.003a9.952 9.952 0 0 1-.2-.013c-.38-.029-.928.018-1.182.1l-.149.047a.997.997 0 0 0-.103.036c-.039.02-.172.078-.177.078a.834.834 0 0 0-.108.069 2.154 2.154 0 0 1-.091.063 1.61 1.61 0 0 0-.427.428c-.052.08-.133.224-.157.28l-.045.103a2.484 2.484 0 0 0-.12.383c-.01.053-.026.125-.035.16-.071.274-.079 1.12-.012 1.502a7.053 7.053 0 0 0 .268 1.045l.042.109a2.78 2.78 0 0 0 .074.183 7.397 7.397 0 0 0 .222.434 3.819 3.819 0 0 0 .203.308 1.55 1.55 0 0 0 .139.181c.062.083.277.305.385.398.126.108.345.272.364.272.007 0 .012.004.012.01 0 .004.01.013.022.02.011.005.04.024.065.04s.063.04.085.051a.308.308 0 0 1 .045.029c.012.013.408.204.496.239.282.11.561.2.795.252.322.073.566.114.857.146l.235.026c.303.035.982-.003 1.4-.077l.153-.027a7.93 7.93 0 0 0 .771-.18.29.29 0 0 0 .052-.015c.012-.006.077-.026.143-.046a1.958 1.958 0 0 0 .2-.068 6.26 6.26 0 0 0 1.168-.56.396.396 0 0 1 .08-.045c.007 0 .014-.004.016-.009a.705.705 0 0 1 .09-.066c.047-.03.09-.06.097-.065l.163-.122a4.692 4.692 0 0 0 .351-.287 7.1 7.1 0 0 0 .538-.543 5.587 5.587 0 0 0 .493-.66.974.974 0 0 1 .054-.082.309.309 0 0 0 .032-.054c.007-.017.018-.032.022-.032.005 0 .009-.004.009-.01a7.673 7.673 0 0 0 .446-.91c.04-.095.073-.183.123-.33l.07-.206c.043-.125.147-.517.177-.663.133-.662.18-1.744.11-2.514a7.632 7.632 0 0 0-.122-.874 9.003 9.003 0 0 0-.347-1.268 18.275 18.275 0 0 0-.19-.465l-.075-.163a6.873 6.873 0 0 0-.201-.394 6.295 6.295 0 0 0-.286-.483 36.355 36.355 0 0 1-.108-.168 8.324 8.324 0 0 0-.365-.492 4.896 4.896 0 0 0-.242-.284 9.767 9.767 0 0 0-.828-.796 8.07 8.07 0 0 0-.676-.499 4.059 4.059 0 0 1-.176-.117c-.004 0-.06-.034-.127-.075a3.023 3.023 0 0 0-.252-.144c-.216-.122-.809-.41-.843-.41a8.34 8.34 0 0 0-.738-.275l-.154-.05a9.874 9.874 0 0 0-1.634-.355 4.133 4.133 0 0 1-.161-.023 10.969 10.969 0 0 1-.02-.934c.013-.02.557.008.912.049.384.044.71.104 1.068.196l.24.062c.119.03.218.062.329.104a.61.61 0 0 0 .088.027.2.2 0 0 1 .054.016c.02.008.15.058.29.11a7.325 7.325 0 0 1 1.004.46l.189.102c.047.025.093.052.103.06a7.037 7.037 0 0 1 .606.386 8.445 8.445 0 0 1 1.919 1.849c.069.089.153.205.159.22a9.137 9.137 0 0 1 .516.83 9.188 9.188 0 0 1 .34.7c.034.072.157.382.211.53.07.191.088.244.128.375l.063.203a14.155 14.155 0 0 1 .194.79c.068.315.133.77.17 1.206.055.617.053 1.444-.004 1.822a10.204 10.204 0 0 1-.36 1.606 9.964 9.964 0 0 1-.36.954 10.724 10.724 0 0 1-.349.685 7.464 7.464 0 0 1-.824 1.165l-.13.143a7.736 7.736 0 0 1-.583.554l-.067.058a3.223 3.223 0 0 1-.115.09 8.059 8.059 0 0 1-.394.29 7.898 7.898 0 0 1-1.349.719c-.079.034-.11.046-.24.092-.146.051-.397.133-.485.157a9.89 9.89 0 0 1-1.234.262l-.223.03c-.335.045-1.082.073-1.508.056zm.769-2.046a5.722 5.722 0 0 1-.632-.057 2.973 2.973 0 0 1-.314-.05c-.178-.033-.662-.163-.697-.188a.326.326 0 0 0-.051-.024 2.992 2.992 0 0 1-.77-.423 3.258 3.258 0 0 1-.363-.33 2.732 2.732 0 0 1-.225-.296 3.016 3.016 0 0 1-.356-.807 4.455 4.455 0 0 1-.074-.389c-.032-.214-.04-.401-.04-.932v-.513h.991l.006.044a7.636 7.636 0 0 0-.005.972c.056.46.209.867.432 1.146l.067.085c.023.033.128.137.2.198l.08.069a.538.538 0 0 0 .045.034 2.939 2.939 0 0 0 .273.171 2.92 2.92 0 0 0 .714.256c.305.08 1.011.116 1.315.065l.155-.024a2.97 2.97 0 0 0 .177-.034c.05-.01.143-.032.205-.046.146-.033.528-.158.714-.234.09-.037.427-.209.527-.27a3.653 3.653 0 0 0 .427-.296 1.614 1.614 0 0 0 .155-.13c.129-.11.342-.33.449-.46a4.75 4.75 0 0 0 .67-1.112l.047-.109a6.077 6.077 0 0 0 .34-1.193 5.16 5.16 0 0 0 .094-1.078c0-.188-.003-.345-.006-.349a1.838 1.838 0 0 1-.017-.168 6.299 6.299 0 0 0-.177-1.067 2.852 2.852 0 0 0-.104-.366 5.27 5.27 0 0 0-.537-1.191c-.012-.024-.026-.043-.03-.043-.006 0-.01-.006-.01-.012 0-.03-.274-.413-.445-.622a11.443 11.443 0 0 0-.623-.63 6.948 6.948 0 0 0-.52-.398.703.703 0 0 1-.09-.066c-.001-.005-.01-.009-.018-.009-.009 0-.03-.012-.048-.027a.513.513 0 0 0-.072-.048.875.875 0 0 1-.074-.046 2.34 2.34 0 0 0-.2-.114.32.32 0 0 1-.046-.028c-.009-.01-.476-.242-.548-.273a8.873 8.873 0 0 0-1.132-.396 8.85 8.85 0 0 0-.845-.178l-.097-.015-.007-.211a21.05 21.05 0 0 1-.009-.467l-.001-.255.134.007c.074.004.19.015.26.023.07.009.159.02.2.023.067.007.41.064.52.086a7.827 7.827 0 0 1 1.188.348c.062.026.101.043.198.082.12.048.224.099.228.11.003.005.012.008.022.008.024 0 .394.192.58.302a5.181 5.181 0 0 1 .33.213 1.725 1.725 0 0 1 .213.148.585.585 0 0 1 .055.043c.008.008.05.039.091.068a1.23 1.23 0 0 1 .168.135c.044.036.088.075.098.085l.12.109a6.826 6.826 0 0 1 .712.76c.024.018.201.268.318.445a5.507 5.507 0 0 1 .297.486c.075.137.243.484.306.634.292.692.464 1.393.549 2.234.025.244.035.994.017 1.274a7.5 7.5 0 0 1-.149 1.125 7.027 7.027 0 0 1-.244.845 5.658 5.658 0 0 1-.52 1.04 8.077 8.077 0 0 0-.141.206 10.592 10.592 0 0 1-.222.28c-.124.15-.406.429-.61.6a9.823 9.823 0 0 1-.485.35 5.662 5.662 0 0 1-1.577.694 6.124 6.124 0 0 1-.583.127c-.26.038-.34.046-.53.049-.117.002-.316 0-.443-.005zm-.129-2.058a1.988 1.988 0 0 1-.242-.018 9.37 9.37 0 0 1-.016-.524l-.008-.515.044.009.148.034c.423.1.891.091 1.24-.023.549-.18.968-.563 1.244-1.134.191-.398.308-.849.356-1.374.035-.394-.066-1.155-.217-1.628a6.838 6.838 0 0 0-.18-.5 5.205 5.205 0 0 0-.256-.497 7.038 7.038 0 0 1-.183-.271 1.31 1.31 0 0 1-.045-.057.856.856 0 0 0-.046-.057 3.795 3.795 0 0 1-.092-.103 2.586 2.586 0 0 0-.092-.103 6.01 6.01 0 0 1-.114-.109c-.15-.143-.467-.394-.499-.394-.007 0-.014-.004-.016-.009a1.098 1.098 0 0 0-.17-.11 6.178 6.178 0 0 0-.453-.224c-.008 0-.015-.005-.015-.011 0-.006-.006-.011-.013-.011-.012 0-.143-.049-.232-.086a6.85 6.85 0 0 0-.377-.119 7.986 7.986 0 0 0-.693-.153c-.005-.01-.017-.964-.011-.97.019-.022.653.073.855.127.024.007.079.02.123.03.044.01.11.028.148.04l.149.044a4.003 4.003 0 0 1 .451.162c.109.041.488.227.564.276l.133.083a6.6 6.6 0 0 1 .549.393c.138.118.405.385.53.53.014.015.144.179.158.197.05.066.173.243.188.27.022.039.029.05.075.122a4.928 4.928 0 0 1 .566 1.402c.068.273.085.358.12.628.088.647.08.979-.037 1.708-.05.306-.21.863-.317 1.097a5.29 5.29 0 0 1-.23.445c-.043.076-.2.296-.255.36-.12.141-.276.291-.418.407a4.77 4.77 0 0 1-.26.18c-.243.159-.621.304-.989.379-.198.04-.434.067-.643.074a7.524 7.524 0 0 0-.242.01 4.987 4.987 0 0 1-.28-.007zm-.886-.069a3.555 3.555 0 0 1-.31-.311 1.712 1.712 0 0 1-.198-.351 1.213 1.213 0 0 1 .005-.82c.037-.107.215-.489.235-.503a.328.328 0 0 0 .036-.056c.044-.081.052-.094.168-.266a.625.625 0 0 0 .059-.098c0-.006.008-.018.017-.026.015-.012.017.013.017.213 0 .125.003.3.006.387.003.088.008.343.01.566.018 1.12.02 1.275.025 1.288.007.025-.023.015-.07-.023zm1.23-1.907a1.93 1.93 0 0 1-.384-.112 4.808 4.808 0 0 1-.62-.33c-.244-.15-.2-.14-.576-.133-.464.01-1.86.029-2.033.029a.504.504 0 0 1-.147-.01c0-.016.245-.263.314-.318.118-.093.318-.21.362-.21.012 0 .02-.003.02-.008 0-.01.167-.052.289-.072.152-.025.48.027.657.105a.282.282 0 0 0 .062.022 4.915 4.915 0 0 1 .698.375.82.82 0 0 0 .143.077c.005-.002.005-.143.001-.311-.004-.17-.01-.567-.014-.884a64.08 64.08 0 0 0-.014-.808 1.861 1.861 0 0 1 .001-.232c.023 0 .182.126.29.229.063.06.17.191.21.257a.976.976 0 0 1 .128.548c-.03.23-.127.495-.268.731a1.945 1.945 0 0 0-.071.126l-.076.12-.102.157c-.022.034-.036.064-.032.068.004.004.52.001 1.145-.007s1.14-.012 1.143-.008c.008.008-.153.205-.216.265a2.46 2.46 0 0 1-.112.097.557.557 0 0 0-.066.06c-.002.004-.009.008-.015.008a.367.367 0 0 0-.074.04.974.974 0 0 1-.642.13zm.291-1.218c-.019-.004-.02-.012-.014-.07.017-.14.021-.494.008-.67a2.605 2.605 0 0 0-.152-.76 2.232 2.232 0 0 0-.243-.477l-.074-.093a1.935 1.935 0 0 0-.298-.303 2.502 2.502 0 0 0-.677-.373c-.055-.02-.078-.033-.082-.05a16.044 16.044 0 0 1-.012-.5l-.007-.477h.027c.014 0 .073.014.13.03l.125.035c.127.034.287.09.446.159.147.062.394.188.394.2 0 .004.011.01.026.015a.134.134 0 0 1 .048.027c.013.012.03.025.04.03a.95.95 0 0 1 .16.11l.057.046a2.716 2.716 0 0 1 .708.872c.072.144.109.227.154.35l.041.109c.013.031.085.302.107.4a5.096 5.096 0 0 1 .093 1.374 13.06 13.06 0 0 1-.47.01c-.257.002-.478.006-.49.007a.169.169 0 0 1-.045-.001zM2.67 10.693c-.102-.026-.256-.097-.256-.118 0-.005-.01-.012-.022-.015-.032-.008-.133-.136-.171-.216a.64.64 0 0 1-.048-.355c.056-.32.399-.557.727-.5.324.054.542.295.542.6a.49.49 0 0 1-.063.263.614.614 0 0 1-.22.249c-.12.078-.16.09-.323.094a1.325 1.325 0 0 1-.165-.002zm.24-.145a.478.478 0 0 0 .202-.112.402.402 0 0 0 .155-.37.42.42 0 0 0-.132-.305.468.468 0 0 0-.745.125.34.34 0 0 0-.043.187.336.336 0 0 0 .032.197.462.462 0 0 0 .532.278zm.78-.25c-.01-.478 0-.575.07-.677a.37.37 0 0 1 .32-.154c.135 0 .237.045.313.139.097.118.088.325-.017.423l-.037.035.028.018c.06.038.101.092.114.15.006.032.012.143.012.246v.188h-.16v-.071l-.007-.192c-.01-.209-.046-.242-.27-.25l-.135-.003.003-.07.004-.07.108-.007c.087-.004.119-.011.16-.034.135-.075.135-.257 0-.326a.246.246 0 0 0-.264.024c-.077.054-.079.064-.079.565v.445h-.156zm1.584.367a.668.668 0 0 1-.483-.346.63.63 0 0 1-.004-.516.575.575 0 0 1 .214-.238.673.673 0 0 1 .481-.111.55.55 0 0 1 .269.105c.12.081.123.088.066.152-.043.049-.079.067-.079.041 0-.006-.007-.011-.016-.011-.009 0-.018-.004-.02-.01a.63.63 0 0 0-.17-.105.333.333 0 0 0-.16-.028.447.447 0 0 0-.336.138.42.42 0 0 0-.128.272.47.47 0 0 0 .279.476.491.491 0 0 0 .465-.05.459.459 0 0 0 .15-.211c.029-.097.035-.094-.2-.094h-.206v-.148h.596l-.004.124c-.004.12-.006.128-.054.222-.092.183-.243.292-.467.338a.434.434 0 0 1-.193 0zm.966-.427c-.002-.504-.004-.466.027-.548a.379.379 0 0 1 .1-.144c.062-.063.085-.078.144-.096a.588.588 0 0 1 .284.002l.057.027a.5.5 0 0 1 .146.138.69.69 0 0 1 .044.102c.024.069.026.096.03.493l.006.42h-.056a.65.65 0 0 0-.075.005c-.011.002-.023 0-.026-.006a3.218 3.218 0 0 1-.012-.264c-.003-.14-.01-.26-.016-.265a1.207 1.207 0 0 0-.216-.005l-.205.005-.008-.068c-.004-.037-.003-.072.002-.078.006-.005.105-.01.221-.012l.211-.004-.003-.085c-.006-.193-.118-.296-.293-.27-.068.01-.119.047-.16.115l-.035.056v.881l-.083.006-.083.006zm1.116.38c-.003-.008-.007-.25-.01-.536-.005-.56-.003-.587.05-.625.06-.042.144-.037.19.012a.486.486 0 0 1 .055.083l.08.149c.026.05.09.17.14.268.112.219.184.353.205.383.014.02.016-.038.009-.449l-.008-.47.052-.002c.03 0 .064-.002.079-.003.023 0 .026.005.032.073.004.04.008.299.01.573 0 .5 0 .5-.024.523-.034.031-.094.04-.15.024-.074-.022-.056.006-.364-.592a56.171 56.171 0 0 1-.163-.32c-.007-.014-.017-.025-.023-.025a5.58 5.58 0 0 0-.005.47l.004.472-.077.003c-.056.003-.079 0-.082-.011zm1.211-.045a29.41 29.41 0 0 1-.01-1.138c.003-.01.032-.014.084-.014.068 0 .08.003.08.02l.007.594.007.574H8.69a.508.508 0 0 0-.08.007c-.035.007-.036.006-.042-.043zm.502.029c-.052-.015-.075-.05-.075-.118 0-.07.014-.094.179-.326l.09-.126.14-.194.06-.086c.027-.04.067-.097.088-.125.02-.027.036-.052.033-.054a4.209 4.209 0 0 0-.271-.007l-.267-.002.002-.068a.407.407 0 0 1 .006-.07c.002-.001.143-.006.313-.01.312-.008.348-.005.385.033.024.024.025.107.002.162-.014.035-.11.18-.13.198-.007.006-.05.068-.143.206a3.1 3.1 0 0 1-.067.097 8.875 8.875 0 0 0-.189.266c-.026.039-.044.072-.04.073.005.002.146.003.312.003H9.8l.003.072.004.071h-.102l-.357.006a3.31 3.31 0 0 1-.28-.001zm.959-.02a9.481 9.481 0 0 1-.003-.454l.003-.44.037-.073c.072-.145.166-.213.317-.227a.403.403 0 0 1 .347.118c.114.123.12.163.132.832l.005.248h-.169v-.226a3.42 3.42 0 0 0-.008-.268l-.007-.044-.212.002-.213.001-.006-.07a.306.306 0 0 1 0-.076 2.28 2.28 0 0 1 .193-.005c.245 0 .241.001.241-.07 0-.03-.01-.088-.023-.127-.04-.119-.107-.168-.227-.168-.115 0-.186.05-.229.158-.023.06-.024.072-.016.483l.007.421h-.082c-.057 0-.083-.004-.087-.015zm1.337-.007a7.826 7.826 0 0 1-.013-.449c-.004-.24-.01-.47-.014-.51l-.007-.075-.146.003-.145.004-.002-.032a.487.487 0 0 1 .005-.114c.002-.002.173-.006.38-.01.311-.006.38-.005.384.008a.367.367 0 0 1 .004.072v.057l-.149.006-.148.006.004.512c.003.424.001.515-.012.523-.021.014-.132.013-.14-.001zm.707-.008c-.01-.007-.015-.182-.021-.6l-.009-.589.085.001.084.002.01.586c.005.322.006.59.002.593a.355.355 0 0 1-.151.007zm.921-.005a.724.724 0 0 1-.158-.058.597.597 0 0 1-.345-.559c0-.155.055-.282.172-.398a.58.58 0 0 1 .446-.196c.13 0 .216.02.33.078a.62.62 0 0 1 .31.395.728.728 0 0 1-.028.35.646.646 0 0 1-.727.388zm.297-.165a.26.26 0 0 0 .057-.028.402.402 0 0 1 .054-.038.35.35 0 0 0 .144-.168c.033-.067.037-.086.04-.202.003-.09 0-.129-.008-.129-.007 0-.013-.012-.013-.026 0-.04-.062-.138-.122-.19a.468.468 0 0 0-.764.223.344.344 0 0 0-.006.178.534.534 0 0 0 .04.156.57.57 0 0 0 .137.162c.005 0 .025.011.045.025.075.055.12.067.236.062a.535.535 0 0 0 .16-.025zm.728.129a5.066 5.066 0 0 1-.007-.323c-.001-.17-.004-.4-.007-.513-.006-.23.003-.278.055-.321.058-.05.16-.031.207.036.009.012.055.099.104.193.049.094.093.176.098.182.006.006.01.018.01.026 0 .009.006.022.013.03.007.007.06.106.118.219.058.113.109.203.114.2.008-.006.01-.847 0-.871-.01-.03.014-.041.09-.045l.077-.004.007.577.007.577-.03.027c-.025.024-.037.027-.104.022-.116-.007-.091.028-.404-.58a23.171 23.171 0 0 1-.155-.306c-.012-.027-.028-.048-.034-.048-.007 0-.008.168-.003.468l.008.468h-.08c-.053 0-.08-.004-.084-.014zm.963-1.162a.011.011 0 1 1 .023 0 .011.011 0 0 1-.023 0zm-.074-.022a.013.013 0 0 1 .005-.018.013.013 0 0 1 .017.004.013.013 0 0 1-.004.018.013.013 0 0 1-.018-.004zm-14.9-.69l.019-.168c.006-.047.016-.145.023-.217.007-.072.017-.165.023-.206A7.64 7.64 0 0 0 .1 7.822c.026-.247.042-.288.125-.31.035-.01.05-.008.091.012.041.02.055.035.079.09.032.07.03.064.174.509.064.197.103.301.109.29a2.97 2.97 0 0 0 .061-.198 21.224 21.224 0 0 1 .127-.434c.06-.218.09-.269.168-.286.039-.009.107.023.137.064.02.027.045.17.123.702l.063.42c.005.031.005.031-.063.033-.038 0-.078.002-.089.003-.02.001-.03-.056-.07-.37a15.421 15.421 0 0 0-.086-.569c-.006-.006-.025.053-.104.323a24.522 24.522 0 0 1-.142.472c-.031.102-.04.12-.072.14-.045.027-.086.028-.12.002-.023-.018-.089-.177-.116-.283-.01-.04-.18-.556-.197-.602-.007-.018-.016-.032-.02-.032-.01 0-.025.134-.076.629a6.87 6.87 0 0 1-.033.294c-.004.01-.032.014-.087.014H0zm1.995.049a.652.652 0 0 1-.443-.28.634.634 0 0 1-.006-.621c.034-.057.13-.162.15-.162.008 0 .014-.004.014-.01 0-.015.103-.066.188-.092a.926.926 0 0 1 .203-.031l.123-.007v.152h-.06a.768.768 0 0 0-.274.05.492.492 0 0 0-.242.273l-.007.03.294.004.295.003.003.071a.41.41 0 0 1 0 .074c-.002 0-.135.005-.295.008l-.291.007.003.051c.007.1.116.237.237.297.074.036.082.037.211.037h.135l.004.062a.226.226 0 0 1-.004.076c-.01.016-.153.021-.238.008zm.715-.01a8.634 8.634 0 0 1-.012-.443c-.004-.238-.01-.47-.013-.515l-.006-.083H2.39V7.5h.083l.38-.007.299-.007.007.037c.004.02.008.055.008.076v.038H3.02c-.131 0-.148.003-.152.02-.003.011-.002.25 0 .532l.006.511H2.8c-.042 0-.078-.004-.082-.01zm2.062-.014a.695.695 0 0 1-.422-.268.624.624 0 0 1-.039-.627c.027-.051.188-.224.21-.224a.447.447 0 0 1 .115-.064c.064-.028.09-.032.216-.036a.482.482 0 0 1 .234.027.597.597 0 0 1 .428.594.562.562 0 0 1-.183.424.637.637 0 0 1-.559.174zm.304-.182a.534.534 0 0 0 .226-.217c.029-.054.034-.078.038-.18a.421.421 0 0 0-.02-.194.587.587 0 0 0-.035-.088c-.116-.15-.23-.211-.4-.212a.437.437 0 0 0-.372.177.476.476 0 0 0-.086.351.46.46 0 0 0 .229.343c.09.051.152.066.255.062a.335.335 0 0 0 .166-.042zm-1.281.178a3.068 3.068 0 0 0-.063-.018.59.59 0 0 1-.374-.851.666.666 0 0 1 .26-.254.888.888 0 0 1 .355-.069l.073.003.001.072.001.071H4.02c-.173.002-.296.031-.37.088-.101.077-.18.19-.172.247.004.025.004.025.292.021l.289-.003v.147l-.06.007a4.259 4.259 0 0 1-.291.007h-.232v.039c0 .043.055.156.1.207.099.11.181.143.355.143.144 0 .145 0 .137.098l-.003.044-.126.003c-.07 0-.13 0-.137-.002zm1.944-.027a8.225 8.225 0 0 1-.009-.437c-.002-.444.002-.49.048-.583a.397.397 0 0 1 .146-.147.559.559 0 0 1 .382-.008.42.42 0 0 1 .152.133c.027.045.032.066.036.16.006.124-.01.173-.077.236a.176.176 0 0 0-.034.038c0 .003.02.018.044.033a.248.248 0 0 1 .071.074c.026.045.028.06.031.273l.004.226h-.148a1.09 1.09 0 0 1-.015-.191c-.01-.292-.024-.309-.273-.322l-.132-.007-.003-.07-.003-.07.119-.005c.098-.004.126-.01.16-.031a.197.197 0 0 0 .075-.264c-.066-.116-.296-.125-.374-.014-.048.069-.05.098-.046.55l.004.43-.076.003c-.042.002-.08-.001-.083-.007zm1.523-.002a.643.643 0 0 1-.456-.326.611.611 0 0 1-.036-.485.646.646 0 0 1 .589-.412c.324 0 .573.19.64.491.064.28-.08.559-.356.689a.676.676 0 0 1-.38.043zm.267-.164a.465.465 0 0 0 .312-.413.448.448 0 0 0-.253-.45c-.079-.04-.082-.041-.211-.04-.126 0-.135.002-.206.038a.496.496 0 0 0-.22.228A.508.508 0 0 0 7 8.3c.12.175.343.25.535.18zm1.948.14a.712.712 0 0 1-.355-.18c-.024-.021-.043-.045-.043-.054 0-.008-.004-.016-.01-.018a.354.354 0 0 1-.081-.124c-.088-.25-.049-.47.116-.642.162-.17.336-.234.55-.204a.635.635 0 0 1 .245.077.76.76 0 0 1 .236.218c.09.146.11.367.049.522a.65.65 0 0 1-.412.388.88.88 0 0 1-.295.018zm.187-.148a.52.52 0 0 0 .26-.14.435.435 0 0 0 .118-.374.433.433 0 0 0-.266-.375c-.08-.038-.093-.04-.2-.04-.106 0-.12.003-.187.037a.466.466 0 0 0-.263.345.491.491 0 0 0 .347.546.409.409 0 0 0 .191.001zm-1.15.133a.375.375 0 0 1-.23-.195c-.025-.056-.026-.068-.03-.52l-.003-.463h.148l.01.389c.004.213.014.423.02.467.011.07.018.084.06.126.055.055.085.063.239.063h.1v.149H8.7a.905.905 0 0 1-.18-.016zm2.341-.017a.624.624 0 0 1-.374-.938.75.75 0 0 1 .243-.206c.032-.033.194-.07.312-.07a.61.61 0 0 1 .425.155l.056.048-.05.06-.05.059-.03-.02a9.786 9.786 0 0 1-.099-.066.436.436 0 0 0-.262-.085.446.446 0 0 0-.347.147.433.433 0 0 0-.115.246.38.38 0 0 0 .026.229.34.34 0 0 0 .103.169c.16.154.345.187.544.097.106-.048.23-.215.23-.31V8.06h-.423v-.148h.609l-.007.11a.619.619 0 0 1-.086.299.768.768 0 0 1-.122.139.45.45 0 0 0-.061.04.565.565 0 0 1-.333.104.51.51 0 0 1-.189-.017zm1.053-.022c-.003-.01-.009-.283-.013-.605l-.008-.586.081.002c.045 0 .084.005.086.009.002.004.008.275.012.603l.009.596h-.08c-.068 0-.082-.002-.087-.019zm.958-.003a.537.537 0 0 1-.372-.168.603.603 0 0 1-.17-.43c0-.235.12-.418.345-.53a.597.597 0 0 1 .312-.07c.107 0 .108 0 .108.092v.056h-.075c-.337 0-.553.225-.509.53a.41.41 0 0 0 .324.36.99.99 0 0 0 .16.012h.111v.149h-.056a.645.645 0 0 1-.178-.001zm.426-.282l-.003-.454v-.171l.042-.086c.078-.16.186-.229.364-.229.089 0 .218.033.226.057.002.006.01.012.02.012.027 0 .116.112.14.18.037.1.047.236.048.617v.345h-.16v-.088a4.915 4.915 0 0 0-.02-.451.999.999 0 0 0-.208-.005 1.473 1.473 0 0 1-.217-.003c-.009-.006-.012-.032-.01-.076l.004-.068h.205c.113 0 .211-.003.218-.007.007-.005.009-.043.004-.106-.007-.083-.013-.106-.045-.155a.238.238 0 0 0-.08-.08.295.295 0 0 0-.227 0c-.047.023-.104.083-.104.108a.023.023 0 0 1-.014.02c-.012.004-.014.105-.012.464l.003.459h-.171zm1.38.252a.528.528 0 0 1-.206-.12c-.077-.09-.078-.1-.083-.609l-.005-.457h.156l.009.417c.01.45.016.503.072.564.044.047.077.057.216.064l.126.006.003.072.004.071-.135-.001a2.305 2.305 0 0 1-.158-.006zM5.082 6.66a16.024 16.024 0 0 1-.02-.86l-.003-.326h.158l.008.149c.004.082.01.347.013.59.005.383.003.443-.011.449a.354.354 0 0 1-.145-.002zm.6-.01c-.018-.013-.025-.029-.025-.062 0-.056.031-.08.104-.08.07 0 .095.02.095.075 0 .03-.007.048-.026.064-.033.026-.112.028-.147.003zm.59-.002c-.015-.003-.018-.06-.025-.395-.008-.397-.005-.48.022-.562a.331.331 0 0 1 .178-.217c.052-.027.073-.03.186-.031.152-.001.205.017.291.103.07.07.098.153.09.266a.252.252 0 0 1-.081.185c-.035.032-.036.033-.013.05.115.084.123.106.129.373l.005.225h-.162l-.001-.037a2.079 2.079 0 0 0-.03-.38c-.012-.038-.027-.053-.07-.075-.047-.024-.07-.027-.18-.027h-.125v-.149l.106-.002c.09-.002.113-.006.156-.031a.316.316 0 0 0 .073-.06c.065-.081.027-.226-.072-.275a.24.24 0 0 0-.323.11c-.011.02-.015.139-.015.476 0 .421 0 .45-.02.451l-.06.003a.343.343 0 0 1-.059-.001zm1.237-.002a.086.086 0 0 1-.04-.143c.024-.023.117-.023.15 0 .033.023.036.096.006.122-.024.021-.079.031-.116.021zm.925-.038a.726.726 0 0 1-.296-.186.686.686 0 0 1-.14-.285c-.025-.14.009-.354.065-.41.009-.01.016-.02.016-.025a.72.72 0 0 1 .406-.285.948.948 0 0 1 .143-.007c.34.006.61.247.636.57a.634.634 0 0 1-.144.434.702.702 0 0 1-.27.188.8.8 0 0 1-.416.006zm.284-.123a.512.512 0 0 0 .332-.268c.038-.076.04-.085.039-.197-.001-.103-.005-.124-.035-.188a.502.502 0 0 0-.232-.233c-.067-.03-.086-.033-.2-.033-.115 0-.131.002-.193.033a.508.508 0 0 0-.263.339.675.675 0 0 0 .039.279c.095.197.317.313.513.268zm.83.117a8.807 8.807 0 0 1-.006-.47c-.001-.445 0-.459.024-.515a.353.353 0 0 1 .214-.182.62.62 0 0 1 .204-.024h.13l-.003.072-.004.071-.137.007a.746.746 0 0 0-.16.019.245.245 0 0 0-.095.116c-.018.052-.017.21 0 .227.01.01.073.014.212.014h.198v.148l-.209.003-.208.003v.514l-.077.004c-.041.002-.079-.002-.082-.007zm1.533-.02a3.912 3.912 0 0 1-.008-.323c0-.174-.005-.318-.01-.32-.004 0-.005-.034-.001-.074.004-.039.005-.159.002-.267l-.006-.195.072-.009c.053-.006.075-.004.086.008.013.012.017.134.023.6l.008.586h-.08a.318.318 0 0 1-.086-.007zm.548-.166a6.536 6.536 0 0 1 .005-.737c.025-.139.105-.243.217-.285a.602.602 0 0 1 .341.003.384.384 0 0 1 .178.182c.027.058.03.077.026.152-.006.095-.027.147-.082.198l-.035.033.04.033a.244.244 0 0 0 .046.033c.003 0 .017.022.03.05.023.043.025.07.028.27l.004.223h-.16l-.004-.193c-.004-.18-.006-.196-.032-.237-.041-.066-.088-.081-.24-.08-.144.001-.137.006-.136-.095l.001-.058.107-.003c.18-.005.264-.067.264-.194 0-.094-.041-.151-.129-.18a.229.229 0 0 0-.274.091l-.037.057v.901l-.075.005-.076.005-.007-.174zm1.152.15a15.463 15.463 0 0 1-.011-.43l-.008-.422.03-.084a.392.392 0 0 1 .205-.247c.05-.025.072-.029.176-.029.108 0 .125.003.19.035.113.054.182.144.219.285.014.055.018.152.02.477l.001.409h-.154l-.006-.257a4.653 4.653 0 0 0-.011-.272c-.004-.012-.054-.015-.22-.013H13l-.003-.075-.004-.076.146-.001c.21-.002.28-.008.29-.022a.202.202 0 0 0 .002-.072c-.014-.178-.098-.272-.242-.272-.115 0-.179.04-.224.136l-.031.065.004.429.005.429-.078.005a.301.301 0 0 1-.082 0zm1.177-.026a17.759 17.759 0 0 1-.012-.552l-.007-.537.027-.04c.036-.053.078-.072.138-.063.082.013.09.024.24.315.226.443.309.6.32.611.007.008.008-.146.004-.454l-.006-.466h.17v.129c0 .07.003.324.007.563.006.321.004.441-.006.46-.017.03-.09.052-.147.041-.072-.013-.101-.044-.167-.174a66.345 66.345 0 0 0-.335-.653.965.965 0 0 0-.063-.109c-.008-.007-.01.138-.008.463l.004.474-.077.004c-.055.002-.078-.001-.082-.012zm7.546-.352a.011.011 0 1 1 .023 0 .011.011 0 0 1-.023 0zM1.319 4.922l.004-.1.061-.008a.236.236 0 0 0 .076-.02c.037-.031.043-.112.037-.458l-.007-.342h.101c.056 0 .104.004.108.01.003.005.006.181.007.391.001.436-.005.476-.078.543a.41.41 0 0 1-.245.084h-.067zm.577.093a.364.364 0 0 1-.008-.098v-.09h.094c.13 0 .174-.013.209-.065a.169.169 0 0 0 .028-.08c0-.042.015-.04-.199-.038-.089 0-.127-.003-.134-.013a1.915 1.915 0 0 1 .004-.413.218.218 0 0 1 .02-.053.305.305 0 0 0 .028-.038.377.377 0 0 1 .185-.116c.033-.01.114-.02.18-.025l.118-.007.008.079c.004.043.007.147.007.23v.151h.16v-.457h.206v.135c0 .074.004.176.008.228l.007.094h.134v-.455l.098-.004a.585.585 0 0 1 .103.002c.002.002.004.096.004.209 0 .112.005.213.01.224.009.015.023.018.064.015l.052-.004v-.221c0-.254-.012-.232.128-.232.073 0 .089.003.093.019.003.01.006.109.007.219s.005.204.009.21c.003.005.11.006.236.002l.33-.006h.1V4.36c0-.038-.007-.065-.022-.083-.02-.025-.032-.027-.18-.034-.208-.009-.254-.029-.325-.143a.375.375 0 0 1-.003-.285c.058-.107.164-.139.461-.137h.189l.003.085c.002.059-.001.088-.01.094a.785.785 0 0 1-.153.008c-.264 0-.267 0-.292.025-.028.029-.03.092-.003.125.019.022.034.025.181.03.21.006.29.033.333.112.015.028.02.074.024.215l.004.18-.029.029c-.028.029-.03.029-.215.029-.182 0-.542.005-1.318.018l-.389.007-.013.084c-.03.192-.119.275-.31.292-.128.011-.213.012-.222.003zm.326-.618a1.184 1.184 0 0 0 0-.12L2.217 4.2h-.036c-.044 0-.088.04-.088.08 0 .016-.006.035-.014.043-.01.01-.01.014 0 .014.009 0 .014.019.014.051v.051h.124zm6.951.508a.428.428 0 0 1 0-.15c.005-.015.026-.018.108-.018.132 0 .189-.025.215-.096a.207.207 0 0 0 .013-.06v-.027l-.169-.003-.168-.003V4.11l.034-.05c.078-.11.201-.16.386-.155l.117.003.005.217.006.217.068.007c.1.01.105.006.114-.063a.434.434 0 0 1 .243-.33c.04-.018.072-.04.072-.049 0-.012.022-.016.103-.016.076 0 .103.004.103.015 0 .008.028.024.062.036.035.012.063.026.063.03 0 .006.008.01.017.01.026 0 .123.106.158.174.028.052.034.08.043.198.006.075.01.145.01.155 0 .017-.048.02-.467.027a13.57 13.57 0 0 0-.528.016c-.06.007-.061.008-.062.047a.411.411 0 0 1-.059.189c-.067.106-.158.143-.35.143-.125 0-.13-.001-.137-.026zm.33-.556a.634.634 0 0 0-.002-.126c-.007-.103-.01-.115-.029-.115-.03 0-.085.03-.093.052a.645.645 0 0 0 0 .192c.012.011.116.009.123-.003zm.725-.098c0-.086-.002-.097-.02-.097-.047 0-.105.086-.105.154v.04h.125zm.32.048c0-.053-.03-.114-.069-.134-.013-.007-.026-.011-.028-.01a.964.964 0 0 0-.007.162c.001.029.005.031.053.031h.051V4.3zm2.354.422a.278.278 0 0 1-.012-.1v-.09l.043-.006c.074-.013.098-.023.12-.053.02-.027.022-.056.024-.4l.002-.37.1-.003.1-.003.001.14c.001.078.003.262.003.41l.001.268-.03.06c-.038.073-.049.084-.109.115-.053.027-.225.05-.243.032zm-7.986-.006c-.113-.025-.193-.094-.217-.185a3.181 3.181 0 0 1-.014-.308l-.003-.268h.226l.001.091c.007.38.004.345.038.377a.227.227 0 0 0 .075.043c.038.011.05.01.084-.009.051-.027.058-.041.079-.161a.473.473 0 0 1 .135-.27c.085-.09.254-.15.309-.108.02.015.022.038.028.25l.007.232.066.004.065.003v-.458h.103c.075 0 .103.004.103.014 0 .088.013.425.018.433.003.006.033.008.066.006l.059-.005.002-.22a2.35 2.35 0 0 1 .008-.225 1.07 1.07 0 0 1 .196 0c.002.001.005.1.007.22l.004.217h.125v-.446h.218l.003.293.003.294-.034.028-.034.028-.483.008c-.266.005-.515.007-.552.005l-.069-.004-.006-.167c-.005-.154-.007-.167-.027-.164-.058.009-.098.091-.098.202 0 .05-.007.072-.033.111a.369.369 0 0 1-.173.125.918.918 0 0 1-.286.014zm6.987-.103c-.004-.006-.017-.008-.03-.004-.019.005-.022 0-.022-.033l-.008-.51-.007-.471h.22l.001.288a13.895 13.895 0 0 0 .008.446l.003.089h.16v-.224c-.001-.123 0-.226.003-.229.002-.002.073-.005.158-.006.17-.003.204.008.281.081.093.089.128.2.125.396-.002.11-.004.123-.027.14-.033.028-.14.035-.528.036a4.9 4.9 0 0 0-.321.006c-.005.003-.013 0-.016-.005zm.67-.217a.525.525 0 0 0-.002-.104c-.006-.072-.012-.087-.039-.11a.113.113 0 0 0-.06-.027c-.027 0-.027 0-.027.124 0 .068.003.127.007.131a.161.161 0 0 0 .062.008c.043 0 .055-.005.06-.022zm-1.484.203c-.05-.026-.055-.053-.055-.352v-.28h.205l.003.218.004.22.032.007a.916.916 0 0 0 .23-.012.85.85 0 0 0 .01-.22v-.214l.095-.007a.315.315 0 0 1 .106.004c.007.006.013.12.016.28.003.24.001.276-.016.308-.01.02-.032.04-.047.043a4.324 4.324 0 0 1-.583.005zm-4.227-.024a13.102 13.102 0 0 1-.012-.504l-.007-.497.079-.004c.112-.006.127-.001.134.037.004.019.007.174.008.346 0 .172.004.342.008.377l.006.065h.111c.086 0 .115-.004.126-.018.011-.013.013-.066.009-.22a2.53 2.53 0 0 1 0-.216c.003-.01.035-.015.106-.015h.101l.003.226.003.226h.16L7.7 4.17l.003-.226c0-.017.013-.02.101-.02h.102l.005.219c.007.242.006.24.084.233l.054-.005c.005 0 .009-.1.008-.22-.002-.174 0-.22.013-.228a.367.367 0 0 1 .105-.01h.088v.457h.125l.003-.226.003-.225.105-.004.104-.003.006.038c.004.02.006.154.005.297-.003.253-.003.26-.029.285l-.026.026-.522.008c-.967.014-1.17.016-1.175.007zm1.992-.02l-.066-.006-.004-.08a26.42 26.42 0 0 1-.008-.503l-.004-.422.104-.004.103-.004.008.13c.004.07.007.3.007.508v.378l-.025.007a.125.125 0 0 1-.037.005 3.217 3.217 0 0 0-.078-.008zm4.584-.093c0-.053-.002-.13-.004-.17a12.05 12.05 0 0 1-.001-.742c.004-.007.048-.012.104-.012h.096l.001.043.01.408.006.366.082.003.082.003-.002-.226-.002-.226h.206l.003.226.003.227.065-.004.066-.003.003-.226.003-.226h.205l.002.089.005.191c.004.186-.005.166.068.166h.064l-.003-.226-.004-.225h.217l.007.263a2.6 2.6 0 0 1-.004.305c-.019.08.005.077-.67.085l-.607.007v-.096zm-10.55-.56c-.034-.02-.04-.033-.04-.087 0-.04.005-.052.03-.068a.147.147 0 0 1 .068-.02c.044 0 .046-.001.022-.025-.027-.027-.022-.102.008-.13.036-.033.097-.03.137.008.036.035.04.059.014.107-.017.033-.017.034.015.034.03 0 .08.025.097.05.012.018.01.073-.002.097-.019.035-.073.051-.118.036-.061-.02-.087-.106-.047-.151.018-.02.017-.02-.03-.02h-.047l.023.03c.031.038.03.075-.002.112-.03.034-.094.047-.128.027zm8.408-.034c-.032-.035-.03-.11.005-.137.038-.031.105-.029.136.005.034.036.034.098-.001.131-.036.034-.11.034-.14.001zm-3.94-.038a.089.089 0 0 1 .061-.155c.065 0 .098.031.096.092 0 .036-.008.055-.027.07a.101.101 0 0 1-.13-.007zm.662.02c-.038-.008-.065-.055-.057-.098.012-.062.034-.083.09-.083h.05l-.022-.03c-.048-.067-.005-.147.079-.147.08 0 .114.067.077.152-.007.016-.003.02.022.02.106 0 .145.129.054.176-.04.02-.098.008-.123-.025-.018-.024-.02-.087-.004-.118.01-.02.008-.022-.023-.022-.04 0-.04-.002-.017.045.016.03.016.042.005.07-.024.058-.062.075-.131.06zm5.118-.23c-.043-.01-.063-.038-.063-.087 0-.057.008-.07.05-.086.049-.018.074-.015.105.016.038.038.04.113.002.136-.033.021-.065.029-.094.022z"/></svg>