<svg viewBox="0 0 24 24" xmlns="http://www.w3.org/2000/svg" role="img"><path d="M10.932 16.873a24.13 24.13 0 0 0-.497-.025c-.238-.01-.588-.032-.779-.047l-.571-.047a19.428 19.428 0 0 1-2.1-.3 28.497 28.497 0 0 1-.91-.187 27.432 27.432 0 0 0-.272-.066 17.27 17.27 0 0 1-.919-.245c-.286-.082-.628-.2-.628-.217 0-.01.004-.016.01-.016.008 0 .171.044.356.095a40.232 40.232 0 0 0 1.05.27l.206.049c.041.01.113.025.16.034l.28.056a9.3 9.3 0 0 0 .648.114c.335.05.468.068.769.104l.375.047c.072.01.258.026.412.037.155.01.387.028.516.038.515.042 1.26.06 2.128.05.909-.011 1.294-.028 1.791-.079l.46-.047a17.652 17.652 0 0 0 1.828-.265l.272-.053c.221-.04.69-.151 1.078-.256l.206-.054c.185-.045.23-.06.544-.164a13.529 13.529 0 0 0 .92-.332c.052 0 .81-.357 1.105-.522.625-.347.99-.618 1.408-1.046.398-.408.62-.779.742-1.236.05-.187.05-.694 0-.881-.204-.77-.774-1.429-1.789-2.068a9.631 9.631 0 0 0-1.27-.651c-.225-.1-1.182-.441-1.42-.505l-.3-.084c-.11-.032-.233-.065-.272-.075l-.305-.077a11.465 11.465 0 0 0-.31-.074c-.831-.17-1.124-.224-1.5-.272a9.824 9.824 0 0 1-.328-.048 24.654 24.654 0 0 0-1.49-.149 25.464 25.464 0 0 0-2.157-.05c-1.206.017-1.675.052-2.982.219a19.692 19.692 0 0 0-.806.132c-.844.167-.857.17-1.19.252-.32.08-.331.082-.54.142l-.24.068c-.22.057-.806.249-1.087.356a12.73 12.73 0 0 0-1.509.714c-.714.411-1.291.925-1.636 1.458-.14.216-.178.294-.249.515a5.107 5.107 0 0 1-.066.197l-.026.066c-.006.015-.006-.023 0-.085.035-.357.298-.868.665-1.294.553-.64 1.324-1.15 2.606-1.721.749-.335 2.036-.73 3.122-.959l.225-.049c.041-.009.147-.03.234-.046l.3-.055a9.16 9.16 0 0 1 .516-.087c.332-.045.402-.055.59-.083a27.86 27.86 0 0 1 2.326-.197c.242-.01.512-.026.6-.038.343-.045 2.147.01 3.103.095a24.555 24.555 0 0 1 2.982.412c.041.01.142.031.225.049.985.21 1.864.463 2.672.772 2.227.852 3.508 1.949 3.76 3.22.071.363-.004.857-.193 1.266-.183.394-.692.976-1.176 1.343a9.437 9.437 0 0 1-2.044 1.136 9.51 9.51 0 0 0-.244.1c-.443.192-1.784.596-2.428.732l-.347.074a17.63 17.63 0 0 1-.328.067c-.057.01-.184.035-.282.055-.098.02-.233.044-.3.054l-.29.047a21.75 21.75 0 0 1-.44.066c-.15.021-.328.046-.395.057-.067.01-.278.031-.468.047a40.85 40.85 0 0 0-.629.057c-.445.044-.8.064-1.434.084-.54.016-1.888.02-2.044.007zm-5.866-2.691.005-.194h.544c.382 0 .567-.007.623-.024a.494.494 0 0 0 .296-.257c.053-.107.057-.126.062-.38l.006-.267h-.74c-.573 0-.745-.005-.756-.023a15.87 15.87 0 0 1-.011-.943c.004-.823.007-.928.037-1.011a.779.779 0 0 1 .336-.359l.11-.055h.825c.867 0 .885.002 1.047.088.064.034.22.188.25.248.06.114.08.327.08.846 0 .37.007.514.023.53.017.017.189.023.657.023h.634l-.005.323-.005.324-.635.003c-.507.002-.639.008-.651.028a1.845 1.845 0 0 0-.017.319c0 .343-.029.5-.118.65a.727.727 0 0 1-.325.27c-.09.041-.102.042-1.184.048l-1.093.007zm1.48-1.705c.107-.076.11-.098.11-.668v-.522l-.057-.07c-.102-.123-.271-.11-.355.028-.035.058-.038.096-.038.57 0 .563.006.596.12.665.076.047.152.046.22-.003zm-4.062 1.858c-.363-.014-.43-.028-.634-.136a.69.69 0 0 1-.281-.286.74.74 0 0 1-.11-.422c-.006-.402.178-.857.615-1.52.183-.278.095-.252.823-.245l.627.006-.004-.925c-.004-.976.002-1.063.083-1.222a.744.744 0 0 1 .311-.29c.098-.045.135-.05.417-.06a2.2 2.2 0 0 1 .342.004c.03.014.033.075.037.788.003.425 0 1.444-.004 2.264-.009 1.373-.012 1.498-.043 1.585a.74.74 0 0 1-.422.423c-.14.042-1.066.061-1.757.035zm1.4-.127c.212-.105.313-.214.39-.422.184-.492-.027-1.119-.642-1.903-.05-.064-.103-.117-.117-.117-.027 0-.234.268-.368.478-.322.503-.423.758-.442 1.12a.75.75 0 0 0 .039.358.746.746 0 0 0 .811.552c.19-.006.22-.012.329-.066zm5.191.122c0-.017.028-.039.065-.05.077-.026.168-.125.223-.243l.04-.086.01-2.12.008-2.118.05-.105a.614.614 0 0 1 .298-.298l.121-.066.306-.006c.169-.003.326-.001.35.005l.045.011.002 2.193c.002 1.92-.002 2.21-.027 2.319-.07.3-.259.496-.532.552a5.89 5.89 0 0 1-.523.03c-.39.01-.436.01-.436-.017zm1.52.005c0-.01.006-.019.015-.019a.511.511 0 0 0 .105-.06.36.36 0 0 0 .144-.173l.054-.114v-1.334c0-1.445.006-1.54.1-1.689a.723.723 0 0 1 .453-.304c.079-.015.367-.02.966-.016l.853.006.005.295c.003.163.003.297 0 .3-.003.002-.271.009-.596.014l-.59.01-.01 1.275a27.432 27.432 0 0 1-.026 1.312l-.053.12a.823.823 0 0 1-.265.297c-.122.077-.28.099-.739.099-.265 0-.417-.006-.417-.019zm2.683.003a.397.397 0 0 1 .1-.083.618.618 0 0 0 .236-.317c.014-.052.021-.73.024-2.132l.003-2.056.045-.112a.668.668 0 0 1 .33-.338c.112-.055.114-.056.45-.056h.337l.01 2.147c.008 2.017.003 2.374-.036 2.466-.061.146-.081.182-.137.245a.671.671 0 0 1-.374.215c-.179.03-.998.048-.989.021zm-.659-.467a.634.634 0 0 1-.324-.344c-.086-.28.015-.536.273-.69.038-.024.07-.049.07-.056 0-.007-.03-.024-.067-.038a.48.48 0 0 1-.234-.21.87.87 0 0 1-.057-.21.452.452 0 0 1 .01-.244.616.616 0 0 1 .227-.317.534.534 0 0 1 .442-.039c.174.077.277.214.322.427a.588.588 0 0 1-.214.554.323.323 0 0 1-.103.056c-.014 0-.026.013-.026.028 0 .016.007.028.016.028.037 0 .175.11.226.179a.706.706 0 0 1 .115.344c0 .13-.058.281-.144.377a.503.503 0 0 1-.531.156zM0 11.851c0-.04.006-.05.021-.034.015.015.015.03 0 .055-.017.03-.02.028-.02-.02zm8.429-.134a.485.485 0 0 1-.273-.26c-.057-.115-.059-.129-.052-.305.006-.159.014-.196.058-.271a.635.635 0 0 1 .117-.142.642.642 0 0 1 .326-.117c.104 0 .242.057.318.13.115.112.161.227.169.418.006.141 0 .176-.04.262a.508.508 0 0 1-.624.285z"/></svg>