<svg role="img" viewBox="0 0 24 24" xmlns="http://www.w3.org/2000/svg"><path d="M0 12V9.462h24v5.076H0zm13.292 0V9.738H.185v4.524h13.107zm-12.554.005v-1.897h.835l-.025 1.869-.025 1.87-.392.028-.393.028zm1.636 1.83c-.037-.036-.066-.864-.066-1.84 0-2.037-.079-1.884.969-1.886 1.136-.001 1.661.339 1.661 1.075 0 .346-.046.457-.276.663-.262.233-.268.255-.12.404.141.14.315.629.496 1.393l.062.26-.45-.03-.448-.028-.157-.584c-.19-.706-.296-.847-.637-.847h-.262l-.027.716-.027.715-.326.028c-.18.015-.356-.003-.392-.039zm1.509-2.161c.123-.066.179-.194.179-.412 0-.36-.187-.508-.64-.508-.282 0-.284.003-.284.508s.002.507.283.507c.156 0 .364-.043.462-.095zm1.535 2.154c-.055-.091.996-3.525 1.116-3.645.047-.047.307-.073.577-.058l.49.029.574 1.83c.425 1.357.543 1.842.455 1.875-.065.025-.275.032-.467.016-.33-.027-.357-.053-.494-.49l-.146-.462h-1l-.146.462c-.142.448-.157.462-.53.49-.211.014-.404-.006-.429-.047zm1.924-1.759a6.417 6.417 0 0 1-.164-.6c-.056-.24-.13-.438-.163-.438s-.106.197-.162.438c-.056.241-.13.511-.164.6-.054.138-.006.162.326.162.333 0 .38-.024.327-.162zm1.955 1.766c-.037-.036-.066-.89-.066-1.897v-1.83h1.001l.596 1.084c.328.597.619 1.147.646 1.223.028.077.053-.412.057-1.084l.007-1.223h.739v3.784h-.412c-.41 0-.412-.001-.773-.623a28.13 28.13 0 0 1-.698-1.292c-.184-.368-.345-.67-.357-.67-.012 0-.022.572-.022 1.27v1.27l-.326.027c-.18.015-.356-.003-.393-.039zm5.648-.497.118-.461h1.072l.111.461.11.462h.453c.249 0 .453-.01.453-.023s-.245-.812-.544-1.777l-.544-1.754-.555-.027-.556-.027-.095.304-.475 1.55c-.21.686-.417 1.36-.463 1.5-.082.253-.08.254.357.254h.44zm.288-1.176c0-.039.077-.36.17-.716l.167-.646.158.554c.088.304.18.626.207.715.039.135-.015.162-.329.162-.206 0-.374-.031-.373-.07zm3.413.946v-.693h.266c.337 0 .452.142.648.805l.158.534.427.028.428.028-.187-.674c-.103-.371-.267-.756-.363-.856-.173-.179-.172-.185.056-.37.452-.366.45-1.19-.003-1.488-.358-.234-.962-.332-1.638-.265l-.623.062V13.8h.831zm0-1.846v-.508h.364c.364 0 .652.233.652.528 0 .231-.364.487-.693.487h-.323zm3.97 1.061v-1.477h1.014V10.2h-2.769v.646h.923V13.8h.83z"/></svg>