<svg role="img" viewBox="0 0 24 24" xmlns="http://www.w3.org/2000/svg"><path d="M11.21 23.905a6.708 6.708 0 0 1-.147-.296c-.248-.523-1.049-1.871-1.348-2.267-.303-.4-.788-.897-1.34-1.374-.613-.526-.76-.627-1.737-1.186-1.539-.881-1.49-.848-1.52-1.05-.015-.098-.02-1.356-.013-2.797.014-2.561.016-2.621.101-2.682.048-.035.516-.309 1.042-.609.525-.3 1.505-.866 2.178-1.256a48.12 48.12 0 0 1 1.246-.71c.012 0 .028 1.07.035 2.376l.013 2.376.117.294c.276.689.783 1.152 1.51 1.38l.239.074v7.8l-.16.014c-.13.01-.17-.006-.216-.087zm1.222-3.828v-3.923l.163-.03c.314-.057.77-.314 1.06-.598.476-.463.684-1.03.686-1.862v-.419l.163-.096a3150.716 3150.716 0 0 0 1.682-.976l.98-.564c1.165-.667 1.514-.96 1.673-1.405.046-.13.056.504.058 3.757l.002 3.914-.12.083c-.1.07-1.494.882-2.015 1.174-.337.189-.512.315-.971.701-.434.365-1.191 1.072-1.191 1.113 0 .009-.114.158-.253.331-.296.367-1.039 1.604-1.36 2.264l-.222.459h-.335zm-1.9-8.021l.012-2.4.122-.247c.178-.363.462-.588 1.462-1.162 2.621-1.5 5.072-2.934 5.188-3.034.385-.33.713-.9.808-1.4.039-.203.08-.304.143-.344.274-.173.585-.333.607-.311.013.013.024 1.237.024 2.719 0 2.959-.003 2.989-.264 3.505-.276.548-.484.709-2.107 1.633-.505.288-1.17.668-1.476.846-.902.523-2.012 1.161-2.315 1.333-.155.087-.634.365-1.063.616a33.6 33.6 0 0 1-.968.55l-.186.096zM5.14 8.913c0-1.643.014-2.335.052-2.463.12-.416.387-.703.968-1.042.634-.37 2.662-1.54 3.038-1.753.19-.109.503-.29.694-.403.191-.113.446-.261.566-.33l.756-.427c.296-.167.64-.397.765-.51.402-.366.7-.917.779-1.434.03-.199.04-.212.326-.378.162-.095.316-.173.342-.173.033 0 .046.79.046 2.658-.001 2.936-.008 3.022-.268 3.516-.232.443-.57.736-1.382 1.201-.393.225-.87.501-1.062.613-.19.111-.552.32-.803.463-.25.143-.7.402-.998.575-.664.386-.78.453-.987.57-.09.05-.215.13-.278.174a.593.593 0 0 1-.14.082c-.013 0-.118.056-.234.124a175.619 175.619 0 0 0-1.942 1.12 1.046 1.046 0 0 1-.206.1c-.017 0-.032-1.027-.032-2.283z"/></svg>