<svg role="img" viewBox="0 0 24 24" xmlns="http://www.w3.org/2000/svg"><path d="M12.976 23.937c-.03-.144-.017-1.455.018-1.716.057-.428.125-.688.241-.93.093-.194.128-.243.297-.419.105-.11.239-.23.297-.269.132-.087.226-.222.227-.322 0-.018.014-.06.03-.092.033-.062.065-.276.118-.78a5.46 5.46 0 0 1 .15-.825c.025-.077.09-.122.109-.075.01.017 0 .21-.01.43-.021.46-.01.528.087.528.069 0 .144-.05.144-.096 0-.1.297-.493.417-.552.093-.046.123-.038.23.062.107.102.092.117-.144.143a.784.784 0 0 0-.171.04c-.121.062-.154.208-.066.295.088.088.202.054.38-.112.095-.09.163-.122.163-.076 0 .01-.032.084-.072.163-.131.262-.331.48-.53.582-.08.04-.148.054-.352.072-.281.024-.304.037-.281.159.015.08.059.12.15.138.122.024.135.031.176.098.056.091.05.133-.032.291-.109.207-.177.255-.465.33-.357.092-.576.207-.698.367-.132.174-.175.413-.235 1.304-.08 1.179-.088 1.26-.137 1.31-.025.025-.031.019-.045-.048zm-8.908-1.262c-.082-.056-.168-.18-.153-.22.024-.063.221-.282.254-.283.054 0 .212.155.212.21 0 .047-.18.312-.223.329a.209.209 0 0 1-.09-.036zm.52-.101c-.09-.048-.128-.087-.128-.134 0-.043.161-.334.197-.356.023-.014.121.033.213.101.044.033.064.064.064.1 0 .061-.102.227-.173.283-.06.047-.094.048-.173.01zm-3.041-.735c-.142-.065-.24-.232-.29-.496-.04-.213.02-.558.162-.924.055-.142.142-.264.17-.237.01.01-.023.108-.064.226-.128.372-.116.607.041.793.124.146.382.214.625.163.236-.049.513-.226.676-.433.143-.183.153-.226.192-.793.023-.344.063-.565.108-.61.028-.029.034-.028.06.01.06.08.02.76-.064 1.087-.036.14-.175.441-.265.576-.18.266-.41.496-.586.586-.176.09-.618.121-.766.054zm1.74-.073c-.017-.045.01-.083.15-.217.076-.073.188-.154.289-.206.188-.098.213-.126.37-.425.18-.343.24-.404.398-.405.117 0 .168-.038.216-.158.056-.14.095-.156.081-.034-.014.12-.13.348-.193.379a5.709 5.709 0 0 1-.146.07c-.117.058-.194.152-.375.458-.15.253-.275.39-.455.498-.094.056-.138.07-.22.07-.075 0-.106-.01-.115-.03zm2.289-.1c-.428-.087-.524-.166-.524-.43 0-.147.048-.418.081-.458.031-.037.045-.025.106.1.11.226.321.281.998.26.646-.018 1.109-.093 1.51-.242.131-.048.269-.113.307-.143.131-.104.157-.099.158.032 0 .051.01.069.05.084.1.038.378-.064.461-.17.038-.047.039-.056.012-.107a.214.214 0 0 0-.049-.068.3.3 0 0 1-.051-.072c-.029-.057-.029-.062.012-.107.054-.057.255-.127.365-.127.06 0 .093.012.122.044.09.1.11.214.053.302-.018.027-.026.055-.02.062.022.021.216-.083.34-.183l.14-.112a.392.392 0 0 1 .119-.032c.087-.012.1-.022.159-.112.129-.199.238-.26.338-.19a.215.215 0 0 0 .089.042c.017 0 .164-.125.328-.277.342-.319.394-.355.508-.355.153 0 .224.064.223.203 0 .149-.187.467-.363.619-.134.117-.484.288-.61.299-.137.01-.264-.025-.336-.097-.072-.072-.104-.067-.25.043a.823.823 0 0 1-.213.11.682.682 0 0 0-.188.098c-.18.144-.226.163-.457.184-.206.019-.221.023-.328.098-.206.146-.303.168-.434.101-.102-.052-.145-.04-.342.095-.451.309-1.091.466-2.057.504h-.256zm5.184-1.579c.147-.043.367-.16.415-.222.022-.028.037-.069.034-.09-.01-.054-.135-.097-.25-.085-.07.01-.104.027-.184.105-.109.107-.233.267-.233.301 0 .031.093.027.218-.01zm5.766 1.527c-.108-.055-.159-.185-.16-.405 0-.14.09-1.042.118-1.185.01-.05.033-.22.05-.374.037-.337.094-.522.15-.488.032.02.02.287-.022.522a4.74 4.74 0 0 0-.052.484c-.01.226-.01.253.018.227a136.42 136.42 0 0 0 1.212-1.356 3.44 3.44 0 0 0 .206-.266c.179-.268.275-.355.275-.25 0 .169-.42.729-1.086 1.448-.204.22-.31.357-.292.376.01.01.21.036.452.068.243.032.53.072.64.09.18.029.222.029.503 0 .82-.085 1.318-.211 1.957-.493.36-.159.834-.476 1.11-.74.265-.256.407-.463.587-.859.09-.2.137-.257.176-.218.031.031-.044.3-.144.509-.145.305-.41.663-.698.944a7 7 0 0 1-.685.556c-.484.321-.628.394-.99.5-.13.04-.27.088-.31.108-.092.047-.481.124-.835.166-.268.03-.912.044-1.003.02-.024-.01-.144-.044-.266-.084-.268-.087-.267-.087-.322.15-.047.202-.11.325-.22.43-.132.13-.266.173-.37.12zm.386-.561c.147-.046.185-.086.185-.194a.188.188 0 0 0-.058-.153c-.057-.064-.06-.064-.237-.064-.226 0-.242.013-.246.201 0 .188.032.244.159.244.05 0 .139-.015.197-.033zm-4.702.532c-.196-.02-.277-.068-.345-.202-.045-.088-.053-.218-.088-1.353-.017-.555-.018-.818 0-.836a.444.444 0 0 1 .1-.069c.074-.04.109-.043.436-.043.429 0 .467.011.487.148.02.134.018 1.39 0 1.73-.02.33-.049.433-.14.51-.09.076-.3.13-.443.115zm-.017-.566a.707.707 0 0 0 .305-.272 1.17 1.17 0 0 0 .097-.456c0-.222-.071-.33-.219-.33-.146 0-.255.17-.255.399 0 .079.01.156.017.17.01.014.068.037.132.049.063.013.118.034.122.047 0 .013-.086.101-.2.196-.115.095-.21.179-.21.187 0 .018.06.056.09.056a.64.64 0 0 0 .121-.047zm2.94.405c-.056-.063-.06-.204-.012-.406.049-.208.194-.524.26-.57.104-.074.272-.012.327.12.088.211-.075.73-.264.84a.517.517 0 0 1-.168.047c-.089.01-.11 0-.142-.03zm.285-.309c.074-.038.121-.098.107-.135-.017-.045-.111-.091-.184-.091-.071 0-.1.044-.1.152 0 .124.043.142.177.074zm5.963.055a2.735 2.735 0 0 1-.02-.718 4.86 4.86 0 0 1 .209-.63c.028-.044.029-.011.02.376-.018.739-.128 1.247-.21.972zm.73-.262c-.046-.028.015-.108.201-.267.216-.183.231-.265.076-.416-.151-.147-.164-.232-.065-.432.06-.12.1-.168.142-.168.052 0 .213.152.257.243.038.08.04.1.022.291-.023.242-.04.308-.108.424-.115.196-.424.387-.525.325zm-19.902-.271c-.132-.066-.149-.081-.154-.135a.55.55 0 0 1 .124-.323c.04-.038.063-.044.142-.035.077.01.107.024.169.09.04.045.075.1.075.125 0 .032-.187.352-.205.352 0 0-.07-.033-.15-.074zm1.529-.354c-.02-.133 0-.492.049-.757.04-.235.143-.583.19-.645.024-.032.027-.023.028.075 0 .434-.102 1.197-.187 1.36-.043.083-.064.074-.08-.033zm1.44-.135c-.048-.125.151-1.328.243-1.468.05-.077.063-.015.044.215-.06.718-.222 1.425-.288 1.253zm1.404-.059c-.109-.039-.148-.09-.134-.183.016-.11.114-.313.17-.35.045-.028.057-.028.106 0a.913.913 0 0 1 .144.107l.088.078-.09.137c-.05.075-.105.16-.123.19-.037.061-.05.063-.16.024zm.563-.147c-.114-.06-.144-.105-.129-.194a1.13 1.13 0 0 1 .076-.203c.078-.156.115-.166.27-.073.135.08.144.12.057.258-.08.13-.174.25-.191.25a.399.399 0 0 1-.082-.037zm10.336-.732c-.027-.043.439-.602.474-.569.023.022-.04.119-.195.298-.082.095-.163.2-.18.232-.03.06-.075.077-.099.04zm1.457 0c-.064-.032-.057-.11.024-.271.07-.139.146-.219.209-.219.019 0 .072.031.117.069.045.038.09.069.1.069.02 0 .118-.115.118-.138a.26.26 0 0 1 .05-.078c.132-.156.34.015.282.23-.022.08-.192.262-.246.262-.017 0-.058-.022-.09-.05-.087-.072-.152-.063-.278.04-.117.097-.21.124-.286.085zm-9.481-.15a.27.27 0 0 1-.088-.067c-.028-.046.03-.223.112-.346.059-.087.07-.095.139-.093.102 0 .218.097.226.183.01.07-.056.193-.15.295-.069.072-.137.08-.24.028zm2.662-.249c-.333-.119-.598-.553-.727-1.189a4.023 4.023 0 0 1-.06-.985c.01-.13.019-.256.019-.278 0-.036-.018-.044-.143-.066a6.203 6.203 0 0 1-.688-.176l-.111-.038-.085.187a3.72 3.72 0 0 1-.685 1.033c-.208.22-.369.349-.562.453-.358.193-.618.19-.818-.01-.151-.15-.196-.296-.193-.632 0-.279.028-.432.128-.74.11-.338.352-.79.619-1.157.014-.019-.014-.055-.109-.138a7.549 7.549 0 0 1-.326-.318c-.18-.186-.202-.203-.227-.173-.053.064-.501.346-.717.451-.912.444-1.761.427-1.939-.038-.044-.115-.03-.355.03-.507.193-.495.863-1.095 1.561-1.397.082-.035.155-.07.162-.077.01-.01-.016-.101-.053-.21a6.942 6.942 0 0 1-.176-.647l-.012-.055-.133.015c-.247.028-.946.017-1.14-.02-.403-.074-.743-.205-.987-.378-.29-.207-.386-.486-.257-.741.153-.302.617-.551 1.244-.667.19-.035.894-.048 1.126-.02l.12.014.045-.226a6.08 6.08 0 0 1 .103-.423l.062-.217a.782.782 0 0 0-.212-.115c-.578-.253-1.14-.696-1.425-1.123-.152-.228-.213-.4-.213-.6 0-.172.042-.27.159-.374.417-.365 1.5-.145 2.375.484.098.07.185.127.194.127.01 0 .05-.046.095-.102a5.19 5.19 0 0 1 .302-.325c.147-.147.218-.233.208-.249a6.147 6.147 0 0 0-.122-.163 3.796 3.796 0 0 1-.636-1.352c-.05-.22-.07-.55-.041-.701a1.08 1.08 0 0 1 .086-.246c.39-.773 1.674.098 2.244 1.524.032.08.17.397.306.706.149.336.24.566.227.57-.09.03-.574.291-.715.386a3.895 3.895 0 0 0-1.591 2.253c-.091.354-.11.516-.11.957.001.44.019.595.11.957.132.517.41 1.068.749 1.482.151.185.488.508.67.644.53.393 1.128.64 1.78.737.267.039.808.04 1.08 0a3.777 3.777 0 0 0 2.142-1.054c.366-.356.564-.628.785-1.078a3.67 3.67 0 0 0 .393-1.701 3.857 3.857 0 0 0-1.816-3.266c-.174-.108-.624-.334-.665-.334-.013 0-.028-.01-.035-.018-.018-.029.413-1.207.583-1.593.087-.196.197-.427.246-.512.251-.441.66-.826 1.049-.988a.67.67 0 0 1 .324-.057c.176 0 .195 0 .286.059a.674.674 0 0 1 .25.355c.015.047.025.19.024.355a1.65 1.65 0 0 1-.054.488 3.826 3.826 0 0 1-.65 1.343l-.098.133.066.053c.036.03.174.16.307.29l.242.238.054-.043c.03-.024.152-.11.272-.19.866-.588 1.88-.773 2.277-.416.132.118.168.214.157.417-.011.195-.064.334-.216.56-.278.416-.84.86-1.4 1.107a8.257 8.257 0 0 0-.19.085s.031.105.075.23c.044.124.106.323.137.443l.056.217.144-.01c.08-.01.336-.01.569-.01.355 0 .46.01.642.044.839.167 1.336.566 1.234.99-.083.346-.527.627-1.224.775-.18.038-.27.044-.672.045-.255 0-.501-.01-.547-.014-.077-.014-.084-.011-.092.03-.074.388-.12.592-.164.733a.975.975 0 0 0-.045.176l.167.071c.875.36 1.666 1.17 1.668 1.708 0 .175-.034.265-.147.378-.144.144-.313.197-.623.195-.125 0-.28-.012-.345-.026a3.827 3.827 0 0 1-1.424-.632l-.16-.115-.097.12a6.243 6.243 0 0 1-.346.368l-.249.247.125.174c.566.787.81 1.774.562 2.263a.6.6 0 0 1-.308.258c-.126.035-.317.013-.48-.056-.497-.209-1.077-.86-1.376-1.544a3.549 3.549 0 0 0-.078-.173s-.066.018-.14.046c-.076.028-.27.086-.433.128l-.296.076.01.134c.022.297.01.903-.027 1.092-.074.416-.214.778-.394 1.02-.18.243-.436.352-.648.276zm7.118-.237c-.08-.08-.087-.152-.03-.267.105-.204.21-.25.32-.141.031.032.057.072.057.089 0 .054-.155.344-.196.365-.059.032-.079.026-.151-.047zm1.748-.048c-.06-.06-.078-.093-.077-.144a.58.58 0 0 1 .112-.279c.097-.107.336.062.292.206a.852.852 0 0 1-.208.273c-.035.018-.051.01-.118-.056zm-9.279-3.754c-.114-.017-.174-.05-.187-.105-.017-.076-.086-1.391-.148-2.858a180.643 180.643 0 0 0-.238-4.215c-.04-.55-.088-.86-.153-.987a2.24 2.24 0 0 0-.136-.203l-.106-.143h.756c.415 0 1.013.01 1.328.013l.573.013-.103.2c-.126.245-.137.308-.164.91a289.15 289.15 0 0 0-.119 3.682c-.01.461-.029.968-.039 1.125-.01.158-.033.606-.049.997a92.867 92.867 0 0 1-.069 1.428c0 .103-.306.163-.8.159-.141 0-.296-.01-.345-.015zm.476-2.769c.013-.024.03-.19.039-.37.022-.444.083-2.746.108-4.084l.013-.676h-.38v.736c.001.957.074 3.722.112 4.21.017.216.056.282.108.184zm-1.74-6.014a.206.206 0 0 1-.072-.137c-.01-.076 0-.09.058-.153l.07-.07h3.162l.064.058c.055.05.064.07.064.15 0 .079-.01.1-.064.15l-.064.057h-3.158zm-.367-.644c-.097-.097-.089-.225.02-.313.038-.032.174-.034 1.996-.034 1.823 0 1.958 0 1.997.034.108.088.116.216.019.313l-.067.067h-3.898zM9.8 4.76a.212.212 0 0 1-.068-.338l.058-.058h2.277c2.127.001 2.28 0 2.319.035.103.083.115.209.029.305l-.058.064h-2.258c-1.241 0-2.276 0-2.299-.013zm.09-.663a.744.744 0 0 1-.126-.376 1.437 1.437 0 0 1 .06-.514c.066-.197.323-.54.728-.975.383-.412.459-.559.44-.86-.013-.212-.06-.31-.231-.491-.216-.228-.184-.248.124-.078.274.152.406.244.57.399.278.262.41.54.459.97.024.21.054.376.07.385.01.01.063-.03.122-.079a7.43 7.43 0 0 1 .874-.59c.437-.24.693-.489.8-.775.127-.335.094-.613-.108-.915-.11-.167-.124-.198-.088-.198.033 0 .334.31.48.494.267.339.352.773.238 1.224-.04.157-.166.424-.313.66a.683.683 0 0 0-.098.192c.021.034.176-.074.368-.258.218-.208.362-.388.451-.564.053-.106.06-.136.057-.277V1.28c0-.055.054-.04.115.034.143.173.18.495.082.704-.073.155-.21.354-.483.699-.267.337-.334.437-.424.63-.091.194-.09.322.01.536.097.217.1.247.026.27-.036.013-.848.024-2.096.029l-2.037.01-.064-.093z"/></svg>