<svg role="img" viewBox="0 0 24 24" xmlns="http://www.w3.org/2000/svg"><path d="M11.095 0a3.687 3.687 0 0 0-3.687 3.687 3.687 3.687 0 0 0 3.687 3.687 3.687 3.687 0 0 0 3.687-3.687A3.687 3.687 0 0 0 11.095 0zm-.134 8.313v3.017c3.218.268 5.229 1.542 7.508 4.357.335-.201 2.48-1.542 2.615-1.676-2.414-3.754-5.564-5.564-10.123-5.698zm-.11 4.043c-3.772.002-7.322 2.828-7.935 6.75h.067c.67.201 2.749.402 3.017.47 1.006-2.883 3.15-4.157 5.095-4.09 1.542 0 3.218 1.207 4.09 2.346l2.48-1.542c-1.886-2.775-4.395-3.935-6.813-3.934zm-.024 4.27a3.687 3.687 0 0 0-3.687 3.687A3.687 3.687 0 0 0 10.827 24a3.687 3.687 0 0 0 3.687-3.687 3.687 3.687 0 0 0-3.687-3.687z"/></svg>