<svg role="img" viewBox="0 0 24 24" xmlns="http://www.w3.org/2000/svg"><path d="M2.284 4.89h5.482l-3.437 14.2s-.701 2.573.691 3.398C1.295 20.741-.567 18.207.153 14.434c.72-3.773 2.13-9.543 2.13-9.543zm16.57 0H24l-2.237 10.09s-.864 4.801-8.535 7.508a4.8 4.8 0 0 0 2.285-3.158c.701-2.448 3.341-14.44 3.341-14.44zM14.4.657S6.287 5.832 6.46 13.982a15.572 15.572 0 0 0 2.784 9.36S1.92 11.007 16.147 5.17C15.619 3.441 14.4.657 14.4.657zm-1.172 6.72l3.092-1.612s3.619 9.514-6.625 17.491c-.038 0 8.9-7.037 3.533-15.879z"/></svg>