<svg viewBox="0 0 24 24" xmlns="http://www.w3.org/2000/svg" role="img"><path d="M1.972 23.975c-.014-.013-.025-.988-.025-2.166v-2.141l-.096-.011c-.07-.008-.102-.038-.122-.112-.05-.19-.025-.202.416-.202.39 0 .405.003.424.08.01.044.015 1.087.01 2.319l-.01 2.238-.286.01c-.157.006-.297 0-.311-.015zm1.164-.022a45.82 45.82 0 0 1-.026-1.678l-.009-1.635-.142-.018c-.139-.017-.142-.02-.142-.16v-.142l.44-.01c.279-.006.456.004.485.03.035.028.086.017.2-.043.144-.076.197-.082.8-.082.602-.001.653.004.746.074.113.084.148.186.08.229-.026.016-.31.03-.631.032-.647.004-.79.038-.969.237-.202.224-.21.283-.21 1.752 0 .74-.01 1.372-.02 1.403-.018.044-.08.056-.304.056-.193 0-.287-.014-.298-.045zm3.59.02c-.312-.044-.592-.133-.782-.25-.243-.148-.269-.175-.399-.418-.083-.156-.095-.219-.096-.515 0-.285.013-.365.085-.515.255-.531 1.05-.874 1.796-.775.205.027.213.032.224.14.012.125-.043.154-.303.154-.502.002-.955.249-1.108.604-.144.336-.07.757.174.99.173.166.384.221.929.244l.485.02.024-.404c.014-.223.02-.86.013-1.418-.01-.874-.02-1.027-.073-1.123a.349.349 0 0 0-.118-.134c-.032-.012-.366-.022-.743-.022-.583 0-.693-.008-.733-.056-.07-.084-.002-.165.201-.237.147-.053.273-.061.797-.052.555.01.637.02.764.087a.89.89 0 0 1 .412.4c.085.16.085.162.096 1.553l.011 1.392.096.011c.088.01.095.024.095.171v.16l-.87.004a19.18 19.18 0 0 1-.977-.011zm2.209 0c-.013-.012-.024-.78-.024-1.706 0-1.846.015-1.722-.209-1.73-.083-.003-.094-.02-.104-.153-.01-.143-.006-.15.107-.17.064-.012.269-.017.455-.011.313.01.34.016.373.093.039.09.07.089.337-.014.115-.045.264-.062.533-.062.426 0 .646.065.967.286.215.148.283.22.393.418.078.14.08.168.09 1.608l.01 1.465h-.643v-1.359c0-.8-.015-1.412-.036-1.487a.87.87 0 0 0-.348-.473c-.124-.088-.195-.11-.393-.12-.404-.024-.684.154-.823.52-.065.172-.07.279-.07 1.552v1.367h-.296c-.163 0-.307-.01-.32-.023zm4.051.002c-.013-.014-.025-.988-.025-2.165 0-2.093-.002-2.14-.07-2.158-.074-.019-.128-.168-.094-.257.017-.046.086-.053.403-.045l.382.01.218.533a101.398 101.398 0 0 0 .44 1.066 44.823 44.823 0 0 0 .388.915c.07.168.12.209.157.124l.61-1.483c.122-.298.329-.795.469-1.128.013-.03.112-.044.317-.044h.298l-.009 2.318-.009 2.318-.293.01-.293.01v-1.678c0-.963-.013-1.664-.03-1.644a1.38 1.38 0 0 0-.11.246c-.043.117-.09.23-.106.249-.016.02-.07.14-.12.267-.05.127-.166.399-.258.604a25.33 25.33 0 0 0-.289.675c-.067.166-.146.34-.176.385-.053.082-.055.083-.103.014a1.721 1.721 0 0 1-.123-.258 9.54 9.54 0 0 0-.14-.334 171.723 171.723 0 0 1-.738-1.699c-.031-.073-.066-.133-.077-.133-.012 0-.022.74-.022 1.643v1.643l-.285.01c-.158.007-.298 0-.311-.014zm5.358 0c-.514-.1-.64-.142-.845-.277a1.054 1.054 0 0 1-.327-.32c-.103-.168-.107-.191-.107-.586 0-.353.01-.432.076-.554.193-.358.622-.621 1.166-.715.542-.093.97 0 .852.188-.04.063-.046.065-.43.097-.463.04-.822.234-.98.531-.062.117-.079.208-.08.438 0 .266.009.303.108.443.227.324.578.44 1.26.415l.302-.011.009-1.392c.009-1.36.008-1.395-.066-1.519a3.583 3.583 0 0 0-.08-.133 26.811 26.811 0 0 0-.752-.026l-.746-.021-.011-.099c-.01-.084.008-.107.124-.16.114-.05.248-.061.811-.061.659 0 .68.002.853.093.201.105.388.325.442.52.023.081.037.66.037 1.474v1.342h.088c.11 0 .174.111.143.25l-.023.105-.877-.004c-.482-.002-.908-.01-.947-.018zm2.175 0c-.014-.014-.025-.989-.025-2.167v-2.14l-.098-.012c-.088-.01-.098-.025-.098-.153v-.143h.818v4.62l-.286.01c-.158.006-.297-.001-.311-.015zm1.172 0c-.013-.014-.025-.989-.025-2.167v-2.14l-.097-.012c-.089-.01-.098-.025-.098-.153v-.143h.818v4.62l-.287.01c-.157.006-.297-.001-.31-.015zm-4.298-7.28c-.969-.183-2.009-.786-3.204-1.86-.156-.14-.296-.254-.313-.254-.017 0-.181.088-.366.194-.513.296-.809.416-1.472.594-.272.073-.382.082-1.102.082-.855.001-1.073-.03-1.724-.246-.504-.167-1.228-.55-1.492-.79l-.2-.175c-.467-.402-1.004-1.121-1.284-1.72-.337-.72-.476-1.238-.575-2.149-.035-.322-.038-.327-.242-.373-1.218-.28-2.232-.766-2.85-1.368-.74-.72-.977-1.448-.752-2.311.223-.857.847-1.698 1.771-2.388.151-.112.275-.217.276-.232a1.18 1.18 0 0 0-.118-.216c-.74-1.155-.354-2.24.94-2.652.599-.19.878-.223 2.02-.24L7.79.577l.116-.101c.185-.163.422-.287.733-.383C8.91.007 8.977.002 9.692 0c.656 0 .822.01 1.173.08.698.138 1.48.378 2.035.624.177.079.257.092.569.092.2 0 .508.023.686.05 1.395.213 2.52.916 3.442 2.153.166.222.427.462.502.462.011 0 .206.14.433.31.873.656 1.65 1.524 2.015 2.246.244.485.278.623.281 1.14l.003.481.11.14c.352.448.847 1.322 1.057 1.865.329.85.38 1.577.148 2.069-.27.57-.889.915-1.641.915-.121 0-.227.012-.236.027a4.849 4.849 0 0 0-.038.506c-.027.555-.037.645-.129 1.102-.16.802-.465 1.43-.9 1.856-.538.529-1.105.71-1.808.577zm.614-1.339c.532-.16 1.067-.791 1.264-1.495.08-.28.192-.946.192-1.132v-.164l-.204-.072c-.112-.04-.356-.124-.542-.187-.422-.144-.823-.32-1.488-.652a10.666 10.666 0 0 0-.595-.284c-.067-.021-.103.026-.316.412a8.912 8.912 0 0 1-1.366 1.876 1.888 1.888 0 0 0-.214.255c0 .035.71.599.998.793.87.583 1.7.821 2.27.65zm-6.2-1.253c.53-.139 1.155-.404 1.154-.49 0-.024-.136-.225-.303-.447-.68-.904-1.141-1.625-1.568-2.455a6.407 6.407 0 0 0-.26-.478c-.02-.019-.402-.006-.931.032-.726.05-1.06.057-1.734.034-1.343-.048-1.26-.052-1.273.066-.017.144.087.628.213 1.001a4.607 4.607 0 0 0 1.084 1.778c.556.551 1.046.796 2.054 1.026.04.009.351.012.693.008.467-.006.684-.025.87-.074zm2.402-1.38c.44-.385.834-.85 1.21-1.428.196-.303.278-.459.278-.53 0-.03-.124-.144-.275-.255l-.418-.306a33.091 33.091 0 0 1-.941-.716c-.133-.111-.224-.117-.433-.028-.26.111-.882.316-1.255.414-.195.05-.383.1-.417.11a.09.09 0 0 0-.063.08c0 .093.496.978.822 1.465.162.243.455.638.651.88.197.241.381.468.41.505.03.036.072.067.094.067.022.001.174-.116.337-.259zm6.451-1.142c.302-.064.49-.155.655-.316.536-.52.382-1.582-.414-2.863-.307-.494-.264-.467-.465-.298-.24.2-.48.335-.807.454-.317.116-.308.086-.15.498.26.681.473 1.435.61 2.168.03.156.061.312.071.346.024.078.17.081.5.01zm-1.28-.327c-.048-.57-.247-1.414-.517-2.198l-.098-.284-.75-.01-.751-.01-.018.116c-.01.064-.035.252-.057.419a4.293 4.293 0 0 1-.09.48l-.125.442-.076.266.097.077c.262.209 1.43.73 1.989.888.441.124.423.133.396-.187zM16.12 9.83c.155-.34.31-.985.358-1.49a2.17 2.17 0 0 1 .054-.367c.015-.025.317-.03.926-.017.643.015.904.01.904-.018 0-.113-.534-.979-.92-1.492-.139-.185-.253-.361-.253-.392 0-.03.058-.14.128-.244.146-.218.334-.601.334-.683 0-.031-.036-.089-.08-.128-.136-.123-.734-.477-1.201-.71-.246-.123-.472-.252-.501-.287a4.371 4.371 0 0 1-.235-.383c-.26-.46-.531-.833-.634-.872-.115-.043-.877-.042-1.221.003-.247.032-.279.029-.427-.048-.913-.474-1.298-.666-1.502-.75l-.241-.1-.123.137a2.775 2.775 0 0 0-.286.458c-.09.176-.181.33-.204.343-.023.013-.306.008-.628-.01-.606-.035-1.482-.01-1.568.043-.04.025-.033.062.04.2.12.232.36.582.604.88.11.138.221.286.244.33.05.093.052.09-.437.505-.313.265-.98.946-.98 1 0 .09 1.063.499 2.163.834.218.066.35.126.38.173.026.04.081.248.123.463.147.752.43 1.745.525 1.836.024.024.617-.095.996-.2a10.33 10.33 0 0 0 1.042-.379c.318-.137.389-.131.628.051l.752.578c.535.412 1.127.832 1.174.832.012 0 .042-.043.066-.096zm-2.448-2.513c-.658-.12-1.413-.46-1.907-.854-.393-.315-.64-.61-.849-1.014l-.174-.337v-.391c-.001-.349.008-.412.091-.586.168-.353.47-.59.956-.748.235-.077.326-.086.781-.083.405.003.58.02.818.08.968.249 1.886.858 2.324 1.543.273.427.318.57.32 1.02.003.394-.001.415-.107.594-.225.383-.442.555-.893.706-.34.115-.945.145-1.36.07zM9.865 9.284c.286-.022.532-.05.546-.063.014-.013 0-.111-.03-.219a15.557 15.557 0 0 1-.316-1.225 4.808 4.808 0 0 0-.117-.473c-.014-.027-.233-.116-.487-.2s-.733-.26-1.065-.391c-.425-.169-.62-.23-.657-.207-.108.065-.48.862-.635 1.36a6.735 6.735 0 0 0-.207 1.054c-.017.214-.011.263.034.28.116.045 1.14.114 1.761.118.36.003.887-.013 1.173-.034zM5.802 8.55c.218-.906.45-1.492.888-2.23.088-.15.153-.284.144-.299a7.123 7.123 0 0 0-.524-.325 12.314 12.314 0 0 1-1.612-1.138l-.3-.253-.133.099c-.228.169-.73.704-.903.962-.37.552-.53 1.115-.438 1.55.138.665.677 1.245 1.53 1.65.36.171 1.005.398 1.138.4l.11.002.1-.418zm13.675-.861c.288-.165.555-.378.555-.442 0-.096-.794-.917-1.367-1.414l-.353-.307-.067.166a9.261 9.261 0 0 1-.171.391l-.105.225.312.47c.172.258.392.61.49.78l.177.312.135-.016c.074-.01.251-.084.394-.165zm.795-1.129c-.02-.379-.103-.624-.343-1.003a6.308 6.308 0 0 0-.79-.944c-.312-.293-.969-.797-1.038-.797-.008 0 .038.15.101.335.074.214.125.446.14.638l.026.301.42.367c.232.201.659.61.948.908.29.298.533.541.54.542a2.24 2.24 0 0 0-.004-.347zM7.704 5.014c.236-.231.828-.768.921-.834.01-.007.001-.034-.017-.06-.219-.31-.46-.689-.568-.89a4.09 4.09 0 0 0-.163-.287c-.057-.072-1.147.197-1.736.429-.4.157-.89.399-.89.44 0 .047.41.421.712.647.49.368 1.268.844 1.386.847.03.001.19-.13.355-.292zM17.757 4.5c0-.164-.107-.582-.213-.838-.085-.206-.15-.251-.66-.463-.277-.115-1.07-.35-1.13-.336-.03.007.066.184.269.49l.316.48.31.161a8 8 0 0 1 .86.503c.108.073.208.133.222.134.015.001.027-.058.026-.131zM5.192 3.038a11.12 11.12 0 0 1 2.144-.61c.14-.024.272-.054.293-.067.026-.016.02-.09-.02-.235-.056-.211-.082-.726-.048-.993l.017-.142-.64-.01c-.696-.01-1.171.053-1.654.221-.849.297-1.136.962-.751 1.743.101.206.145.267.193.267.02 0 .229-.079.466-.174zm11.923-.137c-.821-1.066-1.86-1.661-3.043-1.745a3.131 3.131 0 0 0-.329-.015c0 .005.068.053.151.106.313.203.801.582 1.099.854.284.26.327.286.533.328.435.089 1.35.383 1.557.501.079.045.085.04.032-.03zm-6.661-.771c.05-.087.164-.235.25-.329.088-.094.16-.183.16-.198.003-.077-1.222-.391-1.9-.487a18.56 18.56 0 0 1-.375-.057c-.123-.021-.128-.017-.169.12-.059.196-.053.527.017.841l.058.268h1.866zm4.1.06c-.164-.175-.768-.64-1.076-.825l-.314-.19-.234.046c-.272.052-.731.222-.85.314-.08.063-.08.063.372.274.249.116.564.27.7.341l.247.13h.618l.618-.001-.082-.088zm-2.995-1.02c.25-.119.811-.302.935-.305.088-.002-.318-.163-.759-.3C10.424.154 9.261.172 8.733.61c-.107.089-.128.08.462.185.465.083 1.55.35 1.794.44.211.079.283.07.57-.066z"/></svg>