<svg role="img" viewBox="0 0 24 24" xmlns="http://www.w3.org/2000/svg"><path d="M10.806 23.476a4.163 4.163 0 0 1-.32-.036l-.282-.041a43.15 43.15 0 0 1-.441-.067 3.277 3.277 0 0 1-.383-.085.466.466 0 0 0-.108-.019.707.707 0 0 1-.149-.032c-.188-.059-.226-.068-.279-.068-.029 0-.058-.009-.065-.02-.007-.011-.03-.02-.052-.02-.046 0-.23-.053-.284-.082a.176.176 0 0 0-.069-.018c-.03 0-.277-.078-.378-.119a2.064 2.064 0 0 0-.12-.042 1.794 1.794 0 0 1-.14-.05 6.106 6.106 0 0 0-.211-.082 6.253 6.253 0 0 1-.552-.23c-.2-.088-.623-.289-.648-.307a1.21 1.21 0 0 0-.11-.064 8.468 8.468 0 0 1-.467-.258l-.2-.12c-.022-.012-.156-.1-.297-.194-.141-.093-.272-.18-.29-.19a.452.452 0 0 1-.061-.046.384.384 0 0 0-.066-.045 11.859 11.859 0 0 1-.79-.616 8.891 8.891 0 0 1-.623-.578 11.855 11.855 0 0 1-1.09-1.224 13.084 13.084 0 0 1-.454-.642c-.064-.1-.143-.22-.175-.267a.652.652 0 0 1-.058-.096c0-.005-.035-.066-.079-.135a6.726 6.726 0 0 1-.37-.686 9.327 9.327 0 0 1-.273-.582 5.191 5.191 0 0 0-.069-.157.688.688 0 0 1-.052-.144c0-.016-.008-.033-.018-.04-.01-.005-.022-.03-.028-.056a1.596 1.596 0 0 0-.054-.155 3.642 3.642 0 0 1-.074-.211 2.85 2.85 0 0 0-.047-.14 1.223 1.223 0 0 1-.08-.258.186.186 0 0 0-.018-.07 2.785 2.785 0 0 1-.1-.335 45.149 45.149 0 0 0-.05-.2 5.789 5.789 0 0 1-.054-.232 3.744 3.744 0 0 0-.044-.19 3.611 3.611 0 0 1-.072-.453.728.728 0 0 0-.031-.156c-.015-.024-.036-.221-.072-.676-.01-.132-.028-.344-.04-.471a5.224 5.224 0 0 1 0-.904c.012-.116.03-.323.04-.461.04-.51.054-.658.068-.68a.79.79 0 0 0 .032-.158c.038-.283.06-.409.071-.429a.623.623 0 0 0 .03-.124c.024-.14.05-.26.09-.406l.05-.19c.01-.039.032-.12.05-.18l.05-.171c.016-.059.05-.158.082-.241a4.592 4.592 0 0 1 .202-.561.08.08 0 0 0 .017-.047c0-.015.023-.078.052-.141.028-.063.06-.132.068-.154.26-.634.843-1.656 1.245-2.186a9.391 9.391 0 0 1 .5-.637c.073-.084.173-.2.222-.26.133-.158.787-.81.975-.973.313-.27.615-.513.832-.671.083-.06.153-.117.157-.125.004-.008.02-.016.035-.016.016 0 .029-.007.029-.015s.017-.024.038-.035a7.34 7.34 0 0 0 .296-.193 7.89 7.89 0 0 1 .417-.264 9.13 9.13 0 0 1 .754-.416 11.792 11.792 0 0 1 1.064-.477l.18-.072a.817.817 0 0 1 .165-.053c.018 0 .04-.009.046-.02.007-.01.034-.02.06-.02a.322.322 0 0 0 .114-.034c.124-.062.136-.066.177-.066a.2.2 0 0 0 .076-.018c.032-.016.197-.068.336-.104.033-.01.1-.027.15-.04L8.97.88c.05-.014.14-.036.201-.049l.19-.041c.218-.048.375-.079.512-.1.083-.013.196-.033.25-.044.208-.042.688-.089 1.215-.118.411-.023 1.708-.013 1.751.014.012.007.122.02.244.03.318.023.544.049.567.063.011.007.092.022.18.035.28.04.354.053.6.108l.29.064c.029.005.096.022.151.038l.181.048a16.477 16.477 0 0 1 .622.184 5.6 5.6 0 0 0 .211.07c.153.05.22.074.351.129l.16.062c.142.052.206.078.342.139l.17.075a11.584 11.584 0 0 1 .888.441c.014.011.087.054.162.094.076.041.186.106.245.144.06.038.118.069.13.069a.02.02 0 0 1 .02.02c0 .011.01.02.02.02.03 0 .802.526.872.593a14.036 14.036 0 0 1 .935.784 13.195 13.195 0 0 1 .873.9 17.147 17.147 0 0 1 .516.643c.01.011.067.088.127.171.06.083.125.173.146.2.02.028.1.149.176.268a7.872 7.872 0 0 1 .301.49c.157.275.213.38.358.678.2.411.205.422.323.712.051.127.102.247.112.266a.18.18 0 0 1 .018.071c0 .02.008.045.018.056.018.02.056.12.083.22.01.033.035.11.058.17.023.06.042.125.042.143 0 .018.014.06.03.09.017.032.03.078.03.102 0 .024.01.05.02.057.012.007.02.04.02.072 0 .034.01.078.021.1.012.02.03.08.041.133.027.124.05.223.09.397.017.077.04.19.05.251l.049.281c.066.377.074.613.065 1.973-.006.965-.015 1.374-.033 1.439a2.512 2.512 0 0 0-.044.23 5.214 5.214 0 0 1-.087.482l-.05.221a11.22 11.22 0 0 1-.152.572l-.05.17a2.73 2.73 0 0 1-.08.242 2.44 2.44 0 0 0-.05.155.413.413 0 0 1-.052.127c-.01.006-.018.027-.018.046 0 .03-.15.409-.254.641-.04.09-.185.404-.206.446a14.663 14.663 0 0 1-.578 1.023c-.019.04-.29.44-.41.602a12.297 12.297 0 0 1-2.336 2.398 11.686 11.686 0 0 1-.813.573c-.127.08-.244.157-.26.17a1.895 1.895 0 0 1-.171.1 2.71 2.71 0 0 0-.194.114.26.26 0 0 1-.066.037.502.502 0 0 0-.091.05.34.34 0 0 1-.109.05c-.016 0-.032.008-.035.017-.008.019-.647.331-.79.386a3.32 3.32 0 0 0-.15.065c-.136.062-.23.101-.321.134-.074.026-.101.037-.231.088a9.903 9.903 0 0 1-.371.126l-.332.108a10.947 10.947 0 0 1-.506.14c-.042.01-.125.032-.186.049-.06.016-.142.034-.18.04a4.046 4.046 0 0 0-.211.042c-.31.07-.926.165-1.245.19a69.69 69.69 0 0 1-2.529.008zm2.128-1.08c.055-.007.127-.016.16-.022a5.12 5.12 0 0 1 .271-.03c.25-.023.39-.043.632-.089l.271-.051c.215-.04.3-.058.422-.09l.2-.05c.04-.008.152-.04.252-.07l.24-.07a6.35 6.35 0 0 0 .505-.172.33.33 0 0 1 .086-.029c.012 0 .04-.009.062-.02l.08-.04a.187.187 0 0 1 .06-.02.654.654 0 0 0 .124-.05.62.62 0 0 1 .127-.05.756.756 0 0 0 .142-.058c.065-.03.187-.087.27-.124.082-.037.184-.088.225-.114a.316.316 0 0 1 .105-.046c.017 0 .03-.007.03-.015s.03-.028.066-.043a10.159 10.159 0 0 0 .868-.504 11.89 11.89 0 0 0 1.395-1.071c.315-.292.76-.756.995-1.039.252-.303.692-.898.736-.993.012-.026.027-.048.034-.048.007 0 .03-.034.05-.075.022-.042.058-.102.08-.135.023-.033.05-.076.062-.095.01-.02.058-.099.104-.177.046-.078.1-.177.12-.221.019-.044.042-.08.05-.08.01 0 .017-.013.017-.03 0-.024.076-.178.12-.24.007-.012.034-.07.059-.129.025-.06.072-.168.105-.24.055-.123.071-.16.133-.304.012-.028.037-.095.056-.15a.616.616 0 0 1 .052-.12c.01-.01.017-.04.017-.064 0-.025.008-.05.018-.056.01-.006.025-.04.033-.076a.554.554 0 0 1 .03-.095c.007-.017.03-.085.05-.151.018-.067.041-.143.05-.171l.05-.17c.018-.067.04-.144.049-.171.009-.028.026-.1.04-.16l.051-.242c.016-.071.037-.18.048-.24.012-.061.03-.16.043-.221a4.65 4.65 0 0 0 .04-.255c.008-.08.02-.16.026-.18.006-.02.016-.13.023-.244.007-.114.021-.281.032-.371a9.957 9.957 0 0 0-.002-1.238c-.012-.094-.03-.28-.041-.412-.034-.401-.048-.52-.064-.546a.694.694 0 0 1-.035-.15 4.883 4.883 0 0 0-.09-.468 11.667 11.667 0 0 1-.05-.22 3.03 3.03 0 0 0-.051-.191 4.132 4.132 0 0 1-.05-.181 3.895 3.895 0 0 0-.18-.547.16.16 0 0 1-.02-.065.18.18 0 0 0-.017-.066 6.446 6.446 0 0 1-.164-.386 8.133 8.133 0 0 0-.24-.544l-.152-.291a5.5 5.5 0 0 0-.218-.389 1.174 1.174 0 0 0-.107-.174.32.32 0 0 1-.046-.076.345.345 0 0 0-.05-.08.35.35 0 0 1-.05-.078c0-.03-.507-.727-.66-.908a9.017 9.017 0 0 0-.725-.792c-.406-.402-.467-.455-1.043-.923a13.736 13.736 0 0 0-.712-.502.72.72 0 0 1-.106-.067 1.61 1.61 0 0 0-.166-.103.456.456 0 0 1-.08-.048.228.228 0 0 0-.05-.034 12.577 12.577 0 0 1-.291-.165 16.546 16.546 0 0 0-1.074-.515 8.457 8.457 0 0 0-.757-.28 9.797 9.797 0 0 0-.718-.214l-.201-.05a4.748 4.748 0 0 0-.22-.05 9.152 9.152 0 0 0-1.084-.18c-.095-.01-.248-.027-.342-.039-.446-.055-1.648-.044-2.188.02-.473.055-1.051.148-1.14.182a.342.342 0 0 1-.104.018.355.355 0 0 0-.104.018 1.38 1.38 0 0 1-.147.04c-.089.02-.173.043-.381.102-.105.03-.72.224-.763.24-.022.01-.08.032-.13.052-.151.058-.167.064-.281.11-.405.163-1.096.503-1.36.67a.511.511 0 0 1-.098.053.334.334 0 0 0-.08.05.36.36 0 0 1-.077.05c-.007 0-.105.06-.217.135-.113.075-.215.14-.226.144a.962.962 0 0 0-.1.07 2.13 2.13 0 0 1-.112.082c-.043.027-.3.216-.328.241a8.247 8.247 0 0 1-.182.15 10.397 10.397 0 0 0-1.53 1.52c-.085.109-.16.201-.167.207a9.275 9.275 0 0 0-.52.744c0 .009-.008.018-.017.022a1.923 1.923 0 0 0-.185.288 12.377 12.377 0 0 0-.596 1.154l-.068.145a.163.163 0 0 0-.018.057.41.41 0 0 1-.032.096c-.018.04-.04.091-.048.113l-.047.12a3.143 3.143 0 0 0-.128.377c-.006.03-.019.06-.028.067-.01.006-.018.033-.018.06 0 .029-.01.07-.024.095a.517.517 0 0 0-.038.114c-.008.039-.03.125-.049.19a6.227 6.227 0 0 0-.1.402 9.906 9.906 0 0 0-.191 1.245c-.045.584-.05.701-.036 1.144.017.585.07 1.215.11 1.314.006.017.019.085.028.15.025.174.052.322.09.482l.05.221c.01.044.032.13.05.19.019.062.041.143.05.182.036.145.072.259.086.273.008.008.014.03.014.049 0 .019.014.06.03.092a.25.25 0 0 1 .03.091c0 .019.01.04.02.046.011.007.02.03.02.051 0 .021.015.073.033.114l.05.121c.018.047.03.075.089.216l.053.13c.044.108.079.183.236.502.175.355.202.405.35.653l.119.2c.013.023.044.07.069.105a.36.36 0 0 1 .045.075c0 .01.168.25.395.563a11.31 11.31 0 0 0 1.468 1.598l.247.213c.152.13.563.445.647.494.035.02.086.059.114.085a.205.205 0 0 0 .068.049.52.52 0 0 1 .11.067 6.555 6.555 0 0 0 .56.351c.076.053.237.14.506.274a9.283 9.283 0 0 1 .337.17l.16.073a9.945 9.945 0 0 0 .596.25 6.042 6.042 0 0 0 .482.17c.133.04.257.082.276.092a.16.16 0 0 0 .06.018c.014 0 .098.022.186.049.24.073.648.167.923.212.077.013.181.033.231.044.116.027.298.05.562.074.116.01.226.025.245.033.105.04 1.595.056 1.953.02zm-1.46-.663a1.565 1.565 0 0 0-.26-.022 3.074 3.074 0 0 1-.344-.029 1.16 1.16 0 0 0-.188-.02c-.05 0-.17-.014-.264-.031l-.284-.051a11.01 11.01 0 0 1-.662-.138l-.201-.05a3.659 3.659 0 0 1-.18-.049 4.574 4.574 0 0 0-.141-.042 4.29 4.29 0 0 1-.427-.14.177.177 0 0 0-.07-.02.152.152 0 0 1-.076-.03.156.156 0 0 0-.075-.03.189.189 0 0 1-.07-.019 1.844 1.844 0 0 0-.115-.051 69.616 69.616 0 0 1-.216-.087 14.31 14.31 0 0 1-1.029-.507 1.763 1.763 0 0 0-.175-.092c-.02-.006-.035-.02-.035-.03 0-.01-.009-.017-.02-.017-.055 0-.82-.52-1.076-.732l-.2-.165a5.228 5.228 0 0 1-.142-.12l-.19-.167a10.565 10.565 0 0 1-1.183-1.285 7.451 7.451 0 0 1-.217-.3l-.218-.313a.848.848 0 0 1-.08-.13.692.692 0 0 0-.055-.09 1.076 1.076 0 0 1-.072-.12.354.354 0 0 0-.042-.07c-.049-.04-.412-.769-.54-1.084l-.07-.17a3.674 3.674 0 0 1-.049-.13 2.999 2.999 0 0 0-.088-.227.397.397 0 0 1-.033-.115c0-.02-.01-.044-.02-.05-.011-.007-.02-.027-.02-.046 0-.018-.022-.105-.05-.194a9.174 9.174 0 0 1-.315-1.466c-.105-.876-.092-1.873.036-2.62l.05-.29c.042-.245.091-.455.203-.864.028-.1.147-.465.197-.602.04-.112.085-.224.101-.255a.16.16 0 0 0 .018-.055c0-.038.346-.755.503-1.044.08-.148.364-.604.487-.783.294-.43.682-.893 1.076-1.285a9.103 9.103 0 0 1 1.296-1.117c.14-.104.723-.479.823-.53a10.063 10.063 0 0 1 1.174-.576c.072-.027.178-.071.235-.097a.594.594 0 0 1 .131-.048.083.083 0 0 0 .047-.016c.01-.009.1-.042.2-.073.099-.031.23-.075.29-.097.061-.022.14-.044.176-.05.036-.004.07-.017.077-.027.006-.01.04-.018.075-.019a.278.278 0 0 0 .114-.03.272.272 0 0 1 .111-.029c.034 0 .07-.009.08-.018a.252.252 0 0 1 .1-.028c.044-.005.143-.026.22-.045.078-.019.19-.042.252-.051.252-.04.38-.057.552-.078.099-.011.203-.026.23-.033.049-.012.386-.033.894-.056.23-.01 1.314.033 1.348.054.009.005.093.016.187.024s.177.018.185.023c.008.005.08.018.16.028.18.024.3.045.508.09l.24.05c.177.038.414.1.457.122.02.01.053.018.076.018.022 0 .056.008.075.019.02.01.116.043.216.072.099.03.209.067.244.082a.33.33 0 0 0 .09.028c.016 0 .038.007.048.016.01.009.055.028.1.042.044.015.111.04.15.057l.11.045c.19.072.352.147.742.343a9.426 9.426 0 0 1 .562.3c.019 0 .457.285.69.449a9.796 9.796 0 0 1 2.626 2.732c.155.242.308.506.308.532 0 .009.006.02.015.023a.718.718 0 0 1 .08.137c.036.072.083.162.104.201.05.09.187.39.221.482l.071.17c.025.056.06.146.08.201.019.055.043.116.053.135.01.02.018.052.018.072 0 .02.008.045.017.055.017.019.03.059.129.39a6.294 6.294 0 0 1 .175.683c.035.143.106.57.149.893.066.496.056 1.718-.018 2.228-.018.121-.04.28-.049.354a.792.792 0 0 1-.03.154.822.822 0 0 0-.033.147c-.033.201-.053.3-.088.429a11.646 11.646 0 0 0-.091.35.464.464 0 0 1-.04.11.227.227 0 0 0-.027.072 3.728 3.728 0 0 1-.172.511c-.01.022-.042.104-.073.181a7.282 7.282 0 0 1-.29.652 8.361 8.361 0 0 1-.577 1.001 1.692 1.692 0 0 0-.126.206c0 .01-.007.018-.016.018-.009 0-.033.029-.054.065a.478.478 0 0 1-.05.075 1.084 1.084 0 0 0-.071.09c-.532.73-1.443 1.626-2.135 2.101-.084.058-.157.11-.163.116a2.853 2.853 0 0 1-.16.11c-.329.213-.39.252-.572.354a7.244 7.244 0 0 1-.411.22 6.973 6.973 0 0 0-.242.122.73.73 0 0 1-.08.04 7.489 7.489 0 0 0-.18.081 6.553 6.553 0 0 1-.583.24c-.027.009-.154.053-.28.099-.128.045-.263.09-.302.1a6.35 6.35 0 0 0-.32.09 2.422 2.422 0 0 1-.192.05 8.479 8.479 0 0 0-.22.05 4.52 4.52 0 0 1-.432.09c-.06.01-.217.036-.348.06-.13.022-.273.041-.315.041-.043 0-.12.01-.174.02-.053.01-.2.025-.327.032-.354.019-1.234.032-1.248.018zm1.375-.453c.053-.01.13-.018.171-.018.079 0 .438-.05.581-.082a.863.863 0 0 1 .15-.019.495.495 0 0 0 .125-.019c.034-.01.11-.029.172-.042a7.97 7.97 0 0 0 .19-.043 8.41 8.41 0 0 1 .16-.035c.045-.01.13-.032.192-.05l.18-.054c.039-.012.098-.026.13-.032a.264.264 0 0 0 .08-.026.895.895 0 0 1 .141-.05.69.69 0 0 0 .14-.053.09.09 0 0 1 .05-.017c.027 0 .1-.027.332-.122a17.026 17.026 0 0 0 .241-.1c.144-.058.654-.304.793-.383l.24-.133c.073-.04.145-.083.163-.098.017-.015.042-.028.055-.028.013 0 .024-.009.024-.02 0-.01.01-.02.021-.02a.27.27 0 0 0 .087-.05.327.327 0 0 1 .08-.05c.044 0 .808-.573 1.053-.79a9.48 9.48 0 0 0 1.388-1.49 7.73 7.73 0 0 0 .234-.323c.02-.034.073-.114.116-.18.094-.139.125-.187.144-.228a12.149 12.149 0 0 0 .57-1.099l.039-.09a5.807 5.807 0 0 0 .237-.637c.022-.06.055-.165.075-.231.02-.066.043-.136.053-.155a.202.202 0 0 0 .017-.077c0-.023.014-.088.031-.146.043-.142.06-.216.1-.415a9.01 9.01 0 0 1 .043-.21 1.51 1.51 0 0 0 .019-.121 3.7 3.7 0 0 1 .03-.2c.066-.401.102-1.503.06-1.907a14.922 14.922 0 0 1-.03-.322 7.358 7.358 0 0 0-.194-1.073 4.346 4.346 0 0 1-.052-.231.553.553 0 0 0-.026-.1 4.447 4.447 0 0 1-.071-.221c-.03-.1-.067-.212-.082-.251a2.726 2.726 0 0 1-.05-.15.947.947 0 0 0-.05-.131 11.248 11.248 0 0 0-.574-1.219 10.666 10.666 0 0 0-1.05-1.49c-.244-.3-.952-.975-1.326-1.263-.29-.224-1.026-.725-1.064-.725-.004 0-.065-.034-.134-.076a13.496 13.496 0 0 0-1.024-.503.531.531 0 0 0-.123-.043c-.015 0-.039-.013-.053-.03a.104.104 0 0 0-.071-.03c-.026 0-.052-.008-.058-.018-.006-.01-.031-.022-.056-.027a3.67 3.67 0 0 1-.216-.07 9.608 9.608 0 0 0-.291-.097.76.76 0 0 1-.14-.053c-.01-.009-.043-.016-.074-.016-.03 0-.06-.008-.066-.018-.006-.01-.04-.022-.076-.027a6.838 6.838 0 0 1-.489-.117.455.455 0 0 0-.103-.019.708.708 0 0 1-.139-.028 2.31 2.31 0 0 0-.278-.052 5.408 5.408 0 0 1-.28-.043c-.291-.058-1.185-.096-1.762-.075a9.889 9.889 0 0 0-1.079.098l-.264.037a.889.889 0 0 0-.153.03.843.843 0 0 1-.137.033 5.886 5.886 0 0 0-.56.131c-.066.02-.15.04-.186.045-.036.005-.07.017-.076.027-.006.01-.028.018-.05.018a.355.355 0 0 0-.104.028 1.77 1.77 0 0 1-.146.052c-.12.036-.356.12-.396.142a.154.154 0 0 1-.055.019.818.818 0 0 0-.135.052c-.064.03-.143.065-.177.079a9.056 9.056 0 0 0-.511.237 5.415 5.415 0 0 0-.301.156 3.908 3.908 0 0 1-.191.108c-.077.042-.193.11-.258.153a1.063 1.063 0 0 1-.129.078.382.382 0 0 0-.076.05.376.376 0 0 1-.077.05.146.146 0 0 0-.047.03c-.02.015-.153.112-.296.214a9.61 9.61 0 0 0-.284.207c-.013.012-.093.08-.18.151A9.219 9.219 0 0 0 4.422 6.41a4.88 4.88 0 0 1-.15.18 9.325 9.325 0 0 0-.213.292c-.237.33-.454.671-.587.924-.018.034-.05.088-.072.12a.88.88 0 0 0-.063.11l-.126.27-.122.261-.048.116-.062.15a1.47 1.47 0 0 1-.05.11.183.183 0 0 0-.02.075c0 .021-.008.044-.018.05-.01.006-.025.04-.033.076a.507.507 0 0 1-.03.095 1.359 1.359 0 0 0-.05.151.638.638 0 0 1-.052.14c-.01.01-.017.04-.017.064a.3.3 0 0 1-.018.092c-.03.078-.097.34-.152.608a7.395 7.395 0 0 1-.053.233.645.645 0 0 0-.018.13c0 .032-.014.121-.03.199a1.47 1.47 0 0 0-.03.24c0 .056-.01.133-.021.171-.029.094-.03 1.546-.003 1.712.02.116.047.302.085.586.018.133.04.25.09.462l.048.21c.01.04.032.125.051.191.02.066.04.143.045.17a.651.651 0 0 0 .038.114.328.328 0 0 1 .028.104c0 .023.008.046.018.052.01.006.022.036.027.067.013.07.137.41.193.526a.533.533 0 0 1 .043.108c0 .02.4.831.447.906.1.162.155.253.155.26 0 .005.035.061.077.125l.214.326a12.023 12.023 0 0 0 .482.632c.179.23.747.829.901.95.048.038.298.256.352.307.018.017.069.058.112.09a1.7 1.7 0 0 1 .09.071c.005.006.064.052.13.1.067.05.125.095.13.102.006.007.137.096.292.198l.367.243c.047.032.09.059.094.059.005 0 .057.028.115.063s.215.12.348.188c.133.068.26.134.28.146.102.057.434.198.763.325l.26.101c.023.01.09.032.151.05.06.018.129.04.15.049.023.009.077.026.121.038l.19.054c.062.018.143.04.181.049l.151.037c.078.02.3.069.421.094.132.028.289.052.436.069.084.01.162.022.172.028.036.023.461.06.828.073.462.016 1.262.004 1.39-.02zm-1.334-.811a3.018 3.018 0 0 0-.237-.018 8.21 8.21 0 0 1-1.355-.194 2.94 2.94 0 0 1-.21-.05 8.12 8.12 0 0 0-.181-.05 6.124 6.124 0 0 1-.14-.039l-.171-.05a8.799 8.799 0 0 1-1.634-.698 3.05 3.05 0 0 0-.175-.095 2.05 2.05 0 0 1-.144-.086 18.732 18.732 0 0 0-.17-.105c-.167-.1-.82-.577-.918-.672a5.486 5.486 0 0 0-.162-.139 9.906 9.906 0 0 1-1.289-1.417 8.405 8.405 0 0 1-.384-.592 3.957 3.957 0 0 1-.217-.381.714.714 0 0 0-.08-.138c-.009-.004-.016-.016-.016-.028 0-.011-.03-.085-.067-.163a7.39 7.39 0 0 1-.4-1.016 1.134 1.134 0 0 1-.035-.11 8.385 8.385 0 0 1-.314-1.666c-.033-.499-.013-1.436.036-1.686.01-.056.03-.164.04-.241a6.306 6.306 0 0 1 .188-.883l.05-.18a2.04 2.04 0 0 1 .039-.121l.064-.191c.024-.072.054-.158.068-.19l.08-.201a8.505 8.505 0 0 1 .593-1.187c0-.02.317-.49.44-.65.323-.424.816-.964 1.145-1.257a12.928 12.928 0 0 1 .62-.501c.075-.06.4-.29.41-.29.004 0 .088-.052.187-.116.098-.064.21-.132.248-.151.039-.02.134-.07.211-.114.2-.112.562-.288.743-.36l.156-.069a.691.691 0 0 1 .144-.052c.016 0 .034-.01.04-.02.008-.011.034-.02.058-.02.025 0 .054-.008.064-.018a.6.6 0 0 1 .13-.053l.15-.05c.123-.044.246-.08.412-.12.038-.009.138-.034.22-.056.083-.021.2-.05.261-.062l.251-.05c.239-.049.665-.101 1.064-.132.536-.041.63-.043.923-.022.476.033 1.07.092 1.114.109.017.006.094.022.17.034.31.048.79.154.904.2a.58.58 0 0 0 .09.025c.057.011.173.05.226.077a.21.21 0 0 0 .081.017c.026 0 .055.008.066.018a.68.68 0 0 0 .13.054c.06.02.118.044.129.053.01.009.034.016.053.016.02 0 .06.013.091.029.032.016.093.044.138.062.136.057.255.11.403.181.078.038.152.069.164.069.012 0 .024.007.028.015s.06.042.127.074c.066.033.168.09.226.126a.9.9 0 0 0 .117.066c.005 0 .06.032.12.07.06.039.114.07.119.07a8.87 8.87 0 0 1 2.169 1.938c.21.27.39.522.39.548 0 .013.009.023.02.023.01 0 .04.038.065.083.025.046.055.098.066.116l.204.333c.014.022.045.083.07.136.024.052.052.095.06.095.01 0 .017.01.017.024 0 .013.03.088.068.165.142.294.173.36.173.376 0 .009.021.063.047.122.078.174.183.452.207.547a.667.667 0 0 0 .027.08c.01.023.022.063.027.09.023.107.1.394.115.432.016.038.044.172.079.372.008.05.024.14.036.2.059.32.077.493.102 1.014a9.616 9.616 0 0 1-.067 1.445l-.044.27c-.017.106-.05.264-.072.352a8.405 8.405 0 0 0-.057.241 3.826 3.826 0 0 1-.158.552 1.28 1.28 0 0 0-.035.11c-.01.043-.014.051-.095.248-.028.07-.052.134-.052.144 0 .035-.314.69-.43.895-.183.328-.576.927-.678 1.035a1.585 1.585 0 0 0-.085.107 2.7 2.7 0 0 1-.13.161 6.5 6.5 0 0 0-.124.145c-.158.197-.675.697-1.002.97-.284.238-.91.68-.962.68-.011 0-.021.009-.021.018 0 .01-.016.023-.035.03a.384.384 0 0 0-.075.037c-.022.015-.063.04-.09.059a5.252 5.252 0 0 1-.243.133c-.106.055-.21.11-.23.123a9.553 9.553 0 0 1-1.184.485 4.18 4.18 0 0 0-.15.05.968.968 0 0 1-.256.07c-.024 0-.048.007-.054.017-.006.01-.045.023-.086.028-.042.007-.13.026-.196.045-.066.018-.161.04-.21.05-.05.008-.164.03-.252.05-.378.08-.959.132-1.56.14-.294.003-.538.003-.541 0zm1.148-.24c.105-.008.236-.022.29-.034a3.47 3.47 0 0 1 .252-.04c.207-.024.345-.047.522-.087l.23-.05c.19-.04.424-.102.457-.121a.165.165 0 0 1 .068-.02c.039 0 .32-.092.373-.121a.165.165 0 0 1 .066-.02.172.172 0 0 0 .065-.018c.02-.01.076-.034.125-.053.14-.053.164-.063.261-.106l.17-.075a11.315 11.315 0 0 0 .784-.399 9.455 9.455 0 0 0 1.354-.964c.066-.052.668-.654.784-.785.18-.204.396-.48.53-.68.045-.064.09-.128.102-.14a6.76 6.76 0 0 0 .391-.644c.118-.21.235-.447.302-.607a20.064 20.064 0 0 1 .171-.402.346.346 0 0 0 .029-.101.1.1 0 0 1 .016-.055.756.756 0 0 0 .052-.14 5.061 5.061 0 0 0 .152-.512c.01-.038.03-.123.048-.19.03-.124.064-.288.082-.411l.042-.261c.017-.105.035-.263.04-.351l.03-.448c.018-.261.01-.55-.03-1.058-.012-.154-.08-.6-.129-.853a5.944 5.944 0 0 0-.208-.762 1.468 1.468 0 0 1-.05-.166c-.005-.03-.018-.06-.028-.066-.01-.006-.017-.029-.017-.05a.517.517 0 0 0-.05-.144.645.645 0 0 1-.05-.125.58.58 0 0 0-.051-.12.641.641 0 0 1-.05-.116 7.183 7.183 0 0 0-.391-.769 7.396 7.396 0 0 0-.596-.883A7.787 7.787 0 0 0 17.45 5.89c-.1-.078-.213-.169-.253-.201a10.87 10.87 0 0 0-.653-.444.275.275 0 0 1-.065-.037c-.154-.109-1-.545-1.054-.545-.006 0-.07-.027-.143-.06a1.017 1.017 0 0 0-.15-.06.46.46 0 0 1-.095-.033 1.87 1.87 0 0 0-.267-.1.604.604 0 0 1-.13-.051.107.107 0 0 0-.058-.017.866.866 0 0 1-.233-.066.885.885 0 0 0-.13-.036 18.226 18.226 0 0 0-.743-.157 8.475 8.475 0 0 0-1.516-.128c-.672 0-1.178.05-1.806.179-.32.066-.428.092-.572.137l-.17.051c-.144.041-.509.16-.553.18l-.194.08c-.436.17-.988.452-1.408.721l-.271.173a.324.324 0 0 0-.043.03c-.006.006-.1.077-.211.16-.228.17-.48.372-.612.491-.297.266-.844.86-1.034 1.124a.984.984 0 0 1-.063.08c-.081.086-.406.586-.6.925a9.357 9.357 0 0 0-.491 1.063c-.017.041-.167.494-.2.602-.091.307-.196.81-.222 1.074a7.06 7.06 0 0 1-.04.311c-.028.182-.038 1.057-.015 1.365.014.187.023.264.079.642.035.242.119.623.186.847a.805.805 0 0 1 .031.133c0 .016.014.055.03.087.017.031.03.073.03.093 0 .02.009.05.019.07.01.02.033.08.052.135a3.485 3.485 0 0 0 .121.321c.103.26.323.728.392.833a9.791 9.791 0 0 0 .75 1.134 7.6 7.6 0 0 0 .637.713c.31.315.604.571.96.836.205.152.612.428.632.428.01 0 .114.062.262.155.14.089.938.464 1.103.518.055.019.132.047.17.064.12.05.145.06.332.116.1.03.2.062.222.07.039.015.36.095.56.14l.181.042c.13.03.284.056.472.078.083.01.205.027.27.038.067.011.21.025.32.03.108.007.203.017.21.024.014.014.884 0 1.187-.02zm-1.206-1.414a2.274 2.274 0 0 1-.314-.029 1.018 1.018 0 0 0-.19-.034 4.391 4.391 0 0 1-.528-.09 3.225 3.225 0 0 0-.216-.043c-.041-.006-.08-.02-.086-.03-.007-.01-.03-.017-.053-.017-.036 0-.15-.032-.287-.08a10.581 10.581 0 0 0-.211-.07 4.877 4.877 0 0 1-.21-.07l-.121-.05-.12-.05c-.127-.05-.604-.284-.738-.36l-.15-.085a.796.796 0 0 1-.108-.07c-.017-.015-.038-.028-.046-.028-.022 0-.46-.307-.615-.432l-.15-.12a9.05 9.05 0 0 1-.852-.832c-.192-.228-.583-.76-.583-.792a.684.684 0 0 0-.061-.1 5.874 5.874 0 0 1-.3-.533.585.585 0 0 0-.046-.103 4.037 4.037 0 0 1-.123-.28 10.047 10.047 0 0 0-.103-.25 1.379 1.379 0 0 1-.048-.13l-.065-.201a3.062 3.062 0 0 1-.059-.201 7.99 7.99 0 0 0-.048-.19c-.124-.472-.177-.946-.178-1.596 0-.491.02-.782.078-1.104l.05-.271c.028-.164.063-.3.082-.32a.1.1 0 0 0 .018-.06c0-.021.009-.067.02-.1.144-.453.156-.486.203-.579a.16.16 0 0 0 .018-.054c0-.019.143-.342.181-.408.012-.02.058-.11.104-.201a3.84 3.84 0 0 1 .15-.27.791.791 0 0 0 .067-.12c0-.006.022-.042.05-.078a.37.37 0 0 0 .05-.077c0-.016.245-.354.378-.52a7.37 7.37 0 0 1 1.067-1.08c.293-.235.85-.619.898-.619a2.741 2.741 0 0 1 .307-.17 9.316 9.316 0 0 0 .32-.164L9 5.708c.045-.02.144-.06.222-.091.077-.03.167-.068.2-.081a1.99 1.99 0 0 1 .14-.05l.121-.04c.022-.009.095-.032.16-.05l.171-.052c.028-.01.118-.031.201-.05.083-.018.173-.04.2-.049a1.92 1.92 0 0 1 .202-.04 9.28 9.28 0 0 0 .25-.041 4.88 4.88 0 0 1 .31-.04 2.42 2.42 0 0 0 .225-.03c.029-.019 1.161-.01 1.295.01.076.01.178.024.228.029.096.01.425.06.592.09a6.408 6.408 0 0 1 .918.253c.097.03.181.063.187.073.006.01.033.017.059.017.026 0 .053.01.06.02.007.011.025.02.04.02.056 0 .774.345.949.456.058.036.11.066.117.066.006 0 .04.023.077.05.036.028.072.05.08.05.007 0 .024.01.038.02a1.8 1.8 0 0 0 .134.094c.114.076.462.333.507.375l.176.154c.256.222.583.557.804.823.183.22.54.728.6.853a5.664 5.664 0 0 1 .238.442c.095.191.125.258.195.426.099.235.103.247.14.366l.05.15c.013.038.06.2.1.342.121.444.22 1.193.221 1.666 0 .198-.041.775-.063.883-.012.055-.03.159-.04.23-.035.26-.054.357-.076.398a.218.218 0 0 0-.022.086.454.454 0 0 1-.019.107l-.072.242a5.276 5.276 0 0 1-.2.562 11.42 11.42 0 0 1-.365.763c-.182.31-.35.57-.453.703a7.516 7.516 0 0 1-1.018 1.108c-.57.52-1.406 1.021-2.218 1.33l-.12.047c-.045.017-.112.04-.151.052l-.17.053a4.84 4.84 0 0 1-.402.11 7.375 7.375 0 0 0-.21.048 4.291 4.291 0 0 1-.513.091c-.077.01-.19.027-.25.037-.152.027-1.03.043-1.387.026zm1.296-.183c.347-.036.698-.089.733-.11a.554.554 0 0 1 .126-.03c.196-.03.758-.198 1.018-.305.227-.093.25-.106.257-.145.005-.026-.004-.031-.04-.023-.026.006-.295.02-.599.032l-.837.033-.286.012-.01-.72c-.006-.397-.015-.86-.019-1.032-.004-.17-.01-.589-.012-.928l-.004-.617.117-.134.138-.155a274.52 274.52 0 0 0 1.017-1.138l.18-.2.098-.113c.065-.08.264-.304.394-.446a5.561 5.561 0 0 0 .228-.263c.029-.028.248-.27.371-.41l.241-.272c.254-.285.291-.33.291-.366a.474.474 0 0 0-.07-.147.937.937 0 0 1-.07-.121.381.381 0 0 0-.05-.077.353.353 0 0 1-.05-.078c0-.007-.044-.083-.096-.169a35.697 35.697 0 0 1-.612-1.015 1.904 1.904 0 0 1-.096-.166.29.29 0 0 0-.037-.065 9.321 9.321 0 0 1-.342-.562c-.02-.03-.148-.24-.283-.466a81.431 81.431 0 0 0-.283-.471 1.085 1.085 0 0 1-.051-.09 1.303 1.303 0 0 0-.076-.12 1.649 1.649 0 0 1-.092-.151 2.413 2.413 0 0 0-.105-.175 1.027 1.027 0 0 1-.075-.125.816.816 0 0 0-.062-.111c-.034-.055-.055-.11-.047-.123.02-.032.037-.048.699-.63.25-.221.463-.405.472-.408.009-.003.043.038.076.09A295.696 295.696 0 0 1 16.08 8.01c.053.08.095.15.095.157 0 .006.023.04.05.077.028.036.05.072.05.08 0 .008.023.044.05.08.028.037.05.072.05.08 0 .006.046.08.101.161.055.083.1.156.1.164 0 .008.023.045.05.081.028.036.05.071.05.077 0 .006.04.073.089.147a40.534 40.534 0 0 1 .495.788 569.731 569.731 0 0 1 .62 1.003c.165.257.387.622.426.698.013.025.03.045.04.045.01 0 .017.01.017.023s.012.038.028.056c.04.045.112.179.112.208 0 .014-.068.106-.151.205l-.275.33a3.53 3.53 0 0 1-.156.181.56.56 0 0 0-.063.076 1.49 1.49 0 0 1-.1.12c-.037.042-.1.116-.14.166a6.76 6.76 0 0 1-.117.14c-.064.073-.101.118-.202.24-.05.06-.114.137-.144.17-.067.078-.098.114-.247.294a18.387 18.387 0 0 1-.34.402l-.168.199-.422.5a21.17 21.17 0 0 1-.342.402 1.77 1.77 0 0 0-.1.121.921.921 0 0 1-.075.09l-.13.151a6.236 6.236 0 0 1-.185.218l-.055.066v.971c0 .653.007.975.021.984.012.007.032.005.045-.005a.543.543 0 0 1 .095-.046c.039-.015.146-.071.239-.124a3.106 3.106 0 0 0 .359-.211c.096-.063.197-.127.225-.142a.58.58 0 0 0 .101-.076.21.21 0 0 1 .067-.049.533.533 0 0 0 .109-.075c.051-.041.107-.086.124-.098.5-.378 1.1-1.032 1.48-1.613.25-.384.506-.875.62-1.19a.363.363 0 0 1 .05-.106c.01-.006.018-.026.018-.045 0-.018.021-.092.047-.164.027-.072.059-.171.072-.221a2.53 2.53 0 0 1 .045-.15c.011-.034.028-.097.037-.141.01-.044.031-.144.05-.22.019-.078.038-.191.043-.252a.682.682 0 0 1 .027-.15.922.922 0 0 0 .027-.191c.006-.083.021-.28.035-.439.02-.23.02-.35 0-.592-.05-.583-.073-.77-.131-1.026a7.893 7.893 0 0 1-.044-.201 1.894 1.894 0 0 0-.038-.15 11.368 11.368 0 0 0-.15-.492 3.029 3.029 0 0 0-.101-.236.158.158 0 0 1-.02-.06c0-.025-.038-.108-.196-.427a6.662 6.662 0 0 0-.966-1.441 8.596 8.596 0 0 0-.865-.819c-.264-.21-.55-.42-.572-.42-.005 0-.073-.04-.152-.09a8.24 8.24 0 0 0-.851-.453l-.12-.049a11.528 11.528 0 0 0-.216-.088 4.56 4.56 0 0 0-.216-.073 6.757 6.757 0 0 1-.241-.08 4.463 4.463 0 0 0-.532-.14 4.138 4.138 0 0 1-.219-.052.464.464 0 0 0-.115-.018.847.847 0 0 1-.142-.02c-.377-.084-1.401-.113-1.886-.051a7.703 7.703 0 0 0-.87.144 6.405 6.405 0 0 0-.672.19.46.46 0 0 0-.109.042.084.084 0 0 1-.047.016.326.326 0 0 0-.091.028 9.066 9.066 0 0 0-1.072.509.406.406 0 0 1-.078.045c-.021 0-.481.31-.65.439-.211.16-.37.295-.55.464a5.052 5.052 0 0 0-.386.393 5.916 5.916 0 0 0-.434.53l-.131.172c-.033.039-.258.4-.326.521-.127.228-.34.67-.34.705a.27.27 0 0 1-.029.081 1.77 1.77 0 0 0-.047.107c-.011.028-.03.078-.044.11-.04.099-.11.328-.161.533-.01.038-.03.12-.047.18a5.157 5.157 0 0 0-.093.456 3.098 3.098 0 0 0-.032.28 1.4 1.4 0 0 1-.031.228c-.026.087-.012.939.019 1.194A6.665 6.665 0 0 0 5.76 15l.093.16c.042.072.08.14.084.151.005.011.03.048.055.082a.315.315 0 0 1 .047.075c0 .018.229.339.338.475l.152.19c.2.256.71.752 1.046 1.019.133.106.705.497.726.497a5.365 5.365 0 0 0 .392.218c.27.14.276.142.299.1.017-.032.017-.243 0-.848-.031-1.109-.026-1.06-.142-1.184a4.774 4.774 0 0 1-.143-.16 6.122 6.122 0 0 0-.144-.163 3.502 3.502 0 0 1-.14-.163 1.355 1.355 0 0 0-.067-.08l-.21-.24a35.8 35.8 0 0 0-.28-.319 7.953 7.953 0 0 1-.16-.181 5.773 5.773 0 0 0-.15-.17 8.76 8.76 0 0 1-.192-.221 9.891 9.891 0 0 0-.193-.221 7.44 7.44 0 0 1-.229-.261l-.2-.231a11.858 11.858 0 0 0-.201-.23 63.52 63.52 0 0 1-.614-.703 23.738 23.738 0 0 0-.151-.171c-.197-.221-.298-.345-.298-.367 0-.012.092-.175.205-.364l.226-.378a36.17 36.17 0 0 1 .512-.857c0-.006.03-.058.065-.116l.089-.146a109.926 109.926 0 0 1 .368-.612l.24-.401c.049-.079.172-.294.18-.311a.08.08 0 0 1 .021-.03c.008-.007.077-.117.153-.247s.154-.262.173-.292a.867.867 0 0 0 .049-.084c.011-.026.072-.128.161-.272l.137-.23c.148-.25.153-.26.2-.33.022-.033.05-.078.062-.1a2.16 2.16 0 0 1 .144-.245.366.366 0 0 0 .045-.074c0-.006.054-.098.12-.204a3.47 3.47 0 0 0 .121-.2c0-.02.286-.472.299-.472.007 0 .045.03.083.066.038.036.115.102.17.145.055.044.105.085.11.091.006.006.096.083.201.17a17.254 17.254 0 0 1 .642.563c0 .01-.07.133-.129.228a.594.594 0 0 0-.051.09c0 .007-.035.068-.077.137a2.328 2.328 0 0 0-.09.156 2.988 2.988 0 0 1-.092.16 6.954 6.954 0 0 0-.144.251 1.131 1.131 0 0 1-.11.18 6.563 6.563 0 0 1-.223.387 1.295 1.295 0 0 0-.067.113c0 .01-.183.327-.248.429a.666.666 0 0 0-.053.094c0 .005-.046.089-.103.186a41.337 41.337 0 0 0-.242.417 1.28 1.28 0 0 0-.05.09 2 2 0 0 1-.077.131c-.035.055-.07.114-.077.13a1.1 1.1 0 0 1-.05.091 4.465 4.465 0 0 0-.078.13l-.156.271a19.88 19.88 0 0 0-.24.422.68.68 0 0 1-.044.07c-.067.09-.058.11.167.355l.308.336c.05.054.154.167.233.25.078.085.191.206.25.272.06.065.14.152.179.192a20.176 20.176 0 0 0 .46.502 40.258 40.258 0 0 1 .583.633l.342.37a39.294 39.294 0 0 0 .53.57l.052.059-.005 1.647-.005 1.648-.492-.01c-.847-.017-1.17-.013-1.18.015-.004.015.017.03.055.038.034.007.067.02.073.03.006.01.027.017.047.017s.063.014.095.03c.031.017.072.03.091.03.019 0 .04.01.046.02.007.012.034.02.06.02.027 0 .054.01.06.02.008.012.036.021.064.021.027 0 .07.01.094.024.024.013.075.03.114.039.038.009.11.025.16.038.05.012.131.03.181.038.05.009.13.026.18.038.23.056.56.101.904.125.284.019.983.008 1.254-.021zm-.944-4.591a.662.662 0 0 1-.08-.095 1.898 1.898 0 0 0-.08-.102 3.83 3.83 0 0 1-.09-.109 4.04 4.04 0 0 1-.211-.26 3.908 3.908 0 0 0-.11-.141 3.252 3.252 0 0 1-.09-.11 5.951 5.951 0 0 0-.165-.198l-.086-.097-.005-.556-.005-.555-1.05-.005c-.987-.005-1.05-.007-1.04-.04.005-.019.02-.098.032-.175a3.11 3.11 0 0 1 .042-.211 5.67 5.67 0 0 0 .076-.452l.013-.1.11.007c.06.004.126.015.144.025.019.01.068.018.108.018.041 0 .11.01.154.024.075.022.08.02.127-.035a.287.287 0 0 0 .049-.074c0-.008.037-.074.081-.147.047-.076.077-.147.07-.166-.005-.018-.071-.066-.146-.105-.29-.154-.346-.188-.346-.212 0-.013.007-.027.015-.03a2.89 2.89 0 0 0 .226-.266l.258-.31c.049-.057.101-.104.118-.104a.57.57 0 0 1 .153.097c.068.053.18.135.248.183l.125.086.143-.097a.822.822 0 0 0 .161-.132c.012-.022.007-.075-.014-.15a4.789 4.789 0 0 1-.047-.188 3.223 3.223 0 0 0-.03-.12c-.012-.047-.006-.053.083-.078.172-.048.296-.088.332-.106a.261.261 0 0 1 .091-.017c.031 0 .065-.008.076-.018a.247.247 0 0 1 .092-.032c.084-.016.098-.002.12.12.023.12.057.277.07.317.01.031.042.035.3.035h.288l.012-.076a.695.695 0 0 1 .031-.12.323.323 0 0 0 .02-.101.66.66 0 0 1 .027-.145c.026-.086.03-.09.094-.083.036.004.135.025.218.047.084.022.19.049.237.058l.362.08c.105.024.107.025.095.087-.014.067-.06.244-.093.347-.02.063.003.147.038.147.008 0 .038.02.065.045.093.085.256.195.288.195.017 0 .061-.029.098-.065l.198-.19.13-.127.123.116.345.325c.196.185.267.283.204.283-.01 0-.03.011-.045.025a5.264 5.264 0 0 1-.202.163.859.859 0 0 0-.176.16c0 .055.193.404.227.41a.511.511 0 0 0 .15-.026l.195-.054a4.76 4.76 0 0 0 .177-.05.315.315 0 0 1 .122-.02c.015.006.036.075.05.167.012.087.033.221.046.298.012.078.029.2.037.271.008.072.021.156.03.186l.014.055h-1.042c-.783 0-1.047.006-1.066.024-.017.018-.024.175-.024.582v.557l-.065.076-.076.086a8.5 8.5 0 0 0-.17.21l-.19.239a12.729 12.729 0 0 0-.26.322 1.56 1.56 0 0 1-.166.192 3.28 3.28 0 0 1-.018-.436c-.004-.738-.01-.778-.135-.817-.057-.018-.18.056-.195.117a8.55 8.55 0 0 0-.005.59l.006.546-.021-.015z"/></svg>