<svg viewBox="0 0 24 24" xmlns="http://www.w3.org/2000/svg" role="img"><path d="M11.285 0C9.367.268 8.975 4.193 9.59 5.175l.013.089c.178 2.217 6.257 6.547 8.434 8.527-1.653 2.273-3.358 3.765-6.038 6.997h-.09c1.16.982 2.32 2.052 3.57 3.212l5.442-6.245c1.606-1.428 2.052-6.156-1.16-8.655.09 1.25-.517 2.677-1.07 3.748-.205.31-.408.603-.612.885l-.013-5.97-3.658-3.48c-1.25-1.16-2.89-2.41-3.123-4.283zM7.633 6.35c-2.143.07-3.68 2.023-5.787 4.356l-.004.09.004 7.226 5.531-6.245c1.785-2.07 2.142-2.23 4.55-2.409-.267-1.249-1.605-2.56-3.033-2.855a4.128 4.128 0 0 0-1.26-.164zm3.741 3.91a4.015 4.015 0 0 0-4.014 4.015 4.015 4.015 0 0 0 4.014 4.015 4.015 4.015 0 0 0 4.015-4.015 4.015 4.015 0 0 0-4.015-4.015zm-6.248 4.283c-.095 2.141.058 4.282.003 6.424.535.713 1.784 1.971 3.212 2.14h-.003c2.32.358 3.827-1.873 3.836-4.103-2.23.803-5.442-2.855-7.048-4.461z"/></svg>