<svg role="img" viewBox="0 0 24 24" xmlns="http://www.w3.org/2000/svg"><path d="m.568 23.928-.07-.075.07-.075c.08-.085.127-.093.179-.03.032.037.046.037.11-.006.071-.046.078-.045.151.028.076.076.076.077.02.154-.062.086-.104.095-.19.042-.046-.03-.066-.03-.095 0-.055.054-.096.045-.175-.038zm5.338-.002c-.048-.074-.048-.08.026-.153.072-.072.079-.074.15-.027.066.043.078.044.112.003.05-.06.1-.058.16.009.065.071.063.133-.005.195-.064.059-.144.064-.163.012-.01-.03-.026-.03-.077 0-.095.056-.147.046-.203-.04zm2.369-.308c-.18-.037-.242-.062-.25-.102-.007-.04.011-.052.082-.052.237 0 .539-.174.643-.37l.056-.106-.079-.094c-.095-.112-.095-.117-.016-.251.078-.133.131-.135.195-.01.11.217.016.203 1.288.203.632 0 1.148-.007 1.148-.016a.776.776 0 0 0-.077-.132l-.077-.116.077-.123c.043-.067.09-.122.106-.122.047 0 .15.384.15.559 0 .303.112.279-1.281.279-.89 0-1.23-.01-1.255-.035-.027-.027-.039-.025-.049.007a4.27 4.27 0 0 0-.048.155.612.612 0 0 1-.271.337.421.421 0 0 1-.094.04 10.879 10.879 0 0 0-.248-.052zm-7.738 0a.537.537 0 0 1-.222-.193c-.044-.067-.05-.117-.035-.269.023-.215.078-.39.15-.474.078-.091.11-.04.062.098a.953.953 0 0 0-.043.264c0 .208.062.253.37.265.26.01.486-.024.477-.071-.003-.016-.073-.042-.156-.059a.65.65 0 0 1-.167-.048c-.026-.027.009-.149.062-.22.042-.057.089-.062.779-.076l.734-.015-.08-.117-.079-.117.055-.114c.03-.063.072-.121.094-.13.09-.035.221.518.167.708l-.029.1-.56.008c-.479.007-.56.014-.56.053 0 .095-.094.223-.217.294-.191.111-.658.177-.801.114zm5.332-.014a.524.524 0 0 1-.176-.125c-.07-.081-.074-.104-.059-.317a.964.964 0 0 1 .088-.376c.075-.15.135-.17.12-.04-.045.36-.041.435.024.494.052.047.119.061.322.07.244.01.515-.036.47-.08a.66.66 0 0 0-.174-.05c-.18-.035-.206-.093-.11-.247l.06-.098h.508c.556 0 .57-.005.446-.162-.063-.08-.063-.082-.007-.198.1-.21.144-.18.239.166.048.176.053.34.012.447-.029.076-.031.076-.37.076h-.34l-.035.119c-.038.128-.124.202-.329.282-.174.067-.557.09-.689.04zm8.006.01a.394.394 0 0 1-.249-.234c-.049-.115-.013-.384.08-.593.099-.228.189-.189.106.046-.065.182-.057.285.026.382.072.083.077.084.418.084.228 0 .357-.012.38-.036.028-.027.017-.04-.05-.055-.048-.011-.127-.03-.177-.04-.111-.027-.126-.104-.045-.235l.06-.098h.689v-.102c0-.132.173-.348.35-.437.16-.08.214-.07.302.06.06.09.07.133.06.292l-.012.187h2.258l.033-.097c.046-.133.166-.275.21-.248.04.025.014.246-.036.308-.023.028-.005.037.078.037.086 0 .109-.011.109-.055 0-.066.17-.289.22-.289.033 0 .034.05.002.247-.015.095-.013.097.094.097s.11-.003.092-.091c-.014-.068-.001-.115.047-.18.103-.14.143-.114.143.092v.18h.296c.324 0 .332-.005.334-.19 0-.106.157-.306.212-.272.02.012.028.102.022.233l-.01.213h.687l.015-.08c.018-.092.17-.274.21-.25.029.02.006.212-.035.293-.023.045-.012.052.079.052.087 0 .106-.01.106-.061 0-.066.17-.298.218-.298.018 0 .022.07.01.182l-.018.181.097-.009c.086-.008.096-.018.088-.093-.01-.093.093-.26.16-.26.033 0 .043.043.043.18v.182l.185-.01.185-.008.092-.157c.108-.183.182-.245.292-.247.076 0 .204.116.204.186a.55.55 0 0 0 .048.13c.047.1.052.102.235.102h.187l-.015-.157a3.562 3.562 0 0 0-.08-.417L22.844 22l.06-.106c.034-.058.077-.106.095-.106.035 0 .194.224.194.272a.228.228 0 0 1-.035.084c-.027.043-.026.115 0 .306.048.34.044.439-.024.587l-.058.128h-.246c-.192 0-.258.011-.303.052-.056.05-.068.047-.292-.072L22 23.021l-.065.07-.065.068-1.02.002c-.87.002-1.028-.005-1.07-.043-.045-.04-.055-.04-.088 0-.032.039-.31.045-2.137.045h-2.39l-.293.002v.092c0 .192-.294.35-.693.373-.12.007-.258 0-.305-.015zm1.741-.86c.012-.087-.044-.188-.106-.188-.05 0-.188.112-.188.154 0 .038.16.115.225.107.036-.004.063-.033.069-.072zm6.724-.038c-.027-.031-.07-.049-.092-.04-.065.025-.05.063.04.111.097.051.127.01.052-.071zm-20.166.843c-.062-.069-.063-.123-.003-.208.06-.086.136-.085.218.003.084.09.082.122-.014.198-.097.076-.137.077-.201.007zm8.733-.066c-.097-.102-.087-.148.052-.232.076-.046.085-.045.142.007.057.052.065.052.116.006.075-.067.133-.062.21.02.084.09.082.112-.025.215l-.09.086-.075-.071-.075-.07-.06.064c-.08.085-.091.083-.195-.025zm-8.034-.373a.425.425 0 0 1-.052-.173l-.014-.128.317.011c.175.006.317.004.317-.006 0-.048-.13-.239-.215-.315l-.097-.086.082-.123c.045-.068.092-.123.106-.123.045 0 .204.252.254.402.058.172.066.497.014.55-.056.056-.664.048-.712-.01zm4.984.011c-.017-.05-.107-.861-.105-.96 0-.074.162-.29.193-.259.01.01.024.085.031.164.007.08.029.284.048.453.026.232.026.336 0 .422-.04.134-.144.246-.167.18zm3.94-.003c-.02-.02-.036-.087-.036-.149 0-.106.008-.116.147-.176a.777.777 0 0 0 .212-.133l.066-.07-.127-.137c-.1-.108-.135-.13-.167-.104-.057.047-.18-.037-.24-.163-.042-.088-.042-.109 0-.208.025-.061.06-.11.076-.11.055 0 .398.305.49.436.05.071.104.122.118.113.015-.01.024-.12.02-.246-.006-.18.004-.247.046-.311.057-.087.137-.111.137-.042 0 .022.027.064.06.094.075.068.076.165.005.258-.065.084-.162.345-.16.43 0 .033.018.138.038.232.028.13.029.19.003.247-.033.073-.042.075-.343.075-.2 0-.322-.013-.345-.036zm.503-.303c0-.063-.034-.08-.094-.048-.08.042-.07.088.019.088.042 0 .075-.018.075-.04zm.566.317a22.677 22.677 0 0 0-.076-.639l-.048-.376.078-.085a.344.344 0 0 0 .078-.11c0-.013.019-.025.042-.025.032 0 .048.077.066.322.041.545.034.76-.03.853-.053.079-.105.107-.11.06zm10.586.002a.334.334 0 0 1-.02-.136c0-.063-.021-.284-.048-.49l-.048-.375.082-.118c.085-.122.128-.146.147-.081.006.02.027.241.047.49.035.433.034.458-.025.59-.059.134-.091.163-.135.12zm-19.182-.47c-.032-.085.05-.109.367-.109.33.001.411.022.38.102-.015.04-.075.048-.374.048-.276 0-.36-.01-.373-.042zm14.2-.418c-.082-.087-.082-.114.004-.194.063-.06.074-.061.134-.019.06.042.073.042.132 0 .061-.042.071-.04.135.019.038.035.069.08.069.099 0 .019-.031.064-.07.1-.063.06-.072.06-.136.016-.061-.043-.072-.043-.12 0-.068.062-.07.062-.148-.02zm.87-.067c-.082-.056-.086-.136-.013-.203.063-.057.13-.063.176-.017.023.023.05.021.095-.007.07-.043.138-.017.196.074.025.04.015.067-.05.13-.078.08-.081.08-.141.026-.057-.051-.065-.052-.116-.006-.066.06-.066.06-.148.003zm-4.102-.052c-.086-.092-.082-.153.015-.23l.08-.063.088.088.088.087-.07.094c-.081.111-.115.115-.201.024zm-8.023-.099c-.069-.087-.048-.165.06-.223.047-.025.078-.021.135.016.108.07.118.128.04.212-.088.094-.158.093-.235-.005zm11.385-.07c-.06-.067-.046-.133.039-.178.045-.024.069-.018.11.028.045.049.048.072.02.134-.04.09-.097.095-.169.016zm-7.887-2.691a.936.936 0 0 1-.543-.483.862.862 0 0 1 .013-.707c.097-.188.318-.388.482-.436.392-.115.743.039.971.425.068.115.08.168.08.374 0 .191-.014.265-.068.367a.954.954 0 0 1-.395.396c-.14.072-.416.104-.54.064zm.363-.277a.578.578 0 0 0 .316-.807.508.508 0 0 0-.484-.295c-.147 0-.2.015-.296.082a.535.535 0 0 0-.234.467c.002.204.064.35.191.447.183.14.32.168.507.106zm1.026.262c-.135-.061-.259-.236-.263-.371-.003-.108 0-.112.101-.112.08 0 .107.014.115.06a.253.253 0 0 0 .23.195c.14 0 .224-.095.224-.252 0-.14-.013-.15-.363-.297a.452.452 0 0 1-.278-.41c.007-.443.542-.629.782-.271.096.141.092.26-.009.28-.078.015-.086.009-.195-.135-.112-.15-.326-.076-.326.113 0 .117.057.166.266.227.433.127.518.659.149.932a.507.507 0 0 1-.434.04zm7.934.005a.532.532 0 0 1-.28-.249c-.04-.075-.048-.193-.049-.718v-.628h.239l.016.598c.009.33.027.623.041.654.054.113.269.143.381.052.07-.056.071-.07.086-.68l.015-.624h.24l.003.586c.004.628-.015.748-.143.887a.51.51 0 0 1-.549.122zM.333 19.233c-.025-.03-.033-.251-.027-.802l.008-.76.128-.008.127-.01-.008.803-.008.802-.092.01c-.053.004-.107-.01-.128-.034zm.508-.002c-.024-.029-.032-.265-.026-.8l.008-.76.336-.008c.478-.012.614.063.7.388a.4.4 0 0 1 .001.258c-.04.135-.24.335-.335.335-.032 0-.06.007-.06.016 0 .022.307.444.34.467.043.03.008.13-.05.14-.131.026-.197-.029-.427-.353a3.303 3.303 0 0 0-.25-.33c-.009 0-.012.136-.007.302.006.202-.002.315-.026.344-.045.054-.16.055-.204.002zm.623-.825c.063-.032.123-.08.133-.107.025-.066.023-.231-.004-.272-.045-.069-.219-.131-.365-.131h-.15v.568h.135a.647.647 0 0 0 .25-.058zm.432.82c-.016-.04.023-.156.243-.717l.182-.479a2.96 2.96 0 0 1 .141-.336c.046-.06.25-.048.275.015.01.029.135.355.277.725.14.37.27.69.285.711.044.056-.029.127-.129.127-.098 0-.106-.01-.21-.269l-.08-.194h-.588l-.078.203c-.042.113-.097.217-.12.232-.069.043-.179.033-.198-.017zm.797-.947a4.717 4.717 0 0 1-.09-.262 7.46 7.46 0 0 0-.209.5c0 .004.087.007.194.007h.194zm.722.952c-.024-.029-.032-.265-.027-.8l.008-.76.123-.009.123-.009.354.555c.195.306.361.556.37.556.01 0 .018-.245.018-.544v-.544l.08-.022c.173-.046.176-.028.167.807-.009.828-.012.843-.18.801-.058-.015-.153-.143-.415-.56a23.91 23.91 0 0 0-.38-.59c-.032-.043-.037.045-.025.522.009.39.003.584-.02.606-.045.045-.156.04-.197-.01zm1.5.022c-.028-.012-.037-.202-.037-.808v-.792l.127.009.127.009.008.722c.005.427-.004.755-.022.8-.028.077-.105.099-.203.06zm.296-.007c-.032-.021.012-.16.216-.685.14-.362.264-.69.274-.73.035-.135.09-.18.213-.17l.114.01.265.688c.146.379.28.718.297.754.046.095.01.159-.092.159-.108 0-.128-.025-.229-.277l-.08-.202h-.581l-.051.142c-.108.3-.213.394-.346.31zm.864-.752c0-.017-.034-.114-.075-.215a1.233 1.233 0 0 1-.075-.224c0-.128-.085.049-.2.417-.014.046.006.052.167.052.104 0 .183-.013.183-.03zm.633.739c-.026-.031-.033-.252-.028-.802l.008-.76h.268l.18.276c.1.151.265.407.368.568l.187.293v-1.152h.24l-.008.8-.008.801h-.104c-.116 0-.14-.03-.638-.818l-.215-.34-.015.58-.015.578-.093.01c-.053.004-.107-.01-.127-.034zm2.128.02c-.029-.012-.038-.202-.038-.808v-.792l.127.009.128.009.009.321.008.322h.594l.008-.322.008-.321.128-.01.127-.008-.008.802-.008.802-.084.01c-.148.017-.17-.03-.17-.372v-.31h-.598v.308c0 .2-.013.32-.036.344-.037.036-.128.044-.196.016zm4.126-.02c-.025-.031-.033-.252-.027-.802l.008-.76.331-.008c.303-.008.34-.003.434.06.15.1.213.242.2.444a.513.513 0 0 1-.069.246c-.08.11-.292.21-.482.225l-.158.014-.008.303-.008.303-.092.009c-.053.005-.107-.01-.128-.034zm.662-.95a.262.262 0 0 0 .051-.144c-.002-.153-.128-.243-.34-.243h-.138v.22c0 .12.01.229.023.242.012.012.096.015.187.006.119-.012.179-.035.217-.082zm.474.948c-.024-.029-.031-.265-.026-.8l.008-.76h.24l.008.776c.006.601 0 .782-.03.8-.06.038-.162.03-.2-.016zm.693.022c-.028-.012-.037-.177-.037-.685V17.9l-.142-.009c-.141-.009-.143-.01-.152-.121l-.009-.113h.419c.392 0 .42.004.438.06.038.122-.008.176-.159.186l-.14.009-.005.654c-.003.52-.012.66-.045.68a.188.188 0 0 1-.168.007zm.335-.019c-.008-.02.12-.38.282-.8l.297-.763h.255l.172.45c.095.246.186.482.204.523.017.041.053.135.078.21.026.073.068.179.093.233.06.126.037.185-.069.185-.122 0-.147-.026-.22-.225-.097-.263-.087-.257-.41-.247l-.283.009-.068.187a1.204 1.204 0 0 1-.105.232c-.045.055-.206.06-.226.007zm.885-.73c0-.045-.167-.458-.185-.458-.011 0-.043.07-.071.156-.029.087-.07.195-.093.24l-.042.082h.195c.108 0 .196-.009.196-.02zm.632.728c-.025-.03-.033-.257-.027-.801l.008-.76.127-.009.127-.009v1.348l.247.009c.246.009.247.009.257.093.016.145-.026.163-.38.168-.246.003-.333-.006-.36-.038zm1.62.021c-.029-.012-.038-.202-.038-.806v-.79h.382c.366 0 .387.004.533.087a.929.929 0 0 1 .233.194c.308.403.174 1.032-.264 1.244-.106.052-.202.067-.471.076a2.434 2.434 0 0 1-.375-.005zm.816-.353a.57.57 0 0 0 .152-.184.796.796 0 0 0-.018-.545c-.049-.107-.086-.14-.225-.202a.807.807 0 0 0-.345-.073h-.178v.548c0 .302.006.555.013.562.007.007.12.005.252-.004.2-.015.256-.031.349-.102zm1.9.329c-.02-.026-.029-.288-.023-.798l.008-.76.284-.008c.24-.007.3.001.38.051a.41.41 0 0 1 .16.554l-.061.118.07.077c.172.185.163.45-.022.655-.092.103-.18.128-.488.14-.2.007-.284 0-.307-.03zm.581-.26c.091-.042.119-.116.093-.253-.022-.12-.072-.151-.28-.179l-.155-.02v.486h.133a.623.623 0 0 0 .209-.034zm-.04-.732a.213.213 0 0 0 .057-.148c0-.118-.098-.193-.253-.193h-.106v.19c0 .104.01.199.022.211.035.036.219-.004.28-.06zm.4.998c-.009-.022.117-.383.28-.802.29-.744.298-.76.39-.78.054-.01.111-.005.136.015.023.018.152.323.286.677.135.353.266.692.291.753.055.13.035.174-.074.174-.119 0-.145-.027-.217-.225-.097-.263-.087-.257-.413-.247l-.285.009-.025.09c-.014.05-.055.15-.092.224-.056.114-.082.136-.164.144-.062.006-.103-.006-.113-.031zm.874-.763c-.074-.234-.157-.457-.17-.457-.012 0-.095.223-.17.457-.014.046.007.052.17.052.165 0 .185-.006.17-.052zm.642.76c-.024-.03-.032-.266-.026-.801l.008-.76h.239l.008.776c.006.601 0 .782-.03.8-.06.038-.162.03-.2-.016zm-5.964-.506c-.013-.11-.011-.13.014-.164.018-.025.11-.038.26-.038.259 0 .32.035.287.164-.018.074-.025.076-.287.076-.193 0-.27-.011-.274-.038zm-3.03-3.165c-.214-.067-.407-.37-.407-.637 0-.348.27-.68.554-.68.17 0 .506.267.45.358-.023.037-.196.043-.196.008 0-.044-.174-.126-.269-.126-.12 0-.25.091-.299.209a.774.774 0 0 0-.024.29c.011.183.02.206.114.284a.319.319 0 0 0 .203.085c.1 0 .275-.08.275-.126 0-.034.173-.029.195.007.024.04-.084.19-.191.267a.522.522 0 0 1-.405.062zm3.72-.003c-.082-.03-.206-.221-.206-.319 0-.033.022-.068.049-.079.054-.02.13.03.13.086 0 .02.028.062.06.091.053.048.07.05.135.015.062-.033.075-.062.075-.167 0-.125-.004-.13-.157-.202-.18-.085-.262-.2-.262-.363 0-.185.144-.375.284-.375.094 0 .217.089.265.19.092.192-.019.27-.158.111-.064-.073-.089-.083-.146-.06-.056.022-.068.046-.06.125.008.082.03.108.143.162.205.098.27.192.27.388s-.059.323-.178.385c-.1.051-.133.053-.243.012zm1.272-.023c-.208-.096-.345-.339-.347-.617-.002-.338.22-.625.511-.665.095-.012.149 0 .252.062.136.079.23.192.23.273 0 .073-.144.055-.244-.029-.241-.203-.563.014-.563.38 0 .332.332.532.563.338.1-.084.245-.101.245-.029 0 .073-.088.188-.19.25a.48.48 0 0 1-.457.037zM.377 15.513c-.031-.08-.017-1.125.016-1.187a.091.091 0 0 1 .095-.046c.065.01.065.015.065.638v.629l-.078.009c-.053.006-.085-.008-.098-.043zm.773.01a7.613 7.613 0 0 1-.007-.636l.008-.597.195-.008c.24-.01.381.053.456.202.097.195.035.48-.12.557-.106.052-.106.054.022.246.145.22.152.275.035.275-.074 0-.104-.03-.224-.226a1.612 1.612 0 0 1-.14-.254.029.029 0 0 0-.027-.029c-.015 0-.027.1-.026.22a.972.972 0 0 1-.019.254c-.028.047-.135.044-.153-.004zm.46-.666c.079-.056.09-.224.02-.295-.052-.052-.234-.093-.282-.064-.034.021-.044.352-.011.385.036.037.205.02.272-.026zm.664.663c0-.063.361-1.162.397-1.208.043-.054.135-.046.167.015.064.12.396 1.177.379 1.205-.026.042-.127.037-.155-.007a1.218 1.218 0 0 1-.07-.172l-.044-.135-.199-.01-.198-.008-.056.173c-.049.15-.067.175-.139.183-.057.007-.082-.004-.082-.036zm.577-.589c-.016-.11-.08-.327-.096-.327-.017 0-.122.317-.122.366 0 .01.05.016.112.012.078-.005.11-.021.106-.051zm.859.595c-.019-.8-.02-1.142-.007-1.192.012-.047.036-.06.094-.053.067.008.112.07.306.42.125.227.238.422.251.435.013.012.015-.156.005-.373a2.907 2.907 0 0 1 0-.441c.028-.074.156-.06.176.02.009.037.013.323.008.636l-.009.569-.079.009c-.072.008-.094-.02-.27-.345a13.594 13.594 0 0 1-.245-.465.77.77 0 0 0-.058-.112 9.15 9.15 0 0 0-.006.456v.456l-.083.01c-.052.005-.082-.006-.083-.03zm1.421 0a6.887 6.887 0 0 1-.007-.639l.008-.597h.15v1.257l-.068.01c-.037.005-.074-.01-.082-.031zm.615-.004c0-.051.346-1.109.39-1.19.035-.065.126-.076.17-.02.034.042.398 1.153.397 1.212 0 .02-.034.037-.075.037-.076 0-.088-.019-.19-.277-.03-.077-.043-.082-.22-.082h-.19l-.058.172c-.051.148-.071.174-.142.182-.056.006-.082-.004-.082-.034zm.598-.552c-.002-.078-.117-.374-.131-.337-.05.13-.108.31-.108.333 0 .015.054.027.12.027.065 0 .119-.01.119-.023zm.823.524a6.656 6.656 0 0 1-.008-.618c.008-.486.014-.554.06-.583.068-.043.142 0 .204.118l.224.417.179.33.015-.435.015-.434h.149v1.257l-.077.01c-.072.007-.095-.023-.285-.373a7.482 7.482 0 0 1-.231-.45c-.014-.038-.039-.07-.056-.07-.02 0-.023.108-.009.314.012.172.013.374.001.449-.017.117-.03.135-.092.135-.05 0-.078-.02-.09-.067zm2.274.031a6.887 6.887 0 0 1-.007-.638l.008-.598.185-.009c.23-.01.377.047.458.18.111.182.052.48-.116.586l-.088.055a.95.95 0 0 0 .112.187c.148.217.155.273.035.273-.078 0-.105-.029-.247-.26l-.16-.26-.015.252c-.014.235-.02.254-.082.263-.037.005-.074-.01-.083-.031zm.458-.669c.049-.034.066-.076.066-.16 0-.14-.048-.185-.224-.205l-.135-.015v.427h.113a.371.371 0 0 0 .18-.047zm.774.639c-.028-.103-.022-1.14.006-1.184.018-.028.098-.037.291-.03l.267.009.009.097.009.097h-.393v.329h.393l-.009.098-.009.097-.189.01-.188.008.009.156.009.155.15.005.188.007c.026.001.037.035.03.1l-.009.097-.273.01c-.262.007-.273.005-.291-.06zm1.161.028a7.613 7.613 0 0 1-.007-.636l.008-.598h.258c.235.001.267.009.367.085.169.129.242.294.24.544-.002.295-.098.475-.317.587-.134.068-.525.08-.55.018zm.475-.212c.15-.063.2-.164.2-.4-.001-.113-.018-.224-.039-.251a.548.548 0 0 0-.357-.176H12v.868h.106a.65.65 0 0 0 .204-.041zm3.327.214a6.887 6.887 0 0 1-.007-.638l.008-.598h.212c.12 0 .245.018.287.04.254.136.244.59-.015.717l-.078.039.134.21c.14.218.146.266.031.266-.082 0-.12-.042-.274-.304l-.118-.2-.015.244c-.014.226-.02.246-.082.255-.037.005-.075-.01-.083-.03zm.44-.672c.066-.06.073-.256.01-.308a.417.417 0 0 0-.164-.053l-.12-.016v.427h.109c.06 0 .134-.022.165-.05zm.79.66c-.023-.061-.023-1.025.001-1.145l.019-.094h.25c.215 0 .253.008.28.058.059.11.009.152-.182.152h-.176v.329h.176c.187 0 .234.037.197.154-.015.046-.049.056-.192.056h-.175l-.01.136a.516.516 0 0 0 .003.162c.008.013.076.025.15.025.203 0 .204.002.223.061.041.13-.004.154-.283.154-.212 0-.266-.009-.28-.047zm3.801 0a5.67 5.67 0 0 1-.018-.595c0-.302.008-.57.018-.596.015-.039.07-.048.287-.048h.268l-.01.098c-.008.096-.011.097-.188.112l-.18.015v.3l.189.008.189.01-.01.095c-.008.094-.011.096-.188.11l-.18.016v.299l.15.005.187.007c.023.001.038.044.038.107v.105h-.267c-.215 0-.27-.01-.284-.048zm1.144 0a10.18 10.18 0 0 1 .005-.637l.015-.587h.073c.08 0 .112.046.39.569.088.165.166.306.174.314.008.008.006-.173-.004-.404-.01-.23-.007-.437.007-.459.015-.022.058-.035.098-.03l.071.01v1.257l-.079.01c-.084.01-.054.055-.453-.683a1.97 1.97 0 0 0-.11-.19c-.013-.013-.022.176-.02.42l.003.443-.08.01c-.055.005-.082-.007-.09-.042zm1.525-.48-.008-.534-.09-.015c-.076-.013-.09-.03-.09-.105v-.09l.276-.009c.272-.008.277-.007.295.066.025.1-.004.137-.108.137h-.087l-.008.532-.008.53-.082.01-.081.009zm-17.51-2.365c-.012-.01-.02-2.866-.02-6.344V-.001l6.292.008 6.292.008.008 6.297c.006 4.629-.001 6.307-.026 6.337-.028.033-1.06.04-6.28.04-3.435 0-6.255-.009-6.266-.02zm11.96-4.73c.017-3.226.027-6.94.021-7.223 0-.043-.312-.048-3.255-.052-1.79-.003-4.34-.014-5.668-.025L6.471.618l-.019 3.858-.026 5.653-.007 1.796 2.783.007c1.53.004 2.925.011 3.098.016.172.005 1.473.012 2.89.015l2.577.006zm-6.205 3.09a7.524 7.524 0 0 0-.269-.047 6.142 6.142 0 0 1-.95-.254c-.774-.337-1.3-.705-1.795-1.255-1.295-1.44-1.585-3.536-.728-5.253A4.926 4.926 0 0 1 9.75 2.202a4.776 4.776 0 0 1 4.507-.103c.5.251 1.041.677 1.42 1.117.221.256.508.654.6.831.062.119.01.142-.079.037-.659-.772-1.391-1.198-2.312-1.346a3.709 3.709 0 0 0-3.237 1.04c-.518.516-.847 1.137-1.002 1.892-.072.352-.074 1.036-.004 1.379.19.926.68 1.717 1.402 2.256 1.408 1.053 3.491.941 4.785-.257.456-.422.15.075-.373.605-.597.606-1.48 1.097-2.275 1.266-.082.017-.21.047-.284.065-.126.03-1.218.068-1.317.044z"/></svg>