<svg viewBox="0 0 24 24" xmlns="http://www.w3.org/2000/svg" role="img"><path d="M12.467 18.535c-.18-.098-.24-.343-.128-.528.172-.281.619-.198.68.128a.378.378 0 0 1-.552.4zm1.934-1.002v-1.054h.58c.77 0 .94.059 1.087.378.154.333.02.685-.311.824-.111.046-.121.059-.084.108.058.076.518.63.6.723l.066.074h-.759l-.257-.362c-.142-.2-.27-.362-.285-.362-.015 0-.028.163-.028.362v.362h-.609zm.976-.218c.14-.127.026-.315-.193-.322l-.124-.004-.01.16c-.015.232.005.264.146.24a.419.419 0 0 0 .18-.074zm1.08 1.175c-.058-.058-.096-.13-.096-.184 0-.052.038-.125.096-.183l.096-.096h2.937c2.6 0 2.957-.006 3.118-.053.346-.1.582-.281.729-.557l.087-.164V6.813l-.106-.217a1.067 1.067 0 0 0-.58-.552c-.18-.067-.243-.07-1.458-.07h-1.269l-.096-.097c-.125-.125-.125-.242 0-.367l.096-.096h1.312c1.17 0 1.336.007 1.53.06.55.152.945.575 1.098 1.173.043.172.05.846.049 5.385 0 3.44-.012 5.237-.035 5.335-.083.363-.355.752-.655.938a2.31 2.31 0 0 1-.653.246c-.116.024-1.173.035-3.14.035h-2.964Zm-10.635-.974V16.48h.692v2.074h-.692zm7.575 0V16.48h.691v2.074h-.691zm-10.826.782c-.427-.315-.424-.306-.211-.713.255-.487.466-.791.559-.804.1-.014.27.1.521.353l.203.204.258-.389c.18-.27.28-.391.33-.398.173-.025.582.316.69.576.101.242-.024.557-.369.93-.249.268-.293.267-.631-.025a6.906 6.906 0 0 0-.297-.247c-.02-.013-.094.072-.175.2-.227.363-.397.535-.527.535-.028 0-.186-.1-.351-.222zm4.207-.56c0-.753.003-.788.078-.946a.78.78 0 0 1 .415-.41c.376-.17.825.012 1.01.408.074.16.077.196.077.948v.783H7.7v-.494h-.263v.494h-.658v-.783zm.922-.38c0-.151-.044-.22-.138-.22-.075 0-.126.097-.126.244 0 .115.003.118.132.118H7.7zm.895.347c.01-.767.014-.823.083-.951a.829.829 0 0 1 .721-.44c.3.001.66.285.734.576.021.085.036.455.036.888v.743H9.51v-.653c0-.652-.012-.73-.119-.73-.022 0-.063.023-.092.051-.043.044-.052.154-.052.692v.64h-.662zm1.772.054c0-.85.016-.947.193-1.153.29-.339.764-.383 1.093-.102.264.227.277.279.289 1.201l.01.815h-.662v-.493h-.264v.493h-.659Zm.922-.401c0-.151-.043-.22-.137-.22-.076 0-.126.097-.126.244 0 .115.003.118.131.118h.132zm5.356.018c.013-.05.293-.49.622-.98.933-1.386 1.037-1.607 1.037-2.21 0-.499.063-.671.355-.975.253-.263.646-.497 1.258-.75.635-.262 1.571-.481 1.664-.389.02.02-.26.331-2.108 2.332l-1.707 1.853a67.259 67.259 0 0 1-1.129 1.21c-.008 0-.004-.041.008-.09zM.587 15.454c-.343-.137-.544-.533-.583-1.149-.049-.79.333-3.668.573-4.314.199-.534.409-.988.457-.988.085 0 .062.26-.165 1.91C.726 11.951.644 12.82.664 13.09c.02.279.092.522.195.661a.67.67 0 0 0 .47.225c.244 0 .418-.163.572-.534.068-.162.104-.21.165-.218.077-.011.078-.01.057.214-.028.291-.19.896-.319 1.181-.191.427-.46.735-.734.837a.913.913 0 0 1-.483-.002zm2.55-.013c-.152-.067-.36-.313-.436-.516-.159-.424-.167-.942-.036-2.168a23.88 23.88 0 0 1 .294-1.971c.098-.533.202-.843.536-1.593.087-.195.187-.257.187-.116 0 .123-.097.923-.198 1.639-.188 1.334-.21 1.557-.212 2.157-.002.546.004.603.07.724.188.35.517.472.817.304.11-.062.156-.123.28-.378.3-.617.363-.23.104.65-.25.85-.658 1.322-1.141 1.315a.83.83 0 0 1-.265-.047zm14.014-.535c-.358-.668-.987-1.639-1.33-2.05-.254-.306-.442-.477-.695-.634-.578-.356-.821-.864-.642-1.342.061-.165.118-.24.325-.432.266-.247.696-.523.814-.523.132 0 .231.197.474.942l.494 1.512c.142.434.325.997.406 1.251.08.254.244.722.363 1.04.2.537.213.589.18.7-.021.067-.047.12-.057.12-.01 0-.16-.262-.332-.584zm-11.907.18a1.075 1.075 0 0 1 .038-.288c.147-.667.15-.694.163-1.843.015-1.235.031-1.401.186-1.891.144-.457.516-1.188.603-1.188.05 0 .065.02.06.082l-.04.61c-.02.29-.051.963-.069 1.498-.034 1.046-.083 1.48-.217 1.893-.213.661-.645 1.333-.724 1.127zm12.41-.196c-.043-.054-.252-.675-.375-1.112-.179-.638-.197-.785-.175-1.416.022-.648.064-.85.227-1.1.226-.346.394-.473.923-.696.945-.399 1.406-.683 1.732-1.067.1-.119.26-.358.353-.53.207-.385.303-.793.302-1.279-.001-.36-.035-.524-.233-1.127-.116-.353-.133-.435-.095-.458.025-.016.056-.022.069-.014.092.057.743.89.995 1.275.521.794.76 1.227.94 1.71.242.646.28.811.258 1.146-.03.466-.202.802-.544 1.065-.279.215-.507.296-1.248.445-.718.145-.877.204-1.564.582a2.683 2.683 0 0 0-1.113 1.134c-.182.361-.262.667-.315 1.194-.023.228-.076.325-.137.248zm-.44-4.975a1.145 1.145 0 0 1-.734-.614c-.105-.228-.098-.617.016-.86a1.2 1.2 0 0 1 .82-.676c.53-.135 1.077.105 1.308.574.077.157.091.229.091.45 0 .232-.013.292-.107.483a1.14 1.14 0 0 1-.585.56c-.246.115-.577.149-.809.083zM1.976 8.93c-.454-.278-.48-.302-.455-.43.024-.129.283-.653.453-.915.143-.221.239-.265.405-.185.161.076.498.402.573.554.06.121.062.149.023.278-.094.312-.49.904-.604.904-.032 0-.21-.093-.394-.206z"/></svg>