<svg role="img" viewBox="0 0 24 24" xmlns="http://www.w3.org/2000/svg"><path d="M8.787 23.938c-.08-.08-.091-.125-.05-.198.058-.103.091-.255.13-.586a1.6 1.6 0 0 1 .056-.314c.049-.123.131-.279.144-.27.017.01-.106.832-.141.942a.757.757 0 0 1-.08.164c-.027.04-.045.076-.042.083.014.022.137.011.192-.017a.385.385 0 0 0 .165-.194c.012-.032.038-.204.06-.381a3.5 3.5 0 0 1 .059-.388c.029-.085.133-.293.142-.284.004.004-.01.126-.03.271-.056.378-.041.477.076.525.07.03.201.02.25-.017l.09-.07a.176.176 0 0 1 .127-.045c.067 0 .076-.006.128-.065.03-.036.065-.062.078-.06.032.007.074-.036.115-.115.074-.146.077-.04.003.114-.034.073-.065.11-.168.196-.155.13-.177.143-.238.131-.045-.008-.052-.004-.125.081-.11.128-.157.171-.21.194a.218.218 0 0 1-.26-.057l-.027-.036-.04.104c-.083.213-.207.354-.31.354-.018 0-.059-.026-.094-.062zm3.834-.034c-.032-.013-.063-.093-.063-.163 0-.076.037-.219.069-.269.014-.022.015-.032.004-.032-.041 0 .043-.23.107-.295.064-.063.2-.035.252.052.068.111.05.292-.05.49-.056.113-.106.175-.167.207a.232.232 0 0 1-.152.01zm.21-.242c.102-.073.046-.185-.104-.208l-.062-.009-.018.093c-.018.091-.018.095.014.12.04.032.126.034.17.004zm.49.197a.319.319 0 0 1-.073-.118c-.033-.112-.022-.39.029-.754.041-.293.053-.346.105-.478a.94.94 0 0 1 .064-.143 2.32 2.32 0 0 1-.03.241c-.02.13-.04.288-.045.35l-.01.115.038-.03c.122-.096.948-1.025 1.087-1.223.035-.05.066-.085.069-.077.008.024-.076.192-.159.318-.115.175-.286.383-.585.71a4.1 4.1 0 0 0-.253.292.815.815 0 0 0 .119.032c.061.014.176.043.253.065.187.051.262.043.34-.036.038-.04.058-.051.073-.042.03.02.035.018.087-.026.027-.022.06-.037.078-.035.017.002.05-.012.073-.03a.196.196 0 0 1 .076-.041c.058-.008.087-.067.11-.22a.85.85 0 0 1 .085-.277.682.682 0 0 1 .073-.133.494.494 0 0 1 0 .14c-.028.387-.133.592-.359.7-.056.026-.2.08-.32.12-.216.074-.217.074-.28.052-.076-.027-.08-.022-.135.143-.075.226-.175.378-.275.42a.353.353 0 0 1-.113.02c-.058 0-.074-.007-.121-.055zm.332-.319c.157-.08.192-.242.063-.296a.61.61 0 0 0-.166-.024c-.11-.003-.117-.001-.15.037-.057.066-.044.205.026.28.04.042.147.044.227.004zm-2.916.297c0-.009.06-.066.133-.125.148-.123.197-.185.185-.232a.5.5 0 0 0-.092-.118.382.382 0 0 1-.084-.11c0-.04.113-.258.134-.258.022 0 .09.049.129.093.067.077.09.23.053.348-.027.083-.094.21-.137.262a.568.568 0 0 1-.254.139c-.051.013-.068.014-.067 0zm.706.007c-.026-.017-.001-.042.133-.135.215-.149.327-.298.439-.582.043-.112.071-.149.071-.095 0 .043-.083.312-.133.43-.067.16-.156.287-.226.322a.794.794 0 0 1-.159.05c-.118.026-.103.024-.125.01zm3.905 0a.4.4 0 0 1 .09-.086c.126-.1.24-.225.24-.262 0-.019-.036-.07-.093-.128a.871.871 0 0 1-.093-.105 1.7 1.7 0 0 1 .06-.14c.041-.09.066-.13.084-.13.036 0 .141.108.173.178a.378.378 0 0 1 .027.132.697.697 0 0 1-.203.437c-.068.054-.285.133-.285.103zm-7.643-5.326c-.001-3.922.003-5.421.015-5.67.01-.185.018-.37.018-.41l.001-.074-1.078-.867c-.592-.476-1.14-.92-1.215-.985-.494-.425-.81-1.002-.93-1.694-.031-.187-.045-1.914-.014-1.895.011.007.542.43 1.179.943.637.511 1.183.947 1.213.967.04.027.066.035.097.029.115-.023.149-.152.062-.233a66.78 66.78 0 0 0-.844-.684c-.797-.64-.975-.797-1.137-1.01a2.886 2.886 0 0 1-.502-1.027c-.073-.286-.075-.307-.081-1.157-.004-.443-.005-.84-.002-.882l.004-.076 1.919 1.54c1.055.847 1.934 1.546 1.953 1.554.044.017.123-.008.152-.05a.158.158 0 0 0 .013-.132A77.426 77.426 0 0 0 7 5.465c-1.235-.99-1.553-1.251-1.705-1.404a2.73 2.73 0 0 1-.77-1.488c-.03-.158-.032-.209-.038-1.378-.006-1.173-.005-1.213.02-1.192.015.013 1.677 1.347 3.695 2.964L11.87 5.91v5.512l-.071.06a.293.293 0 0 0-.114.275.28.28 0 0 0 .17.248.286.286 0 0 0 .289 0 .28.28 0 0 0 .168-.248.293.293 0 0 0-.113-.275l-.07-.06V5.91l3.667-2.942C17.815 1.35 19.477.016 19.491.003c.026-.021.026.019.02 1.192-.005 1.17-.007 1.22-.037 1.378a2.73 2.73 0 0 1-.77 1.488c-.152.153-.47.415-1.705 1.404a77.464 77.464 0 0 0-1.527 1.24c-.015.041-.01.1.013.132.029.042.108.067.152.05.02-.008.898-.707 1.953-1.554l1.918-1.54.005.076a43.8 43.8 0 0 1-.002.882c-.006.85-.008.87-.081 1.157-.094.366-.267.72-.502 1.027-.162.213-.34.37-1.137 1.01-.438.352-.818.66-.844.684-.087.081-.053.21.062.233.031.006.056-.001.096-.029.03-.02.577-.456 1.216-.968.639-.513 1.17-.938 1.18-.944.028-.017.012 1.722-.018 1.897-.118.692-.435 1.27-.93 1.694-.075.065-.622.509-1.215.985l-1.077.867v.074l.019.41c.019.385.022 11.056.002 10.93a7.06 7.06 0 0 1-.028-.238 11.658 11.658 0 0 0-.723-2.932 11.648 11.648 0 0 0-3.397-4.703l-.132-.11-.141.117a11.21 11.21 0 0 0-.802.737 11.557 11.557 0 0 0-3.341 7.128c-.006.04-.012-2.327-.013-5.26zm.477 2.075a11.928 11.928 0 0 1 3.401-4.805c.099-.085.18-.16.18-.167 0-.007-.844-.692-1.875-1.522l-1.876-1.51L8 12.65c-.007.035-.014 1.893-.017 4.287l-.004 4.225.062-.181c.034-.1.098-.275.142-.388zm7.837-3.872a327.573 327.573 0 0 0-.019-4.07l-.012-.062-1.876 1.51a224.95 224.95 0 0 0-1.879 1.52c-.002.007.067.07.152.143a12.069 12.069 0 0 1 2.715 3.294c.103.184.344.657.414.812.186.416.363.86.454 1.141l.048.15.005-.215c.002-.117.001-2.018-.002-4.223zm-8.23-4.686a7.78 7.78 0 0 1 1.704-3.807c.432-.52.724-.792 1.656-1.537l.45-.358-.005-.15-.004-.15-3.412-2.74L4.765.554l-.004.77c-.006 1.007.012 1.224.13 1.581.059.18.225.507.34.669.188.265.365.418 1.976 1.709 1.496 1.198 1.51 1.21 1.556 1.3a.36.36 0 0 1 .003.358.384.384 0 0 1-.351.224c-.172.003.108.214-2.795-2.116l-.865-.695.007.587c.005.46.012.613.03.709.1.527.333.975.694 1.34.071.072.486.417.95.79.452.363.838.681.858.707a.41.41 0 0 1-.033.53.424.424 0 0 1-.434.093c-.043-.017-.405-.298-1.064-.827l-.998-.803-.005.461c-.004.507.01.76.054.977.105.507.382 1 .751 1.337.116.105 2.197 1.787 2.214 1.789.006 0 .01-.003.01-.008zm9.507-.853c.584-.47 1.106-.897 1.16-.948.36-.338.627-.82.73-1.317.044-.216.058-.47.054-.977l-.005-.46-.998.802c-.658.528-1.021.81-1.064.827a.424.424 0 0 1-.434-.093.41.41 0 0 1-.033-.53c.02-.026.406-.344.858-.707.464-.373.879-.718.95-.79a2.54 2.54 0 0 0 .694-1.34c.018-.096.025-.25.03-.709l.007-.587-.901.724c-2.439 1.957-2.54 2.037-2.606 2.062a.401.401 0 0 1-.504-.2.36.36 0 0 1 .003-.358c.046-.09.06-.1 1.556-1.3 1.883-1.508 1.917-1.54 2.17-2.039.16-.315.236-.585.265-.937.019-.228.02-1.747 0-1.74a939.88 939.88 0 0 0-3.42 2.74L12.402 6.04v.293l.449.359c.567.453.792.641 1.016.852a7.802 7.802 0 0 1 2.343 4.492c0 .006.006.008.012.006.007-.003.49-.39 1.074-.86zM10.44 23.698c.026-.129.04-.25.066-.568.028-.345.032-.364.081-.488.071-.18.11-.251.116-.22.003.015-.007.131-.024.26a25.47 25.47 0 0 0-.051.443 2.89 2.89 0 0 1-.044.295c-.024.091-.09.239-.127.285-.023.028-.024.028-.017-.007zm4.641-.115l.023-.172c.007-.06.027-.245.042-.411.03-.32.045-.385.14-.594.026-.058.052-.102.057-.097a.36.36 0 0 1-.007.113c-.009.058-.032.263-.053.457-.02.193-.047.394-.06.445a.988.988 0 0 1-.126.295c-.023.028-.023.026-.016-.036zm-3.656 0a8.63 8.63 0 0 0 .063-.547c.03-.32.041-.396.073-.48.106-.281.164-.354.123-.156a6.64 6.64 0 0 0-.043.371c-.047.488-.074.613-.16.765-.048.083-.056.09-.056.048zm.838-.022c.024-.215.057-.533.075-.704a1.6 1.6 0 0 1 .05-.287c.042-.122.117-.28.132-.28.008 0 .01.011.006.025-.009.03-.03.211-.06.514-.043.44-.077.584-.167.725l-.042.065zm-3.025-1.3c-.515-.038-.787-.147-.787-.318 0-.086.088-.244.206-.368.095-.1.251-.212.388-.279l.066-.032-.03-.033-.03-.032.039-.078a.892.892 0 0 1 .104-.152c.06-.07.067-.074.117-.065a.298.298 0 0 1 .163.085c.046.043.049.064.018.128-.043.091-.136.164-.274.216a1.495 1.495 0 0 0-.35.173c-.135.088-.205.16-.2.206.01.078.172.143.462.186.204.03 1.257.034 1.656.006l1.137-.082c.483-.035.93-.064.991-.063.185 0 .272.051.187.107-.06.04-1.863.292-2.517.351-.602.055-1 .068-1.346.043zm4.817-.07c0-.021.307-.437.328-.444.034-.011.015.038-.053.142-.12.184-.275.354-.275.301zm-.342-.587c-.041-.03-.075-.064-.075-.076 0-.03.14-.244.159-.244.026 0 .076.03.122.074l.044.041.057-.083a.286.286 0 0 1 .081-.087c.036-.007.155.108.155.15 0 .07-.107.22-.155.22a.232.232 0 0 1-.079-.05c-.033-.027-.064-.048-.07-.046a.433.433 0 0 0-.059.075c-.027.04-.062.074-.077.076-.016.002-.062-.02-.103-.05zm1.262-.092c-.106-.07-.106-.07-.073-.154.016-.04.046-.1.066-.133.033-.051.042-.058.076-.05.056.015.13.092.14.148a.186.186 0 0 1-.01.093c-.022.055-.095.141-.118.14a.347.347 0 0 1-.081-.044zm-3.375-.04c-.049-.032-.089-.067-.088-.077 0-.036.126-.248.15-.253.036-.007.129.06.154.114a.116.116 0 0 1 .01.088.521.521 0 0 1-.122.18.321.321 0 0 1-.104-.053zm.774.005c0-.06.1-.195.203-.27l.062-.045h.201c.173-.001.215-.006.295-.035a1.03 1.03 0 0 0 .323-.201c.042-.045.08-.058.08-.028 0 .04-.1.186-.186.27a1 1 0 0 1-.42.24.686.686 0 0 1-.242.013c-.15-.01-.152-.009-.234.034-.065.035-.082.04-.082.022zm1.501-.232a.439.439 0 0 1-.082-.068c-.005-.01.017-.065.05-.124.073-.128.099-.138.174-.066.065.06.068.113.014.213-.055.1-.07.104-.156.045z"/></svg>