<svg role="img" viewBox="0 0 24 24" xmlns="http://www.w3.org/2000/svg"><path d="M12.46 1.576c1.23-.503 2.662.003 3.49.993a1965.58 1965.58 0 0 0 6.185 6.172c.662.669 1.459 1.304 1.706 2.256.392 1.045.027 2.263-.743 3.038-2.387 2.396-4.8 4.765-7.177 7.169-.415.416-.9.787-1.477.938-1.028.336-2.211.008-2.956-.764-.398-.405-.81-.795-1.27-1.128-.846.65-1.437 1.615-2.392 2.115-1.096.464-2.478.304-3.357-.53-.6-.582-1.296-1.16-1.508-2.008-.335-.944-.084-2.032.55-2.794.537-.636 1.233-1.129 1.696-1.828-.637-.755-1.397-1.394-2.049-2.138-.876-1.005-2.032-1.762-2.75-2.903-.737-1.19-.43-2.81.551-3.765C2.2 5.142 3.457 3.906 4.698 2.653c.622-.643 1.524-1.056 2.428-.974a3.334 3.334 0 0 1 1.764.775c.427.364.76.837 1.248 1.127.754-.687 1.33-1.632 2.322-2.005M6.572 4.829c-.849.726-1.58 1.58-2.353 2.383-.49.528-1.116.956-1.452 1.607-.256.435.097.888.376 1.21 1.143 1.201 2.38 2.308 3.56 3.47.491-.425.95-.883 1.378-1.372-.7-.828-1.525-1.54-2.237-2.357-.304-.337-.44-.865-.173-1.265.304-.455.722-.972 1.328-.95.406-.024.74.236 1.012.506.798.781 1.55 1.607 2.359 2.379.418.407.85.912.815 1.536.033.666-.512 1.139-.919 1.589-1.45 1.445-2.83 2.959-4.242 4.439-.35.345-.475.938-.139 1.337.357.555 1.225.488 1.634.026 2.25-2.228 4.474-4.482 6.727-6.707.23-.215.404-.505.401-.829-.052-.47-.41-.813-.722-1.133-1.945-1.923-3.862-3.875-5.806-5.799-.383-.465-1.117-.484-1.547-.07m5.61.73c1.577 1.731 3.316 3.309 4.939 4.997.392.418.718.958.645 1.555.01.508-.363.898-.694 1.237-1.647 1.613-3.24 3.28-4.885 4.894.295.44.66.963 1.235 1.013.476.046.822-.34 1.133-.64.882-.896 1.84-1.72 2.685-2.654 1.08-1.155 2.23-2.242 3.34-3.368.478-.415.366-1.206-.087-1.596-1.95-1.967-3.92-3.914-5.867-5.883-.296-.28-.624-.627-1.07-.577-.633-.023-1.015.592-1.375 1.023z"/></svg>