<svg role="img" viewBox="0 0 24 24" xmlns="http://www.w3.org/2000/svg"><path d="M12 0a12 12 0 0 0-4.453.863h8.896A12 12 0 0 0 12 0zM5.744 1.771a12 12 0 0 0-1.252.872h15.002a12 12 0 0 0-1.246-.872H5.744zm-2.24 1.766a12 12 0 0 0-.787.871h18.566a12 12 0 0 0-.785-.87H3.504zm-1.465 1.78a12 12 0 0 0-.533.869h20.976a12 12 0 0 0-.527-.87H2.04zm-.98 1.777a12 12 0 0 0-.346.87h22.574a12 12 0 0 0-.351-.87H1.059zM.428 8.873a12 12 0 0 0-.207.857h23.552a12 12 0 0 0-.078-.353h-2.304v-.504H9.24v.504H6.907v-.504H.428zm-.342 1.766a12 12 0 0 0-.06.869h23.956a12 12 0 0 0-.074-.87h-2.517v.53h-2.344v-.53h-7.375v.53H9.328v-.53h-2.47v.53H4.511v-.53H.086zm-.072 1.777a12 12 0 0 0 .068.871h23.844a12 12 0 0 0 .053-.871h-5.06v.543h-2.331v-.543h-2.42v.543h-2.344v-.543H4.387v.518H2.043v-.518H.013zm2.029 1.78v.503H.323a12 12 0 0 0 .081.365h23.184a12 12 0 0 0 .203-.869h-7.254v.555h-2.344v-.555H2.043zM.687 15.96a12 12 0 0 0 .344.87h21.946a12 12 0 0 0 .335-.87H.688zm.788 1.777a12 12 0 0 0 .517.871h20.014a12 12 0 0 0 .533-.87H1.475zm1.175 1.78a12 12 0 0 0 .77.869h17.146a12 12 0 0 0 .774-.87H2.65zm1.84 1.828a12 12 0 0 0 1.24.869h12.55a12 12 0 0 0 1.241-.87H4.491zm3.028 1.777a12 12 0 0 0 4.367.871h.285a12 12 0 0 0 4.314-.871H7.518z"/></svg>