<svg viewBox="0 0 24 24" xmlns="http://www.w3.org/2000/svg" role="img"><path d="M8.813 1.42A4.226 4.226 0 0 1 12.43.026a4.022 4.022 0 0 1 2.209 1.159c.64.595 1.098 1.349 1.628 2.037l1.703.012c.522.016 1.062-.043 1.56.151.397.182.725.482.987.828.164.17.222.413.217.645l-.006 2.928c.927.376 1.842.91 2.411 1.758.147.26.308.513.436.783.26.794.432 1.669.169 2.485-.253.968-.933 1.75-1.693 2.366l-1.4 1.037-.04 2.743c-.058.697-.566 1.24-1.112 1.626-.313.152-.676.095-1.012.106-.717-.02-1.435-.02-2.153-.017-.084.541-.365 1.043-.685 1.483-.786 1.273-2.348 1.951-3.82 1.83-.86-.14-1.686-.54-2.291-1.173-.636-.593-1.091-1.344-1.62-2.029-.907-.034-1.815-.013-2.723-.043-.707-.046-1.26-.555-1.647-1.107-.161-.346-.094-.736-.108-1.104.023-.743.017-1.49.014-2.234-.333-.011-.614-.208-.915-.329-.714-.402-1.409-.906-1.802-1.646-.467-.718-.629-1.601-.608-2.449.119-.896.53-1.755 1.187-2.381.593-.64 1.347-1.094 2.032-1.626l.031-2.649c.028-.642.426-1.197.928-1.57.181-.184.437-.256.691-.248l2.895.017c-.012-.07.01.07 0 0 .204-.634.527-1.465.923-1.994m.417.931c-.536.225-.856.735-1.32 1.062l3.88.035c-.805.995-1.786 1.955-2.604 2.94-1.164.029-2.331-.034-3.494.032l-.005 3.56c-.017.31-.064.674-.345.861-.613.51-1.202 1.05-1.84 1.53.057.096.12.19.204.265l2.74 2.335c0 1.155-.04 2.314.021 3.467l3.203.005c.352-.009.723-.005 1.042.16.593.622 1.1 1.322 1.69 1.95l2.413-2.853c1.163-.026 2.33.037 3.491-.035l.01-3.637c.034-.263.058-.579.297-.745l2.813-2.38c.36-.286.391-.807.31-1.226-.183-.598-.577-1.1-1.043-1.509.035 1.121-.015 2.24-.015 3.36l-2.935-2.467c-.031-1.165.033-2.333-.035-3.495-1.213-.016-2.426.003-3.64-.01-.262-.037-.578-.06-.744-.296L10.99 2.496c-.41-.531-1.239-.485-1.759-.145M3.43 12.438c-.327.346-.755.588-1.055.962-.238.472-.182 1.062.107 1.5.216.488.635.827.994 1.202l.014-2.505c-.022-.386.054-.783-.06-1.159m9.021 8.2c.32.353.595.749.943 1.076.463.296 1.096.233 1.548-.06.478-.215.819-.625 1.193-.979-1.228-.032-2.456-.026-3.684-.037z"/></svg>