<svg viewBox="0 0 24 24" xmlns="http://www.w3.org/2000/svg" role="img"><path d="M6.932 5.537 12.021.332l.107.012 9.044 8.873L24 12.009c-.272-.002-.543-.048-.814-.043l-4.33-.026c-.656-1.224-1.625-2.308-2.867-2.956-1.59-.896-3.479-1.187-5.281-.969-1.138.158-2.207.646-3.128 1.323a8.938 8.938 0 0 0-2.37 2.816c1.117 1.956 3.115 3.268 5.233 3.918.575.178 1.167.292 1.758.41l-.008 7.186-11.067-10.04C.75 13.295.393 12.936 0 12.618c.055-.078.112-.155.178-.223zM9.865 9.36c.637-.546 1.453-.916 2.301-.916 1.018-.048 2.04.396 2.723 1.146.859.894 1.167 2.266.793 3.446-.438 1.6-2.123 2.708-3.765 2.531-.857-.105-1.688-.499-2.269-1.142-.6-.659-.972-1.538-.944-2.436-.023-.993.45-1.953 1.161-2.628z"/></svg>