<svg viewBox="0 0 24 24" xmlns="http://www.w3.org/2000/svg" role="img"><path d="M7.137 21.443c-.227-.044-.542-.1-.7-.126-.318-.05-1.307-.406-1.65-.594l-.387-.211c-.894-.492-2.033-1.515-2.742-2.463a9.101 9.101 0 0 1-1.3-2.583c-.295-.984-.335-1.25-.352-2.296-.014-.85-.01-.903.097-1.561.062-.375.136-.77.166-.88.096-.348.275-.911.307-.967.017-.03.109-.24.205-.467.143-.34.627-1.166.792-1.353.02-.024.038-.054.038-.067a.44.44 0 0 1 .08-.12c.045-.054.122-.154.17-.221.093-.127 1.183-1.23 1.311-1.325.257-.192.4-.305.43-.34.147-.165 1.387-.88 1.75-1.009a3.86 3.86 0 0 0 .251-.1c.395-.181 1.294-.417 1.921-.504.46-.064 1.797-.078 2.077-.021.095.019.366.069.603.11.53.094.689.135 1.161.298.456.157.53.204.56.354a3.8 3.8 0 0 0 .075.279c.061.193.225.752.394 1.345.21.738.262.915.45 1.55.148.5.175.63.143.69-.069.128-.166.086-.385-.166-.265-.305-.352-.388-.511-.485a1.24 1.24 0 0 1-.147-.098c-.092-.106-1.01-.647-1.096-.647-.015 0-.054-.022-.085-.048-.08-.068-.376-.152-.9-.256a12.17 12.17 0 0 1-.573-.126c-.07-.02-.417-.036-.772-.035-.581 0-.69.011-1.077.103-.865.204-1.275.396-2.367 1.111-.121.08-.514.465-.813.799-.046.052-.145.16-.22.24a.98.98 0 0 0-.134.166c0 .01-.025.047-.056.082-.178.197-.259.33-.507.83-.227.456-.297.64-.408 1.076-.074.288-.16.622-.194.74-.05.18-.057.351-.045 1.04.012.76.021.855.112 1.202.136.517.226.773.353 1.005.105.19.164.284.62.984.268.41.763.9 1.363 1.348.378.282.562.39.969.572l.61.273c.06.027.31.102.556.167l.449.118h8.647l.25-.094c.139-.052.39-.138.557-.192.982-.312 1.834-.808 2.432-1.413.217-.22.632-.813.858-1.225.335-.612.412-.768.498-1.009.052-.145.107-.28.122-.3a.466.466 0 0 0 .048-.144l.101-.502c.067-.333.08-.516.082-1.166.002-.656-.012-.869-.093-1.417a37.894 37.894 0 0 1-.12-.862c-.04-.368-.115-.65-.446-1.686-.057-.178-.17-.54-.253-.807-.254-.826-.56-1.8-.79-2.512-.035-.108-.1-.318-.143-.466-.044-.148-.12-.382-.168-.52a39.4 39.4 0 0 1-.427-1.334c-.067-.22-.122-.475-.122-.565v-.165h1.29c.992 0 1.295.01 1.317.045.015.025.16.44.323.924.162.484.498 1.477.746 2.207 1.295 3.817 1.262 3.703 1.473 5.124.077.524.089.726.089 1.546 0 .52-.015 1.023-.033 1.12-.018.096-.067.45-.108.785a8.18 8.18 0 0 1-.151.879c-.118.416-.48 1.39-.535 1.435a.92.92 0 0 0-.085.18 1.308 1.308 0 0 1-.091.197 3.91 3.91 0 0 0-.145.251 10.37 10.37 0 0 1-.352.574c-.336.512-1.281 1.437-2.11 2.065-.337.255-.632.465-.654.465-.023 0-.042.013-.042.03 0 .05-1.032.528-1.515.701a9.208 9.208 0 0 1-1.48.409l-.467.097-4.341.006-4.342.006zm1.417-3.25a1.83 1.83 0 0 1-.038-.344 1.955 1.955 0 0 0-.036-.342c-.011-.017-.12-.032-.242-.032-.321 0-.815-.088-.987-.176-.246-.125-.274-.11-.385.203-.148.415-.128.408-.56.193-.499-.247-.704-.364-.935-.53-.328-.234-.495-.393-.495-.469 0-.042.088-.15.215-.265.118-.107.215-.224.215-.261 0-.038-.082-.15-.183-.249a2.218 2.218 0 0 1-.5-.755c-.048-.116-.105-.218-.127-.227-.022-.009-.158.042-.302.112a2.05 2.05 0 0 1-.298.128c-.06 0-.235-.207-.295-.349-.068-.16-.248-.878-.291-1.158a2.245 2.245 0 0 1-.02-.387c.014-.23.064-.259.434-.259.14 0 .265-.019.298-.045.042-.033.062-.142.079-.421.022-.386.102-.804.169-.884.042-.05.054-.235.019-.293-.013-.021-.116-.065-.23-.098-.305-.089-.403-.149-.403-.247 0-.118.403-.889.602-1.15.198-.261.468-.551.558-.6.055-.029.107.007.311.22.135.139.254.253.265.253.011 0 .099-.069.195-.152.22-.192.324-.277.457-.37.126-.09.562-.303.616-.303.095 0 .075-.134-.06-.397-.08-.154-.136-.304-.124-.334.03-.08.295-.194.894-.385.19-.06.367-.083.728-.095l.478-.016-.025.356-.024.356.401.043c.453.05.783.125.979.225.178.09.196.087.255-.05.081-.186.162-.396.186-.483.014-.049.05-.081.093-.081.08 0 .905.42.923.47.007.017.033.032.058.032.06 0 .61.398.743.538.088.092.098.12.064.184-.065.121-.29.355-.341.355-.027 0-.065.03-.085.067-.03.055-.007.098.13.242.348.37.564.706.706 1.103.018.052.045.06.122.042.054-.014.106-.038.116-.053.028-.043.313-.182.374-.182.083 0 .224.15.272.288.168.49.285 1.126.286 1.547.001.397-.01.407-.406.374l-.3-.025-.024.262c-.03.325-.122.842-.172.963-.02.05-.063.143-.093.207-.034.071-.044.13-.024.149.019.017.157.066.309.11.197.058.28.1.292.148.02.078-.165.535-.33.814a1.184 1.184 0 0 0-.112.221.051.051 0 0 1-.027.043.722.722 0 0 0-.116.142c-.19.275-.448.534-.53.534-.044 0-.08-.012-.08-.027s-.092-.121-.203-.237l-.202-.21-.165.164c-.198.195-.23.224-.417.369-.154.12-.56.335-.636.337a.27.27 0 0 0-.116.055c-.07.052-.069.057.044.263.13.235.147.395.053.48-.094.083-.586.234-1.029.314-.416.075-.935.094-.97.036zm.564-2.728a4.91 4.91 0 0 0 .261-.107c.04-.019.149-.063.243-.098.13-.048.275-.167.619-.51.246-.245.448-.459.448-.475 0-.016-.958-.03-2.128-.03-2.15 0-2.214.005-2.214.125 0 .055.575.648.729.752.14.096.368.207.67.328.168.067.273.08.69.083.415.004.522-.007.682-.068zm-1.049-1.471c0-.054-.162-.107-.325-.107-.117 0-.141.012-.141.072 0 .064.024.072.233.072.136 0 .233-.016.233-.037zm-.783-.187.167-.189.425.01c.452.01.64-.02.64-.102 0-.036-.056-.057-.18-.07-.142-.014-.18-.032-.191-.09-.014-.077-.107-.197-.153-.197a.857.857 0 0 0-.183.104c-.239.16-.54.315-.668.343a.616.616 0 0 0-.214.105 2.457 2.457 0 0 1-.196.142c-.155.097-.118.132.143.132l.243.001.167-.189zm2.055.035c.01-.064.024-.173.029-.242l.009-.125.362-.018c.326-.017.377-.029.513-.123.213-.148.187-.217-.087-.224a19.384 19.384 0 0 1-.29-.009c-.125-.006-.212-.293-.117-.388.04-.04-.058-.098-.295-.172a.707.707 0 0 1-.19-.114c-.128-.107-.225-.09-.42.072-.162.133-.17.175-.056.265.046.036.125.13.175.21.098.155.243.673.243.866 0 .16.098.162.124.002zm1.529-.048c.105-.218.087-.592-.037-.76-.15-.2-.916-.388-.916-.223 0 .038.068.065.239.093.236.039.455.16.459.255.004.081-.12.28-.239.382-.09.077-.193.117-.423.162-.294.057-.358.096-.32.196.014.037.15.05.588.053l.57.005zm-4.554-.172c.092-.17.342-.38.452-.38.028 0 .148-.1.267-.22.252-.254.252-.254-.117-.438-.192-.095-.232-.131-.241-.215-.018-.157.046-.204.282-.204.196 0 .212-.007.28-.117.067-.107.368-.385.417-.385a.334.334 0 0 0 .1-.073 3.33 3.33 0 0 1 .266-.203c.188-.129.19-.13.414-.093l.225.036.117-.128a.582.582 0 0 0 .117-.159c0-.017.043-.088.096-.158.09-.117.107-.125.239-.104a.678.678 0 0 1 .24.093.45.45 0 0 0 .126.071c.055 0 .122.13.123.238 0 .114-.08.237-.3.452-.06.06-.091.115-.072.133.23.214.466.395.541.413.082.02.386.238.445.317.012.016.14.07.287.12.146.051.293.116.326.145.053.047.062.045.083-.022.05-.156-.198-.785-.467-1.19a2.627 2.627 0 0 0-1.31-1.003c-.262-.094-.336-.104-.774-.108-.266-.002-.503.011-.527.03a.994.994 0 0 1-.204.08c-.315.096-.824.415-1.054.661-.169.18-.49.623-.49.676a.135.135 0 0 1-.033.082 2.023 2.023 0 0 0-.143.32c-.1.258-.11.327-.11.687 0 .31.015.435.067.557.036.086.077.186.09.222.037.11.142.052.242-.133zm2.176-.365c.059-.04.08-.092.08-.193 0-.178-.075-.247-.198-.181-.077.041-.119.035-.331-.046a6.284 6.284 0 0 0-.32-.114c-.043-.013-.087-.046-.098-.075-.033-.087-.136-.064-.123.028.012.083.026.092.505.314.218.101.242.123.242.218 0 .086.015.105.082.105a.336.336 0 0 0 .161-.056zm-.76-.894c.154-.119.23-.196.23-.236 0-.059-.094-.036-.162.038-.035.04-.085.072-.109.072-.074 0-.209.129-.181.173.038.063.092.051.221-.047zm3.827 5.73c-.01-.026-.012-.053-.004-.06a5.01 5.01 0 0 1 .538-.343c.017 0 .031-.012.031-.028 0-.015.047-.055.104-.09.195-.114.983-.94 1.244-1.302.251-.348.482-.733.482-.804 0-.018.04-.122.09-.23.05-.108.09-.206.09-.219 0-.012.04-.113.091-.223.19-.413.288-1.008.3-1.804a5.056 5.056 0 0 0-.246-1.64 30.72 30.72 0 0 1-.434-1.5c-.06-.216-.124-.443-.143-.504a.763.763 0 0 1-.035-.181.187.187 0 0 0-.03-.105c-.017-.019-.082-.236-.146-.483a61.377 61.377 0 0 0-.184-.7 48.34 48.34 0 0 1-.156-.592c-.048-.187-.16-.615-.25-.95-.09-.336-.227-.86-.306-1.166a169.65 169.65 0 0 0-.451-1.723c-.156-.576-.208-.822-.186-.879.018-.046.194-.054 1.294-.054h1.274l.053.081a1.8 1.8 0 0 1 .123.35c.068.257.104.384.238.825.033.109.09.302.125.43.036.129.11.38.164.557.055.178.136.452.18.61a51 51 0 0 0 .195.664c.127.42.132.439.283.968.059.208.125.434.148.503.022.069.07.23.106.358.076.272.387 1.328.545 1.848.149.494.149.493.335 1.22.26 1.018.284 1.189.28 2.042-.004.814-.024 1.085-.103 1.45-.029.132-.085.401-.126.598-.065.316-.223.76-.455 1.275a5.12 5.12 0 0 0-.137.34 2.27 2.27 0 0 1-.174.359 5.8 5.8 0 0 0-.164.287.633.633 0 0 1-.075.125.788.788 0 0 0-.085.14c-.074.146-.096.175-.306.403l-.161.175-1.97.01c-1.583.006-1.972-.001-1.986-.038zm4.987-.045c-.044-.018-.08-.04-.08-.05 0-.046.086-.2.113-.2.016 0 .03-.016.03-.035 0-.019.077-.153.172-.298a2.95 2.95 0 0 0 .239-.44.947.947 0 0 1 .09-.196c.08-.061.548-1.444.59-1.743.026-.175.166-.938.239-1.296.05-.246.048-1.736-.002-2.026a5.112 5.112 0 0 0-.144-.55 14.05 14.05 0 0 1-.157-.52c-.049-.181-.263-.91-.342-1.166-.019-.06-.14-.495-.272-.969a24.08 24.08 0 0 0-.272-.944.514.514 0 0 1-.034-.163c0-.044-.014-.096-.032-.115a.645.645 0 0 1-.068-.195c-.02-.089-.076-.307-.125-.485-1-3.635-1.111-4.072-1.06-4.133.031-.038.294-.046 1.335-.038l1.296.009.104.323c.057.178.124.38.15.448.024.07.105.32.178.557.073.236.163.519.198.627a240.936 240.936 0 0 1 1.647 5.364c.037.119.076.256.088.305l.146.562c.167.638.198.939.2 1.9 0 .902-.025 1.165-.164 1.647-.178.618-.232.774-.317.925-.047.083-.16.291-.25.463a3.4 3.4 0 0 1-.247.41c-.218.26-.717.796-.824.883-.3.243-.367.295-.59.444-.464.311-1.024.546-1.7.713a.275.275 0 0 1-.135-.019z"/></svg>