<svg viewBox="0 0 24 24" xmlns="http://www.w3.org/2000/svg" role="img"><path d="M12.715 23.981c-.014-.054.011-.064.043-.017l.025.036h-.032c-.027 0-.032-.003-.036-.019zM.224 23.565.12 23.42l-.003-7.363C.112 5.616.127 1.093.167.312.176.142.179.132.248.079.326.021.281.025.966.016c1.62-.021 13.783-.021 18.937 0 2.126.009 3.615.02 3.786.029.092.005.102.007.112.022.042.064.055.422.067 1.814.004.525.01 5.425.012 11.299l.004 10.372-.038.027c-.099.073-.124.078-.45.091-.74.03-3.605.038-14.692.039H.327l-.103-.144zm12.268-1.359c.652-.029.95-.064 1.562-.185 1.11-.22 2.247-.652 3.23-1.228a10.414 10.414 0 0 0 3.91-4.059 9.98 9.98 0 0 0 .934-2.401c.381-1.544.381-3.46 0-4.983-.172-.69-.46-1.456-.814-2.162a10.126 10.126 0 0 0-1.935-2.665c-.556-.546-1.08-.97-1.659-1.344a10.6 10.6 0 0 0-2.57-1.218 9.92 9.92 0 0 0-2.038-.429c-.4-.04-.89-.054-1.339-.041a17.49 17.49 0 0 0-.745.036 8.603 8.603 0 0 0-1.52.256c-.872.22-1.728.56-2.512.997-.209.116-.29.165-.528.32a10.16 10.16 0 0 0-1.41 1.077c-.196.176-.585.563-.735.73A10.559 10.559 0 0 0 3.02 6.709c-.12.21-.397.766-.518 1.04a9.501 9.501 0 0 0-.77 2.732 9.661 9.661 0 0 0 0 2.744c.078.547.235 1.243.39 1.722.196.608.451 1.21.756 1.784.206.385.357.636.568.941.415.6.727.981 1.191 1.452.298.303.44.435.715.664.628.524 1.303.97 2.001 1.323.776.391 1.512.65 2.45.862.434.099 1.024.198 1.31.221.31.026.943.031 1.379.012zm-.585-.71a1.203 1.203 0 0 1-.884-.508 1.29 1.29 0 0 1-.056-1.29c.144-.26.393-.478.622-.541.245-.068.62-.081.806-.028a1.226 1.226 0 0 1 .843 1.292c-.046.446-.268.77-.655.953-.216.103-.44.143-.676.121zm4.97-2.552c-1.538-.005-1.993-.013-2.189-.036-.069-.008-.097-.062-.06-.113.029-.041.14-.107.439-.255.5-.25.696-.36 1.018-.574a7.06 7.06 0 0 0 1.137-.933 7.17 7.17 0 0 0 1.405-1.968 7.43 7.43 0 0 0 .574-1.563c.13-.522.166-.825.173-1.47a8.761 8.761 0 0 0-.029-.95 4.506 4.506 0 0 0-.106-.72 6.736 6.736 0 0 0-.431-1.33c-.08-.18-.287-.6-.382-.77a7.143 7.143 0 0 0-1.235-1.616 6.772 6.772 0 0 0-1.053-.877 7.239 7.239 0 0 0-1.933-.928c-.793-.232-1.353-.32-2.082-.332a6.067 6.067 0 0 0-.73.026A7.388 7.388 0 0 0 8 5.72a6.928 6.928 0 0 0-.607.454c-.673.55-1.264 1.221-1.664 1.889-.32.534-.6 1.178-.774 1.781a7.716 7.716 0 0 0-.13.522l-.039.219a7.465 7.465 0 0 0-.08.574 4.54 4.54 0 0 0-.024.581c-.005.541.009.798.065 1.174a7.557 7.557 0 0 0 1.226 3.1c.15.223.29.392.59.715.668.718 1.218 1.158 1.95 1.558.078.042.265.138.417.213.37.183.474.246.504.304.026.05-.008.076-.123.091-.184.024-.896.036-2.689.045l-1.02.005-.262-.258a8.85 8.85 0 0 1-.62-.665 9.459 9.459 0 0 1-2.019-3.966c-.192-.8-.246-1.293-.246-2.218 0-.637.03-1.11.097-1.509a9.957 9.957 0 0 1 .612-2.114 9.646 9.646 0 0 1 3.588-4.35A8.732 8.732 0 0 1 9.08 2.75a10.245 10.245 0 0 1 1.756-.41c.522-.065 1.51-.07 2.193-.012.25.021.516.058.785.11.153.03.492.105.51.113.009.004.077.023.153.043a9.718 9.718 0 0 1 3.957 2.131c.155.138.478.458.635.629a9.774 9.774 0 0 1 1.85 2.912 8.64 8.64 0 0 1 .612 2.296c.057.454.078.803.078 1.327 0 .483-.015.76-.063 1.15-.136 1.115-.473 2.167-1.048 3.268-.356.68-.662 1.14-1.1 1.648-.138.16-.252.283-.606.654-.318.333-.323.338-.354.339l-1.563-.005zm-5.39-.463a5.532 5.532 0 0 1-1.176-.201 6.726 6.726 0 0 1-2.738-1.503 9.305 9.305 0 0 1-.535-.543 6.668 6.668 0 0 1-1.631-3.75 7.32 7.32 0 0 1-.004-1.257 6.513 6.513 0 0 1 .55-2.093c.107-.234.343-.683.369-.702a6.697 6.697 0 0 1 1.742-1.91c.898-.667 2.029-1.133 3.034-1.25.608-.07 1.48-.066 1.99.009.285.041.702.149 1.078.277a6.44 6.44 0 0 1 1.988 1.085 6.935 6.935 0 0 1 1.518 1.673c.033.053.07.109.08.124.063.083.289.529.387.762.152.358.289.769.39 1.165.111.434.126.586.125 1.304 0 1.205-.036 1.492-.286 2.237a6.515 6.515 0 0 1-1.622 2.617 6.566 6.566 0 0 1-2.908 1.727c-.549.158-.92.208-1.711.229-.309.008-.42.008-.64 0z"/></svg>