<svg viewBox="0 0 24 24" xmlns="http://www.w3.org/2000/svg" role="img"><path d="M5.988 17.745c3.307-.007 8.718-.007 12.024 0 3.307.007.601.012-6.012.012-6.613 0-9.319-.006-6.012-.012zm4.198-.301-.074-.145.236-.12c.222-.112.49-.368.49-.466 0-.025-.066-.045-.148-.045-.19 0-.432-.23-.432-.41 0-.161.118-.392.22-.431.25-.096.575.073.687.36.062.155.1.19.204.19.207 0 .287-.095.302-.362.014-.234.02-.242.16-.242h.145l.014.426.014.426.147-.124a.5.5 0 0 1 .303-.123c.187 0 .26-.055.432-.326.073-.115.182-.218.247-.234.177-.045.453.11.575.322.058.101.15.196.203.21.148.04.848.033.844-.009-.007-.083-.448-.4-.557-.4-.098 0-.117-.023-.117-.144 0-.139.009-.145.206-.145.195 0 .23.023.613.408l.406.408-.082.124c-.08.123-.088.124-.712.124-.347 0-.674-.023-.726-.05-.07-.038-.12-.032-.2.024-.143.1-.27.094-.494-.02-.166-.085-.197-.088-.287-.025a.524.524 0 0 1-.255.071c-.219 0-.308.044-.308.153 0 .061.051.112.145.145.08.027.145.056.145.062a1.8 1.8 0 0 1-.052.162c-.048.138-.063.146-.181.101a.952.952 0 0 1-.515-.475c-.06-.133-.114-.192-.159-.174a.864.864 0 0 1-.23.026c-.138 0-.177.03-.283.21-.134.228-.327.395-.647.558l-.204.104zm3.266-1.112c0-.052-.049-.128-.108-.17-.099-.069-.115-.067-.204.021-.095.096-.095.097 0 .168.14.106.312.096.312-.02zm-2.565-.054c0-.068-.2-.185-.272-.158-.103.04-.079.16.042.204.117.044.23.02.23-.046zm7.567 1.138c-.044-.067-.072-.128-.061-.136a7.79 7.79 0 0 1 .25-.147c.29-.166.553-.395.591-.514.016-.05-.016-.183-.07-.296-.125-.258-.125-.257.024-.325.165-.075.151-.083.268.15.174.346.217.375.557.375.167 0 .317-.021.333-.047.015-.025-.05-.201-.146-.391-.243-.484-.228-.527.244-.68.624-.203.63-.204.692-.068.053.115.046.122-.198.19-.139.04-.313.087-.386.104-.073.017-.146.051-.16.075-.015.024.04.16.12.303.196.34.203.61.022.752-.103.08-.197.1-.481.1-.195 0-.367-.021-.384-.048-.053-.087-.143-.05-.223.09-.071.125-.768.636-.868.636-.024 0-.08-.055-.124-.123zm1.965.002c-.035-.066-.055-.128-.044-.138.011-.009.147-.097.303-.195.517-.327.596-.48.425-.816l-.09-.178.112-.074c.166-.11.186-.098.312.171.126.268.21.335.421.335.191 0 .255-.08.255-.324 0-.197.008-.208.139-.208.125 0 .141.018.165.195.042.315.083.337.61.336l.465-.001-.204-.192c-.145-.138-.246-.193-.35-.193-.137 0-.148-.012-.148-.175v-.176l.225.025c.203.023.26.062.614.416.377.377.388.394.324.513-.066.123-.067.123-.744.123-.562 0-.692-.014-.766-.08-.082-.075-.094-.075-.177 0-.115.104-.528.107-.675.005-.059-.041-.107-.053-.107-.026 0 .1-.304.391-.606.583-.171.107-.33.196-.352.196-.023 0-.07-.055-.107-.121zM.452 17.392c-.312-.096-.514-.525-.429-.912.039-.176.089-.216.22-.174.079.025.096.073.096.272 0 .306.055.408.256.474.263.087.888-.072.84-.214-.008-.027-.133-.08-.278-.117a3.552 3.552 0 0 1-.276-.08c-.008-.005 0-.067.017-.136.032-.126.034-.127.514-.127.464 0 .487-.005.588-.129.307-.375.418-.463.546-.43.333.083.541.385.448.651-.05.145-.25.295-.393.295a.908.908 0 0 1-.25-.095c-.167-.084-.198-.087-.288-.024a.402.402 0 0 1-.187.07c-.052 0-.086.037-.086.094 0 .14-.237.394-.462.493-.245.109-.671.152-.876.09zm2.258-1.06c0-.051-.048-.127-.106-.168-.096-.067-.115-.067-.194.005-.114.103-.11.135.022.199.172.083.278.07.278-.035zm19.403.941c0-.169.006-.175.157-.16.14.013.158.032.158.16 0 .129-.019.147-.158.16-.151.015-.157.01-.157-.16zm-4.894-.068-.077-.135.37-.245c.204-.135.4-.302.438-.372.06-.112.057-.153-.033-.365l-.1-.238.114-.075a.586.586 0 0 1 .14-.074c.049 0 .268.483.267.59-.002.275-.355.663-.863.948l-.178.1zm-9.431 0c-.364-.115-.497-.314-.497-.744 0-.317.046-.392.218-.349.112.028.118.046.098.288-.018.215-.004.274.081.36.172.172.808.118.992-.085.078-.086.07-.091-.197-.122-.152-.018-.316-.068-.364-.112-.29-.261.22-.9.652-.818.267.052.307.098.212.244-.068.102-.1.116-.175.076-.134-.072-.171-.063-.344.083l-.157.132.117.033c.064.018.195.034.29.037.503.014.424.614-.114.868-.237.112-.634.165-.812.109zm1.22-.08c-.075-.164-.082-.151.142-.266.292-.149.624-.472.624-.606a.866.866 0 0 0-.083-.29c-.081-.168-.08-.177.009-.243.145-.106.192-.083.306.151.234.48.065.803-.654 1.25-.253.158-.274.158-.344.005zm5.218-.021c0-.134.013-.145.17-.145.155 0 .169.011.169.145 0 .133-.014.145-.17.145s-.17-.012-.17-.145zm1.743.097c-.344-.084-.53-.448-.463-.9.03-.199.045-.22.139-.194a.925.925 0 0 0 .141.028c.02 0 .037.13.037.289 0 .353.09.438.458.437.242-.001.655-.147.655-.232 0-.025-.113-.06-.25-.078-.366-.049-.428-.094-.428-.318 0-.354.423-.682.778-.604.172.038.219.12.144.26-.044.083-.073.091-.179.051-.097-.037-.16-.028-.273.038-.081.048-.156.11-.166.14-.02.063.138.113.361.114.182.001.351.144.351.298 0 .413-.761.805-1.305.671zm-12.63-.545c-.116-.041-.175-.095-.185-.17-.015-.102.001-.108.278-.108.167 0 .294-.021.294-.05 0-.026-.12-.286-.264-.575l-.265-.528.118-.077a.712.712 0 0 1 .136-.077c.011 0 .135.25.277.557.141.306.273.556.291.556.063 0 .093-.213.093-.665v-.448h.34v.578c0 .543.007.583.107.654.22.154.377.033.377-.291 0-.204.007-.215.138-.215.126 0 .142.019.165.196.03.224.107.337.23.337.104 0 .144-.094.144-.343 0-.179.009-.19.145-.19.126 0 .145.018.146.133.001.212.107.375.242.375.147 0 .177-.117.08-.312-.068-.136-.065-.146.053-.224.118-.077.128-.076.19.008.19.261.172.733-.034.843-.134.072-.4.058-.521-.028-.098-.068-.115-.068-.184 0-.136.136-.305.146-.465.028-.085-.063-.16-.089-.178-.062-.055.085-.239.158-.394.158-.104 0-.197-.045-.297-.145l-.145-.145-.158.121a.875.875 0 0 1-.754.109zm3.435-.762v-.822h.291v1.645h-.291zm11.71 0v-.822h.339v1.645h-.339zm-18.29-.088a1.83 1.83 0 0 0-.076-.392c-.11-.369-.004-.42.117-.057.068.203.073.585.007.585-.026 0-.048-.06-.048-.136zm.434.028a1.813 1.813 0 0 0-.094-.375c-.092-.265-.06-.442.044-.247.07.131.128.129.169-.007l.032-.11.046.113c.025.061.067.098.095.08.027-.016.038-.048.024-.071-.015-.023-.002-.057.027-.075.034-.021.047.015.037.106-.011.097-.044.14-.113.145l-.157.012c-.046.004-.053.074-.03.271.022.185.014.266-.024.266-.03 0-.056-.049-.056-.108zm.727-.028a1.83 1.83 0 0 0-.076-.392c-.075-.252-.059-.383.03-.244.125.195.195.773.094.773-.026 0-.048-.062-.048-.137zm.41-.07a2.058 2.058 0 0 0-.102-.37c-.078-.19-.013-.322.076-.155.07.132.128.13.173-.007l.036-.108.021.108c.024.12.112.151.112.04 0-.039.023-.085.052-.102.033-.021.046.016.036.106-.011.097-.044.14-.112.145l-.158.012c-.045.004-.053.074-.03.271.038.32-.053.373-.104.06zm17.203-.084c0-.133.013-.145.17-.145.155 0 .169.011.169.145 0 .134-.014.145-.17.145s-.17-.011-.17-.145zm3.822-.242c0-.129.016-.145.146-.145.129 0 .145.016.145.145 0 .13-.016.145-.145.145-.13 0-.146-.016-.146-.145zm-2.677-.118c-.016-.041.008-.08.055-.095.416-.125.78-.209.804-.186.084.084-.009.153-.33.247-.424.123-.494.127-.53.034zM5.988 14.89c3.307-.007 8.718-.007 12.024 0 3.307.007.601.013-6.012.013-6.613 0-9.319-.006-6.012-.013zm4.27-.738c0-.527.012-.629.073-.629.04 0 .072.026.072.058 0 .045.013.045.058 0 .107-.107.362-.07.471.07.268.34-.016.897-.386.757l-.143-.054v.214c0 .157-.019.213-.072.213-.061 0-.073-.102-.073-.629zm.554.038c.14-.2.04-.57-.154-.57-.211 0-.332.345-.205.584.068.127.266.119.359-.014zm9.164.53c-.106-.085-.15-.23-.069-.23.036 0 .092.034.125.073.073.087.297.096.378.015a.234.234 0 0 0 .058-.144c0-.073-.02-.079-.127-.038-.164.062-.281.024-.404-.132-.218-.278-.056-.74.259-.74.085 0 .182.025.214.057.045.045.058.045.058 0 0-.032.033-.058.073-.058.06 0 .072.091.072.529 0 .513-.004.531-.127.629-.143.112-.396.132-.51.04zm.416-.499c.158-.158.048-.601-.15-.601-.11 0-.258.187-.258.328 0 .282.239.442.408.273zm2.868.53c-.063-.064-.035-.115.064-.115.202 0 .21-.184.026-.65-.094-.238-.16-.442-.15-.454.068-.067.174.073.268.354.059.176.114.313.124.304a3.6 3.6 0 0 0 .128-.33c.07-.196.141-.317.193-.327.071-.014.063.04-.063.386-.216.6-.343.836-.457.852-.054.008-.114 0-.133-.02zM.387 13.886v-.556H.194c-.14 0-.194-.02-.194-.073 0-.06.086-.073.484-.073s.484.013.484.073c0 .054-.057.073-.218.073H.532v.556c0 .462-.012.556-.072.556s-.073-.094-.073-.556zm.63-.073c0-.526.011-.629.072-.629.054 0 .072.058.072.228 0 .177.013.214.059.17.082-.084.356-.073.446.017.108.108.11.843.003.843-.058 0-.073-.072-.073-.36 0-.308-.014-.37-.093-.412-.217-.116-.342.058-.342.479 0 .229-.016.293-.073.293-.06 0-.072-.102-.072-.629zm1.033.573c-.233-.113-.287-.55-.092-.744.17-.17.466-.166.603.009.055.07.1.179.1.242 0 .11-.014.114-.338.114-.187 0-.34.017-.34.038 0 .02.035.086.076.145.09.128.334.146.399.03a.135.135 0 0 1 .135-.06c.085.017.081.03-.038.15-.138.14-.318.167-.505.076zm.42-.615a.247.247 0 0 0-.44-.002c-.046.087-.031.093.22.093.249 0 .266-.007.22-.09zm.724.042c0-.526.011-.629.072-.629s.073.103.073.63c0 .526-.012.628-.073.628-.06 0-.072-.102-.072-.629zm.397.554c-.059-.041-.107-.107-.107-.145 0-.092.127-.09.163.003.035.091.29.096.364.006.068-.083-.005-.153-.213-.203-.43-.102-.41-.505.025-.505.105 0 .22.033.262.076.155.154.04.235-.123.088a.218.218 0 0 0-.21-.048c-.196.05-.144.16.115.246.287.095.364.176.323.34-.051.204-.394.285-.598.142zm.716-.55c0-.536.01-.633.074-.633.063 0 .072.09.06.613-.01.438-.03.62-.074.633-.046.016-.06-.128-.06-.613zm.326.573c-.123-.072-.11-.312.023-.404a.478.478 0 0 1 .233-.076.422.422 0 0 0 .212-.063c.082-.06.082-.07.006-.146-.111-.11-.245-.102-.363.025-.072.077-.114.092-.152.053-.1-.1.124-.256.365-.256.314 0 .366.076.366.536 0 .376-.024.437-.13.33-.039-.038-.08-.038-.152 0a.448.448 0 0 1-.408.001zm.47-.2c.115-.166.091-.198-.125-.169-.228.03-.31.092-.268.2.045.118.302.097.392-.031zm.365-.203c0-.277.02-.464.048-.464a.05.05 0 0 1 .049.05c0 .035.029.035.093 0 .119-.063.308-.064.37-.002.032.032.098.03.195-.007.228-.086.396-.021.431.166.046.243.007.678-.061.701-.045.015-.06-.07-.06-.32 0-.243-.022-.36-.077-.415-.091-.091-.123-.094-.227-.015-.059.044-.084.152-.094.395-.01.215-.036.342-.074.355-.045.015-.06-.07-.06-.32 0-.243-.022-.36-.077-.415-.092-.091-.123-.094-.227-.015-.059.044-.084.152-.094.395-.01.215-.036.342-.075.355-.045.015-.06-.094-.06-.444zm1.34.424c-.019-.018-.034-.227-.034-.464 0-.384.01-.43.085-.415.073.014.085.076.085.447 0 .4-.04.528-.136.432zm.39-.064c-.146-.115-.194-.317-.129-.552.055-.2.16-.272.396-.272.163 0 .325.117.325.234 0 .09-.116.065-.182-.04-.138-.222-.398-.044-.398.272 0 .228.066.308.256.308.1 0 .147-.028.165-.096.03-.113.16-.132.16-.025 0 .12-.184.266-.333.266a.496.496 0 0 1-.26-.095zm1.076-.534v-.629h.387c.323 0 .404.017.484.097.145.145.126.363-.043.488l-.14.104.188.248c.214.283.226.322.097.322-.057 0-.15-.092-.248-.244-.17-.266-.267-.337-.455-.337-.12 0-.125.01-.125.29 0 .226-.016.29-.072.29-.061 0-.073-.102-.073-.629zm.774-.193a.183.183 0 0 0 0-.194c-.042-.08-.1-.096-.34-.096H8.42v.387h.29c.238 0 .297-.017.34-.097zm.426.675c-.133-.133-.145-.17-.122-.373.031-.276.162-.399.424-.399.21 0 .385.169.385.37 0 .109-.014.114-.338.114-.187 0-.34.017-.34.038 0 .02.035.086.076.145.088.126.347.149.391.035.03-.078.211-.102.211-.028 0 .087-.256.245-.397.245-.094 0-.192-.05-.29-.147zm.496-.527a.248.248 0 0 0-.34-.1c-.188.1-.118.194.146.194.226 0 .24-.007.194-.094zm1.267.6c-.096-.068-.108-.118-.108-.46 0-.31.014-.385.073-.385.057 0 .072.069.072.33 0 .337.048.444.2.444.166 0 .236-.136.236-.463 0-.244.015-.31.072-.31.06 0 .073.082.073.459 0 .453-.021.516-.135.401-.046-.045-.071-.045-.117 0-.08.08-.238.073-.366-.017zm.763-.555c0-.526.012-.629.073-.629.052 0 .072.054.072.188v.188l.206-.024c.257-.029.376.083.41.387.02.177.003.234-.107.364-.134.16-.255.191-.412.107-.06-.032-.1-.032-.12 0-.09.144-.122-.008-.122-.58zm.56.364c.185-.281-.086-.694-.318-.485-.11.1-.135.45-.039.547.098.098.273.067.358-.062zm.311-.36c0-.535.011-.633.074-.633s.072.09.06.613c-.01.438-.03.62-.073.633-.047.016-.061-.128-.061-.613zm.29.166c0-.377.014-.46.073-.46.06 0 .073.083.073.46 0 .376-.014.46-.073.46-.06 0-.073-.084-.073-.46zm.361.34c-.156-.155-.165-.486-.018-.672.168-.215.625-.147.625.093 0 .097-.066.086-.17-.027-.047-.054-.116-.097-.152-.097-.2 0-.328.36-.208.584.068.128.316.126.385-.003.054-.101.193-.135.193-.047 0 .11-.24.289-.387.289a.39.39 0 0 1-.268-.12zm1.091-.51c0-.803.042-.817.484-.156l.314.471.014-.472c.011-.375.029-.472.085-.472.058 0 .07.11.07.63 0 .525-.011.628-.072.628-.04 0-.219-.22-.399-.49l-.327-.492-.013.491c-.011.393-.028.491-.085.491-.059 0-.071-.108-.071-.629zm1.228.516c-.178-.154-.188-.505-.018-.685.147-.157.437-.167.573-.02.095.1.16.31.113.358-.014.014-.163.025-.332.025-.315 0-.348.025-.256.197.06.113.298.126.385.02.107-.128.247-.08.157.054-.123.185-.436.21-.622.051zm.514-.5c0-.064-.162-.21-.234-.21-.08 0-.25.137-.25.202 0 .022.109.04.242.04s.242-.014.242-.032zm.339.287-.148-.463c-.036-.114-.03-.134.037-.121.052.01.115.132.183.354l.103.339.087-.351c.11-.445.22-.479.315-.097.102.406.126.413.225.066.054-.19.118-.32.157-.32.077 0 .047.17-.107.605-.131.37-.216.374-.316.016-.094-.335-.128-.375-.17-.2-.15.618-.214.648-.366.172zm1.113.23c-.054-.053-.097-.119-.097-.145 0-.075.126-.058.195.026.09.107.361.075.361-.043 0-.064-.068-.112-.242-.17-.206-.068-.244-.1-.257-.216-.023-.195.067-.275.309-.275.162 0 .226.025.286.11.068.096.068.11.003.124-.041.009-.11-.02-.153-.064-.103-.102-.284-.077-.284.04 0 .064.068.112.242.17.215.071.243.096.256.232.011.115-.012.172-.095.23-.154.108-.407.098-.524-.02zm.93.036c.011-.033.117-.317.235-.63.281-.752.322-.75.635.013.126.306.229.585.23.62.004.131-.161.027-.216-.136-.055-.164-.066-.17-.325-.184l-.268-.014-.078.196c-.046.115-.11.195-.156.195-.043 0-.069-.027-.057-.06zm.654-.739c-.055-.147-.105-.261-.112-.254a3.171 3.171 0 0 0-.109.267l-.096.254h.415zm1.528.75c-.142-.056-.21-.194-.21-.425 0-.274.148-.445.386-.445.228 0 .379.118.42.327l.03.157H21.2c-.19 0-.345.017-.345.038 0 .02.034.086.075.145a.25.25 0 0 0 .381.031c.042-.042.114-.068.16-.06.074.015.068.036-.045.15-.136.136-.306.164-.507.083zm.423-.622a.247.247 0 0 0-.44-.002c-.047.087-.032.093.219.093.249 0 .266-.007.22-.09zm.287.212c0-.377.013-.46.073-.46.04 0 .072.026.072.058 0 .045.013.045.058 0 .083-.083.357-.072.447.018.108.108.11.844.003.844-.058 0-.073-.07-.073-.336 0-.24-.021-.356-.076-.411-.094-.094-.118-.094-.252 0-.093.065-.107.118-.107.41 0 .267-.015.337-.073.337-.06 0-.072-.084-.072-.46zm.941.34c-.155-.155-.164-.486-.018-.672.169-.215.625-.147.625.093 0 .097-.066.086-.169-.027-.048-.054-.117-.097-.153-.097-.213 0-.346.437-.182.601.106.107.297.096.36-.02.053-.101.193-.135.193-.047 0 .11-.24.288-.387.288a.39.39 0 0 1-.269-.118zm-15.762-.976c-.067-.067-.032-.17.05-.153.048.009.086.047.086.084 0 .076-.086.12-.136.069zm6.353-.066c0-.054.033-.097.073-.097.04 0 .073.043.073.097 0 .054-.033.097-.073.097-.04 0-.073-.043-.073-.097zm-7.12-.278c3.308-.007 8.708-.007 12 0 3.29.007.583.013-6.017.013-6.6 0-9.293-.006-5.984-.013zM.47 11.891 0 11.417V10.05c0-.752.016-1.367.036-1.367.021 0 .222.186.447.412l.41.411h2.53c2.726 0 2.737.001 2.871.251l.056.105.066-.126c.076-.144.352-.254.513-.202a.73.73 0 0 1 .239.174c.12.129.133.132.16.046.028-.089.292-.248.41-.248.133 0 .354.164.414.306a.437.437 0 0 1-.127.54c-.14.116-.14.118-.039.172.132.07.237.325.205.495a.57.57 0 0 1-.177.261c-.105.089-.131.135-.086.15.095.033.22.19.251.315a.455.455 0 0 1-.448.568c-.147 0-.224-.033-.336-.145l-.145-.145-.121.145c-.172.204-.449.204-.652 0l-.143-.143-.14.156-.138.155-2.557.014-2.556.014zm6.006-.352.145-.145-.142-.141-.141-.142-.142.142-.142.142.13.139c.071.076.133.142.138.145.005.003.074-.06.154-.14zm1.021-.202a.43.43 0 0 1-.156-.135l-.072-.103-.15.15-.149.15.148.132.148.132.158-.147c.137-.127.146-.15.073-.179zm-.961-.802c.078-.056.074-.07-.057-.202l-.141-.141-.133.132-.133.132.145.147c.124.125.151.135.19.07a.54.54 0 0 1 .129-.138zm.903-.168c-.074-.047-.133-.12-.133-.162 0-.054-.048-.029-.158.084l-.157.162.142.145.142.145.148-.145.149-.145zm1.27-.642v-2.54h1.016v5.08H8.71zm1.597-.004V7.176l1.512.02c1.723.023 1.878.05 2.237.38.276.255.416.589.42 1.003a2.23 2.23 0 0 1-.062.541c-.09.3-.474.686-.793.797l-.33.116c-.073.027-.052.057.126.182.267.188.54.543 1.056 1.372l.406.652.013-2.527.012-2.527h.994l1.027 1.678 1.027 1.678V7.185h.967v2.5c0 1.375.014 2.486.031 2.469.017-.018.46-1.137.986-2.488l.954-2.457.553-.014.553-.013 1.002 2.505A143.268 143.268 0 0 1 24 12.23c0 .02-.248.036-.55.036h-.551l-.212-.556-.211-.557h-2.048l-.074.218c-.085.25-.064.267.12.092.072-.07.15-.115.174-.1.024.015.048.224.053.465.009.41.003.438-.088.438-.087 0-.097-.032-.097-.315 0-.304-.003-.313-.098-.254-.081.05-.107.049-.145-.011-.028-.046-.046-.05-.047-.014 0 .032-.045.179-.1.326l-.1.268h-1.074l-1.073-.001-1.004-1.63-1.004-1.63v3.261h-2.215l-.544-.803c-.823-1.218-.89-1.277-1.424-1.277h-.317v2.08h-1.065V9.721zm11.806.527c0-.064-.653-1.805-.677-1.805-.014 0-.166.394-.34.875l-.33.919c-.009.026.269.044.666.044.374 0 .681-.015.681-.033zM13.09 9.243c.283-.118.407-.574.242-.894-.122-.235-.363-.293-1.213-.293h-.749v1.32l.78-.032c.482-.021.841-.06.94-.1zm7.712 2.946c-.052-.063-.051-.084.005-.118a.112.112 0 0 1 .13.009c.076.063.208.018.208-.073 0-.043-.039-.06-.11-.047-.16.03-.283-.084-.288-.268-.005-.19.1-.31.277-.31.18 0 .273.111.3.362.036.315-.081.521-.296.521-.089 0-.19-.034-.225-.076zm.318-.408c.047-.076-.023-.242-.102-.242-.084 0-.137.117-.098.218.031.083.155.097.2.024zm.324.426a.206.206 0 0 1-.058-.12c0-.078.107-.083.18-.009.073.072.207.019.207-.082 0-.043-.043-.09-.097-.104-.113-.03-.128-.136-.024-.176a.12.12 0 0 0 .073-.102c0-.083-.123-.102-.17-.026-.05.083-.177.055-.16-.035.02-.107.212-.203.338-.17.135.035.218.228.14.323-.05.06-.045.088.022.155.076.077.086.077.127.004.09-.162.358-.488.417-.507.043-.014.06.057.06.257 0 .207.022.294.085.343.08.063.08.069 0 .132-.047.036-.085.09-.085.12 0 .096-.133.06-.16-.043-.02-.08-.06-.096-.21-.087-.114.007-.211.046-.25.099-.072.1-.345.118-.435.029zm.91-.401c0-.067-.008-.121-.019-.121a.447.447 0 0 0-.098.12c-.075.116-.074.122.019.122.072 0 .098-.032.098-.121zm-21.9-3.23L0 8.13V6.243l.449.447.448.446h2.53c2.723 0 2.734.001 2.868.251l.056.105.065-.123c.08-.152.314-.254.486-.211.07.018.19.097.263.176.128.136.136.138.166.045.032-.103.255-.243.387-.243.157 0 .372.156.44.318.06.143.06.189 0 .33a.639.639 0 0 1-.174.237l-.107.075.106.056c.135.072.241.325.208.497a.56.56 0 0 1-.174.259c-.122.102-.184.12-.337.1-.2-.026-.374-.149-.374-.262 0-.038-.071.007-.163.105-.215.228-.454.24-.663.031l-.141-.141-.142.141-.141.141H.91zM6.56 8.15l.116-.062-.14-.085c-.076-.046-.148-.111-.159-.143-.012-.037-.073-.005-.162.083l-.143.142.145.147c.13.132.15.138.186.064a.421.421 0 0 1 .157-.146zm.879-.154c-.074-.046-.133-.12-.133-.162 0-.054-.048-.029-.158.084l-.157.162.142.145.142.145.148-.145.149-.145z"/></svg>