<svg role="img" viewBox="0 0 24 24" xmlns="http://www.w3.org/2000/svg"><path d="M17.74 23.792c-.098-.108-.096-.146.014-.342l.068-.122.104.084a.775.775 0 0 1 .123.12c.016.028.04.007.107-.096a.617.617 0 0 1 .103-.131c.008 0 .062.047.119.105l.103.106-.08.152a1.02 1.02 0 0 1-.11.174c-.035.03-.19-.104-.229-.198l-.028-.068-.018.056c-.022.07-.146.254-.172.254a.408.408 0 0 1-.104-.094zm-14.726-.369l-.102-.09.092-.189a.9.9 0 0 1 .107-.188c.033 0 .207.21.221.266.012.047-.005.082-.083.175a.563.563 0 0 1-.115.117.56.56 0 0 1-.12-.09zm.44-.003a.402.402 0 0 1-.098-.065c-.017-.028.127-.399.156-.399a.5.5 0 0 1 .122.058c.097.057.097.058.086.168-.015.132-.06.229-.121.262-.054.029-.042.03-.145-.024zm-2.757-.439c-.104-.026-.179-.101-.253-.254-.12-.243-.07-.607.136-1.005.184-.355.217-.327.064.055-.198.494-.133.71.234.787.346.072.77-.146.93-.479.046-.094.06-.169.072-.395.01-.153.031-.322.05-.376.037-.105.156-.318.17-.305.017.017-.085.754-.128.929-.144.581-.581 1.026-1.036 1.053-.08.006-.16.003-.239-.01zm4.309 0c-.097-.031-.213-.152-.267-.278a.822.822 0 0 1-.04-.52c.043-.218.312-.9.355-.9.045 0 .04.019-.06.26-.128.309-.165.448-.165.626 0 .141.007.167.077.257.108.142.16.164.358.15a.797.797 0 0 0 .552-.25.749.749 0 0 0 .125-.182c.024-.069.022-.071-.126-.157-.172-.1-.188-.134-.15-.316.031-.152.149-.342.334-.542.118-.128.129-.147.092-.167-.038-.021-.036-.035.036-.182.13-.267.116-.26.293-.157a.588.588 0 0 1 .152.109c0 .043-.093.196-.155.253a2.14 2.14 0 0 1-.24.172c-.181.114-.372.28-.372.324 0 .014.057.053.127.088.11.054.13.074.152.157.04.15-.053.51-.202.78-.097.176-.322.389-.46.436-.146.05-.329.066-.416.038zm4.48-.034c-.202-.088-.293-.428-.207-.77.067-.262.337-.879.421-.963.031-.031.033-.027.019.035-.043.126-.09.25-.144.371-.137.327-.2.576-.178.696.021.115.193.25.334.264.27.026.603-.139.74-.366a.69.69 0 0 0 .075-.153c0-.014-.075-.056-.166-.091l-.166-.065.012-.154c.023-.298.204-.62.484-.855.144-.121.41-.278.432-.255.012.012-.049.19-.11.323-.018.04-.047.064-.078.064a.522.522 0 0 0-.333.147c-.105.096-.238.262-.238.296 0 .01.047.045.104.078.13.077.152.117.151.285 0 .186-.056.404-.154.609-.103.214-.35.474-.488.512-.124.034-.423.03-.51-.008zm5.822.014a.612.612 0 0 1-.12-.11c-.138-.153-.163-.418-.073-.754.054-.199.304-.75.38-.838.083-.096.085-.102-.1.35a7.463 7.463 0 0 0-.175.47l-.048.156.054.124c.06.135.108.168.297.204.222.042.481-.048.674-.234.097-.094.111-.12.111-.202 0-.09-.006-.099-.1-.144a.494.494 0 0 1-.154-.122c-.05-.069-.053-.083-.028-.18a2.1 2.1 0 0 1 .125-.304c.079-.16.138-.238.308-.407.195-.195.5-.402.5-.34 0 .013-.026.108-.059.211l-.06.187h-.082c-.124 0-.236.064-.398.229-.193.195-.19.22.056.366.037.022.043.052.039.197 0 .206-.05.408-.147.59-.11.23-.284.43-.446.51-.102.051-.15.06-.32.058-.108 0-.214-.009-.234-.017zm-1.033-.507a4.05 4.05 0 0 1-.101-.07c-.01-.006.03-.108.111-.291l.049-.109.104.059.104.058v.133c0 .12-.008.14-.076.207a.49.49 0 0 1-.088.074.694.694 0 0 1-.103-.061zm6.551-.331a2.31 2.31 0 0 1 .22-.162c.257-.176.355-.286.499-.559.088-.166.119-.208.143-.188.024.02.024.044-.001.13a.447.447 0 0 0-.018.174c.03.153.232.21.376.108.04-.028.116-.082.167-.12a.399.399 0 0 1 .174-.072c.07-.004.094-.024.188-.153.119-.164.277-.337.34-.372.047-.026.227.055.227.103 0 .088-.08.313-.15.421-.168.264-.458.39-.726.314-.108-.03-.11-.03-.157.036-.162.226-.299.325-.41.298a.314.314 0 0 1-.197-.2l-.016-.072-.046.063c-.064.089-.21.168-.413.224-.194.053-.217.056-.2.027zm1.957-.721c.112-.051.171-.126.171-.216 0-.055-.01-.065-.062-.065-.044 0-.094.033-.172.114-.06.063-.122.136-.136.163-.024.044-.02.048.038.048.036 0 .108-.02.16-.044zm-20.278.67c0-.021.165-.154.337-.27.18-.12.2-.146.304-.356.119-.24.158-.291.303-.384.07-.044.175-.125.234-.18.12-.11.122-.097.015.146-.066.15-.128.221-.241.28a.626.626 0 0 0-.29.36c-.068.233-.236.363-.517.402-.08.01-.145.012-.145.003zm14.831-.035a.48.48 0 0 1-.11-.127c-.06-.116-.039-.548.057-1.16.017-.11.16-.48.177-.46a4.18 4.18 0 0 1-.039.32c-.106.748-.105.883.004 1 .14.15.323.057.542-.276.225-.342.32-.408.493-.341l.102.039.134-.082c.074-.045.17-.108.214-.141.097-.072.118-.074.118-.013 0 .067-.142.213-.277.287-.127.07-.375.13-.531.13-.097.001-.099.003-.085.065.008.035.04.11.07.165.089.163.01.245-.235.247h-.139l-.1.151a.588.588 0 0 1-.307.255.433.433 0 0 1-.087-.06zm-10.584-.011c-.1-.053-.107-.09-.04-.22.036-.072.052-.17.07-.441.03-.437.057-.629.118-.81.08-.239.089-.231.09.079 0 .456-.048.79-.156 1.064a.499.499 0 0 0-.046.158c.028.028.2-.043.27-.112.161-.158.173-.208.19-.774.015-.546.039-.678.149-.815l.052-.066-.019.115a4.59 4.59 0 0 0-.02.468l-.001.353.061.048c.09.071.289.067.388-.008a.869.869 0 0 1 .178-.096.99.99 0 0 0 .264-.194c.17-.164.184-.15.071.067-.1.194-.227.307-.392.352-.065.017-.134.067-.226.16-.143.147-.236.184-.35.141-.06-.023-.063-.02-.089.074a.93.93 0 0 1-.233.41c-.113.11-.189.12-.328.047zm4.75-.225c.147-.15.279-.305.293-.343.142-.377.174-.454.193-.466.032-.02.027.038-.026.296-.098.48-.213.65-.506.74-.06.02-.122.036-.185.046-.021 0 .08-.12.23-.273zm.67.263c0-.005.097-.07.215-.145.232-.145.413-.297.413-.346 0-.031-.025-.042-.157-.069-.13-.026-.139-.085-.043-.275.046-.091.11-.197.14-.235l.058-.07.145.149.144.148.06-.079c.195-.262.335-.324.415-.184.021.039.045.07.053.07.02 0 .261-.344.345-.493.086-.153.15-.213.375-.346.088-.053.16-.1.16-.105 0-.005-.098-.009-.22-.009-.205 0-.22.003-.22.047 0 .03-.016.046-.047.046-.06 0-.059-.024.004-.104.11-.14.371-.19.613-.116.18.054.192.067.136.144-.046.062-.194.146-.516.295a.778.778 0 0 0-.158.087c-.007.011.035.075.094.142a.73.73 0 0 1 .106.14c0 .01-.021.06-.047.11l-.047.092h-.183c-.179 0-.186.002-.247.076-.069.1-.128.205-.179.315-.063.132-.12.236-.125.23-.006-.006 0-.056.013-.112.043-.184.033-.248-.044-.287a.314.314 0 0 0-.102-.036c-.057 0-.28.262-.432.51-.162.262-.179.274-.478.361-.203.059-.244.067-.244.05zm7.09-.066c.093-.083.188-.164.284-.244a1.37 1.37 0 0 0 .202-.189c0-.01-.04-.026-.088-.034-.11-.017-.191-.074-.191-.132 0-.072.084-.274.15-.36.078-.103.164-.108.254-.014.058.06.063.079.05.18-.046.348-.154.606-.291.697-.075.05-.391.173-.438.171-.008 0 .022-.034.067-.075zm-15.35-.052c.01-.051.042-.205.072-.341.03-.137.055-.284.055-.328 0-.127.086-.427.176-.614a.745.745 0 0 1 .092-.165c.01.011-.051.56-.085.75a1.927 1.927 0 0 1-.208.586c-.117.222-.123.229-.102.112zm16.521-.082a5.09 5.09 0 0 0 .105-.487c.076-.429.119-.589.2-.748.062-.125.11-.168.092-.085-.02.125-.036.251-.05.377-.059.514-.167.843-.326.993l-.057.053zm-19.24 0a2.413 2.413 0 0 1-.145-.078c-.01-.01.204-.386.219-.386a.84.84 0 0 1 .116.075c.101.073.104.079.092.172-.018.126-.083.287-.116.287a.872.872 0 0 1-.165-.07zm7.354.063a.98.98 0 0 1 .033-.104c.018-.051.061-.259.095-.461.066-.389.14-.651.222-.78l.05-.077-.016.22c-.035.532-.117.863-.267 1.08-.064.094-.117.148-.117.122zm-6.283-.123c.018-.062.06-.27.092-.462.033-.192.084-.423.115-.514.052-.156.147-.346.165-.328.02.02-.11.902-.15 1.018a.935.935 0 0 1-.208.354l-.048.043zm9.568-2.509c-.04-.032-.28-.275-.533-.54-.252-.264-.831-.857-1.286-1.317-.456-.46-1.014-1.028-1.24-1.26l-.412-.425v-.244l.784-.766c.432-.42 1.214-1.19 1.738-1.71.612-.609.987-.964 1.05-.995l.098-.05.125.048c.116.043.258.18 1.86 1.8 1.518 1.536 1.735 1.764 1.735 1.825v.069h-.683c-.375 0-.712.006-.75.013-.061.013-.074.001-.168-.145-.15-.232-.554-.622-.785-.759a2.269 2.269 0 0 0-.716-.267 1.03 1.03 0 0 0-.145-.018.982.982 0 0 0 .143.102c.374.247.594.641.594 1.067 0 .559-.473 1.114-1.04 1.222l-.145.027v1.116c0 1.072-.002 1.119-.046 1.191-.055.09-.081.093-.178.016zm-.636-2.576a1.079 1.079 0 0 0-.098-.125 1.811 1.811 0 0 1-.291-.474c-.047-.129-.065-.535-.03-.694.047-.223.158-.413.36-.617l.187-.19-.197.07c-.37.13-.667.311-.86.522-.185.203-.22.286-.22.519 0 .258.063.388.272.557.143.116.557.336.761.405.124.041.116.04.116.027zm4.582-1.33c-.07-.035-1.957-1.917-2.769-2.761-.184-.192-.415-.43-.513-.529-.21-.213-.292-.35-.268-.449.012-.049.52-.572 1.79-1.843l1.773-1.775.16.017.16.016 1.002 1.003 1.001 1.004-.748.737c-.412.405-.779.748-.814.762-.115.043-.19.005-.417-.213l-.218-.208-.297.288-.297.288.096.114c.053.063.19.207.306.321l.209.208.203-.185c.406-.368.694-.643 1.926-1.845a232.94 232.94 0 0 1 1.603-1.553l.349-.33h2.451l.005.965.006 1.121.001.157-.792.012-.793.011-.787.754c-.598.574-1.194 1.15-1.787 1.73-.602.59-1.206 1.176-1.813 1.759-.484.47-.553.51-.727.424zM6.926 14.35c-.54-.54-.981-.994-.981-1.008 0-.041 1.487-1.493 1.544-1.507.079-.02.207.055.418.243.102.091.195.165.207.165.043 0 .55-.527.549-.571 0-.048-.274-.368-.436-.51l-.099-.086-.121.112c-.496.454-.986.914-1.47 1.381-.33.32-.663.638-.999.953-.332.311-.799.757-1.036.991-.245.24-.467.44-.513.459-.065.027-.138.03-.392.013-.393-.018-.786-.03-1.179-.036l-.865-.017V12.71h.659c.362 0 .722-.007.8-.015l.142-.015.367-.34c.202-.189.702-.67 1.111-1.072.41-.402.901-.877 1.092-1.056.191-.179.74-.71 1.22-1.182.479-.47.903-.88.941-.91a.602.602 0 0 1 .178-.083c.217-.058.185-.085 1.36 1.112 1.547 1.575 2.292 2.358 2.355 2.477.05.095.052.11.023.17-.018.036-.812.848-1.765 1.803l-1.732 1.737h-.398zm14.588.807a38.56 38.56 0 0 0-.852-.033l-.793-.025-.763-.766c-.42-.421-.767-.779-.77-.795-.004-.015.358-.392.803-.837l.81-.81.28.31.474.523.195.214h.745l.746.002.039.772c.057 1.135.06 1.193.045 1.332l-.013.127-.444-.003c-.245-.002-.47-.007-.503-.01zm-.616-2.648c-.051-.063-.21-.247-.355-.41-.235-.268-.258-.302-.232-.344.015-.025.175-.18.354-.344l.326-.299 1.24-.016 1.241-.017.124.061a.776.776 0 0 1 .264.232l.14.17v.245c0 .24-.002.248-.084.389-.114.193-.233.322-.347.372-.086.038-.212.044-1.336.058l-1.242.017zM.512 12.316c-.4-.137-.63-.647-.45-.992.073-.14.25-.351.35-.417l.09-.06 1.21-.02c.421-.01.843-.013 1.264-.006a.4.4 0 0 1 .13.085c.103.096.596.685.596.711 0 .012-.152.177-.338.367l-.339.346-.719.015c-1.249.027-1.653.02-1.794-.028zm3.283-1.169c-.179-.167-.4-.37-.493-.448-.162-.139-.174-.145-.326-.16a14.114 14.114 0 0 0-.755-.014h-.599V9.54c0-.541-.007-1.032-.014-1.092l-.015-.108h1.252c1.153 0 1.257.004 1.31.041.032.023.396.38.81.794l.75.753-.228.23a53.04 53.04 0 0 1-1.351 1.29 4.075 4.075 0 0 1-.34-.3zM11.687 9.5l-.311-.325-.282.015c-.574.032-1.168-.067-1.57-.26l-.222-.108.135-.043c.074-.023.315-.069.535-.101.442-.065.59-.095.718-.145l.087-.034-.203-.158c-.834-.649-1.41-1.592-1.65-2.696-.058-.271-.062-.329-.062-.86 0-.543.003-.582.065-.846.182-.77.504-1.371 1.025-1.916.164-.17.452-.421.484-.421.006 0-.039.112-.1.25-.329.738-.488 1.426-.487 2.103.003 1.31.477 2.48 1.38 3.404l.165.17.011-.332c.014-.4-.012-3.054-.045-4.631-.022-.998-.02-1.142.01-1.162.019-.013.096-.058.17-.1.136-.077.528-.395.51-.413a.533.533 0 0 0-.147.038c-.22.076-.374.083-.55.024A.75.75 0 0 1 10.87.46c-.024-.085-.034-.317-.013-.337.007-.007.083.045.17.117.196.163.275.2.423.2.17 0 .354-.077.5-.21a.71.71 0 0 1 .147-.115c.011 0 .053.046.092.102.131.185.395.263.646.19a.527.527 0 0 0 .26-.165c.088-.088.145-.127.187-.127.06 0 .06.001.045.14a.858.858 0 0 1-.07.25c-.173.339-.642.556-1.002.464l-.14-.036.058.047c.032.026.181.12.331.209l.274.161-.002.562c-.001.31-.011.682-.022.83-.01.146-.03.81-.044 1.475-.01.535-.026 1.069-.05 1.603-.033.527-.057 1.731-.034 1.731.037 0 .343-.266.505-.439.981-1.046 1.419-2.58 1.148-4.023-.073-.39-.115-.527-.33-1.076-.095-.24-.172-.443-.172-.449 0-.037.31.218.482.396.741.768 1.104 1.969 1.006 3.326a6.247 6.247 0 0 1-.073.604c-.224 1.133-.846 2.066-1.688 2.535a.46.46 0 0 0-.122.083.73.73 0 0 0 .168.085c.18.074.34.112.808.188.16.026.33.06.38.073l.09.026-.067.04c-.427.255-1.32.396-1.857.293l-.18-.034-.119.1c-.065.056-.226.202-.357.326-.08.076-.161.15-.244.222-.002 0-.145-.147-.316-.326zm3.808-1.493c0-.078.034-.153.165-.365.217-.35.369-.915.44-1.637.034-.346.03-.646-.012-1.028-.135-1.197-.453-2.017-1.089-2.807-.161-.2-.268-.298-.625-.569a1.794 1.794 0 0 1-.227-.188c0-.009.045-.011.1-.006.506.055.886.191 1.309.468.885.582 1.457 1.582 1.588 2.775.093.857-.123 1.77-.581 2.449-.223.33-.63.71-.98.916l-.088.05zm-7.087-.159a3.427 3.427 0 0 1-1.193-1.613 4.04 4.04 0 0 1 .227-3.145c.167-.334.324-.55.604-.83a3.122 3.122 0 0 1 1.708-.9c.235-.04.466-.05.466-.018 0 .031-.09.103-.337.265C9 2.189 8.33 3.477 8.15 4.937a8.154 8.154 0 0 0-.001 1.331c.037.286.164.779.27 1.042.073.182.197.422.315.607.03.047.03.056 0 .075-.064.04-.103.023-.326-.144z"/></svg>