<svg role="img" viewBox="0 0 24 24" xmlns="http://www.w3.org/2000/svg"><path d="M10.728 23.99c-2.268-.047-3.64-.108-4.687-.208-1.025-.098-1.724-.216-2.397-.405-.868-.244-1.519-.619-2.094-1.205a3.371 3.371 0 0 1-.592-.775c-.36-.637-.571-1.488-.7-2.82-.107-1.096-.163-2.151-.209-3.893l-.03-1.16a79.94 79.94 0 0 1 .01-3.533c.067-2.446.118-3.455.234-4.625.076-.77.175-1.334.325-1.848.151-.519.27-.781.521-1.153A4.319 4.319 0 0 1 3.21.758C4.072.446 5.185.26 6.852.15A85.15 85.15 0 0 1 12.405 0c2.244.014 4.613.108 5.717.228.924.1 1.5.197 2.041.342.234.062.587.176.767.248.746.296 1.396.8 1.92 1.487.217.283.43.711.571 1.143.119.364.221.832.3 1.368.097.668.188 1.839.23 2.98.04 1.068.046 1.614.046 4.276 0 2.478-.002 2.687-.026 3.433-.1 3.208-.298 4.612-.79 5.632-.195.407-.424.712-.823 1.103a3.61 3.61 0 0 1-.826.64c-.737.427-1.643.68-3.016.84-1.134.132-2.448.207-4.31.247l-1.07.023c-.573.012-1.8.012-2.407 0zm5.916-1.195.263-.363a50.64 50.64 0 0 0 3.655-5.803c.279-.518.441-.884.623-1.405.422-1.208.648-2.814.589-4.175a11.683 11.683 0 0 0-.685-3.508c-.4-1.104-1.012-2.218-1.696-3.082a12.83 12.83 0 0 0-2.55-2.394c-.553-.384-1.17-.742-1.569-.908l-.083-.034-.065.027c-.421.177-1.069.54-1.601.897-.824.552-1.592 1.26-2.306 2.124-.082.1-.053.095-.603.097-.44.002-.509.005-.76.032a7.249 7.249 0 0 0-2.747.882 6.719 6.719 0 0 0-1.265.892A7.491 7.491 0 0 0 4.722 7.33a7.428 7.428 0 0 0-1.291 5.395c.114.795.367 1.595.743 2.359l.115.231-.03.246a11.037 11.037 0 0 1-.44 1.97c-.258.756-.556 1.294-.964 1.736-.092.1-.178.177-.536.48a1.21 1.21 0 0 0-.115.104c-.003.045.88.076 1.271.045 1.244-.1 2.526-.542 3.966-1.365l.213-.121.184.073c.755.3 1.501.479 2.244.54.24.019.806.022 1.04.004l.158-.011.042.048c.024.027.089.108.145.18a11.497 11.497 0 0 0 2.12 2.08 10.52 10.52 0 0 0 2.385 1.33c.228.089.572.21.598.211.016 0 .04-.022.074-.07zm-.407-.578c-1.816-.686-3.442-1.96-4.646-3.637l-.083-.116.065-.098c.186-.28 2.218-3.226 2.251-3.264.005-.006.015 0 .893.564.78.5.804.516.838.504.04-.014.03-.002.225-.26.713-.94 1.198-2.061 1.37-3.167a5.99 5.99 0 0 0 .08-1.064 4.64 4.64 0 0 0-.036-.68 6.858 6.858 0 0 0-.955-2.856 8.555 8.555 0 0 0-.469-.69l-.027-.032-.048.027c-.07.04-.328.201-.516.324-.554.363-.923.593-1.08.672l-.061.03-.02-.026-.344-.5-.77-1.114c-.609-.878-.951-1.377-1.23-1.791l-.235-.351.033-.043c.098-.13.394-.473.567-.66a10.181 10.181 0 0 1 3.093-2.292l.06-.026.058.027c.138.063.527.276.745.41.925.561 1.782 1.285 2.65 2.233.25.274.434.51.712.913a10.938 10.938 0 0 1 1.775 4.41 11.44 11.44 0 0 1 .034 3.43c-.049.353-.121.762-.184 1.036a9.48 9.48 0 0 1-.893 2.338 50.877 50.877 0 0 1-3.68 5.805 1.084 1.084 0 0 1-.172-.056zm-8.857-9.44c-.009-.003-.054-.01-.1-.018a.94.94 0 0 1-.568-.354.924.924 0 0 1-.194-.622.989.989 0 0 1 .668-.865.595.595 0 0 1 .25-.032.77.77 0 0 1 .248.027.96.96 0 0 1 .71.92.973.973 0 0 1-.644.9 1.08 1.08 0 0 1-.37.043zm3.073-.011a.965.965 0 0 1-.768-.699.993.993 0 0 1 .007-.483c.1-.33.336-.575.65-.671.112-.035.334-.038.46-.005a.979.979 0 0 1 .662.56.966.966 0 0 1-.64 1.284 1.072 1.072 0 0 1-.37.014zm3.167.005c-.38-.04-.704-.336-.804-.737a.667.667 0 0 1-.02-.242.672.672 0 0 1 .04-.238c.09-.259.326-.53.522-.598.147-.052.256-.068.437-.062.142.005.174.01.247.037a.991.991 0 0 1 .564.56c.056.144.07.23.063.38a.92.92 0 0 1-.271.624.917.917 0 0 1-.778.276z"/></svg>