<svg role="img" viewBox="0 0 24 24" xmlns="http://www.w3.org/2000/svg"><path d="M0 0v24h24V0zm22.784 1.238v10.996c-.002 1.196.002 2.393-.002 3.589H1.238V1.24c7.181 0 14.362 0 21.546-.002zM11.96 4.69c-.141 0-.283.002-.425.004a24.073 24.073 0 0 0-4.017.396c-1.01.194-2.011.46-2.965.848-.729.303-1.442.673-2.034 1.2-.378.342-.708.767-.82 1.273-.102.431-.006.893.217 1.273.305.517.778.909 1.275 1.23.443.284.917.513 1.402.71.928.375 1.898.633 2.88.825a23.69 23.69 0 0 0 3.378.387c1.174.05 2.35.026 3.52-.082a21.554 21.554 0 0 0 3.117-.513c.872-.216 1.732-.495 2.54-.884.563-.274 1.11-.602 1.564-1.038.284-.277.532-.6.666-.975.121-.333.133-.708.03-1.048-.11-.37-.335-.694-.6-.97a5.068 5.068 0 0 0-1.104-.84c-.72-.416-1.502-.719-2.297-.96a19.477 19.477 0 0 0-3.356-.67 25.386 25.386 0 0 0-2.97-.166zM7.434 6.408v2.027c0 .14.024.3.143.392.132.098.307.082.462.082.145 0 .319-.03.396-.172.099-.19.08-.41.087-.616h.626c-.002.19.005.38-.007.57-.017.08.058.14.12.175a.505.505 0 0 0 .37.007c.114-.065.145-.208.166-.328.019-.14.021-.283.021-.426h.626c-.002.206.005.412-.007.618-.01.033.018.054.04.073.105.096.267.115.4.082.101-.033.122-.155.139-.246.028-.204.03-.41.028-.616h.628c-.005.166-.002.332-.002.499.002.105.014.227.098.302.092.073.214.078.326.08.157-.002.321.007.469-.056a.127.127 0 0 0 .08-.139 13.335 13.335 0 0 0-.097-.916c.232-.037.464-.077.697-.115.04.342.09.685.089 1.031 0 .296-.094.605-.312.811-.209.2-.504.277-.785.284-.2.002-.41.009-.598-.077a.618.618 0 0 1-.293-.27c-.124.192-.33.345-.565.347-.258.007-.534-.105-.682-.323a.653.653 0 0 1-.295.262c-.192.07-.403.08-.602.035-.18-.04-.32-.173-.425-.316a.817.817 0 0 1-.642.337c-.239.012-.518.033-.703-.152a1.24 1.24 0 0 1-.281.914c-.312.363-.797.537-1.266.56-.384.017-.808-.035-1.113-.293-.26-.22-.366-.57-.368-.9.007-.464.138-.918.302-1.35.185.059.373.108.558.167-.082.335-.166.672-.162 1.02a.405.405 0 0 0 .216.358c.216.115.469.11.705.093.218-.023.446-.07.629-.199.072-.051.145-.131.138-.227l-.07-3.314c.239-.024.48-.045.717-.075zm6.964.005v3.38l-.65.044c-.018-1.118-.044-2.236-.068-3.354l.718-.07zm4.143.002v3.377c-.215.017-.433.03-.649.047a798.322 798.322 0 0 0-.07-3.354c.241-.028.48-.047.72-.07zm-5.76.047.065.002c.145.129.277.279.422.412-.002.03.007.068-.021.09-.124.123-.249.25-.375.374-.021.03-.059.021-.092.024-.128-.134-.262-.263-.391-.394-.037-.026-.037-.087-.005-.115.131-.131.265-.262.396-.394zm4.607 1.228c.042.342.094.684.092 1.031-.002.326-.118.67-.385.872-.274.209-.635.239-.968.218a.536.536 0 0 1-.347-.16c-.023.343-.13.694-.375.945-.304.317-.761.445-1.188.438-.058-.25-.105-.504-.164-.754.267-.066.54-.136.778-.277.115-.068.23-.166.26-.305.01-.147-.02-.295-.035-.443-.047-.34-.105-.677-.17-1.014.231-.061.463-.125.695-.186.042.19.08.385.15.568.042.11.11.225.23.26.138.037.281.028.422.028a.794.794 0 0 0 .323-.056c.052-.021.09-.078.078-.136a12.039 12.039 0 0 0-.097-.917c.232-.04.464-.077.701-.112zm-.998 2.468c.026 0 .05 0 .068.005.126.133.262.26.389.394.12-.127.244-.246.365-.37.022-.031.061-.024.094-.029l.401.401c-.005.026.005.059-.019.08l-.377.377-.068.002c-.131-.131-.265-.263-.394-.396-.122.126-.248.25-.373.375-.02.028-.058.016-.089.021-.122-.124-.246-.246-.368-.368-.035-.026-.04-.087-.007-.115zM2.138 16.44c.896-.001 1.794.002 2.69 0h14.578c1.128.002 2.253-.005 3.38.002-.005 2.107-.002 4.215-.002 6.322H1.244c.006-1.379.003-2.754.003-4.133-.002-.728.005-1.46-.005-2.189.298-.002.597-.003.895-.003zm4.258 1.073H5.027l-1.024 4.182h1.294c.223-.886.443-1.772.663-2.658.014-.058.017-.122.047-.175.066.946.136 1.893.202 2.842h1.125l1.544-2.746c.045-.078.082-.16.136-.23-.281.991-.539 1.987-.816 2.979h1.365c.346-1.4.689-2.796 1.038-4.193-.64 0-1.278-.002-1.917 0-.514.926-1.032 1.847-1.545 2.772-.023.043-.044.09-.08.127-.063-.966-.14-1.931-.206-2.9h-.457zm4.697 0c-.09.385-.176.77-.272 1.154.436 0 .874-.002 1.31 0-.187.729-.365 1.46-.546 2.191.424-.005.849 0 1.273-.002l.553-2.189h1.284c.047.012.043-.047.054-.075.09-.36.18-.72.274-1.078zm5.681 0c-.429.003-.86-.001-1.291.003a986.703 986.703 0 0 1-1.022 4.186c.412 0 .827-.002 1.242 0 .223-.884.455-1.765.67-2.649.087.139.146.296.223.441.361.734.717 1.472 1.078 2.205h1.313c.349-1.394.7-2.79 1.052-4.185h-1.312a876.81 876.81 0 0 0-.664 2.646c-.168-.314-.311-.64-.47-.959-.273-.562-.545-1.125-.819-1.687zm-5.236 3.538-.16.665 1.271-.002.169-.663z"/></svg>