<svg role="img" viewBox="0 0 24 24" xmlns="http://www.w3.org/2000/svg"><path d="M12.764 23.978a.702.702 0 0 1-.384-.272c-.088-.131-.09-.15-.142-.965-.04-.656-.09-1.245-.11-1.341-.01-.025 0-.027.04-.027.024 0 .116.012.202.026.195.033.266.023.326-.046.02-.023.037-.05.037-.06 0-.013.017-.01.07.014a.46.46 0 0 0 .17.038c.113.01.187-.01.278-.054.033-.017.064-.026.069-.02.01.012.094.563.151 1l.09.678c.024.192.045.385.044.429 0 .11-.049.203-.186.366-.172.206-.267.257-.47.256a.823.823 0 0 1-.186-.022zm.353-.428.097-.098-.01-.285a8.883 8.883 0 0 0-.082-.945 14.47 14.47 0 0 1-.068-.707l-.01-.107-.154.147a2 2 0 0 1-.162.147s-.015-.023-.024-.052c-.067-.23-.062-.22-.086-.19a.66.66 0 0 0-.11.386c0 .049.013.187.03.306.03.228.047.417.068.776.023.4.084.597.233.753l.061.064.058-.049a3.14 3.14 0 0 0 .154-.146zm.83.179a.32.32 0 0 1 .107-.223c.067-.06.161-.102.374-.165.095-.03.18-.056.187-.061.02-.012-.05-.325-.244-1.101-.208-.834-.315-1.314-.302-1.349 0-.01.044-.023.09-.03l.388-.084c.167-.037.306-.065.31-.062 0 0 .025.073.051.157.041.133.044.152.027.16-.01 0-.113.034-.227.065a9.23 9.23 0 0 0-.211.059s.06.319.113.551c.024.108.12.501.214.874.18.716.258 1.042.252 1.048-.01.01-.51.116-.79.17l-.317.061c-.029.01-.029.01-.023-.07zm-3.077-.341c0-.097-.01-.71-.01-1.365v-1.189h.355v2.408l.243-.01.242-.01.01.077c0 .042.01.115.01.161v.084h-.32c-.177 0-.366 0-.42.01l-.1.01-.01-.176zm-.634.078h-.083v-.045c.001-.061.03-.307.037-.31h.302l.01.045c0 .025.01.107.01.182v.138h-.095c-.052 0-.131 0-.177-.01zm-.916-.058a.813.813 0 0 1-.305-.166.306.306 0 0 1-.061-.106c-.023-.079-.02-.258.01-.447l.023-.155h.057c.032 0 .108 0 .17.01l.114.01-.01.13c-.01.07-.012.185-.012.253 0 .107 0 .13.026.159.02.027.037.035.08.038.086.01.142-.024.172-.093.074-.173.099-.449.055-.611a2.28 2.28 0 0 0-.124-.281 2.155 2.155 0 0 1-.214-.562c-.076-.374.033-.744.258-.876a.565.565 0 0 1 .642.075c.092.089.117.225.085.463-.01.082-.02.169-.02.192 0 .024-.01.047-.014.052-.022.013-.33-.046-.338-.065l.02-.222c.014-.113.026-.224.026-.246v-.04l-.069.01c-.165.017-.249.16-.249.425 0 .146.034.248.237.716.044.102.096.237.114.3a.765.765 0 0 1 .034.292v.177l-.057.157a.909.909 0 0 1-.107.223.543.543 0 0 1-.54.195zm6.29-.34a4.815 4.815 0 0 1-.326-.548l-.03-.07.099-.07a1.4 1.4 0 0 1 .112-.073c.01 0 .085.109.172.247l.166.264c0 .01.067-.025.14-.07.072-.045.426-.255.787-.467.36-.212.66-.389.664-.393.01-.01-.206-.381-.23-.405 0 0-.028.01-.057.024-.043.024-.533.317-.577.345-.026.017-.557-.77-.74-1.093l-.038-.07.166-.083a.949.949 0 0 0 .166-.094c0-.01-.041-.073-.091-.15l-.091-.139.05-.029.193-.108.277-.16.137-.08.094.161c.052.09.151.253.221.365.07.112.126.209.126.214 0 .01-.154.104-.341.218l-.34.207.037.055c.037.054.138.192.157.214.01.01.11-.054.234-.136.123-.081.269-.175.324-.21l.101-.061.128.167a22 22 0 0 1 .618.845c0 .01-.011.018-.023.025-.013.01-.364.238-.78.512-.789.522-1.33.87-1.348.87-.01 0-.077-.1-.157-.223zm-1.732-.3a16.464 16.464 0 0 1-.179-.994c-.029-.222-.05-.502-.038-.515 0-.01.067-.01.14 0 .104.01.131.012.136.028.013.04.142.745.208 1.126.037.219.077.438.088.487.019.086.019.09 0 .122-.018.024-.055.043-.14.072a2.32 2.32 0 0 1-.127.04c-.01 0-.044-.163-.084-.363zm-6.152.113c-.107-.05-.2-.092-.208-.095-.015 0 .01-.116.15-.69.058-.237.11-.431.114-.431 0 0 .045.067.09.149l.082.149-.043.166c-.05.194-.11.477-.102.484 0 0 .082-.188.174-.425.16-.408.5-1.25.668-1.657a1.17 1.17 0 0 1 .087-.186 1.2 1.2 0 0 1 .217.149c0 .02-.171.472-.274.722a67.61 67.61 0 0 1-.334.78c-.267.608-.407.937-.407.953 0 .027-.03.017-.214-.068zM7 22.576l-.118-.017s.063-.154.142-.34c.08-.187.225-.535.324-.774a23.013 23.013 0 0 1 .634-1.414s.092.034.199.08c.187.08.194.086.19.117-.01.045-.089.387-.213.875-.058.225-.114.466-.127.535a.395.395 0 0 1-.032.122 1.333 1.333 0 0 1-.175-.266c.11-.405.267-1.04.256-1.04-.01 0-.09.172-.172.355a31.19 31.19 0 0 0-.31.758c-.128.32-.277.682-.33.804-.086.193-.103.223-.126.222-.014 0-.079-.01-.142-.017zm8.93-.119a9.662 9.662 0 0 0-.292-.657c-.316-.659-.433-.951-.5-1.244l-.017-.076h.182l.153.302c.084.167.215.424.293.572.172.33.282.575.36.807l.06.177-.108.073c-.06.04-.112.073-.115.073 0 0-.01-.012-.014-.027zm-9.43-.146a.894.894 0 0 1-.15-.1c0-.01.042-.1.092-.208.13-.282.192-.438.181-.45-.01-.01-.103-.043-.217-.084l-.207-.075-.028.035c-.015.02-.067.09-.114.159-.094.135-.178.227-.237.258a.272.272 0 0 1-.224-.01c-.029-.015-.052-.033-.052-.04 0-.017.132-.225.224-.354.199-.278.37-.491.887-1.099.152-.179.348-.415.434-.525.087-.11.164-.197.172-.195.042.01.386.212.386.225 0 .017-.169.472-.299.806-.187.477-.684 1.724-.69 1.732 0 0-.075-.03-.157-.079zm.34-1.23a104.258 104.258 0 0 1 .486-1.115c.01-.026-.478.584-.621.776-.157.212-.287.408-.277.418.01.01.292.16.302.162 0 0 .053-.108.11-.24zm8.259 1.166a.338.338 0 0 1-.1-.072c-.046-.048-.053-.062-.053-.11 0-.044.01-.064.043-.106a.238.238 0 0 0 .043-.063c0-.02.084-.048.12-.04.132.032.249.167.208.241a.493.493 0 0 1-.105.141.214.214 0 0 1-.156.01zm3.223-.554-.15-.144.294-.248a6.98 6.98 0 0 0 .295-.257s-.293-.295-.651-.646c-.966-.947-1.012-.994-1.012-1.042 0-.084.1-.16.212-.16.055 0 .063 0 .17.1.185.166.317.292.948.908.332.323.608.59.615.591.022.01.074-.036.11-.093.072-.113.04-.219-.12-.401-.138-.155-.175-.203-.17-.218.01-.027.135-.067.21-.068.115 0 .205.048.338.185a.84.84 0 0 1 .108.122c0 .028.03 0 .11-.094.053-.062.085-.112.082-.122-.01-.024-.192-.158-.345-.252a.725.725 0 0 1-.128-.089c0-.01.145-.235.184-.285l.02-.027.212.183c.117.1.216.183.22.183 0 0 .064-.052.13-.116l.12-.115-.122-.12c-.14-.137-.195-.21-.216-.289-.02-.074.001-.142.063-.208l.047-.051.065.062.337.322.272.261-.052.06c-.029.031-.179.192-.334.355-.318.334-.658.705-1.276 1.39-.232.256-.425.466-.428.466 0 0-.074-.065-.158-.143zm-3.351-.079a.68.68 0 0 1-.134-.106l-.078-.08.041-.034a.338.338 0 0 1 .231-.09c.096 0 .146.03.176.104.027.067.025.118-.01.16-.053.076-.138.092-.231.046zm-9.755-.187c-.094-.062-.135-.096-.13-.107.01-.01.107-.136.225-.284.304-.38.454-.58.466-.621.015-.052-.01-.114-.094-.228a.651.651 0 0 0-.08-.098c-.01 0-.416.529-.67.865l-.112.15-.046-.033a2.496 2.496 0 0 1-.234-.188s.138-.177.307-.385c.442-.542.609-.753.79-.996.139-.187.373-.522.4-.575.01-.02-.062.05-.421.398-.448.435-1.313 1.24-1.331 1.24 0 0-.065-.056-.135-.126l-.126-.126.163-.145a56.245 56.245 0 0 0 1.746-1.637.494.494 0 0 1 .075-.068s.022.021.04.047c.048.075.156.186.377.39.224.206.338.337.405.469l.044.085-.023.067a1.633 1.633 0 0 1-.325.549.644.644 0 0 1-.429.215l-.087.01.042.133.042.134-.074.123c-.144.24-.357.517-.547.714l-.119.124zm.925-1.482c.299-.323.389-.493.326-.615a.284.284 0 0 0-.131-.108c-.031-.012-.037-.01-.1.062-.09.099-.233.282-.385.492l-.123.172.07.022c.24.075.253.074.343-.024zm11.787 1.112a39.4 39.4 0 0 1-.586-.62 52.305 52.305 0 0 0-.485-.521 1.572 1.572 0 0 1-.114-.124c0-.013.245-.22.255-.215.01 0 .071.076.145.163.074.087.272.313.44.501.318.358.504.576.619.725l.068.089-.05.11a.375.375 0 0 1-.064.11c-.01 0-.11-.098-.228-.217zm-6.32-.799a6.582 6.582 0 0 1-3.833-1.546 9.827 9.827 0 0 1-.828-.824A6.915 6.915 0 0 1 5.61 15.45a5.988 5.988 0 0 1-.262-1.494c-.015-.288 0-1.028.031-1.272a6.579 6.579 0 0 1 1.302-3.208c.927-1.232 2.21-2.112 3.632-2.494.15-.041.533-.119.782-.16a6.423 6.423 0 0 1 2.65.134 6.987 6.987 0 0 1 2.43 1.18c.268.201.447.358.722.634.437.438.757.858 1.05 1.376.511.9.797 1.823.89 2.862.02.22.02.818 0 1.04a6.549 6.549 0 0 1-.26 1.348 6.774 6.774 0 0 1-2.592 3.64 6.695 6.695 0 0 1-3.46 1.222c-.207.014-.715.013-.916 0zm5.328-5.215.955-.01.027-.117c.049-.212.377-1.362.476-1.667l.011-.033h-.687c-.751 0-.815 0-1.096-.073a.801.801 0 0 0-.469 0 1.58 1.58 0 0 0-.406.232.809.809 0 0 1-.11.074c-.01-.01.027-.185.048-.259a1.33 1.33 0 0 1 .169-.346c.049-.073.062-.101.048-.1-.011 0-.086.013-.167.028a1.36 1.36 0 0 1-.15.025s.052-.047.119-.101l.122-.098-.052-.013a.285.285 0 0 1-.205-.196 1.314 1.314 0 0 1-.02-.23l-.01-.187h-.063c-.035 0-.092 0-.127-.01l-.064-.01v.295c0 .162 0 .295-.01.295s-.072-.011-.148-.025a1.15 1.15 0 0 0-.142-.021s.02.072.05.155c.03.083.055.156.055.161 0 .01-.084-.052-.187-.127a4.475 4.475 0 0 0-.394-.277s.07.082.167.181c.097.1.205.22.24.266.155.204.222.429.188.622l-.01.048-.166-.159a2.662 2.662 0 0 0-.233-.203.501.501 0 0 0-.376-.095c-.054.01-.08.025-.145.083a1.375 1.375 0 0 1-.32.233.409.409 0 0 1-.218.05h-.125c0-.033.36-.611.489-.785.028-.038.048-.072.044-.076 0 0-.094-.01-.2-.016-.106-.01-.195-.01-.199-.01-.01 0-.016 0 .42-.353l.36-.296-.03-.101a.767.767 0 0 0-.04-.111c-.013-.014-.233.169-.567.472a1.14 1.14 0 0 1-.138.115s.01-.072.027-.154a1.25 1.25 0 0 0 .028-.154h-.343l-.338.01.085.182c.047.1.083.184.082.185 0 0-.067-.043-.144-.1-.211-.154-.34-.227-.457-.26l-.044-.011.043.053c.045.055.213.213.43.403l.126.11h-.489l.035.084.182.4c.08.175.144.32.141.322 0 0-.08-.044-.173-.104-.301-.194-.439-.25-.618-.25-.155 0-.287.055-.492.203-.165.12-.252.18-.256.175-.01-.01.015-.368.025-.423.01-.04.057-.095.433-.468.234-.232.455-.457.49-.499l.066-.077-.046-.13a1.627 1.627 0 0 0-.051-.136c-.012-.012-.13.1-.394.374-.153.16-.332.345-.398.412l-.119.123v-.251c0-.139 0-.254-.01-.257 0 0-.4.015-.511.025-.01 0-.01.108-.01.24v.24l-.107-.083c-.15-.115-.39-.312-.548-.451a2.215 2.215 0 0 0-.148-.124.68.68 0 0 0-.138.056L9.884 12l.034.04c.064.073.194.18.408.334.376.271.513.405.599.585a.75.75 0 0 1 .07.312v.058l-.11-.079a1.45 1.45 0 0 0-.394-.219.717.717 0 0 0-.4-.036c-.23.038-.356.126-.583.407-.067.083-.125.15-.13.15-.012 0-.284-.242-.284-.252 0-.01.163-.26.38-.585l.188-.285c.01-.017-.025 0-.321.137-.11.052-.202.092-.203.09 0 0 .029-.1.068-.218.039-.117.077-.252.085-.298a.817.817 0 0 0-.02-.359l-.024-.052-.178.152a5.1 5.1 0 0 1-.179.15s-.01-.194-.01-.428l-.01-.425h.382v-.052c0-.029 0-.08.01-.115l.01-.064h-.388l-.021-.256a9.957 9.957 0 0 0-.024-.259s-.076-.01-.165-.012l-.161-.01v1.038c0 .625 0 1.052-.01 1.074-.01.03-.023.039-.103.064a.5.5 0 0 1-.096.023s-.014-.162-.024-.354l-.019-.35h-.539v.319c0 .257.001.318-.012.318l-.297.021-.282.021-.01.202c-.01.131-.015.205-.024.211-.014.01-.14.01-.38-.014-.256-.02-.358.032-.371.188l-.01.068H6.05c-.157 0-.286 0-.286.01 0 0 .054.101.12.217.241.417.635 1.14.79 1.447l.056.113h.615c1.438.01 8.705.01 9.58 0zM3.07 19.07a.72.72 0 0 1-.06-.17c.01 0 .157-.1.337-.212a71 71 0 0 0 1.376-.883c.292-.191.532-.346.533-.344.01.01.349.551.379.602l.035.06-.108.103c-.102.097-.11.102-.125.08a4.27 4.27 0 0 1-.122-.215c-.067-.123-.11-.19-.118-.185-.07.041-.71.478-.713.489 0 .01.02.056.052.108a.622.622 0 0 1 .103.246.138.138 0 0 1-.076.118c-.087.041-.09.04-.214-.12a8.215 8.215 0 0 1-.13-.17c-.014-.021-.037-.01-.351.198-.391.256-.706.456-.719.456 0 0-.04-.073-.079-.161zm17.548.095a213.466 213.466 0 0 0-2.209-1.443s.178-.276.2-.299c.014-.014.082.027.448.268.741.49 1.392.902 1.773 1.124.128.074.145.09.12.104-.01 0-.046.057-.088.119-.107.157-.162.185-.244.127zm-17.894-.751c-.113-.053-.182-.141-.322-.413l-.076-.148.03-.06c.097-.191.268-.342.547-.482.11-.055.458-.214.58-.265.04-.017.211-.095.38-.174.41-.194.545-.24.777-.263.08-.01.08-.01.14.04.184.146.304.419.28.635-.01.092-.045.146-.166.247-.12.1-.251.173-.61.338-.178.082-.442.207-.587.278-.414.206-.61.274-.813.285-.09 0-.118 0-.16-.018zm.27-.358c.139-.035.304-.106.703-.301.192-.094.436-.208.542-.254.285-.122.446-.221.532-.326.036-.043.03-.066-.04-.137-.06-.061-.13-.088-.201-.075-.047.01-.257.102-.76.34l-.488.228c-.41.187-.546.273-.575.362-.017.051 0 .11.046.166.029.035.035.037.088.029.03 0 .1-.02.154-.033zm17.087.06-.509-.259.084-.147a3.02 3.02 0 0 1 .093-.156s.168.062.363.148c.195.086.365.16.379.165.02.01.029 0 .054-.068.016-.042.094-.233.174-.424a9.23 9.23 0 0 0 .141-.35 3.876 3.876 0 0 0-.436-.218c-.01.01-.132.23-.276.497l-.049.09-.565-.287c-.326-.166-.565-.295-.563-.303 0-.01.07-.158.15-.334.103-.223.153-.318.167-.318.03 0 .086.049.104.093a.65.65 0 0 1 .024.154c0 .062.015.137.026.166.02.06.067.093.328.24.08.045.164.093.186.107l.04.024.035-.078.121-.257.086-.18.353.15c.499.213.59.258.59.286 0 .042-.073.286-.135.454-.034.09-.115.285-.179.434-.064.149-.149.35-.188.447a1.186 1.186 0 0 1-.08.18c-.01 0-.24-.114-.519-.256zm1.345-.167a4.547 4.547 0 0 1-.155-.038c-.011 0 .01-.072.065-.237.203-.591.225-.852.095-1.128-.026-.054-.042-.071-.106-.107-.129-.072-.287-.125-.584-.197a4.562 4.562 0 0 1-.295-.077s.028-.063.073-.131l.082-.124.067.023c.037.013.187.048.332.078.398.083.538.136.668.255.13.118.174.237.183.49.01.25-.029.482-.14.85-.095.32-.116.379-.13.378a3.334 3.334 0 0 1-.155-.034zM2.11 17.108a.519.519 0 0 1-.042-.15c.01-.01.087-.036.181-.07l.171-.061.038.155c.021.085.037.156.035.158 0 0-.077.027-.167.056l-.165.053zm1.237-.355a1.052 1.052 0 0 1-.135-.07c-.01-.01-.048-.102-.094-.213a2.788 2.788 0 0 0-.091-.211s-.09.016-.19.046c-.233.07-.923.263-.943.263-.015 0-.03-.134-.03-.27v-.068l.234-.063.743-.204c.575-.16 1.149-.305 1.437-.365l.195-.041.033.16.06.282c.034.164.03.315-.017.41-.053.113-.075.13-.21.172-.132.04-.804.22-.844.226a.68.68 0 0 1-.15-.054zm.394-.369c.252-.054.34-.082.425-.136.095-.061.167-.177.168-.27v-.043l-.143.03a20.51 20.51 0 0 0-.904.228s.039.062.095.13c.073.09.106.121.12.116.011 0 .119-.03.24-.055zm18.292-.51a3.998 3.998 0 0 1-.274-.034s.045-.057.106-.12c.119-.121.15-.172.15-.252 0-.06-.043-.111-.137-.168a.829.829 0 0 0-.404-.092h-.147l-.06.113c-.105.201-.177.286-.285.341-.128.065-.485.064-.75 0a1.296 1.296 0 0 1-.427-.204.855.855 0 0 1-.21-.266.297.297 0 0 1-.025-.158.413.413 0 0 1 .235-.356c.098-.048.193-.056.787-.068.244 0 .444-.01.444-.01l-.065-.161-.066-.158h-.33c-.37 0-.446 0-.58-.072a.667.667 0 0 1-.253-.247.556.556 0 0 1 .251-.729l.07-.033h.875v-1.149h-.51c-.282 0-.518.01-.527.01-.012 0-.013.087-.01.38l.01.376-.096-.01c-.053 0-.144-.01-.203-.01h-.109v-.233c0-.237.02-.81.031-.899l.01-.05.37.01h.673l.302-.01v-.196c0-.18 0-.195.02-.19.013 0 .097.024.189.046l.166.041.01.105c0 .058.011.23.015.383.01.243.01.278.028.28h.405c.378.001.387 0 .471.032a.352.352 0 0 1 .233.225c.045.155 0 .36-.106.453-.116.105-.25.14-.576.15l-.242.01v.155c0 .085 0 .18.01.21l.01.056.271-.01c.367-.01.522.022.66.128.089.067.089.067.072.232-.021.212-.116.55-.172.614-.02.02-.055.024-.466.037-.245.01-.447.015-.449.017-.01.01-.03.353-.025.36 0 0 .074.017.156.03.476.072.68.188.814.46.032.064.034.08.034.204 0 .11-.01.164-.04.297a.924.924 0 0 1-.049.16l-.276-.03zm-1.237-.571a1.13 1.13 0 0 0 .143-.05c.032-.017.034-.021.022-.056a.484.484 0 0 0-.148-.196c-.094-.07-.166-.09-.315-.09a.523.523 0 0 0-.337.098c-.062.042-.164.151-.164.177 0 .03.224.123.347.146.112.02.331.01.452-.03zM22.082 14a1.88 1.88 0 0 0 .183-.058l.083-.033-.053-.047a.732.732 0 0 0-.276-.138.99.99 0 0 0-.588.067l-.08.037.028.034c.16.19.12.174.408.168.144 0 .222-.011.295-.03zm-1.273-.03c.078-.02.265-.109.288-.136.019-.023-.025-.08-.114-.147-.19-.142-.441-.165-.726-.065l-.075.026-.01.127c0 .07-.01.132 0 .138.01.014.17.06.258.074.096.015.287.01.38-.017zm1.223-1.287c.114-.038.165-.094.165-.181 0-.082-.026-.12-.109-.158a.84.84 0 0 0-.32-.069c-.095 0-.293.047-.339.082-.102.076-.1.255 0 .302.021.01.087.024.147.032.06.01.119.017.129.019.043.01.268-.01.324-.026zM1.723 15.868c0-.015-.039-.184-.08-.376a36 36 0 0 0-.078-.369c0-.016.013-.024.082-.04.198-.045.724-.146 1.308-.25a39.138 39.138 0 0 0 1.251-.24c.024-.01.028 0 .04.058.077.402.135.708.135.724 0 .044-.165.059-.23.02-.073-.045-.1-.122-.119-.332l-.01-.093-.417.085a7.36 7.36 0 0 0-.429.095c-.01.01 0 .065.01.143.045.294.02.36-.142.363h-.076l-.037-.216c-.02-.12-.04-.22-.044-.223 0 0-.186.024-.404.06l-.476.082c-.044.01-.083.016-.088.02 0 0 .01.118.032.253l.04.244-.068.01c-.038 0-.097.01-.132.01-.057 0-.065 0-.07-.026zm-.218-1.312c0-.093-.01-.17-.01-.172 0 0 .16-.01.351-.016.327-.013.687-.039.825-.059l.061-.01.021-.116.03-.157.01-.042-.648.01-.647.01-.01-.046c0-.025-.01-.1-.01-.166 0-.115 0-.12.027-.12.059 0 1.601-.047 1.757-.054.091 0 .337-.016.548-.026.21-.011.384-.018.387-.015.01.01.044.417.044.522 0 .062-.01.152-.02.199-.031.14-.141.276-.247.304-.219.058-.591.075-.73.033a.537.537 0 0 1-.262-.164l-.07-.077-.038.07c-.065.122-.106.17-.164.191-.109.04-.344.06-.781.066l-.423.01zm2.238-.277.162-.014.011-.044a2.28 2.28 0 0 0 .06-.289c-.01-.01-.53.018-.682.037a1.78 1.78 0 0 0-.306.052s.013.031.03.063c.05.097.147.17.26.197.068.016.28.015.466 0zm-.14-1.205c-.07 0-.09-.01-.09-.023 0-.022.023-.233.032-.307.01-.051.01-.052.052-.052.025 0 .108.01.185.019.077.01.16.015.184.01.092-.015.129-.067.115-.16l-.01-.051-.106-.042c-.159-.064-.376-.114-.698-.161a24.41 24.41 0 0 1-.62-.1c-.494-.084-.628-.083-.807 0l-.068.034.03.023c.073.06.282.145.513.209l.069.019-.03.168c-.016.092-.032.17-.035.174-.01.01-.18-.041-.468-.13-.165-.051-.227-.075-.236-.093-.021-.038-.028-.362-.011-.45.035-.176.099-.279.212-.339.062-.033.066-.033.29-.033.318 0 .468.021 1.149.153.492.096.598.119.715.155.197.062.31.14.371.254.029.055.033.074.032.178 0 .242-.101.456-.241.524-.048.023-.072.025-.248.023-.107 0-.235 0-.283-.01zm.516-1.117a143.114 143.114 0 0 0-2.276-.651s.162-.312.17-.321c.01-.01 1.812.513 2.427.7.055.017.101.037.101.045 0 .042-.069.326-.079.325-.01 0-.16-.045-.342-.098zm17.764-.14c-.063-.037-.108-.12-.097-.18.01-.052.036-.088.096-.132l.049-.036-.056-.024a.953.953 0 0 0-.363-.09.377.377 0 0 1-.113-.014c-.015-.023-.01-.116.01-.153.024-.047.117-.09.266-.123.071-.016.12-.032.12-.04 0-.01-.036-.112-.079-.229a12.775 12.775 0 0 1-.26-.792c-.01-.01-.64.151-.64.163 0 .01.044.144.098.305.054.162.098.297.098.301 0 0-.015.012-.033.016-.109.027-.728.258-.99.37-.01 0-.075-.115-.164-.292a23.221 23.221 0 0 0-.152-.3s-.123.055-.27.125a3.79 3.79 0 0 1-.27.124c-.01-.01-.055-.23-.05-.234l.107-.07c.117-.076.204-.12.478-.248l.191-.088.022.038c.023.04.312.5.32.508 0 0 .1-.033.217-.078l.213-.083-.029-.075-.186-.48c0-.01.105-.051.31-.119.3-.099.882-.276.966-.294l.04-.01.03.102c.083.275.283.96.345 1.183.054.194.068.26.062.298-.014.09-.02.094-.133.095-.18 0-.18 0-.047.138.16.168.2.262.155.369-.034.08-.165.104-.26.048zm-18.314-.694c-.498-.25-.963-.488-1.033-.527a7.298 7.298 0 0 1-.433-.25s.023-.064.058-.133l.063-.125.312.166c.845.449 1.921 1.003 1.883.969-.01-.01-.12-.093-.244-.186a14.617 14.617 0 0 0-1.083-.722l-.28-.167-.036-.022.036-.014a.588.588 0 0 1 .234-.044c.091.012.512.27 1.135.692l.461.312a.506.506 0 0 1 .103.078 7.688 7.688 0 0 1-.262.428s-.416-.205-.914-.456zm15.78.171c-.081-.098-.081-.303 0-.344a.235.235 0 0 1 .201-.01c.08.039.117.088.117.154 0 .09-.048.157-.137.194-.055.023-.16.025-.179 0zM4.7 10.547l-.783-.297c-.53-.203-.969-.365-1.071-.395-.056-.017-.041-.027-.17.12l-.037.041-.143-.105a2.135 2.135 0 0 1-.144-.11s.047-.078.104-.165l.103-.159.1.037.872.332c.979.373 1.328.503 1.328.494 0-.01-.184-.117-.348-.21a32.354 32.354 0 0 0-.814-.416 29.31 29.31 0 0 1-.825-.424l-.159-.09v-.065c0-.076.032-.123.087-.139.07-.02.192.034.798.348a196.762 196.762 0 0 0 1.635.837s-.055.104-.126.23c-.09.158-.135.228-.15.227-.01 0-.128-.04-.259-.09zm14.15-.344-.062-.139.204-.109c.112-.06.36-.198.552-.307.191-.11.436-.245.544-.3.182-.095.526-.25.553-.25.01 0 .048.29.038.297l-.219.118a17.52 17.52 0 0 0-.415.23c-.527.305-.898.503-1.09.58l-.044.019zM5.041 9.741a52.458 52.458 0 0 0-.843-.404 34.938 34.938 0 0 1-1.286-.628c-.01-.01.04-.064.103-.13l.113-.12.108.044c.111.046.256.118.409.203l.089.049.117-.18c.065-.1.12-.189.123-.199 0-.012-.075-.088-.211-.208a19.14 19.14 0 0 0-.24-.209c-.026-.019-.026-.02.032-.171.032-.083.06-.154.062-.156.01-.011.482.405.856.755.14.132.41.388.598.57l.47.454.129.123-.134.162-.148.179c-.01.01-.02.017-.03.017-.01 0-.152-.068-.317-.15zm.257-.196c0-.01-.306-.286-.568-.513a22.597 22.597 0 0 1-.4-.352l-.13-.12-.105.146c-.058.08-.105.15-.105.155 0 .01.203.12.892.48.378.197.416.216.416.204zm14.345-.294a.956.956 0 0 1-.119-.034s.044-.065.104-.137c.06-.072.11-.136.11-.14a.532.532 0 0 0-.147-.131c-.09-.047-.211-.023-.325.064l-.038.029-.02-.058a.365.365 0 0 1 .048-.326l.03-.046-.076-.098-.076-.098-.032.03c-.084.08-.265.123-.318.075a.19.19 0 0 1-.048-.128c.01-.041.255-.303.69-.73.231-.226.42-.415.42-.42 0-.02-.084-.063-.149-.077a.56.56 0 0 0-.225.013 2.368 2.368 0 0 1-.2.026c-.037 0-.04 0-.033-.035 0-.019.032-.09.062-.157.067-.15.078-.2.05-.227-.04-.04-.118-.017-.225.064l-.079.06-.108-.073a.611.611 0 0 1-.115-.09c0-.01.016-.09.043-.181a2.84 2.84 0 0 0 .05-.18c0-.02-.148-.086-.164-.073a.755.755 0 0 0-.067.121.403.403 0 0 1-.068.111.482.482 0 0 1-.152-.112c-.06-.077-.078-.21-.044-.337l.017-.064-.075-.053a2.007 2.007 0 0 0-.109-.074l-.034-.021-.065.139c-.478 1.017-.997 2.036-1.029 2.023-.014-.01-.985-.618-1-.63-.01-.01.241-.392.255-.392.014 0 .067.033.35.216.16.103.296.188.303.19.01 0 .091-.165.188-.37.277-.59.813-1.69.831-1.707a.32.32 0 0 1 .08.01l.076.011 1.058.93 1.057.93-.034.04-.246.278c-.117.13-.292.332-.39.449l-.178.211.213.205c.117.113.234.224.26.246l.045.041.064-.029c.114-.052.304-.189.506-.363.11-.094.235-.2.28-.236.08-.063.083-.064.1-.04.01.012.095.16.19.329l.301.526.155.271.03.052-.18.086a4.072 4.072 0 0 1-.187.086s-.046-.065-.092-.144a16.2 16.2 0 0 0-.38-.588s-.102.077-.22.177c-.533.45-.72.593-.774.591-.018 0-.083-.014-.146-.029zm-1.36-.029c-.083-.045-.122-.178-.08-.275.021-.053.086-.106.128-.106.056 0 .159.059.194.112.039.058.044.137.012.185-.056.085-.178.126-.253.084zM6.076 9.049c0-.01-.276-.264-.603-.572-.328-.308-.72-.68-.873-.825l-.277-.266-.18.19-.18.19-.037-.035c-.078-.074-.103-.182-.063-.264.038-.076.116-.164.248-.283.073-.066.157-.15.185-.186l.052-.065.068.063c.183.17.554.524.992.945.266.256.523.504.573.55l.09.087-.062-.122a6.04 6.04 0 0 0-.111-.21l-.05-.085.104-.077.104-.077.033.04c.066.083.199.204.263.24.036.02.094.047.13.057l.063.019v-.061a.583.583 0 0 0-.197-.394c-.143-.124-.324-.203-.704-.309a5.213 5.213 0 0 1-.307-.093c-.213-.085-.42-.294-.549-.55a.4.4 0 0 1-.062-.218c0-.085 0-.117.021-.174.077-.205.316-.391.502-.393.137 0 .223.062.488.357l.103.115-.041.032a6.151 6.151 0 0 1-.135.101l-.094.07-.035-.023a1.55 1.55 0 0 1-.154-.144c-.138-.142-.198-.175-.276-.152-.025.01-.056.021-.07.031-.022.017-.022.02 0 .095.062.22.21.378.48.507.15.072.263.112.554.194.11.03.23.072.268.09.225.115.406.337.493.607.042.13.04.18-.019.275a.704.704 0 0 1-.484.348c-.04.01-.044.01-.07.096-.033.102-.133.29-.157.29-.01 0-.019-.01-.023-.012zm11.841-.273c-.094-.064-.116-.153-.06-.252.082-.148.265-.127.334.038.056.134-.018.242-.164.242a.2.2 0 0 1-.11-.027zm2.043-.629a1.274 1.274 0 0 1-.135-.156c0-.01.02-.033.046-.057.133-.129.292-.126.363.01l.024.045-.073.148c-.04.082-.077.15-.08.153 0 0-.07-.06-.144-.138zM6.905 7.896l-.555-.883a108.46 108.46 0 0 0-.733-1.16c0-.01.261-.19.286-.199.01 0 .03.016.054.052.573.913 1.373 2.21 1.38 2.24 0 .014-.037.045-.133.103-.076.045-.14.082-.144.082 0 0-.073-.106-.155-.236zm11.036-.08a.84.84 0 0 1-.085-.149c0-.06.105-.154.187-.168.07-.01.103 0 .155.071.052.066.063.12.035.174a1.315 1.315 0 0 1-.197.204c-.01 0-.048-.059-.095-.13zm2.348.055a.293.293 0 0 1-.075-.093c-.062-.119-.037-.219.066-.269.135-.066.284.01.3.151.01.078-.014.12-.098.184s-.13.07-.194.027zm-1.63-.425-.13-.098.022-.045a.3.3 0 0 1 .247-.166c.09 0 .142.045.163.147.01.035 0 .05-.075.15a.838.838 0 0 1-.09.11s-.067-.043-.138-.097zm-.451-.42c-.068-.102-.095-.162-.095-.213 0-.076.015-.085.183-.118.084-.016.154-.028.155-.027.001.001.01.064.019.14l.018.14-.108.072a.842.842 0 0 1-.118.072c-.01 0-.03-.03-.054-.065zm-6.368-.382s.017-.038.04-.075l.038-.068-.066.01a3.244 3.244 0 0 1-1.152-.047 2.198 2.198 0 0 1-.378-.115c-.01-.01.06-.032.146-.06.086-.026.261-.082.39-.123.228-.073.433-.16.433-.184a.26.26 0 0 0-.026-.065c-.019-.04-.055-.074-.14-.137-.665-.487-1.117-1.24-1.26-2.094a3.297 3.297 0 0 1 .01-.871c.1-.55.261-.926.525-1.232.055-.063.21-.205.216-.197 0 0-.012.119-.03.26-.085.628-.11.927-.11 1.296 0 .379.037.672.122.976.108.384.323.712.724 1.103l.163.159.01-1.993.01-1.992.281-.221.281-.22.181.186c.147.151.189.203.22.27l.04.081v1.91c0 1.362.01 1.911.015 1.911.01 0 .094-.081.193-.18.444-.448.67-.83.802-1.358a2.54 2.54 0 0 0 .067-.618c0-.343-.04-.638-.165-1.236a4.935 4.935 0 0 1-.063-.328c0-.01.036.01.077.034.397.24.651.681.748 1.302.032.203.032.768 0 .96a3.408 3.408 0 0 1-.766 1.662 3.883 3.883 0 0 1-.588.56l-.029.022.061.062c.123.125.311.234.622.36.111.045.151.066.135.07a6.852 6.852 0 0 1-.446.077c-.17.023-.698.037-.846.022-.06-.01-.107-.01-.107 0s.014.036.03.07l.032.061h-.214c-.118 0-.215 0-.215-.01zm-1.744-.774c-.524-.207-.983-.656-1.247-1.22a2.938 2.938 0 0 1-.27-1.061c-.046-.766.183-1.45.652-1.95.144-.152.316-.255.543-.323a3.2 3.2 0 0 1 .401-.085l.053-.01-.15.155c-.438.45-.702.971-.776 1.535a4.742 4.742 0 0 0 0 .887c.057.414.18.812.38 1.23.118.246.257.48.5.84.028.041.023.041-.085 0zm3.961-.077a5.154 5.154 0 0 0 .741-1.6c.08-.325.092-.436.093-.819 0-.382-.012-.486-.094-.812-.112-.445-.4-.908-.78-1.253a.723.723 0 0 1-.095-.093s.078.01.169.026c.398.073.607.163.798.346.354.338.587.805.684 1.37.035.206.038.645.01.856a2.93 2.93 0 0 1-.265.863c-.259.535-.672.946-1.168 1.164-.18.08-.177.081-.088-.048zM11.476.743c-.14-.08-.2-.177-.207-.333a.498.498 0 0 1 .076-.306c.03-.053.056-.071.056-.041 0 .01.025.066.055.129.043.088.067.122.105.15a.179.179 0 0 0 .174.025c.017-.01.092-.08.167-.165.088-.098.143-.15.153-.144.01 0 .088.076.178.159.09.082.166.15.17.149 0 0 .031-.037.061-.082.053-.08.252-.294.262-.283.01.01-.015.279-.03.36a.406.406 0 0 1-.151.269c-.143.13-.187.131-.41.016l-.14-.073-.108.075c-.21.145-.294.165-.411.096z"/></svg>