<svg viewBox="0 0 24 24" xmlns="http://www.w3.org/2000/svg" role="img"><path d="M11.394 23.995a10.068 10.068 0 0 1-1.137-.15c-.026-.01-.079-.016-.117-.024a15.265 15.265 0 0 1-.533-.127c-.016-.01-.05-.016-.076-.023a10.116 10.116 0 0 1-.774-.26c-.013-.01-.059-.024-.103-.04a5.034 5.034 0 0 1-.237-.1 9.896 9.896 0 0 1-1.088-.562 9.814 9.814 0 0 1-1.144-.82l-.089-.077a10.241 10.241 0 0 1-1.037-1.05 9.696 9.696 0 0 1-1.056-1.541 13.831 13.831 0 0 1-.274-.545l-.073-.161a1.433 1.433 0 0 1-.039-.091l-.028-.067a4.393 4.393 0 0 1-.089-.22 7.934 7.934 0 0 1-.177-.486c-.01-.02-.02-.068-.033-.106a12.261 12.261 0 0 1-.117-.405c-.018-.069-.037-.144-.05-.187a10.222 10.222 0 0 1-.253-1.63 23.115 23.115 0 0 1 0-1.295c.02-.304.075-.743.137-1.084.033-.185.07-.352.124-.563l.053-.21c.013-.057.107-.372.146-.487.036-.109.12-.344.147-.41.126-.317.107-.27.218-.522a10.753 10.753 0 0 1 .508-.967c.01-.02.305-.476.342-.528.258-.352.333-.448.526-.68a9.626 9.626 0 0 1 1.096-1.096c.234-.195.307-.253.563-.44.24-.176.665-.444.943-.596.17-.092.738-.37.756-.37 0 0 .031-.011.062-.025.031-.014.066-.03.08-.034.012-.01.041-.017.063-.027l.141-.055.147-.055a16.069 16.069 0 0 1 .674-.216c.016-.01.085-.023.152-.04l.164-.041a9.42 9.42 0 0 1 1.19-.2 10.558 10.558 0 0 1 1.8 0 9.731 9.731 0 0 1 1.183.2c.023.01.097.024.164.04l.153.04c.016.01.053.017.082.025.029.01.069.019.088.025.063.018.503.163.527.174.013.01.068.027.123.048.055.02.118.045.14.055l.065.027c.013.01.048.02.079.034a.457.457 0 0 0 .062.025c.019 0 .597.283.756.37.265.145.733.439.92.578l.152.113c.226.167.462.362.68.56.227.206.654.643.782.8l.125.15c.146.174.325.406.473.617.056.08.3.456.337.52.21.36.407.736.51.969l.06.135c.014.032.054.127.087.21l.07.176c.065.15.258.743.293.897.01.023.022.091.038.153.068.262.137.587.172.82.1.651.124.995.114 1.653 0 .261-.01.512-.013.557a10.32 10.32 0 0 1-.1.852c-.01.037-.017.1-.024.141-.016.094-.034.19-.047.25-.043.194-.086.38-.095.415-.01.023-.016.06-.021.082a7.398 7.398 0 0 1-.164.557 7.795 7.795 0 0 1-.105.305c-.01.013-.022.055-.036.094l-.036.094c-.01.013-.021.052-.035.088l-.043.105-.028.064-.124.276c-.04.088-.232.47-.28.557a9.703 9.703 0 0 1-1.05 1.529c-.168.2-.244.283-.474.516a8.413 8.413 0 0 1-.563.534c-.045.039-.085.073-.088.077l-.129.105c-.39.315-.844.623-1.295.878-.13.074-.611.316-.709.357a8.63 8.63 0 0 0-.205.089 3.462 3.462 0 0 1-.235.094c-.136.057-.58.205-.773.259-.026.01-.06.017-.076.023-.037.012-.399.1-.482.118-.476.098-.84.148-1.34.186-.19.014-.981.013-1.173 0zm1.214-.806a7.963 7.963 0 0 0 .96-.13c.036-.01.089-.016.118-.023.029-.01.079-.017.111-.024.164-.034.207-.045.504-.129.02-.01.048-.013.065-.018.016 0 .04-.012.053-.017.013-.01.087-.029.164-.054.077-.024.146-.049.152-.054.01-.01.021-.01.032-.01.012 0 .03 0 .042-.01.027-.014.063-.028.15-.06l.111-.044c.076-.032.1-.04.123-.05a8.603 8.603 0 0 0 .721-.345l.105-.061c.11-.06.155-.086.22-.128a.532.532 0 0 1 .069-.04c.01 0 .464-.303.502-.333l.088-.066c.108-.08.303-.23.317-.246l.065-.053.07-.058c.01-.01.05-.043.095-.082.196-.17.541-.51.69-.68.046-.05.102-.114.125-.14.047-.053.145-.17.215-.258l.053-.064.041-.053a8.097 8.097 0 0 0 .425-.604l.095-.147c.01-.014.025-.04.079-.134l.054-.094c.01-.016.019-.032.023-.035 0 0 .018-.03.033-.06.085-.162.113-.217.12-.222 0 0 .017-.03.03-.06l.083-.175a5.45 5.45 0 0 0 .132-.288s.01-.03.025-.061c.05-.113.106-.251.15-.372.014-.04.031-.08.036-.091.01-.011.011-.031.011-.043 0-.013.01-.026.012-.03.01 0 .012-.018.012-.03 0-.013 0-.032.011-.043.012-.022.06-.165.082-.25l.024-.075c.01-.013.018-.055.027-.094l.048-.182a9.183 9.183 0 0 0 .11-.48c.01-.035.021-.11.032-.164a5.1 5.1 0 0 0 .052-.323 9.23 9.23 0 0 0 .072-1.586c-.01-.198-.019-.407-.025-.465a7.077 7.077 0 0 0-.099-.721 5.723 5.723 0 0 1-.049-.264.193.193 0 0 0-.017-.07c-.01-.013-.013-.039-.016-.059a2.02 2.02 0 0 0-.048-.21l-.043-.16-.034-.122c-.01-.02-.013-.048-.017-.064 0-.016-.012-.04-.017-.053-.01-.013-.035-.103-.065-.2a1.996 1.996 0 0 0-.066-.186c-.01-.01-.01-.021-.01-.032 0-.012 0-.03-.01-.042-.01-.011-.03-.07-.055-.132l-.054-.138c-.01-.014-.015-.038-.02-.053-.01-.014-.03-.068-.054-.118a7.91 7.91 0 0 0-.546-1.057c0-.01-.212-.335-.248-.382a.19.19 0 0 1-.033-.056c0-.01 0-.013-.01-.013 0 0-.018-.015-.03-.034a8.38 8.38 0 0 0-.575-.729 12.27 12.27 0 0 0-.705-.71 5.552 5.552 0 0 1-.1-.087s-.037-.033-.076-.065l-.084-.07a.268.268 0 0 0-.036-.03c-.012-.01-.046-.035-.075-.06-.12-.095-.41-.31-.467-.344-.01-.01-.022-.015-.025-.018 0 0-.074-.051-.158-.104s-.165-.106-.181-.117l-.053-.032c-.013-.01-.042-.024-.064-.037a7.572 7.572 0 0 0-.546-.294 6.99 6.99 0 0 0-.562-.254 1.357 1.357 0 0 0-.106-.041 1.772 1.772 0 0 1-.094-.036c-.013-.01-.063-.024-.111-.041a1.377 1.377 0 0 1-.108-.042c-.011-.01-.031-.011-.043-.011-.013 0-.026-.01-.03-.012 0-.01-.02-.012-.035-.012-.015 0-.031-.01-.035-.012 0-.01-.022-.012-.041-.012-.02 0-.037 0-.04-.01 0-.01-.021-.013-.04-.016-.017 0-.06-.015-.096-.026a3.721 3.721 0 0 0-.194-.054c-.026-.01-.068-.017-.094-.023a4.185 4.185 0 0 0-.187-.044c-.032-.01-.096-.021-.14-.031a8.561 8.561 0 0 0-1.95-.171 8.73 8.73 0 0 0-1.556.202c-.058.012-.102.023-.196.046-.027.01-.068.017-.091.022a6.855 6.855 0 0 0-.323.094c-.013.01-.047.016-.076.023-.029.01-.062.019-.073.025-.01.01-.028.01-.038.01-.01 0-.027 0-.038.012-.01.01-.06.025-.108.042l-.111.04c-.013.01-.055.022-.094.037a1.93 1.93 0 0 0-.122.049 5.438 5.438 0 0 0-.564.255c-.23.115-.291.148-.527.285l-.065.037c-.028.015-.036.02-.235.148a3.833 3.833 0 0 0-.158.105l-.123.088a9.907 9.907 0 0 0-.435.328c-.01.01-.023.02-.035.03a6.484 6.484 0 0 0-.168.14l-.112.099c-.159.14-.548.533-.693.698-.22.251-.514.624-.576.728-.01.018-.024.034-.029.034-.01 0-.01.01-.01.013 0 .01-.015.032-.033.056a6.733 6.733 0 0 0-.248.383s-.018.034-.04.068a2.872 2.872 0 0 0-.124.213l-.083.153c-.069.124-.257.51-.257.526 0 0-.019.047-.042.097l-.053.118c-.01.014-.015.038-.02.053-.01.014-.03.076-.055.138-.024.06-.048.12-.054.132-.01.01-.01.03-.01.042 0 .012 0 .026-.01.032-.01.01-.036.09-.067.187a7.474 7.474 0 0 1-.066.199c-.01.013-.013.037-.017.053 0 .016-.012.045-.018.064-.01.019-.019.067-.029.105l-.043.159a2.613 2.613 0 0 0-.052.228c0 .02-.01.046-.016.06-.01.012-.013.043-.017.07-.01.046-.014.083-.049.263a4.725 4.725 0 0 0-.03.17c-.01.039-.016.107-.022.152a10 10 0 0 0-.047.41c-.027.26-.039.802-.025 1.166.013.34.02.428.048.675.03.246.043.343.077.521a7.343 7.343 0 0 0 .183.798c.01.023.014.054.017.07 0 .016.01.04.015.053.01.013.016.047.024.076.01.029.031.098.05.152.02.055.038.114.041.132 0 .018.01.035.016.039.01 0 .01.017.01.029 0 .013 0 .032.011.043.01.01.022.052.036.09.014.04.03.082.036.095.01.013.021.053.035.088.025.066.037.093.08.19a2.547 2.547 0 0 0 .067.159l.07.15a7.767 7.767 0 0 0 .461.85 1.617 1.617 0 0 0 .095.145 9.053 9.053 0 0 0 .499.692c.108.135.226.273.392.456a9.09 9.09 0 0 0 1.272 1.128c.038.03.496.333.503.333 0 0 .035.018.07.04.062.04.1.063.218.128l.123.068a10.868 10.868 0 0 0 .762.362c.013.01.042.017.064.026.023.01.073.029.111.043.04.014.081.03.094.036.013.01.042.016.065.024.023.01.052.018.064.024.013.01.084.029.158.053l.159.052c.013.01.037.013.053.017.016 0 .045.012.065.018.297.084.34.095.504.128.032.01.082.017.111.024.03.01.082.017.117.023.036.01.11.02.164.031.21.041.533.08.844.1.1.01.187.013.194.016.019.01.831-.01.979-.017zm-.208-1.07c-.01-.01-.015-.044-.02-.08-.01-.06-.014-.106-.036-.228a.492.492 0 0 0-.048-.133.477.477 0 0 1-.04-.112c0-.014.02-.06.046-.101.039-.064.05-.075.079-.075.029 0 .038.01.072.076a.806.806 0 0 1 .056.164c.033.165.017.43-.03.487-.017.021-.063.022-.08 0zm.417-.017a.555.555 0 0 1-.023-.139c-.014-.161-.046-.256-.117-.344l-.037-.046.044-.08c.048-.087.073-.121.093-.121.01 0 .032.02.056.048.036.04.05.047.082.044.028 0 .043-.013.057-.04.013-.022.03-.035.05-.038.028 0 .035 0 .05.038.024.058.067.058.1 0 .02-.031.033-.04.059-.04.042 0 .052.032.04.125-.01.076-.026.114-.074.16-.033.031-.041.033-.13.032-.052 0-.095 0-.096.01v.155c0 .126-.01.155-.032.205-.024.051-.033.06-.066.062-.032 0-.04 0-.051-.029zm.707 0a.276.276 0 0 1-.018-.086c-.02-.18-.055-.28-.13-.38a.214.214 0 0 1-.041-.072c0-.02.063-.14.09-.171.025-.027.035-.026.066.01a.173.173 0 0 0 .142.063c.05 0 .056 0 .084-.046.04-.06.072-.071.102-.034.02.023.022.04.016.1-.01.117-.049.175-.149.225-.029.015-.03.017-.025.114a.583.583 0 0 1-.04.277c-.013.024-.026.032-.05.032-.027 0-.037-.01-.047-.032zm.59 0a.192.192 0 0 1-.018-.076.87.87 0 0 0-.073-.295.485.485 0 0 0-.043-.076l-.036-.045c-.027-.038-.027-.04-.01-.082.011-.024.036-.068.055-.098.04-.06.052-.062.106-.013l.03.03.063-.046c.056-.04.07-.045.133-.045.078 0 .12.021.147.071.014.026.013.032-.01.054-.021.021-.03.023-.07.011-.073-.02-.13-.016-.158.012-.024.023-.024.025 0 .041.035.027.15.021.205-.01.045-.026.047-.026.063 0 .048.065-.083.204-.205.218l-.052.01v.111c0 .112-.016.218-.045.253-.024.029-.067.02-.087-.018zm-4.13 0c-.024-.01 0-.027.078-.064a.558.558 0 0 0 .1-.055.47.47 0 0 0 .09-.137c0-.01-.03-.012-.074-.012a.17.17 0 0 1-.115-.032.247.247 0 0 1-.087-.15.3.3 0 0 1 .062-.21c.052-.06.099-.083.174-.083.146 0 .251.122.251.292a.427.427 0 0 1-.128.316.466.466 0 0 1-.232.124c-.073.019-.092.02-.117.01zm.272-.352c.015-.01.018-.027.018-.108 0-.148-.042-.248-.09-.217-.017.01-.022.034-.025.122 0 .112.01.168.043.196.02.017.027.018.054.01zm.876.343c-.044-.016-.084-.058-.084-.09 0-.01.01-.028.021-.04.034-.03.091-.023.152.019.097.067.184.043.184-.051 0-.061-.034-.103-.115-.144a.383.383 0 0 0-.15-.04c-.044 0-.084-.01-.087-.015-.01-.01.01-.052.086-.263l.034-.094h.168c.092 0 .172 0 .178.01.01.01 0 .038-.019.077l-.029.066h-.134c-.112 0-.135 0-.141.018 0 .01-.01.02-.01.023 0 0 .03.01.067.018.172.036.272.13.272.26a.306.306 0 0 1-.085.185.335.335 0 0 1-.311.066zm-1.635-.015c-.016-.016-.01-.027.024-.027.074 0 .085-.04.083-.299 0-.24 0-.247-.067-.243-.04 0-.049 0-.049-.019 0-.014.014-.028.038-.038l.125-.055a.35.35 0 0 1 .105-.036c.017 0 .02.04.025.33.01.355 0 .334.074.36.068.023.017.034-.166.034-.102 0-.189 0-.193-.01zm1.267 0s-.01-.039-.01-.077v-.068h-.246v-.066c0-.06.02-.112.058-.145l.08-.105.088-.118c.01-.01.034-.045.059-.08.042-.058.049-.062.088-.059h.042v.214c0 .209 0 .213.029.22.034.01.043.027.043.07 0 .044-.01.06-.041.066-.02 0-.024.016-.03.075l-.01.07h-.161zm-.01-.381c0-.066 0-.104-.011-.097-.03.03-.13.176-.13.19 0 .01.021.014.07.014h.07zm1.086.193s-.01-.025-.01-.046c0-.076 0-.075.171-.075h.157v.129h-.156c-.086 0-.16 0-.164-.01zm-3.606-1.346c-.01 0-.081-.011-.159-.017a2.368 2.368 0 0 1-.334-.046c-.029-.01-.076-.017-.105-.023a3.447 3.447 0 0 1-.3-.094 4.084 4.084 0 0 1-.52-.257 3.197 3.197 0 0 1-.282-.201s-.037-.033-.076-.065a2.966 2.966 0 0 1-.39-.404 4.363 4.363 0 0 1-.243-.358 3.224 3.224 0 0 1-.217-.463c-.01-.023-.018-.052-.023-.064a6.636 6.636 0 0 1-.082-.276 3.813 3.813 0 0 1-.072-.44 3.907 3.907 0 0 1 .012-.644 3.93 3.93 0 0 1 .041-.258c0-.013.014-.06.025-.104.018-.077.1-.338.122-.388.01-.013.02-.044.03-.07.031-.072.114-.238.157-.317.046-.082.211-.326.25-.369a3.296 3.296 0 0 1 .477-.477 2.96 2.96 0 0 1 .698-.412l.094-.037c.073-.032.282-.092.422-.123a3.025 3.025 0 0 1 1.342.041c.137.038.25.078.308.107.01.01.025.01.032.01.016 0 .275.128.356.176.16.095.135.078.308.211l.116.087c.017.012.07-.02.146-.089.118-.105.484-.317.663-.385.039-.015.08-.03.094-.037.046-.02.24-.08.319-.099l.103-.025a3.32 3.32 0 0 1 .586-.056c.182 0 .435.025.586.058.141.031.341.088.422.122.013.01.037.015.053.022.154.064.308.14.407.202l.108.066c.024.013.05.032.136.096.06.045.068.046.11.012.019-.014.05-.04.073-.056.044-.033.311-.297.374-.37.022-.025.072-.088.11-.14l.076-.1.018-.025c.01-.01.053-.08.103-.156.05-.075.091-.14.091-.142 0 0 .012-.026.028-.05a5.249 5.249 0 0 0 .396-.832c.01-.014.015-.038.022-.053.01-.014.025-.07.042-.12l.04-.118c.01-.013.016-.047.024-.076.01-.029.018-.066.024-.082 0-.016.015-.053.024-.082.01-.029.02-.076.029-.105a3.18 3.18 0 0 0 .052-.211c.01-.035.018-.086.024-.111.01-.026.016-.084.023-.13.01-.044.018-.11.024-.146.033-.197.07-.617.07-.791 0-.288-.057-.747-.129-1.035-.01-.027-.017-.07-.022-.094a3.344 3.344 0 0 0-.095-.29c-.01-.013-.017-.042-.025-.064a4.63 4.63 0 0 0-.117-.264 2.536 2.536 0 0 0-.079-.146c-.029-.048-.062-.107-.075-.13a3.7 3.7 0 0 0-.184-.257l-.052-.064a4.067 4.067 0 0 0-.441-.43 4.004 4.004 0 0 0-.456-.306 3.96 3.96 0 0 0-.484-.226 2.15 2.15 0 0 1-.13-.053c-.01-.01-.027-.01-.037-.01-.01 0-.027 0-.038-.01s-.068-.026-.126-.043a2.775 2.775 0 0 1-.123-.038c-.01 0-.037-.01-.061-.016-.024-.01-.066-.016-.094-.023a10.423 10.423 0 0 0-.545-.105 6.252 6.252 0 0 0-1.061-.045 4.128 4.128 0 0 0-.707.075 4.595 4.595 0 0 0-.592.14l-.123.038c-.013 0-.034.01-.047.015-.013 0-.044.015-.07.023-.026.01-.057.019-.07.024-.013.01-.076.03-.14.054a3.71 3.71 0 0 0-.17.067l-.076.033a7.718 7.718 0 0 0-.798.421c-.01 0-.235.148-.256.165a.755.755 0 0 1-.135.093c-.01 0-.013 0-.015.01 0 0-.046.04-.098.079l-.1.076-.105.088a3.23 3.23 0 0 0-.106.088l-.088.076c-.105.089-.515.5-.621.622a5.552 5.552 0 0 1-.088.1l-.053.064c-.025.032-.05.06-.053.064a9.59 9.59 0 0 0-.328.434s-.062.09-.128.193l-.14.217-.031.053a8.988 8.988 0 0 0-.38.722l-.05.11a.227.227 0 0 0-.02.06c0 .01-.01.016-.013.016-.01 0-.012.012-.012.027s0 .032-.01.038c-.01.01-.024.048-.042.093-.047.117-.055.138-.067.16-.01.012-.01.029-.01.039 0 .01-.01.027-.012.038-.01.02-.123.352-.141.418-.01.02-.02.075-.033.124l-.043.158c-.02.07-.031.115-.053.222-.01.032-.017.082-.023.112-.015.073-.044.24-.077.445a4.652 4.652 0 0 0-.05.551c-.01.126-.015.263-.02.305-.01.085.013.585.03.768.02.194.063.497.094.662.01.029.013.076.017.106 0 .029.013.067.019.083.01.024.01.043-.014.088a1.42 1.42 0 0 0-.086.238 2.857 2.857 0 0 0-.084.44c0 .026-.011.08-.017.123-.01.042-.017.126-.024.188-.015.137-.021.164-.034.164-.014 0-.05-.087-.1-.24a6.71 6.71 0 0 1-.138-.458c-.01-.026-.017-.063-.022-.082a6.513 6.513 0 0 1-.122-.557 7.142 7.142 0 0 1-.12-1.506c.01-.512.03-.771.102-1.21.01-.04.017-.104.023-.14a4.86 4.86 0 0 1 .07-.326c.01-.02.017-.067.024-.106l.024-.1c.01-.016.015-.053.023-.082.037-.141.116-.398.13-.424.01-.011.011-.031.011-.043 0-.013.01-.026.012-.03.01 0 .012-.018.012-.03 0-.013 0-.032.011-.043.01-.011.03-.073.054-.138a4.162 4.162 0 0 1 .087-.223c0-.02.276-.612.293-.627 0 0 .015-.024.026-.047.019-.038.064-.12.143-.264a1.88 1.88 0 0 1 .066-.108 7.902 7.902 0 0 1 .455-.672s.02-.023.035-.046c.025-.037.172-.22.188-.235 0 0 .018-.02.033-.04.168-.219.66-.707.963-.956.094-.077.09-.073.223-.175a8.34 8.34 0 0 0 .158-.121c.034-.027.341-.234.41-.277l.121-.076a.958.958 0 0 1 .091-.054s.025-.012.049-.028c.116-.073.563-.299.744-.376l.082-.035.284-.112c.013 0 .037-.014.053-.022.034-.015.32-.109.399-.13.029-.01.066-.02.082-.025a8.88 8.88 0 0 1 .375-.1c.023 0 .062-.013.088-.019.086-.02.163-.035.223-.045.032-.01.09-.015.129-.022a6.264 6.264 0 0 1 1.248-.099c.458 0 .736.018 1.055.068l.193.031a6.494 6.494 0 0 1 .78.176c.023.01.054.015.07.018.016 0 .04.01.053.015.013.01.1.034.193.064s.18.059.194.065c.013.01.068.027.123.048.098.037.135.052.217.087l.079.034a8.192 8.192 0 0 1 .917.476c.01 0 .105.063.11.073a6.598 6.598 0 0 1 .623.438c.25.191.653.562.879.81a7.125 7.125 0 0 1 .27.308c.015.014.165.203.229.287l.084.109c.026.027.332.493.332.505 0 .01 0 .013.01.016.01 0 .03.038.097.156l.06.106c.019.032.048.088.066.123a9.01 9.01 0 0 1 .353.753 3.1 3.1 0 0 1 .064.167c.024.064.048.126.054.137.01.011.011.031.011.043 0 .013.01.026.012.03.01 0 .012.018.012.03 0 .013 0 .032.011.043.02.036.095.28.095.306 0 .014.01.028.012.032.01 0 .012.02.012.035 0 .015 0 .04.011.055.012.03.028.092.048.179.01.032.02.088.03.123.021.087.053.239.065.31.01.033.015.094.022.135.033.198.068.476.083.657.02.226.027.952.012 1.149-.02.252-.068.666-.095.814-.01.04-.017.097-.023.13-.027.16-.053.282-.095.442-.01.024-.017.065-.023.09a6.556 6.556 0 0 1-.153.52c-.01.01-.011.027-.011.037 0 .01-.01.027-.011.038-.01.011-.023.055-.037.097a8.352 8.352 0 0 1-.2.504l-.066.14a12.318 12.318 0 0 1-.28.549 3.16 3.16 0 0 1-.093.159 11.613 11.613 0 0 1-.36.565 2.606 2.606 0 0 1-.385.457c-.204.199-.428.37-.584.447a3.462 3.462 0 0 1-.314.157c-.014.01-.04.016-.056.022-.016.01-.04.017-.056.023a3.616 3.616 0 0 1-.237.077l-.104.03a.175.175 0 0 1-.072.011.115.115 0 0 0-.046.012c0 .01-.026.012-.048.012-.023 0-.063 0-.09.011-.027.01-.134.017-.238.024-.277.02-.554 0-.87-.078a3.261 3.261 0 0 1-.316-.098c-.029-.013-.07-.029-.111-.045a3.103 3.103 0 0 1-.591-.337.206.206 0 0 0-.062-.04.804.804 0 0 0-.159.108c-.013.011-.03.021-.038.021-.01 0-.015 0-.015.01s-.012.016-.026.023c-.014.01-.06.033-.102.057-.108.062-.27.141-.373.182-.014.01-.038.015-.053.022-.26.108-.678.182-1.022.18-.192 0-.436-.026-.592-.061-.03-.01-.078-.017-.108-.024a3.127 3.127 0 0 1-.297-.094c-.013-.01-.055-.022-.094-.037a3.561 3.561 0 0 1-.444-.23 3.396 3.396 0 0 1-.28-.204c-.062-.056-.067-.055-.191.041l-.129.1a4.338 4.338 0 0 1-.21.132 4.45 4.45 0 0 1-.37.176 2.557 2.557 0 0 1-.768.184 3.282 3.282 0 0 1-.403.018zm7.771-.593c.66-.085 1.275-.482 1.657-1.07.137-.21.253-.477.307-.71.035-.147.04-.171.054-.258.02-.118.02-.589 0-.698a2.352 2.352 0 0 0-.098-.416 1.797 1.797 0 0 0-.133-.322 2.227 2.227 0 0 0-.413-.593 2.347 2.347 0 0 0-1.345-.71 3.153 3.153 0 0 0-.68 0 2.73 2.73 0 0 0-.434.105c-.013.01-.055.022-.094.036-.163.06-.48.238-.494.276 0 .01.015.041.04.072.062.073.236.33.285.42.083.15.176.347.176.373 0 .01 0 .019.01.023.014.014.104.3.126.4.03.13.051.279.066.446.014.152.01.494-.013.624-.037.243-.034.228-.089.43a2.945 2.945 0 0 1-.592 1.126c-.025.015-.01.042.057.086.245.167.593.305.893.355.18.03.514.034.715.01zm-7.377-.011c.083-.013.177-.03.21-.036.031-.01.075-.015.096-.02.021 0 .041-.01.045-.016 0-.01.02-.011.035-.011.016 0 .038 0 .05-.011.01-.01.051-.023.09-.037.226-.084.477-.226.639-.362l.04-.034-.034-.05a4.176 4.176 0 0 1-.158-.24s-.017-.032-.04-.066a2.892 2.892 0 0 1-.188-.396 1.282 1.282 0 0 0-.043-.108c-.01-.011-.01-.031-.01-.043 0-.013 0-.026-.01-.03-.01 0-.014-.02-.017-.038 0-.018-.02-.088-.037-.156a2.45 2.45 0 0 1-.08-.727c0-.302.016-.475.068-.68l.05-.202c0-.018.01-.035.016-.039.01 0 .01-.017.01-.029 0-.013 0-.032.011-.043.01-.01.022-.05.036-.089a2.655 2.655 0 0 1 .235-.484s.04-.064.088-.134a1.75 1.75 0 0 0 .094-.144c.012-.03-.262-.216-.464-.314a1.987 1.987 0 0 0-.43-.162 2.39 2.39 0 0 0-1.299.035c-.013.01-.042.016-.064.024a2.47 2.47 0 0 0-.784.474 2.614 2.614 0 0 0-.434.523 3.958 3.958 0 0 0-.172.346c-.012.031-.024.062-.029.068 0 .01-.014.036-.023.065-.01.029-.02.062-.025.073-.01.011-.01.033-.01.049s0 .032-.01.035c-.01 0-.014.026-.018.051 0 .024-.018.105-.032.179a1.76 1.76 0 0 0-.026.398c0 .263.01.333.062.58.03.139.101.339.155.438a.185.185 0 0 1 .021.048c0 .012.12.224.155.275a2.495 2.495 0 0 0 .53.571c.124.105.482.305.599.334.016 0 .033.012.036.018 0 .01.019.01.034.01.015 0 .03 0 .034.01 0 .01.02.013.039.017.018 0 .056.012.085.02.331.082.608.1.874.058zm3.89-.016c.198-.038.218-.043.246-.054.013-.01.06-.021.106-.035.045-.014.093-.03.105-.036.013-.01.05-.022.082-.036.113-.05.142-.064.264-.138.168-.101.163-.095.115-.156a1.647 1.647 0 0 0-.06-.074.95.95 0 0 1-.065-.088.44.44 0 0 0-.052-.068s-.01-.011-.01-.02c0-.01 0-.016-.01-.02a2.083 2.083 0 0 1-.157-.267 2.146 2.146 0 0 1-.115-.258c0-.01 0-.021-.01-.032a2.253 2.253 0 0 1-.143-.49 3.37 3.37 0 0 1 0-1.183c.032-.173.1-.406.143-.49.01-.01.01-.025.01-.032 0-.01.029-.074.064-.149.035-.074.064-.139.064-.144 0-.01 0-.011.01-.013 0 0 .024-.033.043-.068a4.03 4.03 0 0 1 .227-.347c.011-.013.04-.046.061-.074l.04-.051-.033-.026a.369.369 0 0 0-.064-.042c-.017-.01-.057-.032-.089-.052a2.6 2.6 0 0 0-.43-.196 2.804 2.804 0 0 0-.46-.103 2.53 2.53 0 0 0-.902.074c-.014.01-.07.024-.124.042-.228.074-.426.18-.642.343a.332.332 0 0 0-.085.078c0 .01.016.032.035.054a.158.158 0 0 1 .035.055c0 .01 0 .015.01.015s.076.104.134.205c.026.046.162.32.175.355.01.014.016.041.023.059.01.018.017.043.022.056.01.021.049.144.082.247a.16.16 0 0 1 .012.065c0 .016 0 .034.01.04.01.01.014.032.017.058 0 .026.012.076.018.111.032.189.04.299.04.528 0 .26-.012.389-.061.639a2.585 2.585 0 0 1-.163.524c-.05.132-.279.547-.308.558-.01 0-.011.01-.011.018 0 .01-.016.032-.035.054a.166.166 0 0 0-.035.053c0 .032.26.213.428.297.114.057.155.075.246.107l.094.035c.013.01.037.013.053.017.016 0 .056.014.088.023.062.017.219.046.346.064.134.02.444.01.615-.027zm1.554-1.008c.142-.207.264-.475.337-.74.101-.37.101-.86 0-1.231a2.581 2.581 0 0 0-.446-.894c-.068-.085-.062-.087-.155.038a2.498 2.498 0 0 0-.438.967c-.01.035-.02.1-.028.14-.01.05-.015.177-.015.364s.01.314.015.364c.01.042.02.105.028.14.066.337.248.73.464 1l.066.082.039-.046a2.81 2.81 0 0 0 .133-.184zm-3.769-.033a2.974 2.974 0 0 0 .233-.462c.042-.1.106-.35.135-.523.016-.1.016-.58 0-.672a3.169 3.169 0 0 0-.078-.346 5.143 5.143 0 0 1-.035-.123 3.06 3.06 0 0 0-.22-.463.244.244 0 0 1-.034-.053c-.018-.036-.059-.088-.07-.088a.752.752 0 0 0-.103.146s-.01.022-.022.04c-.09.13-.219.455-.27.681a2.52 2.52 0 0 0-.002 1.078c.04.165.09.314.144.434l.037.082c.052.116.199.352.218.352.01 0 .035-.037.065-.083zM7.18 12.33a.623.623 0 0 1 0-.254c.014-.022.042 0 .053.042.031.125.195.205.271.133.064-.06.024-.121-.132-.2-.138-.07-.193-.135-.194-.233a.21.21 0 0 1 .092-.174c.033-.022.057-.026.133-.026.051 0 .096 0 .1.01 0 .01.02.014.037.018.022.01.035 0 .047-.013.016-.02.017-.02.034 0 .027.035.02.21-.01.215-.014 0-.026-.01-.039-.044-.028-.07-.102-.13-.163-.13-.054 0-.1.037-.1.08 0 .03.062.079.17.132.103.051.178.123.188.181a.22.22 0 0 1-.124.249.294.294 0 0 1-.219.01c-.059-.019-.065-.019-.096 0-.025.015-.036.016-.046.01zm2.196 0a.402.402 0 0 1-.248-.193.372.372 0 0 1 .183-.496.371.371 0 0 1 .177-.027c.078 0 .13.01.16.018.042.018.088.014.088-.01 0-.01.011-.011.024-.011.023 0 .024.01.021.125 0 .08-.01.126-.017.129-.01 0-.029-.024-.049-.058-.05-.09-.124-.137-.213-.137-.116 0-.184.09-.196.26-.012.169.026.275.114.32.04.021.142.023.161 0 .02-.019.02-.167 0-.182a.068.068 0 0 0-.038-.016.024.024 0 0 1-.023-.022c0-.014.027-.017.164-.017.126 0 .164 0 .164.015 0 .01-.013.022-.029.03-.027.014-.03.02-.033.114 0 .097 0 .1-.036.114a.763.763 0 0 1-.37.038zm4.579-.02c-.027-.023-.036-.04-.036-.07 0-.058.034-.092.094-.092s.094.034.094.094c0 .042-.022.07-.067.088-.04.015-.044.014-.084-.02zm.462.012a.343.343 0 0 1-.234-.234.34.34 0 0 1 .047-.304.322.322 0 0 1 .153-.14c.051-.025.076-.03.162-.03.063 0 .124.01.161.02.056.018.061.018.074 0 .01-.011.023-.02.033-.02.017 0 .02.017.02.123 0 .116 0 .123-.025.123-.017 0-.026-.01-.03-.036-.01-.05-.082-.12-.143-.139-.058-.018-.11-.01-.174.042-.108.081-.116.375-.013.484.07.075.203.069.297-.014.08-.071.122-.037.052.043-.076.086-.25.124-.38.083zm-7.946-.001c-.016-.016-.01-.039.016-.039.013 0 .034-.011.047-.024.022-.022.024-.039.024-.285 0-.28 0-.296-.059-.303-.02 0-.029-.011-.029-.027 0-.023.01-.023.287-.023h.288v.111c0 .091 0 .112-.018.112-.01 0-.023-.018-.031-.041-.024-.075-.06-.103-.15-.112h-.09c-.01.01-.01.06-.01.121 0 .11 0 .11.031.108.031 0 .043-.02.071-.09.01-.025.024-.048.032-.051.011 0 .015.038.015.184 0 .147 0 .189-.015.185-.01 0-.023-.027-.033-.054-.022-.06-.06-.101-.086-.092-.015.01-.019.028-.019.124 0 .116 0 .118.03.125a.363.363 0 0 0 .195-.034.22.22 0 0 0 .062-.075c.022-.045.05-.07.062-.057.01.01-.02.21-.034.227-.01.01-.08.015-.296.015-.156 0-.287 0-.292-.01zm1.396 0c-.018-.018-.01-.035.03-.046l.038-.01v-.584l-.05.01c-.06.01-.088.033-.112.092-.01.024-.025.044-.034.044-.014 0-.016-.02-.013-.102v-.103h.301c.35 0 .33-.011.324.123 0 .062-.01.08-.022.082-.013 0-.025-.01-.037-.04-.025-.064-.056-.087-.116-.09h-.05v.244c0 .285 0 .331.056.343.025.01.034.014.032.027 0 .017-.026.02-.174.023h-.18zm.538 0c-.017-.017-.01-.036.025-.043.055-.011.061-.043.061-.317 0-.267 0-.284-.059-.291-.02 0-.029-.011-.029-.027 0-.023.01-.023.288-.023h.287v.111c0 .087 0 .112-.016.112-.017 0-.027-.014-.048-.071-.018-.05-.067-.075-.158-.083l-.077-.01v.252l.032-.01c.037-.01.058-.034.067-.081.01-.036.027-.066.043-.066.01 0 .01.084.01.187 0 .157 0 .188-.017.188-.01 0-.023-.02-.031-.05-.014-.052-.058-.103-.087-.103-.014 0-.017.024-.017.123 0 .122 0 .123.03.13h.094a.218.218 0 0 0 .17-.127c.02-.039.026-.044.04-.03.013.013.013.034 0 .11-.01.052-.018.1-.024.108-.01.011-.082.015-.295.015-.156 0-.287 0-.291-.01zm1.47-.015c0-.015.01-.025.034-.03.054-.012.06-.043.06-.305 0-.261-.01-.295-.057-.301-.022 0-.032-.011-.034-.03 0-.026 0-.026.172-.026.11 0 .179 0 .183.012.011.017-.015.044-.045.049-.02 0-.027.015-.035.06-.01.033-.01.088-.01.124v.066h.2v-.245l-.039-.01c-.028-.01-.038-.016-.035-.03 0-.018.023-.02.18-.02.168 0 .175 0 .175.023 0 .016-.01.025-.029.028-.016 0-.033.01-.038.018a4.843 4.843 0 0 0 0 .566c0 .01.025.017.043.022.022.01.03.015.029.027 0 .017-.026.02-.18.02-.148 0-.176 0-.179-.019 0-.012.01-.022.035-.029l.038-.01V12h-.206v.082c-.01.123.01.171.051.185.044.014.043.013.034.036-.01.017-.03.019-.182.019-.164 0-.174 0-.174-.023zm.793.015c-.016-.015-.01-.039.013-.039.011 0 .033-.01.047-.018.026-.018.026-.022.026-.292 0-.29 0-.293-.059-.301-.02 0-.029-.011-.029-.027 0-.022.01-.024.173-.027.187 0 .224 0 .19.037a.075.075 0 0 1-.046.019c-.015 0-.03.01-.034.019 0 .01-.01.14-.01.287v.268l.042.01c.059.01.15 0 .187-.026a.26.26 0 0 0 .065-.095c.02-.043.04-.072.048-.07.021.01.023.097.01.184l-.016.076h-.606zm.672-.01c-.01-.01-.013-.02-.011-.022l.036-.023c.021-.013.052-.061.091-.143.033-.068.059-.126.059-.128 0 0 .015-.038.034-.08l.113-.252c.013-.03.03-.05.041-.05.011 0 .028.02.041.05l.048.108.135.305c.07.16.084.183.12.197.013 0 .02.017.018.03 0 .017-.021.02-.168.02-.143 0-.164 0-.168-.019 0-.014.01-.022.032-.027.043-.01.043-.01.011-.087l-.025-.06h-.108c-.1 0-.108 0-.12.026-.036.074-.03.108.022.119.025.01.034.013.03.028 0 .017-.02.02-.11.024-.085 0-.11 0-.122-.015zm.369-.265a1.159 1.159 0 0 0-.07-.151.774.774 0 0 0-.076.164c0 .01.035.011.077.011.073 0 .077 0 .069-.024zm.377.275c-.019-.02-.01-.037.033-.044l.041-.01v-.591h-.026c-.027 0-.055-.04-.042-.053 0 0 .086-.01.182-.01.149 0 .175 0 .181.019.01.022-.014.039-.05.04-.015 0-.029.01-.033.019 0 .01-.01.134-.01.275 0 .306 0 .298.119.29a.187.187 0 0 0 .114-.031c.033-.024.045-.043.082-.133.01-.018.021-.032.031-.032.023 0 .024.09 0 .193l-.015.07h-.606zm1.195-.01c-.01-.016.031-.041.062-.041.02 0 .024-.057.024-.3 0-.134 0-.257-.01-.272 0-.018-.016-.026-.035-.026-.027 0-.058-.037-.043-.05 0 0 .133-.01.286-.01.224 0 .28 0 .291.016.01.01.012.051.01.109 0 .074-.01.092-.023.096-.014 0-.024-.011-.035-.046-.022-.067-.065-.092-.17-.095h-.08v.111c0 .133 0 .146.052.128.04-.014.073-.056.073-.092 0-.024.038-.053.051-.039 0 0 .01.086.01.182 0 .165 0 .173-.023.173-.022 0-.028-.012-.038-.076 0-.027-.076-.079-.102-.074-.014 0-.019.025-.022.11 0 .135 0 .154.044.163.024.01.035.015.035.03 0 .021-.01.023-.175.023-.145 0-.175 0-.18-.018zm-4.538-1.675c-.113-.033-.17-.08-.21-.174-.015-.035-.018-.1-.018-.345 0-.167 0-.31.01-.318.01-.01.037-.014.108-.012h.1l.01.296c.01.278.01.296.028.313.031.024.128.024.165 0l.029-.02v-1.1l.026-.01h.202v.578c0 .549 0 .58-.019.622a.39.39 0 0 1-.142.139.45.45 0 0 1-.287.023zm.815 0c-.12-.033-.206-.108-.232-.203-.01-.039-.014-.204-.014-.598 0-.299 0-.552.01-.562.01-.015.028-.019.118-.019h.11v1.122l.029.019c.039.025.133.024.167 0l.026-.02V9.273h.098c.062 0 .104 0 .114.01.014.01.016.105.016.559 0 .505 0 .546.02.56.03.023.127.02.162 0l.03-.018v-.619h.222v.047c0 .052.01.057.042.026a.423.423 0 0 1 .08-.049c.05-.024.078-.028.177-.028.099 0 .126 0 .175.028a.416.416 0 0 1 .076.045c.015.015.018.012.024-.023.011-.067.015-.069.128-.069.097 0 .104 0 .11.026 0 .014.01.16.01.324 0 .27 0 .3.022.313.026.02.117.021.158 0l.032-.015v-.312c0-.253 0-.315.016-.326.01-.01.052-.012.115-.01h.098l.01.32c.01.3.01.32.029.336.029.022.118.024.161 0l.032-.015v-.31c0-.172 0-.318.01-.327.01-.01.039-.014.115-.012h.104l.01.32c.01.3.01.32.03.336.028.022.118.024.161 0l.032-.015v-.311c0-.227 0-.315.014-.326.01-.01.051-.014.111-.014.084 0 .098 0 .11.023.01.014.011.14.011.327v.303l.03.014a.23.23 0 0 0 .151 0l.03-.013v-.624h.229v.324c0 .364 0 .393-.071.462-.11.113-.319.139-.466.057-.035-.02-.04-.02-.065 0a.404.404 0 0 1-.39 0c-.02-.011-.04-.016-.047-.01a.613.613 0 0 1-.212.059.477.477 0 0 1-.196-.047c-.032-.018-.038-.018-.07 0-.157.08-.353.055-.465-.06l-.045-.045-.056.039c-.12.083-.234.108-.348.077a.5.5 0 0 1-.193-.096l-.027-.03-.035.04a.405.405 0 0 1-.477.076c-.017-.01-.033-.01-.056 0a.492.492 0 0 1-.297.033zm1.308-.248a.337.337 0 0 0 .07-.071c.03-.043.035-.058.035-.132 0-.074 0-.09-.035-.134a.24.24 0 0 0-.324-.07.278.278 0 0 0-.116.154c-.029.082.04.222.13.266a.297.297 0 0 0 .24-.012zm2.358.19c-.019-.01-.02-.055-.02-.66 0-.488 0-.65.014-.661a.927.927 0 0 1 .272-.01c.017.01.02.076.02.667 0 .59 0 .66-.02.667-.03.012-.243.01-.265-.01zm-2.967-.963c-.062-.046-.084-.149-.048-.224.041-.085.166-.117.252-.065a.236.236 0 0 1 .05.038c.01.01.013.01.021-.01.019-.033.076-.056.14-.056.052 0 .063 0 .11.05.065.062.079.117.047.186a.24.24 0 0 1-.055.075c-.059.05-.205.036-.245-.022 0-.01-.026 0-.048.02-.054.041-.172.044-.224.01zm.854 0c-.06-.047-.082-.15-.047-.224.042-.088.172-.118.257-.06a.325.325 0 0 0 .048.029s.024-.013.048-.029a.182.182 0 0 1 .232.023.183.183 0 0 1-.026.263c-.052.037-.164.034-.21-.01-.036-.03-.062-.038-.062-.02 0 .024-.072.049-.137.049a.171.171 0 0 1-.103-.025zm-4.02-4.572a20.24 20.24 0 0 0 .146-.413c.01-.025.01-.026.076-.216.023-.068.047-.134.053-.147.01-.013.024-.063.04-.111a55.783 55.783 0 0 0 .288-.815c.01-.013.023-.06.038-.103l.027-.08-.037-.031a2.758 2.758 0 0 0-.144-.108l-.21-.15-.224-.161-.224-.161c-.056-.04-.145-.105-.2-.143a17.497 17.497 0 0 0-.444-.32 4.988 4.988 0 0 1-.162-.12c-.014-.01-.025-.02-.025-.025 0 0 .297-.01.66-.01.364 0 .835 0 1.049-.01.34-.01.388-.01.393-.026.01-.032.087-.249.126-.353.063-.17.152-.417.221-.615l.047-.13c.01-.022.034-.09.108-.298.019-.055.04-.11.045-.123.01-.013.024-.063.04-.112.076-.21.086-.237.103-.254.016-.016.02-.015.026.01 0 .015.018.055.031.09l.1.272c.016.048.035.099.04.111a6.6 6.6 0 0 1 .092.252c.077.219.097.277.107.299.01.013.034.092.064.176l.065.176c.01.013.026.068.045.123.1.283.103.293.135.366l.019.044h1.003c.798 0 1.003 0 1 .015 0 .01-.353.276-.778.595-.425.32-.775.59-.777.6 0 .019.06.204.168.49.01.023.027.073.04.111l.036.094c.01.013.015.04.02.06l.108.292c.01.013.016.042.024.064.01.023.02.052.024.064.01.013.034.092.064.176l.064.176c.01.013.016.042.024.064.01.023.018.052.024.064.01.013.024.063.041.112l.041.11c.025.058.044.13.034.134a.71.71 0 0 1-.163-.096c-.058-.042-.048-.035-.673-.466-.237-.164-.462-.32-.5-.345-.43-.299-.524-.361-.542-.36a.314.314 0 0 0-.088.052l-.183.133a32.333 32.333 0 0 0-.394.28 23.383 23.383 0 0 0-.48.34c-.104.074-.47.333-.51.363-.185.135-.192.134-.141-.01zm6.282 0 .07-.196.061-.176c.016-.048.034-.098.04-.111.017-.038.084-.232.091-.261 0-.015.011-.03.016-.033.01 0 .01-.017.01-.03 0-.012.01-.031.011-.042a.24.24 0 0 0 .028-.073c.01-.03.036-.106.06-.17l.088-.246.158-.446a.726.726 0 0 0 .03-.096c0-.013-.133-.114-.375-.285a4.274 4.274 0 0 1-.13-.094 13.385 13.385 0 0 0-.32-.231 47.31 47.31 0 0 1-.476-.343 14.44 14.44 0 0 0-.212-.151.715.715 0 0 1-.151-.123s.3-.01.665-.01c.366 0 .836 0 1.044-.01l.38-.01.016-.036c.01-.02.03-.076.046-.125a1.33 1.33 0 0 1 .042-.108c.01-.01.01-.028.01-.038 0-.01 0-.027.012-.038.01-.01.035-.089.065-.173l.064-.175c.01-.023.034-.09.107-.3a2.39 2.39 0 0 1 .045-.122 6.75 6.75 0 0 0 .107-.3 2.39 2.39 0 0 1 .045-.122c.022-.051.117-.32.117-.331 0-.01.01-.021.023-.032.022-.02.023-.019.034.019.013.044.07.203.084.238.01.013.024.063.041.112l.041.111c.01.013.018.047.028.076a17.941 17.941 0 0 0 .171.475c.01.013.034.092.064.176.03.084.06.161.065.173.01.01.011.03.011.042 0 .012 0 .025.01.03 0 0 .02.04.034.08.058.166.09.25.1.27.01.01.011.028.011.038 0 .01.01.03.02.047l.018.029h1.002c.796 0 1.001 0 .998.015 0 .01-.35.274-.772.59a32.1 32.1 0 0 0-.778.595c-.01.013-.01.032 0 .063.054.152.097.27.107.287.01.011.011.03.011.042 0 .012 0 .025.01.03 0 0 .017.032.028.062l.064.173c.024.065.048.13.053.147.01.016.024.066.041.11a6.112 6.112 0 0 1 .078.215c.028.066.035.085.068.179l.072.199.047.129c.01.016.034.095.064.176.076.202.078.21.058.21a.212.212 0 0 1-.067-.034L16.82 5a431.542 431.542 0 0 1-1.406-.971c-.263-.18-.229-.173-.357-.081a70.59 70.59 0 0 1-.586.416l-.305.217c-.112.08-.223.158-.246.176-.023.017-.12.086-.217.153s-.21.147-.25.178c-.115.085-.124.079-.078-.053z"/></svg>