<svg viewBox="0 0 24 24" xmlns="http://www.w3.org/2000/svg" role="img"><path d="M23.143 21.158c-.19-.105-.242-.165-.166-.192.064-.023.213-.177.26-.27.048-.094.05-.162.05-1.217V18.36H24l-.008 1.176c-.007 1.065-.012 1.186-.055 1.281-.085.189-.397.462-.522.458a1.118 1.118 0 0 1-.272-.118zm-12.288.04c-.19-.04-.452-.184-.52-.288-.05-.075-.06-.12-.053-.24l.008-.148-.289-.013c-.402-.017-.657-.116-.779-.3-.045-.07-.048-.15-.049-1.29v-1.216h.684v1.167c0 1.048.004 1.17.043 1.202a.57.57 0 0 0 .23.045l.187.01-.009-.64a9.626 9.626 0 0 1 .008-.725c.022-.116.172-.256.352-.328.127-.05.197-.058.49-.058.295 0 .362.008.495.06.202.08.324.191.36.325.019.068.026.336.02.735l-.008.629.692-.008c.65-.008.695-.012.73-.06.029-.04.037-.169.037-.61 0-.526-.004-.564-.053-.613-.057-.058-.158-.068-.238-.026-.048.026-.05.061-.05.631v.604h-.711v-.619c0-.69.01-.74.167-.87.17-.139.331-.18.7-.18.386.002.568.057.748.225l.107.1.008.652c.005.359.001.69-.007.737-.032.171-.218.317-.5.392-.095.025-.339.035-.873.036h-.741l.013.125c.024.225-.124.403-.424.508a1.96 1.96 0 0 1-.775.05zm.52-.393c.103-.063.11-.135.017-.208a.4.4 0 0 0-.355-.057c-.18.054-.224.207-.083.29.081.046.327.032.42-.025zm-.08-.742c.025-.02.033-.178.033-.627 0-.567-.002-.602-.05-.628a.225.225 0 0 0-.233.014c-.057.04-.058.052-.058.613 0 .599.008.643.118.668a.247.247 0 0 0 .19-.04zm1.82.934c-.145-.054-.181-.237-.062-.315.102-.066.343-.075.457-.016.082.042.092.058.092.152s-.01.11-.092.151a.702.702 0 0 1-.394.028zm-7.033-.047c-.578-.102-1.075-.395-1.23-.723-.052-.112-.056-.167-.063-.993l-.008-.873h.712v1.674l.068.1c.088.129.15.182.327.273a1.67 1.67 0 0 0 1.04.159l.234-.035-.181-.034a1.55 1.55 0 0 1-.299-.09c-.108-.053-.216-.179-.216-.253 0-.024.22-.033.922-.039.878-.007.924-.01.96-.059.03-.041.037-.206.037-.887v-.836h.683v.882c0 .964 0 .966-.156 1.098-.107.09-.34.173-.537.193a.434.434 0 0 0-.258.093c-.14.11-.458.25-.71.312-.289.072-1.011.093-1.325.038zm-5.608-.476c-.192-.052-.36-.154-.423-.256-.048-.08-.05-.144-.05-1.299L0 17.703h.683v1.167c0 1.292-.007 1.236.171 1.236.175 0 .171.022.171-.92v-.852h.683v.903c0 .896 0 .904-.06.992-.067.1-.283.219-.473.26-.178.038-.531.03-.701-.015zm1.839 0c-.174-.046-.356-.154-.431-.256-.054-.073-.055-.096-.055-1.288v-1.213h.683l.007 1.175.007 1.175.098.03c.069.02.12.02.17.001l.07-.027.008-.678c.01-.795.006-.786.3-.931.158-.077.2-.086.475-.097.348-.013.56.03.758.156.19.12.197.154.197.926 0 .82-.014.874-.25.998-.089.046-.164.057-.48.066l-.374.01v-.188l-.093.063a.764.764 0 0 1-.225.092c-.188.04-.692.032-.865-.014zm1.49-.38a.232.232 0 0 0 .093-.06c.01-.017.02-.282.02-.59 0-.523-.003-.561-.052-.61-.065-.065-.201-.07-.268-.01-.044.04-.048.096-.048.653 0 .335.008.617.018.627.026.027.154.021.236-.01zm11.831.383c-.801-.135-1.324-.546-1.321-1.039.002-.323.19-.588.564-.794.388-.215.81-.297 1.425-.276.427.015.67.058.923.163l.096.04v-.21h.684v.811c0 .755.003.817.049.873.034.043.077.06.142.06.182 0 .177.027.177-.92v-.85h.683v.9c0 1.021.003 1.005-.216 1.133-.195.115-.416.156-.743.14-.337-.016-.508-.068-.63-.19-.114-.113-.146-.255-.146-.643 0-.224-.01-.34-.037-.39-.098-.19-.45-.413-.746-.475a2.437 2.437 0 0 0-.808.012c-.337.087-.592.257-.697.462-.063.123-.063.19-.002.325.09.2.38.386.713.46a5.1 5.1 0 0 0 .598.046l.454.014v.387l-.48-.003a5.957 5.957 0 0 1-.682-.036zm4.027-.003c-.174-.046-.356-.154-.432-.256-.054-.073-.055-.097-.055-1.288v-1.213h.684l.007 1.174.006 1.174.091.03c.071.024.107.023.164-.005l.073-.035.007-.847.007-.848h.683v.812c0 .75.003.817.048.872.059.073.196.08.262.015.04-.04.045-.134.052-.871l.008-.828h.681v.822c0 .452.01.834.02.85.034.05.132.09.182.072.143-.05.14-.03.14-.92v-.824h.683v.842c0 .94-.001.949-.176 1.107-.166.15-.331.194-.717.193-.181 0-.382-.005-.447-.009-.065-.004-.251 0-.413.01-.235.016-.334.01-.486-.025-.177-.041-.205-.042-.349-.004-.193.051-.53.051-.724 0zM1.223 18.238c-.116-.033-.172-.092-.172-.183 0-.123.116-.194.316-.194.202 0 .315.07.315.196 0 .068-.016.103-.063.134-.067.043-.307.072-.396.047zm7.302-.02c-.1-.045-.15-.128-.129-.216.048-.191.587-.185.636.006.022.09-.01.143-.124.201a.487.487 0 0 1-.383.008zm10.046.02c-.117-.033-.172-.092-.172-.183 0-.123.115-.194.315-.194.202 0 .316.07.316.196 0 .068-.017.103-.064.134-.066.043-.306.072-.395.047zM7.43 16.916c-.06-.048-.071-.078-.071-.179 0-.139.09-.348.15-.348.027 0 .033.014.019.046a.691.691 0 0 0-.032.15c-.018.148.029.172.328.172.134 0 .244-.01.244-.02 0-.012-.041-.037-.092-.055-.05-.018-.092-.05-.092-.07 0-.073.086-.251.133-.276a.936.936 0 0 1 .26-.026c.227 0 .248-.015.17-.125-.037-.055-.036-.065.016-.138.03-.043.066-.073.078-.065.044.027.084.201.068.29-.04.209-.23.311-.462.248-.151-.04-.192.005-.053.06.085.033.106.055.106.108 0 .188-.105.247-.473.27-.203.014-.23.01-.296-.042zm2.454.01c-.1-.043-.098-.05.069-.142a.699.699 0 0 0 .185-.15l.064-.084-.101-.016a.928.928 0 0 1-.163-.042c-.056-.023-.06-.037-.045-.135.02-.126.101-.27.166-.295.059-.023.169.061.215.165.032.07.052.083.126.083.077 0 .094-.012.128-.092.02-.05.047-.091.057-.091.011 0 .037.039.06.085.033.074.053.086.15.093l.112.008v-.206a1.69 1.69 0 0 0-.035-.342c-.034-.13-.033-.14.021-.19a.23.23 0 0 1 .074-.053c.01 0 .042.047.071.105.03.058.042.105.027.105-.016 0-.027.09-.027.228v.229l.073-.068c.149-.139.27-.161.384-.072.073.058.087.127.042.21-.025.047-.018.051.075.051.094 0 .108-.01.184-.131.069-.112.093-.132.162-.132.185 0 .272.228.158.414-.06.099-.13.11-.248.038-.075-.045-.08-.045-.128.004-.061.06-.194.047-.3-.03-.068-.05-.071-.05-.182 0a1.219 1.219 0 0 1-.318.065c-.195.015-.209.012-.288-.054-.066-.056-.088-.063-.105-.034-.028.048-.123.097-.188.097-.036 0-.062.027-.082.088a1.207 1.207 0 0 1-.106.21c-.086.135-.133.148-.287.082zm2.17-.578a.239.239 0 0 1-.017-.065c0-.047-.106-.083-.146-.05-.055.045-.047.07.034.115.097.052.148.052.128 0zm-1.883-.01c0-.03-.075-.107-.104-.107-.011 0-.036.02-.055.042-.029.034-.028.045.003.065.05.032.156.032.156 0zm1.162-.058c.06-.023.068-.036.045-.078-.015-.029-.054-.05-.095-.05-.072 0-.245.115-.245.162 0 .03.18.01.295-.034zm3.99.668-.105-.04c-.066-.024-.066-.024.039-.077.105-.053.302-.224.302-.262 0-.01-.044-.027-.098-.036-.184-.031-.19-.036-.19-.133 0-.112.053-.245.123-.307.04-.036.068-.041.118-.022.07.026.152.134.152.199 0 .027.026.04.08.04.068 0 .093-.02.162-.131.07-.113.093-.132.165-.132.184 0 .274.207.17.393-.07.124-.157.142-.267.055-.066-.051-.067-.051-.113 0a.182.182 0 0 1-.119.052c-.056 0-.074.015-.087.072a.945.945 0 0 1-.095.21c-.08.138-.126.161-.237.12zm.84-.61c0-.06-.114-.146-.156-.12-.045.028-.031.087.031.13.08.056.126.052.126-.01zm-.604.003c0-.043-.103-.116-.143-.1-.042.016-.054.073-.023.104.025.026.166.022.166-.004zm-5.068.487-.057-.061.06-.058.062-.057.061.065c.06.064.06.067.014.119-.06.067-.07.066-.14-.008zm-1.52-.312c-.083-.04-.109-.121-.128-.407-.01-.142-.028-.3-.04-.35-.021-.08-.015-.1.046-.164.097-.1.112-.065.115.282.004.402.01.418.163.428l.123.008-.045-.08c-.044-.075-.044-.083.005-.172.058-.109.188-.197.288-.197.043 0 .1.029.142.072l.071.072-.165.016a.709.709 0 0 0-.18.031c-.031.032.017.144.079.185.055.036.079.037.202.004a.862.862 0 0 1 .146-.031.41.41 0 0 1-.039.097c-.041.088-.055.096-.319.163-.3.077-.378.085-.463.043zm3.992.013c-.018-.007-.053-.05-.076-.096-.042-.082-.043-.082-.07-.024-.032.073-.125.077-.254.013-.074-.037-.09-.059-.083-.112.013-.102.074-.178.19-.237.065-.033.102-.069.094-.09-.007-.018.009-.065.035-.105.06-.092.077-.066.13.206.038.195.046.211.118.23.098.026.16-.009.195-.108.035-.101.074-.102.096 0 .034.151.175.157.228.01.038-.104.084-.105.096-.002.018.15.192.143.246-.01.035-.1.071-.099.091.002.02.101.074.13.207.108.09-.015.108-.03.13-.102.033-.111.074-.109.116.008.032.086.041.093.13.085.084-.007.1-.02.122-.093.014-.047.039-.086.055-.086.017 0 .041.039.055.086.019.066.04.087.098.094.136.015.16-.01.099-.108l-.054-.087.064-.078c.054-.065.068-.071.09-.038.09.132.047.378-.084.488-.096.08-.137.08-.218 0-.048-.049-.069-.056-.084-.03a.28.28 0 0 1-.164.094c-.016 0-.06-.03-.096-.066l-.066-.067-.079.067c-.11.092-.218.087-.312-.014-.067-.071-.076-.074-.09-.03-.02.062-.136.117-.202.096a.154.154 0 0 1-.076-.065c-.025-.047-.03-.047-.09.015-.08.08-.132.08-.21.003l-.06-.06-.071.06a.25.25 0 0 1-.246.043zm-.137-.31c0-.087-.037-.102-.131-.054-.122.064-.098.113.058.117.06.002.073-.01.073-.062zm-4.471-.406-.063-.051.058-.06c.057-.057.06-.057.112-.01.051.047.055.047.106 0 .05-.045.054-.045.105.001l.053.048-.057.061c-.054.058-.06.059-.106.018-.045-.04-.051-.04-.097 0-.046.042-.052.042-.111-.007zm2.158-1.564c-1.273-.228-2.343-1.016-2.897-2.131-.322-.65-.435-1.182-.407-1.915a3.655 3.655 0 0 1 .413-1.62c.173-.343.341-.573.666-.91.237-.246.282-.282.324-.258.066.04 1.557 1.674 1.558 1.709a.935.935 0 0 1-.146.197c-.246.283-.35.505-.406.86-.08.515.196 1.124.65 1.434.918.627 2.113.15 2.39-.956.085-.34.013-.75-.187-1.064-.07-.11-3.423-3.796-3.79-4.166l-.117-.119-1.109 1.122c-1.171 1.185-1.3 1.297-1.68 1.448-.495.199-1.173.202-1.65.008-.351-.142-.84-.503-.84-.62 0-.027.816-.89 1.949-2.061 2.094-2.164 2.122-2.19 2.537-2.349a1.96 1.96 0 0 1 .88-.13c.48.023.915.197 1.246.499.083.076.744.789 1.468 1.584l2.142 2.352c.848.93 1.002 1.128 1.198 1.538.606 1.266.51 2.678-.263 3.838a3.991 3.991 0 0 1-2.404 1.66c-.235.056-.356.068-.803.076-.364.006-.586-.002-.722-.026zm6.391-6.09a2.3 2.3 0 0 1-.974-.426c-.218-.167-3.867-4.171-3.867-4.244 0-.05.257-.312.412-.42a2.69 2.69 0 0 1 .574-.275 2.02 2.02 0 0 1 .503-.065c.438-.018.656.026 1.028.205.232.112.304.164.519.373.392.382 3.772 4.124 3.772 4.176 0 .055-.294.306-.489.418-.417.24-.99.34-1.478.258z"/></svg>