<svg role="img" viewBox="0 0 24 24" xmlns="http://www.w3.org/2000/svg"><path d="M3.14 17.058C1.49 16.742.529 15.955.118 14.58c-.168-.563-.155-1.624.026-2.079.27-.682.977-1.258 1.924-1.57.91-.3 1.443-.359 3.585-.392l1.997-.03v.499l-1.842.026c-1.655.023-1.893.04-2.338.162-1.053.288-1.678.715-1.996 1.362-.157.32-.172.41-.17 1.031.007 1.636.786 2.706 2.184 2.997.848.177 2.062.024 2.758-.348.501-.267 1.039-.839 1.297-1.38.369-.771.417-1.156.417-3.357.001-2.882.098-3.44.705-4.053.242-.244.397-.341.657-.415.344-.098 1.3-.201 1.3-.14 0 .018-.1.08-.225.14-.478.226-.846.773-1.015 1.509-.052.225-.093 1.2-.122 2.88-.04 2.297-.055 2.574-.167 2.91-.218.66-.451 1.036-.94 1.518-.561.554-1.119.854-2.03 1.092-.76.199-2.247.256-2.983.116zm10.972-.034c-.562-.112-1.06-.492-1.273-.974-.269-.607-.294-.95-.294-3.947 0-1.567.027-3.035.06-3.262.184-1.272.796-1.861 2.005-1.93.262-.015.455-.002.436.028-.018.03-.07.054-.113.054-.17 0-.6.385-.777.696-.347.608-.384.944-.384 3.475 0 1.254.013 2.294.028 2.31.03.03 6.495.032 6.525.002.01-.01-.066-.12-.169-.244-.22-.267-.822-.577-1.29-.665-.183-.034-1.124-.062-2.092-.062-1.958 0-1.998-.007-2.417-.443-.182-.191-.39-.58-.39-.732 0-.1 4.187-.08 4.772.024 1.172.21 1.693.814 1.741 2.021l.021.524-2.818.032c-1.55.017-2.76.038-2.69.046.198.023.675.35.857.59.298.39.423.863.456 1.732l.031.79-.984-.008c-.54-.003-1.1-.03-1.24-.057zm1.011-.695c-.056-.997-.255-1.628-.64-2.036-.167-.178-.618-.406-.68-.345-.08.082-.011 1.241.102 1.682.167.654.453 1.067.898 1.299.355.184.364.168.32-.6zm3.45.67c-.022-.06-.024-.357-.005-.661.047-.716.198-1.015.62-1.224.23-.114.407-.15.774-.155l.477-.008-.017.62c-.03 1.077-.338 1.424-1.336 1.5-.41.03-.476.02-.512-.073zm-10.118-.102c.364-.164.595-.389.785-.76.283-.556.328-.966.329-3.03L9.57 11.2l.604.018.604.018.017 1.579c.009.868-.01 1.816-.042 2.106-.162 1.46-.848 2.11-2.223 2.104l-.353-.002.278-.126zm1.487 0c.363-.164.595-.389.784-.76.265-.52.328-1 .33-2.498 0-.755.027-1.444.06-1.53.14-.367.569-.726 1.04-.87l.139-.043-.001 1.723c-.002 2.338-.098 2.922-.573 3.46-.389.443-.933.649-1.705.646l-.353-.002.279-.126zm-4.133-4.099c.048-.855.168-1.11.624-1.318.19-.087.51-.166.775-.19l.453-.042-.02.737c-.02.654-.038.76-.166.94-.226.316-.578.464-1.181.497l-.52.029zm3.773-2.011l.019-.233h2.663l.02.233.019.232h-2.74zm4.41.143a.572.572 0 0 1-.014-.232l.02-.144 2.354-.037c2.577-.04 3.008-.086 4.103-.434.65-.207 1.44-.579 1.841-.866l.25-.18.727.285c.4.156.727.316.727.355 0 .103-.529.445-.926.6-1.354.525-3.35.74-6.926.74-1.782.002-2.128-.012-2.157-.087zM9.588 9.517c.056-1.201.243-1.756.73-2.174.323-.276.689-.398 1.326-.443l.495-.035-.248.133c-.767.413-1.08 1.16-1.082 2.58l-.001.76H9.552z"/></svg>