<svg viewBox="0 0 24 24" xmlns="http://www.w3.org/2000/svg" role="img"><path d="M2.905 17.426a1.384 1.384 0 0 1-.28-.26c-.096-.129-.097-.153-.021-.334.044-.107.155-.302.245-.433l.163-.238v-2.003l-.352.353c-.194.194-.46.415-.592.493-.604.354-1.294.45-1.632.226-.184-.122-.402-.492-.433-.735-.016-.126.006-.137.528-.25.968-.212 1.58-.516 2.086-1.038.724-.746.982-1.62.985-3.346.001-.616.02-.789.102-.97.082-.18.132-.226.276-.247.414-.06.756.118.925.485.106.229.116.34.118 1.294.002.855.018 1.081.09 1.246.11.246.21.253.381.026.174-.23.495-.88.54-1.094.055-.248.16-.32.336-.226.326.175.33.6.016 1.348-.304.724-.803 1.217-1.231 1.217-.45 0-.637-.493-.692-1.82-.032-.768-.056-.965-.135-1.085-.185-.283-.221-.203-.27.603-.07 1.162-.31 2.153-.7 2.89l-.185.346v2.216l.323.28c.178.154.33.27.34.26.264-.333.355-.544.355-.82 0-.263-.013-.299-.107-.299-.191 0-.527-.36-.616-.66-.045-.149-.063-.287-.04-.306.021-.019.204-.063.404-.098.865-.152 1.633-.505 2.129-.98.768-.734 1.068-1.708 1.068-3.469 0-1.047.107-1.238.655-1.165.368.05.673.357.799.809.039.138.066.835.075 1.88.012 1.539.021 1.681.126 1.958.195.516.517.728 1.215.8.9.093 1.88-.097 2.452-.475.858-.566 1.32-1.292 1.334-2.096.01-.595-.222-.838-1.075-1.124-.621-.208-1.21-.257-1.672-.14-.425.108-.696.294-1.032.708-.444.545-.452.443-.046-.565.19-.47.307-.677.505-.894.29-.317.766-.583 1.146-.64.301-.046.877.051 1.382.231 1.36.486 1.808 1.116 1.61 2.261-.33 1.91-1.352 3.222-2.922 3.752a4.2 4.2 0 0 1-.59.152l-.24.035-.013.321-.012.32.426.349c.234.191.427.361.427.377.002.038-.41.43-.608.578-.228.171-.377.146-.654-.11-.214-.196-.24-.245-.213-.385.018-.088.129-.308.246-.488.186-.285.213-.367.213-.634v-.307l-.31.035c-.407.046-1.023-.053-1.376-.22-.368-.174-.729-.565-.89-.964-.126-.314-.128-.343-.128-2.14 0-1.655-.01-1.836-.097-1.998-.17-.31-.22-.191-.29.686-.098 1.244-.272 1.966-.656 2.732-.53 1.056-1.27 1.694-2.184 1.88l-.334.07v.245c0 .243.005.25.452.618.248.205.451.385.45.4 0 .015-.17.177-.376.361-.44.394-.548.412-.844.145l-.21-.19-.25.19c-.29.222-.377.232-.615.07zm16.388.083c-1.023-.077-2.047-.557-2.74-1.285-1.135-1.195-1.488-2.932-.864-4.255.417-.884 1.313-1.714 2.479-2.297.398-.199.911-.385.909-.33 0 .02-.123.12-.27.22-.55.373-1.042 1.067-1.317 1.858-.13.372-.148.503-.149 1.092-.001.553.02.74.123 1.071.328 1.058.966 1.72 1.932 2.003.16.047.359.086.442.086h.15v-1.904l-.508-.506c-.28-.279-.509-.531-.509-.562 0-.03.23-.267.51-.527l.51-.474-.015-1.1-.014-1.1-.642-.239c-.809-.302-1.374-.413-1.889-.37-.453.038-.714.134-.836.308-.11.156-.114.576-.01.825.095.228.031.241-.222.048-.415-.316-.736-1.046-.674-1.53.088-.686.726-1.29 1.605-1.519.733-.19 1.667-.027 2.825.494.576.26.89.336 1.388.336.487.001.749-.097.867-.325.24-.464-.068-.865-.724-.942-.357-.043-.288-.124.104-.124.895 0 1.672.563 1.911 1.386.162.558.003 1.045-.49 1.5-.64.589-1.432.7-2.584.362l-.442-.13v2.105l.509.507.509.506-.51.511-.508.51v2.008h.13c.239 0 .964-.113 1.262-.197.892-.25 1.757-.947 2.17-1.744.117-.227.235-.414.26-.415.027 0 .037.235.022.522a3.14 3.14 0 0 1-.188.991c-.497 1.433-1.527 2.267-3.17 2.563-.526.095-.773.107-1.343.064z"/></svg>