<svg role="img" viewBox="0 0 24 24" xmlns="http://www.w3.org/2000/svg"><path d="M9.725 24a2.182 2.182 0 0 1-.593-.11 4.95 4.95 0 0 1-.6-.255 3.595 3.595 0 0 1-.56-.339 1.671 1.671 0 0 0-.304-.185 2.582 2.582 0 0 0-.782-.222l-.138-.019c-.559-.082-1.13-.084-1.528-.005-.2.04-.325.085-.487.174a1.09 1.09 0 0 1-.086.046c-.004-.002.026-.18.038-.224a1.79 1.79 0 0 1 .176-.432 1.45 1.45 0 0 1 1.045-.734l.054-.01a.59.59 0 0 0-.074-.024c-.69-.206-1.188-.453-1.455-.721a1.049 1.049 0 0 1-.14-.175l-.043-.062.012-.003c.076-.016.295-.05.439-.07l.037-.005-.017-.022a6.894 6.894 0 0 0-.706-.743 2.696 2.696 0 0 0-.581-.413.976.976 0 0 0-.216-.085.697.697 0 0 0-.277-.014 7.54 7.54 0 0 1-.136.008 3.955 3.955 0 0 1 .243-.187c.137-.093.326-.195.502-.27.033-.013.042-.018.036-.02-.339-.139-.589-.311-.78-.539a1.509 1.509 0 0 1-.259-.451 1.794 1.794 0 0 0-.435-.658 1.727 1.727 0 0 0-.554-.37.577.577 0 0 1-.064-.03 2.797 2.797 0 0 1 .403-.216c0-.002-.024-.03-.052-.064a3.455 3.455 0 0 1-.305-.43 3.031 3.031 0 0 1-.158-.325 1.7 1.7 0 0 1-.103-.39 1.239 1.239 0 0 1-.007-.197c0-.16-.003-.218-.019-.316-.054-.33-.23-.68-.474-.95a1.6 1.6 0 0 1-.066-.074c0-.004.194-.003.259.002.236.016.523.07.74.139.022.007.039.01.037.008l-.027-.042a2.311 2.311 0 0 1-.248-.527 4.208 4.208 0 0 1-.19-1.073 5.963 5.963 0 0 1 0-.5c.009-.085.012-.326.007-.427a2.309 2.309 0 0 0-.164-.773.975.975 0 0 0-.22-.34l-.067-.069.019-.003.131-.01c.096-.006.126-.007.197-.003a1.8 1.8 0 0 1 .299.041l.01.003-.013-.06a2.235 2.235 0 0 1 0-.987c.02-.08.033-.121.078-.23a2.81 2.81 0 0 0 .146-1.723 1.427 1.427 0 0 0-.07-.215l-.038-.095-.008-.02.097.049a2.303 2.303 0 0 1 .62.44c.039.038.088.09.11.115l.04.047.004-.1a2.71 2.71 0 0 1 .046-.43c.051-.284.156-.638.268-.908.087-.21.128-.386.139-.608a1.579 1.579 0 0 0-.06-.525.74.74 0 0 1-.018-.072c.004-.004.173.04.231.06.269.088.5.256.679.496.02.028.038.05.04.049a.826.826 0 0 0 .021-.099c.026-.139.053-.267.085-.396.158-.639.38-1.13.659-1.452a.414.414 0 0 0 .102-.22.424.424 0 0 0 .008-.107l-.002-.064-.033-.108a1.392 1.392 0 0 1-.03-.11c.002-.001.168.11.23.154.147.106.319.25.466.39l.073.07.005-.041c.03-.25.079-.475.142-.662.034-.1.056-.152.112-.261a.729.729 0 0 0 .099-.319 1.122 1.122 0 0 0-.098-.504 44.75 44.75 0 0 0-.333-.629l.53.628.526.625.055-.053a1.55 1.55 0 0 1 .603-.372c.057-.02.174-.05.18-.046a.463.463 0 0 1 .082.122c.033.069.054.13.07.21.01.056.015.082.023.167a.065.065 0 0 0 .005.024c.004 0 .12-.06.12-.061l-.012-.023a.9.9 0 0 1-.065-.142.573.573 0 0 1 .142-.611.988.988 0 0 1 .075-.07c.019-.015.033-.029.031-.03a2.148 2.148 0 0 1-.247-.09c-.258-.11-.445-.256-.544-.429a1.356 1.356 0 0 1-.056-.124c.008-.007.162-.08.213-.101a4.925 4.925 0 0 1 1.53-.349c.123-.009.599-.01.745-.002.474.028.794.084.987.17.02.01.038.016.04.014a1.028 1.028 0 0 1 .286-.574.46.46 0 0 1 .12-.086L10.762 0h.055a.742.742 0 0 1 .429.156c.054.04.155.14.203.2.084.107.179.266.228.386l.007.016.033-.028a.894.894 0 0 1 .242-.145l.031-.011.053.017c.107.035.22.1.295.17.018.016.02.018.023.01.01-.026.044-.1.07-.149.17-.324.394-.534.642-.598A.564.564 0 0 1 13.234 0h.051l.036.017c.108.052.21.165.288.321.044.09.092.228.115.333.006.025.011.046.013.048.002.002.015-.003.03-.01.093-.047.267-.1.434-.132a5.89 5.89 0 0 1 1.417-.069c.532.04 1.062.165 1.5.35.067.029.198.093.198.098a.9.9 0 0 1-.064.137c-.094.157-.272.299-.513.405-.06.026-.175.069-.238.088l-.037.01.028.024a.69.69 0 0 1 .233.317.67.67 0 0 1 .027.134c0 .004.007-.003.014-.015a.478.478 0 0 1 .033-.042l.019-.02.064.015c.269.068.503.2.71.399l.061.06.512-.609c.282-.335.52-.618.53-.628l.017-.02-.012.024a46.81 46.81 0 0 0-.322.605 1.06 1.06 0 0 0-.039.1.921.921 0 0 0-.025.588.95.95 0 0 0 .042.096 2 2 0 0 1 .177.446c.042.155.083.373.1.535l.003.026.06-.058a4.514 4.514 0 0 1 .711-.557l-.027.095a.524.524 0 0 0-.008.38c.02.062.032.083.065.12.163.184.308.426.43.72a5.659 5.659 0 0 1 .342 1.234c0 .017.008.01.037-.03.173-.238.4-.408.669-.503a3.61 3.61 0 0 1 .252-.067l-.018.064a.88.88 0 0 0-.04.167 1.787 1.787 0 0 0 .104.944c.121.289.226.64.281.94.03.16.043.282.046.427l.003.103.04-.044a2.286 2.286 0 0 1 .826-.605c0 .001-.015.042-.035.09-.041.104-.06.158-.08.24a2.72 2.72 0 0 0-.019 1.166c.042.212.1.402.189.61.076.182.122.5.108.764a2.32 2.32 0 0 1-.054.406c-.01.045-.012.052-.006.05a1.798 1.798 0 0 1 .64-.029c.009.002.005.008-.054.067a.884.884 0 0 0-.194.28 2.2 2.2 0 0 0-.19.768 4.77 4.77 0 0 0 .001.49 4.84 4.84 0 0 1-.01.663c-.053.603-.198 1.094-.425 1.442a.287.287 0 0 0-.026.043.178.178 0 0 0 .038-.009 3.07 3.07 0 0 1 .896-.14h.101l-.068.075a1.92 1.92 0 0 0-.483 1.006c-.006.04-.008.087-.008.227 0 .179-.002.205-.02.301-.057.33-.26.722-.549 1.066l-.051.063c-.006.008-.004.009.025.021a3.25 3.25 0 0 1 .373.203.842.842 0 0 1-.08.036 1.72 1.72 0 0 0-.541.367c-.205.2-.338.405-.442.677-.117.308-.32.556-.62.756a2.203 2.203 0 0 1-.395.205l-.023.008.07.03c.15.065.338.166.461.249.056.037.25.185.257.195.002.002-.004.003-.012.002a3.013 3.013 0 0 0-.278-.014c-.36.019-.924.442-1.526 1.144-.089.103-.098.115-.09.115.02 0 .367.058.373.062.004.004-.093.14-.13.183-.241.28-.759.55-1.469.764a4.818 4.818 0 0 0-.106.032.185.185 0 0 0 .052.013c.253.043.484.145.676.297.063.05.174.162.225.226a1.71 1.71 0 0 1 .357.864.36.36 0 0 1-.082-.04 1.456 1.456 0 0 0-.38-.152 2.713 2.713 0 0 0-.466-.072 7.67 7.67 0 0 0-.643-.002c-.203.014-.364.03-.513.052a6.184 6.184 0 0 1-.184.025 2.671 2.671 0 0 0-.667.178 1.78 1.78 0 0 0-.395.228 4.365 4.365 0 0 1-1.04.548c-.158.06-.233.083-.352.108a2.694 2.694 0 0 1-1.005-.002c-.222-.045-.464-.18-.757-.426a7.084 7.084 0 0 1-.756-.767.637.637 0 0 0-.05-.054.323.323 0 0 0-.036.044c-.465.607-.96 1.038-1.37 1.192-.137.052-.33.086-.561.1a3.821 3.821 0 0 1-.282.002zm.257-.142c.227-.013.41-.045.543-.095.384-.146.865-.57 1.307-1.151l.05-.065-.101-.126a9.142 9.142 0 0 1-.164-.21l-.062-.082-.143-.002a.71.71 0 0 1-.266-.032.687.687 0 0 1-.25-.149.873.873 0 0 1-.083-.098c-.003-.006-.008-.002-.033.021-.163.154-.415.253-.745.293a3.163 3.163 0 0 1-.428.008.266.266 0 0 1-.113-.026 1.954 1.954 0 0 1-.422-.248 3.356 3.356 0 0 1-.454-.419c-.079-.083-.208-.17-.44-.298a8.832 8.832 0 0 0-.429-.214c-.323-.14-.721-.227-1.207-.265a5.677 5.677 0 0 0-.54-.017c-.326 0-.542.01-.853.038a7.226 7.226 0 0 0-.65.084.24.24 0 0 0 .035.038c.272.273.823.529 1.584.737.128.035.334.085.428.105.047.01.056.012.056.019 0 .01-.02.127-.023.13 0 0-.024-.001-.052-.005a1.792 1.792 0 0 0-.292-.018 1.5 1.5 0 0 0-.29.02 1.321 1.321 0 0 0-1.01.759c-.04.08-.097.23-.092.235.001.001.016-.004.034-.01a2.07 2.07 0 0 1 .32-.09c.416-.083 1.01-.08 1.61.01.038.006.094.014.126.017.276.034.587.127.819.242.118.06.186.102.306.19.303.223.656.404 1.118.571.218.08.522.118.806.102zm4.243-.047a2.09 2.09 0 0 0 .46-.083 4.94 4.94 0 0 0 .608-.252c.227-.112.378-.203.56-.336.035-.026.088-.063.117-.082.27-.178.652-.307 1.056-.355l.138-.02c.419-.06.908-.078 1.246-.044a2.435 2.435 0 0 1 .66.145c0-.007-.04-.113-.058-.157a1.484 1.484 0 0 0-.149-.274 1.306 1.306 0 0 0-.928-.57 2.119 2.119 0 0 0-.603.008 2.16 2.16 0 0 1-.025-.136l.107-.025a7.807 7.807 0 0 0 1.005-.293c.382-.142.664-.29.865-.453a1.02 1.02 0 0 0 .129-.123 5.9 5.9 0 0 0-.443-.062 8.932 8.932 0 0 0-1.599-.042c-.447.033-.846.117-1.154.242a6.008 6.008 0 0 0-.635.323c-.158.094-.25.164-.315.237-.05.057-.146.153-.212.214-.218.2-.446.351-.648.432a1.365 1.365 0 0 1-.428.057c-.165 0-.292-.019-.43-.064a.91.91 0 0 1-.315-.177l-.014-.012-.04.038a.644.644 0 0 1-.38.177c-.025.003-.229.005-.554.005-.282 0-.513 0-.513.002 0 .006.22.282.311.392.444.53.86.92 1.183 1.11.089.053.196.101.269.122a2.426 2.426 0 0 0 .729.057zm-4.277-1.783c.337-.027.585-.118.747-.273a.171.171 0 0 1 .046-.037c.003.002.002-.004-.002-.013a.641.641 0 0 1 .03-.517l.015-.03-.033-.031-.463-.44c-.472-.446-.44-.42-.528-.45-.143-.05-.255-.028-.327.068a.552.552 0 0 0-.074.155c-.017.056-.017.003-.002.824.008.476.012.64.016.643.009.008.1.055.153.078a.23.23 0 0 0 .09.025c.066.006.254.005.332-.002zm4.147-.01a2.4 2.4 0 0 0 .197-.026c.07-.014.186-.07.312-.149l.056-.035-.003-.038c-.002-.022-.013-.318-.026-.658-.022-.6-.023-.62-.033-.663-.03-.124-.092-.22-.166-.255-.078-.037-.186-.027-.301.028l-.038.018-.414.39-.434.412-.02.02.021.028a.655.655 0 0 1 .128.317.667.667 0 0 1-.058.35l-.015.033.02.019a.834.834 0 0 0 .44.195c.101.017.223.021.333.013zm-1.311-.035a.503.503 0 0 0 .396-.735.505.505 0 0 0-.346-.262c-.038-.01-.04-.01-.762-.01-.746-.003-.784-.002-.848.015a.508.508 0 0 0-.356.656.507.507 0 0 0 .42.336c.048.006 1.446.006 1.495 0zM9.212 21.1l-.01-.598.012-.046c.044-.172.122-.286.234-.344a.316.316 0 0 1 .158-.039.46.46 0 0 1 .19.029.46.46 0 0 1 .173.091l.879.832.02.02.03-.03a.67.67 0 0 1 .325-.168l.046-.01h.74c.768-.002.795-.002.868.016a.68.68 0 0 1 .215.093l.03.02.443-.42.443-.42.055-.026a.573.573 0 0 1 .263-.067.36.36 0 0 1 .208.058.479.479 0 0 1 .153.187.91.91 0 0 1 .055.167c.005.027.012.187.03.645l.024.614c.001.006.071-.052.148-.12.058-.053.19-.186.232-.233a1.38 1.38 0 0 1 .313-.237.254.254 0 0 0 .054-.039c0-.003-.014-.037-.03-.077a2.615 2.615 0 0 1-.183-.718 2.46 2.46 0 0 1 .021-.554c.048-.334.156-.632.292-.81a4.9 4.9 0 0 0 .3-.475c.057-.103.156-.302.198-.396.11-.248.194-.504.231-.702.027-.144.034-.242.031-.411l-.002-.11.015.014.088.096a6.517 6.517 0 0 1 .453.56c.002.001.008-.01.013-.025.047-.123.148-.334.209-.438.088-.15.143-.224.266-.359a1.986 1.986 0 0 0 .326-.512l-2.979 1.026-2.973 1.023-.252-.118a6.317 6.317 0 0 0-.284-.129c-.016-.012-5.208-2.435-5.211-2.432a1 1 0 0 0 .006.198 1.7 1.7 0 0 0 .166.48c.1.204.197.349.335.499.065.07.112.13.165.21.092.138.194.334.268.52a.54.54 0 0 0 .027.063l.039-.05c.077-.108.218-.286.315-.4.038-.044.166-.186.19-.21l.013-.013-.002.11c-.003.164.005.267.029.402.071.39.282.884.585 1.368.07.112.093.147.127.19.05.065.084.119.124.2.122.243.192.544.213.911a2.23 2.23 0 0 1-.134.854c-.03.092-.092.242-.098.242a1.59 1.59 0 0 1-.124-.061l.008-.018c.016-.033.068-.167.09-.237.092-.278.13-.522.118-.758a2.33 2.33 0 0 0-.164-.795 1.138 1.138 0 0 0-.139-.243 2.476 2.476 0 0 1-.139-.207c-.339-.543-.558-1.075-.618-1.5l-.012-.078-.002-.015-.012.015c-.043.05-.152.19-.21.267-.375.502-.606.96-.663 1.31-.012.075-.012.076.01.093l.082.067c.472.4.82.901.993 1.435.042.13.089.334.078.344a.425.425 0 0 1-.07.009l-.066.006-.008-.045a2.347 2.347 0 0 0-.072-.28c-.177-.537-.538-1.037-1.036-1.435a4.24 4.24 0 0 0-.565-.376 5.78 5.78 0 0 0-.467-.226c-.004-.002.009.02.029.047.2.27.322.548.349.796.007.062.006.18-.003.245-.008.068-.01.243-.002.308.013.112.038.235.068.33.044.135.121.304.183.396l.016.023-.014.012-.013.01.066.001c.074 0 .236.007.337.013.55.036.989.13 1.357.29.079.035.377.186.472.24.222.125.352.217.432.305.146.16.287.29.432.398l.059.045v-.068c.002-.037-.003-.336-.008-.665zm-1.359-.702a.341.341 0 0 1-.073-.077.859.859 0 0 1-.077-.163 3.174 3.174 0 0 1-.113-.587 2.441 2.441 0 0 0-.056-.342l-.004-.01-.025.018a1.64 1.64 0 0 0-.1.087c-.094.088-.15.129-.159.116-.002-.004.002-.011.01-.02a.862.862 0 0 0 .055-.08c.095-.147.123-.18.198-.23.076-.051.064-.054.099.02.04.085.056.125.075.2.032.124.063.327.08.53.016.179.036.33.051.394a.433.433 0 0 0 .048.118c.021.035.018.046-.008.026zm-.975-.123c-.053-.036-.084-.077-.168-.229a2.258 2.258 0 0 0-.067-.114.308.308 0 0 0-.11-.104.297.297 0 0 0-.102-.027c-.032 0 .006-.036.051-.05a.266.266 0 0 1 .123.002.375.375 0 0 1 .21.195c.03.06.045.105.066.205.009.045.02.09.024.1.014.04.008.045-.027.022zm9.24.513c.036-.016.088-.036.116-.047.048-.017.05-.018.037-.022-.013-.004-.013-.005-.01-.023a2.41 2.41 0 0 1 .179-.586c.196-.446.51-.855.921-1.197.06-.05.072-.061.072-.07a1.402 1.402 0 0 0-.07-.309c-.12-.363-.401-.832-.781-1.297-.048-.06-.043-.062-.054.027-.052.4-.267.934-.587 1.459a4.06 4.06 0 0 1-.173.262 1.408 1.408 0 0 0-.224.494 2.53 2.53 0 0 0-.073.8 2.6 2.6 0 0 0 .19.714l.008.015.192-.096c.105-.053.221-.109.258-.124zm.002-.39c-.002-.003 0-.007.005-.01a.355.355 0 0 0 .074-.074c.05-.074.09-.19.123-.35.013-.065.022-.132.06-.403a7.58 7.58 0 0 1 .03-.206l.01-.059c0-.006.002-.013.004-.017 0-.004.008-.024.013-.046l.014-.044c.003-.004.05.025.068.04.006.006.012.008.018.007.007-.002.008 0 .008.008 0 .019.15.156.194.178.009.005.012.009.01.013-.006.018-.083-.008-.164-.055-.04-.023-.047-.026-.05-.02a.396.396 0 0 0-.005.056c-.01.177-.039.37-.073.504-.065.25-.173.425-.294.474-.026.011-.041.013-.045.006zm.333.271a4.44 4.44 0 0 1 .505-.107c.247-.037.456-.054.775-.063l.187-.005.02-.033a1.76 1.76 0 0 0 .231-.694c.008-.074.007-.23-.002-.314a1.223 1.223 0 0 1 .006-.3c.043-.24.16-.492.34-.735.022-.029.036-.05.032-.05a5.88 5.88 0 0 0-.454.22 3.66 3.66 0 0 0-1.183 1.001c-.243.324-.42.698-.492 1.035-.013.06-.013.06-.002.056a.441.441 0 0 1 .037-.01zm.645-.38c-.01-.003-.018-.018-.01-.018a.274.274 0 0 0 .07-.064 1 1 0 0 0 .1-.169.756.756 0 0 1 .111-.17.24.24 0 0 1 .154-.084c.058-.008.069.003.033.03-.035.027-.057.06-.101.15a.751.751 0 0 1-.152.233.313.313 0 0 1-.15.09c-.03.006-.039.006-.055.001zm-11.968.294c.244-.022.461-.034.674-.039l.132-.005-.016-.03a1.835 1.835 0 0 1-.232-.705c-.01-.084-.01-.27 0-.355a.947.947 0 0 0-.032-.389c-.026-.092-.1-.27-.105-.249 0 .007-.004.009-.008.008a3.515 3.515 0 0 0-1.044-.032 3.329 3.329 0 0 0-1.225.408l-.044.026.048.014c.384.11.891.514 1.429 1.136.074.086.161.192.161.196a.16.16 0 0 1-.03.026.49.49 0 0 0-.03.024l.102-.011c.055-.007.155-.017.221-.023zm.677-.106a2.146 2.146 0 0 0-.216-.15 4.73 4.73 0 0 1-.308-.207.91.91 0 0 1-.157-.155c-.021-.03-.024-.033-.035-.03-.013.003-.014-.001-.006-.013.006-.008.005-.01-.003-.023a.4.4 0 0 1-.035-.086.24.24 0 0 1 .058-.008c.042-.004.057-.008.061-.012.005-.006.006-.006.01-.001.002.005.018.005.094 0a.88.88 0 0 1 .314.023c.04.015.036.021-.016.025a1.02 1.02 0 0 0-.081.01c-.05.008-.232.048-.234.051-.005.005.076.08.171.16.272.227.347.301.41.406.015.027.018.038.008.038a.248.248 0 0 1-.036-.027zm13.329.091c-.008-.008-.007-.01.039-.064a6.59 6.59 0 0 1 .823-.845c.26-.216.488-.355.691-.42a.807.807 0 0 1 .067-.02c.015 0 .002-.01-.048-.038a3.38 3.38 0 0 0-1.157-.392 3 3 0 0 0-.527-.03 3.05 3.05 0 0 0-.534.049l-.043.008-.002-.01c-.002-.011-.015.014-.047.09a1.03 1.03 0 0 0-.09.54c.011.095.011.277 0 .365a1.857 1.857 0 0 1-.226.696c0 .002.014.003.033.003.02 0 .034-.002.032-.004-.008-.011.114-.102.301-.226a5.47 5.47 0 0 0 .206-.141c.068-.051.171-.15.207-.199a.396.396 0 0 0 .055-.102 2.084 2.084 0 0 0-.222-.024.77.77 0 0 0-.285.022c-.015.007-.02.008-.023.003-.006-.008-.005-.01.019-.028a.589.589 0 0 1 .267-.09 1.29 1.29 0 0 1 .234-.009c.095 0 .174.002.175.003 0 .001-.008.044-.022.095a.61.61 0 0 1-.178.317c-.132.131-.285.216-.629.348a1.085 1.085 0 0 0-.084.035s.045.004.098.006a11.239 11.239 0 0 1 .862.071c.015 0 .015 0 .007-.008zM3.872 18.78c.176-.055.358-.098.53-.123.037-.006.068-.01.07-.012l-.029-.067a2.355 2.355 0 0 1-.202-.666 1.727 1.727 0 0 1 .015-.462l.003-.04-.034-.038c-.067-.075-.21-.2-.327-.289-.348-.262-.71-.417-1.083-.463a2.39 2.39 0 0 0-.367-.002 1.836 1.836 0 0 0-.65.2 2.352 2.352 0 0 1 .224.151 1.981 1.981 0 0 1 .67.905c.096.248.25.446.483.62.167.126.354.22.584.296l.039.013.074-.023zm.36-.337a1.114 1.114 0 0 1-.242-.179 1.522 1.522 0 0 0-.193-.15c-.235-.153-.303-.202-.379-.275l-.052-.05-.023.002c-.013.002-.023.002-.023 0l.01-.021c.011-.019.011-.019.004-.03a.49.49 0 0 1-.026-.047l-.018-.035h.11l.013-.017.012-.017.008.016.008.017.118.003c.166.004.213 0 .331-.03a.548.548 0 0 1 .208-.027c.04.007.087.034.076.045a.08.08 0 0 1-.032-.006.094.094 0 0 0-.054-.003 1.06 1.06 0 0 0-.172.064.738.738 0 0 1-.285.07l-.07.009a4 4 0 0 0 .193.151c.17.13.206.163.33.311.046.056.108.125.137.154.067.066.068.074.01.044zm16.051.326c.35-.115.654-.325.848-.584a1.35 1.35 0 0 0 .2-.379c.078-.201.198-.395.35-.568a2.153 2.153 0 0 1 .512-.42c.008-.006.003-.009-.049-.033-.21-.1-.416-.157-.634-.175a2.172 2.172 0 0 0-.334.007c-.33.043-.639.164-.945.368-.158.105-.333.25-.448.37l-.045.048.003.042.013.112c.012.093.013.264.002.352a2.356 2.356 0 0 1-.202.666.625.625 0 0 0-.029.066 3.68 3.68 0 0 1 .645.149.092.092 0 0 0 .032.007c.004 0 .04-.013.08-.026zm-.557-.317c-.006-.006-.002-.01.017-.018.058-.026.13-.079.245-.182.099-.089.137-.118.268-.206.186-.126.26-.183.328-.256.033-.035.08-.1.08-.11 0-.004-.053-.005-.2-.005-.116 0-.216-.002-.236-.005a1.943 1.943 0 0 1-.136-.03.705.705 0 0 0-.144-.028c-.051-.003-.084.004-.106.022-.012.01-.021.01-.021 0s.025-.035.05-.048c.05-.027.133-.033.258-.02.07.009.141.008.24-.004a3.12 3.12 0 0 1 .497-.013c.002 0-.041.107-.074.182a.653.653 0 0 1-.137.187c-.1.094-.191.153-.443.292a2.726 2.726 0 0 0-.128.079c-.166.108-.235.143-.315.16-.033.007-.039.008-.043.003zm-13.328.275a2.741 2.741 0 0 0-1.07-1.739 3.372 3.372 0 0 0-.71-.407 3.499 3.499 0 0 0-.279-.106c-.005 0-.006.003-.005.008.004.013.032.212.04.293.037.333.04.582.009.802a1.491 1.491 0 0 0-.002.32c.027.203.093.416.198.64.047.102.039.093.088.09.235-.018.514-.008.751.027.03.004.054.008.055.007a2.507 2.507 0 0 0-.445-.527 3.069 3.069 0 0 1-.113-.11c.002-.002.41.147.495.18.338.135.668.31.926.488.056.04.062.042.062.035zm-1.203-.72a3.773 3.773 0 0 0-.063-.088 1.297 1.297 0 0 1-.167-.285c0-.008.026-.008.055 0 .1.027.191.121.22.23a.263.263 0 0 1-.003.145c-.015.034-.017.034-.042-.002zm12.507.652c.26-.173.543-.322.857-.449.087-.035.52-.193.522-.19 0 0-.055.055-.125.121a2.435 2.435 0 0 0-.432.515l.069-.008c.08-.011.172-.02.27-.027.092-.007.34-.007.432 0l.073.006.008-.01a.912.912 0 0 0 .04-.08c.169-.363.237-.69.2-.95-.039-.261-.028-.599.031-1.007l.016-.111c-.001-.002-.14.05-.2.074-.58.232-1.036.57-1.365 1.01a2.692 2.692 0 0 0-.482 1.077c-.017.085-.02.1-.014.097.002-.001.047-.03.1-.067zm1.067-.637a.176.176 0 0 1-.021-.095c0-.11.07-.221.174-.275a.231.231 0 0 1 .094-.028c.02 0 .02 0-.012.066-.03.062-.069.125-.121.198l-.074.104-.031.044zm-12.248.412c.078-.215.216-.48.379-.73l.04-.062-.028-.076a3.13 3.13 0 0 0-.24-.503 1.52 1.52 0 0 0-.201-.268 2.241 2.241 0 0 1-.533-1.052.827.827 0 0 1-.008-.145V15.5l-.058.03a3.236 3.236 0 0 0-.222.128 1.326 1.326 0 0 0-.195.143.153.153 0 0 0-.042.028c-.245.201-.406.416-.481.644a1.487 1.487 0 0 0-.024.075c-.003.01 0 .013.07.05.203.109.4.241.56.376l.076.065.012.01.01-.022a.787.787 0 0 0 .043-.155.972.972 0 0 1 .054-.204 2.78 2.78 0 0 1 .084-.146c.004 0 .124.164.15.204.183.282.316.746.346 1.202.004.056.005.061.02.093a2.929 2.929 0 0 1 .165.477l.023-.063zm10.997-.007c.044-.168.115-.354.198-.52a.816.816 0 0 0 .075-.219 5.29 5.29 0 0 1 .236-.736c.022-.052.07-.154.084-.181a.056.056 0 0 0-.01-.016l-.012-.013h.037l.02-.036a.286.286 0 0 1 .023-.036s.01.014.02.032l.02.033.02.002.022.002-.01.025-.01.024.019.052a.554.554 0 0 0 .103.196l.013.012.01-.008.035-.03c.08-.073.238-.192.35-.265a3.46 3.46 0 0 1 .3-.175c.036-.018.035-.008.005-.102a1.387 1.387 0 0 0-.4-.575.522.522 0 0 0-.128-.099c-.004.002-.007 0-.007-.004 0-.008-.016-.023-.078-.066a3.117 3.117 0 0 0-.348-.21l-.038-.018v.098a.868.868 0 0 1-.03.253 2.29 2.29 0 0 1-.523.956 2.212 2.212 0 0 0-.384.645c-.034.08-.07.177-.07.187 0 .004.02.037.044.075a3.636 3.636 0 0 1 .396.781l.018-.064zm-2.734-1.391 2.844-.98-.03-.066a.98.98 0 0 1-.108-.42 1.133 1.133 0 0 1 .078-.455l-.046.013-.044.014-.034.067a1.301 1.301 0 0 1-.058.104c-.206.314-.607.509-1.161.566-.091.01-.35.013-.502.007a5.686 5.686 0 0 1-.387-.03l-.076-.009-1.268.403a2527.418 2527.418 0 0 1-2.072.66c-.186.076-.31.28-.31.515 0 .14.046.266.147.404.032.043.17.186.18.186.003 0 1.284-.44 2.847-.978zm-3.106.92c-.146-.177-.222-.381-.21-.565a.72.72 0 0 1 .245-.519c.083-.067.118-.083.312-.145l.152-.048-.053-.025-.162-.077-.108-.052-.242.092-.267.1a.485.485 0 0 0-.117.063.578.578 0 0 0-.21.483.577.577 0 0 0 .067.25.94.94 0 0 0 .198.26l.055.052.188.088.19.088-.038-.046zm-5.513-.332a5.817 5.817 0 0 0-.268-.775.737.737 0 0 0-.07-.133.86.86 0 0 0-.069.148.527.527 0 0 1-.099.182l-.016.017.068.067a2.876 2.876 0 0 1 .491.628l-.037-.134zm4.826.012a.886.886 0 0 1-.102-.257.548.548 0 0 1-.01-.139.52.52 0 0 1 .012-.151.68.68 0 0 1 .185-.36.583.583 0 0 1 .238-.15c.13-.047.36-.137.357-.14l-1.039-.496-1.036-.494-.043.027a2.01 2.01 0 0 1-.217.112c-.347.147-.814.218-1.378.211a2.225 2.225 0 0 1-.454-.042c-.53-.1-.883-.344-1.025-.708a1.013 1.013 0 0 1-.063-.265c-.013-.132-.02-.077.058-.45l.069-.337a.281.281 0 0 0-.078-.037.86.86 0 0 0-.312.358 1.065 1.065 0 0 0-.108.526c0 .125.001.153.01.213.007.06.036.217.04.22l.093-.035a1.15 1.15 0 0 1 .094-.034s-.033.043-.075.094l-.076.093.016.008c.092.044 4.856 2.267 4.86 2.267.003 0-.005-.015-.016-.034zm7.04-.228c.059-.076.13-.155.222-.249l.092-.094-.02-.013a.462.462 0 0 1-.107-.115 7.043 7.043 0 0 0-.028-.042 7.229 7.229 0 0 0-.123.345l-.072.208c-.005.011 0 .008.036-.04zm-13.77-.29a4.574 4.574 0 0 0-.023-.3l-.006-.05-.031-.04c-.164-.205-.345-.538-.394-.724-.016-.062-.016-.062-.025-.193a1.749 1.749 0 0 1-.008-.3l.005-.067-.02-.033a.314.314 0 0 1-.02-.036c0-.002.013-.002.027 0l.027.003.016-.032a.252.252 0 0 1 .027-.045l.012-.013.03.052c.029.05.03.051.045.053h.016l-.006.014c-.004.01-.005.016-.001.022.012.024.083.131.182.276.23.334.334.504.395.643l.02.044.062.025a4.765 4.765 0 0 1 .186.078l.023-.07a1.42 1.42 0 0 1 .273-.465l.033-.037-.01-.028a2.839 2.839 0 0 0-.48-.887 2.696 2.696 0 0 0-.546-.516 2.453 2.453 0 0 1-.199-.15 1.568 1.568 0 0 1-.308-.355.157.157 0 0 0-.028-.04 7.1 7.1 0 0 0-.225 1.29c-.008.106-.008.14 0 .157.007.012.007.013-.002.015-.008.002-.008.008-.012.06-.005.083.001.378.008.475.018.221.046.396.091.571.028.105.038.133.048.136.017.006.145.068.19.093a2.964 2.964 0 0 1 .628.46v-.085zm15.548.017c.15-.134.296-.243.461-.343.065-.038.22-.12.269-.14l.024-.01.01-.034c.017-.049.043-.152.057-.22.05-.234.073-.477.073-.768 0-.17-.003-.213-.013-.216-.007-.002-.007-.004 0-.021.007-.021.006-.057-.007-.206a7.122 7.122 0 0 0-.22-1.235.184.184 0 0 0-.031.043 1.573 1.573 0 0 1-.467.475 2.7 2.7 0 0 0-.637.612 2.845 2.845 0 0 0-.417.786l-.02.06.026.03c.098.11.187.246.243.374a1.228 1.228 0 0 1 .06.17l.053-.023a3.5 3.5 0 0 1 .174-.073.184.184 0 0 0 .017-.05c.048-.186.167-.426.381-.77a6.572 6.572 0 0 0 .28-.484.928.928 0 0 1 .116.129c.048.057.075.12.09.209.007.044.007.243 0 .318-.023.232-.039.293-.115.444-.104.21-.275.435-.43.57l-.025.02-.008.09c-.013.136-.022.33-.017.327.002 0 .035-.03.073-.064zm.02-.48c.155-.215.31-.526.346-.69.01-.047.023-.256.024-.363a.61.61 0 0 0-.033-.247c-.012-.027-.01-.029-.048.034a6.6 6.6 0 0 1-.223.333 4.933 4.933 0 0 0-.37.579.757.757 0 0 0-.035.073c0 .005-.001.005.091-.028a4.15 4.15 0 0 1 .263-.083l-.013.074a5.041 5.041 0 0 0-.061.385c0 .009 0 .008.012-.005l.047-.062zm-15.615-.03a5.09 5.09 0 0 0-.061-.358 5.495 5.495 0 0 1 .327.105 3.034 3.034 0 0 0-.132-.182l-.17-.212-.2-.253-.069-.09v.025c0 .064.01.26.013.288.015.1.086.296.191.524.046.1.106.22.109.217l-.008-.064zm8.338-.065.171-.055-.025-.012c-.066-.033-2.804-1.337-2.808-1.337a.867.867 0 0 1-.124.15.362.362 0 0 0-.042.047 580.61 580.61 0 0 0 2.65 1.261c.004 0 .083-.024.178-.054zm-9.3-.037a3.435 3.435 0 0 1-.079-.462l-.003-.027-.02-.008c-.08-.03-.175-.115-.314-.284a2.93 2.93 0 0 0-.168-.182.78.78 0 0 0-.167-.146.77.77 0 0 1-.112-.104 1.94 1.94 0 0 1-.087-.093l.057-.017.125-.037c.181-.054.295-.073.427-.07.045 0 .081 0 .08-.003a.844.844 0 0 0-.1-.132c-.005 0-.017-.015-.04-.05-.102-.152-.342-.359-.584-.503a2.242 2.242 0 0 0-.33-.163 2.04 2.04 0 0 0-.222-.083 3.278 3.278 0 0 0-.693-.144l.036.054c.162.237.28.514.327.765.021.114.023.14.024.325.001.134.003.188.008.229.037.282.171.583.403.903.07.097.211.267.221.267a2.177 2.177 0 0 1 .35-.077 2.4 2.4 0 0 1 .398-.007c.15.015.322.051.45.095.013.005.024.007.025.005l-.012-.053zm-1.134-1.321c-.09-.021-.19-.107-.277-.237a2.943 2.943 0 0 1-.123-.21c.005-.005.065.011.094.025.086.042.158.117.267.278a3.341 3.341 0 0 0 .104.147c0 .004-.048.002-.065-.003zm18.75 1.332a1.875 1.875 0 0 1 1.086.021c.01 0 .117-.126.199-.235.194-.258.335-.534.394-.77.034-.133.04-.186.04-.396.001-.182.004-.209.025-.323a1.97 1.97 0 0 1 .112-.37 2.39 2.39 0 0 1 .25-.449 3.646 3.646 0 0 0-.6.114 2.843 2.843 0 0 0-.332.118 2.625 2.625 0 0 0-.309.154c-.24.143-.483.351-.585.504a.202.202 0 0 1-.041.05c-.004 0-.017.012-.027.026a2.154 2.154 0 0 0-.088.129l.042.008c.057.01.124.027.228.062l.09.03.03-.014c.052-.024.118-.037.118-.024a.536.536 0 0 1-.007.043.595.595 0 0 0-.007.043c0 .003.016.01.034.017.036.013.036.017.002.018a.184.184 0 0 0-.028.005l-.015.005-.006.04a.424.424 0 0 1-.008.045c-.002.003-.016-.002-.042-.014-.045-.023-.035-.026-.099.03a1.482 1.482 0 0 0-.248.294c-.095.144-.11.168-.137.203a.828.828 0 0 1-.07.079l-.043.043-.006.055a3.501 3.501 0 0 1-.09.498c0 .002.018-.002.038-.008l.098-.03zm.946-1.334.027-.037a2.19 2.19 0 0 0 .066-.094c.113-.17.19-.25.278-.293a.29.29 0 0 1 .094-.026c.005.005-.116.204-.156.258a.803.803 0 0 1-.124.13.402.402 0 0 1-.12.058.189.189 0 0 1-.065.005zm-7.871.918c.558-.178 1.017-.324 1.019-.326a.175.175 0 0 0-.05-.017 2.637 2.637 0 0 1-.29-.097c-.265-.112-.465-.276-.577-.47a.849.849 0 0 1-.1-.294.786.786 0 0 1 .006-.233c.01-.05.234-1.269.233-1.27l-.82-.388c-.001 0-.002.004-.001.009 0 .008-.005.01-.064.027a.314.314 0 0 1-.069.016.59.59 0 0 1-.02-.067.467.467 0 0 0-.023-.069c-.005-.005-1.14-.544-1.146-.544 0 0-.002.247-.002.55v.548h-.14v-.568c0-.389 0-.568-.005-.568-.008 0-.913.267-.916.27-.002.002-.037.13-.078.285a59.35 59.35 0 0 1-.076.283 1.102 1.102 0 0 1-.134-.04l.064-.243c.035-.131.063-.238.062-.239-.002 0-1.101.323-1.104.325-.002.002.267 1.472.288 1.573.013.062.014.07.013.156a.626.626 0 0 1-.038.244.268.268 0 0 0-.015.058c.005.005 2.954 1.411 2.96 1.411l1.022-.322zm3.897-.112c.09-.238.114-.45.062-.56a.928.928 0 0 0-.1-.135 2.168 2.168 0 0 1-.084-.107 6.71 6.71 0 0 1 .31.12 2.989 2.989 0 0 1 .461.256c.01.007.01.01.002-.07-.033-.34-.012-.809.069-1.523.01-.092.011-.116.012-.258 0-.169-.004-.216-.026-.337a1.612 1.612 0 0 0-.47-.887 1.566 1.566 0 0 0-.248-.184 4.332 4.332 0 0 1-.165-.115c.003-.003.479.12.554.143a3.192 3.192 0 0 1 .405.152c.01 0-.017-.319-.044-.52-.087-.64-.243-1.087-.45-1.285-.037-.034-.065-.053-.314-.211-.151-.096-.274-.174-.273-.175.003-.002.65.227.76.269.117.045.31.124.417.17l.083.037.013.006-.03-.088a2.371 2.371 0 0 1-.124-.664.606.606 0 0 0-.053-.255c-.088-.2-.307-.432-.596-.63a6.076 6.076 0 0 0-.204-.127 2.574 2.574 0 0 1-.155-.096 7.27 7.27 0 0 1 1.073.19c.046.012.084.02.085.02a4.58 4.58 0 0 0-.15-.438c-.247-.635-.543-1.15-.875-1.523a3.407 3.407 0 0 0-.247-.241c-.273-.227-.543-.35-.833-.377l-.051-.005-.003-.067a.39.39 0 0 1 0-.07c.005-.006.087-.009.265-.012l.182-.003-.057-.11c-.198-.388-.402-.695-.572-.863a.586.586 0 0 0-.222-.152 1.002 1.002 0 0 1-.067-.031.18.18 0 0 1 .05-.033.537.537 0 0 0 .053-.031 2.798 2.798 0 0 1-.266-.113 2.718 2.718 0 0 1-.908-.712 3.051 3.051 0 0 1-.366-.54 1.806 1.806 0 0 1-.071-.155 1.291 1.291 0 0 1 .311-.078l.065-.01-.401-.744-.402-.742.017-.003c.037-.006.4-.008.52-.004a5.08 5.08 0 0 1 1.35.227c.019.008.003-.004-.047-.033-.354-.207-.676-.342-.95-.397a1.162 1.162 0 0 0-.294-.028c-.068 0-.143.003-.173.006-.377.04-.734.146-1.09.325-.117.06-.121.062-.158.111a1.862 1.862 0 0 1-.168.19l-.056.055-.05.002a.46.46 0 0 1-.17-.027c-.201-.064-.443-.221-.719-.47l-.02-.015c-.002 0-.003.705-.002 1.568v1.568h.299l.298.002.004-.01.12-.449c.066-.241.12-.44.122-.442a.871.871 0 0 1 .133.032c.001 0-.219.826-.23.86-.002.008.02.009.418.009h.42l.01-.016c.006-.008.075-.13.154-.271.079-.141.145-.256.148-.256.007 0 .12.065.12.068-.024.039-.266.471-.266.473 0 0 .47.002 1.045.002h1.046v.383c-.003.428 0 .4-.034.467-.037.077-.105.127-.205.153a.571.571 0 0 1-.06.013c-.012.002-.019.005-.018.008l.076.356.074.354c.001.001.07-.026.153-.06l.157-.065a.44.44 0 0 1 .053.13 7.84 7.84 0 0 1-.168.07c-.096.04-.163.07-.163.072 0 .008.139.673.141.675.001.001.628-.115.718-.134l.018-.004.013.068a.485.485 0 0 1 .011.07s-.165.033-.364.07l-.365.071c-.001.001.027.142.063.312l.064.31.119-.002c.065 0 .17-.002.235-.004l.118-.003.002.07v.07s-.1.004-.22.006l-.222.006c-.002.002.191.924.194.928a15.867 15.867 0 0 1 .296.073c.001 0-.031.134-.033.135 0 0-.051-.01-.112-.025a2.04 2.04 0 0 0-.115-.026c-.003 0 .196.957.523 2.518l.526 2.517-.004.048c-.002.026-.004.048-.003.049a9.248 9.248 0 0 0 .249.118l-.039.083a1.07 1.07 0 0 0-.122.414.879.879 0 0 0 .137.545.2.2 0 0 0 .046.055.328.328 0 0 0 .025-.057zm-14.678-.068a6.22 6.22 0 0 1-.007-.304v-.245l-.037-.073a1.812 1.812 0 0 0-.101-.184c-.006-.006-.047 0-.11.016a3.19 3.19 0 0 0-.292.1l-.084.033.037.018a.83.83 0 0 1 .245.215c.061.074.08.1.152.216.035.057.08.125.098.15.03.044.098.122.102.118.001 0 0-.028-.004-.06zm17.747-.15.067-.15a1.13 1.13 0 0 1 .235-.322l.038-.037-.066-.037a4.199 4.199 0 0 0-.206-.107c-.006 0-.055.088-.094.167l-.04.08-.002.253a7.66 7.66 0 0 1-.005.284l-.003.032.015-.03c.008-.016.036-.076.06-.132zm-15.683.017c.003-.004.08-.072.1-.088.012-.008.013-.013.023-.08.052-.362.04-.8-.047-1.584a2.277 2.277 0 0 1-.012-.517c.032-.357.165-.693.38-.96a.414.414 0 0 0 .036-.048 2.357 2.357 0 0 0-1.03.665 2.005 2.005 0 0 0-.485 1.127c0 .02-.004.046-.005.058l-.002.021.048.037a2.9 2.9 0 0 1 .276.24.6.6 0 0 0 .051.047.882.882 0 0 1 .184-.186.937.937 0 0 1 .1-.058l.062-.03.003.036a2.17 2.17 0 0 1-.007.313 1.802 1.802 0 0 0-.003.335c.006.031.01.041.048.104.103.169.19.348.249.511a.335.335 0 0 0 .025.061c.002 0 .004-.002.006-.004zm13.572-.052c.062-.17.16-.374.26-.535.03-.048.035-.058.04-.09.01-.05.009-.19-.002-.337a2.24 2.24 0 0 1-.007-.305l.003-.042.067.034a.89.89 0 0 1 .102.06c.044.032.124.11.155.15l.023.03.067-.063a3.033 3.033 0 0 1 .297-.254c.008-.006.008-.01.004-.062a1.986 1.986 0 0 0-.199-.72c-.24-.49-.664-.854-1.25-1.073a.596.596 0 0 0-.066-.023c-.001 0 .013.02.03.042.13.163.23.347.296.545.066.196.096.389.097.612 0 .127-.002.156-.027.384-.08.729-.091 1.175-.04 1.527l.01.068.022.019a3.752 3.752 0 0 1 .097.084l.021-.051zm-2.59-.014c.598-.061.992-.287 1.136-.65a.499.499 0 0 0 .037-.134l-.039.031c-.191.156-.478.28-.789.343-.316.063-.71.073-1.092.028-.51-.06-.991-.223-1.354-.457l-.025-.016.003.018a.952.952 0 0 0 .036.136c.164.426.722.671 1.61.707.13.006.4.002.477-.007zm-7.982-.083c.606-.025 1.047-.142 1.33-.353a1.11 1.11 0 0 0 .189-.189.704.704 0 0 0 .125-.299l.003-.02-.037.024c-.193.124-.45.239-.709.317a3.73 3.73 0 0 1-1.115.16 2.66 2.66 0 0 1-.988-.166 1.643 1.643 0 0 1-.419-.24c-.038-.031-.038-.03-.022.027.066.23.211.404.446.533.19.104.471.18.741.202l.077.006c.042.004.285.002.38-.002zm-2.616-.14c.082-.05.207-.118.286-.154l.065-.03-.008-.038c-.099-.423-.06-.82.108-1.107a.995.995 0 0 1 .303-.332.413.413 0 0 1 .149-.065.932.932 0 0 0 .077-.025c.003-.003 1.042-4.969 1.042-4.979 0-.003-.021-.005-.063-.005h-.063l-.003-.02a.575.575 0 0 1-.003-.069v-.05l.082-.002.082-.004a130.29 130.29 0 0 0 .204-.973c.002-.008-.003-.01-.05-.02-.03-.009-.05-.015-.05-.017.002-.003.009-.033.017-.067.016-.073.01-.068.071-.053l.042.01c.002-.002.196-.936.196-.942 0-.003-.062-.038-.138-.079a2.578 2.578 0 0 1-.138-.076l.032-.063.032-.06.027.014c.083.046.21.113.214.113.003 0 .005-.002.005-.003l.057-.275c.002-.008-.003-.01-.031-.023a.259.259 0 0 1-.164-.178c-.007-.026-.007-.056-.002-.37l.005-.373v-.033l1.022-.001 1.022-.001-.2-.365-.218-.4-.019-.034.06-.032a.768.768 0 0 1 .062-.032c.002 0 .11.194.24.431l.235.432h.382c.267.001.382 0 .382-.003l-.133-.472a14.607 14.607 0 0 1-.13-.47c.003-.003.128-.039.13-.037a79.036 79.036 0 0 1 .28.976c.002.007.02.008.321.007l.32-.001V2.085a.336.336 0 0 0-.038.03c-.306.266-.607.428-.793.428-.069 0-.064.002-.131-.065a1.85 1.85 0 0 1-.22-.266.217.217 0 0 0-.032-.04 2.526 2.526 0 0 0-.538-.223c-.312-.09-.67-.128-.906-.095-.231.032-.49.12-.778.265a3.272 3.272 0 0 0-.255.139l.033-.008a5.386 5.386 0 0 1 1.03-.157c.097-.007.556-.008.603-.001l.028.004-.402.742c-.275.507-.4.743-.397.745a1.43 1.43 0 0 1 .37.085.937.937 0 0 1-.058.134c-.115.229-.302.49-.492.69a2.673 2.673 0 0 1-1.053.695c-.01.003-.008.004.064.043.02.01.034.021.032.023a1.024 1.024 0 0 1-.071.034.61.61 0 0 0-.221.154 1.86 1.86 0 0 0-.113.125 4.62 4.62 0 0 0-.462.744l-.05.1.168.002c.163.003.275.008.28.012l-.002.07-.003.068-.034.003c-.359.031-.693.206-1.012.531a2.631 2.631 0 0 0-.207.235c-.298.371-.584.91-.801 1.507a7.03 7.03 0 0 0-.1.3l-.004.012.02-.007a6.712 6.712 0 0 1 .935-.182l.21-.028c.003 0-.07.044-.159.098-.21.126-.288.18-.413.285-.073.062-.19.18-.24.24-.128.159-.2.318-.2.45a2.395 2.395 0 0 1-.13.71 2.87 2.87 0 0 0-.025.079l.064-.028c.146-.064.391-.164.53-.215a81.055 81.055 0 0 1 .68-.239l-.273.175c-.292.185-.312.2-.368.267-.22.27-.376.843-.436 1.598a2.341 2.341 0 0 0-.008.13v.024l.06-.026a3.27 3.27 0 0 1 .347-.128c.059-.019.556-.147.558-.145.001 0-.074.053-.167.116-.184.125-.22.153-.296.231a1.618 1.618 0 0 0-.423.84 1.55 1.55 0 0 0-.027.297c-.002.134 0 .186.018.343.075.67.096 1.15.064 1.478a1.879 1.879 0 0 0-.007.069c0 .003.01-.002.024-.011l.087-.056zm10.5-.276.083-.006-.04-.59-.04-.59-.02-.003a8.147 8.147 0 0 0-.534 0 3.403 3.403 0 0 0-.757.114c-.257.073-.456.182-.582.317a.568.568 0 0 0-.125.209c-.007.028-.012.02.069.075.26.174.61.315.98.394.301.065.668.095.966.079zm.301-.03c.385-.059.703-.196.905-.39.025-.024.055-.055.066-.068l.02-.024-.006-.025a19.011 19.011 0 0 1-.025-.12.566.566 0 0 0-.025-.097.515.515 0 0 0-.168-.182c-.164-.108-.424-.187-.742-.225a1.746 1.746 0 0 0-.18-.016c-.003.002.072 1.104.076 1.138.003.022.001.022.079.01zm-8.108-.065c.532-.041 1.014-.182 1.395-.407a1.28 1.28 0 0 0 .164-.112c.004-.01-.011-.056-.034-.1-.12-.234-.43-.41-.88-.498a3.904 3.904 0 0 0-.556-.064 6.274 6.274 0 0 0-.548.002l-.082 1.18c0 .001.03.004.064.006.092.006.374.002.477-.006zm-.64-.602c.02-.308.038-.562.037-.566 0-.006.002-.007-.118.006-.413.042-.732.149-.886.296a.33.33 0 0 0-.08.109c-.001.008-.005.013-.007.013-.004 0-.006.002-.006.003l-.023.113-.024.12a.76.76 0 0 0 .144.148c.212.17.507.287.853.338l.066.01.003-.015c.002-.008.02-.267.041-.575zm-4.483.559a7.63 7.63 0 0 1 .183-1.055c.046-.184.085-.316.162-.55l.065-.197.003.034c.002.019.005.1.008.18l.008.19c.009.099.063.209.163.334.058.073.188.199.262.254.011.008.016.01.017.007a2.15 2.15 0 0 1 .563-1.25l.038-.038-.046-.14a6.587 6.587 0 0 0-.322-.8 1.889 1.889 0 0 0-.262-.422 1.082 1.082 0 0 1-.161-.241 1.801 1.801 0 0 1-.177-.721.127.127 0 0 0-.003-.029c-.002-.004-.03.018-.084.065-.501.437-.883.886-1.073 1.261a1.263 1.263 0 0 0-.15.484 3.83 3.83 0 0 0 .008.683 3.78 3.78 0 0 0 .486 1.521.958.958 0 0 0 .097.145c.064.079.138.184.184.262a.21.21 0 0 0 .027.04c.002 0 .003-.009.003-.017zm.133-1.873a.676.676 0 0 1-.067-.198.99.99 0 0 1-.014-.226 1.195 1.195 0 0 1 .074-.401c.004-.006.02.035.033.087.024.098.036.262.028.41a2.4 2.4 0 0 1-.039.342c-.002.004-.007 0-.014-.014zm17.52 1.866c.043-.075.117-.181.185-.266.068-.084.135-.196.221-.37a3.83 3.83 0 0 0 .38-2.04c-.045-.383-.362-.877-.912-1.417a7.022 7.022 0 0 0-.378-.346l-.011-.009-.002.01-.005.059c-.008.154-.044.34-.093.49-.059.176-.132.31-.243.439-.095.11-.17.23-.265.426a6.874 6.874 0 0 0-.339.856l-.025.076.016.018.053.06a2.144 2.144 0 0 1 .522 1.144c.01.081.008.077.023.066.067-.048.205-.181.265-.257a.914.914 0 0 0 .134-.216c.028-.07.03-.08.038-.307.005-.115.008-.21.01-.21.003-.004.15.451.175.54a7.554 7.554 0 0 1 .239 1.272c.002 0 .008-.008.013-.018zm-.166-1.86a2.668 2.668 0 0 1-.025-.183c-.028-.26-.016-.472.034-.625l.011-.034.01.021a1.264 1.264 0 0 1 .07.418.89.89 0 0 1-.05.314.429.429 0 0 1-.046.097l-.004-.008zm-15.914 1.68c0-.016.003-.064.007-.107a1.97 1.97 0 0 0 .007-.093V14.7l-.023.023a.526.526 0 0 0-.076.093l-.01.02.032.038.045.056c.007.01.014.016.016.015a.095.095 0 0 0 .004-.03zm14.544-.03.043-.054-.007-.013a.484.484 0 0 0-.075-.095l-.027-.027v.014l.007.091c.004.042.007.09.007.108 0 .02.002.03.005.03a.506.506 0 0 0 .048-.055zm-16.72-.47a3.965 3.965 0 0 1-.27-.833 4.747 4.747 0 0 1-.075-.506 1.018 1.018 0 0 0-.108-.372 2.115 2.115 0 0 0-.16-.258c-.122-.183-.15-.243-.161-.352a.467.467 0 0 1-.005-.063l.114-.003c.121 0 .17.005.24.025a.508.508 0 0 1 .133.063l.02.014.015-.04a2.84 2.84 0 0 1 .433-.706l.044-.054-.046-.052a.712.712 0 0 0-.14-.142 1.051 1.051 0 0 0-.138-.14c-.352-.313-.728-.513-1.09-.58a1.518 1.518 0 0 0-.214-.023h-.034l.026.043c.03.05.084.161.108.22.088.223.141.48.159.77a5.11 5.11 0 0 1-.005.468 5.05 5.05 0 0 0 0 .46c.047.793.234 1.374.559 1.73a.16.16 0 0 0 .072.053 2.848 2.848 0 0 1 .539.317l-.017-.04zm18.968-.064a2.71 2.71 0 0 1 .395-.217.156.156 0 0 0 .07-.05c.235-.251.406-.645.497-1.148a4.96 4.96 0 0 0 .066-.584 5.159 5.159 0 0 0 0-.466 5.12 5.12 0 0 1-.005-.464 2.69 2.69 0 0 1 .108-.624 1.952 1.952 0 0 1 .184-.412 1.858 1.858 0 0 0-.172.014c-.38.052-.772.249-1.142.573a1.239 1.239 0 0 0-.174.173 1.115 1.115 0 0 0-.169.18c0 .003.02.03.044.059a2.79 2.79 0 0 1 .444.736c.002.002.013-.003.024-.011a.533.533 0 0 1 .207-.078.811.811 0 0 1 .158-.007.85.85 0 0 1 .118.003.631.631 0 0 1-.022.155c-.021.068-.046.113-.154.274a2.04 2.04 0 0 0-.149.244 1.03 1.03 0 0 0-.11.392l-.013.112a4.036 4.036 0 0 1-.347 1.246l.039-.028a2.88 2.88 0 0 1 .103-.071zm-7.237-.123c.202-.13.478-.223.808-.273l.064-.01.003-.03.002-.03a137.95 137.95 0 0 0-.86-.408c-.006-.002-.008.003-.012.02l-.153.84c0 .002.024-.015.054-.04.03-.023.072-.055.094-.069zm-4.623-.584c-.06-.33-.11-.602-.112-.604-.002-.002-.646.186-.802.233l-.025.008.013.277.014.288c0 .01.001.01.065.02.395.06.71.18.915.352a.19.19 0 0 0 .041.03c.001-.001-.048-.273-.109-.604zm7.135-1.699c-.26-1.244-.475-2.264-.477-2.266a7.598 7.598 0 0 0-.397-.095c0 .001.065.976.147 2.165.115 1.657.151 2.163.156 2.167a.174.174 0 0 0 .049.008c.106.008.277.03.397.053a1.601 1.601 0 0 1 .597.232l-.472-2.264zM6.705 14.093l.02-.013-.024-.011a.147.147 0 0 0-.025-.012l-.007.025-.008.032c-.003.01-.005.01.043-.02zm.225-.112c.066-.025.158-.053.232-.07.076-.018.078-.019.076-.021-.005-.005-.21-.1-.216-.101-.008 0-.302.086-.307.09a.082.082 0 0 0-.008.019l-.004.016.086.042.09.042.05-.017zm9.17-.102-.109-1.571-.108-1.557c-.002-.013-.01-.018-.198-.118a7.367 7.367 0 0 0-.196-.103c-.002.002-.053 1.081-.053 1.108v.021l.095.087.095.087-.017.019-.047.052-.03.033-.051-.045a.933.933 0 0 0-.054-.048c-.002 0-.004.006-.004.015l-.047.977c-.026.528-.046.96-.045.961l.115.056.113.054h.543l-.003-.028zm-8.533-.036c.03-.004.075-.008.099-.009.026-.002.044-.005.045-.008.005-.014.017-.244.013-.244-.007 0-.487.141-.491.144a.99.99 0 0 0 .12.063.67.67 0 0 0 .142.06l.072-.006zm1.062-.024c0-.033-.022-.493-.024-.495a40.01 40.01 0 0 0-.73.214 6.861 6.861 0 0 0-.02.284l.098-.003a6.75 6.75 0 0 1 .466.006c.069.004.193.013.207.016.002 0 .003-.01.003-.022zm6.61-1.082.049-1.008c0-.015-.012-.026-.277-.269a11.56 11.56 0 0 0-.277-.252 454.57 454.57 0 0 0-.388 2.115c0 .006.094.052.42.208l.424.2s.024-.447.05-.994zm-8.353.943a.505.505 0 0 0 .123-.043c.006-.007.008-.008.017-.005a22.623 22.623 0 0 0 .71-.204c.002 0 .036-.47.075-1.042l.072-1.04-.032-.049c-.022-.033-.031-.05-.028-.053a.504.504 0 0 1 .037-.026c.033-.021.033-.022.035-.04a2001.868 2001.868 0 0 1 .058-.848 7.18 7.18 0 0 0-.194.078.667.667 0 0 1-.051-.13 2.89 2.89 0 0 1 .13-.055l.125-.051.002-.018c.003-.021.053-.755.052-.756l-.111.02a.942.942 0 0 1-.113.018 1.022 1.022 0 0 1-.025-.134l.13-.026c.07-.013.127-.025.128-.026.002-.002.034-.44.034-.468v-.01l-.138.003c-.077.002-.14.005-.142.006-.002.002-1.034 4.93-1.034 4.938h.012l.128-.039zm1.357-.399c.193-.056.352-.104.353-.105.003-.003-.1-2.181-.104-2.196 0-.006-.456.29-.461.3-.002.004-.035.47-.074 1.036l-.073 1.052c-.002.017 0 .02.004.018l.356-.105zm6.168-1.103.2-1.086-.015-.014a666.898 666.898 0 0 0-1.958-1.796.296.296 0 0 0-.037.034.999.999 0 0 1-.061.056c-.018.015-.026.025-.025.03l.815 1.494.812 1.488a1.322 1.322 0 0 1-.123.063l-.814-1.485c-.445-.816-.812-1.483-.814-1.484a.06.06 0 0 0-.022.008c-.015.008-.017.01-.015.02.002.012.953 3.332.954 3.333.004.003.897.425.9.425.002 0 .094-.488.203-1.085zm-5.258.836c.214-.063.391-.116.393-.118a89.148 89.148 0 0 0-.256-1.392c-.002 0-.12.123-.263.274l-.262.273-.042-.036-.039-.036v.016c0 .026.05 1.082.054 1.112.003.026.003.027.013.024.007 0 .187-.054.402-.117zm-4.309-.179c.092-.074.213-.157.323-.22.087-.049.082-.045.07-.049-.007-.003-.01-.006-.01-.03 0-.075.023-.334.043-.5.068-.547.188-.975.347-1.24a.258.258 0 0 0 .02-.037 7.67 7.67 0 0 0-.401.169c-.434.195-.755.38-.947.546a.942.942 0 0 0-.122.125 2.174 2.174 0 0 1 .22.364l.054.105.013-.026a.526.526 0 0 1 .198-.2.994.994 0 0 1 .158-.053.823.823 0 0 1-.046.18 1.35 1.35 0 0 1-.055.11.602.602 0 0 0-.092.275l-.015.083c0 .002.015.05.037.107.021.057.058.158.08.224l.045.127c.002.004.008 0 .024-.013l.056-.047zm14.432-.067.08-.225.04-.104-.01-.057c-.007-.031-.015-.08-.02-.107a.554.554 0 0 0-.077-.2 1.46 1.46 0 0 1-.06-.12.972.972 0 0 1-.043-.17.706.706 0 0 1 .152.048.534.534 0 0 1 .205.205l.013.022.045-.086a2.267 2.267 0 0 1 .228-.38.955.955 0 0 0-.138-.138c-.213-.18-.584-.386-1.065-.592a4.83 4.83 0 0 0-.266-.11c-.001.001.008.016.018.034.195.318.335.911.385 1.624.004.05.007.104.007.12 0 .027 0 .028-.012.029-.01 0-.008.003.018.018.153.085.297.183.411.279.024.02.044.035.045.033l.044-.123zm-8.997-.085c.318-.093.58-.171.581-.173.003-.004.797-2.958.797-2.966 0-.004-.008-.008-.017-.011a.687.687 0 0 1-.055-.022l-.037-.016-.904 1.606-.908 1.612c-.003.005-.011.002-.043-.016a.315.315 0 0 0-.04-.021c-.001 0 .025.15.03.172.002.007.005.009.01.008l.586-.172zm2.857.067a2352.998 2352.998 0 0 1-.917-3.2l-.044.009a1.106 1.106 0 0 1-.09.018l-.046.008v1.324c0 1.087 0 1.325.006 1.329.007.006 1.084.517 1.09.518.002 0 .003-.002.002-.005zm-2.603-1.74c.49-.87.89-1.584.89-1.586a.097.097 0 0 0-.023-.021.558.558 0 0 1-.043-.034l-.019-.016-.013.014-.925.971c-.501.526-.928.974-.95.995l-.038.04.112.61c.062.336.113.611.115.611.002 0 .404-.712.894-1.583zm-8.3 1.45c.006-.056.016-.131.024-.164.003-.01 0-.014-.024-.038a.25.25 0 0 0-.106-.064.56.56 0 0 0-.14-.024h-.025l.02.04c.011.02.06.098.11.172.05.074.099.15.11.17l.021.038.003-.033.008-.096zm19.679-.093a1.2 1.2 0 0 0 .118-.196c0-.008-.046-.007-.091.002a.306.306 0 0 0-.179.083c-.018.02-.023.027-.02.034.01.042.022.14.03.252l.003.043.03-.049c.016-.027.065-.103.109-.168zm-10.45-.031.435-.128c.001 0 .002-.59.002-1.31v-1.31l-.01-.002a.545.545 0 0 0-.093-.008l-.387 1.438-.387 1.44c-.001.004 0 .007.003.007l.437-.127zm-6.926-.196a.623.623 0 0 1 .04-.107c.007-.013.01-.024.009-.024a.719.719 0 0 0-.135.079l.039.087.037.083.003-.05c0-.026.005-.057.008-.068zm14.973.028c.018-.04.034-.076.035-.081.002-.008-.004-.012-.033-.03a.731.731 0 0 0-.102-.055l.013.027a.423.423 0 0 1 .047.187c0 .028.002.038.004.032l.036-.08zm-10.513-.562.242-.254.023-.024-.07-.378-.071-.381a20.74 20.74 0 0 0-.485.314c-.004.004 0 .123.02.52l.025.524c0 .011-.006.017.316-.32zm6.304-.096.025-.538c.024-.483.025-.518.018-.521l-.217-.117c-.17-.092-.21-.112-.213-.106-.005.01-.148.8-.147.81.001.007.524.49.53.491.003 0 .004-.008.004-.02zm-11.172-.077c.06-.06.1-.095.176-.15a4.04 4.04 0 0 1 .598-.353l.092-.047c.006-.005.062-.153.086-.223a2.19 2.19 0 0 0 .114-.605c.003-.053.008-.119.013-.146a.971.971 0 0 1 .216-.434 2.555 2.555 0 0 1 .309-.306l-.093.017c-.65.133-1.121.318-1.326.524l-.036.035.003.02c.013.09.016.118.018.187.008.265-.07.594-.22.914a2.664 2.664 0 0 1-.157.288l-.008.012.011.032a1.252 1.252 0 0 0 .149.29l.056-.055zm.517-1.081a.4.4 0 0 1-.006-.056c-.008-.18.107-.389.254-.46.025-.012.067-.026.067-.022 0 .005-.07.162-.095.212a1.681 1.681 0 0 1-.18.293c-.033.04-.037.043-.041.033zm15.306 1.092a1.184 1.184 0 0 0 .134-.29c-.01.01-.14-.229-.201-.372a2.227 2.227 0 0 1-.182-.696 1.424 1.424 0 0 1 .015-.328c.003-.018.003-.018-.033-.053-.17-.17-.513-.323-1.004-.45a5.7 5.7 0 0 0-.414-.09s.02.02.046.041c.186.156.34.342.415.503.048.101.069.19.074.311a2.235 2.235 0 0 0 .196.844c.007.013.02.02.137.08.365.186.6.342.746.496a.837.837 0 0 0 .043.042l.028-.038zm-.622-1.109a1.555 1.555 0 0 1-.187-.294 3.234 3.234 0 0 1-.104-.232.22.22 0 0 1 .068.023.52.52 0 0 1 .245.516c-.004.008-.007.006-.022-.013zm-16.395.839c.196-.218.438-.45.68-.651.09-.075.21-.169.214-.166 0 0 0 .052-.004.113a1.927 1.927 0 0 0 .038.5c.004.006.08-.145.12-.235.1-.235.157-.454.173-.672.006-.082 0-.174-.014-.264a1.501 1.501 0 0 0-.17-.484 2.523 2.523 0 0 1-.338-1.045 5.747 5.747 0 0 0-.34.338 5.638 5.638 0 0 0-.484.583c-.156.223-.235.385-.255.525-.036.238-.036.51-.002.743.023.16.066.322.124.47.042.106.042.106.093.16a2.1 2.1 0 0 1 .083.09.28.28 0 0 0 .039.04c.002 0 .02-.021.042-.045zm.378-.899a1.11 1.11 0 0 1-.055-.38.655.655 0 0 1 .065-.288.363.363 0 0 1 .169-.175c.03-.013.035-.013.025.001a.79.79 0 0 0-.064.135 1.649 1.649 0 0 0-.062.388 2.628 2.628 0 0 1-.034.267.365.365 0 0 1-.028.094c-.002 0-.008-.02-.016-.042zm17.83.903.084-.093c.051-.054.052-.055.072-.104.09-.218.138-.413.163-.656.009-.088.01-.345.002-.437a1.028 1.028 0 0 0-.063-.33c-.092-.23-.31-.534-.661-.916a6.447 6.447 0 0 0-.376-.377 2.799 2.799 0 0 1-.129.59 2.239 2.239 0 0 1-.21.457 1.138 1.138 0 0 0-.107.237 1.413 1.413 0 0 0-.076.367c-.017.232.055.555.191.855.037.082.1.2.102.194a1.97 1.97 0 0 0 .038-.498c-.003-.062-.005-.113-.003-.115.005-.005.2.152.323.26a7.033 7.033 0 0 1 .613.604l.035-.038zm-.487-.905a1.91 1.91 0 0 1-.047-.32c-.03-.312-.049-.391-.124-.522l-.011-.018.023.008c.076.03.152.112.193.208.038.091.05.16.05.29a.877.877 0 0 1-.026.246.864.864 0 0 1-.044.147.144.144 0 0 1-.014-.04zm-10.309-.083.895-.94-.015-.019-.018-.022a253.992 253.992 0 0 0-1.954 1.27c-.005.005.028.188.116.66l.011.06.035-.035.93-.974zm-2.067.755c.112-.073.204-.135.205-.138a32.73 32.73 0 0 0-.034-.68 9.64 9.64 0 0 0-.35.14 68.67 68.67 0 0 0-.056.814v.017l.016-.01.22-.143zm6.434-.412a9.3 9.3 0 0 0 .067-.385l-1.004-.537-1.001-.536-.02.035-.026.045-.007.01.96.882c.527.484.959.879.96.875l.07-.389zm-12.237.24a2.474 2.474 0 0 1-.085-.503c-.014-.204.006-.52.04-.654.048-.184.191-.428.417-.71l.077-.095c.005-.007.003-.017-.017-.077a3.251 3.251 0 0 0-.407-.822.502.502 0 0 0-.054-.079 2.289 2.289 0 0 0-.602-.568s.004.026.011.056c.066.289.081.646.04.967a3.199 3.199 0 0 1-.231.845 1.31 1.31 0 0 0-.076.305 2.023 2.023 0 0 0 .064.897c.002.003.01.01.02.012.036.011.155.06.211.086a2.838 2.838 0 0 1 .603.387l-.012-.046zm-.297-.751a.41.41 0 0 1-.074-.15.759.759 0 0 1 .02-.409c.004-.006.03.03.046.063a.658.658 0 0 1 .057.316 1.108 1.108 0 0 1-.025.203.13.13 0 0 1-.025-.023zm19.396.744a2.568 2.568 0 0 1 .766-.432.998.998 0 0 0 .043-.16c.018-.083.034-.195.041-.282a2.826 2.826 0 0 0-.007-.38 1.54 1.54 0 0 0-.09-.391 3.045 3.045 0 0 1-.224-1.607c.01-.07.04-.232.047-.249.004-.01-.018.003-.085.05a2.312 2.312 0 0 0-.576.598 3.311 3.311 0 0 0-.421.877c-.002.008.007.022.051.077.164.2.295.395.37.552.072.148.09.214.11.423.008.095.012.322.006.416a2.52 2.52 0 0 1-.082.501l-.016.057c0 .003.007-.002.066-.05zm.205-.794a.836.836 0 0 1 .031-.42c.016-.04.053-.099.058-.093a.49.49 0 0 1 .03.109c.032.172-.002.36-.081.449a.145.145 0 0 1-.025.024.33.33 0 0 1-.013-.069zm-12.92.595c.127-.083.231-.152.231-.155.001-.01-.09-.505-.093-.508a6.89 6.89 0 0 0-.404.163c-.002.002.004.144.011.316l.016.325c0 .007.002.012.004.011.002 0 .108-.07.235-.152zm7.01-.012-.036-.512a90.686 90.686 0 0 0-.035-.496 9.607 9.607 0 0 0-.26-.06c-.001.002-.043.883-.041.885.003.003.367.199.37.199.001 0 .002-.007.001-.016zm-5.696-.845.954-.623a.168.168 0 0 0-.02-.054c-.001-.002-1.97.807-1.973.81-.002.003.084.486.087.487l.952-.62zm5.185.571c0-.008.008-.192.02-.41l.018-.408-.001-.012-.157-.038a4.299 4.299 0 0 0-.164-.037c-.004 0-.008.002-.008.005l-.061.338-.063.345c-.001.011.005.015.204.122.113.06.207.11.21.11l.002-.014zm-7.075-.241.158-.065V9.95c0-.044-.029-.622-.031-.625a2.907 2.907 0 0 0-.246.047c-.004.003-.052.668-.053.72 0 .015 0 .018.008.015l.165-.067zm6.587-.368.06-.332-2.067-.493-.013-.003-.012.048a.15.15 0 0 0-.008.051c.004.004 1.974 1.06 1.977 1.06.001 0 .03-.15.063-.332zm-6.09.164c.177-.073.19-.08.189-.089a50.211 50.211 0 0 0-.093-.511c-.001-.002-.32.058-.323.06l.014.304.015.309c0 .003.002.006.004.006l.194-.079zm1.305-.537.973-.401a.397.397 0 0 0-.014-.073c-.002-.002-2.023.381-2.026.384-.005.005.086.493.091.491.003 0 .442-.181.976-.4zm-5.815.258c.144-.122.406-.25.703-.345l.049-.015.016-.056c.135-.458.368-.999.604-1.403.18-.308.36-.546.57-.757a2.106 2.106 0 0 1 .561-.412c.033-.013.032-.013-.093-.006a2.287 2.287 0 0 0-.692.138 1.395 1.395 0 0 0-.117.06 2.86 2.86 0 0 1-.64.275l-.028.008-.008.066a1.895 1.895 0 0 1-.296.842.997.997 0 0 1-.13.163c-.17.18-.445.382-.854.633a.128.128 0 0 0-.033.026c0 .01.038.117.065.183.033.08.103.22.14.279.048.075.095.181.133.296l.017.05.032-.026zm.642-1.206c-.03-.01-.03-.014-.01-.029a.427.427 0 0 0 .044-.045.945.945 0 0 1 .112-.121c.061-.054.111-.075.173-.076a.15.15 0 0 1 .08.016s-.04.043-.092.094c-.113.114-.154.144-.22.161a.167.167 0 0 1-.088 0zm14.909 1.051c.025-.06.06-.127.097-.188a2.24 2.24 0 0 0 .179-.393l.019-.055-.069-.042a5.583 5.583 0 0 1-.677-.476 2.252 2.252 0 0 1-.207-.205 1.886 1.886 0 0 1-.363-.936l-.008-.066-.027-.008a2.977 2.977 0 0 1-.658-.286c-.17-.099-.447-.165-.784-.187a6.31 6.31 0 0 0-.097-.007l-.03-.002.064.033c.197.103.358.225.539.408.193.197.35.403.52.685.244.405.474.925.626 1.421l.029.093.084.028c.31.105.535.219.679.343l.02.018.022-.066c.012-.035.03-.086.041-.112zm-.827-1.055c-.067-.018-.121-.06-.227-.17a1.292 1.292 0 0 0-.06-.06c-.029-.025-.029-.026.007-.037a.198.198 0 0 1 .14.016.46.46 0 0 1 .165.142c.03.036.063.071.073.079.022.016.02.02-.013.03a.15.15 0 0 1-.086 0zm-2.683 1.17a117.653 117.653 0 0 1-.184-.875l-.003-.01-.122.002a2.028 2.028 0 0 0-.124.004l.054.796c.001 0 .369.09.375.09.004 0 .005-.003.004-.007zm-4.292-.074a.774.774 0 1 0-.536-1.392.776.776 0 0 0 .536 1.392zm3.768-.06c0-.024-.05-.743-.053-.744h-.078l-.077.004-.003.03c-.005.061-.032.665-.03.667.003.003.219.055.23.056.008 0 .01-.002.01-.013zm-.382-.08.015-.307.015-.326v-.024h-.117c-.107 0-.116 0-.118.008-.006.02-.106.578-.104.58.002.001.294.073.304.073.003 0 .006-.002.006-.005zM8.292 9.2c.06-.011.11-.022.112-.023 0 0-.002-.09-.007-.198l-.01-.204c0-.007-.006-.008-.09-.008-.07 0-.092.001-.094.006 0 .003-.008.095-.014.205l-.016.221c-.002.018 0 .023.003.023l.116-.021zm6.716-.276c.027-.15.05-.273.049-.274l-1.076.018-1.095.02c-.017 0-.02 0-.02.007.001.006.196.054 1.045.256.574.137 1.044.249 1.045.248l.052-.274zm-6.303.198c.077-.014.142-.028.143-.029a7.66 7.66 0 0 0-.057-.325l-.003-.01-.13.003-.13.005.008.174c.005.094.008.18.008.191 0 .017 0 .02.01.019.006 0 .073-.012.15-.027zm1.19-.225c.685-.13.89-.17.872-.17-.029-.003-1.83.028-1.832.03-.001.002.046.27.053.303.001.006.005.009.007.008l.9-.171zm-6.783-.301a9.371 9.371 0 0 1 .646-.638l.005.075c.007.163.017.282.036.398.01.055.038.188.041.194a5.266 5.266 0 0 0 .67-.459 2.04 2.04 0 0 0 .227-.225c.106-.141.208-.352.262-.544.057-.2.074-.377.057-.593a1.273 1.273 0 0 1 .018-.366.695.695 0 0 1 .084-.21l.015-.024h-.016l-.09.01c-.38.046-.74.139-1.016.263a1.482 1.482 0 0 0-.44.289.912.912 0 0 0-.144.174c-.174.267-.31.619-.386 1.005-.038.188-.066.43-.066.559 0 .04-.001.044-.008.046-.005.001-.008.005-.008.008.006.023.04.117.042.116.002 0 .034-.036.072-.077zM3.96 7.51a.29.29 0 0 1-.062-.033c0-.01.077-.159.106-.204a.932.932 0 0 1 .313-.315c.003 0 .07.119.068.12l-.042.029a.872.872 0 0 0-.284.358l-.037.072zm17.021 1.1L21 8.55l-.008-.005c-.008-.002-.008-.006-.008-.046a3.506 3.506 0 0 0-.253-1.181 2.384 2.384 0 0 0-.246-.45c-.234-.309-.733-.535-1.41-.639a3.468 3.468 0 0 0-.248-.03l.014.024c.033.05.068.14.084.21.022.1.028.229.017.365-.014.177-.007.312.028.476.057.277.195.564.354.734.073.079.212.196.358.302.181.132.473.32.477.308a2.716 2.716 0 0 0 .076-.592.364.364 0 0 1 .007-.072 10.051 10.051 0 0 1 .668.663c.026.029.048.05.05.05l.021-.06zm-1.042-1.153a1.263 1.263 0 0 0-.115-.192.912.912 0 0 0-.21-.191.712.712 0 0 1 .07-.12c.007 0 .068.04.102.068a1.156 1.156 0 0 1 .218.26c.04.066.1.188.095.193a1.286 1.286 0 0 1-.12.055.598.598 0 0 1-.04-.073zM8.07 8.63c.002-.002.063-.865.064-.897v-.015l-.062-.015a1.29 1.29 0 0 0-.063-.014l-.197.942c0 .004.254.003.258 0zm.308-.007c.002-.002-.034-.797-.039-.836l-.002-.022-.03-.007a.155.155 0 0 0-.032-.006l-.06.87c0 .008.005.008.08.006a.534.534 0 0 0 .083-.005zm.386-.005a56.35 56.35 0 0 0-.145-.783 1.123 1.123 0 0 0-.136-.033c-.002.002.037.809.039.816a2.396 2.396 0 0 0 .242 0zm1.256-.02 1.016-.02a1.676 1.676 0 0 1 .031-.16 662.04 662.04 0 0 0-2.295-.548l.067.373.069.373h.049l1.063-.019zm4.047-.072 1.017-.019c.003-.002.086-.46.084-.463-.002-.002-2.314.435-2.317.438 0 0 0 .015.004.034l.006.033.095-.003c.053-.002.553-.01 1.111-.02zm1.377-.026c.002-.002.026-.467.027-.508 0-.006-.01-.005-.076.008a3.336 3.336 0 0 0-.076.015 26.292 26.292 0 0 0-.089.482l-.003.01.107-.002c.059-.001.108-.004.11-.005zm.284-.005-.039-.55a.355.355 0 0 0-.07.013 10.813 10.813 0 0 0-.03.54c.001.002.137-.002.139-.003zm.369-.012c0-.005-.03-.138-.062-.297l-.063-.293a.368.368 0 0 0-.072.01l-.069.014v.013c0 .024.038.558.04.561 0 .002.053.003.115.002.11 0 .113 0 .111-.01zm-2.092-.364c.653-.124 1.19-.227 1.19-.228.004-.003.111-.583.11-.585-.002 0-2.37.972-2.471 1.015-.015.007-.027.014-.027.017 0 .003.002.006.005.006l1.193-.225zM2.896 8.21c.048-.404.154-.777.313-1.098a1.51 1.51 0 0 1 .296-.44 1.52 1.52 0 0 1 .382-.272l.065-.034-.003-.017a2.51 2.51 0 0 0-.062-.234c-.155-.461-.43-.778-.803-.927-.038-.015-.051-.019-.052-.014A1.919 1.919 0 0 1 2.9 6.243c-.04.099-.087.23-.124.347-.152.487-.208.904-.16 1.196l.008.05.038.057c.072.11.135.22.19.332a.378.378 0 0 0 .035.062l.01-.077zm-.005-.885a.286.286 0 0 1-.06-.192.4.4 0 0 1 .03-.164.663.663 0 0 1 .287-.324.79.79 0 0 1-.045.131 6.49 6.49 0 0 1-.065.144c-.092.195-.115.268-.12.373a.219.219 0 0 1-.007.054.096.096 0 0 1-.021-.022zm8.246.922a.125.125 0 0 0 .016-.04A734.438 734.438 0 0 0 8.58 6.831a42.933 42.933 0 0 0 .168.886c.005.003 2.35.564 2.367.567a.156.156 0 0 0 .022-.037zM21.155 8.2c.063-.123.133-.243.197-.338.02-.03.022-.035.03-.08.033-.21.014-.49-.058-.816a4.688 4.688 0 0 0-.224-.718 1.918 1.918 0 0 1-.135-1.077c-.003-.011-.129.042-.206.087-.3.172-.52.465-.651.862a2.695 2.695 0 0 0-.06.228l-.003.015.07.036c.22.114.39.255.506.42.071.1.181.305.241.45a3.564 3.564 0 0 1 .248 1.01c0 .01 0 .013.045-.079zm-.076-.908c-.005-.105-.029-.178-.119-.372a1.826 1.826 0 0 1-.11-.269l-.004-.011.016.008a.68.68 0 0 1 .25.265.428.428 0 0 1 .054.216.29.29 0 0 1-.03.145.24.24 0 0 1-.052.07.18.18 0 0 1-.006-.052zm-7.042.382c.71-.292 1.292-.532 1.294-.534.004-.004.135-.708.132-.71 0-.002-2.681 1.745-2.714 1.768-.005.003-.008.006-.006.007l1.293-.53zm-2.775.39.023-.025-.015-.015-1.25-1.15-1.236-1.136-.003.09c-.003.098-.006.114-.033.165a.31.31 0 0 1-.105.107.454.454 0 0 1-.145.05c-.036.007-.043.008-.042.015l.046.245.043.24.015.008c.034.02 2.67 1.43 2.675 1.431a.098.098 0 0 0 .027-.025zm2.82-.904 1.419-.925.006-.028c.008-.042.009-.04-.025-.056a.293.293 0 0 1-.14-.136c-.03-.06-.03-.064-.033-.25l-.003-.17-.191-.001-.192-.001-1.157 1.213a202.23 202.23 0 0 0-1.157 1.22c0 .008.045.06.05.06.003 0 .643-.416 1.423-.925zm-2.666.766.06-.04c.03-.017.035-.023.032-.029l-.62-1.135-.617-1.128h-.745l-.745-.001v.074l.031-.033.03-.033 1.275 1.17 1.275 1.171.024-.016zm2.194-1.16 1.112-1.17c.002-.005-.97-.006-.977 0-.003.002-.293.514-.644 1.14l-.648 1.15-.008.013.025.017a.172.172 0 0 0 .027.017l1.113-1.167zm1.8 1.087.065-.013c0-.001.008-.13.015-.286l.015-.307.002-.023-.011.003-.025.01-.013.008-.056.306c-.053.29-.058.315-.055.315l.064-.012zm-2.46-1.136c.344-.61.626-1.114.628-1.118.002-.007-.017-.008-.352-.008-.279 0-.355 0-.358.006a376.11 376.11 0 0 0-.595 2.21c0 .005.041.023.048.022.002 0 .285-.5.629-1.112zm2.703 1.09a.063.063 0 0 0 .024-.008 16.73 16.73 0 0 0-.032-.479s-.006.097-.011.215l-.013.247c-.002.028 0 .033.004.03l.028-.005zm-3.974-.012a.133.133 0 0 0 .032-.014c.001-.002-.14-.495-.311-1.096l-.313-1.092h-.326c-.309-.001-.326-.001-.324.007a2370.444 2370.444 0 0 1 1.199 2.197c.007.011.004.011.043-.001zm4.21-.033a.213.213 0 0 0 .052-.014c0-.01-.133-.64-.136-.644-.002-.002-.009-.002-.016.002-.012.005-.013.008-.013.023l.02.323.022.315c0 .008.002.01.009.008l.061-.012zm-3.462-1.075c.16-.597.29-1.087.29-1.09 0-.005-.068-.005-.337-.005h-.339v2.164l.043.007.047.008c.003 0 .133-.48.296-1.084zm-.535 1.067c.007 0 .008-.054.008-1.081V5.59h-.333c-.316 0-.333 0-.331.008 0 .004.14.489.308 1.076l.308 1.077c.002.007.005.008.018.006.008 0 .018-.003.023-.003zm-3.377-.5a30.303 30.303 0 0 0-.08-.423c-.001.002.038.819.04.82.002.003.114.03.116.029l-.076-.426zm-.184.35c0-.007-.006-.087-.009-.176a3.61 3.61 0 0 0-.01-.178 1.077 1.077 0 0 0-.015.165l-.012.186c0 .004.007.008.018.011.03.008.03.008.028-.008zm-.185-.042.026-.379c.014-.202.025-.374.024-.38 0-.01-.155.715-.157.741 0 .004.08.026.098.027.008 0 .01-.002.01-.01zm7.366-.496a.525.525 0 0 0 .007-.077l.003-.072-.015.074-.014.079c0 .006.015.003.02-.005zm.263-.112a.56.56 0 0 0-.008-.042c-.008-.031-.008-.032-.008-.015 0 .034.005.064.011.064.003 0 .006-.004.006-.008zM5.288 6.87c.136-.045.279-.106.408-.174l.061-.032.04-.054c.127-.171.264-.38.366-.558.193-.337.309-.625.352-.872a3.236 3.236 0 0 1 .308-.954.893.893 0 0 0 .035-.076l-.06.014a3.652 3.652 0 0 0-1.3.633 2.965 2.965 0 0 0-.978 1.34l-.013.036.01-.002c.006 0 .048-.01.096-.021a4.71 4.71 0 0 1 .745-.103c.04-.002.048-.002.048.003l.007.059c.01.078.01.074-.016.086-.093.043-.164.155-.191.303-.01.057-.017.147-.014.209.003.07.012.19.014.19l.083-.027zm.147-1.502a.32.32 0 0 1 .027-.097c.068-.145.222-.26.476-.353a2.8 2.8 0 0 1 .218-.065c.008 0-.029.046-.064.08a1.64 1.64 0 0 1-.328.22c-.18.102-.235.139-.3.2-.028.027-.029.027-.029.015zm13.37 1.34c.011-.253-.065-.449-.2-.516-.032-.015-.03-.01-.02-.088l.006-.058c0-.007.02-.007.127.001a4.704 4.704 0 0 1 .763.12c.009.002.009.001-.006-.04a3.017 3.017 0 0 0-.404-.751c-.421-.568-1.066-.994-1.821-1.203-.093-.026-.116-.031-.113-.025l.046.094c.144.291.238.578.29.884.019.111.031.167.056.246.094.31.289.686.558 1.076.095.138.15.209.167.219.134.073.291.143.444.194l.094.032.005-.058a2.29 2.29 0 0 0 .008-.127zm-.277-1.363c-.062-.06-.137-.109-.343-.225a1.726 1.726 0 0 1-.234-.151.608.608 0 0 1-.108-.11l-.008-.014.012.004.075.022c.28.078.466.184.568.322a.42.42 0 0 1 .064.133c.011.052.01.053-.027.019zm-12.4 1.16c.109-.029.239-.052.37-.067.058-.007.206-.02.227-.02.012 0 .014-.004.069-.113.225-.45.452-.794.648-.983a1.05 1.05 0 0 1 .06-.055c.008-.007.014-.013.013-.015a1.845 1.845 0 0 0-.472-.126 1.61 1.61 0 0 0-.377.009s-.006.029-.011.064a1.82 1.82 0 0 1-.07.271 7.344 7.344 0 0 0-.03.09c0 .003.007.001.016-.006a.21.21 0 0 1 .155-.026c.013.004.024.01.024.012a.268.268 0 0 1-.064.097.219.219 0 0 1-.162.072h-.03l-.019.044a5.018 5.018 0 0 1-.386.684 5.881 5.881 0 0 0-.064.096 1.243 1.243 0 0 1 .103-.03zm11.82-.01a6.122 6.122 0 0 1-.27-.438 5.68 5.68 0 0 1-.165-.327l-.01-.025h-.028c-.091 0-.173-.055-.22-.147a.106.106 0 0 1-.009-.022c0-.008.04-.017.068-.017.034 0 .07.009.101.025a.138.138 0 0 0 .024.012l-.028-.088a1.843 1.843 0 0 1-.082-.338l-.054-.008a1.93 1.93 0 0 0-.307-.003 1.752 1.752 0 0 0-.486.127c-.002.002.006.01.017.019.026.02.122.118.164.166.113.132.268.366.397.598.055.099.14.26.171.327l.027.055.078.006a2.79 2.79 0 0 1 .63.11c.003 0-.005-.014-.017-.032zm-13.801-.21a2.4 2.4 0 0 1 .129-.045l.068-.022.018-.056c.062-.187.162-.41.265-.586.252-.43.604-.792 1.046-1.075l.07-.045-.008-.03c-.097-.301-.416-.684-.865-1.038-.068-.053-.07-.054-.07-.021 0 .04-.023.135-.045.193a.427.427 0 0 1-.08.142c-.203.223-.384.563-.524.986a6.155 6.155 0 0 0-.244 1.046L3.9 5.78l.027.056c.057.121.105.255.137.389l.021.081.062-.022zm.32-1.001a.855.855 0 0 1 .132-.471c.03-.045.078-.098.085-.094a.466.466 0 0 1 0 .142.856.856 0 0 1-.133.367.466.466 0 0 1-.078.091c-.002 0-.005-.016-.007-.035zm15.465.937c.032-.133.08-.27.137-.388l.027-.058-.008-.061a5.567 5.567 0 0 0-.387-1.409 2.381 2.381 0 0 0-.371-.6.418.418 0 0 1-.087-.148.743.743 0 0 1-.045-.195c0-.033-.003-.032-.069.02a4.17 4.17 0 0 0-.474.434c-.201.221-.327.415-.393.606l-.01.028.023.014a3.245 3.245 0 0 1 .887.796 3.097 3.097 0 0 1 .49.944c.003.008.017.014.07.031a2.87 2.87 0 0 1 .188.068c.001 0 .011-.037.022-.082zm-.428-.925a.8.8 0 0 1-.193-.582c.003-.004.011.003.032.025a.792.792 0 0 1 .186.557l-.003.021zM7.616 5.071a2.5 2.5 0 0 0 .83-.466 3.006 3.006 0 0 0 .606-.712c.035-.057.079-.138.077-.14a1.004 1.004 0 0 0-.137-.024c-.331-.042-.884-.027-1.58.043-.153.015-.369.04-.371.042l-.042.086c-.04.082-.04.084-.03.082.032-.007.168-.024.17-.022 0 0-.02.036-.047.078a3.254 3.254 0 0 0-.397.949l.036-.004a2.24 2.24 0 0 1 .312 0c.134.015.265.045.39.087a.34.34 0 0 0 .094.026.915.915 0 0 0 .089-.026zm-.265-.732c.032-.083.133-.157.256-.186a.375.375 0 0 1 .106-.01c.07 0 .113.008.159.027l.021.009-.01.008a.913.913 0 0 1-.232.098 6.4 6.4 0 0 1-.304.07c-.002 0 0-.007.004-.017zm9.176.738a2.01 2.01 0 0 1 .301-.08c.111-.02.152-.023.287-.023a1.669 1.669 0 0 1 .186.007s-.008-.035-.02-.076a3.154 3.154 0 0 0-.424-.945c-.006-.008-.005-.008.087.005.05.008.093.014.093.013.001 0-.017-.039-.04-.085l-.042-.085-.1-.011a23.245 23.245 0 0 0-.514-.052c-.577-.049-1.009-.056-1.306-.023a1.477 1.477 0 0 0-.167.027 2.797 2.797 0 0 0 .662.836 2.493 2.493 0 0 0 .927.506c.017.006.021.005.07-.013zm.051-.74a2.041 2.041 0 0 1-.37-.105.495.495 0 0 1-.1-.054c-.005-.006.026-.018.068-.03a.33.33 0 0 1 .105-.009c.08 0 .114.006.179.03.085.034.164.104.186.166.005.013.005.018 0 .017l-.068-.015zm-10.658.02c.224-.122.524-.242.775-.311l.083-.023.068-.135c.21-.416.325-.766.365-1.105a1.32 1.32 0 0 0 .008-.178 1.05 1.05 0 0 0-.023-.256c-.018-.08-.06-.189-.074-.189-.021 0-.157.05-.232.084a1.55 1.55 0 0 0-.577.495c-.202.282-.35.65-.437 1.083a3.102 3.102 0 0 0-.055.4c0 .04 0 .04.024.1l.027.06.049-.026zm.365-1.018c-.01-.002-.02-.004-.02-.006a2.25 2.25 0 0 1 .197-.19.624.624 0 0 1 .137-.09.327.327 0 0 1 .15-.037c.021 0 .04.002.04.004a.92.92 0 0 1-.062.069.923.923 0 0 1-.252.206.343.343 0 0 1-.19.044zm11.866.978c.025-.06.026-.06.025-.1a3.155 3.155 0 0 0-.055-.399c-.097-.487-.274-.894-.516-1.185a1.44 1.44 0 0 0-.685-.466l-.05-.015-.017.037a.877.877 0 0 0-.07.26 2.03 2.03 0 0 0 0 .311c.03.28.116.571.266.912.03.07.154.321.166.34a.653.653 0 0 0 .095.031 3.918 3.918 0 0 1 .814.334s.013-.026.027-.06zm-.536-.99a.614.614 0 0 1-.251-.148 1.89 1.89 0 0 1-.156-.163c0-.004.023-.005.061-.004.027 0 .075.013.112.029.078.032.152.088.27.205.069.067.082.082.076.084a.328.328 0 0 1-.112-.003zM5.709 3.95c.038-.252.113-.532.2-.753a2.47 2.47 0 0 1 .33-.597l.014-.018-.202-.24-.203-.24.006.05c.01.068.01.215 0 .277a.858.858 0 0 1-.103.297 1.86 1.86 0 0 0-.165.445 3.756 3.756 0 0 0-.094.594c0 .007.01.023.04.06.048.056.105.13.14.181.02.028.024.032.025.024l.012-.08zm.113-.875a.151.151 0 0 1-.04-.07.187.187 0 0 1 .003-.082.154.154 0 0 1 .063-.072l.017-.008.008.01a.263.263 0 0 1 .042.093.16.16 0 0 1-.068.152.124.124 0 0 1-.025-.022zm12.508.917a3.1 3.1 0 0 1 .14-.182c.034-.04.035-.04.033-.06a3.287 3.287 0 0 0-.15-.777 1.567 1.567 0 0 0-.106-.247 1.64 1.64 0 0 1-.061-.13 1.012 1.012 0 0 1-.046-.186 1.359 1.359 0 0 1 .008-.312s-.273.322-.383.454l-.022.026.032.042c.222.295.39.698.483 1.162.018.092.04.225.04.244 0 .012-.002.014.032-.034zm-.203-.92a.158.158 0 0 1-.046-.134.303.303 0 0 1 .042-.09l.008-.01.016.007a.14.14 0 0 1 .062.069.147.147 0 0 1-.028.148c-.03.034-.031.034-.054.01zm-10.871.575c.318-.036.655-.062.953-.075.112-.005.404-.008.521-.005l.062.002.363-.67c.2-.368.362-.67.36-.673-.002-.005-.262 0-.38.007a4.474 4.474 0 0 0-1.492.317 2.645 2.645 0 0 0-.241.117c-.046.027-.042.02-.048.096-.015.217-.094.52-.212.815l-.032.082c0 .004.004.004.146-.013zm.427-.354c0-.008.251-.252.295-.286a.816.816 0 0 1 .24-.142.322.322 0 0 1 .104-.02 1.14 1.14 0 0 1-.116.134c-.146.154-.264.244-.382.29-.051.02-.141.035-.141.024zm9.203.361-.033-.083a2.954 2.954 0 0 1-.21-.796c-.007-.095-.006-.088-.028-.102a2.87 2.87 0 0 0-.251-.124c-.422-.18-.92-.288-1.495-.321a4.957 4.957 0 0 0-.392-.006l.364.673.363.668.165-.003c.22-.004.49.006.772.026.212.016.513.044.658.061.073.008.087.01.087.007zm-.624-.366a.65.65 0 0 1-.297-.148c-.074-.059-.3-.292-.29-.3a.308.308 0 0 1 .099.018.822.822 0 0 1 .242.142c.042.033.297.281.297.289 0 .004-.013.004-.05-.001zm.376-.79a.062.062 0 0 0 0-.022.053.053 0 0 0-.013.015c-.011.017-.012.018-.004.024.012.008.013.008.017-.016zm-5.66-.105a.779.779 0 0 0 .18-.068c.169-.082.355-.218.57-.415l.034-.031-.04-.039a.779.779 0 0 1-.252-.503.725.725 0 0 1 .092-.43L11.58.88l-.021-.05a1.705 1.705 0 0 0-.216-.378 1.286 1.286 0 0 0-.195-.192.643.643 0 0 0-.318-.12c-.031-.003-.033-.002-.06.014a.593.593 0 0 0-.146.15c-.132.198-.207.494-.227.896-.005.089-.002.143.008.219a1.705 1.705 0 0 0 .494.972c.016.014.03.014.079.004zm2.206-.041c.2-.205.349-.472.42-.754.04-.152.052-.262.046-.394-.023-.477-.127-.818-.3-.99a.446.446 0 0 0-.073-.061c-.027-.016-.029-.016-.06-.014-.235.02-.444.176-.615.46a1.96 1.96 0 0 0-.12.243L12.46.9l.024.048a.722.722 0 0 1 .065.176c.01.053.016.184.008.24a.705.705 0 0 1-.156.355 1.138 1.138 0 0 1-.137.136c0 .005.12.114.19.174.234.197.454.328.613.364.065.015.062.016.118-.041zm3.365-.011a.525.525 0 0 0 .06-.255.447.447 0 0 0-.14-.294c-.072-.074-.131-.115-.3-.209a1.257 1.257 0 0 1-.084-.049l.114-.023c.125-.023.187-.038.267-.063.209-.066.382-.152.507-.252a.69.69 0 0 0 .154-.175c0-.01-.206-.092-.362-.143a5.03 5.03 0 0 0-1.752-.241c-.559.02-.954.086-1.191.202-.067.033-.062.026-.055.08.02.152.03.342.023.428a1.837 1.837 0 0 1-.191.666.8.8 0 0 0 .055-.023c.418-.189.898-.295 1.266-.28.347.016.794.18 1.27.466.071.043.277.177.312.204.02.015.019.016.047-.04zm-8.862-.017c.45-.31.928-.529 1.306-.598.166-.03.317-.034.526-.013a2.901 2.901 0 0 1 .898.238l-.018-.044a1.812 1.812 0 0 1-.144-.587 3.047 3.047 0 0 1 .036-.488c0-.005-.011-.013-.035-.025-.227-.114-.727-.182-1.344-.182a4.941 4.941 0 0 0-1.666.281 3.669 3.669 0 0 0-.254.103.466.466 0 0 0 .088.113c.118.122.305.228.54.305.095.03.18.052.298.074l.114.021c.006.002-.026.021-.1.063-.06.034-.124.071-.142.083a.605.605 0 0 0-.265.325.324.324 0 0 0-.01.105c0 .065.002.077.011.114.007.022.018.057.026.077a.387.387 0 0 0 .049.091c.002 0 .04-.025.085-.057zm4.335-.485a.815.815 0 0 0 .224-.162.573.573 0 0 0 .162-.28.448.448 0 0 0 .01-.123.465.465 0 0 0-.029-.191.478.478 0 0 0-.128-.197.748.748 0 0 0-.086-.074.824.824 0 0 0-.158-.082L11.99.72l-.039.02a.592.592 0 0 0-.335.425.714.714 0 0 0 0 .208.693.693 0 0 0 .366.485s.019-.008.04-.02z"/></svg>