<svg role="img" viewBox="0 0 24 24" xmlns="http://www.w3.org/2000/svg"><path d="M18.587 18.851a8.894 8.894 0 0 1-6.164 2.484 8.907 8.907 0 0 1-8.297-5.696.212.212 0 0 0-.153-.133.212.212 0 0 0-.197.05L.07 18.938a.212.212 0 0 0-.07.154.212.212 0 0 0 .06.157 12.612 12.612 0 0 0 9.153 3.938c3.828 0 7.456-1.744 9.846-4.734a.031.031 0 1 0-.047-.04c-.136.148-.278.295-.426.44zM13.874 7.105a8.912 8.912 0 0 1 6.422 8.541 8.892 8.892 0 0 1-1.977 5.589.212.212 0 0 0-.039.2c.02.07.074.124.143.145l4.78 1.517a.218.218 0 0 0 .275-.146A12.61 12.61 0 0 0 24 19.36c0-6.204-4.578-11.532-10.711-12.467a.03.03 0 0 0-.036.03c0 .016.01.028.024.032.2.042.4.092.597.15zM12.132 10a4.399 4.399 0 0 1 5.047 3.632 4.399 4.399 0 0 1-3.632 5.047A4.399 4.399 0 0 1 8.5 15.047 4.399 4.399 0 0 1 12.132 10zM6.06 17.06a8.89 8.89 0 0 1-.26-2.132c0-4.877 4.014-8.89 8.89-8.89.463 0 .925.035 1.381.107a.221.221 0 0 0 .248-.262L15.242.985a.212.212 0 0 0-.098-.137.212.212 0 0 0-.167-.028C9.323 2.172 5.3 7.267 5.3 13.08c0 1.571.294 3.128.866 4.59a.032.032 0 0 0 .037.02.03.03 0 0 0 .02-.041 9.092 9.092 0 0 1-.165-.588z"/></svg>