<svg role="img" viewBox="0 0 24 24" xmlns="http://www.w3.org/2000/svg"><path d="M11.246 23.267a756.89 756.89 0 0 0-1.147-1.14l-.409-.405-1.625-.007-1.626-.007-.008-.213a77.398 77.398 0 0 1-.008-1.327v-1.112H6.6v2.475l1.578.009 1.58.009.629.626c1.266 1.26 1.599 1.588 1.608 1.588.009 0 .467-.452 1.605-1.586l.634-.631h.449c.247 0 .956-.004 1.577-.008l1.129-.008.004-1.573.004-1.574.66-.663a126.569 126.569 0 0 0 1.563-1.579c0-.004-.386-.394-.859-.867-.472-.473-.97-.976-1.107-1.116l-.249-.255-.008-.26c-.004-.144-.006-.852-.004-1.573l.004-1.311-.497-.008c-.273-.004-.984-.008-1.578-.008-1.075 0-1.082 0-1.11-.025-.016-.013-.166-.16-.333-.325-.203-.201-.3-.29-.294-.27l.06.163c.097.256.228.746.277 1.038.043.254.053.35.066.6a3.273 3.273 0 0 1-.257 1.51 2.195 2.195 0 0 1-.174.337 1.027 1.027 0 0 1-.129.197 1.736 1.736 0 0 1-.188.25.867.867 0 0 0-.055.067c-.01.015-.027.027-.037.027-.01 0-.015.004-.01.008.01.01-.253.276-.273.276-.008 0-.016.008-.02.017a3.993 3.993 0 0 1-.743.536 1.836 1.836 0 0 0-.092.056 9.822 9.822 0 0 1-.613.31l-.095.04-.004.051c-.008.106.034.773.13 2.049l.04.526.038.016c.022.01.1.033.176.052a.92.92 0 0 0 .294.035c.087 0 .16.003.164.007a.611.611 0 0 1-.036.137l-.043.13h-.147c-.15 0-.306.023-.44.067l-.064.021-.022.082c-.029.106-.1.26-.116.25a.406.406 0 0 1-.012-.137c0-.075-.005-.13-.012-.13-.006 0-.074.03-.15.067-.238.113-.286.127-.456.132l-.149.005-.02.085a1.05 1.05 0 0 1-.192.372c-.12.151-.252.229-.405.238-.077.005-.093.002-.152-.027a.666.666 0 0 1-.237-.235c-.04-.082-.028-.091.08-.055.11.037.307.04.418.007.197-.059.351-.2.378-.346l.007-.037-.113-.007c-.125-.008-.18-.028-.224-.082-.06-.071-.028-.23.083-.4.095-.149.196-.216.265-.177.044.024.098.129.127.248l.025.1.141-.002c.078-.001.179-.01.225-.017.082-.013.322-.088.342-.106.006-.005.006-.029 0-.054-.01-.043-.015-.047-.094-.072a.446.446 0 0 0-.29-.003c-.112.04-.107.04-.107.006 0-.092.142-.266.238-.292.045-.012.065-.01.139.009l.086.023v-.028c0-.015-.021-.22-.047-.457-.077-.708-.143-1.452-.143-1.615 0-.057.011-.101.054-.211.049-.129.066-.188.044-.157-.025.035-.786.304-1.218.43l-.202.06-.119.033.003.141c.003.144.04.663.093 1.357.028.36.04.744.023.771-.017.027.03.01.096-.037a.557.557 0 0 0 .185-.2c.07-.14 0-.483-.175-.848a2.173 2.173 0 0 0-.08-.152l-.028-.046.03-.132a1.87 1.87 0 0 1 .033-.137c.018-.024.14.205.2.378.078.222.102.35.109.57.005.169.003.211-.02.32a.996.996 0 0 1-.386.625.218.218 0 0 0-.074.107.52.52 0 0 1-.044.093c-.015.02-.02.02-.03.005a.163.163 0 0 1-.012-.07c0-.045-.003-.05-.02-.043-.094.04-.207.056-.389.056-.207 0-.315-.02-.442-.081a.57.57 0 0 1-.294-.408 1.263 1.263 0 0 1 .023-.509c.032-.1.053-.143.039-.078a1.051 1.051 0 0 0-.009.309c.05.293.254.423.665.423.151 0 .395-.027.415-.046.01-.009-.033-.51-.083-.959-.079-.722-.128-1.29-.114-1.309a6.718 6.718 0 0 0-.55.272l-.142.089a2.414 2.414 0 0 0-.214.137 4.875 4.875 0 0 0-.48.375 4.86 4.86 0 0 0-.61.655 2.49 2.49 0 0 0-.196.274c-.17.27-.358.68-.416.908l-.022.085-.064-.046a1.574 1.574 0 0 1-.254-.22c-.24-.246-.34-.435-.383-.728a1.734 1.734 0 0 1 .007-.492 2.679 2.679 0 0 1 .068-.318c.01-.066.086-.185.175-.275a.857.857 0 0 1 .188-.16 12.242 12.242 0 0 1 .555-.393c.197-.125.483-.285.746-.416.482-.242.668-.322 1.695-.726.06-.023.102-.047.104-.058.006-.028-.066-.067-.122-.067-.052 0-.194.032-.35.078a20.913 20.913 0 0 0-1.6.544c-.378.142-.668.255-.7.273a.95.95 0 0 1-.187.065c-.012 0-.015-.022-.012-.091a.397.397 0 0 1 .01-.098.125.125 0 0 0 .014-.048c.02-.129.133-.408.195-.483l.039-.048c.09-.116.19-.207.314-.289a1.96 1.96 0 0 1 .253-.14 1.645 1.645 0 0 1 .435-.142c.188-.027.356-.061.382-.078.058-.038.016-.183-.069-.239a.696.696 0 0 0-.144-.06c-.09-.027-.12-.03-.365-.033l-.267-.003.003-.028a.612.612 0 0 1 .048-.115c.048-.097.178-.239.282-.31a.343.343 0 0 0 .062-.05c.002-.004.01-.01.016-.01a.84.84 0 0 0 .115-.051c.273-.138.39-.123.778.099.305.173.602.26.89.26.191 0 .301-.054.366-.18a.314.314 0 0 0-.044-.362.3.3 0 0 0-.23-.107c-.083-.005-.09-.004-.196.05-.06.03-.147.066-.193.079a1.103 1.103 0 0 1-.403.024c-.293-.051-.576-.266-.772-.588a2.168 2.168 0 0 1-.247-.652 9.382 9.382 0 0 0-.032-.155 3.785 3.785 0 0 1-.01-.65c.025-.25.127-.725.165-.772a2.654 2.654 0 0 1 .19-.47c.003-.002.03-.053.06-.112.028-.058.088-.167.132-.24a1.495 1.495 0 0 0 .09-.159 1.09 1.09 0 0 0 .088-.117 1.3 1.3 0 0 1 .098-.129c.01-.009.019-.02.019-.027 0-.015.061-.096.3-.393a.768.768 0 0 0 .048-.065.522.522 0 0 1 .056-.064.206.206 0 0 0 .039-.045 3.14 3.14 0 0 1 .146-.18c.185-.221.149-.176.29-.365l.135-.181a.098.098 0 0 0 .017-.026c0-.003.021-.038.047-.078.114-.177.25-.498.25-.593 0-.058-.028-.109-.09-.164a.447.447 0 0 0-.257-.115c-.11-.02-.444-.04-.65-.04-.122 0-.142-.004-.17-.026-.062-.048-.087-.16-.098-.444-.01-.223-.004-.252.05-.288l.04-.028.288.009.289.009.038-.036c.063-.06.049-.112-.045-.165a.197.197 0 0 1-.06-.042 5.231 5.231 0 0 1-.483-.323.231.231 0 0 1-.068-.1c-.018-.055-.017-.067.018-.287.05-.308.09-.516.115-.575.022-.052.078-.1.118-.1.028 0 .158.08.278.17.107.08.335.258.343.268a.674.674 0 0 0 .062.046c.06.042.137.074.193.08a.332.332 0 0 0 .193-.052.289.289 0 0 0 .097-.188c0-.087-.009-.098-.484-.578-.3-.303-.345-.354-.381-.427a.295.295 0 0 1-.041-.172c0-.114.018-.154.222-.504.063-.108.15-.227.185-.25.067-.046.092-.04.176.049.04.042.074.082.074.088 0 .02.135.19.28.356l.165.19c.013.015.056.062.096.103.063.065.077.074.116.074a.166.166 0 0 0 .138-.095c.028-.067-.012-.25-.09-.423a.521.521 0 0 1-.029-.069c0-.012-.172-.351-.23-.454-.156-.276-.214-.434-.214-.584 0-.095.003-.108.045-.192.046-.09.138-.19.374-.403.103-.093.146-.116.217-.116.071 0 .121.049.147.141a7.457 7.457 0 0 0 .064.221 13.849 13.849 0 0 0 .101.356c.028.098.083.246.111.3a.15.15 0 0 0 .154.083l.043-.004-.004-.166a7.283 7.283 0 0 0-.02-.374c-.056-.656-.057-.906-.003-1.021a.244.244 0 0 1 .053-.08c.012-.007.017-.013.012-.013-.026-.001.358-.387.478-.48a1.66 1.66 0 0 0 .1-.083 4 4 0 0 1 .795-.437c.295-.114.608-.193.887-.223.122-.013.145-.013.172.002.052.028.048.077-.01.141a5.413 5.413 0 0 0-.31.368 4.88 4.88 0 0 1-.11.142c-.065.08-.067.082-.131.17a.428.428 0 0 1-.068.08c-.005 0-.01.005-.01.011 0 .007-.04.072-.092.146a13.936 13.936 0 0 0-.322.483 1.215 1.215 0 0 0-.049.081l-.04.071a8.676 8.676 0 0 0-.49.942 7.69 7.69 0 0 0-.217.512c-.06.154-.177.5-.234.7a7.547 7.547 0 0 0-.31 2.182c0 .182.006.409.012.502.012.162.011.173-.01.196a2.57 2.57 0 0 0-.187.292.714.714 0 0 1-.04.071.746.746 0 0 0-.092.156c-.01.004-.021.025-.18.336a7.443 7.443 0 0 0-.26.554.337.337 0 0 0-.026.068c0 .007-.006.013-.014.013s-.01.003-.008.006a.683.683 0 0 1-.046.133 11.043 11.043 0 0 0-.142.364c-.11.288-.223.673-.33 1.127a8.052 8.052 0 0 0-.091.563c-.027.225-.019.74.014.913.1.526.318.859.712 1.091.146.086.398.17.57.19.332.038.722-.112.983-.379.206-.21.315-.43.363-.73.033-.203.03-.734-.006-1.026a15.785 15.785 0 0 0-.091-.634 6.535 6.535 0 0 0-.066-.309 1.192 1.192 0 0 1-.026-.132c0-.02-.005-.035-.008-.032-.003.003-.011-.026-.02-.064-.023-.119-.064-.206-.11-.237-.036-.024-.053-.028-.112-.024-.06.004-.073.01-.095.04a1.24 1.24 0 0 1-.09.104c-.058.06-.074.07-.12.075-.048.005-.057.002-.096-.035a.6.6 0 0 1-.088-.135.308.308 0 0 1-.045-.186c0-.05.006-.096.012-.1a.037.037 0 0 0 .013-.02.42.42 0 0 1 .02-.057c.02-.044.02-.045-.007-.055a4.931 4.931 0 0 1-.19-.083 3.03 3.03 0 0 1-.257-.116c-.005-.004.01-.045.102-.282a5.254 5.254 0 0 1 .158-.369c0-.017.146-.266.178-.304.026-.03.062-.052.137-.08a2.187 2.187 0 0 1 .165-.059l.13-.05c.053-.02.138-.056.19-.078.053-.023.1-.042.107-.043.007-.001.053-.022.104-.047a6.493 6.493 0 0 0 .53-.265 6.25 6.25 0 0 0 .418-.268.86.86 0 0 1 .099-.068c.004 0 .02-.01.033-.023l.18-.15c.085-.07.203-.176.264-.235a.725.725 0 0 1 .125-.108c.008 0 .04.03.07.067l.054.066-.041.046a9.632 9.632 0 0 0-.49.586l-.059.077-.062.083c-.119.142-.37.545-.484.775-.12.243-.142.322-.142.521 0 .277.05.5.232 1.04.108.323.146.425.147.398 0-.01.194.177.43.416l.43.435 1.624.007c.893.004 1.627.01 1.63.014.005.004.009.736.01 1.627l.004 1.62.554.558a951.736 951.736 0 0 1 1.681 1.693l.06.06-.754.758-1.148 1.156-.394.398v1.485c0 .816-.003 1.548-.008 1.627l-.008.142-1.626.007-1.626.007-.453.449-1.147 1.139c-.382.38-.7.69-.707.69-.007 0-.344-.33-.75-.734zM10.38 18.6c.012-.011-.01-.089-.035-.119-.052-.067-.101-.06-.133.018-.025.063-.024.103.002.11a.552.552 0 0 0 .167-.01zm-1.017-2.384c.016-.009.024-.017.018-.017a.137.137 0 0 0-.042.017c-.016.01-.024.017-.017.017a.137.137 0 0 0 .041-.017zm1.916-.656c-.004-.004-.014 0-.022.008-.011.012-.01.013.007.007.012-.004.019-.01.015-.014zm.565 6.948a.842.842 0 0 1-.135-.15c.005-.005.002-.006-.005-.002-.016.01-.08-.055-.068-.068.005-.005.001-.007-.009-.005-.01.002-.016-.003-.013-.013.002-.01 0-.014-.005-.01-.012.012-.078-.05-.07-.064.005-.006 0-.009-.008-.007-.01.002-.014-.004-.012-.012.002-.01-.001-.013-.007-.01-.014.01-.076-.057-.065-.068.005-.005.001-.007-.009-.005-.01.002-.016-.003-.014-.012.002-.009-.001-.013-.007-.009-.014.01-.076-.057-.065-.069.005-.005.001-.007-.009-.005-.01.002-.016-.003-.014-.011.002-.01-.001-.013-.007-.01-.013.009-.077-.056-.068-.067.003-.004.002-.005-.002-.002-.013.01-.762-.744-.754-.758.004-.007.003-.01-.003-.004-.013.011-.102-.074-.093-.089.003-.006-.001-.009-.01-.007-.008.002-.014-.004-.012-.012.002-.01-.001-.013-.007-.01-.014.01-.076-.056-.064-.068.005-.005 0-.007-.01-.005s-.016-.003-.014-.012c.002-.009-.001-.012-.007-.009-.014.01-.076-.057-.064-.068.005-.005 0-.007-.01-.005s-.016-.003-.013-.014c.002-.01 0-.014-.005-.01-.005.006-.03-.01-.054-.034l-.046-.044-1.349-.007-1.349-.007v-2.372l.036-.057c.02-.03.047-.077.06-.103a.591.591 0 0 1 .054-.08.545.545 0 0 0 .052-.077c.013-.025.027-.044.032-.044.005 0 .01-.005.01-.011 0-.006.014-.027.032-.046a.76.76 0 0 0 .044-.052l.034-.042a.116.116 0 0 0 .024-.045.05.05 0 0 1 .018-.029c.021-.013.073 0 .073.018 0 .008.005.017.01.019.006.002.014.523.02 1.214l.007 1.209h.032c.017.001.559.003 1.203.004 1.054.002 1.172.004 1.166.02-.004.01-.002.016.004.012.015-.01.097.076.087.091-.004.007-.002.01.005.005.018-.01.103.07.091.088-.006.01-.004.012.005.006.01-.006.276.252.756.73.407.407.746.74.751.74.006 0 .324-.311.705-.692.434-.432.7-.688.708-.683.01.005.011.003.005-.006-.006-.009.046-.066.142-.159l.15-.144 1.196-.006 1.194-.006.007-.872c.004-.48.007-1.02.007-1.2v-.328l.066-.065c.047-.046.073-.064.09-.06.02.003.022.001.01-.013-.01-.013-.005-.024.025-.052.02-.02.043-.033.05-.029.007.004.01.002.004-.006-.005-.009.265-.288.719-.744.4-.401.729-.731.73-.734a.256.256 0 0 0-.05-.054c-.03-.027-.05-.055-.046-.062.004-.007.002-.009-.004-.005-.016.01-.102-.079-.09-.092.005-.006.003-.007-.003-.003-.017.01-.507-.481-.495-.495.005-.006.004-.007-.003-.003-.014.008-.38-.358-.376-.374.002-.006 0-.007-.007-.004-.014.009-.075-.058-.064-.069.005-.005.001-.007-.009-.005-.01.002-.016-.003-.015-.012.002-.009 0-.013-.007-.009-.014.01-.1-.08-.088-.093.005-.006.003-.007-.004-.003-.015.009-.102-.08-.09-.092.005-.005.002-.006-.005-.004a1.25 1.25 0 0 1-.175-.161l-.161-.165v-.346c0-.19-.004-.731-.008-1.202l-.008-.856h-1.701l-.007-.175a8.473 8.473 0 0 0-.015-.256l-.007-.082 1.113.01c.612.004 1.117.01 1.122.013.005.003.009.61.009 1.348v1.342l.177.177c.098.097.174.182.17.189-.004.006-.002.008.005.004s.358.34.78.765l.77.772-.044.04a.237.237 0 0 0-.04.04c.003 0-.014.02-.038.045-.023.025-.047.043-.052.04-.005-.002-.009.001-.009.008 0 .02-.072.096-.084.089-.006-.004-.01 0-.01.01 0 .022-.077.095-.088.083-.005-.005-.007-.003-.005.003.006.018-.075.1-.09.092-.005-.004-.007-.002-.003.005.01.015-.08.102-.092.09-.006-.005-.007-.003-.003.004s-.297.316-.669.687l-.675.675v2.699h-1c-.55 0-1.16.004-1.357.008l-.358.008-.524.525c-.288.289-.53.522-.536.518-.006-.004-.008-.002-.004.004.01.015-.245.268-.257.256-.005-.005-.008 0-.005.008.002.011-.003.016-.014.014-.01-.002-.013 0-.009.005.013.012-.074.1-.09.091-.006-.004-.008-.002-.005.004.01.015-.15.173-.162.161-.005-.005-.007-.002-.005.006a.398.398 0 0 1-.088.103 1.07 1.07 0 0 1-.092.084.314.314 0 0 0-.049.048.296.296 0 0 1-.057.053c-.004 0-.073-.063-.152-.14zm-.621-1.755a.693.693 0 0 1-.281-.26.264.264 0 0 1-.025-.06c0-.02.047-.015.124.012.09.031.274.033.387.004.2-.052.39-.225.39-.357v-.034l-.092-.003c-.163-.006-.24-.045-.264-.133-.028-.103.057-.313.182-.448.057-.062.1-.086.153-.086.05 0 .08.03.12.119a.827.827 0 0 1 .06.204l.007.033h.122c.154 0 .207-.023.27-.115.022-.034.047-.062.055-.063.008 0 .023.025.034.056.011.031.033.07.049.086.026.028.036.03.165.034.164.005.206-.008.321-.095a.515.515 0 0 1 .08-.055.416.416 0 0 1 .02.056c.024.072.061.097.154.105.147.011.26-.031.318-.12.016-.023.035-.043.043-.043.008 0 .02.023.029.052.02.07.057.103.122.11.1.012.173-.032.204-.122l.015-.045.027.056c.041.088.061.096.252.101.091.002.209-.002.262-.01.097-.014.505-.14.505-.156 0-.009-.27-.1-.328-.11a.48.48 0 0 0-.208.034.182.182 0 0 1-.065.018c-.024 0-.027-.004-.02-.032a.456.456 0 0 1 .198-.263c.077-.037.127-.031.335.041.44.154.516.171.723.171h.134l.004.039c.002.021.003.081 0 .133l-.004.095-.192.001c-.292.002-.474.048-.833.214-.265.121-.31.136-.448.144-.191.01-.294-.028-.347-.13l-.018-.036-.04.059c-.063.093-.131.125-.212.098-.046-.015-.105-.075-.134-.137l-.02-.04-.035.055c-.107.16-.308.175-.456.033l-.064-.063-.047.052a.32.32 0 0 1-.253.112.65.65 0 0 1-.127-.013.325.325 0 0 1-.163-.125l-.02-.036-.044.051a.484.484 0 0 1-.1.084c-.049.028-.071.033-.177.037l-.122.005-.013.05c-.07.271-.237.503-.43.594a.472.472 0 0 1-.282.042zm.606-1.008c.04-.026-.045-.167-.1-.167-.036 0-.103.134-.083.166.009.015.16.015.183 0zm-1.091.559c-.105-.028-.284-.135-.284-.169a.35.35 0 0 1 .122-.009.57.57 0 0 0 .344-.087c.152-.09.326-.294.337-.396.007-.065-.016-.11-.11-.208l-.073-.077.066-.121a.485.485 0 0 1 .081-.122c.023 0 .1.096.135.17a.712.712 0 0 1 .055.346.762.762 0 0 1-.406.64c-.105.052-.167.06-.267.033zm4.637-.332a1.31 1.31 0 0 0-.007-.148l-.007-.045h.276v.112c0 .06.003.127.007.148l.007.037h-.276v-.104zm-4.81-.063c-.112-.055-.169-.198-.145-.363a1.55 1.55 0 0 1 .126-.386c.055-.106.111-.156.164-.147.102.016.212.114.277.248.062.127.078.411.028.516-.057.12-.32.197-.45.132zm.296-.26c.06-.017.076-.053.057-.12a.389.389 0 0 0-.253-.218c-.064-.011-.084.012-.11.124-.027.12-.024.162.012.186a.454.454 0 0 0 .294.027zm3.048-.273a.621.621 0 0 1-.212-.227c-.047-.103-.042-.108.067-.07a.56.56 0 0 0 .598-.145c.06-.067.1-.148.1-.204 0-.024-.008-.027-.091-.034-.174-.015-.238-.074-.226-.21.018-.194.19-.462.296-.462.06 0 .124.116.152.278l.014.078h.138c.078 0 .169-.008.21-.017.069-.017.38-.13.394-.142.01-.01.005-.013-.122-.06-.16-.062-.25-.068-.345-.025-.075.034-.092.028-.076-.027.035-.122.129-.238.21-.263.06-.018.116-.002.373.102.238.098.346.124.51.124.07 0 .13.004.132.009a.978.978 0 0 1 0 .135l-.007.125h-.162c-.256.002-.415.048-.73.211-.249.13-.307.148-.45.148-.107 0-.113.001-.113.025 0 .1-.114.357-.213.48-.13.163-.318.235-.447.17zm.57-.996c.014-.014-.024-.114-.055-.144-.033-.034-.06-.023-.09.037-.032.064-.034.115-.005.123a.335.335 0 0 0 .15-.016zm-2.04.878a1.297 1.297 0 0 0-.113-.068l-.103-.057.042-.071c.024-.04.055-.099.07-.133l.03-.062.061.04a1.568 1.568 0 0 0 .173.097c.004.004-.14.265-.146.265a.053.053 0 0 1-.013-.01zm-.72-.174l-.115-.066.024-.037c.014-.02.046-.08.072-.13.026-.05.051-.09.056-.087l.089.053a.616.616 0 0 0 .09.05.09.09 0 0 1 .03.014c.019.015.015.025-.053.143-.04.07-.073.127-.075.126l-.117-.066zm1.528-.202a.758.758 0 0 1-.117-.098 5.83 5.83 0 0 1 .141-.212.926.926 0 0 1 .105.07c.118.084.111.085.188-.03l.051-.076c.005-.006.23.156.23.166 0 .008-.122.193-.143.216-.005.006-.05-.014-.1-.044a.673.673 0 0 0-.1-.055.365.365 0 0 0-.072.077 1.331 1.331 0 0 1-.063.077l-.12-.09zm.091-.382a.498.498 0 0 1-.118-.09c.006-.025.134-.231.143-.231.014 0 .232.147.233.157 0 .005-.03.062-.068.126l-.068.117zm.353-.29a.777.777 0 0 1-.233-.128c-.03-.035-.009-.044.088-.037a.57.57 0 0 0 .326-.07c.168-.085.377-.324.377-.433 0-.045-.034-.099-.116-.184l-.077-.08.068-.122a3.35 3.35 0 0 1 .073-.127c.01-.01.098.087.127.14a.623.623 0 0 1 .07.328c0 .147-.02.24-.077.357-.1.207-.329.384-.492.384a.526.526 0 0 1-.134-.027zm-7.939-.42a87.962 87.962 0 0 0-.855-.868c-.418-.42-.761-.77-.763-.775-.002-.01 1.16-1.188 1.89-1.917l.398-.397.003-1.621c.002-.891.006-1.623.009-1.626a24.3 24.3 0 0 1 .714-.013l.709-.008v.191H6.6l-.003 1.576-.003 1.576-.332.333c-.807.81-1.89 1.903-1.888 1.906 0 .002.335.336.741.743l.739.74-.003.132-.003.132zm7.41.052c-.096-.036-.241-.126-.241-.15a.65.65 0 0 1 .15-.014c.179-.006.241-.026.369-.116.125-.088.26-.25.289-.346.018-.06-.005-.11-.093-.205a4.23 4.23 0 0 1-.077-.085c-.008-.01.006-.048.045-.12.088-.164.077-.156.135-.096.099.101.142.231.142.425 0 .229-.07.404-.227.559-.122.121-.229.176-.34.176a.45.45 0 0 1-.151-.028zm1.485-.01a5.101 5.101 0 0 1-.012-.282c-.007-.283-.023-.476-.096-1.157a37.67 37.67 0 0 1-.124-1.363l-.014-.201.043-.113c.06-.158.185-.452.203-.478.013-.02.016-.012.021.053a74.424 74.424 0 0 0 .162 2.47 3.47 3.47 0 0 1-.006.63c-.03.184-.13.48-.161.48-.005 0-.013-.018-.016-.04zm-5.604-.092a3.637 3.637 0 0 0-.11-.064l-.055-.032.04-.063a1.13 1.13 0 0 0 .071-.132l.03-.067.039.025c.02.014.073.045.115.069a1 1 0 0 1 .081.046 1.69 1.69 0 0 1-.147.249.211.211 0 0 1-.064-.03zm2.953-.23a.642.642 0 0 1-.345-.17c-.177-.168-.197-.443-.053-.726a.582.582 0 0 1 .097-.151.232.232 0 0 1-.02.064c-.123.327.029.566.412.646.099.02.144.023.3.017.31-.01.532-.09.57-.204.018-.057-.001-.083-.103-.139-.194-.107-.256-.174-.263-.285-.006-.091.023-.173.103-.295a.652.652 0 0 1 .238-.232c.062-.03.077-.032.29-.038.31-.01.309-.007.482-.324.104-.191.163-.245.265-.245.139 0 .22.182.22.492v.134l-.05.044a.497.497 0 0 1-.097.065c-.054.025-.064.022-.249-.064a.667.667 0 0 0-.147-.055c-.022 0-.06.031-.15.124a.72.72 0 0 1-.149.13 2.92 2.92 0 0 1-.23.011c-.224.006-.272.016-.326.066-.03.029-.036.043-.036.09 0 .08.052.128.208.194.222.093.275.17.22.327-.08.225-.324.413-.65.5-.145.038-.413.05-.537.023zm2.063-1.59c.032-.084-.075-.303-.148-.303-.027 0-.089.06-.114.11-.048.093-.022.137.114.192.094.04.133.04.148 0zm.972 1.5a1.36 1.36 0 0 0-.1-.063c-.006-.002 0-.024.016-.047.014-.024.043-.083.065-.132l.038-.088.086.058.105.068c.017.01.011.026-.045.137a.968.968 0 0 1-.07.126 1.08 1.08 0 0 1-.095-.06zm-1.648-.604a3.241 3.241 0 0 0-.109-.065l-.055-.031.048-.08a1.48 1.48 0 0 0 .071-.131l.023-.051.038.025a2.577 2.577 0 0 0 .195.113 1.66 1.66 0 0 1-.146.25c-.006.003-.036-.01-.065-.03zm-3.25-6.578v-.13l.334-.325c.462-.452.711-.7.912-.905l.172-.176.003.126.003.126-.707.702-.712.707a.7.7 0 0 1-.005-.125z"/></svg>