<svg viewBox="0 0 24 24" xmlns="http://www.w3.org/2000/svg" role="img"><path d="M2.308 22.888c-.733-.123-1.4-.501-1.73-.98-.671-.976-.755-2.287-.266-4.16.3-1.148.666-2.095 1.309-3.383.506-1.013.889-1.678.976-1.695.057-.011.064.004.042.094-.015.06-.232.55-.483 1.09-.69 1.487-1.005 2.349-1.204 3.29-.16.749-.13 1.575.069 2.013.432.95 1.427 1.391 2.896 1.287 1.577-.113 3.263-1.164 3.912-2.441.132-.26.207-.603.158-.722-.076-.182-.467-.366-1.137-.536-.283-.072-.634-.265-.79-.435-.259-.28-.334-.757-.212-1.34.06-.28.079-.332.6-1.599.317-.769.59-1.54.665-1.879a1.553 1.553 0 0 0-.032-.797 7.838 7.838 0 0 0-.547-1.187c-.117-.207-.213-.414-.213-.458 0-.13.74-2.265.814-2.351.03-.036.256.127.404.291.353.393.639 1.117.716 1.816.09.803-.09 1.592-.725 3.178-.212.53-.478 1.21-.592 1.51l-.208.548.126.115c.071.064.292.179.505.261.868.336 1.02.448 1.134.83.173.583-.042 2.029-.491 3.312-.728 2.076-2.138 3.64-3.763 4.172a4.127 4.127 0 0 1-1.933.156zm5.894-3.371c-.037-.01-.066-.037-.066-.062 0-.05.099-.12.594-.418.908-.546 1.604-1.054 2.103-1.533.632-.607 1.034-1.229 1.696-2.622.249-.523.483-.984.52-1.023.077-.08.189-.06.189.034 0 .032-.077.286-.171.563-.195.575-.234.865-.173 1.27.088.574.271.941.54 1.08.15.078.537.077.656-.001.049-.032.17-.224.271-.427.135-.273.203-.372.262-.38.046-.007.09.013.103.049.052.137-.272 1.377-.496 1.897-.365.846-.892 1.313-1.403 1.244a1.264 1.264 0 0 1-.72-.388c-.17-.193-.373-.673-.407-.963-.012-.101-.033-.183-.045-.183-.013.001-.112.133-.22.293-.4.595-.934 1.06-1.403 1.222-.202.07-1.649.379-1.728.37a1.004 1.004 0 0 1-.102-.022zm8.06-.426c0-.068.102-.145.869-.656 1.027-.684 1.593-1.187 2.001-1.78.096-.14.305-.552.305-.603 0-.006-.124.021-.275.06-.205.054-.36.068-.617.056-.298-.013-.374-.032-.575-.14-.235-.124-.389-.284-.464-.48-.065-.168-.047-.5.042-.767.148-.443.486-1.14.735-1.514.438-.659.73-.818 1.2-.657.334.113.742.668.806 1.095.014.093.043.18.063.193.084.051 1.58-1.547 1.58-1.688 0-.047-.66-.388-1.044-.54-.494-.195-.784-.24-1.055-.16-.185.053-.26.107-.552.4-.338.339-.461.403-.505.265-.033-.102.054-.29.377-.816.365-.596.53-.78.833-.929.223-.11.267-.118.518-.101.183.012.406.064.671.158.834.296 1.071.365 1.338.387a1.58 1.58 0 0 0 1.104-.31.762.762 0 0 1 .217-.113c.082-.02.106-.008.145.079.042.091.029.156-.117.58a7.43 7.43 0 0 1-.315.77c-.128.25-.174.303-.307.364-.222.101-.266.146-1.576 1.573-1.431 1.559-1.533 1.68-1.585 1.873a8.432 8.432 0 0 1-.25.649c-.506 1.2-.95 1.898-1.375 2.163-.472.295-2.192.757-2.192.589zm-1.906-8.207c-.227-.188-.511-.41-.633-.492-.219-.148-.22-.151-.167-.252.03-.057.332-.528.673-1.048.472-.72.639-.948.704-.957.218-.031.91.573 1.083.946.112.24.125.556.031.795-.202.52-.955 1.354-1.219 1.351-.032 0-.245-.154-.472-.343zm6.779-4.298a12.2 12.2 0 0 0-.615-.49c-.217-.149-.274-.017.553-1.275.42-.637.646-.948.696-.956.107-.016.62.34.823.57.44.501.467.935.1 1.553-.257.432-.834.972-1.032.966-.053-.002-.26-.147-.525-.368zM6.223 3.79a16.433 16.433 0 0 0-.636-.493c-.119-.082-.173-.143-.158-.18a61.52 61.52 0 0 1 1.301-1.99.198.198 0 0 1 .13-.067c.11 0 .472.254.73.51.521.519.56 1.003.13 1.66-.306.467-.797.93-.987.93-.03 0-.26-.166-.51-.369z"/></svg>