<svg role="img" viewBox="0 0 24 24" xmlns="http://www.w3.org/2000/svg"><path d="M12.95 1.3h1.411v2.75l2.496-.003L18.309 5.5h-.87l-.65 1.123.558.002.004.82.916.006-.004 1.229.937-.003-.01 1.738a1.217 1.217 0 0 1 .67.399c.05.063.092.133.125.207l.012.027.007.018h.082a1.112 1.112 0 0 1 .407.107c.34.19.607.49.757.85.028.06.055.12.08.18l.015.038s.114.278.164.419c.052.124.093.253.123.384l-.318.1s-.169-.32-.427-.32h-1.855l-.32.493h1.111v.815h.715v.918h-.718v.622h-1.134l-.003.407h-.921l.004 4.627-3.91.004v1.815h-.887V24h-1.94v-1.471h-.883v-1.816l-3.911-.004.004-4.626h-.921l-.003-.407H4.177v-.622h-.714v-.927h.714v-.815h1.11l-.32-.493H3.114c-.258 0-.427.32-.427.32l-.318-.1c.03-.131.07-.26.123-.384.05-.141.164-.419.164-.419l.015-.037c.025-.061.05-.122.08-.181.15-.36.417-.66.757-.85a1.083 1.083 0 0 1 .407-.106h.082l.008-.019.011-.027a.966.966 0 0 1 .126-.207 1.217 1.217 0 0 1 .663-.393l-.009-1.738.937.003L5.73 7.45l.917-.006.003-.82.559-.002L6.56 5.5h-.87l1.45-1.454 2.495.003V1.3h1.414V0h1.9zm.494 20.829v-1.42h-.884v.815h-1.12v-.814h-.884v1.419h.882V23.6h1.125v-1.471zm3.903-1.82v-4.45H6.651v4.45zm-1.762-.534a.145.145 0 0 1-.005.074.527.527 0 0 1-.04.09.33.33 0 0 1-.073.09.08.08 0 0 1-.046.028.129.129 0 0 1-.05-.031 4.984 4.984 0 0 0-.066-.053.525.525 0 0 1-.05-.043.056.056 0 0 1-.022-.035l.032-.068a4.22 4.22 0 0 1 .054-.11 2.62 2.62 0 0 0 .064-.107l.022-.031a.144.144 0 0 0 .021.017l.029.017a.68.68 0 0 1 .1.09c.016.02.027.045.032.072zm-2.678-.496c.162 0 .322-.015.48-.047.14-.027.279-.064.414-.112a1.43 1.43 0 0 0 .61-.423 37.7 37.7 0 0 0 .147-.192c.01-.012.012-.01.015-.007a.019.019 0 0 1 .003.013l-.003.038-.016.133c-.008.06-.012.12-.013.179a.662.662 0 0 0 .045.261.163.163 0 0 0 .162.103c.05 0 .1-.037.147-.111.056-.098.096-.204.118-.315l.009-.044a.242.242 0 0 0 .005-.042c0-.023-.006-.034-.018-.034-.012 0-.017.01-.023.031l-.016.055c-.026.071-.056.106-.09.106a.195.195 0 0 1-.11-.03.223.223 0 0 1-.079-.197v-.053a4.568 4.568 0 0 1 .043-.454l.075-.361.01-.053.084-.057.334-.253a26.2 26.2 0 0 0 .286-.187c.083-.054.164-.11.243-.169a11.742 11.742 0 0 0 .472-.359 2.231 2.231 0 0 0 .229-.224c.035-.04.068-.083.097-.129a.487.487 0 0 0 .075-.156c0 .004-.09.08-.268.227a12.98 12.98 0 0 1-.283.233c-.102.081-.207.16-.314.236-.152.106-.305.212-.458.316a4.67 4.67 0 0 0-.423.34.435.435 0 0 0-.095.113.823.823 0 0 0-.044.085l-.016.031a1.45 1.45 0 0 0-.078.176l-.05.196a.85.85 0 0 1-.118.254.858.858 0 0 1-.275.237 2.198 2.198 0 0 1-.958.272 4.01 4.01 0 0 1-.325.01.694.694 0 0 1-.468-.103.196.196 0 0 1-.05-.118c-.004-.045-.01-.067-.016-.067-.02 0-.034.039-.045.117a1.72 1.72 0 0 0-.016.227.29.29 0 0 0 .056.194.36.36 0 0 0 .209.091c.082.013.166.02.25.018zm-1.057-.54v.003c.05-.049.08-.079.089-.09a.525.525 0 0 0 .09-.142c.028-.072.05-.147.062-.224.015-.07.024-.143.026-.215v-.189c0-.066.004-.133.013-.2 0-.062.003-.1.003-.117v-.009a.473.473 0 0 0 .028-.017l.106-.072.255-.172.296-.195a5.61 5.61 0 0 0 .25-.177l.3-.226.19-.15a2.375 2.375 0 0 0 .242-.239 1.236 1.236 0 0 0 .178-.28.065.065 0 0 0 .009-.031c0 .005-.094.085-.28.24a7.767 7.767 0 0 1-.623.497c-.158.112-.316.222-.475.331-.122.081-.239.17-.35.265a.477.477 0 0 0-.087.1.906.906 0 0 0-.064.116l-.006.014v.003l-.12.28a.25.25 0 0 0-.019.089 2.285 2.285 0 0 0-.003.136l.003.224a.52.52 0 0 1-.035.214.332.332 0 0 1-.041.065.161.161 0 0 1-.041.038l-.022.01a.105.105 0 0 1-.05-.006.866.866 0 0 1-.036.05.155.155 0 0 1-.075.053.036.036 0 0 1-.043-.006 1.025 1.025 0 0 0-.046.047.128.128 0 0 1-.086.04.624.624 0 0 1-.097-.007 7.752 7.752 0 0 0-.154.107.253.253 0 0 1-.143.04.233.233 0 0 1-.214-.104.322.322 0 0 1-.04-.17c0-.027 0-.07.008-.131.006-.072.014-.143.025-.214l.06-.408.015-.087a.158.158 0 0 0 .004-.053l-.015.006a3.793 3.793 0 0 0-.142.324 21.522 21.522 0 0 0-.104.823.797.797 0 0 0 .024.178.232.232 0 0 0 .226.177.285.285 0 0 0 .236-.147c.066-.098.12-.147.16-.147l.05.005a.156.156 0 0 0 .042 0 .215.215 0 0 0 .07-.044.624.624 0 0 1 .064-.05.12.12 0 0 1 .05-.015.096.096 0 0 0 .043-.013.397.397 0 0 1 .09-.066l.08-.038.021-.017zm-2.615-.389a.866.866 0 0 1-.018.138c-.012.064-.024.12-.036.168l-.043.169a1.057 1.057 0 0 1-.116.247.255.255 0 0 1-.055.064.625.625 0 0 1-.097.056l-.128.05a.702.702 0 0 1-.084.02.569.569 0 0 1-.084.015c-.012 0-.02-.004-.022-.012a.037.037 0 0 1 .007-.03.365.365 0 0 1 .09-.085l.145-.106c.055-.049.095-.087.122-.114a.769.769 0 0 0 .107-.141.447.447 0 0 0 .03-.07l.063-.174.043-.124a.706.706 0 0 1 .021-.067c.01-.026.022-.04.036-.04a.07.07 0 0 1 .018.035zm-.343-.958a.025.025 0 0 0-.003-.022.073.073 0 0 0-.025-.02.406.406 0 0 0-.125.05 1.67 1.67 0 0 0-.244.162c-.065.058-.126.12-.182.185a1.23 1.23 0 0 0-.19.283.591.591 0 0 0-.068.238.15.15 0 0 0 .029.097.2.2 0 0 0 .082.059.272.272 0 0 0 .05.018l.071.019c.034.01.05.024.05.043a.217.217 0 0 1-.037.11.686.686 0 0 1-.288.25.71.71 0 0 1-.296.064.473.473 0 0 1-.288-.076.244.244 0 0 1-.1-.205c.012-.128.047-.254.104-.37l.043-.09c.028-.06.05-.103.064-.13a.866.866 0 0 0 .05-.105c.007-.02.02-.047.034-.08a.074.074 0 0 0 .007-.035c0-.02-.008-.029-.025-.029-.007 0-.016.009-.027.026l-.03.05-.082.159-.104.204c-.043.085-.08.172-.11.263a1.118 1.118 0 0 0-.058.337c0 .048.007.097.021.144.015.052.041.1.075.144a.391.391 0 0 0 .333.136.657.657 0 0 0 .346-.091.774.774 0 0 0 .147-.11c.042-.04.082-.083.118-.13.07-.1.125-.21.16-.328.038-.108.059-.221.062-.335a.156.156 0 0 0-.057-.143.142.142 0 0 0-.038-.02l-.044-.015-.065-.03a.088.088 0 0 1-.025-.055.194.194 0 0 1 .05-.084.912.912 0 0 1 .145-.14.618.618 0 0 1 .146-.097.3.3 0 0 1 .115-.032.04.04 0 0 1 .023.008l.027.018c.014 0 .03-.013.05-.04a.902.902 0 0 0 .04-.075.76.76 0 0 0 .05-.104.418.418 0 0 0 .022-.076zm1.493 1.39-.05.127a.744.744 0 0 1-.077.129.344.344 0 0 1-.073.079.554.554 0 0 1-.107.046l-.075.028a3.487 3.487 0 0 0-.115.038.495.495 0 0 1-.114.024l-.015-.008c0-.016.043-.05.129-.103l.14-.096a.889.889 0 0 0 .172-.146.288.288 0 0 0 .065-.106.09.09 0 0 1 .004-.021l-.093.007a.15.15 0 0 1-.107-.04.097.097 0 0 1-.036-.087.297.297 0 0 1 .018-.065 1.77 1.77 0 0 1 .129-.248c.03-.041.06-.062.09-.062.047 0 .093.022.124.059a.2.2 0 0 1 .054.14.49.49 0 0 1-.007.083l-.013.072a.943.943 0 0 1-.016.074.42.42 0 0 1-.025.074zm-.539-.459a.876.876 0 0 1-.018.138c-.012.064-.024.12-.036.168l-.043.171a1.057 1.057 0 0 1-.116.247.263.263 0 0 1-.055.064.634.634 0 0 1-.097.057l-.128.05a.702.702 0 0 1-.084.02.569.569 0 0 1-.084.014c-.012 0-.02-.004-.022-.012-.002-.01 0-.02.007-.029a.361.361 0 0 1 .091-.086l.145-.106c.055-.048.095-.086.122-.114a.77.77 0 0 0 .107-.141.451.451 0 0 0 .03-.07l.063-.174.043-.124a.889.889 0 0 1 .021-.067c.01-.026.022-.04.036-.04.009.01.015.021.018.034zm5.535.272c0-.028 0-.072.007-.134.006-.074.015-.147.025-.22l.061-.42.015-.089a.162.162 0 0 0 .003-.055l-.014.007a4.32 4.32 0 0 0-.143.333 22.523 22.523 0 0 0-.104.845.662.662 0 0 0 .044.262.163.163 0 0 0 .163.103c.05 0 .099-.038.146-.112a.996.996 0 0 0 .118-.314l.01-.045a.242.242 0 0 0 .005-.041c0-.023-.006-.035-.018-.035-.012 0-.017.01-.023.031l-.016.055c-.027.071-.056.107-.09.107a.195.195 0 0 1-.11-.031.223.223 0 0 1-.08-.196v-.05zM9.4 17.572a.145.145 0 0 1-.005.074.541.541 0 0 1-.04.089.33.33 0 0 1-.073.091.079.079 0 0 1-.046.028.127.127 0 0 1-.05-.031 1.54 1.54 0 0 0-.068-.054.518.518 0 0 1-.05-.043.056.056 0 0 1-.022-.034 2.11 2.11 0 0 0 .032-.069l.054-.11.064-.106.022-.031a.147.147 0 0 0 .021.017l.029.017a.67.67 0 0 1 .1.09c.017.02.028.045.032.072zm1.874-.457a.156.156 0 0 0-.032-.072.677.677 0 0 0-.1-.09l-.029-.017a.141.141 0 0 1-.021-.017l-.022.031a3.568 3.568 0 0 1-.064.106l-.054.11-.032.069c.003.014.01.026.022.035.015.015.032.03.05.043l.068.053a.125.125 0 0 0 .05.03.079.079 0 0 0 .046-.027.332.332 0 0 0 .074-.091.531.531 0 0 0 .04-.09.145.145 0 0 0 .005-.074zm.368-.021a.145.145 0 0 1-.006.074.531.531 0 0 1-.04.09.327.327 0 0 1-.072.09.079.079 0 0 1-.047.028.129.129 0 0 1-.05-.031 1.54 1.54 0 0 0-.068-.053.518.518 0 0 1-.05-.043.056.056 0 0 1-.021-.035l.032-.068.053-.11a.825.825 0 0 1 .065-.107l.021-.031a.13.13 0 0 0 .022.017l.028.018a.68.68 0 0 1 .1.089c.017.02.029.045.033.072zm3.283-.025a.146.146 0 0 1-.005.074.527.527 0 0 1-.04.089.333.333 0 0 1-.073.091.079.079 0 0 1-.046.028.128.128 0 0 1-.05-.031 1.54 1.54 0 0 0-.068-.054.493.493 0 0 1-.05-.043.056.056 0 0 1-.022-.034 2.11 2.11 0 0 0 .032-.069l.054-.11.064-.106.022-.031a.147.147 0 0 0 .021.017l.029.017c.036.026.07.056.1.09.017.02.028.045.033.072zm-3.47-.4a.155.155 0 0 0-.032-.072.656.656 0 0 0-.1-.09l-.028-.017a.13.13 0 0 1-.022-.017l-.021.031a4.987 4.987 0 0 1-.065.106 2.86 2.86 0 0 0-.086.179c.003.014.01.026.022.034a.81.81 0 0 0 .05.045l.068.054a.128.128 0 0 0 .05.029.079.079 0 0 0 .046-.028.33.33 0 0 0 .073-.09.537.537 0 0 0 .04-.09.146.146 0 0 0 .005-.074zM9.78 15.464v-3.25l-1.4-1.4-3.115.002c-.771 0-.936.284-.942.741-.57-.287-1.024.144-1.3.863h3.462l1.98 3.044zm2.02-.003v-3.708l-1.393-1.013V5.524l-.636-1.1L7.34 4.42l-.55.55h.854l.935 1.62v3.856l1.6 1.6v3.415zm-3.813 0-1.72-2.644h-.813l1.715 2.644zm9.221-10.486-.55-.55h-2.43l-.636 1.1v5.216l-1.393 1.012v3.708h1.622l-.002-3.411 1.6-1.6V6.595l.935-1.62zm-1.674 10.486 1.98-3.044 3.462-.002c-.274-.718-.728-1.151-1.3-.862-.005-.457-.17-.742-.942-.742h-3.113l-1.4 1.4v3.25zm1.295 0 1.718-2.644h-.814l-1.72 2.644zm1.904-.715v-.455h-.667l-.296.455zm-12.505 0-.295-.455h-.667v.455zM12.538 1.7 12.54.4h-1.08v1.3h-1.41l-.004 2.4.762 1.318v5.118l.992.722v-1.187l-.356-.259V2.418h1.112v7.394l-.356.26v1.187l.993-.72V5.42l.762-1.32-.005-2.4zm3.682 8.713v-3.62l.82-1.42h-.454L15.82 6.7v3.713zm-9.25 0h.4V9.221h-.4zm.444-5.04h-.453l.82 1.42v3.62h.4V6.7zm9.216 5.04h.4V9.221h-.4z"/></svg>