<svg viewBox="0 0 24 24" xmlns="http://www.w3.org/2000/svg" role="img"><path d="M14.702 23.985c-.067-.014-.068-.168-.043-9.041.024-9.009.021-9.319-.089-9.533a.398.398 0 0 1-.032-.152c0-.05-.016-.09-.035-.09-.02 0-.033-.012-.029-.026a1.193 1.193 0 0 0-.072-.348.343.343 0 0 1-.033-.105.27.27 0 0 0-.045-.11.3.3 0 0 1-.043-.137c-.005-.052-.018-.095-.03-.095-.036 0-.236-.497-.22-.546.005-.017-.004-.022-.02-.012-.016.01-.067-.057-.114-.149a2.587 2.587 0 0 0-.17-.283c-.046-.064-.077-.116-.067-.116.01 0-.036-.06-.103-.132-.066-.073-.112-.145-.102-.161.01-.017-.003-.026-.03-.02-.025.005-.042-.012-.037-.038.006-.026-.005-.038-.023-.027-.017.011-.052-.004-.076-.033-.024-.03-.032-.053-.017-.053.016 0 0-.032-.036-.071-.036-.04-.052-.072-.037-.072s.008-.024-.017-.053c-.024-.03-.055-.046-.07-.037-.03.019-.247-.197-.25-.249a.038.038 0 0 0-.037-.036.463.463 0 0 1-.15-.107c-.062-.059-.1-.083-.083-.053.017.03-.012.014-.064-.033-.107-.097-.13-.145-.033-.07.057.045.058.044.013-.014-.027-.035-.059-.055-.07-.044-.01.01-.067-.025-.126-.08-.061-.055-.086-.067-.056-.027.048.066.047.068-.01.023-.035-.027-.063-.071-.063-.099 0-.027-.03-.049-.064-.049a.168.168 0 0 1-.104-.039c-.024-.024-.072-.028-.123-.01a.821.821 0 0 1-.104.03.28.28 0 0 0-.083.064c-.035.034-.075.062-.091.062a.706.706 0 0 0-.167.143c-.076.078-.154.138-.174.134-.02-.005-.106.067-.192.16-.086.093-.168.162-.183.152-.015-.009-.048.007-.072.036-.024.03-.034.053-.023.053.032 0-.145.251-.28.398-.066.072-.11.14-.099.152.012.012.003.021-.02.021s-.041.016-.041.035c0 .056-.183.305-.218.296-.018-.005-.03.003-.026.017a.574.574 0 0 1-.053.165.892.892 0 0 0-.06.168c0 .016-.036.054-.08.085-.046.032-.059.055-.03.055.038 0 .036.015-.01.066a.233.233 0 0 0-.06.116.76.76 0 0 1-.07.193.799.799 0 0 0-.07.186.634.634 0 0 1-.072.17c-.041.073-.055.126-.032.126.029 0 .028.014 0 .049a.55.55 0 0 0-.063.205.897.897 0 0 1-.052.215.543.543 0 0 0-.04.17c-.004.06-.02.11-.034.11-.015 0-.024.201-.02.447.005.245-.003.446-.018.446s-.027 3.126-.027 6.947c0 3.82-.01 7.085-.023 7.254-.015.196-.042.33-.077.37-.03.034-.042.062-.027.062.016 0 .008.024-.016.053-.025.03-.103.054-.177.054-.073 0-.145.012-.16.027a.118.118 0 0 1-.068.028c-.023 0-.038.018-.035.038.004.02-.065.063-.153.095-.088.033-.15.044-.138.025.012-.02.005-.035-.015-.035s-.05.025-.067.056a.146.146 0 0 1-.094.065c-.034.005-.073.025-.086.044-.026.037-.313.13-.348.113-.011-.006-.036.018-.055.052-.02.035-.063.063-.096.063a.454.454 0 0 0-.159.052c-.065.034-.098.037-.098.01 0-.021-.036-.007-.08.032-.117.102-.269.16-.363.135-.065-.016-.088-.003-.107.063-.024.078-.027.079-.053.013s-.028-.066-.048.01a.156.156 0 0 1-.086.099c-.09.028-.327.12-.468.182-.064.028-.135.039-.157.025-.025-.015-.031-.009-.016.016.014.023.008.041-.014.041a.981.981 0 0 0-.207.079 1.204 1.204 0 0 1-.268.091.34.34 0 0 0-.17.082.294.294 0 0 1-.096.072c-.155.014-.231.037-.277.083-.03.03-.08.045-.11.033-.032-.012-.067-.007-.08.01-.048.067-.188.121-.317.125-.12.003-.125.007-.045.032.1.032.096.035-.049.054a.355.355 0 0 0-.166.071c-.047.043-.098.052-.192.034-.09-.017-.129-.011-.129.02 0 .023.024.034.054.022.03-.011.053-.006.053.011 0 .04-.323.112-.37.083-.019-.012-.021 0-.006.023.019.03.006.041-.04.033-.038-.006-.107.025-.154.069-.047.044-.114.08-.148.08-.034 0-.072.015-.083.033-.012.018-.053.027-.092.02-.045-.009-.07.006-.07.04 0 .037-.022.047-.07.032-.045-.014-.095.004-.143.051-.05.05-.12.073-.216.073H2.51l.003-8.646c.002-8.403.01-9.506.074-9.407.018.029.03-.04.03-.173 0-.14.017-.227.045-.24.036-.017.036-.025 0-.042-.033-.016-.025-.048.03-.127.042-.058.067-.116.055-.128-.012-.012-.022 0-.022.026s-.008.04-.019.03c-.01-.011.003-.07.03-.132.026-.063.058-.102.072-.09.013.014.024-.002.024-.036 0-.034-.013-.054-.03-.044-.015.01-.021-.03-.013-.09.009-.06.037-.116.063-.126.026-.01.038-.04.027-.068-.01-.028-.002-.05.02-.05.02 0 .029-.025.017-.054-.011-.03 0-.054.023-.054.024 0 .034-.023.023-.052-.01-.03-.005-.062.013-.073.018-.01.023-.043.012-.072-.01-.03-.002-.053.02-.053.021 0 .04-.032.04-.072 0-.04.023-.082.052-.093.03-.011.046-.033.036-.05-.022-.035.128-.32.17-.32.017 0 .02-.017.007-.038-.013-.021.008-.074.047-.116.039-.043.1-.142.136-.22.092-.202.18-.323.434-.6.123-.132.224-.259.224-.281 0-.056.54-.6.594-.6.025 0 .108-.061.186-.135.269-.255.337-.312.311-.259-.014.03 0 .023.03-.015.031-.038.057-.054.057-.036 0 .019.018.005.038-.029s.057-.062.082-.062c.026 0 .076-.033.112-.072.072-.08.252-.178.326-.178.026 0 .048-.015.048-.032 0-.018.025-.042.055-.053.037-.014.048-.006.033.023-.012.024 0 .02.025-.011.06-.069.365-.23.331-.174-.014.023.052-.005.147-.06.094-.055.16-.082.147-.06-.016.025 0 .032.047.02.04-.01.072-.033.072-.05s.038-.032.084-.032c.047 0 .103-.02.124-.046.02-.025.098-.05.172-.055.074-.005.143-.02.154-.034.01-.014.05-.03.09-.036a.982.982 0 0 0 .169-.048.36.36 0 0 1 .185-.017c.048.013.095.01.105-.005.009-.014.214-.032.457-.039.242-.007.456-.023.476-.035.02-.013 1.393-.034 3.052-.046A266.1 266.1 0 0 0 14.93.029a.258.258 0 0 1 .122.02c.052.022.061.017.039-.019-.02-.031-.015-.039.012-.022a.1.1 0 0 1 .041.077c0 .042.078.052.421.052.232 0 .437.014.455.032.019.018.107.04.195.051.408.048.754.132.981.24l.554.261c.414.196.92.492 1.21.708.087.065.317.274.51.466.194.19.367.348.384.348.045 0 .375.423.445.57.09.188.186.355.243.422.029.033.127.217.22.407.092.191.183.357.202.369.02.011.026.035.015.052-.01.017.014.089.053.16.04.07.072.156.072.19a.16.16 0 0 0 .033.098c.03.03.07.191.135.533a.435.435 0 0 0 .054.15c.019.024.024.06.01.082-.013.022-.006.06.014.085.021.025.041.14.045.257.004.116.018.236.032.265.032.068.083 15.237.052 15.318-.013.033-.074.071-.137.084a.48.48 0 0 0-.157.06c-.03.025-.045.024-.045-.004 0-.022-.028-.04-.062-.039-.047 0-.05.008-.016.03.037.023.035.038-.01.075-.044.037-.055.037-.055 0 0-.038-.01-.039-.042-.005-.14.14-.136.345-.136-7.379 0-4.909-.012-7.429-.036-7.443-.02-.012-.035-.177-.035-.37 0-.191-.015-.363-.033-.381a.57.57 0 0 1-.05-.213 2.629 2.629 0 0 0-.038-.268 5.203 5.203 0 0 1-.044-.214.585.585 0 0 0-.048-.16 1.603 1.603 0 0 1-.087-.25c-.093-.323-.187-.535-.528-1.187-.043-.083-.092-.151-.107-.151-.016 0-.029-.022-.029-.047 0-.026-.048-.093-.107-.15-.059-.056-.107-.116-.107-.133a.715.715 0 0 0-.134-.175 1.753 1.753 0 0 1-.165-.199c-.043-.077-.445-.474-.479-.474a.88.88 0 0 1-.186-.16.906.906 0 0 0-.185-.162c-.015 0-.124-.068-.244-.151-.398-.279-.5-.324-.55-.245-.01.018.201.256.47.53.472.48.688.723.688.775 0 .013.036.075.08.138.107.15.155.231.229.381a.48.48 0 0 0 .108.154c.026.015.047.06.047.1 0 .04.056.177.125.307.068.13.124.265.124.301 0 .036.013.066.027.066.04 0 .107.176.135.357a.869.869 0 0 0 .047.196c.045.072.112.288.112.364 0 .043.017.088.038.101.02.013.036.09.035.172-.001.082.014.35.035.595.02.245.035.502.032.57-.003.07-.002 1.135.003 2.37.005 1.62-.004 2.236-.032 2.219-.027-.017-.038.046-.036.201.001.159.011.204.033.154.017-.04.031 2.164.033 5.059.002 3.542-.01 5.13-.035 5.13-.02 0-.032.028-.027.063.008.047-.011.06-.078.056-.052-.004-.063 0-.027.011.034.01.062.035.062.054 0 .02-.02.03-.044.021-.025-.008-.093.012-.152.045a.46.46 0 0 1-.202.056c-.053-.002-.088.008-.079.023.03.049-.025.03-.083-.027-.05-.05-.055-.836-.047-7.897.006-5.308-.003-7.956-.029-8.198-.04-.391-.116-.782-.158-.824-.015-.014-.027-.08-.027-.145 0-.066-.016-.12-.035-.12-.02 0-.036-.038-.036-.086 0-.048-.016-.097-.036-.11-.02-.012-.035-.046-.035-.077 0-.057-.046-.172-.213-.53a3.398 3.398 0 0 1-.125-.294c-.013-.044-.038-.08-.056-.08-.017 0-.06-.06-.093-.134a1.341 1.341 0 0 0-.153-.244 2.414 2.414 0 0 1-.146-.194 2.6 2.6 0 0 0-.204-.25c-.084-.092-.14-.18-.125-.195.014-.016.008-.02-.014-.006-.037.021-.315-.243-.39-.373a1.342 1.342 0 0 0-.257-.208 1.63 1.63 0 0 1-.25-.193c-.08-.126-.83-.548-.9-.506-.06.038-.043.076.055.12.05.023.08.058.068.078-.012.02-.009.032.007.027.043-.014.296.224.287.27-.004.02.009.04.028.041.054.004.336.21.338.247 0 .017.07.108.153.2.188.21.384.477.384.524 0 .02.033.065.073.102.04.036.099.123.13.193.032.07.093.175.136.233.098.134.232.394.232.45 0 .024.042.133.093.243.154.33.263.668.274.848.004.062.02.105.034.096.015-.01.028.005.028.03.005.169.048.48.07.51.015.02.03.188.034.374.004.198.024.36.049.39.034.043.032.048-.011.023-.044-.024-.045-.02-.01.018.036.039.045 1.698.043 8.063-.002 4.408-.011 7.994-.02 7.97-.013-.029-.046-.014-.1.045-.045.049-.1.088-.123.088a.04.04 0 0 0-.04.038c0 .02-.016.028-.036.016-.02-.012-.035-.002-.035.021 0 .025-.01.034-.023.022-.012-.012-.046.002-.075.031-.047.048-.063.047-.138-.003-.051-.033-.086-.04-.086-.017 0 .021-.018.027-.041.013-.032-.02-.036-2.033-.019-8.363.014-4.878.01-8.357-.009-8.387-.018-.03-.018-.086.001-.136.021-.056.02-.078-.003-.063-.02.012-.036-.017-.036-.067s-.016-.1-.035-.112c-.02-.012-.036-.074-.036-.137 0-.064-.015-.131-.032-.15a.454.454 0 0 1-.049-.18.646.646 0 0 0-.047-.197.377.377 0 0 1-.041-.118.271.271 0 0 0-.042-.107.536.536 0 0 1-.057-.162 1.028 1.028 0 0 0-.131-.332 91.06 91.06 0 0 1-.145-.276c-.23-.44-.281-.525-.419-.685a1.005 1.005 0 0 1-.143-.193 1.63 1.63 0 0 0-.206-.248 24.119 24.119 0 0 1-.363-.402c-.088-.1-.17-.175-.183-.167-.013.008-.06-.025-.106-.073-.046-.049-.108-.089-.14-.089-.047 0-.048-.005-.004-.033.041-.026.03-.042-.053-.079a.647.647 0 0 1-.123-.066c-.064-.068-.534-.357-.58-.357-.033 0-.068-.016-.08-.035-.034-.055-.125-.043-.125.017 0 .029.044.08.098.116.151.097.542.479.533.521-.004.021.012.04.036.04.044.002.15.091.109.091-.013 0 .047.077.134.171.214.233.322.384.429.602.05.1.114.203.143.227.029.024.052.06.052.08 0 .021.04.09.09.155a.43.43 0 0 1 .089.17c0 .029.056.158.125.288.068.13.125.267.125.306 0 .04.016.071.035.071.02 0 .036.04.036.087 0 .048.017.098.039.111.022.014.032.074.023.135a.203.203 0 0 0 .05.18c.037.04.066.116.066.17 0 .054.014.106.03.117.017.01.041.144.054.296.013.153.034.326.047.385.013.06.019 3.946.014 8.637-.01 9.54.014 8.747-.265 8.829a5.969 5.969 0 0 0-.2.063c-.048.016-.048.014 0-.021.043-.033.036-.038-.037-.03-.057.007-.087.032-.084.07.003.037-.015.053-.045.041-.027-.01-.04-.032-.03-.048.01-.015.001-.034-.018-.04-.023-.008-.039-3.108-.045-8.917-.007-6.553-.02-8.924-.05-8.976a1.05 1.05 0 0 1-.138-.419c-.012-.093-.037-.178-.056-.19-.018-.01-.033-.058-.033-.105 0-.046-.057-.194-.127-.328-.074-.14-.121-.277-.113-.322.009-.044.002-.071-.014-.061-.016.01-.053-.037-.08-.104a.416.416 0 0 0-.091-.147c-.022-.013-.031-.04-.02-.058.011-.018.005-.033-.015-.033s-.044-.03-.056-.065a.464.464 0 0 0-.082-.135 1.303 1.303 0 0 1-.13-.194c-.12-.219-.793-.958-1.003-1.103-.079-.054-.139-.118-.133-.142.005-.024-.006-.034-.024-.023-.02.012-.045.004-.058-.017a.261.261 0 0 0-.101-.072 2.394 2.394 0 0 1-.291-.191c-.118-.088-.235-.16-.26-.161-.027-.001-.04-.016-.03-.032.011-.017 0-.031-.024-.033a1.404 1.404 0 0 1-.159-.028c-.111-.025-.163.021-.082.071.02.012.03.041.024.065-.006.024-.004.032.004.019.027-.047.135.017.305.18.098.095.162.185.151.214-.012.031-.001.042.03.03.05-.019.344.25.344.314 0 .018.058.092.128.163.07.072.13.154.135.182.008.06.144.261.263.39a.361.361 0 0 1 .09.168c.004.04.015.068.026.061.011-.007.123.2.247.458.125.258.24.498.258.532a.38.38 0 0 1 .031.143c0 .044.025.126.054.183a.47.47 0 0 1 .053.167c0 .037.015.103.032.148.082.21.11.365.163.903.004.04.018.095.031.125.014.03.02 4.053.015 8.94l-.009 8.887-.098.012c-.054.006-.098.023-.098.038 0 .016-.041.047-.091.07-.053.024-.083.026-.07.006.012-.02-.002-.036-.032-.036-.036 0-.047.02-.032.06.015.037.009.05-.016.035-.021-.014-.047-.004-.056.02-.01.025-.02.013-.022-.026-.004-.062-.01-.065-.048-.017a.125.125 0 0 1-.112.041zm-11.3-.578c0-.02-.006-.036-.015-.036s-.025.017-.038.036c-.012.02-.005.036.016.036.02 0 .038-.016.038-.036zm13.35-.25c0-.02-.026-.035-.056-.035-.031 0-.046.016-.034.035.012.02.037.036.056.036.018 0 .033-.016.033-.036zM3.867 22.66c-.061-.039-.056-.045.094-.121.087-.044.118-.047.132-.014.013.03.036.023.076-.027.031-.04.076-.071.1-.071.03 0 .046-.12.053-.415.01-.392.006-.416-.062-.434-.04-.01-.065-.006-.055.009.01.015-.01.05-.043.077-.037.03-.05.032-.034.006.018-.03-.004-.028-.071.007-.053.027-.108.043-.122.034-.014-.009-.035.008-.046.037-.011.03-.042.045-.069.034-.104-.04-.148.172-.138.651.005.199.014.222.086.236.138.027.153.025.099-.009zM4 22.6c-.012-.012-.043-.013-.068-.003-.029.012-.02.02.021.022.038.002.059-.007.047-.019zm2.391-.428c-.012-.012-.042-.013-.068-.003-.029.011-.02.02.021.022.038.002.06-.007.047-.019zm.135-.05c.012-.02.005-.035-.016-.035-.02 0-.038.016-.038.035 0 .02.007.036.016.036.009 0 .026-.016.038-.036zm.178-.071c.012-.02.005-.036-.015-.036a.037.037 0 0 0-.038.036c0 .02.007.036.015.036.01 0 .026-.017.038-.036zm13.01-.123c0-.038-.069-.053-.09-.02-.012.02.003.036.034.036.03 0 .055-.007.055-.016zm1.729-.731a.042.042 0 0 0-.016-.056c-.02-.012-.036.003-.036.033 0 .063.021.072.052.023zm-17.585-.07c-.005-.018.001-.03.014-.027.013.003.056-.025.097-.062.045-.04.103-.06.148-.048.048.013.099-.007.144-.055.06-.065.07-.127.07-.461 0-.213-.012-.387-.027-.389-.015 0-.065-.01-.11-.018-.062-.011-.08-.002-.066.035.014.036-.023.056-.14.074-.241.036-.299.12-.303.445-.006.38.005.48.052.51.057.037.132.034.121-.005zm5.229-.063a.136.136 0 0 0-.09 0c-.024.01-.004.018.045.018.05 0 .07-.008.045-.018zM3.85 19.592a.465.465 0 0 1 .22-.053c.058.01.075 0 .061-.036a.066.066 0 0 1 .025-.077c.027-.017.034-.012.018.014-.016.025-.003.041.032.041.032 0 .049-.014.038-.031-.01-.018.005-.052.034-.076.04-.034.053-.132.053-.43 0-.393-.033-.493-.122-.37a.213.213 0 0 1-.132.071c-.047.005-.09.01-.094.012-.005.002-.021.004-.036.006a.291.291 0 0 0-.095.063c-.038.033-.06.043-.047.023.012-.02-.011-.04-.05-.043-.059-.004-.064.004-.03.046.024.028.028.052.009.052-.043 0-.085.553-.057.729.012.07.024.127.028.127.003 0 .069-.03.145-.067zm-.09-1.463c0-.018.025-.042.055-.053.032-.013.046-.006.034.014-.028.045-.006.044.104-.006.05-.023.081-.056.07-.074-.011-.018.001-.03.028-.026.091.012.141-.002.12-.035-.01-.019.017-.039.061-.045.078-.011.081-.027.091-.413.01-.364.004-.402-.053-.404a.94.94 0 0 1-.13-.016c-.036-.007-.056-.003-.045.008.035.035-.051.114-.102.095-.025-.01-.106.014-.179.053l-.132.07.001.29.004.43c0 .079.018.143.037.143.02 0 .036-.015.036-.032zm.083-1.554c.01-.026.06-.042.11-.037.054.006.084-.005.071-.025-.019-.03.111-.09.136-.062.006.006.046-.02.09-.058.075-.063.08-.098.08-.456v-.388l-.115.025a.494.494 0 0 0-.16.06c-.023.019-.057.025-.076.014-.018-.012-.042.003-.053.032-.015.037-.055.047-.138.035-.065-.01-.096-.007-.069.005.03.014.035.03.013.045-.029.017-.07.737-.048.826.01.042.142.027.16-.017zm.042-.913c.012-.02.005-.035-.016-.035-.02 0-.038.016-.038.035 0 .02.007.036.016.036.009 0 .026-.016.038-.036zm.063-.614c.035.002.055-.01.045-.026-.01-.017.006-.05.035-.074.043-.035.054-.034.056.005.002.036.007.037.02.004.01-.024.046-.045.08-.045.122 0 .147-.076.147-.454 0-.35-.004-.37-.08-.4-.055-.02-.099-.014-.137.02-.031.027-.067.039-.08.026-.014-.013-.024-.004-.024.02s-.016.033-.036.021c-.02-.012-.036-.006-.036.013s-.052.027-.116.018c-.076-.01-.1-.005-.068.016.04.027.038.036-.004.052-.056.022-.1.472-.07.716.016.128.023.135.11.111a.638.638 0 0 1 .158-.023zm-.11-1.524c-.013-.036-.002-.045.04-.029.032.013.067.007.08-.011.01-.02.067-.035.125-.035.059 0 .106-.02.108-.044.002-.036.006-.036.02 0 .028.067.12.053.122-.018.008-.253-.01-.845-.028-.891-.018-.046-.028-.04-.056.029-.02.05-.04.068-.05.041-.023-.06-.1-.056-.153.01-.025.028-.06.043-.077.032-.018-.01-.028 0-.023.024.006.025-.042.056-.108.07a.561.561 0 0 0-.131.04c-.008.008-.02.198-.029.423l-.015.41h.098c.069 0 .091-.015.077-.05zm13.043 9.58c.011-.03.027-.054.035-.054.007 0 .014.024.014.054s-.016.053-.035.053c-.019 0-.025-.024-.014-.053z"/></svg>