<svg role="img" viewBox="0 0 24 24" xmlns="http://www.w3.org/2000/svg"><path d="m6.047 16.174-.467-.467-.448.43c-.247.238-.474.432-.504.432-.031 0-.248-.194-.483-.431l-.426-.431.426-.431c.235-.237.461-.43.503-.43.042 0 .252.177.467.394.214.217.422.395.462.395.04 0 .267-.192.505-.427l.433-.427.467.462.466.463-.467.467-.467.467zm11.132 0-.463-.467.463-.468.463-.467.468.467.467.468-.467.467-.468.468zM1.607 14.85c-.424-.157-.495-.203-.897-.575-.447-.415-.642-.871-.679-1.589L0 12.071l.591-1.38.592-1.378.745.013c.41.007.745.037.745.066 0 .029-.227.577-.505 1.218s-.495 1.177-.48 1.19c.013.014.199-.151.413-.367.213-.217.42-.394.46-.394.04 0 .275.201.523.447l.45.447V9.316h1.438v3.988l.177.26c.512.754 1.462.812 2.08.128.31-.343.329-.282.048.162-.221.348-.672.698-1.077.836-.134.046-.445.083-.691.083-.363 0-.536-.044-.916-.236-.468-.235-.47-.235-.637-.097-.588.485-1.65.67-2.348.41zm1.323-.445c.547-.137.605-.276.605-1.437 0-.547-.025-.995-.056-.995s-.248.194-.483.43l-.426.432-.45-.446c-.287-.284-.475-.421-.519-.377-.156.157-.58 1.285-.58 1.541 0 .652.976 1.087 1.91.852zm7.217.145c-.43-.215-.933-.74-.938-.98-.004-.182-.113-.08-.237.223-.14.338-.428.65-.67.722-.142.043-.149.025-.117-.306.037-.38.088-.247-1.336-3.51-.314-.722-.55-1.324-.524-1.34.025-.016.368-.024.76-.018l.715.01.487 1.114c.267.612.543 1.242.614 1.4l.127.287.036-1.4.036-1.4h1.364l.036 1.98c.036 1.966.037 1.982.216 2.246.257.38.83.652 1.246.59a1.43 1.43 0 0 0 .92-.596c.074-.113.13-.152.129-.091-.003.178-.377.663-.702.91-.602.46-1.437.52-2.162.159zm3.314-2.487.02-2.711.663-.02.665-.021v5.462h-1.366zm1.922.544v-2.165l.18-.308c.141-.24.284-.358.662-.545.473-.232.505-.238 1.658-.273.646-.02 1.188-.022 1.205-.005.017.017.01.894-.017 1.95l-.048 1.918.19.325c.258.44.83.734 1.294.665a1.43 1.43 0 0 0 .92-.597c.173-.262.168-.156-.01.192a2.148 2.148 0 0 1-.439.531c-1.041.892-2.735.492-3.262-.77-.085-.204-.107-.638-.107-2.166V9.45l-.233.05a1.41 1.41 0 0 0-.431.19l-.198.14v4.945h-1.364zm7.044 2.005c-.194-.505-1.78-4.176-1.951-4.517-.113-.223-.291-.473-.397-.556l-.191-.151.17-.011c.437-.028.832.028 1.142.162.639.274.77.483 1.827 2.896.535 1.222.973 2.248.973 2.28 0 .032-.34.058-.756.058-.717 0-.759-.008-.817-.161zm-10.774-2.24-.46-.464.44-.434c.243-.24.467-.435.5-.435.033 0 .251.195.486.432l.427.432-.466.466-.467.467zm8.198-3.65-.447-.451.46-.456.46-.457.438.42c.24.23.437.454.437.496 0 .075-.793.898-.865.898-.02 0-.237-.202-.483-.45zm-9.168.002c.12-.559.498-.955 1.142-1.196.374-.14.548-.15 2.34-.15h1.936V8.67h-2.426c-2.285 0-2.443.008-2.708.143a2.744 2.744 0 0 1-.308.144c-.015 0-.004-.105.024-.233zM1.18 8.078c.017-.486.043-.596.142-.615.085-.016.128.037.147.18l.028.2.083-.197c.047-.108.137-.197.202-.197.093 0 .105.04.06.197-.07.245-.07.487.003.79.046.192.035.234-.062.234-.066 0-.157-.09-.203-.198l-.084-.197-.026.197c-.02.14-.069.198-.17.198-.13 0-.14-.044-.12-.592zm.847-.019c0-.551.014-.618.125-.596.073.014.143.114.168.238l.042.215.03-.215c.018-.132.078-.224.156-.239.111-.02.125.045.125.597 0 .553-.014.619-.125.597-.076-.015-.13-.096-.137-.203-.019-.31-.043-.33-.088-.071-.028.158-.09.259-.17.274-.112.022-.126-.044-.126-.597zm.822.126c.069-.688.09-.736.323-.736.196 0 .204.015.282.542.104.696.106.679-.063.679-.08 0-.143-.048-.143-.108s-.033-.108-.072-.108c-.04 0-.072.049-.072.108 0 .062-.065.108-.152.108-.145 0-.15-.024-.103-.485zm.399-.05c0-.056-.033-.123-.072-.147-.04-.025-.072.022-.072.103 0 .081.032.148.072.148.04 0 .072-.047.072-.104zm.398.45c-.017-.053-.025-.32-.017-.597.013-.49.019-.504.207-.525.394-.046.479.073.465.65l-.012.52-.306.023c-.204.015-.316-.009-.337-.072zm.392-.314c0-.105-.032-.165-.072-.14-.04.025-.072.107-.072.184s.032.14.072.14c.04 0 .072-.083.072-.184zm0-.477c0-.116-.022-.137-.08-.078-.044.044-.059.115-.032.158.074.12.111.093.111-.08zm.411.822c-.015-.03.007-.296.05-.593.076-.533.08-.538.292-.538.214 0 .217.005.293.539.042.296.065.562.05.592-.05.098-.235.056-.235-.054 0-.06-.029-.108-.064-.108s-.083.049-.105.108c-.043.112-.233.148-.28.054zm.4-.593c-.053-.197-.093-.18-.093.04 0 .102.029.166.065.144.035-.022.048-.105.027-.184zm.457.599c-.026-.026-.048-.301-.048-.61v-.563h.246c.37 0 .566.244.403.5-.041.066-.039.138.006.193.113.137.046.487-.099.514-.1.02-.125-.027-.125-.228 0-.139-.033-.272-.072-.297-.043-.027-.072.071-.072.247 0 .275-.103.38-.24.244zm.383-.814c0-.079-.032-.144-.072-.144-.04 0-.072.065-.072.144 0 .08.033.144.072.144.04 0 .072-.065.072-.144zm.72.723c-.116-.218-.091-.839.04-.97.133-.133.397-.147.518-.026.048.048.086.28.086.524 0 .245-.038.476-.086.525-.136.136-.473.104-.557-.053zm.357-.472c0-.217-.032-.395-.072-.395-.04 0-.071.178-.071.395 0 .218.032.395.071.395.04 0 .072-.177.072-.395zm.431 0c0-.494.02-.61.108-.61.059 0 .153.105.21.233l.101.234.006-.239c.005-.187.033-.233.132-.214.107.02.125.108.125.596 0 .473-.02.577-.117.596-.077.014-.15-.06-.21-.215l-.094-.237-.027.233c-.017.143-.068.234-.13.234-.082 0-.104-.128-.104-.61zm.862-.005c0-.547.014-.613.125-.591.103.02.13.114.147.508.012.266.052.484.09.484s.069.048.069.107c0 .072-.072.108-.216.108H8.06zm.574.005c0-.562.011-.61.144-.61.132 0 .143.048.143.61 0 .563-.01.61-.143.61-.133 0-.144-.047-.144-.61zm.431 0c0-.494.02-.61.108-.61.059 0 .153.105.21.233l.101.234.006-.234c.004-.157.041-.233.114-.233.087 0 .107.116.107.61 0 .476-.022.61-.1.61-.056 0-.142-.104-.193-.233l-.092-.233-.027.233c-.017.143-.068.234-.13.234-.082 0-.104-.128-.104-.61zm.862 0v-.62l.228.023c.23.023.383.202.173.202-.066 0-.114.061-.114.144 0 .08.032.144.072.144.04 0 .072.048.072.107 0 .06-.033.108-.072.108-.04 0-.072.065-.072.144 0 .083.048.143.114.143.21 0 .057.18-.173.202l-.228.023z"/></svg>