<svg role="img" viewBox="0 0 24 24" xmlns="http://www.w3.org/2000/svg"><path d="M.715 21.875a.788.788 0 0 1-.537-.289c-.286-.356-.222-.883.15-1.234.159-.15.37-.256.564-.28.042-.01.088-.013.104-.016l.029-.01.35-1.115c.193-.614.36-1.143.373-1.176a.756.756 0 0 1 .554-.46c.058-.011.143-.012.7-.01.712 0 .667-.001.81.069a.66.66 0 0 1 .247.22l.04.06.03-.046a.791.791 0 0 1 .33-.255c.136-.052.123-.052.92-.052h.726c0-.02.243-.767.262-.805a.76.76 0 0 1 .518-.403c.07-.014 3.506-.025 3.626-.01a.792.792 0 0 1 .629.43c.11.222.116.48.015.724l-.026.065h.436c.47 0 .507 0 .614.046a.654.654 0 0 1 .295.242l.041.063.035-.047a.961.961 0 0 1 .183-.177 1 1 0 0 1 .232-.106c.05-.014.105-.015.688-.018.687 0 .702 0 .816.044.147.059.27.176.339.319a.893.893 0 0 0 .026.053s.044-.025.097-.06c.294-.196.609-.315.93-.35.055-.01.628-.01 1.718-.01h1.636l.118-.379c.081-.258.13-.397.153-.443a.743.743 0 0 1 .576-.398 143.74 143.74 0 0 1 3.217 0c.35.037.61.26.702.602.02.078.026.285.01.366-.08.37-.364.685-.719.798a1.523 1.523 0 0 0-.078.026s.011.025.028.052c.296.487.25 1.147-.12 1.712a2.31 2.31 0 0 1-.903.797c-.2.1-.345.147-.566.19-.075.014-.162.015-1.478.018h-1.398l-.038.119a69.07 69.07 0 0 0-.118.375c-.092.294-.11.34-.165.425a.777.777 0 0 1-.44.315l-.066.02h-1.695c-1.1 0-1.723-.001-1.778-.01a.783.783 0 0 1-.512-.24l-.067-.069-.077.064a1.04 1.04 0 0 1-.566.244c-.107.011-3.984.011-4.092 0a.785.785 0 0 1-.71-.651 1.047 1.047 0 0 1 .013-.367 1.76 1.76 0 0 1 .082-.221c0-.01-.28-.011-1.398-.011-1.134 0-1.402 0-1.399.011.027.071.036.3.016.396a1.092 1.092 0 0 1-.828.829l-.075.018H2.81c-1.119 0-2.06 0-2.093-.01zm2.035-1.174.197-.629h1.72l.074-.023a1.35 1.35 0 0 0 .349-.177c.138-.104.265-.26.33-.4.014-.034.13-.39.256-.79.25-.797.243-.769.193-.813l-.025-.023H4.683l-.044.025a.246.246 0 0 0-.065.057c-.013.02-.096.27-.222.67-.11.35-.206.65-.213.663a.238.238 0 0 1-.114.094c-.042.012-.848.011-.848 0l.22-.706c.239-.761.233-.736.183-.78l-.026-.024H2.392l-.045.027a.194.194 0 0 0-.068.065 44.78 44.78 0 0 0-.436 1.357l-.414 1.319h-.21c-.239 0-.288.01-.38.053-.25.126-.366.421-.228.579a.268.268 0 0 0 .061.053c.065.034.077.035.996.035h.885l.197-.628zm2.038.62a.38.38 0 0 0 .121-.04c.259-.122.38-.425.235-.586a.278.278 0 0 0-.082-.062l-.044-.02h-.831c-.458 0-.835 0-.838.01-.01.01-.222.69-.222.703 0 .012 1.587.012 1.66 0zm6.382-.622.197-.627h.828c.714 0 .837 0 .897-.013.19-.036.382-.143.536-.298a.987.987 0 0 0 .202-.278c.048-.1.486-1.496.486-1.55 0-.044-.014-.07-.048-.083-.017-.01-.178-.01-.602-.01h-.58l-.034.023a.277.277 0 0 0-.056.05c-.016.022-.079.21-.227.682-.161.515-.21.66-.229.683a.234.234 0 0 1-.07.053l-.046.023h-.832l.217-.691c.223-.71.233-.747.205-.787-.026-.037-.03-.037-.638-.035h-.58l-.034.023a.31.31 0 0 0-.056.051c-.016.021-.128.367-.439 1.357l-.417 1.329h-.235c-.227 0-.236.01-.296.027a.551.551 0 0 0-.304.27.274.274 0 0 0-.04.142c0 .082.01.124.043.178.03.045.092.084.15.095.02 0 .434.01.92.01h.885zm2.052.618c.291-.06.496-.398.362-.597a.302.302 0 0 0-.06-.063c-.07-.049-.075-.049-.755-.048-.341 0-.707 0-.813.01l-.193.01-.099.314-.11.355-.013.04h.811c.681 0 .82 0 .87-.013zm4.655 0a.261.261 0 0 0 .07-.053l.039-.04.18-.575.181-.574h1.585c1.572 0 1.586 0 1.66-.022a1.72 1.72 0 0 0 .823-.461 1.53 1.53 0 0 0 .429-.767c.022-.105.02-.298 0-.397a.735.735 0 0 0-.554-.557l-.081-.022h-2.586l-.013.04c-.052.16-.207.658-.207.665 0 .01.332.01.908.01.726 0 .918 0 .955.01a.28.28 0 0 1 .195.157.367.367 0 0 1-.01.253.616.616 0 0 1-.415.368c-.061.016-.104.016-1.262.016-.796 0-1.198 0-1.198-.01l.22-.705c.239-.762.233-.737.183-.781l-.026-.023h-1.541c-1.53 0-1.542 0-1.617.02-.11.025-.247.073-.343.119-.455.217-.808.64-.906 1.084-.018.083-.026.28-.014.358a.74.74 0 0 0 .563.62l.08.023h1.252l.01-.028c.071-.223.211-.674.211-.68 0 0-.109-.01-.241-.01-.191 0-.252 0-.292-.012a.26.26 0 0 1-.205-.268c0-.124.051-.232.163-.345a.475.475 0 0 1 .156-.115c.13-.064.126-.064.72-.064h.522l-.01.023c0 .013-.147.476-.321 1.03l-.317 1.006h-1.069c-.87 0-1.076 0-1.107.01a.56.56 0 0 0-.364.354c-.048.162.033.314.182.344.02 0 .786.01 1.704.01 1.41 0 1.675 0 1.703-.011zM8.88 20.06a1.1 1.1 0 0 0 .738-.572c.021-.043.11-.311.26-.79.126-.399.23-.736.232-.75 0-.034-.02-.082-.047-.096a15.03 15.03 0 0 0-1.194 0 .21.21 0 0 0-.098.089c-.01.017-.104.315-.214.663-.11.349-.204.643-.21.656a.229.229 0 0 1-.115.09c-.025.01-.155.01-.443.01h-.407l.424-1.35.431-1.37.01-.019h-.63c-.605 0-.63 0-.661.016a.23.23 0 0 0-.105.124c-.01.022-.223.71-.48 1.53-.418 1.327-.469 1.495-.472 1.554 0 .069.01.117.04.152.021.025.07.06.097.07.017.01.465.01 1.402.01 1.213 0 1.385-.002 1.446-.013zm1.445-2.756a.556.556 0 0 0 .209-.137c.094-.095.15-.232.137-.336a.252.252 0 0 0-.154-.203c-.035-.014-.082-.015-.517-.017h-.834l-.356.01-.091.29-.111.354-.02.065h1.68zm12.723.014c.031-.01.082-.025.114-.042.25-.126.367-.422.228-.579a.233.233 0 0 0-.14-.08c-.063-.013-3.099-.013-3.152 0a.236.236 0 0 0-.133.119c-.022.059-.18.573-.18.583 0 .01.413.01 1.603.01 1.344 0 1.613 0 1.66-.012zm-11.337-3.6a5.882 5.882 0 0 1-1.883-.416 5.793 5.793 0 0 1-3.626-5.254c0-.104 0-.118.01-.112.01 0 .915.527 2.017 1.164 1.103.636 2.007 1.156 2.01 1.153 0 0-.01-.014-.026-.026a2.937 2.937 0 0 1-1.128-2.392 2.9 2.9 0 0 1 .302-1.195c.143-.29.303-.518.524-.745.09-.094.255-.24.319-.285.01-.01.019-.016.016-.019 0 0-.913.52-2.024 1.162l-2.02 1.166s.01-.4.018-.487a5.797 5.797 0 0 1 8.575-4.59c.054.03.099.055.099.057 0 0-.908.527-2.018 1.167-1.11.64-2.014 1.166-2.01 1.167 0 0 .028-.01.053-.016.23-.092.503-.16.78-.193a4.29 4.29 0 0 1 .6 0 2.918 2.918 0 0 1 2.563 2.347c.013.073.028.148.032.166 0 .018.01-1.015.01-2.3V2.9l.04.023c.273.157.588.382.846.604a5.83 5.83 0 0 1 1.924 3.383c.067.386.08.556.08 1.011 0 .385 0 .453-.039.73a5.813 5.813 0 0 1-1.229 2.903 5.815 5.815 0 0 1-4.013 2.146 10.33 10.33 0 0 1-.8.016zm3.191-3.108V8.28s-.012.052-.022.111a2.92 2.92 0 0 1-2.508 2.426 4.042 4.042 0 0 1-.606.013 3.063 3.063 0 0 1-.84-.197.206.206 0 0 0-.06-.02s.204.125.459.272l2.011 1.162c.852.492 1.553.895 1.56.895.01.001.01-.47.01-2.332zm-2.754-.746a1.83 1.83 0 0 0 .706-.192c.58-.282.965-.807 1.073-1.464.02-.13.02-.44 0-.57a1.896 1.896 0 0 0-.183-.575 1.937 1.937 0 0 0-1.509-1.07 2.54 2.54 0 0 0-.545.01 1.93 1.93 0 0 0-1.066.55c-.355.355-.549.8-.567 1.305a1.939 1.939 0 0 0 2.09 2.008z"/></svg>