<svg viewBox="0 0 24 24" xmlns="http://www.w3.org/2000/svg" role="img"><path d="M19.925 19.276c.032-.027.035-.226.004-.246a.713.713 0 0 0-.167-.015c-.17-.004-.253-.036-.31-.123-.064-.095-.041-.232.051-.317l.043-.04.053.044.052.044.89-.004.89-.005v-.267l-.119-.005-.119-.005-.007-.19c-.006-.163-.014-.202-.053-.283-.087-.178-.242-.264-.498-.276a1.182 1.182 0 0 0-.207.003c-.043.011-.044.013-.04.14l.006.13.163.003c.183.003.262.03.321.111.028.038.036.078.04.205l.006.158h-1.018l.094-.096c.175-.18.239-.401.156-.544-.057-.1-.111-.113-.437-.113-.317 0-.38.013-.431.09-.043.067-.024.188.065.404l.075.184-.09.083c-.188.176-.243.413-.144.62.082.172.23.286.424.326.094.02.275.01.307-.016zM19.6 18.03a2.139 2.139 0 0 1-.069-.168c0-.014.36-.014.373 0 .006.006-.004.048-.022.095-.031.084-.155.23-.193.23a.501.501 0 0 1-.089-.157zm-9.534 1.111a.663.663 0 0 0 .358-.442l.02-.077 1.737-.004c1.729-.005 1.739-.005 1.786-.04.1-.073.106-.106.102-.567l-.005-.419-.114-.005c-.07-.003-.124.003-.138.015-.02.015-.024.09-.024.377v.358h-.498l-.008-.18a.638.638 0 0 0-.05-.272.58.58 0 0 0-.252-.257 1.388 1.388 0 0 0-.378-.055 2.18 2.18 0 0 1-.075.018l-.046.01.005.13.004.129.176.009a.61.61 0 0 1 .232.039c.08.043.12.139.12.3v.13h-.754V17.8c0-.338-.006-.549-.017-.57-.014-.026-.036-.031-.134-.031-.112 0-.118.002-.134.044-.01.028-.015.243-.012.57l.004.524h-.376l-.004-.372-.005-.373-.114-.005c-.07-.003-.124.003-.138.015-.02.015-.024.09-.024.377v.358h-.36l.005-.524c.003-.327-.002-.542-.012-.57-.016-.042-.023-.044-.134-.044-.099 0-.12.005-.135.032-.01.02-.017.231-.017.57v.536h-.804l-.017.043a.344.344 0 0 0 .001.21c.015.028.036.032.175.032h.158l-.018.054a.356.356 0 0 1-.169.2.386.386 0 0 1-.346-.025c-.108-.072-.141-.165-.148-.413-.008-.308.003-.287-.151-.282l-.13.005-.004.224c-.007.32.043.495.18.637.174.178.45.227.682.12zm-5.917.016a.55.55 0 0 0 .324-.28l.047-.096.006-.505c.005-.48.003-.509-.029-.571-.053-.105-.107-.121-.39-.121-.273 0-.331.017-.385.118-.027.05-.03.1-.03.4 0 .311.003.349.032.397.06.098.103.114.33.12.141.004.207.012.206.025a.437.437 0 0 1-.102.189c-.06.053-.139.073-.281.073-.078 0-.137.008-.149.02-.03.03-.025.207.007.239.04.04.275.035.414-.008zM3.963 18.1l.005-.24.138-.004.138-.005v.487h-.286Zm1 1.033a.568.568 0 0 0 .274-.272c.035-.076.037-.103.042-.678l.005-.598h-.268l-.005.565c-.005.533-.007.568-.04.623-.043.075-.116.116-.227.13-.05.005-.095.018-.102.028-.02.03-.014.22.008.243.032.033.194.012.312-.041zm1.918.024a.573.573 0 0 0 .37-.417l.031-.117h.62c.461 0 .627-.005.642-.02.026-.027.026-.219 0-.245-.011-.011-.065-.02-.123-.02h-.103l-.01-.172c-.013-.209-.044-.305-.132-.405a.439.439 0 0 0-.257-.154c-.106-.028-.379-.03-.407-.002-.026.026-.026.218 0 .244.013.013.078.02.178.02.13 0 .17.007.22.035.097.055.118.105.118.282v.152h-.753v-.264c0-.298-.013-.363-.083-.43-.044-.042-.067-.049-.22-.063-.3-.03-.449.007-.513.124-.026.048-.03.1-.03.399 0 .312.003.348.033.398.056.092.141.12.358.12.103 0 .187.003.187.007a.674.674 0 0 1-.02.062c-.053.157-.15.216-.358.216-.082 0-.142.008-.155.02a.286.286 0 0 0-.02.123c0 .057.01.11.02.122.036.035.3.025.407-.015zm-.172-1.055.005-.236.138-.004.138-.003v.48h-.286zm8.907 1.027a.572.572 0 0 0 .28-.287c.037-.081.043-.116.043-.263 0-.226-.011-.24-.194-.24h-.132v-.491l.138.01a.54.54 0 0 0 .16-.003c.016-.01.02-.05.017-.138l-.005-.124-.21-.004c-.183-.004-.215 0-.262.028-.107.066-.114.091-.12.449-.005.3-.003.329.03.395.04.084.127.14.242.156.07.01.077.014.067.046a.365.365 0 0 1-.196.227.468.468 0 0 1-.267-.005.37.37 0 0 1-.176-.179 1.172 1.172 0 0 1-.036-.3l-.01-.244-.114-.005c-.07-.003-.124.003-.138.015-.03.024-.033.318-.006.484.033.21.152.393.308.473.108.055.142.062.31.058a.487.487 0 0 0 .271-.058zm.739.016a.611.611 0 0 0 .331-.437l.018-.085h.882c.485 0 .89-.006.9-.013.029-.018.046-.173.025-.226-.016-.044-.022-.046-.135-.046h-.117v-.16c0-.274-.083-.432-.273-.526-.17-.083-.488-.102-.533-.031a.39.39 0 0 0 .003.216c.015.029.036.032.18.032.276 0 .34.057.352.31l.007.16h-.758l-.001-.332a3.466 3.466 0 0 0-.014-.372c-.01-.04-.017-.042-.135-.042-.118 0-.125.002-.136.042-.007.023-.012.19-.013.372l-.002.331h-.234l-.004-.372-.005-.373-.124-.005c-.088-.003-.128.001-.138.017a6.216 6.216 0 0 0-.014.563c0 .603-.004.624-.11.69a.426.426 0 0 1-.15.045.304.304 0 0 0-.1.02.755.755 0 0 0-.011.124c-.004.085 0 .117.02.13.036.025.201.007.289-.032zm5.488-.006a.577.577 0 0 0 .32-.425l.018-.091h.433c.493 0 .539-.009.605-.115.035-.057.038-.083.043-.37.007-.396-.01-.463-.14-.534-.04-.022-.098-.028-.284-.028-.258 0-.31.016-.383.114-.032.044-.036.073-.04.348l-.006.3h-.233l.011-.349c.011-.343.01-.35-.024-.385-.045-.044-.177-.05-.234-.01-.037.026-.037.027-.037.582 0 .522-.002.559-.033.61-.041.068-.11.103-.231.118l-.096.012-.005.114c-.003.074.003.124.016.14.031.038.186.021.3-.031zm.853-1.034v-.233l.088-.005a.834.834 0 0 1 .142 0l.054.004v.467h-.284zm-11.293.946c.086-.087.022-.234-.101-.234-.048 0-.073.011-.103.046-.082.095-.022.229.103.229a.133.133 0 0 0 .1-.042zm.335 0a.142.142 0 0 0-.067-.237c-.09-.022-.192.08-.17.17a.14.14 0 0 0 .237.067zm5.444.004c.041-.039.052-.125.022-.18-.027-.05-.109-.076-.168-.051-.06.025-.083.062-.083.136 0 .117.142.177.229.095zm3.67-.007c.096-.122-.023-.287-.16-.221a.135.135 0 0 0-.074.167c.024.069.064.096.139.097.046 0 .07-.01.096-.044zM6.165 18.58c.099-.072.113-.133.114-.485 0-.29-.003-.324-.034-.384-.057-.109-.12-.13-.408-.14-.315-.01-.32-.008-.32.145 0 .066.009.122.02.133.014.014.092.02.24.02h.218v.468l-.285.005-.285.005-.004.124c-.004.087 0 .128.016.138.012.008.17.012.351.01.303-.004.334-.007.377-.04zm1.773-1.237c.086-.087.027-.244-.093-.244-.122 0-.185.175-.09.25.06.047.132.044.183-.006zm5.747.007c.077-.072.062-.18-.031-.232-.087-.049-.2.024-.2.127 0 .118.147.184.231.105zm.348-.007a.16.16 0 0 0 .03-.168c-.012-.032-.092-.076-.138-.076-.06 0-.126.073-.126.14 0 .129.144.193.234.104zm3.855.007c.077-.072.062-.18-.032-.232-.086-.049-.2.024-.2.127 0 .118.147.184.232.105zM6.131 16.003a8.582 8.582 0 0 0 1.018-.127c.397-.063.606-.109.963-.212.515-.148.785-.25 1.164-.434.384-.187.635-.353 1.046-.694.306-.252.617-.608.93-1.059.092-.133.142-.177.141-.124 0 .011-.007.07-.016.132-.065.448-.086 1.207-.04 1.48.068.415.215.68.438.79.084.04.115.046.247.046s.162-.007.242-.048a.803.803 0 0 0 .29-.243c.196-.252.336-.579.452-1.057.08-.327.1-.454.093-.602-.005-.106-.01-.126-.036-.131-.052-.01-.09.043-.155.212-.067.175-.15.325-.211.382-.167.157-.443.135-.611-.049a.63.63 0 0 1-.157-.28c-.034-.097-.039-.15-.046-.487a9.4 9.4 0 0 1 .064-1.213c.024-.172.113-.731.143-.896a90.38 90.38 0 0 1 .278-1.381 1.74 1.74 0 0 0 .025-.155c.008-.072.005-.088-.016-.088-.028 0-.06.047-.144.21a6.007 6.007 0 0 0-.219.481 4.367 4.367 0 0 0-.168.44c-.033.11-.032.107-.1.368l-.082.31-.112.426c-.09.349-.137.486-.229.668-.262.523-.608.826-1.381 1.212-.578.288-1.056.422-2.106.59-.148.025-.312.044-.896.109-1.352.149-2.983-.044-3.428-.405-.122-.098-.158-.18-.24-.545-.032-.145-.102-.186-.147-.087-.033.072-.091.417-.146.861-.031.255-.031.687 0 .789a.93.93 0 0 0 .344.47c.229.17.63.29 1.105.331.115.01.236.02.268.024.188.017 1.154.008 1.435-.014zm9.657-.227a3.9 3.9 0 0 0 .528-.17c.375-.168.632-.347.758-.53.106-.154.317-.633.483-1.1.06-.167.067-.31.015-.31-.036 0-.064.036-.21.273-.297.485-.73.918-1.531 1.533-.28.215-.335.267-.335.316 0 .053.053.051.292-.012zm4.212.025c.223-.029.718-.177.93-.278.139-.067.276-.199.406-.39a6.324 6.324 0 0 0 .542-1.147c.036-.116.054-.141.249-.36.115-.129.273-.303.352-.386.078-.083.259-.28.401-.436.539-.593.6-.653.716-.707.084-.039.09-.046.171-.21.173-.35.276-.712.216-.75-.047-.03-.11-.013-.214.06-.295.206-.591.208-1.109.007-.381-.148-.543-.183-.693-.15-.211.046-.354.173-.555.494-.191.306-.243.413-.237.49.005.055.011.064.053.068.042.005.07-.016.21-.162.2-.208.284-.258.437-.257.162.002.449.09.662.205l.205.108c.067.034.121.072.121.083 0 .058-.367.478-.64.732-.1.093-.185.165-.19.16a.626.626 0 0 1-.034-.113c-.056-.243-.224-.48-.4-.562-.126-.06-.294-.057-.394.008-.15.095-.307.298-.459.594-.193.376-.294.66-.294.828 0 .215.167.4.427.47.097.027.341.023.488-.007a.597.597 0 0 1 .134-.02c.014.015-.066.176-.156.31-.22.333-.584.643-1.244 1.063-.227.144-.314.221-.286.255.012.014.04.021.065.017l.12-.017zm-6.307-.026c.297-.06.618-.161.822-.26.194-.092.37-.309.572-.7a5.18 5.18 0 0 0 .467-1.215c.043-.194.053-.602.018-.737a1.042 1.042 0 0 0-.234-.44c-.117-.12-.188-.152-.348-.16-.115-.006-.138-.002-.201.036-.149.087-.319.304-.472.603-.188.367-.295.663-.295.82 0 .178.122.348.314.44.128.061.381.075.59.033a.718.718 0 0 1 .145-.021c.014.014-.064.17-.155.31-.115.177-.419.484-.642.65-.16.119-.391.277-.653.446-.163.105-.258.189-.243.213.016.026.13.02.315-.018zm4.109-.047c.348-.138.748-.383.973-.595.197-.186.454-.591.59-.932.057-.144.146-.456.187-.659a2 2 0 0 0 .037-.478c0-.271-.004-.304-.046-.439-.08-.255-.29-.518-.615-.77-.186-.144-.39-.268-.42-.257-.028.011-.044.047-.179.395-.055.142-.158.401-.228.576-.07.174-.127.327-.127.339 0 .011.032.037.071.057.344.176.778.544.876.743.078.161.05.36-.091.644-.173.346-.457.675-.944 1.095a2.561 2.561 0 0 0-.248.232c-.044.081.027.103.164.049zM2.438 12.712c.145-.573-.328-1.121-.965-1.121-.467 0-.86.294-.97.726-.028.108-.017.165.015.074.055-.16.266-.383.442-.468.202-.095.506-.127.714-.072.428.111.731.496.708.897-.004.073-.002.127.006.119a.798.798 0 0 0 .05-.155zm8.187.049c.03-.1.035-.147.028-.297a.608.608 0 0 0-.06-.295.94.94 0 0 0-.463-.475 1.115 1.115 0 0 0-.704-.078.998.998 0 0 0-.722.686.639.639 0 0 0-.022.126c0 .031.009.022.036-.042a.986.986 0 0 1 .359-.415c.036-.022.117-.062.182-.087.154-.062.427-.078.594-.036a.963.963 0 0 1 .696.63c.02.061.031.143.031.247 0 .085.003.155.005.155s.02-.054.04-.12zm-3.183-.083c.324-.03.874-.16.93-.22.011-.013.004-.015-.026-.007-.198.055-.418.08-.804.088-.541.013-.773-.007-1.816-.152-1.015-.141-1.502-.177-1.976-.144-.376.025-.81.107-.98.183l-.041.019.043-.008a5.472 5.472 0 0 1 1.131-.06c.358.017.726.056 1.404.15l.678.093c.542.07 1.088.091 1.457.058zm-7.157-.193c-.13-.575-.078-1.031.141-1.27.166-.18.344-.244.67-.244.3 0 .47.035.98.2.8.262 1.502.392 2.344.435.317.016.52.001.293-.022a7.319 7.319 0 0 1-1.232-.268c-.29-.092-.45-.15-1.005-.371-.843-.335-1.178-.435-1.627-.486-.244-.028-.603-.025-.735.005l-.053.013.116.159c.063.087.115.162.115.167a.292.292 0 0 1-.034.059 1.99 1.99 0 0 0-.166.33 1.236 1.236 0 0 0-.092.54c0 .262.023.374.118.601.053.124.189.354.202.34a1.315 1.315 0 0 0-.035-.188zm8.46-.356c.003-.01-.006-.02-.02-.02a.027.027 0 0 0-.027.027c0 .03.036.024.046-.007zm4.504-.098c.112-.07.286-.273.423-.49.104-.166.124-.229.124-.385 0-.122-.006-.157-.045-.235a1.006 1.006 0 0 0-.123-.18c-.086-.098-.385-.306-.44-.306-.027 0-.069.05-.176.213l-.353.538c-.117.178-.209.334-.204.346.004.012.078.074.164.137.086.064.224.173.307.242.214.179.224.183.323.12zm1.279-.063c.133-.056.47-.476.547-.684a.646.646 0 0 0 .004-.413.884.884 0 0 0-.247-.32c-.106-.089-.295-.2-.34-.2-.036 0-.04.005-.542.776a3.242 3.242 0 0 0-.162.262c0 .008-.009.017-.019.02-.037.013.016.076.132.158a7.1 7.1 0 0 1 .297.233c.174.144.237.19.262.192.006 0 .036-.01.068-.024zm-3.485-.125a.91.91 0 0 0-.206-.346c-.292-.314-.805-.499-1.603-.577-.581-.057-1.797-.027-2.721.068-1.252.128-1.835.172-2.197.164-.32-.007-.324-.003-.082.082.184.065.423.102.788.124.4.024.884.006 1.926-.07 1.274-.093 1.763-.111 2.235-.084.71.04 1.148.142 1.473.34.137.084.2.138.316.274.05.06.093.107.096.107a.386.386 0 0 0-.025-.081zm-3.79-.967c.04-.005.068-.016.063-.024a1.765 1.765 0 0 0-.165-.123c-.9-.627-1.85-.926-2.832-.892-.585.02-1.004.11-2.137.457-.163.05-.385.113-.493.141a2.28 2.28 0 0 0-.204.058c-.004.004.026.016.066.026.112.03.45.145.541.184.104.044.383.15.396.15.008 0 .015-.016.015-.037.001-.111.133-.273.31-.38.498-.302 1.586-.423 2.47-.276.628.105 1.13.323 1.443.626l.122.12.167-.01c.092-.006.2-.015.239-.02zm5.308-1.172a30.669 30.669 0 0 0 .9-.542c.009 0 .683-.422 1.005-.63a79.09 79.09 0 0 0 3.24-2.222c.18-.132.666-.497.75-.562.031-.024.119-.122.195-.219.283-.36.437-.62.448-.754.008-.11-.029-.105-.174.022-.353.307-.97.76-1.922 1.412l-.427.293c-.27.186-.497.339-2.361 1.592-1.217.817-1.17.783-1.401 1.052-.177.206-.399.527-.399.577 0 .038.056.031.146-.019zm10.328-.518c.159-.105.36-.346.476-.57.136-.26.096-.498-.122-.736-.117-.128-.378-.308-.446-.308-.042 0-.066.03-.253.314l-.362.551c-.086.13-.156.252-.156.27 0 .02.041.06.116.11.064.044.216.162.338.264.254.21.251.21.41.105z"/></svg>