<svg role="img" viewBox="0 0 24 24" xmlns="http://www.w3.org/2000/svg"><path d="m0 12.92 12.952-5.072a4.43 4.43 0 0 0 1.747 2.53l-8.023 13.62h-3.38l7.195-10.434L.001 24v-5.232l8.986-7.033L0 16.255zm14.95-2.379a4.396 4.396 0 0 0 1.944.623c.462.035.913-.002 1.342-.102l3.413 12.936h-2.647l-1.82-8.723-.119 8.723H14.36l.627-8.546-2.43 8.546H9.282zm3.62.43a4.433 4.433 0 0 0 2.59-2.19L24 10.48v1.59l-1.817-.902L24 13.597v2.066l-2.902-2.692L24 17.974v6.024l-.023-.053zm2.73-2.484a4.4 4.4 0 0 0 .336-1.387 4.395 4.395 0 0 0-.303-1.981L24 4.474v1.164l-1.59.431 1.59.305V7.54l-1.256.05L24 8.055V9.62zm-.066-3.597a4.43 4.43 0 0 0-2.34-2.223L20.356 0h1.624l-1.717 2.801L22.847 0h1.152v1.237l-2.886 2.319L24 2.112v1.742zm-2.549-2.3a4.415 4.415 0 0 0-2.934.01L15.123 0h1.288l.299 1.107L16.75 0h1.184l-.086 1.425L18.29 0h1.388zm-3.158.096c-.868.365-1.602 1-2.086 1.81L5.601 0h3.974l2.572 1.824L10.48 0h2.017l1.01 1.256L12.949 0h1.527zm-2.215 2.041a4.419 4.419 0 0 0-.42 2.849L0 11.043V7.982l8.423-1.134L0 6.31V3.783l9.011 1.17-9.01-2.596V0h2.871z"/></svg>