<svg viewBox="0 0 24 24" xmlns="http://www.w3.org/2000/svg" role="img"><path d="M17.29 4.672c-.056.003-.114.04-.244.113-.115.062-.398.303-.628.523-.304.303-.47.397-.628.345-.565-.178-1.255-.167-1.622.031-.491.262-.837.89-.837 1.497v.48l-1.014.702c-.565.387-1.58 1.088-2.25 1.559-.68.47-1.653 1.15-2.176 1.517l-.942.66-.199-.45a36.365 36.365 0 0 0-.586-1.288c-.209-.46-.69-1.517-1.077-2.354-.817-1.82-.88-1.925-1.298-2.124-.418-.209-.69-.115-.889.304-.157.314-.157.44.01 1.423.095.596.2 1.213.241 1.38.052.283-.052.22-1.329-.763C.127 6.93-.019 6.909.002 7.902c.01.377.094 1.005.188 1.413.105.398.199.827.22.942.031.146.722.596 2.197 1.454 1.193.68 2.124 1.276 2.072 1.329-.042.042-.974.554-2.072 1.14-1.088.586-2.04 1.11-2.114 1.183-.146.146-.062.7.115.742.063.021.346.095.639.157.649.157 1.203.565 1.203.89 0 .272-.199.481-.711.732l-.346.178.189.303c.094.178.23.314.293.314.073 0 .47-.115.9-.261 2.07-.712 4.383-.471 5.566.575l.387.335 1.946-.042c1.057-.031 1.956-.084 1.998-.115.032-.031-.157-.366-.429-.743-.69-.973-.69-.962-.104-1.213a10.718 10.718 0 0 1 2.532-.733c1.977-.282 3.756.596 4.268 2.114l.168.523 2.427-.074c1.33-.041 2.438-.094 2.459-.115.073-.073-.44-1.15-.827-1.715-1.423-2.072-3.714-3.14-6.476-3.003-1.925.094-3.63.7-5.347 1.904-.46.314-.847.533-.879.492-.03-.053.273-.43.67-.837 1.852-1.926 2.605-3.924 2.302-6.163l-.115-.92.272-.23c.24-.22.293-.22.502-.095.314.21.942.314 1.381.23.45-.084 1.057-.596 1.14-.962.053-.189.126-.252.23-.21.744.283 1.57.126 1.675-.314.115-.44-.105-.554-1.088-.586-.92-.031-1.172-.167-.712-.376.136-.063.419-.262.628-.44.419-.376.492-.764.178-.941-.126-.063-.18-.094-.237-.092z"/></svg>