<svg role="img" viewBox="0 0 24 24" xmlns="http://www.w3.org/2000/svg"><path d="M1.734 23.09v-.902h.472c.366 0 .473.027.473.123 0 .089-.092.123-.329.123-.31 0-.328.013-.328.246 0 .227.022.246.287.246.2 0 .288.038.288.124s-.087.123-.288.123h-.287v.41c0 .337-.026.411-.144.411-.128 0-.144-.098-.144-.903zm1.5.743c-.453-.357-.496-1.07-.086-1.45.162-.15.304-.196.603-.196.336 0 .421.036.604.253.167.198.213.341.213.663 0 .345-.04.45-.24.651a.836.836 0 0 1-1.093.079zm.873-.24c.397-.438.147-1.16-.403-1.16-.33 0-.533.237-.533.624 0 .557.604.904.936.537zm1.049.194c-.31-.26-.404-.718-.231-1.131.147-.353.344-.469.793-.469.659 0 1.026.69.723 1.358-.21.46-.877.586-1.285.242zm.805-.12c.318-.17.375-.774.102-1.09-.182-.21-.634-.188-.793.04-.393.561.126 1.352.69 1.05zm1.235-.453c0-.778-.001-.78-.206-.78-.127 0-.205-.047-.205-.124 0-.098.124-.123.623-.123.461 0 .614.027.589.103-.019.056-.133.114-.253.129l-.22.026v.774c0 .72-.011.775-.164.775s-.164-.055-.164-.78zm1.108-.123v-.904h.467c.66 0 .921.303.582.678-.134.149-.134.161 0 .236.146.082.19.443.078.621-.092.144-.48.272-.824.272h-.303zm.816.528c.19-.191.028-.446-.285-.446-.223 0-.243.023-.243.287 0 .25.026.288.2.288a.528.528 0 0 0 .328-.13zm-.048-.765c.204-.13.073-.377-.214-.405-.248-.024-.266-.008-.266.226 0 .206.033.251.185.25a.668.668 0 0 0 .295-.071zm.75.914c.413-1.342.518-1.58.693-1.58.15 0 .217.117.447.8.149.44.289.847.312.903.025.062-.023.103-.12.103-.105 0-.181-.073-.214-.205-.046-.18-.096-.206-.418-.206-.323 0-.373.025-.418.206-.032.125-.11.205-.201.205-.126 0-.139-.037-.08-.226zm.923-.394c.041-.041-.142-.764-.211-.832-.046-.047-.284.748-.244.816.042.07.388.083.455.016zm.844-.283c0-.806.016-.904.144-.904.127 0 .144.092.144.78v.78h.326c.256 0 .316.027.278.124-.033.087-.17.123-.47.123h-.422zm1.15 0c0-.806.016-.904.144-.904.127 0 .144.092.144.78v.78h.287c.2 0 .287.038.287.124 0 .094-.102.123-.43.123h-.432zm1.807 0c0-.806.016-.904.144-.904.115 0 .143.073.143.37v.37h.821v-.37c0-.267.034-.37.119-.37.094 0 .123.185.143.904.024.815.012.903-.118.903-.117 0-.143-.074-.143-.41v-.411h-.821v.41c0 .337-.027.411-.144.411-.129 0-.144-.098-.144-.903zm2.085.75c-.456-.36-.51-1.06-.112-1.458.287-.287.918-.279 1.195.016.275.293.29 1.09.023 1.355-.259.26-.83.304-1.106.087zm.844-.23c.197-.177.206-.816.015-1.027-.196-.216-.643-.198-.804.032-.42.6.268 1.468.79.996zm1.008.267c-.133-.097-.166-.248-.2-.904-.037-.71-.027-.787.102-.787.125 0 .144.086.144.642 0 .725.1.94.442.94.347 0 .456-.224.459-.945.002-.51.027-.637.126-.637.1 0 .123.136.123.733 0 .695-.012.743-.217.904-.252.199-.743.226-.979.054zm1.579-.002c-.034-.088.033-.125.258-.144.258-.022.307-.057.328-.24.02-.172-.024-.234-.229-.319-.415-.171-.545-.594-.262-.85.196-.177.754-.185.754-.01 0 .09-.054.11-.194.075-.222-.056-.481.15-.413.328.024.062.153.159.287.214.417.173.532.606.238.9-.195.195-.699.225-.767.046zm1.26-.785v-.904h.451c.347 0 .452.029.452.124 0 .086-.087.123-.288.123-.264 0-.287.02-.287.246 0 .22.027.247.246.247.164 0 .247.04.247.123 0 .082-.083.123-.247.123-.227 0-.246.023-.246.287 0 .274.014.288.287.288.201 0 .288.037.288.123 0 .095-.105.123-.452.123h-.452zM2.046 21.37c-.37-.227-.436-.4-.436-1.14 0-.645.047-.754.325-.754.036 0 .082.32.102.71.044.838.123.933.77.933.615 0 .643-.06.692-1.43.04-1.123.046-1.158.226-1.183.184-.027.185-.024.185 1.166 0 .717-.038 1.275-.094 1.398-.203.446-1.24.622-1.77.3zm1.948.098a.58.58 0 0 1 .112-.205c.092-.122.247-.144.983-.144h.874v.41h-.986c-.542 0-.984-.027-.983-.061zm2.215-.144c0-.164.041-.205.205-.205.165 0 .206.04.206.205 0 .164-.041.205-.206.205-.164 0-.205-.04-.205-.205zm.74 0v-.205h2.135v.41H6.949zm2.463 0c0-.198.02-.205.531-.205.44 0 .545-.027.616-.16.127-.236.113-.25-.233-.25-.373 0-.682-.214-.831-.574-.083-.2-.083-.323-.002-.615.113-.405.264-.571.588-.648.643-.153 1.054.236 1.055.997v.434l.945-.023c1.027-.025 1.31-.162.476-.229-.28-.022-.55-.083-.602-.134-.05-.05-.113-.242-.137-.425-.037-.279-.012-.365.161-.538a.938.938 0 0 1 1.068-.18c.359.17.47.418.47 1.038 0 .414-.031.525-.2.695-.192.191-.25.201-1.188.201h-.985l-.138.291c-.181.382-.489.53-1.098.53-.475 0-.496-.009-.496-.205zm1.314-1.35c0-.518-.12-.744-.398-.744-.31 0-.446.173-.446.566 0 .438.061.502.48.502h.364zm2.366-.467c.033-.232-.189-.441-.467-.441-.269 0-.42.134-.42.372 0 .254.073.295.489.268.308-.02.377-.055.398-.199zm-1.935 1.838.123-.185 5.554-.021 5.554-.021v.411H11.036zm-6.692-.777c-.103-.114-.14-.36-.16-1.07l-.026-.924.226-.078.226-.079v1.88h2.14l.08-.21c.043-.116.08-.393.08-.616 0-.376.014-.405.201-.405.194 0 .203.024.226.595l.024.596.552.024c.625.027.617.037.658-.764.02-.355.047-.414.207-.436.177-.026.185-.002.185.586 0 .89-.11 1.004-.958.986-.928-.02-.935-.02-2.29.024-1.117.035-1.25.025-1.37-.109zm10.24-.061c-.169-.17-.201-.281-.201-.694 0-.4.036-.534.197-.721.18-.21.255-.232.86-.26l.66-.03.025.727.024.727.96.024.961.023.045-.27c.024-.148.054-.417.066-.598.017-.27.053-.333.205-.355.178-.025.185-.002.183.575-.004.941-.163 1.053-1.493 1.053-.666 0-.979-.033-1.096-.115-.14-.098-.187-.098-.322 0-.264.193-.84.147-1.074-.086zm.98-.34c.028-.07.05-.33.05-.574v-.445h-.282c-.45 0-.696.537-.453.99.107.202.612.223.686.03zm3.56.397c-.178-.196-.242-1.967-.074-2.031.321-.123.343-.07.343.861v.904h2.3v-.359c0-.694-.463-.976-1.026-.628-.258.16-.269.16-.403.011-.13-.143-.127-.159.05-.274.625-.41 1.412-.3 1.665.233.073.155.155.54.182.855l.048.572h-1.478c-1.304 0-1.493-.017-1.608-.144zm-.963-2.208c0-.152.044-.194.205-.194.146 0 .205.045.205.155 0 .1-.073.169-.205.194-.172.033-.205.008-.205-.155zm-10.184-.03c0-.12.055-.164.205-.164s.206.044.206.164c0 .12-.055.165-.206.165-.15 0-.205-.044-.205-.165zm.657 0c0-.109.055-.164.164-.164.11 0 .165.055.165.164 0 .11-.055.165-.165.165-.11 0-.164-.055-.164-.165zm3.696 0c0-.109.054-.164.164-.164.11 0 .164.055.164.164 0 .11-.055.165-.164.165-.11 0-.164-.055-.164-.165zm8.54 0c0-.109.056-.164.165-.164.11 0 .164.055.164.164 0 .11-.054.165-.164.165-.11 0-.164-.055-.164-.165zm-10.676-2.625c-1.157-.275-1.845-.57-2.792-1.196-.594-.393-1.576-1.35-2.002-1.948-1.463-2.059-1.859-4.863-1.023-7.248C5.39 2.77 7.466.888 10.125.213c1.128-.286 2.63-.284 3.774.006 4.568 1.157 7.124 5.882 5.598 10.348-.77 2.252-2.668 4.139-4.912 4.882-1.348.447-3.036.547-4.269.254zm3.122-1.035c1.404-.32 2.373-.856 3.403-1.887 1.392-1.392 2.013-2.882 2.015-4.841 0-.792-.039-1.135-.202-1.744-.66-2.461-2.528-4.307-5.006-4.946-.905-.233-2.39-.233-3.296 0-1.998.515-3.61 1.817-4.544 3.673-.806 1.602-.893 3.64-.234 5.5.563 1.587 2.22 3.264 3.853 3.898 1.25.485 2.81.62 4.01.347zm-3.873-3.834c-.07-.056-.187-.398-.262-.76-.493-2.385-.628-3.09-.629-3.3 0-.107 3.079-2.494 3.287-2.548.109-.028.966.586 2.831 2.03.271.21.504.456.517.547.014.09-.144 1.012-.351 2.047-.266 1.326-.417 1.912-.513 1.984-.101.077-.725.103-2.445.103-1.725 0-2.341-.026-2.435-.103z"/></svg>