<svg role="img" viewBox="0 0 24 24" xmlns="http://www.w3.org/2000/svg"><path d="M4.882 18.881c0-.056.184-.228.408-.383.77-.53 1.344-1.246 2.137-2.664.671-1.201.863-1.47 1.437-2.004.567-.529 1.02-.771 1.66-.89.39-.073.64-.06 1.645.09 2.031.3 4.101.15 5.78-.42.803-.274 2.139-.946 2.76-1.389.628-.449 1.41-1.088 1.41-1.152 0-.065-.136-.14-.701-.387-.572-.25-.75-.216-1.415.27-.287.21-.216-.052.134-.495.536-.679.994-.774 1.931-.401.809.321.926.337 1.391.19.302-.095.44-.108.5-.047.126.125-.055.597-.3.786-.113.086-.617.461-1.12.833-.504.373-.984.74-1.068.817-.084.077-.29.241-.458.365a4.619 4.619 0 0 0-.343.269c-.08.092-1.577 1.18-1.841 1.337-1.144.68-2.024 1.04-3.117 1.272-.686.147-1.024.17-2.364.166-1.331-.004-1.664-.028-2.237-.168-1.668-.407-2.224-.113-3.527 1.863-.835 1.266-1.402 1.834-2.084 2.082-.517.189-.618.198-.618.06zm4.176-.778c-.2-.146-.363-.3-.363-.344 0-.216.638-1.293.766-1.293.13 0 .589.457.68.677.078.189.067.279-.078.614-.159.37-.387.618-.565.614-.043-.001-.241-.122-.44-.268zm-5.975-.33c.022-.035.233-.18.469-.323 1.125-.68 1.78-1.146 2.112-1.503.199-.214.362-.426.362-.47 0-.043-.15-.079-.332-.079-.49 0-.774-.126-.927-.41-.127-.236-.127-.273-.01-.626.283-.841.876-1.634 1.223-1.633.221 0 .601.334.741.65.083.188.168.341.19.341.107 0 .472-.238.64-.418.144-.154.191-.287.191-.538 0-.442-.098-.523-.608-.502-.365.014-.447-.01-.621-.184-.266-.266-.223-.583.197-1.45.265-.55.36-.675.58-.767.35-.146.586-.074.899.272.366.406.454.733.415 1.555-.027.564-.074.784-.25 1.155-.312.657-.643 1.158-1.175 1.775-.278.323-.527.707-.62.955-.449 1.2-1.17 1.782-2.707 2.185-.368.096-.825.106-.77.016zm-1.862-.796c0-.112.344-.448.8-.78.734-.536 1.356-1.235 1.698-1.907.084-.167.3-.75.477-1.295.178-.545.352-1.023.388-1.061.23-.25.127.785-.207 2.08-.53 2.047-.753 2.344-2.122 2.827-.714.252-1.034.294-1.034.136zM0 15.093V14.1l.324-.002c.841-.005 1.658-.376 2.352-1.068.516-.515.794-1.029.743-1.374-.02-.137-.117-.206-.45-.316a2.53 2.53 0 0 1-.686-.36c-.256-.214-.262-.233-.26-.78.004-.886.4-1.779 1.295-2.926.766-.981 1.496-1.634 2.307-2.066.19-.101.432-.184.536-.184.176 0 .186.02.149.301-.046.342-.488 1.37-.646 1.502-.075.063-.163.065-.316.007-.342-.129-.982.212-1.646.878-.961.962-1.016 1.283-.278 1.623.537.249.618.392.618 1.102 0 1.48-.69 3.317-1.621 4.315-.605.65-1.101.987-1.742 1.186-.723.225-.68.28-.68-.847zm6.921-6.714c-.21-.131-.362-.284-.362-.362 0-.137.655-1.314.731-1.314.128 0 .57.428.679.657.148.312.086.578-.232.995-.238.312-.353.315-.816.024zm10.251.001c-.21-.152-.316-.287-.316-.401 0-.203.611-1.274.727-1.275.044 0 .224.146.4.326.361.367.413.645.198 1.069-.293.579-.513.64-1.009.281z"/></svg>