<svg viewBox="0 0 24 24" xmlns="http://www.w3.org/2000/svg" role="img"><path d="M15.316 23.67a.41.41 0 0 1-.127-.095c-.032-.036-.212-.534-.402-1.105l-.361-1.086c-.013-.035.044-.043.256-.035l.273.01.235.73c.13.402.245.74.257.752.012.012.133-.316.27-.73l.246-.752.267-.01c.147-.006.267-.005.267 0 0 .038-.703 2.108-.738 2.174-.041.078-.234.183-.327.178a.44.44 0 0 1-.116-.031zM4.583 22.1v-1.57h.598l.01.767.01.766.079-.211c.043-.117.204-.458.358-.758l.28-.546.338-.01c.185-.007.338-.005.338.002s-.167.357-.37.777l-.37.763.39.785.391.784-.309.01c-.17.006-.328.003-.352-.006-.057-.022-.544-.953-.672-1.287l-.1-.262-.01.782-.009.781h-.598zm2.564 1.518c-.32-.115-.343-.189-.343-1.13 0-.852.02-.955.218-1.075.104-.063.177-.071.667-.071.512 0 .558.005.648.076.146.115.194.27.194.624v.315l-.511.216c-.282.119-.551.23-.6.25-.093.035-.115.133-.045.203.03.03.213.043.6.043h.556v.599l-.626-.002c-.43-.001-.667-.016-.758-.049zm.71-1.503c.13-.058.147-.076.11-.121-.03-.037-.112-.053-.27-.053-.31 0-.364.034-.364.23v.157l.185-.073c.102-.04.254-.103.339-.14zm.944 1.53c-.012-.013-.023-.148-.023-.3v-.276h.486c.501 0 .571-.018.571-.147 0-.09-.087-.123-.402-.15-.545-.048-.62-.133-.62-.708 0-.407.035-.52.198-.649.087-.068.138-.073.741-.073h.647v.564h-.486c-.515 0-.571.016-.571.165 0 .093.038.105.428.129.539.034.641.173.593.805-.046.605-.132.663-.98.663-.307 0-.569-.01-.582-.023zm1.88-1.58V20.46h.529v.839l.397.013c.434.014.567.06.71.252.07.095.074.147.084 1.102l.01 1.002h-.531v-.839c0-.605-.012-.85-.043-.881-.056-.056-.529-.056-.585 0-.03.03-.042.276-.042.881v.839h-.529zm2.279 1.567c-.26-.078-.34-.257-.34-.765 0-.649.111-.76.784-.78.404-.012.414-.015.414-.093 0-.11-.068-.123-.678-.123h-.52v-.529h.707c1.06 0 1.02-.045 1.02 1.138 0 .8-.003.829-.08.945-.136.203-.264.243-.766.24a3.526 3.526 0 0 1-.541-.033zm.851-.765c.013-.219-.01-.23-.399-.214l-.246.01-.011.12a.736.736 0 0 0 .01.204c.02.082.03.084.328.074l.308-.01zm3.05.733c-.232-.106-.274-.2-.288-.657-.01-.336-.002-.417.058-.554.106-.24.215-.284.739-.3.437-.015.473-.028.397-.148-.027-.043-.145-.055-.616-.064l-.583-.011v-.524h.706c1.047 0 1.03-.016 1.05 1.022.015.782-.016.998-.163 1.138-.147.14-.26.166-.723.165-.345 0-.459-.014-.577-.067zm.92-.65a.46.46 0 0 0-.013-.212c-.034-.089-.046-.092-.311-.092-.314 0-.36.027-.36.211 0 .186.045.212.373.212h.288zm.76-.25c0-1.058.013-1.139.195-1.282.082-.064.143-.076.392-.076h.295v.564h-.117c-.235 0-.234-.002-.244.916l-.01.828-.255.01-.255.011zm1.216.902c-.162-.073-.229-.189-.229-.395 0-.133.03-.17.546-.712l.546-.572-.528-.01-.528-.01v-.562h1.591l.103.103c.092.091.103.128.103.317v.214l-.555.546-.555.545.52.001.52.001v.6l-.696-.001c-.598-.001-.717-.01-.838-.065zm2.803-.692v-.51h-.917v-.53h.906l.023-.27a7.08 7.08 0 0 0 .023-.51v-.242h.458v1.022h.917v.529h-.917v1.022h-.493zm-12.214-3.039c-.693-.024-1.91-.254-2.66-.503-1.245-.414-1.91-.812-2.733-1.638-1.446-1.45-2.142-2.661-2.783-4.848-.358-1.218-.554-1.79-.838-2.45C1.062 9.808.559 8.957.167 8.46L0 8.247.115 8.2c.197-.084.946-.23 1.807-.354 1.11-.16 3.107-.162 4-.004.204.036.442.075.53.087.722.1 2.041.548 2.808.953a7.68 7.68 0 0 1 1.986 1.46c1.584 1.596 2.75 4.224 2.98 6.718.055.586.065 1.35.02 1.42-.02.033-.142-.092-.41-.417-1.002-1.22-2.22-2.298-3.456-3.056-.341-.21-1.465-.77-1.699-.848-.209-.07-.13.04.317.445a34.773 34.773 0 0 1 1.986 2.001c.505.565 1.14 1.39 1.409 1.834.287.472.603 1.115.634 1.289l.023.13-.312.013a65.59 65.59 0 0 1-2.392.002zm8.398-.072-4.256-.009v-.308c0-.17.024-.483.052-.696a8.79 8.79 0 0 0 .053-.45c0-.057.146-.06 2.542-.06 2.804 0 2.757.002 3.072-.222.22-.158.334-.304.452-.581l.1-.238.002-4.866V7.503l-.132-.219c-.182-.3-.355-.475-.578-.581l-.189-.09-6.186-.024c-4.304-.016-6.254-.012-6.41.014a1.532 1.532 0 0 0-.511.201l-.287.164-.229-.037c-.126-.02-.356-.061-.51-.09a9.36 9.36 0 0 0-.635-.092c-.543-.057-.511-.037-.511-.322 0-.294.096-.603.268-.862.137-.207.264-.314.532-.45l.184-.093h8.701c9.813 0 8.878-.03 9.226.29.222.202.409.554.473.891.03.155.038 1.854.03 6.344l-.01 6.133-.083.228c-.102.282-.286.564-.452.69-.29.222-.03.211-4.709.201zm3.86-3.51c.652-.288.855-1.03.434-1.58-.315-.413-.952-.437-1.28-.048-.482.571-.255 1.381.467 1.664.15.059.17.057.38-.036zm0-2.92c.184-.055.447-.295.556-.509a1.046 1.046 0 0 0-.008-.88c-.157-.3-.426-.495-.728-.531-.137-.016-.2-.003-.342.071-.304.16-.436.315-.543.637-.074.22-.074.237-.02.45.147.583.606.905 1.084.762zm.116-2.958c.179-.066.213-.097.361-.326.162-.249.164-.255.165-.551 0-.258-.012-.325-.092-.476a1.08 1.08 0 0 0-.398-.427c-.136-.086-.586-.09-.742-.006-.287.155-.51.544-.51.891a.843.843 0 0 0 .1.423c.234.487.63.655 1.116.473zM12.76 4.74a.65.65 0 0 1 .07-.21c.095-.184.09-.217-.043-.38a85.837 85.837 0 0 1-.8-1.044l-.687-.903h-.207c-.187 0-.218-.01-.309-.108a.527.527 0 0 1 .02-.726c.097-.098.142-.117.274-.117.295 0 .472.228.436.565l-.02.2.641.613c.353.337.787.752.963.922l.322.309.136-.058c.156-.065.58-.076.727-.018.093.036.11.017 1.178-1.319.596-.746 1.095-1.355 1.108-1.355.013 0 0-.072-.029-.159-.07-.214-.033-.388.114-.535.1-.099.143-.117.28-.117.29 0 .444.17.444.492 0 .154-.017.197-.12.31-.106.115-.145.133-.325.149l-.204.018-.89 1.48c-.49.815-.892 1.505-.893 1.534 0 .029.031.136.07.238.12.316.217.29-1.093.29-1.147 0-1.163 0-1.163-.071z"/></svg>