<svg viewBox="0 0 24 24" xmlns="http://www.w3.org/2000/svg" role="img"><path d="M3.723 17.32c-.032-.035-.326-.42-.654-.854l-.597-.789-.367-.109c-.451-.134-.744-.307-1.112-.66C.328 14.274 0 13.513 0 12.6c0-.665.141-1.186.472-1.735.166-.275.48-.614.526-.568.023.022.042.488.05 1.238.013 1.18.015 1.206.107 1.48.215.643.644 1.04 1.29 1.192.271.063 1.086.072 1.365.015.535-.111 1.083-.529 1.315-1.003.219-.447.23-.52.246-1.756.008-.622.03-1.145.048-1.164.089-.09.604.623.78 1.08.286.744.299 1.588.033 2.315-.296.812-.995 1.537-1.802 1.87l-.287.117-.018.842-.018.841-.163.011c-.121.008-.178-.006-.221-.054zm1.239-.2c.082-.966.757-1.884 1.665-2.265.508-.212-.072-.2 9.001-.2 7.562 0 8.33.005 8.35.057.012.03.022.644.022 1.363v1.306H4.94Zm16.778-.115c0-.088.016-.126.054-.126.037 0 .054-.038.054-.126v-.125h-.502v.125c0 .088.016.126.053.126.038 0 .054.038.054.126 0 .122.003.125.143.125.14 0 .144-.003.144-.125zm-13.036-.149c.184-.087.229-.205.229-.603v-.343H8.68v.285c0 .314-.036.385-.22.421-.092.019-.102.035-.102.16 0 .131.006.139.11.139a.663.663 0 0 0 .235-.059zm1.171.01c.15-.062.215-.143.22-.275.004-.12.039-.128.418-.11.267.012.36-.06.383-.304.014-.144.002-.195-.061-.276-.066-.083-.105-.098-.25-.098-.196 0-.283.07-.322.258l-.024.118-.348.01-.349.011v.142c0 .142 0 .142.144.142.102 0 .143.016.143.053 0 .107-.407.113-.474.007a.805.805 0 0 1-.027-.248v-.206H9.04v.234c0 .302.07.47.223.537.15.065.463.068.612.006zm.656-.702c-.027-.043.04-.085.088-.056.04.025.014.09-.036.09-.018 0-.041-.016-.052-.034zm1.433.7c.204-.086.269-.235.269-.622v-.332h-.287v.304c0 .284-.006.309-.088.362-.122.08-.3.039-.345-.08a.878.878 0 0 1-.033-.247c0-.158-.001-.16-.126-.16h-.125v.254c0 .159.02.293.056.361.099.192.42.267.68.16zm1.777-.076a.49.49 0 0 0 .125-.201l.023-.103h.338c.394 0 .481-.049.481-.27 0-.102-.033-.163-.163-.302l-.163-.174.185-.062c.184-.06.185-.062.165-.187a.504.504 0 0 0-.037-.142c-.01-.01-.143.03-.298.086l-.28.102-.012.157c-.01.146.002.17.162.333l.172.176-.269-.011-.269-.01-.01-.135c-.011-.127-.019-.135-.135-.135h-.124v.261c0 .3-.05.403-.215.439-.098.021-.108.037-.108.169v.145l.164-.018a.431.431 0 0 0 .268-.118zm2.174-.028c.12-.13.12-.133.12-.49v-.36h-.25v.25c0 .136-.015.288-.034.337-.045.118-.223.159-.344.08-.078-.051-.089-.085-.089-.273v-.214h-.287v.234c0 .45.147.603.553.58.19-.011.223-.025.331-.144zm.646.096c.178-.084.228-.208.228-.56 0-.344-.047-.443-.225-.476-.248-.047-.397.092-.397.368 0 .184.089.296.233.296.056 0 .102.017.102.037 0 .046-.155.107-.271.107-.078 0-.088.015-.088.143v.144h.147a.76.76 0 0 0 .271-.059zm-.124-.697c.007-.021.029-.039.047-.039.019 0 .04.018.047.039.007.021-.014.038-.047.038s-.054-.017-.047-.038zm1.465.63a.49.49 0 0 0 .126-.202l.023-.103h.337c.394 0 .482-.049.482-.27 0-.102-.033-.163-.163-.302l-.163-.174.185-.062c.183-.06.185-.062.164-.187a.504.504 0 0 0-.037-.142c-.009-.01-.143.03-.297.086l-.281.102-.011.157c-.01.146.001.17.161.333l.173.176-.27-.011-.268-.01-.011-.135c-.01-.127-.018-.135-.135-.135h-.123v.261c0 .3-.051.403-.216.439-.098.021-.107.037-.107.169v.145l.164-.018a.431.431 0 0 0 .267-.118zm1.51.07c.19-.098.247-.242.247-.617v-.332h-.287v.3c0 .322-.017.358-.188.4-.087.023-.099.043-.099.165 0 .132.006.14.11.14.06 0 .157-.025.216-.056zm3.427-.003c.184-.087.228-.205.228-.603v-.343h-.251v.272c0 .15-.016.301-.035.338-.052.097-.235.127-.343.056-.077-.05-.088-.084-.088-.272v-.214h-.287v.214c0 .284.08.481.227.553a.713.713 0 0 0 .55 0zm-15.783-.41c.028-.029.046-.029.063 0 .013.02.11.038.217.038.106 0 .204-.017.217-.039.018-.028.035-.028.063 0 .022.022.108.04.192.04.083 0 .163-.018.176-.04.017-.028.035-.028.063 0 .07.07.317.046.408-.039.068-.064.083-.115.083-.287v-.209h-.126c-.113 0-.125.01-.126.099 0 .054-.014.12-.032.148-.05.079-.11.011-.11-.123 0-.117-.007-.124-.124-.124-.117 0-.124.008-.135.135-.007.093-.03.137-.074.146-.051.01-.062-.015-.062-.134v-.147h-.142c-.137 0-.141.004-.152.135-.01.123-.02.134-.119.134-.096 0-.115-.02-.186-.197a3.682 3.682 0 0 1-.095-.26c-.019-.068-.15-.084-.238-.028-.054.034-.051.053.06.44.017.056-.008.063-.2.063-.209 0-.22.005-.22.087 0 .183.026.2.302.2.142 0 .275-.017.297-.039zm5.572-.518v-.556h-.287v1.112h.287zm.789.485c.08-.08.091-.231.026-.344-.073-.123-.326-.41-.363-.41-.064 0-.165.118-.165.193 0 .04.06.135.133.21l.132.135h-.445v.287h.305c.257 0 .316-.01.377-.071zm4.161 0c.08-.08.092-.231.026-.344-.072-.123-.325-.41-.362-.41-.064 0-.166.118-.166.193 0 .04.06.135.133.21l.133.135h-.245c-.236 0-.244.003-.223.081a.703.703 0 0 1 .022.144c0 .054.04.062.306.062.257 0 .316-.01.376-.071zm2.476-.485v-.556h-.287v1.112h.287zm1.596.462a2.27 2.27 0 0 0 .27-.158c.084-.062.084-.063.02-.228-.034-.092-.093-.182-.13-.202-.036-.02-.18-.035-.319-.035h-.253v.283l.206.012.206.011-.138.064c-.086.04-.2.06-.304.053l-.168-.01-.01-.279-.01-.278h-.125c-.082 0-.124.017-.124.05 0 .029-.053.06-.126.074-.165.03-.25.162-.25.385 0 .227.071.298.302.298.097 0 .188.013.203.027.015.015.148.027.295.027.22 0 .303-.017.455-.094zm-.986-.297c0-.044.023-.075.056-.075.034 0 .052.024.045.06-.017.09-.101.102-.101.015zm2.798-.021v-.413h-.251v.825h.251zm-11.624-.251c0-.123-.003-.126-.143-.126-.14 0-.144.003-.144.126 0 .122.004.125.144.125.14 0 .143-.003.143-.125zm3.803 0c0-.123-.003-.126-.143-.126-.14 0-.144.003-.144.126 0 .122.004.125.144.125.14 0 .143-.003.143-.125zm7.032 0c0-.12-.006-.126-.126-.126s-.125.006-.125.126.006.125.125.125c.12 0 .126-.006.126-.125zm-3.014-.162v-.143h-.287v.287h.287zm3.529-.09c.015-.038.076-.053.219-.053h.198v-.251h-.212c-.117 0-.238.01-.27.022-.075.029-.174.22-.15.286.027.067.189.065.215-.003zm-8.65-.234c.1-.037.135-.069.135-.13 0-.128-.061-.133-.344-.03-.257.093-.29.128-.246.246.022.057.107.04.455-.086zm4.162 0c.1-.037.134-.069.134-.13 0-.128-.06-.133-.343-.03-.257.093-.291.128-.246.246.022.057.107.04.455-.086zm-11.617-1.27c-.084-.085-.088-.108-.088-.552 0-.664-.023-.642.717-.658.557-.012.576-.014.66-.102a.48.48 0 0 0 .107-.183l.022-.093-.32-.023c-.418-.03-.694-.132-.885-.329-.186-.191-.264-.413-.29-.825-.046-.731.224-1.262.774-1.52.178-.083.244-.094.56-.09.43.003.679.084.928.304.377.331.479.798.443 2.024-.029.99-.122 1.295-.514 1.682-.336.33-.742.45-1.53.452-.479 0-.499-.003-.584-.088zm1.485-2.885c.027-.195-.078-.364-.227-.364-.12 0-.198.092-.198.233 0 .169.083.24.265.226.124-.009.15-.024.16-.095zm4.035 2.829c-.131-.053-.155-.152-.155-.656 0-.599-.011-.585.488-.608.425-.019.603-.089.713-.279.068-.117.074-.196.084-1.264l.01-1.14h1.18v.5c0 .407.011.51.057.556.05.05.231.057 1.45.057.767 0 1.42-.01 1.45-.022a.092.092 0 0 0 .057-.078c0-.032-.29-.35-.647-.707l-.647-.65.01-.462.01-.462 1.418-.512c.78-.281 1.43-.512 1.444-.513.016-.001.024.292.018.651l-.01.654-.591.224-.628.237c-.02.008.135.193.344.411.617.644.736.886.706 1.423-.026.48-.195.765-.562.952-.26.133-.526.149-2.236.138l-1.641-.01-.04.188c-.142.688-.731 1.266-1.396 1.37-.281.045-.778.045-.886.002zm8.825-.61c-.17-.069-.205-.31-.066-.45.11-.11.238-.112.364-.004.07.06.098.118.098.203a.243.243 0 0 1-.098.203c-.103.089-.17.1-.298.048zm-1.37-.067c-.09-.09-.103-.31-.023-.422.038-.055.103-.08.239-.093.272-.027.282-.05.282-.698v-.55h.535l.01.26.011.26h.359l.01-.26.011-.26h.496l.01.26.011.26.413-.003c.437-.004.7-.063.7-.158 0-.043-.071-.056-.373-.064l-.372-.01.022-.133c.012-.074.022-.195.022-.271v-.137l.464.011c.404.01.477.022.565.087.121.09.305.443.312.598.005.103-.017.123-.336.307-.533.307-.635.338-1.115.343-.306.003-.432-.008-.476-.045-.05-.041-.077-.041-.176 0a1.131 1.131 0 0 1-.342.05h-.225l-.035.129a.9.9 0 0 1-.39.497c-.078.04-.23.082-.337.095-.17.02-.206.013-.272-.053zM2.78 12.765a.442.442 0 0 1-.306-.302c-.024-.09-.034-.47-.028-1.012.01-.799.017-.88.086-1.012.116-.222.328-.352.604-.37.3-.019.45.035.625.226.21.228.228.333.215 1.308-.01.738-.02.861-.075.945-.123.188-.223.223-.653.23a3.439 3.439 0 0 1-.468-.013zm7.475-.367c-.08-.065-.085-.094-.096-.548-.011-.445-.007-.486.065-.577l.077-.098h.698c.936 0 .926.04.203-.803-.262-.305-.476-.57-.476-.588 0-.05.86-.876.899-.863.07.024 1.325 1.59 1.428 1.784.06.112.125.304.145.427.106.658-.235 1.156-.886 1.294-.112.024-.558.04-1.081.04-.824 0-.898-.005-.976-.068zm12.415-1.543c-.058-.058-.105-.14-.105-.182 0-.091.184-.287.269-.287a.41.41 0 0 1 .26.14c.071.094.053.25-.043.346-.118.118-.252.112-.381-.017zm-6.024-2.937V7.53l1.285-.456c.707-.251 1.326-.456 1.376-.456.157 0 .209.1.209.401v.27l-1.413.507a79.65 79.65 0 0 1-1.435.508c-.012 0-.022-.174-.022-.387z"/></svg>