<svg viewBox="0 0 24 24" xmlns="http://www.w3.org/2000/svg" role="img"><path d="M2.29 22.805v-1.194l.509-.365c.691-.495 1.916-1.688 2.466-2.402.248-.323.896-1.187 1.44-1.92 1.487-2.008 2.334-2.792 3.858-3.576 1.088-.56 1.31-.613 2.516-.613h1.047l.381-.216c.583-.329 1.011-.687 1.808-1.508 2.172-2.237 3.098-3.117 3.851-3.66 1.023-.738 1.275-1.001 1.466-1.534.05-.138.07 2.346.073 8.996L21.71 24h-4.268l.228-.27c.954-1.126 1.748-2.76 2.425-4.99.224-.736.268-1.023.157-1.023-.104 0-.242.26-.696 1.316-.588 1.367-.838 1.829-1.297 2.394-.41.505-1.232 1.202-1.846 1.564a28.22 28.22 0 0 0-.966.613l-.599.396h-1.401l.328-.359c1.162-1.27 1.905-3.212 1.906-4.975 0-1.292-.436-2.067-1.206-2.14-.275-.027-.322-.01-.552.198-.41.37-1.447 2.556-1.56 3.29-.044.283.14.601.433.75.176.088.71.112 1.203.054.175-.021.192-.006.211.19.052.547-.853 1.402-2.866 2.71l-.435.282-1.28-.002-1.278-.002.253-.201c.838-.664 1.53-1.6 2.158-2.921.764-1.607 1.5-3.919 1.248-3.919-.079 0-.339.508-.683 1.333-.948 2.275-1.648 3.096-3.643 4.269-.828.487-1.115.746-1.251 1.13L6.322 24H2.29Zm8.987-5.99a3.46 3.46 0 0 0 .36-.334c.313-.339.933-1.327.976-1.554.038-.204.018-.24-.27-.494-.338-.299-.838-.562-1.131-.597-.178-.021-.215.025-.964 1.247-.428.698-.78 1.29-.782 1.316-.003.026.106.065.24.086.135.022.428.132.65.245.495.25.683.268.921.084zM2.29 12.607V4.579l7.41.007c4.16.004 7.291.03 7.14.06-.822.162-1.668.952-2.496 2.331-.203.338-.357.625-.343.64.014.013.269-.203.567-.482 1.177-1.101 1.968-1.224 3.422-.532.843.402.826.32.224 1.088-.746.952-1.76 1.938-2.197 2.138-.344.158-.363.16-.915.08-1.173-.168-2.365.105-3.647.834-1.63.929-2.86 2.228-5.453 5.766-1.279 1.745-1.57 2.125-1.999 2.601-.423.47-1.574 1.526-1.664 1.526-.027 0-.05-3.612-.05-8.028zm17.358-7.261a25.564 25.564 0 0 1-.825-.354 6.228 6.228 0 0 0-.825-.29l-.445-.117 2.079-.003 2.078-.004V5c0 .332-.016.407-.08.354-.057-.047-.228-.031-.587.054-.677.16-.872.152-1.395-.06zm-3.638-2.34-.971-.99 1.008-1.008L17.056 0l.994 1.002c.547.551.995 1.018.995 1.037 0 .067-1.938 1.969-2 1.963-.035-.003-.5-.452-1.034-.996z"/></svg>