<svg viewBox="0 0 24 24" xmlns="http://www.w3.org/2000/svg" role="img"><path d="M2.332 23.957c-.023-.024-.042-.947-.042-2.052v-2.009l.61-.382a11.34 11.34 0 0 0 2.232-1.878c.246-.277.923-1.152 1.505-1.945 1.583-2.159 2.289-2.837 3.681-3.539.897-.451 1.101-.5 2.047-.481.752.015.87.002 1.11-.121.51-.26 1.058-.737 1.959-1.703 1.432-1.534 2.123-2.191 3.022-2.874.677-.515.876-.704 1.03-.977.205-.361.25-.676.106-.732-.048-.019-.259.01-.47.066-.583.154-.789.129-1.496-.183-.93-.409-1.203-.49-1.65-.49-.757 0-1.29.322-1.976 1.194-.376.477-.883 1.316-.829 1.371.018.018.242-.169.497-.416.793-.765 1.367-.945 2.208-.691.293.088 1.174.491 1.256.575.06.06-.752 1.073-1.35 1.682-.782.796-.952.897-1.465.864-.954-.062-1.522-.027-2 .122-1.968.614-3.398 1.946-5.993 5.583-1.215 1.703-1.388 1.922-2.067 2.616-.616.63-1.777 1.607-1.91 1.607-.034 0-.058-3.066-.058-7.447V4.27H21.71v4.947l-.396.198a5.226 5.226 0 0 1-1.888.507c-.458.031-.598.015-.92-.105-.546-.203-.737-.221-1.129-.105-.492.145-1.066.552-1.733 1.228-.612.62-.943 1.063-1.016 1.357-.042.173-.037.178.14.134.1-.026.269-.112.374-.191.262-.2.689-.362.95-.362.12 0 .441.074.713.164 1.432.472 2.933.141 4.35-.959l.555-.43V24h-9.668c-5.317 0-9.687-.02-9.71-.043Zm8.264-.474c.851-.41 1.868-1.674 2.498-3.11.349-.794.908-2.44.974-2.869.093-.602-.232-.135-.64.919-.484 1.245-1.057 2.138-1.731 2.693-.399.329-.656.507-1.746 1.207-.51.328-.694.565-.703.907-.009.332.139.443.594.446.26.001.453-.048.754-.193zm-3.039-.195c.673-.108 1.032-.324 1.43-.861.62-.838 1.295-2.522 1.551-3.875.158-.832.227-1.447.385-3.418.07-.886.156-1.786.19-1.998.076-.483.077-.548.003-.548-.137 0-.79 1.705-.977 2.546-.054.249-.144 1.134-.198 1.967-.115 1.757-.196 2.476-.316 2.823-.323.93-.997 1.796-2.068 2.658-.954.768-.954.86 0 .706zm5.708-.001c.663-.11.988-.287 1.344-.732.593-.741 1.35-2.517 1.612-3.778.129-.624.268-1.81.378-3.223a69.48 69.48 0 0 1 .198-2.118c.055-.472.087-.873.07-.89-.1-.101-.76 1.549-.992 2.482-.083.334-.157 1.037-.227 2.17-.058.922-.144 1.908-.192 2.192-.181 1.073-.876 2.116-2.05 3.074-1.106.903-1.12.984-.14.823zm-7.655-.533c.224-.083.541-.23.704-.327.997-.594 2.038-2.27 2.452-3.953.167-.674.15-1.645-.037-2.201-.124-.369-.523-.87-.843-1.059l-.192-.113-.14.2c-.148.21-1.03 1.993-1.1 2.223-.031.105.018.173.237.33.7.501 1.108 1.482.838 2.013-.099.193-.639.698-1.83 1.71-.411.35-.804.716-.873.814-.125.178-.162.39-.082.47.085.087.47.04.866-.107zm8.399-6.46c.42-.452.835-1.095.887-1.373.033-.178.009-.247-.143-.41-.256-.274-.78-.568-1.015-.569-.186 0-.229.053-.805 1.017a25.04 25.04 0 0 0-.648 1.121c-.03.081.028.12.266.18.168.042.434.145.591.23.157.085.342.155.41.157.072.001.267-.15.457-.354zm.64-13.233-.999-1.017 1.008-1.022L15.665 0l.995 1.014c.547.558.986 1.025.976 1.037a242.95 242.95 0 0 1-1.979 2.026 79.9 79.9 0 0 1-1.008-1.016z"/></svg>