<svg viewBox="0 0 24 24" xmlns="http://www.w3.org/2000/svg" role="img"><path d="M12.49 23.442c-.25-.124-.372-.467-.418-1.172-.098-1.51.828-2.854 2.37-3.434 1.312-.495 2.631-.448 3.845.137.765.369 1.248.814 1.3 1.197.045.339-.311.642-.952.81-.219.058-.867.158-1.401.216a.845.845 0 0 0-.196.038c-.017.01-.066.192-.108.403-.117.587-.232.87-.42 1.04-.28.255-.578.207-1.257-.203-.4-.24-.566-.318-.642-.298-.035.009-.237.174-.45.366-.652.59-.965.816-1.255.906-.205.064-.276.063-.415-.006zm.46-.615c.157-.078.297-.2.786-.674.43-.417.731-.652.838-.652.075 0 .315.118.748.366.428.246.68.36.776.348.065-.008.073-.033.25-.75.1-.409.186-.748.193-.755.006-.006.262-.035.567-.064.636-.06 1.138-.137 1.391-.215.218-.067.426-.171.446-.222.038-.1-.267-.418-.573-.596-.518-.303-1.226-.493-1.96-.526-1.629-.074-3.106.736-3.58 1.962-.13.338-.174.603-.174 1.064 0 .228.016.5.036.607.04.218.038.217.256.107zm-2.476.196c-.307-.092-.576-.253-1.185-.708a4.881 4.881 0 0 0-.444-.3l-.138-.073-.102.048c-.056.027-.227.13-.381.231-.36.234-.548.32-.783.353-.272.04-.37.013-.536-.144-.198-.187-.24-.293-.358-.911-.053-.279-.141-.506-.22-.572-.027-.022-.293-.04-.835-.058-.813-.026-1.023-.052-1.264-.155-.458-.197-.444-.67.037-1.232a4.045 4.045 0 0 1 1.548-1.114c.449-.175.751-.228 1.28-.226.51.002.796.049 1.29.213a4.58 4.58 0 0 1 2.41 1.835c.452.67.706 1.38.706 1.977 0 .411-.105.664-.335.806-.137.085-.462.099-.69.03zm.423-.885c-.004-.431-.066-.674-.288-1.13a3.795 3.795 0 0 0-.787-1.078 3.813 3.813 0 0 0-1.019-.76c-1.243-.649-2.616-.565-3.65.223-.296.225-.542.515-.642.755l-.041.1.1.03c.06.019.454.04 1.005.052.88.02 1.127.037 1.213.081.025.013.136.322.29.808.19.597.261.788.293.788.077 0 .431-.186.785-.41.191-.123.408-.253.482-.29l.134-.067.158.12c.088.065.244.177.347.247.103.07.336.239.518.374.182.136.418.294.523.35.171.093.484.189.555.17.017-.004.026-.145.024-.364zm9.432-2.46c-.25-.103-.514-.294-.84-.611-.48-.468-.717-.828-.879-1.334-.114-.358-.148-.596-.146-1.025.01-1.997 1.555-3.738 3.713-4.18.22-.046.35-.056.612-.049.301.008.347.016.486.084.284.14.387.386.303.727-.093.383-.296.718-.804 1.328-.312.376-.385.475-.384.523 0 .02.108.186.239.37.408.57.509.816.449 1.096a.46.46 0 0 1-.154.262c-.148.147-.328.214-.934.345a3.791 3.791 0 0 0-.522.145l-.136.061-.017.703c-.021.897-.07 1.173-.258 1.436-.135.19-.437.239-.728.119zm.358-.647c.025-.09.036-.364.038-.951.003-.82.026-1.068.102-1.126.017-.013.394-.125.837-.248.745-.207.805-.228.805-.283 0-.1-.215-.483-.483-.86-.35-.492-.334-.443-.212-.629.056-.086.206-.276.333-.422.675-.777.868-1.082.868-1.373v-.105h-.29c-.604 0-1.18.185-1.774.57-.964.628-1.665 1.628-1.84 2.628a3.18 3.18 0 0 0 .04 1.129c.12.461.483 1.031.914 1.439.223.21.458.358.57.358.046 0 .064-.025.092-.127zm-17.416.183c-.278-.09-.497-.352-.638-.762-.055-.158-.116-.508-.174-.985-.048-.403-.101-.626-.16-.669a1.72 1.72 0 0 0-.326-.087c-.776-.155-.972-.223-1.147-.398a.542.542 0 0 1-.156-.474c.02-.183.112-.367.354-.702.204-.28.357-.558.357-.646 0-.025-.17-.211-.377-.412-.207-.202-.47-.477-.582-.613-.82-.986-.442-1.463 1.119-1.41.794.028 1.368.195 1.924.56.848.558 1.4 1.415 1.622 2.526.051.254.06.387.061.847 0 .57-.018.732-.136 1.21-.227.91-.765 1.72-1.301 1.96-.127.058-.347.085-.44.055zm.302-.633c.372-.19.76-.89.923-1.666.278-1.32-.05-2.552-.905-3.404-.496-.494-1.08-.803-1.71-.904-.416-.067-1.272.017-1.272.125 0 .02.026.088.057.15.055.108.194.253.902.94.19.184.37.386.421.47l.089.15-.402.717c-.22.395-.401.73-.401.746 0 .035.243.148.399.186.066.016.282.053.48.084.366.056.666.138.714.196.03.036.086.415.15 1.009.058.544.177.99.323 1.213.043.066.082.063.232-.013zm6.954.393c-.217-.1-.336-.319-.353-.655a1.493 1.493 0 0 1 .152-.737c.125-.262.181-.341.242-.341.049 0 .053.01.037.1-.01.055-.065.237-.123.406-.122.353-.138.522-.064.685.04.092.067.116.14.13a.64.64 0 0 0 .368-.062c.044-.022.254-.216.466-.431.447-.452.538-.509 1.318-.815.553-.217.573-.229.573-.34.001-.156.078-.456.16-.624a.981.981 0 0 1 .479-.452c.157-.057.17-.071.227-.275.117-.412.254-.624.473-.73.262-.125.25-.13.445.172l.173.268.204-.008c.24-.01.28-.036.462-.317a1.21 1.21 0 0 1 .146-.196c.054-.034.114.056.146.217.027.131.04.155.102.171.039.01.094.013.122.006.044-.011.05-.032.039-.164-.01-.123 0-.17.05-.257.034-.058.079-.106.1-.106.052 0 .156.214.176.362a.761.761 0 0 1-.14.502c-.142.17-.321.203-.58.106l-.149-.056-.159.12a.732.732 0 0 1-.56.161c-.123-.016-.129-.02-.293-.26a16.87 16.87 0 0 0-.177-.255c-.021-.026-.201.093-.29.19-.18.2-.114.32.295.539.433.232.572.381.572.617 0 .17-.12.423-.26.545-.267.236-.804.345-1.295.265-.21-.035-.384.007-.902.216-.45.181-.724.313-.884.423-.059.04-.269.236-.467.434-.483.484-.687.578-.97.447zm3.95-2c.246-.031.51-.119.51-.17 0-.073-.16-.181-.361-.244a1.693 1.693 0 0 0-.213-.058c-.023.027-.225.45-.225.472 0 .034.016.034.289 0zm-.575-.176c.131-.067.21-.262.17-.421-.023-.088-.125-.091-.283-.007a.37.37 0 0 0-.196.44c.015.056.027.06.126.044a.758.758 0 0 0 .183-.056zm-5.21 1.235a.614.614 0 0 1-.336-.428c-.041-.189.01-.418.2-.892a4.99 4.99 0 0 0 .147-.403c0-.02-.022-.025-.06-.014-.056.017-.124.05-.558.274a.795.795 0 0 1-.38.106l-.2.013-.093-.102c-.262-.287-.298-.911-.076-1.32.18-.329.237-.222.128.234l-.072.3.05.154.05.154.145.008c.192.011.51-.09.892-.28.466-.234 1.106-.677 1.106-.766 0-.064-.19-.197-.519-.365-.552-.28-.739-.398-.921-.58-.192-.19-.265-.346-.273-.58l-.004-.126.113.002c.077.002.187.04.346.12.233.117.233.117.237.224.002.058.005.121.007.14.002.018.21.133.462.255.506.245.599.31.706.493.065.109.073.15.072.35-.002.384-.135.563-.643.866-.266.159-.487.34-.487.399 0 .018.024.04.053.047.078.02.067.096-.07.485-.15.422-.165.608-.066.768.064.103.064.103.215.092a.805.805 0 0 0 .269-.072c.065-.033.291-.231.504-.44.452-.445.572-.523 1.198-.776.473-.191.75-.322.846-.401l.06-.05-.057-.08c-.092-.127-.277-.264-.612-.452-.427-.241-.578-.351-.969-.706l-.337-.306.009-.269c.008-.24.017-.281.081-.378.085-.128.26-.251.7-.493.619-.339 1.454-.697 1.974-.845.308-.088.76-.132.833-.082.058.04.045.28-.024.462a1.862 1.862 0 0 1-.161.307c-.138.206-.447.562-.573.657l-.101.078.017-.128c.023-.169.116-.332.327-.574.203-.231.266-.334.216-.353-.13-.05-.818.147-1.417.405-.588.253-1.585.802-1.584.873 0 .011.103.068.23.125l.228.105-.016.14-.016.138.26.138c.6.32 1.1.722 1.226.987.068.143.077.364.02.475a1.144 1.144 0 0 1-.19.213c-.162.147-.376.258-1.01.525-.49.206-.684.338-1.04.708-.321.335-.437.421-.652.485-.193.057-.228.053-.41-.045zm6.848-3.67c-.085-.06-.154-.124-.154-.143 0-.02.038-.115.084-.213.07-.15.08-.2.068-.308-.013-.105-.005-.145.043-.215.098-.143.127-.15.302-.062.16.08.165.087.223.323.023.096.053.131.2.236.094.067.172.129.172.137 0 .008-.038.084-.084.17-.073.138-.093.157-.163.157a.33.33 0 0 1-.166-.065l-.084-.064-.118.078a.597.597 0 0 1-.144.078.87.87 0 0 1-.18-.109zm-4.294-1.724a.964.964 0 0 1-.315-.376c-.073-.162-.076-.536-.006-.747.094-.28.29-.612.363-.612.06 0 .022.273-.069.498-.135.336-.164.5-.115.648.066.197.24.238.5.117.106-.05.236-.16.504-.43.486-.487.595-.554 1.414-.861l.413-.155.045-.26c.092-.53.234-.739.64-.944.135-.07.155-.09.18-.19.115-.445.278-.702.516-.818.188-.09.208-.082.408.197.1.14.204.26.231.27a.687.687 0 0 0 .199-.003c.166-.02.233-.076.45-.367.062-.084.13-.152.15-.152.05 0 .099.144.08.238-.019.093.065.161.2.161h.09l-.018-.133a.398.398 0 0 1 .034-.25c.06-.136.091-.161.16-.125.127.069.177.387.096.616-.08.23-.264.398-.432.398a.96.96 0 0 1-.26-.069l-.172-.07-.133.12c-.164.147-.284.206-.422.206-.135 0-.22-.069-.434-.35l-.16-.21-.075.04a.597.597 0 0 0-.239.274c-.03.072-.026.091.032.183.101.158.178.216.419.316.346.143.426.251.425.572-.001.356-.272.626-.738.735-.145.035-.26.04-.598.025l-.417-.018-.368.122c-.735.246-1.226.541-1.711 1.03-.37.372-.446.423-.638.422a.452.452 0 0 1-.23-.048zm4.242-2.055c.184-.08.206-.11.13-.182-.07-.066-.488-.226-.527-.202a2.85 2.85 0 0 0-.237.454c0 .042.502-.013.634-.07zm-.854-.168a.453.453 0 0 0 .096-.358c-.013-.074-.024-.085-.072-.071-.128.037-.286.127-.336.19a.366.366 0 0 0-.027.328c.025.046.035.047.151.012a.535.535 0 0 0 .188-.1zm7.529 1.498a3.386 3.386 0 0 1-2.072-.906c-.826-.761-1.27-1.811-1.27-3.006 0-.713.138-1.31.453-1.958.291-.599.636-1.024.978-1.206.224-.118.382-.135.56-.058.408.175.627.727.78 1.965.03.244.057.446.06.449.003.003.18.037.392.075.713.13.921.21 1.151.447l.132.136-.012.203c-.014.249-.102.452-.35.808-.189.271-.336.547-.336.629 0 .034.167.22.461.513.472.47.701.746.835 1.005a.58.58 0 0 1 .075.32c0 .223-.062.314-.287.424-.284.139-.965.209-1.55.16zm1.065-.58c.126-.019.133-.024.127-.096-.012-.169-.218-.408-.897-1.04-.398-.371-.522-.517-.522-.617 0-.083.09-.258.352-.684.353-.576.47-.852.375-.888-.023-.01-.378-.09-.79-.18l-.747-.164-.02-.093c-.01-.05-.044-.325-.075-.609-.062-.568-.114-.895-.177-1.118-.048-.169-.18-.43-.248-.492-.042-.038-.055-.034-.163.049-.313.24-.698.86-.885 1.428-.222.671-.202 1.648.05 2.368.399 1.147 1.17 1.867 2.238 2.092a5.043 5.043 0 0 0 1.382.043zm-22.007.19c-.324-.028-.527-.11-.671-.27-.298-.33-.121-.91.505-1.658.35-.419.54-.672.54-.726 0-.077-.12-.284-.332-.576-.285-.39-.346-.526-.346-.758 0-.42.193-.567.97-.736.443-.096.708-.178.752-.23.024-.03.039-.231.051-.696.02-.719.063-1.042.171-1.28.098-.214.182-.31.317-.361.31-.119.745.109 1.344.706.451.45.68.784.84 1.233.147.412.185.643.183 1.11a3.543 3.543 0 0 1-.37 1.618c-.527 1.116-1.65 2.078-2.879 2.465-.348.11-.83.182-1.075.16zm.521-.596c.973-.135 1.922-.781 2.57-1.75.759-1.132.872-2.407.293-3.286-.181-.275-.885-.962-1.03-1.005-.156-.048-.229-.029-.258.066-.014.044-.035.475-.046.958-.012.484-.032.92-.045.972-.017.069-.05.108-.127.151-.157.088-.463.181-.897.274a9.195 9.195 0 0 0-.529.124l-.138.04.017.112c.028.178.15.408.397.744.248.339.364.523.364.579 0 .053-.188.294-.519.666-.551.619-.71.876-.771 1.242-.017.102-.013.112.043.123.123.023.475.019.676-.01zm5.67-.15c-.105-.025-.234-.15-.297-.288a1.396 1.396 0 0 1-.083-.8c.058-.343.182-.582.347-.667.066-.034.073-.033.073.01 0 .061-.08.338-.17.586-.113.313-.087.654.054.69.1.024.273-.012.434-.09.146-.07.378-.286.84-.782.443-.474.968-.755 1.314-.703.15.022.325.102.4.182.053.057.055.07.025.292-.017.127-.042.231-.055.231a.97.97 0 0 1-.18-.095c-.188-.116-.318-.137-.51-.082-.241.07-.46.239-1.005.773-.536.524-.708.66-.924.725-.128.038-.169.041-.263.018zm4.114-.137c-.085-.022-.201-.247-.243-.47a1.843 1.843 0 0 1 .052-.752c.051-.164.168-.352.219-.352.042 0 .028.183-.033.454-.057.255-.057.257-.007.413l.051.158.165.008a.926.926 0 0 0 .373-.062c.422-.14 1.087-.541 1.405-.845l.16-.154-.092-.081a3.047 3.047 0 0 0-.449-.253c-.453-.219-.544-.282-.876-.607l-.273-.266v-.208c0-.192.004-.208.054-.208.086 0 .358.1.49.18.13.077.161.131.152.26-.006.077.004.084.485.325.415.208.51.267.611.38.218.242.225.504.02.818-.122.19-.428.48-.699.666-.537.37-1.305.661-1.566.596zm-.65-.486a93.15 93.15 0 0 1-.11-1.834 60.044 60.044 0 0 0-.134-2.036c-.045-.332-.02-.457.115-.576.115-.1.095-.128.288.402.172.474.18.516.098.528-.038.006-.067.034-.08.08-.032.114-.014.562.047 1.15.074.716.097 1.464.054 1.758-.037.255-.109.445-.202.532l-.063.06zm-3.597-1.3a1.108 1.108 0 0 1-.687-.733 1.845 1.845 0 0 1 .017-1.008c.106-.309.338-.639.415-.591.053.033.029.176-.094.553-.115.35-.122.391-.112.591.019.329.133.507.408.632.114.052.173.06.426.057.354-.004.667-.078 1.103-.262.39-.165.907-.475.907-.546 0-.023-.263-.11-.728-.242-.505-.143-.58-.37-.307-.932.248-.513.645-.91 1.006-1.008.155-.042.284-.015.34.07.056.085.053.283-.006.43-.051.128-.104.141-.235.062-.163-.099-.192-.096-.373.034-.28.2-.48.456-.536.685-.015.062-.004.076.101.127.065.032.255.088.421.125.321.073.527.165.615.276.046.058.052.096.042.258-.023.365-.206.57-.846.951-.615.366-.976.496-1.425.513-.241.009-.32 0-.452-.043zm8.94-.77c-.09-.068-.165-.143-.166-.168 0-.024.036-.12.08-.213.066-.136.078-.19.065-.28a.327.327 0 0 1 .041-.223c.056-.11.058-.111.178-.098.18.02.254.089.3.28.038.15.053.173.2.286.088.068.17.134.183.146.013.012-.007.087-.044.168-.055.12-.081.15-.15.165-.067.014-.107.004-.189-.05l-.103-.069-.075.06c-.158.127-.143.128-.32-.004zm.352-2.265a5.356 5.356 0 0 1-1.975-.681 4.46 4.46 0 0 1-2.073-3.074c-.124-.744.087-1.145.603-1.146.442 0 1.236.394 1.866.926l.253.214.113-.05c.063-.029.276-.155.475-.282.577-.368.841-.428 1.15-.26.232.126.313.291.478.978.058.239.126.478.152.532l.047.099h.534c1.175.001 1.697.112 1.862.396.09.156.072.362-.057.622-.385.778-1.497 1.535-2.491 1.697-.238.039-.72.054-.937.028zm.794-.574c.347-.052.696-.172.972-.335.588-.346 1.15-.914 1.15-1.162 0-.07-.06-.075-1.158-.114a34.106 34.106 0 0 1-.935-.042c-.155-.014-.164-.019-.21-.113-.08-.168-.12-.295-.253-.805a8.39 8.39 0 0 0-.17-.596c-.042-.097-.048-.101-.14-.086-.153.024-.453.179-.798.41-.342.23-.516.326-.584.326-.068 0-.366-.205-.771-.53-.417-.333-.592-.455-.81-.565-.164-.081-.495-.178-.522-.151-.043.043-.065.387-.038.604.129 1.043 1.062 2.212 2.235 2.8.685.343 1.354.461 2.032.359zm-10.086.199c-1.239-.14-2.44-.735-2.754-1.362-.194-.388-.045-.709.438-.942.248-.12.54-.186 1.105-.252.486-.056.504-.059.75-.107l.152-.03.054-.145c.03-.08.08-.285.11-.456.09-.503.195-.712.452-.909.115-.087.124-.09.305-.076.252.02.5.118.86.342.31.193.584.342.632.343.016 0 .201-.163.413-.362.978-.918 1.526-1.171 1.845-.852.207.207.29.548.292 1.2.003.956-.226 1.611-.789 2.258-.15.173-.532.49-.77.641a5.091 5.091 0 0 1-1.67.656 6.628 6.628 0 0 1-1.425.053zm1.246-.611c.864-.149 1.448-.424 1.952-.92a3.01 3.01 0 0 0 .837-1.424c.053-.19.063-.29.064-.626.001-.35-.006-.421-.06-.579a.78.78 0 0 0-.086-.194c-.028-.017-.19.063-.315.157-.05.037-.289.259-.533.493-.469.451-.565.534-.776.67-.123.078-.138.081-.232.052a4.637 4.637 0 0 1-.433-.206c-.81-.423-.988-.513-1.025-.513-.086 0-.186.301-.332.996a9.76 9.76 0 0 1-.115.512c-.022.021-.295.061-.698.102-.871.087-1.212.155-1.546.306-.095.043-.171.094-.171.114 0 .02.033.09.075.156.232.365.833.693 1.576.86a4.74 4.74 0 0 0 1.818.044z"/></svg>