<svg role="img" viewBox="0 0 24 24" xmlns="http://www.w3.org/2000/svg"><path d="M.78 23.958a1.02 1.02 0 0 1-.62-.58l-.052-.128V.755L.16.627A1.01 1.01 0 0 1 .789.046C.936 0 1.045 0 11.99 0c11.735 0 11.153-.005 11.367.103.226.115.41.338.488.59.046.147.046.26.046 11.31 0 11.053 0 11.162-.046 11.31a1.01 1.01 0 0 1-.581.628l-.128.052-11.108.005c-10.89.004-11.11.004-11.248-.04zm21.303-1.434a.88.88 0 0 0 .411-.42l.062-.132V2.103l-.062-.134a.995.995 0 0 0-.432-.431l-.133-.063H2.06l-.134.063a.995.995 0 0 0-.431.431l-.063.134v19.869l.063.133a.918.918 0 0 0 .57.48c.05.013 4.265.02 9.976.018l9.889-.004zM2.71 21.91a.817.817 0 0 1-.525-.533c-.042-.136-.044-.249-.044-2.528v-2.386L4.574 10.8l2.434-5.664h8.029v2.021H8.055l-1.97 4.352a1192.81 1192.81 0 0 0-2.032 4.502.787.787 0 0 0-.063.365c-.001.193.004.22.051.268l.053.053 3.108.011 3.107.012.115.052c.186.086.305.2.39.372l.076.156.012.511c.01.471.016.52.064.619a.78.78 0 0 0 .372.374l.156.077 3.88.007c2.752.005 3.917 0 4-.018.23-.05.415-.26.443-.505.01-.091-.266-1.405-1.488-7.086-.826-3.835-1.501-6.98-1.501-6.989 0-.008-2.124-.015-4.72-.015-3.069 0-4.716-.008-4.711-.023.004-.012.211-.498.46-1.08l.454-1.057h4.926l4.927-.001 1.913 8.953 1.913 8.952-.008.663-.008.662-.063.128a.837.837 0 0 1-.507.444c-.14.043-.36.044-9.349.043H2.85zm9.487-4.112a.896.896 0 0 1-.57-.463l-.063-.128V12.7l.062-.133a.914.914 0 0 1 .41-.41l.132-.062 2.196-.006c1.443-.004 2.235.002 2.309.018.292.062.618.319.74.581.04.084.218.817.518 2.127.416 1.817.456 2.014.449 2.173a.896.896 0 0 1-.513.758l-.145.067-2.719.004c-1.529.002-2.757-.005-2.806-.018z"/></svg>