<svg role="img" viewBox="0 0 24 24" xmlns="http://www.w3.org/2000/svg"><path d="m13.367 23.158-.107-.012.017-.116c.024-.171.232-2.26.28-2.824.023-.267.075-.822.115-1.232.059-.598.067-.765.042-.847-.03-.097-.054-.112-.58-.37-.461-.227-2.74-1.217-2.8-1.217-.05 0 .028.314.196.784.102.284.408 1.296.68 2.248.272.952.527 1.806.565 1.898.089.211.125.43.07.43-.02 0-.18-.073-.357-.16-.23-.115-.335-.184-.377-.247-.032-.049-.156-.436-.276-.861a124.62 124.62 0 0 0-.8-2.76 14.6 14.6 0 0 1-.2-.707 9.372 9.372 0 0 0-.21-.71c-.086-.225-.237-.428-.338-.457-.034-.01-.293-.128-.576-.264a46.794 46.794 0 0 0-1.332-.597 30.76 30.76 0 0 1-1.201-.544 10.616 10.616 0 0 0-.66-.303c-.152-.06-.474-.205-.715-.321a14.525 14.525 0 0 0-.814-.36 8.729 8.729 0 0 1-.65-.288c-.25-.13-.406-.176-.405-.121.001.08-.147 2.161-.154 2.17-.005.006-.051-.014-.102-.043-.185-.107-.231-.34-.18-.919l.023-.257h-.154c-.14 0-.157.007-.194.077a.752.752 0 0 0-.058.188 3.33 3.33 0 0 1-.048.23c-.03.115-.033.119-.13.11l-.1-.007.007-.175c.007-.173.006-.174-.076-.19-.051-.01-.12-.062-.18-.136a1.06 1.06 0 0 0-.251-.205c-.21-.119-.272-.221-.253-.421a.885.885 0 0 0-.013-.257l-.028-.102H.88c-.09 0-.198-.007-.243-.016l-.08-.017v-.472l.001-.472-.076-.055c-.072-.053-.076-.068-.076-.278 0-.249-.04-.282-.11-.09-.06.168-.055 1.882.008 2.462.154 1.42.49 2.63 1.07 3.858.19.403 1.136 1.87 1.39 2.157.276.311.454.544.51.667.029.066.047.127.039.134-.034.034-.225-.093-.359-.239-.22-.239-1.211-1.667-1.47-2.118a12.105 12.105 0 0 1-.768-1.633c-.763-2.042-.926-4.583-.446-6.944.095-.463.381-1.356.602-1.874.254-.6.682-1.456.909-1.82.09-.145.485-.664.876-1.152.77-.96 1.2-1.413 1.786-1.875C7.44 1.118 11.247.28 14.94 1.177a12.19 12.19 0 0 1 3.064 1.213c.78.447 1.62 1.07 2.303 1.705.265.247.544.588 1.34 1.64.806 1.068.977 1.34 1.295 2.065.099.224.207.445.24.492.073.103.058.287-.022.271-.056-.01-.2-.261-.329-.572-.31-.75-.59-1.177-1.655-2.523-1.037-1.31-1.203-1.477-2.144-2.146a10.678 10.678 0 0 0-2.156-1.226c-1.083-.477-2.023-.733-3.25-.886-1.032-.128-1.673-.134-2.638-.027-2.013.225-2.965.525-4.79 1.513-.958.518-2.002 1.343-2.652 2.095a97.37 97.37 0 0 1-.533.611c-.419.475-.54.644-.992 1.382-.475.774-.566.942-.749 1.382-.17.408-.534 1.372-.55 1.456-.024.12.04.166.337.241l.386.098.108.029-.016.324c-.01.178-.038.46-.064.625-.059.367-.04.474.097.566a.38.38 0 0 0 .17.063c.058 0 .093.028.153.118l.078.118.024-.083a4.86 4.86 0 0 0 .04-.57c.016-.47.015-.487-.042-.538-.066-.059-.074-.144-.03-.301.033-.119.092-.16.23-.16.075 0 .099.013.112.062.027.1.02.216-.027.424a2.6 2.6 0 0 0-.076.815l.017.259.1-.019c.15-.028.242-.085.308-.193.083-.134.08-.242-.009-.348a.28.28 0 0 1-.074-.205c0-.178.163-.388.337-.435.122-.033.119-.022.234-.802.07-.479.12-.671.464-1.81.111-.368.17-.517.236-.6.049-.061.143-.23.21-.374.11-.238.142-.28.339-.448.278-.238.4-.298.613-.298.133 0 .196.017.331.09l.167.09 1.182-.007c1.59-.012 1.756.01 2.373.312.431.211.77.446 1.264.876.448.39.444.388.444.283 0-.103-.057-.151-.15-.128-.193.048.047-.338.251-.406.158-.052.348.087.412.302.016.053.005.069-.064.095-.1.038-.115.082-.115.349 0 .246.056.374.23.517.067.055.13.1.14.1.01 0 .018-.156.018-.345v-.344l-.097-.058c-.054-.031-.097-.071-.097-.088s.057-.105.126-.195c.108-.14.14-.165.216-.165.119 0 .184.05.29.221.07.112.08.146.049.158-.022.008-.062.073-.09.144-.041.108-.05.214-.05.616.001.457.005.493.067.61.107.204.224.365.392.543.088.092.19.23.23.306.038.076.147.238.242.36.217.28.487.68 1.028 1.528.233.366.496.773.584.902.087.13.2.318.249.417.05.1.143.256.208.347.064.092.157.245.205.34.132.263.116.257 1.08.423.354.061.792.148.971.194.18.045.526.122.77.17.393.079.457.085.582.056.223-.051.375-.155.438-.3.054-.121.056-.203.066-3.295.006-1.744.02-3.649.029-4.234l.018-1.063.075-.039c.068-.035.077-.06.108-.287.056-.423.057-.421-.22-.422H18.8l-.017.128a.648.648 0 0 0-.001.193c.01.04-.01.123-.054.219l-.071.154h-.149c-.135 0-.157-.009-.251-.105-.102-.104-.103-.108-.103-.332v-.227l.285-.008.284-.008.008-.268.008-.268.381-.018c.343-.016.934.014.97.049a.51.51 0 0 1 .026.134c.022.198.037.245.077.245.058 0 .072.065.072.321v.233l-.23.008-.228.008-.008.097c-.018.228-.011.222-.262.222h-.226l.018 2.618c.02 2.778.063 5.674.09 6.09l.017.252.352.062c.193.034.416.062.494.061h.143l.017-1.827c.009-1.004.02-2.526.024-3.381l.007-1.556-.23-.008-.228-.008v-.49l.087-.018c.047-.01.127-.017.177-.017.082 0 .093-.01.109-.097a.434.434 0 0 1 .082-.172c.058-.067.086-.075.297-.086.436-.023.574.07.546.365-.019.193-.106.267-.314.267h-.151v.132c0 .143.079 5.871.09 6.54.007.388.01.41.075.479.123.13.484.194.727.126l.1-.028.017-.229c.028-.372.08-4.887.07-6.051l-.01-1.073-.13-.14c-.221-.236-.21-.376.04-.493.53-.246.963.205.539.56l-.096.08.037 3.07c.04 3.422.056 3.954.114 4.013a.384.384 0 0 0 .166.057c.11.017.132.032.166.113l.082.193c.034.08.074.114.215.176.249.111.544.21.565.189.074-.074.26-1.14.316-1.811a18.42 18.42 0 0 0-.001-2.014c-.071-.767-.32-1.992-.513-2.514-.19-.517-.273-.873-.152-.652.194.352.483 1.551.658 2.735.072.486.078.591.076 1.306a12.963 12.963 0 0 1-.237 2.607c-.205 1.14-.299 1.462-.635 2.17-.095.199-.221.477-.281.618-.06.141-.177.36-.259.486a5.121 5.121 0 0 0-.225.382 4.378 4.378 0 0 1-.276.43c-.11.153-.301.428-.426.612-.125.183-.307.433-.406.555-.21.26-1.322 1.371-1.322 1.321 0-.018.07-.106.154-.195l.155-.162-.018-.232c-.013-.167.014-.6.096-1.55.128-1.499.132-1.609.06-1.767-.028-.062-.191-.272-.362-.465-.343-.39-.334-.386-.496-.202-.093.107-.131.252-.16.614-.01.122-.04.41-.069.638-.028.23-.072.686-.096 1.014-.093 1.258-.095 1.269-.245 1.239-.118-.024-.135-.048-.105-.144.014-.044.032-.134.04-.2.013-.113.009-.121-.102-.197-.161-.11-.391-.222-.796-.387-.191-.077-1.147-.498-2.124-.934a80.828 80.828 0 0 0-1.808-.793c-.02 0-.042.208-.065.618-.048.878-.106 1.455-.184 1.84-.124.616-.188 1.202-.225 2.07-.016.382-.025.443-.063.439a8.61 8.61 0 0 0-.152-.016zm7.498-2.41.388-.5c.283-.365.628-.87.775-1.14.06-.106.15-.246.201-.31a1.45 1.45 0 0 0 .244-.501c.019-.09.018-.09-.088-.09-.058 0-.418.024-.8.055-.382.03-.715.055-.74.055-.059 0-.07.068-.11.695a11.96 11.96 0 0 1-.11.972c-.093.571-.144 1.035-.12 1.098.015.037.034.028.114-.048.053-.05.164-.18.246-.286zm-1.888-1.257a9.2 9.2 0 0 0 .023-.493l.001-.195-.11-.008a7.356 7.356 0 0 1-1-.189 6.811 6.811 0 0 1-.662-.25c-.227-.098-.65-.26-.942-.359-.292-.1-.57-.205-.617-.234-.088-.054-1.522-.592-2.195-.824a84.565 84.565 0 0 1-.911-.321c-.54-.194-.55-.2-.537-.27a5.35 5.35 0 0 0 .032-.393l.019-.32-.802-.174a26.93 26.93 0 0 0-.832-.172c-.018 0-.038.089-.049.216-.02.236-.063.424-.098.424-.053 0-.122-.118-.133-.228-.018-.169.085-.578.16-.64.07-.058.191-.06.45-.01.139.026.187.027.187.003 0-.04-.118-.15-.285-.262-.13-.087-.132-.09-.132-.24 0-.102-.011-.151-.035-.151a4.66 4.66 0 0 1-.623-.086c-.058-.019-.091-.05-.097-.09-.007-.048-.036-.065-.14-.086-.073-.014-.14-.018-.15-.009-.008.01.044.165.118.345.073.18.202.572.287.87l.154.542.222.107c.122.06 1.329.598 2.68 1.198 1.352.6 2.571 1.146 2.708 1.215.138.069.438.197.667.285.23.087.454.179.5.203.181.094 2.03.89 2.074.892.038.002.049-.045.068-.296zm-.753-.072c-.595-.246-.869-.369-1.009-.453-.084-.05-.18-.1-.21-.11-.23-.07-1.118-.444-1.903-.8a49.714 49.714 0 0 0-1.294-.57 28.46 28.46 0 0 1-.837-.364 12.44 12.44 0 0 0-.687-.292c-.162-.057-.212-.087-.212-.127 0-.033.02-.052.052-.052.158 0 1.099.331 1.376.485.093.051.356.159.586.238.229.08.622.233.874.339.252.106.652.267.89.358.236.091.655.258.93.37.275.112.668.263.875.336.206.072.462.178.569.236.107.057.24.118.295.136.141.044.202.119.178.216-.045.178-.146.19-.473.054zm.193-1.438c.159-.203.166-.22.196-.452.023-.17.1-.252.265-.277.262-.04.3-.064.32-.201.01-.069.013-.131.005-.138a14.906 14.906 0 0 0-.707-.19c-.381-.098-.744-.203-.805-.234-.062-.032-1.335-.408-2.83-.837a1678.1 1678.1 0 0 1-2.769-.795c-.09-.028-.053.087.098.31l.145.216v.266c0 .146-.006.334-.012.417l-.013.152.277.079c.152.043.382.128.512.187.13.06.393.152.583.206.396.111.772.237 1.195.4.161.061.582.194.936.294.353.101.765.235.916.297.524.22 1.343.492 1.486.496.026 0 .116-.086.202-.196zm3.376.018c.845-.057.849-.058.933-.169.073-.096.24-.533.273-.714l.019-.104h-.12c-.36 0-2.98.06-2.989.07-.03.029.05.157.19.304.087.092.208.243.27.334.127.189.212.275.313.318.073.03.094.03 1.11-.039zM19.818 16.9c.131-.016.895-.04 1.697-.054 1.395-.025 1.611-.036 1.611-.084 0-.052-.2-.064-1.402-.083-.71-.01-1.307-.032-1.344-.046-.062-.026-.063-.03-.018-.075.162-.162.41-.199 1.15-.17.83.032.963.026 1.113-.051a.395.395 0 0 0 .192-.195.429.429 0 0 0 .056-.142c-.021-.022-.813-.099-1.01-.099a.953.953 0 0 0-.302.042c-.068.028-.195.041-.399.041-.415 0-.415 0-.43-.183a.678.678 0 0 0-.026-.163 1.468 1.468 0 0 0-.25-.032.984.984 0 0 0-.39.027c-.177.052-.19.078-.19.403 0 .102-.008.287-.018.413l-.017.229-.232.087c-.128.048-.232.098-.232.11 0 .057.118.064.44.025zm-.636-.843c0-.082.008-.187.017-.233.013-.065.005-.09-.035-.112-.07-.037-.683-.172-1.343-.296a25.38 25.38 0 0 1-1.291-.294c-.7-.178-1.208-.286-1.232-.262-.006.006.012.04.041.077.352.45.326.431.7.509.128.026.866.207 1.64.402a69.19 69.19 0 0 0 1.455.356c.04.002.048-.022.048-.147zm-9.86-.543c0-.014-.12-.374-.267-.799-.192-.557-.285-.79-.333-.834-.069-.063-.183-.102-.393-.135l-.119-.019.007.664.007.663.37.186c.316.158.627.29.706.298.012 0 .021-.01.021-.024zm4.9-.726a.556.556 0 0 0 .068-.15c-.032-.03-.655-.195-1.087-.289-.68-.148-.742-.157-.742-.108 0 .09.094.305.149.34.032.02.196.064.364.096.168.032.475.1.68.152.207.052.402.095.434.097.043.002.078-.035.135-.138zm-6.359-.31c.01-.218.015-.496.01-.618l-.009-.222-.412-.12a3.472 3.472 0 0 0-.425-.109 4.418 4.418 0 0 0-.029.413c-.02.475.012.666.124.74.085.056.645.307.69.31.022 0 .039-.125.052-.394zm4.32-.175c0-.08-.112-.207-.182-.207-.037 0-.042.016-.028.076.03.117.094.201.155.201.04 0 .055-.018.055-.07zm-5.534-.53-.008-.517-.375-.107a5.994 5.994 0 0 0-.41-.108c-.028 0-.034.1-.028.46l.008.46.361.161c.199.09.384.164.41.165.046.003.05-.034.042-.514zm3.736-.042c-.059-.059-1.016-.247-1.056-.207-.009.009.003.058.027.109.04.085.066.098.359.185.173.05.397.114.496.14l.18.048.01-.126c.004-.069-.003-.136-.015-.149zm3.575.211c0-.046-.095-.23-.177-.342a2.01 2.01 0 0 1-.18-.338 4.482 4.482 0 0 0-.25-.478 4.446 4.446 0 0 1-.198-.354l-.035-.084h-1.243v.597c0 .328.007.597.016.597.087 0 1.675.32 1.79.36.147.053.277.072.277.042zm-8.443-.597v-.39L5.39 12.9c-.149-.063-.67-.174-.708-.15-.014.008-.026.13-.026.27 0 .315.047.41.243.497.676.3.618.315.618-.172zm3.134.077a.476.476 0 0 0-.046-.137c-.023-.022-.346-.107-.36-.094a.569.569 0 0 0-.014.13l-.006.122.18.047c.276.071.277.07.246-.068zm2.81-.503v-.538l-.104-.017a1.553 1.553 0 0 0-.195-.018h-.09v1.053l.104.017c.057.009.123.02.146.026.146.03.139.057.139-.523zm-3.611.304v-.122l-.382-.09c-.21-.05-.397-.095-.416-.103-.05-.018-.045.106.006.178.027.038.095.068.205.09.09.018.25.062.355.099.105.037.2.068.211.069.012 0 .021-.053.021-.12zm2.916-.377v-.5H8.877l.017.076c.092.407.134.492.27.548.05.02.339.088.644.15.306.063.63.138.722.167.092.03.183.055.202.056.026.002.034-.114.034-.497zm-6.443.054v-.28l-.153-.07a1.167 1.167 0 0 0-.303-.085l-.15-.015-.017.15a7.113 7.113 0 0 0-.023.257l-.007.108.292.106c.16.058.307.106.326.107.026 0 .035-.072.035-.278zm2.31.012c-.012-.11-.026-.12-.223-.151a1.821 1.821 0 0 1-.312-.083.784.784 0 0 0-.209-.054c-.064 0-.07.009-.061.101l.009.102.375.09c.206.05.387.087.402.083.016-.004.024-.043.02-.088zm1.762-.17c-.12-.416-.138-.461-.159-.41-.04.105-.028.353.021.407.06.067.157.069.138.002zm-2.878-.118c0-.098-.008-.112-.076-.126a12.05 12.05 0 0 1-.307-.07c-.36-.085-.477-.07-.437.054.012.038.054.057.161.07.08.01.233.055.34.099.106.044.222.081.256.082.055 0 .063-.012.063-.109zm2.343-.23c.043-.554.01-.959-.11-1.378-.07-.237-.672-1.557-.712-1.558-.012 0-.021.672-.021 1.495v1.495l.368.086c.202.047.388.086.412.087.036.002.048-.041.063-.227zm-3.61-.01c.025-.009.045-.04.045-.068 0-.094-.417-.181-.495-.104-.054.055-.04.068.127.118.088.027.172.052.187.058.047.015.09.014.137-.003zm2.405-1.406c0-.753-.008-1.396-.017-1.43-.009-.035-.038-.063-.063-.063-.089 0-.114-.062-.114-.28 0-.238-.018-.269-.175-.294-.082-.013-.104-.005-.142.053a.623.623 0 0 1-.183.143l-.139.076-.006 1.262-.007 1.503v.241l.347.075c.19.042.382.077.424.079l.076.003zm-1.138-.313V9.207h-.063c-.09.001-.11.02-.249.236a5.551 5.551 0 0 1-.281.39c-.238.295-.24.31-.24 1.25v.812l.104.02c.057.01.21.054.34.098.13.044.267.085.306.091a.606.606 0 0 1 .076.016 74.2 74.2 0 0 0 .007-1.455zm5.222 1.116c0-.174.008-.43.018-.57l.018-.254H8.318l.019.062c.01.035.078.2.151.368.11.256.184.442.265.674.009.027.234.035.999.035h.987zm.715-.244.008-.545-.13-.017a1.85 1.85 0 0 0-.194-.018h-.066v1.141l.188-.008.187-.008zm1.451.516c0-.078-.075-.224-.208-.404a2.85 2.85 0 0 1-.226-.373c-.148-.305-.146-.303-.4-.315l-.221-.01v.554c0 .305.008.562.018.572.01.01.248.019.528.019.439 0 .509-.006.509-.043zm-8.582-.652c0-.252-.011-.416-.027-.416-.053 0-.117.138-.21.448a3.452 3.452 0 0 0-.088.32c.005.004.228.05.304.062.011.002.02-.185.02-.414zm6.443-1.25V9.68H9.28c-1.17 0-1.486.007-1.486.035 0 .083.237.62.36.82l.056.09h2.556zm.695.017c0-.516.013-.489-.239-.489h-.15v.945h.389zm.582.435a1.72 1.72 0 0 0-.096-.201l-.095-.181v.201l-.002.202h.097c.054 0 .097-.01.096-.021zm-1.367-1.24c.06-.02.063-.03.063-.404v-.384l-1.73-.012a71.63 71.63 0 0 0-1.748-.002c-.012.006.01.092.048.192.144.382.293.583.457.617.119.024 2.832.017 2.91-.008zm.535-.044c0-.056-.09-.124-.122-.092-.01.01-.017.046-.017.082 0 .05.015.065.07.065.05 0 .069-.015.069-.055zm-6.3-.658c.04-.035.05-.087.05-.229 0-.124.023-.246.07-.377.077-.22.086-.341.032-.415-.03-.042-.047-.045-.097-.018-.033.017-.06.057-.06.088 0 .088-.052.164-.111.164-.03 0-.067.024-.083.054-.03.057-.04.661-.012.735.023.058.146.057.21-.002zm1.69-.025c0-.058-.355-.612-.442-.69-.074-.066-.11-.038-.133.104-.013.08-.003.12.052.192.038.05.084.136.103.193.025.078.052.106.113.12a.24.24 0 0 1 .113.057c.031.037.193.058.193.024zm3.693-.397a.245.245 0 0 0-.052-.119c-.083-.105-.636-.588-.734-.64-.08-.044-.223-.048-1.498-.05-1.11 0-1.41.007-1.41.034 0 .069.137.326.304.574l.17.253h1.61c1.553 0 1.61-.002 1.61-.052zm-4.777-.945v-.107l-.201-.073c-.321-.117-.37-.097-.296.118.04.116.143.167.337.169h.16v-.107zm3.403-.197c-.078-.087-.264-.186-.504-.27-.197-.068-.257-.075-.612-.077H7.41l-.287.147c-.537.275-.596.254.71.255 1.133 0 1.136 0 1.087-.055zm-2.473-.158c.157-.103.375-.288.375-.317 0-.015-.213-.026-.486-.026-.267 0-.486.01-.486.023 0 .012.039.06.086.104.047.045.118.136.157.202.065.11.078.12.157.104a.7.7 0 0 0 .197-.09zm8.216 16.193c-.022-.057.04-1.025.091-1.426.054-.423.14-.847.218-1.077.21-.615.441-.796 1.016-.795.328.001.532.062.813.242.372.238.781.775.84 1.102.02.114.175-.004-1.347 1.018-.543.364-1.043.71-1.111.77a.704.704 0 0 1-.398.193c-.08.012-.11.006-.122-.027zm-2.7-1.628a4.85 4.85 0 0 0-.255-.805 5.267 5.267 0 0 1-.164-.514 128.87 128.87 0 0 0-.906-3.053c-.122-.364-.119-.39.04-.31a.493.493 0 0 1 .162.123c.073.112.692 2.097.775 2.486.028.128.063.243.08.254.016.011.101.02.19.02l.159.001v-.16c.001-.22.073-.741.114-.818a4.18 4.18 0 0 1 .171-.265l.139-.201h.3l.163.25c.227.344.236.382.21.832-.01.207-.028.577-.038.822l-.018.447-.142.165c-.181.209-.818.829-.892.868-.052.028-.058.018-.088-.142zm7.72-2.935c-.11-.11-.062-.465.071-.526.092-.041.087-.043.136.05a.524.524 0 0 1-.006.419c-.059.116-.123.134-.2.057zM4.74 15.719a30.414 30.414 0 0 1-1.694-.244l-.153-.034.001-.402c0-.373.115-1.661.153-1.723.009-.015.082.01.167.055.083.045.283.133.443.197.447.177.666.276.833.375.084.05.369.175.632.278l.48.186v.135c0 .161-.051.934-.072 1.102l-.015.118-.214-.003a7.82 7.82 0 0 1-.56-.04zm13.56-9.63.008-.173.215-.008.215-.008v.363h-.447z"/></svg>