<svg viewBox="0 0 24 24" xmlns="http://www.w3.org/2000/svg" role="img"><path d="M11.89 23.936a.838.838 0 0 1-.317-.37c-.084-.176-.122-.214-.487-.5-.24-.186-.325-.297-.507-.663-.063-.126-.147-.252-.187-.28-.045-.033-.154-.061-.296-.077a1.234 1.234 0 0 1-.326-.077c-.246-.126-.54-.458-.959-1.081a74.85 74.85 0 0 0-.266-.396c-.012-.015-.687.08-1.028.144a4.266 4.266 0 0 1-.47.069c-.169 0-.51-.125-.827-.3-.333-.186-.312-.186-.667-.009-.233.117-.277.122-.605.076-.373-.052-.64-.052-.888 0a4.09 4.09 0 0 1-.39.06l-.195.017.016-.244c.01-.135.037-.362.062-.505.038-.216.04-.3.015-.496-.056-.44-.042-.625.07-.919l.1-.262-.117-.279c-.176-.418-.302-.79-.302-.89 0-.05.03-.241.068-.426a7.93 7.93 0 0 0 .097-.65l.03-.316-.232-.22a3.377 3.377 0 0 0-.486-.37c-.465-.278-.591-.44-.836-1.083a1.584 1.584 0 0 0-.162-.334 2.66 2.66 0 0 0-.394-.237c-.324-.168-.343-.183-.436-.337a1.665 1.665 0 0 0-.553-.583c-.221-.151-.415-.33-.415-.383 0-.069.2-.271.393-.399.257-.17.435-.35.655-.663.085-.122.184-.235.22-.25.035-.017.184-.064.33-.106l.266-.075.017-.1c.084-.487.152-.705.284-.913.08-.127.212-.229.592-.455.196-.117.58-.413.693-.534.062-.066.062-.072.033-.394a6.227 6.227 0 0 0-.096-.628c-.103-.472-.104-.487-.056-.675.04-.152.232-.568.39-.84l.05-.087-.13-.262c-.15-.302-.153-.333-.085-.839.045-.336.045-.351-.013-.716a5.004 5.004 0 0 1-.06-.486V3.48h.419c.72 0 1.393.078 1.809.21l.211.066.245-.14c.574-.326.77-.368 1.225-.264.375.086.674.128.92.128H8.5l.22-.268c.214-.259.389-.546.424-.698.023-.095.115-.15.788-.462l.54-.25.17-.293c.136-.23.228-.347.438-.553.226-.221.545-.597.756-.89.053-.074.058-.075.171-.04a.742.742 0 0 1 .41.364c.112.224.217.338.513.558.152.114.299.233.325.265.026.033.087.182.134.333.048.151.1.288.117.305a.793.793 0 0 0 .235.065c.416.071.661.188.894.425.156.158.78 1.053.78 1.118 0 .046.422.005.915-.088.726-.138 1.033-.11 1.373.122.098.067.237.152.31.189l.132.067.288-.137.287-.136.406.049c.387.046.421.047.74.002a4.57 4.57 0 0 1 .507-.047h.171v.12c0 .066-.025.265-.056.443-.05.287-.052.352-.024.597.05.43.027.643-.107.975l-.114.284.166.3c.321.582.348.728.231 1.268a6.923 6.923 0 0 0-.1.651l-.034.336.137.126c.075.069.29.23.478.359.577.394.7.553.944 1.225.056.153.116.297.134.32.017.022.165.093.327.157l.296.116.154.222c.255.366.352.468.536.566.095.05.219.128.275.173.103.082.213.238.213.302 0 .06-.285.316-.419.375-.155.068-.26.168-.48.458-.26.341-.351.412-.74.572-.152.062-.2.145-.335.566a2.094 2.094 0 0 1-.192.455c-.111.154-.399.388-.72.587-.277.17-.597.477-.597.572 0 .157.067.661.125.931.113.535.09.658-.234 1.283l-.163.314.136.27c.152.304.156.339.095.74-.05.325-.05.512 0 .74.022.098.048.286.058.418l.018.24h-.162a3.9 3.9 0 0 1-.485-.054c-.31-.051-.34-.052-.68-.009-.414.052-.529.036-.846-.116a1.317 1.317 0 0 0-.233-.095c-.02 0-.203.08-.408.18-.655.314-.764.334-1.203.22a4.728 4.728 0 0 0-.894-.137l-.2-.013-.1.156c-.766 1.194-.858 1.268-1.805 1.447-.043.008-.073.07-.142.293-.11.354-.174.448-.38.563-.206.116-.28.186-.49.46-.228.302-.466.561-.513.56a.329.329 0 0 1-.12-.06zm3.887-4.048c.308-.556.444-.834.536-1.097.065-.187.074-.252.074-.555 0-.313-.015-.415-.169-1.166-.21-1.025-.215-1.056-.168-1.055.02 0 .321.054.668.12 1.529.293 2.166.277 2.81-.069.232-.125.488-.321.655-.502l.114-.124v-.23c0-.478-.138-.977-.375-1.36-.249-.399-.614-.718-1.561-1.365a8.045 8.045 0 0 1-.519-.377l-.11-.098.126-.117c.07-.064.257-.188.417-.275a4.215 4.215 0 0 0 1.062-.813c.622-.627.888-1.156.959-1.905.03-.32.032-.314-.216-.576a2.084 2.084 0 0 0-.985-.596c-.433-.11-.93-.098-1.87.048-.49.076-1.216.173-1.227.163a4.676 4.676 0 0 1 .077-.375c.209-.925.288-1.608.244-2.108-.06-.683-.291-1.195-.736-1.632l-.166-.163-.283.033c-.557.065-1.05.236-1.446.501-.428.287-.733.636-1.138 1.302-.274.45-.4.618-.538.713-.06.041-.113.07-.119.065a5.286 5.286 0 0 1-.12-.245 6.461 6.461 0 0 0-.642-1.045c-.667-.85-1.512-1.283-2.449-1.254l-.273.01-.306.603a9.074 9.074 0 0 0-.397.878c-.084.251-.091.302-.091.617 0 .3.012.397.102.781.108.46.292 1.314.292 1.355 0 .025-.324-.028-1.004-.163-1.578-.314-2.33-.187-3.063.519l-.246.237.016.288c.033.6.232 1.11.638 1.635.3.387.582.612 1.39 1.11.275.17.541.37.541.409 0 .034-.236.193-.718.483-.701.422-.938.625-1.32 1.133-.532.707-.695 1.349-.462 1.822.384.78 1.789 1.013 3.742.62.222-.044.412-.08.421-.08.026 0-.013.308-.13 1.042-.058.37-.12.836-.138 1.036-.083.927.164 1.614.753 2.09l.17.138h.219c.69-.002 1.312-.294 1.958-.918.378-.366.515-.542.813-1.044.246-.416.43-.649.475-.603.014.015.134.213.266.439.625 1.07 1.042 1.517 1.717 1.836.397.188.9.308 1.313.314l.178.002zM13.88 17.88c-.563-.122-.766-.252-1.213-.776a4.51 4.51 0 0 0-.384-.408l-.107-.086-.101.093c-.056.051-.25.235-.43.41a4.604 4.604 0 0 1-.47.404c-.347.22-.727.311-1.32.317l-.402.004-.104-.137a2.506 2.506 0 0 1-.365-.72c-.053-.205-.061-.483-.033-1.148l.023-.525-.558-.014c-.626-.017-.861-.06-1.215-.223-.36-.167-.614-.372-.893-.721l-.157-.197.037-.174c.085-.407.237-.734.448-.962.083-.089.293-.276.467-.417.175-.14.36-.3.412-.354l.094-.1-.094-.102c-.052-.056-.206-.22-.343-.363-.343-.362-.464-.521-.587-.78-.146-.306-.197-.556-.214-1.047l-.014-.415.175-.145c.225-.188.547-.342.8-.385.193-.033.462-.029 1.282.018l.315.018-.009-.422c-.01-.465.019-.73.121-1.121.184-.702.57-1.15 1.034-1.199.408-.042.88.207 1.483.784l.408.385.075.066.207-.203c.415-.405.939-.753 1.395-.926.208-.078.297-.097.525-.107.234-.01.297-.004.431.047.292.11.487.366.603.792.074.27.08.97.012 1.396a14.99 14.99 0 0 0-.045.291c0 .006.176.019.39.03a5.34 5.34 0 0 1 1.05.13c.626.144 1.085.429 1.28.794.055.102.064.16.064.394 0 .254-.007.289-.09.466-.173.363-.496.72-.979 1.078a2.41 2.41 0 0 0-.285.23c-.012.031.078.149.37.482.327.372.466.563.589.807.17.34.22.554.237 1.02l.014.406-.12.123c-.167.171-.443.35-.655.423-.243.084-.708.1-1.23.042a9.762 9.762 0 0 0-.457-.044h-.062l-.014.597c-.011.496-.024.633-.073.816-.079.29-.243.617-.421.836-.15.184-.586.578-.636.574a5.182 5.182 0 0 1-.261-.052zm.508-.556c.098-.124.24-.35.316-.5.233-.464.268-.807.152-1.498a13.246 13.246 0 0 1-.083-.556l-.017-.161.209.02c.195.018.326.043.972.183.233.051.288.054.514.026.351-.042.958-.238.979-.316.038-.143.015-.697-.038-.904-.12-.472-.373-.814-.928-1.261a6.544 6.544 0 0 1-.426-.367l-.104-.109.098-.086a9.5 9.5 0 0 1 .573-.4c.509-.334.705-.517.827-.77.091-.188.15-.433.15-.622v-.157l-.219-.187c-.612-.52-.958-.598-2.098-.465a7.396 7.396 0 0 1-.588.056c-.007-.006.027-.23.075-.498.189-1.053.178-1.423-.055-1.934-.102-.221-.105-.222-.543-.223-.345 0-.53.034-.782.148-.254.115-.447.293-.878.81a9.856 9.856 0 0 1-.43.497c-.04.025-.338-.29-.599-.634-.465-.614-.85-.9-1.219-.904-.149-.002-.177.007-.284.095a2.619 2.619 0 0 0-.522.628c-.175.327-.205.658-.128 1.39.022.21.043.483.048.608.008.205.004.226-.043.226-.027 0-.28-.05-.562-.112-.585-.128-1.045-.166-1.297-.107-.19.044-.445.16-.596.273l-.12.088.013.402c.011.336.025.439.085.622.153.468.397.76 1.012 1.215.208.154.378.29.378.304 0 .036-.097.114-.59.47-.778.563-1.084.94-1.084 1.336 0 .161.01.191.098.312.224.304.54.526.88.614.204.053.771.053 1.285 0 .211-.022.45-.04.528-.04.126 0 .144.006.144.053 0 .03-.037.274-.083.542-.138.805-.137 1.217.005 1.744.068.252.07.254.442.292.61.064 1.106-.117 1.516-.55.092-.097.279-.325.416-.507.137-.182.282-.352.324-.38l.074-.048.15.146c.081.081.25.295.373.476.393.578.679.8 1.158.901.33.07.32.074.521-.18zm-2.75-3.428c-.123-.04-.112-.076.021-.076.197 0 .453-.145.534-.302l.041-.08-.109-.03c-.125-.033-.178-.108-.155-.222.057-.284.28-.285.336-.002.01.048.028.088.041.088.014 0 .024.037.024.082 0 .048-.014.082-.034.082-.019 0-.057.055-.084.122a.885.885 0 0 1-.184.247c-.145.135-.235.154-.431.09zm.569-.676c0-.066-.07-.124-.123-.103-.056.021-.053.09.007.125.073.043.116.035.116-.022zm2.015.6c-.05-.055-.05-.058.009-.117l.06-.06.06.06c.058.059.059.062.009.116-.028.03-.06.056-.07.056-.01 0-.041-.025-.069-.056zm-3.38-.045c-.139-.05-.151-.092-.027-.092a.576.576 0 0 0 .425-.178c.133-.133.148-.222.064-.36-.047-.078-.049-.093-.012-.145.057-.08.083-.072.12.04.07.211-.058.557-.259.703-.12.087-.147.09-.31.032zm2.612-.01c-.05-.055-.05-.058.009-.116l.06-.06.06.06c.058.058.059.061.009.115-.028.031-.06.056-.07.056-.01 0-.041-.025-.069-.056zm-3.433-.374c-.035-.091.03-.132.235-.149.108-.009.21-.029.227-.046.057-.057-.002-.17-.142-.27-.145-.104-.153-.12-.108-.206.029-.053.03-.053.112.005.178.127.282.388.217.545-.042.1-.196.166-.386.166-.102 0-.142-.011-.155-.045zm2.433-.034c0-.065.013-.081.081-.095a.31.31 0 0 0 .135-.07c.052-.052.054-.052.1-.002a.27.27 0 0 0 .099.069c.034.01.05.042.05.095 0 .092-.048.088-.16-.011-.048-.042-.07-.048-.079-.023-.013.036-.148.116-.198.116-.016 0-.029-.036-.029-.08zm1.385.05c-.097-.029-.151-.094-.151-.182 0-.089-.045-.081-.354.06a2.377 2.377 0 0 1-.3.124c-.018 0-.032-.029-.032-.063 0-.052.025-.071.144-.108a3.13 3.13 0 0 0 .254-.092l.11-.047-.096-.041a.781.781 0 0 0-.24-.044c-.158-.003-.18-.035-.09-.127.073-.073.16-.069.362.016.092.04.252.08.355.091a.858.858 0 0 1 .204.037c.009.009.002.043-.015.075-.025.047-.053.058-.13.051-.065-.006-.103.004-.112.029-.018.054.047.085.18.085.111 0 .116.004.116.083 0 .09-.043.101-.205.053zm.279.011c-.01-.01-.019-.046-.019-.079 0-.049.02-.064.107-.077.132-.021.158-.08.084-.184-.05-.072-.052-.086-.017-.154l.039-.074.044.086c.071.136.059.293-.03.388-.078.083-.175.127-.208.094zm-1.523-.622c-.058-.062-.058-.065-.01-.11.065-.058.096-.057.152.005.042.046.041.053-.018.11l-.064.06zm.032-1.152c-.124-.045-.14-.073-.046-.073.169 0 .36-.08.488-.205.134-.13.156-.21.08-.293-.038-.042-.04-.062-.01-.132l.034-.082.076.082c.042.045.091.081.109.081.019 0 .028.032.023.076-.007.058-.021.074-.066.067-.045-.006-.064.015-.091.107a.7.7 0 0 1-.181.262c-.159.159-.233.178-.416.11zm-3.215-.024c-.184-.099-.232-.349-.116-.61.071-.16.103-.153.045.012-.073.206-.038.357.1.428.167.086.649.017.794-.115.07-.063.046-.085-.117-.107-.269-.037-.329-.187-.173-.43.16-.247.494-.358.44-.147-.016.065-.028.072-.098.056-.189-.041-.449.232-.321.338.02.017.09.038.158.049.183.028.218.054.218.164 0 .117-.08.198-.295.304-.178.087-.524.119-.635.058zm4.391-.023c-.061-.025-.168-.216-.17-.304 0-.054-.073-.119-.134-.12-.028 0-.047-.028-.053-.075-.007-.061.002-.075.05-.075.082 0 .164-.05.164-.099 0-.057.105-.26.173-.334.109-.118.184-.048.184.172 0 .105-.014.142-.082.21a.675.675 0 0 0-.083.09c0 .006.047-.001.103-.014.057-.013.137-.025.179-.025.065 0 .075.01.075.082 0 .08-.004.082-.124.082h-.124l.042.081c.06.116.051.213-.026.29-.074.074-.082.076-.174.04zm.16-.165c.023-.043.022-.067-.006-.1a.574.574 0 0 0-.227-.118c-.037 0-.01.138.042.202.068.087.15.094.191.016zm-.107-.507c.065-.034.08-.058.074-.116-.013-.11-.093-.11-.159-.001-.096.157-.068.196.085.117zm-3.17.602c-.169-.061-.169-.084-.002-.101.19-.02.372-.122.455-.256l.061-.099-.059-.14c-.059-.14-.059-.14-.005-.194.073-.073.091-.046.105.15.02.264-.119.537-.326.644-.091.047-.09.047-.23-.004zm1.145-.385c-.034-.09.03-.133.228-.148.223-.018.257-.034.257-.124 0-.05-.04-.099-.15-.184-.16-.124-.172-.146-.115-.224.034-.047.042-.045.135.037.179.157.266.437.175.557-.09.12-.492.185-.53.086zm2.46-.029c0-.062.017-.085.082-.11a.217.217 0 0 0 .114-.108c.029-.069.034-.072.045-.023.033.147.158.165.264.039a.351.351 0 0 0 .071-.11c0-.05.047-.024.078.043.021.048.053.069.103.069.067 0 .071-.007.055-.093-.012-.062-.005-.102.02-.123.056-.046.073-.01.073.147 0 .21-.12.295-.269.19-.058-.041-.065-.04-.116.025-.07.088-.2.119-.28.066-.052-.035-.07-.033-.15.014l-.09.053zm-2.753-.2-.041-.576c-.02-.279-.017-.322.024-.365.044-.047.047-.03.064.301.023.452.02.776-.008.845-.014.037-.028-.032-.04-.205zm3.1-.49c-.042-.047-.042-.053.01-.1.052-.048.056-.048.11 0 .051.047.052.053.008.1-.025.028-.054.05-.064.05-.01 0-.04-.022-.065-.05zm.243-.004c-.048-.052-.048-.056 0-.11l.05-.055.064.06c.06.056.061.063.019.11-.057.063-.072.063-.133-.005zm-.118-.224c-.045-.045-.041-.09.01-.133.036-.03.052-.026.1.022.05.049.053.065.023.1-.042.052-.088.055-.133.01zM12.166 19.7c.232-.283.253-.424.113-.764-.087-.209-.095-.219-.171-.211-.12.011-.372.146-.433.23a.524.524 0 0 0-.066.212.434.434 0 0 0 .06.287c.073.15.285.373.355.373.02 0 .085-.057.142-.127zm5.427-2.21c-.107-.627-.206-.74-.683-.78l-.206-.017v.153c0 .368.117.593.339.653.155.042.34.072.463.076.1.003.102.002.087-.086zm-10.7.006a.628.628 0 0 0 .354-.321 1.17 1.17 0 0 0 .068-.299l.017-.182-.232.012c-.429.022-.588.161-.669.584a3.38 3.38 0 0 0-.04.24c0 .035.345.012.501-.034zm12.54-5.153c.12-.054.398-.292.398-.34 0-.046-.235-.26-.35-.318-.164-.084-.282-.096-.413-.043-.122.048-.362.289-.362.362 0 .063.128.219.254.31.133.097.303.107.473.03zM5.15 12.217c.094-.042.171-.08.171-.083 0-.048-.1-.265-.155-.337-.196-.257-.624-.21-.928.105l-.11.113.118.106c.162.144.304.192.54.182a.919.919 0 0 0 .364-.086zm2.168-5.112c-.017-.293-.099-.46-.27-.545-.126-.065-.588-.168-.617-.14a.575.575 0 0 0 .014.191c.072.41.184.596.391.65.184.048.218.053.36.056l.135.003zm9.687.186c.235-.038.349-.095.427-.215.063-.096.126-.308.164-.548l.02-.12-.168.018c-.257.03-.435.093-.549.196-.125.112-.168.24-.168.503 0 .223-.015.213.274.166zm-4.672-2.327a.498.498 0 0 0-.026-.453c-.086-.154-.242-.344-.283-.344-.06-.001-.31.26-.365.383a.465.465 0 0 0-.014.405c.054.13.107.189.258.285l.122.079.131-.13a1.05 1.05 0 0 0 .177-.225z"/></svg>