<svg role="img" viewBox="0 0 24 24" xmlns="http://www.w3.org/2000/svg"><path d="M1.734 23.358a1.11 1.11 0 0 1-.303-.066c-.049-.025-.232-.197-.406-.38-.355-.374-.529-.65-.578-.917-.043-.232-.05-.24-.232-.245a.496.496 0 0 1-.183-.028C-.002 21.687-.013.86.02.77.039.723.08.689.142.673.196.658 2.552.66 5.617.676c3.959.02 5.901.019 7.35-.005C15.615.626 21.878.6 23.024.63c.749.02.928.032.949.065.038.06.035 20.938-.003 21.01-.03.055-.108.056-10.04.054-7.462-.001-10.063-.01-10.217-.035a.858.858 0 0 0-.22-.02.567.567 0 0 0 .026.184c.048.205.023.347-.104.598-.188.374-.608.81-.832.867-.141.035-.504.037-.849.004zm-.045-.735c.037-.33.155-.368.56-.178.362.17.542.152.736-.07a.541.541 0 0 0 .132-.43c-.024-.129-.212-.365-.337-.425-.105-.05-.163-.055-.297-.028-.076.015-.088.031-.105.146-.019.123-.014.135.093.247a.63.63 0 0 1 .128.174.96.96 0 0 0 .035.107c.017.043.004.05-.09.05a.567.567 0 0 1-.392-.208c-.074-.1-.098-.45-.039-.562.057-.108.386-.343.48-.343.105 0 .414.131.541.229.156.12.216.13.273.044.059-.09.186-.097.32-.016.107.065.203.073.27.021.038-.03.04-.064.017-.233a1.198 1.198 0 0 0-.055-.249 2.835 2.835 0 0 0-.31-.296c-.322-.278-.41-.396-.396-.534.007-.074.03-.104.107-.142a.676.676 0 0 0 .14-.09c.06-.06.02-.185-.07-.22-.11-.041-.525-.032-.69.017-.181.054-.28.135-.448.371-.155.218-.193.242-.385.242-.257 0-.376.107-.418.375-.016.102-.048.153-.184.284-.215.208-.259.336-.172.505.079.155.075.272-.015.463-.092.197-.08.363.047.62a.672.672 0 0 0 .25.295c.16.114.163.115.209.059a.571.571 0 0 0 .065-.225zm1.113-1.717c-.165-.1-.2-.332-.07-.462a.237.237 0 0 1 .202-.083c.065 0 .143.013.173.03.14.074.187.36.082.494-.047.06-.084.075-.179.075a.465.465 0 0 1-.208-.054zm12.206.325c6.148-.01 8.428-.023 8.486-.046.078-.032.079-.035.065-.235-.038-.523-.052-8.845-.032-18.713l.002-.984-.115-.024c-.119-.025-9.92-.046-9.918-.021 0 .043.07.09.331.226.5.26.683.437.909.876.107.208.11.222.111.52.002.291-.003.316-.11.576a1.438 1.438 0 0 1-.184.342.732.732 0 0 0-.115.157c-.054.106-.442.371-.608.417-.315.085-.747-.048-1.033-.319-.188-.177-.272-.339-.272-.522a.53.53 0 0 1 .19-.423c.232-.224.488-.27.7-.127.177.118.314.418.22.477-.098.062-.222.028-.368-.102-.157-.14-.2-.153-.27-.084-.063.064-.072.363-.013.473.038.071.373.253.465.253.122 0 .412-.161.477-.265.046-.073.056-.13.048-.28a.564.564 0 0 0-.106-.343.494.494 0 0 1-.1-.295c-.002-.13.006-.146.096-.207.081-.055.13-.066.272-.06l.173.009.009-.107c.008-.093-.008-.124-.125-.249-.162-.173-.43-.315-.595-.315a.528.528 0 0 0-.241.072c-.164.093-.34.093-.542 0a1.354 1.354 0 0 0-.17-.072c-.01 0-.097.085-.194.19-.175.188-.177.189-.324.185-.282-.006-.388.103-.406.416-.013.239-.028.26-.338.489a3.091 3.091 0 0 0-.336.287l-.122.13.008.386.008.386.076.01c.064.006.096-.018.193-.15.109-.147.123-.157.21-.14.172.03.226.078.496.437.384.511.543.605.721.426.107-.106.109-.164.015-.395-.07-.171-.07-.181-.021-.218.05-.038.232-.087.247-.066.076.1.206.39.23.51.05.252.01.246 1.286.198.74-.028 1.754-.038 3.183-.033 2.325.01 2.202-.002 2.25.2.016.06.028 1.788.03 4.074.003 3.477-.002 3.986-.04 4.117l-.043.15h-.401l-.045-.107c-.04-.095-.045-.494-.043-3.69.001-1.97-.007-3.703-.018-3.853l-.02-.27-.642-.008c-.353-.004-1.618-.013-2.812-.021a471.747 471.747 0 0 1-2.556-.022l-.387-.007-.27.135c-.242.122-.288.136-.464.136-.208 0-.502-.083-.762-.215-.165-.083-.256-.091-.256-.023 0 .027.053.136.118.243.108.18.116.208.104.352a.544.544 0 0 1-.117.306c-.146.211-.478.557-.554.579-.05.014-.098-.015-.225-.134-.27-.255-.468-.573-.468-.749 0-.033.052-.169.114-.302.124-.264.14-.343.068-.343a1.81 1.81 0 0 0-.306.117c-.427.19-.648.183-1.146-.04l-.257-.115-1.868.002c-2.076.002-1.924-.012-1.956.19-.016.106-.047 1.841-.053 3.018l-.005.846-.098.136-.097.136.083.06c.193.14.302.263.39.44.083.17.093.216.093.436 0 .245-.001.247-.132.444-.165.248-.184.304-.122.367.055.055.135.046.449-.048.356-.107.525-.035.807.345.1.135.182.255.182.267 0 .012-.089.115-.197.23-.336.352-.557.411-.94.248a1.165 1.165 0 0 0-.26-.086c-.093 0-.074.123.063.397.115.23.121.257.121.492 0 .272.027.211-.276.638-.122.171-.126.255-.08 1.513.03.831.03 1.092 0 1.363-.02.184-.028.367-.018.407.01.04.082.143.16.229.169.186.226.312.247.542.019.199-.05.44-.19.667-.158.257-.101.32.219.246.548-.128.6-.12.857.15.226.236.3.38.26.497-.032.093-.34.364-.514.455-.149.077-.296.068-.578-.034-.135-.049-.265-.08-.29-.07-.072.026-.033.182.1.402.063.105.123.244.132.31a.944.944 0 0 1-.09.48c-.081.16-.063.162.946.148.455-.006 4.61-.018 9.234-.026zm-4.185-1.638c-.297-.135-.43-.542-.3-.92.123-.358.246-.538.683-.998.27-.285.37-.35.51-.335.175.02.106.272-.149.538-.241.252-.534.701-.51.782.057.181.064.188.181.188.136 0 .337-.13.973-.627.502-.393.815-.601 1.187-.793.57-.292 1.011-.424 1.305-.39.15.018.153.018.238-.092.132-.17.376-.644.442-.86.033-.105.076-.225.097-.264.02-.04.056-.181.079-.314.033-.189.072-.294.177-.478.113-.197.146-.235.206-.235.11 0 .312.215.337.358.01.062.05.213.088.335.155.506.15.78-.02 1.207-.142.355-.16.341.445.338.717-.004.763-.013.872-.17.048-.07.124-.202.169-.292a.962.962 0 0 1 .134-.211c.111-.1.352.038.352.202 0 .047-.027.13-.059.185a.345.345 0 0 0-.05.194l.01.095.156-.003a9.06 9.06 0 0 0 .406-.024c.32-.027.404-.08.527-.329a.878.878 0 0 1 .14-.221c.062-.045.223-.048.303-.005.052.028.056.049.04.189-.02.167.008.236.096.236.036 0 .058-.041.084-.156.048-.217.106-.28.258-.284.172-.004.239.087.236.32-.006.414-.324.965-.623 1.08-.114.042-.155.044-.366.012-.187-.027-.343-.028-.72-.002-.323.023-.682.026-1.095.01-.702-.027-.796-.024-.848.028-.02.02-.055.14-.078.264-.05.287-.105.438-.212.594-.19.276-.48.446-.8.468a.801.801 0 0 1-.563-.143c-.2-.135-.286-.32-.34-.735-.05-.395-.09-.467-.267-.48a.85.85 0 0 0-.283.048c-.09.03-.246.072-.348.09-.102.02-.243.072-.314.116a.946.946 0 0 1-.214.1c-.15.036-.432.216-.951.604-.278.207-.569.43-.647.493a2.977 2.977 0 0 1-.343.229c-.166.093-.226.113-.357.112a.752.752 0 0 1-.274-.053zm5.273-1.26c.068-.037.068-.06-.004-.15-.068-.087-.296-.199-.508-.248-.132-.03-.159-.03-.197.009-.095.095.088.335.31.406a.586.586 0 0 0 .4-.017zm-.275-1.659c.138-.109.202-.352.12-.463-.034-.047-.04-.046-.117.014-.103.081-.16.217-.16.382 0 .148.035.163.157.067zm-9.2 1.419c-.32-.119-.404-.267-.205-.363.057-.028.266-.067.485-.091.56-.062 1.002-.183 1.398-.382.758-.382 1.229-.78 1.229-1.042 0-.037-.065-.19-.143-.341-.079-.151-.143-.308-.143-.348 0-.096.097-.351.16-.42.067-.074.239-.072.32.004.072.068.245.432.31.652.03.107.04.23.033.4-.013.268-.095.489-.284.766-.121.177-.538.583-.739.72-.212.145-.574.31-.793.361a2.817 2.817 0 0 0-.322.098c-.123.049-.21.056-.634.055-.444-.001-.51-.008-.672-.069zm3.943-.644c-.11-.044-.132-.13-.113-.44.021-.346-.013-.652-.14-1.258-.286-1.376-.39-1.969-.373-2.15.02-.222.107-.386.239-.449.21-.1.289.007.366.496.024.152.068.392.098.533.03.141.075.386.1.543.025.157.078.426.118.599.057.247.078.438.097.896.044 1.05-.056 1.366-.392 1.23zm1.086-.312c-.209-.105-.253-.185-.253-.458a.67.67 0 0 1 .083-.353l.082-.168.145.017c.123.015.16.034.234.122l.088.106.184-.02c.226-.023.704-.2.787-.291.088-.095.06-.159-.15-.352-.1-.092-.183-.181-.183-.2 0-.017-.036-.032-.08-.032-.067 0-.101-.029-.191-.16-.109-.157-.11-.16-.075-.292.048-.182.15-.378.219-.423.049-.03.079-.026.2.03.361.17.682.5.816.839.052.132.065.222.066.463.001.265-.007.318-.072.457a1.06 1.06 0 0 1-.497.488c-.23.107-.812.272-1.042.296-.17.017-.2.012-.36-.07zm-5.648-.189c-.283-.088-.655-.462-.731-.736a3.413 3.413 0 0 1-.035-.547c-.002-.417 0-.434.092-.676a2.34 2.34 0 0 1 .414-.696c.08-.091.106-.104.215-.103.148.002.173.032.173.21 0 .11-.016.153-.097.25a.741.741 0 0 0-.118.181 1.19 1.19 0 0 1-.105.2.864.864 0 0 0-.079.635c.054.162.231.337.433.427.208.094.333.09.929-.03.611-.124.836-.215.836-.341 0-.07-.005-.07-.221-.071-.775 0-1.153-.278-1.112-.816.036-.48.265-.907.759-1.417.388-.4.51-.479.843-.548.297-.063.452-.017.623.183.21.245.213.553.01.757-.096.095-.172.09-.358-.03-.19-.12-.345-.13-.54-.034-.179.088-.737.628-.76.736-.05.225.055.278.64.325.514.04.649.087.815.28.176.207.165.341-.067.821-.15.31-.451.609-.775.767a3.33 3.33 0 0 1-1.284.305c-.27.01-.392.002-.5-.032zm13.445-1.43a1.62 1.62 0 0 1-.174-.114c-.127-.096-.213-.086-.29.033-.063.097-.07.1-.243.1-.167 0-.193-.01-.407-.15l-.228-.15-.008-.161c-.008-.144 0-.173.074-.257.16-.186.191-.264.154-.39-.049-.161-.043-.218.04-.38.142-.28.267-.34.469-.225.055.031.157.088.228.126.07.037.165.104.21.149.082.082.09.168.032.346-.018.056-.006.07.09.11.06.025.221.115.357.2.316.199.348.261.243.476-.109.222-.23.335-.357.333a.487.487 0 0 1-.19-.047zm-8.222-2.5c-.282-.17-.319-.2-.358-.286-.03-.067-.024-.098.054-.257.168-.342.293-.389.562-.21.267.177.28.178.424.031.188-.19.257-.18.7.097l.21.132-.019.153c-.022.187-.072.288-.192.39-.123.103-.271.088-.503-.053a.756.756 0 0 0-.229-.104c-.034 0-.096.048-.148.114-.125.157-.23.156-.501-.007zm-4.354-1.08c-.069-.068-.07-.146-.005-.206.028-.025.23-.103.45-.173.435-.14 1.016-.386 1.11-.47.033-.03.076-.049.096-.041.02.007.107-.06.194-.148l.158-.16-.103-.36a3.116 3.116 0 0 0-.445-.94l-.08-.117-.294-.017c-.403-.022-.575-.08-.74-.245a.48.48 0 0 1-.168-.303 1.74 1.74 0 0 1 .03-.676c.04-.151.262-.44.35-.458.225-.043.515.221 1.038.948.46.638.704 1.115.768 1.499.023.141.054.286.07.32.053.13.13.077.483-.327.4-.457.521-.668.67-1.161l.104-.34-.033-.286c-.04-.348-.02-.593.061-.706.05-.07.08-.083.182-.083.122 0 .122 0 .17.15.058.175.08.358.16 1.32.035.41.077.75.1.802.045.104.063.224.1.66.042.509.122.595.526.571.262-.015.52-.101.65-.217.076-.068.08-.084.053-.158a1.166 1.166 0 0 0-.185-.249c-.168-.18-.209-.301-.173-.513.03-.18.143-.287.315-.302.18-.016.269.038.472.281.332.4.35.642.093 1.24-.123.29-.19.36-.518.56l-.248.15h-1.039l-.104-.1a1.352 1.352 0 0 1-.298-.538 4.191 4.191 0 0 1-.058-.527c-.021-.33-.035-.41-.075-.44-.074-.053-.148.008-.276.23-.293.507-1.04 1.163-1.59 1.394-.319.134-.504.16-1.236.177-.646.014-.683.012-.735-.04zm6.91-.353c-.063-.067-.065-.09-.061-.464.004-.389 0-.408-.24-1.607-.275-1.36-.314-1.69-.23-1.979.062-.214.125-.276.283-.276.067 0 .144.016.171.036.036.026.085.227.189.778l.24 1.27c.168.882.195 1.417.1 1.969-.024.137-.052.204-.112.264-.104.104-.246.108-.34.009zm-7.484.006c-.072-.058-.082-.14-.108-.92-.02-.6-.037-.785-.084-.957a3.858 3.858 0 0 1-.087-.469 3.466 3.466 0 0 0-.108-.513c-.072-.236-.079-.3-.079-.702v-.443l.114-.298c.076-.2.145-.33.207-.392.091-.091.12-.189.065-.223-.015-.009-.08.01-.144.043-.064.033-.14.052-.17.043-.118-.038-.156-.423-.06-.629.221-.48.913-.42 1.461.13.268.267.374.533.31.774-.07.265-.215.34-.713.367-.196.011-.39.036-.433.056-.158.075-.173.298-.055.8a16 16 0 0 1 .159.94c.096.665.101.734.101 1.48v.781l-.083.084c-.09.09-.215.11-.293.048zm5.582-7.598c-.106-.047-.182-.146-.182-.24 0-.17.185-.376.337-.376.112 0 .202.064.247.176.074.185.059.29-.057.392-.11.097-.202.11-.345.048zM.627 20.416c.027-.054.083-.173.125-.265.09-.198.36-.494.589-.65a.856.856 0 0 0 .192-.163c.034-.064-.039-.154-.24-.297-.3-.213-.641-.644-.642-.812 0-.058-.087-.123-.163-.123H.415l.018.25c.01.137.02.66.022 1.163.002.502.016.936.03.965.036.071.085.048.142-.068zm2.823-1.284c.091-.049.072-.183-.038-.258-.13-.09-.164-.138-.164-.24 0-.11.102-.214.43-.438.312-.214.355-.275.352-.5-.004-.297-.107-.419-.277-.328a.755.755 0 0 1-.155.054c-.09.02-.093.018-.093-.064 0-.112.127-.237.283-.28.214-.057.216-.066.22-1.384.002-1.033-.003-1.153-.048-1.261-.053-.125-.109-.155-.377-.199-.123-.02-.127-.009-.078.25.043.227-.005.413-.172.661a2.39 2.39 0 0 1-.24.305c-.056.054-.102.112-.102.13 0 .017.04.07.088.116.294.28.474.668.448.963-.028.304-.284.676-.564.818a.582.582 0 0 1-.565-.019c-.25-.155-.374-.388-.316-.596.053-.194.271-.372.428-.35.054.008.069.03.076.115.007.087-.004.114-.066.154-.158.104-.193.303-.062.352.08.03.357-.008.464-.063.26-.135.299-.423.094-.706-.173-.239-.393-.288-.682-.154-.268.125-.57.12-.57-.01 0-.116-.09-.35-.146-.379-.086-.046-.233.014-.349.142-.137.152-.174.282-.146.513.032.264.026.623-.014.768-.045.164-.024.212.139.33.14.1.188.186.257.462.045.178.154.263.377.295.24.034.29.067.394.262.104.195.298.38.48.458.203.088.596.134.693.081zm-.602-.847c-.145-.053-.237-.256-.172-.377.05-.092.2-.173.323-.173.224 0 .327.256.192.478-.05.082-.07.092-.178.09a.703.703 0 0 1-.165-.018zm-2.315-1.89c.027-.015.098-.124.156-.242a.96.96 0 0 1 .25-.337.944.944 0 0 0 .188-.205c.04-.076.039-.085-.01-.112a1.853 1.853 0 0 1-.218-.188.906.906 0 0 1-.233-.33c-.078-.193-.2-.315-.245-.243-.025.042-.01 1.404.018 1.591.015.102.02.105.094.066zm1.156-1.046a.59.59 0 0 0 .017-.158c0-.129.062-.267.13-.293.088-.034.158-.017.359.084.35.177.632.156.821-.06a.537.537 0 0 0 .105-.434c-.06-.241-.268-.445-.492-.48-.104-.017-.129-.01-.193.054-.113.114-.1.236.041.365.093.085.114.123.114.207 0 .1-.004.104-.104.104-.086 0-.127-.024-.24-.136-.23-.231-.243-.465-.037-.693.056-.061.17-.146.255-.187.174-.085.247-.08.418.032.059.039.129.07.156.07.027 0 .088.038.136.084.048.046.12.091.158.1.059.015.08.002.12-.069.057-.1.106-.106.276-.029a.633.633 0 0 0 .177.057c.13 0 .187-.28.094-.475-.025-.055-.16-.195-.297-.312-.435-.368-.54-.54-.401-.658.28-.237.296-.295.103-.369-.096-.037-.185-.046-.363-.036-.364.02-.576.153-.82.515-.083.126-.1.136-.21.137-.177.002-.362.044-.411.092a.81.81 0 0 0-.097.238c-.047.168-.078.22-.224.367-.093.095-.178.207-.188.25a.585.585 0 0 0 .027.232c.062.214.056.322-.027.5a.755.755 0 0 0-.07.235c0 .138.138.44.265.578.109.118.132.13.252.132.096 0 .138-.012.15-.044zm1.145-1.894c-.185-.076-.235-.336-.093-.479.155-.155.396-.08.496.155.057.132.049.201-.03.28-.054.054-.1.07-.193.069a.644.644 0 0 1-.18-.025zm-2.101-.698c.16-.321.293-.48.566-.67.097-.07.196-.154.219-.19.057-.086.018-.138-.263-.352-.355-.271-.51-.463-.603-.754-.035-.107-.133-.203-.179-.174-.031.019-.023 2.314.01 2.4.04.108.098.047.25-.26zm3.644-.687a.532.532 0 0 0 .041-.155c0-.086-.133-.175-.261-.175-.099 0-.116.011-.159.102-.046.095-.045.106.004.198.051.095.075.106.282.124.034.003.065-.03.093-.094zm-.98-.388c.058-.016.114-.042.124-.058.038-.063-.02-.158-.144-.236-.11-.068-.13-.095-.13-.172 0-.146.12-.282.429-.489.446-.298.585-.536.428-.735-.103-.132-.198-.142-.392-.042-.29.149-.351.05-.124-.205.137-.153.141-.155.335-.171l.195-.017-.01-.114c-.026-.276.002-2.823.031-2.894.017-.041.04-.364.05-.717.012-.402.032-.666.053-.705a.277.277 0 0 1 .132-.098c.124-.045.146-.096.065-.152-.076-.053-.361-.059-.497-.01-.09.033-.095.042-.095.173 0 .082.029.205.072.307a.8.8 0 0 1 .04.543c-.028.087-.055.274-.093.632-.042.4-.661 1.01-1.199 1.181-.121.039-.245.07-.275.07-.054 0-.143.07-.143.114 0 .013.093.044.207.07.266.059.49.163.55.256.027.04.065.074.085.074.063 0 .246.23.338.425.067.142.091.24.1.393.015.288-.078.488-.341.736-.28.264-.507.312-.794.169-.366-.183-.432-.64-.128-.89.18-.148.381-.11.338.064a.344.344 0 0 1-.101.143c-.212.178-.134.399.14.398a.474.474 0 0 0 .484-.45c.016-.185-.05-.33-.22-.483-.149-.135-.266-.138-.631-.017-.322.105-.43.097-.515-.04-.049-.077-.055-.12-.04-.281l.017-.19-.09-.02c-.082-.018-.105-.006-.247.133a1.727 1.727 0 0 0-.229.276c-.068.116-.071.137-.05.343.03.278.03.568 0 .8l-.023.18.17.162c.154.147.175.18.22.362.062.246.126.32.3.342.274.036.361.088.498.296.148.224.279.346.48.448.225.114.445.148.63.097zm-.603-.866c-.137-.076-.18-.24-.102-.39.055-.106.123-.141.276-.141.157 0 .24.058.282.196.027.09.025.124-.014.198a.331.331 0 0 1-.442.137zM.655 8.752c.03-.082.116-.216.19-.298.147-.164.52-.453.585-.453.076 0 .354-.138.372-.184.023-.061-.085-.101-.276-.102A.896.896 0 0 1 .995 7.5a2.223 2.223 0 0 1-.277-.357C.554 6.888.498 6.83.415 6.83c-.032 0-.01 1.631.026 1.935.017.14.023.151.088.143.057-.007.082-.039.126-.157zm1.63-1.377c.177-.097.22-.134.22-.188 0-.084.236-.344.43-.473l.145-.097-.016-.143a5.925 5.925 0 0 0-.032-.244c-.015-.087-.003-.118.083-.221.194-.233.193-.385-.006-.611-.161-.184-.181-.269-.144-.62.05-.477-.017-.701-.291-.97-.24-.237-.36-.19-.326.126l.02.186-.11.05c-.091.041-.198.05-.657.05-.628 0-.627-.001-.655.232l-.017.143.125.073c.158.093.22.162.267.299.033.095.051.11.147.125.17.024.334.124.479.29.148.169.245.347.245.453 0 .093-.133.3-.267.418-.09.078-.129.093-.249.093a.765.765 0 0 1-.244-.042c-.085-.036-.098-.053-.081-.108.038-.127.088-.15.32-.15h.221l.009-.14c.009-.135.005-.142-.143-.279a.85.85 0 0 0-.212-.155c-.16-.04-.408.11-.519.315-.062.117-.06.427.003.549.074.14.245.263.456.326.123.037.192.072.192.099 0 .023.02.042.043.042.031 0 .043.031.043.115 0 .118-.02.145-.212.305-.072.06-.074.067-.034.144a.89.89 0 0 0 .15.186l.108.105.144-.081c.079-.045.243-.135.365-.202zM2.083 5.09c-.159-.026-.21-.08-.228-.242-.012-.112-.004-.144.052-.203.091-.097.261-.141.362-.093.161.077.208.367.08.495-.039.039-.087.069-.107.067a4.026 4.026 0 0 1-.16-.024zm-1.515.65c.031-.035.099-.122.15-.192a.633.633 0 0 1 .162-.163l.156-.079c.047-.023.108-.051.137-.061.1-.037.045-.131-.097-.167-.16-.04-.241-.102-.412-.312-.072-.088-.143-.16-.159-.16-.057 0-.078.145-.083.559-.007.624-.006.64.044.64.024 0 .07-.03.101-.065zm10.231-.668c.086-.093.086-.102.004-.197-.055-.064-.08-.074-.155-.057a.245.245 0 0 0-.133.087c-.042.064-.04.074.029.155.09.108.163.111.255.012zm-4.625-.094c1.369-.036 1.986-.044 2.035-.028.024.008.103-.114.22-.341.1-.194.188-.358.194-.365.024-.024.162.058.162.096 0 .055-.072.19-.126.235-.07.058-.053.162.044.272.075.086.106.1.21.1.15 0 .3-.113.546-.413.329-.401.504-.553.597-.517a.675.675 0 0 1 .14.173c.056.087.115.158.13.158.075 0 .143-.186.143-.387 0-.377-.103-.586-.415-.839a1.745 1.745 0 0 1-.244-.234.473.473 0 0 1-.046-.373c.016-.06.012-.079-.018-.079-.022 0-.057-.02-.077-.045a.611.611 0 0 0-.329-.155c-.055 0-.132-.054-.281-.2-.114-.11-.222-.2-.241-.2a.774.774 0 0 0-.175.072c-.176.089-.224.089-.4 0a.638.638 0 0 0-.263-.071c-.241 0-.572.265-.648.517-.046.154-.02.177.208.181.226.004.275.04.275.2a.434.434 0 0 1-.09.256c-.078.117-.093.168-.102.355-.01.176-.001.237.043.317.087.158.214.229.411.229.204 0 .339-.053.452-.176.112-.123.135-.253.07-.397-.046-.102-.06-.112-.159-.112-.085 0-.136.024-.24.114a.545.545 0 0 1-.171.114c-.022 0-.053-.048-.07-.106a.239.239 0 0 1 .02-.207c.07-.142.294-.286.445-.286.107 0 .133.016.31.198.282.287.322.446.165.648l-.208.267c-.242.31-.715.458-1.026.32-.077-.034-.138-.083-.15-.12-.011-.036-.035-.055-.058-.047-.023.01-.107-.062-.207-.176a1.176 1.176 0 0 1-.263-.448 2.44 2.44 0 0 0-.116-.281c-.042-.049-.135.093-.211.32-.133.4-.346.66-.799.979-.203.143-.646.31-.825.31-.123 0-.307.061-.326.109-.027.072.08.124.222.107.07-.008.63-.028 1.242-.044zm3.05-.97c-.086-.037-.12-.274-.056-.396.091-.177.255-.248.397-.172.098.052.132.114.133.245.002.23-.265.412-.474.323zm-4.397.08c.034-.02.12-.078.19-.132.127-.097.132-.098.336-.078l.208.019.092-.097c.05-.053.138-.16.193-.238a.763.763 0 0 1 .234-.214c.315-.17.421-.363.422-.764 0-.272-.028-.376-.1-.376-.022 0-.12.07-.217.157-.128.114-.198.157-.26.157-.088 0-.11-.035-.234-.376-.104-.286-.322-.481-.537-.48-.1 0-.319.089-.398.161-.059.053-.224.386-.224.452 0 .12.179.328.32.373.104.033.194-.099.194-.287 0-.177.047-.243.175-.243.132 0 .225.111.225.271 0 .168-.047.256-.225.423-.164.153-.245.191-.404.191-.082 0-.12-.015-.142-.057-.017-.031-.048-.057-.07-.057-.044 0-.196-.163-.323-.347a.603.603 0 0 1-.107-.283.829.829 0 0 0-.045-.203c-.026-.048-.035-.049-.111-.01-.134.07-.165.055-.22-.102-.064-.18-.161-.283-.269-.283-.16 0-.219.238-.17.69.037.35.007.652-.08.765-.05.067-.07.072-.257.067L2.82 3.18v.136c0 .16.05.219.347.399.245.148.327.161.729.117.33-.037.333-.037.374.025.022.034.055.062.073.062.018 0 .096.045.173.1.15.106.211.12.31.067zm-.965-.848c-.149-.016-.215-.105-.215-.29 0-.195.072-.281.253-.306.101-.013.127-.005.203.072.073.073.087.109.087.228 0 .226-.105.321-.328.296zm-3.245.428a.573.573 0 0 0 .105-.163c.038-.11.275-.285.44-.326l.216-.054c.192-.046.1-.23-.152-.3-.19-.053-.3-.128-.36-.243-.059-.114-.13-.49-.13-.69 0-.154.009-.183.083-.257.083-.083.087-.084.416-.084.236 0 .355.012.413.042.138.072.282.269.35.477.06.188.066.195.155.195.099 0 .096.005.152-.243a.757.757 0 0 1 .13-.269.523.523 0 0 0 .1-.162c0-.02.057-.077.128-.126.155-.107.236-.217.192-.261-.022-.022-.18-.022-.54-.002-.28.016-.656.019-.837.007A6.725 6.725 0 0 0 .844 1.2c-.256.013-.315.024-.357.07-.047.052-.051.156-.06 1.267L.42 3.748h.06c.035 0 .096-.036.138-.081zM2.25 3.15c.066 0 .105-.166.059-.252-.038-.07-.179-.106-.255-.065-.069.037-.118.169-.091.245.02.058.128.103.195.083a.404.404 0 0 1 .092-.011zm8.664-.992c.2-.316.432-.516.853-.732.293-.15.332-.18.277-.214-.02-.013-.509-.019-1.084-.013-.576.006-1.16.011-1.3.01-.188 0-.249.009-.24.035.006.02.157.113.336.207.346.183.575.369.719.582.126.188.226.289.284.289.031 0 .092-.064.155-.164zm-3.83-.05c.094-.208.298-.402.642-.613.5-.308.553-.286-.694-.286-.849 0-1.075.008-1.066.035.006.02.074.081.15.136.35.25.476.409.625.778.04.098.052.107.157.107.11 0 .116-.005.186-.158zm-2.69-.403a1.94 1.94 0 0 1 .297-.294c.14-.115.207-.188.186-.201-.04-.025-1.132-.023-1.157.002-.031.032.013.096.116.166.056.038.159.15.229.248.178.25.21.257.33.078z"/></svg>