<svg viewBox="0 0 24 24" xmlns="http://www.w3.org/2000/svg" role="img"><path d="M11.592.128 7.058 2.733l-1.31.752-.032.019a1.91 1.91 0 0 0-.948 1.648v11.822l.076-.043 3.036-1.744.04-.023-.019-.041v-.003l-.02-.048-.02-.046-.002-.007-.019-.048-.018-.049v-.001l-.001-.001-.018-.05-.017-.05v-.001l-.018-.05-.016-.052v-.002l-.005-.015-.005-.014-.021-.073-.015-.053-.014-.053v-.002l-.008-.03-.008-.03a4.3 4.3 0 0 1-.034-.151v-.001l-.01-.054-.01-.052v-.005l-.01-.053-.009-.054a4.122 4.122 0 0 1-.028-.22v-.003l-.005-.053-.005-.057-.004-.056-.003-.054v-.002l-.003-.057-.002-.055v-.059l-.001-.057v-.055l.001-.054.002-.037v-.01l.002-.063.003-.038v-.015l.004-.055.004-.05.005-.058.006-.05.006-.058.007-.048.008-.058.008-.05.01-.057.008-.046.01-.06.01-.047.013-.059.01-.042.014-.06.012-.045.013-.049.004-.016.01-.034.01-.032.01-.032.013-.047.015-.046.015-.045.006-.017.029-.08.014-.037v-.001l.002-.007.02-.054.02-.047.018-.044.027-.062.016-.036.022-.049.02-.043.024-.05.023-.045.025-.047.021-.041.014-.026.014-.025.022-.04.002-.003.027-.046.022-.038v-.001l.005-.007.025-.041.023-.037.017-.027.017-.026.008-.013.028-.043.03-.042c.048-.072.1-.142.153-.21l.013-.018.023-.028.024-.03.016-.02.023-.027.023-.027.02-.025.02-.023.021-.023.028-.03.022-.025.021-.023.024-.026.025-.025.024-.026.017-.017.029-.029.029-.028.01-.01.03-.03.03-.027.015-.015.03-.028.032-.028.005-.004.034-.03.036-.031.003-.003h.001a2.777 2.777 0 0 1 .126-.104 4.34 4.34 0 0 1 .342-.245l.004-.003.04-.025.039-.025.005-.003.039-.023.038-.023.011-.007.011-.006.011-.006a2.73 2.73 0 0 1 .053-.03l.013-.007.036-.02.038-.02.017-.01.038-.02.039-.019.006-.003.043-.02v-.001l.043-.02h.001a3.662 3.662 0 0 1 .23-.101c.2-.08.408-.147.62-.198h.004l.047-.012.047-.01.008-.002.048-.01.048-.01h.003l.047-.008.047-.009.013-.002.046-.007.047-.007.006-.001.048-.006.047-.007h.004l.044-.006V4.227c0-.082.016-.147.044-.196a.236.236 0 0 1 .093-.094.267.267 0 0 1 .127-.03c.06 0 .123.017.183.05l7.202 4.141.076.044v-2.99c0-.681-.359-1.28-.898-1.618L12.415.137A.859.859 0 0 0 12.001 0h-.01a.786.786 0 0 0-.399.128zm.905 5.332v3.534l.045.005h.004l.05.007.051.007.007.001.051.008.052.008h.001l.053.01.052.01h.002l.052.011.053.011h.002v.001l.015.004.015.003.075.018.053.014.053.014h.002l.03.009.03.008c.049.015.099.03.149.047h.001l.052.018.05.018h.001l.002.001h.001l.051.019.051.02c.07.027.14.056.207.085l.002.001.049.023.051.024.051.025.049.024h.002v.001l.051.026.049.026v.001h.001l.05.028.05.028.047.027.048.029.031.02.01.005.052.033.032.02.007.005.005.004.006.004.04.027.042.028.048.034.041.03.047.035.039.028.047.037.038.031.046.037.036.03.046.04.036.031.045.041.032.03.045.042.033.032.036.036.012.012.025.025.023.024.023.025.034.035.032.036.032.035.012.015.056.064.025.03v.001l.005.006.037.044.031.04.03.039.034.046.006.008.024.031.03.043h.001l.027.04.031.045.029.042.029.045.024.04.016.024.015.024.023.04.002.003.027.046.022.038.005.008.023.042.02.039.015.027.015.028.006.013h.001l.023.046.022.046c.038.08.074.158.106.238l.009.02.013.034.014.035.01.025.012.032.012.034.01.03.01.029.01.03.014.039.01.03.01.03.01.034.01.034.01.034.006.023.01.04.011.038.004.015.01.04.01.039.004.02.01.04v.001l.008.04.001.008.01.044.009.046v.005h.001a3.999 3.999 0 0 1 .027.161c.02.138.035.277.042.416v.006l.003.047.001.045v.007l.002.045v.157l-.001.042-.001.042-.001.019-.002.043-.002.043v.006l-.004.049-.003.046v.002a5.356 5.356 0 0 1-.029.249c-.03.212-.075.424-.137.633l-.001.004-.014.045-.015.046-.002.007-.015.046-.016.047-.001.003-.016.044-.017.046-.004.011-.017.044-.017.043-.002.006-.019.045-.018.044-.002.003-.017.041.039.022 4.125 2.37c.071.04.12.087.149.135a.233.233 0 0 1 .034.127.261.261 0 0 1-.037.125.384.384 0 0 1-.135.133l-7.206 4.133-.076.044.076.044 1.657.952.87.499c.593.34 1.292.33 1.857.035l5.915-3.398c.156-.09.26-.177.327-.288a.767.767 0 0 0 .092-.417v-6.75a1.91 1.91 0 0 0-.96-1.64l-.87-.5-9.347-5.368-.076-.043zm-8.76 4.374.075-.043v.087l-.004 8.275a.379.379 0 0 0 .048.183.24.24 0 0 0 .218.128.407.407 0 0 0 .192-.06l4.126-2.37.038-.022.027.035.002.003.03.038.029.038.004.005.03.037.029.036.008.01.03.036.031.036.002.002.033.037.033.037.005.006.032.035.034.035.002.002a4.387 4.387 0 0 0 .685.584l.04.027.04.027.006.004.036.023.037.023.016.01.036.023.036.021.012.008.053.03.01.007.011.006.012.006.039.022.04.021.005.004.041.021.041.021.006.003a4.342 4.342 0 0 0 .537.229l.005.002.044.015.044.014.006.002.04.013.04.012.02.007.04.01.039.012.015.004.039.01.039.011.023.006.035.009.034.008.035.008.031.007.032.006.04.009.031.006.03.006.032.005.035.007.035.006.026.004.037.005.037.006.021.003c.086.011.173.02.26.027l.051.004.051.003h.016l.031.002.032.001.044.002h.057l.045.001h.057l.046-.001h.028l.03-.001.046-.002.053-.003.052-.003.055-.004.047-.004.053-.005.04-.005h.01l.057-.008.049-.006.05-.007.056-.01h.008v-.001l.04-.007.084-.015.018-.003.047-.01.047-.01.048-.011.033-.008.033-.008.034-.009.016-.004.05-.013.044-.013.06-.017.041-.013.058-.018.046-.016.057-.02.044-.015.055-.021.047-.018.055-.022.045-.019.053-.023.047-.02.053-.025.045-.022.043-.02.008-.004.005-.003.008-.004.034-.017.055-.029.01-.005.032-.017.048-.026.048-.027.05-.029.049-.03.048-.03.048-.03h.001l.001-.002.046-.03.047-.03.047-.033.044-.031.001-.002c.06-.042.12-.087.179-.134l.042-.034.042-.035v-.001l.002-.001.001-.001.041-.035.041-.036h.001c.04-.035.078-.07.115-.106l.022-.02.022-.022.002-.002.04-.039.037-.038.054-.056.01-.01.01-.012h.001v-.002h.001l.037-.04.035-.039.001-.001.035-.04.034-.04v-.001l.002-.002.033-.039.032-.04.005-.006.031-.04.031-.04.002-.003.027-.036.04.022 3.036 1.744.076.043-.076.044-9.346 5.368-.87.5a1.93 1.93 0 0 1-1.909.007l-.032-.018-1.31-.752-4.534-2.605a.77.77 0 0 1-.316-.287c-.063-.113-.088-.247-.089-.426v-6.795a1.91 1.91 0 0 1 .96-1.582l.87-.5zM8.5 13.358a3.5 3.5 0 1 1 7 .001 3.5 3.5 0 0 1-7 0z"/></svg>