<svg role="img" viewBox="0 0 24 24" xmlns="http://www.w3.org/2000/svg"><path d="M3.294 21.443l-.151-.151.024-5.249c.014-2.887.035-5.465.047-5.73.043-.918.327-1.701.856-2.363.463-.58 1.262-1.1 1.99-1.295.526-.141 1.31-.135 1.875.016 1.335.355 2.338 1.368 2.737 2.765.07.242.076.698.076 5.74v5.476l1.23.011 1.23.012.03-1.48c.015-.813.029-3.125.03-5.137 0-2.012.02-3.845.042-4.074a3.852 3.852 0 0 1 2.257-3.12c.715-.314 1.688-.398 2.41-.21 1.358.355 2.386 1.393 2.765 2.79.078.285.081.561.068 6.034-.011 4.883-.023 5.753-.076 5.857-.149.288-.487.348-.731.13l-.143-.127-.022-1.97-.022-1.969-1.468 1.049a457.319 457.319 0 0 1-2.694 1.915c-.387.277-.95.675-1.399.988l-.347.242H10.07l-.143-.127-.143-.128-.013-1.975c-.007-1.087-.023-1.975-.036-1.975-.013 0-.46.311-.995.692-.534.381-1.317.937-1.738 1.234-.422.298-.87.617-.996.71-.126.093-.675.484-1.22.87-.881.621-1.011.7-1.167.7-.14 0-.204-.03-.325-.151zm11.773-1.83a3616.82 3616.82 0 0 1 4.763-3.387c.007-.006.025-1.402.04-3.1.028-3.319.024-3.385-.193-3.884-.163-.373-.378-.667-.729-.994a2.635 2.635 0 0 0-1.34-.692c-.457-.087-.665-.087-1.09-.001-1.014.205-1.822.944-2.16 1.974-.096.29-.1.38-.13 2.536a509.213 509.213 0 0 0-.037 5.185c-.004 2.461.005 2.947.055 2.928.032-.012.402-.267.821-.566zm-10.529.29a728.94 728.94 0 0 1 4.424-3.142l.787-.56.028-.557c.016-.306.028-1.733.029-3.172V9.857l-.109-.343A2.887 2.887 0 0 0 8.25 7.812c-.401-.197-.882-.325-1.225-.325-.228 0-.76.098-1.02.188-.928.321-1.719 1.343-1.823 2.353-.014.132-.037 2.463-.052 5.18-.02 3.61-.014 4.94.021 4.94.027 0 .201-.11.387-.245zM.264 9.918c-.231-.1-.289-.297-.255-.876.05-.863.23-1.65.55-2.393a7.326 7.326 0 0 1 2.8-3.25c1.895-1.18 4.461-1.322 6.512-.361A6.613 6.613 0 0 1 11.7 4.281l.294.282.339-.316c2.5-2.336 6.416-2.468 9.065-.305C23.016 5.262 24 7.284 24 9.288c0 .346-.01.395-.112.516a.5.5 0 0 1-.256.16c-.181.034-.438-.07-.513-.206-.033-.06-.07-.352-.086-.695-.056-1.119-.414-2.147-1.105-3.175-.27-.4-1.13-1.234-1.583-1.531-1.016-.668-2.07-.988-3.253-.988-.637 0-1.078.054-1.622.2-1.091.292-2.057.89-2.867 1.773-.371.405-.514.484-.726.406-.054-.02-.35-.283-.657-.584-.618-.604-1.1-.951-1.727-1.243-.836-.39-1.582-.55-2.557-.551-1.223-.001-2.25.308-3.264.983A6.074 6.074 0 0 0 .97 9.086c-.029.599-.08.744-.3.836-.181.076-.222.075-.404-.004z"/></svg>