<svg viewBox="0 0 24 24" xmlns="http://www.w3.org/2000/svg" role="img"><path d="M9.786 16.48a.63.63 0 0 1-.39-.229.607.607 0 0 1 .002-.72.603.603 0 0 1 .322-.21.448.448 0 0 1 .138-.014.508.508 0 0 1 .275.063.577.577 0 0 1 .324.524c0 .095-.01.15-.044.226a.612.612 0 0 1-.627.36zm3.002 0a.633.633 0 0 1-.344-.174.593.593 0 0 1 .14-.932.583.583 0 0 1 .543-.007.572.572 0 0 1 .267.264.576.576 0 0 1-.096.662.656.656 0 0 1-.303.177.727.727 0 0 1-.207.01zm1.367 0a.63.63 0 0 1-.353-.186.596.596 0 0 1 .095-.886.71.71 0 0 1 .193-.086.442.442 0 0 1 .134-.015.523.523 0 0 1 .284.066.589.589 0 0 1 .305.654.586.586 0 0 1-.24.347.587.587 0 0 1-.418.106zm7.499-.117a2.136 2.136 0 0 1-.577-.127 2.122 2.122 0 0 1-.926-.686c-.067-.087-.065-.074-.025-.143l.034-.06-.034-.044a.185.185 0 0 1-.031-.052l.168-.295.319-.553c.083-.146.154-.264.155-.263a1.133 1.133 0 0 0 .249.602c.146.176.344.303.56.359a.998.998 0 0 0 .265.03 1.048 1.048 0 0 0 .836-.391c.104-.128.19-.308.225-.47.03-.133 0-.297-.087-.476a1.071 1.071 0 0 0-.827-.598 1.244 1.244 0 0 0-.402.02 1.106 1.106 0 0 0-.593.38c-.014.019-.238.404-.497.855l-.472.822-.587.001c-.508.001-.586 0-.584-.006l.06-.106.055-.1a.315.315 0 0 0-.058-.004l-.059-.002.12-.208.123-.215a.348.348 0 0 0-.039-.075 2.248 2.248 0 0 1-.242-.565 2.138 2.138 0 0 0-.027-.095c-.003-.007-.135.067-.709.398-.763.441-1.008.58-1.108.63-.2.1-.388.152-.587.164a.284.284 0 0 0-.062.007c0 .007-.108 0-.114-.007a.147.147 0 0 0-.044-.017.635.635 0 0 1-.242-.126c-.252-.195-.477-.572-.585-.982l-.021-.075c-.001 0-.317.181-.701.403a64.3 64.3 0 0 1-1.08.617 2.038 2.038 0 0 1-.234.102c-.133.046-.255.07-.408.08a.529.529 0 0 1-.192-.006c-.154-.032-.267-.098-.407-.24a1.664 1.664 0 0 1-.31-.448 2.228 2.228 0 0 1-.17-.45l-.015-.06-.696.403c-.804.464-1.046.601-1.147.649a1.515 1.515 0 0 1-.638.156.535.535 0 0 1-.14-.009 1.579 1.579 0 0 1-.289-.08 1.435 1.435 0 0 1-.696-.7c-.033-.068-.035-.062.02-.09a.492.492 0 0 0 .03-.016.969.969 0 0 0-.041-.088l-.043-.086-.04.021-.95.507c-.5.267-.936.502-.969.522a4.026 4.026 0 0 1-2.437.568 4.01 4.01 0 0 1-1.92-.677 3.95 3.95 0 0 1-1.11-1.102 4.067 4.067 0 0 1-.695-1.972A5.54 5.54 0 0 1 0 11.361a3.926 3.926 0 0 1 .428-1.615 4.067 4.067 0 0 1 1.336-1.528 4.098 4.098 0 0 1 1.95-.696 5.33 5.33 0 0 1 .567-.009 4.021 4.021 0 0 1 2.194.781 4.078 4.078 0 0 1 1.484 2.085l.028.092v-1.6l.175-.08c.096-.043.202-.092.236-.109l.062-.03.004.102c.001.055.008.817.013 1.692.006.875.012 1.593.014 1.597.002.003.348.22.77.485.421.264.766.48.766.482 0 .002-.272.148-.604.325l-.622.332-.018.011.021.01c.089.04.238.066.376.068a.451.451 0 0 0 .198-.033c.019-.008.263-.146.543-.309l1.769-1.024.316-.184.003.584c.003.646 0 .602.04.669a.53.53 0 0 0 .141.143c.136.09.35.152.529.152a.464.464 0 0 0 .179-.032c.02-.009.402-.228.849-.487l1.294-.75.48-.278.005.158c.002.087.003.348.003.579 0 .404 0 .422.011.456.054.176.307.32.615.35a.376.376 0 0 0 .108 0c.085-.014.114-.029.397-.192a7803.872 7803.872 0 0 0 2.2-1.275l.132-.076.004.158c.002.087.003.348.003.579 0 .48-.002.456.05.535.078.116.25.211.46.254.055.011.063.012.07.004.01-.011.347-.598.377-.657a2.088 2.088 0 0 1 2.191-1.099 2.108 2.108 0 0 1 1.58 1.201c.09.197.144.384.172.601.012.091.02.469.013.598a1.99 1.99 0 0 1-.226.836 2.107 2.107 0 0 1-1.636 1.139c-.087.01-.308.014-.396.007zM4.188 13.682c.143-.008.257-.025.384-.056.191-.047.248-.071.553-.234a9341.929 9341.929 0 0 1 2.86-1.53c.003-.003.004-.093.003-.202l-.001-.198-1.03.55-1.034.548c-.003 0 .003-.014.012-.032l.05-.11c.22-.515.228-1.099.022-1.615a2.05 2.05 0 0 0-.823-.992 2.045 2.045 0 0 0-1.117-.322c-.417 0-.8.117-1.16.354a2.126 2.126 0 0 0-.893 1.328 2.06 2.06 0 0 0 .182 1.35 2.118 2.118 0 0 0 1.754 1.16c.114.007.13.007.238 0zm-.168-.875a1.092 1.092 0 0 1-.604-.22 1.212 1.212 0 0 1-.448-.74 1.31 1.31 0 0 1-.01-.283c.034-.334.21-.64.486-.838.209-.149.426-.215.681-.207a1.16 1.16 0 0 1 1.083 1.467c-.049.189-.15.36-.3.505a1.133 1.133 0 0 1-.619.305 1.97 1.97 0 0 1-.27.01zm17.672 2.008a.629.629 0 0 1-.316-.181.553.553 0 0 1-.15-.402c.001-.307.002-.316.018-.37a.618.618 0 0 1 .114-.22.613.613 0 0 1 .303-.191.453.453 0 0 1 .147-.016c.079 0 .1.002.143.013a.765.765 0 0 1 .231.115.59.59 0 0 1 .222.509.401.401 0 0 0 0 .093.593.593 0 0 1-.353.608.459.459 0 0 1-.226.05.484.484 0 0 1-.133-.008zm-4.584-2.368a.602.602 0 0 1-.445-.364.514.514 0 0 1-.037-.225.45.45 0 0 1 .015-.143.602.602 0 0 1 .152-.269.59.59 0 0 1 .675-.11.583.583 0 0 1 .222.872.65.65 0 0 1-.343.231.733.733 0 0 1-.24.008zM8.854 9.504v-.863h9.155v1.727H8.854zm3.048.701a.475.475 0 0 0 .163-.073.61.61 0 0 0 .209-.246.587.587 0 0 0-.013-.47.6.6 0 0 0-.229-.243.501.501 0 0 0-.274-.068.511.511 0 0 0-.212.038.612.612 0 0 0-.299.296.584.584 0 0 0 .026.5.569.569 0 0 0 .397.278.73.73 0 0 0 .232-.012zm-.226-.225a.317.317 0 0 1-.21-.232.395.395 0 0 1 .032-.254.35.35 0 0 1 .132-.13.29.29 0 0 1 .336.057.35.35 0 0 1 .089.322.313.313 0 0 1-.23.241.37.37 0 0 1-.149-.004zm3.071.227a.538.538 0 0 0 .151-.068.733.733 0 0 0 .135-.132.598.598 0 0 0-.003-.691.526.526 0 0 0-.305-.204.672.672 0 0 0-.22.003.515.515 0 0 0-.196.097l-.017.014-.003-.22-.002-.218h-.25v1.4h.115l.115.002v-.111l.033.027a.5.5 0 0 0 .227.11.62.62 0 0 0 .22-.009zm-.252-.226a.32.32 0 0 1-.219-.318.321.321 0 0 1 .236-.322.414.414 0 0 1 .173.01c.128.046.212.189.201.34-.01.142-.106.265-.23.293a.488.488 0 0 1-.16-.003zm1.357.234a.506.506 0 0 0 .241-.117l.022-.02.002.055.002.054.115.002.115.001V9.135l-.115.001-.115.002-.002.054-.002.055-.028-.025a.48.48 0 0 0-.196-.104.641.641 0 0 0-.241-.003.53.53 0 0 0-.353.298.479.479 0 0 0-.05.252.555.555 0 0 0 .336.525.51.51 0 0 0 .269.025zm-.141-.237a.298.298 0 0 1-.162-.128.305.305 0 0 1-.048-.17.313.313 0 0 1 .089-.254.268.268 0 0 1 .215-.09c.092 0 .154.025.216.09.062.067.09.137.09.237s-.028.17-.09.235a.268.268 0 0 1-.218.092.254.254 0 0 1-.092-.012zm-5.873-.311.001-.523.183.523.183.523h.204l.007-.018c.005-.01.085-.24.179-.51.093-.27.173-.498.177-.507.006-.014.008.073.008.509v.526h.256V8.785h-.356l-.01.024-.184.527c-.096.277-.176.504-.177.504a30.1 30.1 0 0 1-.187-.526l-.183-.526h-.36l-.002.694.001.701c.002.005.034.007.13.007h.129l.001-.523zm2.881.197c.002-.295.003-.33.013-.362.02-.076.055-.123.107-.149.029-.014.037-.015.093-.015s.064.001.093.015c.049.024.081.068.103.139.007.025.01.078.012.362l.003.333.126.002.126.001v-.34c0-.372-.001-.4-.032-.486a.367.367 0 0 0-.098-.154.348.348 0 0 0-.247-.106.395.395 0 0 0-.294.1l-.022.02-.002-.043-.001-.043h-.234v.52a25.69 25.69 0 0 0 0 .525c.002.005.033.007.128.007h.124l.002-.326zm1.129-.201v-.525l-.126-.002-.127-.001v1.055l.127-.001.126-.002zm2.947.2c.002-.354.002-.36.035-.423a.176.176 0 0 1 .163-.104c.108-.005.167.036.204.141l.015.044.003.333.003.333.126.002.127.001v-.337c0-.37-.003-.404-.032-.488a.368.368 0 0 0-.099-.155.35.35 0 0 0-.275-.105.3.3 0 0 0-.12.015.426.426 0 0 0-.14.08l-.028.024-.002-.043-.001-.043h-.233l-.002.52.001.525c.002.005.033.007.128.007h.125l.002-.326zm-2.946-.96-.001-.115-.126-.001-.127-.002v.234h.256zm5.032.601v-.863H24v1.727h-5.12zm2.205.576a.516.516 0 0 0 .37-.345.522.522 0 0 0-.13-.006h-.13l-.016.024a.278.278 0 0 1-.185.11.295.295 0 0 1-.306-.161.255.255 0 0 1-.02-.048c0-.007.066-.008.407-.008h.408l.004-.043a.564.564 0 0 0-.21-.51.493.493 0 0 0-.312-.112.495.495 0 0 0-.227.037.587.587 0 0 0-.287.275.62.62 0 0 0-.036.387c.054.213.23.375.444.41a.84.84 0 0 0 .226-.01zm-.42-.655c.056-.161.194-.244.347-.209a.305.305 0 0 1 .213.218l.004.012h-.572zm2.943.652a.34.34 0 0 0 .221-.216.425.425 0 0 0 .015-.185.277.277 0 0 0-.133-.191.648.648 0 0 0-.167-.073c-.13-.045-.158-.062-.165-.107a.094.094 0 0 1 .038-.08.103.103 0 0 1 .152.046l.01.025h.242V9.28a.334.334 0 0 0-.325-.298.348.348 0 0 0-.274.098.3.3 0 0 0-.091.228c0 .16.083.248.313.325.126.043.155.067.155.13 0 .034-.01.054-.036.077-.024.021-.04.026-.083.026-.06 0-.105-.037-.124-.103l-.009-.033h-.253v.024a.364.364 0 0 0 .293.334.543.543 0 0 0 .22-.01zm-4.045-.325c0-.347.001-.367.036-.437.038-.077.101-.112.193-.106.099.006.159.062.186.175.007.031.009.09.01.358l.003.32h.25V9.74c0-.333-.004-.392-.024-.465a.391.391 0 0 0-.105-.184.278.278 0 0 0-.094-.071.382.382 0 0 0-.2-.038.364.364 0 0 0-.248.1l-.024.023v-.091h-.233v1.05h.25v-.311zm2.635-.02.1-.337a2.86 2.86 0 0 1 .104.329l.1.338h.157l.185-.517a1618.57 1618.57 0 0 1 .187-.525c.002-.005-.025-.007-.127-.007h-.13l-.006.018-.102.328a2.627 2.627 0 0 1-.1.3 16.4 16.4 0 0 1-.078-.299l-.08-.318-.009-.029h-.197l-.083.327c-.046.18-.084.326-.086.325a15.81 15.81 0 0 1-.103-.326l-.1-.323-.132-.002-.13-.001.005.015a187.273 187.273 0 0 1 .365 1.02l.006.015.079-.002.079-.001zm-3.982.41v-.224l.227.001.226.002.001.223.002.224h-.456z"/></svg>