<svg role="img" viewBox="0 0 24 24" xmlns="http://www.w3.org/2000/svg"><path d="M5.53 15.864c0-.914-.003-1.661-.008-1.661s-.123.038-.263.084a3.984 3.984 0 0 1-2.47.02 4.027 4.027 0 0 1-2.758-3.252 5.335 5.335 0 0 1 0-1.151 4.032 4.032 0 0 1 3.203-3.356c.983-.19 2.025 0 2.871.524a4.03 4.03 0 0 1 1.89 3.068c.012.13.024.82.025 1.533.002.713.007 1.273.011 1.243l.03-.214a4.14 4.14 0 0 1 .712-1.736c.175-.245.683-.747.938-.927A4.017 4.017 0 0 1 13.26 9.5a4.023 4.023 0 0 1 2.36 2.042 4.5 4.5 0 0 1 .33.939l.04.189.002-1.172c.001-.648.012-1.27.024-1.394a4.015 4.015 0 0 1 3.703-3.619 4.023 4.023 0 0 1 3.407 1.479c.404.498.693 1.12.826 1.78.043.216.05.306.049.75 0 .464-.005.524-.058.772-.343 1.602-1.538 2.808-3.114 3.141-.69.147-1.4.105-2.077-.12a3.818 3.818 0 0 0-.273-.084c-.011 0-.02.695-.02 1.661v1.662h-2.465l-.002-1.785-.001-1.785-.042.193a4.081 4.081 0 0 1-.737 1.593 4.96 4.96 0 0 1-.87.846 4.852 4.852 0 0 1-1.064.536c-.99.322-2.05.251-2.982-.198a4.02 4.02 0 0 1-2.254-3.13c-.01-.084-.02.646-.02 1.795l-.004 1.935H5.531zm6.98-1.161c.653-.236 1.064-.897.975-1.567a1.407 1.407 0 0 0-.43-.864 1.455 1.455 0 0 0-1.503-.349c-.373.13-.678.4-.844.747-.12.252-.15.38-.148.653.002.27.042.438.162.67.19.364.526.633.94.75.22.061.619.043.848-.04zm-8.15-2.794c.43-.11.775-.397.97-.804.1-.213.136-.374.136-.613 0-.578-.3-1.065-.82-1.327a1.316 1.316 0 0 0-.721-.145c-.4.021-.674.146-.968.442a1.343 1.343 0 0 0-.385.676c-.193.763.288 1.57 1.055 1.77.213.056.517.056.733.001zm15.985.01a1.43 1.43 0 0 0 .688-.396c.203-.202.287-.333.376-.59.054-.154.06-.2.06-.45s-.006-.297-.06-.45a1.602 1.602 0 0 0-.661-.822 1.49 1.49 0 0 0-1.346-.067 1.5 1.5 0 0 0-.828 1c-.048.208-.032.61.033.8.16.466.56.84 1.036.964.193.05.51.055.702.01zm-8.614-2.766a1.256 1.256 0 0 1-.64-.362 1.25 1.25 0 0 1-.399-.945c0-.359.12-.657.368-.917.169-.177.316-.274.541-.354.136-.048.194-.056.415-.056.233-.001.275.005.44.064.228.08.388.185.554.362.227.243.346.553.346.9 0 .233-.038.395-.143.612-.1.208-.36.47-.565.573a1.412 1.412 0 0 1-.917.123z"/></svg>