<svg viewBox="0 0 24 24" xmlns="http://www.w3.org/2000/svg" role="img"><path d="M2.949 15.454c1.621-1.624 2.99-2.95 3.043-2.945.051.004.422.297.824.651l.73.645-2.296 2.3-2.296 2.302H0zm1.96 1.891c.565-.583 2.307-2.375 3.87-3.98 1.564-1.607 2.87-3.102 2.903-3.323.043-.285-.466.12-1.756 1.398-1 .99-1.913 1.8-2.03 1.8-.117 0-.472-.219-.789-.485-2.1-1.768-1.714-5.478.697-6.69 2.795-1.405 5.95.49 5.937 3.565-.007 1.606-.493 2.327-3.83 5.684l-3.073 3.093H3.883zm7.913-4.184c5.906-5.888 5.919-5.897 7.927-5.484 3.114.64 4.317 4.448 2.156 6.826-1.36 1.497-3.876 1.626-5.45.278-1.394-1.193-1.398-1.17.65-3.226 1.329-1.334 1.717-1.822 1.448-1.822-.233 0-1.949 1.583-4.7 4.337l-4.335 4.337-1.478-.001-1.478-.001z"/></svg>