<svg role="img" viewBox="0 0 24 24" xmlns="http://www.w3.org/2000/svg"><path d="M4.504 23.984c-.13-.008-.25-.027-.264-.041-.06-.06-.074-1.129-.058-4.4.01-2.205.006-3.879-.013-4.814C4.137 13.153 4.126 1.635 4.156.69c.01-.312.026-.581.036-.598C4.23.031 5.05.011 6.33.039c.788.017 1.468.018 1.895.004 1.846-.065 10.417-.053 11.363.016l.223.016.013.131c.007.072.019 5.445.025 11.94l.013 11.81-.108.022c-.118.024-14.866.031-15.25.007zm12.074-.221c.01-.04.018-.451.02-.916.002-.79.005-.852.053-.952.028-.059.2-.262.384-.451.327-.339.335-.346.486-.378.112-.023.345-.03.845-.022.897.014 1.265.01 1.288-.014.01-.01.015-2.146.01-4.747-.005-2.602.004-6.141.02-7.867.026-2.935.01-5.165-.04-5.493l-.015-.102h-1.105c-1.02 0-1.112-.004-1.2-.047-.161-.08-.686-.533-.687-.592 0-.03-.017-.249-.038-.488-.02-.24-.037-.68-.038-.98V.17h-.557c-1.132.002-8.543.05-8.548.057a27.4 27.4 0 0 0-.035.737c-.016.401-.037.86-.045 1.018l-.016.287-.142.08a3.68 3.68 0 0 0-.324.217c-.32.241-.238.228-1.465.237l-1.08.008-.014.158c-.008.088-.019 3.006-.025 6.485-.009 5.281-.005 6.431.026 6.966.027.477.034 1.132.03 2.573-.005 1.064.002 1.973.014 2.02l.022.087 1.067-.02 1.067-.018.112.099c.525.463.679.616.727.725.049.11.05.152.035.833-.015.676 0 1.011.044 1.056.039.04.96.05 5.002.054l4.104.005zm-7.71-.406a1.576 1.576 0 0 1-.033-.238l-.016-.195-.156-.158-.156-.157-.174.02a.924.924 0 0 0-.183.03.533.533 0 0 0-.025.111c-.016.098-.01.11.117.239a.98.98 0 0 0 .212.169.35.35 0 0 1 .112.073c.054.065-.05.102-.314.113-.356.016-.336.058-.326-.692.01-.812.01-.81-.373-1.163-.15-.137-.4-.372-.556-.521-.298-.287-.373-.338-.538-.368a.657.657 0 0 1-.148-.043c-.04-.021-.042-.03-.009-.093a.426.426 0 0 1 .135-.13c.121-.073.226-.265.2-.368-.014-.056-.038-.073-.135-.093-.15-.032-.214-.004-.453.197-.115.097-.194.146-.224.138-.025-.007-.046-.02-.046-.03 0-.011.065-.08.144-.156.177-.167.206-.246.13-.353-.165-.232-.381-.195-.545.093-.044.077-.056.083-.125.066-.213-.055-.43-.006-.459.102-.02.078.1.308.207.397.09.075.187.2.187.244 0 .02-.477.009-.496-.013a3.38 3.38 0 0 1 .008-.343c.012-.246.008-.354-.016-.415-.066-.163-.06-.166.206-.147.306.023.377 0 .562-.188l.147-.148-.03-.147-.03-.146h-.116c-.16 0-.318.083-.446.236-.11.13-.212.2-.29.2-.037 0-.04-.018-.026-.122.038-.26.062-4.44.04-6.947a1345.5 1345.5 0 0 1-.034-5.194l-.01-2.596.093.017c.069.013.132.058.246.177.117.122.181.167.266.189.136.034.225.007.258-.081.026-.068.007-.246-.026-.246-.01 0-.045-.04-.075-.088-.076-.125-.272-.214-.513-.235a1.063 1.063 0 0 1-.237-.04c-.04-.021-.041-.029-.006-.099.047-.089.033-.086.154-.035a.392.392 0 0 0 .217.023c.102-.014.135-.034.215-.13a.892.892 0 0 1 .196-.17c.056-.032.101-.073.101-.09 0-.018.032-.032.07-.032.054 0 .1.032.184.131.148.172.27.226.511.227h.189l-.018-.095c-.035-.184-.101-.27-.336-.431a1.52 1.52 0 0 1-.234-.182c-.005-.016.08-.033.215-.044.14-.01.239-.031.265-.055.023-.02.053-.038.066-.038a.814.814 0 0 0 .164-.107 22.102 22.102 0 0 0 1.056-.902.712.712 0 0 0 .086-.182 1.69 1.69 0 0 1 .055-.148c.007-.012.077.041.156.117.08.076.176.146.213.155.05.013.07.036.079.095.01.07.002.083-.077.116a.549.549 0 0 1-.176.037c-.223 0-.568.182-.828.439-.35.344-.538.72-.538 1.068 0 .217.035.345.133.492.15.223.378.314.635.25.14-.034.14-.035.176-.165.04-.155.009-.256-.1-.308l-.232-.11c-.263-.121-.332-.3-.151-.394.102-.053.335-.047.717.02.12.022.311.04.426.04h.21l.354-.334c.274-.258.362-.357.39-.438.045-.135.01-.26-.106-.38-.085-.087-.355-.231-.434-.231-.068 0-.076-.04-.03-.154A.507.507 0 0 0 8.79 2c-.015-.148-.012-.166.036-.191.068-.037.04-.08-.04-.064l-.13.027c-.068.014-.068.014-.053-.114l.015-.128-.083.05c-.077.044-.092.045-.223.01-.191-.05-.27-.047-.313.014-.035.05-.037.05-.096-.014-.043-.045-.052-.072-.033-.09.015-.016.158-.045.319-.065.354-.045.354-.046.337-.111-.016-.063.027-.068.12-.015.07.04.256.052.256.016 0-.012-.034-.036-.077-.054-.083-.035-.09-.065-.048-.215.023-.086.02-.114-.023-.192a1.004 1.004 0 0 1-.068-.15c-.017-.055-.012-.058.14-.058h.157l-.018.228-.018.228.111.12c.06.066.14.135.176.153.09.046.271.07.375.05.108-.02.112-.07.024-.26-.049-.105-.1-.16-.243-.266-.1-.072-.178-.145-.173-.16.018-.053.213-.064 1.215-.065.878-.001 1.006.003 1.006.037 0 .049.005.048.11-.013.078-.047.108-.05.312-.029a.988.988 0 0 0 .292 0c.038-.013.895-.02 1.987-.016L16.06.67l.035.153c.025.109.035.338.034.779v.624l.196.196c.108.107.377.353.597.546l.402.35.873.007c.744.006.878.013.898.046a.892.892 0 0 1 .025.253v.214l-.082-.016a.52.52 0 0 1-.199-.129c-.137-.133-.311-.226-.403-.215-.051.006-.074.031-.101.11-.053.154-.022.234.158.409.142.137.218.235.218.282 0 .008-.05.014-.11.014-.105 0-.113-.006-.156-.102-.063-.144-.156-.21-.28-.2-.143.01-.204.1-.218.311l-.01.163-.08-.017c-.054-.01-.083-.034-.093-.074-.008-.032-.02-.06-.026-.061a2.418 2.418 0 0 0-.213.029l-.2.032.017.081c.054.26.32.5.6.545l.108.017-.01-.272-.008-.273h.067c.038 0 .094.021.125.047.054.043.055.053.025.138-.044.12-.008.25.078.295a.537.537 0 0 0 .368-.003c.047-.02.15-.1.23-.18a.85.85 0 0 1 .166-.143c.013 0 .033.107.044.237.014.162.025 13.807.012 14.405-.001.065-.077.028-.235-.115-.301-.273-.405-.315-.548-.221-.052.034-.063.062-.063.16 0 .107.012.132.119.244.146.153.243.195.45.195.195 0 .286.04.296.131.008.067.007.067-.204.079-.243.013-.339.054-.559.236a.57.57 0 0 1-.185.117c-.025 0-.14-.075-.257-.167l-.21-.167-.18.007-.178.007-.022.112-.022.112.148.15a.83.83 0 0 0 .24.18.47.47 0 0 1 .128.061c.054.046.148.051.272.016a.286.286 0 0 1 .215.01c.202.07.332.034.53-.148.135-.124.237-.198.272-.198.013 0 .019.097.014.216-.006.156-.02.229-.05.258-.036.036-.115.04-.59.034-.788-.01-1.045 0-1.144.048-.047.022-.266.231-.487.465-.22.234-.47.495-.555.58l-.154.153-.008.678c-.004.374-.019.708-.033.744-.05.128-.096.138-.65.131a10.828 10.828 0 0 1-.517-.012c-.003-.003.006-.09.02-.194.024-.175.022-.197-.033-.303a.664.664 0 0 0-.17-.195c-.101-.073-.126-.08-.32-.08l-.21-.001-.007.077c-.016.17.188.414.447.538.085.04.112.08.092.134-.01.025-.487.031-2.282.029-1.249-.002-2.481-.01-2.74-.02l-.47-.015.054-.068a.713.713 0 0 1 .166-.134.552.552 0 0 0 .273-.328c.036-.132.015-.154-.162-.169a.61.61 0 0 0-.506.22c-.085.096-.102.133-.102.226 0 .083.01.112.04.112.021 0 .05.03.065.068.03.08 0 .11-.109.11a.384.384 0 0 0-.105.015c-.022.008-.045-.005-.054-.029zm2.855-.176c.133-.087.19-.218.188-.44 0-.16-.009-.192-.071-.268a2.096 2.096 0 0 1-.128-.177.426.426 0 0 0-.146-.132 4.869 4.869 0 0 0-.775-.309c-.083-.023-.108-.02-.167.023a.703.703 0 0 1-.178.082.592.592 0 0 0-.342.298c-.149.328.054.724.438.854.09.03.203.055.25.055.078 0 .085-.006.07-.055a.794.794 0 0 1-.018-.182c0-.23.15-.352.457-.372.177-.011.194-.008.255.053a.333.333 0 0 1 .08.155c.013.085.007.093-.09.143-.144.073-.194.187-.141.323.022.059.193.031.318-.05zm-1.36-.6c0-.116.009-.133.1-.206.076-.06.126-.079.208-.079.092 0 .105.006.09.045a1.33 1.33 0 0 0-.04.17c-.034.173-.058.195-.22.195h-.137zm2.3.658c.038-.038.041-.2.004-.2-.05 0-.191.07-.226.111-.031.038-.025.047.051.08.107.047.132.048.171.01zm2.965-.084c.057-.034.152-.113.211-.177.092-.1.107-.133.107-.23 0-.142-.035-.171-.223-.187l-.148-.012-.171.162c-.205.194-.23.263-.151.424.055.115.056.115.163.098a.72.72 0 0 0 .212-.078zm-2.11-.055c.46-.145.625-.652.325-.994a.768.768 0 0 0-.468-.247c-.14-.025-.154-.023-.242.037a1.026 1.026 0 0 1-.273.108c-.229.056-.335.11-.453.233a.673.673 0 0 0-.199.477c0 .146.045.303.099.336.045.028.189-.06.171-.105-.039-.1-.043-.166-.015-.25.064-.192.357-.239.566-.09.086.062.17.23.204.415.031.165.02.162.285.08zm-.017-.387c-.09-.02-.192-.142-.231-.273a1.242 1.242 0 0 1-.038-.148c0-.04.217-.02.324.028.122.056.162.115.162.24 0 .12-.09.183-.217.153zm-4.387 0a.504.504 0 0 0 .071-.143c.03-.095.029-.102-.053-.186-.072-.075-.102-.087-.204-.087-.232 0-.313.143-.203.36.051.1.053.1.201.1.11 0 .16-.011.188-.044zm-.215-.116c-.062-.05-.076-.117-.026-.13.024-.008.068-.02.098-.028.07-.02.096.062.044.138-.043.061-.061.064-.116.02zm6.33.084c.115-.059.154-.117.154-.23 0-.166-.221-.275-.393-.193-.165.078-.191.253-.058.387.1.1.157.107.297.036zm-.167-.18a.046.046 0 0 1 .008-.055c.037-.037.121-.015.121.03 0 .046-.103.066-.128.025zm-6.542-.12c.264-.141.351-.282.312-.506l-.018-.101-.14.007c-.173.009-.334.103-.5.294-.121.138-.134.179-.086.283.057.126.224.135.432.023zm1.192.032c.08-.08.08-.162 0-.32-.082-.16-.264-.27-.49-.295-.155-.018-.157-.017-.187.057-.077.184.061.406.34.545.184.092.255.095.337.013zm4.988-.068c.066-.044.155-.121.198-.173.073-.088.077-.102.061-.247-.02-.18-.034-.2-.136-.198-.21.006-.545.325-.603.575-.014.061-.007.072.055.086a1.7 1.7 0 0 1 .096.024c.094.031.22.006.33-.067zm1.163.04c.051-.016.041-.292-.013-.375-.083-.125-.297-.257-.47-.29l-.092-.017-.016.137c-.024.199-.02.328.009.328.014 0 .072.042.128.093.154.14.287.176.455.124zm-2.47-.727c.406-.012.743-.026.75-.033.006-.007.019-.19.028-.408l.016-.395.27-.178c.648-.428 1.13-.847 1.49-1.295.42-.526.467-.552.924-.522.216.014.277.01.295-.017.013-.02.023-1.438.023-3.185 0-2.077.009-3.18.027-3.24.014-.049.042-.089.061-.089.02 0 .071.052.115.115a1.1 1.1 0 0 0 .242.224c.13.088.183.11.275.11.14 0 .155-.03.117-.237-.034-.182-.127-.317-.258-.371-.093-.039-.4-.035-.535.007-.055.017-.057.011-.057-.125 0-.17.022-.183.266-.157.192.02.283-.013.462-.17.135-.12.152-.164.13-.331-.016-.116-.024-.127-.099-.141-.121-.023-.196.017-.43.23a1.937 1.937 0 0 1-.232.193c-.045 0-.098-.164-.122-.375a4.051 4.051 0 0 1 0-.636c.028-.48.032-2.932.008-4.426-.016-1.025-.018-1.041-.07-1.06a2.126 2.126 0 0 0-.35-.013c-.4.006-.445-.017-.772-.407a5.922 5.922 0 0 0-1.541-1.33 7.663 7.663 0 0 1-.307-.184c-.042-.03-.05-.084-.066-.411-.01-.207-.026-.385-.037-.396-.01-.01-.94-.02-2.065-.02-1.643 0-2.052.008-2.078.034-.024.023-.036.143-.042.397l-.01.364-.322.217c-.78.526-1.073.785-1.55 1.373l-.271.335-.175.017a5.842 5.842 0 0 1-.433.016c-.224 0-.263.006-.277.045-.056.145-.067 1.073-.038 3.26.03 2.298.017 3.127-.051 3.246-.021.038-.051.016-.212-.152-.21-.22-.304-.278-.454-.278-.096 0-.104.006-.129.096-.061.222-.031.301.186.491.164.143.18.147.44.091.099-.02.189-.038.2-.038.016 0 0 .225-.018.248a1.409 1.409 0 0 1-.156-.031c-.249-.059-.454.008-.576.186-.05.072-.066.132-.073.28l-.01.188h.12c.175 0 .286-.058.49-.257.102-.098.203-.178.224-.178.036 0 .04.34.048 3.22.005 1.771.018 3.24.03 3.263.033.07.088.08.439.085.457.006.49.024.818.436.382.48.832.866 1.415 1.211.477.283.435.22.448.67.006.211.018.391.027.4.05.05 2.183.074 3.433.038zm-2.953-.353c-.197-.03-.256-.11-.256-.343 0-.179-.047-.37-.104-.421-.059-.054-.064-.088-.012-.088.03 0 .242.087.294.12.006.005-.015.035-.045.067a.22.22 0 0 0-.056.16c0 .124.047.3.086.325.016.01.727.019 1.579.02.883 0 1.565.01 1.586.023.065.041-.017.1-.16.114-.16.016-2.821.038-2.912.023zm-3.009-2.694c-.123-.03-.188-.075-.236-.163-.043-.078-.046-.337-.051-4.475-.005-3.68-.013-4.556-.05-5.403-.055-1.246-.062-2.806-.014-2.964.03-.102.041-.11.178-.15.142-.042.487-.04.636.003.042.013.065-.008.12-.108.104-.193.214-.332.273-.348.06-.015.058-.013-.053.152a1.39 1.39 0 0 0-.124.247c-.051.136-.058.142-.174.168a3.224 3.224 0 0 1-.376.04c-.154.009-.267.027-.287.047-.021.02-.043.185-.062.467-.04.58-.012 2.5.04 2.791.06.345.104 4.271.068 6.173-.029 1.545-.01 2.802.048 3.15.014.084.026.16.026.169 0 .009.14.024.313.034.173.01.319.023.325.03.027.026-.1.117-.193.139a1.044 1.044 0 0 1-.407 0zm8.553-.131c-.009-.015-.002-.045.016-.066.065-.08.174-.113.365-.113.175 0 .191-.005.206-.057.05-.175.068-1.553.043-3.297-.03-2.066-.079-6.84-.086-8.323l-.005-.96-.275-.016c-.252-.015-.353-.043-.353-.1 0-.053.229-.08.512-.06l.293.022.031.102c.022.074.031.48.033 1.46 0 .746.014 2.636.03 4.2.024 2.223.023 3.3-.002 4.942-.018 1.155-.042 2.124-.053 2.154-.048.126-.085.138-.422.138-.192 0-.323-.01-.333-.026zm-7.682-.197a.946.946 0 0 1-.134-.051c-.145-.067-.127-.125.181-.589.083-.124.366-.588.63-1.032.263-.443.875-1.458 1.359-2.253 1.088-1.792 1.17-1.929 1.245-2.088.07-.146.08-.337.025-.443a112 112 0 0 0-1.19-1.855l-.213-.327h-.366l-.158-.352c-.182-.407-.157-.394-.495-.258-.457.185-.512.2-.69.2-.219 0-.464-.073-.622-.185a.744.744 0 0 1-.284-.344c-.052-.113-.055-.153-.046-.482.012-.407.012-.88-.002-1.421-.009-.357-.006-.377.059-.515a.876.876 0 0 1 .415-.433c.414-.204.82-.143 1.326.199.25.168.4.242.764.376.497.183.736.324.907.535.212.262.267.51.168.773-.044.118-.099.194-.24.334a1.04 1.04 0 0 1-.424.284c-.239.1-.244.104-.24.185.007.153.063.232.294.416.125.1.227.186.227.192 0 .006-.028.066-.064.132-.114.215-.073.352.223.746.1.133.347.496.549.807.202.311.392.579.422.595.083.045.192-.006.276-.128.04-.058.266-.423.503-.81.405-.663.601-1.026.601-1.109a.445.445 0 0 0-.078-.144c-.046-.064-.072-.126-.064-.152a.953.953 0 0 1 .192-.19c.207-.169.257-.236.275-.371l.013-.098-.363-.178c-.524-.256-.626-.386-.61-.768a.91.91 0 0 1 .276-.637c.15-.158.323-.257.669-.382.336-.122.454-.186.782-.422.355-.255.473-.324.648-.375.47-.137 1.036.091 1.245.502.094.182.113.368.082.79-.025.339-.022.399.028.69.064.373.068.513.018.748-.069.324-.21.514-.482.648-.36.178-.583.176-1.087-.007a3.83 3.83 0 0 0-.358-.116l-.081-.015-.134.345c-.073.19-.147.356-.163.37a.693.693 0 0 1-.21.041l-.18.017-.083.168c-.046.092-.259.445-.474.784-.48.756-.693 1.12-.746 1.275-.037.11-.037.125.003.204.118.231.992 1.596 2.228 3.478.683 1.04.856 1.297 1.245 1.844a3.1 3.1 0 0 1 .352.598c.027.068.023.073-.107.133a.686.686 0 0 1-.226.063c-.091 0-.095-.004-.446-.531-.471-.71-.483-.724-.59-.724-.14 0-.397.11-.972.416-.488.259-.553.286-.698.296-.102.007-.16.001-.16-.016 0-.084.06-.16.17-.215.149-.074.177-.149.111-.296-.05-.113-.136-.185-.22-.185a.562.562 0 0 0-.167.05c-.13.06-.25.067-.315.018-.042-.03-.043-.041-.011-.106.025-.052.071-.085.163-.116.275-.093 1.344-.653 1.468-.77.074-.068.067-.097-.077-.35-.151-.265-1.891-2.917-1.985-3.025-.058-.067-.096-.087-.17-.09l-.096-.002-.616 1.05c-.34.577-.73 1.21-.867 1.408-.365.522-.504.82-.482 1.038l.008.087.73.325c.935.417.87.378.87.52 0 .134-.005.136-.202.077-.22-.065-.331-.06-.401.022-.076.088-.106.234-.06.29a.65.65 0 0 0 .152.1c.111.057.151.112.152.21 0 .054-.161.038-.363-.034-.103-.038-.42-.175-.705-.306a9.988 9.988 0 0 0-.656-.282c-.132-.042-.141-.042-.201.004-.08.06-.146.15-.3.408-.503.841-.495.833-.681.788zm.36-9.469c.049-.02.201-.144.338-.275.405-.386.6-.487 1.162-.598.5-.1.635-.185.654-.414.015-.171-.063-.298-.268-.435-.631-.424-1.774-.367-2.238.112-.242.25-.337.556-.324 1.045.01.356.054.476.202.555.107.058.347.063.474.01zm7.048-.116c.161-.098.24-.299.24-.603-.005-.679-.464-1.225-1.143-1.359a2.189 2.189 0 0 0-1.26.174c-.293.144-.493.392-.494.615 0 .093.003.096.21.199.117.057.316.128.443.157.613.141.804.23 1.163.539.133.114.3.235.372.268.164.077.353.08.469.01zm-5.474-5.083c-.037-.045-.066-.43-.042-.558a.337.337 0 0 1 .243-.248c.051-.013.733-.027 1.514-.031 1.307-.007 1.428-.004 1.504.037.103.055.135.162.135.445v.21l.09.055c.171.106.076.133-.143.041l-.092-.039-.016-.274a1.325 1.325 0 0 0-.036-.292c-.025-.023-2.867-.085-2.902-.063-.014.009-.025.037-.025.063 0 .027-.022.064-.048.082-.038.026-.055.093-.08.31a1.355 1.355 0 0 1-.052.288c-.01.006-.033-.005-.05-.027zM9.045 21.562c.22-.085.252-.106.323-.211.064-.097.076-.136.066-.227-.017-.158-.11-.28-.407-.531-.43-.362-.522-.385-1.13-.282-.236.04-.434.062-.48.052-.156-.035-.218-.27-.097-.371a.881.881 0 0 1 .233-.103c.192-.059.235-.104.262-.273.021-.131-.032-.196-.196-.24a.635.635 0 0 0-.645.225c-.064.09-.078.14-.098.365-.027.302 0 .437.153.726.138.265.62.731.867.84.1.045.558.114.796.121.07.002.196-.03.353-.091zm-.698-.317c-.152-.027-.609-.246-.683-.328-.049-.054-.049-.055.039-.054a.87.87 0 0 1 .215.041c.096.03.22.04.501.037.433-.005.463.007.399.16a.27.27 0 0 1-.088.117c-.078.042-.235.053-.383.027zM7.11 19.778c0-.12.257-.275.386-.234.1.032.028.203-.098.227-.235.045-.288.046-.288.008zm8.822 1.762c.238-.062.393-.16.644-.41.253-.25.46-.54.55-.774.072-.183.08-.507.017-.65a1.01 1.01 0 0 0-.36-.384c-.227-.116-.48-.079-.58.086-.108.175-.063.236.307.412.266.127.326.193.281.311-.056.146-.303.183-.705.105a2.724 2.724 0 0 0-.43-.04h-.224l-.161.148-.342.305c-.22.195-.274.295-.26.494.017.222.136.356.367.413.148.036.737.026.896-.016zm-.575-.378c-.066-.023-.094-.051-.112-.112-.045-.158-.032-.163.373-.16.312.003.388-.005.517-.05.15-.054.271-.07.271-.038 0 .058-.152.197-.288.264-.252.123-.566.163-.76.096zm1.273-1.47c-.17-.04-.172-.041-.172-.126 0-.07.011-.088.064-.102.154-.038.422.103.422.223 0 .06-.067.06-.314.004zm-10.058-.015c.141-.07.071-.284-.164-.498-.149-.136-.373-.223-.43-.166a.726.726 0 0 0-.062.201l-.037.175.071.052c.04.028.112.087.161.13.05.044.113.093.141.109a.449.449 0 0 0 .32-.003zm11.186-.12a1.76 1.76 0 0 0 .224-.188c.12-.115.14-.15.14-.229a.547.547 0 0 0-.026-.161c-.025-.065-.032-.068-.147-.05a1.05 1.05 0 0 0-.202.051.954.954 0 0 0-.36.339c-.055.094-.06.123-.037.174a.144.144 0 0 0 .086.074c.144.031.163.035.2.038a.297.297 0 0 0 .122-.049zm-12.062-.794c.304-.057.578-.266.73-.557.13-.25.158-.412.158-.929.001-.445 0-.449-.07-.57a2.33 2.33 0 0 0-.496-.533.783.783 0 0 0-.561-.128c-.26.058-.397.292-.416.706-.017.377.021.529.17.676.066.065.234.181.372.259.308.172.438.303.416.417-.033.163-.126.193-.402.132-.435-.095-.535-.076-.587.116-.05.19.075.35.323.407a.733.733 0 0 0 .363.004zm-.377-.2c-.212-.212.05-.278.34-.087.085.057.092.069.058.103a.407.407 0 0 1-.18.05c-.13.01-.146.006-.218-.066zm.84-1.197a.41.41 0 0 1-.132-.175c-.065-.142-.156-.226-.346-.322-.122-.061-.173-.145-.149-.243.013-.05.033-.066.087-.066.316 0 .562.284.611.705.009.077.012.14.007.14a.629.629 0 0 1-.078-.04zm12.594 1.296c.136-.062.189-.14.189-.28 0-.092-.015-.126-.087-.198-.107-.107-.18-.111-.395-.023-.19.077-.282.08-.414.013-.127-.065-.138-.085-.104-.189.04-.12.133-.199.398-.333.127-.065.254-.138.282-.163a.883.883 0 0 0 .215-.314c.1-.3.083-.798-.036-.977-.182-.276-.669-.285-.972-.018a.836.836 0 0 0-.16.185 1.11 1.11 0 0 1-.178.212l-.137.132v.447c0 .36.01.484.05.644.146.569.544.909 1.064.91a.689.689 0 0 0 .285-.048zm-.528-.132c0-.065.06-.128.17-.176.253-.112.416-.022.253.14-.054.056-.086.064-.243.064-.11 0-.18-.011-.18-.028zm-.528-1.189c-.086-.343.372-.935.644-.832.167.064.115.19-.15.357-.128.082-.178.136-.285.31a1.063 1.063 0 0 1-.16.222c-.018.006-.04-.02-.049-.057zM6.11 15.791c.166-.04.247-.11.34-.3.08-.162.084-.184.084-.466 0-.163-.009-.34-.02-.394-.03-.14-.183-.28-.518-.475-.457-.267-.538-.383-.368-.526.096-.08.18-.084.427-.015.297.082.418.069.48-.053.09-.171.024-.334-.175-.44-.086-.046-.15-.057-.324-.057-.191 0-.239.01-.386.079-.458.217-.693.713-.696 1.47-.001.317.034.468.133.56.04.037.103.12.142.182.15.247.313.367.576.426.178.04.17.04.305.008zm-.28-.535c-.326-.1-.608-.528-.513-.78.038-.098.078-.076.169.093.096.18.172.262.32.346.163.094.198.129.232.23.023.072.022.094-.005.112-.042.026-.114.026-.202-.001zm.215-1.818c-.104-.048-.189-.137-.189-.2 0-.079.39-.017.435.07.087.162-.034.226-.246.13zm12.157 2.289a.959.959 0 0 0 .46-.376 1.76 1.76 0 0 1 .192-.24c.073-.07.086-.103.103-.256.046-.433-.045-.99-.214-1.302a1.31 1.31 0 0 0-.442-.451c-.169-.088-.475-.1-.669-.026-.08.03-.175.079-.213.108-.065.051-.067.06-.05.223.01.093.031.178.047.188.055.037.338.019.5-.032.183-.058.298-.049.4.031.15.118.04.269-.39.537a3.218 3.218 0 0 0-.366.256c-.116.116-.167.302-.164.598.003.274.057.473.17.616.118.151.4.207.636.126zm-.264-.503c-.15-.054-.072-.196.198-.364a.76.76 0 0 0 .236-.246c.163-.252.204-.299.235-.268.02.018.02.075.001.186-.05.313-.218.582-.42.674-.116.053-.15.055-.25.018zm-.318-1.828c-.02-.053.034-.153.103-.187.101-.052.375-.048.375.005 0 .047-.127.162-.213.195-.109.041-.247.034-.265-.013zm-11.943-.652c.06-.06.068-.201.015-.302a1.202 1.202 0 0 0-.207-.216c-.136-.118-.188-.148-.26-.148-.12 0-.255.06-.27.122-.038.141.137.382.376.52.151.088.274.097.346.024zm12.948-.063c.24-.1.4-.35.356-.554-.016-.07-.024-.074-.144-.074a.511.511 0 0 0-.184.03 1.849 1.849 0 0 0-.369.338c-.033.058-.044.252-.016.28.032.032.265.018.357-.02zm-12.678-.45c.081-.05.14-.16.14-.26 0-.028-.034-.084-.075-.125-.087-.087-.179-.096-.382-.036-.117.035-.132.048-.132.11 0 .11.045.238.106.303.072.077.226.08.343.008zm-.23-.158c-.053-.076-.051-.084.028-.12.056-.025.075-.024.107.007.033.034.033.046-.005.104-.053.08-.079.082-.13.009zm12.562.107c.12-.062.138-.095.114-.22-.025-.135-.116-.215-.245-.215-.201 0-.27.092-.24.324.017.144.011.14.223.159a.404.404 0 0 0 .148-.048zm-.156-.125c-.094-.025-.1-.119-.009-.142.076-.019.145.04.131.112-.009.045-.04.053-.122.03zM5.498 11.82l.181-.156-.007-.183-.007-.184-.081-.008c-.203-.02-.442.117-.591.338a.485.485 0 0 0-.083.183c0 .097.113.166.271.166.13 0 .146-.007.318-.156zm13.413.063c.048-.013.057-.033.057-.129 0-.146-.047-.234-.194-.364-.138-.121-.372-.21-.44-.166-.054.034-.094.193-.071.281.027.108.294.337.43.37.11.025.148.027.218.008zm-12.987-.984c.201-.098.425-.365.53-.635.116-.295.177-.892.12-1.166-.025-.121-.056-.178-.163-.299a19.657 19.657 0 0 1-.246-.282.738.738 0 0 0-.727-.255c-.183.038-.299.116-.362.244-.043.089-.05.15-.045.468.003.202.017.415.033.474.04.149.216.312.485.45.386.2.455.276.407.45-.042.15-.219.186-.458.091a.52.52 0 0 0-.387-.021c-.108.032-.114.044-.139.254l-.017.142.227.068c.124.037.25.073.277.08a.997.997 0 0 0 .465-.063zm-.6-.101c-.068-.029-.121-.133-.098-.193.013-.034.037-.039.125-.025.122.02.383.164.37.204-.012.034-.32.045-.396.014zm.835-1.145a2.168 2.168 0 0 1-.13-.2.902.902 0 0 0-.357-.36c-.235-.144-.237-.401-.003-.354.183.036.48.36.545.595.031.112.034.286.005.331-.016.026-.03.023-.06-.012zm12.54 1.27c.1-.03.213-.135.234-.217.02-.08-.003-.234-.043-.281-.054-.066-.193-.07-.46-.011-.159.034-.292.05-.346.04a.195.195 0 0 1-.166-.191c0-.087.177-.248.41-.374.26-.14.424-.275.493-.404.052-.098.058-.142.057-.48 0-.235-.013-.406-.033-.465a.532.532 0 0 0-.54-.317c-.294.05-.57.208-.656.373-.02.04-.083.126-.14.19-.156.181-.19.33-.172.769.02.538.115.825.354 1.077.264.28.665.395 1.009.292zm-.436-.136c-.049-.035-.049-.036 0-.092.081-.088.18-.128.323-.128h.132l-.016.083c-.021.105-.039.121-.16.15-.142.032-.223.029-.28-.013zM17.7 9.485c.072-.464.286-.734.583-.735h.122v.095c-.001.124-.011.137-.178.226-.144.078-.36.318-.36.4 0 .047-.092.123-.149.123-.026 0-.03-.025-.018-.109zM6.243 7.965a.511.511 0 0 0 .151-.165c.062-.11.064-.131.064-.562 0-.428-.003-.452-.06-.532-.07-.1-.272-.24-.56-.388-.228-.118-.315-.216-.315-.354 0-.15.264-.207.512-.109a.777.777 0 0 0 .232.052c.085 0 .118-.017.204-.106.116-.12.123-.155.052-.271-.125-.205-.556-.3-.853-.187-.61.23-1.006 1.338-.696 1.95a.564.564 0 0 0 .087.137c.014.009.09.1.167.202.147.196.277.304.441.365.14.051.461.034.574-.032zm-.53-.47c-.195-.079-.471-.528-.471-.768 0-.186.097-.163.204.05.104.206.187.295.36.387.11.058.157.1.177.158.042.121.034.142-.07.171-.11.031-.128.031-.2.002zm.219-1.877a.567.567 0 0 1-.173-.114c-.021-.073.288-.09.392-.022.09.06.138.164.088.195-.065.041-.14.027-.307-.059zM18.315 7.91c.14-.075.19-.121.319-.3a3 3 0 0 1 .196-.243c.074-.078.09-.118.115-.295.075-.53-.077-1.168-.35-1.47-.324-.36-.904-.445-1.182-.175-.1.097-.108.187-.028.33.052.093.064.1.173.1.064 0 .207-.018.318-.04.36-.068.503-.036.503.116 0 .112-.103.212-.428.416a4.052 4.052 0 0 0-.413.29l-.116.106-.02.356c-.026.493-.003.615.14.749.105.098.24.134.466.124a.675.675 0 0 0 .307-.064zm-.448-.478c0-.021.018-.083.04-.138.032-.08.07-.117.191-.181.17-.09.295-.226.337-.365.033-.11.095-.146.142-.082.075.103.02.29-.169.568-.12.177-.223.236-.41.236-.099 0-.13-.01-.13-.038zm-.236-1.8c-.054-.06-.017-.152.074-.187.092-.035.296-.02.31.022.006.018-.032.073-.083.121-.107.101-.235.12-.301.044zm-11.403-.7a.955.955 0 0 0 .335-.31.446.446 0 0 0 .036-.173v-.104H6.42c-.225 0-.263.016-.446.187l-.151.14.012.147c.007.085.027.156.048.17.05.033.221.005.344-.058zm10.601-.29a.727.727 0 0 0 .296-.398c.037-.135.03-.405-.014-.578-.06-.232-.177-.405-.486-.718-.336-.342-.472-.428-.704-.449a3.793 3.793 0 0 1-.377-.06c-.246-.052-.389-.033-.636.086-.287.137-.38.32-.272.532.057.112.597.632.73.705.112.06.4.058.747-.005.473-.087.608-.063.642.116.025.134-.032.198-.263.293-.32.131-.315.127-.315.333v.178l.083.026c.046.014.166.022.266.017a.55.55 0 0 0 .303-.078zm-.38-.132c-.038-.097.085-.208.275-.247.175-.037.21-.015.153.1-.069.143-.388.252-.428.147zm-.32-1.356c-.061-.027-.186-.038-.435-.038-.477 0-.576-.056-.417-.235.072-.08.086-.085.238-.083.095.001.234.026.334.06.171.056.438.211.504.292.031.039.026.043-.051.042a.535.535 0 0 1-.173-.039zM5.807 4.303c.028-.034.028-.052-.004-.108-.05-.088-.101-.087-.15.004-.037.066-.036.074.01.108.064.048.102.047.144-.004zm11.914-.174c.045-.02.148-.098.23-.174.123-.117.147-.153.146-.227a.387.387 0 0 0-.05-.17l-.049-.08-.158.047a1.114 1.114 0 0 0-.257.117c-.09.063-.249.269-.286.373-.043.119.24.195.424.114zm-2.253-1.884c.204-.093.324-.194.416-.35.066-.115.067-.121.027-.205-.037-.078-.05-.086-.15-.085-.15 0-.292.071-.45.224-.141.138-.193.233-.167.306a.733.733 0 0 0 .15.186c.003 0 .081-.034.174-.076zM9.332 2.19a.689.689 0 0 0 .367-.384c.034-.103.033-.108-.036-.167-.044-.038-.092-.056-.127-.05-.03.007-.099.019-.151.027-.105.017-.416.262-.444.349a.64.64 0 0 0 .002.192l.018.142.106-.016c.058-.01.177-.05.265-.093zm5.6.022a.914.914 0 0 0 .015-.17c0-.1-.012-.126-.11-.22-.137-.13-.264-.192-.397-.192-.168 0-.235.037-.235.128 0 .227.335.51.605.511.089 0 .109-.009.121-.057zm-3.998-.108c.217-.057.482-.2.628-.339l.13-.123.012-.288c.013-.273.01-.288-.037-.288-.037 0-.072.048-.135.188-.068.149-.102.194-.166.22-.138.058-.407-.017-.522-.144a.87.87 0 0 1-.096-.25 2.09 2.09 0 0 0-.06-.21.76.76 0 0 0-.173.042.808.808 0 0 0-.49.383c-.146.287-.052.555.257.738.193.113.402.136.652.07zm-.442-.396c-.158-.055-.257-.15-.257-.25 0-.09.068-.134.208-.135h.118l.08.19c.045.106.081.204.081.219 0 .038-.071.03-.23-.024zm3.05.356c.344-.172.468-.481.315-.787a.699.699 0 0 0-.595-.384L13.098.88l.009.212.009.213-.18.098c-.308.168-.483.116-.598-.178-.035-.088-.076-.156-.091-.152-.015.005-.05.053-.076.106-.047.096-.047.1.006.306.047.177.07.223.157.301.124.114.408.265.592.317.188.053.468.035.615-.039zm-.374-.351c.01-.025.027-.08.038-.122.034-.137.085-.22.158-.258.094-.049.13-.046.21.017.148.116.045.29-.22.369-.174.051-.21.05-.186-.006zm-4.301-.12c.052-.08.03-.117-.067-.117-.082 0-.088.014-.05.114.03.082.064.083.117.003zm5.71-.165a1.15 1.15 0 0 0 .236-.174c.115-.108.135-.14.135-.22a.518.518 0 0 0-.044-.186c-.042-.087-.05-.092-.135-.077a.42.42 0 0 0-.154.066 4.35 4.35 0 0 1-.2.14.453.453 0 0 0-.188.206c-.072.164-.057.22.068.258.139.042.163.04.281-.013zm1.273-.013a.424.424 0 0 0 .02-.148c0-.117-.005-.123-.215-.314-.2-.182-.221-.194-.331-.194-.065 0-.125.012-.134.026a.683.683 0 0 0-.02.179l-.004.152.153.157c.085.086.177.166.205.178.065.028.301.001.326-.036zM5.733 19.806c.009-.063.087-.091.131-.047.02.02.014.038-.022.065-.074.056-.119.049-.11-.018zM7.179 4.501c-.085-.056-.17-.175-.17-.238 0-.04.014-.04.183.008.1.028.203.061.229.075.06.032.086.12.048.166-.044.053-.203.046-.29-.011zm10.961-.218c-.047-.072-.033-.092.06-.092.038 0 .076.007.084.015.018.018-.055.138-.084.138-.01 0-.038-.027-.06-.06zm.855-.014c-.044-.082-.03-.104.063-.104.05 0 .09.012.09.027 0 .052-.054.127-.09.127-.02 0-.049-.023-.063-.05zM4.78 3.62v-.215l.244-.017a1.29 1.29 0 0 1 .27-.002c.013.008.024.042.024.075 0 .047-.018.065-.077.078a.614.614 0 0 0-.198.126c-.113.1-.213.168-.249.168a.805.805 0 0 1-.014-.214zm.833-.089c-.03-.03-.012-.129.027-.143.05-.02.176-.02.195-.001.008.008.01.035.002.061-.012.046-.193.114-.224.084zm2.016-.37c.018-.057.254-.219.401-.276.383-.15.694-.063.694.193v.062l-.365-.015c-.288-.012-.402-.006-.54.027-.209.05-.204.049-.19.009zM7.907.899a.697.697 0 0 1 .035-.186c.032-.031.393-.02.427.013.024.024.012.048-.055.11-.079.074-.353.23-.403.23-.012 0-.014-.075-.004-.167zM5.01 23.645c0-.154-.232-.349-.416-.35h-.096v.154c0 .222.041.256.307.256.198 0 .205-.002.205-.06zm.768.013a.804.804 0 0 0-.168-.409c-.143-.167-.165-.172-.305-.066-.136.105-.137.124-.024.36.07.147.084.153.337.159.14.003.16-.003.16-.044zm1.405-.151a.742.742 0 0 0-.073-.327c-.06-.12-.07-.128-.153-.121-.126.01-.567.149-.76.24l-.162.077v.15c0 .121.009.152.044.161.025.006.286.013.58.015l.533.003zm10.82.179c.006-.01.02-.095.03-.188l.017-.168-.404-.135a3.159 3.159 0 0 0-.519-.14l-.116-.003-.047.153a1.884 1.884 0 0 0-.063.314l-.015.16.535.006c.294.004.543.01.552.013.01.003.023-.003.03-.013zm1.528-.045a.473.473 0 0 0 .004-.151c-.01-.14-.01-.144-.085-.144-.112 0-.355.163-.355.24 0 .032.01.068.02.079.016.017.382-.004.416-.024zm-.786-.077a.407.407 0 0 1 .06-.119c.024-.026.035-.083.03-.153-.007-.093-.022-.12-.096-.17-.049-.032-.1-.054-.115-.05-.051.018-.24.365-.256.474l-.016.11.184-.008c.18-.007.185-.009.209-.084zM5.15 23.081c.05-.047.092-.105.092-.128 0-.059-.19-.19-.342-.234a1.072 1.072 0 0 0-.253-.038h-.125l.008.157.008.157.218.084c.12.047.237.086.26.086.024.001.085-.037.135-.084zm1.35-.107c.202-.08.378-.155.39-.166.027-.025-.084-.274-.178-.397a.827.827 0 0 0-.143-.143c-.071-.051-.077-.051-.144-.008a8.12 8.12 0 0 0-.655.544l-.074.079.085.132.085.133.132-.014c.073-.008.299-.08.502-.16zm11.8.048a.754.754 0 0 0 .08-.138c0-.033-.345-.343-.56-.504-.24-.177-.241-.177-.401-.018-.098.098-.218.314-.218.392 0 .055.185.142.64.302.33.116.361.113.46-.034zm1.03.052.227-.068v-.333l-.147.014c-.193.018-.57.17-.57.23 0 .064.15.225.212.225.029 0 .154-.031.279-.068zM5.614 22.64c.143-.097.6-.498.628-.551.045-.083.027-.117-.12-.225-.148-.11-.467-.229-.522-.195-.03.018-.434.823-.434.862 0 .041.215.174.282.174a.39.39 0 0 0 .166-.065zm13.151 0c.071-.035.128-.082.128-.104 0-.113-.26-.642-.407-.828-.047-.06-.054-.061-.16-.03-.137.039-.51.258-.51.298 0 .125.653.729.787.729a.67.67 0 0 0 .162-.064zm-13.723-.313c.09-.207.246-.655.256-.736.008-.069-.001-.08-.088-.108a1.517 1.517 0 0 0-.54-.068l-.119.017v.47c0 .531-.03.464.23.518.198.04.203.038.26-.093zm14.33.08.135-.016v-.998l-.237.011a.983.983 0 0 0-.371.07c-.074.033-.135.068-.135.078 0 .034.058.19.18.487.067.162.128.315.136.34.017.049.074.054.293.028zm.069-19.821c.035-.013.04-.08.04-.486 0-.54.024-.494-.266-.505l-.151-.005-.165.42c-.185.473-.186.454.033.54.125.049.422.07.509.036zM5.198 2.468l.148-.068-.035-.085c-.02-.046-.097-.242-.174-.436l-.139-.352h-.145c-.182 0-.267.031-.293.107-.023.067-.019.737.006.85l.015.073.235-.01a.871.871 0 0 0 .382-.08zm13.329-.307c.114-.201.3-.587.326-.678.017-.06-.005-.074-.248-.162l-.095-.034-.299.28c-.164.154-.335.31-.38.348l-.08.069.09.093c.104.108.41.27.512.27.058 0 .084-.028.174-.186zm-12.523.016c.06-.035.15-.1.199-.142l.088-.078-.044-.076c-.047-.079-.54-.528-.639-.58-.128-.069-.418.007-.418.11 0 .108.285.665.427.833.062.073.063.074.169.036.059-.02.157-.067.218-.102zm11.627-.445c.046-.029.215-.161.375-.295.229-.193.294-.262.307-.327.015-.072.006-.092-.067-.154a.477.477 0 0 0-.144-.086c-.1-.026-.94.313-.97.39-.012.035.36.523.398.523a.474.474 0 0 0 .101-.051zm-10.976-.1c.104-.093.277-.364.277-.437 0-.063-.69-.329-.96-.37-.099-.014-.106-.01-.186.1a.58.58 0 0 0-.083.137c0 .063.732.67.81.67a.53.53 0 0 0 .142-.1zm12.851-.465c0-.154 0-.155-.092-.193a2.453 2.453 0 0 0-.253-.081c-.191-.05-.27-.028-.333.094-.038.075-.037.08.031.157.09.1.305.176.5.177l.147.001zm-14.572.05a.974.974 0 0 0 .192-.082c.116-.067.13-.144.047-.262-.043-.06-.058-.064-.18-.051-.074.008-.19.026-.26.04-.147.032-.183.088-.183.285v.13l.147-.018a2.22 2.22 0 0 0 .237-.041zm12.36-.316c.13-.035.336-.101.46-.148.194-.072.228-.094.244-.155.021-.082-.012-.223-.06-.253-.018-.012-.266-.021-.551-.021h-.519v.143c0 .079.02.223.043.32.05.208.041.205.384.114zm1.44-.076c.101-.09.113-.157.052-.298a.609.609 0 0 0-.084-.15.797.797 0 0 0-.228-.043l-.199-.018.016.113c.024.174.138.38.24.435.092.05.108.046.203-.039zM7.124.757c.024-.071.045-.206.047-.3l.004-.172H6.05l-.014.149c-.008.087-.002.158.013.17.041.035.413.177.599.23.093.027.23.05.302.05l.133.003zM5.561.781c.083-.099.18-.289.204-.396l.017-.08L5.583.29c-.232-.02-.228-.023-.328.22-.08.191-.074.213.076.305.108.066.152.06.23-.033zM19.506.51V.317l-.119.017c-.065.009-.17.016-.233.016h-.115l.018.096c.01.053.03.111.046.13.052.062.21.13.307.131l.096.001zM4.704.657C4.84.618 5.01.45 5.01.352v-.08h-.486v.205c0 .227.002.23.179.18z"/></svg>