<svg role="img" viewBox="0 0 24 24" xmlns="http://www.w3.org/2000/svg"><path d="m11.746 23.807-.592-.62c-2.066-2.17-2.304-2.412-2.456-2.516-.206-.14-.063-.132-2.557-.145l-2.276-.012-.016-.066c-.06-.245-.1-1.911-.07-2.827.02-.59.006-1.583-.027-1.913-.015-.147-.025-.171-.096-.245a15.533 15.533 0 0 1-.3-.33c-.435-.492-.853-.926-1.89-1.961L.414 12.12l.066-.071.854-.918c.434-.466.961-1.024 1.172-1.24.407-.419 1.083-1.169 1.183-1.314.053-.076.065-.127.095-.39.028-.252.032-.621.028-2.292A88.29 88.29 0 0 1 3.82 3.77l.013-.135 2.306-.008 2.305-.008.151-.102c.237-.158.379-.3 1.612-1.603C11.992.027 12.018 0 12.036 0c.01 0 .132.136.271.303.34.404.906 1.012 1.83 1.963.158.163.337.35.396.415.239.261.881.847.978.891.097.045.13.046 2.409.057l2.31.012.01 2.467c.007 1.358.016 2.473.023 2.48l2.122 2.148c.569.574 1.072 1.085 1.118 1.135l.084.09-.108.13c-.201.242-.406.458-1.269 1.34-1.01 1.031-1.299 1.334-1.514 1.589-.189.223-.36.436-.409.51-.032.049-.037.29-.047 2.502-.009 1.968-.016 2.452-.04 2.475-.022.024-.446.028-2.232.022-1.407-.005-2.258 0-2.353.014-.284.043-.35.09-.861.604-.256.257-.578.59-.717.741a79.087 79.087 0 0 1-1.983 2.005l-.123.107zm.415-1.407c.181-.154 2.052-2.09 2.052-2.122 0-.016-.077-.066-.17-.112-.31-.151-.853-.572-1.168-.906-.38-.404-.96-1.321-1.093-1.73a.679.679 0 0 0-.056-.137c-.01-.01-.072.097-.14.238a7.55 7.55 0 0 1-.795 1.31 9.285 9.285 0 0 1-.983 1.01c-.094.077-.17.146-.17.153 0 .014.36.42.798.904.357.395 1.356 1.395 1.447 1.451.107.065.141.058.278-.059zm6.386-2.898h.693l.005-2.005c.006-2.217.005-2.229-.132-2.558-.207-.498-.832-1.165-1.49-1.592-.46-.298-1.174-.592-1.585-.652a4.959 4.959 0 0 0-.484-.03l-.319-.004-.006 1.045c-.003.574 0 1.075.006 1.113.012.065.025.074.216.14.286.098.703.31.884.447.281.215.514.588.615.987.075.294.1.566.1 1.062 0 .514.017.487-.307.482-.813-.012-1.355-.401-2.293-1.647a5.262 5.262 0 0 0-.286-.358c-.106-.097-.315-.12-.95-.107-.361.008-.58.022-.595.037-.041.042-.028.729.018.945.12.561.301.956.649 1.418.336.446.607.686.982.87.675.333 1.534.454 2.98.421.333-.008.917-.014 1.298-.014zm-10-.029c.124-.022.191-.052.363-.162.63-.404 1.14-.915 1.435-1.44a3.91 3.91 0 0 0 .327-.772c.07-.271.094-.743.074-1.447-.01-.35-.018-1.922-.019-3.49 0-1.57-.006-2.858-.012-2.863a13.913 13.913 0 0 0-.748-.018l-.737-.008-.014.418c-.007.23-.015 1.58-.016 3.002-.003 2.827 0 2.756-.134 3.207a3.16 3.16 0 0 1-.628 1.19c-.375.448-.9.77-1.4.859a.58.58 0 0 1-.166.01c-.053-.013-.24-.223-.336-.373-.183-.288-.248-.785-.156-1.184.03-.128.09-.294.154-.425.22-.45.463-.706 1.163-1.232.305-.228.521-.406.533-.437.011-.03.037-.169.057-.31.033-.226.034-.298.01-.58-.045-.534-.097-.866-.137-.874-.096-.018-.838.265-1.185.452-.286.154-.994.59-1.148.705a2.457 2.457 0 0 0-.91 1.354c-.122.459-.125.53-.136 2.566l-.009 1.881h1.811c1.34-.001 1.851-.009 1.964-.029zm5.479-4.797.198-.014-.002-.143v-1.617c.001-1.723-.002-2.595-.013-3.31-.012-.814.04-1.274.192-1.735.155-.467.415-.875.77-1.212.402-.38.732-.56 1.282-.698l.16-.04.042.054c.076.102.215.385.281.573.278.795.03 1.612-.68 2.242-.282.25-.859.656-1.084.764l-.08.037v1.801l.578-.011c.328-.007.625-.024.688-.04.073-.017.314-.15.726-.4.898-.545.979-.602 1.305-.924.53-.522.756-1.122.852-2.266.008-.095.007-.84-.002-1.656l-.016-1.483h-1.807c-2.122.003-2.673.018-2.853.082-.38.136-.831.481-1.1.841-.2.268-.629 1.002-.729 1.247l-.07.172-.016.847c-.008.466-.016 2.21-.017 3.877l-.002 3.03.6-.001c.33-.001.688-.01.797-.017zm-9.87-.506a3.77 3.77 0 0 1 .252-.383c.454-.605.996-1.062 1.815-1.528a11.6 11.6 0 0 0 .43-.254l.062-.043-.282-.147a6.617 6.617 0 0 1-2.197-1.817 84.48 84.48 0 0 0-.197-.248c-.02-.023-.12.068-.433.399a158.4 158.4 0 0 1-.89.927c-.293.303-.575.604-.628.67l-.18.224-.086.106.072.083c.078.092.914.96 1.641 1.706.257.263.48.478.496.477.016 0 .072-.077.124-.172zm16.216-.226c.175-.186.653-.675 1.062-1.088.408-.412.742-.756.742-.765 0-.008-.137-.186-.304-.394-.214-.266-.54-.62-1.097-1.19-.436-.447-.809-.82-.828-.831-.028-.016-.046.002-.089.085-.134.265-.526.724-.904 1.06-.498.444-.696.585-1.27.907-.197.11-.39.223-.43.25l-.072.049.138.05c.336.12.934.476 1.326.789.39.312.835.785 1.208 1.284.102.136.134.166.163.15.02-.01.18-.17.355-.356zM8.18 10.15l-.006-1.092-.176-.06c-.482-.164-.894-.398-1.114-.63-.292-.31-.531-.958-.58-1.57-.026-.333.056-.592.247-.776l.086-.083.153.021c.522.074 1.11.43 1.576.954.19.214.504.606.737.922.087.117.179.224.205.238.035.019.234.021.748.01l.7-.017.015-.142c.008-.078.016-.312.017-.52.002-.35-.002-.389-.055-.546-.11-.33-.522-1.017-.828-1.384-.346-.414-.77-.69-1.192-.776-.368-.075-.79-.09-2.376-.09H4.786v4.289l.079.165c.112.235.334.517.703.896.46.472.722.666 1.242.92.469.229.905.357 1.227.36l.148.002zm3.622-3.695c.25-.7.844-1.57 1.454-2.124a9.65 9.65 0 0 1 .757-.622l.119-.08-.54-.545a41.162 41.162 0 0 1-1.285-1.334 2.627 2.627 0 0 0-.242-.248c-.057-.019-1.193 1.11-1.946 1.93-.214.234-.46.521-.46.537a.55.55 0 0 0 .105.069c.198.114.39.27.625.508.28.283.432.467.583.702.132.206.545.954.631 1.142.06.13.117.231.133.231.004 0 .034-.075.066-.166z"/></svg>