<svg role="img" viewBox="0 0 24 24" xmlns="http://www.w3.org/2000/svg"><path d="M11.192 23.667c-1.294-.082-2.474-.372-3.11-.764-.217-.133-.48-.369-.457-.408a.357.357 0 0 1 .14-.053c.177-.04.342-.005 1 .21.646.211.966.298 1.386.379 1.23.235 2.65.23 3.841-.013.394-.08.648-.153 1.306-.37.708-.236.864-.264 1.03-.187l.093.043-.126.133c-.521.551-1.785.928-3.46 1.033a16.68 16.68 0 0 1-1.643-.003zm.579-1.248c-1.173-.06-2.385-.352-3.64-.876-.212-.089-.3-.115-.346-.103a5.279 5.279 0 0 0-.388.152c-.393.166-.692.273-.76.273-.096 0-.815-.682-.934-.885l-.051-.087h.193c.272 0 .629-.04.84-.094.222-.056.411-.145.825-.388l.321-.187.13.1c.54.415 1.348.788 2.132.985 1.364.344 2.83.326 4.117-.049.67-.194 1.307-.524 1.735-.896l.17-.15.142.073c.078.04.277.151.442.247.173.101.378.2.483.233.175.055.52.105.982.143l.214.018-.471.47-.471.47-.21-.036a3.685 3.685 0 0 1-.396-.095.682.682 0 0 1-.324-.185c-.093-.087-.156-.127-.197-.127-.082 0-.335.09-1.021.365-.318.127-.677.263-.798.301a7.807 7.807 0 0 1-2.72.328zm-.162-1.981c-1.28-.104-2.349-.544-3.29-1.356-.129-.111-.25-.202-.267-.202-.018 0-.235.1-.483.222-.532.263-.819.364-1.173.413-1.264.174-2.469-.318-3.022-1.235a2.676 2.676 0 0 1-.304-.777c-.051-.244-.076-.798-.035-.798.016 0 .129.106.252.237.528.562.75.736 1.177.92.325.139.55.188.924.202.703.025 1.351-.18 2.183-.688.172-.105.352-.213.4-.24l.089-.05.094.105c.051.057.212.261.357.454.291.389.44.536.714.715 1.162.754 2.72.97 4.22.587a4.677 4.677 0 0 0 1.426-.64c.39-.272.783-.731.928-1.088a.425.425 0 0 1 .076-.14c.03-.01.225.101.639.363.425.269.74.422 1.03.5.692.185 1.633.11 2.207-.175.278-.138.455-.276.85-.663.198-.194.368-.353.376-.353.028 0 .015.358-.021.578-.143.88-.643 1.553-1.426 1.92a3.25 3.25 0 0 1-1.247.317c-.594.03-1.055-.092-1.894-.5l-.379-.185-.068.04a3.988 3.988 0 0 0-.257.185c-.79.607-.989.73-1.496.931-.776.308-1.787.465-2.58.401zm-5.6-3.667c-.415-.04-.955-.204-1.435-.438-.79-.385-2.385-1.655-3.612-2.878-.499-.498-.733-.758-.88-.979L0 12.352l.217-.225c.119-.123.457-.495.75-.825.34-.383.687-.744.953-.992.442-.412.692-.685.799-.871.039-.068.083-.2.108-.329.1-.492.115-1.144.084-3.374-.02-1.402-.02-1.47.02-1.504.037-.03.22-.034 1.329-.034.707 0 1.796.005 2.42.011l1.134.012.15-.071c.083-.04.213-.124.29-.188.129-.107 2.81-2.79 3.383-3.385l.257-.266.078.038c.224.106.903.753 1.952 1.859 1.49 1.57 1.901 1.934 2.269 2.014.357.077 1.084.09 2.797.052.891-.02 1.716-.03 1.834-.025l.214.011v1.394c0 .767.007 1.879.015 2.472l.016 1.077.185.205c.18.2.356.387 1.967 2.096.428.455.779.84.779.858 0 .017-.05.103-.113.191-.536.76-2.66 2.645-3.902 3.464a4.325 4.325 0 0 1-1.547.647c-.217.043-.334.052-.744.052-.794 0-1.204-.09-2.749-.615-1.037-.352-1.585-.514-1.99-.59l-.224-.042v-2.816c0-2.66.002-2.817.04-2.831.023-.01.187-.022.365-.03.782-.03 1.534.153 2.349.575 1.186.615 2.268 1.707 2.798 2.824.115.242.27.66.253.679a2.462 2.462 0 0 1-.322-.09 3.59 3.59 0 0 0-1.075-.188c-.493-.02-.45-.002-.553-.232-.301-.668-.974-1.345-1.699-1.71a3.188 3.188 0 0 0-.739-.263l-.121-.021v2.75l.202.094c.336.155 1.709.732 1.923.807.347.123.596.164 1.07.178.456.012.725-.008 1.115-.088 1.07-.218 2.118-.901 3.22-2.1.42-.46.407-.435.33-.568-.141-.24-.47-.621-1.313-1.52-.717-.766-.774-.833-.83-.985-.1-.267-.106-.358-.096-1.49.016-1.772.014-2.621-.006-2.716l-.019-.09-2.052.011c-1.684.01-2.07.006-2.158-.02-.254-.074-.468-.265-1.34-1.188-1.102-1.17-2.069-2.073-2.174-2.032-.01.004-.084.09-.164.192-.08.102-.765.802-1.523 1.557-1.247 1.24-1.39 1.375-1.501 1.417-.265.099-.656.11-2.356.067a19.634 19.634 0 0 0-1.5-.001 4.25 4.25 0 0 0-.498.04 15.95 15.95 0 0 0-.003.943c.029 2.488.018 2.883-.094 3.244-.072.234-.152.332-1.064 1.306-.68.727-.956 1.041-1.087 1.235l-.091.136.433.452c.888.924 1.337 1.302 1.95 1.64.734.406 1.63.61 2.401.544.716-.06 1.122-.184 2.655-.81l.51-.207.005-1.379.006-1.38-.098.001c-.178 0-.485.09-.747.218-.655.32-1.346 1.016-1.672 1.684l-.133.27-.289.001a3.815 3.815 0 0 0-1.108.154c-.22.057-.41.1-.421.097-.033-.011.112-.408.251-.689a7.01 7.01 0 0 1 .691-1.065 10.05 10.05 0 0 1 1.002-1.02c.727-.609 1.626-1.011 2.628-1.177.292-.048.8-.093 1.046-.093h.146l-.003 1.51a399.2 399.2 0 0 1-.018 2.827l-.014 1.318-.133.041a9.624 9.624 0 0 1-.51.122c-.97.211-.968.21-1.995.615-.978.385-1.396.505-1.932.553a2.6 2.6 0 0 1-.66-.002zm11.428-7.15c-.427-.27-.511-.32-.677-.394-.486-.22-1.154-.24-1.707-.053-.13.044-.275.08-.324.08-.049 0-.271-.062-.494-.138-.49-.168-.652-.195-1.06-.174l-.31.016.017-.055c.05-.163.238-.432.41-.587.48-.436 1.209-.708 2.08-.777a4.168 4.168 0 0 1 2.123.398l.257.12v.876c0 .482-.004.876-.008.876-.005 0-.142-.085-.306-.188zm-11.18-.704c.007-.506.02-.879.034-.891.012-.013.25-.1.53-.195.799-.27 1.294-.348 1.876-.291.993.096 1.766.436 2.18.96.117.147.257.38.257.426 0 .02-.08.023-.306.013-.403-.019-.601.011-1.013.155-.184.064-.394.133-.465.152-.13.035-.132.035-.29-.034-.266-.116-.5-.154-.934-.153-.346.001-.4.007-.585.064-.252.077-.469.185-.91.454a4.176 4.176 0 0 1-.364.209c-.013 0-.017-.335-.01-.87zm5.455-.856a4.335 4.335 0 0 0-.425-.414 6.185 6.185 0 0 1-.308-.27c-.15-.163-.205-.514-.185-1.155.02-.61.004-.577.498-1.06.436-.426.651-.606.727-.606.066 0 .873.803 1.002.996.343.516.316 1.264-.065 1.79-.151.208-.694.738-.851.83a.733.733 0 0 1-.187.087c-.02 0-.114-.09-.206-.198z"/></svg>