<svg role="img" viewBox="0 0 24 24" xmlns="http://www.w3.org/2000/svg"><path d="M11.063 22.7c-1.76-1.762-1.685-1.692-1.847-1.71-.324-.038-2.246-.058-4.294-.045l-2.232.014-.009-3.292-.009-3.292-.066-.1c-.037-.055-.638-.67-1.336-1.367L0 11.64l1.317-1.318 1.318-1.317.006-2.934.006-2.933 2.537-.002c1.8-.002 2.656-.012 2.946-.034l.409-.031.404-.387c.588-.563.81-.783 1.799-1.78l.89-.899 1.436 1.437c.79.79 1.483 1.48 1.54 1.531l.102.095.616.035c.477.027 1.226.034 3.332.03l2.717-.007V9.75l1.165 1.163c.641.64 1.232 1.237 1.313 1.328l.147.164-1.232 1.234-1.231 1.234.009 2.977c.007 2.344.002 2.985-.022 3.015-.027.032-.251.037-1.705.038-.921.001-2.28.01-3.02.02l-1.344.02-1.527 1.526c-.84.84-1.538 1.526-1.552 1.525a56.436 56.436 0 0 1-1.314-1.294zm2.51-.565c.643-.642 1.168-1.171 1.168-1.176a3.23 3.23 0 0 0-.34-.009c-.187 0-.519-.016-.736-.037-.218-.02-.416-.036-.44-.036-.04 0-.043-.111-.043-1.977v-1.977l.538-.016c.296-.009 1.223-.016 2.06-.016h1.52l-.085-.09a33.44 33.44 0 0 0-.667-.623c-.32-.294-.689-.635-.82-.759-.13-.123-.48-.447-.777-.72-.298-.272-.643-.59-.766-.707-.123-.117-.486-.45-.806-.742-.32-.291-.723-.66-.896-.821a3.257 3.257 0 0 0-.34-.292c-.013 0-.35.315-.747.7-.398.384-.847.816-.998.958-.41.387-2.053 1.97-2.675 2.576l-.546.532 1.622.015c.892.008 1.68.017 1.751.019l.13.004v4.009l-.32.007-.321.007.568.585c.469.483 1.765 1.754 1.79 1.754.003 0 .532-.525 1.175-1.167zm9.705-9.716c.01-.04-.544-.626-1.215-1.286l-.556-.547-1.769.012-1.769.012.009 1.104c.005.608.014 1.118.02 1.135.007.024.391.033 1.762.037l1.752.006.006.595c.003.326.012.61.02.629.008.023.305-.255.872-.817.473-.469.863-.865.867-.88zm-20.587.74.007-.415 1.665-.006 1.665-.006-.006-1.19-.006-1.188-.891.007c-1.406.011-2.397-.004-2.432-.039-.017-.016-.043-.143-.06-.282l-.028-.253-.139.123c-.076.068-.505.482-.953.922l-.814.799.975.97c.536.535.983.972.993.972.01 0 .021-.186.025-.414zm10.115-2.092 1.475-1.38a553.517 553.517 0 0 0 2.083-1.956c.752-.706 1.188-1.125 1.193-1.15.007-.03-.338-.241-.461-.282-.06-.02-.623-.028-1.95-.028h-1.865V3.126h.359c.197 0 .359-.008.359-.017 0-.018-2.326-2.366-2.359-2.38-.017-.008-2.392 2.37-2.394 2.397 0 .007.333.01.74.005l.74-.008.016.305c.01.168.013.895.01 1.617l-.009 1.312-2.15.012-2.152.013.617.569a354.43 354.43 0 0 0 3.089 2.835c.854.79 2.02 1.832 2.051 1.832.011 0 .285-.248.608-.551z"/></svg>