<svg viewBox="0 0 24 24" xmlns="http://www.w3.org/2000/svg" role="img"><path d="M22.271 0c-1.578-.007-3.098.645-4.515 1.296-3.081 1.431-5.935 3.322-8.57 5.462-.794.628-1.502 1.353-2.246 2.035-.771.739-1.436 1.577-2.131 2.385-.567.142-1.08.431-1.58.723-1.14.668-2.338 1.42-2.958 2.635v.619c.236.258.477.527.801.675.814.373 1.726.427 2.608.45 2.866.057 5.704-.49 8.47-1.195 1.857-.501 3.69-1.102 5.46-1.856 1.646-.734 3.316-1.512 4.67-2.727.454-.421.944-.977.846-1.646-.096-.554-.68-.811-1.157-.969-1.065-.304-2.192-.352-3.292-.304.097-.3.38-.464.608-.657a22.077 22.077 0 0 0 3.076-3.134c.588-.718 1.076-1.527 1.368-2.412V.683c-.169-.3-.42-.583-.778-.638A5.413 5.413 0 0 0 22.27 0zm-.752 1.21c.204.004.406.026.604.075.25.177.43.513.35.823-.16.724-.546 1.37-.952 1.98-.458.669-.955 1.316-1.536 1.885-.656.637-1.228 1.364-1.958 1.924.142.017.284.036.427.055.895.092 1.854.1 2.639.602.277.163.421.53.276.829-.212.503-.666.845-1.082 1.174-1.457 1.047-3.119 1.766-4.787 2.407a36.92 36.92 0 0 1-8.787 2.145c-1.065.144-2.145.17-3.217.101-.543-.061-1.141-.152-1.552-.544-.271-.273-.122-.702.062-.98.665-.936 1.655-1.554 2.608-2.16-.263.516-.549 1.035-.653 1.612-.05.275-.009.574.167.8.277.362.767.474 1.202.49.942-.02 1.85-.303 2.739-.592 1.64-.563 3.19-1.363 4.678-2.248-1.697.768-3.413 1.564-5.255 1.91-.616.042-1.378.195-1.877-.262-.114-.361-.058-.768.098-1.11.397-.871 1.022-1.61 1.67-2.306 1.511-1.583 3.17-3.036 4.981-4.268 2.512-1.755 5.195-3.339 8.147-4.22.327-.076.67-.126 1.008-.121zM8.077 16.998c-.247.099-.49.205-.734.31-.01 1.3.006 2.598-.008 3.897.005.29-.066.629-.349.773-.673.348-1.373.64-2.045.991-.265.118-.553.315-.853.202a.62.62 0 0 1-.242-.411.832.832 0 0 1 .474-.62c.74-.37 1.509-.678 2.24-1.066a4.21 4.21 0 0 0-.045-.854c-.794.32-1.566.705-2.313 1.126-.784.4-.992 1.51-.565 2.237.232.315.654.353 1.013.313.358.013.633-.247.94-.388.578-.264 1.163-.52 1.724-.817.6-.367.786-1.12.784-1.78-.004-1.304 0-2.608-.02-3.913zm8.508.005a8.415 8.415 0 0 0-.73.316c-.046 1.597-.02 3.196-.014 4.795a4.24 4.24 0 0 0 .755-.34c-.015-1.59.007-3.18-.01-4.77zm-4.37.006c-.252.087-.492.2-.731.32.003 1.599-.014 3.199.005 4.798.251-.103.497-.218.737-.346-.006-1.59.015-3.181-.01-4.772zm6.385.003c-.078.28-.127.568-.152.858-.566.522-1.087 1.147-1.29 1.905-.067.3-.08.683.192.89.25.199.587.187.881.105.078.133.16.264.248.393-1.423.672-2.847 1.344-4.264 2.028-.01.27-.011.54-.006.81 2.128-.967 4.23-1.992 6.357-2.962a8.52 8.52 0 0 0 .008-1.099c-.473.216-.926.473-1.402.682a.529.529 0 0 1-.444.023c.457-.458 1.233-.515 1.58-1.097.127-.38.174-.893-.17-1.176-.5-.465-.943-1.015-1.538-1.36zm.463 1.41c.259.228.514.462.741.722-.303.192-.615.37-.932.537.043-.422.117-.84.19-1.258zm-.549.437c-.034.354-.103.703-.167 1.052-.247.096-.502.176-.77.169.165-.5.56-.874.937-1.221zm-9.099.308c-.107.001-.215.02-.323.057-.689.318-.873 1.228-.654 1.896a.482.482 0 0 0 .577.338c.577-.134 1.073-.488 1.648-.634.048.089.096.18.14.272a2.352 2.352 0 0 1-.437.273c-.795.364-1.594.725-2.376 1.117-.001.277-.002.555.012.832.797-.333 1.565-.725 2.355-1.071.291-.14.646-.258.777-.585.24-.651.017-1.414-.488-1.878-.324-.318-.767-.622-1.23-.617zm4.335.304c-.084.275-.107.56-.147.842-.603.627-1.278 1.335-1.335 2.252-.054.482.474.842.916.72.56-.169 1.078-.445 1.596-.71.3-.161.654-.345.734-.71.038-.342.096-.758-.206-1.002-.5-.48-.962-1.026-1.558-1.392zM9.544 20c.154.005.307.09.45.143a8.399 8.399 0 0 1-1.098.491c.064-.248.187-.509.455-.588A.364.364 0 0 1 9.544 20zm4.628.825c.269.253.537.508.789.778-.572.364-1.168.703-1.82.901-.137.056-.283.027-.42-.009.316-.685.947-1.135 1.451-1.67z"/></svg>