<svg viewBox="0 0 24 24" xmlns="http://www.w3.org/2000/svg" role="img"><path d="M16.276 7.004c-.121 0-.144.018-.142.109 0 .063.024.103.068.111.084.017.212-.015.212-.053 0-.012.007-.035.015-.048.012-.02.012-.026-.003-.038a.178.178 0 0 1-.035-.047c-.016-.032-.02-.034-.115-.034zm1.497 0c-.008 0-.026.028-.04.06-.03.077-.02.111.041.15.043.025.062.03.174.03.145 0 .172-.01.191-.08.027-.099.013-.108-.188-.136l-.178-.024zm-.745.005c-.166-.01-.178-.006-.213.07a.201.201 0 0 0-.023.084c.01.03.1.117.12.117.01 0 .017.005.017.011 0 .007.008.013.018.013.01 0 .018-.006.018-.013 0-.007.034-.01.078-.01.105 0 .229-.04.276-.09a.227.227 0 0 1 .056-.046c.024-.01.029-.055.007-.085-.017-.023-.13-.04-.354-.051zm-1.247.026a.363.363 0 0 0-.19.026c-.024.026-.215.029-.23.005-.007-.011-.05-.018-.131-.023-.106-.005-.122-.003-.128.014-.006.014-.024.02-.065.02-.03 0-.083.01-.117.023a.788.788 0 0 1-.24.031c-.178.007-.278.022-.294.046-.017.025-.01.078.02.134.031.057.04.13.019.143-.025.016-.011.074.026.112.031.031.046.037.092.037.066 0 .217-.054.227-.082a.25.25 0 0 1 .035-.053c.015-.018.028-.043.028-.054 0-.011.029-.05.064-.088.08-.085.14-.105.245-.082.096.02.109.027.173.085.044.04.057.06.057.088 0 .03.008.04.039.054a.08.08 0 0 1 .044.049c.007.03.008.029.15.029s.144 0 .148-.028c.003-.02-.007-.038-.036-.063a.16.16 0 0 0-.054-.034c-.009 0-.016-.006-.016-.013 0-.007-.008-.02-.018-.03-.013-.014-.014-.025-.005-.042.007-.013.017-.023.023-.023.007 0 .012-.007.012-.016 0-.01.022-.026.048-.038.077-.035.108-.07.108-.123 0-.063-.011-.095-.034-.104zm2.889.065a.32.32 0 0 0-.124.02c-.03.018-.071.082-.059.092l.035.024c.035.023.21.028.256.007.062-.028.073-.1.02-.127a.345.345 0 0 0-.128-.016zm.627.027c-.036.002-.067.019-.067.046 0 .017-.01.026-.034.03-.044.01-.092.078-.082.119.012.048.068.07.162.061.148-.013.27-.004.298.024a.06.06 0 0 0 .035.017c.01 0 .05.016.093.036.042.02.087.036.099.036.012 0 .027.005.033.011a.102.102 0 0 0 .042.015c.082.015.153.01.181-.015a.37.37 0 0 1 .046-.035c.018-.01.038-.112.026-.13-.003-.007-.031-.015-.06-.02-.028-.005-.053-.015-.057-.024-.011-.03-.073-.045-.162-.039-.201.015-.422-.032-.462-.097-.015-.026-.056-.037-.091-.035zm-5.52.128c-.053 0-.12.023-.134.045a.038.038 0 0 1-.029.015.16.16 0 0 0-.061.032c-.037.028-.04.036-.034.075.004.024.013.08.018.124a.491.491 0 0 0 .014.085.358.358 0 0 0 .048.015.089.089 0 0 1 .061.05c.01.02.027.05.038.067.01.017.02.047.02.066 0 .05.03.058.215.06a.984.984 0 0 1 .167.01.817.817 0 0 0 .26-.024.231.231 0 0 0 .02-.088c.006-.071.006-.075-.025-.086a.661.661 0 0 0-.121-.02 1.488 1.488 0 0 1-.174-.026c-.097-.022-.123-.05-.103-.117.047-.16.046-.196-.006-.217-.023-.01-.042-.022-.042-.028 0-.015-.078-.038-.132-.038zm-.628.209c-.098.008-.157.026-.166.05-.004.01-.022.017-.043.017a.146.146 0 0 0-.073.026c-.045.034-.049.094-.008.121.015.01.041.032.06.05a.12.12 0 0 0 .065.031.26.26 0 0 1 .087.028c.066.034.192.043.216.014.012-.015.013-.025.001-.047a.097.097 0 0 1-.007-.064c.004-.022.002-.04-.006-.045-.006-.004-.011-.039-.01-.078.002-.101-.011-.112-.116-.103zm5.159.017-.174.001-.04.046c-.054.063-.052.101.006.127.036.016.092.02.279.022.16.002.244.007.269.018h.001a.16.16 0 0 0 .077.01l.12-.02c.087-.013.097-.019.088-.053-.007-.028-.056-.054-.103-.054a.71.71 0 0 1-.213-.07c-.012-.018-.136-.03-.31-.027zm2.14.051c-.1 0-.14.017-.157.063-.015.043.009.068.092.095l.064.02a.855.855 0 0 0 .169-.05c.008-.006.015-.026.015-.044 0-.051-.071-.084-.183-.084zm-1.243.114c-.038-.01-.146.007-.152.024-.003.007.01.02.03.03a.216.216 0 0 1 .045.03c.034.037.124.054.272.052.123-.003.152 0 .177.016.015.011.05.021.073.021.028 0 .046.007.05.018.004.01.017.018.03.018.03 0 .254.079.27.095.017.017.022.017.05-.005a.126.126 0 0 1 .063-.018c.02 0 .04-.006.046-.014.012-.02-.04-.057-.08-.057-.018 0-.038-.008-.043-.016-.024-.04-.247-.092-.388-.092-.033 0-.062-.007-.07-.017a.092.092 0 0 0-.046-.022 3.017 3.017 0 0 1-.111-.028.78.78 0 0 0-.131-.022.538.538 0 0 1-.085-.012zm-2.498.037a.694.694 0 0 1-.128.018c-.041 0-.062.007-.08.025-.025.027-.136.058-.214.058-.086.001-.167.055-.142.096.004.007.025.02.046.03.052.024.078.08.056.124-.035.07-.044.074-.148.073-.053 0-.124-.006-.157-.012-.136-.027-.19-.027-.22 0a.115.115 0 0 1-.064.025c-.026 0-.04.009-.054.035a.275.275 0 0 1-.081.072c-.058.036-.066.036-.194.036-.1 0-.138.005-.152.019a.181.181 0 0 1-.07.029c-.247.057-.267.06-.345.05-.087-.011-.16-.038-.175-.064a.295.295 0 0 0-.094-.052.373.373 0 0 0-.161-.032c-.083.001-.169-.025-.169-.051 0-.014-.04-.027-.138-.048a.398.398 0 0 1-.14-.064c-.017-.014-.061-.019-.22-.02-.177 0-.2.003-.21.022a.044.044 0 0 1-.035.02c-.023 0-.08.02-.17.058-.025.01-.045.025-.045.033 0 .009-.01.018-.024.022-.024.008-.096.087-.096.106a.133.133 0 0 1-.025.042.107.107 0 0 0-.023.052c0 .036-.04.047-.193.047h-.144l-.045.043a.277.277 0 0 1-.216.086c-.065-.003-.066-.005-.074-.044-.015-.077-.04-.09-.186-.09-.092-.001-.14.004-.16.016a.34.34 0 0 1-.079.028l-.078.017a.286.286 0 0 0-.089.076c-.054.063-.065.07-.12.077a.453.453 0 0 0-.25.121.125.125 0 0 1-.049.03c-.013.003-.03.02-.039.037-.02.043-.128.093-.2.093-.034 0-.064.008-.074.018a.073.073 0 0 1-.045.018.246.246 0 0 0-.08.03.433.433 0 0 1-.119.037.21.21 0 0 0-.072.018.781.781 0 0 1-.133.046c-.16.047-.216.067-.225.083a.1.1 0 0 1-.038.02c-.059.017-.156.071-.156.087 0 .009-.004.015-.01.015a.68.68 0 0 0-.093.085c-.068.068-.094.085-.13.09a.123.123 0 0 0-.06.023c-.01.013-.148.047-.317.078-.12.022-.114.024-.118-.04-.005-.066.009-.088.057-.098a.192.192 0 0 0 .07-.042.158.158 0 0 1 .054-.036c.034 0 .105-.043.111-.068.004-.015.03-.043.057-.062.036-.024.05-.041.05-.062 0-.026-.007-.031-.065-.043a.79.79 0 0 0-.11-.016c-.034 0-.046-.007-.057-.032-.013-.027-.01-.035.016-.067.017-.02.03-.04.03-.048s.013-.038.028-.066c.034-.064.02-.092-.046-.097a1.446 1.446 0 0 0-.33.035.153.153 0 0 1-.048.027c-.048.02-.066.04-.072.074-.004.02-.02.027-.082.038-.255.045-.296.057-.304.089-.004.015-.02.026-.043.03-.042.009-.09.062-.103.115a.106.106 0 0 1-.025.047c-.01.008-.017.02-.017.03 0 .008-.01.016-.024.016-.025 0-.079.063-.086.1-.002.013-.03.038-.06.055-.072.04-.117.096-.117.143 0 .033.005.04.053.053a.15.15 0 0 1 .09.067c.038.051.038.052.019.093-.023.049-.066.069-.126.059-.055-.01-.07-.022-.125-.105-.056-.085-.09-.092-.142-.028-.054.068-.02.126.072.126.018 0 .046.009.06.02.027.018.036.07.014.083-.006.004-.011.032-.011.063 0 .097-.016.104-.213.084-.148-.014-.15-.014-.205.014a.234.234 0 0 0-.067.048.294.294 0 0 1-.039.043.09.09 0 0 0-.028.056c0 .016-.013.04-.029.055-.047.044-.045.078.004.131.038.04.053.047.113.055.038.004.09.016.113.026.023.01.07.017.106.017.07 0 .125.019.125.043 0 .02.072.034.138.024.047-.007.061-.004.107.025.035.022.055.042.055.058 0 .014.005.03.012.038.01.01.01.02 0 .037a.176.176 0 0 0-.012.069c0 .05-.03.084-.084.096-.048.01-.121-.003-.121-.023 0-.008-.01-.02-.022-.027-.017-.01-.025-.032-.028-.073l-.003-.057-.09-.004c-.09-.003-.092-.002-.108.03a.361.361 0 0 1-.046.066c-.026.03-.027.036-.014.075.011.034.011.047 0 .06-.019.023-.007.092.024.127a.107.107 0 0 1 .024.06c0 .038.041.07.089.07.016 0 .03.007.03.013 0 .007.01.012.021.013.012 0 .056.018.1.039l.077.037v.066c0 .055-.005.068-.033.092-.018.015-.045.03-.057.03-.017 0-.024.006-.024.026a.149.149 0 0 1-.03.068.16.16 0 0 0-.03.08.085.085 0 0 1-.022.058.18.18 0 0 0-.038.054.09.09 0 0 1-.049.046.06.06 0 0 0-.041.046.459.459 0 0 1-.024.072.543.543 0 0 0-.03.1.405.405 0 0 1-.019.074.213.213 0 0 0-.01.062c-.005.052-.051.103-.093.103-.011 0-.034.015-.053.032-.032.03-.036.03-.186.026a.496.496 0 0 1-.163-.016.08.08 0 0 0-.038-.024c-.048-.015-.06-.03-.06-.078 0-.045 0-.046.084-.08a.283.283 0 0 0 .083-.043c0-.005.01-.019.024-.032.03-.03.033-.114.006-.153-.027-.037-.018-.112.013-.128a.454.454 0 0 0 .071-.059.24.24 0 0 1 .078-.051.145.145 0 0 0 .053-.03c.014-.013.043-.038.066-.056.055-.046.045-.084-.03-.12-.03-.015-.054-.031-.054-.038 0-.006-.004-.012-.01-.012a.221.221 0 0 1-.06-.03c-.069-.043-.071-.104-.01-.236.02-.042.037-.062.066-.073.045-.016.085-.086.095-.164.007-.055-.028-.115-.075-.127-.016-.004-.031-.017-.035-.028-.009-.027-.072-.048-.146-.048-.056 0-.065.003-.1.044a.294.294 0 0 0-.05.092.777.777 0 0 1-.028.088.214.214 0 0 0-.017.068c0 .02-.01.035-.035.047a.158.158 0 0 0-.085.133c0 .03-.01.05-.03.07a.09.09 0 0 0-.03.063c0 .026-.011.042-.042.062a.102.102 0 0 0-.048.065.17.17 0 0 1-.034.067c-.022.025-.023.03-.008.074.013.042.013.055-.006.096-.022.05-.02.082.007.2.013.054.011.071-.005.115a.317.317 0 0 0-.02.09c0 .028-.007.042-.026.052-.041.021-.046.036-.023.07a.224.224 0 0 1 .031.072.302.302 0 0 0 .03.08.207.207 0 0 1 .01.168.752.752 0 0 0-.037.19.759.759 0 0 0 .037.225c.008.007.014.033.014.058 0 .037.005.05.03.06.025.012.03.022.03.066 0 .028-.005.053-.01.053-.007 0-.014.01-.018.023-.006.026.025.051.053.042a1.42 1.42 0 0 1 .085-.018c.043-.008.07-.02.07-.03 0-.008.014-.019.032-.023.04-.01.11-.054.152-.096a.333.333 0 0 1 .088-.056.264.264 0 0 0 .07-.039c.02-.025.14-.056.218-.056.04 0 .104-.008.142-.018a.568.568 0 0 1 .109-.018c.02 0 .043-.007.048-.015a.434.434 0 0 1 .108-.057.328.328 0 0 0 .098-.053c0-.007.043-.033.095-.057.064-.03.102-.056.116-.078a.228.228 0 0 1 .061-.06c.023-.015.04-.034.04-.043 0-.024.055-.057.126-.076.08-.02.125-.02.18.003.043.018.045.02.038.067-.009.07-.06.135-.147.187a.266.266 0 0 0-.077.057c0 .022-.184.122-.24.13-.189.029-.28.06-.336.118a.216.216 0 0 1-.084.053c-.02.004-.04.014-.043.023-.004.01-.021.017-.04.017-.021 0-.05.017-.086.052-.03.028-.08.07-.112.093a.473.473 0 0 0-.074.06.142.142 0 0 1-.05.035c-.027.01-.038.024-.043.054-.02.103-.216.198-.411.198h-.098v.033c0 .025.008.038.03.048.03.014.038.031.017.044-.027.017-.01.053.04.08.039.021.051.038.06.072.008.035.019.046.056.061.04.015.048.025.055.061.004.024.018.05.03.059.025.018.038.053.023.063-.02.012-.013.082.012.12.05.073.065.115.05.139-.024.039-.017.057.028.065.056.01.078.033.078.082 0 .029.008.048.03.064.021.017.03.036.03.066 0 .031.007.043.028.053.016.007.034.032.043.06a.203.203 0 0 0 .057.082l.078.064a.203.203 0 0 1 .05.067c.012.027.03.043.058.053.04.013.047.022.09.111.012.025.03.05.042.053.016.005.02.011.01.03-.016.03.014.08.055.09a.15.15 0 0 1 .059.036c.015.016.037.028.047.028.01 0 .018.004.018.01 0 .005.026.022.059.037.037.017.07.042.085.067a.114.114 0 0 0 .048.046.049.049 0 0 1 .032.03c.004.014.02.028.035.033.016.004.028.014.028.022 0 .008.019.02.04.028a.315.315 0 0 1 .091.068.25.25 0 0 0 .137.08.342.342 0 0 1 .1.041c.008.01.036.017.07.017.048 0 .062.006.091.038.02.02.035.045.035.057 0 .032.023.05.049.036.02-.011.022-.03.022-.26 0-.28-.01-.33-.083-.384-.05-.037-.048-.077.005-.112.05-.033.051-.032.043-.297l-.006-.21-.108-.007c-.13-.009-.2-.034-.257-.095a4.451 4.451 0 0 0-.179-.184c-.02-.02-.037-.043-.037-.052 0-.008-.013-.024-.03-.034a.351.351 0 0 1-.101-.181.511.511 0 0 0-.07-.191.073.073 0 0 0-.05-.03.234.234 0 0 1-.16-.094c-.11-.2-.115-.215-.09-.269.024-.054.06-.062.157-.038.115.03.143.044.18.1.03.042.033.056.033.162 0 .116 0 .116.029.116.036 0 .093.024.106.044.005.009.02.016.033.016.035 0 .095.064.095.101 0 .025.011.036.054.058.03.014.053.032.053.04s.014.018.03.022c.04.01.126.066.126.082 0 .007.021.03.048.053a.296.296 0 0 1 .062.073c.01.021.03.034.057.04.053.01.096.034.096.052 0 .007.016.028.034.046a.707.707 0 0 1 .057.06c.017.023.035.031.064.032.033 0 .051.01.092.054a.39.39 0 0 0 .14.09.338.338 0 0 1 .115.073c.03.036.108.082.14.082a.15.15 0 0 0 .053-.018c.032-.017.044-.016.112.003a.38.38 0 0 1 .08.028.375.375 0 0 0 .079.026c.172.047.204.058.217.075.007.01.03.024.05.03.02.008.038.02.038.026 0 .014-.075.046-.108.046-.013 0-.023.006-.023.012 0 .007-.012.012-.025.012-.013 0-.024.008-.024.018 0 .025.045.051.105.06.028.005.051.013.051.019s.008.011.017.011c.009 0 .041.013.072.03.04.02.075.03.119.03.049 0 .07.006.097.03.02.016.049.03.068.03.052 0 .168.044.187.071.012.017.03.024.064.024.026 0 .047.004.047.01 0 .016.11.04.21.044.079.004.088.003.054-.007a.839.839 0 0 0-.084-.02c-.023-.003-.048-.012-.054-.02a.186.186 0 0 0-.071-.03c-.083-.02-.21-.075-.21-.092 0-.007-.009-.018-.02-.022-.04-.015-.124-.072-.124-.085 0-.007-.022-.03-.049-.051-.026-.021-.047-.046-.047-.055 0-.008-.01-.026-.024-.037a.756.756 0 0 1-.109-.204c0-.008-.008-.022-.018-.03-.025-.021-.026-.509-.001-.538a.479.479 0 0 0 .053-.156.776.776 0 0 1 .042-.108 2.857 2.857 0 0 0 .07-.156l.06-.12c.029-.056.07-.123.091-.15a.189.189 0 0 0 .04-.062c0-.008.016-.033.035-.056a.187.187 0 0 0 .037-.051.18.18 0 0 1 .036-.052.175.175 0 0 0 .036-.055c0-.007.019-.031.042-.053.023-.023.042-.047.042-.055 0-.007.018-.03.041-.053.023-.022.042-.045.042-.053 0-.006.025-.031.054-.052.064-.047.132-.053.166-.016.026.029.019.062-.03.123a.243.243 0 0 0-.034.053.265.265 0 0 1-.036.053.24.24 0 0 0-.036.054c0 .005-.017.03-.037.054a.225.225 0 0 0-.036.056.252.252 0 0 1-.036.057.22.22 0 0 0-.035.057.167.167 0 0 1-.028.049.754.754 0 0 0-.053.088 4.21 4.21 0 0 1-.037.072c-.007.012-.033.08-.056.15a.604.604 0 0 0-.042.222.522.522 0 0 0 .076.279c.017.035.09.106.12.115.01.004.02.013.02.021 0 .017.107.072.165.085.021.005.043.015.048.024.01.014.115.04.26.065.156.026.44.04.55.027.06-.008.14-.013.178-.013a.659.659 0 0 0 .12-.012c.028-.007.09-.017.14-.024.145-.02.174-.026.184-.043.005-.01.016-.017.024-.017.03 0 .212-.062.227-.077a.877.877 0 0 1 .124-.065.632.632 0 0 0 .118-.066.517.517 0 0 1 .08-.06.296.296 0 0 0 .07-.052c0-.005.028-.029.06-.052.033-.023.06-.047.06-.054 0-.007.014-.026.031-.042.043-.04.149-.174.149-.188 0-.007.007-.018.015-.025.03-.025.126-.235.158-.344l.037-.125a.393.393 0 0 0 .017-.097.3.3 0 0 1 .014-.083c.01-.028.017-.237.024-.617.02-1.136.03-1.461.044-1.496a.271.271 0 0 0 .014-.086c0-.03.006-.063.013-.074a.476.476 0 0 0 .023-.052c.015-.037.03-.061.158-.248a.343.343 0 0 0 .035-.057c0-.004.015-.03.034-.054a.24.24 0 0 0 .037-.054c0-.005.016-.028.036-.053a.198.198 0 0 0 .036-.059c0-.007.019-.032.042-.057a.208.208 0 0 0 .042-.054c0-.023.05-.01.078.02.034.038.038.088.012.186a.535.535 0 0 0-.018.107.44.44 0 0 1-.018.1.516.516 0 0 0-.018.124.264.264 0 0 1-.013.088.467.467 0 0 0-.02.112c-.008.108.01.158.084.228.065.06.133.09.233.097l.136.013c.05.005.056.003.069-.025a.193.193 0 0 0 .014-.066c0-.066.075-.197.153-.267a.158.158 0 0 0 .039-.045c0-.017.168-.176.21-.199.023-.012.04-.027.04-.034 0-.007.042-.033.091-.058a.324.324 0 0 0 .09-.054c0-.006.029-.02.065-.03.103-.033.337-.014.371.03a.454.454 0 0 0 .059.05.198.198 0 0 1 .053.055c.004.01.018.034.032.052.021.03.025.052.025.162 0 .124-.002.132-.046.223a.597.597 0 0 0-.042.097 1.15 1.15 0 0 0 .308-.079.355.355 0 0 1 .086-.053c.046-.023.083-.047.083-.054 0-.007.04-.032.09-.055a.335.335 0 0 0 .09-.05c0-.005.032-.03.072-.055a.265.265 0 0 0 .072-.058c0-.006.025-.02.056-.034.06-.026.115-.026.278 0l.127.02c.033.004.063.013.067.019.011.017.12.032.155.022a.178.178 0 0 0 .058-.032l.078-.064a.207.207 0 0 0 .054-.053c0-.006.01-.021.021-.034.025-.027.114-.03.135-.004.02.024.072.024.108-.001.038-.027.072-.062.072-.074 0-.014.05-.057.078-.067a.168.168 0 0 1 .08.013c.056.02.057.02.1-.009.023-.016.042-.034.042-.041 0-.007.019-.031.041-.053.04-.039.045-.04.113-.034.089.008.182-.002.183-.02 0-.007.03-.032.065-.055.036-.023.065-.047.065-.054 0-.008.021-.03.048-.052.026-.021.049-.044.049-.051a.94.94 0 0 1 .14-.175.191.191 0 0 0 .04-.051c0-.005.026-.03.06-.054a.252.252 0 0 0 .059-.053c0-.006.028-.029.061-.05a.34.34 0 0 0 .088-.083.379.379 0 0 1 .053-.065c.014-.013.025-.029.025-.036 0-.008.019-.032.042-.055.023-.022.042-.047.042-.055 0-.034.109-.04.142-.007a.7.7 0 0 0 .083.062c.035.023.063.048.063.055 0 .007.02.034.047.06a.207.207 0 0 1 .049.06c0 .007.019.03.042.052.041.04.042.043.042.14 0 .071-.006.104-.019.117-.01.01-.018.023-.018.029a.18.18 0 0 1-.047.054.26.26 0 0 0-.049.052c0 .02-.116.088-.15.088a.082.082 0 0 0-.043.02c-.032.029-.325.028-.357-.001-.025-.022-.08-.025-.093-.004a.19.19 0 0 1-.056.039.611.611 0 0 0-.12.101c-.04.043-.092.095-.114.115l-.077.068a.85.85 0 0 1-.093.07.207.207 0 0 0-.058.047.97.97 0 0 1-.21.097.158.158 0 0 0-.058.032c-.005.01-.02.014-.032.014a.632.632 0 0 0-.23.09.367.367 0 0 1-.157.055.222.222 0 0 0-.123.055c-.023.025-.097.046-.299.085a.101.101 0 0 0-.047.02.576.576 0 0 1-.102.056.455.455 0 0 0-.1.056c-.014.021-.23.02-.251-.002-.049-.049-.38-.055-.38-.007 0 .005-.044.03-.096.056a.346.346 0 0 0-.096.057c0 .007-.04.032-.09.055-.048.023-.088.048-.089.057 0 .008-.008.015-.016.015a.133.133 0 0 0-.045.015.987.987 0 0 1-.096.04.289.289 0 0 0-.077.036c-.015.016-.207.05-.348.06-.102.007-.218.04-.234.066a.676.676 0 0 1-.127.053.574.574 0 0 0-.125.055.975.975 0 0 1-.25.076.261.261 0 0 0-.084.03c-.015.024-.19.04-.411.034l-.224-.005v.222c0 .123-.007.257-.014.3a3.247 3.247 0 0 0-.023.227c-.012.172-.017.21-.043.343a3.65 3.65 0 0 1-.132.493.204.204 0 0 0-.017.06c0 .014-.003.03-.01.033-.006.004-.014.023-.019.044a.26.26 0 0 1-.02.058l-.076.161c-.038.08-.082.162-.098.183a.161.161 0 0 0-.027.048.199.199 0 0 1-.037.052.168.168 0 0 0-.035.053.187.187 0 0 1-.036.054 1.12 1.12 0 0 1-.14.173.982.982 0 0 0-.1.121c0 .015-.26.264-.3.288-.02.012-.035.027-.035.034 0 .007-.027.027-.058.044a.57.57 0 0 0-.09.063.498.498 0 0 1-.104.064c-.04.018-.072.036-.072.042 0 .01-.08.048-.168.078a.196.196 0 0 0-.065.033c-.019.023-.29.102-.351.102a.057.057 0 0 0-.039.018c-.009.01-.035.018-.064.018a.196.196 0 0 0-.08.018c-.023.014-.102.017-.39.018a2.524 2.524 0 0 0-.323.011c.056.015.102.036.102.046 0 .018.095.05.144.05.073 0 .166.025.189.05.018.02.046.022.242.027.31.008.628.027.674.042.022.007.103.017.18.02.102.007.14.012.14.023s.03.017.105.021c.124.005.171 0 .171-.02 0-.012.124-.09.144-.09.005 0 .012-.007.015-.015.004-.009.037-.025.074-.037.037-.01.096-.029.132-.04.037-.011.066-.027.066-.036 0-.009.01-.015.02-.015.045 0 .265-.177.28-.225a.152.152 0 0 1 .047-.041.126.126 0 0 0 .051-.066.121.121 0 0 1 .028-.053.053.053 0 0 0 .018-.035c0-.01.022-.046.049-.079a.199.199 0 0 1 .117-.08c.08-.024.105-.026.156-.008.037.013.038.015.038.09 0 .067-.005.08-.037.116a.168.168 0 0 0-.036.055c0 .007-.016.027-.036.046a.346.346 0 0 0-.057.075.201.201 0 0 1-.088.076.248.248 0 0 0-.068.045c-.002.006-.011.011-.02.011a.532.532 0 0 0-.096.036c-.078.036-.186.128-.186.162 0 .008-.014.025-.031.037-.042.031-.031.078.022.097a2.8 2.8 0 0 1 .095.034c.05.02.064.02.159.006.085-.013.11-.013.15 0a.13.13 0 0 0 .095.001c.036-.01.055-.01.08 0a.924.924 0 0 0 .19.017c.12.002.159.007.169.021.02.029.062.036.104.017a.6.6 0 0 1 .242-.045.49.49 0 0 0 .117-.01c.047-.018.33-.018.471-.001a.441.441 0 0 0 .24-.013.674.674 0 0 1 .394-.007.73.73 0 0 1 .135.045c.02.016.022.095.003.136-.025.054-.163.075-.316.048-.108-.02-.119-.018-.29.014-.017.003-.031.018-.04.046-.012.036-.021.044-.066.055-.031.008-.056.022-.06.034-.008.027-.094.046-.156.035a.323.323 0 0 0-.219.02.27.27 0 0 1-.139.03c-.063 0-.084.004-.103.023-.024.024-.096.035-.096.014 0-.019-.085-.062-.148-.073-.038-.007-.067-.02-.078-.035-.02-.03-.06-.033-.06-.003 0 .026-.046.07-.079.075-.013.003-.03.019-.037.035a.146.146 0 0 1-.055.05c-.138.074-.207.079-.277.021-.03-.024-.045-.046-.045-.065a.09.09 0 0 0-.025-.055c-.02-.02-.024-.035-.018-.074.013-.079 0-.124-.047-.149-.04-.021-.043-.02-.084.002-.025.014-.044.034-.048.053a.148.148 0 0 1-.02.046.044.044 0 0 0-.004.036.372.372 0 0 1-.017.159c-.017.028-.208.059-.419.068a.672.672 0 0 1-.252-.02.97.97 0 0 0-.19-.027c-.08-.002-.097.002-.142.03a.217.217 0 0 1-.068.032c-.01 0-.02.008-.024.018-.003.01-.014.018-.023.018-.01 0-.023.008-.03.017-.008.01-.042.02-.075.024-.07.01-.138-.016-.154-.059a.162.162 0 0 0-.045-.053c-.031-.024-.044-.025-.173-.022a.475.475 0 0 0-.156.018c-.022.02-.232.023-.275.006a.15.15 0 0 1-.057-.054c-.021-.034-.041-.047-.103-.067a.283.283 0 0 1-.084-.038c-.01-.017-.174-.013-.227.006a.159.159 0 0 0-.061.036c-.008.01-.023.02-.034.02-.012 0-.02.01-.02.024 0 .016-.014.032-.037.045a.26.26 0 0 0-.057.04c-.01.012-.024.023-.03.023-.005 0-.017.007-.024.016-.027.035-.24.048-.296.019-.036-.02-.034-.094.003-.22.03-.098.024-.143-.028-.196-.062-.064-.022-.1.113-.1.08 0 .153.021.153.043 0 .017.037.035.108.053.108.028.164.036.302.037.114 0 .143.003.149.018.005.013.027.018.089.018a.7.7 0 0 1 .15.018c.096.025.224.024.272-.003.111-.062.08-.135-.065-.152l-.155-.02a10.02 10.02 0 0 0-.164-.022c-.088-.01-.123-.027-.123-.057 0-.009-.015-.019-.033-.023a.694.694 0 0 1-.08-.024c-.036-.014-.074-.016-.168-.01-.107.007-.123.006-.13-.01-.004-.012-.015-.02-.025-.02-.01 0-.02-.005-.022-.01a.763.763 0 0 0-.197-.092c-.02-.004-.04-.016-.044-.025-.009-.023-.086-.023-.109 0-.023.023-.122.025-.13.003-.004-.01-.034-.02-.076-.024a.41.41 0 0 1-.117-.03.397.397 0 0 0-.11-.033c-.046-.005-.064-.014-.068-.029-.004-.014-.023-.023-.06-.03-.057-.008-.138-.046-.159-.074-.017-.024-.202-.028-.224-.006-.01.01-.015.042-.013.099.005.113.022.135.123.154a.427.427 0 0 1 .124.044c.084.054.04.094-.124.112-.1.012-.154.04-.155.084 0 .01-.005.024-.01.03a.152.152 0 0 0-.017.06.73.73 0 0 1-.074.232c-.03.032-.026.115.007.145.014.013.034.025.043.025.008 0 .015.004.015.01 0 .017.032.016.038 0 .002-.008.042-.017.088-.023a1.71 1.71 0 0 0 .144-.024c.043-.01.07-.01.094 0a.25.25 0 0 0 .074.012c.069 0 .106.028.15.117.014.028.03.05.036.05.006 0 .011.008.011.018 0 .01.009.025.02.036.017.017.045.02.206.018.224-.003.217-.005.217.017 0 .033.213.073.474.088.066.003.098.01.104.022.014.025.099.021.124-.004.018-.018.042-.02.163-.018.112.001.147.005.158.02.018.022.083.03.42.044.382.016.567.016.801-.002.192-.014.205-.015.281.009.072.022.108.025.332.022a3.32 3.32 0 0 0 .344-.02.385.385 0 0 1 .164 0 .785.785 0 0 0 .131.013c.065 0 .159.023.159.039v.001c0 .014.006.012.05-.012a.58.58 0 0 1 .142-.036c.197-.03.257-.042.269-.057.011-.015.333-.047.414-.04.058.003.08.002.236-.026.122-.022.16-.033.165-.049a.048.048 0 0 1 .023-.026c.01-.004.156-.008.326-.01.22-.002.317.001.336.011a.42.42 0 0 0 .128.016c.091 0 .105-.004.137-.031a.203.203 0 0 1 .072-.038c.02-.004.04-.014.043-.023.01-.024.135-.023.159.001.01.01.04.018.074.018.03 0 .07.009.086.018.054.031.12.02.227-.04l.06-.032.09-.05a1.037 1.037 0 0 1 .147-.071l.062-.03v-.083c0-.046.005-.094.012-.106a.472.472 0 0 0 .02-.111c.008-.1.014-.088-.083-.174-.035-.032-.14-.04-.167-.012-.036.036-.1.049-.165.034a.501.501 0 0 0-.295.015.682.682 0 0 1-.121.043c-.035.008-.063.02-.063.025 0 .019-.075.013-.089-.007-.007-.01-.035-.022-.061-.026-.066-.01-.14-.06-.162-.106-.018-.037-.017-.04.006-.07.025-.03.079-.055.171-.079a.172.172 0 0 0 .073-.038c.024-.028.095-.03.106-.004.003.01.02.018.034.018.016 0 .046.014.067.032.035.03.049.034.131.034.063 0 .098-.006.113-.018.016-.014.05-.017.148-.014.144.004.179.017.24.089.037.043.045.047.084.04a5.86 5.86 0 0 1 .098-.015c.063-.009.09-.03.101-.078.015-.07-.001-.1-.099-.19a.27.27 0 0 0-.164-.048l-.109.008-.096.006-.061-.049a.248.248 0 0 0-.08-.049.163.163 0 0 1-.055-.018.502.502 0 0 0-.128-.025c-.083-.007-.1-.014-.13-.044a.175.175 0 0 0-.101-.048.57.57 0 0 1-.104-.028.286.286 0 0 0-.07-.02.062.062 0 0 1-.048-.027c-.019-.035-.027-.038-.102-.047-.064-.008-.12-.042-.12-.071 0-.027-.066-.08-.098-.08-.022 0-.05-.016-.084-.048-.05-.048-.054-.048-.114-.04-.047.005-.07.002-.096-.013a1.415 1.415 0 0 1-.206-.25 1.25 1.25 0 0 0-.032-.074.412.412 0 0 1-.032-.096c-.004-.035-.002-.036.062-.043.037-.004.072-.007.078-.01.025-.007.041 0 .1.048.034.026.062.055.062.065 0 .02.058.06.12.08a.326.326 0 0 1 .093.062c.029.027.063.06.077.071a.379.379 0 0 0 .147.069c.022.004.04.018.048.034.007.018.045.044.098.07a.423.423 0 0 1 .088.049c0 .004.025.024.055.043.044.028.073.036.163.043.06.005.11.015.115.021a.324.324 0 0 0 .063.043.213.213 0 0 0 .124.032c.074 0 .175.021.175.037 0 .005.03.027.067.048a.47.47 0 0 1 .086.062c.023.026.123.03.148.005a.16.16 0 0 1 .07-.024c.258-.04.337-.062.372-.107a.29.29 0 0 1 .092-.055.355.355 0 0 0 .075-.038.158.158 0 0 1 .048-.021.714.714 0 0 0 .16-.063c.007-.006.028-.01.047-.01.018 0 .033-.006.033-.01 0-.016.08-.04.153-.048.06-.006.14-.038.158-.064a.697.697 0 0 1 .216-.084c.035-.005.07-.018.075-.027.005-.01.027-.02.05-.024a.114.114 0 0 0 .056-.027.053.053 0 0 1 .036-.016c.031 0 .082-.027.082-.042 0-.016.074-.057.14-.078.029-.009.052-.02.052-.027 0-.005.007-.01.014-.01s.038-.019.068-.041a.344.344 0 0 1 .09-.049c.017-.004.033-.015.033-.022.001-.022.06-.062.117-.078.028-.008.054-.023.058-.034.009-.021.112-.07.176-.082.024-.004.043-.012.043-.018 0-.006.015-.016.033-.024a.95.95 0 0 0 .189-.097l.062-.052c.022-.017.04-.039.04-.048 0-.01.007-.017.016-.017a.155.155 0 0 0 .054-.03.235.235 0 0 1 .081-.035c.023-.005.045-.016.049-.026.003-.01.013-.018.02-.018a.57.57 0 0 0 .182-.1c.015-.017.035-.03.043-.03.018 0 .07-.049.07-.066 0-.007.023-.023.052-.035a.342.342 0 0 0 .085-.05c.018-.016.037-.03.044-.03a.011.011 0 0 0 .01-.01c0-.006.019-.022.041-.035a.101.101 0 0 0 .049-.059c.005-.024.025-.045.072-.074.038-.022.067-.048.067-.06 0-.039.07-.133.112-.15a.09.09 0 0 0 .053-.054.098.098 0 0 1 .041-.05.152.152 0 0 0 .05-.048.112.112 0 0 1 .042-.039c.01-.002.03-.032.042-.067.018-.05.03-.067.063-.08.022-.01.043-.027.047-.038a.715.715 0 0 1 .024-.057.61.61 0 0 0 .064-.182c0-.018.014-.041.036-.06.02-.018.036-.039.036-.046a.12.12 0 0 1 .025-.046.413.413 0 0 0 .049-.117.549.549 0 0 1 .04-.113.112.112 0 0 0 .019-.049.16.16 0 0 1 .018-.056.165.165 0 0 0 .016-.062c0-.016.006-.03.013-.035.006-.004.012-.021.012-.038 0-.045.055-.134.119-.192l.057-.051.008-.108a.365.365 0 0 1 .02-.115c.016-.01.013-.056-.007-.082a.081.081 0 0 1-.017-.04.138.138 0 0 0-.026-.052c-.024-.032-.026-.04-.013-.076.02-.054.018-.104-.004-.136-.013-.018-.016-.032-.009-.042.022-.027.026-.074.013-.127-.01-.04-.01-.058.003-.08.013-.025.012-.04-.004-.09a.416.416 0 0 1-.021-.096c0-.02-.01-.04-.024-.05-.013-.009-.025-.036-.028-.058-.01-.07-.02-.09-.057-.112-.025-.015-.035-.029-.035-.053a.094.094 0 0 0-.03-.062.572.572 0 0 1-.117-.268.22.22 0 0 0-.02-.083.05.05 0 0 1-.012-.032.056.056 0 0 0-.019-.036c-.01-.01-.018-.035-.018-.065 0-.039-.008-.058-.039-.091a.46.46 0 0 1-.055-.077.1.1 0 0 0-.044-.043c-.015-.006-.029-.024-.033-.045-.005-.026-.02-.044-.056-.064-.026-.015-.048-.033-.048-.042a.149.149 0 0 0-.035-.057c-.02-.022-.036-.051-.036-.065 0-.016-.013-.032-.035-.043a.202.202 0 0 1-.06-.053.19.19 0 0 0-.073-.053.159.159 0 0 1-.072-.062c-.014-.023-.036-.043-.047-.043a.05.05 0 0 1-.05-.05c0-.027-.052-.052-.137-.064-.067-.01-.088-.021-.103-.061a.077.077 0 0 0-.038-.04 4.41 4.41 0 0 0-.065-.024c-.03-.011-.04-.022-.04-.046 0-.022-.012-.039-.04-.056-.02-.013-.04-.037-.041-.051-.003-.018-.019-.033-.045-.044-.028-.012-.042-.027-.047-.051a.302.302 0 0 0-.025-.066.135.135 0 0 1-.017-.048c0-.02-.037-.037-.114-.056-.115-.028-.18-.05-.184-.061-.006-.018-.06-.014-.08.007-.028.027-.076.022-.089-.01a.11.11 0 0 0-.09-.071c-.024-.003-.041-.015-.054-.04-.017-.03-.034-.038-.127-.062-.123-.031-.213-.034-.256-.01-.051.03-.092.023-.123-.02a.264.264 0 0 0-.09-.065c-.061-.027-.063-.03-.063-.075 0-.058-.01-.085-.03-.085-.01 0-.022-.01-.029-.02-.01-.017-.035-.02-.18-.022-.146 0-.17.002-.183.02-.014.019-.047.022-.312.024-.293.002-.298.002-.316-.024-.01-.014-.03-.026-.044-.026a.332.332 0 0 1-.087-.026c-.045-.018-.066-.035-.078-.062-.02-.046-.08-.063-.275-.078-.082-.006-.137-.015-.14-.024-.006-.016-.1-.018-.117-.002a.892.892 0 0 1-.226.06c-.041 0-.115.037-.115.057 0 .03-.042.036-.162.026a5.763 5.763 0 0 0-.134-.01c-.008 0-.022-.008-.03-.016a.607.607 0 0 0-.24-.056.679.679 0 0 1-.127-.015c-.05-.012-.062-.02-.062-.038 0-.039-.07-.136-.113-.156-.05-.024-.134-.024-.229-.001zm4.421.08a.741.741 0 0 0-.159.048c-.022.014-.005.092.027.124.03.03.145.064.264.076.153.017.248-.004.255-.055.006-.04-.045-.085-.108-.094a.168.168 0 0 1-.08-.03.364.364 0 0 0-.199-.069zm-.783.15c-.045.025-.028.064.044.097.034.016.062.034.062.042 0 .007.043.032.096.054a.43.43 0 0 1 .105.054.337.337 0 0 0 .111.032c.183.033.227.027.227-.034 0-.034-.039-.052-.113-.052-.054 0-.08-.02-.096-.07-.009-.03-.028-.04-.117-.062-.031-.008-.057-.022-.057-.03 0-.022-.227-.049-.262-.03zm-9.089.05c-.062 0-.09.005-.102.018-.008.01-.029.018-.047.018-.042 0-.063.025-.058.068.003.027.014.037.058.054a.333.333 0 0 0 .241-.01c.05-.03.06-.078.02-.12-.023-.024-.036-.028-.112-.028zm.4.041c-.03.004-.05.013-.055.028a.178.178 0 0 1-.03.046c-.023.026-.023.026.004.045a.14.14 0 0 0 .038.02c.005 0 .02.01.033.023.032.032.14.035.152.004a.166.166 0 0 1 .039-.047c.029-.026.03-.029.012-.06-.014-.026-.034-.037-.087-.05a.308.308 0 0 0-.106-.009zm-1.032.133c-.054-.008-.092 0-.092.018 0 .006-.021.022-.046.035-.05.026-.076.058-.1.122-.014.042-.05.07-.088.07-.01 0-.019.006-.021.014-.003.007-.029.013-.06.012-.034 0-.06.005-.068.016-.024.028-.003.093.039.124.032.023.047.026.097.02a.397.397 0 0 0 .231-.087 7.34 7.34 0 0 1 .104-.094.19.19 0 0 0 .072-.112c.017-.065.015-.097-.006-.097-.005 0-.01-.007-.01-.016 0-.01-.02-.02-.052-.025zm11.238.005c-.025 0-.045.006-.045.011 0 .006-.018.022-.041.035-.043.026-.054.058-.028.084.008.008.014.048.015.092 0 .043.007.083.014.09a.451.451 0 0 0 .13.023.34.34 0 0 1 .124.022.41.41 0 0 0 .193.086c.036 0 .05.007.067.034.012.018.03.04.04.048.03.024.146.008.172-.023a.092.092 0 0 0 .02-.042.505.505 0 0 0-.13-.137c-.005 0-.022-.018-.038-.041a.102.102 0 0 0-.07-.05.533.533 0 0 1-.18-.087.188.188 0 0 0-.058-.035.396.396 0 0 1-.099-.067c-.032-.032-.05-.042-.086-.043zm-10.62.16a.112.112 0 0 0-.06.037c-.015.017-.028.039-.028.047 0 .013-.127.08-.153.08-.005 0-.023.016-.04.036-.025.028-.042.036-.08.036-.03 0-.063.01-.092.03a.174.174 0 0 1-.072.03c-.016 0-.03.006-.032.012-.002.007-.032.02-.067.028-.065.017-.146.062-.146.08a.547.547 0 0 1-.171.096.029.029 0 0 0-.025.018.029.029 0 0 1-.026.016.021.021 0 0 0-.02.014c-.003.007-.04.021-.083.031l-.103.024c-.045.011-.081.114-.05.146.026.026.155.01.177-.021a.892.892 0 0 1 .202-.09c.021-.005.039-.014.039-.02s.005-.011.013-.011c.007 0 .058-.014.114-.03a.318.318 0 0 0 .142-.072.433.433 0 0 1 .092-.067.31.31 0 0 0 .058-.034.157.157 0 0 1 .056-.024c.074-.02.16-.06.167-.078.007-.018.066-.042.105-.042.05 0 .12-.027.15-.058a.436.436 0 0 1 .064-.055c.029-.018.034-.028.03-.065-.005-.071-.091-.11-.16-.094zm10.475.19c-.018-.005-.037.002-.055.02a.203.203 0 0 1-.074.038.276.276 0 0 0-.063.024c-.015.013.031.107.075.155a.2.2 0 0 1 .038.05c0 .005.01.012.023.016a.12.12 0 0 1 .04.021c.033.032.118.08.164.095.027.008.049.02.049.025 0 .005.016.01.037.01a.16.16 0 0 1 .07.017c.037.021.052.017.057-.016.002-.015-.006-.03-.021-.04-.017-.01-.024-.028-.024-.054 0-.033-.009-.044-.05-.07-.027-.017-.051-.041-.054-.053-.003-.012-.028-.032-.056-.044-.039-.018-.05-.03-.056-.059a.27.27 0 0 0-.041-.086.119.119 0 0 0-.059-.05zm-11.742.051c-.03-.02-.12-.016-.165.007-.063.033-.077.104-.03.15.019.02.042.028.078.029.028 0 .05-.004.05-.01s.016-.015.035-.02c.063-.013.085-.12.032-.156zm12.748.26a.109.109 0 0 0-.071.025l-.068.055c-.052.04-.052.102 0 .131.02.011.036.024.036.03 0 .004.016.01.036.01.02 0 .036-.006.036-.012s.021-.015.048-.02a.156.156 0 0 0 .066-.025c.029-.028.022-.091-.012-.124-.017-.015-.03-.035-.03-.043 0-.018-.018-.027-.041-.028zM7.496 8.86c-.019-.005-.064.028-.133.098-.12.123-.285.234-.427.289-.093.036-.155.043-.399.047-.332.006-.43.032-.62.162-.194.13-.445.41-.445.494 0 .034.01.032.103-.022.166-.098.233-.112.617-.127.244-.01.397-.024.462-.045.273-.085.64-.436.812-.774.04-.077.048-.118.03-.122zm10.43.154.109.004c.068.003.11.01.113.018a.39.39 0 0 0 .093.066.37.37 0 0 1 .09.061c0 .006.018.026.04.046.043.037.091.123.091.159a.43.43 0 0 1-.035.095 1.034 1.034 0 0 1-.282.309.436.436 0 0 0-.069.053c-.011.017-.132.015-.137-.003a.272.272 0 0 0-.08-.052.416.416 0 0 1-.092-.058.428.428 0 0 0-.089-.059l-.07-.037-.047.044a.214.214 0 0 0-.044.053.87.87 0 0 1-.181.173.27.27 0 0 0-.063.049c-.014.023-.139.023-.148 0a.369.369 0 0 0-.107-.063.397.397 0 0 1-.1-.056.263.263 0 0 0-.073-.044c-.131-.067-.15-.116-.078-.21a.292.292 0 0 0 .042-.065c0-.005.011-.019.025-.032a.401.401 0 0 0 .053-.065.72.72 0 0 1 .064-.082.222.222 0 0 0 .038-.048c0-.004.032-.042.07-.083l.072-.074h.07c.074 0 .17.031.17.056 0 .008.005.015.012.015.02 0 .144.078.145.09 0 .019.08.068.099.06a1.23 1.23 0 0 0 .153-.164c0-.002.033-.04.074-.08zm-2.182.003h.094c.06 0 .1.006.11.015.009.009.058.04.109.069a.402.402 0 0 1 .093.062c0 .006.018.026.04.046.046.04.093.119.093.156 0 .038-.066.17-.1.202-.018.016-.033.035-.033.043 0 .008-.022.03-.048.049a.244.244 0 0 0-.06.054.23.23 0 0 1-.069.055.468.468 0 0 0-.079.055c-.018.019-.034.022-.078.017-.03-.003-.056-.012-.058-.02a.274.274 0 0 0-.078-.05.404.404 0 0 1-.092-.058.4.4 0 0 0-.092-.059l-.073-.036-.044.045a1.057 1.057 0 0 1-.228.23c-.009 0-.027.012-.041.029-.037.042-.14.044-.184.003a.5.5 0 0 0-.11-.062c-.044-.018-.08-.038-.08-.044 0-.006-.031-.026-.07-.046-.132-.066-.15-.119-.074-.215a.236.236 0 0 0 .037-.057c0-.006.021-.032.048-.058a.193.193 0 0 0 .047-.06c0-.007.019-.03.042-.053.023-.022.043-.048.043-.056s.021-.033.047-.057a.187.187 0 0 0 .048-.054c0-.026.056-.049.12-.049.071 0 .168.033.168.057 0 .009.005.014.011.014a.47.47 0 0 1 .145.09c0 .013.076.066.093.066.01 0 .158-.16.158-.17 0-.002.032-.038.072-.08zm7.415.467c-.049 0-.107.057-.107.103 0 .038.052.101.084.101a.04.04 0 0 1 .031.017c.005.01.024.02.04.022a.772.772 0 0 0 .091.007c.054.002.066-.003.107-.04.046-.041.046-.043.024-.06a.11.11 0 0 0-.03-.018c-.003 0-.012-.012-.019-.027-.018-.04-.087-.08-.14-.08-.024 0-.045-.006-.045-.013 0-.006-.016-.012-.036-.012zm-.542.037c-.027-.004-.055-.001-.063.011-.016.027-.01.107.01.13.013.014.02.038.018.062-.004.059.03.116.095.156.063.04.085.042.134.017.057-.03.067-.128.018-.171a.178.178 0 0 1-.042-.057.095.095 0 0 0-.045-.045c-.036-.016-.073-.055-.074-.076 0-.014-.025-.023-.051-.027zm.872.394c-.017 0-.03.006-.03.013 0 .006-.01.011-.022.011-.053 0-.119.086-.106.14.004.015.014.028.021.028.022 0 .1.04.11.056.014.022.08.02.088-.003.005-.012.024-.016.061-.016.044 0 .063-.008.09-.034.018-.017.033-.041.033-.053 0-.033-.066-.08-.143-.101-.04-.011-.073-.024-.073-.03 0-.005-.013-.01-.03-.01zm-.468.304c-.051.006-.1.026-.113.058-.012.032-.004.05.04.098.029.03.038.034.083.026.027-.004.056-.015.062-.023a.093.093 0 0 1 .045-.024c.026-.007.033-.014.033-.042a.114.114 0 0 0-.022-.061c-.023-.029-.077-.038-.128-.032zm-17.985.121c-.017 0-.341.493-.341.52 0 .009.069.071.153.139.096.077.164.12.185.114.055-.014.227-.21.269-.305a.263.263 0 0 0-.034-.29c-.045-.06-.2-.178-.232-.178zm18.704.127a.061.061 0 0 0-.042.018.06.06 0 0 1-.042.018c-.038 0-.065.03-.065.074 0 .02-.007.057-.014.08l-.023.077c-.008.027-.006.042.013.066a.111.111 0 0 1 .024.044c0 .008.01.023.023.035.013.012.024.028.024.036 0 .008.034.027.075.04a.5.5 0 0 0 .109.026c.048 0 .15-.048.157-.077.012-.044.007-.094-.012-.115-.013-.014-.02-.048-.023-.097-.002-.043-.008-.076-.016-.079-.008-.003-.014-.01-.014-.017 0-.025-.07-.093-.096-.093a.056.056 0 0 1-.037-.018.061.061 0 0 0-.041-.018zm-19.382.075c-.017.03-.049.114-.103.265-.15.413-.15.41-.166 1.012-.016.57-.035.728-.113.88a.484.484 0 0 1-.255.22c-.088.032-.311.06-.3.037a2.12 2.12 0 0 0 .236-.666c.007-.053.018-.351.028-.663a8.48 8.48 0 0 1 .039-.678c.045-.234 0-.172-.116.157-.089.251-.115.448-.142 1.049-.021.484-.03.57-.065.661a.415.415 0 0 1-.09.145c-.048.038-.05.045-.03.121.012.047.05.11.09.148.057.058.079.067.158.067.214 0 .417-.179.588-.52l.101-.202.063.052c.076.063.133.077.231.052.152-.039.295-.257.38-.581.089-.337.07-.48-.032-.255a.546.546 0 0 1-.108.164c-.106.083-.259.04-.328-.093-.063-.122-.09-.428-.078-.834.007-.212.017-.428.023-.48.006-.065.005-.088-.011-.058zm1.874.206c-.012-.012-.107.19-.213.456-.08.202-.108.362-.143.845-.028.375-.086.79-.135.946a2.63 2.63 0 0 0-.038.126c0 .004.01.003.024 0 .039-.013.143-.203.214-.39.12-.313.14-.427.204-1.19a8.56 8.56 0 0 1 .07-.631.598.598 0 0 0 .017-.162zm17.019.042c-.012 0-.025.008-.028.018-.004.01-.013.018-.021.018-.008 0-.027.012-.04.027-.02.02-.027.048-.032.115a.325.325 0 0 1-.02.105c-.03.035.02.285.078.394.01.02.018.054.018.078 0 .023.008.049.015.057.016.015.116.02.136.006a.359.359 0 0 0 .066-.141c0-.014.007-.031.014-.04.011-.01.011-.025 0-.06-.017-.059-.018-.104-.001-.136.01-.018.008-.034-.008-.068a.23.23 0 0 1-.02-.094c.001-.036-.004-.058-.02-.073a.282.282 0 0 1-.043-.086c-.023-.071-.061-.12-.094-.12zm-7.482.396c-.079 0-.254.051-.254.073a.23.23 0 0 1-.042.05c-.023.022-.041.046-.041.053 0 .024.068.061.147.081.044.011.08.025.08.03 0 .006.014.012.03.012.017 0 .03-.006.03-.013 0-.006.01-.01.022-.01.035 0 .16-.036.221-.063.053-.024.056-.03.056-.069 0-.065-.04-.104-.13-.126a.618.618 0 0 0-.12-.019zm-12.72.022c-.014.004-.051.059-.083.121-.078.154-.128.186-.281.187a.413.413 0 0 0-.145.018c-.014.01-.027.01-.035-.002-.022-.035-.065-.022-.1.03-.029.045-.036.117-.046.468-.016.559-.07.773-.262 1.06-.263.393-.72.63-1.166.605-.324-.017-.552-.134-.661-.338-.13-.243-.105-.46.132-1.123a.69.69 0 0 0 .05-.18c-.02-.02-.24.467-.317.7-.166.5-.179.904-.04 1.177.087.168.326.339.54.384.14.03.378.008.554-.05.632-.209 1.132-.963 1.297-1.957a1.86 1.86 0 0 1 .05-.237.58.58 0 0 1 .205-.228.617.617 0 0 0 .254-.297c.068-.144.1-.353.055-.338zm20.617.037-.013.048a.19.19 0 0 0 0 .096c.01.041.018.05.059.061.025.008.046.02.046.025 0 .02.106.01.13-.01a.352.352 0 0 1 .06-.043l.04-.02-.04-.058a.369.369 0 0 0-.05-.061.125.125 0 0 1-.026-.02c-.012-.013-.046-.018-.112-.018zm.165.613c-.042-.002-.072.003-.091.016a.13.13 0 0 1-.06.018c-.036 0-.04.01-.046.089a.142.142 0 0 1-.03.083.107.107 0 0 0-.026.064c0 .02-.008.043-.017.05a.676.676 0 0 0-.067.115c-.047.093-.05.107-.046.175l.006.074-.086.09c-.08.083-.087.095-.094.151-.006.05 0 .084.028.174.038.118.045.158.025.158-.006 0-.012.006-.012.015 0 .022-.115.057-.19.057-.083 0-.145-.028-.18-.08-.026-.036-.03-.055-.029-.137.001-.078.005-.101.024-.123a.532.532 0 0 0 .088-.18c0-.037.043-.12.082-.157.02-.02.038-.041.038-.049 0-.007.018-.032.041-.054a.199.199 0 0 0 .042-.049.17.17 0 0 1 .036-.044c.034-.034.035-.042.035-.134 0-.087-.003-.103-.03-.14-.028-.036-.039-.04-.09-.04-.082 0-.127.011-.135.034a.263.263 0 0 1-.018.037.355.355 0 0 0-.061.191c0 .09-.019.15-.053.173-.022.014-.03.034-.035.088a.21.21 0 0 1-.02.08c-.006.007-.012.03-.012.052 0 .032-.009.045-.053.075a.194.194 0 0 0-.065.071.18.18 0 0 1-.06.068c-.027.02-.05.043-.05.052a.138.138 0 0 1-.025.051c-.058.081-.084.146-.077.186.006.03.002.041-.017.051a.119.119 0 0 1-.046.013c-.012 0-.028.01-.036.023-.008.013-.041.032-.075.044-.054.018-.064.026-.084.072a.122.122 0 0 1-.057.067.48.48 0 0 0-.146.135c0 .007-.024.029-.053.049-.03.02-.055.045-.057.058-.002.013-.031.046-.065.073a.285.285 0 0 0-.064.06c-.001.006-.028.028-.062.047s-.064.044-.067.056c-.003.011-.032.032-.065.047-.034.016-.066.041-.074.058a.076.076 0 0 1-.054.04.23.23 0 0 0-.075.033.138.138 0 0 1-.07.025c-.029 0-.039.005-.045.03-.008.034-.037.054-.082.054-.04 0-.078.02-.078.04 0 .008-.022.026-.05.039-.028.013-.057.034-.064.049a.175.175 0 0 1-.107.092c-.03.011-.054.03-.057.043-.004.014-.025.027-.059.036a.491.491 0 0 0-.083.03.146.146 0 0 1-.05.017.03.03 0 0 0-.026.018c-.005.013-.026.019-.079.019H20.5l-.072.072a.378.378 0 0 1-.102.078.095.095 0 0 0-.043.025c-.008.01-.021.017-.03.017-.008 0-.028.013-.046.029a.385.385 0 0 1-.117.056.365.365 0 0 0-.103.044.81.81 0 0 1-.189.09.192.192 0 0 0-.042.022.373.373 0 0 1-.167.064.137.137 0 0 0-.125.036c-.026.027-.096.052-.252.086a.31.31 0 0 0-.09.03c-.015.022-.134.058-.193.058-.052 0-.066.005-.095.036a.39.39 0 0 1-.195.095c-.066 0-.126.113-.068.128.013.004.024.011.024.017 0 .023.057.04.13.037.102-.003.145-.012.145-.03 0-.02.07-.044.108-.036.02.004.052-.004.089-.024.05-.027.072-.032.17-.032.109 0 .113 0 .113.028 0 .024-.053.082-.112.12-.024.015.016.031.078.032.035 0 .06.006.066.016.018.031.06.046.089.03.03-.015.194-.004.287.02.034.01.072.012.086.007.056-.02.316.022.336.055.01.018.068.022.068.004 0-.006.008-.013.018-.013.01 0 .017.006.017.013 0 .02.073.014.08-.006.004-.01.02-.018.035-.018.016 0 .032-.004.035-.01a.214.214 0 0 1 .067-.032.255.255 0 0 0 .08-.041c.014-.014.046-.024.094-.028.078-.007.196-.06.196-.09 0-.008.006-.015.013-.015a.68.68 0 0 0 .202-.107c.007-.014.032-.024.07-.03a.266.266 0 0 0 .093-.03.151.151 0 0 1 .067-.025.114.114 0 0 0 .064-.03c.018-.016.038-.03.046-.03.022 0 .068-.05.068-.074 0-.013.02-.03.052-.046a.283.283 0 0 0 .075-.054c.023-.028.187-.084.278-.097.022-.003.04-.01.04-.016 0-.005.013-.013.031-.018a1.02 1.02 0 0 0 .166-.067.092.092 0 0 0 .036-.039.169.169 0 0 1 .066-.054.2.2 0 0 0 .064-.047.588.588 0 0 1 .061-.071.174.174 0 0 1 .106-.062c.063-.011.105-.043.138-.107a.106.106 0 0 1 .061-.056c.022-.007.043-.02.046-.03a.496.496 0 0 1 .066-.084c.067-.074.176-.224.176-.244a.29.29 0 0 1 .098-.091c.005 0 .01-.007.01-.016 0-.009.01-.026.025-.039a.211.211 0 0 0 .043-.062c.012-.03.034-.048.082-.071a.228.228 0 0 0 .066-.04c0-.005.024-.034.054-.066a.252.252 0 0 0 .053-.074c0-.008.017-.024.037-.036.045-.026.083-.105.084-.176 0-.027.012-.071.026-.099.083-.155.097-.197.14-.418.039-.202.056-.245.122-.303.025-.022.046-.046.046-.053 0-.007.008-.021.018-.032a.324.324 0 0 0 .03-.113.463.463 0 0 1 .043-.148.251.251 0 0 0 .029-.087c0-.017.006-.037.013-.044a.267.267 0 0 0 .019-.09l.007-.077-.053-.065c-.05-.063-.055-.066-.116-.07zm-22.515.138a1.85 1.85 0 0 0-.17.256l-.15.248.082.067c.045.037.122.105.17.15a.358.358 0 0 0 .114.081c.04.001.196-.172.248-.277.056-.112.056-.201.002-.288-.045-.074-.262-.247-.296-.237zm1.452 2.358a4.08 4.08 0 0 0-.321.483c-.008.02.001.039.023.05.02.01.09.064.158.118.067.053.13.098.14.098.03 0 .166-.156.227-.26.06-.1.072-.194.035-.265-.047-.092-.201-.224-.262-.224zm-.596.04c-.028 0-.312.403-.337.478-.006.02.044.07.147.15.085.065.159.119.162.119.032 0 .119-.084.191-.185.097-.136.123-.239.084-.333-.029-.07-.202-.23-.247-.23zm7.138.566c-.018 0-.022.016-.029.13-.008.136 0 .18.035.18.022 0 .125.051.125.062 0 .004.037.026.081.047a.435.435 0 0 1 .093.054.39.39 0 0 0 .096.053c.089.04.136.04.176.005.026-.024.028-.068.006-.087a.22.22 0 0 1-.038-.06c-.022-.047-.096-.097-.146-.097-.013 0-.04-.013-.057-.03a.596.596 0 0 0-.085-.06c-.03-.018-.055-.037-.055-.042 0-.006-.011-.014-.026-.019a.28.28 0 0 1-.14-.103c-.008-.019-.024-.033-.036-.033zm.057.653c-.088-.006-.103-.005-.11.011a2.17 2.17 0 0 0-.008.237v.216l.033.043a.352.352 0 0 1 .046.078c.015.042.111.103.165.103.018 0 .037.008.04.018.004.011.022.018.045.018.031 0 .042-.008.07-.05a.207.207 0 0 0 .033-.076c0-.014.013-.038.029-.052.017-.014.03-.033.03-.043 0-.01.014-.03.03-.045.034-.032.054-.1.054-.183 0-.09-.018-.12-.107-.165a.547.547 0 0 1-.09-.053c-.019-.02-.142-.048-.26-.057zm9.36.19c-.013.003-.023.012-.043.032-.023.021-.042.047-.042.055 0 .01-.015.017-.039.017-.055.001-.146.047-.15.077-.003.019.013.031.078.06.078.034.085.034.32.039.193.003.243.006.253.02.008.01.026.018.042.019.016 0 .04.005.053.01a.507.507 0 0 0 .21 0c.013-.006.024-.019.024-.027 0-.009.019-.024.042-.035.044-.021.05-.04.026-.071-.015-.02-.097-.033-.344-.057-.204-.02-.208-.021-.263-.071a.254.254 0 0 0-.11-.061c-.03-.007-.044-.01-.057-.007zm-.082.465c-.018-.003-.027.001-.027.014 0 .012.01.02.03.02.038 0 .035-.029-.003-.034z"/></svg>