<svg role="img" viewBox="0 0 24 24" xmlns="http://www.w3.org/2000/svg"><path d="M8.82 23.912a6.046 6.046 0 0 1-.264-.094 1.55 1.55 0 0 1 .055-.221c.035-.119.063-.228.063-.244 0-.03-.463-.21-.494-.191a1.13 1.13 0 0 0-.103.194.792.792 0 0 1-.1.182c-.024 0-.578-.197-.626-.222-.035-.018-.036-.039-.007-.199l.045-.243c.01-.062 0-.07-.22-.155-.128-.05-.247-.085-.264-.078a.547.547 0 0 0-.108.155 4.165 4.165 0 0 1-.1.176c-.018.027-.077.014-.311-.068a7.023 7.023 0 0 1-.296-.108 4.284 4.284 0 0 1 .079-.332c.054-.211.11-.367.157-.44.167-.261.478-1.008.747-1.798.065-.188.124-.35.132-.358.008-.009.295-.044.637-.08.343-.035.67-.07.727-.078l.103-.015-.047-.089c-.111-.213-.75-.99-.863-1.051-.05-.027-.1-.003-.52.249-.254.154-.738.43-1.074.615-.336.184-.622.345-.635.358-.036.034.045.318.26.901.219.59.29.827.288.953-.001.084-.003.082-.079-.073-.742-1.522-.962-1.93-1.132-2.105-.091-.093-.156-.127-1.485-.778-.415-.204-.75-.375-.744-.381a19.5 19.5 0 0 1 .982.297c.533.169.985.302 1.003.295.076-.03.666-1.018 1.071-1.795.143-.275.191-.39.18-.431-.027-.112-.694-.66-.998-.822a.655.655 0 0 0-.152-.069c-.004.005-.042.316-.083.693-.072.66-.076.686-.136.733-.139.111-2.688 1.137-2.824 1.137-.01 0-.07-.123-.132-.273-.081-.196-.106-.281-.088-.303a.813.813 0 0 1 .183-.098c.087-.037.158-.08.158-.098 0-.062-.201-.548-.227-.548-.015 0-.118.03-.23.066a.965.965 0 0 1-.21.055 8.068 8.068 0 0 1-.234-.645l.186-.11a.888.888 0 0 0 .177-.118 3.07 3.07 0 0 0-.061-.218c-.078-.255-.114-.284-.289-.238-.07.019-.166.034-.215.034H.613l-.104-.294a2.261 2.261 0 0 1-.094-.302c.021-.019 2.775-1.195 2.82-1.205.034-.007.12.053.294.205.483.422.722.6.853.633.052.013.063.007.063-.033 0-.026.027-.311.06-.632.08-.77.085-.705-.054-.776-.262-.131-1.163-.392-1.962-.566l-.403-.088-.067.08c-.092.11-.224.37-.446.876-.186.425-.32.674-.393.735-.034.028-.036.023-.021-.04.009-.04.152-.478.317-.976.166-.497.319-.989.34-1.092.037-.187.037-.19-.026-.391-.059-.184-.184-.486-.654-1.571-.123-.285-.153-.376-.134-.411.035-.066.08-.02.184.189.047.095.235.432.417.75l.332.578.82-.28a155.91 155.91 0 0 1 1.225-.417 4.87 4.87 0 0 0 .425-.155c.017-.015-.203-1.322-.242-1.436-.007-.02-.191.134-.483.403-.259.24-.494.456-.522.48-.05.043-.083.034-1.27-.323-1.323-.398-1.77-.55-1.77-.604 0-.019.035-.166.078-.327l.077-.292.248.015.248.015.061-.236c.069-.262.072-.253-.102-.33a.97.97 0 0 1-.17-.098l-.06-.049.094-.288a3.11 3.11 0 0 1 .11-.307c.009-.01.098.004.199.03.1.027.194.048.208.049.025 0 .222-.53.204-.549a3.955 3.955 0 0 0-.199-.11.935.935 0 0 1-.189-.12c0-.029.198-.528.218-.548.037-.039.57.107 1.725.471.832.263 1.186.385 1.216.42.09.106.186.542.24 1.096.015.155.031.285.036.29a.815.815 0 0 0 .175-.096c.157-.1.936-.85.936-.9 0-.062-1.19-1.795-1.41-2.052l-.069-.08-.21.073c-.114.041-.422.18-.684.308-.463.228-.725.33-.844.33-.096 0-.067-.031.12-.132.658-.355 1.868-1.127 1.986-1.267.059-.069.836-1.616 1.002-1.992a.638.638 0 0 1 .075-.146c.004.004-.124.434-.285.955-.16.52-.292.954-.292.964 0 .01.113.075.25.145.138.07.466.256.728.412.715.427 1.191.67 1.31.67.044 0 .496-.552.696-.85.156-.232.198-.322.15-.323a71.632 71.632 0 0 1-1.388-.128c-.03-.034-1.018-2.42-1.088-2.628-.084-.25-.089-.277-.051-.297.082-.043.479-.198.51-.198.016 0 .073.058.126.129.176.237.163.233.419.127.122-.051.227-.1.233-.11a.98.98 0 0 0-.06-.228L6.622.78l.09-.037.317-.138a1.43 1.43 0 0 1 .235-.09c.004.005.054.089.11.186.056.098.113.178.126.178a4.4 4.4 0 0 0 .492-.193c.009-.008-.01-.098-.043-.198A1.55 1.55 0 0 1 7.89.266c0-.026.088-.069.287-.14.158-.057.3-.103.315-.103.015 0 .107.184.205.41.097.225.346.79.553 1.256.426.959.449 1.018.449 1.147 0 .095-.08.206-.515.72-.068.08-.145.187-.171.236-.048.092-.063.203-.03.223.037.022 1.326.148 1.342.132.013-.013.585-2.117.677-2.489.015-.062.008-.067-.344-.207-.426-.17-1.296-.596-1.36-.668l-.046-.05.18.05c.1.027.506.158.902.292.397.133.815.266.929.296.39.1.533.074 1.617-.299.642-.22 1.067-.345 1.102-.324.033.02.02.058-.024.074-.048.017-.66.294-1.146.518a4.239 4.239 0 0 1-.434.178c-.062.017-.113.041-.113.054 0 .047.64 2.546.656 2.56.019.016 1.423-.118 1.443-.138.036-.036-.269-.46-.632-.879-.115-.131-.205-.25-.2-.264.003-.014.215-.532.47-1.152.44-1.072.734-1.699.798-1.7.058 0 .55.206.562.236a.737.737 0 0 1-.051.22c-.035.104-.056.197-.046.207.028.026.53.212.547.202.008-.005.063-.089.12-.187l.11-.184c.007-.01.51.216.537.241.015.015.008.099-.02.236-.044.213-.044.213.006.255a.958.958 0 0 0 .216.095l.19.064c.014.005.08-.063.146-.15a.702.702 0 0 1 .168-.175c.056-.018.528.205.528.248 0 .015-.027.108-.06.206a1.99 1.99 0 0 0-.078.303.424.424 0 0 1-.084.211c-.103.13-.313.588-.536 1.173-.19.497-.373.945-.398.97a12.87 12.87 0 0 1-.715.07 17.93 17.93 0 0 0-.711.068c-.045.045.817 1.166.897 1.166.025 0 2.217-1.19 2.256-1.224.028-.024-.03-.22-.217-.732-.171-.47-.245-.724-.268-.929-.025-.223-.03-.234.605 1.076.276.569.408.804.5.885.082.074 1.013.504 1.873.864.2.084.35.16.335.17-.074.045-.449-.044-1.187-.281-.629-.203-.716-.22-.773-.156-.096.11-.82 1.498-1.059 2.034l-.091.204.07.074c.107.114.432.372.66.524.183.121.47.263.491.242.004-.004.024-.32.043-.7.02-.38.044-.7.054-.709.01-.009.541-.264 1.18-.567.981-.465 1.555-.714 1.645-.714.02 0 .261.54.261.585 0 .014-.077.073-.171.131a1.65 1.65 0 0 0-.171.114c0 .023.178.468.194.485.01.011.12-.015.243-.058.124-.043.229-.074.234-.069.018.019.285.614.278.62l-.186.113c-.205.124-.202.102-.056.419l.098.212.213-.073c.118-.04.222-.063.232-.053.01.01.073.142.14.293l.122.274-.236.14c-.13.077-.391.202-.58.278a8.993 8.993 0 0 0-1.245.61c-.214.124-.433.24-.485.259-.252.089-.427.015-.891-.375-.22-.185-.401-.3-.499-.315l-.084-.014-.046.723a9.12 9.12 0 0 0-.03.739c.014.014 2.516.545 2.574.546.014 0 .06-.1.1-.225.042-.124.176-.46.297-.747.122-.286.241-.58.264-.654.024-.074.054-.13.068-.125.047.017.021.219-.066.518l-.22.758c-.15.512-.213.825-.213 1.055 0 .195.105.544.375 1.245.217.562.347.942.372 1.085.018.103-.098-.106-.587-1.06-.198-.385-.348-.65-.364-.644-.016.006-.578.162-1.25.347-.673.185-1.23.343-1.238.352-.024.023.117 1.172.161 1.316.022.07.053.129.07.128.053 0 .361-.249.655-.529.16-.152.318-.283.353-.292a.498.498 0 0 1 .153-.004c.113.016 1.697.645 2.009.799.127.063.353.157.5.209.149.051.277.1.287.109.013.01-.185.633-.208.652a2.943 2.943 0 0 1-.23-.05c-.163-.04-.233-.048-.247-.029-.027.036-.183.48-.172.49.005.004.084.048.176.1.091.05.172.107.18.126.018.047-.188.62-.224.62-.016 0-.11-.028-.209-.062a1.56 1.56 0 0 0-.21-.061c-.025 0-.218.51-.2.527l.182.118.176.113-.096.284a4.47 4.47 0 0 1-.105.294c-.031.032-.738-.203-1.311-.436a3468 3468 0 0 0-1.161-.47l-.49-.198-.077-.693a11.617 11.617 0 0 0-.091-.706c-.065-.065-1.139.785-1.139.902 0 .087.21.466.623 1.12.28.444.453.748.547.959l.074.164.13-.038c.071-.022.42-.147.777-.278.703-.26 1.124-.394 1.124-.357 0 .006-.302.165-.672.355-.716.367-1.312.683-1.457.774-.137.086-.352.537-.855 1.794-.105.262-.191.472-.192.465-.005-.061.19-.969.268-1.247.055-.195.106-.401.114-.458l.015-.104-1.138-.562a41.834 41.834 0 0 0-1.16-.562c-.023 0-.8 1.11-.827 1.18-.012.031.057.039.446.052.253.008.574.023.712.033l.253.018.52 1.088c.45.939.747 1.635.747 1.75 0 .028-.175.122-.455.243l-.077.034-.075-.14c-.14-.26-.105-.252-.416-.116-.15.066-.272.133-.272.15 0 .018.027.118.06.222.033.105.052.198.043.207a6.36 6.36 0 0 1-.586.265.946.946 0 0 1-.137-.184 2.044 2.044 0 0 0-.127-.183c-.004 0-.112.049-.239.108l-.23.107.033.192c.018.106.038.216.045.244.011.047-.018.065-.268.169a2.04 2.04 0 0 1-.29.107 6.115 6.115 0 0 1-.37-.705c-.043-.132-.167-.383-.595-1.203-.22-.423-.37-.778-.37-.88 0-.028.143-.244.319-.48a6.12 6.12 0 0 0 .39-.57l.073-.143-.055-.012a26.459 26.459 0 0 0-1.422-.06c-.019.02-.506 2.494-.498 2.531.005.024.308.172.818.399.445.198.83.368.853.377.023.009.037.02.032.026-.02.02-.429-.083-1.152-.29-.777-.222-1.047-.283-1.252-.283-.19 0-.538.096-1.055.293-.809.308-1.33.472-1.37.431-.007-.007.123-.078.29-.158 1.298-.626 1.565-.763 1.552-.795a116.74 116.74 0 0 1-.321-1.131l-.346-1.225c-.045-.155-.007-.15-.665-.079-.463.051-.786.128-.786.187 0 .042.388.523.655.812l.217.235-.494 1.173c-.497 1.18-.747 1.7-.818 1.697a2.87 2.87 0 0 1-.294-.09zm.265-.723c.043-.052.264-.555.523-1.19.198-.484.245-.624.245-.724.001-.225-.15-.452-.634-.956l-.24-.249-.709.05a9.32 9.32 0 0 0-.725.065 75.583 75.583 0 0 0-.827 2.034c0 .062 1.079.537 2.029.894.323.121.304.117.338.076zm7.096-.398l1.115-.504c.299-.136.544-.254.544-.263 0-.046-.13-.39-.256-.674-.163-.37-.613-1.262-.677-1.343-.043-.055-.055-.056-.731-.074l-.687-.018-.086.082c-.047.045-.16.182-.253.304-.092.122-.24.309-.328.415a1.192 1.192 0 0 0-.184.278c-.028.1 0 .239.082.423l.222.495c.315.705.556 1.137.634 1.137.019 0 .291-.116.605-.258zm-3.506-2.009c.178-.841.335-1.541.35-1.556.05-.05.666-.023 1.323.057.345.041.673.075.728.075h.101l.56-.849c.307-.467.576-.874.598-.904l.04-.054.127.05c.34.132.64.28 1.378.675.813.435 1.37.706 1.397.68.034-.034-.167-.39-.838-1.48-.486-.79-.706-1.169-.747-1.288-.026-.074-.022-.082.076-.17.153-.14.325-.27.866-.659.269-.193.548-.404.62-.468l.132-.117-.188-1.071a23.906 23.906 0 0 1-.178-1.082c.006-.006.7-.205 1.542-.442.842-.237 1.53-.439 1.53-.448 0-.01-.04-.025-.091-.035-.181-.034-3.023-.699-3.034-.71-.006-.006.04-.498.104-1.093.064-.594.107-1.084.096-1.088a62.05 62.05 0 0 1-.905-.592l-.885-.585.037-.13c.057-.197.338-.76.675-1.354.167-.294.349-.617.404-.718.128-.235.305-.652.295-.694-.005-.02-.493.235-1.4.734-.767.421-1.401.766-1.41.766-.033.001-.388-.465-.643-.843-.284-.42-.526-.74-.643-.851l-.074-.07-1.068.17c-.706.111-1.071.16-1.078.142l-.438-1.541a157.92 157.92 0 0 0-.444-1.553c-.017-.043-.024-.018-.143.55-.259 1.234-.636 2.555-.73 2.555-.017 0-.49-.066-1.054-.147a73.554 73.554 0 0 0-1.051-.147c-.034 0-.215.25-.55.758-.261.395-.62.886-.7.959-.045.04-.106.01-1.488-.75-.793-.434-1.445-.781-1.449-.77-.023.06.254.493.79 1.233.654.905.835 1.172.952 1.404a.605.605 0 0 1 .061.154c0 .017-.08.088-.177.158a9.87 9.87 0 0 0-.53.437c-.382.335-.698.58-.825.641-.044.021-.08.057-.08.08 0 .022.11.501.244 1.064.135.563.245 1.04.245 1.06 0 .027-.226.122-.764.324-1.448.544-2.25.85-2.263.862-.007.007-.008.016-.002.02s.704.204 1.55.444c.847.24 1.55.445 1.564.456.014.013-.034.404-.13 1.042a44.472 44.472 0 0 0-.151 1.06c0 .036.256.23 1.56 1.188.152.111.176.139.163.185-.04.135-.408.803-.825 1.5-.455.76-.744 1.293-.717 1.32.008.008.182-.079.387-.193l1.434-.8a43.577 43.577 0 0 1 1.064-.583c.168.29.279.45.758 1.095a8.64 8.64 0 0 1 .468.684l1.077-.17a23.47 23.47 0 0 1 1.08-.16c.009.009.503 1.735.787 2.75.054.19.163.407.191.38.01-.01.161-.705.34-1.547zm-.873-4.149c0-.056.09-.14.375-.351.589-.437.795-.666 1.328-1.475.373-.567.58-.812.82-.972.273-.183.617-.242.932-.16.185.049.175.05.24-.055.132-.214.32-.372.443-.372.101 0 .34-.14.55-.32.112-.096.208-.17.215-.163.023.023-.046.28-.107.393-.083.153-.195.24-.474.363a3.455 3.455 0 0 0-.313.155c-.209.131-.401.428-.55.849-.037.104-.07.19-.074.19-.003 0-.034-.06-.068-.132-.096-.202-.187-.248-.494-.248-.223 0-.255.006-.371.071-.195.108-.354.284-.644.713-.414.613-.747.965-1.172 1.238-.217.139-.636.32-.636.276zm-1.735-.31c0-.01.022-.108.05-.22.026-.112.087-.471.133-.798.095-.659.12-.77.255-1.15.11-.31.158-.408.209-.427.046-.018.046-.04 0 .607-.058.835-.07.9-.25 1.381-.186.5-.258.632-.34.627-.032-.002-.057-.01-.057-.02zm.806-.073c0-.058.161-.241.304-.346.182-.134.342-.302.397-.418.038-.08.038-.092-.004-.202a.767.767 0 0 0-.2-.265c-.084-.081-.154-.164-.154-.184 0-.033.257-.68.28-.701.016-.018.105.04.255.164.291.243.361.529.235.965-.12.416-.284.652-.55.794-.182.097-.562.228-.562.193zm-2.542-.111c0-.011.04-.077.086-.147a1.41 1.41 0 0 1 .317-.3c.384-.288.508-.478.712-1.09.162-.486.175-.515.214-.476.018.019.027.128.026.315a1.457 1.457 0 0 1-.069.504c-.217.719-.454 1.013-.91 1.132-.251.066-.376.086-.376.062zm-.537-2.56a3.289 3.289 0 0 1-.764-.154l-.19-.062v-.138c0-.331.146-.657.416-.931.211-.215.394-.34.855-.587.563-.301.599-.327.794-.57.202-.252.323-.374.347-.35.044.044-.125.421-.297.665-.209.294-.386.412-.93.62a2.686 2.686 0 0 0-.402.193c-.126.085-.294.29-.294.359 0 .06.445.153 1.002.212.417.044 2.172.044 2.604 0 .404-.041.843-.115.949-.16l.082-.034.055-.35c.13-.834.22-1.175.41-1.544a2.01 2.01 0 0 1 .69-.739c.287-.193.315-.222.428-.44a1.78 1.78 0 0 1 .145-.24l.058-.07.183.024a.8.8 0 0 1 .395.14c.062.047.056.271-.012.426-.103.233-.249.33-.738.493-.449.15-.63.246-.837.448-.242.235-.378.525-.439.93-.03.209-.08.905-.065.92.033.034.642-.06 2.228-.345 1.731-.312 2.335-.405 2.776-.429.314-.017.37.002.281.096-.132.141-.626.35-1.277.539-1.732.503-4.225.93-6.28 1.076-.624.044-1.775.045-2.173.001zM10.518 12a.869.869 0 0 1-.193-.145l-.094-.096.13-.333c.148-.38.134-.37.378-.234.297.165.31.422.035.74-.055.065-.113.117-.129.117a.52.52 0 0 1-.127-.05zm3.147-.093c-.044-.01-.08-.028-.08-.041-.002-.068.23-.247.5-.385.354-.18.504-.322.698-.656.186-.32.447-.577.77-.756.194-.108.256-.156.31-.242.07-.108.114-.26.085-.288a.858.858 0 0 0-.177-.046c-.204-.038-.35-.006-.496.11-.056.045-.109.074-.117.066-.023-.023.062-.222.143-.333a.482.482 0 0 1 .182-.15c.098-.044.142-.047.42-.032.203.01.365.006.466-.012a.748.748 0 0 1 .164-.02.527.527 0 0 1-.022.144c-.027.113-.056.159-.177.281-.085.087-.227.28-.347.476-.246.4-.34.5-.631.672-.273.16-.368.264-.56.609-.269.484-.43.602-.83.613a1.916 1.916 0 0 1-.301-.01zm2.713-.5a.452.452 0 0 1-.103-.134c0-.06.205-.544.23-.543.07 0 .23.123.299.227.041.064.081.122.088.129.007.007.052-.057.1-.142.047-.085.109-.176.137-.2.05-.046.052-.045.184.073l.134.12-.012.13c-.014.153-.038.208-.139.314-.07.075-.075.076-.156.042a1.861 1.861 0 0 1-.218-.12l-.134-.087-.048.11c-.036.084-.068.12-.137.148a.645.645 0 0 1-.106.037.627.627 0 0 1-.119-.104zm-8.12-.562c0-.072.12-.218.257-.313.305-.21.428-.365.428-.536 0-.132-.06-.236-.24-.421L8.59 9.46l.146-.36c.08-.197.158-.363.174-.368.04-.013.343.278.41.395a.97.97 0 0 1 .087.242c.036.18-.011.435-.137.735-.176.422-.328.561-.762.7-.26.084-.25.082-.25.042zm2.243-.115c-.165-.13-.228-.49-.207-1.186.017-.552.068-.992.153-1.329.064-.252.188-.54.259-.605.056-.051.056-.045.01.247-.109.686-.152 1.304-.113 1.626.042.346.11.463.314.532.13.045.193.004.276-.178.04-.087.082-.159.094-.159.035 0 .057.184.039.317-.036.261-.278.633-.479.735-.121.062-.267.062-.346 0zm6.3-.006c-.088-.046-.257-.224-.257-.27 0-.114.23-.458.306-.458.017 0 .086.045.155.1.104.082.126.113.126.177a.539.539 0 0 1-.127.348c-.098.112-.144.135-.204.103zm-4.925-.21c0-.01.081-.475.181-1.033.18-1.003.23-1.2.357-1.405.047-.076.138-.15.157-.129a7.67 7.67 0 0 1-.038.485c-.112 1.178-.254 1.737-.508 2.005-.087.09-.15.123-.15.077zm3.302-2.393a.648.648 0 0 1-.203-.138c-.084-.086-.096-.111-.085-.18.02-.118.159-.386.26-.5.106-.12.127-.115.314.09.15.163.176.258.115.417-.048.126-.22.354-.264.35a.88.88 0 0 1-.136-.039zm-3.742-.612a.84.84 0 0 1 .071-.142c.097-.169.335-.383.534-.48l.165-.08.537.006.538.007.306-.146c.168-.08.309-.137.313-.125.012.036-.109.252-.203.362-.167.192-.462.36-.783.444-.231.06-.368.063-.645.011-.287-.054-.43-.038-.64.072-.183.096-.193.1-.193.071zM3.204 17.28c.548-.217 1-.402 1.006-.411.006-.01.036-.16.067-.335a3.59 3.59 0 0 0 .057-.672c.001-.438-.016-.481-.277-.694-.101-.082-.261-.22-.356-.306a3.437 3.437 0 0 0-.334-.264l-.161-.107-.988.408c-.543.224-.994.414-1.003.423-.014.013.233.643.777 1.977.095.234.174.394.19.388l1.022-.407zm18.98-.116c.028-.064.245-.593.482-1.176.407-.998.43-1.06.388-1.093-.117-.088-.411-.222-.772-.35a9.887 9.887 0 0 1-.678-.273c-.255-.118-.298-.13-.456-.132-.2 0-.234.017-.695.387-.406.325-.512.518-.511.93 0 .24.02.4.1.787l.051.247 1.006.393c.553.217 1.013.394 1.021.395.008 0 .038-.051.065-.115zM3.14 9.595c.085-.043.18-.129.316-.286a4.4 4.4 0 0 1 .378-.381c.154-.132.182-.167.175-.222a89.303 89.303 0 0 0-.206-1.46 80.912 80.912 0 0 0-2.105-.669c-.005.005-.191.56-.415 1.232L.877 9.032l.092.028.934.297c.464.149.865.275.892.281.12.027.231.013.345-.044zm18.113-.291c.533-.23 1.487-.706 1.568-.784.026-.025-.06-.235-.474-1.153a46.95 46.95 0 0 0-.527-1.144c-.011-.014-.138.03-.307.106-.935.418-1.71.77-1.733.788-.019.014-.033.228-.044.638a14.9 14.9 0 0 1-.03.705c-.011.084-.005.093.118.182.071.052.265.21.43.352.165.142.352.288.416.325.166.097.333.092.583-.015zM8.8 3.442c.246-.284.456-.53.466-.546.01-.016-.168-.484-.395-1.04C8.494.928 8.454.842 8.398.835c-.113-.014-.648.2-2.016.803-.165.073-.3.142-.3.153 0 .021.831 2.049.848 2.068.008.01 1.096.088 1.332.097.087.003.101-.01.538-.515zm6.91.433c.368-.02.674-.04.68-.046.012-.012.833-1.998.843-2.04.009-.035-2.363-1.042-2.4-1.019-.011.007-.028.048-.037.092-.027.126-.218.596-.465 1.142a8.657 8.657 0 0 0-.267.643c-.062.211-.033.278.242.564.203.21.34.388.488.633.049.08.005.08.916.03z"/></svg>