<svg role="img" viewBox="0 0 24 24" xmlns="http://www.w3.org/2000/svg"><path d="M16.869 23.998l-1.905-.007-.95-.935c-.522-.515-.96-.935-.975-.935-.013 0-.246.224-.516.498-.27.275-.507.5-.526.5-.019 0-.259-.225-.533-.5-.274-.274-.51-.498-.524-.498-.015 0-.43.405-.923.9-.494.495-.92.916-.947.935-.041.03-.421.035-2.413.035H4.293l-.007-.741-.007-.742-.26-.092c-.641-.226-1.118-.569-1.503-1.081a4.03 4.03 0 0 1-.494-.966l-.061-.193-.8-.007-.798-.007-.007-4.054c-.01-5 .006-5.557.183-6.557.267-1.507.81-2.835 1.72-4.207.478-.722.766-1.083 1.368-1.72.451-.477.848-.833 1.368-1.226.72-.545 1.387-.957 2.08-1.284C10.266-.394 13.9-.37 17.04 1.18a11.719 11.719 0 0 1 3.169 2.28 11.755 11.755 0 0 1 2.667 4.042c.473 1.203.679 2.165.75 3.518.034.63.025 9.112-.009 9.146-.011.011-.342.021-.736.022-.393.001-.745.004-.781.006-.061.004-.073.024-.146.248a3.18 3.18 0 0 1-2.023 2l-.21.068-.006.72c-.004.397-.015.729-.025.738-.032.028-.848.037-2.82.03zm-7.297-1.582c.457-.457.832-.842.832-.855 0-.012-.365-.385-.811-.828-.647-.643-.83-.811-.905-.832-.06-.016-.825-.025-2.194-.026H4.392V15.88l-1.64-1.638-1.64-1.637-.006 3.403c-.003 1.871 0 3.41.008 3.417.008.008.33.012.717.008.388-.004.718.003.736.016.02.013.044.108.058.24.062.564.306 1.07.71 1.469.393.39.827.593 1.429.668l.252.031v.425c0 .234.007.55.016.7l.016.275 1.845-.003 1.846-.003.833-.832zm9.392.165c.007-.537.016-.691.042-.707a.957.957 0 0 1 .224-.036c.586-.045 1.23-.395 1.617-.877.291-.362.46-.77.516-1.243l.03-.254h.728c.453 0 .737-.01.751-.025.03-.032.044-1.912.036-4.685l-.006-2.115-.056.028c-.07.035-3.066 3.042-3.165 3.177l-.072.097v1.94c0 1.067-.007 1.958-.015 1.98-.014.035-.229.04-2.178.04h-2.163l-.822.823c-.452.453-.825.84-.829.859-.009.04 1.426 1.492 1.59 1.607l.11.078h3.654zm-6.665-.763l.23-.23-.27-.27-.27-.27-.087.08c-.23.21-.425.407-.425.43 0 .014.114.14.253.28.206.206.262.25.297.231.024-.012.146-.126.272-.251zm1.685-1.694c.48-.482.9-.898.932-.924.058-.047.125-.048 2-.048h1.939l.019-.468c.01-.257.011-1.02.003-1.694-.01-.745-.007-1.25.007-1.285.013-.032.731-.77 1.597-1.64.865-.871 1.573-1.596 1.573-1.61 0-.016-.141-.16-.314-.323l-.313-.296-.13.093c-.995.715-2.016 1.15-3.049 1.301a7.03 7.03 0 0 1-1.433.014c-1.117-.146-2.278-.618-3.15-1.282-.223-.17-.688-.6-.734-.678-.018-.031-.03-.151-.031-.295l-.001-.244h-.227c-.274 0-.338-.026-.522-.212a.805.805 0 0 0-.157-.137 1.3 1.3 0 0 0-.2.175l-.179.174h-.518l.018.197c.012.146.008.219-.019.28-.046.11-.53.576-.822.792-.29.214-.528.358-.908.548-1.775.89-3.502.95-5.247.185-.42-.185-.613-.291-1.1-.609a5.585 5.585 0 0 0-.436-.27c-.013 0-.164.141-.335.313l-.312.314 1.59 1.576c.876.867 1.592 1.593 1.593 1.614.001.02 0 .778-.002 1.683-.002.906.003 1.678.013 1.715l.017.069h1.92c1.61 0 1.93.006 1.986.035.038.02.469.44.96.936.49.495.905.9.923.9.017 0 .256-.225.53-.5.274-.273.51-.498.524-.498.014 0 .254.23.534.51.397.397.518.505.549.488.021-.012.432-.416.912-.899zm.15-1.344a9.74 9.74 0 0 0 .735-.395c.246-.163.424-.324.424-.382a.766.766 0 0 0-.062-.188.741.741 0 0 1-.063-.196c0-.07.074-.288.098-.288.01 0 .037.04.06.089.056.117.165.16.4.16h.187l.038-.106a4.08 4.08 0 0 0 .079-.255c.038-.143.146-.337.187-.337.033 0 .099.227.099.338a.761.761 0 0 1-.038.21.805.805 0 0 0-.037.129c0 .03.373.026.529-.006.073-.016.187-.056.255-.09.068-.035.167-.078.222-.097l.098-.035-.016.1c-.014.087-.008.103.048.14.092.06.221.015.36-.127a.614.614 0 0 1 .13-.113c.012 0 .014.043.006.095-.01.065-.005.103.018.12.124.097.222.027.204-.144a.461.461 0 0 1 .017-.183c.028-.072.03-.073.064-.027.079.107.027.414-.091.54-.084.09-.17.093-.268.01a.374.374 0 0 0-.09-.062.668.668 0 0 0-.118.075c-.162.117-.26.098-.373-.075-.044-.068-.032-.071-.296.074-.126.07-.158.076-.372.076h-.234l.02.118c.054.31 0 .461-.17.476-.13.01-.18-.058-.242-.332l-.053-.23-.114-.017a2.016 2.016 0 0 0-.236-.015h-.121v.11c0 .156-.031.222-.18.379a2.3 2.3 0 0 1-.606.428c-.285.143-.82.307-.993.304-.03 0 .192-.122.494-.271zm2.038-.723c-.026-.036-.068-.069-.092-.074-.063-.012-.028.092.057.169.06.055.068.056.076.016.005-.025-.014-.075-.04-.11zm-.03-.576c.051-.052.07-.225.025-.225-.029 0-.086.108-.11.206-.02.082.014.089.084.019zm-7.21.612c.62-.323 1.346-.826 1.506-1.043.066-.09.06-.196-.02-.378-.073-.161-.081-.224-.052-.383l.02-.106H9.91l-.04-.1a1.376 1.376 0 0 1-.056-.31c-.015-.198-.018-.207-.056-.16-.04.048-.042.048-.146-.032-.12-.092-.12-.095-.068-.197.047-.091.077-.092.166-.007.038.037.078.058.089.048.01-.01.019-.343.019-.74 0-.542-.008-.727-.031-.75-.047-.047-.038-.158.017-.225.046-.056.05-.057.093-.014.042.041.045.11.046.985.001.964.014 1.178.077 1.23.024.02.095.025.219.016.3-.023.4-.09.735-.49.141-.169.196-.194.302-.14l.08.042-.092-.166c-.083-.148-.092-.18-.081-.302.02-.247.216-.446.715-.73.494-.28 1.26-.602 1.434-.602.105 0 .165.065.165.18 0 .11-.026.131-.207.168-.327.067-.985.325-1.322.517a3.717 3.717 0 0 0-.379.265c-.246.197-.246.18.007.393.137.116.151.136.112.157a.775.775 0 0 0-.051.029c-.004.003.065.114.154.247.461.69.386 1.129-.21 1.217l-.174.026v.12c0 .154.08.37.168.454.237.227.678.2 1.208-.073.225-.116.445-.287.445-.346 0-.021-.07-.054-.181-.086a2.682 2.682 0 0 1-.262-.088.335.335 0 0 1-.181-.28c0-.22.204-.586.461-.826.23-.214.327-.224.388-.04a.241.241 0 0 1 0 .174c-.033.095-.054.106-.1.05-.063-.076-.146-.043-.311.122-.17.17-.263.32-.263.424 0 .067-.014.061.349.15.294.073.363.17.289.405-.08.252-.364.485-.815.669-.287.116-.477.163-.67.162-.406 0-.639-.265-.668-.759l-.014-.231-.24-.016a7.3 7.3 0 0 0-.318-.016h-.078l-.01.18c-.013.24-.082.373-.306.59-.412.4-1.157.766-1.658.816l-.14.014.41-.214zm2.938-1.73c.075-.042.072-.14-.008-.292-.083-.155-.4-.621-.453-.665-.037-.03-.039-.026-.021.041.068.255.057.393-.038.488-.067.067-.137.061-.305-.027l-.144-.076-.143.148a1.418 1.418 0 0 1-.189.172c-.092.048.04.184.227.23.14.035 1.004.02 1.073-.02zm-.593-.688c0-.045-.046-.08-.13-.1-.088-.02-.089.016-.004.083.076.06.134.067.134.017zm1.123 2.472c.007-.007.225-.15.486-.317.561-.362.879-.596 1.083-.8.215-.216.215-.22 0-.437-.1-.1-.213-.196-.252-.212-.06-.024-.07-.043-.07-.122a.63.63 0 0 1 .027-.172l.028-.08.09.056.19.116.097.06-.079.033c-.043.019-.079.048-.079.065 0 .018.084.11.187.207.165.155.187.186.187.264 0 .116-.096.266-.313.483-.378.38-.747.61-1.233.77-.196.065-.37.108-.35.087zm-6.19-.679c-.088-.048-.146-.18-.146-.335 0-.13.074-.392.139-.493a.226.226 0 0 0 .035-.098c0-.046-.175-.261-.357-.437l-.12-.116.008-.155.007-.156.206.153c.174.13.204.162.192.21-.01.042.01.078.086.153.1.098.1.098.155.05.03-.027.157-.172.284-.323.126-.15.254-.295.283-.322l.053-.047v.12c0 .11-.012.136-.145.297-.18.219-.279.365-.279.41 0 .02.046.085.102.146.127.138.173.245.173.407 0 .214-.134.4-.374.523-.114.059-.211.063-.303.013zm.247-.35c.135-.04.28-.143.28-.199 0-.044-.219-.262-.264-.262-.069 0-.235.328-.235.466 0 .043.061.042.219-.005zm8.135.238c-.106-.062-.12-.29-.028-.458l.043-.079.007.113c.015.243.038.263.243.204.246-.07.955-.464 1.057-.587.065-.078-.04-.156-.432-.318a.912.912 0 0 1-.35-.233l-.152-.151.034-.156c.019-.086.044-.156.055-.156a1.9 1.9 0 0 1 .336.247c.009.015-.012.04-.048.056-.035.016-.063.036-.062.044 0 .008.115.07.254.138.16.077.297.165.373.238.109.105.12.126.12.229 0 .137-.092.279-.254.389a7.362 7.362 0 0 1-.794.447c-.141.058-.331.074-.402.033zm-7.335-.24c-.023-.007-.062-.06-.087-.117-.04-.094-.047-.22-.06-1.252a23.407 23.407 0 0 0-.036-1.216c-.021-.08.026-.219.075-.219.076 0 .086.145.093 1.29.008 1.338-.012 1.243.256 1.242.145 0 .187-.014.436-.14l.276-.14-.016.117c-.012.091-.006.126.027.159.086.087.215.036.415-.164l.114-.115-.011.117c-.01.095-.002.125.04.164.05.044.055.044.121.004.039-.024.128-.107.198-.185l.129-.14-.014.118c-.019.174.007.193.265.193.278 0 .3-.014.254-.154-.043-.134-.046-.383-.005-.48.042-.1.067-.062.116.173.06.294.008.547-.139.67-.145.123-.527.108-.612-.023-.052-.079-.073-.077-.176.014-.11.097-.165.094-.25-.013a.338.338 0 0 0-.088-.087.728.728 0 0 0-.132.1.567.567 0 0 1-.14.1c-.03 0-.115-.085-.189-.187l-.053-.075-.109.078c-.184.131-.261.16-.464.17a1.246 1.246 0 0 1-.234-.001zm10.523-.522c-.085-.075-.107-.076-.142-.01l-.027.05-.068-.05c-.175-.132-.166-.113-.105-.212.03-.049.063-.089.073-.089.01 0 .045.028.077.063.032.034.073.062.09.062.016 0 .037-.028.045-.062.01-.035.024-.063.035-.063.039 0 .204.155.204.191 0 .042-.077.184-.098.183a.41.41 0 0 1-.084-.063zm-3.21-1.047c0-.59-.007-1.112-.014-1.16a.227.227 0 0 1 .04-.173c.066-.106.076-.09.134.206.035.183.037.227.01.26-.026.03-.033.218-.033.852 0 .825-.01.922-.099 1.04-.032.042-.037-.073-.038-1.025zm2.913.623c-.084-.078-.09-.093-.067-.154.046-.123.07-.137.145-.084.11.08.14.156.091.248-.022.043-.048.078-.058.078a.51.51 0 0 1-.111-.088zm-8.912-.56l-.097-.1.042-.088c.046-.097.082-.094.177.01.061.068.084.066.12-.01.015-.034.035-.062.044-.062a.54.54 0 0 1 .115.084l.097.085-.043.09c-.051.107-.075.11-.176.026l-.076-.065-.034.065c-.019.035-.042.064-.053.064a.511.511 0 0 1-.116-.1zm.006-.376c-.1-.083-.11-.111-.065-.21.039-.083.068-.08.18.023.098.09.099.103.011.22-.03.041-.039.04-.126-.033zm-1.305-2.306a7.209 7.209 0 0 0 2.203-.751c.122-.068.696-.437.775-.498.078-.06-.438-.418-1.018-.706a7.511 7.511 0 0 0-1.896-.619c-.189-.035-.367-.044-.873-.044-.595 0-.657.005-.948.067a6.624 6.624 0 0 0-1.684.615c-.184.099-.965.577-1.01.62-.054.05.584.463 1.147.743.725.361 1.273.518 2.17.621.173.02.89-.01 1.134-.048zm10.666.036c.96-.088 1.997-.473 2.923-1.086.351-.233.347-.227.23-.33-.229-.197-.884-.56-1.45-.8-.747-.319-1.39-.457-2.128-.457-.94-.001-1.798.218-2.796.717-.556.278-.972.554-.97.644.001.016.043.056.094.09l.33.22a8.13 8.13 0 0 0 1.275.64c.86.316 1.684.436 2.491.362zM2.159 11.841l.196-.2-.197-.199a1.36 1.36 0 0 0-.223-.198c-.014 0-.115.09-.224.2l-.199.2.199.199c.109.11.21.2.225.2.016 0 .116-.091.223-.202zm20.142.001l.18-.2-.078-.099a1.987 1.987 0 0 0-.206-.21c-.096-.084-.137-.106-.169-.09-.072.04-.349.35-.349.392 0 .048.362.407.41.407.018 0 .113-.09.213-.2zm-20.665-.729l.3-.293.315.3c.174.164.322.298.329.298.007 0 .202-.124.432-.275.863-.567 1.709-.919 2.578-1.072a6.258 6.258 0 0 1 1.571-.039 6.849 6.849 0 0 1 2.957 1.125c.211.144.393.261.404.261a.86.86 0 0 0 .15-.124l.131-.124.004-.188.006-.218c.002-.02-.06-.043-.16-.062-.912-.171-1.156-.239-1.738-.485-1.12-.472-2.099-1.274-2.692-2.204-.465-.73-.837-1.723-.983-2.631-.048-.295-.01-.275-.512-.275h-.436v-.592l-.002-.593-.226.237a12.139 12.139 0 0 0-1.891 2.694c-.422.84-.773 1.928-.934 2.9-.117.702-.185 1.47-.153 1.73l.018.141.117-.109c.064-.06.25-.24.415-.402zm21.28-.044c-.03-.916-.218-1.893-.56-2.918a8.598 8.598 0 0 0-.594-1.402 10.758 10.758 0 0 0-1.392-2.103c-.236-.284-.611-.686-.638-.686-.014 0-.023.239-.023.574v.573h-.893l-.04.169c-.022.092-.079.356-.126.585a6.292 6.292 0 0 1-1.062 2.42c-.763 1.077-2.104 1.93-3.63 2.31a8.225 8.225 0 0 1-.746.129c-.023 0-.042.258-.026.353.013.079.047.134.138.225.067.066.14.12.162.12.022 0 .155-.082.294-.183.416-.302.762-.5 1.226-.702 1.321-.576 2.731-.689 4.017-.32a7.09 7.09 0 0 1 1.941.907l.47.306.308-.307.308-.308.245.227c.135.125.323.307.42.404l.174.177.02-.07c.012-.037.015-.253.007-.48zm-11.433-.635a.654.654 0 0 0 .19-.147l.134-.136-.286-.42c-.406-.598-.577-.932-.791-1.543-.683-1.948-.43-3.707.803-5.582a5.92 5.92 0 0 0 .243-.387 4.37 4.37 0 0 0-.303-.321l-.304-.304.401-.42.402-.42-.379-.007c-1.26-.023-3.198.476-4.555 1.175a11.98 11.98 0 0 0-1.785 1.147c-.427.344-.936.803-.936.845 0 .011.259.021.574.021h.574v.436c0 .39.005.438.044.458.024.013.25.064.505.114.58.115.83.186 1.222.345 1.486.6 2.443 1.472 3.155 2.871a6.3 6.3 0 0 1 .625 1.834c.033.198.067.38.075.404.02.062.19.078.392.037zm1.42-.01c.01-.01.045-.184.08-.39.165-.99.619-2.04 1.243-2.878a6.33 6.33 0 0 1 1.017-1.02 6.807 6.807 0 0 1 2.804-1.219c.194-.035.38-.077.414-.093l.063-.03.007-.43.007-.43h.559c.308 0 .565-.01.572-.02.028-.045-.608-.602-1.145-1.006a10.824 10.824 0 0 0-5.3-2.104c-.387-.045-1.198-.08-1.198-.05 0 .01.182.203.404.428l.404.408-.304.296c-.168.162-.305.308-.305.323 0 .016.125.217.278.447.55.828.918 1.718 1.072 2.588.077.433.083 1.275.014 1.697-.183 1.11-.613 2.17-1.19 2.937-.095.127-.173.25-.174.274 0 .05.133.208.21.25.112.06.411.075.469.022zm-2.135-.147a6.853 6.853 0 0 0-.22-.954c-.284-.893-.823-1.856-1.353-2.417-.65-.689-1.878-1.373-2.932-1.634-.267-.066-.723-.143-.751-.126a.87.87 0 0 0 .019.229c.208 1.33.996 2.838 1.864 3.567.852.715 2.203 1.333 3.196 1.461.205.027.196.033.177-.126zm2.991.065c.705-.14 1.59-.525 2.322-1.01 1.016-.671 1.67-1.589 2.153-3.015.17-.506.303-1.113.255-1.166-.027-.03-.406.027-.715.106-.702.181-1.824.705-2.326 1.087-.277.21-.718.636-.877.846-.716.949-1.22 2.116-1.337 3.09l-.018.147.147-.017c.08-.01.259-.04.396-.068zm-1.637-.563c.227-.265.68-1.132.862-1.653.437-1.24.481-2.387.137-3.505a7.971 7.971 0 0 0-.875-1.834c-.193-.289-.268-.368-.29-.304-.004.015-.12.197-.254.404-.55.844-.878 1.696-1.012 2.632-.048.333-.046.974.002 1.304.092.616.333 1.397.611 1.973.176.365.636 1.1.689 1.1.016 0 .075-.052.13-.117zM5.185 4.527l.007-.293h-.631l.015.078c.01.043.016.178.016.3v.222l.293-.007.293-.007zm14.224-.02v-.3l-.293.008-.293.007-.007.293-.007.293h.6zM12.4 1.586c0-.012-.089-.114-.198-.227l-.198-.205-.2.2c-.111.109-.202.21-.202.223 0 .014.086.112.191.217l.191.193.209-.19c.114-.104.208-.199.208-.21z"/></svg>