<svg viewBox="0 0 24 24" xmlns="http://www.w3.org/2000/svg" role="img"><path d="M3.522 21.092c-.133-.07-.174-.167-.174-.41v-.209l.331-.006.331-.006v.676h-.204c-.154 0-.223-.01-.284-.044zm1 .001c-.131-.068-.189-.207-.181-.434l.006-.186.331-.006.331-.006v.676h-.203c-.152 0-.225-.011-.285-.043zm.999 0c-.13-.068-.188-.207-.18-.434l.006-.186.33-.006.332-.006v.676h-.204c-.152 0-.224-.011-.284-.043zm12.792-.482.007-.525-.058.017c-.108.032-1.674.04-1.814.01-.548-.12-.9-.688-.758-1.224.069-.257.278-.52.505-.637.21-.107.308-.114 1.584-.114h1.203v2.999h-.676l.007-.525zm-.174-1.179c.125-.068.156-.139.169-.393l.011-.228h-.883c-.835 0-.888.003-.958.046a.343.343 0 0 0-.116.434c.095.183.155.195.993.188.627-.005.717-.01.784-.047zm1.173.71.007-.994.328-.006.329-.006.015.08c.021.113.166.24.297.258.055.008.702.012 1.437.008l1.337-.007.087-.054c.146-.09.157-.133.157-.615 0-.406-.003-.432-.053-.507-.11-.166-.058-.16-1.574-.16h-1.36l.993-.663.994-.663h.663l-.482.32a6.335 6.335 0 0 0-.482.337c0 .01.26.017.58.017.524 0 .596.005.716.047.281.099.5.314.613.602.045.114.052.186.061.589.008.371.002.492-.029.634-.07.31-.309.591-.609.712l-.136.055H21.68c-.838 0-1.562-.008-1.61-.018l-.088-.019v1.048h-.676l.007-.994zM.762 20.1a.899.899 0 0 1-.449-.263.976.976 0 0 1-.276-.525c-.016-.088-.025-.564-.025-1.319v-1.181h.674v1.2c0 1.338-.003 1.308.16 1.409.083.052.095.053.844.053.73 0 .762-.002.823-.048.16-.119.16-.121.168-.733l.007-.556h-.22c-.188 0-.229-.007-.297-.053-.12-.08-.16-.182-.16-.405v-.19l.327-.008a2.81 2.81 0 0 1 .338.003c.005.005.01.155.01.332v.321h.653l-.007.634-.007.633-.077.159a1.03 1.03 0 0 1-.681.549c-.165.038-1.656.029-1.805-.011zm2.58-.29.005-.325.872-.006c.968-.006.975-.007 1.07-.164.042-.068.046-.12.046-.626v-.552h.674v.553c0 .602-.018.728-.132.939-.073.134-.264.32-.398.388-.216.11-.306.119-1.254.119h-.89zm2.668-.005v-.332h.881c.855 0 .884 0 .946-.048.159-.118.16-.12.167-.732l.007-.556h1.195c.79 0 1.237.009 1.318.025.296.063.575.275.701.535a1 1 0 0 1-.693 1.415c-.083.018-.402.024-.947.02l-.82-.008-.163-.077a1.157 1.157 0 0 1-.214-.124l-.05-.048-.054.05a1.116 1.116 0 0 1-.394.186c-.059.014-.476.024-.991.024l-.89.001zm4.482-.374c.218-.119.225-.436.013-.576-.062-.041-.124-.044-.956-.044h-.89v.168c.001.093.011.206.024.251.03.109.14.211.25.233.048.01.401.016.785.014.622-.004.705-.009.774-.046zm2.236.668a.992.992 0 0 1-.637-.544l-.072-.151-.011-.624a11.315 11.315 0 0 1-.002-.634c.024-.024 2.4-.008 2.517.017.51.108.866.609.788 1.111-.063.403-.35.726-.734.826-.196.05-1.657.05-1.849-.001zm1.77-.678c.197-.123.212-.373.032-.54l-.062-.059-.905-.007-.905-.007v.2a.71.71 0 0 0 .033.262.369.369 0 0 0 .24.193c.048.01.402.016.785.013.681-.004.7-.005.782-.056zm5.816-1.948.994-.663.324.006.324.006-.984.657-.985.657h-.668zm-12.502-1.57a1.155 1.155 0 0 1-.899-.756 1.383 1.383 0 0 1-.015-.707c.023-.075.548-1 1.28-2.255l1.889-3.243c.556-.956.669-1.136.79-1.255a1.07 1.07 0 0 1 .577-.307c.59-.128 1.21.278 1.341.88.038.17.02.46-.04.624-.025.07-.26.494-.523.941a785.3 785.3 0 0 0-3.182 5.452 1.23 1.23 0 0 1-.858.627.806.806 0 0 1-.36 0zm3.568 0a1.166 1.166 0 0 1-.92-.846 1.312 1.312 0 0 1 .03-.675c.025-.064.87-1.528 1.876-3.253a996.786 996.786 0 0 0 1.863-3.2c.052-.101.258-.314.379-.391.198-.127.359-.172.62-.172.18 0 .263.011.37.05.59.215.903.833.724 1.433a3.92 3.92 0 0 1-.253.488c-2.88 4.92-3.404 5.817-3.482 5.963-.164.31-.498.552-.835.604a.876.876 0 0 1-.372 0zm3.568.001a1.16 1.16 0 0 1-.93-.852 1.176 1.176 0 0 1 .078-.77c.023-.047.375-.656.782-1.353l1.808-3.104c.588-1.01 1.1-1.886 1.139-1.946.09-.145.29-.325.442-.4.455-.222.965-.14 1.318.213.098.098.187.215.234.308.041.083.97 1.542 2.064 3.243 1.094 1.7 2.014 3.137 2.045 3.192.046.08.06.143.069.325.028.515-.14.831-.525.987l-.131.053-2.741.006c-2.968.007-2.873.01-3.059-.116-.207-.141-.301-.388-.257-.676.014-.092.048-.24.075-.33.096-.31.59-1.227 1.565-2.906.548-.943.528-.904.53-1.033.002-.18-.116-.327-.263-.327a.518.518 0 0 0-.26.131c-.058.066-.439.704-1.286 2.159-1.227 2.108-1.374 2.362-1.469 2.544-.18.35-.506.594-.867.651a.832.832 0 0 1-.36 0zM.581 15.872c-.244-.077-.423-.213-.519-.395C.006 15.37 0 15.334 0 15.114c0-.347.023-.407.552-1.406a511.35 511.35 0 0 0 1.35-2.57L3.245 8.57l.682-1.302v-.907c.001-1.133-.03-1.39-.213-1.778-.243-.516-.352-1.084-.266-1.388a.457.457 0 0 1 .246-.289c.09-.04.231-.042 2.993-.043h2.898l.089.101c.113.13.164.269.198.543.045.369-.024.95-.194 1.622a2.29 2.29 0 0 0-.08.593c-.01.37-.069 1.507-.112 2.2l-.031.49-1.633 2.822a1196.7 1196.7 0 0 1-2.31 3.985c-.188.322-.351.499-.538.584-.194.089-.48.1-2.51.1-1.38-.001-1.812-.008-1.884-.03z"/></svg>