<svg viewBox="0 0 24 24" xmlns="http://www.w3.org/2000/svg" role="img"><path d="M6.497 22.629c-.469-.135-.912-.562-1.046-1.009-.047-.154-.053-.27-.061-1.086-.008-.84-.014-.932-.067-1.138-.11-.426-.43-.903-.933-1.395-.2-.196-.754-.85-1.756-2.073l-1.942-2.37c-.263-.32-.509-.643-.546-.718-.273-.553-.154-1.294.276-1.73.116-.117.264-.212.715-.46.705-.388.888-.509 1.128-.744a1.37 1.37 0 0 0 .3-.407c.173-.344.365-.855.448-1.193.048-.193.313-.93.718-2 .353-.932.832-2.2 1.065-2.82.233-.618.454-1.184.49-1.256.159-.314.571-.614.985-.718.212-.053.618-.04.805.027.071.025.386.202.7.392.893.541 1.181.656 1.646.656.331 0 .885-.084 1.239-.186.283-.082.635-.143 4.531-.781 1.477-.242 1.925-.307 2.04-.295a1.61 1.61 0 0 1 1.314 1.037c.044.118.049.222.05 1.006.002.93.025 1.165.147 1.478.12.306.425.712.898 1.195.227.233.74.835 1.378 1.615.558.684 1.407 1.72 1.886 2.303.596.724.895 1.11.948 1.22.213.446.195.927-.053 1.4-.154.296-.322.44-.833.715-.79.425-1.186.708-1.414 1.006-.197.26-.466.886-.55 1.283-.063.3-.162.58-.825 2.33-.356.94-.827 2.184-1.046 2.767-.248.659-.433 1.11-.49 1.197-.178.27-.435.457-.791.579-.261.089-.65.102-.886.03-.083-.025-.422-.21-.765-.415-.83-.498-1.243-.663-1.66-.663-.199 0-.763.07-.931.117-.068.02-.236.066-.375.104-.138.039-.757.153-1.376.255-4.118.677-4.86.794-5.024.792a1.525 1.525 0 0 1-.337-.047zm1.623-.585a437.6 437.6 0 0 1 2.772-.45c.83-.131 1.648-.263 1.819-.292 1.15-.197 1.854-.727 2.084-1.566.055-.2.135-.612.121-.625a1.057 1.057 0 0 0-.109.172c-.142.25-.545.646-.82.806-.67.391-1.747.612-2.778.569-1.537-.064-2.331-.701-2.433-1.954a4.407 4.407 0 0 1 .078-.981.864.864 0 0 0 .03-.199 1.002 1.002 0 0 0-.193.152c-.499.445-1.234.834-1.933 1.02-.34.091-.79.098-1.094.017-.11-.03-.202-.05-.205-.047a.8.8 0 0 0 .07.15c.094.174.168.39.23.672.036.167.049.4.061 1.099l.016.887.09.167c.16.295.483.534.79.586l.133.024c.004.002.576-.091 1.27-.207zm9.707-.05c.188-.088.373-.243.462-.388.027-.044.252-.621.5-1.284.248-.662.703-1.86 1.011-2.66.668-1.734.747-1.959.807-2.298.065-.37.045-.852-.05-1.143-.12-.376-.327-.662-.71-.985-.278-.234-.314-.254-.238-.139.238.362.346.7.367 1.15.025.523-.087 1.07-.35 1.711-.519 1.27-1.194 2.077-1.958 2.343-.186.065-.25.074-.53.074-.372 0-.545-.04-.902-.208a3.802 3.802 0 0 1-.828-.545l-.196-.166.018.09c.092.454.106.594.105 1.069 0 1.002-.213 1.706-.66 2.181l-.195.207.218.015c.466.034.923.217 1.726.692.291.173.571.33.622.35.06.023.18.033.344.028.22-.006.275-.018.437-.094zM12.48 20.22c1.303-.225 1.995-.736 2.214-1.636.152-.624.01-1.59-.318-2.16-.419-.728-1.092-2.09-1.052-2.129.037-.037.943 1.273 1.34 1.938.202.338.256.405.607.758.437.44.719.659 1.07.83.309.152.498.2.797.199.429-.001.752-.155 1.139-.542.293-.293.562-.69.807-1.192.715-1.46.724-2.512.027-3.22-.318-.322-.693-.536-1.27-.723-.446-.144-.607-.172-1.007-.173-.605 0-1.925-.096-2.157-.156-.183-.047 1.08-.155 2.065-.176.774-.017.993-.05 1.524-.224 1.847-.605 2.175-1.76 1.01-3.547-.554-.848-1.197-1.437-1.8-1.65a1.96 1.96 0 0 0-.991-.06c-.443.1-.948.4-1.403.834-.258.246-.295.295-.59.788-.469.778-1.133 1.757-1.169 1.721-.036-.035.668-1.521 1.025-2.163.246-.443.447-1.14.499-1.737.108-1.234-.463-1.9-1.758-2.047-.602-.068-1.464.003-2.096.173-.907.244-1.475.732-1.676 1.442-.115.406-.1 1.01.043 1.596.057.236.102.336.365.812.457.826 1.01 1.959.955 1.959-.022 0-.541-.709-.787-1.075a31.88 31.88 0 0 1-.508-.786c-.587-.945-1.51-1.7-2.26-1.846-.817-.16-1.558.41-2.205 1.695-.837 1.663-.721 2.872.342 3.56.435.28 1.085.518 1.46.534l.91.036c.606.024 1.068.06 1.59.122.117.014.143.024.102.039-.14.052-1.276.137-2.257.17a4.067 4.067 0 0 0-1.31.225c-1.907.612-2.223 1.78-.986 3.64.581.873 1.25 1.444 1.898 1.619.228.061.666.06.9-.002.42-.112.934-.428 1.36-.836.182-.176.258-.278.492-.667.457-.762 1.205-1.875 1.258-1.875.054 0-.53 1.251-.95 2.033-.271.506-.4.873-.524 1.497-.076.385-.082 1-.01 1.259.102.374.342.7.651.889.189.114.571.243.868.291.345.056 1.346.035 1.766-.037zm-1.574-6.847a16.6 16.6 0 0 1 .193-.824c.008-.008.133.006.278.032l.263.046.168.202c.093.11.169.21.169.219 0 .02-1.21 1.133-1.233 1.134a11.7 11.7 0 0 1 .162-.809zm1.723.252a12.21 12.21 0 0 1-.612-.58c0-.01.075-.108.168-.217l.168-.197.27-.048a2.01 2.01 0 0 1 .28-.038c.016.02.36 1.617.35 1.627-.006.006-.287-.24-.624-.547zm-2.364-1.358a16.94 16.94 0 0 1-.774-.258c-.008-.008.337-.127.767-.264s.793-.255.805-.263c.012-.008-.035-.275-.105-.596-.221-1.015-.233-1.072-.222-1.072.006 0 .287.253.626.561l.624.568c.005.004-.072.102-.171.22-.147.172-.2.216-.275.23a3.344 3.344 0 0 0-.439.096c-.007.007.029.128.08.27l.092.257-.088.243c-.05.137-.103.244-.124.246-.02.002-.379-.104-.796-.238zm2.55.02a1.86 1.86 0 0 1-.084-.267c0-.022.036-.142.08-.267.045-.125.076-.241.07-.258-.006-.016-.13-.05-.273-.077l-.26-.047-.16-.191a1.099 1.099 0 0 1-.158-.223c0-.032 1.21-1.145 1.227-1.129.005.005-.07.374-.169.82-.097.447-.167.82-.155.831.013.011.378.131.811.268.434.137.773.256.755.266-.047.025-1.546.501-1.577.501-.013 0-.062-.102-.108-.227zm-6.249 6.037c.209-.044.66-.188.694-.222.012-.012-.113-.028-.278-.036-.357-.017-.567-.076-.912-.257-.328-.17-.58-.366-.897-.693-.666-.687-1.216-1.6-1.42-2.356-.087-.325-.087-.885 0-1.147.186-.56.625-1.005 1.305-1.32a4.94 4.94 0 0 1 .429-.175c.099-.032.174-.065.167-.073a2.202 2.202 0 0 0-.234-.09 5.267 5.267 0 0 1-1.528-.87c-.514-.443-.713-.718-.873-1.212l-.075-.229-.054.106c-.146.287-.463.607-.866.876-.088.058-.39.235-.673.393-.283.158-.559.331-.613.385-.285.285-.382.82-.216 1.196.028.062.39.524.803 1.026a436.06 436.06 0 0 1 1.73 2.118l1.194 1.47c.733.897 1.526 1.276 2.317 1.11zm14.556-4.106c.09-.171.415-.509.68-.707.12-.091.49-.32.818-.507.63-.36.686-.406.817-.666a1.11 1.11 0 0 0 .068-.835c-.046-.15-.103-.232-.455-.658-.714-.866-1.79-2.183-2.646-3.241-.46-.568-.934-1.126-1.054-1.24-.554-.529-1.184-.778-1.777-.704-.19.024-.771.193-.887.258-.028.015.06.029.258.04.362.019.612.084.936.244.99.488 2.124 2.007 2.385 3.192.058.263.059.703.002.923-.18.694-.779 1.252-1.693 1.576-.114.04-.197.081-.186.092.012.01.117.05.233.09.566.193 1.21.589 1.668 1.026.39.373.573.656.691 1.067a.686.686 0 0 0 .063.173.506.506 0 0 0 .079-.123zM4.298 10.8c-.2-.332-.283-.664-.284-1.133 0-.397.045-.676.183-1.123.328-1.053.986-2.103 1.588-2.533.195-.14.496-.281.7-.33.21-.051.608-.04.852.025.4.105.83.348 1.245.703.113.096.205.168.205.159 0-.01-.026-.138-.058-.285-.051-.235-.059-.349-.059-.891 0-.578.005-.647.072-.963.125-.583.316-.974.624-1.274a.854.854 0 0 0 .136-.152c0-.011-.087-.02-.192-.02-.31 0-.704-.114-1.105-.318a22.77 22.77 0 0 1-.684-.393c-.398-.235-.578-.327-.687-.35-.376-.078-.87.108-1.086.41-.057.078-.22.477-.48 1.172a387.8 387.8 0 0 1-.942 2.483C3.51 8.12 3.494 8.161 3.44 8.374c-.117.459-.131.964-.037 1.32.059.221.2.502.34.68.113.142.587.577.628.577.01 0-.022-.067-.072-.15zM15.26 6.37c.09-.103.551-.435.803-.58a5.033 5.033 0 0 1 1.033-.442c.258-.08.359-.097.625-.108.306-.012.364-.006.772.09.054.013.05 0-.044-.181-.215-.41-.27-.767-.274-1.796l-.003-.78-.071-.152c-.171-.364-.594-.656-.953-.656-.055 0-.741.107-1.524.237s-2.108.344-2.945.476c-.837.132-1.635.27-1.774.305-.714.181-1.287.58-1.547 1.075-.102.194-.24.685-.269.948l-.015.149.072-.133c.435-.802 1.353-1.28 2.72-1.417.414-.042 1.367-.018 1.62.04.935.212 1.482.687 1.669 1.448.088.357.075.99-.03 1.501-.017.082-.014.087.032.062a.47.47 0 0 0 .103-.087z"/></svg>