<svg role="img" viewBox="0 0 24 24" xmlns="http://www.w3.org/2000/svg"><path d="M11.194 18.993c0-.023-.13-.055-.22-.055a1.1 1.1 0 0 1-.185-.02.537.537 0 0 0-.23.002c-.073.012-.29.024-.484.026-.313.004-.363.001-.463-.03-.107-.032-.125-.033-.395-.012a8.581 8.581 0 0 1-1.122.003c-.472-.02-.566-.03-.591-.063-.016-.02-.064-.026-.22-.028-.17-.002-.205.002-.23.027-.035.036-.153.04-.172.005-.01-.017-.056-.027-.148-.032-.366-.02-.664-.075-.664-.122 0-.03.011-.03-.303-.025-.226.003-.266 0-.29-.024-.016-.015-.028-.039-.028-.052 0-.013-.007-.024-.016-.024-.008 0-.03-.032-.05-.071-.062-.124-.113-.164-.21-.164a.357.357 0 0 1-.104-.018c-.033-.012-.071-.012-.132.002-.046.01-.137.026-.202.033-.064.008-.12.022-.123.032-.008.023-.054.024-.054.002 0-.009-.01-.017-.022-.017-.012 0-.038-.015-.059-.034-.045-.042-.05-.158-.01-.203.03-.033.09-.221.103-.326a.22.22 0 0 1 .023-.083.075.075 0 0 0 .016-.042c0-.06.077-.102.217-.118.23-.026.291-.082.174-.157a.597.597 0 0 0-.173-.062c-.142-.027-.166-.057-.172-.216-.003-.08.003-.125.017-.14.032-.031.29-.024.314.01.029.039.144.093.224.105.051.008.077.02.082.04.006.022.032.033.098.042a.55.55 0 0 1 .153.044.562.562 0 0 0 .163.043c.059.006.102.02.107.033.012.032.152.03.184-.003.032-.032.138-.033.15 0 .006.013.034.029.063.035.063.013.27.109.277.128.003.007.017.014.03.014.014 0 .03.012.035.027.009.024.032.026.182.016.132-.009.186-.006.236.013a.86.86 0 0 0 .112.035c.026.006.046.02.046.033 0 .042.05.065.173.08.067.008.17.021.23.03l.218.028c.203.023.247.126.09.213-.066.037-.246.039-.38.004a1.013 1.013 0 0 0-.212-.026c-.087 0-.117-.006-.125-.025-.008-.02-.047-.025-.207-.026a1.422 1.422 0 0 1-.425-.05c-.099-.025-.151-.051-.151-.075 0-.03-.104-.059-.214-.059-.19 0-.246.05-.158.14.072.074.08.136.039.275-.053.175-.054.28-.003.307.078.042.377.024.414-.025.01-.014.025-.025.034-.025.008 0 .027-.013.042-.03a.358.358 0 0 1 .079-.057c.033-.018.053-.042.053-.063 0-.02.01-.035.027-.035a.068.068 0 0 0 .048-.027.222.222 0 0 1 .086-.05c.074-.026.302-.032.317-.008a.418.418 0 0 0 .118.052c.087.029.115.047.145.094.02.033.056.067.08.077.061.024.354.018.386-.008.015-.013.098-.023.22-.027.18-.005.198-.003.242.032.026.02.053.054.061.075.023.059.12.096.218.082.046-.006.093-.021.103-.034a.066.066 0 0 1 .043-.023c.013 0 .028-.011.033-.025a.039.039 0 0 1 .034-.025.31.31 0 0 0 .095-.046c.062-.04.087-.045.197-.044.07.001.19.019.269.039a.944.944 0 0 0 .352.028c.296-.013.565-.056.589-.096a.525.525 0 0 0 .024-.222c-.006-.016-.004-.039.005-.05a.205.205 0 0 0 .026-.064c.006-.027.034-.056.07-.075.057-.031.06-.031.116-.001.065.035.085.097.068.208-.01.055-.004.074.024.103.02.02.036.053.036.076 0 .026.021.058.062.092.099.081.194.074.388-.03a.204.204 0 0 0 .076-.07c.011-.023.035-.044.054-.047.046-.008.108-.07.108-.107 0-.041.057-.04.087.003.014.022.054.04.108.05.088.016.209.076.209.103 0 .03.1.015.134-.018.027-.027.056-.034.145-.034.085 0 .13-.01.194-.042a.456.456 0 0 1 .308-.028c.087.016.207-.01.219-.048.005-.017.039-.037.082-.048.063-.016.077-.027.094-.077.012-.039.032-.061.056-.066.24-.045.255-.045.406-.019.215.038.408.008.442-.067.027-.058.025-.168-.003-.19a1.028 1.028 0 0 0-.189-.062.943.943 0 0 0-.552.009c-.146.038-.157.038-.336.016-.197-.024-.595-.023-.66.002a.718.718 0 0 1-.166.015.836.836 0 0 0-.339.062c-.059.026-.118.017-.147-.024-.014-.019-.068-.025-.236-.028a1.29 1.29 0 0 1-.265-.024c-.036-.015-.063-.015-.113 0a.182.182 0 0 1-.133-.003c-.056-.018-.092-.018-.212 0-.132.02-.15.02-.222-.008a3.962 3.962 0 0 0-.132-.048c-.075-.026-.09-.09-.032-.134.024-.017.044-.04.044-.052 0-.047.15-.179.26-.228a.735.735 0 0 1 .135-.05c.012 0 .024-.008.027-.017a.349.349 0 0 1 .096-.063.272.272 0 0 0 .122-.106.495.495 0 0 1 .082-.105c.028-.026.05-.056.05-.065 0-.01.023-.044.05-.076.045-.05.051-.07.051-.164 0-.105 0-.108-.053-.126-.071-.024-.107-.023-.218.012a.28.28 0 0 0-.164.112.334.334 0 0 0-.069.112.074.074 0 0 1-.025.048.167.167 0 0 0-.039.074.174.174 0 0 1-.071.091.213.213 0 0 0-.065.059c-.022.067-.332.314-.394.314-.015 0-.027.01-.027.023 0 .012-.04.034-.093.05l-.186.056c-.052.016-.098.039-.103.05-.005.013-.015.023-.022.023-.028 0-.2.11-.2.128-.001.026-.067.033-.24.026-.105-.005-.148-.013-.148-.028 0-.016-.054-.025-.197-.033a1.661 1.661 0 0 1-.253-.029c-.065-.02-.51-.048-.944-.058-.275-.007-.313-.011-.339-.04-.032-.034-.164-.067-.267-.067-.067 0-.2-.048-.2-.072 0-.014-.065-.043-.143-.063-.028-.007.176-.014.453-.015.403-.002.513-.007.546-.026a.275.275 0 0 1 .112-.025c.04 0 .078-.011.09-.026a.082.082 0 0 1 .055-.025c.085 0 .465-.11.491-.143a.28.28 0 0 1 .093-.047c.123-.042.235-.094.235-.108 0-.008.045-.035.1-.06a.7.7 0 0 0 .147-.09.813.813 0 0 1 .126-.087c.044-.024.08-.053.08-.062 0-.01.023-.031.05-.047.058-.034.42-.384.42-.405 0-.008.065-.084.143-.17a1.49 1.49 0 0 0 .144-.17c0-.008.023-.04.05-.072a.257.257 0 0 0 .05-.076.28.28 0 0 1 .051-.075.263.263 0 0 0 .05-.073c0-.008.018-.038.04-.068.022-.029.083-.144.135-.255.053-.11.102-.213.11-.227a.374.374 0 0 0 .025-.08c.007-.03.019-.058.027-.063.01-.005.016-.025.016-.044a.29.29 0 0 1 .022-.087 5.15 5.15 0 0 0 .186-.691c.036-.186.043-.239.06-.48.008-.115.022-.258.032-.319.01-.06.018-.249.019-.42v-.312l.315.007c.31.007.555-.014.576-.048a.359.359 0 0 1 .118-.04c.183-.042.339-.09.35-.108a.823.823 0 0 1 .177-.076.885.885 0 0 0 .176-.075c.022-.036.186-.082.33-.093.197-.014.465-.06.486-.084a.424.424 0 0 1 .11-.051c.05-.018.11-.043.134-.055a.191.191 0 0 1 .063-.022c.012 0 .021-.01.022-.021 0-.011.056-.047.125-.08a.408.408 0 0 0 .126-.075c0-.01.06-.046.135-.082a.575.575 0 0 0 .134-.077c0-.067.465-.059.534.01.03.03.332.032.351.002a.604.604 0 0 1 .14-.08.833.833 0 0 0 .143-.076.146.146 0 0 1 .067-.03c.283-.054.387-.084.42-.119a.309.309 0 0 1 .17-.077.519.519 0 0 0 .222-.078c.022-.033.259-.124.321-.124.018 0 .039-.009.046-.02.007-.012.044-.032.08-.045.108-.037.295-.124.295-.137 0-.007.037-.036.082-.065a1.29 1.29 0 0 0 .132-.099l.107-.096c.031-.028.103-.1.16-.16a.853.853 0 0 1 .167-.142.277.277 0 0 0 .08-.055c.018-.029.095-.026.13.005.044.04.455.042.5.002a.11.11 0 0 1 .06-.028c.047 0 .211-.096.211-.123 0-.006.03-.038.068-.072a.27.27 0 0 0 .067-.077c0-.009.011-.027.025-.04.018-.02.025-.064.025-.164 0-.136 0-.14-.059-.196-.032-.031-.058-.065-.058-.075a.27.27 0 0 0-.068-.084.286.286 0 0 1-.067-.083c0-.01-.04-.044-.087-.077a1.17 1.17 0 0 1-.118-.088c-.046-.045-.198-.037-.198.011 0 .011-.026.046-.059.077-.032.031-.059.066-.059.076 0 .011-.016.034-.035.052a.536.536 0 0 0-.074.092.48.48 0 0 1-.124.115.304.304 0 0 0-.086.069.348.348 0 0 1-.084.075.334.334 0 0 0-.084.075.27.27 0 0 1-.054.073c-.104.11-.198.227-.198.245 0 .01-.03.041-.067.071-.037.03-.067.063-.067.073 0 .01-.041.045-.092.077-.05.032-.092.067-.092.077-.001.025-.132.039-.256.027-.095-.009-.102-.007-.158.047a.252.252 0 0 0-.058.074c0 .01-.027.036-.06.059-.059.04-.06.04-.14.012-.043-.016-.094-.024-.111-.018-.039.014-.108.074-.108.094 0 .017-.048.065-.102.103-.05.035-.123.037-.15.003-.03-.037-.156-.033-.191.006a.135.135 0 0 0-.029.046.292.292 0 0 1-.076.074 2.84 2.84 0 0 0-.11.09.244.244 0 0 1-.081.045c-.05.014-.203-.007-.218-.031-.005-.008-.047-.02-.093-.027l-.177-.028c-.23-.036-.307-.036-.39 0-.044.019-.08.041-.08.05a.358.358 0 0 1-.1.08.42.42 0 0 0-.102.078.486.486 0 0 1-.126.07c-.07.032-.126.066-.126.076 0 .01-.052.043-.116.076a.5.5 0 0 0-.122.075c-.008.023-.413.127-.43.11a.847.847 0 0 1 .058-.136c.062-.128.064-.139.064-.312 0-.155-.005-.187-.035-.227a.426.426 0 0 1-.045-.075.28.28 0 0 0-.074-.076.622.622 0 0 1-.082-.07c-.048-.061-.376-.09-.52-.044-.051.016-.092.036-.092.044a.461.461 0 0 1-.126.077c-.07.034-.126.07-.126.08 0 .01-.027.032-.059.049-.059.032-.294.254-.294.279a.22.22 0 0 1-.055.062c-.11.098-.214.282-.214.376a.265.265 0 0 1-.02.09c-.017.04-.026.042-.096.035l-.19-.017a.497.497 0 0 1-.326-.137c-.106-.099-.131-.167-.118-.319a.663.663 0 0 1 .027-.157.37.37 0 0 0 .017-.123c0-.05.012-.128.025-.173a.618.618 0 0 0 .026-.141c0-.033.011-.1.025-.152.037-.137.033-.205-.016-.258-.039-.042-.11-.061-.11-.03a.293.293 0 0 1-.059.077.267.267 0 0 0-.059.08.25.25 0 0 1-.05.08.34.34 0 0 0-.05.077.33.33 0 0 1-.05.075.346.346 0 0 0-.051.075.429.429 0 0 1-.048.082c-.178.261-.2.295-.22.347a.63.63 0 0 1-.035.071.281.281 0 0 0-.016.104.384.384 0 0 1-.02.122c-.021.05-.034.504-.062 2.097-.009.533-.02.827-.033.865a.446.446 0 0 0-.02.118c0 .032-.01.093-.023.135l-.053.176c-.045.153-.18.448-.221.482-.012.01-.022.025-.022.034 0 .02-.148.207-.208.264-.024.022-.044.049-.044.059 0 .01-.038.044-.084.077a.342.342 0 0 0-.084.071c0 .007-.043.04-.097.075a.743.743 0 0 0-.113.083.919.919 0 0 1-.168.092c-.082.039-.16.08-.173.093a1.421 1.421 0 0 1-.318.106c-.011 0-.026.01-.033.023-.014.025-.054.034-.257.062-.07.01-.158.024-.198.033a.932.932 0 0 1-.168.017c-.053 0-.164.008-.247.018-.156.019-.556 0-.773-.037-.205-.035-.353-.072-.366-.092-.007-.012-.037-.026-.067-.033-.08-.018-.23-.095-.23-.119 0-.011-.014-.025-.03-.03a.481.481 0 0 1-.204-.228.733.733 0 0 1-.07-.324c0-.105.013-.167.06-.31.033-.1.067-.195.077-.211l.052-.101c.02-.039.053-.094.075-.124.021-.03.04-.06.04-.068 0-.008.022-.045.05-.081a.344.344 0 0 0 .05-.08c0-.009.023-.044.05-.079a.34.34 0 0 0 .05-.075.33.33 0 0 1 .051-.076.356.356 0 0 0 .05-.075c0-.006.022-.039.05-.073.066-.085.078-.132.042-.172-.047-.052-.146-.043-.234.022-.041.03-.075.063-.075.072a.24.24 0 0 1-.06.075c-.032.031-.058.065-.058.076 0 .01-.027.044-.06.075-.032.031-.058.065-.058.075a.24.24 0 0 1-.05.076.27.27 0 0 0-.05.074c0 .008-.024.04-.051.072-.028.031-.05.067-.05.079a.266.266 0 0 1-.055.087 1.42 1.42 0 0 0-.128.21l-.086.167a.686.686 0 0 0-.03.067l-.067.152c-.028.06-.055.128-.06.15a.69.69 0 0 1-.073.22c-.035.041-.033.726.002.755.014.012.026.03.026.043 0 .035.115.253.151.285.019.017.033.04.033.052 0 .012.03.046.068.076.037.03.067.062.067.072.001.018.117.099.173.12.016.006.028.02.029.03 0 .023.178.102.294.13.046.01.091.03.1.04.01.012.044.025.076.03.032.006.085.018.117.027.05.014.037.016-.073.01-.14-.005-.296-.038-.296-.061 0-.007-.03-.014-.067-.014-.047 0-.073-.01-.09-.034-.027-.038-.187-.1-.26-.1a.175.175 0 0 1-.097-.042c-.039-.033-.068-.042-.136-.042a.336.336 0 0 1-.167-.042.399.399 0 0 0-.101-.042c-.013 0-.023-.007-.023-.015s-.032-.02-.072-.026c-.083-.013-.147-.05-.147-.086 0-.013.016-.025.034-.025.019 0 .034-.008.034-.016 0-.01.015-.017.034-.017.046 0 .15-.045.15-.065 0-.009-.023-.024-.052-.034a.18.18 0 0 1-.072-.044c-.017-.024-.062-.04-.304-.104a.502.502 0 0 1-.11-.038.536.536 0 0 0-.113-.04c-.095-.025-.11-.026-.155-.003a.224.224 0 0 1-.075.026c-.046 0-.155-.064-.196-.116a.479.479 0 0 0-.163-.1.547.547 0 0 1-.195-.128c-.057-.061-.083-.076-.129-.076a.103.103 0 0 1-.09-.043.99.99 0 0 0-.08-.087c-.026-.024-.046-.053-.046-.063 0-.025-.063-.06-.137-.074-.038-.008-.064-.026-.078-.056a.417.417 0 0 0-.088-.102c-.037-.031-.067-.065-.067-.074 0-.023-.12-.102-.175-.116-.024-.006-.043-.02-.043-.03 0-.011-.034-.037-.076-.057-.06-.03-.076-.046-.076-.08 0-.053-.083-.142-.132-.142-.019 0-.04-.01-.047-.021-.019-.03-.099-.063-.15-.063-.04 0-.04-.001-.04-.163 0-.15-.004-.168-.045-.228-.054-.077-.092-.098-.253-.139-.136-.035-.187-.022-.221.054-.035.075-.028.094.127.375.034.063.15.132.224.134a.103.103 0 0 1 .07.041.709.709 0 0 1 .098.266c0 .06.09.22.143.255.023.015.042.037.042.05 0 .011.023.043.052.07.052.049.137.137.25.258.08.086.18.123.361.135l.151.01.008.294c.01.372.011.37-.06.415-.075.05-.077.107-.006.16.101.074.116.143.116.535 0 .323-.002.351-.03.367-.036.019-.07-.005-.07-.051 0-.016-.022-.052-.05-.08-.04-.045-.06-.053-.127-.053-.048 0-.088-.009-.099-.023a.46.46 0 0 0-.139-.059.353.353 0 0 1-.192-.111.444.444 0 0 0-.128-.096c-.03-.01-.055-.029-.055-.04 0-.01-.018-.024-.04-.03a.078.078 0 0 1-.05-.045.068.068 0 0 0-.043-.044c-.019-.005-.05-.034-.07-.065a.273.273 0 0 0-.117-.094c-.046-.02-.083-.043-.083-.05 0-.009-.012-.015-.026-.015-.014 0-.044-.018-.066-.04a.215.215 0 0 0-.081-.05c-.058-.014-.102-.085-.08-.127.014-.026.011-.034-.012-.042-.016-.005-.043-.038-.06-.072-.06-.125-.07-.14-.126-.158a.12.12 0 0 1-.08-.073.292.292 0 0 0-.07-.095 49.155 49.155 0 0 0-.109-.089.288.288 0 0 1-.081-.115c-.013-.04-.038-.074-.061-.084-.03-.013-.039-.031-.039-.076 0-.041-.011-.067-.042-.09a.102.102 0 0 1-.042-.09c0-.069-.03-.102-.108-.116-.063-.012-.074-.037-.04-.092.021-.034 0-.091-.07-.195-.035-.053-.045-.15-.018-.168.021-.013.002-.062-.034-.088-.015-.011-.033-.048-.04-.081-.01-.051-.022-.066-.076-.087-.053-.02-.068-.037-.08-.086-.01-.048-.03-.07-.085-.1-.068-.038-.092-.089-.054-.112.029-.018.02-.042-.025-.062-.03-.014-.042-.033-.042-.067v-.048h.138c.274 0 .548-.131.575-.276.008-.042.024-.062.061-.077a.201.201 0 0 0 .071-.048.65.65 0 0 1 .103-.085c.046-.032.117-.09.159-.13.05-.05.09-.073.12-.073.026 0 .05-.01.055-.023.005-.012.032-.027.06-.033a.307.307 0 0 0 .117-.075c.08-.08.208-.125.473-.164.078-.012.336-.152.337-.184 0-.009.048-.045.107-.08.122-.073.193-.163.207-.262.009-.065.007-.068-.054-.093-.077-.033-.142-.033-.254-.003-.099.026-.175.071-.175.104 0 .013-.026.04-.057.061a.32.32 0 0 0-.086.085c-.018.032-.072.068-.16.11a.434.434 0 0 0-.134.078.45.45 0 0 1-.138.076.635.635 0 0 0-.152.08c-.007.011-.038.02-.068.02a.782.782 0 0 0-.151.026.951.951 0 0 1-.2.025c-.108 0-.278.044-.307.079a.364.364 0 0 1-.097.054.469.469 0 0 0-.123.077.578.578 0 0 1-.213.135c-.025.006-.046.022-.046.034 0 .013-.037.03-.096.041a1.67 1.67 0 0 0-.12.026c-.039.013-.084-.023-.074-.06.005-.018.015-.033.023-.033s.015-.033.015-.073c0-.061-.007-.076-.042-.092-.034-.016-.042-.031-.042-.083 0-.036-.008-.073-.018-.083-.02-.019-.055-.232-.053-.316.002-.07.029-.21.052-.266a.298.298 0 0 0-.013-.236.425.425 0 0 1-.044-.111.332.332 0 0 0-.042-.102c-.034-.047-.027-.068.03-.098.027-.014.038-.035.038-.073 0-.03.012-.086.027-.125.024-.062.025-.085.007-.16-.038-.166-.04-.215-.009-.284.026-.058.027-.074.008-.133-.02-.062-.02-.07.013-.105a.234.234 0 0 0 .046-.093.145.145 0 0 1 .069-.092c.043-.028.057-.05.057-.086 0-.03.016-.063.042-.087a.122.122 0 0 0 .042-.1.22.22 0 0 1 .12-.185c.033-.017.048-.038.048-.066 0-.023.01-.066.024-.096a.933.933 0 0 0 .041-.123.417.417 0 0 1 .07-.13c.048-.058.06-.063.138-.063.104 0 .194.03.207.069.005.016.027.033.049.039.065.016.115.101.105.179-.015.11-.072.208-.134.23-.04.015-.064.041-.092.1-.087.186-.083.272.014.333a.292.292 0 0 0 .082.041c.009 0 .017.008.017.017 0 .01.034.034.076.054.105.051.117.103.04.167a2.453 2.453 0 0 0-.09.078.207.207 0 0 1-.076.043.346.346 0 0 0-.109.074.605.605 0 0 1-.1.08c-.045.022-.056.127-.02.18.039.054.035.173-.006.215-.019.018-.034.039-.034.046a.408.408 0 0 1-.118.06c-.116.047-.117.048-.117.111 0 .068.017.09.084.11.023.007.047.021.054.032.007.011.093.02.227.024.212.005.216.005.262-.038.026-.024.06-.043.075-.043.059 0 .122-.072.128-.145a.297.297 0 0 1 .016-.087.547.547 0 0 0 .028-.104.783.783 0 0 1 .04-.14.644.644 0 0 0 .034-.1.083.083 0 0 1 .06-.065.125.125 0 0 0 .067-.065.256.256 0 0 1 .052-.077.12.12 0 0 0 .032-.082.22.22 0 0 1 .042-.11.212.212 0 0 0 .042-.095c0-.028.01-.04.033-.04.018 0 .053-.017.079-.039.04-.034.046-.053.047-.13v-.09l-.108-.054a.636.636 0 0 0-.139-.055c-.016 0-.03-.008-.03-.017 0-.01-.018-.017-.042-.017-.066 0-.125-.047-.125-.1a.151.151 0 0 0-.033-.085c-.043-.049-.062-.144-.035-.176.016-.019.016-.038 0-.085-.018-.056-.016-.065.02-.106a.5.5 0 0 0 .064-.091c.023-.046.027-.047.15-.042l.128.005.005.08c.004.057.014.086.038.1.018.012.032.03.032.041 0 .027.101.045.169.03.076-.016.117-.064.117-.135 0-.033.008-.075.018-.094.014-.025.014-.04 0-.053a.086.086 0 0 1-.018-.053c0-.022-.026-.05-.075-.081-.065-.041-.085-.046-.151-.036-.093.014-.194-.003-.194-.033 0-.034-.077-.06-.175-.06a.47.47 0 0 1-.15-.025.725.725 0 0 0-.157-.037c-.084-.01-.105-.02-.158-.076-.07-.075-.07-.122-.005-.183a.13.13 0 0 0 .04-.08c0-.022.018-.057.04-.077a.41.41 0 0 0 .054-.061.328.328 0 0 1 .094-.065c.077-.04.08-.04.287-.02.276.026.297.018.298-.119 0-.043.008-.083.017-.09.03-.018.018-.089-.02-.116a.17.17 0 0 0-.084-.026c-.13 0-.177-.083-.102-.177.072-.09.12-.08.2.038.076.116.097.134.175.147.083.015.143-.013.175-.081.028-.058.027-.06-.025-.131a.213.213 0 0 0-.127-.094c-.067-.02-.074-.027-.074-.074 0-.066.064-.145.165-.2.043-.025.081-.059.084-.076.01-.053.086-.142.121-.142.018 0 .033-.01.033-.023 0-.012.01-.032.024-.042a.144.144 0 0 0 .034-.065c.019-.074.086-.15.144-.161.033-.007.056-.023.062-.044.011-.044.067-.06.425-.125.087-.015.11-.026.115-.052.009-.049.034-.074.101-.102a.217.217 0 0 0 .07-.04c.01-.02.367-.056.46-.048.094.008.112.045.064.135a.358.358 0 0 0-.037.092.19.19 0 0 1-.043.07c-.037.043-.04.055-.022.093.016.035.032.044.08.045.033.001.102.01.153.021.081.017.092.024.092.06 0 .03-.02.055-.07.089a.235.235 0 0 0-.08.085c-.008.035-.11.096-.157.096a.223.223 0 0 0-.073.05.278.278 0 0 1-.1.06c-.068.015-.085.046-.08.137.007.09-.002.088.165.056.237-.043.43-.092.446-.11.009-.012.046-.025.082-.03.052-.008.088-.033.183-.128a.894.894 0 0 1 .132-.119c.008 0 .014-.01.014-.022 0-.022.136-.098.219-.121.023-.007.047-.02.053-.03.013-.02.091-.049.316-.115a1.09 1.09 0 0 0 .185-.064.29.29 0 0 1 .1-.026.606.606 0 0 0 .169-.052.34.34 0 0 1 .112-.04.1.1 0 0 0 .062-.025c.015-.015.056-.026.103-.026.102 0 .252-.07.281-.13.012-.025.037-.048.055-.052a.176.176 0 0 0 .07-.042.631.631 0 0 1 .35-.17c.076-.01.092-.02.168-.109a.398.398 0 0 1 .126-.107l.11-.024a.473.473 0 0 0 .109-.039c.03-.017.094-.023.223-.022.205.002.24.019.262.127.011.055.014.056.104.061a.389.389 0 0 0 .304-.12l.06-.061h.205c.213 0 .27-.014.27-.066 0-.017.015-.05.033-.073a.17.17 0 0 0 .034-.057c0-.027.1-.138.135-.149.018-.006.033-.02.033-.032s.028-.033.063-.048a.954.954 0 0 1 .239-.08c.017 0 .04-.012.049-.029.014-.026.046-.029.294-.028.223 0 .284.006.308.027a.563.563 0 0 0 .198.09c.136.028.193.048.193.066 0 .037.12.075.237.073.084 0 .14.01.227.045a.415.415 0 0 1 .13.071c.021.037.123.075.246.09.108.014.137.01.485-.07a.254.254 0 0 0 .098-.041c.018-.019.07-.025.211-.025.18 0 .19-.002.272-.051a.386.386 0 0 0 .114-.101c.02-.037.04-.05.077-.05a.159.159 0 0 0 .089-.034c.043-.038.118-.038.309 0a1.5 1.5 0 0 0 .22.017c.145 0 .158-.005.207-.103.03-.06-.005-.14-.078-.174a.208.208 0 0 1-.064-.042c-.036-.057.077-.133.198-.134.109-.001.265-.044.3-.083.024-.025.054-.034.112-.035a.972.972 0 0 0 .18-.025c.132-.032.25-.031.32.002.06.029.159.164.159.219 0 .025.02.037.088.053a1 1 0 0 0 .178.02c.101 0 .302.048.336.08a.081.081 0 0 0 .042.022l.187.015c.169.014.227.004.227-.038 0-.028.106-.078.164-.078.054 0 .292-.065.314-.086.023-.022.157-.019.164.004.004.012.082.025.198.034.274.021.356.045.385.109.016.038.046.061.11.088.047.02.102.035.122.035.02 0 .048.017.062.037.025.036.032.036.442.033.372-.003.419-.006.438-.032.02-.025.053-.03.258-.028.202.001.24.006.253.03.009.015.025.028.038.028.03 0 .043.037.043.119 0 .063.003.067.088.105a.368.368 0 0 1 .126.092c.043.06.101.069.172.028.06-.035.189-.03.36.014.131.033.154.044.178.088.019.034.043.05.077.055a.154.154 0 0 1 .126.1c.017.044.083.05.122.012.028-.029.106-.034.114-.01.005.016.096.046.258.086.108.027.16.052.16.078 0 .014.01.045.024.07a.42.42 0 0 1 .034.091c.007.034.027.055.067.072.037.015.059.037.062.061.003.021.03.053.06.072.038.024.054.047.054.078 0 .034.013.049.056.064l.092.036a.106.106 0 0 1 .053.054c.022.056.05.073.144.087.12.017.194.051.194.088a.07.07 0 0 0 .069.072c.016 0 .045.027.066.06.023.036.062.07.102.085a.263.263 0 0 1 .1.075c.02.027.057.06.084.074.03.016.05.04.05.061 0 .02.022.061.05.092.027.032.05.068.05.08 0 .011.03.038.068.06.049.026.07.051.078.087.006.03.024.056.046.064.02.007.047.035.06.061a.66.66 0 0 0 .08.107c.043.047.054.074.054.13 0 .04.01.077.026.09a.074.074 0 0 1 .025.049.07.07 0 0 0 .018.045c.01.01.022.063.027.117.011.114.098.314.164.375a.13.13 0 0 1 .043.087c0 .034.013.055.049.076.051.03.065.058.079.157.004.031.022.068.04.08a.09.09 0 0 1 .033.07.6.6 0 0 0 .028.135c.024.072.025.092.006.126-.017.032-.017.058-.003.114.019.073.012.138-.018.176-.01.014-.007.034.011.059.032.045.034.116.007.193-.018.049-.016.06.017.105.02.027.037.06.037.073a.12.12 0 0 0 .025.055c.028.037.033.101.01.116a.503.503 0 0 0-.028.16l-.011.152-.08.073c-.09.08-.168.205-.168.269 0 .023-.008.046-.017.052-.009.006-.016.028-.016.05 0 .021-.012.06-.026.087a.222.222 0 0 0-.025.078.157.157 0 0 1-.025.069.764.764 0 0 0-.057.157.59.59 0 0 1-.067.165.173.173 0 0 0-.036.065c0 .01-.022.039-.05.063-.03.027-.05.06-.05.086 0 .037-.03.118-.092.255a.96.96 0 0 0-.032.08c-.005.016-.035.04-.067.053-.046.019-.063.04-.088.112-.018.049-.044.091-.058.095-.014.004-.04.029-.058.055a.216.216 0 0 1-.072.066.135.135 0 0 0-.057.07.126.126 0 0 1-.075.076c-.058.025-.157.157-.157.211 0 .017-.04.053-.092.084-.066.04-.095.07-.103.104a.14.14 0 0 1-.068.081c-.03.019-.057.04-.057.05a.016.016 0 0 1-.016.014c-.009 0-.035.019-.06.041a.475.475 0 0 1-.118.072c-.04.016-.074.038-.074.048 0 .024-.073.091-.099.091-.011 0-.039.02-.06.043a.78.78 0 0 1-.254.142c-.012 0-.025.011-.03.024-.005.014-.036.03-.068.036a.332.332 0 0 0-.113.051.213.213 0 0 1-.077.04c-.012 0-.022.011-.022.024 0 .013-.024.044-.054.068l-.089.074a1.35 1.35 0 0 1-.264.135c-.026.01-.046.025-.046.033s-.028.02-.061.027c-.09.017-.235.085-.247.115-.006.015-.042.036-.082.047-.079.023-.163.08-.164.11 0 .01-.021.024-.047.03a.486.486 0 0 0-.124.07.37.37 0 0 1-.097.057c-.01 0-.019.006-.019.014s-.032.024-.071.037c-.094.03-.197.087-.197.11 0 .022-.073.057-.117.057a.076.076 0 0 0-.051.025.159.159 0 0 1-.078.035c-.032.006-.063.022-.07.035-.008.013-.055.03-.105.039-.086.014-.283.09-.302.117-.026.036-.139.082-.222.09-.104.01-.215.044-.215.066 0 .007-.02.013-.047.013-.026 0-.054.007-.063.016a1.02 1.02 0 0 1-.226.088.208.208 0 0 0-.067.03.532.532 0 0 1-.107.052.4.4 0 0 0-.128.078c-.049.062-.159.094-.52.15a.225.225 0 0 0-.099.034c-.034.035-.175.03-.207-.009a.634.634 0 0 0-.121-.085.328.328 0 0 1-.095-.068c0-.021-.14-.05-.245-.05a.296.296 0 0 1-.173-.046.447.447 0 0 1-.088-.06.52.52 0 0 0-.164-.03c-.126-.01-.166-.021-.228-.06a.277.277 0 0 1-.076-.06.531.531 0 0 0-.122-.07c-.076-.037-.128-.073-.139-.097-.01-.023-.037-.043-.067-.05a.529.529 0 0 1-.207-.093 26.29 26.29 0 0 1-.106-.1.463.463 0 0 0-.132-.088c-.087-.029-.168-.083-.168-.111 0-.014-.039-.056-.086-.093-.083-.066-.106-.077-.141-.067a1.256 1.256 0 0 1-.11.015c-.09.009-.091.01-.086.06a.567.567 0 0 0 .044.134l.045.105c.014.044.244.322.29.35.036.021.067.025.134.017.084-.01.089-.01.16.057.047.045.087.068.118.068.045 0 .136.074.136.111 0 .042.08.088.17.099.104.013.116.018.142.067.011.02.04.036.068.038a.398.398 0 0 1 .099.028c.027.013.092.03.144.04a.247.247 0 0 1 .143.066c.043.043.066.051.182.061a.696.696 0 0 1 .18.037c.025.013.059.024.074.024s.067.031.114.069l.087.069.134-.01.151-.01a.384.384 0 0 1 .232.065c.137.128.16.172.138.27-.014.066-.053.096-.143.108a9.568 9.568 0 0 0-.136.02c-.054.01-.066.005-.117-.056-.087-.1-.135-.118-.338-.124-.138-.004-.184 0-.207.02-.02.017-.07.025-.159.025-.116 0-.134-.005-.183-.046a.191.191 0 0 0-.094-.047c-.022 0-.043-.01-.049-.025-.014-.037-.115-.032-.149.007a.235.235 0 0 1-.1.051c-.13.034-.206.07-.241.113-.033.04-.033.046-.008.098.031.065.135.133.228.148.036.006.075.022.085.036.02.027.125.036.125.01 0-.007.04-.024.088-.035a.95.95 0 0 0 .17-.06c.092-.046.265-.055.413-.02.091.02.182.001.232-.048.039-.039.185-.03.235.015.135.121.127.104.114.244a.67.67 0 0 1-.027.157.494.494 0 0 0-.016.147v.119l-.088.04-.113.051a1.443 1.443 0 0 0-.093.05 6 6 0 0 1-.21.114c-.151.083-.244.1-.319.056a.303.303 0 0 0-.12-.024c-.047 0-.09-.01-.104-.026-.034-.034-.21-.035-.223-.002-.005.013-.032.028-.06.034a.28.28 0 0 0-.1.052c-.046.038-.066.042-.193.042a.602.602 0 0 1-.18-.02c-.026-.014-.162-.018-.47-.016a6.485 6.485 0 0 0-.458.013.065.065 0 0 0-.032.037c-.007.022-.061.038-.231.068-.22.04-.25.043-.332.037-.113-.008-.564.035-.58.055-.017.022-.102.04-.378.08a.795.795 0 0 0-.198.052c-.061.033-.07.036-.07.017zm2.857-5.399c0-.02.133-.076.231-.097a.543.543 0 0 1 .233.008c.165.03.337.023.428-.016.06-.025.131-.083.275-.224a.544.544 0 0 1 .124-.097c.02-.006.036-.023.036-.036 0-.028.027-.03.206-.025.117.004.138 0 .197-.039.075-.05.093-.097.077-.2-.012-.076-.111-.197-.16-.196a.32.32 0 0 0-.106.075 1.43 1.43 0 0 1-.172.134c-.05.032-.093.07-.093.082 0 .013-.035.05-.08.084a1.578 1.578 0 0 0-.11.09c-.044.043-.33.043-.377 0-.038-.034-.114-.038-.133-.006-.007.013-.037.027-.066.033-.075.014-.258.1-.258.121 0 .01-.029.032-.063.05-.093.05-.28.235-.268.266.01.026.079.02.079-.007zm2.288-.083c.077-.022.164-.135.223-.292.043-.113.055-.211.027-.211-.01 0-.04.034-.07.076a.268.268 0 0 1-.094.086c-.051.012-.157-.007-.157-.03a.16.16 0 0 0-.033-.06c-.04-.05-.045-.191-.016-.375.111-.705.11-.689.079-.688-.036 0-.16.285-.19.437-.074.376-.114.701-.099.813.028.21.144.296.33.244zm.677 0c.169-.023.31-.055.31-.07 0-.007.022-.023.047-.036.06-.031.139-.105.139-.129 0-.01.017-.043.039-.072a2.23 2.23 0 0 0 .195-.435c.018-.065.017-.082-.001-.103-.02-.02-.03-.014-.078.052a.39.39 0 0 0-.054.094.234.234 0 0 1-.042.071.24.24 0 0 0-.042.07.754.754 0 0 1-.085.128.488.488 0 0 1-.168.154c-.046.023-.083.047-.083.054a.59.59 0 0 1-.143.071c-.079.033-.143.069-.143.08 0 .012-.01.021-.023.021-.029 0-.065.041-.05.056s.041.014.182-.006zm.983-.028a.465.465 0 0 0 .143-.048.152.152 0 0 1 .067-.032c.061-.014.16-.086.16-.117 0-.012.01-.031.024-.043.04-.033.14-.26.163-.37.02-.098.02-.107-.02-.182-.035-.065-.054-.082-.116-.102-.066-.02-.08-.02-.13.007-.03.017-.056.04-.056.05 0 .011-.02.038-.044.06a.36.36 0 0 0-.069.092.98.98 0 0 1-.048.092c-.061.109-.007.168.156.168.058 0 .106.003.106.006 0 .038-.069.12-.135.163a.349.349 0 0 0-.084.064.671.671 0 0 1-.143.07.452.452 0 0 0-.142.076c0 .01-.023.026-.05.036-.029.01-.051.028-.051.04 0 .022.069.014.269-.03zm.683.028c.18-.024.293-.053.303-.079a.037.037 0 0 1 .031-.021c.028 0 .142-.098.142-.121 0-.01.023-.046.05-.08a.26.26 0 0 0 .05-.085c0-.012.017-.047.036-.078.019-.03.057-.12.084-.2.039-.115.045-.149.029-.174-.019-.03-.023-.028-.069.03a.688.688 0 0 0-.072.111c-.086.185-.217.354-.32.414a.453.453 0 0 0-.093.062.726.726 0 0 1-.139.07c-.132.057-.24.135-.217.157.015.015.03.015.185-.006zm-.8-1.42c.06-.073.123-.203.112-.232a.293.293 0 0 0-.083-.077 2.14 2.14 0 0 1-.092-.068.069.069 0 0 0-.034-.016c-.022.001-.148.171-.172.231-.021.053-.02.058.028.105.084.082.198.109.242.056zm-.972-.226a.371.371 0 0 0 .064-.129c0-.034-.086-.123-.119-.123-.009 0-.03-.015-.049-.033-.033-.034-.033-.034-.103.042a.754.754 0 0 0-.102.142c-.032.064-.032.067-.002.108a.26.26 0 0 0 .198.09c.039-.004.062-.024.113-.097zm-5.376-2.78c.02-.023.045-.042.056-.042.021 0 .26-.227.26-.248a.35.35 0 0 1 .061-.074l.061-.063.103.051a.547.547 0 0 1 .128.082.562.562 0 0 0 .129.083.39.39 0 0 1 .11.07c.002.01.04.022.082.027.061.007.083.002.109-.024a.655.655 0 0 1 .111-.078.322.322 0 0 0 .096-.076.345.345 0 0 1 .084-.077c.037-.026.068-.056.068-.067 0-.011.02-.039.045-.061a.712.712 0 0 0 .14-.283c0-.053-.065-.164-.127-.219a.22.22 0 0 1-.058-.064.546.546 0 0 0-.13-.089 1.423 1.423 0 0 1-.152-.095c-.015-.014-.07-.022-.155-.022h-.133l-.101.105a1.4 1.4 0 0 0-.102.11c0 .014-.21.24-.222.24-.024 0-.13-.076-.13-.093a.66.66 0 0 0-.203-.126c-.008 0-.016-.01-.016-.021 0-.034-.136-.08-.236-.08-.09 0-.167.032-.167.068a.27.27 0 0 1-.067.077c-.037.033-.068.07-.068.08 0 .011-.026.046-.058.077-.033.032-.06.066-.06.076 0 .01-.03.048-.066.084a.312.312 0 0 0-.068.08.31.31 0 0 1-.05.08c-.108.136-.083.21.102.302.055.028.1.057.1.065s.05.035.111.061a.69.69 0 0 1 .154.087c.062.058.207.056.259-.003zm3.032.019a.37.37 0 0 1 .088-.07c.072-.044.253-.218.253-.241 0-.007.03-.04.064-.075l.064-.062.1.053c.055.03.111.066.125.083a.585.585 0 0 0 .13.082c.056.028.106.06.11.071.007.025.177.028.193.004a.618.618 0 0 1 .096-.074c.141-.095.342-.314.397-.433a.598.598 0 0 0 .049-.134c0-.05-.069-.17-.127-.222-.032-.028-.058-.057-.058-.065a.512.512 0 0 0-.125-.086.563.563 0 0 1-.132-.09c-.004-.013-.062-.023-.158-.026l-.152-.006-.103.106a1.442 1.442 0 0 0-.103.112c0 .014-.195.222-.215.23-.025.01-.137-.058-.138-.084a.66.66 0 0 0-.203-.126c-.009 0-.015-.009-.015-.02 0-.035-.136-.08-.241-.08h-.098l-.099.104a.875.875 0 0 0-.1.117.3.3 0 0 1-.052.067.967.967 0 0 0-.09.115.55.55 0 0 1-.074.09c-.02.018-.036.039-.036.047a.416.416 0 0 1-.059.09c-.1.132-.074.2.11.294a.34.34 0 0 1 .1.063c0 .007.064.042.142.077a.521.521 0 0 1 .15.088c.013.032.188.033.207 0zM3.712 18.056c-.005-.014-.03-.025-.056-.025-.076 0-.21-.084-.23-.143a.498.498 0 0 0-.065-.111l-.046-.06v-.304c0-.167.005-.315.01-.33.01-.024.031-.026.156-.017.165.012.338.05.364.08a.718.718 0 0 0 .126.076c.124.063.15.103.15.229 0 .116-.028.211-.077.257-.022.022-.04.05-.04.063 0 .014-.02.042-.042.062-.023.02-.042.052-.042.072a.28.28 0 0 1-.046.106c-.038.058-.055.07-.099.07-.032 0-.057-.01-.063-.025zm12.741-.051c0-.018.012-.025.037-.021.053.008.06.047.007.047-.029 0-.044-.009-.044-.026zm.815-.21a.239.239 0 0 0-.074-.015.087.087 0 0 1-.059-.025c-.015-.02-.085-.026-.356-.03-.33-.007-.34-.008-.45-.056-.09-.04-.111-.056-.108-.083.006-.041.134-.107.211-.108.033 0 .055-.01.055-.023 0-.012.026-.047.057-.078.057-.055.058-.055.14-.036a.358.358 0 0 1 .156.086c.077.07.083.071.37.1.346.034.46.053.482.08.034.044.025.07-.038.1-.032.015-.058.038-.058.05 0 .011-.015.029-.033.038a.712.712 0 0 1-.295 0zm1.374-.491c-.027-.046-.39-.105-.47-.077a.277.277 0 0 1-.121-.01c-.13-.035-.36-.05-.403-.027-.039.02-.1 0-.125-.043-.008-.014-.044-.023-.092-.023-.087 0-.143-.025-.11-.047.083-.053.157-.132.157-.166 0-.038-.004-.04-.157-.04-.137 0-.168.007-.239.044-.052.028-.097.04-.124.035-.053-.011-.152.022-.152.05 0 .025-.06.038-.202.043-.103.004-.185-.02-.185-.052 0-.008-.015-.019-.033-.023-.081-.022.004-.18.097-.18a.547.547 0 0 0 .273-.135c.04-.043.059-.05.132-.05.083 0 .25-.05.27-.081a.434.434 0 0 1 .127-.042c.219-.048.319-.082.354-.12a.194.194 0 0 1 .176-.05c.03.01.206-.06.234-.092a.273.273 0 0 1 .059-.03c.145-.055.242-.102.266-.126a.512.512 0 0 1 .144-.062.53.53 0 0 0 .163-.078c.025-.023.054-.041.066-.041.011 0 .03-.011.04-.024a.135.135 0 0 1 .061-.034.545.545 0 0 0 .142-.11l.1-.101h.102c.075 0 .104-.007.111-.025a.04.04 0 0 1 .035-.026.2.2 0 0 0 .07-.023.697.697 0 0 1 .117-.043c.047-.013.077-.031.082-.052.005-.018.04-.043.081-.06a.243.243 0 0 0 .15-.128.203.203 0 0 1 .089-.07c.04-.018.071-.042.071-.054 0-.029.054-.057.11-.057.063 0 .103-.026.115-.075.008-.034.021-.042.062-.042a.197.197 0 0 0 .098-.036.315.315 0 0 1 .105-.047c.037-.008.063-.026.077-.053.011-.025.055-.06.103-.082.046-.021.087-.052.091-.068.004-.016.046-.051.094-.078.047-.026.087-.056.087-.065a.37.37 0 0 1 .088-.085c.048-.037.09-.083.092-.1.003-.019.04-.056.08-.084.041-.027.075-.058.075-.068 0-.026.152-.164.206-.188.03-.013.058-.047.079-.095.028-.065.042-.077.118-.102a.26.26 0 0 0 .106-.06c.011-.018.034-.033.05-.033a.164.164 0 0 0 .064-.017c.027-.014.031-.03.023-.073-.01-.056.027-.146.108-.26a.198.198 0 0 0 .036-.072c0-.013.031-.045.069-.071a.262.262 0 0 0 .085-.097.267.267 0 0 1 .091-.1c.062-.042.074-.06.074-.105 0-.03.008-.063.018-.072a.297.297 0 0 0 .027-.114c.008-.076.018-.102.05-.122.047-.031.073-.116.073-.243 0-.087.025-.165.086-.266a.367.367 0 0 0 .025-.053c.01-.032.076-.048.191-.048.072 0 .085.006.124.057.04.052.044.073.044.195 0 .13-.003.14-.05.187a.233.233 0 0 0-.05.063.279.279 0 0 1-.06.069c-.032.031-.058.065-.058.076 0 .01-.023.04-.052.068a.437.437 0 0 0-.116.221.74.74 0 0 1-.122.252c-.027.03-.034.062-.034.17-.001.116.005.143.04.194.049.073.137.111.253.111.104 0 .266-.048.266-.079 0-.012.008-.022.017-.022.028 0 .02-.055-.034-.22-.04-.127-.048-.175-.04-.244.009-.079.02-.097.131-.212l.122-.126-.008-.104c-.007-.095-.002-.114.064-.245a.956.956 0 0 1 .095-.161c.012-.01.022-.042.022-.07 0-.03.016-.068.035-.09a.204.204 0 0 0 .043-.118c.01-.112.016-.123.065-.123a.18.18 0 0 0 .083-.027c.027-.017.07-.024.129-.02.085.004.092.008.163.096l.075.091-.01.11a.368.368 0 0 1-.028.126c-.009.009-.017.036-.017.06 0 .023-.02.078-.043.122a.662.662 0 0 0-.058.209.44.44 0 0 1-.042.157c-.014.015-.025.036-.025.046 0 .01-.03.043-.064.074-.093.081-.118.142-.173.426-.06.309-.079.367-.195.585a.36.36 0 0 0-.038.14c-.001.099-.053.21-.116.246-.03.017-.053.04-.053.05a.372.372 0 0 1-.075.103.579.579 0 0 0-.076.093c0 .006-.041.03-.092.056-.067.033-.098.06-.115.1a.288.288 0 0 1-.06.087c-.02.017-.035.042-.035.054 0 .013-.006.023-.014.023a.407.407 0 0 0-.138.128c0 .027-.152.239-.247.343a.693.693 0 0 0-.091.116c-.004.013-.033.032-.065.043a.152.152 0 0 0-.087.078c-.046.09-.104.134-.192.15a.244.244 0 0 0-.15.087.796.796 0 0 0-.084.1.29.29 0 0 1-.091.067.237.237 0 0 0-.092.076.126.126 0 0 1-.05.053c-.081.04-.19.085-.233.095-.025.006-.045.018-.045.025 0 .007-.025.016-.055.02-.129.019-.358.1-.39.139a.394.394 0 0 1-.106.075c-.044.022-.071.047-.071.066 0 .032-.066.103-.097.103-.01 0-.04.019-.064.042a.16.16 0 0 1-.09.042.21.21 0 0 0-.094.033.373.373 0 0 1-.13.045c-.053.007-.086.021-.097.04a.955.955 0 0 1-.284.15c-.01 0-.018.01-.018.022 0 .04-.165.116-.274.125-.068.006-.114.02-.132.039a.358.358 0 0 1-.114.058.302.302 0 0 0-.094.043c-.005.01-.027.016-.049.016-.021 0-.043.011-.049.025-.01.028-.111.036-.111.008 0-.009-.011-.017-.025-.017-.014 0-.025.008-.025.017 0 .025-.08.02-.096-.005zm-14.679-.416a.586.586 0 0 1-.134-.074.617.617 0 0 0-.132-.077.444.444 0 0 1-.113-.065.472.472 0 0 0-.177-.086c-.048 0-.06-.061-.048-.251.01-.162.015-.186.041-.186.017 0 .04.022.051.048.021.048.122.123.196.145.02.006.038.018.038.025 0 .008.033.034.075.059a.85.85 0 0 1 .12.085c.024.023.06.042.078.042.071 0 .176.07.206.136a.31.31 0 0 0 .052.084c.032.027.028.089-.008.121-.055.05-.12.049-.245-.006zm18.945-5.446c-.011-.011-.02-.047-.02-.08a.28.28 0 0 0-.027-.11c-.081-.153-.15-.503-.11-.553a.453.453 0 0 0 .028-.145c.008-.095.019-.134.045-.163.02-.02.045-.038.056-.038.012 0 .025-.011.03-.025a.046.046 0 0 1 .04-.025c.046 0 .1.068.132.167a.41.41 0 0 0 .06.12c.021.022.03.053.028.103-.002.04.01.1.027.133.022.048.025.07.011.096-.023.044-.023.108.002.19.015.05.015.07 0 .085a.087.087 0 0 0-.02.054.504.504 0 0 1-.092.198c-.027.02-.168.015-.19-.007zm-10.605-.18c0-.008-.05-.027-.112-.042-.111-.029-.207-.08-.207-.114 0-.01.027-.043.059-.076a.32.32 0 0 0 .059-.07c0-.03.245-.101.355-.102.034 0 .11.011.168.026.127.031.182.084.182.176 0 .055-.006.063-.08.096-.084.038-.26.088-.31.088-.016 0-.03.008-.03.016 0 .01-.019.017-.042.017-.023 0-.042-.007-.042-.015zm11.358.001c0-.008-.03-.023-.066-.034-.056-.017-.067-.028-.082-.086a.266.266 0 0 1 0-.135l.017-.067h.134c.092 0 .14.007.157.024a.23.23 0 0 0 .037.03.505.505 0 0 1 .068.085l.056.08-.054.029a.483.483 0 0 0-.085.059c-.032.03-.182.043-.182.015zm-.063-.728c-.058-.02-.105-.044-.105-.056 0-.01-.015-.034-.034-.05-.018-.017-.034-.04-.034-.051a.155.155 0 0 0-.033-.062c-.025-.033-.03-.053-.018-.09l.033-.11a.47.47 0 0 0 .018-.112c0-.061.038-.105.092-.105a.087.087 0 0 0 .06-.025.086.086 0 0 1 .058-.025c.021 0 .048.011.06.025a.074.074 0 0 0 .049.025c.036 0 .135.097.135.133 0 .009.009.019.02.022.01.004.02.051.023.112.003.068.014.116.031.135.027.03.034.1.017.161-.01.04-.153.11-.22.109a.71.71 0 0 1-.152-.036zm-1.072-.814c-.063-.068-.073-.093-.057-.137.035-.091.273-.118.338-.038a.16.16 0 0 1 .03.086c0 .039-.009.05-.046.06a.131.131 0 0 0-.063.033c-.009.012-.048.027-.087.033-.063.01-.075.006-.115-.037zm.72-.297a.36.36 0 0 0-.155-.079c-.01 0-.022-.018-.028-.04-.019-.075.073-.195.148-.195.016 0 .03-.008.03-.017 0-.009.019-.017.042-.017.023 0 .042.007.042.015s.045.027.1.043c.109.03.202.096.202.142 0 .016-.021.05-.047.074-.037.036-.063.046-.124.046-.053 0-.08.008-.087.025-.012.031-.105.033-.123.003zm-1.102-.397c-.09-.057-.137-.136-.132-.217a.128.128 0 0 0-.026-.09c-.029-.031-.037-.144-.014-.181.022-.035.16-.015.16.023.001.03.054.084.105.107.026.011.054.04.063.062a.246.246 0 0 0 .058.08c.07.06.055.2-.026.24-.068.036-.1.032-.187-.024zm.744-.215c-.023-.004-.048-.018-.056-.031a.053.053 0 0 0-.043-.024c-.046 0-.12-.087-.12-.142 0-.064.084-.144.151-.144.028 0 .051.008.051.017 0 .01.03.017.065.017.073 0 .17.056.195.114.01.02.021.037.026.037.005 0 .025.011.043.025.031.023.03.026-.034.084-.058.052-.076.059-.151.057a1.098 1.098 0 0 1-.127-.01zM4.36 7.88c-.044-.044.005-.188.069-.204l.146-.034c.06-.014.111-.033.114-.043.003-.01.017-.018.03-.018a.04.04 0 0 0 .035-.025.041.041 0 0 1 .035-.025c.034 0 .24-.115.24-.134 0-.025.114-.087.206-.111.048-.013.09-.031.093-.04.003-.01.024-.018.046-.018a.24.24 0 0 0 .101-.042.231.231 0 0 1 .129-.042c.052 0 .075-.01.11-.05.025-.028.05-.05.058-.05.036 0 .214-.093.214-.112 0-.012.018-.041.039-.066.091-.106.3-.052.31.08.005.052-.001.066-.041.092a.602.602 0 0 0-.09.075.343.343 0 0 1-.21.081c-.055 0-.138.034-.148.06-.01.025-.13.082-.235.11a.229.229 0 0 0-.078.032.408.408 0 0 1-.082.05.61.61 0 0 0-.13.093.44.44 0 0 1-.197.1c-.078.023-.15.043-.16.043-.01 0-.02.007-.02.015 0 .01-.024.02-.054.027a1.235 1.235 0 0 0-.282.128c-.03.044-.211.064-.248.028zm17.704-.026c0-.007-.022-.025-.05-.041-.072-.04-.071-.13 0-.184.029-.022.071-.057.095-.077.059-.05.157-.048.157.003 0 .01.019.038.042.06.048.045.057.133.017.173a.211.211 0 0 1-.092.037c-.037.006-.068.018-.068.026s-.022.016-.05.016c-.028 0-.05-.006-.05-.013zm-.84-.113a.237.237 0 0 0-.096-.025c-.03 0-.055-.006-.055-.013 0-.007-.03-.023-.068-.034a.802.802 0 0 1-.23-.133.17.17 0 0 0-.055-.03c-.018-.007-.033-.017-.033-.024a.277.277 0 0 0-.053-.07c-.061-.068-.124-.199-.104-.216a.37.37 0 0 1 .086-.033.293.293 0 0 0 .105-.053c.053-.053.103-.04.16.039a.378.378 0 0 1 .058.121c.007.04.023.057.078.082.039.018.074.045.078.062.004.016.04.05.077.073.058.037.07.053.07.099 0 .036.01.061.034.076.021.013.033.035.03.057-.008.046-.029.051-.081.022zM4.059 7.374c-.065-.065-.045-.165.044-.21.063-.034.188-.04.23-.012.075.049.044.2-.045.22-.026.005-.048.017-.048.025 0 .01-.032.015-.071.015-.05 0-.083-.012-.11-.038zm17.602-.049a.353.353 0 0 1-.056-.067c-.024-.037-.043-.047-.094-.047-.063 0-.247-.083-.272-.122a.485.485 0 0 0-.174-.031.645.645 0 0 1-.18-.03c-.01-.01-.02-.067-.02-.127-.001-.06-.011-.118-.022-.13-.037-.036-.022-.08.038-.116.032-.02.059-.042.059-.05s.028-.015.063-.015c.05 0 .076.014.121.06a.56.56 0 0 0 .139.094c.044.02.08.042.08.048 0 .02.19.112.252.124.042.008.07.027.099.069.022.032.046.058.053.058a.71.71 0 0 1 .184.192c0 .013-.013.039-.03.058-.036.044-.199.066-.24.032zM4.63 7.158c-.059-.043-.087-.134-.055-.174.012-.014.05-.023.097-.022.044.001.08-.007.084-.017.003-.01.017-.02.03-.02.053 0 .104-.04.125-.097.032-.09.068-.134.139-.172.034-.018.063-.04.063-.048 0-.026.054-.036.129-.025.045.007.072.02.072.034 0 .013.007.023.015.023.03 0 .032.046.008.136a.264.264 0 0 1-.1.158l-.146.13a.553.553 0 0 1-.323.124c-.07.008-.093.003-.138-.03zm14.83-.498a.451.451 0 0 1-.155-.046.617.617 0 0 0-.147-.075c-.074-.031-.134-.065-.134-.075 0-.011-.04-.038-.089-.06-.1-.047-.125-.1-.06-.135.048-.026.367.012.367.044 0 .011.036.03.08.04.125.033.151.047.164.089.022.07.06.097.136.097.103 0 .158.025.158.072 0 .086-.063.096-.32.05zM6.675 6.623c-.018-.018-.04-.033-.047-.033a.161.161 0 0 1-.051-.027c-.038-.027-.039-.028-.006-.063a.246.246 0 0 0 .042-.065c.015-.042.115-.054.226-.027.075.018.102.034.122.07.024.044.023.048-.018.084a.228.228 0 0 0-.054.066c-.017.044-.169.04-.214-.005zM5.92 6.56c-.061-.024-.077-.039-.081-.077-.007-.06.023-.095.081-.095.026 0 .056-.011.067-.025.015-.018.055-.025.142-.025.106 0 .126.005.159.04.054.058.042.126-.029.167a.47.47 0 0 1-.339.015zm14.239-.154c-.167-.018-.33-.065-.371-.107-.045-.046-.068-.154-.037-.174a1.04 1.04 0 0 1 .223-.067c.06-.01.232.05.28.097a.233.233 0 0 0 .11.043c.089.012.16.074.152.13-.01.072-.143.1-.357.078zm-1.768-.087a1.904 1.904 0 0 0-.378-.132c-.017 0-.035-.012-.04-.026-.007-.016-.033-.025-.072-.025a.21.21 0 0 1-.102-.028c-.034-.024-.076-.028-.248-.024-.208.004-.335-.02-.383-.072a.29.29 0 0 0-.063-.043c-.026-.013-.044-.032-.04-.042.007-.024.159-.048.212-.033a.746.746 0 0 0 .118.015c.042.002.125.017.185.033s.13.033.155.038c.025.005.054.02.065.032.011.014.051.023.097.023.198 0 .51.075.545.13.007.012.035.022.06.022.057 0 .13.053.113.08-.007.012-.037.02-.066.02a.17.17 0 0 0-.086.026c-.04.03-.048.03-.072.006zm-8.272-.071a1.449 1.449 0 0 0-.235-.013c-.259-.003-.301-.015-.301-.085a.197.197 0 0 0-.028-.091 1.176 1.176 0 0 1-.055-.096.125.125 0 0 0-.085-.069.493.493 0 0 1-.066-.02.64.64 0 0 1-.02-.12 5.536 5.536 0 0 0-.025-.174c-.01-.056-.005-.066.047-.105a.216.216 0 0 1 .085-.045c.015 0 .033-.01.04-.022.019-.03.115-.062.189-.061.076 0 .186.03.186.05 0 .01.027.027.06.04.072.031.073.08.006.305-.027.093.008.134.144.165.065.014.175.031.244.037.07.006.146.018.17.027.043.016.045.02.036.12a.33.33 0 0 1-.028.125c-.02.021-.347.05-.364.032zm-1.444-.155a.36.36 0 0 0-.12-.04.169.169 0 0 1-.093-.045.82.82 0 0 0-.085-.069c-.057-.038-.051-.122.012-.17a.203.203 0 0 1 .101-.036c.03 0 .056-.01.061-.024.013-.034.097-.06.234-.071.147-.013.164.003.161.145 0 .054.006.104.016.11.01.006.013.032.007.062a.137.137 0 0 0 .01.09c.017.032.017.045 0 .065-.034.041-.21.03-.303-.017zm7.821-.13c-.035-.015-.153-.023-.378-.025-.262-.003-.34-.009-.39-.031-.082-.036-.085-.091-.009-.18l.055-.063.244-.003c.245-.003.42.014.437.04.015.022.245.099.298.099.066 0 .135.035.145.075.012.047-.002.056-.125.075l-.168.026a.232.232 0 0 1-.109-.013zm2.432-.009c-.117-.037-.15-.071-.13-.132.024-.065.082-.088.222-.088.156 0 .257.045.257.117 0 .025-.01.054-.021.063a1.196 1.196 0 0 1-.237.07l-.09-.03zm-8.319-.173c-.052-.054-.07-.135-.035-.157.03-.019.017-.12-.025-.2-.042-.078-.053-.152-.03-.187.023-.034.163-.056.413-.066.189-.008.27-.018.336-.043a.562.562 0 0 1 .165-.033c.057 0 .081-.008.089-.028.009-.024.033-.026.18-.018.115.006.175.017.184.032.021.034.288.03.323-.006.028-.028.22-.056.266-.039.032.013.047.06.048.148 0 .074-.043.123-.15.171-.038.017-.069.04-.069.053 0 .013-.007.023-.016.023-.009 0-.024.015-.033.032-.013.025-.011.04.008.058.013.014.025.033.025.043 0 .01.009.018.02.019.012 0 .047.022.078.048.04.035.054.06.05.088-.006.039-.008.04-.206.04-.2 0-.201 0-.21-.042-.007-.026-.031-.052-.064-.068-.043-.02-.054-.035-.054-.076 0-.04-.019-.068-.08-.124-.09-.081-.109-.09-.243-.12-.148-.032-.232-.004-.344.115a.397.397 0 0 0-.09.124c0 .016-.017.05-.039.076a.357.357 0 0 0-.05.075c-.013.039-.224.115-.317.115-.064 0-.085-.009-.13-.054zm7.61-.06a.138.138 0 0 1-.059-.023.082.082 0 0 0-.047-.015.589.589 0 0 1-.138-.05.643.643 0 0 0-.133-.05.08.08 0 0 1-.047-.024c-.039-.038-.21-.052-.42-.034-.13.011-.208-.019-.225-.086-.015-.057.052-.153.114-.166.033-.007.047-.02.047-.043 0-.076.18-.088.223-.015.055.092.364.157.646.136.125-.009.213.012.229.055.005.012.041.027.081.034.04.007.077.019.082.027.017.027-.012.17-.037.183a.505.505 0 0 0-.063.048c-.04.035-.139.044-.254.023zm-4.134-.324c0-.009-.01-.016-.024-.016-.03 0-.155-.123-.168-.164-.005-.016.01-.07.032-.117.05-.107.067-.113.3-.1.313.017.47.04.494.072.03.042.027.106-.008.12a.316.316 0 0 0-.08.063c-.066.07-.238.126-.386.126-.062 0-.11.007-.11.016 0 .01-.01.017-.025.017-.014 0-.025-.008-.025-.017zm2.234-.078a1.771 1.771 0 0 1-.048-.033c-.018-.014.04-.104.081-.129.059-.035.29-.039.354-.007.074.037.058.139-.028.178-.066.03-.31.024-.359-.009zm-1.05-.031c-.086-.053-.1-.103-.055-.21.02-.046.043-.084.054-.083.01 0 .123.014.25.032.283.039.302.052.263.19-.027.098-.064.113-.267.113-.158 0-.184-.005-.244-.042zm-2.203.014c-.062-.012-.096-.066-.097-.155-.002-.128.03-.153.2-.153.133 0 .138.002.162.046a.247.247 0 0 0 .049.067c.02.016.021.026.004.054a.154.154 0 0 0-.021.067c0 .053-.178.097-.297.074z"/></svg>