<svg viewBox="0 0 24 24" xmlns="http://www.w3.org/2000/svg" role="img"><path d="M0 12V1.046h24v21.908H0zm23.207 0V1.84H.793v20.32h22.414zM1.31 21.954a.434.434 0 0 1-.3-.271l-.02-.05-.001-9.606C.988 3.45.989 2.415 1 2.365a.429.429 0 0 1 .29-.31c.042-.012.979-.013 10.718-.013h10.671l.056.02c.141.05.251.178.277.321.006.036.01 2.861.01 9.62 0 8.183-.003 9.579-.013 9.627a.427.427 0 0 1-.323.327c-.07.014-21.315.012-21.375-.003zm21.38-.22a.202.202 0 0 0 .107-.127c.01-.037.012-1.222.01-9.624l-.002-9.582-.018-.034a.252.252 0 0 0-.118-.106c-.05-.018-21.282-.018-21.331 0a.239.239 0 0 0-.12.115l-.02.042v9.578c0 6.572.003 9.588.009 9.61.013.047.057.1.108.126l.045.023h21.286l.044-.022zm-6.83-1.11a1.113 1.113 0 0 1-.438-.165.922.922 0 0 1-.292-.332 1.106 1.106 0 0 1-.108-.311 1.058 1.058 0 0 1-.022-.289c0-.138.003-.2.015-.261.026-.144.064-.288.119-.452a3.51 3.51 0 0 1 .456-.911c.138-.208.27-.355.53-.59.074-.067.082-.077.082-.104 0-.068-.063-.138-.14-.155-.039-.01-.054-.008-.103.005-.031.008-.07.017-.084.019-.025.004-.028.002-.028-.016 0-.034.04-.107.085-.154a.86.86 0 0 1 .368-.212.704.704 0 0 1 .298.012.466.466 0 0 1 .19.115c.023.027.025.037.025.087 0 .07-.03.137-.105.229a.24.24 0 0 0-.049.076c.002.01.016.013.07.012a.22.22 0 0 0 .13-.032.508.508 0 0 0 .19-.16c.059-.082.064-.104.072-.305.004-.108.013-.194.02-.22.025-.086.24-.593.268-.63.019-.026.019-.026.026-.008.013.034-.026.642-.048.748-.033.164-.13.395-.216.52-.116.167-.282.338-.37.383-.13.066-.276.06-.433-.016-.055-.027-.057-.027-.1-.016a.58.58 0 0 0-.107.045c-.308.166-.602.573-.751 1.04-.138.43-.087.778.15 1.03.18.191.413.287.75.309.388.025.784-.1 1.167-.366.196-.137.355-.293.535-.524.065-.083.132-.166.15-.183.034-.035.071-.05.082-.032.034.055-.254.516-.496.794a5.668 5.668 0 0 1-.485.49c-.406.344-.684.486-1.036.53-.084.01-.283.01-.367-.001zm-12.915-.348c.017-.015.1-.068.186-.118.344-.2.547-.337.659-.444.156-.149.227-.276.294-.53.05-.195.206-.324.653-.546.265-.132.318-.182.343-.32.033-.19-.045-.293-.333-.445a.993.993 0 0 1-.13-.079c-.026-.023-.029-.029-.025-.06a.877.877 0 0 1 .13-.265c.03-.023.06-.02.144.016.062.026.37.21.524.314.098.066.185.1.259.103.037 0 .049-.003.097-.036.03-.02.085-.067.122-.102a.549.549 0 0 1 .084-.071.682.682 0 0 1 .085-.015c.113-.014.134-.033.178-.16.028-.085.036-.092.104-.092.123 0 .156-.026.196-.155.028-.09.036-.106.055-.106.019 0 .029.04.029.113 0 .085-.017.15-.06.233a.415.415 0 0 1-.23.214.246.246 0 0 0-.055.066.442.442 0 0 1-.15.147.703.703 0 0 1-.1.02c-.098.012-.129.028-.222.113-.107.096-.155.119-.243.119-.075 0-.14-.024-.252-.089a.489.489 0 0 0-.064-.033.26.26 0 0 0-.017.073 2.02 2.02 0 0 1-.154.513.89.89 0 0 1-.277.322c-.02.014-.104.063-.185.109-.349.195-.446.29-.524.515-.109.316-.276.492-.556.586a3.122 3.122 0 0 1-.551.118h-.044l.03-.028zm8.495-.154c-.398-.064-.669-.351-.745-.787a1.507 1.507 0 0 1-.013-.36c.026-.23.13-.597.252-.886a8.916 8.916 0 0 1 .377-.773c.112-.215.145-.269.183-.297.02-.015.025-.016.036-.006.035.029.007.118-.128.41-.26.56-.32.699-.373.856-.082.244-.096.427-.047.62.02.076.082.196.132.252.156.174.436.253.802.226.4-.03.715-.16.964-.398.15-.143.232-.3.233-.44 0-.036-.003-.042-.036-.07a.83.83 0 0 0-.133-.077c-.195-.094-.216-.106-.264-.143a.28.28 0 0 1-.104-.162.716.716 0 0 1 .04-.25c.034-.106.134-.309.174-.353a3.61 3.61 0 0 0 .1-.12c.087-.11.24-.27.325-.336a.955.955 0 0 1 .402-.196.793.793 0 0 1 .297-.031c.079.013.14.012.168-.002a.424.424 0 0 0 .12-.132c.046-.07.075-.101.094-.101a.27.27 0 0 1 .06.018c.095.038.151-.005.22-.172.033-.078.025-.074.124-.06.038.004.04.003.068-.03a.532.532 0 0 0 .059-.095c.06-.128.071-.146.086-.149.024-.005.034.036.023.096a1.296 1.296 0 0 1-.173.421c-.036.052-.257.25-.336.302a.762.762 0 0 1-.122.054.34.34 0 0 0-.161.099c-.142.13-.236.19-.296.191a.377.377 0 0 1-.117-.044l-.089-.044h-.09a.406.406 0 0 0-.224.056 1.05 1.05 0 0 0-.322.287l-.027.038.027.025a.794.794 0 0 0 .103.07c.205.121.246.17.266.325a1.66 1.66 0 0 1-.065.591c-.082.287-.26.645-.443.895a2.864 2.864 0 0 1-.425.425 1.449 1.449 0 0 1-.543.246c-.108.023-.352.03-.459.012zm-5.528-.044c-.012-.02.024-.054.163-.158.177-.132.4-.344.467-.444.047-.069.04-.126-.022-.218a1.701 1.701 0 0 0-.232-.238c-.108-.093-.108-.083 0-.313.05-.103.105-.221.123-.262.032-.068.036-.074.059-.074.015 0 .048.016.087.041a.7.7 0 0 1 .311.417c.042.174 0 .435-.102.648-.151.313-.321.463-.647.57-.107.036-.196.049-.207.031zm.888-.18c-.018-.012.008-.03.194-.14.46-.274.638-.4.745-.532a.973.973 0 0 0 .201-.409.45.45 0 0 1 .147-.256c.102-.102.22-.178.452-.293.225-.111.28-.145.331-.2a.235.235 0 0 0 .074-.142.345.345 0 0 0-.02-.212c-.043-.084-.118-.143-.31-.245-.115-.061-.16-.097-.16-.128 0-.009.014-.05.03-.09.063-.152.11-.21.161-.2a.759.759 0 0 1 .19.08.705.705 0 0 1 .17.18.686.686 0 0 1 .075.233c.012.095.002.182-.04.353-.068.28-.15.445-.294.589-.06.06-.118.1-.25.172-.23.126-.325.192-.413.284a.616.616 0 0 0-.147.248c-.117.328-.269.49-.549.588a3.33 3.33 0 0 1-.38.094c-.155.03-.192.035-.207.026zm2.283-.008c-.016-.027.065-.093.372-.304.25-.171.342-.252.412-.36a.827.827 0 0 0 .093-.199c.007-.03 0-.03-.08 0a.26.26 0 0 1-.27-.05.182.182 0 0 1-.067-.132c0-.055.052-.2.126-.351.133-.27.22-.362.323-.347a.3.3 0 0 1 .219.177.459.459 0 0 1 .038.247 2.12 2.12 0 0 1-.212.76.966.966 0 0 1-.185.285.33.33 0 0 1-.136.086c-.168.07-.562.197-.608.197-.01 0-.022-.004-.025-.009zm4.659-.607c-.014-.022.026-.06.185-.18a3.02 3.02 0 0 0 .36-.312c.151-.152.21-.232.21-.287a.472.472 0 0 0-.093-.192 2.04 2.04 0 0 0-.241-.238c-.108-.089-.111-.113-.037-.261.029-.057.088-.18.132-.277.044-.095.084-.178.089-.184.018-.022.056-.01.13.04a.818.818 0 0 1 .298.323.62.62 0 0 1 .07.319c0 .206-.05.407-.148.6-.153.301-.317.457-.606.576-.154.063-.332.1-.35.073zm2.764-.212c-.117-.088-.237-.194-.242-.214-.007-.027.014-.077.11-.262.091-.18.147-.277.182-.319.021-.024.023-.025.053-.015a.757.757 0 0 1 .263.227.327.327 0 0 0 .038.052 2.1 2.1 0 0 0 .089-.145c.046-.08.103-.171.125-.203.04-.058.041-.059.072-.053.052.01.112.048.178.114.146.145.162.27.064.467-.07.138-.19.284-.235.284-.03 0-.094-.046-.147-.107a1.328 1.328 0 0 0-.106-.105l-.058-.05-.063.115c-.098.18-.175.274-.227.274a.406.406 0 0 1-.097-.06zm1.869-.417a.56.56 0 0 1-.309-.156c-.149-.15-.229-.367-.228-.621 0-.286.079-.89.182-1.409.062-.312.096-.447.134-.533.044-.102.217-.464.248-.522.025-.046.054-.06.068-.032.015.027-.016.291-.088.75-.157 1.009-.176 1.204-.14 1.383.059.281.272.444.584.443a.65.65 0 0 0 .36-.094c.027-.015.104-.081.171-.147.147-.141.196-.18.274-.22.08-.04.124-.043.257-.02.129.024.164.02.236-.023.05-.03.101-.078.225-.217.093-.104.109-.11.234-.08.065.014.12.02.164.018.033-.002.086-.047.181-.153.418-.465.481-.528.646-.638.12-.08.18-.105.274-.11a.32.32 0 0 1 .291.121c.04.052.05.11.039.212-.028.24-.184.51-.426.74-.13.124-.31.242-.445.291a1.65 1.65 0 0 1-.591.076.497.497 0 0 1-.323-.124c-.023-.02-.049-.037-.058-.037-.029 0-.062.03-.19.174-.068.077-.14.151-.16.165-.054.037-.109.046-.206.033a.54.54 0 0 0-.255.016c-.121.047-.255.164-.4.35-.157.203-.277.298-.446.35a.765.765 0 0 1-.304.014zm2.801-1.485c.16-.02.295-.061.472-.144.15-.069.255-.153.292-.232.025-.054.021-.061-.057-.103-.15-.081-.321-.06-.483.061a5.939 5.939 0 0 0-.4.403l-.025.027h.05c.028 0 .096-.006.151-.012zm-16.405.208c.003-.012.03-.072.059-.133.104-.211.202-.308.848-.825.589-.472.784-.636 1.008-.845a62.755 62.755 0 0 0 .862-.832c.009 0-.006.053-.03.106-.033.075-.129.24-.195.338a3.997 3.997 0 0 1-.64.69c-.46.41-.747.645-1.194.981-.173.13-.44.337-.553.43-.146.12-.176.136-.165.09zm3.882-.384c.017-.057.081-.187.125-.254.088-.135.246-.278.718-.657.628-.503.858-.696 1.076-.9.161-.152.738-.71.805-.779.027-.028.052-.048.054-.045.025.024-.146.338-.28.515a4.165 4.165 0 0 1-.549.582c-.446.4-.836.72-1.215 1-.137.102-.418.321-.57.444-.092.076-.147.113-.164.113-.003 0-.003-.009 0-.019zm-5.081-.079a3.145 3.145 0 0 1-.26-.213c-.029-.03-.032-.037-.028-.063.01-.058.206-.438.274-.53.032-.045.052-.05.098-.027.072.037.2.158.248.234l.025.04.083-.142c.1-.173.153-.253.172-.264.051-.027.205.082.28.198.078.119.076.208-.008.38a.981.981 0 0 1-.184.256c-.058.048-.082.038-.21-.091a2.443 2.443 0 0 0-.124-.12l-.03-.025-.044.087c-.094.186-.186.303-.24.303a.13.13 0 0 1-.052-.022zm9.019-.37a2.937 2.937 0 0 1-.252-.206c-.02-.019-.036-.042-.036-.051 0-.049.226-.485.293-.564.02-.024.027-.028.047-.023.064.017.214.144.272.231a.327.327 0 0 0 .038.052c.002 0 .043-.068.09-.15.111-.19.153-.25.179-.254.037-.005.128.049.195.116.112.112.146.214.114.339-.038.145-.205.391-.278.41-.033.007-.067-.017-.191-.14a1.35 1.35 0 0 0-.126-.119.354.354 0 0 0-.052.087.925.925 0 0 1-.189.278c-.035.028-.057.027-.104-.005zm6.633-.455a2.63 2.63 0 0 1-.262-.22.117.117 0 0 1-.026-.04c0-.046.281-.58.305-.58.014 0 .216.167.246.205.073.088.09.191.053.305-.046.136-.142.28-.222.333a.239.239 0 0 1-.045.026.29.29 0 0 1-.049-.029zm-15.316-.003a3.384 3.384 0 0 1-.283-.24c-.038-.036-.041-.043-.036-.067.013-.067.2-.471.249-.537.021-.03.03-.036.054-.036.08 0 .215.116.272.232a.228.228 0 0 1 .033.143.35.35 0 0 1-.02.132c-.045.13-.158.33-.208.37-.028.022-.027.022-.06.004zm2.585-.561a.3.3 0 0 1 .09-.139c.098-.102.307-.295.4-.368a1.4 1.4 0 0 1 .238-.162c.016.016-.107.16-.267.311-.13.124-.44.377-.461.377-.003 0-.003-.009 0-.019zm3.892-.413c.012-.04.027-.059.162-.192a3.38 3.38 0 0 1 .414-.364c.1-.073.143-.098.143-.083 0 .037-.226.278-.4.426a6.15 6.15 0 0 1-.31.244l-.022.014zm3.82-.37a.976.976 0 0 1-.593-.256c-.181-.175-.266-.4-.265-.706.002-.345.11-.734.316-1.13.078-.152.205-.363.24-.403.029-.03.03-.031.042-.016.007.01.012.036.012.06 0 .036-.01.061-.07.181-.183.357-.27.646-.27.886 0 .199.074.36.218.475.064.052.214.127.31.154.422.12 1.018.008 1.394-.261a1.43 1.43 0 0 0 .473-.59c.069-.161.073-.192.08-.617.007-.39.007-.39.051-.55.027-.097.114-.324.161-.422.044-.091.088-.142.114-.132.013.005.013.02.008.137l-.014.418a7.984 7.984 0 0 1-.021.407 3.128 3.128 0 0 1-.532 1.467c-.337.486-.758.783-1.234.873-.162.03-.296.038-.42.025zm-9.812-.278c-.629-.034-.994-.09-1.242-.186-.23-.09-.328-.231-.3-.428.027-.191.183-.504.341-.686.125-.142.284-.257.63-.451a11.8 11.8 0 0 0 .271-.157c.162-.1.334-.241.521-.428l.147-.146-.005.079a.946.946 0 0 1-.246.561c-.081.09-.16.139-.493.306-.47.235-.546.278-.625.357-.077.076-.12.175-.107.246.008.04.047.083.096.104.08.035.395.105.589.132.29.04.672.059 1.177.058.432 0 .592-.005 1.215-.036.179-.01.52-.026.76-.038.6-.03.881-.05 1.46-.102.436-.04 1.19-.114 1.531-.151 1.129-.123 1.51-.157 2.047-.183.381-.019.759.018.759.073 0 .04-.176.096-.502.16-.154.03-.722.125-1.485.25-.232.037-.582.096-.777.13-.514.09-.648.108-1.278.173-.4.04-.463.048-1.228.144l-.789.096c-.246.028-1.084.092-1.494.115a15.33 15.33 0 0 1-.973.008zm13.184-1.186c-.033-.04.047-.12.242-.244.36-.228.529-.368.627-.516a4.5 4.5 0 0 0 .339-.69c.112-.27.13-.3.17-.3.046 0 .052.05.022.193a5.303 5.303 0 0 1-.395 1.114c-.123.223-.237.296-.61.392-.225.058-.373.077-.395.051zm2.138-.114c-.219-.029-.357-.15-.427-.375-.062-.196-.058-.429.016-.929a9.36 9.36 0 0 1 .165-.843l.043-.178.115-.227c.12-.236.165-.317.18-.327.005-.003.017-.002.026.003.015.008.016.015.01.08a9.17 9.17 0 0 1-.102.69c-.102.61-.13.826-.13 1.018a.59.59 0 0 0 .057.298c.049.09.172.17.305.196a.793.793 0 0 0 .203.01c.196-.007.266-.03.44-.143.053-.035.123-.078.156-.096l.058-.03.11.004c.06.003.125.001.144-.003.04-.009.088-.058.125-.127.049-.091.08-.133.106-.139a.257.257 0 0 1 .08.008c.156.037.195.013.297-.174.051-.096.067-.111.093-.09.011.01.013.024.008.083a.646.646 0 0 1-.199.409.466.466 0 0 1-.264.158c-.051.01-.056.013-.142.095a.679.679 0 0 1-.139.11l-.05.026-.136-.003a.513.513 0 0 0-.191.015c-.07.021-.148.078-.283.205a1.19 1.19 0 0 1-.248.195.687.687 0 0 1-.426.08zm-2.544-.07c-.189-.08-.28-.285-.299-.672-.012-.26.069-1.01.174-1.598a1.63 1.63 0 0 1 .075-.308 6.33 6.33 0 0 1 .19-.482c.011-.011.014-.011.025 0 .01.01.011.028.004.118-.01.139-.034.35-.08.717-.106.855-.123 1.114-.084 1.282.034.141.13.25.238.267.032.005.036.004.047-.019.007-.013.033-.083.056-.155.024-.073.051-.144.06-.159.015-.023.02-.026.054-.026.068 0 .12.068.145.188.035.166-.043.482-.161.66a.47.47 0 0 1-.19.176.265.265 0 0 1-.13.028c-.066.002-.084 0-.124-.017zm-2.248-.036a3.185 3.185 0 0 1-.247-.205c-.024-.023-.044-.05-.044-.059 0-.015.099-.232.149-.326.035-.066.15-.257.155-.257.01 0 .194.154.234.197a.286.286 0 0 1 .066.313.743.743 0 0 1-.217.334c-.043.03-.055.03-.096.003zm-2.185-1.133c-.021-.035.078-.125.341-.312a3.77 3.77 0 0 0 .553-.476c.191-.196.282-.316.59-.774.3-.447.453-.644.641-.83a2.01 2.01 0 0 1 .545-.386c.11-.055.183-.078.317-.102a1.8 1.8 0 0 1 .35-.02c.182 0 .246-.002.262-.011.027-.014.084-.104.19-.301.128-.238.198-.338.288-.41a1.45 1.45 0 0 0 .127-.186c.056-.09.106-.165.112-.167.016-.005.151.14.21.225a.562.562 0 0 1 .099.204c.018.114-.092.348-.181.387a.769.769 0 0 1-.204.019c-.193.006-.22.012-.289.065-.061.047-.11.11-.225.287-.15.233-.312.427-.417.499a.527.527 0 0 1-.347.07c-.191-.024-.306-.004-.518.087a1.28 1.28 0 0 0-.44.32c-.062.07-.216.274-.405.536-.076.105-.178.24-.227.3-.111.136-.375.4-.52.522a3.49 3.49 0 0 1-.463.317c-.176.097-.371.165-.389.137zm-7.992-.221a3.255 3.255 0 0 1-.669-.084 1.094 1.094 0 0 1-.272-.098.369.369 0 0 1-.17-.162c-.027-.054-.028-.06-.028-.15 0-.081.004-.101.028-.171a2.1 2.1 0 0 1 .267-.483c.048-.06.146-.141.258-.211a1.62 1.62 0 0 0 .325-.256c.218-.218.365-.466.507-.857.016-.044.06-.18.096-.303.072-.237.115-.353.127-.341a.778.778 0 0 1-.026.225 5.016 5.016 0 0 0-.08.426c-.035.282-.034.486.005.587.023.061.08.124.136.152.14.07.305-.022.475-.266.145-.207.21-.263.306-.263.038 0 .07.01.156.044.176.07.326.11.542.141.144.021.578.021.801 0 .66-.062 1.17-.172 1.663-.356.2-.075.315-.127.431-.196.249-.147.423-.29.89-.728.266-.25.292-.274.341-.296.056-.026.095-.021.157.018.086.054.126.07.173.07.083 0 .162-.07.219-.2a.233.233 0 0 1 .03-.056c.013 0 .027.15.022.232a.653.653 0 0 1-.064.262c-.05.11-.101.156-.17.156-.068 0-.136-.045-.212-.14-.05-.062-.081-.08-.141-.08-.081 0-.104.018-.347.265a9.856 9.856 0 0 1-.342.333c-1.002.895-2.185 1.363-3.29 1.302-.286-.016-.537-.051-.647-.09a.634.634 0 0 1-.216-.127.348.348 0 0 0-.214-.093c-.095-.008-.08-.025-.312.34-.08.125-.193.246-.26.279-.142.07-.312-.043-.347-.23a1.806 1.806 0 0 1-.009-.206v-.156l-.099.097c-.213.211-.323.29-.52.37-.172.072-.356.249-.385.371-.023.095.02.15.156.203.227.087.483.141.81.17.257.023 1.348.001 1.73-.035.102-.01.397-.043.654-.076.258-.032.694-.081.97-.11.69-.069 1.023-.11 1.317-.16.271-.045.514-.06.87-.05.24.007.66.026.665.03.002.001-.003.012-.01.024-.03.044-.158.086-.394.127-.072.013-.39.074-.705.137-.882.174-2.132.41-2.465.466a17.31 17.31 0 0 1-1.927.203c-.214.01-.615.01-.806 0zm5.805-.207c-.008-.02.014-.046.112-.135a4 4 0 0 0 .57-.613 3.4 3.4 0 0 0 .283-.455c.248-.438.331-.553.487-.668.066-.048.303-.175.328-.175.017 0 .081-.082.082-.104a.22.22 0 0 0-.06-.154c-.024-.023-.025-.023-.056-.01-.08.034-.141.026-.19-.025-.05-.053-.06-.114-.035-.203.044-.155.17-.451.212-.5.023-.027.034-.033.059-.033.118 0 .229.123.277.308a1.6 1.6 0 0 1 0 .46 1.503 1.503 0 0 1-.222.527c-.064.094-.04.078-.29.198a.506.506 0 0 0-.19.13c-.08.08-.074.072-.473.679-.17.256-.376.481-.551.6-.147.1-.296.186-.318.186-.011 0-.023-.006-.025-.013zm4.657-.387c-.12-.09-.23-.188-.235-.21-.008-.032.043-.145.175-.386.07-.129.118-.2.138-.208.02-.008.05.003.104.04.07.046.172.15.203.203l.025.044.022-.037.103-.173c.1-.17.122-.198.156-.198.087 0 .256.158.299.28.028.079.007.188-.058.315-.06.115-.171.252-.214.263-.04.01-.066-.008-.195-.134l-.13-.127-.053.101c-.098.187-.18.29-.234.29-.016 0-.05-.02-.106-.063zm3.663-.112a3.305 3.305 0 0 1-.255-.219.08.08 0 0 1-.018-.032c0-.01.097-.226.143-.315a5.59 5.59 0 0 1 .157-.27 2.05 2.05 0 0 1 .238.195.294.294 0 0 1 .07.302c-.01.034-.038.1-.062.147a.523.523 0 0 1-.112.154c-.082.083-.098.087-.161.038zm-5.184-.863c-.007-.013 0-.058.025-.188.067-.342.077-.477.074-1.061a5.715 5.715 0 0 1 .01-.507c.03-.244.099-.464.25-.79.068-.145.102-.191.128-.175.018.012.018.016 0 .24-.017.205-.028.464-.04.928-.012.46-.028.64-.073.844-.063.285-.212.616-.315.703-.032.027-.047.028-.06.005zm-3.156-.33c-.06-.024-.085-.085-.085-.206 0-.097.021-.182.07-.287.075-.156.198-.307.29-.353.07-.036.078-.029.028.026-.122.134-.23.33-.248.45l-.006.037h.05c.153 0 .204.174.085.289a.186.186 0 0 1-.185.044zM7.764 8.63c-.146-.11-.27-.224-.27-.248 0-.042.223-.48.291-.572.011-.015.016-.013.094.05.154.121.202.176.226.256.026.09.012.166-.054.3-.063.128-.172.25-.223.25a.179.179 0 0 1-.064-.036zm-2.54-.082c0-.013.058-.146.089-.202.092-.168.249-.315.839-.786.51-.407.772-.627.977-.818.126-.118.745-.715.828-.8.025-.025.047-.043.05-.04.025.024-.167.369-.302.542-.175.225-.35.4-.713.718-.388.339-.688.584-1.015.826a20.815 20.815 0 0 0-.689.537c-.04.03-.064.039-.064.023zm6.999-.445a3.47 3.47 0 0 1-.222-.18c-.088-.077-.088-.067-.005-.242.067-.14.145-.286.21-.388l.026-.044.085.067c.212.17.262.26.228.407a.9.9 0 0 1-.106.24c-.051.075-.145.162-.176.162a.164.164 0 0 1-.04-.022zM6.96 6.656a.292.292 0 0 1 .078-.111 5.62 5.62 0 0 1 .4-.371c.107-.085.236-.17.24-.158.01.03-.196.251-.383.412-.092.08-.283.231-.326.259l-.023.014zm4.137-.088a13.93 13.93 0 0 1-.721-.041l-.363-.03c-.535-.043-.856-.098-1.144-.198-.2-.07-.336-.173-.405-.308a.553.553 0 0 1-.055-.283c0-.07.003-.14.006-.156.008-.04.035-.067.064-.067.012 0 .091.034.175.075.382.19.617.24 1.392.296.708.05 1.302.078 2.03.093.492.01.635.005 1.185-.042.107-.01.306-.025.443-.034a9.972 9.972 0 0 0 2.76-.556 1.4 1.4 0 0 0 .443-.221c.112-.081.195-.134.209-.134.01 0-.015.054-.063.139-.168.296-.436.51-.85.677-.143.058-.58.214-.753.269-.651.207-1.353.343-2.155.416-.839.077-1.696.118-2.198.105zm.607-1.74a1.743 1.743 0 0 1-.222-.193c-.016-.02-.016-.021.003-.069a4.19 4.19 0 0 1 .275-.513c.02-.026.026-.03.05-.025.061.01.21.133.27.222l.038.056a1.05 1.05 0 0 0 .1-.156c.126-.217.146-.243.18-.243.077 0 .224.124.279.234a.437.437 0 0 1 .036.1c.017.11-.089.335-.222.476-.04.042-.053.05-.077.05-.036 0-.092-.04-.15-.107a1.382 1.382 0 0 0-.103-.102l-.06-.053-.033.067c-.105.208-.195.322-.254.322-.014 0-.053-.023-.11-.067zm.383-.793a4.623 4.623 0 0 1-.283-.24c-.013-.014-.023-.032-.023-.04 0-.053.187-.466.253-.556.03-.042.05-.044.117-.014.143.067.256.243.243.379-.015.152-.196.495-.263.495a.148.148 0 0 1-.044-.024z"/></svg>