<svg viewBox="0 0 24 24" xmlns="http://www.w3.org/2000/svg" role="img"><path d="M11.373 23.876c-.786-.171-1.308-.529-1.637-1.124-.102-.185-.121-.204-.316-.308-.618-.33-.98-.835-.979-1.364.001-.31.159-.721.39-1.02.2-.256.21-.278.21-.46 0-.55.295-1 .827-1.257.431-.21.977-.35 1.464-.375.143-.008.324-.02.402-.029l.144-.014v-.569h.218v.271c0 .177.011.278.032.29.017.012.192.03.388.042.854.05 1.52.252 1.93.583.195.156.382.403.462.607.047.12.062.216.064.405l.002.248.145.188c.177.229.375.626.414.83.049.254-.015.66-.142.91-.115.225-.478.545-.803.708-.156.078-.226.156-.363.4-.266.472-.807.847-1.461 1.014-.329.083-1.058.096-1.391.023zm-2.357-.277a3.464 3.464 0 0 1-.998-.332c-.24-.122-.31-.176-.584-.449l-.311-.31-.22-.027c-.795-.099-1.545-.468-2.044-1.007-.505-.546-.679-1.406-.457-2.268.316-1.23 1.32-1.987 2.893-2.177a7.537 7.537 0 0 1 3.422.498c.313.126.385.183.229.184-.12 0-.585.113-.841.206-.625.224-1 .527-1.218.981-.088.184-.124.335-.16.67-.013.127-.04.184-.154.34-.29.398-.406.737-.412 1.212-.003.26.004.305.08.496.129.322.364.65.731 1.021.36.363.692.62.974.755.1.048.184.1.184.117.004.078-.748.139-1.114.09zm5.48.013c-.301-.027-.627-.076-.627-.094 0-.011.095-.075.211-.142.707-.41 1.25-.933 1.543-1.489.364-.69.31-1.27-.185-1.98-.175-.251-.178-.26-.178-.432 0-.31-.145-.679-.369-.94a2.358 2.358 0 0 0-.563-.439c-.203-.114-.824-.318-1.108-.362-.123-.02-.224-.045-.224-.056 0-.085.888-.376 1.596-.522.564-.117.812-.14 1.472-.14.701 0 1.018.039 1.498.18.54.161.897.364 1.276.728.615.59.907 1.325.858 2.16-.059 1.028-.625 1.735-1.746 2.18a3.68 3.68 0 0 1-.767.204c-.348.044-.334.038-.479.216-.37.458-1.091.84-1.73.916a1.68 1.68 0 0 1-.478.012zM2.972 19.818c-.218-.113-.758-.622-.932-.88-.285-.42-.619-1.344-.52-1.435.02-.017.193-.17.388-.339.195-.17.43-.377.52-.46.09-.084.428-.38.75-.656.322-.277.83-.721 1.13-.987 1.522-1.347 3.516-3.078 3.546-3.078.118 0 .65.468.73.643.035.08.021.101-.523.8-.733.944-1.49 1.924-1.802 2.334-.17.225-.714.923-1.207 1.551-.493.628-1.129 1.445-1.412 1.816-.283.371-.53.688-.55.704-.026.021-.058.018-.118-.013zM20.8 19.7c-.063-.09-.295-.393-.515-.674a250.311 250.311 0 0 0-2.025-2.611 170.08 170.08 0 0 1-1.241-1.596c-.224-.292-.58-.752-.79-1.023-.494-.63-.833-1.077-.833-1.097 0-.053.195-.304.338-.433.236-.215.39-.302.458-.26a715.7 715.7 0 0 1 5.437 4.75c.315.282.643.57.73.64.09.073.156.148.156.178 0 .098-.195.697-.301.923a3.23 3.23 0 0 1-.235.41c-.247.348-.752.825-.973.917l-.091.038zm-9.359-2.428c-.299-.094-1.284-.319-1.84-.42-.938-.173-1.813-.238-2.415-.18-.409.04-.643.085-1.075.208-.18.051-.33.089-.336.083-.02-.02.565-.44.796-.572.586-.333 1.44-.603 2.21-.7.454-.056 2.336-.026 2.844.046l.116.016v.801c0 .441-.009.801-.02.8-.011 0-.137-.038-.28-.082zm.819-.718v-.802l.13-.017c.613-.08 2.414-.098 2.93-.03 1.03.137 1.996.528 2.75 1.114.092.072.162.138.154.146-.008.008-.19-.037-.405-.099-.528-.152-.856-.196-1.468-.197a9.998 9.998 0 0 0-1.555.117c-.737.102-1.765.325-2.299.5a3.82 3.82 0 0 1-.225.07c-.007 0-.012-.361-.012-.802zM.816 16.219c-.523-.832-.68-1.485-.62-2.582l.021-.404 1.705-.71c.938-.39 2.368-.983 3.178-1.317.81-.335 1.546-.642 1.636-.682l.163-.074.063.078c.242.293.579.91.579 1.06 0 .066-.019.1-.075.137a773.04 773.04 0 0 0-3.237 2.407 429.85 429.85 0 0 1-3.195 2.37c-.019.006-.113-.116-.218-.283zm21.044-.522c-1.462-1.1-5.302-3.97-5.375-4.018l-.059-.04.085-.212c.127-.315.44-.82.584-.94.028-.023.255.062.949.353.501.21 1.243.519 1.648.684.405.166 1.24.516 1.855.778.615.263 1.344.569 1.62.68.275.111.523.214.55.23.083.043.107.205.107.717 0 .964-.143 1.483-.636 2.302-.098.164-.185.279-.209.277-.023 0-.526-.366-1.118-.811zm-14.756.073c0-.018.318-.512.705-1.098.388-.587.8-1.215.914-1.396l.21-.33.13.02a.996.996 0 0 1 .5.245c.092.087.103.11.081.166-.085.221-.64 1.384-.702 1.474-.276.4-.84.766-1.351.88-.27.059-.487.076-.487.039zm9.52.004c-.51-.06-1-.314-1.38-.715-.215-.225-.311-.398-.677-1.207l-.235-.517.116-.118c.137-.14.352-.252.493-.257.113-.004.18.043.27.194.032.054.398.613.813 1.243.827 1.258.872 1.329.872 1.374 0 .033-.01.033-.272.003zm-5.122-.31a2.64 2.64 0 0 1-.263-.075c-.014-.014.17-1.52.189-1.551.033-.054.233-.082.572-.08.195.001.41.017.478.034l.122.032.02.177.077.655c.032.262.054.538.049.613l-.01.135-.163.052c-.11.034-.273.055-.491.062-.278.009-.365 0-.58-.054zm-1.547-.192a.87.87 0 0 1-.394-.2l-.093-.08.283-.757.283-.757.206.019c.113.01.276.041.362.068.185.057.403.18.402.226-.002.115-.246 1.393-.272 1.424-.074.09-.516.122-.777.057zm3.48.003c-.081-.018-.157-.051-.17-.074-.023-.045-.278-1.446-.264-1.458.069-.057.419-.186.604-.222.366-.072.336-.103.608.617.311.82.318.84.302.882-.008.02-.116.09-.241.155-.21.11-.246.12-.46.126a1.932 1.932 0 0 1-.379-.026zM.078 11.826c-.07-.26-.079-.338-.078-.675 0-.358.006-.398.088-.633.113-.326.236-.57.315-.621a.526.526 0 0 1 .184-.056c.067-.008 1.361-.18 2.876-.384 1.515-.203 2.825-.376 2.91-.385l.154-.015.054.106c.092.18.169.473.169.639 0 .14-.01.166-.073.216-.04.031-.16.082-.266.113-.208.061-2.565.817-4.12 1.321a85.06 85.06 0 0 1-2.117.667c-.01 0-.052-.132-.096-.293zm20.719-.677a712.556 712.556 0 0 0-3.244-1.035 1.442 1.442 0 0 1-.266-.099c-.081-.067-.014-.533.117-.799.09-.184.04-.18.814-.07.316.045 1.593.217 2.838.382l2.386.316a.68.68 0 0 1 .174.044c.065.034.212.354.308.666.066.217.074.286.076.665.002.363-.007.45-.058.614a1.193 1.193 0 0 1-.096.236c-.032.042-.295-.037-3.05-.92zM7.432 9.91c0-.017 1.536-.026 4.553-.026 3.006 0 4.56.009 4.57.027.012.018-1.513.027-4.553.027-3.029 0-4.57-.009-4.57-.027zm.529-.375c.043-.01.087-.038.098-.06.103-.223.131-.263.21-.3l.089-.041v-1.04c0-.572-.006-1.095-.016-1.164a.478.478 0 0 0-.122-.252c-.15-.18-.18-.302-.132-.513a2.04 2.04 0 0 0 .041-.359l.002-.19h.08c.074 0 .08.007.088.118.008.117.01.119.093.102.09-.018.201-.092.872-.579.51-.37.59-.419.68-.42.076 0 .09-.007.582-.362l.327-.234.086.053c.067.041.135.053.319.053h.234l.042-.143c.085-.289.35-.543.522-.5.154.038.447.427.448.593 0 .037.035.047.178.054.184.01.27-.003.41-.06.09-.037.115-.022.662.39.11.082.211.136.281.147.14.022.435.208 1.021.643.3.222.494.348.546.354.077.008.08.003.089-.108.008-.112.01-.115.102-.115h.094v.203c0 .112.018.274.041.361.053.2.036.27-.108.467a2.85 2.85 0 0 0-.148.217c-.021.04-.03.398-.03 1.17v1.114l.088.04c.085.04.16.14.197.267.03.104-.032.067-.077-.045-.066-.165-.157-.221-.36-.221-.16 0-.175.005-.255.096a.527.527 0 0 0-.1.163c-.01.037-.03.068-.045.068-.035 0-.004-.129.05-.212a.539.539 0 0 1 .133-.122c.063-.04.1-.09.11-.143.008-.045.011-.536.007-1.091l-.008-1.01-.566-.007-.566-.007v2.224l.081.047c.088.05.191.197.192.274 0 .08-.047.053-.065-.036a.39.39 0 0 0-.097-.164c-.072-.072-.097-.08-.257-.08-.161 0-.185.008-.26.083a.409.409 0 0 0-.1.177c-.01.052-.03.095-.043.095-.033 0-.03-.063.01-.194.027-.089.055-.12.137-.156l.102-.045V6.91h-1.091v2.236l.109.018c.09.014.11.028.11.079 0 .033.017.112.039.173l.04.113h-.704c-.387 0-1.574.006-2.638.013-1.063.007-1.898.004-1.855-.007zm.916-.062c0-.068-.11-.236-.176-.266a.675.675 0 0 0-.219-.032c-.172 0-.26.06-.327.225l-.042.102h.382c.247 0 .382-.01.382-.029zm.624-.079a.441.441 0 0 1 .154-.208l.122-.1V6.91H8.632v2.175l.122.1a.44.44 0 0 1 .154.208l.033.108h.528zm-.696-.534a8.325 8.325 0 0 1-.006-.703c.01-.642.013-.667.078-.794.124-.24.374-.301.552-.134.159.15.168.201.18.97l.01.703h-.4c-.33 0-.4-.007-.414-.042zm.372-.614v-.602l-.156.008-.157.008-.007.559a7.32 7.32 0 0 0 .006.593c.009.023.067.035.164.035h.15zm.376.008-.007-.593-.157-.008-.157-.008v1.202h.329zm-.457-.686c0-.04-.166-.169-.194-.152-.013.008-.025.052-.025.096 0 .076.007.08.11.08.06 0 .109-.01.109-.025zm.436-.01c-.001-.058-.033-.156-.05-.156a.381.381 0 0 0-.094.095l-.077.096h.11c.071 0 .11-.013.11-.034zm-.133-.294a.231.231 0 0 0-.116-.053c-.045 0-.051.021-.051.17v.17l.116-.117.116-.117zm-.222.097c0-.14-.005-.15-.064-.15A.18.18 0 0 0 9 7.265c-.05.054-.048.057.042.15a.43.43 0 0 0 .113.095c.012 0 .022-.068.022-.15zM10.255 9.4c-.07-.171-.154-.225-.35-.225-.113 0-.191.015-.233.044a.456.456 0 0 0-.14.255c0 .018.138.028.382.028h.382zm.313-.403v-.504h-.3v.406c0 .513.029.603.192.603h.108zm.33.416c.019-.05.039-.269.046-.504l.012-.416h-.333V9.5h.12c.11 0 .123-.007.154-.089zm.775.028c-.054-.194-.157-.266-.375-.266-.112 0-.168.015-.225.059-.062.049-.15.197-.15.253 0 .008.173.015.384.015h.383zm.625-.032c.017-.089.172-.262.235-.262.017 0 .027-.418.027-1.118v-1.12l-.553.008-.552.007-.007 1.095-.007 1.095.098.058c.07.04.116.098.156.193l.057.136h.529zm-.682-.545a9.438 9.438 0 0 1-.006-.716c.008-.646.011-.684.07-.795.155-.29.478-.292.646-.006.052.089.057.147.065.825l.008.73h-.385c-.302 0-.387-.008-.399-.038zm.343-.617v-.6h-.3v1.2h.3zm.382 0v-.602l-.156.008-.157.008-.007.593-.007.593h.328zm-.504-.736c-.043-.045-.095-.082-.114-.082-.022 0-.036.033-.036.082 0 .078.005.082.114.082h.114zm.49-.007a.46.46 0 0 0-.029-.099c-.018-.02-.145.078-.175.133-.027.051-.02.055.097.055h.126zm-.191-.023c.148-.13.114-.27-.066-.27-.05 0-.056.016-.056.177a.63.63 0 0 0 .013.178.65.65 0 0 0 .109-.085zm-.177-.12c0-.17-.038-.192-.163-.096l-.068.052.094.097a.444.444 0 0 0 .116.097c.012 0 .021-.068.021-.15zm1.119 2.099c0-.079-.083-.202-.163-.244-.105-.054-.353-.054-.431.001-.067.047-.143.176-.143.243 0 .036.054.042.369.042.314 0 .368-.006.368-.042zm-1.959-.312c.047 0 .05-.06.05-1.119V6.91h-1.146v1.082c0 .969.005 1.087.045 1.132.025.027.066.05.093.05.043 0 .046-.04.033-.512-.015-.586.023-1.191.083-1.306.077-.148.175-.214.315-.214.16 0 .257.06.336.212.059.11.062.15.072.984.008.63.019.86.04.838a.128.128 0 0 1 .08-.03zm-2.542-1.16V6.854l.62.007.621.007.014 1.119.014 1.118.061.009.061.009V6.855h1.254l.007 1.125.007 1.126.075.009.075.009.007-1.127.007-1.127.606-.007.607-.007.007 1.125.007 1.126h.164l.007-1.125.007-1.125h1.199l.006 1.125.007 1.125h.164l.007-1.125.007-1.125h1.226l.007 1.125.007 1.125h.137l.013-1.133.014-1.133.085-.108c.105-.135.15-.219.128-.24-.025-.025-7.646-.022-7.645.002 0 .011.055.1.122.196l.123.175V9.12h.163zm1.991.055v-.396h-.3v.791h.3zm.369 0V7.66l-.157-.008-.157-.008v.379c0 .208.009.387.02.398.01.01.08.016.156.011l.138-.008zm-.491-.532c-.088-.091-.136-.103-.161-.039-.038.1-.02.12.111.12h.128zm.504.072c0-.035-.063-.18-.077-.179a.434.434 0 0 0-.096.095l-.078.094h.126a.387.387 0 0 0 .125-.01zm-.382-.222c0-.129-.007-.15-.051-.15a.233.233 0 0 0-.116.053l-.064.052.094.098a.446.446 0 0 0 .116.097c.012 0 .021-.067.021-.15zm.19.055c.09-.092.092-.096.043-.15a.18.18 0 0 0-.114-.055c-.06 0-.064.01-.064.15 0 .083.01.15.022.15a.429.429 0 0 0 .114-.095zm-.986-1.112.008-.13H8.113v.119c0 .065.008.126.019.137.01.01.381.015.825.011l.806-.007zm.191 0c.008-.123.005-.13-.061-.13-.064 0-.07.01-.07.119 0 .13.017.16.08.148.03-.006.045-.047.05-.137zm3.982 0 .008-.13h-3.93v.119c0 .065.008.126.018.136.01.01.89.016 1.957.012l1.939-.007zm.246 0 .008-.13h-.097c-.096 0-.097.002-.097.119 0 .139.015.16.108.149.062-.007.07-.022.077-.138zm1.69 0 .009-.13h-1.64v.119c0 .065.008.126.019.137.01.01.375.015.811.011l.793-.007zm-7.637-.402c-.01-.271-.06-.302-.07-.044-.01.201.003.262.049.262.019 0 .027-.076.021-.218zm2.602.014a1.069 1.069 0 0 0-.02-.203c-.007-.006-.04.002-.074.019-.077.038-.54.036-.588-.002-.026-.02-.058-.016-.115.018-.075.044-.086.044-.175.002-.056-.027-.108-.035-.13-.022-.019.013-.228.025-.464.026-.331.002-.437-.006-.46-.034-.044-.052-.06-.048-.195.055a.655.655 0 0 1-.22.11c-.096.018-.1.024-.1.127v.108l1.275-.007 1.275-.007zm2.232-.3V5.11h-2.155v1.009h2.155zm-1.773.206c0-.016.018-.03.04-.03.046 0 .056-.042.016-.067-.032-.019-.007-.096.03-.096.014 0 .022.046.018.102-.006.071-.023.105-.057.111-.026.005-.047-.004-.047-.02zm.136.001c0-.013.025-.03.055-.038.036-.01.049-.03.038-.058-.012-.03 0-.043.038-.043.042 0 .052-.014.04-.055-.017-.068.068-.077.093-.01.012.03-.017.073-.09.135-.103.09-.174.117-.174.07zm.696-.02c.03-.022.05-.058.046-.08-.009-.042.037-.055.06-.017.022.036-.064.141-.115.14-.04 0-.038-.007.008-.042zm.407-.01c.027-.028.04-.065.03-.08-.01-.018.008-.03.047-.03.035 0 .08-.015.098-.034.027-.027.038-.026.056.003.017.027.054.032.139.018.091-.016.113-.012.103.017-.012.036-.188.08-.316.079a.167.167 0 0 0-.105.04c-.06.06-.107.05-.052-.012zm-.665-.026c-.038-.071-.036-.102.004-.062.058.059.12.038.118-.04-.002-.106.052-.106.06 0 .005.075-.006.097-.063.123-.089.04-.087.04-.12-.021zm-.872-.036c.001-.034.008-.046.016-.027a.061.061 0 0 0 .052.034c.021 0 .039.012.039.027s-.025.027-.055.027c-.039 0-.054-.017-.052-.061zm.173.04a.169.169 0 0 1-.047-.07c-.016-.04-.008-.046.039-.03.036.011.066.005.08-.02.016-.023.022-.005.018.052-.006.088-.032.108-.09.068zm1.189-.06c0-.016.018-.028.04-.028.026 0 .034-.016.023-.048-.013-.037-.009-.04.018-.015.02.018.028.051.019.075-.018.047-.1.06-.1.015zm-.075-.11c0-.067.005-.095.012-.061a.42.42 0 0 1 0 .123c-.007.033-.012.006-.012-.062zm-1.248 0c-.01-.015-.004-.027.012-.027s.029.012.029.027-.005.027-.012.027-.02-.012-.03-.027zm1.874-.032c.017-.05.076-.06.076-.011 0 .024-.02.043-.043.043-.024 0-.039-.014-.033-.032zm-1.315-.077c0-.015.012-.027.027-.027s.027.012.027.027a.027.027 0 0 1-.027.027.027.027 0 0 1-.027-.027zm4.086.512c-.008-.11-.014-.117-.106-.131a.53.53 0 0 1-.193-.09c-.11-.084-.144-.088-.275-.033-.084.035-.101.035-.156-.004-.056-.04-.07-.04-.155 0-.085.041-.102.042-.175.004-.054-.028-.097-.034-.128-.017-.066.034-.53.03-.575-.004-.026-.021-.059-.015-.12.02-.08.049-.087.049-.175.002-.073-.04-.098-.043-.131-.015-.029.024-.09.028-.205.015l-.165-.02v.388H15.7zm.142-.116c0-.188-.008-.232-.041-.232-.034 0-.041.044-.041.232 0 .187.008.231.04.231.034 0 .042-.043.042-.231zM9.387 5.67l.077-.066.06.073.06.073.113-.06.114-.061.069.054c.086.067.105.067.163 0 .055-.066.112-.071.134-.015.01.027.052.041.12.041.08 0 .108-.012.121-.054.01-.03.028-.055.041-.055.013 0 .032.025.041.055.013.042.041.054.122.054.067 0 .11-.014.12-.04.009-.023.039-.041.067-.041.047 0 .051-.023.048-.258-.002-.15.01-.27.027-.287.02-.02.378-.027 1.132-.022l1.103.007.008.307c.008.3.009.306.062.273.047-.029.06-.026.083.014.034.06.202.065.225.007.022-.057.078-.051.134.013.058.069.077.068.167-.003.068-.053.077-.054.122-.013.07.063.213.057.249-.011.016-.03.04-.055.052-.055.013 0 .03.025.038.055.01.043.037.055.123.055.071 0 .114-.014.124-.041.021-.056.062-.052.126.013.057.056.114.05.196-.02.04-.034.056-.032.125.02.069.05.089.054.152.025.04-.018.073-.042.073-.053 0-.022-.146-.134-.573-.44-.375-.27-.463-.322-.546-.323-.077 0-.162-.053-.575-.358a2.493 2.493 0 0 0-.317-.214.784.784 0 0 0-.153.055c-.106.047-.157.052-.344.037-.213-.018-.22-.02-.22-.09-.001-.118-.098-.295-.242-.439-.167-.167-.234-.174-.384-.038-.116.105-.273.388-.273.493 0 .062-.005.063-.276.063-.226 0-.288-.009-.348-.051l-.072-.052-.26.191c-.39.29-.573.403-.646.403-.097 0-.188.055-.615.37l-.454.335c-.085.062-.055.114.064.114.062 0 .103-.019.13-.059l.038-.059.073.073c.088.088.106.089.202.006zm3.99 3.829c0-.016.013-.021.028-.012.015.009.027.022.027.029 0 .007-.012.012-.027.012s-.027-.013-.027-.029zm.053-.386-.003-.117-.028.102c-.025.096-.034.103-.131.103-.192 0-.19.004-.19-.369v-.335l.096-.018c.126-.023.193 0 .218.075l.02.06.012-.061c.01-.055.028-.062.16-.062h.15l-.008.362-.008.361-.143.008-.144.008zm.984-.916c0-.675.002-.708.062-.825.16-.318.51-.321.656-.005.056.12.06.177.068.831l.01.703h-.795zm.376.056-.007-.593-.157-.008-.157-.008v1.202h.329zm.36-.007v-.6h-.3v1.2h.3zm-.46-.706c-.03-.053-.164-.152-.182-.133a.382.382 0 0 0-.029.098l-.017.086h.127c.116 0 .125-.005.1-.05zm.433-.01c0-.125-.039-.134-.136-.034l-.092.095h.114c.1 0 .114-.007.114-.061zm-.327-.157c0-.156-.003-.164-.068-.164-.066 0-.177.084-.177.134 0 .027.191.191.225.193.01 0 .02-.073.02-.163zm.207-.112c-.121-.096-.152-.071-.151.119v.17l.108-.119.108-.119-.065-.051zM.626 8.53c-.024-.312.009-.505.122-.735.1-.205.331-.49.44-.547.09-.046.282-.036 1.061.056.188.023 1.217.133 2.288.246 1.07.112 1.957.21 1.97.219.072.044.103.429.05.62-.045.164-.087.176-.666.195-.556.017-1.695.065-3.642.153-.667.03-1.301.054-1.409.054H.645zm21.67.23-1.213-.05c-.39-.016-1.083-.047-1.541-.07-.458-.022-1.1-.048-1.428-.057l-.596-.017-.04-.097c-.047-.113-.042-.638.006-.687.04-.04.445-.09 2.29-.274l2.315-.234.68-.07.147.146c.209.204.406.507.444.682.017.08.027.28.022.444l-.009.3-.286.004c-.157.002-.513-.007-.79-.02zm-9.218-.733v-.382h.3v.763h-.3zm.354-.001v-.384l.144.008.143.008.008.375.008.375h-.301zm-.354-.502c0-.105.053-.111.145-.019l.086.086h-.116c-.104 0-.115-.006-.115-.067zm.463.044a.32.32 0 0 1 .079-.097l.078-.075.017.063c.03.115.02.132-.078.132-.053 0-.096-.01-.096-.023zm-.255-.089c-.114-.09-.14-.156-.083-.218a.174.174 0 0 1 .11-.052c.06 0 .065.01.065.163 0 .09-.004.164-.01.164a.488.488 0 0 1-.082-.057zm.146-.105c0-.154.004-.165.063-.165.133 0 .173.141.067.236-.122.11-.13.106-.13-.071zm3.914-.271c-.095-.143-.142-.294-.164-.53-.019-.202-.017-.209.045-.235a206.117 206.117 0 0 0 2.681-1.015c.735-.283 1.36-.515 1.39-.515.143 0 .653.434.766.653.086.166.151.39.169.577l.017.183-.12.019c-.066.01-.721.146-1.456.301a185.9 185.9 0 0 1-3.186.648c-.065.01-.088-.003-.142-.086zM5.972 7.088c-.69-.148-3.454-.72-3.852-.798l-.362-.071v-.1c0-.15.098-.504.183-.66.087-.16.372-.43.595-.565l.153-.093 1.656.623c.91.343 1.812.682 2.004.752.191.07.38.15.419.175.068.044.07.054.057.25a.802.802 0 0 1-.108.385c-.09.175-.099.183-.201.189a3.82 3.82 0 0 1-.544-.087zm-.721-2.209c-.982-.5-1.79-.922-1.795-.937a.516.516 0 0 1 .064-.174 2.337 2.337 0 0 1 1.387-1.213c.242-.082.262-.08.358.02.044.047.227.21.407.36 1.465 1.23 2.054 1.74 2.092 1.804.06.104-.57 1.056-.696 1.051-.018 0-.835-.41-1.817-.91zm11.559.81c-.138-.124-.344-.433-.492-.738-.11-.227-.11-.227-.053-.267.031-.022.269-.221.528-.442.66-.564 1.724-1.469 1.906-1.622a.812.812 0 0 1 .182-.129c.07 0 .555.203.723.303.23.136.493.38.673.623.146.196.284.468.27.53-.006.02-.482.276-1.06.569-.577.292-1.377.7-1.778.904a14.2 14.2 0 0 1-.757.371.51.51 0 0 1-.142-.102zM7.813 3.753l-.831-.891a21.436 21.436 0 0 1-.844-.938l-.053-.069.271-.262c.403-.389.782-.567 1.335-.629.469-.052.42-.075.615.293.45.851 1.117 2.14 1.117 2.158 0 .093-.887.738-1.105.805-.045.013-.138-.072-.505-.467zm7.692.372c-.362-.197-.862-.587-.89-.695-.01-.04.056-.198.196-.478.35-.699.998-1.917 1.05-1.972.048-.05.067-.051.349-.02.546.059.906.183 1.222.423.173.13.474.437.474.482 0 .014-.085.12-.188.237-.377.426-1.954 2.118-1.98 2.126-.016.005-.12-.042-.233-.103zM9.663 3.039c-.06-.129-.223-.498-.364-.82-.14-.323-.34-.783-.446-1.023l-.19-.437.073-.061c.42-.35.782-.447 1.32-.35l.258.046.264 1.246c.146.686.264 1.259.263 1.274-.002.032-.453.24-.615.283a2.84 2.84 0 0 1-.283.053l-.172.024zm4.351.202c-.326-.058-.814-.247-.845-.328-.014-.038.25-1.35.495-2.455.01-.046.05-.063.224-.096.323-.06.696-.05.887.026.203.079.481.266.518.346.025.055-.044.232-.497 1.272-.29.664-.54 1.222-.556 1.238-.022.023-.082.022-.226-.004zm-2.531-.371a3.374 3.374 0 0 1-.25-.033 71.787 71.787 0 0 1-.27-1.846A15.171 15.171 0 0 0 10.88.4c-.013-.05.007-.071.119-.128.326-.166.474-.195.989-.195.37 0 .516.01.649.048.203.056.47.182.489.23.007.02-.02.253-.06.52-.041.266-.12.815-.174 1.22l-.1.736-.109.02c-.195.034-.948.046-1.199.019z"/></svg>