<svg viewBox="0 0 24 24" xmlns="http://www.w3.org/2000/svg" role="img"><path d="M11.836 23.968a1.612 1.612 0 0 1-.66-.34.702.702 0 0 1-.254-.565c-.002-.254.062-.419.227-.584.122-.122.139-.131.19-.103.079.041.629.458.663.501.016.02.036.103.045.186.017.164.074.239.178.239.1 0 .15-.087.15-.263.001-.2-.005-.207-.426-.492-.365-.247-.54-.388-.54-.437 0-.068.434-.407.581-.454.034-.01.085.014.167.083.11.091.366.276.847.614.373.262.465.391.465.653-.001.61-.884 1.13-1.633.962zm-1.733-1.535c-.367-.097-.697-.332-.83-.59-.074-.143-.096-.448-.043-.576.053-.125.166-.25.226-.25.071 0 .183.073.435.286.12.1.278.22.352.265l.135.082.158-.113c.087-.062.26-.195.384-.294.124-.1.239-.187.255-.194.051-.02.636.397.636.453 0 .035-.06.086-.49.411-.193.147-.413.317-.49.38a1.238 1.238 0 0 1-.218.146c-.104.044-.333.041-.51-.006zm3.273-.096c-.132-.042-.262-.122-.302-.187-.028-.047-.002-.072.339-.324.203-.15.384-.291.402-.313.027-.033-.021-.078-.346-.32a4.426 4.426 0 0 1-.377-.3c0-.069.559-.48.652-.48.052 0 .316.183.692.478.152.12.34.265.418.323.2.15.22.21.142.438-.034.1-.07.2-.082.225-.033.074.06.052.263-.063.232-.132.284-.215.268-.423-.02-.238-.096-.349-.378-.544-.064-.044-.117-.091-.117-.104 0-.012.064-.083.14-.157.18-.173.22-.25.223-.436.003-.196-.093-.396-.276-.576-.259-.255-.566-.365-1.021-.365h-.244l-.028-.108c-.035-.133-.08-.169-.215-.169-.093 0-.107-.008-.126-.07-.012-.037-.022-1.453-.024-3.145l-.009-6.086c-.003-1.656.001-3.017.01-3.026.042-.041.1.142.139.436.015.11.129.703.254 1.318.192.947.25 1.19.385 1.594.347 1.049.752 1.972.864 1.972.01 0 .092-.092.181-.205.336-.428.689-.638 1.188-.708l.097-.014-.015.08a5.868 5.868 0 0 0-.03.42c-.02.418.027.678.202 1.121.185.465.457.938.54.938a8.6 8.6 0 0 0 .52-.273c.698-.384 1.167-.529 1.615-.498.352.024.725.224.86.463.111.198.28.308.685.447.217.075.289.132.289.232v.064l-.409-.017c-.47-.019-.592.002-.883.154a1.426 1.426 0 0 0-.734.967c-.06.285-.033.877.076 1.626.186 1.286.177 1.906-.04 2.584-.271.853-.752 1.421-1.55 1.833-.61.314-1.117.49-2.14.741-.47.115-.76.199-.788.226-.075.075-.34.194-.511.23-.207.044-.659.044-.799 0zm3.12-.914c.354-.115.926-.402 1.307-.654.325-.215.62-.499.781-.75.149-.232.302-.58.369-.836.06-.235.061-.249.04-.816a30.77 30.77 0 0 0-.089-1.319 15.856 15.856 0 0 1-.07-1.255c-.003-.468.002-.534.055-.716.196-.684.578-1.068 1.321-1.328.045-.016.042-.023-.028-.098a2.264 2.264 0 0 1-.179-.235c-.232-.348-.446-.452-.888-.43-.318.014-.527.08-.993.31-.37.182-.728.415-1.237.803-.473.36-.508.395-.48.471.046.119.23.473.42.802.524.91.846 1.632 1 2.236.264 1.04.145 1.878-.377 2.644-.291.428-.583.715-1.053 1.036-.44.3-.433.309.1.135zm-.322-.248.368-.28c.192-.147.326-.287.565-.594.229-.294.325-.458.415-.712.38-1.066.014-2.506-1.153-4.537-.127-.221-.27-.487-.318-.59a13.094 13.094 0 0 0-.352-.653c-.765-1.346-1.575-3.009-1.85-3.799-.08-.23-.15-.382-.168-.365-.006.006-.011 2.044-.012 4.53l-.002 4.518.143.04a.384.384 0 0 1 .221.13c.071.084.099.096.323.141a1.6 1.6 0 0 1 .871.451c.24.238.33.408.347.658.016.22-.033.359-.174.5l-.101.101.14.144c.141.144.194.252.231.472a.65.65 0 0 0 .028.12c.018.032.25-.101.478-.275zm.334-7.1c.117-.09.26-.21.319-.27l.105-.11-.225-.389c-.39-.673-.493-.999-.518-1.626-.018-.444-.012-.437-.262-.304-.17.09-.31.222-.582.547-.135.16-.194.25-.194.296 0 .037.078.209.173.382.096.174.3.553.456.843.326.607.438.792.482.792.018 0 .128-.073.246-.162zm-7.916 7.87c-1.026-.19-2.121-.61-2.746-1.049a2.637 2.637 0 0 1-.628-.605c-.404-.537-.607-1.13-.667-1.954-.036-.491-.007-.865.14-1.82.126-.824.136-1.03.065-1.308a1.72 1.72 0 0 0-.947-1.143c-.145-.068-.156-.069-.556-.062-.224.004-.407-.002-.407-.013a.605.605 0 0 1 .044-.106c.048-.097.076-.115.386-.242.199-.081.225-.1.317-.231.422-.6.928-.733 1.762-.459.326.107.483.181.876.414.449.265.416.255.5.153.164-.199.458-.803.578-1.188.066-.21.069-.24.068-.76l-.001-.542.064.01c.2.03.435.097.574.164.167.081.553.424.696.617.04.057.088.103.105.104.017 0 .066-.052.11-.115.293-.427.804-1.918 1.051-3.074.114-.528.262-1.379.303-1.733.03-.258.061-.366.112-.386.033-.012.04 1.088.072 9.913l.008 2.382-.052.02a1.33 1.33 0 0 1-.153.042c-.095.02-.101.027-.122.14l-.021.12h-.268c-.462 0-.738.1-.986.352-.185.19-.285.392-.284.577.001.168.043.251.224.447.076.083.139.16.139.172 0 .012-.043.05-.094.084-.285.192-.357.315-.358.607 0 .24.05.315.26.38a.731.731 0 0 1 .196.093l.059.049-.088-.002a3.044 3.044 0 0 1-.332-.047zm-.813-.423a27.814 27.814 0 0 0-.414-.31c-.401-.298-.568-.463-.838-.83a2.967 2.967 0 0 1-.592-1.764c-.001-.92.331-1.881 1.213-3.51.147-.272.268-.523.268-.557 0-.074-.03-.1-.787-.654-.457-.334-.642-.453-.904-.581-.484-.236-.75-.317-1.046-.32-.208-.002-.258.007-.382.064-.172.08-.345.235-.473.424a1.09 1.09 0 0 1-.19.211l-.094.072.073.033c.04.017.192.078.337.133.56.215.851.557 1.022 1.196.062.232.066.286.066.777 0 .388-.017.706-.067 1.205-.089.885-.108 1.381-.067 1.747.064.583.278 1.1.597 1.444.13.14.56.499.722.602.33.212 1.023.52 1.375.612.178.046.228.048.18.007zm.44-.145c0-.168.056-.29.209-.452.166-.178.168-.136-.023-.436-.086-.134-.088-.144-.078-.339.014-.278.097-.447.334-.683.23-.228.534-.384.887-.454.22-.045.237-.052.268-.125.037-.09.076-.114.254-.156l.129-.03.018-.342c.01-.188.01-.806 0-1.373a608.94 608.94 0 0 1-.039-4.032c-.012-1.65-.032-3.035-.044-3.077l-.022-.075-.053.085c-.058.094-.151.316-.394.936-.127.326-.336.743-.947 1.896a60.824 60.824 0 0 0-.879 1.695 3.12 3.12 0 0 1-.181.355c-.406.634-.946 1.753-1.17 2.425-.2.597-.262.938-.263 1.448-.002.679.115 1.073.465 1.57.269.38.826.888 1.256 1.146.23.138.274.14.274.018zm-.446-7.418c.07-.117.297-.534.505-.927.283-.534.378-.735.376-.798-.003-.105-.124-.27-.413-.564a1.395 1.395 0 0 0-.348-.279c-.25-.12-.236-.138-.254.308-.017.431-.06.654-.185.965-.108.268-.293.64-.384.773-.092.134-.156.259-.156.301 0 .03.267.245.548.441.137.096.113.113.311-.22zm4.906 7.91c-.22-.142-.447-.345-.426-.379.008-.012.095-.079.194-.148.1-.068.235-.17.3-.224.147-.121.17-.116.419.093l.277.23.105.084-.096.1c-.111.114-.486.371-.542.371a1.06 1.06 0 0 1-.23-.126zm-2.474-.54c-.163-.093-.972-.71-1.044-.795-.08-.095-.097-.168-.08-.335.05-.492.624-.836 1.349-.81.286.01.34.03.515.18l.1.087-.075.079a3.947 3.947 0 0 1-.383.293c-.17.118-.308.229-.308.246 0 .028.182.18.595.503.072.056.132.11.132.12.003.044-.606.497-.667.496a.658.658 0 0 1-.134-.064zm1.793.013c-.047-.017-.266-.172-.482-.34-.045-.034-.082-.079-.082-.098 0-.041.396-.365.544-.444l.103-.055.16.114c.19.136.424.342.424.374 0 .02-.503.407-.59.455-.014.008-.049.005-.077-.006zm-.89-.67c-.266-.157-.569-.413-.542-.456a.727.727 0 0 1 .147-.1c.072-.042.17-.117.22-.167.094-.099.198-.163.263-.163.055 0 .64.448.64.49 0 .018-.087.094-.194.17a1.79 1.79 0 0 0-.23.18.536.536 0 0 1-.183.114c-.004 0-.059-.03-.121-.067zm3.248-.083a15.66 15.66 0 0 1-.427-.303l-.205-.152-.084.042a1.509 1.509 0 0 0-.221.161 2.91 2.91 0 0 1-.472.338c-.08.04-.086.04-.183-.018-.156-.093-.5-.371-.5-.403.002-.035.203-.201.482-.397a18.086 18.086 0 0 0 .617-.454c.241-.178.756-.123 1.123.12.448.298.585.907.256 1.144a.423.423 0 0 1-.133.073c-.017 0-.131-.068-.253-.15zm-2.5-.536a3.876 3.876 0 0 1-.287-.197 6.503 6.503 0 0 0-.273-.195 17.758 17.758 0 0 1-.434-.312l-.31-.229.217-.04c.119-.023.222-.048.229-.055.007-.007 0-3.13-.014-6.94-.015-3.81-.027-7.998-.027-9.305V.404l.117-.016c.064-.009.147-.016.186-.016.082 0 .1-.036.1-.202 0-.096.01-.128.049-.15.03-.016.224-.023.52-.019l.472.007.028.17c.016.094.033.175.039.181a.93.93 0 0 0 .173.031l.162.02.02.176c.01.097.017.588.014 1.092-.01 1.424.022 12.074.043 14.654.01 1.27.026 2.339.035 2.374.011.042.057.083.139.126.067.034.174.11.237.168l.115.106-.076.064c-.179.154-.387.29-.443.29a.228.228 0 0 1-.11-.034c-.058-.04-.514-.078-.514-.043 0 .013.079.083.175.157.096.073.175.14.176.147.002.033-.554.45-.6.45a.985.985 0 0 1-.158-.084zm.211-4.394c-.004-1.978-.018-5.15-.03-7.05-.013-1.899-.024-4.284-.024-5.3 0-1.296-.01-1.873-.029-1.93-.024-.07-.038-.08-.107-.073l-.078.008-.02.201c-.01.11-.008 2.925.006 6.254.014 3.329.026 7.248.026 8.708v2.656l.119.074c.065.04.124.068.132.06.007-.006.01-1.63.006-3.608zM7.805 4.493l-.15-.015-.02-.314c-.025-.382-.01-.874.027-.945.018-.033.064-.058.124-.068.052-.009.526-.016 1.054-.016.74 0 .964-.007.98-.032.027-.043.041-.66.02-.915l-.018-.209H9.6c-.15 0-.229.01-.242.032-.012.017-.017.224-.013.46.007.38.003.433-.035.465-.032.027-.145.038-.447.044-.473.01-1.148-.016-1.198-.048-.029-.017-.037-.146-.044-.653a9.035 9.035 0 0 1 .008-.72l.017-.09.29.016c.16.01.297.023.306.031.008.008.02.227.028.484l.012.47h.402l.007-.483.007-.483.093-.017c.173-.032 1.544-.025 1.62.008l.07.03V2.57c0 .573-.004 1.044-.007 1.047-.003.002-.181.01-.395.018l-.39.015-.007.142c-.007.13-.013.145-.08.172-.045.02-.175.027-.362.021-.26-.008-.295-.014-.346-.064-.05-.05-.053-.067-.03-.157.015-.055.022-.106.014-.113-.019-.02-.458-.011-.532.01-.057.016-.063.03-.062.16 0 .081.014.156.033.174.025.025.251.03 1.054.025.625-.004 1.036.003 1.059.018.027.018.037.078.037.232l.001.208-.075.017c-.093.02-2.378.02-2.587-.001zm5.764-.024-.213-.016v-.2c0-.188.004-.202.063-.232.048-.024.36-.032 1.334-.032.7 0 1.307.007 1.35.015l.078.016v.415l-.47.015c-.785.025-1.915.035-2.142.019zm-.158-.76c-.062-.049-.097-.62-.088-1.453l.007-.64 1.08-.007c1.221-.007 1.143.007 1.143-.212v-.12h-2.21v-.224c0-.167.009-.226.035-.236.066-.026 1.762-.044 2.274-.024l.512.019-.006.602c-.004.428-.014.608-.035.622-.017.01-.346.019-.733.019s-.864.008-1.061.017l-.358.016v.319h2.184l.016.065c.022.085-.006.307-.042.352-.024.028-.183.035-.861.038-.458 0-.934.01-1.058.018l-.226.017-.007.17-.007.169h.574c.316 0 .814.007 1.107.016l.531.017v.411l-.195.016c-.107.01-.72.023-1.362.032-.972.013-1.175.01-1.213-.019zM7.785 1.308c-.147-.012-.174-.061-.163-.306L7.63.837l.364-.02c.46-.025 2.425-.013 2.453.016.012.011.025.12.03.24l.009.22-.323.017c-.328.017-2.158.015-2.377-.002z"/></svg>