<svg viewBox="0 0 24 24" xmlns="http://www.w3.org/2000/svg" role="img"><path d="M23.832 21.263a.506.506 0 0 1-.186-.167c-.271-.401-.572-.63-1.018-.773-.669-.215-1.408-.167-3.195.206-1.623.339-2.255.418-2.889.364-.629-.055-1.028-.208-1.533-.588-1.3-.98-2.15-2.042-2.476-3.094-.196-.634-.278-.84-.352-.878-.037-.02-.073-.026-.08-.015a5.996 5.996 0 0 0-.103.387 3.939 3.939 0 0 1-.604 1.384c-.405.606-.951 1.16-1.667 1.693-.923.686-1.507.911-2.37.911-.567 0-1.063-.096-2.04-.396-.95-.292-1.271-.373-1.723-.438a8.293 8.293 0 0 0-1.374-.1c-.641 0-.91.045-1.236.207-.198.098-.278.167-.6.521-.163.18-.268.243-.34.205-.05-.027-.052-.042-.04-.22.056-.749.942-1.966 1.747-2.4.334-.181.977-.365 1.533-.44.394-.052 1.103-.05 1.92.003.92.06 1.91.062 2.18.004a6.245 6.245 0 0 0 1.517-.543c.834-.41 1.461-.899 1.633-1.273.234-.512-.118-.806-.661-.552a3.294 3.294 0 0 0-.408.25c-.57.408-1.108.577-1.834.576-.646 0-.897-.076-1.138-.34-.423-.462-.488-1.01-.192-1.618.396-.811 1.265-1.432 2.245-1.604.171-.03.317-.036.568-.026.477.02.795.107 1.238.34.321.168.579.366.91.699.228.228.31.329.385.476.052.103.167.317.253.475.09.164.176.357.199.451.04.162.075.246.093.223.006-.007.194-.327.42-.711.392-.668.421-.71.652-.94.822-.82 1.898-1.067 2.968-.683.89.32 1.637 1.038 1.87 1.796.154.496.04 1.054-.277 1.37-.24.24-.483.317-.998.317-.569 0-1.015-.115-1.39-.358a5.778 5.778 0 0 1-.457-.356c-.385-.328-.472-.372-.746-.372a.965.965 0 0 0-.344.049l-.13.048v.206c0 .377.084.62.278.798.116.107.942.667 1.301.882.327.196.849.438 1.13.524.558.172.66.18 2.398.202 1.725.022 1.976.04 2.527.176 1.072.267 1.636.792 2.293 2.135.222.454.283.63.304.874.018.214.013.218-.161.133zm-11.123-.082c-.01-.01-.56-.027-1.224-.039a25.643 25.643 0 0 1-1.383-.049c-.256-.039-.426-.093-.505-.162l-.07-.06.07-.136c.136-.261.607-.804 1.708-1.967.553-.585.683-.705.838-.775.067-.03.076-.022.551.467 1.105 1.138 1.685 1.82 1.901 2.232.127.243.126.277-.01.345-.226.111-.415.136-1.161.148-.385.007-.707.005-.715-.004zm-.634-7.32c-.11-.058-.24-.19-.498-.511a5.553 5.553 0 0 0-.408-.454c-.69-.65-1.716-.968-2.877-.892-.671.044-1.143.155-1.851.436-.46.183-.624.218-.94.205-.225-.01-.272-.02-.424-.095-.314-.154-.536-.453-.662-.887-.05-.174-.057-.254-.057-.636 0-.492.034-.711.177-1.154.112-.345.187-.512.327-.728.323-.5.788-.74 1.433-.74.773 0 1.538.28 3.053 1.117.286.158.575.308.643.334.121.046.124.046.124 0 0-.068-.181-.329-.313-.45-.314-.29-.84-.554-1.835-.922-.835-.308-.904-.335-1.163-.447-.494-.215-.808-.452-.912-.687-.079-.18-.097-.586-.037-.854.148-.663.892-1.564 1.493-1.806.626-.253 1.263-.018 1.994.734.384.395.947 1.122 1.524 1.968.152.224.354.38.4.312.036-.052.01-.363-.042-.523-.068-.204-.315-.677-.63-1.204-.478-.803-.608-1.112-.66-1.577a1.218 1.218 0 0 1 .015-.48c.163-.827.884-1.235 2.189-1.235 1.157 0 1.913.327 2.224.96.296.604.143 1.24-.592 2.45-.38.626-.573.966-.658 1.16-.086.196-.146.438-.116.468.046.046.255-.108.378-.278.402-.554 1.047-1.34 1.39-1.69.493-.506 1.105-.904 1.547-1.008.463-.11.798.01 1.223.435.552.552.898 1.355.898 2.085 0 .322-.041.447-.205.626-.256.28-.597.444-1.728.827-1.098.372-1.45.52-1.801.76-.228.154-.487.428-.487.514 0 .047.106.002.886-.373.695-.334 1.714-.734 2.215-.869.34-.091.78-.124.998-.072.318.075.549.245.757.559.235.352.421.83.542 1.39.048.223.057.337.058.785 0 .479-.004.543-.058.73a1.462 1.462 0 0 1-.311.577 1.056 1.056 0 0 1-.241.162c-.158.078-.17.08-.487.078-.396-.001-.51-.036-1.162-.347-.766-.365-.951-.4-1.947-.38-.868.018-1.028.056-1.675.397-.512.27-.76.465-1.136.895-.325.371-.41.42-.575.334z"/></svg>