<svg role="img" viewBox="0 0 24 24" xmlns="http://www.w3.org/2000/svg"><path d="M16.8 23.944c-.944-.136-1.726-.407-2.365-.82l-.234-.151.4-.208a11.69 11.69 0 0 0 1.57-1.03c.148-.118.443-.383.655-.588 1.608-1.55 2.62-3.481 2.952-5.631.087-.562.119-1.637.065-2.208-.218-2.335-1.25-4.536-3.098-6.609a2.7 2.7 0 0 1-.217-.261c0-.01.083-.051.185-.092.939-.377 1.723-1.207 1.87-1.979l.025-.132-.582-.02c-.32-.012-.683-.036-.807-.052-.505-.068-.875-.247-1.06-.511-.095-.136-.098-.15-.095-.499.002-.28.02-.43.087-.683.28-1.06.633-1.724 1.048-1.968.13-.077.181-.088.406-.085.283.003.429.055.67.242.389.298.696.909.84 1.667.027.146.05.272.05.279 0 .031 1.222.009 1.322-.024.267-.09.343-.245.382-.778.032-.439.08-.608.242-.842.13-.19.283-.317.492-.41.218-.099.66-.097.914.003.651.256 1.153 1.274 1.16 2.353.004.573-.099.924-.36 1.228-.303.355-.931.384-1.389.065-.218-.153-.443-.432-.593-.735a2.248 2.248 0 0 0-.126-.237c-.005 0-.063.105-.13.233-.16.31-.271.446-.474.576l-.167.108-.634.016c-.348.009-.642.025-.653.036-.011.011-.042.286-.068.611a9.052 9.052 0 0 1-.067.653c-.015.05-.008.056.041.037l.494-.183c1.784-.658 1.83-.672 2.186-.671.857.002 1.446.402 1.813 1.232l.102.231.008 3.989c.005 2.193-.005 5.088-.02 6.433-.033 2.708-.024 2.594-.265 3.327-.262.796-.76 1.655-1.281 2.205-.675.713-1.47 1.217-2.452 1.555a6.617 6.617 0 0 1-1.452.328c-.58.075-.87.075-1.39 0zm-7.767-1.096a8.8 8.8 0 0 1-4.394-1.482 8.904 8.904 0 0 1-3.048-3.47A8.554 8.554 0 0 1 .68 14.23a8.689 8.689 0 0 1 .904-4.213c.467-.943.946-1.607 1.706-2.367 1.208-1.208 2.582-1.98 4.233-2.377.416-.1 1.123-.21 1.317-.206.169.004.157.007-.29.077C6.87 5.405 5.25 6.24 4 7.49a8.366 8.366 0 0 0-2.315 7.465c.569 3.11 2.903 5.67 5.965 6.54.8.227 1.37.303 2.284.303 1.396 0 2.503-.257 3.736-.868a8.485 8.485 0 0 0 4.095-4.481c.62-1.61.732-3.5.303-5.11a1.09 1.09 0 0 1-.05-.251c.044-.044.3.98.392 1.565.07.45.099 1.644.051 2.13a8.803 8.803 0 0 1-2.59 5.478 8.576 8.576 0 0 1-2.029 1.522 8.986 8.986 0 0 1-4.809 1.065zm.66-2.654-.37-.049c-.963-.124-2.06-.545-2.913-1.117-1.728-1.16-2.822-2.942-3.104-5.056-.054-.404-.046-1.334.015-1.771.244-1.754 1.123-3.36 2.442-4.46.414-.347.416-.337.014.073-.63.643-.992 1.152-1.345 1.896-1.23 2.588-.675 5.645 1.388 7.662a6.34 6.34 0 0 0 1.718 1.216 6.666 6.666 0 0 0 5.033.358c1-.323 1.89-.873 2.656-1.642 1.152-1.157 1.811-2.592 1.945-4.233.072-.887-.038-1.715-.37-2.782-.064-.209.163.34.254.61a7.124 7.124 0 0 1-.188 4.984c-.666 1.587-1.868 2.852-3.444 3.624-.637.31-1.23.5-1.975.629-.262.045-1.536.087-1.756.058zm.104-2.315a5.46 5.46 0 0 1-4.558-4.116c-.601-2.478.58-5.04 2.847-6.17a5.555 5.555 0 0 1 3.422-.5c.237.04.331.092.167.092-.174 0-.61.125-.85.244-1.417.7-1.94 2.37-1.17 3.745.184.33.63.779.969.976.952.553 2.09.486 2.965-.176.23-.173.287-.23.497-.49a2.73 2.73 0 0 0 .576-1.668c0-.273-.1-.733-.22-1.025l-.098-.239.222.238c.478.51.944 1.298 1.154 1.95a5.466 5.466 0 0 1-5.923 7.139zM.324 5.134.332.092l.692.005c1.55.013 2.597.219 3.44.678.354.192.745.575.906.887l.114.218.11-.218c.127-.252.43-.577.721-.772C7.02.42 8.157.136 9.551.086l.566-.02.02.077c.012.043.021.885.021 1.87 0 .987.013 1.794.028 1.794.014 0 .061-.075.104-.168.277-.598.954-1.201 1.815-1.616.333-.16.998-.405 1.23-.452.128-.025.135-.068.016-.093-.266-.054-1.316-.148-1.656-.147-.503.001-.592.038-.923.387-.184.194-.264.256-.328.256-.19 0-.213-.21-.063-.6.21-.541.62-1.073.962-1.247.341-.173.558-.17 1.486.015.642.128 1.015.186 1.437.224.577.05 1.838.128 2.103.128.154 0 .265.016.303.044.054.04.056.054.016.153-.079.195-.458.81-.577.94l-.117.124-.642.012c-.986.018-1.605.148-2.255.474-.775.39-1.342 1.05-1.493 1.735-.022.102-.058.185-.08.185a.937.937 0 0 1-.177-.049c-.39-.138-.764-.185-1.416-.18-3.8.025-6.83 1.688-8.8 4.829C.9 9.13.504 9.85.429 10.039c-.03.075-.067.137-.083.137-.017 0-.026-2.092-.02-5.042zM6.17 7.43c0-.007.026-.032.057-.056.05-.04.052-.04.012.012-.042.054-.069.07-.069.044zm2.952-2.39a.354.354 0 0 1 .129 0c.03.008-.002.014-.073.014-.07 0-.096-.007-.056-.015zm4.329-1.27c-.2-.199-.365-.376-.365-.393 0-.05.689-.727.739-.727.024 0 .211.166.416.369l.373.369-.37.37c-.203.204-.382.371-.398.371-.017 0-.194-.162-.395-.36z"/></svg>