<svg role="img" viewBox="0 0 24 24" xmlns="http://www.w3.org/2000/svg"><path d="M.008 15.35c-.008-.02-.01-1.095-.006-2.391L.009 10.6l.7-.007.698-.007v3.387l1.752-.01c1.729-.008 1.754-.01 1.949-.068a2.367 2.367 0 0 0 1.528-1.39c.128-.323.153-.525.153-1.251v-.667H8.2v.624c0 .724-.04 1.1-.162 1.51a3.557 3.557 0 0 1-.463.984l-.173.265h.805c.826 0 .973-.015 1.285-.12a2.344 2.344 0 0 0 1.4-1.32c.147-.377.143-.309.158-2.17l.014-1.731.7-.007.702-.007-.01 1.778-.011 1.779-.069.28c-.038.154-.089.34-.113.413a4.687 4.687 0 0 1-.45.887l-.15.222.873-.01c.974-.012 1.034-.02 1.44-.21a2.3 2.3 0 0 0 1.041-.952c.075-.127.137-.24.137-.25 0-.01.02-.07.041-.133.098-.275.118-.467.118-1.155v-.677h1.412l-.002.38c-.003.776-.041 1.292-.117 1.586a3.502 3.502 0 0 1-.531 1.185 8.616 8.616 0 0 0-.135.202c-.037.062.715.025.984-.048.617-.167.944-.451 1.629-1.414 1.212-1.705 1.384-1.937 1.428-1.924.013.004.016-.005.007-.021-.02-.032.186-.32.229-.32.015 0 .02-.011.01-.026-.008-.014-.005-.026.008-.026.013 0 .04-.038.062-.083l.04-.083.267.396c.262.387.464.684.796 1.168l.48.706c.173.257.479.706.679 1 .408.596.672.985 1.128 1.658l.312.46-2.045-.007-2.046-.007-.007-.686a16.646 16.646 0 0 1 0-.692c.004-.003.328-.012.72-.02l.715-.014-.182-.267-.512-.754c-.27-.4-.336-.481-.364-.453-.033.033-.428.579-.92 1.27-.796 1.12-1.818 1.63-3.259 1.628-.19 0-.361-.01-.38-.02-.023-.016-.034-.171-.04-.566l-.006-.544-.155.14a3.736 3.736 0 0 1-2.146.963c-.293.03-1.76.038-1.862.011-.06-.016-.06-.018-.06-.56 0-.298-.009-.542-.02-.542a.27.27 0 0 0-.087.06c-.664.609-1.372.937-2.224 1.032-.257.028-1.772.037-1.871.01-.059-.016-.06-.022-.067-.578l-.007-.562-.186.17a3.669 3.669 0 0 1-2.124.959c-.396.043-4.84.038-4.857-.005zm1.545-5.41a9.338 9.338 0 0 1-.006-.673l.007-.639.7-.007.7-.007-.008.674-.007.673-.686.007c-.54.006-.69 0-.7-.028zm1.88-.645v-.68h1.412l-.007.673-.007.672-.7.007-.699.007zm1.903.645a9.317 9.317 0 0 1-.006-.673l.007-.639.699-.007.7-.007v1.36h-.694c-.536 0-.697-.008-.707-.034zm8.086-.646v-.68l.7.007.699.007V9.96l-.7.007-.699.007zm1.892 0v-.68l.7.007.698.007V9.96l-.699.007-.7.007zm1.891 0v-.68l.7.007.699.007V9.96l-.7.007-.699.007z"/></svg>