<svg role="img" viewBox="0 0 24 24" xmlns="http://www.w3.org/2000/svg"><path d="M11.522 23.94c-.31-.084-.982-.381-1.303-.577a9.291 9.291 0 0 1-.693-.494l-.422-.33-.518.077c-.557.082-1.564.094-2.053.025-.378-.054-.524-.164-1.107-.84-.517-.598-.78-1.046-1.033-1.762l-.118-.335-.222-.05c-.31-.072-.887-.35-1.345-.648-.815-.531-1.066-.78-1.164-1.15-.219-.836-.223-1.677-.015-2.846.02-.104-.015-.165-.212-.374-.62-.66-1.261-1.957-1.261-2.552 0-.625.663-1.925 1.356-2.658l.154-.163-.082-.564c-.121-.836-.109-1.431.041-1.945.167-.57.28-.775.608-1.089.444-.426 1.356-.964 1.914-1.13.368-.109.392-.132.472-.45.203-.807 1.17-2.24 1.678-2.486.472-.228 1.516-.272 2.64-.111.515.073.423.11 1.145-.462 1.255-.995 1.852-1.197 2.663-.9.77.281 1.448.68 1.889 1.11.164.16.32.276.374.276.05 0 .26-.031.466-.069.206-.038.651-.08.99-.092 1.046-.041 1.6.14 2.157.708.381.387.622.807.945 1.642l.246.638.343.125c.788.287 1.588.761 2.038 1.208.227.225.285.316.36.558.19.611.238 1.513.118 2.192-.128.724-.087.901.308 1.33.286.31.565.82.874 1.6.21.529.24.805.124 1.12-.32.874-.637 1.431-1.124 1.98-.337.38-.347.43-.22 1.098.054.292.065.532.046 1.06-.035.96-.152 1.38-.478 1.713-.43.44-1.41 1.028-2.133 1.28l-.403.14-.232.601c-.319.822-.655 1.36-1.207 1.93-.171.175-.276.242-.463.296-.626.178-1.344.2-2.266.07a16.45 16.45 0 0 0-.674-.088c-.032 0-.161.097-.287.216-.276.26-.88.645-1.417.904-.69.332-1.031.393-1.497.267zm.938-.94c.117-.045.4-.216.628-.38.228-.166.5-.338.602-.384.103-.047.187-.1.187-.118 0-.019-.064-.065-.143-.102-.345-.166-.895-.666-1.412-1.286-.348-.418-.405-.47-.445-.4-.163.28-.511.67-.906 1.012-.252.217-.565.497-.697.62l-.239.224.373.248c.85.565 1.547.757 2.052.565zm4.784-1.268a1.19 1.19 0 0 0 .442-.3c.34-.341.79-1.018.876-1.317.04-.141.068-.263.06-.27a6.8 6.8 0 0 0-.475-.109c-.699-.147-1.304-.3-1.689-.426-.4-.132-.404-.13-.45.248-.056.469-.325 1.43-.503 1.8-.097.204-.167.38-.155.393.045.044.804.09 1.234.073.262-.01.53-.047.66-.092zm-9.053.043c.308-.024.364-.04.346-.1a13.068 13.068 0 0 0-.206-.51c-.226-.54-.39-1.164-.426-1.617-.015-.188-.042-.341-.06-.341-.017 0-.286.09-.598.2-.7.25-1.151.36-1.63.398-.35.029-.368.035-.34.123.066.219.162.411.341.683.105.16.233.37.285.466.052.097.158.25.238.34.13.148.187.173.606.27.487.113.843.134 1.445.088zm1.547-.506c.488-.28 1.674-1.584 1.674-1.84 0-.042-.101-.243-.225-.446a49.569 49.569 0 0 1-.473-.8c-.136-.236-.266-.429-.287-.429-.021 0-.327.171-.679.38-.352.21-.725.418-.83.464-.181.08-.19.094-.19.27 0 .286.12 1.02.243 1.481.123.461.39 1.059.473 1.058.03 0 .162-.062.294-.138zm4.943-.225c.091-.2.225-.57.297-.825.134-.468.258-1.334.21-1.46-.026-.068-1.502-.95-1.656-.99-.06-.016-.154.102-.412.521-.354.574-.607 1.053-.607 1.147 0 .064.341.497.877 1.113.436.502.868.843 1.082.854.024.001.118-.16.21-.36zm-8.89-2.123a6.815 6.815 0 0 0 1.704-.543l.33-.162.022-1.012.022-1.013-1 .014-1.002.014-.196.36a4.387 4.387 0 0 0-.506 1.615c-.027.254-.06.537-.074.627-.025.163-.023.166.122.165.08 0 .341-.03.578-.065zm13.016-.32a4.38 4.38 0 0 0-.309-1.486c-.079-.193-.188-.47-.242-.615l-.1-.264-1.01-.012-1.01-.012-.029.694a33.81 33.81 0 0 0-.029.99v.297l.396.199c.713.358 1.373.541 1.97.547l.363.004v-.341zm-14.594-.044c.108-.895.22-1.333.506-1.985.078-.179.126-.339.106-.356-.02-.018-.354-.086-.742-.152-.586-.1-.791-.157-1.226-.34-.287-.12-.53-.212-.539-.203a2.742 2.742 0 0 0-.065.365c-.09.637.035 1.645.23 1.854.34.363 1.368.992 1.675 1.023.017.002.041-.09.055-.206zm15.823.101c.638-.269 1.245-.747 1.468-1.157.24-.442.309-.996.202-1.642-.032-.197-.07-.306-.108-.306-.031 0-.271.088-.533.194-.553.226-1.235.44-1.641.515a3.055 3.055 0 0 0-.3.064c-.008.006.037.112.1.237.194.383.463 1.565.464 2.038 0 .091.02.166.045.166.025 0 .161-.05.303-.109zm-7.534-1.014c.461-.78.572-.92.765-.969.134-.033.292.039.919.416l.696.418c.153.091.291.152.308.136.016-.017.03-.46.032-.984.002-1.042.013-1.098.252-1.228.124-.068.27-.078 1.121-.078.54 0 .98-.016.98-.035 0-.06-.154-.339-.516-.936-.403-.665-.488-.901-.41-1.14.061-.183.085-.2 1.058-.748.375-.211.698-.4.718-.418.034-.033-.175-.172-1.192-.792-.248-.151-.481-.317-.517-.369-.122-.174-.078-.342.227-.868.16-.277.369-.641.463-.809a4.39 4.39 0 0 1 .219-.363c.04-.048-.118-.058-.927-.058-1.484 0-1.434.05-1.434-1.415v-.997l-.11.057c-.06.031-.437.24-.836.462-.8.447-.97.5-1.151.357-.12-.095-.788-1.14-.967-1.513-.056-.115-.115-.209-.132-.209-.038 0-.227.295-.535.837-.305.537-.424.723-.566.892-.19.226-.328.192-1.107-.267-.641-.378-1.014-.581-1.065-.581-.013 0-.024.426-.024.947 0 1.44.032 1.405-1.32 1.412-1.04.005-1.013.004-1.013.061 0 .024.134.263.297.53.683 1.12.74 1.266.587 1.512-.105.17-.276.285-1.016.686-.52.282-.792.463-.792.527 0 .02.061.062.136.093.075.03.248.128.385.216s.428.256.645.373c.518.278.683.433.683.64 0 .175-.006.187-.567 1.145-.272.464-.385.696-.354.726.028.028.409.045 1 .045 1.164 0 1.2.01 1.254.375.02.133.03.623.023 1.089-.007.466.002.847.021.847.058 0 .375-.17 1.044-.563.73-.428.922-.482 1.111-.31.063.056.267.38.452.72.186.338.398.71.471.826.121.19.14.203.188.132.03-.043.252-.415.496-.827zm-1.508-1.452a.87.87 0 0 0 .02-.555c-.044-.137-.045-.186-.003-.228.042-.042.062-.039.095.013.125.198.1.586-.05.755-.08.091-.088.093-.061.014zm1.953-.502-.182-.182.023-.34c.022-.338.02-.342-.127-.506-.16-.179-.189-.354-.105-.647.024-.083.033-.16.021-.173-.012-.012-.096.05-.186.136-.233.222-.436.315-.692.315-.247 0-.434-.082-.63-.278l-.132-.132-.209.284c-.249.34-.564.587-1.022.805-.296.14-.385.162-.735.174-.352.013-.418.003-.574-.087a.86.86 0 0 1-.286-.3c-.102-.182-.11-.238-.11-.79 0-.624.054-.944.211-1.255.113-.222.15-.13.057.14-.038.114-.07.281-.07.373 0 .147.015.171.121.194l.16.036c.021.005-.046.106-.148.225-.182.21-.187.223-.163.453.045.436.256.605.741.595.777-.016 1.547-.4 1.801-.9.104-.203.106-.309.012-.779l-.073-.367-.194.03c-.144.021-.222.01-.306-.045-.145-.095-.346-.058-.574.107-.24.174-.305.344-.238.632.058.25.025.306-.17.286-.164-.017-.242-.19-.182-.408.073-.272.275-.48.644-.661l.33-.163v-.786l-.165.032c-.33.064-.738.034-.954-.07-.466-.226-.666-.832-.491-1.489.067-.251.267-.626.335-.626.06 0 .054.04-.049.334-.05.143-.1.399-.113.568-.03.403.086.651.38.814.172.095.251.11.595.107.45-.003.656-.07 1.219-.398.37-.216.414-.325.135-.325-.26 0-.492-.094-.635-.257-.122-.139-.133-.175-.115-.389.016-.192.059-.293.231-.546.27-.394.448-.532.723-.558.193-.019.214-.011.24.084.09.336-.02.527-.205.355-.088-.082-.11-.085-.237-.031a1.61 1.61 0 0 0-.342.244c-.16.149-.2.214-.2.333 0 .188.12.27.538.368.277.066.321.09.4.228l.09.155-.107.216c-.094.19-.272.363-.541.525-.068.04-.067.066.014.347.048.166.096.311.106.322.01.01.195-.164.409-.387.702-.73 1.265-.827 1.36-.232.037.227-.027.273-.173.126a.41.41 0 0 0-.474-.063c-.183.098-.276.574-.169.857.04.103.063.115.18.092.17-.034.303-.145.634-.53.33-.385.557-.547.96-.686l.316-.11.176-.346c.19-.373.365-.524.488-.422.072.06.084.375.02.542l-.042.111.254-.138c.149-.081.283-.127.326-.11.04.015.124.11.187.209.104.165.129.18.276.167.136-.011.17-.035.206-.146.023-.072.047-.139.053-.147.005-.01.055.016.11.055.137.096.213.088.213-.02 0-.05.032-.152.071-.227.06-.116.078-.127.111-.067.065.116-.008.418-.147.61-.105.145-.148.174-.232.153-.066-.017-.182.015-.323.088-.262.136-.363.117-.494-.095-.08-.131-.117-.151-.266-.151-.354 0-.482.33-.286.731.088.178.115.294.105.443-.019.282-.11.332-.318.174-.175-.134-.309-.364-.425-.732-.074-.235-.08-.242-.223-.23-.374.033-.682.244-1.138.777-.48.56-.664.64-.893.387-.14-.154-.167-.35-.097-.686.035-.17.06-.313.053-.32a4.453 4.453 0 0 0-.38.335l-.369.345.03.29c.016.16.066.407.11.55.152.487.363.665.787.665.223 0 .383-.082.753-.386l.175-.144.094.133c.061.085.133.132.202.132.097 0 .107-.018.107-.19 0-.103.028-.227.063-.274.06-.082.067-.077.135.084.161.383-.11.809-.489.768-.081-.009-.126.006-.123.042l.011.165c.006.1.025.11.204.11.27 0 .558-.118 1.007-.41.273-.179.372-.266.353-.315-.014-.037-.194-.199-.4-.36-.44-.343-.54-.487-.54-.775 0-.194.046-.267.108-.167.014.023.145.086.29.139.145.053.274.111.286.13.011.02-.037.07-.107.11l-.128.076.26.174c.158.105.302.246.369.36.283.483.019.823-1.013 1.3-.216.1-.408.205-.427.234-.058.093-.038.404.033.506.15.214.48.047.909-.461.161-.191.369-.386.461-.433.093-.047.212-.122.265-.168a.668.668 0 0 1 .3-.105c.178-.02.218-.008.332.101.099.094.13.164.13.29 0 .216-.068.25-.215.109-.252-.241-.548-.099-1.288.62-.307.298-.577.541-.602.541a.412.412 0 0 0-.115.027c-.046.018-.132-.036-.251-.154zm-2.442-3.432c.063-.07.07-.138.044-.443-.026-.306-.04-.356-.1-.331a6.678 6.678 0 0 1-.192.072c-.115.042-.121.058-.121.329 0 .157.02.323.045.37.058.108.227.11.324.003zm3.877-1.034.07-.183-.2.208-.201.209.098.188.098.188.032-.214a2.28 2.28 0 0 1 .103-.396zm-.1-.321c.096-.089.107-.28.015-.28-.063 0-.2.21-.2.306 0 .07.093.056.184-.026zm-3.59 4.234c-.12-.096-.123-.11-.074-.26.06-.184.054-.18.219-.096.114.06.131.057.203-.022.096-.107.102-.106.254.018l.124.102-.077.16c-.087.182-.086.182-.237.098-.097-.055-.12-.052-.198.02-.086.08-.091.079-.214-.02zm1.248.029c-.08-.065-.092-.106-.067-.22.033-.152.088-.17.264-.09.128.058.129.063.063.25-.055.159-.12.173-.26.06zm3.568-.207c0-.048.05-.197.113-.33.162-.342.18-.682.068-1.215-.146-.694-.159-.864-.077-1.023.07-.135.158-.187.158-.092 0 .026.08.257.176.514.198.526.208.583.1.583-.068 0-.079.05-.083.37-.007.461-.144.94-.325 1.14-.112.122-.13.129-.13.053zm-.527-2.905c.036-.036.329-.154.65-.262.461-.155.582-.182.571-.127-.009.046-.211.133-.608.261-.658.213-.709.223-.613.128zm-3.384-1.266a.934.934 0 0 1-.097-.258.798.798 0 0 1 .106-.634c.088-.12.117-.071.072.125a.734.734 0 0 0-.006.285c.066.246.476.15 1.2-.285.226-.135.417-.251.425-.258.05-.043-.127-.226-.4-.411-.53-.359-.688-.582-.599-.84.051-.146.13-.17.215-.068.03.037.07.066.09.066.019 0 .13.041.246.091l.211.09-.149.095c-.096.061-.127.1-.086.112.156.047.486.294.567.425a.675.675 0 0 1-.001.666c-.126.204-.444.425-.943.657-.44.204-.756.257-.851.142zm3.436-1.197c-.182-.104-.188-.105-.233-.022-.06.114-.138.108-.257-.018-.073-.078-.09-.134-.069-.221.042-.165.09-.179.267-.074l.156.092.077-.095.077-.096.14.103c.153.114.16.14.082.317l-.053.12zm-3.254-.292c.031-.265-.056-.8-.211-1.295-.122-.39-.145-.796-.051-.924.056-.077.068-.07.184.113.15.238.416.84.416.944 0 .071-.007.071-.116 0-.116-.076-.116-.076-.09.032.064.251.115.742.092.878-.034.2-.154.476-.207.476-.027 0-.033-.088-.017-.224zm2.908-.207c-.086-.048-.129-.1-.115-.141.012-.037.039-.112.06-.167l.037-.1.171.098.172.099-.07.145c-.079.166-.074.165-.255.066zm-8.87 5.423c.269-.45.49-.843.49-.874 0-.03-.16-.143-.356-.25-.195-.106-.54-.307-.766-.446-.248-.152-.461-.253-.536-.253-.334 0-1.364.87-1.777 1.5-.12.182-.22.351-.22.375 0 .024.112.117.249.206.28.185.889.393 1.38.471l.397.066c.036.007.197.015.357.018l.29.005zm13.673.732c.894-.146 1.53-.361 1.767-.6l.106-.104-.233-.339a5.384 5.384 0 0 0-1.216-1.26 17.71 17.71 0 0 0-.476-.352c-.068-.042-.38.111-.917.451-.218.138-.5.308-.627.379-.127.07-.231.143-.231.162 0 .058.398.786.699 1.276.339.553.266.528 1.128.387zm-17.043-1.84c.494-.603.865-.978 1.163-1.175a1.56 1.56 0 0 0 .187-.134c0-.005-.203-.178-.45-.384-.754-.625-1.266-1.218-1.266-1.463 0-.217-.36.124-.651.617-.283.478-.466.97-.468 1.256-.002.218.032.314.293.837.266.53.594 1.008.694 1.008.021 0 .245-.253.498-.562zm20.235-.344c.327-.682.408-.952.349-1.172-.07-.262-.353-.835-.631-1.281a8.616 8.616 0 0 1-.263-.44c-.026-.062-.162.082-.52.547-.294.382-.7.793-.952.962-.289.194-.457.349-.428.395.015.024.173.154.351.288.406.305.984.912 1.25 1.313l.203.305.214-.237a3.24 3.24 0 0 0 .427-.68zm-17.618-1.75c.847-.466 1.265-.725 1.279-.795.008-.039-.074-.214-.182-.39-.408-.663-.691-1.171-.691-1.24 0-.038-.01-.07-.024-.07-.126 0-2.236.42-2.353.47-.199.082-.44.245-.44.298 0 .106.496.784.792 1.082.298.3 1.059.88 1.154.88.02 0 .23-.106.465-.235zm14.523.028c.164-.09.398-.24.519-.334.311-.242.99-.992 1.134-1.255l.121-.221-.144-.09a2.955 2.955 0 0 0-.48-.198c-.476-.155-1.769-.433-1.94-.416-.137.013-.167.054-.622.84-.386.666-.468.837-.426.888.029.035.353.234.72.443.368.21.697.409.733.443.035.035.07.063.075.063.006 0 .146-.074.31-.163zM3.047 8.395a6.39 6.39 0 0 1 1.45-.388c.227-.036.418-.072.423-.079.025-.031-.71-2.543-.744-2.543-.115 0-1.182.671-1.42.894-.43.401-.455.482-.455 1.42 0 .434.013.833.027.887.026.095.031.096.187.03.088-.039.327-.138.532-.22zm18.693.038a5.99 5.99 0 0 0 .033-.67c0-.392-.018-.517-.121-.815a3.784 3.784 0 0 0-.27-.596c-.177-.29-.593-.7-.84-.826-.194-.098-.64-.195-.685-.148-.015.016-.051.237-.08.491-.052.471-.158.83-.458 1.546-.088.209-.17.436-.185.506l-.025.127.454.002c.583.002 1.011.105 1.565.375.237.116.464.212.505.214.055.003.082-.049.107-.205zm-3.564-.56c.08-.026.305-.524.52-1.148.204-.6.286-1.122.225-1.447l-.03-.162-.207.028c-.89.118-1.343.24-2.133.572l-.385.162v2.039l.98-.014a18.942 18.942 0 0 0 1.03-.03zm-10.303-.03c.044-.071.08-1.48.044-1.722-.03-.2-.033-.202-.391-.386-.66-.338-1.378-.526-2.014-.526-.293 0-.3.003-.327.126-.039.177.047.797.171 1.239.058.205.208.587.333.847l.228.473h.962c.678 0 .972-.015.994-.05zm3.209-2.348c.231-.411.432-.793.446-.847.063-.244-1.183-1.608-1.726-1.888l-.244-.126-.084.102c-.138.168-.512 1.388-.59 1.923-.125.864-.125.805-.014.838.055.016.298.143.54.283 1.018.588 1.092.622 1.175.539.042-.042.265-.412.497-.824zm2.845.658a14.4 14.4 0 0 0 .81-.464c.579-.357.578-.354.505-.947-.116-.942-.46-1.973-.69-2.06-.223-.086-1.587 1.205-1.846 1.748-.102.215-.07.302.407 1.13.203.35.368.663.368.693 0 .092.116.066.446-.1zm-5.903-1.78c.068-.531.275-1.257.466-1.639.082-.163.15-.323.15-.357 0-.182-1.706-.15-2.071.038-.068.035-.257.237-.421.45-.482.623-.85 1.34-.727 1.417.03.018.27.056.532.085.6.065 1.026.173 1.55.393.479.201.442.229.52-.387zm9.617.095 1.056-.254-.008-.119c-.02-.284-.684-1.389-.957-1.591a1.332 1.332 0 0 0-.289-.154c-.187-.067-1.33-.113-1.727-.07l-.286.03.195.46c.226.534.378 1.098.456 1.698l.056.425.224-.085c.123-.047.7-.2 1.28-.34zm-4.62-1.613.928-.946-.135-.126c-.296-.278-.877-.603-1.298-.729-.324-.096-.7-.09-1.005.018-.312.11-.868.442-1.14.681l-.204.18.48.378c.555.438 1.159 1.05 1.291 1.31.051.099.107.18.125.18.017 0 .449-.426.959-.946z"/></svg>