<svg viewBox="0 0 24 24" xmlns="http://www.w3.org/2000/svg" role="img"><path d="M12.077 23.972c-.114-.051-.283-.21-.301-.283-.008-.033-.024-.06-.035-.06-.01 0-.026-.023-.033-.051-.013-.051-.017-.051-.112-.01-.487.21-.6.247-.936.303-.276.046-.564-.01-.736-.14a.918.918 0 0 1-.3-.466c-.037-.144-.02-.644.028-.778.018-.048.021-.094.008-.106a.567.567 0 0 0-.188-.03c-.153-.008-.165-.005-.157.043.05.287-.058.635-.191.62-.109-.014-.222-.241-.222-.446 0-.089-.006-.162-.014-.162s-.095.017-.193.038c-.205.043-.479.05-.547.014a.696.696 0 0 1-.138-.153c-.133-.184-.122-.341.05-.743.034-.079.061-.151.061-.16 0-.01-.054.027-.12.083-.225.187-.56.284-1.053.303-.364.014-.528-.007-.751-.096-.293-.118-.331-.44-.088-.743.094-.118.094-.137-.003-.17-.107-.038-.593-.534-.753-.769a3.213 3.213 0 0 1-.383-.752 1.53 1.53 0 0 1-.046-.433c0-.246.007-.295.06-.4.128-.25.38-.469.665-.576.05-.019.2-.036.333-.039.228-.004.25-.01.331-.078.084-.07.095-.072.292-.06.112.007.244.03.293.052l.09.04-.09-.017c-.174-.034-.403-.02-.45.026-.04.041-.04.045.006.064.05.02.076.109.032.109a.584.584 0 0 1-.118-.04.938.938 0 0 0-.515-.005c-.357.137-.545.402-.577.812a.985.985 0 0 0 .053.458c.147.508.479 1.055.829 1.365l.09.08.165-.117c.16-.111.233-.17.752-.611l.485-.407c.383-.318.469-.392.577-.494a.46.46 0 0 1 .27-.15c.057-.013.083-.01.082.01 0 .045-.29.509-.318.511-.014.001-.029-.024-.033-.055-.004-.032-.017-.058-.027-.058a5.24 5.24 0 0 0-.462.38 1.97 1.97 0 0 1-.14.118 23.19 23.19 0 0 0-.654.55 3.193 3.193 0 0 1-.48.335c-.084.047-.092.102-.016.117.024.005.138-.054.253-.131a4.27 4.27 0 0 1 .374-.222 1.67 1.67 0 0 0 .238-.143c.056-.047.102-.06.204-.06.22 0 .223.019.043.252-.088.113-.17.206-.18.206-.012 0-.025-.041-.03-.092l-.007-.093-.172.118c-.327.224-.41.256-.681.263l-.243.006-.056.084c-.083.124-.077.269.014.369.092.1.39.198.679.223.363.031.997-.092 1.176-.23.119-.09.27-.578.343-1.107.045-.323.066-.41.115-.476.164-.22.201-.204.18.078a4.33 4.33 0 0 1-.168.933c-.071.226-.11.334-.256.727-.18.485-.17.577.077.712.124.067.146.07.327.056.388-.033.476-.048.585-.099.093-.043.144-.05.31-.038l.2.014.107-.165c.058-.09.111-.16.118-.153a.554.554 0 0 1-.065.164c-.08.157-.08.184 0 .184.032 0 .048-.019.048-.057.002-.212.321-.553.611-.654a.397.397 0 0 0 .166-.136.469.469 0 0 1 .104-.114c.029-.009.302.398.281.418-.006.006-.034 0-.063-.016-.117-.062-.109-.016.06.325.153.31.173.43.101.602-.072.174-.27.346-.397.345-.121 0-.285-.08-.46-.223a9.345 9.345 0 0 0-.222-.176.719.719 0 0 0-.223-.048l-.182-.017-.028.164c-.047.271-.029.411.085.631a.8.8 0 0 0 .33.283c.179.077.5.087.767.023.228-.055.665-.213.714-.258.014-.013.032-.135.04-.271a3.9 3.9 0 0 1 .035-.34c.018-.092.016-.095-.092-.144a.69.69 0 0 1-.185-.129c-.071-.076-.073-.084-.06-.277.056-.765 1.147-1.723 1.21-1.063.013.126-.041.316-.089.316-.012 0-.04-.04-.064-.089-.038-.078-.054-.089-.139-.089-.129 0-.238.072-.46.299-.192.197-.336.414-.336.506 0 .028.032.076.071.105.07.051.127.072.613.227.125.04.247.097.293.139.073.065.08.084.078.22-.005.277-.145.458-.545.709-.239.149-.254.2-.096.327.157.127.326.092.526-.108.1-.101.175-.229.496-.85.192-.37.298-.541.466-.75a.469.469 0 0 0 .085-.134c0-.028-.09-.203-.225-.439-.037-.065-.164-.3-.28-.522a4.194 4.194 0 0 0-.275-.47c-.044-.047-.065-.106-.077-.222-.012-.112-.008-.158.013-.158.025 0 .298.243.52.464.114.115.09.14-.077.077-.017-.007-.032.001-.032.018 0 .035.076.187.103.205.01.007.038.053.062.102.023.05.068.136.098.192.258.476.33.598.352.598a.553.553 0 0 0 .132-.06c.241-.138.475-.14.602-.006a.616.616 0 0 1 .11.383l-.012.067-.087-.066a.448.448 0 0 0-.57.04c0 .013.029.065.064.117a.391.391 0 0 1 .064.127c0 .019.023.046.05.061.029.015.052.048.052.073 0 .026.029.103.064.172.036.069.089.217.118.329.066.254.082.283.174.33.213.111.42-.02.7-.445.098-.15.143-.226.304-.512l.051-.092-.11-.243a1.203 1.203 0 0 1-.1-.272c.005-.016.061.069.124.188.063.12.125.214.139.21a1.22 1.22 0 0 0 .146-.237c.246-.462.262-.52.158-.588-.064-.042-.123-.046-.589-.041-.563.006-.87-.035-1.099-.146a.962.962 0 0 0-.214-.072c-.096-.017-.112-.031-.192-.178a.727.727 0 0 1-.079-.17 3.48 3.48 0 0 1 .335-.027c.289-.017.325-.014.325.022 0 .023-.038.06-.083.084l-.083.044.09.04c.073.033.199.04.713.041.691 0 .712.005.856.17.088.101.143.21.203.405.057.183.034.282-.155.667-.077.155-.14.298-.14.316 0 .052.19.165.3.18.086.01.113.001.19-.065.1-.089.174-.279.173-.447 0-.058-.017-.244-.037-.414-.052-.44-.025-.655.15-1.182.076-.232.158-.473.183-.537.043-.113.043-.118-.008-.191a13.561 13.561 0 0 1-.514-.887c-.062-.135-.056-.176.018-.11.025.023.054.042.063.042.01 0 .135.08.279.178.27.183.442.365.553.585.064.125.053.132.193-.115.148-.26.267-.659.267-.895 0-.134.032-.155.1-.065.096.13.166.185.233.185.17 0 .355-.238.355-.457 0-.064-.023-.197-.05-.295-.06-.21-.061-.217-.02-.216.018 0 .063.047.102.102.078.113.129.124.265.06a.254.254 0 0 0 .125-.13c.02-.05.037-.093.037-.098 0-.004-.04-.02-.089-.036-.145-.048-.273-.243-.192-.293.043-.027.221.083.304.187.11.14.155.26.155.413 0 .116-.01.141-.09.22-.083.084-.098.09-.215.078l-.125-.012.015.21c.014.2.011.216-.064.347-.133.233-.332.294-.537.164l-.105-.066v.097c0 .08-.056.338-.118.547-.011.039 0 .042.103.028.228-.031.442.11.555.367.042.095.045.124.019.205-.062.194-.22.288-.508.305a1.011 1.011 0 0 1-.607-.16c-.073-.05-.098-.056-.128-.03-.03.024-.04.024-.049-.001-.02-.06-.07-.032-.112.064-.089.198-.274.815-.29.968-.01.088-.004.383.014.655l.033.497-.063.121c-.09.175-.215.243-.42.229a.61.61 0 0 1-.41-.18c-.046-.042-.087-.071-.092-.065a3.16 3.16 0 0 0-.092.164c-.18.334-.395.676-.5.797-.215.245-.447.257-.66.033-.04-.043-.088-.078-.105-.078s-.049-.057-.072-.125c-.048-.147-.264-.62-.292-.64a1.751 1.751 0 0 1-.127-.235 1.28 1.28 0 0 0-.136-.239c-.026-.016-.273.233-.275.278 0 .012-.03.058-.063.103a7.41 7.41 0 0 0-.322.59c-.277.543-.409.737-.548.81a.49.49 0 0 1-.39.03zm-.176-.88c.205-.103.476-.29.476-.331.001-.05-.074-.086-.32-.151-.286-.077-.28-.08-.3.121-.023.254-.02.415.01.415a.595.595 0 0 0 .134-.054zm-.813-.497c.03-.076.015-.13-.101-.369a4.642 4.642 0 0 0-.127-.25c-.006-.006-.036.023-.068.063a2.26 2.26 0 0 1-.158.173l-.1.1.113.096c.114.098.34.228.395.228.017 0 .038-.018.046-.04zm-.514-.491c.093-.036.154-.165.157-.33.003-.218-.068-.243-.349-.125-.12.05-.196.142-.196.235 0 .023.036.094.08.157.072.105.087.115.16.103a.88.88 0 0 0 .148-.04zm7.273-2.071c.115-.03.252-.153.233-.21-.031-.097-.5.003-.677.145-.027.022-.017.034.051.059.11.04.25.042.393.006zm-1.03-.467c.01-.153-.006-.23-.06-.288-.06-.063-.325-.195-.347-.172-.014.013.158.352.27.533.06.095.065.098.098.053a.281.281 0 0 0 .04-.126zM9.16 23.274l-.03-.08-.155.016c-.183.02-.4-.027-.639-.139-.179-.083-.454-.254-.437-.271.006-.006.126.038.266.1.14.06.35.143.465.181.216.072.26.074.606.024.091-.013.11-.008.136.041.025.047.022.068-.02.124-.074.1-.155.102-.192.004zm-.17-2.392a.15.15 0 0 1 .031-.061c.029-.036.111-.057.593-.147.056-.01.362-.072.68-.137.32-.065.594-.119.612-.119.075 0-.087.111-.188.13a16.484 16.484 0 0 0-.518.099c-.097.019-.666.144-.994.219-.18.041-.217.044-.217.016zm9.591-.429a6.456 6.456 0 0 0-.017-.494c-.026-.32-.002-.395.177-.572.092-.09.115-.128.103-.173-.05-.185-.05-.186-.015-.153.05.047.095.039.129-.024.026-.048.022-.062-.025-.093-.053-.035-.075-.106-.032-.106.04 0 .157.134.173.197.011.047-.004.081-.065.144-.056.058-.08.106-.08.167 0 .062-.021.106-.082.165-.193.188-.184.155-.198.654-.01.29-.024.467-.043.485-.021.022-.028-.028-.025-.197zm-4.093-.164c-.027-.128-.167-.281-.323-.354-.088-.041-.126-.073-.117-.097a.228.228 0 0 0 .013-.06c0-.013.056.005.125.04.202.102.343.303.33.468l-.009.094zm-3.128-.407-.682-.243-.108-.04v-.419c0-.23-.008-.418-.02-.418-.01 0-.15.131-.312.293l-.293.293-.637-.297c-.35-.163-.665-.32-.698-.35-.057-.05-.268-.468-.568-1.122l-.127-.278.295-.296a3.87 3.87 0 0 0 .295-.315c0-.01-.193-.019-.428-.019h-.428l-.238-.656a9.556 9.556 0 0 1-.248-.745c-.008-.067.049-.26.232-.774.134-.376.243-.689.243-.694 0-.005.198-.013.44-.016l.44-.007-.326-.325-.326-.325.272-.53c.15-.29.31-.593.358-.671l.085-.143.667-.351.667-.352.32.329.322.328.007-.473.007-.474.67-.208c.37-.115.714-.208.767-.208.053 0 .393.092.757.204.363.112.666.204.673.204.007 0 .012.212.012.471 0 .26.008.472.019.472.01 0 .169-.15.352-.333l.333-.333.164.087.643.335c.34.177.495.271.537.329.064.085.68 1.25.68 1.285 0 .01-.144.163-.32.337a4.146 4.146 0 0 0-.318.338c0 .01.211.02.47.02h.47l.025.082c.133.42.384 1.244.396 1.298.013.057-.16.678-.395 1.417l-.027.082h-.976l.313.315.314.314-.309.66c-.17.364-.328.68-.352.704-.047.047-.405.228-1.008.51l-.382.178-.296-.295a3.745 3.745 0 0 0-.314-.296c-.01 0-.019.189-.019.419v.418l-.172.065c-.744.279-1.172.424-1.252.423-.051 0-.35-.093-.666-.204zm1.217-.402.465-.168v-.996l-.503-.504c-.277-.277-.515-.503-.53-.503-.015 0-.253.227-.53.505l-.503.505.007.495.007.495.51.183c.295.107.531.178.56.17.029-.008.261-.09.517-.182zm-2.348-.987.34-.345V16.67H9.13l-.35.35c-.194.193-.352.363-.352.379 0 .015.102.245.227.51l.227.482.468.222c.257.121.483.222.503.223.02 0 .188-.154.376-.344zm4.492.1.454-.218.223-.482.224-.482-.128-.147c-.07-.08-.23-.247-.356-.37l-.229-.223h-1.46v1.462l.351.354c.295.297.36.351.409.339.032-.008.263-.113.512-.233zm-3.155-1.448c.226-.233.425-.423.44-.423.017 0 .247.218.513.485.266.266.493.484.504.484.01 0 .019-.321.019-.714v-.713h.714c.392 0 .713-.01.713-.02s-.218-.237-.484-.503-.484-.495-.484-.509c0-.013.226-.249.503-.522l.504-.498-.733-.007-.733-.007v-.7c0-.386-.009-.701-.02-.701-.01 0-.237.218-.503.484a8.016 8.016 0 0 1-.506.484c-.013 0-.24-.223-.506-.497-.266-.273-.494-.497-.507-.497-.013 0-.023.305-.023.714v.714h-.713c-.393 0-.714.008-.714.018 0 .01.226.246.503.523l.503.504-.49.49c-.27.27-.49.5-.49.51 0 .01.315.02.7.02h.701v1.458l.088-.078c.049-.043.274-.267.5-.5zm-2.106-1.39.508-.509-.164-.173c-.09-.095-.322-.331-.515-.524l-.351-.351-.5.007-.5.007-.176.494a6 6 0 0 0-.175.54c0 .037.22.672.328.948l.028.07h1.009zm6.87-.015.162-.524-.054-.17-.158-.51-.105-.337h-1.082l-.506.507c-.278.279-.502.519-.497.533.005.015.231.251.502.526l.492.499h1.085zm-5.76-2.681v-.733l-.363-.363c-.2-.2-.371-.364-.381-.364-.033 0-.933.485-.96.517-.013.017-.13.236-.26.487l-.236.456.369.366.368.366h1.463zm4.723.36a7.61 7.61 0 0 0 .37-.395c.005-.013-.102-.234-.237-.49l-.247-.467-.473-.25-.473-.25-.392.393-.391.394v.702c0 .386.008.709.017.718.009.01.342.017.74.017h.724zm-2.755-.743.504-.503v-1.076l-.52-.159-.52-.158-.468.144a8.92 8.92 0 0 0-.512.169c-.04.021-.045.074-.044.539v.515l.512.516c.28.284.518.517.528.517.009 0 .243-.227.52-.504zm3.053 7.197a.134.134 0 0 0-.037-.09.331.331 0 0 1-.067-.123 1.087 1.087 0 0 0-.08-.176c-.048-.08-.045-.136.008-.136a.76.76 0 0 0 .163-.102c.18-.133.257-.135.31-.006l.04.095-.114.217a1.78 1.78 0 0 0-.133.3c-.02.096-.09.113-.09.022zm.043-.25c.105-.098.049-.238-.064-.158-.056.039-.07.098-.04.174.02.053.033.05.104-.015zm.212-.33c0-.073-.05-.082-.117-.02-.067.063-.081.14-.03.159.043.015.147-.082.147-.138zm-9.466-.218a.903.903 0 0 1-.016-.224v-.208l.172-.027a.748.748 0 0 1 .184-.015c.007.006.013.104.013.218v.207l-.089.018c-.212.041-.25.046-.264.03zm9.976-.453c-.037-.045-.044-.009.146-.81.062-.26.085-.307.122-.248.014.024-.172.943-.214 1.054-.017.044-.02.044-.054.005zm-9.116-.17c-.12-.059-.157-.254-.063-.331a.428.428 0 0 1 .17-.062c.148-.022.215.03.215.17 0 .13-.02.171-.104.215-.083.043-.141.045-.218.007zm.19-.179c.008-.108-.051-.174-.119-.132-.063.04-.063.093-.002.171.07.088.111.075.12-.039zm9.698-.397a5.514 5.514 0 0 0-.05-.13c-.019-.047-.029-.095-.022-.105a.564.564 0 0 1 .166-.052.54.54 0 0 0 .167-.053c.007-.01-.007-.06-.031-.111-.055-.116-.035-.137.167-.18.114-.023.16-.024.176-.003.023.03.082.22.082.262 0 .013-.069.038-.152.055a.476.476 0 0 0-.167.055c-.008.013.003.066.025.118.022.052.035.099.029.105a2.166 2.166 0 0 1-.341.082c-.018 0-.04-.019-.049-.043zm-.315-.48a.685.685 0 0 1-.05-.15c0-.033.295-.118.345-.099.04.015.125.264.098.287a1.414 1.414 0 0 1-.318.079c-.014 0-.047-.053-.075-.117zm-9.8-2.394c.008-.056.123-.968.255-2.026.133-1.059.271-2.143.307-2.41a272 272 0 0 0 .202-1.58c.257-2.052.453-3.593.457-3.597.002-.002.135-.017.296-.033.162-.016.32-.034.351-.041.05-.011.057-.002.057.07 0 .047-.034.325-.075.62a153.1 153.1 0 0 0-.192 1.427c-.064.49-.19 1.425-.28 2.077-.09.652-.205 1.5-.255 1.886l-.092.701-.182.543-.182.542.223.206c.122.114.215.214.206.222a1.618 1.618 0 0 1-.296.031c-.201.01-.287.025-.303.05-.012.02-.121.33-.243.687-.231.684-.278.798-.254.625zm9.936-.247c-.056-.159-.168-.479-.248-.712l-.146-.423-.17-.016a4.349 4.349 0 0 0-.323-.017l-.153-.001.24-.224.241-.224-.182-.546-.182-.547-.205-1.542c-.114-.848-.315-2.34-.448-3.316-.132-.976-.241-1.805-.241-1.842 0-.052.012-.067.057-.067.127 0 .62.058.639.075.01.01.054.305.095.654.042.349.11.898.152 1.22l.255 1.989.458 3.605c.154 1.212.276 2.207.271 2.212a1.88 1.88 0 0 1-.11-.278zm-6.883-3.667-.16-.151-.181.09-.18.091.015-.173c.01-.096.103-1.43.209-2.965s.195-2.792.197-2.794c.022-.015.684-.1.69-.089.013.026-.4 6.106-.415 6.124-.008.01-.088-.05-.176-.134zm3.704-.03a517.8 517.8 0 0 1-.389-5.975c.006-.006.162.002.345.02l.333.031.014.13c.016.143.396 5.682.396 5.77 0 .055-.002.055-.152-.02a.881.881 0 0 0-.186-.077.472.472 0 0 0-.147.116c-.185.19-.196.19-.214.004zm-2.093-.792c-.006-.017-.01-1.212-.005-2.656l.007-2.625.35-.007.35-.007v2.664c0 1.466-.003 2.665-.008 2.665a2.55 2.55 0 0 1-.157-.051c-.183-.063-.21-.064-.385-.001-.103.036-.144.04-.152.019zm1-2.126c-.01-.18-.017-.405-.017-.502v-.175l.274.017c.15.01.28.026.29.036.008.01.022.204.03.432.018.473.052.414-.263.465a9.818 9.818 0 0 0-.232.04l-.066.013-.016-.326zm-1.661.226-.23-.042.01-.42c.004-.232.016-.429.025-.438a1.62 1.62 0 0 1 .294-.034l.278-.018-.016.25a9.425 9.425 0 0 0-.017.5c0 .29.032.27-.344.202zM9.133 8.12a2.273 2.273 0 0 1-.235-.069 2.803 2.803 0 0 1 .032-.346l.041-.337h.29c.267 0 .288.004.288.049 0 .056-.073.624-.09.71-.016.07-.037.069-.326-.007zm5.463.032c0-.018-.018-.175-.038-.35-.058-.488-.088-.437.248-.428l.287.007.034.313c.019.173.028.329.022.346-.007.018-.126.057-.264.088-.293.065-.29.065-.29.024zm-1.842-.853-.095-.01v-.161a2.59 2.59 0 0 0-.017-.282l-.017-.122.29.019c.16.01.293.02.294.022.002.002.01.127.02.278l.015.274-.197-.004a4.662 4.662 0 0 1-.293-.014zm-1.952-.29c.005-.15.015-.28.022-.286a2.22 2.22 0 0 1 .286-.027l.274-.016v.558l-.108.013a6.19 6.19 0 0 1-.296.024l-.187.01zm-1.804.009c.027-.32.022-.312.206-.312.088 0 .214.007.28.016l.122.017-.018.203c-.01.112-.024.219-.031.238-.01.027-.08.035-.295.035h-.281zm5.484-.034a1.776 1.776 0 0 1-.01-.24c.005-.003.127-.012.272-.019.308-.014.292-.028.322.293l.018.197H14.5zm-1.467-.372c-.32-.018-.353-.029-.367-.118a34.36 34.36 0 0 1-.06-1.459c.006-.004.559.058.57.064l.02.44c.009.242.024.586.033.765.013.27.01.324-.02.32a3.882 3.882 0 0 0-.175-.012zm-3.88-.026c-.053-.006-.096-.022-.096-.035 0-.047.153-1.256.16-1.263.018-.018.543-.08.556-.065.008.01-.02.32-.064.692l-.078.676-.191.003a3.182 3.182 0 0 1-.287-.008zm5.324-.002a22.487 22.487 0 0 1-.14-1.37c.013-.011.54.064.556.08.018.018.153 1.266.138 1.289-.016.027-.538.027-.554 0zm-3.626-.505c.01-.28.024-.624.033-.766l.016-.259.077-.015c.042-.008.17-.023.283-.032l.206-.015-.031.76c-.023.558-.04.764-.064.78a.679.679 0 0 1-.201.02c-.093 0-.207.009-.253.018l-.084.017zm-2.61-.946c0-.048 1.085-1.684 1.541-2.324A62.353 62.353 0 0 1 11.275.805c.672-.853.65-.83.757-.789.104.04 1.443 1.764 2.246 2.892.514.723 1.486 2.205 1.461 2.23a2.73 2.73 0 0 1-.354-.063c-2.017-.43-3.776-.488-5.734-.189a34.65 34.65 0 0 0-1.383.25c-.024.005-.044.004-.044-.004z"/></svg>