<svg viewBox="0 0 24 24" xmlns="http://www.w3.org/2000/svg" role="img"><path d="M2.702 21.532a.166.166 0 0 1 .003-.159c.028-.045-.007-.146-.078-.224-.103-.113-.111-.175-.043-.302.093-.175.197-.205.274-.08.034.055.083.053.155-.007.058-.048.141-.065.185-.038.122.076.096.347-.04.399a.124.124 0 0 0-.075.16c.084.22-.26.445-.38.25zm16.011-.275c-.117-.141-.012-.378.167-.378.146 0 .178.3.044.41-.085.071-.131.064-.21-.032zm-9.34-.301c-.142-.06-.255-.175-.284-.29-.054-.215.14-.943.273-1.026.06-.037.07-.009.03.093-.032.08-.077.256-.1.39-.033.197-.005.264.153.367.404.265.936-.108 1.018-.713.063-.467.11-.627.182-.627s-.023.742-.14 1.098c-.176.531-.729.877-1.132.708zM.126 20.82c-.203-.216-.16-.595.124-1.12.194-.36.197-.326.022.27-.077.258-.076.343.006.44.14.17.484.152.724-.037.245-.193.254-.27.04-.327-.179-.046-.18-.024.038-.964.156-.672.262-.903.478-1.045.101-.066.185-.18.185-.253 0-.073.034-.184.075-.248.06-.096.1-.099.231-.017.141.087.213.06.646-.25.268-.19.51-.347.538-.347.145 0-.168.344-.573.63-.286.201-.446.364-.42.429.021.057.002.173-.043.257-.062.117-.106.133-.185.068-.07-.06-.118-.061-.153-.005-.027.044-.13.06-.228.035-.207-.051-.235-.018-.303.364-.038.206-.018.313.073.404.113.113.143.112.366-.011.134-.074.305-.184.379-.244.074-.06.155-.089.179-.065.088.089-.123.348-.386.473-.148.07-.3.183-.338.25-.047.084-.135.112-.271.086-.216-.041-.28.048-.087.121.275.106-.03.96-.413 1.158-.32.165-.513.151-.704-.052zm3.383.02c-.186-.187-.196-.506-.03-.921.16-.4.263-.399.156.002-.102.38-.011.562.297.598.459.055.806-.332.806-.897 0-.277.026-.316.307-.455.355-.175.433-.05.122.194-.102.08-.226.299-.276.486-.252.944-.938 1.437-1.382.992zm-1.383-.46c0-.054.217-.3.834-.943.112-.116.228-.21.259-.21.11-.001-.102.405-.288.552-.105.082-.19.194-.19.247 0 .054-.06.15-.135.214-.155.135-.48.23-.48.14zm9.14.016c0-.035.14-.198.308-.363.325-.318.352-.319.234-.01-.07.183-.541.507-.541.373zm1.46-.131c0-.237.223-.808.316-.808.09 0 .088.01-.046.332-.073.173-.087.291-.039.32.143.09.085.346-.077.346-.112 0-.154-.051-.154-.19zm.96.13c-.322-.042-.422-.149-.422-.449 0-.245.108-.357.169-.175.084.251 1.632.216 2.033-.047.094-.062.216-.096.271-.076.055.02.29-.083.523-.228.259-.161.434-.23.452-.176.033.094-.36.442-.5.443-.048 0-.13.052-.183.115a.352.352 0 0 1-.236.115c-.078 0-.266.085-.418.188-.316.215-1.153.358-1.689.29zm3.583-.167c.151-.125.319-.332.372-.46.102-.246.244-.258.18-.015-.05.194.19.28.357.128a.483.483 0 0 1 .273-.117c.079 0 .24-.093.359-.207.158-.152.215-.174.215-.086 0 .066-.057.168-.128.226-.07.058-.199.26-.287.45-.15.329-.16.336-.184.135-.03-.25-.097-.264-.284-.057-.146.16-.5.212-.5.072 0-.045-.075-.028-.17.039a.69.69 0 0 1-.325.12c-.127 0-.105-.041.122-.228zm-11.63-.1c.13-.137.29-.37.354-.518.139-.324.17-.115.047.326-.08.289-.256.442-.506.442-.108 0-.087-.05.104-.25zm.667.088c.186-.146.195-.175.09-.29-.153-.17.002-.507.236-.51.089-.001.256-.115.371-.252.166-.198.232-.231.317-.161.058.048.106.133.106.189 0 .132-.225.354-.307.303-.071-.044-.384.357-.384.492 0 .143-.299.391-.471.391-.154 0-.152-.01.042-.162zm2.222.005c.169-.133.186-.18.11-.302-.12-.194.039-.56.228-.524.4.077.055.984-.375.984-.155 0-.153-.008.037-.158zm2.285.017c-.05-.092-.05-.326-.001-.673.09-.647.135-.8.235-.8.042 0 .06.061.04.135a5.977 5.977 0 0 0-.09.583c-.047.425-.042.447.103.4.2-.063.264.049.17.297-.09.234-.346.266-.457.058zm1.17-.075c.245-.256.258-.366.054-.475-.129-.069-.138-.108-.064-.271.154-.34.446-.181.446.241 0 .277-.32.72-.52.72-.093 0-.072-.052.083-.215zm7.215.13c-.11-.112-.124-.366-.03-.513.05-.08.082-.076.161.019.156.188 1.34.165 1.73-.034.164-.084.314-.137.333-.117.072.072-.227.425-.467.551-.324.172-1.586.24-1.727.094zm2.45-.172c.153-.14.302-.365.332-.499.029-.133.085-.242.125-.242.066 0 .05.151-.062.576-.065.248-.262.423-.476.422-.199 0-.198 0 .08-.257zm1.237-.008c.158-.145.288-.327.29-.403 0-.16.125-.382.181-.326.069.069-.112.72-.238.859a.492.492 0 0 1-.322.135c-.197 0-.196-.003.089-.265zm.627.103c.195-.153.2-.17.077-.305-.12-.133-.12-.156-.002-.337.236-.36.48-.214.396.238-.06.318-.285.567-.513.567-.154 0-.152-.01.042-.163zm-15.766-.28c.035-.2.081-.485.103-.633.041-.276.158-.523.216-.458.054.059-.1 1.157-.183 1.313-.137.256-.2.153-.136-.221zm9.005.244a3.5 3.5 0 0 0 .095-.557c.027-.24.098-.521.157-.627.099-.174.104-.14.061.373-.048.578-.157.933-.287.933-.04 0-.052-.055-.026-.122zm5.54-.475c.048-.328.129-.665.181-.749.078-.125.087-.053.047.415-.05.59-.142.93-.25.93-.035 0-.025-.268.022-.596zm-12.546.268c-.133-.16.11-.483.265-.354.142.118.105.405-.056.436a.244.244 0 0 1-.21-.082zm10.13-.702c-.069-.083-.07-.152-.008-.27.098-.182.164-.197.295-.067.072.072.092.072.092 0 0-.111.202-.122.27-.014.026.042.024.15-.004.237-.037.117-.094.149-.212.118-.089-.023-.202-.01-.251.032-.06.05-.12.038-.182-.036zm-5.894-.088c-.057-.15.124-.359.265-.304a.23.23 0 0 0 .208-.036c.142-.118.325.124.22.29-.104.166-.634.203-.693.05zm-11.38-.208c-.057-.07-.043-.147.054-.274.118-.157.145-.164.231-.06.114.137.044.432-.103.432a.279.279 0 0 1-.181-.098zm3.242-.011c-.048-.126.094-.429.2-.429.13 0 .223.264.144.405-.09.16-.286.174-.344.024zm17.26.037c-.093-.058-.09-.1.026-.276.126-.192.145-.198.261-.082.202.202-.047.51-.288.358zm-18.353-.33c-.12-.12-.112-.252.022-.363.06-.05.096-.132.079-.182-.018-.05.018-.156.079-.236.093-.123.13-.13.231-.045.067.055.102.15.078.213-.024.062.018.158.093.214.107.08.118.13.05.24a.309.309 0 0 1-.23.138.502.502 0 0 0-.23.055c-.045.03-.123.014-.172-.035zm11.448-.228c-.093-.093.271-.83.41-.83.104 0 .148.097.119.26-.007.037.044.13.113.205.186.207.04.41-.302.423-.15.005-.303-.021-.34-.058zM7.58 18.39c0-.14.374-.393.583-.393a.825.825 0 0 0 .403-.123c.097-.067.194-.105.216-.083.076.076-.213.422-.419.5-.285.107-.783.17-.783.099zm.613-2.122c-.08-.096-.071-.145.043-.271.093-.103.165-.128.216-.077.051.051.11.05.175-.005.126-.104.259-.023.259.157 0 .192-.178.334-.285.227-.058-.058-.097-.057-.134.002-.07.115-.16.104-.274-.033zm-2.303-.4c-.179-.228-.166-.503.046-1.013.128-.304.227-.282.11.026-.122.32-.095.568.07.656.457.245.952-.103 1.045-.734.091-.615.196-.752.16-.206-.059.85-.51 1.48-1.06 1.48-.133 0-.265-.074-.37-.21zm3.843-.016a.996.996 0 0 1-.08-.39c0-.27.29-.998.396-.998.038 0 .021.095-.038.211a2.16 2.16 0 0 0-.16.456c-.045.207-.024.264.136.369.17.11.22.112.457.013.36-.15.429-.282.221-.42-.218-.144-.21-.334.026-.615.105-.125.192-.269.192-.318 0-.05.036-.157.08-.24.064-.12.11-.133.23-.069.227.122.183.267-.164.542-.261.207-.294.26-.192.317.26.145.05.902-.329 1.19-.203.155-.682.125-.775-.048zm4.062.025c-.056-.068-.097-.257-.09-.421.013-.333.276-.992.396-.992.042 0 .01.147-.07.326-.193.423-.19.647.005.751.202.109.657-.03.766-.235.06-.114.045-.162-.078-.227-.285-.153-.155-.571.305-.977.107-.094.24-.172.295-.173.172-.004.062.26-.15.361-.11.053-.246.152-.303.22-.086.103-.082.134.029.196.247.138.123.708-.234 1.083-.235.246-.7.293-.87.088zm4.227-.151c-.117-.141-.013-.379.166-.379.146 0 .179.3.044.411-.085.07-.13.064-.21-.032zM7.81 15.43c0-.027.133-.178.296-.334.162-.157.326-.337.365-.4.038-.064.164-.2.28-.302.21-.184.211-.185.211-.022 0 .09-.112.283-.25.428a5.596 5.596 0 0 0-.364.422c-.109.15-.538.316-.538.208zm3.664-.07a.27.27 0 0 1 .03-.21c.037-.06.068-.301.069-.536 0-.26.046-.485.116-.576.105-.135.112-.1.07.389-.024.295-.057.58-.074.633-.016.053.005.096.047.096.114 0 .226-.352.227-.715.002-.392.07-.667.165-.667.04 0 .05.116.022.262-.124.665.252.77.868.243.158-.135.173-.136.173-.016 0 .152-.356.51-.508.51-.055 0-.138.068-.183.153a.32.32 0 0 1-.263.154c-.108 0-.231.077-.306.192-.136.206-.388.256-.453.089zm4.189-.184c.153-.159.303-.384.331-.5.083-.34.22-.358.156-.022-.09.477-.185.655-.393.734-.355.135-.379.08-.094-.212zm.705.1c.208-.17.214-.192.096-.31-.103-.103-.11-.16-.039-.295.12-.229.233-.29.352-.191.074.061.14.048.25-.052.082-.074.2-.116.263-.091.137.052.477-.454.442-.659-.033-.197.281-.319.556-.214.213.08.216.088.082.235-.075.083-.175.152-.221.153a.469.469 0 0 0-.194.07c-.092.059-.093.091-.01.192.125.15-.011.351-.238.351-.088 0-.215.115-.317.288l-.17.288-.024-.211c-.035-.3-.131-.263-.365.136-.201.343-.387.5-.585.495-.056-.002-.001-.085.122-.185zm1.62-1.58c.026-.041.013-.076-.03-.076-.042 0-.097.035-.124.077-.026.042-.012.077.03.077.042 0 .098-.035.124-.077zM7.549 14.912c.05-.544.165-.984.258-.984.131 0-.09 1.337-.237 1.427-.036.023-.045-.177-.02-.443zm1.535.015c.05-.543.165-.999.254-.999.096 0-.05 1.053-.178 1.282-.118.21-.12.201-.076-.283zm4.153-.244c.134-.846.296-1.005.222-.22-.03.316-.087.636-.127.711-.156.292-.191.111-.095-.49zm-6.764.373c-.123-.09-.127-.123-.036-.27.132-.211.273-.213.339-.004.076.238-.116.411-.303.274zm5.422-2.54-.178-.265-.705.042c-.453.027-.87.005-1.166-.06l-.461-.101.576-.06c.62-.064 1.23-.207 1.23-.288 0-.028-.096-.107-.212-.177-.774-.462-1.66-1.55-2.042-2.503C8.719 8.558 8.7 8.44 8.7 7.59c0-.727.036-1.05.174-1.533.23-.807.627-1.548 1.055-1.967l.348-.34-.198.355c-.395.71-.59 1.43-.635 2.35-.026.532-.007 1.044.05 1.343.127.66.683 1.768 1.174 2.337.45.52.89.914.953.852.022-.022.003-.824-.042-1.782a89.417 89.417 0 0 1-.08-3.522l.001-1.78.306-.254.306-.254.308.254.308.254-.014 2.036a106.3 106.3 0 0 1-.086 3.518c-.04.816-.047 1.507-.018 1.537.09.087 1.207-1.15 1.52-1.682.498-.844.633-1.407.625-2.605-.005-.918-.03-1.108-.216-1.652a7.468 7.468 0 0 0-.401-.96l-.192-.345.356.345c.424.412.879 1.315 1.084 2.15.192.784.19 1.967-.002 2.536-.365 1.072-1.007 1.975-1.84 2.586-.26.19-.482.373-.494.406-.033.089.58.24 1.221.302l.568.055-.461.102c-.295.065-.71.086-1.152.06l-.692-.043-.23.265-.23.265-.179-.264zm3.895-1.98c.546-1.028.662-1.5.66-2.676-.001-.927-.023-1.097-.205-1.598a6.42 6.42 0 0 0-1.305-2.13c-.255-.273-.44-.497-.41-.497.03 0 .337.147.681.326 1.788.929 2.585 2.787 2.025 4.721-.263.907-.731 1.614-1.44 2.175l-.305.243zm-7.77-.065C7.2 9.632 6.8 8.635 6.803 7.438c.005-1.326.606-2.451 1.698-3.179.526-.35 1.152-.648 1.152-.547 0 .042-.032.076-.07.076-.148 0-1.01 1.178-1.309 1.786-.405.827-.561 1.472-.562 2.323 0 .839.207 1.66.635 2.516.164.327.276.595.248.595-.028 0-.287-.242-.577-.538zm3.076-7.186c-.257-.14-.367-.333-.367-.646V2.4l.239.271c.282.322.623.363.941.113l.203-.16.202.16c.312.245.618.207.922-.115l.258-.275-.001.255c-.003.401-.37.756-.78.754-.099 0-.28-.067-.403-.148-.222-.147-.227-.147-.414 0-.223.176-.51.186-.8.03z"/></svg>