<svg role="img" viewBox="0 0 24 24" xmlns="http://www.w3.org/2000/svg"><path d="M11.61 7.514c3.712-.278 6.156 3.73 4.197 6.884-2.022 3.255-6.99 2.6-8.11-1.07-.836-2.74 1.092-5.604 3.913-5.814zm.034 6.9c-.016-.044-.839-.062-.865-.02-.046.075.788 1.18.859 1.137.024-.015.03-1.055.006-1.118zm3.213-.014c-.01-.017-.186-.026-.486-.026h-.47l-.064.142a5.611 5.611 0 0 1-.477.786c-.198.276-.18.283.229.085.52-.254 1.331-.884 1.268-.987zm-4.9-.026h-.405c-.327 0-.405.007-.405.034 0 .16 1.216 1.062 1.43 1.062.033 0-.002-.062-.201-.361a6.16 6.16 0 0 1-.317-.528zm2.758 0h-.36v.51c0 .399.008.507.032.497.094-.041.73-.937.7-.986-.007-.012-.174-.02-.372-.02zm-1.068-1.987-.013-.056h-.732c-.447 0-.738.01-.747.024-.037.06.084.737.2 1.115l.062.207.615-.007.615-.006.007-.61c.004-.337 0-.636-.007-.667zm-2.49 1.29c.282 0 .512-.01.512-.02s-.033-.149-.073-.309a6.789 6.789 0 0 1-.156-.918l-.007-.087-.562-.006c-.308-.004-.569 0-.578.01-.071.071.09.756.27 1.149l.083.18zm4.287 0 .08-.273c.102-.351.171-.695.18-.899l.008-.162-.661-.006c-.364-.004-.669 0-.678.01-.01.01-.017.312-.017.673v.656zm1.917 0 .09-.214c.137-.33.303-1.007.27-1.101-.013-.035-1.263-.047-1.284-.013-.006.01-.018.092-.028.181-.03.283-.113.763-.164.939a2.168 2.168 0 0 0-.048.188c0 .01.262.02.582.02zm-3.717-3.425c-.016-.043-1.106-.06-1.171-.02-.096.061-.378 1.305-.319 1.401.03.047 1.472.032 1.49-.015a8.81 8.81 0 0 0 .015-.683 8.83 8.83 0 0 0-.015-.683zm-2.459-.04H8.7l-.096.194c-.173.345-.368 1.083-.32 1.21.015.04.065.042.582.036l.566-.006.03-.262c.034-.312.09-.6.174-.89a.895.895 0 0 0 .049-.247c-.01-.028-.11-.034-.499-.034zm4.246.1-.043-.087-.504-.007c-.393-.005-.507 0-.517.026-.006.017-.009.34-.005.717l.006.685.666.006c.566.006.669.001.68-.03.04-.104-.171-1.08-.283-1.31zm2.296 1.334-.008-.1c-.025-.3-.18-.844-.323-1.134l-.092-.187-1.138-.013.014.069c.007.038.042.18.078.318.059.229.109.516.157.897l.018.15zm-4.068-2.68c0-.278-.01-.501-.023-.509-.061-.038-.85.994-.809 1.06.027.044.8.028.817-.017.008-.021.015-.262.015-.534zm2.663.574c.294 0 .45-.01.46-.027.058-.092-.755-.721-1.17-.908-.459-.205-.456-.207-.21.145.108.153.26.394.337.534l.14.256zm-4.33 0 .09-.18c.082-.164.39-.647.474-.744.018-.022.034-.052.034-.069 0-.045-.018-.038-.316.118-.419.22-1.111.775-1.063.853.007.012.186.022.397.022zm2.546-.773c-.19-.231-.184-.24-.176.293l.006.467.322.007c.176.004.331-.003.344-.015.026-.026-.278-.488-.496-.752zm5.52 9.986A6.124 6.124 0 0 1 12 24a6.124 6.124 0 0 1-6.057-5.247A8.981 8.981 0 0 0 12 21.096a8.981 8.981 0 0 0 6.057-2.343zm.686-12.811A6.124 6.124 0 0 1 24 12a6.124 6.124 0 0 1-5.256 6.058 9.09 9.09 0 0 0 2.3-6.058 9.09 9.09 0 0 0-2.3-6.058zm-13.488 0A9.09 9.09 0 0 0 2.956 12c0 2.326.87 4.45 2.3 6.058A6.124 6.124 0 0 1 0 12a6.124 6.124 0 0 1 5.256-6.058zm.687-.695A6.124 6.124 0 0 1 12 0a6.124 6.124 0 0 1 6.057 5.247A8.982 8.982 0 0 0 12 2.904a8.982 8.982 0 0 0-6.057 2.343zm2.195.036c.401-.447.839-.687 1.381-.758.67-.088 1.195.057 1.566.432.273.277.317.376.513 1.167.229.923.222.94-.369 1.035a4.914 4.914 0 0 0-1.924.752l-.347.238c-.291.199-.375.143-.77-.522-.499-.835-.525-.905-.504-1.358.017-.393.119-.613.454-.986zm4.286.795c.285-1.106.596-1.454 1.384-1.551.965-.12 1.787.263 2.312 1.076.404.624.269 1.215-.564 2.474-.135.203-.336.21-.582.021a4.932 4.932 0 0 0-2.192-.939c-.596-.095-.606-.125-.358-1.08zm-7.74 4.628c-.498-1.056.146-2.61 1.235-2.981.506-.173.798-.097 1.702.444.735.44.758.487.447.91a4.936 4.936 0 0 0-.915 2.218c-.068.5-.129.517-1.065.28-.894-.226-1.186-.407-1.405-.871zM16.39 8.169c.605-.362.727-.425.93-.475 1.242-.307 2.443 1.213 2.118 2.682-.15.675-.49.943-1.523 1.202-.928.233-.986.218-1.057-.266a5.018 5.018 0 0 0-.922-2.238c-.306-.413-.279-.467.454-.905zM4.969 12.915c.26-.262.346-.3 1.156-.508.886-.228.962-.208 1.026.278a5.02 5.02 0 0 0 .915 2.227c.197.264.227.411.116.555-.065.084-1.147.717-1.345.788-1.637.582-3.124-2.078-1.868-3.34zm11.892-.25c.035-.24.087-.332.22-.39a.665.665 0 0 1 .097-.037c.064-.004 1.386.35 1.507.404 1.045.466 1.095 2.214.092 3.17-.744.708-1.217.715-2.36.034-.764-.456-.788-.501-.483-.917.493-.673.81-1.445.927-2.265zm-8.928 4.13c.307-.535.589-.972.646-1 .132-.068.282-.024.517.15a5.024 5.024 0 0 0 2.203.907c.325.052.456.145.457.323 0 .118-.321 1.347-.391 1.497-.486 1.042-2.172 1.115-3.139.136-.638-.646-.727-1.258-.293-2.013zm4.823.048a5.045 5.045 0 0 0 2.22-.944c.277-.212.445-.188.618.087.6.954.745 1.274.744 1.654-.004 1.506-2.335 2.473-3.405 1.412-.267-.265-.32-.385-.518-1.168-.233-.922-.222-.957.34-1.04z"/></svg>