<svg viewBox="0 0 24 24" xmlns="http://www.w3.org/2000/svg" role="img"><path d="M1.394 16.5c-.424-.057-.804-.244-1.038-.51a1.42 1.42 0 0 1-.303-.58c-.055-.216-.051-.098-.054-1.723 0-1.167 0-1.481.01-1.497.024-.046-.033-.044 1.184-.044 1.037 0 1.13.001 1.151.014.031.019.04.038.051.123.045.33.18.605.411.833.21.206.463.335.757.385.095.017.138.017 1.512.015l1.413-.003.083-.02c.233-.053.446-.155.603-.288.07-.06.101-.073.141-.06a.11.11 0 0 1 .05.03c.015.021.016.034.016.183v.16l1.806-.003 1.805-.003.08-.02a1.46 1.46 0 0 0 .616-.299c.07-.057.098-.066.14-.045.05.024.058.049.058.22v.15l.302-.004c.271-.003.311-.006.383-.022.228-.052.41-.138.593-.28a.59.59 0 0 1 .11-.073.101.101 0 0 1 .054.008c.05.02.056.047.056.222v.149l.303-.004c.267-.003.312-.006.381-.022a1.47 1.47 0 0 0 .623-.3c.068-.056.095-.064.139-.043.049.024.053.039.053.213v.155l.802-.003c.793-.003.803-.003.884-.022.237-.054.46-.162.619-.3a.344.344 0 0 1 .074-.05.099.099 0 0 1 .102.033c.016.02.017.034.017.182v.16l.302-.004c.274-.003.311-.005.388-.022.23-.051.46-.163.622-.302a.33.33 0 0 1 .068-.048.088.088 0 0 1 .097.028c.022.026.022.027.022.186v.161l.806-.003c.794-.003.807-.003.885-.021a1.422 1.422 0 0 0 1.11-1.191c.015-.094.02-.113.039-.132l.022-.021 1.09-.002c.599-.001 1.098 0 1.109.002a.102.102 0 0 1 .04.027l.02.022v1.41c0 1.373 0 1.414-.017 1.528a1.829 1.829 0 0 1-.278.752c-.242.36-.598.564-1.072.616-.05.006-3.651.008-10.616.008-8.673 0-10.555-.003-10.621-.012zm21.263-.183c.33-.051.574-.172.767-.378.153-.164.27-.39.336-.647.053-.208.052-.152.052-1.622v-1.338h-1.946l-.01.031a1.593 1.593 0 0 1-1.181 1.294c-.177.045-.2.046-1.098.046h-.831l-.024-.02c-.024-.02-.024-.022-.028-.14v-.118l-.068.042c-.13.08-.29.15-.43.186-.165.042-.18.043-.57.047l-.374.004-.028-.025-.028-.025v-.111c0-.061 0-.111-.01-.111 0 0-.015.007-.027.016-.093.066-.3.16-.427.195-.206.058-.141.054-1.098.058-.653.002-.873 0-.891-.007-.04-.017-.05-.046-.05-.164v-.106l-.056.037a1.691 1.691 0 0 1-.531.214c-.1.022-.112.022-.47.026a7.237 7.237 0 0 1-.387-.002c-.042-.01-.054-.049-.054-.168v-.107l-.05.033a1.694 1.694 0 0 1-.46.198c-.156.04-.242.048-.604.048h-.334l-.025-.025-.025-.025v-.229l-.066.041c-.14.086-.292.151-.45.191-.19.048-.103.046-2.094.046H7.252l-.028-.024-.028-.025v-.11c0-.062 0-.111-.01-.111 0 0-.015.007-.027.015a1.678 1.678 0 0 1-.559.228l-.107.023H5.046c-1.381 0-1.452 0-1.533-.016a1.586 1.586 0 0 1-1.15-.86 1.667 1.667 0 0 1-.15-.472v-.019H.183v1.37c0 .904 0 1.394.01 1.441.04.324.153.569.355.77.102.104.203.174.35.247.175.086.41.15.608.167.048.004 4.806.007 10.573.006 9.865-.001 10.49-.002 10.579-.016zM3.51 15.219a.314.314 0 0 1-.18-.16c-.016-.034-.018-.055-.018-.145 0-.099 0-.11.023-.154a.315.315 0 0 1 .14-.137.372.372 0 0 1 .244.002.322.322 0 0 1 .139.14.43.43 0 0 1 0 .302.314.314 0 0 1-.162.147.467.467 0 0 1-.184.005zm.142-.07a.177.177 0 0 0 .079-.048c.047-.046.067-.101.067-.187 0-.148-.076-.24-.2-.24-.128 0-.206.091-.206.24 0 .122.047.2.142.233.04.014.069.015.118.002zm3.202-.235v-.305h.082l.156.234.156.234v-.468h.076v.609H7.24l-.154-.234-.155-.235v.469h-.076zm3.472 0v-.305h.084v.533l.146.002.146.002v.072h-.382zm3.344 0v-.306l.04.003.04.003v.605h-.085zm3.083.002v-.303l.042-.002.042-.002.153.232.152.231v-.458l.04-.003.04-.003v.611h-.088l-.154-.235-.155-.235v.47h-.084v-.303zm3.471 0v-.303h.44v.072H20.3v.178l.167.002.167.002v.071l-.168.002-.167.002v.2h.373v.076h-.458zM3.64 12.687a.583.583 0 0 1-.38-.309c-.057-.118-.061-.149-.061-.495 0-.265 0-.303.014-.32.032-.046-.044-.044 1.527-.044h1.456v-.813h-3.81v1.323l-.028.024-.028.025H1.193c-1.242 0-1.16.003-1.182-.049-.01-.017-.01-.417-.01-1.606 0-1.743 0-1.612.054-1.829.054-.213.162-.42.303-.58.237-.268.618-.455 1.047-.512.076-.01 1.605-.012 10.62-.012 6.955 0 10.558.003 10.608.008.401.044.72.2.955.464.168.188.302.461.365.742.048.215.047.161.047 1.808v1.516l-.025.025-.025.025h-1.1c-.98 0-1.104-.001-1.122-.013-.025-.017-.036-.045-.043-.114 0-.03-.013-.09-.022-.132a1.417 1.417 0 0 0-1.237-1.104 35.839 35.839 0 0 0-1.063-.008h-.984v1.528l-.023.068a.603.603 0 0 1-.371.372.517.517 0 0 1-.19.028c-.119.004-.119.004-.146-.02-.039-.032-.04-.061-.01-.159.047-.154.055-.213.054-.412 0-.158 0-.194-.02-.271a1.413 1.413 0 0 0-1.239-1.126 28.96 28.96 0 0 0-1.064-.009h-.982v1.52l-.023.068a.585.585 0 0 1-.307.352.578.578 0 0 1-.285.058c-.092 0-.1 0-.12-.02-.04-.037-.04-.061 0-.187.054-.182.05-.061.053-1.75v-1.54h-.813v1.506c0 1.425 0 1.507-.018 1.555a.59.59 0 0 1-.6.436c-.1 0-.101 0-.126-.024-.03-.03-.032-.066-.01-.145.064-.203.067-.26.067-1.101v-.727l-1.478-.002-1.478-.002-.022-.025c-.02-.024-.02-.029-.017-.11.01-.1.026-.17.074-.252.065-.11.18-.21.293-.253.103-.039.147-.041.653-.042h.476v-.814l-.54.003c-.523.003-.542.004-.632.023-.628.13-1.08.63-1.139 1.258 0 .051-.01.303-.01.56v.468h1.461c1.3 0 1.465.001 1.49.014.05.024.05.026.05.362 0 .344 0 .361-.063.484a.587.587 0 0 1-.347.302l-.055.02-1.623.001-1.622.002-.026-.021c-.037-.032-.04-.063-.014-.147.012-.039.03-.107.04-.152.017-.08.018-.105.02-.88v-.798h-.813v.739c0 .834 0 .803-.064.937a.59.59 0 0 1-.38.306c-.064.016-.1.016-1.4.016-1.287 0-1.336-.001-1.396-.017zm2.768-.185a.42.42 0 0 0 .277-.297c.01-.025.01-.313.01-.824 0-.863 0-.82.051-.848.022-.012.092-.013.556-.01l.53.001.024.028.025.027v.824c0 .836 0 .889-.033 1.04l-.015.075 1.53-.002 1.528-.002.064-.03a.42.42 0 0 0 .222-.242c.017-.046.019-.07.022-.293v-.244H9.726c-1.347 0-1.474 0-1.492-.013-.043-.03-.043-.033-.043-.581 0-.28 0-.557.01-.614A1.588 1.588 0 0 1 9.632 9.03c.044-.005.328-.008.63-.008.532 0 .552 0 .578.017.02.011.03.027.036.05.01.023.01.198.01.545 0 .475 0 .512-.018.534a.11.11 0 0 1-.036.031 8.977 8.977 0 0 1-.552.008c-.45 0-.539.002-.58.013a.42.42 0 0 0-.301.291c0 .007.367.01 1.452.01 1.256 0 1.456.002 1.482.012.057.024.054-.013.054.84 0 .791 0 .904-.035 1.056a.412.412 0 0 0-.013.088c0 .002.022 0 .044-.006a.426.426 0 0 0 .3-.296c.014-.052.015-.168.015-1.595V9.082l.026-.028.025-.027h1.085l.023.023.023.024v1.534c0 1.587 0 1.664-.032 1.826a.378.378 0 0 0-.013.083c.01.006.083-.016.129-.038a.474.474 0 0 0 .178-.17c.054-.102.052-.071.052-.93 0-.487 0-.789.01-.803 0-.011.02-.029.036-.038.028-.017.036-.017 1.124-.014 1.194.003 1.137 0 1.332.052.58.151 1.03.627 1.152 1.216.043.208.04.482-.01.679l-.012.05.03-.007a.421.421 0 0 0 .315-.28c.017-.054.017-.076.018-.84 0-.585 0-.792.01-.814.01-.02.02-.035.04-.045.029-.014.097-.014 1.059-.014.653 0 1.064.003 1.126.009a1.59 1.59 0 0 1 1.44 1.367c0 .002.438.004.973.004h.974v-1.453c0-1.27 0-1.464-.013-1.543-.05-.336-.183-.634-.375-.84-.192-.205-.431-.324-.76-.378-.088-.014-.583-.015-10.548-.017-7.401-.002-10.491 0-10.578.006a1.7 1.7 0 0 0-.825.274c-.103.07-.242.21-.308.309a1.35 1.35 0 0 0-.213.602c-.01.047-.01.571-.01 1.555V11.9h2.015v-1.32l.025-.028.025-.027h4.083l.025.027.025.028v.529c0 .391 0 .534-.01.55-.022.05.072.047-1.521.047H3.383v.23c0 .181 0 .243.013.282.034.131.14.242.273.284.046.015.115.015 1.366.016 1.286 0 1.319 0 1.371-.016zm8.745.19a.09.09 0 0 1-.043-.071.59.59 0 0 1 .021-.09c.053-.175.057-.208.061-.588 0-.288.01-.356.016-.376.026-.05.02-.05.624-.046.61.003.588.001.713.06a.57.57 0 0 1 .331.505.494.494 0 0 1-.06.293.59.59 0 0 1-.334.295l-.073.026-.618.002c-.504.002-.622 0-.638-.009zm1.28-.198a.535.535 0 0 0 .095-.054.405.405 0 0 0 .117-.518.434.434 0 0 0-.286-.207 7.045 7.045 0 0 0-.513-.01h-.463v.299c0 .252-.01.313-.022.392-.01.051-.02.1-.023.108-.01.014.02.015.522.012l.528-.002zm2.713.193c-.038-.03-.043-.063-.02-.142.06-.196.074-.33.074-.713v-.259l.026-.025.026-.025h.564c.629 0 .607-.002.734.06a.598.598 0 0 1 .314.389.772.772 0 0 1 0 .288.6.6 0 0 1-.314.385c-.124.06-.118.06-.786.06-.585 0-.596-.001-.617-.018zm1.306-.204a.4.4 0 0 0 .121-.653.52.52 0 0 0-.095-.073c-.094-.05-.11-.051-.629-.051h-.472v.27c0 .274-.01.39-.038.498l-.012.045.53-.002.531-.002z"/></svg>