<svg role="img" viewBox="0 0 24 24" xmlns="http://www.w3.org/2000/svg"><path d="M11.327 23.956c-.837-.152-1.702-.72-2.205-1.449-.377-.545-.625-1.257-.625-1.792 0-.102-.012-.165-.031-.165a.77.77 0 0 0-.184.14 3.53 3.53 0 0 1-5.436-1.135c-.233-.468-.323-.85-.341-1.458-.016-.51.015-.77.135-1.138a4.08 4.08 0 0 1 .695-1.241.676.676 0 0 0 .11-.146 4.794 4.794 0 0 0-.36-.068 3.766 3.766 0 0 1-1.135-.351c-.82-.4-1.49-1.175-1.79-2.073-.33-.985-.137-2.208.49-3.115.176-.254.62-.687.882-.859.564-.369 1.277-.612 1.797-.612.14 0 .19-.028.121-.07a6.853 6.853 0 0 1-.342-.486c-.46-.689-.573-1.024-.6-1.799-.03-.815.128-1.391.564-2.062A3.608 3.608 0 0 1 5.157 2.59c.337-.089 1.035-.123 1.407-.068.587.086 1.295.421 1.77.84a.904.904 0 0 0 .146.114c.01 0 .017-.074.017-.164 0-.582.271-1.327.683-1.873.678-.9 1.588-1.383 2.696-1.43a3.51 3.51 0 0 1 3.057 1.561c.355.534.508.98.595 1.732l.02.176.14-.13c.405-.374 1.065-.69 1.695-.809.418-.079 1.086-.05 1.55.07.962.244 1.877 1.037 2.296 1.987a3.515 3.515 0 0 1-.492 3.617c-.1.129-.184.246-.184.259 0 .013.061.023.135.023.349 0 .97.158 1.324.337.41.207.889.567 1.125.846.36.425.639.968.77 1.495.088.35.12.98.068 1.331a3.646 3.646 0 0 1-.945 1.933c-.21.226-.72.594-1.064.767-.303.153-.762.27-1.224.315-.104.01-.189.028-.189.04s.049.077.108.145c.603.687.93 1.69.844 2.591-.151 1.596-1.275 2.852-2.83 3.163-1.014.203-2.12-.074-2.895-.727a2.654 2.654 0 0 0-.228-.18.957.957 0 0 0-.032.217c-.07.797-.349 1.436-.914 2.092-.493.573-1.296 1-2.084 1.11-.293.04-.936.033-1.195-.014zm1.235-1.335c.667-.165 1.22-.653 1.506-1.328a2.46 2.46 0 0 0 .149-.685v-.114h1.3l.447-.448c.245-.247.454-.449.464-.449.01 0 .11.07.224.155.241.181.367.25.625.337.403.137.905.159 1.3.056a2.49 2.49 0 0 0 .809-.418c.372-.305.598-.643.734-1.097.065-.216.076-.304.077-.603a2.43 2.43 0 0 0-.047-.547 2.447 2.447 0 0 0-.437-.866l-.145-.164.465-.47.464-.47v-1.284l.265-.033a2.182 2.182 0 0 0 1.92-1.968 2.155 2.155 0 0 0-.613-1.749c-.385-.4-.83-.615-1.41-.678l-.162-.017V8.484l-.449-.44c-.246-.242-.448-.455-.448-.472 0-.017.057-.102.127-.187.162-.2.302-.478.395-.79.062-.207.075-.303.077-.61.004-.426-.045-.623-.254-1.03-.296-.575-.884-1-1.539-1.115-.306-.054-.816-.024-1.083.063-.24.078-.619.289-.725.402-.135.145-.123.151-.616-.326l-.462-.447h-1.295l-.018-.204c-.064-.746-.53-1.442-1.182-1.767-.4-.2-.675-.258-1.116-.237a2.21 2.21 0 0 0-1.727.955c-.199.29-.367.76-.367 1.025 0 .239.024.231-.691.223l-.631-.007-.408.427c-.224.235-.43.44-.46.455-.043.023-.09 0-.256-.128-.423-.325-.84-.471-1.34-.47-1.28.003-2.229.958-2.22 2.237.003.517.142.91.469 1.327l.16.206-.452.455-.452.455v1.293l-.25.032C2.11 9.959 1.32 10.842 1.32 12c-.001 1.142.866 2.11 1.976 2.207l.224.02.007.66.007.66.446.444.446.445-.15.2a2.182 2.182 0 0 0-.463 1.163 2.18 2.18 0 0 0 1.462 2.29c.704.24 1.555.098 2.1-.35a2.24 2.24 0 0 1 .163-.127c.026-.015.177.116.494.43l.457.451h1.293l.017.133c.037.295.08.48.157.68.399 1.034 1.499 1.59 2.605 1.315zM6.03 16.29v-1.766L4.782 13.27c-.686-.69-1.248-1.266-1.248-1.282 0-.015.562-.584 1.248-1.263L6.03 9.49V6.055h3.574l1.199-1.198 1.2-1.198 1.2 1.2 1.2 1.2 1.75-.003c1.005 0 1.767.01 1.79.024.033.021.042.304.053 1.735l.013 1.71 1.23 1.226c.677.674 1.23 1.24 1.23 1.257 0 .018-.555.585-1.234 1.261l-1.233 1.23v1.733a49.9 49.9 0 0 1-.017 1.778c-.016.04-.176.045-1.528.045h-1.511V17.1H9.058v.954H6.03zm2.467-.046v-.915l-.192-.227a3.545 3.545 0 0 1-.564-.862c-.24-.505-.324-1.008-.243-1.473.118-.677.39-1.204.987-1.917.387-.463 1.269-1.272 2.199-2.018.415-.333.969-.799 1.14-.958A.731.731 0 0 1 12 7.737a.85.85 0 0 1 .192.147c.09.081.553.47 1.03.862.478.393.995.824 1.15.957.375.324 1.17 1.143 1.383 1.426.322.427.557.88.694 1.333.068.225.076.296.076.672 0 .376-.008.448-.075.667-.13.43-.385.872-.76 1.321l-.184.221v1.815h1.57V14.16l.218-.22 1.051-1.06c.459-.463.834-.855.834-.872 0-.017-.473-.503-1.051-1.079l-1.052-1.048V6.98h-3.045l-.755-.76a171.26 171.26 0 0 0-1.016-1.015L12 4.95l-1.016 1.015L9.967 6.98H6.955v2.874l-1.069 1.052c-.738.727-1.065 1.068-1.058 1.101.006.027.473.513 1.04 1.081.565.568 1.042 1.067 1.058 1.109.019.05.029.588.029 1.519v1.442h1.542zm6.449-.676c0-.165.057-.274.249-.47.4-.407.695-.88.816-1.305a2.48 2.48 0 0 0-.032-1.355c-.129-.402-.523-1.036-.89-1.433-.324-.349-1.04-1.008-1.742-1.602a24.59 24.59 0 0 1-1.05-.932c-.14-.14-.27-.255-.292-.255-.021 0-.11.072-.196.161-.087.09-.806.754-1.599 1.477-1.52 1.387-1.604 1.475-1.926 2.016a3.54 3.54 0 0 0-.245.549 1.788 1.788 0 0 0-.124.618c-.023.477.098.935.363 1.385.122.206.503.676.663.818.085.074.099.106.11.245l.014.16h5.88z"/></svg>