<svg viewBox="0 0 24 24" xmlns="http://www.w3.org/2000/svg" role="img"><path d="M11.69 23.933c-.198-.099-.65-.452-.84-.656a10.078 10.078 0 0 1-.776-1.02c-.161-.237-.172-.246-.37-.342A2.864 2.864 0 0 1 8.522 20.9a4.064 4.064 0 0 1-.184-.292c-.008-.023-.076-.018-.285.022-.502.097-1.129.06-1.461-.088-.262-.116-.297-.118-.606-.049-.86.195-1.572.214-2.306.063a1.289 1.289 0 0 1-.262-.071 2.202 2.202 0 0 1-.09-.352c-.062-.295-.069-.385-.07-.877 0-.52.003-.572.084-.994.109-.567.104-.729-.037-1.147-.094-.282-.098-.306-.096-.624.001-.24.017-.4.057-.583a2.87 2.87 0 0 0 .055-.306c0-.04-.082-.115-.315-.287-.374-.276-.578-.502-.866-.964-.217-.347-.253-.383-.776-.776a14.615 14.615 0 0 1-.535-.422c-.419-.352-.76-.8-.824-1.084-.036-.155.19-.561.536-.965.186-.217.847-.729 1.218-.944.199-.115.213-.133.315-.389.162-.408.518-.808 1.019-1.144.306-.205.31-.209.292-.288a3.344 3.344 0 0 1-.089-.773c0-.365.042-.618.153-.892.093-.232.092-.283-.01-.811a5.33 5.33 0 0 1-.05-1.86c.05-.32.08-.38.236-.459.526-.266 1.37-.275 2.463-.025l.282.064.253-.101c.45-.18.93-.226 1.385-.13.132.028.266.051.297.051.044 0 .1-.06.235-.248.323-.45.637-.725 1.087-.95l.28-.14.302-.433c.48-.691.76-.981 1.37-1.415l.293-.21.105.056c.162.086.666.471.847.647.274.266.528.569.741.883.246.362.368.476.768.714.168.1.374.239.456.307.136.113.46.512.576.709.055.093.11.1.304.04.183-.055.582-.112.79-.112.246 0 .607.08.858.187l.21.09.281-.06c.598-.128.819-.153 1.366-.153.437 0 .572.009.828.058.382.072.39.074.421.133.05.092.127.54.155.897a5.83 5.83 0 0 1-.158 1.76l-.05.2.09.197c.208.462.235.94.092 1.638l-.045.22.224.158c.608.43.945.826 1.133 1.334.036.098.066.133.15.176.16.082.45.283.724.504.405.326 1.055 1.035 1.206 1.317l.057.106-.098.149c-.406.613-1.124 1.301-1.735 1.66-.264.155-.286.174-.32.279-.143.443-.58.978-1.058 1.296-.118.078-.214.154-.214.167 0 .013.031.17.07.348.056.264.069.385.068.655-.002.368-.03.492-.185.85l-.092.214.071.335c.162.761.177.875.179 1.34 0 .384-.007.48-.058.69a3.111 3.111 0 0 1-.109.358c-.057.136-.122.175-.422.25-.574.146-1.1.133-2.09-.051l-.414-.077-.198.088c-.108.048-.26.104-.338.123-.206.05-1.016.044-1.31-.011l-.228-.043-.09.108c-.05.06-.202.228-.337.375-.474.518-.672.676-1.03.823l-.2.083-.176.28c-.285.454-.43.639-.773.985-.33.333-.588.533-.83.646-.17.08-.234.08-.392 0zm.336-1.039c.432-.241.772-.763.91-1.395l.056-.253.139-.053c.32-.123.756-.482 1.035-.854.16-.215.293-.436.272-.456a.538.538 0 0 0-.162-.015c-.58 0-1.618-.385-2.11-.783a18.357 18.357 0 0 0-.246-.197c-.022-.016-.073.013-.168.1-.347.313-.935.608-1.506.754-.295.075-.595.126-.75.126-.073 0-.139.009-.146.02-.019.031.144.292.334.535.235.302.523.539.848.699.148.072.271.134.276.137.004.003.029.106.054.23.12.576.413 1.08.814 1.399.079.063.146.114.15.114.004 0 .093-.048.2-.108zm7.363-3.066c.2-.052.31-.14.39-.315.057-.121.067-.176.065-.372-.003-.339-.11-.617-.42-1.098a1.51 1.51 0 0 1-.15-.266c0-.018.03-.109.067-.201a2.51 2.51 0 0 0 .151-1.136c-.023-.21-.12-.65-.143-.65a.795.795 0 0 0-.148.101 5.87 5.87 0 0 1-1.38.777 3.45 3.45 0 0 1-.782.181c-.206.02-.197.01-.224.253-.07.653-.34 1.28-.86 1.998a1.705 1.705 0 0 0-.172.268c0 .053.405.123.793.136.444.015.636-.013.943-.136l.22-.09.2.132c.42.273.675.386.975.43.223.033.312.03.475-.012zm-14.28-.035c.232-.06.458-.17.794-.39l.25-.165.188.072c.333.13.45.15.884.15.35 0 .438-.01.67-.067.147-.037.267-.074.267-.083 0-.01-.101-.145-.223-.302a5.343 5.343 0 0 1-.347-.504c-.251-.44-.437-.995-.465-1.39-.022-.317-.006-.295-.24-.315a3.27 3.27 0 0 1-1.216-.35 5.873 5.873 0 0 1-.948-.61c-.075-.063-.139-.1-.15-.086a1.784 1.784 0 0 0-.083.279c-.052.215-.062.316-.06.65 0 .406.023.541.14.86a.85.85 0 0 1 .05.193c0 .032-.065.16-.144.286a5.47 5.47 0 0 0-.249.445c-.102.212-.105.223-.114.53-.016.583.063.712.494.808.21.047.281.046.502-.011zm9.417-1.64.285-.133.016-.166a10.35 10.35 0 0 1 .295-1.657c.134-.506.203-.712.26-.775.125-.136 1.253-.423 2.109-.536.25-.033.466-.067.479-.075a1.7 1.7 0 0 0 .133-.285l.108-.27-.116-.119a8.207 8.207 0 0 1-.658-.848c-.288-.428-.711-1.2-.711-1.295 0-.098.444-.89.767-1.366a8.95 8.95 0 0 1 .444-.58l.27-.324-.107-.254c-.117-.275-.153-.307-.35-.307-.144 0-.905-.123-1.26-.204a10.989 10.989 0 0 1-1.083-.31l-.133-.05-.09-.285a10.839 10.839 0 0 1-.422-1.967 2.145 2.145 0 0 0-.054-.35c-.027-.052-.404-.25-.473-.249-.025 0-.195.127-.377.282-.182.154-.493.39-.691.522-.378.253-1.198.7-1.285.7-.094 0-.681-.32-1.158-.63a7.121 7.121 0 0 1-.91-.7c-.138-.124-.272-.225-.297-.225a1.1 1.1 0 0 0-.203.053l-.158.053v.157c-.001.397-.094 1.133-.203 1.612-.078.34-.285 1.04-.317 1.07-.032.033-.583.198-1.098.33a8.443 8.443 0 0 1-1.335.232l-.264.018-.032.079a8.965 8.965 0 0 0-.105.286l-.072.207.204.251c.492.605.707.922.955 1.406.232.453.246.539.128.836-.176.441-.426.834-.96 1.503a9.76 9.76 0 0 0-.335.437c-.016.042.141.509.186.554.02.02.108.043.196.05 1.29.122 1.63.196 2.184.474.252.126.262.134.32.264.184.417.354 1.139.453 1.928l.057.446.089.044c.313.152.423.198.476.198.036 0 .17-.087.346-.225.158-.124.425-.318.593-.43.352-.235 1.189-.695 1.263-.695.055 0 .388.162.75.364.359.2.783.497 1.172.82.226.186.371.289.395.28a13.3 13.3 0 0 0 .324-.147zM4.11 14.392c0-.304.135-.88.302-1.286a3.25 3.25 0 0 1 .477-.832c.104-.138.19-.265.19-.283a1.01 1.01 0 0 0-.154-.218c-.432-.524-.755-1.355-.807-2.077-.018-.261-.026-.267-.21-.16-.442.255-.866.698-1.06 1.109l-.097.198c-.036.072-.112.103-.45.18-.436.1-.712.24-.963.488-.245.243-.31.496-.186.735.092.178.342.407.562.514.214.104.652.254.876.3.096.02.151.046.16.074.068.229.306.603.527.828.23.235.755.598.812.562.012-.007.02-.067.02-.132zm15.92.016c.458-.261.922-.779 1.072-1.196l.042-.118.264-.067c.352-.089.762-.252.95-.377.26-.174.406-.41.407-.657.001-.183-.073-.334-.252-.513-.21-.209-.485-.34-.954-.457l-.386-.096-.13-.257a2.637 2.637 0 0 0-1.05-1.102 1.05 1.05 0 0 0-.2-.1c-.017 0-.035.076-.046.197-.069.802-.32 1.488-.75 2.046a3.31 3.31 0 0 0-.207.284c0 .01.05.079.112.154.49.602.774 1.339.846 2.195.02.229 0 .224.281.064zM4.848 8.117a4.266 4.266 0 0 1 2.075-.9l.231-.03.017-.115.047-.317c.035-.239.17-.67.292-.94.12-.262.29-.54.53-.864.113-.152.198-.282.19-.29-.014-.014-.231-.056-.591-.114-.347-.056-.936.017-1.236.154a.697.697 0 0 1-.144.052c-.015 0-.119-.058-.23-.13-.255-.168-.615-.341-.81-.391-.494-.126-.94.044-1.045.398-.108.362.02.802.39 1.354.1.15.182.283.182.296 0 .013-.04.108-.09.212-.132.279-.172.505-.157.887.012.3.106.892.141.892.01 0 .103-.07.208-.154zm14.504-.177c.05-.204.06-.305.058-.637-.002-.425-.033-.612-.152-.908l-.065-.164.142-.225c.389-.616.495-1.067.358-1.526-.033-.112-.056-.143-.147-.196-.25-.146-.577-.173-.91-.076-.176.05-.594.26-.797.398-.145.098-.16.103-.233.073a2.855 2.855 0 0 0-1.174-.194c-.366.03-.752.115-.752.166 0 .01.059.093.13.183.52.644.862 1.424.93 2.119.01.101.03.192.046.203a.43.43 0 0 0 .148.019c.303 0 .867.154 1.235.335.23.113.734.438.951.615.087.07.147.102.157.085a2.61 2.61 0 0 0 .075-.27zM12.16 5.002c.486-.365 1.183-.66 1.824-.77.124-.021.276-.039.337-.039.062 0 .112-.011.112-.025 0-.014-.076-.142-.17-.286a2.795 2.795 0 0 0-1.114-.988l-.176-.09-.069-.268c-.099-.385-.147-.523-.26-.744-.178-.345-.44-.552-.726-.576-.189-.016-.365.075-.566.289-.206.22-.318.46-.435.935l-.095.382-.252.123c-.299.145-.54.332-.794.611-.16.177-.44.557-.44.598 0 .008.035.013.078.013.23 0 1.065.222 1.44.382.304.13.509.251.785.464.124.096.237.174.25.174.014 0 .136-.084.271-.185z"/></svg>