<svg viewBox="0 0 24 24" xmlns="http://www.w3.org/2000/svg" role="img"><path d="M.4 21.27c-.261-.161-.4-.442-.4-.809 0-.328.183-.941.37-1.236.144-.229.167-.13.035.158-.28.614-.208 1.109.188 1.267.412.165 1.03.032 1.365-.293.305-.297.369-.467.402-1.072.027-.488.11-.873.214-.987.06-.066.042.825-.023 1.162-.124.645-.39 1.16-.79 1.531-.325.3-.467.358-.892.357-.26 0-.373-.019-.469-.078zm8.79.026c-.178-.057-.413-.319-.47-.523-.079-.284-.03-.826.1-1.13.186-.43.28-.61.318-.61.052 0 .054.061.005.158-.363.712-.336 1.178.079 1.392.165.086.233.096.528.08.853-.049 1.364-.672 1.366-1.665.001-.408.038-.47.276-.47.15 0 .227-.03.388-.153.11-.084.212-.172.227-.194.014-.023.036-.025.049-.004.027.044-.136.435-.182.435a1.26 1.26 0 0 0-.237.14 2.127 2.127 0 0 1-.275.165c-.05.019-.078.098-.097.271-.082.722-.541 1.592-1.012 1.915-.326.223-.736.298-1.063.193zM6.208 21.1c-.243-.149-.254-.192-.12-.449.138-.264.234-.294.385-.118.118.137.12.223.013.434-.108.212-.13.223-.278.133zm-2.998-.9c-.18-.192-.192-.465-.069-1.505.065-.55.197-1.114.282-1.2.048-.05.018.42-.072 1.157-.069.555-.033.854.11.93.127.07.273.013.336-.13.03-.069.07-.126.088-.126.044 0 .04.196-.006.285-.021.04-.063.156-.093.257-.064.217-.257.427-.392.427-.052 0-.134-.043-.183-.095zm1.549.042c0-.029.118-.128.263-.22.144-.094.333-.24.42-.327.172-.171.219-.351.08-.307-.113.036-.288-.043-.32-.144-.033-.1.145-.52.282-.665.125-.133.22-.119.356.051l.117.147.18-.176c.099-.097.18-.206.18-.242 0-.074-.304-.212-.468-.212a.287.287 0 0 0-.185.084c-.088.098-.147.109-.147.028 0-.09.316-.407.408-.407.046 0 .177.029.29.063.246.075.413.08.53.018.046-.025.094-.036.106-.024.058.059-.058.313-.213.468-.49.488-.743.798-.821 1.007-.125.334-.26.573-.36.639-.072.047-.64.272-.688.272-.006 0-.01-.024-.01-.053zm2.45.007c.01-.032.166-.161.346-.285.307-.213.488-.415.488-.547 0-.04-.031-.05-.106-.03-.168.041-.273-.04-.273-.211 0-.253.267-.692.421-.692.039 0 .111.044.161.098.233.247-.009 1.208-.364 1.452a1.53 1.53 0 0 1-.323.144 6.268 6.268 0 0 0-.29.099c-.058.023-.074.016-.06-.028zm4.377.01c.009-.026.186-.175.395-.332.398-.3.483-.42.773-1.1.07-.162.11-.213.142-.18.094.093-.325 1.206-.52 1.38-.16.144-.826.34-.79.232zm1.12-.024c.018-.034.193-.172.389-.308.311-.216.375-.282.515-.539.088-.161.196-.387.24-.502.082-.218.173-.3.173-.156 0 .097-.247.842-.354 1.067-.106.223-.224.312-.545.41-.347.106-.467.114-.419.028zm1.36.024c0-.02.16-.143.358-.274.33-.22.525-.43.525-.564 0-.036-.034-.045-.1-.028-.124.03-.264-.038-.298-.145-.053-.167.287-.764.435-.764.042 0 .116.044.167.098.166.177.114.705-.112 1.124-.154.285-.201.324-.56.462-.347.134-.416.15-.416.092zm2.505-.009c-.229-.057-.433-.204-.483-.348-.04-.112 0-.586.065-.796.037-.118.102-.086.102.05 0 .08.039.161.107.225.187.173.47.218 1.325.213.653-.004.84-.02 1.158-.1.468-.115.849-.296.997-.474.062-.074.124-.123.14-.108.037.037-.216.582-.325.698-.21.223-.756.457-1.36.581-.398.083-1.486.12-1.726.06zm3.02-.008c.01-.029.138-.131.284-.228.42-.277.549-.422.74-.835.096-.208.187-.412.201-.453.015-.04.048-.073.075-.073.131 0-.247 1.118-.461 1.363-.079.09-.185.136-.503.22-.275.073-.357.074-.335.006zm1.97 0c0-.029.088-.108.195-.175.481-.304.605-.435.799-.848.102-.217.185-.422.185-.456 0-.082.08-.13.13-.08.042.04-.149.68-.305 1.022-.152.336-.253.412-.7.53-.274.073-.304.074-.304.007zm1.263.012c0-.022.14-.135.312-.25.312-.212.586-.492.558-.572-.008-.023-.072-.038-.142-.032a.24.24 0 0 1-.2-.072c-.096-.107-.064-.286.105-.58.163-.284.303-.332.454-.156.094.11.101.144.078.396-.029.312-.081.474-.257.793-.127.23-.177.266-.613.428-.262.098-.295.103-.295.045zm-1.565-.19c-.011-.012.004-.14.034-.285.03-.145.056-.499.056-.786.001-.288.023-.591.05-.674.09-.273.178-.466.212-.466.041 0 .04.164-.005 1.01-.03.565-.05.692-.15.937-.107.266-.145.316-.197.264zm-20.08-.38-.144-.148.135-.273c.074-.15.16-.273.19-.273.1 0 .287.235.291.364.005.183-.168.478-.28.478-.027 0-.114-.067-.192-.148zm3.182.026c-.016-.026-.013-.07.005-.1.019-.028.045-.377.058-.773.023-.663.035-.748.147-1.043.202-.527.213-.472.145.697-.03.54-.06.754-.128.927-.1.256-.183.363-.227.292zm13.073-1.31-.147-.122.126-.239c.07-.13.151-.248.182-.26.03-.012.107.028.17.09.064.06.127.11.141.11.014 0 .064-.066.112-.147.105-.178.186-.186.323-.032.119.133.11.247-.036.463-.105.155-.215.176-.281.053-.066-.122-.177-.101-.274.051a.45.45 0 0 1-.126.145c-.024.007-.109-.044-.19-.111zm-6.453-.931c-.144-.108-.145-.133-.002-.406.124-.239.205-.273.328-.137.108.12.17.105.274-.063.108-.175.163-.183.294-.042.125.132.127.307.004.478-.11.155-.181.165-.333.045l-.112-.087-.095.119a.532.532 0 0 0-.095.15c0 .06-.149.029-.264-.057zm1.826-.03c-.117-.099-.136-.137-.11-.221.049-.152.225-.418.278-.418.07 0 .29.252.29.33-.002.106-.184.405-.254.416-.034.006-.126-.042-.204-.108zm9.986.01c-.076-.06-.137-.13-.138-.157 0-.09.228-.492.281-.492.029 0 .104.045.168.1.144.124.151.34.016.53-.11.155-.151.158-.327.019zm-18.887-.126c-.087-.057-.158-.121-.158-.143 0-.082.249-.486.306-.498.034-.007.12.056.193.138.13.15.132.153.068.306-.065.155-.179.308-.226.303a1.136 1.136 0 0 1-.183-.106zm7.348-.646-.135-.124.073-.164c.136-.304.193-.365.29-.313.048.026.12.097.16.158.062.095.064.129.018.243-.07.173-.174.32-.228.322-.024 0-.104-.055-.178-.122zm-3.16-1.149c-.077-.076-.061-.168.052-.307.098-.122.104-.124.162-.046.068.09.199.066.199-.037 0-.093.157-.08.209.017.061.115.053.177-.039.296-.08.104-.08.104-.172.021-.093-.083-.093-.083-.156.012-.07.104-.177.123-.255.044zm6.262-.122c-.112-.12-.122-.157-.122-.44 0-.325.01-.36.237-.853.078-.17.142-.325.142-.347 0-.022.019-.04.042-.04.023 0 .042.005.041.01-.002.03-.123.33-.207.516-.122.266-.14.659-.037.762.09.092.445.125.64.061.166-.055.447-.351.447-.472 0-.047-.056-.1-.147-.138-.136-.057-.148-.075-.147-.242 0-.208.14-.474.391-.75.16-.174.43-.379.498-.379.051 0 .046.158-.006.19-.023.014-.042.062-.042.107 0 .062-.029.082-.12.082-.08 0-.184.056-.31.167-.24.21-.273.317-.13.41.058.038.12.107.136.153.042.113-.024.47-.13.7-.204.444-.45.633-.82.633-.208 0-.248-.014-.356-.13zm-8.897.002c-.23-.182-.298-.528-.173-.887.096-.274.192-.468.22-.44.014.013.004.067-.02.119-.249.53-.092.874.4.874a.833.833 0 0 0 .852-.859c0-.26.08-.657.133-.657.02 0 .035.15.035.333 0 .589-.268 1.174-.666 1.454-.244.172-.606.2-.781.063zm4.364.045c-.173-.04-.24-.095-.323-.272-.123-.26-.07-.646.164-1.181.03-.07.067-.162.081-.206.015-.044.039-.068.054-.053.026.026-.059.344-.115.427-.066.1-.131.444-.106.56.053.24.241.328.607.283.203-.026.26-.054.395-.196.194-.203.203-.326.032-.423-.096-.055-.126-.103-.126-.197 0-.167.155-.447.342-.616.113-.102.148-.164.135-.238-.02-.112.125-.373.207-.373.092 0 .242.127.242.204 0 .113-.118.253-.287.341-.177.092-.429.314-.429.377 0 .024.048.09.107.15.095.095.104.13.082.328-.054.499-.447 1.023-.82 1.096a.716.716 0 0 1-.242-.011zm9.239-.54c-.087-.097-.088-.173-.004-.293.085-.122.169-.119.253.01.064.098.063.112-.023.232-.106.149-.132.154-.226.05zM7.496 14.74c0-.02.07-.08.158-.133.247-.147.34-.248.46-.493a1.02 1.02 0 0 1 .34-.395c.125-.093.237-.16.249-.147.054.054-.136.33-.286.415-.124.07-.196.157-.295.362-.085.173-.179.298-.263.35-.137.083-.363.109-.363.041zm4.239-.038c-.039-.042-.07-.098-.07-.124 0-.076.083-.105.148-.051.047.04.09.031.204-.039.182-.113.225-.229.256-.699.03-.43.08-.683.148-.752.035-.035.045.062.037.368-.01.366-.001.422.07.473.11.081.228.073.39-.026a.65.65 0 0 1 .178-.084c.021 0 .086-.047.144-.105.106-.106.236-.14.236-.063 0 .074-.344.379-.428.379-.045 0-.157.078-.25.172-.15.153-.186.17-.309.147-.125-.023-.145-.013-.19.094-.077.188-.28.387-.394.387a.265.265 0 0 1-.17-.077zm4.267.063c0-.014.113-.101.25-.195.217-.147.273-.215.411-.494.176-.356.239-.327.119.055-.09.284-.224.485-.372.556-.13.063-.408.116-.408.078zm.885-.008c0-.012.103-.088.23-.169.313-.2.409-.399.192-.399-.099 0-.124-.072-.08-.226.05-.178.155-.321.235-.321.038 0 .112.04.164.088l.094.088.156-.172c.165-.184.224-.204.356-.121.093.058.11.042.359-.332.158-.239.286-.354.483-.436.072-.03.123-.074.115-.1-.022-.067-.277-.084-.35-.023-.034.028-.075.037-.092.02-.043-.043.24-.286.305-.261.03.011.143.034.252.05.26.04.291.124.106.28-.079.065-.164.118-.19.118-.095 0-.398.173-.398.228 0 .031.028.08.063.11.083.068.08.227-.004.297a.342.342 0 0 1-.202.047c-.165-.011-.333.146-.418.391-.074.214-.134.231-.134.038 0-.1-.026-.17-.073-.2-.06-.038-.103-.017-.242.122a.933.933 0 0 0-.21.315c-.075.261-.202.42-.406.507-.187.08-.312.105-.312.061zm-9.676-.642c.02-.476.091-.81.18-.839.059-.02.008.929-.063 1.155-.099.316-.139.207-.117-.316zm1.693.021c.036-.663.081-.873.189-.873.051 0 .002.816-.066 1.084-.104.409-.152.326-.123-.21zm4.857 0c.017-.473.086-.836.163-.861.067-.023.019.95-.057 1.156-.036.099-.079.18-.095.18s-.021-.214-.011-.475zm-7.774.25c-.088-.094-.09-.104-.024-.235.089-.178.18-.21.272-.095.081.1.067.235-.036.354-.083.096-.102.093-.212-.024zm5.804-.087c0-.334.098-.982.169-1.116.094-.18.093-.194.044.397-.038.457-.118.82-.181.82-.018 0-.032-.046-.032-.101zm.196-2.212-.284-.292-.535-.02c-.562-.02-.819-.059-1.167-.176-.394-.133-.36-.204.12-.248.436-.04.888-.163.904-.246.008-.04-.06-.117-.172-.194-.505-.348-1.205-1.337-1.45-2.049-.2-.588-.342-1.532-.266-1.79.024-.08.044-.222.046-.315.004-.234.094-.64.156-.703a.209.209 0 0 0 .052-.128c0-.112.32-.73.529-1.022.241-.337.65-.739.65-.64a.713.713 0 0 1-.08.23c-.25.493-.385 1.192-.386 2.01-.002.857.101 1.359.428 2.079.278.614 1.067 1.641 1.177 1.534.041-.04.044-.688.01-3.095-.023-1.675-.033-3.068-.023-3.096.01-.027.109-.108.22-.179.11-.07.234-.166.276-.213.041-.046.11-.083.15-.083.087 0 .661.335.685.4.016.043-.071 4.029-.12 5.485-.024.718-.02.81.038.81.089 0 .606-.492.83-.79.099-.133.201-.26.227-.283.145-.132.52-1.093.658-1.685.075-.328.077-1.42.002-1.81-.063-.328-.328-1.157-.389-1.22a.156.156 0 0 1-.04-.095c0-.117.128-.043.357.209.583.64.916 1.488.987 2.513.116 1.692-.46 3.143-1.53 3.855-.198.133-.36.258-.36.28 0 .022.084.076.188.12.174.075.347.116.864.203.297.05.268.144-.072.238-.355.097-1.048.18-1.214.144a2.06 2.06 0 0 0-.303-.031c-.167-.005-.2.015-.484.289-.168.162-.326.294-.35.295-.025 0-.173-.13-.329-.291zm3.889-1.56c0-.02.02-.05.043-.065.07-.044.318-.57.396-.842l.122-.421c.07-.239.067-1.949-.005-2.253-.2-.849-.417-1.398-.756-1.916a5.145 5.145 0 0 0-.937-.998c-.081-.06-.138-.119-.127-.13.037-.036.63.136.918.267.81.367 1.478 1.176 1.793 2.17.157.494.21.933.177 1.482-.064 1.088-.498 1.95-1.292 2.56-.238.184-.332.225-.332.147zm-7.175-.083c-.198-.13-.573-.513-.764-.782-.465-.652-.662-1.292-.668-2.169-.004-.494.01-.625.111-1.007.133-.502.254-.784.515-1.205.322-.516.95-1.04 1.49-1.243.218-.082.773-.208.915-.208.105 0 .064.062-.097.148-.382.203-1.029.971-1.272 1.508-.314.695-.442 1.104-.553 1.755-.175 1.035-.059 2.009.339 2.842.097.204.16.384.14.404-.02.02-.09 0-.156-.043zm3.006-7.075c-.249-.075-.388-.18-.466-.353-.087-.193-.104-.323-.041-.323.022 0 .11.047.195.105.227.154.513.146.76-.021a.933.933 0 0 1 .23-.126c.024 0 .113.055.198.122.217.17.383.197.611.096a.714.714 0 0 0 .215-.13c.06-.095.15-.048.15.077 0 .168-.182.373-.44.493-.249.116-.334.121-.584.036-.165-.056-.206-.056-.365 0-.194.069-.3.074-.463.024z"/></svg>