<svg role="img" viewBox="0 0 24 24" xmlns="http://www.w3.org/2000/svg"><path d="M4.685 23.973a.625.625 0 0 1-.374-.336c-.063-.163-.036-.36.103-.774.066-.194.108-.356.096-.368a3.15 3.15 0 0 0-.361-.126c-.425-.132-.643-.245-.826-.428-.354-.354-.497-.86-.474-1.678.016-.549.076-.809.282-1.223.16-.32.314-.532.725-.995.246-.276.419-.518.419-.587 0-.031-.078-.006-.301.1-.318.15-.463.179-.635.128-.297-.087-.424-.348-.335-.691.211-.826 1.235-1.497 2.493-1.634.527-.058.963.061 1.396.38.407.3.554.61.446.94-.045.14-.217.395-.403.6l-.218.242-.059.065.102.13c.057.071.357.352.667.623.4.35.565.51.565.546-.001.134-.121.31-.341.503-.214.187-.383.38-.356.407.02.02.212-.084.37-.2.202-.148.41-.326.908-.776.512-.463.68-.595.888-.698.34-.167.63-.186.96-.062.213.08.388.188.736.452l.282.215.134-.101c.074-.056.238-.193.365-.304.391-.345.524-.406.765-.352.274.061.7.417 1.224 1.023.241.279.319.346.513.444.665.337 2.3.408 3.802.166.57-.091.737-.148 1.473-.498.238-.113.494-.217.57-.233.513-.103.67.317.43 1.149-.084.293-.304.738-.46.928-.25.307-.588.443-2.415.971-.522.15-1.25.207-2.477.19-1.08-.016-1.154-.026-1.59-.228a5.939 5.939 0 0 0-.5-.204l-.208-.068-.087.066a4.05 4.05 0 0 0-.35.385c-.315.382-.4.447-.633.486-.243.042-.4-.007-.642-.2-.1-.08-.199-.165-.218-.188a.611.611 0 0 0-.12-.095c-.113-.07-.131-.061-.46.227a2.656 2.656 0 0 1-.424.31c-.144.07-.188.079-.447.089-.438.017-.585-.058-.79-.403a1.898 1.898 0 0 0-.23-.305l-.124-.123-.125.123c-.069.067-.246.256-.394.42-.494.549-.852.82-1.499 1.135-.771.375-1.42.529-1.838.435zm.996-.764c.378-.136.796-.373 1.253-.71l.364-.27c.058-.042.326-.33.596-.64l.492-.564.134.007c.178.01.357.09.461.205.047.052.15.219.23.372.08.153.18.318.225.367.077.084.084.087.187.064.222-.05.388-.165.834-.578.321-.296.403-.35.538-.35.13 0 .17.028.456.304.257.25.332.293.451.263.067-.017.266-.209.618-.596a1.57 1.57 0 0 1 .306-.273c.108-.058.116-.058.199-.02.047.023.15.094.227.157.452.368.76.458 1.788.52.49.029 1.42.015 1.871-.028.153-.015.375-.064.616-.135.207-.062.5-.137.653-.168.947-.188 1.496-.496 1.707-.957.063-.136.126-.395.103-.418-.029-.028-.368.064-.955.259-.68.225-1.038.315-1.505.376-.86.112-2.361.047-2.808-.12a7.826 7.826 0 0 1-.539-.253 3.743 3.743 0 0 0-.462-.208c-.083-.017-.093-.008-.488.399-.243.25-.446.436-.51.468-.096.049-.112.05-.207.016-.138-.048-.273-.144-.568-.402a4.22 4.22 0 0 0-.287-.238c-.03-.017-.16.084-.546.426l-.507.448-.108-.013a.963.963 0 0 1-.457-.21 2.788 2.788 0 0 1-.256-.29c-.192-.245-.295-.34-.464-.425l-.126-.064-.106.074c-.156.108-.35.283-.897.808-.6.577-.699.661-1.023.879-.443.297-.776.428-1.339.525-.47.081-.465.079-.563.274-.174.345-.25.761-.146.792.095.029.379-.009.558-.073zm-.389-1.344c.725-.082 1.518-.365 1.873-.668.076-.063.441-.394.813-.734.798-.73.916-.828 1.095-.905a.532.532 0 0 1 .483.022c.142.07.434.33.487.433.058.112.227.286.311.321.146.06.229.018.546-.279.356-.332.493-.409.733-.41.21 0 .301.046.593.3.12.106.247.204.28.22.069.03.06.038.604-.494l.306-.3-.048-.09c-.068-.13-.188-.26-.388-.417-.155-.122-.189-.138-.29-.138-.267 0-.511.159-.794.515l-.173.218-.163-.009c-.224-.013-.346-.079-.636-.345-.262-.241-.424-.336-.65-.381-.292-.059-.575.088-1.332.69-.745.591-1.122.845-1.59 1.07a3.375 3.375 0 0 1-1.432.37c-.709.029-1.412-.146-1.696-.423-.122-.118-.175-.282-.194-.59a1.629 1.629 0 0 1 .333-1.077c.137-.178.486-.567.59-.657.048-.042.324-.232.613-.422.793-.522 1.094-.846 1.095-1.177a.51.51 0 0 0-.037-.193c-.112-.217-.505-.353-1.013-.351-.858.003-1.576.371-1.652.847l-.017.107h.087c.048 0 .244-.03.436-.066.432-.081.599-.074.823.037a.957.957 0 0 1 .214.138c.054.057.055.068.026.167-.044.147-.207.318-.48.505-.27.184-.376.286-.686.658-.605.727-.855 1.289-.884 1.99-.02.493.083.836.339 1.12.32.357.772.479 1.475.399zm.46-1.646c.048-.02.08-.049.074-.067a1.017 1.017 0 0 0-.184-.165 3.469 3.469 0 0 1-.737-.767c-.044-.064-.091-.117-.105-.117-.042 0-.168.223-.199.352-.082.34.213.692.663.792a.869.869 0 0 0 .489-.028zm.74-.53a1.91 1.91 0 0 0 .403-.312c.216-.208.225-.221.21-.302-.05-.248-.331-.604-.602-.762-.104-.06-.13-.067-.184-.042-.118.053-.26.187-.402.375-.1.132-.17.199-.238.228-.123.051-.127.113-.022.323.108.215.502.576.636.583.012 0 .101-.04.199-.092zm10.495-1.746a.612.612 0 0 1-.155-.073c-.072-.052-.234-.296-.212-.318a.669.669 0 0 1 .189.015c.454.075.63-.001.742-.322.042-.119.05-.097-.145-.404-.045-.07-.045-.075.005-.186.054-.124.082-.134.214-.08a.188.188 0 0 1 .111.115c.027.078.03.08.173.072l.145-.008.126-.24a4.12 4.12 0 0 1 .17-.302c.055-.076.22-.202.245-.186.01.006.044.065.075.13.049.105.054.147.042.321-.008.11-.022.227-.031.258l-.017.056h.328c.367 0 .378-.005.432-.205a.493.493 0 0 1 .106-.175l.082-.084.013.193a.895.895 0 0 0 .03.21c.008.008.145.021.303.03l.288.013.031-.097c.035-.11.141-.287.173-.287s.079.12.079.201c0 .14.044.194.172.209.064.007.127.003.14-.009a.473.473 0 0 0 .035-.174c.009-.128.022-.162.088-.227l.078-.076.045.088a.747.747 0 0 1 .06.2c.018.125-.008.465-.039.514-.036.06-.298.062-.551.004-.23-.051-.24-.052-.365-.009-.103.036-.187.042-.43.034-.527-.019-.725-.013-.846.021-.117.034-.118.036-.146.176-.04.205-.097.371-.149.435-.042.051-.053.053-.148.025-.157-.047-.254-.146-.35-.356a1.443 1.443 0 0 0-.125-.233c-.094-.104-.196-.016-.283.245a.808.808 0 0 1-.31.438c-.122.083-.245.097-.418.048zm1.623-.553c-.034-.17-.13-.246-.307-.246h-.086l.062.123c.075.148.146.203.261.203.083 0 .085-.003.07-.08zm-.081-.778a.42.42 0 0 0 .007-.157c-.014-.035-.026-.036-.096-.008a.317.317 0 0 0-.183.227l-.016.07.133-.008.133-.008zm-4.743 1.284c-.124-.037-.317-.253-.317-.356 0-.024.068-.032.285-.032.274 0 .288-.003.378-.072a.98.98 0 0 0 .166-.17c.064-.089.069-.108.046-.192a1.207 1.207 0 0 0-.098-.222c-.088-.155-.09-.187-.018-.314.062-.112.078-.116.188-.049.163.1.218.352.149.68-.111.525-.437.83-.78.727zm-2.088-.438c-.205-.22-.285-.602-.181-.87.041-.106.154-.246.18-.221a.563.563 0 0 1-.025.161c-.11.47.025.683.453.71a.9.9 0 0 0 .318-.028c.145-.042.3-.133.317-.186.007-.02-.076-.071-.219-.136l-.229-.105.016-.115c.034-.253.195-.47.484-.656.125-.081.338-.12.394-.074.022.018.037.074.037.138v.108l-.119.026a3.86 3.86 0 0 1-.222.042.57.57 0 0 0-.18.063c-.086.051-.174.195-.14.225.011.01.13.056.263.1.327.112.31.096.273.251-.095.397-.479.646-1.038.673l-.272.013zm4.001-.328c-.131-.042-.132-.043-.158-.319l-.015-.17.133.091c.133.09.136.09.321.074.103-.01.196-.023.207-.03.042-.025.019-.168-.058-.362-.07-.175-.075-.207-.048-.273a.395.395 0 0 1 .081-.12c.05-.044.052-.043.111.03.15.185.223.608.155.892-.033.137-.033.138-.158.17-.21.052-.44.06-.57.017zm-.679-.331c-.055-.205-.107-1.101-.069-1.2.033-.087.147-.214.191-.214.065 0 .099.256.097.729 0 .427-.006.478-.062.639-.034.096-.075.178-.09.183-.015.005-.045-.056-.067-.137zm5.37-.782a.645.645 0 0 1-.119-.096c-.042-.048-.04-.052.035-.107.071-.053.086-.055.174-.027.088.03.198.025.34-.015.042-.011.066.005.107.072a.48.48 0 0 1 .054.104c0 .01-.048.039-.107.066-.142.064-.381.066-.483.003zm.005-.419-.039-.113.077-.04c.077-.04.079-.039.165.048l.087.087-.096.066a.424.424 0 0 1-.126.066c-.017 0-.047-.051-.068-.114zm-8.698-.57a9.813 9.813 0 0 1-.664-.61c-.297-.29-.7-.671-.894-.846a6.187 6.187 0 0 1-.45-.44c-.175-.215-.933-.963-1.088-1.071-.083-.058-.76-.694-1.504-1.413a467.134 467.134 0 0 0-1.83-1.761c-.746-.71-1.243-1.228-1.243-1.292 0-.072.12-.261.243-.38.053-.05.21-.186.35-.3.27-.223 5.005-4.72 6.039-5.735C11.42.43 11.864.054 12.05 0c.04-.011.294.22 1.281 1.17a93.67 93.67 0 0 0 1.508 1.428c.152.134.299.27.326.301.028.031.203.193.39.36.186.166.599.558.917.87.317.313.984.952 1.482 1.421l1.331 1.257c.235.222.465.46.512.528.072.107.082.14.073.24-.018.182-.136.316-.819.933-.34.307-.772.706-.959.885-.187.18-1.385 1.316-2.663 2.525a421.545 421.545 0 0 0-2.789 2.653c-.255.25-.5.474-.545.497-.129.065-.258.052-.398-.04zm.438-1.116c.757-.606 3.54-3.232 5.806-5.479l.892-.884-.113-.111a1331.595 1331.595 0 0 0-5.531-5.355c-.786-.757-.903-.857-1.063-.908-.154-.048-.268-.025-.454.095-.068.043-.475.432-.903.864-.73.736-1.346 1.32-3.027 2.874C6.115 6.51 5.269 7.34 5.164 7.536l-.048.09.842.833c1.676 1.659 4.932 4.765 5.688 5.426.122.106.235.194.251.194.016 0 .123-.076.238-.167zm.191-1.316c-.442-.01-.942-.02-1.111-.021l-.308-.003v-1.579l-.069-.013a24.653 24.653 0 0 0-.945-.044c-.574-.02-.878-.04-.884-.058-.005-.015-.02-.393-.035-.841-.014-.448-.03-.82-.037-.825a18.455 18.455 0 0 0-.86-.045 128.81 128.81 0 0 1-.853-.035c0-.001-.018-.191-.037-.423-.05-.609-.045-1.431.012-1.777.185-1.134.759-1.755 1.897-2.058l.212-.056.152-.3c.192-.377.347-.596.604-.853a2.748 2.748 0 0 1 1.253-.719c.284-.074.846-.092 1.164-.037.447.078.997.312 1.36.58.21.153.358.349.527.692.215.437.378.586.752.69.263.074.814.43 1.146.742.193.18.336.377.446.611.258.552.239 1.29-.05 1.895a2.03 2.03 0 0 1-.427.618c-.217.226-.36.329-.666.481-.186.092-.268.149-.312.214-.059.086-.06.093-.039.452.028.48.024.817-.012.945l-.028.104-.534.016-.93.03-.395.016-.003.305c-.002.167-.01.53-.019.807l-.015.502-.076.002a72.06 72.06 0 0 1-.879-.015zm.33-.56c.012-.011.036-.4.054-.865.018-.465.036-.849.04-.853.004-.004.384-.021.843-.038.788-.028.836-.033.861-.08.034-.062.036-.535.003-.616-.022-.056-.067-.07-.51-.17a40.18 40.18 0 0 1-1.16-.284c-.97-.254-1.15-.274-1.274-.141-.104.11-.117.311-.068.997.025.337.054.896.066 1.241.012.346.03.654.039.685.016.054.076.08.325.14.081.02.76.006.782-.016zm-1.803-1.786c.047-.03-.048-.233-.253-.543-.25-.378-.306-.537-.305-.866 0-.194.014-.29.057-.415.12-.35.402-.717.756-.985.224-.17.622-.362.882-.426l.216-.052.103-.31c.24-.723.57-1.208.958-1.404a2.15 2.15 0 0 1 .325-.114.953.953 0 0 0 .276-.114c.06-.053.066-.073.066-.242-.001-.398-.262-.724-.778-.975a2.418 2.418 0 0 0-2.142.013c-.27.133-.568.363-.696.537-.133.182-.165.296-.165.597 0 .144-.012.313-.028.374-.027.106-.034.114-.157.149-.07.02-.276.054-.455.075-.18.021-.381.051-.447.066-.142.033-.425.212-.627.398-.163.148-.43.53-.473.675-.03.1-.026 1.87.004 1.9.008.008.385.025.838.038.452.012.826.026.83.03.004.006.016.342.026.75.01.408.028.76.04.782.039.076.195.096.666.087.25-.005.468-.016.483-.025zm3.124-1.534c.106-.073.213-.272.236-.441.014-.106.008-.123-.09-.246a1.703 1.703 0 0 0-.26-.25c-.197-.149-.456-.415-.536-.551a.825.825 0 0 1-.083-.252 1.169 1.169 0 0 0-.064-.246l-.043-.1-.06.127a.991.991 0 0 0-.075.352c-.025.328-.02.322-.265.374-.305.065-.776.203-.917.269-.115.054-.611.503-.611.553 0 .03.215.002.456-.057.254-.063.484-.062.681.004.086.028.334.136.55.24.508.24.625.281.825.284.135 0 .18-.01.256-.06zm1.393-.21c.501-.156.868-.69.907-1.316a1.377 1.377 0 0 0-.365-1.054c-.184-.2-.571-.521-.713-.592-.248-.124-.636-.173-.865-.11-.352.096-.562.539-.49 1.027.045.303.084.362.457.709.38.353.58.566.642.685.028.055.045.163.052.332.014.364.014.365.13.365.055 0 .165-.02.245-.046z"/></svg>