<svg role="img" viewBox="0 0 24 24" xmlns="http://www.w3.org/2000/svg"><path d="M11.351 8.047c-.838.02-1.678.068-2.518.14-2.112.288-4.224.672-6.24 1.44a7.845 7.845 0 0 0-1.92 1.152C.29 11.067 0 11.452 0 11.932c0 .576.288.958.576 1.342.768.576 1.633.96 2.497 1.345 1.536.48 3.071.863 4.607 1.055.864.192 1.824.193 2.784.289h2.305c.768-.096 1.536-.095 2.304-.191 1.728-.192 3.36-.48 4.991-.96.96-.288 1.825-.577 2.69-1.153.575-.384 1.054-.864 1.246-1.44v-.48c-.192-.576-.67-1.056-1.247-1.44-1.248-.768-2.593-1.152-3.937-1.536-2.448-.576-4.95-.775-7.465-.716zm1.29.817c.518.014 1.04.042 1.568.09 1.248.192 2.496.385 3.744.673.096 0 .287 0 .383.096-.288.096-.575.192-.767.384-.288.288-.384.577-.576.865-.192.288-.288.575-.384.767l-.289.575c-.096-.576-.095-1.247-.191-1.727-.096-.288-.193-.48-.385-.673-.288-.192-.672-.19-.864.098-.288.288-.384.767-.48 1.151a4.086 4.086 0 0 1-1.344 2.209c-.192.096-.288.19-.48.287.288.096.576.096.864 0 .384-.096.577-.384.769-.672.288-.48.575-.96.767-1.535.096 0 .097-.098.097-.098 0 .48.095 1.058.191 1.538.096.288.096.479.192.767a.823.823 0 0 0 .673 0c.192-.096.288-.288.384-.48l.287-.576c.192-.384.384-.865.576-1.249.096.48.097 1.058.193 1.538 0 .288.287.67.575.767.384.096.768-.097 1.056-.385a2.286 2.286 0 0 1-.576-1.055c-.096-.864-.19-1.632-.19-2.496.095 0 .286 0 .382.096.768.288 1.536.577 2.208 1.153.384.288.576.671.576 1.055 0 .288-.192.575-.384.767-.384.48-.96.77-1.536 1.058-1.248.576-2.592.863-3.936 1.055-2.304.384-4.607.384-6.91.096-1.44-.192-2.881-.48-4.225-.96l-.576-.289c.48 0 .863-.192 1.151-.48.48-.384.864-.862 1.152-1.342 0-.192.097-.289.193-.385 0 .48-.096.96-.096 1.44 0 .192 0 .48.191.672.192.192.48.191.672.095.288-.096.385-.383.577-.575.288-.384.672-.865.96-1.345.096-.096.095-.19.191-.287 0 .288-.095.577-.095.865 0 .288-.096.672 0 .96.096.192.287.48.575.48.384 0 .673-.194.865-.578-.192-.288-.385-.576-.385-.96 0-.864.193-1.727.29-2.591-.48.096-.962.192-1.25.576-.384.48-.767 1.057-1.15 1.633 0 .192-.098.286-.194.382 0-.576.096-1.15.096-1.727 0-.192-.095-.48-.287-.575-.288-.096-.673-.001-.865.191-.288.288-.383.576-.575.96-.096.192-.193.48-.289.671-.192.192-.288.481-.48.673-.288.384-.672.768-1.056.96-.192.096-.288.288-.48.192-.48-.288-.96-.576-1.248-1.056-.288-.384-.192-.767 0-1.151.288-.384.768-.672 1.248-.96 1.344-.768 2.784-1.057 4.32-1.345a27.162 27.162 0 0 1 4.577-.283zm-.257 1.05c-.192 0-.383.098-.575.098-.192 0-.385.095-.385.191-.096.096-.19.095-.19.191-.193.864-.386 1.825-.29 2.785 0 .192 0 .384.192.48.288.192.576.096.768 0 .288-.096.577-.384.77-.672.48-.672.862-1.536 1.246-2.4.096-.192.193-.48.289-.673-.288.096-.577.193-.769.385-.288.192-.288.48-.48.768-.288.576-.576 1.151-.96 1.727 0-.96.192-1.92.384-2.88z"/></svg>