<svg role="img" viewBox="0 0 24 24" xmlns="http://www.w3.org/2000/svg"><path d="M11.94 0v.002a.86.86 0 0 1-.038.088 1.184 1.184 0 0 1-.254.332 2.35 2.35 0 0 1-.263.203 3.634 3.634 0 0 1-.31.18 7.182 7.182 0 0 1-.589.257 14.233 14.233 0 0 1-.359.13l-.072.025-.045.015a9.183 9.183 0 0 0-.47.178 6.8 6.8 0 0 0-.528.24 6.261 6.261 0 0 0-.766.47 8.46 8.46 0 0 0-.316.24 1.826 1.826 0 0 0-.063.05 3.297 3.297 0 0 0-.252.248 6.623 6.623 0 0 0-.267.319 16.085 16.085 0 0 0-.426.584l-.318.46-.065.096a13.168 13.168 0 0 1-.367.518 7.575 7.575 0 0 1-.16.205 3.847 3.847 0 0 1-.268.297 1.383 1.383 0 0 1-.193.15.455.455 0 0 1-.108.05 3.042 3.042 0 0 0 .3.218 5.332 5.332 0 0 0 .273.158l.224.119.035.02a5.952 5.952 0 0 1 .149.082 2.747 2.747 0 0 1 .21.136.846.846 0 0 1 .085.075.458.458 0 0 1 .039.043l.008.01.01.009a3.77 3.77 0 0 0 .216.22 3.986 3.986 0 0 0 .315.266 2.453 2.453 0 0 0 .17.12h.002l.005-.008a8.016 8.016 0 0 1 .17-.264 6.995 6.995 0 0 1 .598-.771 6.022 6.022 0 0 1 1.256-1.084 4.712 4.712 0 0 1 .992-.487 4.326 4.326 0 0 1 1.13-.242 4.82 4.82 0 0 1 .315-.012h.082a4.321 4.321 0 0 1 .786.082 4.709 4.709 0 0 1 1.07.362 5.184 5.184 0 0 1 .53.293 5.993 5.993 0 0 1 1.116.927 6.906 6.906 0 0 1 .297.334 8.05 8.05 0 0 1 .625.871l.008-.002a2.078 2.078 0 0 0 .38-.166 2.146 2.146 0 0 0 .434-.316.878.878 0 0 0 .084-.09l.012-.015.006-.004a.46.46 0 0 1 .094-.08.797.797 0 0 1 .117-.06c.024-.012.048-.02.072-.03a4.995 4.995 0 0 1 .278-.084l.14-.04a5.48 5.48 0 0 0 .283-.081 1.735 1.735 0 0 0 .34-.145 1.038 1.038 0 0 0 .172-.111l.002-.002-.016-.006a1.962 1.962 0 0 1-.398-.23 2.772 2.772 0 0 1-.461-.454 5.347 5.347 0 0 1-.23-.31 11.293 11.293 0 0 1-.266-.416l-.2-.334-.042-.072a14.09 14.09 0 0 0-.205-.332 4.705 4.705 0 0 0-.354-.497 2.076 2.076 0 0 0-.336-.34 7.71 7.71 0 0 0-.228-.17 10.314 10.314 0 0 0-.854-.54 9.493 9.493 0 0 0-.822-.414 7.115 7.115 0 0 0-.662-.262l-.053-.018-.031-.01-.127-.044a5.492 5.492 0 0 1-.621-.262 3.519 3.519 0 0 1-.383-.217 2.346 2.346 0 0 1-.275-.201 1.438 1.438 0 0 1-.243-.25 1.045 1.045 0 0 1-.123-.205L11.941 0h-.002zm-.055.65c0 .046.023.116.049.116.042 0 .077-.052.09-.08.012.028.03.063.058.062.048-.001.074-.096.074-.086.006.075-.026.195-.088.188-.032-.005-.038-.04-.05-.06-.016.02-.027.068-.1.071-.068.004-.09-.142-.033-.21zm.092.358c.002-.01.014-.02.02.002h.001s-.06.518.139.51c.082-.004.076-.124.076-.124.153.082.104.35-.03.465-.05.045-.111.02-.183-.006 0 0-.094.207-.074.27.033.106.174.072.217.17.075.172.038.465-.028.656-.077.224-.277.574-.672.582-.104.002-.455-.075-.414-.65.038-.56.229-.826.229-.826s.002.073-.031.166c-.05.146-.136.36-.13.54.009.177.085.337.253.382.2.052.61-.052.74-.356.079-.188.03-.212-.084-.246-.064-.019-.147-.024-.18-.117-.02-.06.006-.168.02-.24.02-.104.102-.242.091-.413-.013-.235.003-.632.04-.765zm-1.62.515s.046.226.073.329c.038.142.107.344.14.5a1.76 1.76 0 0 1-.002.472c-.012-.085-.023-.184-.035-.234-.037-.151-.146-.474-.176-.658-.019-.114-.007-.294 0-.409zm-1.285.758s.069.203.106.293c.05.127.14.306.187.446.055.162.046.438.045.433-.02-.077-.041-.168-.058-.213-.051-.135-.19-.419-.239-.584-.03-.103-.036-.268-.04-.375zm6.252.028s.132.1.102.205c-.046.162-.319.17-.319.17.002-.054-.027-.119-.074-.186.111-.093.244-.126.291-.19zM10.07 2.4c.01 0 .044.091.051.141a.589.589 0 0 1-.01.219c-.02.073-.1.144-.117.226-.023.117.022.328-.014.438-.03.089-.18.221-.277.265a.2.2 0 0 1 0-.085c.04-.087.173-.267.213-.41.039-.143-.019-.284.023-.434.028-.102.086-.126.114-.217.014-.046.007-.142.017-.143zm2.55.293c-.028.062-.045.12.003.196.125.197.763.5 1.281.638.3.08.565.103.752.03.208-.08.245-.173.356-.28.105-.1.233-.254.334-.277.204-.048 1.002.03 1.504.205l-.159.057s-.254-.071-.55-.12c-.378-.062-.812-.105-.83-.085-.063.067-.169.173-.2.214-.195.26-.45.56-.42.752.035.228.225.08.225.08-.07.138-.324.35-.46.276-.083-.082-.047-.26.062-.436.088-.14.218-.32.226-.363-.22.1-.395.246-.795.205a3.086 3.086 0 0 1-1.445-.555.25.25 0 0 1-.111-.193c-.002-.128.182-.312.226-.344zm-4.079.139c.061.105.284.39.408.707a1.655 1.655 0 0 1 .086.727c-.035.355-.446.698-.713.548-.41-.23-.446-.778-.482-.904-.013-.045-.013-.182.006-.139.019.046.053.329.117.452s.153.307.293.29c.093-.01.412 0 .644-.497.051-.11.036-.355-.011-.465-.056-.132-.227-.319-.285-.436-.04-.082-.046-.188-.063-.283zm2.012.45c.054-.037.21.015.236.083.027.068-.02.255-.078.3-.102.012-.193-.076-.254-.054-.023.06-.048.257-.092.287-.06-.027-.088-.062-.234-.064-.028-.072.01-.306.066-.352.057-.046.212.03.268.073.06-.036.04-.242.088-.274zm5.57.052s-.026.061-.066.123c-.177.272-.459.575-.432.768.03.217.213.052.213.052-.11.192-.247.344-.443.297-.163-.199.211-.649.552-1.094l.176-.146zm-7.84.215c.054-.005.12.002.166.045.148.134.026.377.026.377a.439.439 0 0 0-.229-.04c-.045-.15-.016-.287-.059-.363 0 0 .042-.015.096-.02zm3.672.5l-.1.002h-.003a4.189 4.189 0 0 0-.637.066 4.449 4.449 0 0 0-.723.197l-.055.02-.013.004a4.662 4.662 0 0 0-.445.2l-.03.015-.037.02a5.405 5.405 0 0 0-.77.5l-.042.034-.043.036a6.049 6.049 0 0 0-.575.53l-.013.016a6.671 6.671 0 0 0-.272.303l-.013.018a6.866 6.866 0 0 0-.186.232l-.008.014a7.379 7.379 0 0 0-.24.334l-.002.002a7.664 7.664 0 0 0-.266.422l-.005.007-.065.114-.02.031-.005.012a6.398 6.398 0 0 0-.131.244l-.024.045-.021.045a8.977 8.977 0 0 0-.135.275 9.909 9.909 0 0 0-.498 1.35l-.004.01a9.717 9.717 0 0 0-.058.212l-.01.036-.002.011a10.565 10.565 0 0 0-.143.62l-.01.054-.011.065a10.955 10.955 0 0 0-.12.804l-.005.063a11.332 11.332 0 0 0-.05.71v.04l-.003.06a6.264 6.264 0 0 0-.006.237 11.033 11.033 0 0 0 .147 1.939l.002.018a10.41 10.41 0 0 0 .28 1.234l.015.049.011.037a12.485 12.485 0 0 0 .075.232l.01.034.013.039.004.01a9.436 9.436 0 0 0 .32.82l.014.031.008.02.027.056.031.067a8.415 8.415 0 0 0 .424.79l.002.003a7.865 7.865 0 0 0 .26.4l.004.006a7.415 7.415 0 0 0 .1.14l.015.022.031.04a6.886 6.886 0 0 0 .43.524l.04.045a6.248 6.248 0 0 0 .226.23h6.64a6.442 6.442 0 0 0 .225-.232l.04-.043a6.786 6.786 0 0 0 .155-.177l.008-.008a7.353 7.353 0 0 0 .42-.551l.004-.006.029-.043.025-.037.01-.014.016-.025a8.52 8.52 0 0 0 .49-.842l.008-.013a9.113 9.113 0 0 0 .336-.75l.025-.067.024-.06.005-.014.022-.06a9.466 9.466 0 0 0 .09-.253 10.732 10.732 0 0 0 .408-1.646 11.487 11.487 0 0 0 .148-1.893 11.093 11.093 0 0 0-.27-2.38 9.79 9.79 0 0 0-.427-1.41l-.006-.018a8.524 8.524 0 0 0-.23-.541 8.423 8.423 0 0 0-.387-.74 7.484 7.484 0 0 0-.514-.766l-.064-.084a6.3 6.3 0 0 0-.668-.736l-.02-.018-.037-.035a5.647 5.647 0 0 0-.636-.508 5.247 5.247 0 0 0-.168-.11l-.03-.02a5.88 5.88 0 0 0-.189-.112l-.11-.06a4.394 4.394 0 0 0-1.035-.4 3.99 3.99 0 0 0-.255-.054l-.065-.012-.039-.005-.09-.014a4.593 4.593 0 0 0-.549-.04h-.029zm3.4.629s.134.1.104.205c-.046.162-.32.17-.32.17a.329.329 0 0 0-.073-.186c.11-.094.243-.126.29-.19zm3.688 1.36l-.02.001a.036.036 0 0 0-.005.002.036.036 0 0 0-.006.004l-.002.004a.682.682 0 0 0-.01.072l-.002.04-.002.019a.971.971 0 0 1-.01.09.407.407 0 0 1-.05.128.288.288 0 0 1-.038.045.207.207 0 0 1-.035.028.306.306 0 0 1-.068.027l-.06.016a1.153 1.153 0 0 0-.053.017.069.069 0 0 0-.01.006.29.29 0 0 1 .01.057c.002.029 0 .059.002.088v.01a.318.318 0 0 0 .01.064.074.074 0 0 0 .011.023.496.496 0 0 0 .111.065l.05.021.107.041.023.01a2.55 2.55 0 0 1 .113.049.84.84 0 0 1 .114.068.25.25 0 0 1 .076.096.225.225 0 0 1 .008.148.472.472 0 0 1-.026.075l-.04.09-.007.011a.939.939 0 0 0-.027.065.241.241 0 0 0-.016.097.158.158 0 0 0 .012.047l.002.004.002.004a.37.37 0 0 0 .035.018l.018.007.008.004a.59.59 0 0 1 .043.026.189.189 0 0 1 .048.045.242.242 0 0 1 .026.066.6.6 0 0 1 .017.105 1.88 1.88 0 0 1 .01.182 5.192 5.192 0 0 1-.004.357 9.896 9.896 0 0 1-.049.725l-.002.025a.28.28 0 0 1 .073-.087.197.197 0 0 1 .047-.028.186.186 0 0 1 .066-.011h.053l.017-.159a12.682 12.682 0 0 1 .016-.13l.01-.08.002-.003a.158.158 0 0 1 .03-.06.423.423 0 0 1 .046-.047l.023-.02.01-.01a.369.369 0 0 0 .04-.04.147.147 0 0 0 .026-.055l.002-.008v-.006l.002-.01a.691.691 0 0 1 .057-.173.54.54 0 0 1 .027-.047l.032-.047a.503.503 0 0 0 .023-.033.14.14 0 0 0 .01-.026.178.178 0 0 0 .004-.072.196.196 0 0 0-.008-.043.756.756 0 0 0-.063-.146 2.806 2.806 0 0 0-.033-.063l-.05-.09-.018-.029a2.563 2.563 0 0 1-.051-.096.694.694 0 0 1-.027-.064.303.303 0 0 1-.018-.09.184.184 0 0 1 .014-.068c.005-.01.01-.02.017-.03a.18.18 0 0 1 .032-.033l.03-.02a.275.275 0 0 0 .018-.013v-.004a.876.876 0 0 0-.013-.144 1.669 1.669 0 0 0-.057-.256.779.779 0 0 0-.045-.11.222.222 0 0 0-.031-.039l-.004-.006a.524.524 0 0 0-.066-.046.153.153 0 0 0-.051-.018.245.245 0 0 0-.018 0h-.013a.364.364 0 0 1-.03-.004.171.171 0 0 1-.08-.035.231.231 0 0 1-.023-.02.235.235 0 0 1-.043-.064.429.429 0 0 1-.035-.108 1.263 1.263 0 0 1-.02-.103l-.01-.065a1.693 1.693 0 0 0-.02-.101.202.202 0 0 0-.013-.03l-.004-.005a.21.21 0 0 0-.066-.057.312.312 0 0 0-.084-.035.208.208 0 0 0-.041-.006h-.006zm-14.236.05l-.002.002a2.338 2.338 0 0 1-.088.236 2.254 2.254 0 0 1-.045.098l-.016.035-.013.023a4.933 4.933 0 0 0-.192.454 5.205 5.205 0 0 0-.222.779 3.442 3.442 0 0 0-.06.521 2.657 2.657 0 0 0 .007.229 1.612 1.612 0 0 0 .107.482 1.24 1.24 0 0 0 .186.313 2.113 2.113 0 0 0 .148.168l.002-.002a2.095 2.095 0 0 0 .104-.14 5.247 5.247 0 0 1 .056-1.24 3.63 3.63 0 0 1 .174-.636l-.002-.002a.053.053 0 0 1-.01-.035c.002-.012.006-.018.01-.027l.006-.012.008-.02a5.122 5.122 0 0 0 .07-.156 2.495 2.495 0 0 0 .1-.29 1.247 1.247 0 0 0 .025-.13.659.659 0 0 0-.014-.246.483.483 0 0 0-.078-.16.818.818 0 0 0-.111-.123 1.942 1.942 0 0 0-.148-.12l-.002-.001zm13.136.08l-.007.002a.078.078 0 0 0-.016.01c0 .002-.003.003-.004.004a.034.034 0 0 0-.002.002.034.034 0 0 0-.002.002.034.034 0 0 0-.002.007.135.135 0 0 0-.006.03.251.251 0 0 0 .002.043.778.778 0 0 0 .01.068l.006.05.004.016.01.086.002.024a.505.505 0 0 1 0 .093 3.933 3.933 0 0 1-.006.082l-.008.1a4.448 4.448 0 0 0-.01.145 1.835 1.835 0 0 0 0 .132l.002.002c.011.01.025.02.037.028l.045.033a2.226 2.226 0 0 1 .1.078.573.573 0 0 1 .066.068.197.197 0 0 1 .04.082.111.111 0 0 1 0 .034.115.115 0 0 1-.02.05.155.155 0 0 1-.032.04.19.19 0 0 1-.035.025l-.031.014a.13.13 0 0 0-.006.002.041.041 0 0 0-.006.003.041.041 0 0 0-.004.004.033.033 0 0 0-.006.004.033.033 0 0 0 0 .002.079.079 0 0 0-.007.024.343.343 0 0 0 .023.218.307.307 0 0 0 .104.121.449.449 0 0 0 .21.077.74.74 0 0 0 .018.002l.014.002a.153.153 0 0 1 .037.011.118.118 0 0 1 .043.037.183.183 0 0 1 .031.086.34.34 0 0 1 .006.065v.107a.656.656 0 0 0 .006.092.165.165 0 0 0 .012.033l.005.012a.507.507 0 0 0 .036.049 1.119 1.119 0 0 0 .11.125 6.875 6.875 0 0 0 .302.273l.078.067a.138.138 0 0 1 .025.029.278.278 0 0 1 .035.064.719.719 0 0 1 .04.106l.017.066c.014.053.025.107.037.162v-.015a1.482 1.482 0 0 1 .006-.125l.004-.04.002-.03a12.166 12.166 0 0 0 .04-.58 8.196 8.196 0 0 0 .009-.434 3.18 3.18 0 0 0-.016-.23.56.56 0 0 0-.016-.071.055.055 0 0 0-.01-.012.094.094 0 0 0-.019-.017.292.292 0 0 0-.03-.016l-.02-.01a.38.38 0 0 1-.03-.013.157.157 0 0 1-.035-.026.11.11 0 0 1-.027-.047.264.264 0 0 1-.012-.16.568.568 0 0 1 .054-.144l.02-.041a1.112 1.112 0 0 0 .035-.082.21.21 0 0 0 .01-.061.118.118 0 0 0-.014-.049.102.102 0 0 0-.013-.017.315.315 0 0 0-.051-.043.557.557 0 0 0-.074-.04 1.371 1.371 0 0 0-.108-.046l-.086-.033a2.975 2.975 0 0 1-.138-.061.55.55 0 0 1-.082-.053.201.201 0 0 1-.024-.023.171.171 0 0 1-.03-.057.267.267 0 0 1-.009-.05l-.004-.077a3.213 3.213 0 0 0-.004-.074.148.148 0 0 0-.004-.02.075.075 0 0 0-.008-.015.052.052 0 0 0-.011-.016.185.185 0 0 0-.035-.023.46.46 0 0 0-.075-.04 1.217 1.217 0 0 0-.05-.019 3.206 3.206 0 0 0-.127-.045l-.024-.008a1.446 1.446 0 0 1-.133-.052.257.257 0 0 1-.058-.055l-.043-.059-.008-.011a.426.426 0 0 0-.035-.041.073.073 0 0 0-.012-.01.025.025 0 0 0-.002 0 .025.025 0 0 0-.002-.002.025.025 0 0 0-.004 0zm-11.802.033l-.006.004-.108.082a3.887 3.887 0 0 0-.59.52 2.322 2.322 0 0 0-.175.224 1.871 1.871 0 0 0-.21.408 3.051 3.051 0 0 0-.163.586 4.23 4.23 0 0 0-.073.711 5.294 5.294 0 0 0 .002.385 1.131 1.131 0 0 0 .03-.062c.02-.051.031-.083.06-.084.026-.001.034.06.049.127l.03.136a62 62 0 0 1 .019.094l.014.068a2.462 2.462 0 0 1 .166-.248l.066-.088.115-.15.031-.041c.062-.082.122-.164.18-.248.063-.095.122-.193.172-.295a1.898 1.898 0 0 0 .133-.35 1.649 1.649 0 0 0 .05-.332l.003-.06.011-.24a21.022 21.022 0 0 1 .018-.31 3.553 3.553 0 0 1 .058-.46 2.01 2.01 0 0 1 .118-.375v-.002zm10.949.766a.128.128 0 0 0-.014.002.061.061 0 0 0-.017.008.048.048 0 0 0-.016.013l-.004.008v.01a.053.053 0 0 0 .004.01.22.22 0 0 0 .021.039.945.945 0 0 0 .047.054l.03.032a.531.531 0 0 1 .06.08.21.21 0 0 1 .012.047.52.52 0 0 1 .006.087v.008a.278.278 0 0 0 .006.051.187.187 0 0 0 .011.018.762.762 0 0 0 .059.072l.039.043.01.01a.714.714 0 0 1 .07.084.372.372 0 0 1 .055.101v.002c0 .006.004.015.004.022a.053.053 0 0 1-.006.02c-.002.005-.008.01-.012.015l-.004.006-.006.003a.266.266 0 0 0-.078.206.171.171 0 0 0 .033.093.713.713 0 0 1 .172.188l.04.056.007.01a.641.641 0 0 0 .06.076.106.106 0 0 0 .067.026l.022.002.007.002a.194.194 0 0 1 .059.013.21.21 0 0 1 .064.043.284.284 0 0 1 .055.084 1.093 1.093 0 0 1 .014.032l.008.021.013.037a1.041 1.041 0 0 0 .026.063.48.48 0 0 0 .043.074.348.348 0 0 0 .08.084.63.63 0 0 0 .06.035.285.285 0 0 0 .069.03.36.36 0 0 0 .06.007l.033.002h.01a1.035 1.035 0 0 1 .117.014.628.628 0 0 1 .176.05.883.883 0 0 1 .24.176 1.816 1.816 0 0 1 .127.147 3.576 3.576 0 0 1 .131.185l.027.047-.007-.047c-.015-.076-.03-.151-.047-.228a2.03 2.03 0 0 0-.043-.178.603.603 0 0 0-.037-.1l-.016-.03a.127.127 0 0 0-.014-.018l-.011-.01-.065-.057-.027-.021a6.115 6.115 0 0 1-.191-.17l-.07-.069a1.454 1.454 0 0 1-.118-.124.622.622 0 0 1-.059-.08.224.224 0 0 1-.015-.024.278.278 0 0 1-.022-.07.966.966 0 0 1-.008-.114v-.078a.474.474 0 0 0-.001-.047.216.216 0 0 0-.002-.027.13.13 0 0 0-.006-.021.068.068 0 0 0-.006-.014l-.004-.006-.008-.002h-.01a.868.868 0 0 1-.043-.008.548.548 0 0 1-.193-.064.421.421 0 0 1-.13-.11.445.445 0 0 1-.085-.343.194.194 0 0 1 .033-.086.148.148 0 0 1 .041-.037l.034-.018.006-.002a.097.097 0 0 0 .019-.012.098.098 0 0 0 .01-.011.638.638 0 0 0-.063-.077 1.203 1.203 0 0 0-.16-.134 1.875 1.875 0 0 0-.246-.143 1.055 1.055 0 0 0-.1-.045.263.263 0 0 0-.03.01l-.028.012a.203.203 0 0 1-.05.013.14.14 0 0 1-.02 0 .703.703 0 0 1-.104-.02l-.049-.015a.868.868 0 0 0-.086-.02.268.268 0 0 0-.049-.003.128.128 0 0 0-.017 0zm-10.158.31l-.022.004-.056.008-.067.01a1.26 1.26 0 0 0-.275.072 1.265 1.265 0 0 0-.477.336 1.75 1.75 0 0 1-.068.367 2.226 2.226 0 0 1-.186.424 3.37 3.37 0 0 1-.195.299l-.06.084c-.049.065-.1.127-.149.191a6.836 6.836 0 0 0-.111.15 2.334 2.334 0 0 0-.123.178v.002a7.027 7.027 0 0 0 .298-.154 3.252 3.252 0 0 0 .36-.219 1.693 1.693 0 0 0 .228-.183 1.131 1.131 0 0 0 .159-.188l.044-.066.1-.158a4.413 4.413 0 0 0 .252-.465l.035-.073.014-.029a8.222 8.222 0 0 1 .101-.205l.116-.22.02-.042a7.646 7.646 0 0 0 .06-.117l.002-.006zm4.037.819a.037.037 0 0 1 .004 0 .037.037 0 0 1 .007 0 .037.037 0 0 1 .01.004.037.037 0 0 1 .004.002.037.037 0 0 1 .006.003.037.037 0 0 1 .006.004.037.037 0 0 1 .002.004.037.037 0 0 1 .004.006.037.037 0 0 1 .002.014.037.037 0 0 1 0 .004c.023.172.1.411.338.476.387.106.52-.155.562-.295a.02.02 0 0 1 0-.002.02.02 0 0 1 0-.002.02.02 0 0 1 .002-.002.02.02 0 0 1 0-.001.02.02 0 0 1 0-.002.02.02 0 0 1 .002 0 .02.02 0 0 1 .002-.002.02.02 0 0 1 0-.002.02.02 0 0 1 .002-.002.02.02 0 0 1 .002 0 .02.02 0 0 1 .002-.002.02.02 0 0 1 .002 0 .02.02 0 0 1 .002-.002.02.02 0 0 1 .002 0 .02.02 0 0 1 .002 0 .02.02 0 0 1 .002 0 .02.02 0 0 1 .002 0 .02.02 0 0 1 .001 0 .02.02 0 0 1 .002.002.02.02 0 0 1 .002 0 .02.02 0 0 1 .002 0 .02.02 0 0 1 0 .002.02.02 0 0 1 .002.002.02.02 0 0 1 .002 0 .02.02 0 0 1 .002.002.02.02 0 0 1 0 .002.02.02 0 0 1 .002.002.02.02 0 0 1 0 .002.02.02 0 0 1 0 .001.02.02 0 0 1 .002.002.02.02 0 0 1 0 .002c.047.14.186.398.56.295.239-.065.315-.304.339-.476a.038.038 0 0 1 .001-.008.038.038 0 0 1 .004-.006.038.038 0 0 1 .002-.004.038.038 0 0 1 .002-.002.038.038 0 0 1 .004-.004.038.038 0 0 1 .006-.004.038.038 0 0 1 .008-.002.038.038 0 0 1 .021 0 .038.038 0 0 1 .008.004.038.038 0 0 1 .006.004.038.038 0 0 1 .002.002.038.038 0 0 1 .004.004.038.038 0 0 1 .004.006.038.038 0 0 1 0 .004c.103.358.008.633-.145.732-.328.214-.816-.001-.847-.015 0 0-.51.236-.848.015-.152-.099-.25-.374-.147-.732a.037.037 0 0 1 .002-.01.037.037 0 0 1 .002-.004.037.037 0 0 1 .004-.006.037.037 0 0 1 .002-.002.037.037 0 0 1 .004-.004.037.037 0 0 0 .002-.001.037.037 0 0 1 .006-.004.037.037 0 0 0 .002 0 .037.037 0 0 1 .006-.004zm.955.883a.06.06 0 0 1 .002 0 .06.06 0 0 1 .047.015l.414.375-.09 4.402s1.449-.957 1.264-2.914c-.076-.815-.38-1.32-.579-1.57a.033.033 0 0 1-.002-.002.033.033 0 0 1-.001-.004.033.033 0 0 0-.002-.002.033.033 0 0 1-.002-.002.033.033 0 0 1 0-.002.033.033 0 0 1 0-.005.033.033 0 0 1 0-.004.033.033 0 0 1 0-.006.033.033 0 0 1 0-.004.033.033 0 0 1 .002-.006.033.033 0 0 1 .002-.002.033.033 0 0 1 .001-.004.033.033 0 0 0 .002-.002.033.033 0 0 1 .002-.002.033.033 0 0 1 .002 0 .033.033 0 0 0 .002-.002.033.033 0 0 1 .002-.002.033.033 0 0 1 .002-.002.033.033 0 0 1 .002 0A.033.033 0 0 1 13 9.232a.033.033 0 0 1 .004 0 .033.033 0 0 1 .006 0 .033.033 0 0 1 .004 0 .033.033 0 0 1 .006.002.033.033 0 0 1 .003.002.033.033 0 0 0 .002.002.033.033 0 0 1 .002.002c.3.223.834.737 1.09 1.705.396 1.507-.781 3.08-1.476 3.463.09.108.66.335 1.351.149a.043.043 0 0 1 .043.011.043.043 0 0 1 .002.057c-.09.112-.287.21-.57.254-.488.074-1.252.006-1.252.006l-.252.441a.034.034 0 0 1-.002.004.034.034 0 0 0-.002.002.034.034 0 0 1-.002.002.034.034 0 0 1-.002.002.034.034 0 0 1-.002.002.034.034 0 0 0-.002.002.034.034 0 0 1-.006.002.034.034 0 0 1-.004 0 .034.034 0 0 1-.005.002.034.034 0 0 1-.006 0 .034.034 0 0 1-.002 0 .034.034 0 0 1-.006-.002.034.034 0 0 1-.006-.002.034.034 0 0 1-.002-.002.034.034 0 0 1-.004-.004.034.034 0 0 0-.002-.002.034.034 0 0 1-.002-.002.034.034 0 0 1-.002-.004l-.252-.441s-.765.068-1.254-.006c-.282-.043-.478-.142-.57-.254a.043.043 0 0 1 .002-.055.043.043 0 0 0 .002-.002.043.043 0 0 1 .006-.005.043.043 0 0 1 .037-.006c.693.186 1.262-.04 1.352-.149-.695-.383-1.874-1.956-1.477-3.463.255-.968.79-1.482 1.09-1.705a.033.033 0 0 1 .002-.002.033.033 0 0 1 .006-.002.033.033 0 0 1 .002-.002.033.033 0 0 1 .002 0 .033.033 0 0 1 .005 0 .033.033 0 0 1 .004 0 .033.033 0 0 1 .006.002.033.033 0 0 1 .006.002.033.033 0 0 1 .004.002.033.033 0 0 0 .002.002.033.033 0 0 1 .002.002.033.033 0 0 1 .002.002.033.033 0 0 1 .002.004.033.033 0 0 0 .002.002.033.033 0 0 1 .002.002.033.033 0 0 1 0 .002.033.033 0 0 0 .002.002.033.033 0 0 1 0 .004.033.033 0 0 1 0 .006.033.033 0 0 1 0 .003.033.033 0 0 1-.002.006.033.033 0 0 1-.002.006.033.033 0 0 0 0 .002.033.033 0 0 0-.002.002c-.197.25-.503.755-.58 1.57-.184 1.957 1.265 2.914 1.265 2.914l-.09-4.402.413-.375a.06.06 0 0 1 .03-.015zm-1.377.107a.033.033 0 0 1 .002 0 .033.033 0 0 1 .006 0 .033.033 0 0 1 .004 0 .033.033 0 0 1 .005.002.033.033 0 0 1 .006.002.033.033 0 0 1 .004.002.033.033 0 0 0 .002.002.033.033 0 0 1 .004.002.033.033 0 0 0 .002.002.033.033 0 0 1 .002.002.033.033 0 0 1 .002.005.033.033 0 0 1 .002.002.033.033 0 0 1 0 .002.033.033 0 0 1 .002.006.033.033 0 0 1 0 .004.033.033 0 0 1-.002.006.033.033 0 0 1-.002.006.033.033 0 0 1 0 .002.033.033 0 0 0-.002.002.033.033 0 0 1-.002.006.033.033 0 0 1-.002.002.033.033 0 0 1-.002 0 .033.033 0 0 0-.002.002c-.352.31-1.196 1.14-1.433 2.142-.27 1.136.261 2.428.482 2.893a.045.045 0 0 1-.01.056.045.045 0 0 1-.06-.002c-.421-.357-1.507-1.469-1.037-3.154.323-1.158 1.55-1.785 2.025-1.99a.033.033 0 0 1 .002-.002.033.033 0 0 1 .002-.002zm2.758 0a.033.033 0 0 0 .002 0 .033.033 0 0 1 .005 0 .033.033 0 0 1 .004 0 .033.033 0 0 1 .006.002.033.033 0 0 0 .002.002c.475.205 1.703.832 2.026 1.99.47 1.685-.618 2.797-1.04 3.154a.045.045 0 0 1-.066-.011.045.045 0 0 1-.002-.043c.22-.465.752-1.757.483-2.893-.237-1.003-1.082-1.832-1.434-2.142a.033.033 0 0 0-.002 0 .033.033 0 0 0-.002-.002.033.033 0 0 0-.002-.002.033.033 0 0 1-.002-.002.033.033 0 0 1 0-.002.033.033 0 0 0-.002-.002.033.033 0 0 1-.002-.002.033.033 0 0 1 0-.002.033.033 0 0 1 0-.006.033.033 0 0 1-.002-.002.033.033 0 0 1 0-.002.033.033 0 0 1 0-.006.033.033 0 0 1 .002-.006.033.033 0 0 1 0-.002.033.033 0 0 0 .002-.002.033.033 0 0 1 .002-.005.033.033 0 0 0 .002-.002.033.033 0 0 1 .002-.002.033.033 0 0 1 .002 0 .033.033 0 0 0 .002-.002.033.033 0 0 0 .002-.002.033.033 0 0 1 .002-.002.033.033 0 0 1 .002 0 .033.033 0 0 1 .006-.002.033.033 0 0 0 .002-.002zm6.23.123l-.01.002a.079.079 0 0 0-.02.008.113.113 0 0 0-.04.035.757.757 0 0 0-.07.17l-.016.058-.006.022-.033.09a.379.379 0 0 1-.043.076l-.022.03-.023.029a7.561 7.561 0 0 0-.203.271 1.937 1.937 0 0 0-.09.145.514.514 0 0 0-.02.043.195.195 0 0 0 .024.015.79.79 0 0 0 .037.02l.045.023a1.424 1.424 0 0 1 .09.055c.02.014.04.028.056.045a.215.215 0 0 1 .043.064.156.156 0 0 1-.005.127v.002l-.008.014-.012.01-.008.003a.521.521 0 0 1-.164.069l-.037.008-.008.002a.218.218 0 0 0-.012.001l-.007.002a.082.082 0 0 0-.004.002.02.02 0 0 0-.002.002.02.02 0 0 0-.002 0 .02.02 0 0 0-.002.002.02.02 0 0 0 0 .002.02.02 0 0 0-.002.002.02.02 0 0 0 0 .002.407.407 0 0 0-.01.24c.008.036.02.073.031.108.015.04.034.077.053.115.028.056.058.112.088.168l.014.027a2.127 2.127 0 0 1 .045.09l.006.016v.002a.227.227 0 0 1 0 .049.192.192 0 0 1-.028.076.323.323 0 0 1-.043.056l-.05.05a1.105 1.105 0 0 0-.044.048.115.115 0 0 0-.017.035.084.084 0 0 0-.002.014.119.119 0 0 0 .01.055.274.274 0 0 0 .03.06.611.611 0 0 0 .089.106l.039.039a.613.613 0 0 1 .1.13.4.4 0 0 1 .035.104.837.837 0 0 1 .021.14 2.25 2.25 0 0 1 .004.298l-.004.12a3.143 3.143 0 0 0-.002.106v.014l.002.011a1.135 1.135 0 0 1-.002.155c-.004.064-.011.125-.017.19v.005l.023-.045.055-.11a6 6 0 0 0 .12-.257 3.527 3.527 0 0 0 .118-.287 1.54 1.54 0 0 0 .04-.149.713.713 0 0 0 .01-.084v-.003l.005-.012a1.323 1.323 0 0 1 .08-.2c.028-.06.059-.12.092-.18l.035-.06.04-.074.018-.03a2.62 2.62 0 0 0 .1-.204.786.786 0 0 0 .04-.137.348.348 0 0 0 .003-.045.302.302 0 0 0-.016-.078 1.056 1.056 0 0 0-.052-.11l-.026-.044a2.77 2.77 0 0 1-.043-.08.328.328 0 0 1-.017-.051.21.21 0 0 1-.004-.076.283.283 0 0 1 .015-.067.395.395 0 0 1 .028-.058c.02-.032.042-.063.064-.094l.006-.01a.68.68 0 0 0 .027-.045.133.133 0 0 0 .01-.025.06.06 0 0 0 .004-.022.053.053 0 0 0-.004-.01l-.002-.007a.34.34 0 0 0-.062-.104l-.022-.029a2.6 2.6 0 0 1-.04-.057.663.663 0 0 1-.061-.111.357.357 0 0 1-.016-.068 1.474 1.474 0 0 1-.002-.178l.008-.111.006-.088a4.544 4.544 0 0 0 .013-.225 1.398 1.398 0 0 0-.011-.17.653.653 0 0 0-.012-.055.35.35 0 0 0-.068-.138.247.247 0 0 0-.116-.072.408.408 0 0 0-.125-.018h-.035zm-14.658.03a1.587 1.587 0 0 1-.186.265c-.08.098-.165.188-.25.28l-.027.03a6.03 6.03 0 0 0-.146.166 1.99 1.99 0 0 0-.12.168 1.012 1.012 0 0 0-.093.188.815.815 0 0 0-.041.19 2.108 2.108 0 0 0-.016.355 3.058 3.058 0 0 0 .057.527 4.403 4.403 0 0 0 .146.57 5.894 5.894 0 0 0 .168.463l.006-.058v-.004l.006-.022.014-.017.02-.01h.02l.022.01.016.015a26.302 26.302 0 0 0 .185.307 5.39 5.39 0 0 1 .037-.557c.024-.214.059-.424.096-.636l.05-.287.046-.246a38.399 38.399 0 0 0 .074-.415 3.52 3.52 0 0 0 .021-.142 2.76 2.76 0 0 0 .024-.352 1.835 1.835 0 0 0-.03-.295 4.518 4.518 0 0 0-.056-.304l-.043-.19zm.264.165l-.004.01.006-.01a7.027 7.027 0 0 1-.002 0zm15.367.229a.036.036 0 0 0-.004.002.036.036 0 0 0-.01.004.084.084 0 0 0-.012.007.34.34 0 0 0-.04.05 1.634 1.634 0 0 0-.047.083l-.024.047a1.157 1.157 0 0 1-.084.139 2.035 2.035 0 0 1-.127.123 5.607 5.607 0 0 1-.18.146l.002.014a.298.298 0 0 0 .012.05.272.272 0 0 0 .01.022.897.897 0 0 0 .07.11l.026.035a.41.41 0 0 1 .078.133.151.151 0 0 1 .01.043.19.19 0 0 1-.01.072.624.624 0 0 1-.053.096l-.027.037a.692.692 0 0 0-.055.095.177.177 0 0 0-.01.041.1.1 0 0 0 .004.04.215.215 0 0 0 .008.027 1.135 1.135 0 0 0 .037.068l.025.047a1.032 1.032 0 0 1 .03.055.45.45 0 0 1 .058.197.56.56 0 0 1-.049.207 2.705 2.705 0 0 1-.109.223l-.068.12-.016.03a3.416 3.416 0 0 0-.1.19 1.236 1.236 0 0 0-.072.175v.014l-.002.01a.925.925 0 0 1-.02.107 1.885 1.885 0 0 1-.05.172 4.534 4.534 0 0 1-.137.326l-.049.1.032-.055.049-.09.027-.045c.036-.062.071-.123.11-.183a2.192 2.192 0 0 1 .1-.149 1.17 1.17 0 0 1 .085-.101.473.473 0 0 1 .146-.11.98.98 0 0 1 .076-.033l.055-.02a1.495 1.495 0 0 0 .053-.02.511.511 0 0 0 .23-.175.193.193 0 0 0 .037-.1.29.29 0 0 0 0-.06V11.9a.285.285 0 0 1 .03-.12.21.21 0 0 1 .025-.04.493.493 0 0 1 .067-.064 2.132 2.132 0 0 1 .09-.065l.056-.039a3.698 3.698 0 0 0 .037-.023l.016-.012.006-.006h.002a.064.064 0 0 0 .01-.011.145.145 0 0 0 .011-.022.32.32 0 0 0 .022-.09.49.49 0 0 0-.014-.152.412.412 0 0 0-.012-.04.277.277 0 0 0-.037-.064l-.041-.047-.037-.04-.022-.026a.436.436 0 0 1-.091-.143.241.241 0 0 1-.018-.084.278.278 0 0 1 .022-.107 4.436 4.436 0 0 1 .05-.092l.037-.064.008-.016a.333.333 0 0 0 .033-.068.284.284 0 0 0 .014-.084v-.02a2.043 2.043 0 0 0-.135-.51 1.26 1.26 0 0 0-.068-.136.292.292 0 0 0-.04-.055.16.16 0 0 0-.026-.025l-.004-.002h-.002a.036.036 0 0 0-.004 0zM3.385 9.65a1.952 1.952 0 0 1 .017.194.695.695 0 0 1-.004.092l-.015.156-.026.242-.005.059a4.564 4.564 0 0 0-.028.396 2.323 2.323 0 0 0 .02.334 1.932 1.932 0 0 0 .068.299 3.106 3.106 0 0 0 .154.412 2.708 2.708 0 0 0 .6.838l.129.119a2.938 2.938 0 0 0 .04-.156 6.35 6.35 0 0 1-.292-.815 4.665 4.665 0 0 1-.094-.414 3.633 3.633 0 0 1-.049-.38 2.711 2.711 0 0 1 .01-.52v-.002a.663.663 0 0 0-.03-.092 1.763 1.763 0 0 0-.228-.406 4.442 4.442 0 0 0-.095-.133l-.084-.107-.02-.028a7.391 7.391 0 0 1-.068-.088zm15.033.213a.052.052 0 0 0-.014.006.212.212 0 0 0-.031.022.344.344 0 0 0-.039.04.103.103 0 0 0-.01.016.036.036 0 0 0-.002.002.036.036 0 0 0-.004.014l.002.01a.52.52 0 0 0 .02.05l.021.04a1.336 1.336 0 0 1 .065.146l.01.03a1.258 1.258 0 0 1 .025.257l.004.098a5.892 5.892 0 0 0 .008.164v.027a.155.155 0 0 1-.002.031.119.119 0 0 1-.028.057.165.165 0 0 1-.023.02c-.018.014-.038.024-.057.035l-.01.006a.201.201 0 0 0-.03.023.108.108 0 0 0-.028.04v.001a.386.386 0 0 0 .033.08l.018.035.006.012.029.07a.328.328 0 0 1 .015.057.184.184 0 0 1-.005.086.381.381 0 0 1-.045.11 1.086 1.086 0 0 1-.012.02l-.021.034a.533.533 0 0 0-.022.039.081.081 0 0 0-.006.023.047.047 0 0 0 .004.024.058.058 0 0 0 .02.025.138.138 0 0 0 .033.02.362.362 0 0 0 .037.013l.03.01a.673.673 0 0 1 .013.006l.015.006a.192.192 0 0 1 .086.057.112.112 0 0 1 .022.048l.002.01v.008a1.738 1.738 0 0 1 .012.11 2.5 2.5 0 0 1 .007.138l.002.127v.018a1.397 1.397 0 0 0 .004.08.188.188 0 0 0 .006.03c0 .003 0 .003.002.005l.008.01a1.355 1.355 0 0 1 .05.07 4.216 4.216 0 0 1 .239.371c.033.061.064.123.092.188a1.867 1.867 0 0 1 .107.306 1.555 1.555 0 0 1 .03.166v.002a.541.541 0 0 1 .091-.06 6.285 6.285 0 0 0 .024-.282 1.814 1.814 0 0 0 0-.136v-.02a.771.771 0 0 1 0-.1l.004-.093c.002-.065.005-.13.004-.196a1.694 1.694 0 0 0-.016-.21.67.67 0 0 0-.024-.094.277.277 0 0 0-.064-.102 1.252 1.252 0 0 0-.033-.037l-.031-.03-.012-.013a1.242 1.242 0 0 1-.092-.111.664.664 0 0 1-.03-.055.274.274 0 0 1-.029-.1.195.195 0 0 1 .02-.095.27.27 0 0 1 .037-.057.593.593 0 0 1 .037-.04l.028-.026a.712.712 0 0 0 .033-.035.185.185 0 0 0 .017-.024.104.104 0 0 0 .012-.031.087.087 0 0 0 .002-.022.431.431 0 0 0-.023-.045l-.03-.056-.037-.069a2.74 2.74 0 0 1-.101-.207.742.742 0 0 1-.059-.287.503.503 0 0 1 .031-.164.127.127 0 0 1 .035-.045.142.142 0 0 1 .041-.021.335.335 0 0 1 .038-.01l.025-.006c.005 0 .01-.003.014-.004a.532.532 0 0 0 .095-.033.423.423 0 0 0 .024-.012.057.057 0 0 0 .002-.025.072.072 0 0 0-.02-.035.134.134 0 0 0-.015-.016.246.246 0 0 0-.045-.033.655.655 0 0 0-.063-.035l-.049-.026-.011-.005a.696.696 0 0 1-.061-.04.136.136 0 0 1-.037-.042 1.198 1.198 0 0 1-.106-.053.541.541 0 0 1-.076-.057.239.239 0 0 1-.033-.037l-.012-.02a1.87 1.87 0 0 0-.101-.14.41.41 0 0 0-.051-.047.082.082 0 0 0-.016-.008.042.042 0 0 0-.015-.002.052.052 0 0 0-.01 0zm-12.715.055a1.285 1.285 0 0 1-.01.008l-.011.006a1.139 1.139 0 0 1-.11.07l-.056.035a1.71 1.71 0 0 1-.057.035 1.207 1.207 0 0 0-.303.26 1.022 1.022 0 0 0-.076.11l-.002.011-.03.178c-.032.19-.068.38-.103.57l-.015.088a14.64 14.64 0 0 0-.135.87 5.277 5.277 0 0 0-.03.68l.003.005a14.603 14.603 0 0 1 .164.279 3.576 3.576 0 0 1 .111-.387 6.17 6.17 0 0 1 .09-.24l.105-.252.092-.217a27.316 27.316 0 0 0 .227-.562 14.753 14.753 0 0 0 .097-.264c.023-.066.043-.133.06-.201a1.356 1.356 0 0 0 .034-.504 2.469 2.469 0 0 0-.02-.156l-.011-.09a1.86 1.86 0 0 1-.02-.18.916.916 0 0 1 .006-.152zm-1.242 2.623v.006a2.86 2.86 0 0 1-.096.373c-.043.13-.091.256-.14.385a5.302 5.302 0 0 0-.073.2 2.166 2.166 0 0 0-.072.266.648.648 0 0 0-.012.184 2.324 2.324 0 0 0 .028.197 3.23 3.23 0 0 0 .133.477 4.502 4.502 0 0 0 .242.533 5.641 5.641 0 0 0 .476.733 4.27 4.27 0 0 0 .235.283l.005.008.002-.002.018-.012.022-.006.021.004.018.014c.005.003.01.007.013.011l-.006-.021a2.865 2.865 0 0 1-.058-.512 4.45 4.45 0 0 1 .004-.283c.004-.12.013-.241.021-.361a7.755 7.755 0 0 0 .014-.266 3.085 3.085 0 0 0-.02-.506 2.099 2.099 0 0 0-.095-.414 3.545 3.545 0 0 0-.2-.475 6.231 6.231 0 0 0-.205-.363l-.101-.166-.108-.18-.052-.085-.014-.022zm1.146.328a.898.898 0 0 1-.103.121l-.041.043a2.197 2.197 0 0 0-.082.096.862.862 0 0 0-.102.166.995.995 0 0 0-.08.314l-.006.06a4.457 4.457 0 0 1 .055.147 2.215 2.215 0 0 1 .098.46c.009.081.013.163.015.245a6.546 6.546 0 0 1-.014.482l-.01.165a8.128 8.128 0 0 0-.015.307 3.475 3.475 0 0 0 .026.505 2.304 2.304 0 0 0 .082.364l.008.027.04.045a.858.858 0 0 1 .006-.145 1.34 1.34 0 0 1 .036-.189 3.6 3.6 0 0 1 .109-.355l.033-.102.012-.033a4.713 4.713 0 0 0 .113-.377 2.47 2.47 0 0 0 .08-.467 2.05 2.05 0 0 0-.105-.826 2.307 2.307 0 0 0-.035-.094l-.047-.11a7.508 7.508 0 0 1-.026-.066 1.476 1.476 0 0 1-.058-.191 1.122 1.122 0 0 1-.024-.201 1.31 1.31 0 0 1 .012-.25l.012-.074.004-.016a1.228 1.228 0 0 0 .007-.05zm14.303.143a.412.412 0 0 0-.168.058.594.594 0 0 0-.06.043c-.042.034-.079.075-.116.112l-.015.013a.821.821 0 0 1-.201.149l-.067.037-.017.01a.61.61 0 0 0-.098.064.325.325 0 0 0-.053.06h-.002a.027.027 0 0 0-.002.003.027.027 0 0 0 0 .003.036.036 0 0 0-.002.014.088.088 0 0 0 .006.026.19.19 0 0 0 .008.023.608.608 0 0 0 .01.02l.017.037.008.015a.328.328 0 0 1 .028.108.177.177 0 0 1-.014.078.179.179 0 0 1-.024.037l-.01.01-.013.007-.006.002-.012.004-.017.008a1.756 1.756 0 0 0-.117.05.485.485 0 0 0-.084.058.442.442 0 0 0-.047.068l-.02.033c-.003.008-.01.017-.013.024a.345.345 0 0 1-.041.052.244.244 0 0 1-.063.047l-.031.014-.004.002a.053.053 0 0 0-.002.011.09.09 0 0 0 .008.036.377.377 0 0 0 .06.09l.026.029.031.033a1.158 1.158 0 0 1 .033.04.167.167 0 0 1 .018.026.084.084 0 0 1 .01.043.13.13 0 0 1-.026.067.112.112 0 0 1-.035.03.21.21 0 0 1-.08.024.747.747 0 0 1-.02.002l-.027.004h-.012a.591.591 0 0 0-.025.006.182.182 0 0 0-.06.024.123.123 0 0 0-.018.011l.002.006.002.006a1.07 1.07 0 0 1 .037.182l.01.068a20.463 20.463 0 0 1 .013.086 2.784 2.784 0 0 0 .037.186l.012.046.004.02a5.051 5.051 0 0 1 .076.377 3.456 3.456 0 0 1 .027.24 1.796 1.796 0 0 1 .004.192.605.605 0 0 1-.021.12.156.156 0 0 1-.043.065.105.105 0 0 1-.03.018.372.372 0 0 0-.05.064 1.222 1.222 0 0 0-.08.125 4.32 4.32 0 0 0-.14.266l-.007.013.024-.003.033-.004.018-.002a1.199 1.199 0 0 0 .13-.028l.04-.045a11.61 11.61 0 0 0 .374-.459 3.148 3.148 0 0 0 .17-.257 1.203 1.203 0 0 0 .08-.176.447.447 0 0 0 .02-.086v-.006l.002-.014.008-.011.008-.01a.905.905 0 0 1 .306-.264l.057-.035a.605.605 0 0 0 .064-.039.433.433 0 0 0 .09-.082.262.262 0 0 0 .04-.08.174.174 0 0 0 .003-.047.291.291 0 0 0-.006-.059.774.774 0 0 0-.023-.078l-.014-.04a.726.726 0 0 1-.021-.075.278.278 0 0 1-.008-.057.18.18 0 0 1 .03-.097.287.287 0 0 1 .085-.084.578.578 0 0 1 .098-.057l.052-.025.026-.016a.734.734 0 0 0 .05-.03.166.166 0 0 0 .024-.019.064.064 0 0 0 .01-.01.02.02 0 0 0 0-.001.02.02 0 0 0 .002-.002.02.02 0 0 0 0-.002.02.02 0 0 0 0-.002.02.02 0 0 0 0-.002v-.008a.385.385 0 0 1 .008-.07c.004-.03.01-.06.015-.088l.022-.11.027-.119.006-.03a8.13 8.13 0 0 0 .037-.187 1.533 1.533 0 0 0 .016-.127.316.316 0 0 0-.018-.127.123.123 0 0 0-.064-.078c-.013-.007-.026-.011-.04-.017l-.01-.004a.194.194 0 0 1-.056-.04.386.386 0 0 1-.09-.118.505.505 0 0 1-.033-.09.758.758 0 0 1-.023-.149l-.006-.056-.004-.026a.613.613 0 0 0-.01-.06.12.12 0 0 0-.01-.024.034.034 0 0 0-.002-.002.034.034 0 0 0-.005-.005.034.034 0 0 0-.006-.004.034.034 0 0 0-.006-.002.034.034 0 0 0-.008 0h-.006zm-1.303.074a.072.072 0 0 0-.02.006.166.166 0 0 0-.036.023.114.114 0 0 0-.031.045.2.2 0 0 0-.016.07.434.434 0 0 0 0 .051c0 .017 0 .034.002.051l.006.07a1.558 1.558 0 0 1 .004.102.23.23 0 0 1-.012.06.148.148 0 0 1-.016.034.124.124 0 0 1-.06.047.631.631 0 0 1-.09.035l-.059.013-.01.004a.252.252 0 0 0-.019.006.069.069 0 0 0-.02.01.052.052 0 0 0-.011.017.291.291 0 0 0-.014.051.842.842 0 0 1 .02.018 1.167 1.167 0 0 1 .13.135.58.58 0 0 1 .075.13.304.304 0 0 1 .015.13.17.17 0 0 1-.078.128.274.274 0 0 1-.056.028.589.589 0 0 1-.043.013l-.036.01a.444.444 0 0 0-.048.02l-.004.002-.004.001v.02a.324.324 0 0 1-.033.184 1.143 1.143 0 0 1-.032.064.565.565 0 0 0-.039.113.228.228 0 0 0 0 .06v.013a.133.133 0 0 0 .008.021l.01.031a1.738 1.738 0 0 0 .076.166l.06.123.122.24.015.028.016.033.014.028a.805.805 0 0 1 .056.173.912.912 0 0 1 .016.215c-.002.065-.009.13-.02.194a1.968 1.968 0 0 1-.07.271l-.021.072a1.684 1.684 0 0 0-.03.12.251.251 0 0 0-.004.033l-.008.021a.977.977 0 0 1-.167.215 2.357 2.357 0 0 1-.133.127 1.095 1.095 0 0 1 .004.107l.039-.023.033-.022a.965.965 0 0 0 .092-.064l.02-.016.005-.006a.479.479 0 0 1 .059-.039h.002l.01-.02a10.242 10.242 0 0 1 .146-.282 3.307 3.307 0 0 1 .129-.215.61.61 0 0 1 .05-.06.167.167 0 0 1 .026-.02.098.098 0 0 1 .016-.01l.002-.002a.114.114 0 0 0 .011-.025.223.223 0 0 0 .01-.047.633.633 0 0 0 .006-.078 1.376 1.376 0 0 0-.012-.215 3.308 3.308 0 0 0-.045-.295 4.672 4.672 0 0 0-.052-.236l-.01-.045a2.593 2.593 0 0 1-.053-.284l-.014-.09-.002-.017a1.882 1.882 0 0 0-.017-.1.241.241 0 0 0-.014-.043.044.044 0 0 0-.006-.005.044.044 0 0 0 0-.002l-.011-.02v-.021l.007-.022a.238.238 0 0 1 .155-.103.53.53 0 0 1 .047-.008l.043-.006.011-.002a.493.493 0 0 0 .04-.01.036.036 0 0 0 .003-.002l.004-.002v-.002a.749.749 0 0 0-.027-.033l-.032-.035a1.162 1.162 0 0 1-.083-.105.265.265 0 0 1-.041-.106.178.178 0 0 1 .007-.068.087.087 0 0 1 .047-.051l.03-.016.005-.002a.178.178 0 0 0 .041-.029.172.172 0 0 0 .034-.049l.021-.035a.794.794 0 0 1 .035-.059.305.305 0 0 1 .098-.087.667.667 0 0 1 .111-.055l.082-.033v-.002a.06.06 0 0 0 .006-.012.077.077 0 0 0 0-.031.15.15 0 0 0-.01-.04.44.44 0 0 0-.02-.038l-.01-.032-.007-.01-.008-.017a.242.242 0 0 1-.02-.101.134.134 0 0 1 .016-.053 3.158 3.158 0 0 0-.187-.266.995.995 0 0 0-.088-.092.476.476 0 0 0-.076-.052.163.163 0 0 0-.025-.01.1.1 0 0 0-.028-.004h-.002a.072.072 0 0 0-.008 0zM3.17 13.45a1.875 1.875 0 0 0-.059.002h-.007l.007.004a.389.389 0 0 1 .084.078l.01.016a1.533 1.533 0 0 1 .07.127 1.361 1.361 0 0 1 .094.27 2.548 2.548 0 0 1 .055.275l.021.12a6.089 6.089 0 0 0 .05.259 1.77 1.77 0 0 0 .085.253 1.28 1.28 0 0 0 .098.184l.02.03a5.925 5.925 0 0 0 .18.257c.126.166.261.326.405.475a4.391 4.391 0 0 0 .608.52 3.327 3.327 0 0 0 .296.185 1.687 1.687 0 0 0 0-.166l-.001-.002a3.554 3.554 0 0 1-.206-.233 5.434 5.434 0 0 1-.796-1.3 3.574 3.574 0 0 1-.112-.315 2.818 2.818 0 0 1-.11-.53.756.756 0 0 1 .015-.212l.003-.02a1.057 1.057 0 0 0-.275-.181 1.014 1.014 0 0 0-.168-.057 1.293 1.293 0 0 0-.18-.031 1.875 1.875 0 0 0-.187-.008zm17.652.2a.275.275 0 0 0-.015.001.443.443 0 0 0-.108.024 1.08 1.08 0 0 0-.19.076 2.138 2.138 0 0 0-.097.05c0 .022-.002.041-.004.061a1.402 1.402 0 0 1-.025.16 6.061 6.061 0 0 1-.022.112l-.037.166a4.633 4.633 0 0 0-.039.207.362.362 0 0 0-.004.033v.023a.126.126 0 0 1-.015.045.2.2 0 0 1-.073.075.49.49 0 0 1-.08.045l-.054.027a1.014 1.014 0 0 0-.106.066.188.188 0 0 0-.03.028.102.102 0 0 0-.015.03.073.073 0 0 0-.004.02l.004.026.008.031a.932.932 0 0 0 .012.04l.013.042a.988.988 0 0 1 .022.072.42.42 0 0 1 .014.098.285.285 0 0 1-.028.123.37.37 0 0 1-.082.117.54.54 0 0 1-.068.055c-.023.016-.046.03-.07.045l-.06.033a1.626 1.626 0 0 0-.142.098.764.764 0 0 0-.129.134l-.002.002-.001.008-.002.008a.549.549 0 0 1-.028.105 1.407 1.407 0 0 1-.164.31 3.353 3.353 0 0 1-.205.274l-.012.018a.316.316 0 0 1 .078-.012h.014a1.09 1.09 0 0 0 .069-.111l.017-.03.022-.038.013-.022a1.01 1.01 0 0 1 .094-.139.318.318 0 0 1 .06-.052.415.415 0 0 1 .16-.057 1.107 1.107 0 0 1 .085-.014l.06-.007a1.286 1.286 0 0 0 .223-.047.442.442 0 0 0 .039-.018.085.085 0 0 0 .01-.006.049.049 0 0 0 .01-.01.037.037 0 0 0 .005-.007.14.14 0 0 0 .006-.024l.002-.023v-.008a.174.174 0 0 1 .12-.154.316.316 0 0 1 .132-.016l.035.002.051.004a.88.88 0 0 0 .09 0 .197.197 0 0 0 .033-.006.117.117 0 0 0 .024-.008l.002-.002a.09.09 0 0 0 .01-.02.33.33 0 0 0 .02-.066.914.914 0 0 0 .024-.109 1.532 1.532 0 0 0 .016-.244v-.006a.096.096 0 0 0-.016-.047.236.236 0 0 0-.04-.05.7.7 0 0 0-.016-.016l-.03-.028a.564.564 0 0 1-.039-.043.237.237 0 0 1-.027-.037.138.138 0 0 1-.01-.123.18.18 0 0 1 .027-.047.26.26 0 0 1 .057-.056.445.445 0 0 1 .137-.069l.078-.021.04-.01.038-.01a.357.357 0 0 0 .05-.02.024.024 0 0 0 .003-.001.024.024 0 0 0 .002-.002l.002-.006a.14.14 0 0 0 .015-.06.098.098 0 0 0-.006-.028.15.15 0 0 0-.013-.03l-.031-.044-.006-.008a.264.264 0 0 1-.024-.047.157.157 0 0 1-.008-.072.15.15 0 0 1 .01-.03.185.185 0 0 1 .022-.04.413.413 0 0 1 .056-.063 1.355 1.355 0 0 0 .028-.033.076.076 0 0 0 .011-.02l.002-.003a4.468 4.468 0 0 0 .057-.57.275.275 0 0 0-.055-.005zM5.295 16.368v.004a1.757 1.757 0 0 1 0 .137 2.43 2.43 0 0 1-.027.246c-.01.063-.019.126-.032.19-.013.068-.029.135-.043.204l-.007.04a4.42 4.42 0 0 0-.03.162 1.978 1.978 0 0 0-.017.13 1.16 1.16 0 0 0-.006.127.758.758 0 0 0 .033.205 1.418 1.418 0 0 0 .066.17 3.14 3.14 0 0 0 .281.48 5.313 5.313 0 0 0 .55.645 11.042 11.042 0 0 0 .736.68 1.223 1.223 0 0 0-.074-.11l-.01-.02v-.022l.008-.018a1.99 1.99 0 0 1-.12-.39 3.358 3.358 0 0 1-.042-.256c-.013-.105-.023-.212-.034-.317l-.006-.047a5.556 5.556 0 0 0-.033-.255 2.517 2.517 0 0 0-.097-.397 1.862 1.862 0 0 0-.2-.406 16.064 16.064 0 0 0-.183-.283 6.607 6.607 0 0 0-.492-.647 10.846 10.846 0 0 0-.215-.244l-.006-.008zm1.217.027a.524.524 0 0 1-.047.124.954.954 0 0 1-.074.12l-.028.046a3.096 3.096 0 0 0-.068.109.868.868 0 0 0-.072.185.897.897 0 0 0-.024.221 1.27 1.27 0 0 0 .014.19 17.426 17.426 0 0 1 .1.158 2.046 2.046 0 0 1 .187.402 2.812 2.812 0 0 1 .1.436c.012.085.022.17.03.258l.015.132a9.009 9.009 0 0 0 .039.303 2.74 2.74 0 0 0 .068.303 1.913 1.913 0 0 0 .084.23 23.903 23.903 0 0 1 .406.137 2.195 2.195 0 0 0 .069-.377c.01-.092.015-.184.015-.277a4.17 4.17 0 0 0-.123-.955 1.16 1.16 0 0 0-.103-.26c-.036-.073-.078-.145-.118-.215l-.015-.027a3.28 3.28 0 0 1-.07-.13 1.792 1.792 0 0 1-.12-.306l-.007-.025-.01-.035a10.047 10.047 0 0 0-.248-.747zm10.99.079a.173.173 0 0 0-.05.01.098.098 0 0 0-.042.03.141.141 0 0 0-.025.04.285.285 0 0 0-.01.029 1.216 1.216 0 0 0-.014.07l-.01.051-.005.041a.447.447 0 0 1-.067.174 2.203 2.203 0 0 1-.101.137l-.053.068-.045.057a.593.593 0 0 0-.068.103.231.231 0 0 0-.016.123.586.586 0 0 0 .022.078l.015.037a.504.504 0 0 1 .014.043.24.24 0 0 1 .008.053.185.185 0 0 1-.004.053.226.226 0 0 1-.059.1.32.32 0 0 1-.09.056.864.864 0 0 1-.066.026l-.045.013-.025.008a.393.393 0 0 0-.051.023.09.09 0 0 0-.027.024.061.061 0 0 0-.006.01l-.002.007-.002.004-.002.006a.348.348 0 0 1-.026.051.573.573 0 0 1-.076.092l-.037.033a.269.269 0 0 0-.031.033.075.075 0 0 0-.02.057l.002.01a.268.268 0 0 0 .008.029 3.128 3.128 0 0 0 .065.15l.04.08a4.13 4.13 0 0 1 .03.063.662.662 0 0 1 .053.14.553.553 0 0 1 .005.047 1.163 1.163 0 0 1-.01.2 2.14 2.14 0 0 1-.175.572 1.394 1.394 0 0 1-.086.158.797.797 0 0 1-.086.12 1.993 1.993 0 0 1-.092.089 8.477 8.477 0 0 1-.306.258l-.022.017a.153.153 0 0 0 0 .028.047.047 0 0 0 .002.01.072.072 0 0 0 .01.015.224.224 0 0 0 .015.022l.02.021.006.006.006.008.279-.303a15.733 15.733 0 0 0 .3-.344 1.788 1.788 0 0 0 .096-.119l.016-.02.014-.017.021-.027a1.006 1.006 0 0 0 .07-.102.976.976 0 0 0 .133-.402 2.524 2.524 0 0 0 .016-.164v-.034a.295.295 0 0 1 .02-.086.478.478 0 0 1 .072-.114 1.2 1.2 0 0 1 .06-.062l.026-.027a.66.66 0 0 0 .078-.096c.002-.005.004-.01.004-.016a.048.048 0 0 0-.006-.021.14.14 0 0 0-.014-.024 4.917 4.917 0 0 0-.062-.068l-.008-.01a.334.334 0 0 1-.074-.101.191.191 0 0 1-.018-.108.244.244 0 0 1 .03-.088.118.118 0 0 1 .05-.045l.026-.01.004-.001a.086.086 0 0 0 .015-.008.123.123 0 0 0 .024-.024.143.143 0 0 0 .035-.066.257.257 0 0 0 .006-.04l.002-.042v-.012a.495.495 0 0 1 .005-.04.286.286 0 0 1 .041-.112.349.349 0 0 1 .1-.106.203.203 0 0 1 .115-.03.387.387 0 0 1 .05.003l.03.004a.327.327 0 0 0 .133 0 .578.578 0 0 0 .111-.041.06.06 0 0 0 .012-.01.071.071 0 0 0 .012-.017l.008-.02a.324.324 0 0 1 .033-.057.61.61 0 0 1 .076-.082 2.654 2.654 0 0 0-.004-.154.552.552 0 0 0-.006-.064l-.002-.002a.246.246 0 0 0-.02-.026 1.567 1.567 0 0 0-.083-.078l-.072-.06a.92.92 0 0 1-.05-.045c-.01-.01-.022-.02-.03-.032a.262.262 0 0 1-.028-.052l-.025-.063-.004-.011a.22.22 0 0 0-.018-.043.11.11 0 0 0-.015-.024l-.014-.012a.06.06 0 0 0-.027-.007h-.008a.173.173 0 0 0-.004 0zm1.562.158a.236.236 0 0 0-.046.006.2.2 0 0 0-.036.011.314.314 0 0 0-.1.075.757.757 0 0 0-.036.04l-.032.038a.751.751 0 0 1-.052.054.27.27 0 0 1-.075.05.211.211 0 0 1-.023.007 1.109 1.109 0 0 1-.182.04l-.046.005h-.016a.536.536 0 0 0-.08.021.25.25 0 0 0-.076.045l-.016.012a1.142 1.142 0 0 1-.078.059.54.54 0 0 1-.065.039l-.013.01a.894.894 0 0 0-.135.103.305.305 0 0 0-.057.08l-.01.018a.153.153 0 0 1-.07.08.314.314 0 0 1-.056.025.528.528 0 0 1-.18.035.507.507 0 0 1-.055-.004l-.05-.007a.155.155 0 0 0-.063 0 .097.097 0 0 0-.025.011.25.25 0 0 0-.07.073.18.18 0 0 0-.026.072.473.473 0 0 0-.004.049l-.002.021v.012a.511.511 0 0 1-.014.082.231.231 0 0 1-.043.078.243.243 0 0 1-.052.05.193.193 0 0 1-.045.024l-.012.004-.004.002-.004.002v.002l-.004.002a.137.137 0 0 0-.013.033.095.095 0 0 0 0 .031c.002.02.012.04.023.055l.006.01a.332.332 0 0 0 .035.04c.01.013.023.024.035.036l.008.01c.02.022.04.044.055.07a.175.175 0 0 1 .021.076.139.139 0 0 1-.008.05.336.336 0 0 1-.072.107 1.29 1.29 0 0 1-.027.027l-.037.035a1.418 1.418 0 0 0-.067.074.232.232 0 0 0-.045.09.171.171 0 0 0-.004.031v.02a2.398 2.398 0 0 1-.013.154 1.552 1.552 0 0 1-.026.16 1.085 1.085 0 0 1-.117.3 1.052 1.052 0 0 1-.068.1l-.043.055-.014.018-.01.016a36.169 36.169 0 0 1-.76.853l-.007.01-.035.045.006.002.043.006.015.002a.558.558 0 0 0 .037.005l.02-.021.213-.213.056-.057a12.041 12.041 0 0 1 .366-.347 3.248 3.248 0 0 1 .191-.156 1.113 1.113 0 0 1 .133-.08.362.362 0 0 1 .066-.026h.002l.014-.012a2.044 2.044 0 0 1 .111-.095l.084-.069.133-.107a13.559 13.559 0 0 0 .26-.219 1.816 1.816 0 0 0 .187-.178l-.004-.01-.004-.007a.585.585 0 0 1-.046-.207.454.454 0 0 1 .015-.121.229.229 0 0 1 .059-.104.176.176 0 0 1 .04-.025.24.24 0 0 1 .05-.012 1.333 1.333 0 0 1 .15 0c.037.001.074.004.111.008l.094.008a2.608 2.608 0 0 0 .106.008h.015a.431.431 0 0 0 .063-.01.146.146 0 0 0 .058-.032c.01-.01.02-.022.026-.035a.301.301 0 0 0 .029-.076.585.585 0 0 0 .021-.13l.002-.042V18.1a1.646 1.646 0 0 1 .012-.096l.004-.027.002-.014c.007-.052.01-.104.016-.156l.011-.114a3.467 3.467 0 0 1 .02-.18.633.633 0 0 1 .02-.08.152.152 0 0 1 .013-.025.091.091 0 0 1 .031-.031.408.408 0 0 1 .133-.05c.03-.007.059-.01.088-.015a.916.916 0 0 0 .068-.013.254.254 0 0 0 .02-.01.041.041 0 0 0 .002-.002.041.041 0 0 0 .008-.008.033.033 0 0 0 .002-.002.033.033 0 0 0 .002-.002.033.033 0 0 0 0-.002.048.048 0 0 0 .002-.007l.001-.006.004-.014a1.688 1.688 0 0 0 .022-.187 2.512 2.512 0 0 0 .006-.3.777.777 0 0 0-.012-.08.22.22 0 0 0-.014-.042.254.254 0 0 0-.043-.004h-.004zm.655.512l-.018.007a1.35 1.35 0 0 1-.215.07.915.915 0 0 1-.146.024.53.53 0 0 1-.125 0l-.008.037v.004a.148.148 0 0 1-.014.04.15.15 0 0 1-.03.036.23.23 0 0 1-.095.045 1.23 1.23 0 0 1-.058.01l-.035.006-.016.002a.86.86 0 0 0-.023.004.237.237 0 0 0-.1.037l-.002.002a.424.424 0 0 0-.012.049 3.749 3.749 0 0 0-.023.173l-.01.114-.002.035a1.788 1.788 0 0 1-.017.15l-.004.031a1.525 1.525 0 0 0-.01.1l-.004.047a.664.664 0 0 1-.023.146.361.361 0 0 1-.047.116.232.232 0 0 1-.026.033.233.233 0 0 1-.088.057.47.47 0 0 1-.103.02 1.122 1.122 0 0 1-.086 0l-.068-.007-.086-.008-.096-.007a.653.653 0 0 0-.11-.002.2.2 0 0 0-.054.007.077.077 0 0 0-.027.03.224.224 0 0 0-.02.066.45.45 0 0 0 .053.258l.002.004.006.02v.02l-.01.018a.917.917 0 0 1-.055.061 3.317 3.317 0 0 1-.187.178l-.149.125-.228.183-.028.024a2.834 2.834 0 0 0-.187.156l-.012.01-.014.006h-.005a.277.277 0 0 0-.047.015.994.994 0 0 0-.12.073 3.223 3.223 0 0 0-.193.16 13.897 13.897 0 0 0-.385.369l-.13.129a3.508 3.508 0 0 0 .082-.026l.046-.017.077-.033.023-.01a3.39 3.39 0 0 1 .246-.094l.008-.004a1.419 1.419 0 0 0 .246-.152 1.069 1.069 0 0 0 .104-.088l.023-.024.014-.013a2.412 2.412 0 0 1 .95-.582 2.794 2.794 0 0 1 .298-.078l.006-.002a.192.192 0 0 1 .027-.002h.006a.606.606 0 0 1 .06.006l.07.01.016.001a1.559 1.559 0 0 0 .137.012.254.254 0 0 0 .047-.004.136.136 0 0 0 .03-.008.091.091 0 0 0 .036-.035.135.135 0 0 0 .01-.03.64.64 0 0 0 .01-.071l.002-.038.002-.021.002-.012a.225.225 0 0 1 .03-.095.142.142 0 0 1 .036-.036l.025-.015a2.11 2.11 0 0 0 .069-.045.412.412 0 0 0 .09-.076.09.09 0 0 0 .015-.022.082.082 0 0 0 .004-.021v-.032l-.002-.04v-.014a.045.045 0 0 0-.004-.014.4.4 0 0 0-.021-.035l-.016-.023-.006-.01a.487.487 0 0 1-.027-.041.289.289 0 0 1-.033-.102.433.433 0 0 1 .03-.195.918.918 0 0 1 .058-.117l.011-.018.004-.008a.092.092 0 0 1 .053-.037.146.146 0 0 1 .076.004c.003.001.006.004.01.004a1.446 1.446 0 0 1 .084.04l.03.017a.822.822 0 0 0 .068.033.14.14 0 0 0 .007-.024l.004-.021.002-.01a.234.234 0 0 1 .006-.02.132.132 0 0 1 .014-.03 3.171 3.171 0 0 0 .125-.135l.07-.079a3.905 3.905 0 0 1 .063-.07l.004-.004-.002-.02a.413.413 0 0 1-.002-.06.466.466 0 0 1 .025-.129 1.408 1.408 0 0 1 .057-.13 4.262 4.262 0 0 1 .064-.116l.014-.021a.07.07 0 0 0 .006-.014.099.099 0 0 0 0-.05l-.002-.009a.233.233 0 0 0-.041-.078.166.166 0 0 0-.067-.049.05.05 0 0 0-.011-.001h-.008zm-15.307.328a1.416 1.416 0 0 0-.277.027H4.13l.006.004.006.002a.45.45 0 0 1 .07.04.21.21 0 0 1 .03.026.993.993 0 0 1 .091.112 1.154 1.154 0 0 1 .145.267c.043.102.075.208.109.313l.01.033a3.881 3.881 0 0 0 .086.226 1.507 1.507 0 0 0 .115.217 1.225 1.225 0 0 0 .205.235 6.626 6.626 0 0 0 .21.187 7.409 7.409 0 0 0 .733.559c.127.084.256.163.389.236a4.136 4.136 0 0 0 .5.232 2.392 2.392 0 0 0 .15.05 2.888 2.888 0 0 0-.076-.223l-.015-.014a11.638 11.638 0 0 1-.762-.676 7.628 7.628 0 0 1-.348-.361 5.457 5.457 0 0 1-.29-.352 3.806 3.806 0 0 1-.194-.281 2.634 2.634 0 0 1-.15-.273 1.927 1.927 0 0 1-.096-.248.7.7 0 0 1-.026-.168v-.004l-.006-.002a1.233 1.233 0 0 0-.396-.149 1.192 1.192 0 0 0-.209-.015h-.006zm4.342 1.478a5.898 5.898 0 0 0 .406.346h5.606a6.39 6.39 0 0 1 .002 0 6.39 6.39 0 0 0 .406-.346h-6.42zm-.686.283a1.05 1.05 0 0 1 .006.137c0 .068-.006.137-.01.205l-.002.02a1.363 1.363 0 0 0 0 .215.66.66 0 0 0 .055.197c.02.04.047.075.072.113.018.027.05.09.088.133a4.557 4.557 0 0 1 .272.205 3.102 3.102 0 0 1 .299.305 7.7 7.7 0 0 1 .158.193l.13.164.038.049.12.146a3.633 3.633 0 0 0 .52.53l-.011-.032a12.86 12.86 0 0 1-.094-.28l-.06-.186a13.14 13.14 0 0 0-.182-.52 3.944 3.944 0 0 0-.11-.254 2.01 2.01 0 0 0-.113-.195 1.078 1.078 0 0 0-.146-.158 1.881 1.881 0 0 0-.12-.098l-.119-.086-.234-.148a5.595 5.595 0 0 1-.184-.125.645.645 0 0 1-.05-.043.283.283 0 0 1-.04-.045l-.019-.031a13.103 13.103 0 0 1-.08-.125l-.098-.153-.02-.033a4.995 4.995 0 0 0-.066-.1zm1.235.166a5.28 5.28 0 0 0 .279.192 4.158 4.158 0 0 0 .258.15h4.25a5.327 5.327 0 0 0 .537-.342H9.303zm-2.408.342v.002h.001a1.596 1.596 0 0 1 .124.264 3.123 3.123 0 0 1 .103.324l.027.098c.01.042.023.084.034.125a11.747 11.747 0 0 0 .058.207c.014.045.03.09.045.134.015.04.032.08.05.118a.726.726 0 0 0 .104.15.57.57 0 0 0 .05.047 2.082 2.082 0 0 0 .318.244c.086.055.175.107.267.154.137.07.278.13.422.186.17.065.34.12.514.17a9.7 9.7 0 0 0 .531.135 14.297 14.297 0 0 0 .68.136h.007l-.015-.006-.014-.007a2.936 2.936 0 0 1-.139-.077 2.544 2.544 0 0 1-.421-.308 3.399 3.399 0 0 1-.16-.156 4.969 4.969 0 0 1-.268-.3c-.086-.101-.168-.207-.252-.312a2.358 2.358 0 0 0-.576-.61l-.031-.02a3.758 3.758 0 0 0-1.094-.57 13.67 13.67 0 0 0-.352-.124l-.013-.004zm8.837.055a.165.165 0 0 0-.015.002.144.144 0 0 0-.047.012.304.304 0 0 0-.068.048 1.249 1.249 0 0 0-.084.1l-.036.05a1.338 1.338 0 0 1-.066.087.28.28 0 0 1-.078.058.218.218 0 0 1-.031.01.33.33 0 0 1-.096.016h-.084a1.25 1.25 0 0 0-.049 0c-.01 0-.02.003-.03.006a.122.122 0 0 0-.023.007.157.157 0 0 0-.04.032.34.34 0 0 0-.046.054l-.021.03-.01.011a.595.595 0 0 1-.031.041.302.302 0 0 1-.07.057.344.344 0 0 1-.047.021.695.695 0 0 1-.063.028l-.064.021a.302.302 0 0 0-.078.035.175.175 0 0 0-.037.034.162.162 0 0 0-.016.035.278.278 0 0 0-.014.06.79.79 0 0 0-.01.114 337.894 337.894 0 0 1-.007.125.741.741 0 0 1-.018.1.17.17 0 0 1-.039.073.238.238 0 0 1-.035.03l-.045.029-.01.008a.385.385 0 0 0-.056.047.207.207 0 0 0-.047.101.673.673 0 0 0-.012.116l-.002.05a4.375 4.375 0 0 1-.01.1.791.791 0 0 1-.011.06.428.428 0 0 1-.036.106v.002l-.015.016-.02.01h-.004l-.004.001a.082.082 0 0 0-.023.014.32.32 0 0 0-.041.049.749.749 0 0 0-.045.072l-.025.045-.01.016a1.783 1.783 0 0 1-.082.125.725.725 0 0 1-.03.035l.01-.004A6.71 6.71 0 0 0 14.1 22a1.105 1.105 0 0 0 .158-.082 1.16 1.16 0 0 0 .22-.182.786.786 0 0 0 .047-.056.591.591 0 0 0 .067-.16l.021-.069a2.54 2.54 0 0 1 .037-.115.33.33 0 0 1 .041-.07.198.198 0 0 1 .067-.059.312.312 0 0 1 .117-.039.32.32 0 0 1 .09.004l.03.004.03.002c.007 0 .013 0 .02-.002a.046.046 0 0 0 .012-.006.07.07 0 0 0 .011-.01l.002-.002.004-.002a.031.031 0 0 0 .002-.006.031.031 0 0 0 0-.002.544.544 0 0 0 .008-.056l.002-.041v-.031a.683.683 0 0 1 .018-.104.383.383 0 0 1 .021-.06.28.28 0 0 1 .037-.057.498.498 0 0 1 .098-.092.625.625 0 0 1 .084-.053.205.205 0 0 1 .058-.017.38.38 0 0 1 .045-.002h.008a.339.339 0 0 1 .055.006.23.23 0 0 1 .117.064.483.483 0 0 1 .023.024l.02.021a.248.248 0 0 0 .016.018v.002l.003-.002a.026.026 0 0 0 .002 0 .026.026 0 0 0 .002-.002.026.026 0 0 0 .002-.002.029.029 0 0 0 .002-.002.029.029 0 0 0 .002-.002.029.029 0 0 0 .002-.006.078.078 0 0 0 .006-.022l.002-.01v-.01a.493.493 0 0 0 0-.038v-.041c0-.025.003-.05.01-.074l.002-.008a.138.138 0 0 1 .011-.028l.004-.005a.113.113 0 0 1 .01-.014h.002l.006-.008.004-.002a.103.103 0 0 1 .015-.012l.006-.003a.176.176 0 0 1 .008-.004h.002l.006-.006.01-.016.078-.103.013-.018-.001-.004-.016-.015-.014-.016-.004-.006a.37.37 0 0 1-.021-.023.193.193 0 0 1-.03-.065.303.303 0 0 1-.003-.058.86.86 0 0 1 .01-.082l.005-.05a1.34 1.34 0 0 0 .01-.113.28.28 0 0 0-.004-.05.092.092 0 0 0-.004-.016.052.052 0 0 0-.006-.01.034.034 0 0 0-.005-.006.034.034 0 0 0-.002-.002.034.034 0 0 0-.002-.002.034.034 0 0 0-.002 0l-.01-.003a.165.165 0 0 0-.065-.014zm-5.691.05l.033.016a4.6 4.6 0 0 0 .436.186 4.215 4.215 0 0 0 1.853.236 4.355 4.355 0 0 0 1.483-.418l.043-.02H10.04zm7.207.3a.188.188 0 0 0-.064.015.667.667 0 0 0-.086.037l-.09.049a3.872 3.872 0 0 1-.1.05.516.516 0 0 1-.086.03l-.017.004a3.484 3.484 0 0 0-.307.105l-.111.05a4.02 4.02 0 0 1-.172.068.954.954 0 0 1-.084.023.457.457 0 0 1-.131.004c-.026-.002-.052-.008-.078-.012l-.012-.002a.375.375 0 0 0-.058-.002.083.083 0 0 0-.022.004l-.002.002-.002.002-.002.002-.002.002v.002l-.002.004a.31.31 0 0 0-.006.045v.045l.002.014a1.103 1.103 0 0 1-.002.03.217.217 0 0 1-.025.096.128.128 0 0 1-.086.059.1.1 0 0 1-.05-.004.124.124 0 0 1-.038-.023.29.29 0 0 1-.025-.026l-.02-.021a.245.245 0 0 0-.035-.033.135.135 0 0 0-.098-.028.235.235 0 0 0-.027.004h-.006a.29.29 0 0 0-.066.037.547.547 0 0 0-.104.098.164.164 0 0 0-.02.037.43.43 0 0 0-.02.107l-.007.07v.016a.446.446 0 0 1-.011.077.132.132 0 0 1-.037.054.162.162 0 0 1-.133.043l-.057-.006-.01-.002a.344.344 0 0 0-.062 0 .18.18 0 0 0-.068.026.236.236 0 0 0-.012.008l-.008.006a.104.104 0 0 0-.016.017.323.323 0 0 0-.03.06.88.88 0 0 0-.022.061l-.02.07a2.69 2.69 0 0 1-.045.133.51.51 0 0 1-.094.147 1.04 1.04 0 0 1-.236.199 1.301 1.301 0 0 1-.308.146l-.194.07a19.35 19.35 0 0 1-.656.216l.09-.006a47.637 47.637 0 0 1 .685-.041l.205-.01h.016l.014-.004a2.295 2.295 0 0 0 .164-.057c.057-.02.113-.043.17-.066.127-.054.255-.11.38-.168a24.518 24.518 0 0 1 .217-.094 3.065 3.065 0 0 1 .233-.086.667.667 0 0 1 .105-.02h.012a.1.1 0 0 1 .039.01.101.101 0 0 1 .022.014.159.159 0 0 1 .043.067.4.4 0 0 1 .011.033l.01.03.004.01a.447.447 0 0 0 .023.052.078.078 0 0 0 .006.008.035.035 0 0 0 .002.001.035.035 0 0 0 .006.004.035.035 0 0 0 .006.004.035.035 0 0 0 .004.002.29.29 0 0 0 .187.002.394.394 0 0 0 .14-.072.24.24 0 0 0 .013-.012l.007-.008a.054.054 0 0 0 .006-.007.085.085 0 0 0 .006-.02.55.55 0 0 0 .004-.076v-.061a1.088 1.088 0 0 1-.002-.037.306.306 0 0 1 .024-.117.179.179 0 0 1 .072-.078.15.15 0 0 1 .078-.02h.004a.236.236 0 0 1 .056.008 1.116 1.116 0 0 1 .12.043l.046.022a2.296 2.296 0 0 0 .088.035.328.328 0 0 0 .05.012.122.122 0 0 0 .044-.006.24.24 0 0 0 .065-.035l.025-.018a.489.489 0 0 1 .031-.02l.006-.004.002-.001a.06.06 0 0 0 .025-.034.158.158 0 0 0 .008-.045.46.46 0 0 0 .004-.045v-.05a.779.779 0 0 1 .018-.123.361.361 0 0 1 .07-.133.315.315 0 0 1 .094-.076l.053-.03.01-.004a.297.297 0 0 0 .034-.023.063.063 0 0 0 .022-.045.407.407 0 0 0 .002-.053l-.004-.054v-.018a.469.469 0 0 1 .002-.088.227.227 0 0 1 .023-.074.272.272 0 0 1 .065-.074.736.736 0 0 1 .053-.041l.05-.037.018-.012a.746.746 0 0 0 .072-.06.173.173 0 0 0 .02-.024.101.101 0 0 0 .015-.049.325.325 0 0 0-.002-.1.506.506 0 0 0-.05-.154.19.19 0 0 0-.02-.03.095.095 0 0 0-.025-.02.047.047 0 0 0-.006-.003.038.038 0 0 0-.01 0zm-5.299.576a.437.437 0 0 0-.105.011.951.951 0 0 0-.106.028 2.233 2.233 0 0 0-.125.043l-.123.047-.033.013a2.538 2.538 0 0 1-.238.078.848.848 0 0 1-.158.022 4.334 4.334 0 0 1-.252-.002l-.131-.006-.045-.002a3.674 3.674 0 0 0-.227 0 .7.7 0 0 0-.088.014.097.097 0 0 0-.02.008.101.101 0 0 0-.007.015.58.58 0 0 0-.025.153 2.24 2.24 0 0 0-.01.203v.316c0 .064-.001.127-.004.19v.003a1.594 1.594 0 0 0 .148.08l.108.055a8.098 8.098 0 0 1 .199.106 4.272 4.272 0 0 1 .53.345l.025.02.021.006-.004-.016a2.203 2.203 0 0 1-.023-.084v-.017a.053.053 0 0 1 .02-.037l.005-.003.004-.002.006-.006a.611.611 0 0 0 .074-.065c.025-.024.047-.049.07-.074l.014-.014.012-.011a2.743 2.743 0 0 1-.272-.27 7.037 7.037 0 0 1-.109-.123l-.033-.039a13.887 13.887 0 0 0-.115-.127 3.38 3.38 0 0 0-.25-.242 2.206 2.206 0 0 0-.088-.07l-.002-.002-.006-.006a.053.053 0 0 1 .031-.086h.022a.051.051 0 0 1 .013.006l.006.004a2.607 2.607 0 0 1 .381.355l.086.1.025.027h.002l.026-.014.066-.039.018-.01c.07-.04.139-.08.213-.113a1.174 1.174 0 0 1 .168-.058.465.465 0 0 1 .09-.012 1.47 1.47 0 0 1 .126-.008h.014a1.744 1.744 0 0 1 .64.127 1.967 1.967 0 0 1 .227.106l.006.001a.443.443 0 0 1 .082-.048l.067-.032.037-.015.021-.01a1.46 1.46 0 0 0 .15-.08c.083-.05.159-.11.231-.174l.008-.008.002-.002.008-.004a.054.054 0 0 1 .017-.005h.012l.01.002a.054.054 0 0 1 .027.02.053.053 0 0 1 0 .064l-.006.005-.016.012a1.716 1.716 0 0 1-.376.254c-.032.016-.065.03-.098.045l-.014.006a.66.66 0 0 0-.09.049l-.052.045a.623.623 0 0 0-.079.101 2.39 2.39 0 0 0-.148.266v.002a2.592 2.592 0 0 1 .252.195h.002c.004.004.004.006.006.01a.053.053 0 0 1 .01.04v.012a.852.852 0 0 0 .162-.1 1.82 1.82 0 0 0 .224-.202l.082-.082.088-.086c.04-.038.08-.077.123-.112a1.67 1.67 0 0 1 .254-.173l.002-.016a2.157 2.157 0 0 0 .018-.527.503.503 0 0 0-.022-.09.13.13 0 0 0-.013-.026.127.127 0 0 0-.026-.023.277.277 0 0 0-.09-.033.614.614 0 0 0-.13-.016 1.503 1.503 0 0 0-.168.002 5.572 5.572 0 0 0-.127.01l-.13.01a6.12 6.12 0 0 1-.212.011 1.542 1.542 0 0 1-.162-.006 1.204 1.204 0 0 1-.313-.09l-.039-.017-.047-.02-.03-.01a2.89 2.89 0 0 0-.089-.034.966.966 0 0 0-.166-.041.462.462 0 0 0-.041-.002h-.008zm-4.838.365a1.159 1.159 0 0 0-.232.016 1.008 1.008 0 0 0-.309.109 1.354 1.354 0 0 0-.28.201v.002a3.662 3.662 0 0 1 .015-.002.526.526 0 0 1 .08-.004.288.288 0 0 1 .082.018l.013.006a1.521 1.521 0 0 1 .16.087 5.989 5.989 0 0 1 .288.182l.148.098c.142.093.286.185.432.273.09.055.182.108.275.158a4.29 4.29 0 0 0 .432.204 2.256 2.256 0 0 0 .394.113 4.833 4.833 0 0 0 .493.056 9.314 9.314 0 0 0 .71.008 12.221 12.221 0 0 0 .91-.058c.123-.01.244-.024.366-.04a6.81 6.81 0 0 1-.16-.056l-.008-.002a2.765 2.765 0 0 1-.03-.006l-.066-.01a23.292 23.292 0 0 1-.812-.136 13.77 13.77 0 0 1-.59-.125 9.113 9.113 0 0 1-.543-.145 6.132 6.132 0 0 1-.7-.26 3.8 3.8 0 0 1-.21-.103 2.754 2.754 0 0 1-.551-.383 1.963 1.963 0 0 1-.055-.053.61.61 0 0 1-.097-.136 1.728 1.728 0 0 0-.155-.012zm9.069.627l-.024.002a.046.046 0 0 0-.017.008.07.07 0 0 0-.014.011.093.093 0 0 0-.02.05.222.222 0 0 0-.003.028.446.446 0 0 0 0 .057l.002.04v.015a1.101 1.101 0 0 1 0 .037.25.25 0 0 1-.03.113.15.15 0 0 1-.021.028.354.354 0 0 1-.076.06.486.486 0 0 1-.307.068.34.34 0 0 1-.09-.027.124.124 0 0 1-.037-.027.232.232 0 0 1-.049-.09.966.966 0 0 1-.008-.022l-.011-.029a1.002 1.002 0 0 0-.018-.043.06.06 0 0 0-.004-.008.386.386 0 0 0-.092.02 1.217 1.217 0 0 0-.12.04 10.834 10.834 0 0 0-.305.13l-.131.06a9.29 9.29 0 0 1-.323.137 3.723 3.723 0 0 1-.289.104l-.007.002-.014.001h-.033l-.035.002a29.173 29.173 0 0 0-1.055.065l-.281.02-.008.029a83.206 83.206 0 0 0 1.06.09l.07.003c.01 0 .022 0 .032.002a.796.796 0 0 1 .224.059l.061.025.086.032a.5.5 0 0 0 .178.021c.06-.002.12-.01.18-.017l.085-.014a5.742 5.742 0 0 1 .217-.026 2.862 2.862 0 0 1 .25-.01h.067a.13.13 0 0 1 .02.003.184.184 0 0 1 .07.029.39.39 0 0 1 .025.018l.02.013a.267.267 0 0 0 .044.024h.006c.01 0 .02 0 .03-.002a.076.076 0 0 0 .04-.02l.01-.008a.274.274 0 0 1 .018-.013.124.124 0 0 1 .07-.018.234.234 0 0 1 .076.018l.047.023.031.02.012.007a.47.47 0 0 0 .035.018.197.197 0 0 0 .14.016.197.197 0 0 0 .04-.014.144.144 0 0 0 .06-.05l.026-.038.004-.008a.18.18 0 0 1 .04-.045.578.578 0 0 1 .057-.037l.038-.021a.49.49 0 0 0 .12-.098.06.06 0 0 0 .012-.021.213.213 0 0 0 .006-.067v-.023l-.002-.014a.42.42 0 0 1 .008-.072.13.13 0 0 1 .08-.092.125.125 0 0 1 .043-.01.217.217 0 0 1 .1.022.644.644 0 0 1 .052.021l.043.022.016.006a.624.624 0 0 0 .084.03.094.094 0 0 0 .027 0 .097.097 0 0 0 .016-.007.381.381 0 0 0 .059-.047.967.967 0 0 0 .04-.045l.038-.045a.84.84 0 0 1 .084-.088.27.27 0 0 1 .197-.076.62.62 0 0 1 .037 0l.037.002a.31.31 0 0 0 .045-.002.041.041 0 0 0 .008-.002.02.02 0 0 0 .002 0 .02.02 0 0 0 .002-.002l.002-.002.004-.003a.14.14 0 0 0 .04-.116.085.085 0 0 0-.007-.025.043.043 0 0 0-.008-.012.017.017 0 0 0 0-.002.017.017 0 0 0-.002 0 .017.017 0 0 0-.002-.002.017.017 0 0 0-.002 0h-.017a1.443 1.443 0 0 1-.217-.004 1.28 1.28 0 0 1-.46-.136l-.007.005a.538.538 0 0 1-.039.026.286.286 0 0 1-.053.025.228.228 0 0 1-.133.004.864.864 0 0 1-.107-.039l-.068-.03a2.226 2.226 0 0 0-.082-.032.282.282 0 0 0-.045-.01zm-4.032.35a.083.083 0 0 0-.023.01.243.243 0 0 0-.063.046.486.486 0 0 0-.037.04l-.005.005a.053.053 0 0 1-.065.008l-.006-.004a.407.407 0 0 0-.008-.008l-.01-.006a.456.456 0 0 0-.083-.05.25.25 0 0 0-.069-.02.186.186 0 0 0-.11.02.296.296 0 0 0-.034.019 4.269 4.269 0 0 0-.235.227.709.709 0 0 1-.03.023l-.003.004.004.017a2.977 2.977 0 0 0 .092.29l.008.02s.131.261.15.286a.436.436 0 0 0 .086.082.177.177 0 0 0 .031.016.051.051 0 0 0 .014.002.071.071 0 0 0 .023-.004.259.259 0 0 0 .028-.01l.029-.012a.795.795 0 0 1 .08-.029.488.488 0 0 1 .14-.014.749.749 0 0 1 .104.03l.04.013a1.303 1.303 0 0 0 .087.028.201.201 0 0 0 .026.002c.01 0 .019-.001.027-.006a.04.04 0 0 0 .006-.002l.006-.006a.478.478 0 0 0 .084-.07 1.126 1.126 0 0 0 .185-.325 2.4 2.4 0 0 0 .084-.29v-.002a2.835 2.835 0 0 0-.152-.12 4.298 4.298 0 0 0-.272-.168.65.65 0 0 0-.113-.043h-.016zm-.76.724a6.571 6.571 0 0 1-.847.143l-.043.004a2.641 2.641 0 0 1-.297.002l-.191-.01-.04-.004a3.767 3.767 0 0 0-.154-.002.608.608 0 0 0-.107.014.136.136 0 0 0-.02.007.043.043 0 0 0-.015.014.035.035 0 0 0-.004.006.047.047 0 0 0-.002.014v.013a.23.23 0 0 0 .014.051.433.433 0 0 0 .064.11l.03.035.01.015v.002a3.328 3.328 0 0 0 .18.18.76.76 0 0 0 .132.094l.08.044-.002-.015.006-.02a.066.066 0 0 1 .01-.015.113.113 0 0 1 .048-.03.349.349 0 0 1 .057-.017 1.333 1.333 0 0 1 .127-.028 4.307 4.307 0 0 1 .176-.027l.132-.017.057-.008a6.893 6.893 0 0 0 .197-.033 1.428 1.428 0 0 0 .131-.034.462.462 0 0 0 .123-.07.65.65 0 0 0 .184-.223.89.89 0 0 0 .03-.06l-.005-.008a1.534 1.534 0 0 1-.06-.127zm1.221.158a.88.88 0 0 1-.074.108l.002.006a.732.732 0 0 0 .082.154.46.46 0 0 0 .176.15.256.256 0 0 0 .045.016.82.82 0 0 0 .11.023 3.42 3.42 0 0 0 .255.034l.137.015a12.066 12.066 0 0 1 .232.031 1.464 1.464 0 0 1 .143.032.181.181 0 0 1 .01.004.112.112 0 0 1 .044.033.071.071 0 0 1 .006.01l.006.019-.004.022-.011.019-.018.012-.012.004a.968.968 0 0 0-.011.004l-.006.003a.746.746 0 0 0 .299-.146 1.034 1.034 0 0 0 .25-.281c.016-.026.032-.053.046-.08l.004-.008a.031.031 0 0 0-.002-.006.031.031 0 0 0-.002-.006.038.038 0 0 0-.002-.002.038.038 0 0 0-.007-.008.038.038 0 0 0-.008-.004.096.096 0 0 0-.004-.001l-.006-.002a1.372 1.372 0 0 0-.182-.018l-.12.006-.102.004-.028.002a2.678 2.678 0 0 1-.353-.002l-.047-.004a5.163 5.163 0 0 1-.271-.033 6.885 6.885 0 0 1-.577-.11zm-2.873.358a.226.226 0 0 1-.05.029.39.39 0 0 1-.079.025.864.864 0 0 1-.101.022 1.641 1.641 0 0 1-.18.015 5.174 5.174 0 0 1-.385.004 7.652 7.652 0 0 1-.634-.045h-.01l.02.008.107.037a4.64 4.64 0 0 1 .19.073 1.091 1.091 0 0 1 .105.054.398.398 0 0 1 .066.051.21.21 0 0 1 .02.027.115.115 0 0 1 .017.06.14.14 0 0 1-.004.034.199.199 0 0 1-.021.049.324.324 0 0 1-.057.076.761.761 0 0 1-.11.096l-.001.002.41.045.145.015.025.004a3.255 3.255 0 0 0 .17.012 2.556 2.556 0 0 0 .603-.047 1.889 1.889 0 0 0 .286-.086 1.247 1.247 0 0 0 .17-.084l.003-.004a13.057 13.057 0 0 1-.4-.213 1.635 1.635 0 0 1-.082-.052.782.782 0 0 1-.07-.059 2.018 2.018 0 0 1-.153-.148zm5.522.11a2.416 2.416 0 0 0-.153.007c-.1.006-.2.015-.3.027l-.252.031-.043.006-.069.01a1.86 1.86 0 0 1-.148.01.303.303 0 0 1-.027-.002l-.01-.004a.125.125 0 0 1-.055-.02 1.045 1.045 0 0 1-.273.204.875.875 0 0 1-.43.086.237.237 0 0 0-.03.033.051.051 0 0 0-.007.011.012.012 0 0 0 0 .002.012.012 0 0 0 0 .002.012.012 0 0 0 0 .002.012.012 0 0 0 0 .002.252.252 0 0 0 .004.012.044.044 0 0 0 .006.01.16.16 0 0 0 .035.025.301.301 0 0 0 .076.03.81.81 0 0 0 .13.029 1.835 1.835 0 0 0 .161.017 5.096 5.096 0 0 0 .61.006 10.811 10.811 0 0 0 .324-.017l.07-.004.014-.002a1.35 1.35 0 0 1 .312.017 2 2 0 0 1 .227.051h.004l-.014-.016-.014-.015a2.48 2.48 0 0 1-.136-.174.832.832 0 0 1-.051-.088.366.366 0 0 1-.014-.033.161.161 0 0 1-.004-.09.106.106 0 0 1 .02-.035.169.169 0 0 1 .033-.033.26.26 0 0 1 .057-.032.427.427 0 0 1 .11-.029 1.135 1.135 0 0 1 .19-.015 3.514 3.514 0 0 0-.353-.022z" fill-rule="evenodd"/></svg>