<svg viewBox="0 0 24 24" xmlns="http://www.w3.org/2000/svg" role="img"><path d="M16.336 23.613a8.686 8.686 0 0 0-.776-.285c-1.204-.396-2.25-.997-3.083-1.772-.554-.516-.565-.518-1.026-.176-.788.584-1.48 1.013-2.193 1.36-.732.356-1.339.559-1.92.641-.278.04-.287.038-.42-.036-.323-.181-.912-1.346-1.257-2.484-.179-.591-.307-1.545-.308-2.297 0-.322-.014-.328-.878-.395-.83-.063-.992-.086-1.5-.21a10.143 10.143 0 0 1-2.131-.789c-.565-.289-.692-.446-.627-.78.018-.092.057-.303.086-.47.165-.942.775-2.184 1.527-3.108a14.9 14.9 0 0 1 .458-.532 3.09 3.09 0 0 0 .259-.311c.046-.087.014-.144-.242-.423-.447-.486-.971-1.238-1.363-1.951a5.53 5.53 0 0 1-.526-1.277c-.155-.521-.195-.615-.319-.756-.203-.232-.127-.335.611-.825.978-.65 1.856-.98 2.971-1.114a11.4 11.4 0 0 1 1.02-.027c.78.008.863-.005.891-.14.008-.039.021-.372.03-.74.018-.86.137-1.525.422-2.355.215-.623.789-1.712 1.022-1.938.107-.103.116-.106.386-.106.247 0 .294.01.43.09.085.05.45.19.813.312.734.248 1.074.4 1.569.697.504.304.708.457 1.179.888.237.217.471.415.521.441.13.067.217.023.675-.342.626-.5 1.386-.985 1.953-1.248.153-.07.579-.248.947-.394.368-.147.754-.31.857-.363.221-.114.384-.124.56-.034.115.059.15.117.504.82.756 1.509 1.037 2.444 1.136 3.782.034.469.055.613.095.653.041.04.153.056.538.073a9.13 9.13 0 0 1 2.67.522c.631.218 1.524.698 1.968 1.058.125.102.135.12.135.265 0 .126-.012.159-.063.175-.1.032-.171.164-.317.587a10.126 10.126 0 0 1-1.957 3.325c-.15.17-.281.34-.293.377-.028.087.044.187.458.64.726.796 1.263 1.636 1.593 2.493.19.495.378 1.352.347 1.586-.025.181-.138.34-.332.465-.584.373-1.995.847-3.07 1.03-.488.083-1.377.191-1.57.191a.68.68 0 0 0-.277.064c-.146.074-.147.082-.175.893-.036 1.065-.3 1.966-.966 3.299-.421.843-.565 1.037-.768 1.034a.766.766 0 0 1-.274-.083zm-.252-2.28c.143-.132.336-.687.444-1.285.08-.44.081-1.499.002-1.92-.17-.905-.468-1.52-1.023-2.108-.472-.498-1.058-.928-1.851-1.357-.507-.274-.604-.294-.726-.148-.167.199-.383.925-.489 1.643-.095.647-.012 1.623.195 2.296.309 1.005 1.249 1.97 2.64 2.71.525.279.657.306.807.169zm-7.83-.158c1.273-.506 2.732-1.94 3.041-2.991a8.38 8.38 0 0 0 .194-1.164c.038-.477-.065-1.342-.24-2.022-.153-.588-.228-.662-.56-.558-.274.086-1.004.457-1.336.678-.926.618-1.706 1.584-1.986 2.46-.131.412-.149.567-.148 1.306.001.753.054 1.198.206 1.748.199.716.272.764.828.543zm11.363-4.491a10.956 10.956 0 0 0 1.53-.258c.287-.073.546-.2.596-.294.095-.179-.088-.616-.529-1.262a5.808 5.808 0 0 0-1.012-1.17c-.578-.511-.998-.776-1.525-.96-.528-.185-.724-.215-1.387-.21-.626.003-.664.008-1.8.22-.842.156-.935.284-.646.886.412.859 1.123 1.731 1.812 2.225.7.5 1.32.747 2.069.822.373.037.444.037.892 0zM5.783 16.24c1.001-.176 1.463-.41 2.19-1.113.7-.676 1.396-1.67 1.476-2.112.02-.105.01-.124-.097-.213-.237-.194-1.23-.45-2.031-.52-.897-.08-2.017.114-2.638.456-.43.237-1.189.922-1.6 1.444-.415.528-.727 1.084-.789 1.402-.028.146-.024.165.04.219.265.224.976.438 1.696.511.34.035 1.383-.01 1.753-.074zm6.241-.265c.033-.024.072-.139.101-.293.073-.382.292-1.09.418-1.347.066-.136.15-.258.208-.299.21-.15.547-.032 1.399.49.505.309.695.405.802.405.073 0 .09-.014.09-.073 0-.093-.165-.438-.45-.936-.222-.39-.376-.755-.377-.897 0-.04.02-.121.045-.181.065-.158.275-.25.903-.4.583-.14.673-.17.79-.261.128-.101.098-.144-.153-.217-.911-.263-1.554-.492-1.725-.613-.084-.06-.09-.077-.077-.233.019-.226.228-.651.578-1.176.205-.308.276-.44.276-.517 0-.225-.147-.2-.707.126-.796.462-1.1.555-1.291.393-.124-.104-.193-.277-.392-.992a9.221 9.221 0 0 0-.208-.678c-.06-.13-.19-.198-.254-.132-.024.025-.11.274-.191.553-.172.592-.297.906-.459 1.153l-.116.178-.157-.02c-.226-.03-.494-.148-.92-.405-.415-.25-.692-.376-.832-.377-.086 0-.09.005-.072.103.01.057.094.247.186.422.477.907.545 1.09.492 1.304-.04.159-.313.266-1.42.56-.306.08-.561.163-.568.184-.03.09.139.187.486.277.67.175 1.175.372 1.414.552.098.074.106.091.09.212-.024.173-.345.81-.625 1.24-.244.373-.286.475-.225.549.071.086.231.052.543-.113.753-.401 1.143-.55 1.448-.555l.19-.003.088.162c.134.248.34 1.011.454 1.678.019.111.088.216.141.216a.202.202 0 0 0 .077-.04zm6.057-4.389c.41-.082.84-.218 1.096-.348.824-.416 2.116-1.867 2.4-2.695.104-.305.094-.347-.12-.477-.537-.326-1.484-.48-2.64-.43-1.256.055-1.905.308-2.748 1.072-.83.751-1.707 2.058-1.576 2.346.077.169.745.393 1.666.558.497.09 1.405.077 1.922-.026zm-10.24-.205c.41-.068 1.238-.275 1.395-.348.371-.172.303-.471-.317-1.394-.526-.784-.896-1.164-1.58-1.625-.533-.359-1.01-.558-1.575-.656-.41-.072-1.412-.047-1.957.048-.783.137-1.283.319-1.43.519-.062.086-.062.086.008.27.176.461.627 1.15 1.071 1.636.888.97 1.82 1.457 3.076 1.607.21.025 1.036-.01 1.309-.057zm5.982-2.06c1.202-.638 2.011-1.444 2.545-2.534.157-.321.177-.389.24-.797.178-1.172-.087-2.907-.515-3.365-.087-.093-.108-.1-.25-.087-.4.039-1.128.528-1.912 1.284-.76.734-1.143 1.377-1.352 2.263-.09.385-.096 1.312-.012 1.77.118.641.358 1.463.469 1.603.12.154.297.123.787-.137zm-2.604-.034c.503-.996.58-2.725.176-3.914-.181-.533-.479-.973-.996-1.474-.863-.837-2.16-1.563-2.355-1.316-.122.154-.285.536-.365.856-.235.93-.2 2.279.082 3.173.27.855.896 1.574 2.047 2.35.614.414 1.098.623 1.259.544.03-.016.099-.114.152-.22z"/></svg>