<svg viewBox="0 0 24 24" xmlns="http://www.w3.org/2000/svg" role="img"><path d="M7.607 23.845c-.928-.622-1.806-1.57-2.191-2.366-.285-.587-.362-.921-.363-1.563 0-.474.017-.602.148-1.067.028-.101.042-.192.031-.203a1.21 1.21 0 0 0-.27-.043c-.533-.049-.893-.221-1.535-.738-.309-.248-.527-.397-.72-.493l-.278-.139-.444.001H1.54l-.354.128c-.53.19-.574.2-.602.156a4.25 4.25 0 0 1-.094-.5c-.061-.4-.07-.568-.07-1.23 0-.825.024-1.031.177-1.562.096-.334.319-.804.515-1.087a3.91 3.91 0 0 1 .715-.75c.158-.121.644-.434.71-.456.02-.007-.032-.085-.125-.186-.404-.442-.547-.828-.621-1.678-.06-.687-.146-.972-.39-1.296a2.26 2.26 0 0 0-.362-.361c-.21-.16-.875-.51-.967-.51-.09 0-.055-.079.175-.389.85-1.147 1.577-1.792 2.444-2.17a3.553 3.553 0 0 1 2.3-.181c.18.047.341.086.358.086.017 0 .04-.103.051-.228.055-.607.166-.83.873-1.747.456-.593.548-.829.52-1.341A3.2 3.2 0 0 0 6.552.873C6.478.691 6.462.625 6.489.6c.044-.046.794-.15 1.387-.192a5.26 5.26 0 0 1 2.155.271c.523.185.974.476 1.363.877.212.22.587.737.662.915l.04.093.22-.193c.396-.344.74-.47 1.533-.556.897-.097 1.2-.21 1.582-.592.223-.223.256-.272.482-.73L16.157 0l.15.107c.39.277.944.727 1.195.968.619.596 1.12 1.358 1.313 1.992.21.695.212 1.328.006 2.067l-.071.254.278.02c.152.012.347.041.431.066.33.098.72.338 1.205.74.53.438.81.569 1.27.59.34.016.567-.028 1.108-.215.204-.071.38-.123.39-.117a.485.485 0 0 1 .04.168c.01.086.037.275.061.421.168 1.03.114 2.071-.148 2.837-.311.911-.977 1.705-1.779 2.12-.17.09-.173.073.06.314.287.295.423.673.527 1.466.082.626.11.77.197 1.013.185.512.45.767 1.171 1.125.281.14.415.221.413.253-.008.12-.713.99-1.136 1.4-.57.554-1.088.908-1.656 1.13-.732.286-1.582.332-2.247.121-.321-.101-.31-.106-.325.15-.035.574-.198.913-.8 1.654-.436.537-.569.831-.592 1.31-.018.355.026.586.213 1.122l.125.36-.18.03c-.728.126-.834.135-1.596.134-.685 0-.799-.007-1.076-.067-.959-.208-1.679-.595-2.193-1.179-.191-.217-.467-.622-.535-.785l-.044-.104-.212.178c-.396.332-.742.455-1.567.558-.897.113-1.15.2-1.483.51-.243.228-.38.429-.618.91a4.734 4.734 0 0 1-.201.379c-.007 0-.117-.07-.244-.155zm8.788-1.043c.098-.015.11-.025.097-.081a4.604 4.604 0 0 1-.071-.929c.027-.545.217-.934.841-1.716.69-.864.718-1.133.244-2.305a6.95 6.95 0 0 1-.207-.55c0-.052 0-.052.693.334.703.39.96.499 1.347.566.395.068 1.053.045 1.336-.046.569-.184 1.024-.482 1.602-1.047a9.32 9.32 0 0 0 .48-.492l.055-.078-.265-.198c-.38-.283-.625-.56-.783-.883-.168-.345-.234-.613-.323-1.298-.156-1.215-.27-1.355-1.551-1.93-.237-.106-.435-.207-.44-.223-.005-.016.204-.084.465-.151.261-.068.546-.146.632-.174a5.994 5.994 0 0 0 1.028-.486c.7-.475 1.136-1.314 1.241-2.386.037-.38.023-1.137-.023-1.183-.02-.02-.114-.015-.29.016-.797.139-1.487-.048-2.145-.581-.749-.606-.91-.703-1.266-.759-.335-.053-.634.008-1.201.242a8.339 8.339 0 0 1-.702.258c-.033 0 .05-.167.236-.471.576-.947.785-1.58.749-2.27-.042-.793-.415-1.52-1.168-2.273-.416-.417-.564-.538-.584-.48-.023.07-.195.31-.327.458-.316.351-.814.665-1.229.774a7.495 7.495 0 0 1-.678.107c-.642.077-.864.124-1.096.232-.357.167-.584.473-.892 1.203-.2.474-.265.61-.285.59a5.862 5.862 0 0 1-.129-.453c-.273-1.046-.51-1.558-.93-2.011-.464-.502-1.184-.82-2.078-.922-.316-.035-1.202-.016-1.245.028-.012.012-.002.125.022.251.063.334.057.841-.014 1.12-.102.399-.234.615-.913 1.493-.254.329-.404.621-.432.843-.033.268.054.678.242 1.133.203.493.29.733.27.753-.008.008-.285-.138-.615-.325-.982-.556-1.247-.644-1.93-.644-.358 0-.485.011-.669.062-.7.192-1.169.482-1.854 1.148-.343.333-.457.495-.379.539.25.14.694.564.871.83.268.403.366.732.44 1.484.079.797.17 1.053.475 1.344.21.199.466.346.955.546.388.158.631.274.614.292a19.5 19.5 0 0 1-.718.207c-1.006.28-1.38.467-1.827.92-.406.412-.668.917-.8 1.542-.045.221-.096 1.6-.061 1.69.014.037.043.037.217-.002.276-.06.798-.058 1.056.003.53.127.847.303 1.49.828.177.145.414.306.557.377l.249.125.356-.002.356-.002.5-.179c.276-.098.573-.207.66-.242.088-.035.166-.057.174-.048.008.008-.13.27-.31.583-.472.827-.593 1.143-.66 1.733-.095.846.18 1.577.916 2.432.244.284.718.723.78.723a.064.064 0 0 0 .056-.038c.049-.127.415-.553.605-.704.465-.37.822-.493 1.777-.613.551-.07.737-.116.98-.245.266-.141.456-.37.67-.809.181-.373.348-.74.41-.905.042-.11.055-.093.108.134.172.745.52 1.656.76 1.985.366.505.864.853 1.511 1.057.493.155 1.439.227 1.967.149zm-5.896-5.948c-.078-.067-.08-.075-.045-.192.02-.067.044-.121.054-.121a.59.59 0 0 1 .117.06c.094.06.1.06.116.008.067-.21.106-.23.236-.118.07.06.077.082.06.178-.027.138-.086.163-.196.082-.106-.078-.117-.079-.117-.002 0 .084-.053.175-.103.175-.022 0-.078-.032-.122-.07zm-1.662-.087c0-.009.328-.145.73-.303 1.14-.45 2.073-.953 2.161-1.167.047-.112-.014-.272-.193-.51-.127-.169-.147-.222-.134-.355.011-.11.057-.117.156-.022a.66.66 0 0 0 .176.123c.158.06.61.066 1.335.02 1.276-.08 1.46-.141 1.518-.505.06-.36.141-.285.278.258.187.743.224.78.754.751.17-.009.36-.031.42-.049.125-.037.288-.163.288-.223 0-.023-.101-.158-.225-.3-.314-.362-.394-.494-.394-.646 0-.07.014-.134.031-.145.033-.02.295.184.316.246.007.02-.016.035-.054.035-.054 0-.02.048.188.263.268.278.302.346.277.539-.057.423-.864.767-1.302.555-.236-.114-.301-.253-.43-.922-.018-.093-.042-.17-.053-.17-.012 0-.044.067-.073.149-.059.164-.183.267-.39.32-.241.063-1.162.131-1.805.134-.36 0-.656.009-.655.017 0 .008.02.048.043.088.054.094.056.328.004.45-.067.161-.193.284-.503.49-.787.526-1.173.69-1.904.81-.424.07-.56.087-.56.07zm-1.43-.05a.565.565 0 0 1 .186-.076c.291-.083 1.127-.424 1.486-.607.408-.207.495-.293.495-.488 0-.105-.03-.192-.132-.38-.105-.194-.129-.264-.114-.334.02-.107.041-.111.116-.027.054.06.074.062.425.043.44-.022.637-.058.737-.131.112-.083.107-.145-.021-.28a4.745 4.745 0 0 1-.431-.535c-.09-.134-.114-.398-.037-.398.064 0 .338.262.275.264-.089.002-.058.058.14.252.236.233.31.35.31.495 0 .143-.057.252-.196.374-.186.163-.313.203-.682.213a1.9 1.9 0 0 0-.33.023c0 .008.02.068.042.133.061.17.057.408-.01.54-.115.224-.53.547-.844.654-.172.06-1.276.295-1.38.295-.03 0-.045-.013-.035-.03zm7.036-.284c-.126-.075-.128-.079-.109-.198a.408.408 0 0 1 .044-.147c.035-.035.259.114.282.188.02.06-.033.235-.07.235a.887.887 0 0 1-.147-.078zm-5.307-2.079c-.118-.058-.126-.07-.11-.154.027-.134.057-.147.187-.08.135.068.165.12.125.224-.034.09-.04.09-.202.01zm1.924-1.26a.55.55 0 0 1-.162-.2c-.062-.125-.07-.183-.07-.481 0-.273.013-.372.063-.506l.062-.166-.07-.07c-.096-.096-.132-.312-.098-.586.03-.233.102-.488.148-.516.037-.024.034.015-.017.212-.065.25-.06.497.014.57.096.096.25.076.55-.07.495-.24 1.16-.693 1.16-.789 0-.065-.162-.176-.553-.38-.333-.172-.603-.374-.706-.527-.082-.122-.097-.386-.022-.386.063 0 .456.201.456.234 0 .014-.036.038-.08.053l-.081.027.13.094c.071.052.254.153.405.225.152.072.317.16.367.195.104.074.2.265.202.396.002.293-.15.473-.73.862-.406.273-.59.374-.845.463-.171.06-.176.065-.215.208a2.757 2.757 0 0 0-.057.413c-.015.242-.011.272.048.346.079.1.229.11.367.024.087-.054.157-.135.54-.621.202-.257.399-.443.612-.578.17-.107.192-.112.517-.134.187-.013.391-.034.455-.047l.115-.024.157-.471c.206-.62.185-.569.216-.513.015.026.049.202.076.392l.05.346-.091.176-.091.177.271-.018c.374-.025.609-.1.912-.293.141-.09.27-.163.287-.163.017 0 .03.045.03.099 0 .137.113.296.218.309.172.02.335-.1.446-.328.08-.165.132-.176.132-.028 0 .147.07.213.224.213.17 0 .205-.031.164-.148-.045-.13-.042-.27.007-.338.038-.053.043-.05.091.043.06.116.07.382.02.535-.084.253-.332.326-.513.151a.54.54 0 0 0-.116-.095c-.01 0-.046.047-.08.105a.488.488 0 0 1-.442.209c-.125-.02-.262-.157-.288-.286-.021-.105-.04-.108-.148-.018-.224.187-.57.343-.759.344-.154 0-.183.038-.11.141a.506.506 0 0 1 .08.4c-.035.234-.217.34-.437.257-.174-.066-.366-.357-.397-.6a.357.357 0 0 0-.072-.178c-.05-.049-.077-.051-.26-.023a2.745 2.745 0 0 1-.332.032c-.247 0-.554.264-1.037.89-.22.287-.318.39-.413.436-.153.074-.185.074-.3.004zm3.055-.925c0-.085-.127-.235-.244-.288-.224-.102-.26-.058-.105.13.123.15.349.252.349.158zm-.272-.952c.045-.032.065-.075.063-.14-.002-.08-.048-.246-.055-.196a3.127 3.127 0 0 1-.073.2c-.075.19-.06.223.065.136zm1.215 1.761c-.194-.088-.24-.177-.178-.342.036-.093.066-.095.183-.01.116.086.149.173.109.287-.033.094-.041.098-.114.066zM8.2 12.932c-.246-.11-.36-.46-.276-.844.038-.172.243-.707.272-.707.037 0 .025.069-.052.294-.104.306-.167.637-.144.758.039.207.226.274.448.16.123-.065.268-.21.63-.637.29-.342.436-.479.661-.623.297-.19.515-.232.711-.139.15.071.203.21.157.415a.519.519 0 0 1-.048.155.857.857 0 0 1-.13-.122c-.11-.115-.124-.12-.25-.107-.314.036-.693.34-1.234.988-.33.397-.53.506-.745.409zm7.142-.095c-.1-.068-.111-.087-.095-.167.035-.174.091-.19.259-.075.076.053.077.06.043.177-.02.068-.048.127-.064.133-.016.005-.08-.025-.143-.068zm-6.785-1.453c-.227-.059-.359-.174-.462-.402-.088-.196-.11-.702-.043-.992.05-.216.218-.614.258-.614.037 0 .035.01-.067.306-.269.775-.035 1.344.552 1.345.32 0 .853-.212 1.335-.534.39-.26.39-.275-.01-.38-.296-.078-.519-.184-.573-.271-.055-.088-.047-.345.015-.537.119-.366.447-.836.662-.947.125-.065.252-.055.306.022.072.103.055.363-.03.462-.006.006-.05-.03-.096-.08-.08-.085-.094-.09-.178-.06-.193.066-.633.676-.583.806.023.059.213.14.523.224.157.043.274.094.333.147.083.074.091.097.09.254a.683.683 0 0 1-.055.272c-.159.306-.849.774-1.37.928-.194.058-.489.083-.607.051zm7.2-.831a1.004 1.004 0 0 1-.153-.115c-.018-.03.078-.295.107-.295.011 0 .078.043.148.097.137.104.177.225.114.344-.042.078-.054.077-.217-.031zm.414-.102c-.06-.041-.11-.095-.11-.119 0-.064.08-.248.109-.248.013 0 .076.03.141.067.131.074.159.152.102.29-.043.104-.1.107-.242.01zm-5.181-.345c0-.134-.088-.944-.196-1.801-.198-1.565-.21-1.748-.111-1.78.034-.012.153.233.249.511.079.23.076.26-.018.199-.074-.049-.075-.049-.059.021.045.191.282 2.198.282 2.388 0 .237-.081.705-.122.705-.014 0-.025-.11-.025-.243zm4.812-.01c-.121-.073-.126-.08-.107-.184a.731.731 0 0 1 .046-.16c.025-.049.033-.05.122-.004.211.106.262.198.193.349-.043.094-.095.094-.254-.001z"/></svg>