<svg role="img" viewBox="0 0 24 24" xmlns="http://www.w3.org/2000/svg"><path d="M8.128 23.801c0-.16-.159-.406-.494-.763-.596-.637-.64-.724-.686-1.344a2.937 2.937 0 0 0-.057-.453c-.016-.042-.122-.147-.236-.234a2.343 2.343 0 0 1-.58-.662c-.158-.262-.215-.43-.29-.852-.01-.055-.025-.057-.375-.046-.396.012-.488-.003-.87-.14a1.904 1.904 0 0 1-.722-.478l-.149-.152-.174.038c-.258.056-.78.055-1-.002-.249-.064-.587-.23-.899-.439-.341-.23-.5-.3-.783-.343l-.235-.037.143-.158a.938.938 0 0 0 .176-.266c.018-.058.041-.41.052-.783l.021-.677.089-.178c.06-.122.187-.284.401-.511l.313-.333-.025-.186a4.924 4.924 0 0 1-.022-.522c.002-.302.011-.363.093-.602.109-.32.182-.45.367-.653.19-.208.186-.25-.043-.452-.285-.253-.347-.404-.418-1.04-.076-.672-.137-.792-.498-.982-.273-.143-.445-.31-.54-.52a4.203 4.203 0 0 1-.17-.624C.39 8.784.348 8.68.064 8.3L0 8.217l.17-.02c.296-.034.513-.167.935-.573.532-.512.678-.575 1.41-.609l.371-.017.081-.143c.107-.189.478-.54.73-.69a2.43 2.43 0 0 1 .84-.298c.094-.01.172-.025.172-.035 0-.009-.013-.091-.028-.182-.068-.42.123-1.004.469-1.428l.19-.234c.059-.072.061-.117.042-.723a2.83 2.83 0 0 1 .197-1.037c.075-.178.15-.291.487-.73l.108-.14-.017-.315c-.019-.355.002-.39.134-.217.14.184.295.235.934.307.75.085 1.151.227 1.548.546.325.261.323.26.981.285.316.011.625.035.687.053.183.054.45.216.63.383.093.086.185.15.204.142.02-.008.16-.11.313-.229.447-.344.746-.459 1.327-.508.228-.019.232-.02.292-.12.209-.35.533-.65.892-.83.234-.117.391-.166.77-.24.417-.08.602-.166.763-.355.071-.083.143-.146.16-.14.017.006.04.07.05.143.032.223.195.514.527.941.608.783.671.92.715 1.55l.02.274.133.068c.372.188.803.952.903 1.598.017.108.034.21.039.229.006.021.133.036.382.044.299.009.404.023.53.073.213.084.451.233.753.472l.254.2.203-.057c.484-.137 1.134.033 1.892.495.302.183.455.238.816.289l.151.021-.104.124c-.23.275-.295.521-.296 1.123 0 .76-.064.939-.478 1.352-.304.303-.327.35-.28.6a2.35 2.35 0 0 1-.014.81 2.8 2.8 0 0 1-.416.832l-.125.154.203.208c.345.351.564.89.638 1.57l.032.298.156.064c.19.079.505.384.646.624.143.244.27.606.352 1.014.07.343.173.603.239.603a.74.74 0 0 1 .156.16l.131.162-.254.034c-.144.019-.305.06-.374.095-.067.034-.241.184-.388.333-.505.513-.907.69-1.7.745l-.286.02-.104.156a2.154 2.154 0 0 1-1.517.943l-.173.02-.018.159c-.058.513-.16.803-.405 1.153-.329.47-.31.42-.276.77a2.752 2.752 0 0 1-.6 2.005c-.17.21-.19.277-.19.624 0 .15-.01.273-.023.273a.46.46 0 0 1-.119-.1c-.2-.209-.342-.249-1.091-.306-.822-.063-.926-.1-1.314-.472-.287-.275-.477-.407-.598-.417-.039-.003-.168.044-.286.104-.214.108-.217.109-.375.076-.207-.044-.903-.385-1.092-.535-.172-.136-.108-.152-.634.16-.441.263-.778.368-1.182.369h-.142l-.107.2c-.14.258-.232.36-.449.497-.227.144-.288.17-.927.386-.293.1-.638.238-.767.306-.175.093-.266.125-.357.125-.117 0-.123-.004-.123-.08zm.825-1.14c.26-.046.525-.168.655-.302.105-.108.276-.485.389-.855l.075-.248.38.096c.515.129.892.14 1.124.03.278-.13.42-.335.48-.69a.86.86 0 0 0-.142-.67c-.145-.216-.347-.375-.855-.678a8.81 8.81 0 0 1-.586-.375 1.741 1.741 0 0 1-.457-.562c-.083-.164-.076-.165-.427.036-.061.035-.242.042-1.11.043-1.134.002-1.115 0-1.382.175-.275.18-.415.476-.392.827.018.279.11.452.337.635.204.166.538.335.828.42l.204.061-.018.104c-.01.057-.063.236-.116.398-.06.182-.102.377-.112.512-.015.209-.012.226.086.425.114.23.387.534.55.612.12.057.2.058.489.007zm7.73-.353c.199-.042.361-.209.525-.54.102-.205.125-.283.136-.451.017-.26-.021-.375-.272-.828-.145-.263-.185-.358-.16-.38a7.33 7.33 0 0 1 .376-.25c.579-.368.752-.622.728-1.066-.014-.264-.076-.407-.259-.59a.894.894 0 0 0-.54-.27c-.239-.04-.534.008-1.047.172-.648.207-.902.239-1.244.156-.301-.073-.31-.07-.38.147a2.665 2.665 0 0 1-.098.26c-.087.172-.319.437-.65.743-.469.431-.637.627-.76.881-.087.18-.1.238-.1.408 0 .242.087.443.278.637.193.196.345.259.616.256.27-.003.465-.064.892-.279.167-.084.313-.152.324-.152.012 0 .093.135.182.301.332.624.509.769 1.03.843.252.036.258.036.423.001zm-3.621-3.851c.39-.331.656-.63.786-.885.101-.199.14-.422.158-.888.01-.25.022-.456.028-.456.046 0 .257.135.373.239.418.37.96.45 1.706.252l.663-.176.392-.104.031-.267c.018-.146.055-.373.083-.504.03-.14.051-.348.05-.505 0-.232-.012-.295-.09-.493a2.63 2.63 0 0 0-.619-.907c-.109-.096-.198-.191-.198-.212 0-.051.142-.094.42-.125.704-.08.967-.279 1.452-1.094.133-.223.29-.48.348-.572.132-.205.134-.264.012-.344-.056-.036-.184-.194-.31-.384-.48-.72-.973-1.005-1.81-1.043-.407-.019-.448-.027-.448-.093 0-.03.055-.12.122-.203.5-.613.593-1.096.372-1.921l-.173-.646c-.102-.386-.108-.4-.18-.4-.04 0-.262-.031-.493-.07-.907-.151-1.163-.083-1.932.516-.216.168-.401.3-.412.294-.04-.025-.107-.29-.135-.538-.037-.333-.117-.495-.36-.73a5.185 5.185 0 0 0-.591-.445c-.225-.147-.548-.36-.718-.474a3.454 3.454 0 0 0-.332-.206.885.885 0 0 0-.167.12c-.08.068-.245.19-.368.274-.355.241-.55.454-.697.76-.163.337-.218.588-.24 1.086-.01.265-.028.407-.049.414-.018.006-.118-.066-.224-.16-.243-.216-.455-.346-.666-.407-.136-.04-.244-.045-.603-.034a2.966 2.966 0 0 0-.843.118c-.224.057-.489.119-.589.138l-.182.034-.016.419c-.01.275-.033.482-.066.601a.969.969 0 0 0-.034.388c.044.515.197.85.595 1.296.194.217.292.354.292.408 0 .019-.078.04-.19.051-.273.028-.63.116-.784.194-.44.223-.83.679-1.014 1.18-.048.132-.1.207-.242.342-.264.254-.257.318.084.682.094.1.273.31.4.466.25.31.35.404.522.492.27.138.411.168.88.188.267.012.469.033.487.05.047.048.01.127-.188.394-.265.358-.328.501-.342.776a7.722 7.722 0 0 0 .095 1.298c.024.117.068.278.098.358l.054.146.33.017c.18.01.521.04.757.066.798.09 1.097-.014 1.788-.622.165-.146.317-.265.336-.265.053 0 .095.154.126.462.016.154.047.345.069.424.05.174.238.437.42.587.182.15 1.505.993 1.546.985.019-.003.212-.157.43-.342zM11.8 16.084a.565.565 0 0 1-.283-.226c-.056-.103-.078-.324-.051-.515.036-.258.18-.717.25-.8l.058-.066-.015.098-.043.28c-.066.438-.005.762.154.801.1.025.303-.005.414-.061.05-.026.289-.242.531-.482.266-.263.533-.498.673-.592l.232-.157.016-.266c.02-.307.07-.43.248-.603.11-.107.115-.12.115-.283a.62.62 0 0 1 .088-.342c.106-.207.327-.461.44-.508.106-.044.293.003.354.09s.053.282-.018.42l-.06.119-.038-.09c-.08-.194-.238-.199-.43-.013-.248.238-.176.375.304.578.297.126.487.245.536.336.044.082.025.56-.029.721-.038.113-.208.351-.285.4-.038.023-.135.007-.417-.066-.483-.125-.734-.142-.901-.061-.125.06-.44.353-.905.84-.32.336-.385.384-.587.437-.187.049-.213.05-.35.01zm3.14-1.749c0-.137-.147-.333-.265-.353-.071-.013-.13.1-.121.228.006.081.025.107.105.147a.51.51 0 0 0 .19.05c.079 0 .09-.01.09-.072zm-.612-.143c.112-.102.032-.262-.157-.314-.133-.036-.206-.013-.256.082-.064.125-.05.165.079.223.147.067.266.07.334.009zm-5.135 1.842a.698.698 0 0 1-.453-.408c-.057-.124-.065-.183-.065-.505 0-.421.08-.91.149-.91.027 0 .035.019.023.062a3.946 3.946 0 0 0-.035.388c-.022.38 0 .477.15.63.254.262.567.29 1.123.102.465-.157.877-.372 1.068-.557l.151-.146-.017-.21a1.158 1.158 0 0 0-.254-.664c-.08-.106-.13-.201-.13-.248 0-.11.126-.516.164-.529.054-.018.194.146.226.263.016.06.082.323.146.583.137.561.137.703 0 .984-.108.219-.443.605-.68.784-.36.272-.774.409-1.226.405a1.975 1.975 0 0 1-.34-.024zm2.821-.902a7.863 7.863 0 0 1-.017-.666c0-.318-.013-.621-.028-.673a.689.689 0 0 0-.18-.238c-.125-.118-.16-.173-.2-.31-.095-.33.009-.787.271-1.197.116-.181.243-.332.28-.332.023 0 .206.378.23.48.013.053.002.086-.04.125-.115.104-.137.185-.112.412.027.236.041.272.11.272.086 0 .22-.104.611-.477.214-.204.469-.429.567-.5l.178-.13-.017-.223-.016-.224.21-.2c.115-.112.21-.207.211-.212l.025-.311c.03-.383.102-.544.344-.763.21-.19.292-.204.317-.05.04.253.059.3.128.34.1.056.226-.005.263-.13.014-.05.037-.091.05-.091.012 0 .08.058.148.129.084.086.14.123.17.112a.96.96 0 0 1 .112-.034c.095-.024.086-.103-.03-.255-.104-.135-.12-.22-.068-.368.04-.117.096-.112.221.02.326.342.15 1.069-.259 1.069a.478.478 0 0 1-.192-.084.735.735 0 0 0-.145-.084.559.559 0 0 0-.13.071c-.088.058-.128.068-.21.053-.12-.022-.24-.15-.244-.26a.766.766 0 0 0-.02-.14l-.02-.066-.08.063a.48.48 0 0 0-.122.164l-.041.1.11.098c.062.054.256.18.431.28.176.101.367.225.425.277.09.08.105.112.105.212 0 .146-.069.415-.13.509-.057.088-.23.19-.444.264-.134.046-.237.056-.573.057-.596 0-.599.003-1.227.734-.223.26-.47.524-.55.587a.954.954 0 0 0-.17.158c-.014.024-.036.284-.048.578-.029.678-.042.793-.095.875-.059.09-.088.084-.109-.021zm.165-2.082c.032-.299-.045-.656-.135-.626-.056.018-.103.14-.103.269 0 .135.072.447.118.501.065.079.101.035.12-.144zm2.838-1.34c.053-.044.042-.174-.023-.256-.074-.095-.259-.154-.32-.103-.052.043-.055.184-.007.28.065.129.241.169.35.079zm-.654-.135c.053-.052.053-.055.003-.11-.122-.136-.482-.017-.386.127.056.083.294.072.384-.017zm-4.427 3.191c-.082-.045-.294-.254-.294-.29 0-.056.164-.336.236-.403.083-.079.166-.067.297.044.08.067.088.088.077.192-.012.1-.207.49-.246.489a.304.304 0 0 1-.07-.032zm-.747-1.15c-.157-.041-.312-.192-.404-.392-.077-.167-.082-.198-.082-.541 0-.35.004-.372.084-.532a.601.601 0 0 1 .113-.175c.02-.006.026.112.018.356-.013.408.003.475.148.615.176.17.423.161.72-.028.083-.052.403-.342.713-.645.479-.468.593-.565.767-.652.158-.079.24-.103.352-.103.183 0 .224.041.202.201-.022.165-.112.242-.36.308-.386.104-.61.282-1.185.943-.431.496-.521.575-.733.639a.51.51 0 0 1-.353.007zm6.497-.579l-.162-.164.042-.095c.022-.052.072-.14.11-.193l.07-.098-.123-.136c-.068-.075-.123-.165-.123-.199 0-.06.163-.356.236-.431.03-.031.053-.03.135.004.226.094.264.225.148.509l-.07.167.116.117.114.117-.045.137c-.046.138-.225.43-.264.43-.012 0-.094-.074-.183-.165zM9.41 11.715c-.248-.063-.43-.206-.512-.405-.106-.254-.068-.828.074-1.122l.054-.112-.015.112-.032.24a.708.708 0 0 0 .21.584c.156.156.28.2.572.2.5 0 1.222-.332 1.364-.627.092-.19.085-.201-.173-.286a3.436 3.436 0 0 1-.364-.143l-.133-.067v-.217c0-.119.013-.264.03-.321.07-.256.518-.785.744-.88.096-.04.108-.04.174.01.156.116.18.177.153.389l-.024.193-.049-.09c-.059-.111-.164-.122-.34-.036-.22.106-.483.425-.458.555.006.031.143.1.415.206l.406.16-.01.15c-.05.768-.867 1.483-1.742 1.523a1.609 1.609 0 0 1-.344-.016zm2.728-.17a.45.45 0 0 1-.296-.241c-.044-.092-.046-.13-.019-.302.04-.25.123-.51.158-.492.015.008.022.052.015.098-.034.232-.015.326.083.413.084.075.107.083.218.067.242-.033.873-.378 1.22-.667.14-.117.369-.438.4-.558.034-.138-.315-.319-.937-.486-.52-.14-.559-.184-.54-.612.003-.097.016-.133.047-.133.063 0 1.217.525 1.34.61.13.089.243.274.276.45.06.323-.136.784-.479 1.123a3.988 3.988 0 0 1-.892.654c-.2.098-.424.126-.594.075zm-.123-1.742c-.015-.438-.066-1.74-.095-2.45-.014-.335-.013-.343.066-.484.09-.16.136-.179.163-.066a2.5 2.5 0 0 0 .12.296l.102.22-.038.173c-.062.283-.072.485-.047.973.034.686.009 1.193-.074 1.495-.06.22-.102.296-.163.298-.01 0-.026-.205-.034-.455zm-2.96.175c0-.023.011-.061.026-.084.025-.038.028-.038.028 0a.185.185 0 0 1-.028.084c-.024.037-.027.037-.027 0zm5.632-.662c-.099-.055-.124-.083-.116-.132.013-.083.167-.37.229-.426.047-.042.059-.041.164.013a1 1 0 0 0 .126.058c.007 0 .04-.045.074-.099.097-.157.146-.17.323-.08.112.057.153.094.153.137 0 .083-.127.328-.21.407-.067.062-.079.064-.201.031l-.13-.034-.082.099c-.096.117-.155.122-.33.025zm.183-.81c-.08-.082-.096-.114-.082-.176.021-.093.182-.37.215-.37.036 0 .197.085.252.134.09.08.044.29-.1.447-.082.09-.17.079-.285-.036zM5.573 18.22c.182-.093.349-.26.441-.443.078-.154.082-.18.08-.498-.002-.305-.012-.37-.108-.687-.246-.814-.275-1.026-.2-1.452.025-.143.04-.27.032-.283-.008-.013-.064-.031-.123-.04-.182-.03-.492-.206-.698-.396a7.706 7.706 0 0 1-.483-.518c-.2-.234-.346-.377-.474-.462-.724-.48-1.463-.22-1.571.553-.045.32.008.526.259 1.016l.152.296-.102.063a14.32 14.32 0 0 1-.348.201c-.311.175-.505.357-.602.566-.066.141-.077.205-.086.5-.012.422.012.489.244.667.22.17.402.263.593.302.265.056.43.016.899-.216.231-.115.43-.209.443-.209.012 0 .038.035.057.078.06.133.331.525.469.678.242.27.469.372.794.357a.778.778 0 0 0 .332-.073zm13.938-.994c.307-.11.587-.506.769-1.09.05-.16.09-.245.116-.245.023 0 .195.052.383.116.305.104.371.117.622.12.261.002.29-.004.433-.082.178-.097.477-.368.565-.51.053-.085.058-.122.042-.293-.024-.262-.142-.61-.267-.785-.123-.175-.238-.238-.753-.413-.451-.153-.425-.1-.3-.62.096-.403.107-.754.03-.979-.107-.31-.427-.524-.833-.555a.544.544 0 0 0-.349.06c-.336.154-.496.337-.919 1.053-.289.49-.5.73-.803.91l-.191.116c-.005.004.039.131.097.283l.106.276v.434c0 .24-.01.637-.024.885-.023.42-.02.465.036.649.099.325.31.58.554.667.137.05.553.05.686.003zM3.873 12.152a1.63 1.63 0 0 0 .525-.475c.043-.064.169-.277.28-.475a5.98 5.98 0 0 1 .312-.508c.153-.202.46-.456.623-.514.073-.026.133-.057.133-.07 0-.012-.039-.099-.086-.193a1.764 1.764 0 0 1-.126-.356c-.051-.24-.05-.821 0-1.255.049-.41.024-.644-.094-.896a.963.963 0 0 0-.466-.49c-.328-.162-.672-.156-.924.014a2.685 2.685 0 0 1-.231.14c-.07.036-.12.103-.218.297-.069.138-.126.283-.126.321 0 .039-.03.137-.068.218a2.452 2.452 0 0 0-.082.195c-.016.053.014.06-.576-.108-.313-.089-.363-.096-.49-.07-.332.066-.462.139-.751.42-.23.221-.275.28-.276.353a.746.746 0 0 1-.04.195c-.035.1-.034.116.014.183.03.04.085.176.125.303.059.188.095.253.2.358.156.156.486.32.851.423.147.042.27.078.274.082a.81.81 0 0 1-.063.157.73.73 0 0 0-.07.292c-.001.077-.02.24-.042.364-.062.343-.055.515.027.67.039.072.07.149.07.17 0 .054.265.215.476.29.26.09.594.076.82-.035zm16.628-1.43a.94.94 0 0 0 .416-.434c.053-.107.063-.174.063-.409V9.6l-.203-.42a3.854 3.854 0 0 1-.204-.464c0-.024.048-.067.106-.094.244-.116.647-.375.766-.494.189-.187.227-.32.243-.832l.013-.426-.248-.16A4.934 4.934 0 0 0 21 6.452c-.185-.088-.222-.096-.384-.083-.156.012-.237.044-.64.254l-.46.24-.078-.145c-.13-.242-.404-.628-.52-.732-.304-.275-.758-.357-1.075-.193-.113.059-.376.311-.427.41-.068.13-.089.35-.066.706.018.288.04.392.148.728.194.599.205.672.161 1.103-.043.424-.043.425.177.497.358.118.587.307 1.206 1 .217.244.443.421.671.529.177.083.575.061.788-.043zM6.993 6.377c1.08-.285 1.172-.299 1.54-.226.177.036.252.04.28.018a1.44 1.44 0 0 0 .141-.283c.163-.393.303-.563.81-.98.282-.232.498-.492.63-.756.096-.194.103-.226.103-.462 0-.212-.011-.275-.065-.38a.955.955 0 0 0-.762-.526c-.246-.017-.466.044-.898.248a4.074 4.074 0 0 1-.38.166c-.015 0-.075-.098-.134-.218-.231-.468-.525-.786-.798-.866-.194-.056-.677-.066-.82-.016-.24.085-.526.556-.598.99-.024.143.06.39.243.718.185.332.247.489.198.505-.078.026-.51.3-.703.445-.236.178-.324.327-.373.628-.081.505.195.945.668 1.064.176.045.611.012.918-.069zm7.088-.568l.228-.105h.462c.255 0 .658.012.897.025.366.02.463.018.61-.02.343-.089.596-.279.727-.545.067-.135.079-.196.079-.385 0-.202-.009-.241-.097-.402-.166-.308-.51-.552-.989-.707a7.78 7.78 0 0 1-.297-.099 1.151 1.151 0 0 1 .061-.212c.119-.346.193-.673.196-.864.004-.226-.073-.386-.322-.676-.232-.27-.38-.361-.583-.36-.208 0-.504.08-.744.202-.175.088-.208.118-.302.277a3.257 3.257 0 0 0-.219.533c-.061.195-.13.37-.154.39-.033.028-.088.02-.286-.04-.35-.107-.55-.137-.806-.124-.269.014-.43.082-.613.26-.196.19-.25.319-.263.636-.01.244-.005.285.058.42.141.304.453.57 1.094.931.446.252.637.416.79.68.108.184.191.29.228.29.01 0 .12-.047.245-.105z"/></svg>