<svg viewBox="0 0 24 24" xmlns="http://www.w3.org/2000/svg" role="img"><path d="m6.643 23.91-.1-.09.052-.11.051-.11-.045.025c-.044.026-.048.024-.15-.054-.065-.05-.104-.094-.104-.114 0-.037.146-.323.178-.35.026-.022.188.123.203.182l.01.043.025-.049c.1-.196.142-.259.166-.245.055.03.172.158.182.197a.258.258 0 0 1-.006.105c-.02.077-.109.22-.144.233-.014.005-.054-.01-.088-.037l-.063-.046.053.057c.097.104.104.169.035.31-.042.084-.095.143-.129.142a.444.444 0 0 1-.126-.09zm.113-.455c.013.007.012.003-.002-.012-.019-.02-.024-.02-.038.002a.096.096 0 0 0-.015.042c0 .009.008.003.017-.013.01-.016.027-.025.038-.019zm-6.023.502a.552.552 0 0 1-.383-.315c-.044-.095-.05-.126-.055-.325a1.635 1.635 0 0 1 .11-.68c.096-.257.317-.672.358-.672.034 0 .015.086-.049.222a4.56 4.56 0 0 0-.124.299c-.158.429-.146.67.04.83.11.093.21.12.436.119a.872.872 0 0 0 .353-.054c.256-.085.479-.26.597-.47a1.88 1.88 0 0 0 .207-.91c-.005-.203-.004-.208.036-.241.029-.023.055-.03.084-.023.078.02.218.03.258.02a.453.453 0 0 0 .12-.08c.07-.061.085-.069.112-.052.018.011.043.02.057.02.03 0 .094-.085.135-.18.017-.04.042-.072.056-.072.038 0 .013.14-.048.264a.41.41 0 0 1-.242.223c-.09.03-.351.167-.367.194a2.863 2.863 0 0 0-.064.271 4.185 4.185 0 0 1-.103.402c-.21.61-.618 1.08-1.055 1.209a1.114 1.114 0 0 1-.469 0zm8.881 0c-.347-.093-.486-.356-.442-.832.031-.325.125-.593.342-.98.154-.273.208-.23.071.058-.18.38-.261.733-.21.917a.491.491 0 0 0 .286.284c.138.048.42.045.588-.008.298-.092.539-.28.66-.515.129-.252.202-.595.194-.91-.004-.17-.003-.179.037-.211.028-.024.054-.03.084-.023.023.006.092.015.153.02l.111.009.097-.08c.087-.07.101-.076.135-.058.06.032.107-.005.162-.128.029-.062.06-.107.074-.107.053 0 .008.187-.075.316a.312.312 0 0 1-.163.145c-.173.08-.412.202-.42.214-.004.006-.029.12-.056.253-.062.303-.117.48-.22.7-.222.47-.568.818-.927.93-.122.038-.35.04-.481.005zm-6.395-.534c0-.029.073-.096.254-.235.196-.151.338-.31.416-.467.036-.07.104-.25.152-.4.06-.186.095-.272.112-.272.056 0 .015.3-.095.698-.068.245-.148.41-.236.485-.147.126-.603.27-.603.19zm1.177.006c0-.01.091-.082.202-.162.224-.16.384-.3.457-.401.072-.1.065-.111-.064-.111-.103 0-.114-.004-.168-.057-.031-.032-.057-.07-.057-.085 0-.107.175-.47.265-.549.05-.045.067-.05.12-.04.067.012.142.074.182.15.042.08.02.331-.046.539-.12.375-.202.496-.395.588-.203.097-.496.172-.496.128zm1.076-.018c0-.024.07-.08.257-.205.14-.094.302-.217.358-.273.091-.092.113-.127.2-.333.114-.27.169-.333.393-.45a.559.559 0 0 0 .235-.195.8.8 0 0 1 .109-.124c.045-.003-.067.349-.155.485-.045.071-.078.098-.19.156-.21.11-.285.19-.372.4-.141.345-.2.427-.355.497a1.114 1.114 0 0 1-.393.075c-.075 0-.087-.004-.087-.033zm2.306-.02c.033-.03.142-.116.242-.19.199-.144.36-.3.402-.384l.026-.054-.127-.008c-.115-.008-.131-.013-.17-.057-.063-.074-.048-.166.068-.402.112-.228.17-.289.263-.273.084.015.137.058.184.15.039.075.04.084.022.237a2.38 2.38 0 0 1-.2.648.553.553 0 0 1-.224.227c-.118.06-.36.14-.458.152l-.088.01zm4.321.034c0-.03.07-.097.256-.24a1.5 1.5 0 0 0 .386-.413 2.85 2.85 0 0 0 .158-.393c.106-.32.12-.353.143-.338.058.036-.061.636-.19.958-.078.196-.157.269-.39.36-.2.078-.363.108-.363.066zm1 .005c.006-.01.084-.062.174-.114.324-.188.496-.314.59-.433.067-.084.069-.119.007-.106a.387.387 0 0 1-.26-.069c-.048-.041-.05-.049-.044-.14a.876.876 0 0 1 .208-.43c.06-.063.078-.073.138-.073.087 0 .157.056.2.16.017.041.039.075.048.075.034 0 .156-.143.202-.235.072-.146.183-.304.274-.391a1.02 1.02 0 0 0 .132-.156c.026-.041.057-.075.07-.075.034 0 .097.072.147.17a.391.391 0 0 1-.097.494c-.052.044-.061.046-.184.036-.12-.009-.134-.007-.192.033-.084.057-.108.088-.211.276-.048.088-.112.19-.14.227-.03.037-.084.131-.122.21-.08.167-.182.303-.272.36-.149.094-.708.245-.669.18zm3.777-.002c-.24-.031-.399-.117-.467-.252-.045-.088-.047-.165-.013-.388.055-.359.128-.465.154-.22.014.133.07.199.215.252.192.072.396.09.893.08.478-.008.671-.029.967-.104.395-.099.621-.22.74-.395.038-.056.076-.096.086-.09.042.025-.044.295-.148.463-.214.347-.674.547-1.485.645a6.12 6.12 0 0 1-.942.009zm2.707-.005c0-.03.093-.116.283-.264.277-.216.387-.388.533-.841.082-.252.101-.293.13-.275.056.034-.1.747-.22 1.007a.502.502 0 0 1-.256.26c-.21.107-.47.169-.47.113zm1.985 0c0-.028.073-.096.252-.234.33-.254.402-.368.602-.964.035-.101.07-.183.08-.18.036.01.013.263-.048.51-.102.415-.174.587-.284.68-.144.121-.602.264-.602.188zm1.177.007c0-.008.098-.087.217-.175.253-.187.337-.26.425-.37.09-.115.086-.13-.038-.13-.12 0-.189-.033-.219-.105-.025-.062.008-.176.112-.382.072-.146.137-.226.195-.245.082-.026.235.084.26.188.033.13-.035.472-.145.737-.078.187-.154.273-.305.348-.197.098-.502.18-.502.134zm-7.206-.135a.722.722 0 0 1 .023-.172c.061-.297.087-.511.101-.83l.015-.32.079-.235c.043-.129.091-.258.107-.286l.028-.05.005.142a9.65 9.65 0 0 1-.058 1.107c-.046.225-.228.66-.275.66-.008 0-.02-.008-.025-.016zm5.546-.045c.005-.036.03-.176.054-.31.033-.179.048-.335.058-.588.014-.343.014-.346.085-.564.082-.253.133-.378.153-.378.015 0 .007.378-.019.874-.017.33-.043.454-.15.73-.072.183-.127.28-.167.293-.019.006-.022-.006-.014-.057zm-3.57-1.009a.406.406 0 0 1-.098-.098c-.005-.023.124-.292.168-.352.022-.028.028-.026.105.042a.47.47 0 0 1 .102.121l.021.05.033-.074c.018-.041.056-.11.083-.155l.05-.08.078.06c.094.074.137.156.121.232-.023.108-.121.264-.166.264a.515.515 0 0 1-.114-.076 1.052 1.052 0 0 0-.104-.076c-.004 0-.011.018-.016.04-.016.061-.11.18-.142.178a.404.404 0 0 1-.121-.075zm-4.613-.756c-.053-.041-.097-.087-.097-.102 0-.027.095-.226.155-.322l.033-.055.07.059c.14.12.157.191.086.345-.05.107-.086.151-.123.151a.422.422 0 0 1-.124-.076zm9.473.003a.358.358 0 0 1-.097-.098c-.005-.025.103-.258.16-.345l.024-.038.067.054c.082.066.132.145.132.208a.66.66 0 0 1-.113.263c-.04.044-.07.036-.173-.044zm-20.044-.382a.487.487 0 0 1-.105-.1c0-.02.145-.299.177-.343.023-.03.027-.03.099.03a.407.407 0 0 1 .097.112c.012.027.026.05.03.05a.755.755 0 0 0 .076-.127.884.884 0 0 1 .088-.145c.016-.013.045.006.114.076.081.08.093.101.093.159 0 .083-.086.259-.142.289-.038.02-.047.016-.132-.056a.676.676 0 0 0-.102-.078c-.006 0-.02.024-.033.054-.028.068-.108.165-.135.164a.59.59 0 0 1-.125-.085zm8.88 0a.45.45 0 0 1-.104-.102c0-.02.141-.295.176-.34.022-.03.027-.028.094.025a.405.405 0 0 1 .1.122l.03.066.054-.108c.03-.059.07-.128.087-.154l.033-.047.068.054c.132.105.159.196.096.334-.035.077-.11.168-.138.168a.393.393 0 0 1-.094-.064c-.116-.097-.114-.096-.155-.016-.04.081-.096.148-.123.147a.617.617 0 0 1-.123-.085zm3.949-.114c0-.082.26-.333.435-.418.108-.053.176-.056.43-.016.264.042.347.026.603-.119a.698.698 0 0 1 .175-.082c.023.023-.055.149-.152.244a.914.914 0 0 1-.31.227.89.89 0 0 1-.652.08c-.138-.036-.208-.025-.404.064a1.775 1.775 0 0 1-.119.051c-.003 0-.006-.014-.006-.031zm-12.648-.318a.746.746 0 0 1-.106-.099c-.015-.025.15-.36.183-.37.031-.01.172.126.191.185.022.066-.008.182-.072.28-.06.09-.09.091-.196.004zm8.867-.01c-.094-.073-.105-.088-.096-.127.013-.053.155-.316.178-.33.023-.014.146.087.176.145a.27.27 0 0 1 .004.212c-.036.083-.099.17-.128.177-.016.004-.073-.027-.134-.076zm-4.883-2.538c-.15-.128-.149-.12-.07-.284.155-.324.19-.344.333-.193l.086.09.048-.085c.084-.153.125-.199.166-.187.046.014.158.12.19.18.052.099.02.224-.096.378-.086.114-.115.114-.229.002a.405.405 0 0 0-.094-.08 4.183 4.183 0 0 0-.07.112c-.056.096-.114.156-.147.156a.733.733 0 0 1-.117-.088zm8.417-.205c-.412-.129-.518-.651-.277-1.367.064-.19.36-.874.414-.957.015-.022.039-.04.054-.04.053 0 .014.151-.127.493-.165.403-.237.633-.25.806-.012.166.015.26.1.357.094.108.211.15.417.15a.851.851 0 0 0 .67-.302c.105-.118.193-.285.185-.353-.005-.043-.019-.053-.13-.094a.528.528 0 0 1-.186-.106l-.06-.06.001-.155c0-.117.01-.182.04-.265.16-.458.546-.933.937-1.153.123-.07.186-.075.2-.018.018.07-.132.457-.199.512-.02.017-.035.015-.075-.009-.05-.028-.052-.028-.166.028a1.384 1.384 0 0 0-.446.43c-.06.113-.046.143.102.218.153.076.17.108.17.32 0 .374-.161.878-.363 1.135-.2.255-.359.375-.57.431a1.147 1.147 0 0 1-.44 0zm-11.605-.1a.647.647 0 0 1-.375-.312c-.131-.257-.1-.737.075-1.172.077-.188.213-.448.24-.456.05-.016.038.079-.036.258-.241.59-.207.909.116 1.068.213.104.504.085.792-.052.237-.114.45-.379.52-.651.017-.066.025-.183.025-.374 0-.303.016-.405.099-.646.057-.166.095-.235.125-.225.024.008.02.572-.007.82-.048.445-.18.821-.413 1.173-.202.306-.478.514-.759.574a1.019 1.019 0 0 1-.402-.006zm5.456.005c-.3-.07-.473-.354-.471-.772 0-.317.112-.687.383-1.278.114-.25.158-.317.194-.295.033.021.006.114-.144.482-.195.48-.232.614-.223.81.015.314.16.46.475.478a.937.937 0 0 0 .708-.25c.12-.113.193-.24.193-.338 0-.058-.007-.069-.076-.11-.214-.128-.23-.14-.254-.2-.081-.194.142-.641.488-.979.07-.068.128-.13.128-.137 0-.007-.02-.025-.042-.04-.023-.015-.042-.04-.042-.054 0-.054.198-.44.24-.467.038-.026.048-.025.152.007a.431.431 0 0 1 .18.098c.06.058.067.072.067.148a.271.271 0 0 1-.052.166c-.082.13-.127.17-.343.299-.21.126-.432.321-.486.427l-.027.053.096.073c.053.04.115.1.136.132.038.055.04.068.032.268a1.61 1.61 0 0 1-.162.656c-.231.532-.606.847-.999.84a.844.844 0 0 1-.15-.017zm-3.069-.858c-.011-.012-.02-.027-.02-.034 0-.025.093-.1.32-.26.301-.21.349-.261.437-.47.166-.395.218-.46.475-.605.128-.071.156-.095.202-.173.085-.143.107-.166.13-.143.043.042-.092.45-.186.564a.801.801 0 0 1-.193.14c-.198.107-.238.158-.351.449-.108.276-.163.363-.274.433-.124.079-.494.147-.54.1zm5.534-.009c-.068-.034-.206-.18-.206-.219 0-.016.029-.071.065-.123a.784.784 0 0 0 .093-.185c.028-.096.06-.47.06-.724 0-.078.016-.226.035-.328.046-.243.2-.706.234-.706s.03.17-.025.835c-.047.578-.08.743-.194.987a2.732 2.732 0 0 0-.067.148c0 .003.026.006.057.006.132 0 .293-.096.386-.23.066-.096.09-.244.112-.686.01-.213.03-.46.045-.547.04-.245.2-.706.243-.706.022 0 .022-.003-.026.58-.045.536-.034.643.073.75.119.119.292.105.447-.035.114-.103.153-.124.205-.11.07.017.102-.005.14-.1.048-.117.07-.135.133-.113.068.023.094 0 .141-.122.021-.055.047-.102.058-.106.06-.02.03.214-.046.366-.048.096-.15.201-.193.201-.013 0-.047.034-.076.076-.066.096-.124.127-.216.114-.068-.009-.074-.006-.158.082-.049.05-.122.132-.162.18-.124.15-.263.19-.41.115l-.077-.04-.037.103a1.42 1.42 0 0 1-.212.382c-.12.157-.291.22-.422.155zm5.552.003c-.017-.044.022-.097.116-.16.199-.135.413-.302.463-.363.075-.09.184-.307.297-.587a1.48 1.48 0 0 1 .12-.256c.042-.03.074-.008.074.055 0 .132-.17.68-.286.925-.099.206-.184.271-.458.35-.205.06-.313.071-.326.036zm1.154-.007c0-.036.042-.07.33-.275.206-.146.298-.243.351-.37l.025-.06-.09.009c-.157.016-.261-.077-.24-.216.014-.081.117-.316.19-.43.091-.144.17-.17.284-.095.045.029.109.136.109.182 0 .014.01.026.021.026.031 0 .162-.14.255-.272.129-.184.277-.23.391-.118a.45.45 0 0 1 .064.075c.015.024.042-.005.17-.177.084-.114.172-.248.197-.299.104-.218.292-.393.586-.546.102-.053.18-.102.172-.11-.029-.025-.175-.05-.293-.05h-.12l-.082.084a.397.397 0 0 1-.1.084c-.038 0-.033-.051.014-.145.157-.309.274-.356.662-.268.175.04.279.08.304.117.02.03.014.11-.012.16-.049.095-.171.18-.398.277-.218.094-.44.213-.462.248-.006.01.02.05.056.088.147.155.175.26.106.397-.065.128-.146.157-.319.117-.065-.015-.084-.012-.163.027-.155.076-.24.21-.37.585-.065.186-.09.224-.134.207-.021-.008-.026-.024-.019-.065l.03-.173a.584.584 0 0 0 .01-.162c-.016-.065-.088-.143-.14-.153-.072-.014-.13.028-.229.16-.05.067-.122.159-.16.203a.323.323 0 0 0-.07.107c0 .04-.1.323-.148.418-.115.228-.151.255-.5.372-.245.083-.278.087-.278.041zM5.261 16.83a.646.646 0 0 1 .02-.164c.02-.104.031-.277.04-.654.011-.49.014-.52.057-.664.056-.188.178-.438.212-.438.017 0 .024.015.022.042l-.03.656a7.427 7.427 0 0 1-.05.727 1.526 1.526 0 0 1-.178.449c-.052.072-.078.085-.093.046zm2.185-.003a.557.557 0 0 1 .02-.164c.021-.104.032-.265.041-.651.014-.55.018-.58.118-.837.066-.168.121-.265.152-.265.028 0 .028-.01.011.244-.007.107-.02.387-.028.623-.018.462-.037.595-.12.81-.05.13-.135.266-.167.266-.009 0-.022-.012-.027-.026zm6.14.005a1.39 1.39 0 0 1 .026-.22 3.06 3.06 0 0 0 .035-.58c0-.424.013-.549.076-.741.092-.277.223-.479.215-.33l-.03.656c-.014.333-.034.643-.043.69-.06.299-.237.632-.278.525zm-9.722-.284c-.075-.057-.225-.205-.225-.223 0-.032.239-.498.255-.498.029 0 .197.152.233.21.054.087.045.2-.026.342-.053.106-.138.205-.175.205a.22.22 0 0 1-.062-.036zm16.778-.101c-.203-.145-.209-.175-.079-.435.078-.156.094-.177.136-.182.039-.004.063.01.122.071.098.103.13.168.117.238-.02.111-.165.36-.208.36a.428.428 0 0 1-.088-.053zm-9.024-4.548c-.245-.265-.357-.376-.375-.369-.089.034-.45.08-.7.088a3.218 3.218 0 0 1-1.764-.437l-.153-.088.168-.004c.74-.016 1.266-.1 1.46-.235.06-.041.113-.115.113-.155 0-.009-.1-.092-.223-.184a5.096 5.096 0 0 1-1.717-2.248c-.472-1.197-.505-2.62-.093-3.97.274-.892.793-1.746 1.367-2.247.083-.072.153-.129.157-.125.003.003-.028.114-.069.247-.5 1.62-.594 3.244-.264 4.582.303 1.224.925 2.167 1.78 2.697l.138.086v-.18c0-.1-.045-1.884-.1-3.965a923.04 923.04 0 0 1-.097-3.786c.082-.067.722-.512.735-.512.011 0 .182.115.38.256l.36.257-.01.361c-.087 3.082-.198 7.545-.187 7.55.02.008.203-.105.373-.233.739-.556 1.266-1.423 1.54-2.531.33-1.338.237-2.961-.264-4.582a2.234 2.234 0 0 1-.068-.247 1.22 1.22 0 0 1 .156.125c.247.215.488.499.702.826.5.764.807 1.657.923 2.675a8.562 8.562 0 0 1-.008 1.337c-.193 1.523-.884 2.74-2.059 3.627a1.736 1.736 0 0 0-.223.185c0 .04.054.113.113.154.194.134.72.219 1.46.235l.168.004-.153.088a3.218 3.218 0 0 1-1.764.437c-.25-.008-.611-.054-.7-.088-.018-.007-.13.104-.375.37a7.454 7.454 0 0 1-.363.378c-.007 0-.17-.17-.363-.378zm-4.004-1.737c-.994-.914-1.619-2.093-1.782-3.365a5.937 5.937 0 0 1 0-1.15c.206-1.587 1.132-2.865 2.617-3.61.294-.148.862-.373.884-.35.004.004-.061.086-.146.182-.795.908-1.412 1.88-1.768 2.782a6.804 6.804 0 0 0-.444 1.716 7.772 7.772 0 0 0 0 1.362c.11.846.34 1.592.727 2.365.069.138.122.25.118.25-.004 0-.097-.082-.206-.182zm8.638-.05a7.214 7.214 0 0 0 .744-2.467 7.956 7.956 0 0 0-.009-1.27c-.157-1.293-.685-2.526-1.614-3.767a12.167 12.167 0 0 0-.62-.763.855.855 0 0 1-.125-.157c.012-.012.147.033.423.142 1.734.68 2.856 2.071 3.08 3.816.032.258.037.826.008 1.074-.124 1.069-.538 2.018-1.258 2.884a7.722 7.722 0 0 1-.675.688l-.073.057zm-5.113-9.024c-.287-.078-.479-.363-.56-.835a1.835 1.835 0 0 1-.036-.252c.001 0 .032.042.067.093.087.125.253.276.374.336.088.045.113.05.266.05.154 0 .177-.004.283-.055.137-.064.301-.191.398-.307l.07-.084.171.175c.249.255.416.35.62.35.204 0 .42-.155.6-.431.048-.073.086-.121.086-.108a3.274 3.274 0 0 1-.06.376c-.042.18-.163.419-.265.521a.605.605 0 0 1-.449.19.776.776 0 0 1-.29-.028 1.45 1.45 0 0 1-.384-.171c-.043-.031-.044-.03-.21.053-.267.134-.497.176-.68.127z"/></svg>