<svg viewBox="0 0 24 24" xmlns="http://www.w3.org/2000/svg" role="img"><path d="M9.371 17.631c0-2.29-.03-2.115.463-2.6.139-.137.313-.322.386-.41.072-.09.263-.303.424-.475.16-.17.482-.521.716-.778.233-.257.55-.594.702-.75.153-.154.279-.292.279-.306 0-.013.09-.115.199-.227.109-.112.377-.404.596-.649a80.905 80.905 0 0 1 2.006-2.167c.185-.19.396-.423.47-.519.072-.096.257-.257.41-.358.152-.102.307-.22.343-.264.036-.043.19-.143.34-.222.152-.079.288-.163.304-.188.047-.073.8-.403 1.112-.487.651-.176.887-.205 1.458-.181.604.025.946.08 1.22.194.405.171.658.302.921.476a93 93 0 0 0 .367.242c.288.187.7.568.7.647 0 .029.048.096.106.149.058.052.106.124.106.159s.049.119.108.187c.092.106.43.716.417.754-.002.007.025.085.06.172l.108.265c.038.095.096.273.137.425.157.576.218 1.503.132 1.991-.106.597-.117.648-.169.744a.49.49 0 0 0-.05.195c0 .123-.535 1.174-.731 1.436a3 3 0 0 1-.271.313c-.07.066-.112.12-.094.12.055 0-.127.21-.503.58-.6.59-1.36.895-2.246.9-.506.003-.755-.064-1.379-.37-.41-.201-1.1-.845-1.252-1.168-.342-.726-.441-1.152-.406-1.752.027-.451.244-1.219.356-1.256.03-.01.057-.059.058-.107 0-.049.072-.158.159-.243.087-.085.157-.177.157-.203 0-.07.546-.57.623-.57.037 0 .067-.02.067-.045 0-.077.56-.323.938-.412.6-.142 1.741-.027 2.018.202.036.03.066.04.066.023 0-.053.596.338.788.517.353.33.753 1.012.885 1.512.042.158.085.296.096.307.038.038.093-.72.065-.895a18.69 18.69 0 0 1-.051-.335c-.126-.901-1.077-1.837-2.203-2.169-.372-.109-1.09-.109-1.538.001-.385.094-1.384.552-1.557.713-.06.057-.142.103-.18.103-.038 0-.07.018-.07.04 0 .022-.09.1-.198.172-.432.29-1.552 1.416-2.084 2.095a4.892 4.892 0 0 1-.334.378c-.092.092-.287.305-.433.474-.145.168-.342.388-.437.488a1.16 1.16 0 0 0-.172.208c0 .015-.078.104-.173.2a11.44 11.44 0 0 0-.403.431c-.414.467-.878.98-1.121 1.24-.132.141-.31.338-.398.439-.245.28-.884.992-1.047 1.165a.79.79 0 0 0-.146.186c0 .018-.137.168-.305.335a9.105 9.105 0 0 0-.544.597c-.13.163-.268.308-.304.323-.053.022-.067-.396-.067-1.992zm-5.409-.66c-.24-.028-.807-.185-.872-.242a.218.218 0 0 0-.124-.044c-.04 0-.228-.09-.417-.199a31.8 31.8 0 0 0-.46-.262c-.154-.083-.936-.835-1.025-.985a1.561 1.561 0 0 1-.103-.211c-.019-.051-.053-.093-.077-.093-.059 0-.421-.733-.421-.852 0-.053-.022-.11-.05-.126-.07-.044-.258-.637-.327-1.037-.102-.585-.115-1.37-.03-1.75.097-.431.247-.964.29-1.034a.415.415 0 0 0 .046-.131c.007-.044.037-.087.068-.098.03-.01.056-.04.056-.065 0-.175.353-.765.806-1.347.17-.218.784-.837.784-.79 0 .021.03 0 .067-.047.095-.123.763-.462 1.045-.53.513-.126 1.761-.053 1.926.112.033.033.093.06.134.06.134 0 .666.355.945.631.27.268.649.838.687 1.036.011.057.062.188.112.292.15.303.133 1.344-.028 1.845-.068.211-.143.384-.166.384-.024 0-.056.042-.072.093-.045.14-.213.406-.288.454-.037.023-.066.064-.066.09 0 .026-.06.112-.133.19-.073.08-.133.131-.133.116s-.079.048-.176.14c-.183.172-.436.31-.937.514-.218.088-.433.123-.849.14-.684.026-1.132-.08-1.672-.397-.336-.198-.873-.657-.873-.747a.564.564 0 0 0-.12-.169c-.165-.183-.403-.682-.446-.938a1.61 1.61 0 0 0-.096-.292l-.076-.175-.012.292-.02.463c-.006.095.012.297.038.451.062.357.066.375.104.438.018.03.05.13.07.225.02.095.066.19.103.213.037.022.13.135.207.252.125.19.62.663.695.663.015 0 .178.09.36.202.394.24.717.334 1.271.367.392.024 1.214-.096 1.342-.195a.733.733 0 0 1 .208-.079c.086-.02.33-.143.543-.272.213-.13.412-.236.442-.236.03 0 .054-.027.054-.061s.013-.049.03-.033c.016.017.117-.05.225-.15.107-.098.218-.18.245-.18.028 0 .124-.072.213-.16l.578-.57a9.76 9.76 0 0 0 .61-.649c.106-.13.282-.325.392-.43.11-.107.199-.207.199-.224 0-.027.246-.307.636-.725.073-.078.264-.293.424-.479.16-.185.37-.414.464-.508.095-.095.173-.186.173-.204 0-.017.077-.112.172-.21.095-.098.34-.364.544-.592l.556-.62c.102-.114.287-.31.411-.436s.226-.24.226-.256c0-.031.345-.421.689-.777.131-.136.345-.376.474-.535.13-.158.326-.369.437-.469.112-.1.203-.209.203-.243s.096-.138.213-.233l.213-.171-.004 2.075-.004 2.075-.276.295a30.95 30.95 0 0 1-.615.633c-.186.186-.318.338-.292.338.026 0-.102.14-.284.31-.182.17-.331.329-.331.352 0 .023-.176.218-.39.432-.215.215-.379.39-.365.39.014 0-.081.114-.212.252-.13.139-.39.418-.577.622-.186.203-.44.47-.564.595a1.782 1.782 0 0 0-.225.252c0 .014-.18.21-.398.436-.219.226-.398.423-.399.44 0 .03-1.65 1.709-1.859 1.89-.202.176-.8.55-.879.55-.039 0-.071.022-.071.048 0 .025-.078.076-.172.114l-.332.13c-.712.281-1.003.346-1.644.369-.32.01-.667.01-.769-.002z"/></svg>