<svg viewBox="0 0 24 24" xmlns="http://www.w3.org/2000/svg" role="img"><path d="M1.342 23.975a.085.085 0 0 1 .011-.13c.033-.023 1.071-.026 10.655-.026s10.622.002 10.655.026c.043.03.048.092.011.13-.023.023-1.015.026-10.666.026-9.65 0-10.642-.002-10.666-.026zm.058-.857c-.038-.033-.05-.057-.05-.1 0-.033.119-.355.306-.826.327-.82.348-.86.451-.86.104 0 .124.04.451.86.181.455.307.793.307.825 0 .129-.17.19-.26.095a.908.908 0 0 1-.086-.181l-.057-.15h-.709l-.04.103a3.477 3.477 0 0 1-.07.171c-.051.11-.155.137-.243.063zm.921-.66a6.34 6.34 0 0 0-.212-.533c-.01 0-.216.508-.216.531a.94.94 0 0 0 .214.012c.118 0 .214-.005.214-.01zm1.416.654-.048-.048v-1.636l.05-.05.049-.05.309.008c.276.006.319.01.407.045a.654.654 0 0 1 .327.322c.097.28.004.602-.217.753l-.039.026.151.245c.134.216.15.25.142.302-.017.112-.155.172-.239.103a2.85 2.85 0 0 1-.206-.3l-.17-.273-.125-.005-.124-.005-.005.266-.005.266-.046.04a.147.147 0 0 1-.21-.008zm.704-.917c.158-.118.159-.393 0-.498-.06-.04-.083-.045-.253-.05l-.186-.006v.6l.196-.006c.17-.005.203-.01.243-.04zm1.638.923-.051-.043v-1.428l-.19-.006c-.217-.006-.25-.024-.266-.142-.008-.06-.003-.073.04-.118l.051-.05h1.026l.049.048a.146.146 0 0 1 .008.21c-.039.045-.046.047-.223.053l-.182.006v.68c0 .454-.006.696-.019.731-.035.1-.159.13-.244.059zm3.535.016a.936.936 0 0 1-.66-.661 1.062 1.062 0 0 1-.009-.42.987.987 0 0 1 .396-.574c.34-.219.82-.183 1.103.083.073.068.081.084.081.146 0 .155-.15.203-.282.09a.904.904 0 0 0-.163-.102c-.078-.037-.112-.043-.247-.042-.135 0-.168.007-.247.044a.69.69 0 0 0-.293.292c-.04.08-.045.11-.045.256 0 .147.005.175.047.259a.58.58 0 0 0 .51.34.538.538 0 0 0 .35-.082l.074-.047v-.314h-.205c-.226 0-.279-.014-.315-.084-.03-.058-.03-.087 0-.145.04-.077.09-.086.428-.08l.309.004.04.047c.039.045.04.05.04.378v.332l-.085.078a.931.931 0 0 1-.828.202zm1.796-.008c-.09-.07-.09-.075.252-.93.174-.435.33-.805.348-.824.047-.048.172-.045.212.004.017.02.172.393.346.828.34.853.34.853.252.923a.16.16 0 0 1-.188.002.605.605 0 0 1-.103-.19l-.063-.158-.354.004-.355.004-.061.155a.682.682 0 0 1-.1.185c-.048.04-.133.038-.186-.004zm.906-.712a17.672 17.672 0 0 1-.11-.28 2.62 2.62 0 0 0-.092-.222c-.003.003-.12.29-.217.535-.006.016.044.021.217.021h.224zm1.45.727c-.074-.042-.077-.085-.077-.892 0-.517.006-.781.018-.817a.148.148 0 0 1 .246-.053l.049.049v1.419h.28c.312 0 .359.011.394.097a.157.157 0 0 1-.044.183c-.04.031-.066.033-.44.032-.25 0-.408-.007-.427-.018zm1.802-.024-.05-.042v-1.658l.05-.043c.083-.07.19-.048.237.048.021.046.025.155.025.74v.685h.273c.21 0 .283.006.32.025.097.05.112.162.034.24l-.048.048h-.79zm1.81-.006-.049-.048v-1.636l.048-.048.049-.048h.461c.31 0 .476.006.503.019.052.023.093.107.081.166a.188.188 0 0 1-.058.087c-.048.04-.049.04-.41.04h-.36v.444l.297.005.298.005.04.046a.147.147 0 0 1-.008.21l-.048.048h-.58v.443l.37.005c.36.005.37.006.41.044a.153.153 0 0 1 .04.17c-.03.09-.064.096-.573.096h-.463zm1.966.008-.046-.04-.005-.808c-.005-.883-.004-.89.089-.925a1.72 1.72 0 0 1 .292-.016c.35 0 .498.043.64.184.171.172.21.468.093.717a.677.677 0 0 1-.2.231c-.029.015-.018.038.118.256.17.271.181.314.102.393-.056.056-.142.065-.197.02a2.888 2.888 0 0 1-.204-.301l-.17-.272-.127-.005-.127-.005v.514l-.048.049a.146.146 0 0 1-.21.008zm.689-.92c.087-.058.133-.163.126-.288-.007-.123-.041-.178-.145-.23-.061-.032-.098-.038-.242-.038h-.17v.593h.188c.166 0 .193-.004.243-.037zm1.848.92-.046-.04-.005-.395-.005-.395-.263-.376c-.293-.42-.303-.445-.214-.534.052-.052.115-.062.177-.027.02.01.126.15.237.308.11.158.206.294.212.3.006.008.101-.116.212-.274.11-.158.22-.303.244-.322.063-.048.13-.043.189.015.09.09.079.116-.215.538l-.264.377v.769l-.048.048a.146.146 0 0 1-.21.008zM5.493 20.475a.26.26 0 0 1-.124-.15c-.022-.077-.022-2.146 0-2.225a.285.285 0 0 1 .067-.107c.043-.04.064-.048.138-.048.065 0 .098.009.125.033.02.018.214.268.43.556.217.287.397.523.401.523.004 0 .185-.236.401-.523.217-.288.41-.538.43-.556.058-.05.199-.046.258.008.091.085.09.058.09 1.23 0 1-.003 1.089-.03 1.142-.088.176-.316.17-.393-.012-.018-.042-.022-.203-.022-.798v-.745l-.296.396c-.307.411-.337.44-.448.438a.237.237 0 0 1-.097-.032 4.069 4.069 0 0 1-.337-.415l-.289-.386v.745c0 .802 0 .81-.087.89a.25.25 0 0 1-.217.036zm3.71 0c-.541-.1-.945-.54-1.018-1.115-.066-.52.217-1.06.677-1.292a1.06 1.06 0 0 1 .535-.123c.216 0 .353.032.535.123.308.156.546.45.646.8.048.171.052.502.007.667-.151.55-.605.928-1.139.948-.09.003-.2 0-.243-.008zm.327-.43a.81.81 0 0 0 .613-.55.702.702 0 0 0 .042-.273.814.814 0 0 0-.254-.629.75.75 0 0 0-1.067.002.841.841 0 0 0-.25.619c0 .331.161.607.44.754a.688.688 0 0 0 .476.077zm1.379.42c-.102-.043-.15-.183-.097-.284.039-.075.083-.103.191-.12.117-.02.173-.044.226-.1.087-.094.087-.096.087-1.007 0-.787.002-.849.03-.9.075-.141.263-.153.364-.025.034.043.035.056.035.937 0 .773-.004.904-.027.982-.083.281-.258.456-.519.517-.13.03-.22.031-.29 0zm1.43-.004a.255.255 0 0 1-.087-.087c-.028-.053-.03-.123-.03-1.16 0-1.039.002-1.108.03-1.161a.255.255 0 0 1 .087-.087c.052-.029.09-.03.476-.025.403.006.426.008.552.05.304.1.514.285.645.566.133.285.166.734.08 1.09a1.09 1.09 0 0 1-.725.789c-.126.042-.149.044-.552.05-.386.005-.424.003-.476-.025zm.921-.446a.67.67 0 0 0 .406-.46 1.22 1.22 0 0 0 .03-.342 1.24 1.24 0 0 0-.03-.342.672.672 0 0 0-.406-.46c-.076-.03-.132-.037-.35-.043l-.26-.007v1.705l.26-.008c.215-.006.275-.014.35-.044zm1.49.46a.284.284 0 0 1-.13-.17c-.006-.03-.008-.543-.006-1.141.005-1.212 0-1.144.12-1.201.08-.038 1.286-.04 1.359-.002.079.04.116.102.116.192 0 .069-.008.09-.057.142l-.056.061-.52.005-.52.005v.625h.374c.333 0 .383.004.444.032.154.07.164.295.017.376-.045.025-.108.03-.444.034l-.391.005v.624h1.025l.064.064c.057.057.064.072.064.146 0 .06-.01.095-.036.127-.07.089-.09.091-.767.09-.342 0-.638-.007-.656-.015zm2.053-.014a.256.256 0 0 1-.086-.087c-.028-.053-.03-.123-.03-1.16 0-1.04.002-1.108.03-1.162.073-.14.263-.151.364-.023.033.042.034.062.034.503v.459h.956v-.449c0-.416.002-.453.032-.502a.214.214 0 0 1 .363-.002c.032.054.033.08.033 1.177v1.122l-.038.056a.214.214 0 0 1-.107.08c-.061.021-.078.021-.139 0a.214.214 0 0 1-.107-.08c-.037-.055-.038-.065-.038-.507v-.45h-.955v.448c0 .324-.006.46-.02.489a.22.22 0 0 1-.292.088zm-15.477-.024c-.034-.048-.033-.072.007-.112.032-.032.054-.033 1.235-.033h1.203V19.14c0-1.13 0-1.154.033-1.186.04-.04.063-.041.111-.007l.037.026v1.225c0 1.092-.003 1.228-.026 1.251-.023.023-.164.026-1.3.026H1.35zm18.747 0c-.022-.032-.025-.178-.025-1.244 0-1.185 0-1.208.033-1.24.04-.04.063-.041.111-.007l.037.026v2.32h1.199c1.305 0 1.272-.001 1.272.091 0 .095.063.091-1.326.091h-1.275zm-8.205-3.39a.721.721 0 0 1-.407-.228 3.258 3.258 0 0 1-.247-.45c-.89-1.821-2.149-3.54-3.295-4.496-.674-.563-1.298-.888-1.949-1.015a3.875 3.875 0 0 0-.898-.008c-.638.114-1.144.368-1.672.838a4.267 4.267 0 0 0-.73.886c-.187.323-.47.478-.772.422a.709.709 0 0 1-.565-.91c.085-.274.55-.896.99-1.325.698-.68 1.473-1.103 2.338-1.275a3.97 3.97 0 0 1 .852-.083c.295 0 .496.02.771.074 1.078.216 2.108.828 3.164 1.878.756.753 1.423 1.617 2.172 2.812.051.082.067.097.072.071.091-.443 1.486-7.365 1.486-7.375 0-.008-.89-.014-1.976-.014-1.888 0-1.98 0-2.075-.03a.703.703 0 0 1-.501-.572.714.714 0 0 1 .549-.797c.067-.014.732-.018 2.57-.014l2.479.005.111.053c.255.12.424.374.424.639 0 .045-.47 2.413-1.045 5.262-.858 4.249-1.054 5.197-1.09 5.272a.75.75 0 0 1-.515.38.51.51 0 0 1-.24 0zm2.48-.006a.707.707 0 0 1-.49-.383.514.514 0 0 1-.067-.258c-.006-.127.052-.424 1.001-5.053.554-2.704 1.047-5.114 1.095-5.354.05-.247.117-.526.155-.643.08-.243.256-.606.396-.816a3.404 3.404 0 0 1 5.91.413c.457.955.445 2.05-.032 3-.47.936-1.33 1.59-2.384 1.811a4.099 4.099 0 0 1-1.109.034 3.382 3.382 0 0 1-1.901-.922.935.935 0 0 0-.143-.124c-.004.004-.366 1.762-.806 3.907-.677 3.304-.806 3.916-.849 4.007a.716.716 0 0 1-.511.387.519.519 0 0 1-.265-.006zm5.26-8.667A1.994 1.994 0 0 0 21.227 6.8c.036-.171.04-.544.009-.725a2.01 2.01 0 0 0-1.37-1.555 2.042 2.042 0 0 0-1.268.028 2 2 0 0 0-1.083.96 1.85 1.85 0 0 0-.218.912c0 .345.06.606.21.898a2 2 0 0 0 1.424 1.056c.165.03.506.03.677 0zM4.33 8.486a3.659 3.659 0 0 1-.586-.129A2.805 2.805 0 0 1 2.55 7.57a2.804 2.804 0 0 1-.644-1.315 3.331 3.331 0 0 1-.008-.965c.229-1.217 1.188-2.12 2.4-2.262.222-.026.615-.01.827.032 1.1.222 1.933 1.051 2.175 2.165.031.145.036.218.036.53 0 .31-.005.386-.036.527a3.01 3.01 0 0 1-.46 1.063 3.396 3.396 0 0 1-.647.646 2.96 2.96 0 0 1-1.022.448 3.11 3.11 0 0 1-.84.048zm.612-1.453c.36-.093.674-.35.838-.684.099-.2.13-.314.143-.516a1.32 1.32 0 0 0-1.387-1.399 1.321 1.321 0 0 0-1.135 1.87c.178.388.54.672.957.751.164.031.415.022.584-.022zm3.945-2.64a.716.716 0 0 1-.465-.849.781.781 0 0 1 .417-.486l.096-.039 2.874-.004c2.865-.004 2.874-.004 2.976.03a.715.715 0 0 1 .45.895.727.727 0 0 1-.455.455c-.106.033-.146.033-2.952.033-2.817 0-2.845-.001-2.941-.034zm2.733-2.437a.993.993 0 0 1-.848-.97c0-.335.158-.633.432-.82a.91.91 0 0 1 .507-.165.986.986 0 0 1 1.028.893c.02.18-.038.424-.143.597-.198.327-.603.52-.976.465z"/></svg>