<svg role="img" viewBox="0 0 24 24" xmlns="http://www.w3.org/2000/svg"><path d="M13.768 23.397c.042-1.179.127-1.469.524-1.791.109-.089.225-.212.258-.273.047-.089.082-.115.166-.123.139-.014.256.05.256.14 0 .179-.212.347-.525.415-.117.026-.397.305-.426.424a.44.44 0 0 1-.046.124.84.84 0 0 0-.047.225 4.53 4.53 0 0 1-.038.273c-.013.065-.063.834-.072 1.116-.001.04-.018.073-.037.073-.024 0-.028-.182-.013-.603zm-3.094-.383c-.09-.063-.09-.114-.002-.271.079-.14.107-.15.194-.07.057.05.065.05.14-.033.077-.082.084-.084.16-.034.094.061.105.199.027.318-.058.088-.111.099-.205.04-.055-.034-.071-.03-.114.032-.059.084-.1.087-.2.018zm-8.707-.15a.518.518 0 0 1-.157-.092.74.74 0 0 1-.14-.363c-.001-.14.114-.526.226-.755a3.88 3.88 0 0 0 .14-.313c.022-.07.115-.104.115-.041 0 .017-.035.107-.079.2-.23.496-.272.761-.138.883.175.16.27.17.515.063.174-.077.377-.285.377-.387 0-.028-.054-.076-.12-.108-.108-.05-.122-.07-.13-.188-.019-.25.3-.737.608-.931.16-.102.22-.1.22.006 0 .123-.1.276-.168.258-.069-.018-.267.11-.385.247-.104.122-.11.169-.028.213.145.078.165.124.145.347-.038.428-.306.872-.56.927-.044.01-.113.03-.154.047-.093.038-.156.035-.287-.012zm11.206-.631a.45.45 0 0 1-.014-.217c.02-.16.174-.557.255-.665.088-.115.09-.02.004.145-.124.239-.141.39-.057.497.048.062.062.11.047.17-.035.144-.174.184-.235.07zm-9.85-.036c-.01-.015.072-.091.18-.17.222-.162.308-.274.425-.55.162-.385.2-.191.05.251-.084.248-.19.393-.307.421-.257.062-.334.072-.349.048zm.851-.011a.93.93 0 0 1 .179-.129c.133-.078.272-.22.272-.279 0-.015-.026-.028-.057-.028-.136 0-.174-.15-.083-.33.112-.222.21-.27.317-.152.083.092.05.39-.069.63-.088.176-.1.188-.3.258-.254.09-.314.096-.259.03zm1.105.023c-.067-.012-.106-.075-.204-.324-.053-.136-.029-.523.06-.963.039-.188.114-.353.141-.309.01.016.005.144-.01.286-.072.651-.072.658-.035.658.02 0 .037.03.037.067 0 .08.166.255.241.255.03 0 .11-.06.18-.133.111-.115.14-.13.227-.112.058.012.119.004.144-.016.07-.059-.01-.125-.153-.125-.11 0-.125-.009-.125-.077a.75.75 0 0 1 .085-.241c.103-.199.188-.215.318-.06.077.092.085.121.07.273a.779.779 0 0 1-.208.446c-.035.035-.082.044-.154.03-.09-.016-.115-.006-.18.079-.2.26-.261.298-.434.266zm1.302-.02a.92.92 0 0 1 .182-.132c.133-.078.272-.22.272-.279 0-.015-.026-.028-.057-.028-.137 0-.174-.15-.083-.33.112-.222.21-.27.317-.152.083.092.05.39-.07.631-.081.166-.107.192-.248.242-.086.03-.201.066-.256.078-.088.02-.095.016-.057-.03zm1.29.022c-.283-.035-.414-.186-.352-.403a.855.855 0 0 0 .03-.194c0-.114.088-.12.116-.008.045.18.259.249.768.246.583-.004 1.045-.139 1.199-.35.036-.049.076-.078.089-.065.039.039-.06.288-.157.4-.108.122-.375.256-.572.286a.6.6 0 0 0-.173.046c-.039.029-.787.062-.948.042zm2.345 0a.288.288 0 0 1-.18-.225c-.01-.06-.032-.116-.048-.126-.079-.048.026-.924.137-1.146a.43.43 0 0 1 .075-.12c.015 0 .014.014-.051.592-.03.268-.03.355-.002.364.02.007.037.039.037.07 0 .07.119.227.172.227.021 0 .073-.08.114-.176.074-.17.17-.267.253-.256l.071.01c.018.001.041.061.053.132.024.15.067.16.175.045.068-.072.096-.08.214-.065.128.017.138.013.158-.07.012-.047.064-.155.116-.24.086-.14.13-.168.239-.155.021.003.072-.045.113-.106.09-.131.436-.407.746-.593.27-.161.322-.17.269-.045-.06.138-.11.184-.307.282-.27.132-.522.283-.522.312 0 .013.057.024.126.024.14 0 .227.026.227.067 0 .015-.125.15-.278.302-.266.262-.284.274-.422.274a.37.37 0 0 0-.25.08.37.37 0 0 1-.251.08c-.108 0-.162.019-.211.07a.282.282 0 0 0-.066.094c0 .012-.033.03-.073.04a.862.862 0 0 0-.217.13c-.14.11-.321.164-.417.127zm.49-.441c.076-.057.071-.107-.011-.133-.096-.03-.184.058-.126.128.05.06.065.06.138.005zm.99-.39c.034-.042.032-.06-.01-.103-.043-.042-.061-.044-.102-.01-.06.05-.065.118-.01.14.066.027.078.024.122-.028zm.309-.126c.067-.061.111-.121.1-.133a.346.346 0 0 0-.144-.026l-.121-.004.005.129c.003.07.006.132.008.136.007.022.04 0 .152-.103zm5.419.955a.376.376 0 0 1-.237-.107c-.107-.1-.108-.106-.05-.496.014-.092.101-.1.108-.01.013.18.256.257.796.255.516-.003.979-.13 1.14-.314.125-.142.165-.139.123.01-.062.226-.147.326-.383.453-.325.175-.935.26-1.497.209zm1.967-.002c-.036-.036-.01-.063.178-.184a.926.926 0 0 0 .289-.28 1.31 1.31 0 0 0 .095-.171c0-.05.134-.303.161-.303.072 0-.002.308-.157.652-.053.119-.097.167-.19.206-.139.06-.351.104-.376.08zm1.41-.012c-.01-.017-.014-.035-.008-.04l.172-.117c.254-.172.357-.313.495-.681.019-.049.057-.088.086-.088.037 0 .046.016.029.056-.013.03-.036.116-.05.19-.033.166-.196.529-.257.575-.044.033-.219.09-.375.122-.04.008-.081 0-.092-.017zm.876-.031a3.46 3.46 0 0 1 .176-.124c.096-.063.253-.224.253-.26 0-.016-.027-.03-.06-.03-.032 0-.084-.027-.115-.061-.065-.072-.051-.14.07-.348.057-.1.099-.137.154-.137.095 0 .175.112.175.244 0 .114-.105.44-.179.552-.055.084-.266.186-.454.219l-.122.02.102-.075zm-6.411-.114c.112-.082.222-.172.243-.2.044-.057.055-.134.017-.126a.335.335 0 0 1-.112-.032c-.086-.035-.117-.112-.06-.148.015-.01.036-.057.046-.106a.397.397 0 0 1 .085-.161c.07-.074.226-.1.226-.038 0 .019.025.03.055.024.065-.013.098-.116.103-.316.007-.31.157-.83.228-.787.014.01.012.068-.005.132-.018.063-.035.24-.038.394-.005.221.006.299.051.367.065.1.145.114.174.031.11-.315.25-.487.384-.472.107.012.155.06.129.127-.015.039-.044.048-.11.033-.164-.036-.307.17-.188.268.063.053.137.014.215-.112.037-.06.088-.11.113-.11.059 0 .061-.01-.05.22a1.388 1.388 0 0 1-.23.327c-.122.119-.146.129-.31.129-.125 0-.197-.017-.24-.057-.06-.054-.066-.052-.149.047a.75.75 0 0 0-.123.24c-.056.211-.169.357-.304.395a.497.497 0 0 0-.142.058c-.013.013-.066.024-.118.024-.09 0-.083-.01.11-.15zm5.182-.163c.012-.119.027-.348.034-.51.008-.217.028-.326.079-.425.037-.073.081-.133.098-.133s.024.08.017.185c-.008.101-.022.328-.032.503-.012.21-.04.367-.08.458-.094.214-.143.181-.116-.078zm-12.135-.599c-.075-.056-.071-.132.01-.264.075-.122.111-.132.194-.057.054.048.063.046.133-.036.068-.079.083-.084.145-.045.093.058.115.171.057.285-.067.13-.103.144-.199.082-.078-.051-.084-.05-.128.013-.054.076-.13.084-.212.022zm9.572-.014c-.069-.076-.067-.107.014-.244.075-.127.126-.142.208-.06.05.05.058.049.117-.032.074-.102.124-.109.197-.028.078.085.068.238-.02.321-.067.063-.081.065-.137.023-.086-.065-.132-.06-.152.015-.022.082-.154.085-.227.005zm-12.323-.36c-.059-.048-.071-.082-.055-.147.029-.115.113-.237.164-.237.13 0 .19.24.093.378-.06.087-.104.089-.202.006zm15.903-.285l-.079-.06.06-.133c.088-.195.131-.22.227-.13.091.086.099.157.03.29-.056.109-.127.118-.238.033zm-11.055-.355l-.08-.061.071-.147c.075-.155.158-.19.233-.098.035.042.05.038.11-.032.082-.096.12-.1.19-.022.145.16-.046.471-.197.32-.03-.03-.053-.022-.104.032-.08.086-.12.088-.223.008zm1.016.016c-.072-.055-.05-.198.047-.302.075-.081.104-.085.157-.02.056.067.118.06.138-.016.027-.102.12-.119.189-.035a.22.22 0 0 1 .009.284c-.054.077-.193.097-.216.031-.01-.027-.039-.018-.093.033-.09.082-.147.089-.23.025zm-5.208-.208c-.048-.053-.051-.08-.02-.173a.452.452 0 0 1 .094-.162c.053-.049.063-.045.148.043l.092.095-.059.13c-.066.146-.16.171-.255.067zm6.266-.707c-.063-.07-.048-.156.051-.297.06-.085.062-.086.157-.032.098.055.129.042.169-.072.022-.064.177.015.21.106.06.176-.129.37-.248.253-.032-.032-.052-.026-.1.032-.072.089-.165.093-.24.01zm-4.512-.71c-.089-.074-.079-.158.035-.299.069-.084.08-.088.165-.05.08.037.097.035.132-.013a.138.138 0 0 1 .203-.016c.06.06.046.23-.027.309-.079.084-.09.085-.168.014-.059-.053-.064-.052-.125.032-.076.104-.113.108-.215.023zm10.24-.354c-.073-.055-.082-.078-.06-.155.068-.235.143-.282.257-.159.083.09.083.169 0 .287-.08.11-.085.11-.197.027zm-4.188-.09a.43.43 0 0 1-.177-.15c-.072-.136-.06-.536.024-.755.142-.371.297-.674.344-.674.052 0 .049.012-.072.289-.215.492-.245.672-.136.81.111.142.263.176.503.113.13-.034.43-.338.43-.435 0-.017-.06-.055-.132-.084l-.132-.053.012-.201c.012-.176.032-.23.167-.432.317-.477.824-.724.612-.299-.054.107-.06.111-.222.147-.094.02-.401.304-.401.37 0 .018.048.056.107.084.104.05.108.059.113.249.006.214-.097.553-.221.728a.89.89 0 0 1-.415.304c-.178.062-.246.06-.404-.011zm-8.436-.084c-.153-.083-.202-.228-.186-.55.008-.157.03-.315.049-.35.018-.036.064-.134.102-.218.037-.084.084-.152.104-.152.04 0 .034.024-.065.296-.1.274-.09.39.046.53.104.108.127.116.297.115.464-.004.758-.313.752-.79a1.313 1.313 0 0 1 .031-.328c.056-.156.101-.241.13-.241.07 0-.015.832-.102.992a3.28 3.28 0 0 0-.083.174c-.08.179-.313.423-.478.501-.17.08-.47.09-.597.02zm3.878-.063c-.167-.167-.191-.467-.067-.844.067-.204.28-.653.31-.653.048 0 .026.127-.053.297-.244.527-.243.762.004.889.188.096.53-.001.711-.203.117-.13.122-.208.017-.26-.12-.06-.172-.118-.172-.19 0-.153.107-.377.245-.515.104-.104.141-.166.141-.238a.51.51 0 0 1 .067-.211c.077-.13.172-.15.304-.063.148.098.073.28-.175.42-.172.098-.357.263-.357.318 0 .021.036.062.08.09.073.048.08.075.08.266 0 .179-.018.252-.114.453-.189.392-.401.554-.724.554-.17 0-.197-.01-.297-.11zm-2.054-.488c-.012-.012.047-.07.13-.128.291-.205.334-.25.445-.47.08-.157.142-.238.214-.276.057-.03.15-.103.21-.162.058-.06.113-.1.123-.091.01.01-.007.092-.036.182-.043.127-.083.182-.18.243a.622.622 0 0 1-.155.079c-.029 0-.11.154-.207.392a.348.348 0 0 1-.139.164c-.106.054-.374.098-.405.067zm3.996-.022c-.126-.064-.154-.137-.083-.215.049-.054.066-.139.083-.396.022-.336.086-.7.128-.729.013-.009.029-.051.035-.094.006-.043.03-.084.055-.092.03-.01.038.005.025.046-.01.033-.027.233-.039.445-.019.356-.08.664-.147.738-.045.05-.031.114.024.114.08 0 .238-.127.277-.22a2.55 2.55 0 0 0 .058-.459c.015-.244.048-.446.094-.586.089-.267.144-.313.118-.097-.01.086-.028.272-.04.414-.018.245-.015.261.063.345.097.105.176.112.284.026a.533.533 0 0 1 .166-.084.27.27 0 0 0 .135-.09c.026-.038.062-.07.08-.073l.063-.008c.018-.002.032-.025.032-.05a.09.09 0 0 1 .037-.07c.027-.016.032.016.019.117-.015.111-.046.162-.158.26-.078.07-.174.123-.219.124-.05 0-.122.048-.2.133-.11.12-.132.13-.252.12-.129-.013-.134-.01-.206.132-.12.238-.277.328-.432.25zm4.062.01c-.016-.026.13-.16.176-.16a.791.791 0 0 0 .158-.126c.093-.086.17-.206.246-.378.18-.416.244-.32.09.138-.1.303-.175.417-.311.473-.138.057-.338.087-.359.053zm.82-.01c0-.007.08-.067.178-.134a1.45 1.45 0 0 0 .24-.203l.063-.08-.104-.051c-.088-.044-.104-.069-.1-.159a.582.582 0 0 1 .09-.234c.07-.105.102-.127.172-.12a.147.147 0 0 1 .119.083c.04.093.065.091.153-.013.168-.2.183-.21.337-.198l.148.01.164-.23c.178-.25.257-.324.445-.412.13-.06.126-.092-.014-.124-.058-.014-.11 0-.166.044a.385.385 0 0 1-.1.063c-.045 0-.013-.098.061-.186.062-.074.107-.095.201-.096.168 0 .43.064.448.11.026.068-.048.162-.173.22-.276.124-.46.221-.46.242 0 .012.03.048.065.08.075.068.082.199.016.286-.036.047-.071.056-.162.041-.1-.016-.132-.004-.228.084a.662.662 0 0 0-.169.278c-.074.227-.135.251-.127.051.007-.184-.057-.268-.162-.212-.037.02-.068.047-.068.06a.461.461 0 0 1-.091.124c-.05.055-.123.177-.162.272-.094.229-.152.292-.326.359-.13.049-.288.073-.288.044zm-9.143-.272c.011-.119.025-.346.031-.505.008-.202.032-.336.078-.442.134-.31.152-.169.082.65-.02.229-.102.472-.168.498-.033.013-.038-.03-.023-.2zm1.543.13c.012-.032.03-.245.038-.475.011-.316.031-.459.08-.586.109-.278.134-.215.11.273-.023.44-.054.634-.122.771-.044.087-.14.102-.106.016zm4.466 0c.013-.032.03-.245.038-.475.012-.316.032-.459.081-.586.108-.278.134-.215.109.273-.022.44-.053.634-.122.771-.043.087-.14.102-.106.016zm-7.129-.18l-.086-.073.067-.153c.08-.181.129-.207.237-.128.097.07.107.19.027.33-.067.118-.13.124-.245.025zm5.616-2.194a85.38 85.38 0 0 0-.323-.42c-.033-.041-.08-.038-.37.027-.3.068-.407.075-1.135.073-.779-.002-.818-.005-1.27-.104a18.193 18.193 0 0 1-.623-.145l-.158-.044.399-.022c.499-.027.892-.07 1.363-.149.28-.047.445-.09.779-.203.333-.113.369-.164.176-.256-.131-.063-.778-.54-1.007-.743a9.027 9.027 0 0 1-.993-1.014 7.424 7.424 0 0 0-.187-.222c-.242-.26-.842-1.33-1.036-1.852-.231-.618-.416-1.637-.414-2.281 0-.4.125-1.365.253-1.98.04-.194.19-.734.225-.816.016-.035.061-.158.101-.273.075-.214.386-.878.52-1.108a5.3 5.3 0 0 1 .865-1.117c.208-.208.394-.377.412-.377.019 0-.01.075-.065.168a9.628 9.628 0 0 0-.722 1.615c-.322.987-.428 1.58-.456 2.554-.054 1.823.538 3.494 1.783 5.04.396.491 1.376 1.451 1.482 1.451.028 0 .033-.084.02-.32-.01-.177-.031-.687-.05-1.133l-.048-1.133c-.008-.177-.03-.698-.048-1.157a14.96 14.96 0 0 0-.052-.916c-.01-.044-.027-1.414-.036-3.044-.015-2.87-.014-2.965.044-2.986.13-.047.361-.228.612-.478l.262-.262.284.277c.278.27.55.484.62.484.07 0 .03 5.863-.043 6.25a17.69 17.69 0 0 0-.033.803 59.67 59.67 0 0 1-.051 1.27 64.71 64.71 0 0 0-.048 1.044c-.042 1.107-.049 1.244-.066 1.272-.01.016.006.03.036.03.127 0 1.162-1.025 1.59-1.575.5-.641.928-1.382 1.187-2.057l.13-.337c.024-.059.062-.176.083-.257.413-1.56.393-2.923-.067-4.499-.179-.614-.579-1.545-.862-2.006-.044-.07-.051-.1-.021-.082.123.073.53.464.695.669.103.127.194.238.204.246a6.931 6.931 0 0 1 .801 1.446c.042.115.086.224.098.241a.41.41 0 0 1 .04.113 2.2 2.2 0 0 0 .069.217c.147.396.303 1.134.385 1.823.06.502.069.659.06 1.077-.036 1.735-.768 3.362-2.128 4.725-.471.473-.819.763-1.27 1.061-.357.236-.382.256-.349.286.088.078.85.3 1.139.332.063.007.128.02.144.03.016.01.145.027.287.04.14.011.394.034.562.05.168.016.392.03.498.033l.193.004-.16.047c-.622.183-.985.238-1.688.258-.635.017-.979-.007-1.398-.1a4.064 4.064 0 0 0-.245-.05c-.012 0-.161.188-.333.417-.172.23-.323.418-.336.418-.013 0-.153-.168-.31-.373zm5.257-2.13c0-.015.027-.061.059-.104.157-.203.668-1.179.808-1.54a6.43 6.43 0 0 1 .112-.271c.024-.053.068-.176.098-.273a3.8 3.8 0 0 1 .08-.241c.015-.036.033-.094.042-.129a9.125 9.125 0 0 0 .315-1.761c.036-.418.034-.546-.014-1.045-.05-.508-.12-.93-.21-1.259l-.078-.289a8.713 8.713 0 0 0-.493-1.244c-.36-.735-.87-1.495-1.44-2.146-.17-.193-.738-.755-.763-.755-.015 0-.026-.015-.026-.033 0-.02.02-.021.056-.002.03.017.165.07.297.118.24.086.837.36.868.397.009.01.052.037.096.058a5 5 0 0 1 .744.472c.047.036.134.102.193.145.222.162.887.865 1.095 1.159.252.357.732 1.294.732 1.43 0 .027.013.074.03.104.137.252.278 1.123.288 1.78a6.27 6.27 0 0 1-.34 2.148c-.102.305-.099.299-.311.739-.351.726-.64 1.132-1.21 1.704-.386.387-1.028.91-1.028.838zm-10.17-.171a6.19 6.19 0 0 1-1.927-2.263c-.885-1.77-.935-3.801-.136-5.474a6.102 6.102 0 0 1 1.62-2.024c.493-.39 1.236-.802 1.905-1.06l.337-.129-.295.29c-.258.252-.699.73-.845.917-.67.856-1.223 1.847-1.51 2.712-.622 1.872-.543 3.65.246 5.544.173.416.52 1.098.716 1.407.076.12.132.224.125.231-.007.007-.114-.06-.237-.151zm3.998-11.281a1.22 1.22 0 0 1-.76-.63C9.891.683 9.878.617 9.88.399c.001-.142.02-.29.043-.331.039-.073.042-.07.162.112.16.243.3.386.516.524.16.103.195.113.417.112.317 0 .595-.135.838-.405l.082-.091.163.152c.09.084.24.196.335.249.15.082.207.096.414.096.193 0 .272-.016.397-.08.18-.091.404-.312.572-.562L13.937 0l.04.094c.062.153.047.538-.029.714-.212.49-.83.798-1.338.666a1.302 1.302 0 0 1-.524-.28.523.523 0 0 0-.137-.104.488.488 0 0 0-.132.098c-.275.253-.75.374-1.089.278z"/></svg>