<svg viewBox="0 0 24 24" xmlns="http://www.w3.org/2000/svg" role="img"><path d="M11.345 23.993c-.664-.057-.871-.08-1.222-.138a11.913 11.913 0 0 1-2.367-.672c-.982-.385-2.21-1.114-3.032-1.801-.628-.525-1.398-1.317-1.808-1.86-.34-.449-.93-1.408-1.209-1.964a11.577 11.577 0 0 1-.098-9.713c.13-.288.52-.994.755-1.366.231-.366 1.317-1.705 1.611-1.986.658-.63 1.356-1.187 1.974-1.572.363-.227 1.24-.671 1.743-.883a11.288 11.288 0 0 1 3.5-.82c.62-.038.707-.04.772-.014.046.017.049.548.049 10.606v10.588l.327-.017c1.318-.069 2.333-.288 3.428-.742.399-.165.545-.238.522-.261a3.532 3.532 0 0 0-.305-.095 4.9 4.9 0 0 1-1.956-1.048 6.042 6.042 0 0 1-.868-.99 5.317 5.317 0 0 1-.649-1.614 6.68 6.68 0 0 1-.083-1.47 4.636 4.636 0 0 1 .955-2.4c.203-.268.7-.788.773-.811.09-.03.06-.079-.12-.194-.232-.148-.752-.67-.936-.94a3.419 3.419 0 0 1-.618-2.01c0-.591.099-1.069.325-1.58a3.01 3.01 0 0 1 .559-.857l.242-.268.056-.064-.068-.046a3.03 3.03 0 0 1-.526-.536 3.072 3.072 0 0 1-.538-1.183c-.055-.241-.058-.341-.068-2.761-.007-1.562 0-2.511.016-2.511.014 0 .046.03.07.066.081.125.324.387.498.539.52.454.936.652 2.322 1.103.716.233.978.335 1.507.59.561.27.837.427 1.408.805.873.576 1.32.95 2.02 1.689 1.29 1.362 2.185 2.968 2.71 4.858.562 2.028.522 4.235-.115 6.34-.334 1.103-1.047 2.499-1.759 3.442a12.1 12.1 0 0 1-3.315 2.97c-.695.417-1.312.697-2.186.994a10.34 10.34 0 0 1-2.404.544c-.355.04-1.62.076-1.892.053zm-2.402-2.244-.38-.536c-.357-.504-.65-1.003-1.044-1.78-.832-1.64-1.339-3.338-1.576-5.278-.055-.445-.062-.642-.063-1.566 0-.937.007-1.111.063-1.53.2-1.524.335-2.117.766-3.394.26-.767.42-1.147.809-1.92.376-.748.714-1.317 1.172-1.972l.347-.497-.096.019c-.34.063-1.59.647-2.136.998-2.37 1.52-3.919 3.784-4.444 6.501a10.016 10.016 0 0 0 .097 4.057c.13.54.214.812.394 1.27.334.852.832 1.74 1.366 2.435.1.13.476.535.837.9.484.489.752.735 1.018.936a9.858 9.858 0 0 0 2.601 1.421c.408.149.419.146.27-.064zm1.455-9.181V4.187l-.152.16c-.507.538-1.236 1.708-1.608 2.581-.426 1.002-.567 1.405-.754 2.155-.159.641-.257 1.23-.34 2.045-.06.585-.07 2.265-.016 2.782.114 1.092.332 2.206.59 3.019.258.805.817 2.03 1.225 2.679.345.55.953 1.34 1.03 1.34.016 0 .026-3.181.025-8.38zm7.62 7.173c.738-.206 1.433-.7 1.82-1.296.4-.617.559-1.144.553-1.828a3.151 3.151 0 0 0-1.065-2.342 3.18 3.18 0 0 0-1.824-.787c-1.38-.144-2.75.689-3.258 1.98-.157.4-.21.692-.213 1.169-.002.499.043.76.199 1.154a3.2 3.2 0 0 0 2.148 1.938c.34.094.441.104.92.094.391-.008.498-.02.72-.082zm3.624-5.569c.09-1.007-.184-2.2-.772-3.354-.496-.977-1.213-1.811-2.015-2.348a4.679 4.679 0 0 0-1.17-.553 4.268 4.268 0 0 0-1.485-.25c-.428 0-.456.003-.71.088A2.112 2.112 0 0 0 14.168 9a2.099 2.099 0 0 0 1.39 2.786c.133.037.368.05 1.141.067 1.166.026 1.476.064 2.03.254 1.148.393 2.172 1.253 2.69 2.262.17.33.176.326.222-.196zm-.93-6.055c-.044-.112-.48-.84-.632-1.057-.925-1.313-2.05-2.323-3.412-3.067-.46-.25-.77-.389-1.353-.603-.503-.184-.975-.325-1.167-.349l-.132-.016V3.9c0 .967.023 1.144.187 1.45.175.326.603.643.96.71.08.016.434.036.786.044.888.022 1.434.114 2.151.364.387.134.498.186 1.076.499.596.322.82.485 1.21.88.28.282.357.345.327.27z"/></svg>