<svg role="img" viewBox="0 0 24 24" xmlns="http://www.w3.org/2000/svg"><path d="M8.537 15.839c-.352-.29-.311-.944.072-1.143a.614.614 0 0 1 .786.16l.143.183.165-.188a.831.831 0 0 1 .397-.232c.332-.064.672.277.67.672-.002.428-.205.638-.615.638-.32 0-.476-.096-.559-.345-.013-.04-.126.03-.25.155-.26.26-.568.298-.809.1zm.077-1.61c-.758-.06-.735.02-.735-2.507 0-2.167.018-2.33.283-2.533.19-.146.543-.11.714.071.149.159.156.238.176 2.104l.02 1.939.171.138c.125.101.285.138.596.138.469 0 .454.01 2.054-1.476.644-.6.976-.639.976-.117 0 .138-1.927 2.008-2.236 2.17-.187.098-1.233.136-2.02.074zm3.586.015c-.35-.03-.48-.232-.311-.489.115-.175.123-.176 1.334-.176 1.378 0 1.645-.034 1.748-.226.108-.202.002-.345-.747-1.012-.926-.826-1.013-1.014-.662-1.432.297-.353.583-.312 1.103.157 1.311 1.183 2.588 2.276 2.786 2.384.128.07.39.124.604.126.418.004.457-.022 1.43-.943 1.377-1.303 2.04-1.884 2.193-1.922.245-.062.4.034 1.242.767 1.033.9 1.238 1.305.978 1.928-.13.308-.327.49-.761.701-.296.144-.439.158-1.562.159-1.32 0-1.475-.037-1.475-.356 0-.3.116-.33 1.246-.33 1.138 0 1.43-.075 1.43-.363 0-.147-1.23-1.368-1.383-1.372-.024 0-.555.479-1.18 1.065-.626.587-1.244 1.132-1.375 1.211-.218.133-.328.142-1.353.109l-1.116-.036-.3-.238c-.284-.225-.304-.23-.374-.1-.158.296-.476.361-1.886.386a32.9 32.9 0 0 1-1.609.002zm-12.116-.1c-.133-.134-.103-.406.053-.49.082-.044.68-.075 1.43-.075 1.051 0 1.32-.02 1.451-.112.268-.188.196-.374-.327-.852-1.035-.945-1.103-1.025-1.103-1.288 0-.457.387-.747.743-.558.224.12 1.507 1.231 1.738 1.505.524.622.226 1.567-.58 1.841-.43.147-3.263.17-3.405.028zm4.78-.088-.203-.175-.02-2.1c-.024-2.31-.002-2.456.398-2.595.247-.086.473-.01.627.21.1.143.116.459.116 2.322v2.157l-.177.177c-.225.225-.482.226-.74.004zm1.689.092c-.073-.043-.18-.188-.236-.323-.28-.668.541-1.19.985-.626.423.538-.169 1.286-.75.949zM4.529 8.831a.227.227 0 0 1-.048-.14c0-.123 1.063-.704 1.196-.653.223.086.085.26-.434.545-.553.304-.631.33-.714.248z"/></svg>