<svg viewBox="0 0 24 24" xmlns="http://www.w3.org/2000/svg" role="img"><path d="M12.835 23.654a1.182 1.182 0 0 1-1.67 0l-2.17-2.17h2.253c.466 0 .913-.184 1.242-.513l5.495-5.495.024 3.004-5.174 5.174zm-8.072-5.478a1.75 1.75 0 0 0 1.239.514h7.772l-2.107 2.141H3.169v-4.249l1.594 1.594zm16.068 2.655h-4.249l1.594-1.594a1.75 1.75 0 0 0 .514-1.239v-7.772l2.141 2.107zM.346 12.836a1.182 1.182 0 0 1 0-1.671l2.17-2.17v2.253c0 .466.184.913.513 1.242l5.495 5.495-3.004.024-5.174-5.174zM12 6.491A5.51 5.51 0 0 1 17.508 12 5.51 5.51 0 0 1 12 17.508 5.51 5.51 0 0 1 6.492 12 5.51 5.51 0 0 1 12 6.492zm11.654 4.673a1.182 1.182 0 0 1 0 1.67l-2.17 2.17v-2.253c0-.466-.184-.913-.513-1.242l-5.495-5.495 3.004-.024 5.174 5.174zM3.169 3.168h4.249L5.824 4.763a1.753 1.753 0 0 0-.514 1.239v7.772l-2.14-2.107zm11.836-.654h-2.253c-.466 0-.913.185-1.242.514L6.015 8.524 5.991 5.52 11.165.346a1.182 1.182 0 0 1 1.67 0l2.17 2.17zm5.826.654v4.249l-1.594-1.594a1.753 1.753 0 0 0-1.239-.514h-7.772l2.107-2.141z"/></svg>