<svg role="img" viewBox="0 0 24 24" xmlns="http://www.w3.org/2000/svg"><path d="M10.895 22.623c-.216-.077-.402-.3-.455-.547a.476.476 0 0 0-.038-.13.919.919 0 0 0-.118.084c-.168.128-.783.336-1.108.375-.151.018-.167.007-.099-.07.043-.049.041-.05-.092-.033-.246.028-.782.047-.873.03-.111-.021-.113-.044-.01-.095.08-.04.078-.04-.156-.042-.315-.002-.677-.095-.588-.152a.216.216 0 0 1 .095-.022c.126 0 .007-.047-.221-.085a3.089 3.089 0 0 1-.358-.08c-.123-.042-.123-.042-.056-.067.126-.045.102-.059-.413-.224a1.967 1.967 0 0 1-.32-.125c-.046-.035-.046-.037-.002-.07.05-.036.013-.061-.523-.355a1.735 1.735 0 0 1-.275-.183l-.083-.078.056-.03.056-.03-.052-.028c-.032-.017-.207-.027-.466-.027-.969 0-1.622-.225-2.17-.745-.557-.53-.777-1.079-.775-1.933.001-.319.033-.594.088-.762.04-.119.04-.119-.024-.186a.301.301 0 0 1-.065-.084c0-.01.046-.018.103-.018h.102l-.262-.248a3.16 3.16 0 0 1-.386-.434c-.139-.207-.156-.268-.069-.243.146.042.149.035.03-.067-.318-.273-.58-.555-.58-.625 0-.009.034-.009.075 0 .04.01.074.01.074.002s-.063-.089-.139-.179c-.143-.168-.28-.37-.28-.41 0-.013.032-.017.073-.009.041.008.074.005.074-.006 0-.01-.061-.097-.136-.19-.144-.18-.283-.43-.283-.51 0-.044.007-.043.11.018.062.035.112.06.112.052a2.14 2.14 0 0 0-.114-.197.79.79 0 0 1-.127-.297c-.013-.122-.007-.127.115-.085.043.015.085.022.091.015.007-.007-.027-.075-.076-.15-.136-.214-.332-.74-.285-.768.01-.007.048.01.082.037.082.064.12.062.105-.007-.007-.03-.05-.222-.098-.426a5.516 5.516 0 0 1-.151-.85c-.018-.195-.025-.185.1-.135.04.017.042.029-.04-.382a2.285 2.285 0 0 1-.046-.333l.001-.102.05.059c.026.032.055.052.063.044s.002-.12-.013-.248C.09 9.943.09 9.481.122 9.481c.014 0 .025.009.025.02 0 .01.016.041.036.068.033.042.035-.01.021-.464-.015-.502-.015-.513.034-.513.045 0 .05-.02.065-.232.016-.25.08-.573.118-.596.013-.008.036.021.05.064.045.128.07.04.107-.39.031-.354.064-.524.1-.524.007 0 .025.03.04.068.033.082.03.09.103-.278.058-.287.24-.809.294-.843.015-.009.041.003.059.028.038.052.032.064.172-.32a4.84 4.84 0 0 1 .497-.974c.16-.233.205-.266.205-.152 0 .042.008.076.018.076.01 0 .074-.09.142-.203.176-.29.382-.56.506-.667.125-.107.148-.113.149-.037 0 .046.038.017.203-.154.275-.285.684-.666.714-.666.014 0 .03.02.037.047.011.041.033.03.177-.086.168-.137.507-.33.533-.304.008.008.003.044-.01.08-.014.037-.015.065-.002.065s.128-.088.256-.196c.223-.188.52-.396.564-.396.011 0 .02.024.02.054 0 .051.005.05.08-.022a2.46 2.46 0 0 1 .757-.44c.055-.016.058-.012.045.053a.9.9 0 0 1-.03.114c-.01.025-.006.043.01.043.014 0 .226-.067.47-.148.446-.15.742-.21.742-.15 0 .016-.028.07-.061.119-.034.05-.057.094-.052.1.005.005.125-.015.265-.044.32-.066.887-.093 1.088-.051.26.054.171.112-.401.26-.442.115-.547.159-.394.163.047.001.113.01.147.02.056.017.045.027-.123.113-.212.108-.739.436-.836.522l-.065.057.179.001c.098 0 .179.01.179.021 0 .026-.33.207-.901.494a4.457 4.457 0 0 0-.53.3l-.087.075.092-.013c.303-.041.283-.041.229.001a9.28 9.28 0 0 1-.358.236c-.346.22-.452.294-.44.306a.85.85 0 0 0 .181-.038l.172-.046-.098.087c-.055.049-.21.172-.346.274-.324.243-.318.236-.174.215l.122-.018-.073.098c-.594.8-.814 1.1-.822 1.123-.005.014.04-.003.1-.038.23-.134.215-.098-.19.478a9.08 9.08 0 0 0-.283.417l-.031.06.09-.056c.05-.031.097-.05.104-.043.026.026-.147.39-.349.734a5.06 5.06 0 0 0-.21.375c0 .031.022.023.19-.07a.69.69 0 0 1 .169-.08 2.35 2.35 0 0 1-.152.306c-.201.366-.43.832-.416.846.006.006.05-.024.099-.066.16-.141.16-.151.007.502a5.466 5.466 0 0 0-.11.568l-.013.148.066-.08c.036-.044.074-.08.084-.08.022 0 .01.239-.036.671a6.22 6.22 0 0 0-.035.5c0 .183.024.2.152.11.04-.029.08-.046.088-.038.008.008.002.218-.014.466-.031.489-.038.979-.014 1.041.022.057.063.048.159-.034a.364.364 0 0 1 .112-.074c.018 0 .033.118.044.338.017.361.078.96.104 1.027.025.064.046.05.107-.075.07-.147.08-.132.149.264.069.396.148.737.174.753.011.007.04-.037.063-.099.024-.06.055-.11.07-.11.016 0 .134.21.262.468.129.258.242.47.252.47.01 0 .025-.057.034-.125.01-.068.027-.13.04-.138.075-.046.289.361.368.7.03.126.06.229.07.229.02 0 .224-.34.312-.522l.067-.139-.2-.246a8.211 8.211 0 0 1-1.734-6.366 8.068 8.068 0 0 1 2.231-4.495 8.1 8.1 0 0 1 5.854-2.475c2.18 0 4.217.834 5.748 2.354 1.362 1.351 2.148 2.98 2.39 4.952.05.394.04 1.537-.014 1.934-.152 1.107-.481 2.096-.98 2.945-.336.57-.772 1.175-1.077 1.492a1.578 1.578 0 0 0-.204.238c0 .018.237.403.336.546a.364.364 0 0 0 .115-.043.541.541 0 0 1 .146-.052c.057 0 .088-.05.118-.186a.901.901 0 0 1 .108-.246c.045-.068.124-.21.176-.317.076-.154.121-.213.225-.292.09-.068.14-.127.16-.19a.905.905 0 0 1 .275-.428l.15-.14-.02-.131c-.04-.256-.028-.342.07-.5a.62.62 0 0 0 .09-.204c0-.032.017-.098.038-.147.02-.048.047-.154.06-.235a.4.4 0 0 1 .11-.242c.123-.137.14-.18.134-.342-.006-.142-.003-.149.113-.278l.12-.133-.015-.157c-.017-.176.005-.24.14-.427.081-.112.083-.12.071-.304-.008-.13-.002-.208.021-.25.026-.05.027-.089.003-.204a1.01 1.01 0 0 1 .009-.502c.063-.299.057-.426-.033-.641-.096-.23-.099-.324-.015-.486.074-.142.07-.192-.03-.339-.105-.154-.12-.219-.074-.332.053-.133.05-.217-.013-.32-.08-.132-.095-.21-.068-.375.024-.15.023-.154-.087-.382-.091-.19-.114-.265-.127-.422-.018-.217-.053-.376-.083-.376a.603.603 0 0 1-.131-.105c-.088-.083-.115-.128-.128-.213-.013-.087-.039-.13-.13-.213-.108-.099-.113-.11-.096-.199a.313.313 0 0 0-.032-.207 2.134 2.134 0 0 1-.089-.252c-.033-.123-.05-.147-.147-.203-.164-.097-.251-.196-.284-.325a.363.363 0 0 0-.102-.18c-.06-.053-.073-.083-.073-.176a.409.409 0 0 0-.019-.14c-.025-.04-.14-.083-.223-.083-.122 0-.187-.056-.276-.233-.069-.138-.106-.182-.184-.222a.413.413 0 0 1-.174-.186c-.064-.115-.093-.142-.198-.182-.279-.108-.428-.194-.59-.343l-.172-.158.034-.141.034-.141-.122-.124a1.255 1.255 0 0 0-.245-.19.52.52 0 0 1-.201-.19 2.246 2.246 0 0 0-.166-.224c-.16-.184-.185-.277-.094-.35.058-.047.134-.038.302.035.139.06.162.064.261.037.06-.016.186-.029.281-.029h.173v-.12c0-.155.038-.262.112-.31.088-.058.143-.047.207.038a.584.584 0 0 0 .19.138.406.406 0 0 0 .279.045c.111-.013.162-.007.224.024.077.04.08.04.146-.023.08-.077.151-.08.214-.012.1.112.127.11.27-.025.072-.069.15-.125.172-.125.07 0 .144.051.299.208.157.16.135.15.573.276a.543.543 0 0 1 .361.352c.048.145.112.2.23.2.118 0 .214.105.264.287.066.237.076.252.19.283.341.09.428.157.515.388.08.215.139.294.302.405.194.132.333.259.378.344a.704.704 0 0 1 .035.263c0 .218.001.22.205.336a.565.565 0 0 1 .168.147c.05.08.052.173.006.5-.013.1-.01.105.1.18.153.106.168.144.159.391l-.008.211.074.042c.063.036.074.056.072.138 0 .053-.01.149-.02.213l-.02.115.172.183c.095.1.199.232.23.292.064.122.067.195.035.824l-.018.37.115.218c.19.36.225.66.12 1.066-.05.2-.033.381.046.486.12.158.153.247.152.416 0 .172-.05.311-.18.517-.098.156-.108.231-.064.503.05.305.049.589 0 .758-.023.074-.09.231-.152.35-.124.239-.12.195-.056.685.036.273.016.348-.182.676-.12.198-.132.308-.068.628.029.145.053.292.053.327 0 .133-.08.296-.223.454-.155.17-.197.27-.197.464 0 .13-.068.353-.164.544a1.103 1.103 0 0 1-.452.435c-.187.099-.298.21-.297.297 0 .035.023.196.05.359.085.518.056 1.025-.083 1.432-.31.909-1.09 1.535-2.17 1.742-.251.049-.326.052-.772.037a10.38 10.38 0 0 1-.58-.03c-.08-.012-.092-.005-.165.099-.112.159-.228.224-.546.31-.35.095-.428.136-.597.311a1.776 1.776 0 0 1-.246.212c-.1.065-.128.071-.34.071-.262 0-.348.027-.536.17a1.282 1.282 0 0 1-.534.251 1.909 1.909 0 0 1-.8.026c-.147-.034-.15-.034-.329.045l-.18.079-.155-.039a1.462 1.462 0 0 0-.3-.038c-.14 0-.15.005-.209.088a.653.653 0 0 1-.328.218c-.092.021-.25-.023-.396-.112l-.119-.073-.098.098c-.21.21-.433.225-.76.048l-.194-.104-.09.078c-.2.175-.413.221-.646.138zm1.429-.11c.203-.056.366-.288.467-.661.067-.249.073-.902.012-1.285-.193-1.203-.715-2.15-1.186-2.15a.543.543 0 0 0-.174.035c-.09.037-.286.203-.286.24 0 .013.05.097.112.187.218.318.402.788.515 1.316.091.425.12.747.108 1.192-.01.383-.014.41-.101.656-.068.193-.084.265-.063.29a.78.78 0 0 0 .316.173c.143.038.166.039.28.007zm-3.344-.482a2.22 2.22 0 0 0 .325-.14l.136-.078-.055.07c-.096.122-.077.147.095.127.296-.033 1.287-.37 1.301-.443.007-.035-.032-.04-.325-.04-.706 0-1.394-.146-2.2-.469a9.414 9.414 0 0 1-1.213-.583l-.48-.262-.198.09c-.212.097-.681.262-.746.262-.155 0 .013.181.308.334.26.134.5.2.82.223.13.01.237.026.237.036 0 .011-.058.039-.13.062-.338.11-.347.166-.046.27.188.065.378.05.596-.05.372-.167.471-.137.123.038-.208.105-.247.14-.194.177.057.038.293.003.586-.09.437-.137.493-.113.165.07-.213.118-.304.204-.262.247a.619.619 0 0 0 .204.034c.146.009.236-.004.472-.066.16-.042.31-.076.332-.076.027 0-.009.05-.1.143a.976.976 0 0 0-.141.16c0 .04.211.015.39-.045zm6.49-.1c.04-.045.08-.058.165-.058.133 0 .174-.047.2-.229.019-.124-.028-.24-.096-.24a.377.377 0 0 1-.124-.062.431.431 0 0 0-.114-.062 1.38 1.38 0 0 0-.209.115.875.875 0 0 1-.351.142l-.166.027-.02.095a.518.518 0 0 1-.068.164c-.066.093-.063.12.018.137.038.008.09.024.118.036.027.012.171.015.32.007.243-.013.278-.02.326-.072zm-1.593.017a.908.908 0 0 1 .27-.071c.18-.022.293-.06.293-.098 0-.01-.027-.084-.06-.165-.058-.143-.065-.15-.191-.192a.451.451 0 0 1-.2-.123c-.063-.074-.07-.077-.101-.037a.59.59 0 0 0-.048.21c-.013.146-.039.26-.104.469-.023.07.028.073.14.008zm2.673-.445c.42-.046.53-.142.338-.296a.463.463 0 0 1-.152-.226c-.073-.202-.126-.224-.3-.126a.664.664 0 0 1-.29.087c-.232.02-.244.04-.163.292.11.341.1.325.204.31l.363-.041zm-1.811-.12a.442.442 0 0 1 .12-.065 1.01 1.01 0 0 0 .161-.074.782.782 0 0 1 .243-.074c.223-.027.296-.135.19-.284-.097-.135-.297-.156-.617-.064-.08.023-.23.039-.363.039-.126 0-.256.012-.29.028-.117.053-.142.241-.046.348.03.033.078.043.206.043.158 0 .17.004.22.074.062.086.095.092.176.028zm-3.915-.43a1.18 1.18 0 0 0-.034-.243 1.783 1.783 0 0 0-.238-.071c-.821-.21-1.692-.57-2.535-1.05l-.288-.164-.3.224c-.166.123-.31.224-.323.224-.012 0-.022.016-.022.035 0 .073.733.481 1.247.695.753.313 1.713.54 2.44.575l.07.003zm6.52.031.039-.099h.193c.223 0 .255-.02.28-.175.02-.118.015-.123-.12-.168a3.43 3.43 0 0 1-.3-.127l-.201-.096-.185.075c-.19.077-.385.24-.353.292.023.037.37.3.467.354.112.062.135.055.18-.056zm-1.034-.228c.04-.032.04-.203 0-.236a.275.275 0 0 0-.117-.034c-.08-.008-.088-.016-.12-.131-.042-.153-.068-.185-.144-.185-.102 0-.156.043-.156.125 0 .113-.039.164-.175.233-.068.035-.13.08-.138.1-.022.057.013.154.06.165.08.02.759-.013.79-.037zm-1.805-.105a.62.62 0 0 1 .2-.037c.072 0 .143-.02.2-.055a.693.693 0 0 1 .237-.072c.115-.013.16-.03.198-.078a.558.558 0 0 1 .152-.112c.125-.063.144-.107.093-.21-.095-.186-.198-.243-.433-.241-.186.002-.256.027-.28.1-.008.026-.063.071-.123.1-.073.035-.116.075-.133.124a.457.457 0 0 1-.147.16.547.547 0 0 0-.138.126c-.029.076-.014.18.029.205.054.032.042.033.145-.01zm2.184-.256c.032-.025.098-.065.145-.09.18-.09.168-.126-.096-.293l-.22-.14-.15.081c-.082.044-.153.097-.157.118-.018.084.012.14.088.162.056.016.091.05.122.116.037.08.055.092.126.092a.26.26 0 0 0 .142-.046zm-6.062-.39a1.237 1.237 0 0 0-.07-.18l-.054-.112-.208-.032c-.26-.04-.364-.086-.582-.261a.944.944 0 0 0-.203-.14c-.041 0-.007.09.109.277.049.08.082.151.074.16-.047.046-.453-.337-.578-.547-.147-.245-.235-.358-.317-.408-.168-.104-.167-.066.006.304.062.132.106.248.098.256-.027.027-.131-.06-.314-.262-.1-.11-.192-.199-.205-.199a.719.719 0 0 0-.155.124c-.127.121-.13.126-.085.17.06.06.492.302.778.436.492.23 1.307.47 1.615.477.105.002.107.001.09-.063zm3.574.038a.34.34 0 0 0 .092-.075c.028-.036.083-.053.21-.065.167-.017.172-.02.22-.112a.35.35 0 0 1 .094-.119c.055-.03.166-.248.166-.327 0-.122-.142-.193-.263-.13a.606.606 0 0 0-.149.134.454.454 0 0 1-.148.123l-.189.068a.654.654 0 0 0-.189.108 4.29 4.29 0 0 1-.134.119c-.085.071-.08.12.02.22.089.089.172.106.27.056zm1.942-.174c.243-.087.235-.115-.099-.36-.06-.046-.15-.017-.27.085-.134.115-.13.172.018.272.064.044.133.075.154.07.02-.005.109-.036.197-.067zm4.292-.16a1.731 1.731 0 0 0 1.086-.712 2.24 2.24 0 0 0 .361-.938c.02-.147-.01-.127-.073.05-.128.357-.365.677-.622.842a1.79 1.79 0 0 1-.321.148c-.163.056-.236.066-.465.066-.15 0-.343-.013-.43-.03-.393-.076-.92-.306-1.347-.588-.493-.326-1.248-1.008-1.68-1.518a1.084 1.084 0 0 0-.158-.167c-.01 0-.135.071-.28.159-.143.087-.39.228-.547.312a1.9 1.9 0 0 0-.285.172c0 .032.52.518.835.78.834.693 1.89 1.243 2.692 1.403.441.089.86.096 1.234.02zm-6.636-.01c.087-.045.172-.226.172-.364 0-.162-.036-.184-.267-.162l-.171.016.054.138c.03.077.062.17.071.206.026.101.063.192.08.192a.23.23 0 0 0 .06-.025zm1.487-.022c.121-.02.16-.04.253-.134.06-.06.11-.12.11-.13a.77.77 0 0 0-.039-.122l-.039-.103-.201-.012c-.133-.008-.208-.003-.22.016a.454.454 0 0 0-.02.15.363.363 0 0 1-.037.172c-.044.058-.046.117-.007.157.036.035.023.035.2.006zm-10.609-.1a4.813 4.813 0 0 0 1.198-.435 8.915 8.915 0 0 0 1.456-.94c.277-.232.818-.748.89-.848l.05-.07-.13-.067a7.929 7.929 0 0 1-.535-.34l-.404-.275-.09.11c-1.199 1.475-2.55 2.371-3.573 2.371-.177 0-.474-.071-.65-.156a1.326 1.326 0 0 1-.35-.265c-.189-.188-.205-.213-.438-.714-.048-.102-.01.168.05.364.227.738.691 1.166 1.412 1.304.246.047.795.028 1.114-.04zm9.664-.32c.045-.064.07-.075.16-.075.115 0 .127-.014.184-.235.052-.197.022-.222-.183-.149a.718.718 0 0 1-.297.022c-.22-.016-.249-.002-.263.127-.006.058.005.079.056.104.04.02.08.073.107.141.038.1.068.127.154.135.016.002.053-.03.082-.071zm-4.3-.164a.703.703 0 0 1 .49-.543.55.55 0 0 1 .412.04l.1.045.125-.113c.312-.282.608-.27.926.036.074.072.141.13.15.13a.261.261 0 0 0 .075-.064c.096-.102.18-.133.363-.133.14 0 .197.013.321.075a.82.82 0 0 1 .214.15c.058.07.072.074.217.068a2.21 2.21 0 0 1 .305.014l.151.02.06-.108.059-.108.234-.007c.219-.007.238-.012.308-.078a.488.488 0 0 1 .18-.1c.126-.033.125-.036-.112-.29l-.167-.18-.407.098a8.096 8.096 0 0 1-4.367-.165l-.28-.09-.208.221c-.328.35-.32.297-.085.541.11.115.2.223.201.24 0 .018.021.006.046-.027l.046-.06.07.052c.04.028.166.146.281.263.115.116.221.211.236.211.014 0 .04-.062.055-.138zm5.09-.167c0-.018.021-.06.047-.093l.047-.06-.11-.116c-.114-.121-.151-.137-.201-.087-.036.036-.04.238-.006.327.02.053.04.063.123.063.068 0 .1-.011.1-.034zm5.833-.855c.092-.014.21-.046.262-.073.079-.04.1-.067.126-.166a2.27 2.27 0 0 0 .036-.398c.004-.256 0-.283-.047-.315-.119-.083-.363-.01-.713.213-.355.227-.32.18-.33.435l-.007.224.107.03c.06.017.168.039.24.05l.146.021c.007.001.088-.008.18-.021zm-8.864-.165c.057-.055.069-.087.069-.187s-.012-.133-.072-.193c-.205-.205-.535.042-.41.306.08.17.277.204.413.074zm-8.34-.048c.105-.053.104-.052.06-.101-.071-.082-.658-1.015-.82-1.307a13.509 13.509 0 0 1-1.605-4.982 12.967 12.967 0 0 1-.04-1.904c.14-1.788.729-3.37 1.703-4.572.65-.802 1.414-1.428 2.718-2.226.56-.342 1.078-.689 1.158-.774l.06-.064h-.075c-.267 0-.844.246-1.152.491-.106.085-.198.15-.205.143-.015-.015.067-.178.178-.35.1-.157.103-.172.03-.133-.127.066-.26.195-.519.5-.15.178-.281.327-.292.332-.035.013.03-.175.106-.31.041-.073.069-.139.06-.146-.024-.025-.177.085-.304.22-.067.07-.22.26-.338.42a2.32 2.32 0 0 1-.236.29c-.03 0 .012-.189.084-.38a.631.631 0 0 0 .052-.182c-.024-.024-.19.1-.297.222-.06.07-.18.247-.265.395-.215.372-.34.561-.37.561-.039 0-.006-.174.081-.428.042-.12.069-.225.06-.233-.022-.023-.204.166-.304.316-.137.206-.329.585-.524 1.036a4.697 4.697 0 0 1-.202.432c-.018.018-.022-.044-.014-.197.009-.17.033-.283.1-.476.048-.139.076-.252.063-.252-.115 0-.316.211-.431.454-.117.246-.172.451-.257.965a9.59 9.59 0 0 1-.09.492c-.014.046-.015.046-.04 0-.016-.028-.027-.247-.028-.557-.001-.281-.011-.52-.022-.531-.048-.048-.205.299-.308.68-.057.213-.064.283-.065.687a3.576 3.576 0 0 1-.016.451c-.016 0-.096-.229-.172-.49-.084-.293-.11-.21-.109.35.001.381.012.528.056.755.063.331.07.45.021.432a1.024 1.024 0 0 1-.164-.184C1.015 7.608.942 7.53.925 7.53c-.04 0-.057.169-.034.34.01.07.069.24.132.374.118.252.165.422.116.422-.014 0-.076-.078-.137-.172-.12-.186-.222-.273-.266-.229-.017.017-.023.102-.015.232.009.158.042.296.139.594.125.383.159.577.096.556a1.824 1.824 0 0 1-.218-.23c-.242-.284-.27-.291-.27-.065 0 .361.104.772.3 1.187.066.142.117.26.113.265a1.443 1.443 0 0 1-.167-.18c-.193-.227-.29-.303-.322-.252-.085.134.054.611.273.934.132.194.223.389.223.48 0 .07-.004.068-.18-.102-.172-.167-.33-.252-.395-.212-.014.009-.018.096-.01.215.024.347.185.722.473 1.1.088.116.16.22.16.23.001.012-.079-.023-.177-.076a1.535 1.535 0 0 0-.25-.114l-.072-.017.012.124c.016.164.121.333.396.636.12.133.23.263.245.289.024.042.019.045-.063.03a1.558 1.558 0 0 1-.273-.105.71.71 0 0 0-.228-.078c-.082.017.205.265.51.44.5.286.535.4.05.161a1.931 1.931 0 0 0-.324-.137c-.075 0-.103.085-.061.184.057.137.234.288.518.444.144.078.262.146.262.15 0 .008-.098-.015-.357-.084-.232-.062-.236-.062-.236-.017 0 .073.248.243.63.433.404.2.51.283.399.31a.583.583 0 0 1-.229-.047l-.323-.118c-.084-.031-.161-.048-.172-.038-.031.032.07.19.176.277.109.088.314.195.69.359.136.059.28.14.322.178l.075.071-.16-.015-.31-.029c-.181-.016-.26.024-.208.107.056.09.273.198.579.291.423.128.622.201.744.273.164.096.139.115-.12.096-.207-.015-.235-.012-.29.033-.106.086-.045.157.264.308l.266.13.012.14c.007.079.03.158.05.178a.445.445 0 0 0 .476.073zm16.338-.062a.454.454 0 0 0 .122-.16c.046-.104.046-.107-.002-.245-.045-.128-.046-.148-.013-.227.044-.105.047-.232.007-.273-.054-.054-.125-.03-.245.082-.065.06-.139.11-.163.11-.068 0-.15.068-.16.13-.005.038-.046.075-.13.118a.399.399 0 0 0-.128.086c-.012.041.545.43.617.432a.326.326 0 0 0 .096-.053zm-15.544-.442a4.6 4.6 0 0 0 .256-.23l.058-.062-.232-.254c-1.471-1.611-2.324-3.683-2.488-6.043-.12-1.717.218-3.615.928-5.23.074-.168.131-.317.126-.33-.012-.039-.253.259-.434.536-.892 1.366-1.29 3.256-1.113 5.283.138 1.578.563 3.08 1.283 4.542.408.826.878 1.609 1.146 1.906l.116.13.078-.04c.043-.023.167-.116.276-.208zm14.8-.104c.083-.056.085-.061.105-.29a1.52 1.52 0 0 0-.085-.66c-.023-.06-.113-.075-.196-.03-.089.047-.171.227-.172.372 0 .09-.016.16-.049.214a.35.35 0 0 0-.05.11c0 .038.299.34.336.34a.357.357 0 0 0 .112-.056zm1.454-.175c.088-.044.12-.077.15-.159a.688.688 0 0 1 .13-.198.578.578 0 0 0 .129-.213c.027-.092.07-.15.194-.264.177-.162.261-.31.261-.456 0-.188-.069-.198-.453-.067-.254.087-.275.1-.394.235a.609.609 0 0 1-.293.207c-.159.06-.267.15-.267.221a.45.45 0 0 1-.087.136c-.048.058-.084.123-.08.144.004.021.063.06.13.085.068.025.163.065.21.088.083.04.086.047.082.164-.003.071.008.13.025.141.039.026.129.004.263-.064zm-7.861.02a7.003 7.003 0 0 0 4.21-2.035 6.93 6.93 0 0 0 1.838-3.197 7.147 7.147 0 0 0-.476-4.846 7.246 7.246 0 0 0-2.549-2.874c-2.083-1.354-4.84-1.481-7.055-.326a6.77 6.77 0 0 0-1.667 1.22C6.081 6.178 5.412 7.5 5.168 9.146c-.057.376-.064 1.456-.013 1.815.172 1.223.589 2.276 1.283 3.246a7.159 7.159 0 0 0 2.893 2.343 7.215 7.215 0 0 0 2.11.555c.344.036 1.162.03 1.506-.01zm-1.04-.454c-.126-.057-.452-.362-.546-.51-.08-.126-.094-.128-.352-.056-.257.072-.717.09-.969.037-.806-.166-1.383-.727-1.538-1.495a2.036 2.036 0 0 1 .183-1.305c.12-.239.121-.232-.042-.324-.156-.088-.226-.178-.226-.292 0-.117.066-.154.324-.18a1.73 1.73 0 0 0 .772-.247c.257-.147.363-.174.435-.11.068.062.062.145-.038.544-.078.308-.087.376-.083.64.004.29.003.295-.063.351-.108.093-.2.072-.364-.084-.083-.08-.092-.083-.114-.04-.079.15-.097.45-.043.708.121.571.495.852.995.747.6-.125.983-.62 1.228-1.591.083-.333.138-.694.143-.95l.004-.219-.165-.056a2.293 2.293 0 0 1-.94-.637c-.481-.569-.67-1.177-.587-1.89.016-.14.026-.259.021-.263-.032-.033-1.061-.342-1.283-.386-.35-.069-.794-.074-1.032-.012-.235.061-.489.19-.635.322-.488.441-.335 1.158.316 1.477.17.083.474.167.503.139.007-.007.002-.05-.012-.097-.04-.14-.03-.306.02-.353.073-.065.172-.048.385.068.205.112.352.159.708.226.357.068.463.138.426.28-.008.03-.104.115-.215.193-.272.19-.508.43-.608.62-.138.26-.28.322-.404.176-.063-.075-.084-.147-.095-.332l-.006-.1-.38-.03c-.435-.034-.58-.07-.844-.207A1.921 1.921 0 0 1 5.82 10.2a2.352 2.352 0 0 1 0-1.022c.103-.361.232-.595.502-.91l.12-.139-.096-.206c-.128-.276-.178-.426-.193-.59-.01-.114-.004-.146.043-.205.104-.131.45-.306.74-.372l.136-.031.018-.168c.113-1.011.798-1.763 1.721-1.89.615-.083 1.342.207 1.769.706a.539.539 0 0 0 .142.134.65.65 0 0 0 .16-.099c.146-.109.27-.13.368-.06.07.048.07.136.004.381-.067.25-.088.618-.049.88.03.199.029.215-.017.277-.09.12-.169.102-.416-.096-.266-.211-.463-.326-.703-.407-.257-.088-.295-.117-.295-.23 0-.11.08-.2.229-.263.05-.02.092-.046.092-.057 0-.04-.323-.233-.495-.294a1.061 1.061 0 0 0-.408-.067c-.21-.002-.236.004-.394.084-.308.157-.444.41-.441.815a.912.912 0 0 0 .068.404c.14.36.406.692.78.973.192.144.84.546 1.065.66l.127.065.2-.196a2.473 2.473 0 0 1 1.004-.61c.18-.06.263-.07.581-.08.42-.014.598.013.952.14.246.09.5.25.76.48l.184.16.088-.036c.272-.114.94-.526 1.229-.758.32-.257.58-.633.663-.955.06-.233.04-.52-.048-.7a.899.899 0 0 0-.45-.41 1.25 1.25 0 0 0-.614-.023c-.14.038-.493.213-.544.27-.041.045-.04.048.04.09.13.07.245.192.245.262 0 .101-.075.158-.334.253a2.33 2.33 0 0 0-.704.385c-.213.16-.324.186-.406.095-.047-.052-.046-.099.012-.481.03-.196.019-.337-.055-.695-.06-.29-.05-.36.056-.404.101-.042.229-.003.362.11a.501.501 0 0 0 .123.088c.012 0 .093-.074.181-.163.748-.761 1.809-.871 2.591-.27.3.231.552.571.693.935.069.177.146.54.146.686 0 .095.07.158.198.179.134.021.522.22.618.316.04.04.08.102.089.137.026.104-.062.414-.193.677l-.123.246.113.12c.361.386.557.955.524 1.518-.019.31-.064.483-.201.767-.234.485-.767.899-1.284.997a4.872 4.872 0 0 1-.481.046l-.333.017-.015.148c-.018.185-.072.292-.17.332-.102.043-.176-.009-.293-.202-.148-.245-.361-.494-.512-.6-.236-.163-.312-.241-.312-.318 0-.126.064-.158.488-.239.32-.061.437-.096.626-.185.255-.12.348-.133.422-.06.059.06.063.147.013.311-.02.067-.037.124-.037.128-.001.02.184 0 .297-.033.332-.097.641-.337.77-.598.161-.329.085-.67-.218-.975-.447-.45-1.336-.505-2.456-.15-.315.1-.299.063-.228.508.04.248.04.283.001.531-.086.568-.303 1.01-.675 1.38-.319.316-.739.556-1.125.643l-.176.04.016.373c.038.89.202 1.5.525 1.956.363.512.902.664 1.348.381.232-.147.378-.437.405-.806.013-.168-.017-.465-.05-.498a.455.455 0 0 0-.139.078c-.162.112-.269.118-.345.02-.05-.062-.052-.083-.033-.252.03-.268.018-.463-.051-.837-.065-.346-.06-.396.034-.446.08-.043.136-.03.295.073.321.208.61.33.858.359.295.036.376.121.287.303-.032.066-.084.112-.185.165a1.484 1.484 0 0 0-.157.092c-.01.009.028.138.084.287.125.333.163.56.143.868-.062.994-.802 1.727-1.832 1.814-.23.02-.41-.007-.791-.114l-.28-.079-.216.22c-.197.2-.409.353-.538.39a.313.313 0 0 1-.151-.033zm.304-.252c.182-.119.379-.324.443-.464.052-.113.073-.119.205-.051.296.15.785.226 1.136.175a1.8 1.8 0 0 0 1.052-.51c.21-.207.383-.528.445-.825.077-.369.021-.806-.163-1.266-.094-.234-.085-.258.142-.369.197-.096.234-.167.088-.167-.227-.001-.52-.11-.83-.305a3.811 3.811 0 0 0-.187-.113c-.057-.03-.058-.03-.04.076.008.06.039.196.066.305.043.17.048.242.033.512-.011.221-.009.315.01.315a.907.907 0 0 0 .187-.148c.087-.082.175-.148.194-.148.128 0 .215.777.126 1.124-.088.344-.3.62-.573.745-.2.093-.504.107-.739.035-.48-.146-.88-.602-1.078-1.23-.118-.376-.246-1.304-.233-1.699l.007-.222.237-.052c.32-.071.402-.099.588-.2a2.183 2.183 0 0 0 1.105-2.401 1.898 1.898 0 0 1-.05-.302c.032-.055.958-.298 1.34-.351.98-.137 1.697.12 1.99.712.255.516.032 1.111-.526 1.405-.226.118-.57.216-.783.222-.212.006-.222-.015-.114-.246.075-.16.096-.255.056-.255a.911.911 0 0 0-.154.072c-.169.091-.49.184-.77.223-.119.017-.216.04-.216.05 0 .012.07.07.154.13.203.146.357.313.527.574.162.248.189.247.203-.012.014-.244.021-.248.44-.257.42-.009.602-.051.943-.218.437-.213.725-.553.864-1.019.048-.16.059-.253.059-.494 0-.493-.13-.86-.442-1.242-.3-.364-.275-.308-.181-.415.155-.176.335-.662.29-.78-.018-.045-.241-.18-.436-.263a1.218 1.218 0 0 0-.296-.073l-.163-.016-.015-.284c-.018-.316-.042-.439-.134-.684a1.771 1.771 0 0 0-.902-.981 1.566 1.566 0 0 0-.82-.156c-.504.021-.858.187-1.258.59-.135.137-.262.244-.288.244a.462.462 0 0 1-.166-.095c-.111-.088-.212-.152-.238-.152-.006 0 .012.092.039.204.055.226.067.535.033.854l-.022.206.232-.16a2.34 2.34 0 0 1 .639-.34c.102-.038.185-.082.185-.1 0-.039-.071-.078-.265-.148-.168-.06-.18-.101-.062-.211.187-.176.546-.367.808-.43.194-.048.503-.041.667.013.385.127.608.408.671.846.05.343-.055.73-.286 1.052-.218.305-.6.628-1.1.93-.316.19-.796.444-.84.444-.017 0-.097-.072-.177-.16-.243-.265-.632-.491-1.048-.61-.284-.082-.826-.082-1.107 0a2.42 2.42 0 0 0-1.13.73l-.129.158-.124-.062c-.456-.23-1.116-.65-1.408-.897-.437-.37-.661-.734-.744-1.207-.148-.842.509-1.429 1.356-1.212.22.056.338.113.575.276.212.145.318.253.3.301-.008.02-.079.06-.158.088-.297.107-.335.15-.168.195.186.05.407.17.675.367.14.103.26.18.267.173.008-.008 0-.126-.016-.264a1.623 1.623 0 0 1 .061-.748.992.992 0 0 0 .048-.212c-.019-.018-.12.04-.229.13-.163.137-.206.126-.422-.111-.313-.342-.642-.548-1.02-.638-.887-.213-1.761.304-2.064 1.222a2.627 2.627 0 0 0-.126.702v.094l-.167.018c-.212.023-.344.068-.57.195l-.18.102.013.123c.022.192.126.467.236.625.055.078.1.152.1.163 0 .012-.082.107-.183.213-.58.607-.736 1.429-.4 2.11.314.635.978 1.007 1.778.997.278-.004.297.013.322.297.01.11.026.199.037.199a.76.76 0 0 0 .126-.18c.124-.21.401-.494.598-.612a.571.571 0 0 0 .141-.101c0-.022-.04-.033-.296-.082-.281-.054-.42-.1-.65-.215-.107-.054-.201-.09-.21-.082-.008.008.005.068.03.131.134.35.125.388-.09.368a2.407 2.407 0 0 1-.746-.236c-.681-.355-.832-1.126-.327-1.673.301-.328.83-.503 1.423-.47.362.018.701.093 1.249.276.258.085.517.168.576.184.1.027.106.034.093.095-.008.037-.032.166-.054.289-.13.711.186 1.54.77 2.022.198.163.415.28.719.385l.228.08v.138c0 .272-.173 1.227-.289 1.596-.186.592-.525 1.035-.957 1.248-.447.22-.898.154-1.213-.18a1.084 1.084 0 0 1-.27-.464c-.119-.345-.002-1.234.162-1.234.051 0 .143.082.217.193a.34.34 0 0 0 .108.093l.07.036v-.303c0-.262.01-.337.074-.562.111-.389.112-.387-.116-.257-.22.125-.418.195-.661.232-.381.06-.344.046-.293.103a.6.6 0 0 0 .144.1c.215.108.228.159.103.409-.182.363-.25.682-.232 1.074.016.331.084.555.245.802.28.43.682.693 1.196.783.362.063.586.044 1.01-.087.131-.04.243-.073.248-.073.005 0 .036.059.07.13.035.073.124.2.199.282.128.142.337.303.391.303a.965.965 0 0 0 .182-.102zm-.27-5.327a1.173 1.173 0 0 1-.77-1.395c.053-.208.146-.364.306-.516.253-.242.546-.35.891-.33.475.027.872.345 1.014.814.043.141.05.214.04.405-.01.204-.023.255-.101.412a1.18 1.18 0 0 1-.745.62 1.28 1.28 0 0 1-.635-.01zm.513-.151a.97.97 0 0 0 .71-.562c.07-.147.078-.189.078-.387 0-.197-.009-.24-.077-.385a.963.963 0 0 0-.662-.557.65.65 0 0 0-.344-.011c-.343.058-.616.247-.749.518-.062.127-.068.164-.068.412 0 .266.002.278.093.461a.902.902 0 0 0 .639.51.81.81 0 0 0 .38 0zm9.268 6.163c.156-.038.167-.05.211-.208.05-.177.115-.236.332-.3.22-.066.31-.139.286-.233-.023-.094-.123-.187-.2-.187a.369.369 0 0 0-.156.061.658.658 0 0 1-.286.087c-.46.058-.558.144-.558.49 0 .114.007.13.061.151.037.014.068.05.078.092.024.1.034.112.08.092.022-.01.09-.03.152-.045zm-16.495-.379c.111-.142.13-.189.13-.34 0-.175-.017-.203-.228-.402-.2-.19-.35-.391-.467-.628a.703.703 0 0 0-.098-.167c-.044 0-.043.204.001.373.026.1.044.185.04.19-.032.031-.237-.424-.437-.968a3.417 3.417 0 0 0-.172-.42c-.021-.02-.024.024-.012.171.045.558.046.596.003.544-.08-.1-.196-.587-.286-1.204a7.661 7.661 0 0 0-.075-.45c-.032-.13-.1-.284-.123-.284-.011 0-.032.064-.047.142-.076.388-.108.524-.126.524-.011 0-.026-.047-.033-.105l-.026-.216a5.544 5.544 0 0 1 .011-.543c.014-.237.031-.61.039-.827.012-.366.01-.39-.025-.328-.022.037-.084.23-.139.43-.055.2-.115.392-.133.427l-.034.064-.027-.07c-.053-.14-.024-.442.122-1.239.094-.514.125-.95.068-.95-.05 0-.08.04-.19.25a.704.704 0 0 1-.124.19c-.076.025.07-.786.233-1.292.06-.19.11-.361.111-.38.001-.077-.128.09-.24.31-.065.127-.124.23-.132.23-.024 0 .024-.294.08-.493a6.16 6.16 0 0 1 .282-.773c.112-.255.103-.31-.029-.177a2.309 2.309 0 0 0-.164.184c-.206.269.02-.204.316-.663.195-.302.18-.328-.065-.11-.086.077-.16.127-.165.112-.025-.073.341-.686.768-1.285a1.99 1.99 0 0 0 .164-.254c0-.039-.093.026-.276.19a.911.911 0 0 1-.188.148c-.02-.02.22-.419.443-.738.113-.164.298-.394.41-.511.112-.118.204-.221.204-.23 0-.009-.06.018-.132.059-.12.068-.214.094-.214.06 0-.084.262-.43.602-.794a2.83 2.83 0 0 0 .213-.244c0-.015-.148.007-.215.033-.057.022 0-.073.125-.21.202-.221.799-.615 1.287-.849.219-.105.22-.107.13-.114-.052-.004-.093-.02-.093-.033 0-.041.251-.275.409-.38.08-.053.307-.182.503-.286.197-.105.362-.204.368-.22.016-.049-.195-.008-.527.102-.971.322-1.888.972-2.684 1.904-.849.992-1.369 2.02-1.708 3.372-.233.93-.299 1.485-.297 2.51 0 .873.035 1.232.186 1.974.29 1.42.918 2.804 1.747 3.85.174.22.815.92.847.924a.344.344 0 0 0 .089-.09zm14.663-.062c.059-.078.122-.142.14-.142.055 0 .083-.057.11-.22.014-.086.054-.212.09-.28.083-.16.128-.5.086-.656-.024-.088-.045-.113-.119-.144-.104-.044-.237-.03-.305.032-.038.034-.046.078-.046.243 0 .192-.004.205-.074.272-.062.06-.074.09-.074.188 0 .089-.015.135-.061.19a.447.447 0 0 0-.112.33.36.36 0 0 0 .107.287c.075.083.137.06.258-.1zm-.44-.61c.108-.108.143-.225.151-.495.007-.26-.009-.37-.055-.37-.055 0-.162.083-.219.17a2.08 2.08 0 0 1-.153.194.416.416 0 0 0-.093.138.582.582 0 0 1-.062.15c-.076.143-.077.174-.007.223.085.06.375.053.438-.01zm3.027-.137a.401.401 0 0 1 .148-.109c.08-.035.11-.065.122-.117a.944.944 0 0 1 .263-.51c.147-.147.172-.213.118-.314-.036-.067-.092-.06-.221.026-.103.068-.123.073-.263.059a.433.433 0 0 0-.288.047 1.13 1.13 0 0 0-.246.163.525.525 0 0 1-.188.117c-.114.023-.151.092-.15.28 0 .14.035.346.059.346a.988.988 0 0 0 .094-.036c.104-.043.177-.027.228.051.032.05.06.06.161.06.103 0 .129-.01.163-.063zm-1.889-.125c.127-.136.231-.169.582-.183.272-.011.334-.02.377-.06.028-.025.051-.065.051-.088 0-.047.143-.272.173-.272.055 0 .04-.094-.04-.254-.116-.232-.187-.324-.28-.362-.1-.041-.146-.001-.21.177-.058.167-.072.184-.211.255a.484.484 0 0 0-.157.122.74.74 0 0 1-.177.15c-.114.074-.146.111-.209.25-.07.156-.093.277-.057.312.034.035.1.015.158-.047zM20.556 15a.615.615 0 0 1 .186-.078c.066-.011.103-.035.122-.075.027-.06.016-.111-.088-.43-.035-.109-.034-.119.024-.235.1-.202.036-.456-.119-.475-.09-.011-.143.067-.173.257a1.08 1.08 0 0 1-.085.28.5.5 0 0 0-.059.165.56.56 0 0 1-.065.178c-.05.097-.06.144-.048.213.016.085.144.26.19.26a.444.444 0 0 0 .115-.06zm-.56-.021c.077-.052.086-.07.1-.216a.817.817 0 0 1 .093-.304.665.665 0 0 0 .077-.21c0-.036.033-.16.073-.275.083-.237.092-.335.036-.415-.093-.133-.192-.033-.26.263-.04.173-.083.342-.146.573a.924.924 0 0 1-.145.24c-.132.163-.17.269-.127.35.038.07.19.068.3-.007zm2.651-.266c.055-.04.168-.105.252-.145.167-.08.23-.162.23-.304 0-.046.012-.095.026-.11a.37.37 0 0 0 .05-.13.55.55 0 0 1 .075-.173c.042-.057.046-.078.022-.123-.06-.113-.4-.2-.463-.119a.37.37 0 0 0-.041.124.511.511 0 0 1-.117.207c-.116.135-.145.2-.145.328 0 .069-.026.133-.098.24a.79.79 0 0 0-.1.172c0 .015-.016.042-.037.06-.031.025-.032.036-.006.053.058.039.25-.004.353-.08zm-.607-.035c.188-.097.344-.388.372-.694.016-.174.03-.22.096-.31.131-.178.092-.293-.1-.293a.294.294 0 0 0-.265.176l-.052.138c-.012.03-.065.077-.118.104-.105.053-.128.09-.128.201 0 .056-.023.088-.105.148-.143.103-.182.18-.131.258.026.04.066.06.13.066.088.007.096.014.123.119l.03.117c.006.018.088.002.148-.03zm-.508-.479a.436.436 0 0 0 .082-.114l.097-.185a.594.594 0 0 0 .037-.43.71.71 0 0 0-.275-.287c-.071-.03-.078-.027-.16.063a1.08 1.08 0 0 0-.221.518 3.547 3.547 0 0 1-.024.247c-.015.123-.012.155.022.182.092.077.357.08.443.006zm-.529-.707c.109-.125.179-.273.18-.384.001-.078-.017-.117-.1-.21a.723.723 0 0 1-.139-.24c-.05-.166-.097-.215-.212-.215-.097 0-.097 0-.133.16a.327.327 0 0 1-.047.112 1.193 1.193 0 0 0-.145.386c0 .09.045.16.144.229.048.032.12.102.162.154.1.126.184.128.29.008zm2.122-.17c.15-.11.201-.213.202-.401 0-.209.033-.319.137-.47.084-.122.094-.154.104-.33.011-.192.01-.196-.045-.196a.172.172 0 0 0-.1.038.55.55 0 0 1-.173.073c-.17.045-.23.107-.226.228.008.227-.016.298-.144.425-.067.067-.122.141-.122.165 0 .023-.023.116-.053.207-.062.192-.05.278.048.332.1.057.232.032.373-.071zm-1.026-.039c.149-.094.16-.147.078-.36a.803.803 0 0 1-.064-.369 1.145 1.145 0 0 0-.022-.274c-.034-.104-.129-.189-.2-.178-.05.007-.06.025-.071.137-.015.149-.022.157-.179.215-.064.023-.13.065-.144.092-.027.052-.036.25-.013.287a.442.442 0 0 0 .132.067c.184.068.202.092.171.226-.025.108-.023.116.042.172.089.076.13.074.27-.015zm.572-.501a.62.62 0 0 0 .134-.216c.03-.1.029-.112-.01-.135-.133-.077-.168-.127-.166-.237a1.19 1.19 0 0 1 .053-.27c.065-.203.066-.306.003-.369-.085-.085-.217.006-.31.215a1.258 1.258 0 0 1-.138.23l-.082.1.045.116.078.202c.02.048.035.14.035.206.001.139.033.208.108.239.1.04.149.025.25-.081zm-1.35-.143c.057-.02.087-.054.117-.13a.343.343 0 0 1 .155-.177.352.352 0 0 0 .167-.37c-.019-.103-.078-.14-.233-.145l-.114-.004-.093.173c-.238.443-.27.55-.192.628.058.058.087.062.194.024zm-.218-.434a.615.615 0 0 0 .052-.19.43.43 0 0 1 .061-.177c.088-.143.081-.236-.025-.33-.148-.13-.284-.125-.284.01 0 .03-.04.115-.091.188-.083.121-.092.15-.102.336l-.01.204.083.036c.046.02.124.037.175.037.085 0 .094-.007.141-.113zm1.052-.422c.112-.12.133-.157.134-.235 0-.052.03-.149.065-.217.082-.156.07-.181-.139-.33-.226-.16-.314-.198-.388-.164-.056.025-.058.036-.051.228l.008.202-.099.027c-.14.037-.16.055-.16.147 0 .091.08.212.141.212.021 0 .098.061.17.136a.667.667 0 0 0 .16.136.687.687 0 0 0 .16-.142zm1.072.029c.048-.033.153-.12.234-.193l.147-.132.003-.17a1.78 1.78 0 0 1 .06-.377c.048-.178.052-.222.027-.305-.035-.115-.156-.18-.293-.158-.122.02-.168.073-.2.233a.886.886 0 0 1-.089.24.39.39 0 0 0-.06.22c0 .105-.013.132-.1.227-.105.114-.118.173-.073.336.049.174.169.202.345.079zm-1.81-.509c.064-.06.077-.163.023-.183-.064-.025-.065-.086-.002-.193.078-.133.077-.143-.013-.245-.084-.096-.088-.132-.036-.33.067-.253-.003-.412-.194-.443-.121-.02-.165.02-.165.152a.757.757 0 0 1-.039.213.617.617 0 0 0-.023.286c.012.142.007.195-.027.26a.515.515 0 0 0-.044.188c-.002.097.008.117.101.2.165.146.326.183.42.095zm1.273-.353c.044-.02.127-.048.184-.062.118-.03.121-.036.168-.327.032-.203.023-.286-.044-.392a.564.564 0 0 1-.053-.177c-.034-.236-.23-.349-.372-.214a.569.569 0 0 0-.185.388.3.3 0 0 1-.062.205c-.076.102-.128.263-.096.294a.338.338 0 0 0 .109.043c.078.02.087.031.094.12a.3.3 0 0 0 .034.127c.034.042.123.04.223-.005zm-.746-.33c.05-.037.063-.07.069-.179.006-.116.018-.143.092-.212.101-.093.107-.15.047-.475-.047-.252-.079-.308-.196-.347-.104-.035-.16-.003-.16.088 0 .038-.032.082-.09.127-.228.173-.248.229-.156.435.042.096.047.142.033.312-.016.188-.013.203.043.263.05.054.073.06.157.048a.43.43 0 0 0 .16-.06zm-2.005-.069c.118-.075.132-.282.027-.394-.123-.132-.362-.086-.433.082-.034.082-.035.106-.005.192.058.17.247.224.412.12zm3.594-.436c.054-.039.171-.472.148-.546a.661.661 0 0 0-.114-.158l-.098-.108.017-.178c.02-.211-.002-.243-.172-.246-.094-.002-.122.01-.205.091a.337.337 0 0 1-.217.112l-.121.018.004.201c.005.267.037.33.189.368.158.04.206.088.238.24.015.07.051.151.08.182.06.064.182.075.251.025zm-18.847-.027c.161-.084.164-.373.005-.458-.136-.073-.363.019-.405.164-.017.06-.011.1.024.172.073.148.228.198.376.122zm16.598-.378c.023-.022.043-.052.043-.068 0-.016.028-.053.061-.082.1-.087.066-.273-.073-.4a.92.92 0 0 1-.13-.16 1.42 1.42 0 0 0-.117-.16.35.35 0 0 1-.07-.17c-.016-.132-.026-.142-.103-.107-.053.024-.062.045-.062.139 0 .06.024.173.052.25.04.106.049.168.036.254-.045.314-.045.372-.003.437.083.126.263.159.365.067zm1.192-.368a.264.264 0 0 0 .06-.086c0-.011.06-.087.132-.168.123-.138.238-.364.238-.467a.448.448 0 0 0-.053-.14.827.827 0 0 1-.071-.311.752.752 0 0 0-.06-.277c-.112-.17-.26-.072-.26.173 0 .065-.022.105-.098.18-.114.112-.12.157-.07.558l.028.234-.065.068c-.082.086-.084.162-.005.24.078.078.148.077.224-.005zm-.728-.12a.278.278 0 0 0 .107-.122.327.327 0 0 1 .105-.129c.1-.064.107-.078.106-.255 0-.252-.037-.368-.153-.488-.102-.104-.102-.105-.07-.195.031-.085.03-.095-.022-.136-.066-.053-.289-.062-.354-.014-.034.025-.037.046-.017.118a.638.638 0 0 0 .086.171c.097.132.083.195-.086.382l-.148.163.062.116a.522.522 0 0 1 .061.183c0 .082.043.198.082.223.048.031.163.022.24-.018zm1.671-.643c.07-.05.07-.092-.009-.258-.06-.128-.061-.143-.032-.268.026-.108.026-.146-.002-.21a1.48 1.48 0 0 1-.048-.327c-.009-.152-.028-.265-.048-.29-.049-.059-.285-.164-.369-.164-.093 0-.112.026-.162.23-.049.198-.041.238.059.297.108.063.126.117.151.43.013.155.039.313.058.35a.649.649 0 0 0 .265.222c.077.031.075.031.137-.012zm-2.177-.418c.046-.036.046-.04-.03-.105-.163-.143-.15-.243.039-.3.124-.037.15-.083.15-.275 0-.134-.008-.16-.072-.224-.052-.051-.096-.072-.157-.072a.7.7 0 0 1-.25-.088c-.101-.053-.192-.085-.232-.08-.06.007-.066.017-.064.1.002.058.029.13.071.192.06.086.067.112.052.216-.05.35-.05.371.021.477.107.162.358.246.472.159zm1.039-.298a.366.366 0 0 0 .155-.325.617.617 0 0 0-.138-.392c-.118-.149-.155-.215-.193-.344-.042-.145-.125-.234-.223-.241-.06-.004-.073.007-.092.081a.631.631 0 0 1-.132.203c-.154.164-.14.258.051.34.135.058.16.106.16.296 0 .17.059.31.164.393.086.068.148.065.248-.011zm-.806-.943c0-.024.034-.092.074-.152a.439.439 0 0 0 .075-.16.29.29 0 0 1 .036-.114c.065-.113.046-.155-.137-.306a1.085 1.085 0 0 1-.249-.276c-.13-.23-.298-.318-.428-.223-.07.05-.067.337.004.472.028.054.077.201.107.327.065.263.115.358.227.426.106.064.29.068.291.006zm-.816-.103a.282.282 0 0 0 .026-.112c0-.036.022-.108.05-.161.06-.12.063-.251.005-.303a.479.479 0 0 0-.154-.068.366.366 0 0 1-.194-.127c-.088-.102-.24-.194-.323-.194-.027 0-.067.028-.09.061-.062.095-.025.193.115.311a.462.462 0 0 1 .122.13c0 .059.144.332.221.42.09.101.181.119.222.043zm2.044.005c.048-.042.179-.343.179-.41 0-.018-.028-.12-.062-.228l-.061-.196-.196-.117c-.195-.117-.323-.237-.323-.304 0-.059-.155-.041-.3.034-.213.112-.302.305-.204.444a.88.88 0 0 0 .23.152c.105.053.205.113.222.134a.645.645 0 0 1 .054.212c.034.274.075.32.285.321.087 0 .143-.013.176-.042zm-2.497-1.145c.037-.06.016-.223-.038-.297a.746.746 0 0 1-.09-.272 1.573 1.573 0 0 0-.048-.22.374.374 0 0 0-.129-.055c-.102-.03-.118-.045-.148-.136-.045-.132-.156-.226-.269-.226-.115 0-.168.032-.206.124-.028.067-.025.1.026.262.038.123.075.193.108.21.028.015.09.063.137.107a.564.564 0 0 0 .174.108c.073.024.1.053.16.18.054.11.097.163.16.197.099.053.138.057.162.018zm1.5-.048c.056-.044.065-.07.065-.18a.91.91 0 0 0-.148-.49.704.704 0 0 1-.1-.256.369.369 0 0 0-.259-.32c-.147-.057-.213-.04-.262.063a.5.5 0 0 1-.092.133c-.07.064-.066.103.032.257.078.122.132.286.18.546.019.104.027.113.2.203.204.108.29.117.384.044zm-1.05-.107a.197.197 0 0 1 .124-.1.412.412 0 0 0 .14-.067c.053-.043.061-.063.047-.128-.023-.108-.094-.2-.219-.287a.98.98 0 0 1-.196-.198c-.104-.144-.218-.222-.325-.222-.166 0-.182.135-.033.271.101.093.102.095.123.325.029.306.04.352.104.41.113.102.173.101.235-.004zm1.932-.315c.037-.07.013-.235-.046-.315-.032-.043-.084-.07-.156-.084-.24-.045-.223-.035-.207-.124.014-.072.004-.091-.073-.16-.093-.08-.187-.117-.246-.095-.031.012-.055.118-.098.444-.027.198.093.312.33.315a.79.79 0 0 1 .222.035c.136.053.24.046.274-.016zm-1.856-.797c.01-.006.061-.08.113-.164l.094-.153-.04-.113a1.418 1.418 0 0 1-.056-.225c-.027-.19-.072-.232-.326-.297-.073-.018-.114-.045-.133-.087-.023-.05-.046-.06-.124-.06-.14 0-.317.05-.334.093-.008.021.004.09.027.155a.787.787 0 0 1 .04.216.57.57 0 0 0 .025.163c.02.055.039.063.133.063.1 0 .112.006.137.078a.545.545 0 0 1 .028.13c.003.112.06.222.122.237a.714.714 0 0 0 .294-.036zm-.775-.014c.038 0 .11-.066.11-.1a.44.44 0 0 0-.086-.118c-.047-.053-.086-.12-.086-.148 0-.077-.089-.3-.172-.431-.13-.203-.249-.205-.443-.006l-.105.106.076.054c.066.047.077.07.079.17.004.209.021.236.163.264.104.02.138.04.185.11.056.083.146.13.213.11a.3.3 0 0 1 .066-.01zm-.975-.172a.465.465 0 0 1 .133-.05c.074 0 .065-.054-.047-.283-.076-.154-.132-.238-.166-.25-.06-.018-.39.13-.39.177 0 .017.027.047.059.068.044.029.061.069.073.17.025.21.14.268.338.168zm2.558-.027c.093-.029.179-.06.19-.071.011-.011-.01-.11-.048-.222-.078-.23-.15-.308-.306-.335a.604.604 0 0 1-.252-.138.966.966 0 0 0-.172-.12c-.036 0-.074.13-.06.203a.752.752 0 0 0 .1.196c.062.092.082.145.072.187-.01.042.003.077.047.125a.687.687 0 0 1 .091.123.222.222 0 0 0 .153.102c.01 0 .092-.022.185-.05zm-3.18-.678c.117-.082.072-.149-.262-.392-.128-.093-.209-.17-.225-.215-.022-.064-.035-.07-.138-.07-.125 0-.244.05-.268.112-.026.068-.017.221.016.266.02.029.09.051.203.067.205.029.26.044.26.073 0 .011.036.06.082.11.068.071.101.087.18.087a.314.314 0 0 0 .151-.038zm.59-.147c.087-.154.075-.218-.07-.371-.094-.099-.15-.138-.216-.149-.157-.025-.228-.065-.29-.163-.054-.087-.068-.094-.17-.094-.095 0-.11.007-.11.05a.493.493 0 0 1-.039.141c-.069.165-.029.212.236.279.142.036.19.08.224.206.045.167.11.214.281.205.087-.005.105-.017.154-.104zm1.667-.24c.083-.095.035-.225-.136-.366a.247.247 0 0 1-.103-.185c-.023-.148-.084-.209-.213-.209-.125 0-.185.032-.231.121a.253.253 0 0 1-.11.1c-.105.044-.142.164-.104.335.046.203.16.283.3.21.033-.02.095-.013.226.023.201.054.307.046.371-.028zm-1.086-.02c.066-.083.053-.15-.078-.4-.082-.155-.143-.24-.191-.267-.047-.025-.106-.106-.176-.24-.117-.223-.181-.266-.3-.2-.083.047-.092.136-.028.285.028.066.067.205.086.309.02.104.052.22.073.26.044.085.2.234.3.288.098.054.256.036.314-.035zm-6.967-.416c.183-.132.086-.472-.136-.472-.19 0-.305.131-.276.313.034.205.238.284.412.159zm5.15-.09c.049-.05.06-.078.047-.128a.5.5 0 0 0-.365-.332.577.577 0 0 1-.174-.075c-.104-.074-.306-.087-.385-.024-.074.059-.058.177.024.177.078 0 .147.044.296.19.143.139.338.252.437.254.032 0 .085-.028.12-.062zm1.984-.16c0-.011.029-.055.065-.098.055-.065.06-.086.038-.136a.352.352 0 0 0-.127-.116c-.091-.052-.1-.065-.1-.16 0-.06-.016-.12-.039-.142-.046-.046-.054-.047-.155-.012-.062.022-.077.041-.077.097 0 .039-.012.1-.026.138-.021.056-.015.081.035.155a.583.583 0 0 1 .077.17c.018.089.037.105.146.128.084.018.163.006.163-.025zm-1.492-.01a.333.333 0 0 1 .133-.043c.07-.007.092-.027.155-.137.064-.114.07-.14.046-.207-.038-.11-.095-.143-.25-.145a.409.409 0 0 1-.234-.063.404.404 0 0 0-.15-.06c-.11 0-.274.224-.246.336.01.042.058.08.17.132a.85.85 0 0 1 .222.148c.076.085.086.088.154.04z"/></svg>