<svg viewBox="0 0 24 24" xmlns="http://www.w3.org/2000/svg" role="img"><path d="M11.226 23.649a1.097 1.097 0 0 1-.263-.11.695.695 0 0 1-.165-.164l-.064-.096.012-.29c.008-.203.024-.32.055-.394.03-.07.058-.102.084-.097.032.006.038.048.038.244 0 .2.008.247.05.304a.67.67 0 0 0 .116.116.506.506 0 0 0 .182.068c.065.01.223.02.35.02a4.4 4.4 0 0 0 .431-.02 1.28 1.28 0 0 0 .262-.053c.036-.016.071-.046.08-.067.007-.02.01-.04.004-.046a.912.912 0 0 0-.154-.032l-.324-.049a1.09 1.09 0 0 1-.248-.061.25.25 0 0 1-.098-.11c-.025-.058-.025-.1-.002-.188a1.418 1.418 0 0 1 .24-.481.766.766 0 0 1 .189-.178.441.441 0 0 1 .17-.06c.036 0 .107.02.157.046a.59.59 0 0 1 .143.104.964.964 0 0 1 .097.137c.035.062.039.086.016.109-.023.023-.049.02-.116-.012a.599.599 0 0 0-.215-.042.601.601 0 0 0-.25.058.714.714 0 0 0-.183.123c-.045.05-.053.072-.031.093.015.016.125.037.243.047.119.01.257.026.307.036.063.012.12.048.178.112.055.061.086.12.086.164a.963.963 0 0 1-.04.202 1.877 1.877 0 0 1-.075.212.554.554 0 0 1-.188.175c-.083.054-.22.121-.305.15a1.591 1.591 0 0 1-.38.062c-.168.008-.267 0-.389-.032zm1.793.01c-.133-.02-.185-.038-.19-.066a.071.071 0 0 1 .023-.063.842.842 0 0 1 .147-.067 1.14 1.14 0 0 0 .233-.13 3 3 0 0 0 .224-.189.88.88 0 0 0 .14-.166.302.302 0 0 0 .036-.107.36.36 0 0 0-.067-.133.735.735 0 0 0-.172-.16.518.518 0 0 1-.104-.076c0-.006.039-.09.087-.185l.088-.174.086.083a.991.991 0 0 1 .157.221c.039.077.08.198.09.27a.98.98 0 0 1 .004.241c-.009.06-.04.2-.07.309a1.44 1.44 0 0 1-.101.277.331.331 0 0 1-.132.114.544.544 0 0 1-.19.032 3.272 3.272 0 0 1-.288-.03zm1.894-.323a.327.327 0 0 1-.128-.143.575.575 0 0 1-.05-.218c0-.063.01-.115.023-.115s.046.024.074.053l.05.054.14-.044a1.45 1.45 0 0 0 .244-.102.781.781 0 0 0 .178-.15.512.512 0 0 0 .075-.108.481.481 0 0 0-.158-.056 1.475 1.475 0 0 0-.297-.04.444.444 0 0 0-.21.044l-.074.043-.035-.048c-.023-.032-.035-.114-.035-.254v-.207l.195.011a.768.768 0 0 1 .354.09c.088.043.22.136.294.206.104.1.142.157.172.261a.985.985 0 0 1 .04.183.593.593 0 0 1-.04.153c-.03.077-.075.128-.178.2-.076.053-.185.12-.242.15a.757.757 0 0 1-.209.065c-.07.008-.13 0-.183-.028zm.966.022a.061.061 0 0 1-.017-.037.55.55 0 0 1 .098-.127c.054-.059.15-.216.213-.349.075-.158.119-.286.125-.367l.01-.124-.076-.065a.41.41 0 0 0-.168-.079 2.449 2.449 0 0 1-.165-.032l-.073-.018-.007-.19-.007-.189.056.001c.03 0 .084.017.117.036a.36.36 0 0 0 .153.036.61.61 0 0 0 .192-.04l.101-.04-.014-.088a4.903 4.903 0 0 1-.03-.253c-.013-.13-.007-.178.023-.225.027-.04.055-.056.088-.047.026.007.092.05.146.096a.86.86 0 0 1 .17.227l.07.143.078-.082a.707.707 0 0 1 .157-.121.72.72 0 0 0 .135-.09c.042-.04.055-.078.055-.17 0-.065.008-.117.018-.117.01 0 .057.034.104.074.046.04.104.072.128.072.024 0 .066-.022.093-.049.036-.036.05-.082.05-.172 0-.067.006-.122.014-.122s.058.034.11.076c.075.058.112.072.16.06a.494.494 0 0 0 .122-.054c.032-.021.059-.059.059-.084 0-.027-.042-.07-.104-.106l-.105-.06.008-.137c.006-.095.02-.136.042-.136.019 0 .07.032.115.07.044.04.119.136.166.214l.086.143v.189c0 .152-.01.202-.05.256a.362.362 0 0 1-.147.101.334.334 0 0 1-.143.022c-.03-.008-.07.017-.118.073a.43.43 0 0 1-.166.11c-.07.022-.105.021-.148-.002-.048-.026-.055-.025-.043.007.008.021-.009.058-.039.085-.03.027-.144.095-.255.153-.112.057-.203.117-.203.133s.013.042.03.058c.016.017.07.03.12.03h.09l.015.076c.008.043.015.132.015.2v.123l-.185-.014a.617.617 0 0 1-.458-.214l-.058-.075-.1.045-.1.045.033.064a2.1 2.1 0 0 1 .087.336c.04.205.048.295.031.364-.017.07-.05.11-.14.17a1.51 1.51 0 0 1-.315.142 2.501 2.501 0 0 1-.214.061.058.058 0 0 1-.035-.016zm.994-1.346-.012-.063-.04.04c-.035.035-.035.042-.003.063a.16.16 0 0 0 .052.023c.008 0 .01-.028.003-.063zM14.11 23.31c-.009-.025-.06-.359-.111-.743-.052-.384-.086-.713-.077-.73.01-.017.1-.091.2-.164.1-.073.19-.125.2-.116.009.009.006.304-.007.654-.013.35-.032.748-.042.883l-.017.245-.064.007c-.044.005-.07-.007-.082-.037zm-4.835-.08a.393.393 0 0 1-.109-.096c-.024-.04-.04-.043-.086-.022-.041.019-.085.018-.154-.003a.378.378 0 0 1-.154-.098c-.045-.053-.07-.065-.11-.05a.303.303 0 0 1-.138-.001.58.58 0 0 1-.187-.098.867.867 0 0 1-.136-.131c-.023-.034-.036-.11-.036-.21 0-.128.03-.248.16-.642l.16-.484.162-.065c.09-.036.171-.056.183-.044.011.011-.041.196-.116.411-.076.216-.16.473-.189.573l-.051.18.056.046a.262.262 0 0 0 .142.046c.064 0 .101-.018.15-.073.035-.04.079-.074.096-.074.02 0 .031.037.031.107 0 .072.015.12.045.147.025.022.078.04.118.04.05 0 .096-.024.143-.073a.3.3 0 0 1 .09-.074c.012 0 .02.048.02.106 0 .079.015.12.056.157.03.027.097.057.147.066.074.014.096.008.109-.025a.313.313 0 0 0-.013-.142l-.028-.1.101-.092a.512.512 0 0 1 .121-.092c.011 0 .028.039.037.087a.804.804 0 0 1-.014.238c-.016.083-.05.19-.074.238a.642.642 0 0 1-.114.15 1.353 1.353 0 0 1-.13.104.284.284 0 0 1-.135.04.355.355 0 0 1-.153-.048zm-2.373-.56a2.042 2.042 0 0 1-.239-.22c-.09-.095-.165-.19-.165-.21 0-.021.01-.044.022-.052a.57.57 0 0 1 .19.038c.142.044.213.05.464.042.224-.007.313-.02.36-.05.042-.028.068-.073.079-.139a.657.657 0 0 0-.022-.248 3.991 3.991 0 0 1-.039-.158c0-.004.065-.036.144-.071a.837.837 0 0 1 .182-.065c.024 0 .043.033.053.093.01.053 0 .17-.02.27a.831.831 0 0 1-.112.284c-.041.06-.122.15-.18.199-.057.049-.18.14-.271.201a.654.654 0 0 1-.27.122.252.252 0 0 1-.176-.037zm4.36-.437c-.012-.028.868-.923 3.254-3.309 1.798-1.798 3.28-3.27 3.294-3.27.013 0 .112.033.218.073.107.04.206.084.22.099.019.018-.456.508-1.616 1.668l-1.641 1.641h-.514l-1.57 1.569c-.863.863-1.583 1.569-1.6 1.569-.017 0-.038-.018-.046-.04zm-5.46-.365a1.95 1.95 0 0 1-.276-.11 1.56 1.56 0 0 1-.305-.214 1.164 1.164 0 0 1-.208-.256.874.874 0 0 1-.075-.228c-.012-.088-.003-.135.049-.239.035-.071.112-.188.17-.26a1.21 1.21 0 0 1 .196-.19.351.351 0 0 1 .127-.06c.02 0 .038.007.038.014a.403.403 0 0 1-.035.08.57.57 0 0 1-.099.126.504.504 0 0 0-.102.193l-.039.132.04.106c.023.059.09.15.15.206.06.056.184.149.275.207a3.9 3.9 0 0 0 .288.169c.067.034.178.078.246.098.086.026.138.03.168.013l.043-.024-.045-.05a3.747 3.747 0 0 0-.233-.207 1.523 1.523 0 0 1-.24-.239.355.355 0 0 1-.05-.153c0-.051.027-.097.092-.16a1.692 1.692 0 0 1 .504-.304.636.636 0 0 1 .251-.03.343.343 0 0 1 .186.059.53.53 0 0 1 .098.145.644.644 0 0 1 .045.237c0 .08-.011.147-.028.157-.016.01-.053-.012-.087-.053a3.07 3.07 0 0 0-.123-.14.502.502 0 0 0-.187-.103.932.932 0 0 0-.214-.037.51.51 0 0 0-.155.024c-.042.016-.057.036-.047.062a.719.719 0 0 0 .165.146c.082.06.193.152.246.207.086.088.098.116.107.242l.01.143-.143.123c-.08.067-.171.141-.204.164-.046.031-.112.04-.27.039a1.628 1.628 0 0 1-.329-.035zm4.746-.337a1.517 1.517 0 0 1-.153-.167c0-.007 1.39-1.402 3.09-3.1 2.093-2.092 3.103-3.085 3.131-3.079a2.4 2.4 0 0 1 .22.082c.097.04.177.086.177.102s-1.414 1.443-3.143 3.172a547.829 547.829 0 0 1-3.157 3.143 1.52 1.52 0 0 1-.165-.153zm-6.109-.555c-.088-.038-.308-.14-.49-.227a21.217 21.217 0 0 1-1.604-.873 23.99 23.99 0 0 1-1.338-.883c-.141-.1-.347-.253-.458-.34-.136-.106-.197-.168-.187-.192.008-.02.028-.037.046-.037.019 0 .211.133.428.295.217.163.546.398.73.524.185.126.496.325.69.443.196.119.517.307.713.419a22.853 22.853 0 0 0 1.515.765c.133.058.177.089.171.12-.004.022-.019.044-.032.048a.7.7 0 0 1-.184-.062zm14.294-.057c-.015-.016-.028-.04-.027-.054 0-.015.151-.114.335-.222a21.993 21.993 0 0 0 1.502-.991 18.875 18.875 0 0 0 1.201-.962c.196-.168.575-.52.843-.782a22.164 22.164 0 0 0 1.319-1.414.348.348 0 0 1 .08-.08c.007 0 .013.032.013.071 0 .055-.058.139-.25.362-.136.16-.361.412-.499.56a27.415 27.415 0 0 1-1.567 1.487 20.77 20.77 0 0 1-1.152.907 27.33 27.33 0 0 1-1.193.799 14.51 14.51 0 0 1-.44.27c-.104.06-.143.071-.165.049zm-9.049-.252-.158-.16 2.92-2.92 2.92-2.92.205.08c.112.045.215.091.228.103.015.013-1.134 1.18-2.953 2.999a489.05 489.05 0 0 1-2.99 2.978 1.49 1.49 0 0 1-.172-.16zM4.39 20.61a29.167 29.167 0 0 1-.61-.296 22.918 22.918 0 0 1-1.298-.718 22.724 22.724 0 0 1-.69-.442 23.198 23.198 0 0 1-.827-.585c-.305-.227-.418-.325-.408-.352.008-.02.03-.038.049-.038.019 0 .193.12.387.267.194.146.533.387.754.535.22.148.505.335.633.415.128.08.36.219.515.307.155.089.453.253.662.364.209.112.567.29.796.394.316.144.417.201.417.235 0 .024-.017.047-.037.05-.02.005-.174-.057-.343-.136zm14.152.033c-.008-.022-.006-.05.006-.061.012-.012.223-.142.468-.29.246-.148.604-.378.795-.51.192-.134.539-.386.77-.56.233-.176.623-.49.867-.696a24.028 24.028 0 0 0 1.492-1.414 12.77 12.77 0 0 0-.522-.096 82.95 82.95 0 0 1-2.815-.563 13.151 13.151 0 0 1-.631-.15c-.013-.008-.023-.035-.023-.062 0-.03.017-.047.046-.047.024 0 .131.022.237.05.106.026.47.109.807.182.338.073.84.178 1.116.233a71.787 71.787 0 0 0 1.816.332.569.569 0 0 1 .145.036c.024.015-.054.111-.284.354-.174.183-.487.492-.696.687a22.243 22.243 0 0 1-1.581 1.324 27.554 27.554 0 0 1-1.693 1.14 2.267 2.267 0 0 1-.251.134c-.038.012-.058.005-.07-.023zm-1.253-.029c-.057-.02-.1-.044-.094-.053a1.05 1.05 0 0 0 .037-.12c.022-.082.04-.105.083-.107.047-.002.045-.005-.016-.027-.059-.021-.068-.036-.057-.09a.964.964 0 0 1 .038-.13l.025-.066.125.04c.113.036.124.046.11.099-.01.039-.005.052.014.04.015-.008.076.003.135.025.06.023.109.058.109.077a.48.48 0 0 1-.037.124c-.03.073-.046.085-.092.072a8.406 8.406 0 0 1-.106-.028c-.042-.012-.056.003-.083.085-.018.055-.045.099-.06.098a.916.916 0 0 1-.13-.039zm.209-.28c.007-.027.005-.027-.013-.003-.013.018-.042.025-.07.016-.038-.013-.04-.01-.01.01.02.015.048.024.06.02.013-.004.027-.023.033-.042zm.022-.088c-.01-.009-.016-.002-.016.017 0 .018.007.025.016.016a.023.023 0 0 0 0-.033zm-8.694-.437-.158-.16 2.694-2.694 2.695-2.694.075.015c.04.008.15.037.242.065.092.029.168.06.168.073 0 .011-1.24 1.266-2.758 2.788a277.019 277.019 0 0 1-2.78 2.767c-.01 0-.09-.072-.178-.16zm-4.706-.704c0-.017 1.2-1.23 2.666-2.695l2.666-2.663.309-.017c.233-.013.314-.01.328.013.012.02-.896.945-2.662 2.711l-2.681 2.681h-.313c-.234 0-.313-.008-.313-.03zm1.692.012c0-.01 1.2-1.22 2.668-2.687l2.67-2.669.192.016c.106.01.234.023.285.03.05.007.092.021.091.03 0 .009-1.183 1.205-2.628 2.658l-2.629 2.642h-.325c-.178-.001-.324-.01-.324-.02zm1.72-.005c.005-.013 1.153-1.177 2.553-2.586 2.104-2.118 2.557-2.562 2.61-2.562.036 0 .162.017.28.039.122.022.215.051.215.067 0 .016-1.134 1.162-2.52 2.547l-2.518 2.518H7.84c-.19 0-.311-.009-.306-.023zm8.53-.002c.005-.014.648-.665 1.43-1.447l1.42-1.423.008.325.007.326-1.122 1.122-1.122 1.122h-.315c-.204 0-.312-.009-.306-.025zm1.711-.006c0-.017.255-.285.565-.594.493-.491.569-.558.59-.52.015.027.022.164.018.327l-.008.28-.272.27-.272.268h-.31c-.236 0-.31-.008-.31-.031zM3.68 18.14c0-.156.011-.304.024-.329.014-.025.877-.9 1.918-1.947 1.515-1.522 1.911-1.907 1.98-1.925.047-.013.21-.04.364-.061.152-.021.289-.031.303-.023.014.01-1 1.04-2.251 2.292-1.252 1.252-2.29 2.276-2.307 2.276-.023 0-.03-.072-.03-.283zm.016-1.424c-.009-.01-.016-.363-.016-.786v-.77l.202-.094c.112-.052.38-.167.597-.254.218-.088.648-.241.956-.342.309-.1.597-.19.641-.2.059-.013.08-.009.08.015 0 .018-.543.576-1.207 1.24a74.662 74.662 0 0 1-1.222 1.207.05.05 0 0 1-.03-.016zm19.287-.742a56.008 56.008 0 0 1-2.954-.843c-.182-.06-.513-.17-.735-.248a11.466 11.466 0 0 1-.699-.27 19.952 19.952 0 0 0-.723-.294 27.28 27.28 0 0 0-.783-.286 20.857 20.857 0 0 0-1.558-.451 19.343 19.343 0 0 0-.563-.124 23.49 23.49 0 0 0-.65-.12 22.667 22.667 0 0 0-.87-.122 23.773 23.773 0 0 0-.546-.062c-.016 0-.03-.013-.03-.028 0-.015.055-.087.123-.161.067-.074.168-.21.223-.303.055-.093.132-.247.17-.341a2.46 2.46 0 0 0 .108-.355 2.774 2.774 0 0 0 .002-.888 3.04 3.04 0 0 0-.082-.302 3.018 3.018 0 0 0-.127-.294 2.713 2.713 0 0 0-.201-.324 2.466 2.466 0 0 0-.26-.292 2.908 2.908 0 0 0-.324-.247 2.44 2.44 0 0 0-.368-.189 2.956 2.956 0 0 0-.392-.113 1.937 1.937 0 0 0-.527-.029 2.712 2.712 0 0 0-.465.054 3.091 3.091 0 0 0-.789.389c-.083.063-.21.178-.282.257a2.729 2.729 0 0 0-.225.282 2.627 2.627 0 0 0-.168.305c-.04.09-.1.267-.133.394a1.85 1.85 0 0 0-.058.534c0 .194.015.37.04.48.022.097.07.25.106.339.036.09.108.237.16.33.05.091.152.23.224.31a.802.802 0 0 1 .132.167c0 .013-.01.025-.023.025a29.981 29.981 0 0 0-1.423.183c-.196.033-.488.088-.65.12a27.93 27.93 0 0 0-.557.123c-.145.035-.405.102-.576.15a17.388 17.388 0 0 0-2.67.96l-.472.21-1.694-1.7L0 11.504l1.656-1.657L3.312 8.19V3.496H7.99l1.6-1.593C10.471 1.027 11.203.31 11.217.31c.014 0-.703.728-1.593 1.617L8.005 3.545H3.361V8.19L1.72 9.832C.816 10.735.077 11.485.077 11.5c0 .014.737.762 1.638 1.663L3.354 14.8l.154-.078.155-.077-1.56-1.562c-.858-.858-1.56-1.572-1.56-1.585 0-.013.706-.73 1.568-1.592L3.68 8.337V3.894l.039-.015a88.193 88.193 0 0 1 2.236-.015h2.198l1.572-1.572C11.1.917 11.302.724 11.343.747c.025.014.74.72 1.59 1.57l1.543 1.547h2.194c1.34 0 2.21.01 2.232.024.032.02.037.302.043 2.248l.007 2.226 1.574 1.574 1.574 1.575-1.447 1.432c-.796.788-1.5 1.494-1.565 1.569l-.116.137.069.026c.038.014.116.039.174.054l.105.028 1.617-1.616c.89-.89 1.617-1.626 1.617-1.638 0-.01-.739-.76-1.642-1.665l-1.643-1.645V3.545h-4.647l-1.609-1.61C12.128 1.047 11.41.317 11.416.31c.007-.007.731.708 1.61 1.587l1.599 1.598h4.693V8.19l1.643 1.642c.903.903 1.642 1.653 1.642 1.667 0 .013-.73.756-1.624 1.65l-1.624 1.625.086.037c.047.02.361.125.699.233.337.108.935.29 1.33.403a58.89 58.89 0 0 0 1.624.432l.906.226v.056c0 .031-.014.056-.03.056-.017 0-.461-.11-.987-.243zM4.489 14.27c0-.014-.612-.638-1.36-1.386-.749-.748-1.36-1.371-1.36-1.385 0-.014.622-.648 1.384-1.41l1.385-1.384V4.772l.047-.025c.032-.017.699-.025 1.992-.025h1.944l1.385-1.385c.762-.762 1.396-1.385 1.41-1.385.013 0 .647.623 1.409 1.385l1.384 1.384 1.986.006 1.985.006.006 1.986.006 1.985 1.306 1.311c.718.722 1.344 1.353 1.39 1.404l.085.093-1.383 1.383-1.383 1.383.06.023.26.108.2.085 1.497-1.498 1.498-1.498-1.508-1.507-1.507-1.507V4.206H14.33l-1.513-1.512-1.513-1.513-1.502 1.514L8.3 4.209l-2.139-.001-2.138-.001v4.277L2.51 9.997.997 11.51 2.5 13.003l1.503 1.492.243-.1c.133-.055.243-.112.243-.126zm.631-.22c.071-.024.129-.051.129-.062 0-.01-.044-.135-.097-.278a6.87 6.87 0 0 1-.171-.536 7.571 7.571 0 0 1-.122-.56 8.965 8.965 0 0 1-.077-.65 6.093 6.093 0 0 1-.012-.698c.009-.182.027-.419.04-.527a7.6 7.6 0 0 1 .222-1.073 9.21 9.21 0 0 1 .16-.483 7.374 7.374 0 0 1 .53-1.084c.088-.144.237-.366.331-.493a9.9 9.9 0 0 1 .42-.513 3.97 3.97 0 0 1 .335-.35c.047-.036.093-.059.1-.051.009.008-.078.105-.192.217a7.012 7.012 0 0 0-.424.468 8.33 8.33 0 0 0-.423.576 7.3 7.3 0 0 0-.388.678 6.967 6.967 0 0 0-.513 1.48 8.88 8.88 0 0 0-.102.626 7.29 7.29 0 0 0-.039.787c0 .284.016.59.04.784.022.175.069.445.103.6a8.718 8.718 0 0 0 .323 1.049c.016.023.087.008.307-.068a16.073 16.073 0 0 1 1.214-.355c.14-.035.328-.1.417-.145.09-.045.223-.101.297-.125a.836.836 0 0 0 .167-.069c.018-.014.022-.034.01-.046-.012-.012-.111.027-.23.09a3.25 3.25 0 0 1-.391.173c-.1.034-.25.069-.334.077l-.153.015-.052-.118-.052-.118.083-.07c.045-.038.182-.12.303-.183.121-.062.193-.106.16-.098a2.197 2.197 0 0 1-.187.031.565.565 0 0 1-.213-.014.596.596 0 0 1-.151-.078.517.517 0 0 1-.112-.145.505.505 0 0 1-.049-.192.57.57 0 0 1 .027-.167.513.513 0 0 1 .223-.242.336.336 0 0 1 .135-.034l.069.001-.057.042a3.789 3.789 0 0 0-.141.112c-.072.06-.084.085-.084.175 0 .078.017.126.063.18a.265.265 0 0 0 .144.09c.061.012.173-.014.447-.106.2-.067.492-.18.646-.25.155-.07.347-.156.427-.19a.468.468 0 0 1 .272-.048c.07.007.17.035.222.062.053.027.13.086.174.131a.57.57 0 0 1 .104.15.64.64 0 0 1 .026.183.578.578 0 0 1-.051.219.912.912 0 0 1-.178.22l-.127.114.123-.016c.067-.01.255-.034.417-.054.161-.02.302-.04.312-.043.01-.003-.03-.071-.091-.152-.06-.08-.144-.21-.185-.286a3 3 0 0 1-.133-.295 2.877 2.877 0 0 1-.1-.352 2.677 2.677 0 0 1 0-.93 2.93 2.93 0 0 1 .112-.38c.04-.101.129-.278.2-.392A2.644 2.644 0 0 1 10 9.55c.086-.058.236-.142.334-.187a3.2 3.2 0 0 1 .37-.138c.168-.048.25-.056.61-.056.362 0 .443.007.613.057.108.03.296.104.417.164.121.059.298.167.392.24a2.634 2.634 0 0 1 .591.67c.055.092.129.242.165.33.035.09.081.234.102.32a2.711 2.711 0 0 1 .038.867 2.9 2.9 0 0 1-.102.44c-.04.122-.107.282-.148.356a2.605 2.605 0 0 1-.183.274 1.173 1.173 0 0 0-.107.152c0 .007.046.018.104.025l.41.052c.169.022.334.045.368.052.043.01.032-.003-.037-.04a.98.98 0 0 1-.163-.116.67.67 0 0 1-.12-.186.492.492 0 0 1-.043-.264.451.451 0 0 1 .07-.229.652.652 0 0 1 .149-.147.794.794 0 0 1 .195-.088.665.665 0 0 1 .227-.013c.066.009.193.053.283.097.089.045.289.137.444.204.155.068.39.157.521.2.166.053.288.076.397.076.131 0 .167-.009.208-.053a.315.315 0 0 0 .064-.141c.008-.048.017-.107.022-.13.005-.023-.02-.07-.053-.103a.325.325 0 0 0-.144-.077.223.223 0 0 1-.11-.05c-.024-.028-.016-.034.043-.034a.46.46 0 0 1 .188.074c.077.049.13.104.155.165a.482.482 0 0 1 .027.218.483.483 0 0 1-.074.225.471.471 0 0 1-.179.152c-.095.046-.14.053-.265.04a1.545 1.545 0 0 1-.2-.028c-.027-.008.02.017.102.057.083.04.218.117.3.173l.149.101-.044.116-.043.116-.158-.004a1.214 1.214 0 0 1-.33-.064 20.649 20.649 0 0 0-.22-.077c-.028-.01.014.018.091.059.078.041.21.091.295.11a19.303 19.303 0 0 1 1.302.379c.162.055.297.096.302.09.005-.004.048-.116.095-.248s.124-.385.17-.561c.046-.176.109-.464.14-.64.048-.28.055-.4.054-1.016 0-.603-.008-.744-.055-1.03a8.604 8.604 0 0 0-.14-.653 7.68 7.68 0 0 0-.172-.564 7.676 7.676 0 0 0-.667-1.32 8.498 8.498 0 0 0-.349-.49 7.792 7.792 0 0 0-.427-.475 8.239 8.239 0 0 0-.541-.5 7.83 7.83 0 0 0-.564-.416 7.644 7.644 0 0 0-.6-.348 8.11 8.11 0 0 0-.552-.254 8.14 8.14 0 0 0-.454-.163 7.571 7.571 0 0 0-.453-.123 7.996 7.996 0 0 0-.49-.096 8.776 8.776 0 0 0-.615-.063 6.144 6.144 0 0 0-.78 0 7.969 7.969 0 0 0-.692.073c-.155.027-.366.07-.47.097a8.94 8.94 0 0 0-.305.085c-.064.02-.116.027-.116.016s.046-.038.104-.06c.057-.02.193-.06.301-.088.109-.027.336-.072.505-.1.17-.027.478-.059.685-.07a7.404 7.404 0 0 1 1.356.06 7.337 7.337 0 0 1 1.254.319 6.637 6.637 0 0 1 .95.43c.123.069.33.196.458.28.128.086.326.23.44.322.115.092.34.294.5.449.16.155.38.392.489.527.109.135.284.377.39.539.106.162.29.487.408.723.144.289.256.554.34.81.068.208.147.485.175.615.028.13.067.34.087.466.02.126.05.406.064.621.02.29.02.494-.001.784-.015.216-.05.52-.076.675-.026.155-.08.405-.12.555-.04.15-.118.402-.174.56a2.33 2.33 0 0 0-.092.294c.005.005.069.031.142.06.074.027.142.042.15.032.01-.01.063-.15.12-.312.057-.162.14-.438.185-.613a8.83 8.83 0 0 0 .138-.674c.048-.305.056-.444.055-.98 0-.52-.01-.685-.055-.978a9.278 9.278 0 0 0-.15-.728 8.502 8.502 0 0 0-.222-.713c-.07-.187-.2-.488-.29-.67a8.251 8.251 0 0 0-.306-.557 7.88 7.88 0 0 0-.29-.429 9.582 9.582 0 0 0-.327-.411 7.736 7.736 0 0 0-.969-.93 8.79 8.79 0 0 0-.45-.325 9.152 9.152 0 0 0-.463-.282c-.135-.075-.39-.2-.566-.278a8.442 8.442 0 0 0-.64-.243 8.78 8.78 0 0 0-.625-.174 9.525 9.525 0 0 0-.6-.113c-.22-.033-.452-.044-.92-.044-.393 0-.71.011-.857.032a8.246 8.246 0 0 0-1.102.24 8.81 8.81 0 0 0-.565.197c-.155.061-.42.182-.588.267a8.108 8.108 0 0 0-.527.294 7.054 7.054 0 0 0-.417.287c-.108.082-.329.261-.49.399-.162.137-.401.37-.531.516-.13.147-.28.322-.334.39a8.026 8.026 0 0 0-.578.88 8.286 8.286 0 0 0-.27.542 8.37 8.37 0 0 0-.233.583 8.181 8.181 0 0 0-.174.589c-.04.166-.097.444-.124.619-.033.2-.056.497-.065.81-.01.309-.003.61.015.807.016.173.051.436.078.585.027.15.07.36.097.467.027.108.105.37.175.583.072.222.137.383.153.378l.155-.052zm1.371-2.109a.52.52 0 0 1-.143-.078.505.505 0 0 1-.088-.119.586.586 0 0 1-.04-.21.341.341 0 0 1 .065-.239.506.506 0 0 1 .146-.144c.044-.023.163-.055.264-.071.101-.016.157-.03.124-.032a2.198 2.198 0 0 1-.488-.129l-.107-.046.017-.116a.437.437 0 0 1 .045-.15c.022-.026.097-.03.353-.022l.324.01-.115-.04a1.875 1.875 0 0 1-.194-.081.47.47 0 0 1-.128-.105.56.56 0 0 1-.079-.166.355.355 0 0 1 0-.209.66.66 0 0 1 .08-.178.473.473 0 0 1 .145-.12.506.506 0 0 1 .192-.048.54.54 0 0 1 .162.025c.035.013.057.035.049.049-.008.013-.061.024-.118.025a.892.892 0 0 0-.197.026c-.073.02-.101.045-.13.114a.317.317 0 0 0-.022.164.385.385 0 0 0 .06.136c.036.046.087.067.215.09.092.016.272.052.4.08.128.027.349.062.49.076.142.014.348.036.46.049.11.012.242.044.293.07.051.026.123.08.16.117.035.039.087.12.115.18.027.061.05.152.05.203a.564.564 0 0 1-.037.184.648.648 0 0 1-.104.162.75.75 0 0 1-.189.128.594.594 0 0 1-.265.059c-.079 0-.228-.022-.331-.048a6.277 6.277 0 0 0-.906-.15c-.218-.023-.309-.022-.422.002a.444.444 0 0 0-.189.078c-.031.035-.043.09-.044.196 0 .131.006.153.06.188a.504.504 0 0 0 .182.052c.067.007.126.026.132.043.007.02-.017.03-.072.03a.662.662 0 0 1-.175-.035zm-.05-.593a.434.434 0 0 1 .174-.07c.06-.008.182-.008.272 0l.36.04c.107.013.386.062.62.11.35.07.439.08.516.06a.715.715 0 0 0 .191-.096.508.508 0 0 0 .14-.157.54.54 0 0 0 .04-.195c0-.076-.02-.14-.07-.219a.587.587 0 0 0-.154-.16.63.63 0 0 0-.144-.065 8.25 8.25 0 0 0-.46-.053 8.755 8.755 0 0 1-.74-.11 3.094 3.094 0 0 1-.43-.113.363.363 0 0 1-.127-.1.867.867 0 0 1-.07-.149l-.033-.092v.086a.546.546 0 0 0 .046.191c.04.086.072.116.177.164a1.918 1.918 0 0 0 .596.135c.049 0 .11.012.136.026.03.016.047.05.047.095 0 .038-.016.083-.037.1-.023.02-.074.026-.14.017a2.894 2.894 0 0 1-.287-.065 1.28 1.28 0 0 0-.282-.048l-.1.002.173.055c.095.03.197.068.227.085.03.016.054.04.054.052 0 .014-.116.025-.276.026-.166 0-.256.009-.226.021a2.696 2.696 0 0 0 .615.072c.12-.004.147.004.185.051.025.03.045.07.045.088 0 .018-.017.05-.038.07a.147.147 0 0 1-.09.04c-.028 0-.146-.019-.262-.04a1.638 1.638 0 0 0-.378-.028c-.114.008-.188.027-.233.06a.639.639 0 0 0-.12.13.33.33 0 0 0-.054.157v.076l.036-.098a.396.396 0 0 1 .1-.151zm.94-.227c0-.013-.019-.028-.043-.034a1.595 1.595 0 0 0-.226-.011l-.184.001.133.021a.673.673 0 0 1 .145.034.251.251 0 0 0 .094.012c.045 0 .081-.01.081-.023zm.06-.417c.009-.013-.006-.035-.033-.05a.45.45 0 0 0-.166-.023l-.118.002.123.045a1 1 0 0 0 .151.047.053.053 0 0 0 .044-.021zm-.77-.038a.012.012 0 0 0-.013-.013.012.012 0 0 0-.012.013c0 .007.006.012.012.012a.012.012 0 0 0 .013-.012zm.41-.052c-.008-.008-.03-.009-.047-.002-.02.008-.014.014.014.015.026 0 .04-.005.033-.013zm-.517-.688c-.009-.009-.016-.002-.016.016 0 .018.007.026.016.017a.023.023 0 0 0 0-.033zm9.359 1.88c-.04-.015-.015-.035.13-.108.106-.054.19-.113.204-.147.018-.04.018-.086 0-.156a.353.353 0 0 0-.105-.166c-.05-.041-.095-.06-.128-.052-.028.007-.195.03-.37.052a7.82 7.82 0 0 0-.65.114l-.495.114a.543.543 0 0 1-.3.008.688.688 0 0 1-.238-.108.627.627 0 0 1-.15-.172.686.686 0 0 1-.06-.197.434.434 0 0 1 .043-.232.692.692 0 0 1 .16-.221.679.679 0 0 1 .205-.123 4.77 4.77 0 0 1 .46-.076 5.69 5.69 0 0 0 .945-.185c.078-.021.194-.076.258-.12.092-.064.118-.096.124-.16a.495.495 0 0 0-.037-.188c-.03-.073-.063-.114-.1-.124a.409.409 0 0 0-.148.003c-.05.01-.11.02-.132.022-.023.002-.045-.007-.05-.02-.003-.014.037-.04.091-.057a.45.45 0 0 1 .19-.017c.05.01.127.04.171.07a.448.448 0 0 1 .19.386c.001.102-.013.158-.055.22a.656.656 0 0 1-.153.147 1.205 1.205 0 0 1-.208.105c-.06.022-.082.034-.049.026a3.8 3.8 0 0 1 .347-.028l.286-.014.023.046c.013.026.03.087.038.137.009.056.003.1-.015.114a.968.968 0 0 1-.164.079 2.91 2.91 0 0 1-.306.098l-.172.044.172.002c.11.002.207.018.272.048a.531.531 0 0 1 .17.137.375.375 0 0 1 .08.232.435.435 0 0 1-.033.232.48.48 0 0 1-.12.149.54.54 0 0 1-.174.08.347.347 0 0 1-.147.005zm.352-.582a.354.354 0 0 0-.143-.158c-.063-.033-.14-.045-.294-.045a1.53 1.53 0 0 0-.387.049 2.08 2.08 0 0 1-.2.049c-.012 0-.04-.017-.061-.038a.156.156 0 0 1-.039-.097.15.15 0 0 1 .035-.092c.023-.023.12-.041.276-.052.133-.01.302-.032.376-.05l.135-.033-.254-.003c-.186-.002-.25-.01-.243-.033.005-.016.114-.07.24-.12.128-.051.214-.093.191-.094a2.302 2.302 0 0 0-.535.119.793.793 0 0 1-.189.051c-.03 0-.07-.024-.091-.054a.21.21 0 0 1-.039-.081c0-.015.014-.046.031-.07.022-.029.1-.052.252-.075a3.64 3.64 0 0 0 .318-.06 1.09 1.09 0 0 0 .196-.082.377.377 0 0 0 .156-.172c.049-.098.054-.13.033-.208l-.025-.092-.003.086a.393.393 0 0 1-.05.164.423.423 0 0 1-.145.128 1.806 1.806 0 0 1-.277.098 7.576 7.576 0 0 1-1.022.186c-.22.026-.33.05-.403.091a.613.613 0 0 0-.17.156.552.552 0 0 0-.085.2.578.578 0 0 0 .002.163.49.49 0 0 0 .093.15c.042.049.119.11.17.136a.53.53 0 0 0 .205.047c.062 0 .258-.037.436-.083.179-.046.43-.101.557-.123.128-.021.327-.048.442-.06a1.31 1.31 0 0 1 .29-.001c.045.01.109.043.14.073.033.03.074.094.09.14.02.056.034.071.04.044a.389.389 0 0 0-.05-.155zm-.805-.253c.101-.027.14-.043.086-.036a1.957 1.957 0 0 1-.202.012c-.076 0-.105.01-.105.037 0 .02.008.037.019.036.01 0 .101-.023.202-.05zm-.11-.44.122-.05-.147.016a1.06 1.06 0 0 0-.165.026.043.043 0 0 0-.019.034c0 .012.02.023.043.023a.706.706 0 0 0 .166-.05zm.2-.066a.023.023 0 0 0-.033 0c-.009.01-.002.017.017.017.018 0 .025-.007.016-.017zM8.756 9.99c-.064-.029-.211-.15-.356-.291a10.81 10.81 0 0 0-.528-.478 3.13 3.13 0 0 0-.39-.288.778.778 0 0 0-.222-.063l-.115-.011-.066.078c-.036.043-.065.098-.065.123 0 .025-.012.049-.027.054-.019.006-.017.033.006.087a.37.37 0 0 0 .117.134c.046.03.088.07.094.087.006.016-.007.03-.027.03s-.07-.028-.11-.062a.618.618 0 0 1-.127-.171.3.3 0 0 1-.037-.206.611.611 0 0 1 .078-.191.654.654 0 0 1 .148-.154.326.326 0 0 1 .212-.06.53.53 0 0 1 .236.058c.061.031.166.095.233.142.103.072.09.057-.071-.094a3.504 3.504 0 0 1-.288-.3.537.537 0 0 1-.094-.149c0-.017.036-.072.08-.124l.08-.093.11.049c.06.027.198.114.306.195.107.08.264.222.348.316.114.128.159.163.18.142.02-.021-.005-.053-.105-.127a2.262 2.262 0 0 1-.27-.25 1.384 1.384 0 0 1-.176-.232.544.544 0 0 1-.039-.195.51.51 0 0 1 .05-.21.51.51 0 0 1 .147-.162.365.365 0 0 1 .226-.066.554.554 0 0 1 .223.043.383.383 0 0 1 .132.104c.02.032.03.066.022.075-.01.009-.088-.02-.176-.062a.94.94 0 0 0-.193-.079c-.02 0-.068.028-.11.063a.36.36 0 0 0-.099.152.355.355 0 0 0-.01.144c.008.03.169.2.358.376.189.175.474.419.634.54.16.122.317.257.349.3a.704.704 0 0 1 .086.163.655.655 0 0 1-.018.432.554.554 0 0 1-.123.165.54.54 0 0 1-.169.09.964.964 0 0 1-.213.026.653.653 0 0 1-.231-.05zm.504-.104a.41.41 0 0 0 .13-.127.394.394 0 0 0 .054-.234.475.475 0 0 0-.058-.251c-.04-.072-.138-.164-.321-.303a9.992 9.992 0 0 1-.57-.473 4.06 4.06 0 0 1-.379-.374.564.564 0 0 1-.086-.178.326.326 0 0 1 .024-.173c.021-.051.035-.097.03-.103-.006-.005-.033.027-.06.071a.618.618 0 0 0-.065.158.284.284 0 0 0 .018.16c.019.045.081.14.138.212.057.072.18.187.273.255.152.11.17.132.17.205 0 .056-.015.09-.048.108a.22.22 0 0 1-.083.025c-.02 0-.079-.047-.13-.104a6.645 6.645 0 0 0-.225-.233 2.153 2.153 0 0 0-.208-.182c-.068-.047-.073-.048-.04-.006l.166.202a.95.95 0 0 1 .127.178c0 .013-.012.023-.025.023-.014 0-.11-.051-.215-.114a9.18 9.18 0 0 0-.214-.126c-.013-.007.02.034.074.09.054.057.175.155.27.218.094.063.196.136.226.162.03.027.055.065.055.085 0 .02-.018.057-.04.081a.155.155 0 0 1-.1.045c-.041 0-.12-.054-.238-.165a1.962 1.962 0 0 0-.31-.238.505.505 0 0 0-.261-.074H7.21l-.091.09-.092.091.122-.061c.09-.047.142-.058.207-.047a.71.71 0 0 1 .208.096c.068.044.21.15.319.237.108.086.334.29.502.453.169.163.332.31.363.327a.661.661 0 0 0 .348.051.669.669 0 0 0 .163-.056zM8.19 9.06c0-.012-.056-.056-.124-.098l-.125-.077.067.088a.532.532 0 0 0 .106.11c.02.011.047.016.057.01a.042.042 0 0 0 .02-.033zm5.106.846a.46.46 0 0 1-.273-.422.612.612 0 0 1 .03-.26.664.664 0 0 1 .113-.182c.04-.043.18-.163.31-.268.13-.104.36-.314.514-.467.171-.17.301-.323.34-.399a.57.57 0 0 0 .062-.182.348.348 0 0 0-.015-.099.43.43 0 0 0-.124-.112c-.077-.052-.127-.07-.167-.06a.422.422 0 0 0-.145.113c-.049.053-.1.09-.113.082-.017-.01-.016-.031.001-.064a.534.534 0 0 1 .126-.12.317.317 0 0 1 .227-.074c.097 0 .152.017.238.071.074.047.13.107.164.18.03.059.053.15.053.203a.57.57 0 0 1-.053.204c-.03.06-.137.194-.24.296a4.397 4.397 0 0 1-.243.231c-.045.035-.051.052-.029.074.022.021.04.014.078-.033.026-.034.104-.125.172-.203a2.215 2.215 0 0 1 .544-.435l.111-.06.065.061c.036.033.076.08.089.105.018.033.008.07-.037.147a2.4 2.4 0 0 1-.229.286c-.112.123-.138.161-.08.118a1.24 1.24 0 0 1 .196-.115c.06-.028.15-.05.2-.05.05-.001.121.01.159.025a.511.511 0 0 1 .243.224.514.514 0 0 1 .034.191c0 .07-.012.15-.027.18a.774.774 0 0 1-.103.132c-.042.044-.09.08-.107.08-.018 0-.032-.006-.032-.014 0-.007.043-.085.096-.173.083-.138.093-.169.072-.228a.372.372 0 0 0-.082-.124.313.313 0 0 0-.169-.067c-.092-.01-.119-.003-.168.045a5.76 5.76 0 0 1-.265.229 11.87 11.87 0 0 0-.587.544c-.29.286-.406.383-.488.412a.793.793 0 0 1-.22.038.637.637 0 0 1-.24-.06zm.45-.075c.05-.021.231-.181.434-.386.19-.192.451-.433.58-.536.127-.103.267-.205.31-.227a.45.45 0 0 1 .172-.04.41.41 0 0 1 .179.053l.086.052-.05-.055a.486.486 0 0 0-.114-.089.462.462 0 0 0-.175-.034c-.088 0-.142.022-.291.12-.1.065-.237.18-.302.256-.075.087-.139.139-.171.139a.19.19 0 0 1-.096-.032c-.029-.021-.04-.056-.035-.104.006-.054.039-.094.128-.158.066-.048.196-.15.288-.228a.87.87 0 0 0 .168-.167c0-.013-.083.032-.184.1-.1.069-.2.13-.22.139-.02.008-.037.002-.037-.014s.06-.109.135-.207c.074-.099.135-.187.135-.197 0-.01-.044.019-.098.064a3.101 3.101 0 0 0-.271.283c-.107.124-.192.202-.221.202a.17.17 0 0 1-.097-.049c-.027-.027-.049-.067-.049-.09 0-.021.042-.074.092-.116.05-.041.161-.146.246-.23.084-.086.176-.2.205-.256a.35.35 0 0 0 .04-.221c-.01-.09-.029-.137-.08-.186l-.068-.065.04.06a.33.33 0 0 1 .04.154.523.523 0 0 1-.034.173 1.427 1.427 0 0 1-.214.263c-.1.102-.304.295-.454.43-.15.134-.339.3-.42.37a.92.92 0 0 0-.186.213.626.626 0 0 0-.04.228c0 .087.017.177.043.229a.333.333 0 0 0 .152.14.533.533 0 0 0 .433.02zm.817-.999.135-.148-.115.083a16.71 16.71 0 0 1-.178.128c-.035.025-.057.055-.05.068a.05.05 0 0 0 .044.02.775.775 0 0 0 .164-.15zm-4.338.25a.709.709 0 0 1-.307-.27 3.087 3.087 0 0 1-.112-.381c-.042-.174-.114-.44-.16-.594a4.455 4.455 0 0 0-.154-.43 1.12 1.12 0 0 0-.17-.258c-.087-.092-.11-.104-.175-.092a.614.614 0 0 0-.172.08c-.081.054-.098.08-.098.145 0 .044.017.121.038.172.027.064.03.1.013.117-.018.018-.038-.004-.066-.07a.683.683 0 0 1-.042-.21.333.333 0 0 1 .062-.212.473.473 0 0 1 .565-.168.505.505 0 0 1 .144.104c.035.04.094.126.13.193.035.068.058.1.052.074a8.981 8.981 0 0 1-.05-.208 1.623 1.623 0 0 1-.037-.3v-.14l.116-.035c.104-.03.12-.03.162.005a.58.58 0 0 1 .095.138c.028.054.081.187.118.294l.068.197-.014-.187a1.455 1.455 0 0 1 .003-.273.469.469 0 0 1 .096-.176.367.367 0 0 1 .21-.126.418.418 0 0 1 .238-.008.49.49 0 0 1 .184.104.429.429 0 0 1 .146.285c0 .027-.01.05-.022.05a.65.65 0 0 1-.124-.16l-.103-.16h-.087a.467.467 0 0 0-.167.04.285.285 0 0 0-.117.111l-.035.073.104.41c.058.224.138.502.178.617.04.114.107.3.15.412.041.112.075.25.075.308a.812.812 0 0 1-.038.217.651.651 0 0 1-.127.203.643.643 0 0 1-.169.125.571.571 0 0 1-.186.033.638.638 0 0 1-.215-.05zM10.612 9a.512.512 0 0 0 .118-.092.734.734 0 0 0 .092-.136.568.568 0 0 0 .04-.212c0-.101-.027-.2-.112-.412a7.324 7.324 0 0 1-.206-.61 6.35 6.35 0 0 1-.125-.516l-.03-.185.046-.096a.474.474 0 0 1 .133-.154l.086-.059-.071.017a.409.409 0 0 0-.127.058.43.43 0 0 0-.094.105.534.534 0 0 0-.052.16.876.876 0 0 0 .02.255c.02.087.065.24.1.338.05.134.06.19.04.225a.15.15 0 0 1-.075.062c-.03.01-.075 0-.11-.023-.037-.025-.063-.07-.072-.13a16.32 16.32 0 0 0-.04-.238A1.457 1.457 0 0 0 10.1 7.1l-.048-.112.018.16c.01.087.018.186.018.22.001.034-.009.065-.022.07-.013.005-.076-.089-.14-.208a2.018 2.018 0 0 0-.118-.205c0 .007.022.094.05.192.027.099.083.245.124.326a.48.48 0 0 1 .066.225c-.006.059-.023.083-.075.1-.055.02-.077.015-.116-.024a.749.749 0 0 1-.097-.243 2.008 2.008 0 0 0-.132-.356.637.637 0 0 0-.163-.214.328.328 0 0 0-.194-.055c-.062 0-.13.01-.15.024-.025.016-.01.02.05.01a.277.277 0 0 1 .183.044c.071.04.117.094.165.191a6.4 6.4 0 0 1 .2.54 7.8 7.8 0 0 1 .185.64c.027.13.06.262.072.295a.623.623 0 0 0 .09.14c.037.043.107.1.155.125a.52.52 0 0 0 .207.048.478.478 0 0 0 .184-.033zm-.651-1.23c.008-.008-.016-.082-.054-.165l-.096-.213c-.016-.033-.022-.039-.014-.012.008.027.03.115.05.196.02.081.042.161.047.178.006.017.02.03.032.03a.055.055 0 0 0 .035-.014zm.422-.131c.008-.013-.013-.088-.047-.166l-.062-.142.014.11c.007.061.018.135.025.166.006.03.02.055.033.055.013 0 .03-.01.037-.023zm-.117-.374c-.008-.02-.014-.014-.015.015 0 .026.005.04.013.032s.009-.03.002-.047zm-.213-.302a.012.012 0 0 0-.012-.012.012.012 0 0 0-.012.012c0 .007.006.013.012.013a.012.012 0 0 0 .012-.013zm1.875 2.117a.649.649 0 0 1-.168-.116.74.74 0 0 1-.14-.187.635.635 0 0 1-.047-.25c0-.115.023-.216.095-.417a7.634 7.634 0 0 0 .274-1.027 1.12 1.12 0 0 0 .013-.287.417.417 0 0 0-.062-.168c-.036-.044-.073-.056-.194-.061l-.149-.006-.05.064a.25.25 0 0 0-.05.129.22.22 0 0 1-.033.11c-.022.031-.038.037-.05.018-.009-.015-.005-.074.01-.13a.685.685 0 0 1 .066-.16.418.418 0 0 1 .114-.103.58.58 0 0 1 .159-.061.552.552 0 0 1 .193.012.498.498 0 0 1 .203.117.44.44 0 0 1 .123.198.785.785 0 0 1 .014.257l-.016.148.07-.198c.038-.108.097-.246.13-.306s.078-.112.1-.117a.449.449 0 0 1 .141.02l.1.026v.165c0 .09-.017.242-.037.336-.02.094-.036.177-.036.184 0 .007.021-.034.047-.09.026-.057.072-.138.104-.18a.625.625 0 0 1 .157-.137.42.42 0 0 1 .203-.059.48.48 0 0 1 .182.04.727.727 0 0 1 .124.08.54.54 0 0 1 .092.13.443.443 0 0 1 .015.36c-.016.032-.041.055-.055.05-.013-.006-.024-.086-.024-.178V7.12l-.069-.06c-.052-.044-.097-.059-.187-.059-.077 0-.136.015-.17.043-.033.028-.09.168-.163.398-.06.196-.133.441-.16.546-.027.104-.066.28-.086.392-.02.111-.05.24-.064.288a.667.667 0 0 1-.277.356.59.59 0 0 1-.442.057zm.345-.109a.755.755 0 0 0 .179-.144.43.43 0 0 0 .124-.249c.016-.08.056-.276.091-.438a7.91 7.91 0 0 1 .173-.631 2.67 2.67 0 0 1 .164-.417.405.405 0 0 1 .187-.134l.134-.054-.112-.001a.33.33 0 0 0-.197.055.583.583 0 0 0-.164.219c-.044.09-.098.249-.119.354a1.09 1.09 0 0 1-.073.247.119.119 0 0 1-.093.056.158.158 0 0 1-.098-.039c-.02-.021-.038-.054-.038-.073 0-.02.037-.126.082-.237.045-.112.096-.254.113-.317a.441.441 0 0 0 .021-.143c-.005-.015-.051.067-.103.182-.052.116-.106.21-.12.21-.015 0-.02-.09-.013-.251l.012-.252-.036.086c-.02.047-.05.18-.07.294l-.047.289a.185.185 0 0 1-.073.119l-.06.04-.062-.041c-.035-.023-.06-.063-.06-.095 0-.03.027-.141.061-.247.034-.106.068-.273.077-.37.013-.157.008-.19-.04-.277a.461.461 0 0 0-.148-.15.402.402 0 0 0-.138-.052c-.03 0-.017.015.038.043a.452.452 0 0 1 .135.112c.041.056.05.103.048.245a2.877 2.877 0 0 1-.07.47 9.158 9.158 0 0 1-.199.693 3.825 3.825 0 0 0-.133.456.554.554 0 0 0 .117.305.591.591 0 0 0 .138.13.396.396 0 0 0 .183.046.526.526 0 0 0 .189-.039zm.339-1.303a5.65 5.65 0 0 0 .028-.165l.015-.098-.063.13a.726.726 0 0 0-.063.166c0 .019.015.034.035.034.019 0 .04-.03.048-.067zm-.443-.049c.006-.01.017-.09.025-.178l.016-.159-.061.156a.493.493 0 0 0-.048.178.047.047 0 0 0 .036.021.04.04 0 0 0 .032-.018zm.507-.239a.012.012 0 0 0-.012-.012.012.012 0 0 0-.013.012c0 .007.006.012.013.012a.012.012 0 0 0 .012-.012zm.024-.073a.012.012 0 0 0-.012-.013.012.012 0 0 0-.012.013c0 .007.006.012.012.012a.012.012 0 0 0 .012-.012zm-.473-.115c-.008-.02-.014-.014-.015.015-.001.025.005.04.013.032s.009-.03.002-.047zm.449-.229a.012.012 0 0 0-.012-.012.012.012 0 0 0-.013.012c0 .007.006.013.013.013a.012.012 0 0 0 .012-.013zm.702-.028a.023.023 0 0 0-.032 0c-.01.009-.002.016.016.016.018 0 .025-.007.016-.016zm-5.833 6.422a.023.023 0 0 0-.033 0c-.009.009-.002.016.016.016.018 0 .026-.007.017-.016zm7.574 0a.023.023 0 0 0-.033 0c-.009.009-.002.016.016.016.018 0 .026-.007.017-.016zm-7.964-.068c.084-.032.234-.105.336-.16.126-.07.2-.097.235-.086a.14.14 0 0 1 .073.076.13.13 0 0 1-.003.11.19.19 0 0 1-.08.072c-.038.017-.023.02.057.008.061-.008.28-.068.487-.134a2.98 2.98 0 0 0 .456-.172.635.635 0 0 0 .137-.139.429.429 0 0 0 .066-.222.402.402 0 0 0-.035-.224.557.557 0 0 0-.15-.16c-.093-.064-.128-.074-.27-.074H8.3l-.318.151a8.986 8.986 0 0 1-.564.242c-.135.05-.338.118-.451.15a.818.818 0 0 1-.27.041.701.701 0 0 1-.13-.048.283.283 0 0 1-.103-.101c-.02-.037-.037-.05-.038-.03 0 .02.02.068.046.106a.477.477 0 0 0 .116.117.355.355 0 0 0 .181.046c.062 0 .177-.017.256-.037.08-.02.214-.071.3-.112a.597.597 0 0 1 .22-.067c.035.004.075.026.089.047a.15.15 0 0 1 .009.1.146.146 0 0 1-.073.087c-.03.014-.122.04-.202.056-.08.016-.227.063-.325.103a.727.727 0 0 0-.17.083c.005.005.097-.007.203-.027.107-.02.22-.042.25-.05.036-.007.055-.001.055.02 0 .019-.047.06-.104.092a5.666 5.666 0 0 0-.213.127c-.06.037-.098.068-.085.068.014 0 .093-.026.176-.059zm.488.043a.023.023 0 0 0-.033 0c-.009.01-.002.017.016.017.018 0 .026-.007.017-.017zm7.325-.013a.465.465 0 0 1-.105-.05c-.016-.013-.03-.054-.03-.09s.013-.079.03-.095a.136.136 0 0 1 .083-.03c.03 0 .135.044.234.097.099.053.24.12.312.148a.531.531 0 0 0 .14.043 1.088 1.088 0 0 0-.187-.135c-.108-.07-.196-.138-.196-.152 0-.014.025-.02.056-.014l.202.039c.08.015.168.033.193.04.027.008.04.003.03-.011a.937.937 0 0 0-.217-.098 2.353 2.353 0 0 0-.313-.091.694.694 0 0 1-.151-.04.14.14 0 0 1-.057-.072c-.01-.03 0-.075.023-.11a.125.125 0 0 1 .1-.06c.033 0 .124.033.201.073a1.268 1.268 0 0 0 .529.147.499.499 0 0 0 .18-.04.28.28 0 0 0 .108-.085c.017-.032.017-.046-.002-.046a.255.255 0 0 0-.088.04.357.357 0 0 1-.165.042c-.056 0-.229-.042-.384-.093a7.548 7.548 0 0 1-.478-.174 17.178 17.178 0 0 1-.466-.206c-.19-.087-.3-.124-.374-.124a.606.606 0 0 0-.196.038.6.6 0 0 0-.148.092.538.538 0 0 0-.093.12.47.47 0 0 0-.034.179.6.6 0 0 0 .033.19.601.601 0 0 0 .13.167c.08.072.17.111.488.214.215.069.44.136.5.148.062.013.128.024.148.024.02 0 .004-.011-.037-.025zm.306-.007a.012.012 0 0 0-.012-.012.012.012 0 0 0-.013.012c0 .007.006.012.013.012a.012.012 0 0 0 .012-.012zm-.173-.097a.707.707 0 0 0-.164-.086c-.017 0-.03.015-.03.034 0 .02.058.055.14.084.078.027.152.05.165.05.012.002-.037-.036-.11-.082zm-6.453-.054a.023.023 0 0 0-.033 0c-.009.009-.002.016.016.016.018 0 .026-.007.017-.016zm-1.512-.266a.012.012 0 0 0-.012-.012.012.012 0 0 0-.012.012c0 .007.006.012.012.012a.012.012 0 0 0 .012-.012zm8.375-.004a.023.023 0 0 0-.033 0c-.009.01-.002.017.016.017.018 0 .026-.007.017-.017zm-8.095-.067c.066-.015.125-.04.13-.058.007-.016-.005-.03-.024-.03a.93.93 0 0 0-.192.074c-.087.041-.13.067-.096.058.034-.01.116-.03.182-.044zm8.021.043a.023.023 0 0 0-.032 0c-.01.009-.002.016.016.016.018 0 .025-.007.016-.016zm-.188-.081c-.082-.043-.143-.062-.158-.048-.014.014-.014.03 0 .045a.426.426 0 0 0 .134.046c.06.013.121.025.135.026.013 0-.036-.03-.11-.07z"/></svg>