<svg role="img" viewBox="0 0 24 24" xmlns="http://www.w3.org/2000/svg"><path d="M11.892 23.965c-.214-.08-.842-.503-1.382-.933-.842-.67-2.178-1.95-2.642-2.53-.73-.912-1.372-2.028-1.93-3.354-.305-.724-.558-1.535-.48-1.535.011 0 .176.182.366.404 1.454 1.7 2.625 2.656 4.337 3.542 1.585.82 3.234 1.345 4.777 1.519a6.7 6.7 0 0 0 .468.04c.061 0 .12.013.129.028.036.058-.173.338-.49.66-.643.648-1.533 1.362-2.426 1.946a4.09 4.09 0 0 1-.362.218.527.527 0 0 1-.365-.006zm-6.282-2.93c-.389-.03-.654-.077-1.391-.249l-.677-.157c-.047-.01-.07-.077-.166-.483-.544-2.288-.561-3.824-.068-6.134.138-.644.278-1.156.383-1.393.059-.134.154-.399.21-.589.09-.295.163-.454.505-1.1.22-.416.41-.768.424-.781.04-.043.028.154-.026.402-.097.449-.092 1.933.009 2.849.295 2.66 1.247 5.116 2.711 6.99.271.347.378.506.411.616l.019.06-1.028-.005a30.127 30.127 0 0 1-1.317-.026zm9.844-.155c-1.478-.118-2.515-.376-4.155-1.032-.718-.287-1.337-.605-1.337-.688 0-.036 0-.036.36.032.299.056.381.06 1.572.06 1.385 0 1.26.01 2.409-.2 2.292-.42 3.85-1.045 5.598-2.245l.761-.523c.215-.148.347-.222.363-.206.074.074.102.95.053 1.652a22.758 22.758 0 0 1-.224 1.8 3.393 3.393 0 0 1-.259.766l-.085.171-.45.085c-.248.046-.563.11-.702.141a5.027 5.027 0 0 1-.595.082c-.19.014-.422.044-.516.066-.136.032-.418.042-1.337.051-.64.006-1.295 0-1.456-.012zm.067-2.34c0-.006.253-.21.562-.455a13.34 13.34 0 0 0 3.222-3.716 14.643 14.643 0 0 0 1.802-5.307c.033-.247.07-.46.08-.473.033-.038.24.079.443.25.105.088.312.294.459.456.541.6 1.681 2.07 1.823 2.35.073.145.083.187.073.331-.016.253-.186.568-.593 1.096-1.252 1.626-2.496 2.852-3.69 3.639-.704.464-2.15 1.19-3.123 1.567-.433.168-1.058.323-1.058.262zm-6.667-4.462c.002-2.108-.01-3.458-.03-3.98-.032-.763-.024-1.822.014-1.94.01-.032.038-.067.062-.077.092-.038.711-.043 1.539-.013l.86.031.073-.086c.06-.073.073-.112.073-.24 0-.136-.01-.164-.09-.253-.12-.135-.149-.196-.149-.321 0-.087.013-.113.067-.142a.35.35 0 0 0 .115-.126c.058-.11.156-.13.309-.067a.771.771 0 0 0 .244.041h.146l-.016-.1a.293.293 0 0 0-.11-.18c-.097-.086-.111-.144-.066-.263l.026-.07.073.053c.04.03.12.125.178.213.082.123.122.16.173.162.039 0 .086.029.115.07.057.077.064.227.043.891-.017.548-.045.52.526.523.228.001.813.017 1.3.034l.887.03-.005.106c-.012.249-.058 2.228-.074 3.216-.015.906-.01 1.147.028 1.561.032.344.047.802.052 1.536.004.575.018 1.121.032 1.214.024.163.037.185.157.257.043.026.05.076.058.43l.009.401h-.065a.691.691 0 0 1-.177-.039c-.093-.033-.265-.036-1.115-.022l-1.004.017v.068a.33.33 0 0 1-.036.131l-.035.063-.817-.004c-.71-.004-.824-.01-.865-.047-.025-.023-.047-.063-.047-.088 0-.114-.033-.118-1.157-.127-1.209-.01-1.117-.025-1.24.207l-.063.12.002-3.19zm3.104 2.895c.048-.018.055-.25.025-.904l-.017-.377h-.26c-.154 0-.265.012-.276.028-.01.016-.009.308.002.649l.02.62h.232c.128 0 .251-.007.274-.016zm-2.433-.38a.403.403 0 0 0 .04-.1c0-.041-.154-.113-.244-.113-.125 0-.186.051-.175.147.008.072.021.081.155.109l.164.033c.01.001.038-.033.06-.075zm5.734-.034c.04-.098 0-.142-.175-.193-.118-.034-.218-.036-.658-.015-.285.014-.53.032-.543.04-.013.008-.029.05-.035.094-.01.065 0 .083.056.104.124.048.17.051.75.047l.574-.004zm-1.064-.447c.019-.055.029-.422.029-1.069v-.986l.06-.016c.032-.009.168-.016.3-.016.277 0 .275-.002.275.228 0 .092-.012.148-.033.155a3.53 3.53 0 0 1-.145.04.415.415 0 0 0-.152.07c-.048.047-.055.169-.01.169.017 0 .05.016.073.037.023.02.083.048.133.06.136.036.135.088-.003.089-.193 0-.217.038-.233.35-.017.322.007.654.056.8l.036.106.207.008.207.008-.018-1.86c-.01-1.024-.03-2.2-.045-2.615a67.9 67.9 0 0 1-.03-1.738c-.002-.541-.012-.992-.023-1.003-.01-.01-.037-.004-.06.014-.027.023-.04.082-.04.189v.155l-.12.03c-.089.022-.13.05-.159.105-.044.084-.047.081.14.142a.51.51 0 0 1 .153.068c.025.041-.103.089-.233.087-.069-.001-.134.011-.143.027-.01.015-.015.354-.012.752l.006.723-.074-.017c-.141-.034-.162-.058-.18-.202-.008-.077-.022-.49-.03-.92-.02-1.262-.018-1.217-.062-1.245-.059-.037-.093-.031-.14.021-.039.042-.04.066-.008.219.026.123.032.303.022.647-.008.262 0 .675.017.918.03.418.02.71-.024.71-.011 0-.028-.044-.038-.1-.052-.295-.154-.527-.377-.86-.295-.439-.569-.705-.81-.785-.17-.057-.527-.138-.541-.123-.032.031.05.107.188.173.089.044.202.104.251.134l.09.056-.056.059c-.051.054-.053.064-.015.117a.586.586 0 0 0 .36.191c.085 0 .106.018.256.218.172.23.392.647.472.894.045.14.056.29.035.516-.005.058.005.213.022.344.017.13.049 1.042.07 2.025.021.982.046 1.825.056 1.871.015.077.026.085.107.082.049-.002.097.005.107.014.034.034.056.017.085-.066zm.118-2.275c-.075-.021-.083-.035-.099-.163a26.437 26.437 0 0 1-.017-1.187v-1.049l.14-.016c.076-.01.206-.017.288-.017h.15l.017.178c.01.098.023.21.03.25.013.066.004.074-.1.1-.222.058-.244.07-.27.148-.016.047-.024.42-.02.931.003.47-.003.853-.015.852a1.007 1.007 0 0 1-.104-.027zm-3.807 2.18c.011-.055.023-1.094.025-2.31.003-1.215.014-2.252.026-2.302.01-.051.085-.246.163-.434.114-.272.2-.42.422-.737.153-.219.275-.401.27-.406-.067-.067-.71.569-.86.852-.181.34-.174.139-.163 4.523 0 .167-.036.304-.082.304-.02 0-.026-1.065-.022-3.388.006-3.43.004-3.513-.084-3.425-.029.029-.048.612-.066 2.006-.014 1.023-.015 1.033-.154 1.054-.034.005-.095.072-.162.18l-.108.172-.005.37a92.81 92.81 0 0 0-.007.789l-.001.417-.073.028c-.062.023-.08.019-.122-.034-.049-.059-.05-.102-.03-1.133.012-.59.019-1.138.016-1.218-.003-.08-.01-.652-.016-1.27l-.012-1.23c-.002-.208-.057-.05-.08.23a1.71 1.71 0 0 1-.042.314c-.025.04-.117 4.952-.094 4.977.01.01.044.007.077-.006.055-.02.06-.034.044-.139-.022-.15.034-.265.15-.305.174-.061.501-.019.55.07.028.054.038.157.033.33l-.004.126h-.132c-.105 0-.137.011-.16.055-.043.08.013.136.127.126.07-.006.103.007.142.055.068.084.035.113-.14.12-.19.008-.23.03-.25.136a.347.347 0 0 0 .084.31.319.319 0 0 1 .064.099c0 .012.047.076.103.142a.803.803 0 0 1 .134.211c.02.06.064.112.124.148.089.052.094.062.085.174l-.01.118h.11c.105 0 .11-.004.13-.1zm2.204-.31c.048-.065.114-.121.146-.126.035-.005.057-.026.055-.054a56.038 56.038 0 0 1-.007-.443c-.002-.219-.013-.397-.024-.397-.01 0-.102.053-.202.117l-.183.116.11.056c.06.03.11.065.11.075 0 .011-.048.05-.106.086-.089.054-.106.08-.106.151 0 .075.009.087.065.087.046 0 .078.023.106.078.052.101.054.097-.039.13-.085.03-.149.133-.123.2.028.074.108.043.198-.077zm-.356-.174c.046-.042-.017-.176-.154-.327l-.141-.156-.195.037c-.174.034-.198.046-.23.116a.749.749 0 0 1-.115.161c-.06.065-.074.097-.06.152l.017.069.428-.016c.235-.009.437-.025.45-.036zm-1.095-.848a.761.761 0 0 0 .01-.284c-.027-.193-.018-.275.036-.316.035-.027.038-.049.014-.126-.032-.105-.012-.118.06-.04.062.07.104.067.209-.013a.408.408 0 0 1 .107-.066.53.53 0 0 1 .126.095l.106.095.116-.114c.064-.063.116-.135.116-.16 0-.075-.097-.085-.202-.02l-.096.059-.049-.064a.278.278 0 0 1-.05-.083c0-.037-.167-.02-.212.02-.04.036-.057.034-.168-.015l-.123-.054-.12.082c-.129.089-.145.145-.08.272.036.068.034.085-.018.192l-.057.117.06.107.06.106-.055.07a.254.254 0 0 0-.055.123c0 .079.077.15.16.15.066 0 .076-.012.105-.133zm2.223-.268c.073-.08.067-.118-.024-.15-.105-.036-.257.01-.277.086-.057.21.127.25.3.064zm-.647.03a.19.19 0 0 0 .042-.146 1.672 1.672 0 0 1 .01-.412c.026-.161-.01-.178-.158-.076-.133.091-.138.11-.076.268.042.103.042.114-.004.199-.047.089-.047.09.014.155.075.08.109.083.173.012zm.66-1.048c-.114-.084-.253-.022-.29.128-.033.128.008.132.177.017.15-.101.158-.112.113-.145zm-2.5-.117a6.78 6.78 0 0 1 .588-.048c.4-.02.512-.016.754.023.407.066.588.081.709.059.088-.016.107-.031.114-.089.007-.06-.004-.072-.093-.09a12.022 12.022 0 0 0-.908-.026 23.294 23.294 0 0 1-1.092-.025l-.284-.021v.139c0 .12.006.136.046.12.026-.01.1-.028.166-.042zm1.53-.378c.068-.017.123-.042.121-.057 0-.015-.043-.05-.093-.08-.082-.048-.137-.052-.659-.052h-.569l-.008.083c-.007.075 0 .086.078.103.298.065.872.067 1.13.003zm.096-.46a1.04 1.04 0 0 0-.025-.134 2.056 2.056 0 0 0-.21-.046c-.24-.046-.439-.05-.578-.011-.097.027-.099.03-.099.154 0 .07.008.135.018.144.01.01.219.018.465.018h.447zm-.038-.416.364-.102.14-.04.059.103c.032.057.066.103.076.103a.515.515 0 0 0 .049-.171c.022-.116.045-.172.07-.172.03 0 .089-.098.089-.149a.396.396 0 0 0-.114-.061l-.115-.049-.003-.286-.003-.286-.145-.213a2.509 2.509 0 0 0-.239-.304l-.093-.09-.148.035-.147.035-.086-.084-.087-.084-.32.096c-.278.083-.324.105-.337.16a.328.328 0 0 1-.12.131l-.106.07.054.075c.03.042.065.082.079.091.032.02.032.093 0 .144-.021.033-.053.02-.19-.076l-.164-.116-.126.132a.673.673 0 0 0-.17.275c-.055.18-.086.762-.044.834.027.047.03.046.03-.012.001-.1.104-.188.218-.189.054 0 .11.015.126.033l.074.093c.041.053.086.063.417.096.527.051.657.048.913-.022zm-2.55-1.074c.041-.118.046-1.007.007-1.19-.031-.142-.04-.149-.14-.103-.063.028-.065.04-.084.414-.031.62.023 1.003.14.98.025-.005.06-.05.078-.1zm.555-.681c.016-.011.085-.1.152-.199.095-.139.122-.202.122-.284 0-.098-.005-.106-.074-.106-.05 0-.105.032-.174.103-.098.1-.1.104-.068.209.027.09.025.115-.011.168-.072.102-.04.169.053.109zm2.69-.631c-.006-.128-.004-.132.139-.245a.688.688 0 0 0 .145-.137c0-.012-.037-.052-.082-.09-.077-.065-.1-.07-.329-.066a1.37 1.37 0 0 1-.271-.012c-.014-.008-.043 0-.065.017-.037.029-.037.047 0 .176.035.12.073.174.229.324.103.099.199.176.214.171.014-.005.023-.067.02-.138zm-3.217-.384c.003-.02-.011-.06-.032-.087-.036-.047-.043-.047-.102-.008-.057.037-.107.158-.078.188.024.023.206-.057.212-.093zm2.257-1.624v-.38l-.311.004-.311.004-.004.066c-.011.173-.007.593.006.606a.722.722 0 0 0 .194.007c.142-.007.202.003.28.046.056.03.112.048.124.04.012-.007.022-.184.022-.393zm-9.634 7.908c-.109-.039-.259-.172-.453-.403-.118-.14-.401-.45-.63-.69a13.53 13.53 0 0 1-.562-.623c-.205-.257-.933-1.278-.985-1.381-.066-.128-.055-.29.032-.472.096-.203.594-.981.84-1.31.773-1.04 2.204-2.383 3.372-3.167.327-.22.994-.612 1.39-.818.362-.188 1.693-.732 2.121-.867.242-.076.56-.138.584-.113.025.024-.164.194-.54.488-.232.18-.56.488-1.042.974-1.619 1.636-2.127 2.418-3.081 4.747-.43 1.052-.548 1.494-.782 2.952-.117.728-.12.734-.264.683zm16.385-1.411a2.5 2.5 0 0 1 .053-.358c.047-.227.057-.397.07-1.205.015-.996-.007-1.522-.099-2.235a13.132 13.132 0 0 0-.569-2.515c-.235-.706-.451-1.21-.888-2.064-.382-.749-.57-1.053-1.215-1.96-.331-.465-.396-.58-.35-.627.027-.026.222-.034.847-.034.906 0 .964.005 2.4.226.467.072.928.138 1.027.148l.179.017.067.22c.148.487.29 1.25.373 1.996.067.61.069 2.361.002 2.875-.07.544-.428 2.29-.532 2.591a43.29 43.29 0 0 1-.706 1.854c-.196.46-.435.908-.554 1.045l-.105.118v-.092zM18.1 8.089c-.444-.521-1.443-1.524-1.866-1.874-2.062-1.703-4.452-2.724-7.305-3.12a9.1 9.1 0 0 1-.444-.069c-.093-.03.156-.38.528-.742A29.34 29.34 0 0 1 10.32 1.13c.162-.13.87-.61 1.277-.866.096-.06.139-.105.14-.144 0-.098.037-.127.147-.118.094.008.104.015.111.09.006.064.028.091.106.128.053.026.264.154.468.286L13 .782c.071.044 1.006.779 1.237.972.246.206.966.92 1.282 1.273.78.87 1.506 1.892 1.84 2.594.756 1.585.928 1.997 1.061 2.541.07.285.076.331.045.331-.011 0-.175-.182-.364-.404zM2.84 8.2l-.024-.685c-.03-.79-.002-1.357.104-2.202.108-.86.241-1.474.35-1.615.06-.077 1.288-.316 2.165-.42 1.243-.15 3.367-.067 4.485.174 1.095.235 2.586.74 3.535 1.195.424.204.53.275.53.358 0 .042-.024.048-.192.048-.106 0-.437-.02-.735-.043-.724-.058-1.72-.058-2.236 0-1.212.138-2.675.463-3.63.806-1.352.486-2.663 1.198-3.612 1.961-.348.28-.547.411-.666.44-.052.013-.073.007-.074-.018z"/></svg>