<svg role="img" viewBox="0 0 24 24" xmlns="http://www.w3.org/2000/svg"><path d="M8.377 23.74c-.595-.199-1.135-.679-1.376-1.224-.141-.318-.18-.52-.178-.913.002-.319.01-.397.071-.596.038-.126.07-.238.07-.248 0-.01-.06.049-.132.13-.573.643-1.579.897-2.391.604-.682-.246-1.175-.773-1.396-1.492-.064-.208-.07-.27-.071-.636 0-.391.003-.415.087-.66a2.13 2.13 0 0 1 1.062-1.219c.318-.16.882-.303 1.532-.387.18-.023.336-.05.347-.061.022-.022-.103-.287-.372-.789-.257-.477-.92-1.544-.959-1.544-.017 0-.052.032-.078.072-.082.127-.71.88-.827.992a3.497 3.497 0 0 1-.684.497c-.294.148-.573.201-.974.185-.385-.016-.56-.056-.864-.2a2.104 2.104 0 0 1-1.01-1.01c-.171-.354-.21-.511-.226-.93-.012-.305-.006-.386.041-.576.11-.443.427-.955.738-1.194.336-.258.729-.447.985-.473.17-.018.202-.051.068-.073a2.258 2.258 0 0 1-1.32-.756 2.653 2.653 0 0 1-.467-.932 2.655 2.655 0 0 1-.01-1 2.256 2.256 0 0 1 1.646-1.672 2.12 2.12 0 0 1 .989-.002c.589.164 1.046.524 1.68 1.324l.31.39.048-.06c.092-.113.618-.956.801-1.284.276-.493.51-.973.486-.994a1.583 1.583 0 0 0-.296-.05C4.252 6.791 3.46 6.34 3.115 5.48c-.224-.56-.197-1.275.068-1.8A2.297 2.297 0 0 1 4.626 2.5c.282-.08.815-.08 1.115.001.42.114.896.406 1.124.689.045.055.086.096.093.09a.643.643 0 0 0-.043-.177 2.003 2.003 0 0 1-.1-.78 2.29 2.29 0 0 1 .244-.916c.104-.21.16-.287.373-.501.355-.356.631-.519 1.091-.64.275-.073.795-.068 1.072.01.628.178 1.143.594 1.412 1.142.172.35.21.515.208.918 0 .264-.014.395-.061.589a8.06 8.06 0 0 1-.401 1.158 1.177 1.177 0 0 0-.095.241c.022.022 1.004.066 1.475.066.434 0 1.188-.043 1.218-.07.014-.013-.041-.162-.245-.663-.217-.532-.282-.803-.298-1.244-.011-.316-.005-.4.042-.59.188-.755.77-1.333 1.561-1.546.284-.076.78-.082 1.06-.013.25.062.587.218.797.368.214.153.527.488.65.698.055.092.137.28.183.417.08.237.083.267.083.667.001.388-.005.435-.07.628a1.94 1.94 0 0 0-.071.243c0 .018.078-.05.175-.153a2.134 2.134 0 0 1 1.487-.696 2.25 2.25 0 0 1 1.973.985c.251.376.344.675.362 1.166.015.406-.037.677-.198 1.018-.356.753-1.084 1.17-2.293 1.315-.503.06-.513.062-.53.106-.04.104 1.118 2.127 1.306 2.28.034.028.076-.015.297-.301.744-.968 1.337-1.378 2.046-1.414 1.006-.052 1.915.55 2.235 1.48.11.318.128 1.008.035 1.353-.13.485-.435.903-.887 1.215-.3.208-.533.304-.858.356-.13.02-.126.066.005.066.316 0 .824.27 1.181.626.363.362.548.744.608 1.251.037.319-.007.813-.096 1.075-.21.623-.85 1.205-1.528 1.39-.62.17-1.252.042-1.8-.363-.258-.192-.413-.354-.804-.841a7.949 7.949 0 0 0-.413-.494c-.034 0-.542.8-.79 1.243-.289.513-.545 1.017-.545 1.07 0 .025.076.044.281.068.706.082 1.215.216 1.662.438.205.101.28.157.478.36.441.45.614.868.615 1.488 0 .644-.207 1.151-.65 1.59-.357.351-.782.56-1.287.628-.733.101-1.559-.218-1.989-.77-.09-.117-.1-.085-.03.102.127.338.14.907.03 1.296a2.237 2.237 0 0 1-1.386 1.489c-.157.059-.218.065-.683.075-.408.01-.546.002-.693-.031-.727-.17-1.377-.857-1.52-1.606-.103-.533-.007-1.082.343-1.961.093-.234.169-.436.169-.45 0-.015-.056-.035-.124-.046-.163-.026-2.286-.026-2.45 0-.15.024-.16-.038.102.619.264.663.336.962.337 1.4 0 .413-.036.572-.225.955-.116.236-.167.306-.373.513a2.06 2.06 0 0 1-.806.529c-.18.064-.227.069-.741.076-.479.007-.569.002-.694-.04zm.931-.66c.233-.041.568-.217.762-.4.125-.116.194-.209.275-.372.098-.199.109-.24.12-.47.023-.424-.063-.763-.403-1.59-.208-.506-.162-.476-.572-.385-.659.145-1.173.403-1.544.774-.265.265-.385.566-.388.979-.003.398.138.73.44 1.036.35.355.835.513 1.31.428zm6.117-.049c.214-.068.532-.275.674-.441.146-.172.255-.386.316-.623.206-.809-.223-1.472-1.231-1.902-.266-.114-.717-.231-.91-.238l-.139-.005-.106.236c-.292.652-.477 1.3-.478 1.675-.002.533.287.981.785 1.219.342.163.73.192 1.089.079zm-9.836-2.205c.33-.083.691-.374.872-.702.164-.296.2-.495.18-1.007-.02-.493-.06-.716-.194-1.08-.083-.227-.107-.27-.155-.27a17.4 17.4 0 0 0-1.148.172c-.643.132-.994.336-1.242.72-.208.322-.257.792-.122 1.185.16.472.536.848.959.96.278.075.606.083.85.022zm13.724-.035a1.508 1.508 0 0 0 .961-1.764 1.328 1.328 0 0 0-.703-.865c-.308-.147-1.295-.361-1.733-.375l-.175-.006-.072.196c-.04.108-.105.338-.145.51-.063.27-.073.373-.075.72-.002.452.03.617.173.907.295.6 1.111.912 1.769.677zm-2.567-.637c-.083-.208-.13-.555-.129-.947.002-.459.049-.76.19-1.227.059-.192.103-.352.099-.354l-.256-.065a11.37 11.37 0 0 1-1.38-.47l-.45-.182-.015.148c-.073.688-.147 1.107-.29 1.635-.107.396-.108.41-.032.411.133 0 .638.134.899.238.49.196 1.087.582 1.29.834.104.13.13.121.074-.021zm-8.968-.351c.453-.323 1.392-.7 1.744-.7.069 0 .088-.01.077-.038-.008-.02-.061-.224-.118-.452a10.598 10.598 0 0 1-.26-1.454c-.015-.193-.027-.241-.058-.237a5.542 5.542 0 0 0-.417.164c-.438.186-1.223.454-1.468.502a6.004 6.004 0 0 0-.176.035 5.73 5.73 0 0 1 .282 1.218c.044.383.018.817-.065 1.113-.037.13-.067.251-.067.271 0 .02.08-.04.18-.133.098-.094.254-.223.346-.29zm3.945-.874c.658-.012 1.1-.007 1.434.016.267.018.49.027.498.02.027-.027.195-.646.258-.949.1-.486.145-.873.163-1.397l.016-.48.134-.085c.073-.047.17-.105.217-.128l.084-.043.296.165c.378.212 1.618.694 2.065.803.176.043.325.073.331.068.006-.006.06-.121.121-.255.257-.57.787-1.494 1.27-2.216.188-.282.263-.415.252-.45-.036-.112-.92-.883-1.346-1.174-.253-.173-.803-.51-.873-.536-.04-.014-.046-.052-.046-.263v-.248l.177-.097c.233-.13.703-.451.949-.65.604-.488 1.143-1.006 1.117-1.073a5.725 5.725 0 0 0-.225-.354 18.236 18.236 0 0 1-1.23-2.137c-.189-.402-.128-.382-.696-.221a9.95 9.95 0 0 0-1.713.67c-.332.171-.454.223-.502.21a1.27 1.27 0 0 1-.226-.12l-.164-.105v-.322c0-.62-.124-1.454-.314-2.124a5.398 5.398 0 0 0-.114-.374 7.788 7.788 0 0 0-.583.02c-.494.026-1.387.022-2.55-.01l-.17-.006-.056.17a11.57 11.57 0 0 0-.281 1.27 11.07 11.07 0 0 0-.094 1.195v.201l-.186.107a.896.896 0 0 1-.238.107c-.03 0-.12-.04-.201-.089A7.76 7.76 0 0 0 8.26 7.55c-.342-.135-1.166-.388-1.375-.422l-.091-.015-.17.36A17.572 17.572 0 0 1 5.33 9.7c-.134.188-.167.253-.148.288.052.094.736.745 1.023.973.33.263.72.534 1.014.704l.19.11v.489l-.19.112c-.33.194-.702.457-1.054.745-.391.32-.847.737-.944.864l-.067.088.343.513c.402.602.73 1.173 1.057 1.846l.241.493c.01.015.573-.13.862-.223a8.78 8.78 0 0 0 1.35-.56c.253-.128.474-.233.492-.233.018 0 .12.048.228.107l.195.107v.2c0 .704.127 1.575.343 2.354l.083.301.213-.016a33.5 33.5 0 0 1 1.162-.033zm-.165-3.434c.014-.013.132-.069.262-.123.727-.302 1.747-.857 1.922-1.044.062-.067.063-.07.02-.16-.05-.103-.064-.106-.326-.061-.301.052-.373-.002-.373-.282 0-.333.233-.475.512-.312.196.115.325.381.326.669 0 .286-.25.518-.93.864-.43.22-.632.295-1.007.377l-.367.082c-.041.01-.056.006-.04-.01zm1.889-1.672c.068-.027-.018-.087-.124-.087-.093 0-.155.048-.155.12 0 .017.211-.008.279-.033zm-.605 1.67a6.61 6.61 0 0 1 .496-.212c1.307-.525 1.74-.773 1.74-.997a.829.829 0 0 0-.08-.26c-.171-.359-.187-.416-.154-.554.052-.214.08-.179.235.294.133.411.143.467.105.627-.046.192-.218.368-.555.569-.52.309-.885.443-1.408.516-.335.046-.414.05-.379.017zm-2.192-.207-.123-.072.042-.087c.055-.113.093-.125.187-.058.096.068.125.069.161 0 .021-.039.044-.048.086-.035.138.042.193.177.114.284-.033.046-.04.045-.144-.014l-.11-.063-.045.059-.045.058-.123-.072zm4.978-.11a18.293 18.293 0 0 1-.026-.445 30.032 30.032 0 0 0-.064-.89 24.676 24.676 0 0 1-.058-.79c-.014-.293-.01-.342.03-.404l.047-.071.033.064c.034.063.117.358.117.412 0 .015-.02.02-.042.012-.038-.015-.041.01-.027.243.08 1.291.085 1.658.02 1.817-.014.036-.028.06-.03.052zm-5.647-.733a.998.998 0 0 1-.435-.21c-.118-.103-.149-.157-.187-.324l-.029-.128-.136.12c-.197.176-.474.25-.601.161-.08-.056-.08-.258-.002-.411.076-.15.345-.413.527-.516.108-.061.148-.098.139-.128-.058-.197-.027-.367.074-.405.04-.015.078.08.098.244.006.051.022.064.067.057.063-.009.062.013-.01.153-.042.078-.046.432-.009.63.056.294.222.423.608.471.234.03.666-.002.959-.069.213-.049.52-.182.607-.263.083-.077.13-.08.13-.007 0 .086.096.222.182.258a.353.353 0 0 0 .303-.037c.048-.035.048-.04.005-.131-.094-.197-.038-.498.129-.693.136-.16.183-.177.263-.103.125.117.171.247.16.451-.012.237-.09.403-.274.583-.346.34-.803.317-.908-.045-.01-.034-.058-.02-.27.084a2.58 2.58 0 0 1-1.017.27 1.982 1.982 0 0 1-.372-.012zm2.598-.62c.125-.124.113-.427-.017-.427-.114 0-.193.321-.104.428.045.054.067.054.121 0zm-3.508-.139c.159-.098.205-.172.218-.346l.012-.162-.076.049c-.33.213-.57.483-.48.538.042.026.23-.02.326-.079zm1.275-.392c-.075-.1-.212-.129-.336-.07-.122.058-.12-.002.004-.111.102-.09.207-.105.29-.043.07.054.08.05.098-.039.019-.093.127-.157.195-.114.074.047.067.088-.014.088-.088 0-.137.078-.138.217 0 .137-.034.161-.1.072zm3.79-.012c0-.02.033-.06.072-.088.118-.081.736-.424.765-.424.015 0 .027.022.027.05 0 .037-.1.107-.396.275a3.84 3.84 0 0 1-.432.224c-.02 0-.035-.017-.035-.037zm-3.173-.056a.507.507 0 0 1-.143-.16c-.12-.206-.092-.465.095-.878.051-.113.107-.184.106-.133 0 .011-.042.139-.092.283-.101.292-.12.51-.05.609.032.046.066.058.16.058.178 0 .282-.064.49-.306.298-.345.507-.482 1.024-.675.373-.14.353-.123.354-.296a.91.91 0 0 1 .035-.242.912.912 0 0 1 .322-.415c.077-.046.12-.092.13-.14.02-.089.03-.089.192-.007.15.075.175.106.116.139-.037.02-.032.03.032.075.042.029.144.08.227.112.166.066.214.128.244.313a.448.448 0 0 1-.178.422c-.127.092-.229.127-.484.166l-.196.03.056.072c.046.058.078.072.168.072.2 0 .37-.07.508-.207.07-.07.152-.14.184-.157.054-.03.057-.026.057.076 0 .16.086.235.271.235.17 0 .251-.056.383-.262.046-.072.095-.13.108-.13.013 0 .023.05.023.113 0 .142.063.208.185.196.084-.008.086-.01.09-.147.006-.167.05-.227.109-.15.048.064.03.314-.03.432-.09.175-.305.216-.43.082l-.07-.076-.107.112a.408.408 0 0 1-.412.13c-.107-.02-.199-.117-.199-.21 0-.11-.053-.097-.205.048-.188.18-.283.229-.441.229-.221 0-.343-.116-.41-.391-.023-.092-.044-.122-.087-.128-.075-.01-.815.283-1.03.408a2.54 2.54 0 0 0-.43.364c-.368.372-.492.434-.675.334zm2.964-1.42c.12-.041.144-.06.144-.112 0-.067-.032-.088-.334-.218-.14-.06-.15-.061-.15-.017 0 .026-.04.126-.087.221-.048.095-.08.18-.072.19.027.028.352-.013.5-.064zm-.643-.082c.132-.091.185-.199.16-.328-.014-.078-.028-.093-.085-.093-.126 0-.348.222-.348.347 0 .05.088.15.133.15a.534.534 0 0 0 .14-.076zm-3.718.799c-.161-.07-.263-.297-.232-.52.023-.174.16-.555.215-.6.048-.039.052-.065-.056.303-.121.411-.08.619.121.618.136 0 .243-.082.674-.519.43-.433.622-.574.867-.633.154-.037.228-.022.335.068.07.058.081.086.08.19 0 .187-.031.217-.13.122-.074-.07-.097-.078-.23-.072-.263.012-.387.094-.856.572-.494.503-.586.558-.788.47zm2.388-1.076a77.023 77.023 0 0 0-.15-2.481c-.03-.245-.019-.344.048-.418.039-.043.05-.025.155.244.11.282.136.391.093.391-.012 0-.035-.014-.052-.03-.017-.018-.038-.025-.046-.017s-.003.167.012.352c.103 1.268.115 1.514.086 1.807-.018.19-.046.328-.08.392l-.05.1zm-2.246-.31a.536.536 0 0 1-.335-.228c-.13-.181-.165-.48-.093-.818.038-.18.13-.404.205-.502.073-.095.065-.03-.023.196-.106.272-.133.459-.093.64.09.401.485.537 1.03.354.473-.158 1.053-.496.976-.569a1.785 1.785 0 0 0-.301-.096c-.333-.088-.407-.124-.458-.223-.055-.106-.05-.222.016-.411.16-.454.662-.91.833-.757.062.057.08.155.05.266-.033.12-.067.132-.14.052-.035-.037-.073-.067-.086-.067-.047 0-.259.152-.34.246-.12.135-.21.277-.23.361-.014.06-.005.079.068.122.046.029.192.078.323.11.321.078.374.108.411.232.049.163.012.278-.142.44-.416.442-1.256.77-1.67.653zm2.812.009c-.084-.034-.159-.171-.177-.325a1.71 1.71 0 0 1 .113-.671c.064-.141.074-.074.018.133a1.387 1.387 0 0 0-.039.295c0 .129.01.162.067.22.059.058.082.065.177.05.158-.025.504-.204.881-.455.34-.227.472-.334.472-.386 0-.045-.193-.172-.496-.328a1.581 1.581 0 0 1-.491-.356c-.216-.216-.217-.218-.217-.351 0-.134 0-.135.072-.117.1.025.38.179.384.21 0 .014-.033.032-.076.04l-.078.013.117.086c.065.048.247.151.405.23.161.08.326.184.373.234.08.086.085.1.085.288 0 .236-.03.307-.199.454a7.694 7.694 0 0 1-1.017.675c-.186.09-.27.103-.374.06zm2.503-.27c-.096-.058-.096-.058-.058-.148a.667.667 0 0 1 .048-.1c.006-.006.056.015.11.047s.102.048.106.036c.036-.102.093-.105.213-.013l.061.047-.049.096-.049.096-.098-.066-.097-.067-.03.067c-.037.08-.037.08-.157.006zm.062-.308c-.094-.061-.098-.071-.054-.166.038-.084.103-.085.197-.003.07.06.072.067.034.135-.051.094-.075.098-.177.033zm-12.52 5.108c.424-.143.718-.411 1.334-1.215.344-.45.34-.374.041-.723a2.953 2.953 0 0 0-.973-.744c-.36-.18-.57-.234-.843-.217a1.458 1.458 0 0 0-1.383 1.372 1.48 1.48 0 0 0 1.079 1.53c.22.063.55.062.744-.003zm19.596.012a1.48 1.48 0 0 0 1.122-1.44c.005-.99-.997-1.722-1.917-1.402-.246.086-.609.296-.881.512-.157.123-.668.655-.668.695 0 .007.172.234.383.504.54.692.875.993 1.25 1.123.169.058.5.062.711.008zm-17.08-2.598c.21-.198.584-.519.83-.713.246-.194.448-.36.448-.367a.878.878 0 0 0-.15-.11c-.233-.148-.955-.76-1.258-1.064-.241-.242-.275-.267-.297-.223-.06.115-.7.714-.915.857-.424.28-.856.473-1.18.527-.112.018-.108.066.005.066.121 0 .416.102.683.236.438.22.716.424 1.086.8.187.19.346.347.353.349.007 0 .185-.16.395-.358zm14.413.197c.398-.442.75-.715 1.266-.985.259-.136.554-.24.681-.24.114 0 .118-.047.006-.065-.536-.085-1.212-.487-1.792-1.065l-.36-.36-.06.082c-.088.121-.916.865-1.17 1.051a5.857 5.857 0 0 0-.31.242l-.091.08.442.325c.243.18.624.493.847.698.223.205.408.373.411.373.003 0 .062-.06.13-.136zM2.583 11.22c.224-.07.43-.172.712-.355.244-.158.407-.305.714-.64l.206-.226-.444-.563c-.595-.755-.851-.966-1.31-1.082C1.638 8.146.795 8.82.74 9.731c-.031.526.267 1.09.713 1.348.351.203.763.254 1.13.141zm19.618.013a1.48 1.48 0 0 0 1.071-1.431c0-.434-.127-.746-.428-1.05a1.37 1.37 0 0 0-1.094-.428c-.335.019-.617.16-.966.483-.124.115-.725.846-.936 1.138-.03.042-.016.07.123.24.388.475 1.022.923 1.485 1.05.183.05.572.05.745-.001zm-7.117-4.201c.556-.245 1.342-.52 1.653-.577.096-.017.174-.042.174-.054 0-.012-.024-.09-.053-.172a6.708 6.708 0 0 1-.116-.386c-.056-.205-.077-.355-.13-.929-.018-.197.033-.654.102-.902a1.51 1.51 0 0 0 .055-.243.496.496 0 0 0-.11.114c-.2.245-.765.61-1.276.823-.29.121-.704.234-.857.234-.056 0-.102.01-.102.023s.046.216.103.452c.167.7.21.945.278 1.574.009.083.02.15.026.15.006 0 .12-.048.253-.107zm-5.858-.16c.027-.364.137-.976.263-1.47.074-.291.102-.442.083-.447a13.104 13.104 0 0 0-.265-.052c-.32-.06-.65-.173-.995-.34a3.265 3.265 0 0 1-.87-.6c-.156-.147-.195-.173-.181-.122.127.46.133.507.134.982 0 .513-.036.748-.196 1.28a3.018 3.018 0 0 0-.078.291c0 .018.07.045.163.063.259.05 1.127.347 1.486.508.18.08.352.147.382.147.051.001.057-.018.074-.24zM6.45 5.994c.23-.714.276-1.4.124-1.843a1.5 1.5 0 0 0-.88-.89c-.19-.07-.614-.095-.83-.05-.524.109-1 .575-1.12 1.098-.052.22-.04.588.023.79.197.623.687.921 1.757 1.07l.537.077c.316.047.286.066.389-.252zm11.871.202c.88-.105 1.341-.278 1.651-.617.492-.538.452-1.42-.09-1.96-.306-.307-.616-.432-1.073-.432-.286 0-.419.03-.64.138-.327.16-.606.486-.737.856-.054.152-.06.22-.061.628-.001.511.022.66.19 1.174l.096.297.105-.015.56-.069zm-8.217-2.503c.357-.893.441-1.363.316-1.769a1.426 1.426 0 0 0-.984-.923 1.981 1.981 0 0 0-.77 0c-.262.07-.473.192-.668.39-.303.307-.432.613-.432 1.023 0 .542.218.945.682 1.256.43.288 1.146.553 1.519.561l.12.003.217-.54zm4.39.503c.638-.134 1.236-.432 1.572-.781.424-.442.515-1.066.239-1.637a1.41 1.41 0 0 0-.296-.386c-.316-.316-.595-.436-1.022-.437-.837-.003-1.509.664-1.444 1.435.03.357.266 1.122.514 1.667.076.168.084.176.17.176.049 0 .17-.016.268-.037z"/></svg>