<svg role="img" viewBox="0 0 24 24" xmlns="http://www.w3.org/2000/svg"><path d="M11.71 23.99a.421.421 0 0 1-.276-.224c-.08-.167-.372-.49-.585-.648a1.408 1.408 0 0 0-.418-.22c-.184-.068-.184-.068-.857-.113a5.014 5.014 0 0 0-1.062.05 9.388 9.388 0 0 1-.25.042c-.05.008-.155.032-.234.054a7.37 7.37 0 0 1-.184.049c-.022.005-.045.016-.05.025-.005.009-.031.016-.057.016-.066 0-.407.139-.794.323-.413.197-.58.25-.772.25-.122 0-.154-.006-.215-.045-.19-.12-.224-.39-.093-.752.024-.07.049-.16.053-.202.008-.075.008-.076-.048-.076-.07 0-.127.037-.233.15-.096.103-.3.259-.412.315a.597.597 0 0 1-.375.048c-.136-.035-.207-.102-.29-.273l-.075-.151.01-.345a6.77 6.77 0 0 1 .021-.426c.01-.068.005-.087-.025-.114-.033-.03-.045-.031-.127-.01-.05.013-.09.03-.09.038s-.02.014-.042.014c-.023 0-.13.03-.238.065a2.51 2.51 0 0 1-.366.09c-.216.029-.526.03-.646.003-.118-.027-.236-.128-.266-.226-.024-.083-.028-.42-.005-.466a.966.966 0 0 0 .046-.165c.034-.155.157-.57.206-.69.032-.08.09-.276.09-.303a.24.24 0 0 1 .037-.087.257.257 0 0 0 .036-.109.2.2 0 0 1 .024-.09.849.849 0 0 0 .057-.138 2.75 2.75 0 0 1 .054-.152c.012-.03.084-.228.16-.44a7.795 7.795 0 0 1 .203-.529c.02-.059.078-.212.13-.34.05-.129.111-.29.135-.358.024-.068.054-.14.068-.161a.55.55 0 0 0 .046-.11c.012-.038.033-.095.046-.125.056-.126.278-.657.278-.663 0-.004.024-.059.054-.123s.054-.12.054-.125c0-.005.027-.069.06-.14l.154-.347c.05-.119.116-.264.143-.323.028-.06.11-.237.181-.395.215-.474.307-.671.574-1.22.277-.57.43-.889.43-.895 0-.004-.026-.015-.058-.024l-.163-.048a.529.529 0 0 1-.155-.074.207.207 0 0 0-.067-.043.726.726 0 0 1-.185-.191c0-.011-.012-.03-.026-.042a.295.295 0 0 1-.081-.181c0-.028-.007-.054-.016-.06-.015-.009-.04-.168-.041-.261 0-.076.025-.216.041-.226.01-.005.016-.036.016-.068 0-.034.015-.075.037-.098.032-.035.033-.042.01-.066a.132.132 0 0 0-.08-.026c-.03 0-.06-.008-.066-.018-.006-.01-.025-.018-.043-.018-.051 0-.132-.047-.198-.116-.034-.035-.071-.064-.083-.064a.424.424 0 0 1-.115-.15.59.59 0 0 0-.052-.086c-.06-.09-.073-.15-.086-.407-.006-.122-.003-.192.01-.205.011-.01.02-.038.02-.06s.008-.045.018-.051c.01-.006.018-.03.018-.052 0-.023.016-.056.036-.074.02-.017.036-.042.036-.053 0-.012.016-.036.036-.054.04-.037.048-.099.011-.099-.013 0-.038-.016-.056-.036-.018-.02-.042-.036-.054-.036-.012 0-.036-.016-.054-.035-.018-.02-.042-.036-.054-.036-.022 0-.116-.13-.116-.159 0-.009-.016-.03-.036-.047a.565.565 0 0 1-.108-.295c0-.038-.011-.078-.025-.09-.047-.038-.051-.117-.011-.188a.328.328 0 0 0 .036-.163.5.5 0 0 1 .12-.297c.013-.016.024-.036.024-.046 0-.01.032-.049.072-.087.072-.07.1-.17.048-.17-.027 0-.156-.128-.156-.155 0-.01-.016-.034-.036-.052a.116.116 0 0 1-.036-.073c0-.023-.008-.046-.018-.052-.01-.006-.018-.027-.018-.045a.275.275 0 0 0-.036-.099c-.037-.067-.048-.178-.017-.197.01-.006.017-.046.017-.09 0-.043.008-.083.018-.09.01-.005.018-.024.018-.04 0-.017.028-.088.063-.158.072-.145.226-.314.332-.362l.07-.033-.048-.061c-.063-.08-.13-.203-.13-.24a.295.295 0 0 0-.037-.094c-.032-.057-.037-.09-.032-.212a.578.578 0 0 1 .038-.205.287.287 0 0 0 .031-.101c0-.05.097-.24.141-.278a.431.431 0 0 0 .064-.076c.018-.027.043-.049.055-.049.013 0 .033-.012.045-.026a.332.332 0 0 1 .154-.082c.037 0 .115-.087.115-.129a.127.127 0 0 0-.031-.072.354.354 0 0 1-.053-.118c-.027-.102-.031-.445-.006-.46.01-.007.018-.039.018-.071 0-.033.012-.07.027-.082a.306.306 0 0 0 .057-.088.818.818 0 0 1 .285-.289.354.354 0 0 0 .096-.062.095.095 0 0 1 .065-.027c.023 0 .047-.008.053-.018.006-.01.047-.018.09-.018.067 0 .08-.006.08-.035 0-.019-.007-.04-.016-.045-.053-.032-.052-.454 0-.486.01-.005.016-.025.016-.044 0-.061.117-.25.154-.25a.025.025 0 0 0 .025-.024c0-.028.128-.156.156-.156.01 0 .03-.012.041-.027a.315.315 0 0 1 .162-.08c.017 0 .045-.017.063-.037.027-.03.055-.036.182-.036h.15V2.91c0-.094.007-.174.017-.18.01-.006.018-.03.018-.053s.013-.052.027-.064a.304.304 0 0 0 .057-.088.59.59 0 0 1 .091-.13.616.616 0 0 0 .083-.107c.018-.037.183-.138.316-.195.025-.01.062-.028.084-.038a1.24 1.24 0 0 1 .286-.022c.144-.001.254-.01.262-.02A.429.429 0 0 0 8 1.882c0-.06.008-.116.019-.122.01-.006.018-.025.018-.043 0-.047.046-.132.098-.18.025-.024.045-.053.045-.066 0-.03.12-.15.15-.15.014 0 .035-.012.047-.027.035-.042.199-.113.287-.124.217-.029.309-.032.328-.013.011.011.05.02.088.02.037 0 .096.016.131.036.086.048.117.046.117-.008 0-.024.008-.049.018-.055.01-.006.017-.025.017-.042 0-.068.1-.227.211-.334.13-.126.241-.19.357-.202.044-.005.083-.016.089-.025.005-.009.036-.015.07-.015.033 0 .065-.008.072-.018.019-.032.165-.02.228.018.032.02.071.036.086.036.043 0 .18.07.248.126.07.058.079.054.145-.081.118-.239.431-.476.63-.476.047 0 .091-.008.097-.018.015-.023.111-.023.126 0 .006.01.041.018.078.018.103 0 .291.068.353.127.03.03.063.053.073.053.01 0 .041.024.07.054.051.053.116.072.116.032 0-.011.013-.035.03-.054a.39.39 0 0 0 .05-.073.248.248 0 0 1 .096-.078c.042-.02.09-.05.107-.063a.732.732 0 0 1 .264-.114c.154-.025.318-.03.337-.01.011.01.038.019.06.019s.045.008.051.018c.006.01.027.018.045.018.072 0 .395.272.395.332 0 .015.008.026.018.026.01 0 .018.016.018.036 0 .047.056.047.098 0 .018-.02.041-.036.051-.036.01 0 .035-.015.056-.033.08-.074.239-.11.48-.11.132 0 .232.008.238.018.006.01.026.018.043.018.041 0 .135.046.164.08.012.015.031.027.043.027.025 0 .118.093.118.118 0 .01.017.025.037.035.02.01.055.05.076.09a.49.49 0 0 0 .07.1c.018.016.032.05.032.076 0 .028.01.048.024.048a.33.33 0 0 0 .155-.082c.013-.015.053-.026.097-.026.042 0 .084-.01.095-.02.02-.02.2-.013.352.012.082.015.299.117.333.158.013.016.034.03.045.03.012 0 .045.023.073.053.029.03.062.054.075.054.013 0 .028.022.035.05a.24.24 0 0 0 .041.084c.052.062.1.2.113.332.004.04.013.044.068.039a.19.19 0 0 0 .093-.033c.042-.037.192-.053.391-.041a.624.624 0 0 1 .323.085.68.68 0 0 1 .283.227c.086.101.13.167.13.197a.28.28 0 0 0 .035.109c.029.05.036.097.036.222V2.5l.227.002.226.002.164.081a.933.933 0 0 1 .247.167c.086.088.212.305.212.364 0 .019.008.039.018.045.01.006.018.101.018.224a.756.756 0 0 1-.018.224c-.01.006-.018.026-.018.044 0 .027.015.032.091.032.05 0 .1.01.112.02.01.011.04.02.065.02.063.001.172.04.213.078.018.016.041.03.05.03.01 0 .042.024.07.054.028.03.062.054.075.054.014 0 .031.018.04.04a.191.191 0 0 0 .044.066c.016.013.03.033.03.044 0 .011.015.03.035.043.02.012.036.03.036.04 0 .011.016.053.036.094.03.062.036.11.036.303 0 .196-.005.239-.036.293a.277.277 0 0 0-.036.101.05.05 0 0 1-.036.047c-.02.005-.036.014-.036.02 0 .018.093.056.135.056.098 0 .379.203.425.307.012.029.032.052.044.052.03 0 .109.173.122.27.025.175.03.344.011.363a.124.124 0 0 0-.02.07.272.272 0 0 1-.032.108.545.545 0 0 0-.045.108c-.007.027-.023.05-.035.05-.012 0-.033.025-.047.056-.031.07-.009.112.063.12a.346.346 0 0 1 .203.1c.024.026.052.046.062.046.025 0 .119.092.119.117 0 .011.024.043.053.072.03.028.054.07.054.092 0 .022.008.045.018.051.01.006.018.03.018.054 0 .023.008.048.018.054.01.006.018.046.018.09 0 .043.008.083.018.09.01.005.018.05.018.098s-.008.092-.018.098c-.01.006-.018.027-.018.046a.275.275 0 0 1-.036.098.278.278 0 0 0-.036.096c0 .018-.016.047-.036.065-.02.018-.036.041-.037.052 0 .028-.14.179-.2.217-.066.041-.063.067.01.099.142.063.37.418.37.577 0 .046.008.09.018.095.01.006.018.043.018.08 0 .04-.008.075-.018.082-.01.006-.017.053-.017.105 0 .072-.01.103-.036.128-.02.018-.036.047-.036.066 0 .06-.074.18-.176.287a.457.457 0 0 1-.123.104c-.013 0-.024.012-.024.027s-.02.035-.043.044c-.07.026-.073.054-.013.103.03.026.056.058.056.072 0 .014.024.05.054.082s.053.075.053.097c0 .021.008.044.018.05.011.007.018.116.018.269 0 .23-.004.265-.039.33-.021.04-.046.074-.054.074s-.014.017-.014.038c0 .073-.215.32-.278.32a.114.114 0 0 0-.072.036.116.116 0 0 1-.073.036c-.023 0-.046.008-.053.018-.006.01-.03.018-.054.018-.032 0-.044.01-.044.036 0 .02.012.036.026.036.015 0 .032.022.04.05a.557.557 0 0 0 .044.107.276.276 0 0 1 .033.111c0 .029.008.057.018.064.01.006.018.074.018.152s-.008.146-.018.152c-.01.006-.018.039-.018.072 0 .033-.008.066-.018.072-.01.006-.018.027-.018.046 0 .043-.028.094-.098.181l-.096.121c-.023.03-.053.055-.067.055a.026.026 0 0 0-.025.027c0 .014-.022.032-.049.038a.95.95 0 0 0-.145.064.522.522 0 0 1-.163.055c-.1.007-.118.034-.074.112a.29.29 0 0 1 .036.088c0 .014.011.046.025.072.027.052.02.364-.01.395a.178.178 0 0 0-.015.082c0 .078-.068.22-.148.308a.883.883 0 0 0-.078.098.17.17 0 0 1-.06.053.475.475 0 0 0-.088.067c-.027.026-.067.048-.088.048-.021 0-.043.008-.05.017-.005.01-.03.018-.053.018-.024 0-.048.008-.054.018a.519.519 0 0 1-.18.018h-.17v.151a.465.465 0 0 1-.017.163c-.01.006-.018.04-.018.077a.58.58 0 0 1-.132.29.336.336 0 0 0-.053.077c-.007.017-.022.031-.035.031a.385.385 0 0 0-.112.09c-.054.054-.104.09-.128.09-.022 0-.045.008-.051.017-.006.01-.03.018-.053.018s-.05.01-.06.023c-.023.028-.485.024-.513-.004a.082.082 0 0 0-.05-.018c-.03 0-.033.018-.033.168 0 .13-.006.173-.028.191a.357.357 0 0 0-.062.098.354.354 0 0 1-.061.098c-.016.013-.028.032-.028.044a.508.508 0 0 1-.148.154.525.525 0 0 0-.092.054.38.38 0 0 1-.1.053.33.33 0 0 0-.086.036c-.058.031-.101.036-.312.036-.26 0-.302-.007-.302-.047 0-.015-.02-.025-.054-.025a.292.292 0 0 1-.117-.035c-.089-.05-.116-.047-.116.015 0 .087-.203.45-.252.45a.417.417 0 0 0-.098.063.442.442 0 0 1-.148.074c-.037.007-.078.028-.09.046-.021.03-.051.033-.274.033-.23 0-.251-.003-.272-.036a.085.085 0 0 0-.07-.036c-.058 0-.125-.033-.199-.1l-.056-.049-.033.041c-.075.093-.06.135.168.49l.09.141c.147.232.6.876.642.912a5.796 5.796 0 0 0 .241.305c.095.113.182.242.237.351.085.17.087.176.087.337 0 .147-.005.173-.053.26-.108.195-.391.367-.745.45-.082.02-.115.041-.2.128-.149.151-.189.308-.137.54.025.112.051.153.203.315.154.164.18.2.252.337a.41.41 0 0 1 .061.25.383.383 0 0 1-.056.237.683.683 0 0 1-.224.274.826.826 0 0 1-.244.154.556.556 0 0 0-.131.062c-.006.01-.026.017-.046.017-.043 0-.631.295-.662.332-.012.015-.031.026-.042.026-.037 0-.543.327-.585.377a1.14 1.14 0 0 1-.099.072c-.087.058-.224.16-.242.18a6.42 6.42 0 0 1-.143.119c-.074.06-.188.161-.253.224l-.22.209a1.203 1.203 0 0 0-.13.139c-.016.024-.04.043-.052.043-.012 0-.033.013-.045.028a.705.705 0 0 1-.125.087.564.564 0 0 1-.38.066zm-6.578-1.31c0-.01.024-.018.054-.018s.054-.008.054-.018c0-.01.012-.018.028-.018.015 0 .024-.006.019-.014-.005-.008.007-.015.026-.017a.22.22 0 0 0 .087-.04.259.259 0 0 1 .063-.036c.006 0 .032-.02.056-.045.025-.025.053-.045.062-.045.009 0 .115-.097.235-.215.12-.118.224-.215.232-.215.008 0 .025-.01.038-.023a.645.645 0 0 1 .162-.097.047.047 0 0 0 .033-.04c.001-.016.005-.02.01-.007.005.012.02.017.035.011.014-.005.022-.015.017-.023-.004-.007.022-.014.058-.016a.702.702 0 0 0 .13-.02c.225-.065.57.03.77.214.186.168.388.247.578.226.131-.015.327-.091.309-.12-.005-.008.015-.016.045-.016s.055-.006.055-.014.025-.029.056-.047a.77.77 0 0 0 .116-.09.418.418 0 0 1 .087-.07c.016-.006.028-.023.028-.038s.013-.028.028-.028c.03 0 .127-.105.12-.13-.003-.01.002-.012.01-.006.018.01.129-.102.129-.13 0-.012.016-.02.035-.02.019 0 .039-.007.044-.016.016-.025.165-.06.204-.048.02.006.054.027.076.046s.048.03.058.023c.01-.006.014-.004.008.006-.016.026.181.226.208.21.012-.006.016-.005.009.003-.017.018.039.061.08.062.017 0 .032.008.032.018 0 .03.075.059.18.068.093.008.107.004.158-.043.056-.05.067-.082.087-.253.006-.053.002-.076-.013-.076-.013 0-.018-.014-.013-.034a.71.71 0 0 0-.04-.262 3.13 3.13 0 0 1-.127-.336.265.265 0 0 0-.035-.086.285.285 0 0 1-.014-.1 1.266 1.266 0 0 0-.022-.174c-.026-.115-.02-.64.01-.891l.044-.368c.05-.412.098-.756.125-.887a4.91 4.91 0 0 0 .063-.35 1.21 1.21 0 0 1 .026-.144c.018-.073.082-.396.11-.554a.304.304 0 0 0 .006-.103c-.005-.008-.002-.015.007-.015.017 0 .042-.102.077-.312a.355.355 0 0 1 .054-.156c.023-.023.026-.034.01-.034-.032 0-.12-.042-.12-.058 0-.007-.01-.014-.022-.014-.056-.001-.3-.304-.3-.372a.136.136 0 0 0-.017-.054.474.474 0 0 1-.027-.064c-.01-.032-.013-.032-.05-.005a.859.859 0 0 1-.839.069c-.122-.054-.358-.255-.358-.305 0-.012-.007-.022-.015-.022-.032 0-.129-.252-.129-.335 0-.098-.027-.148-.075-.136a.214.214 0 0 0-.063.027.766.766 0 0 1-.191.027.655.655 0 0 1-.265-.02 1.144 1.144 0 0 1-.266-.117.527.527 0 0 0-.07-.055 1.348 1.348 0 0 1-.236-.233c-.013-.022-.016-.02-.017.013 0 .022-.008.04-.016.04-.009 0-.026.024-.038.054s-.03.054-.038.054c-.009 0-.016.015-.016.033a.083.083 0 0 1-.026.056c-.015.012-.023.03-.017.038.005.01.002.016-.008.016s-.023.016-.03.036a.166.166 0 0 1-.033.058 1.378 1.378 0 0 0-.101.175 2.065 2.065 0 0 1-.089.161 1.686 1.686 0 0 0-.126.255c0 .01-.012.029-.026.043-.015.014-.021.04-.015.057.006.017.004.025-.004.017-.018-.016-.099.12-.099.168 0 .019-.008.034-.019.034-.023 0-.071.11-.057.133.006.009.002.011-.008.005-.016-.01-.065.085-.066.125 0 .008-.01.025-.023.038a.056.056 0 0 0-.012.053c.006.017.004.025-.004.018-.018-.017-.098.12-.098.168 0 .018-.006.034-.014.034-.016 0-.058.087-.058.12 0 .013-.008.023-.018.023-.01 0-.018.016-.018.036 0 .02-.008.036-.018.036-.01 0-.018.011-.018.025 0 .014-.033.096-.074.184a.8.8 0 0 0-.072.212c0 .035-.004.045-.014.029-.011-.018-.019-.014-.028.018a1.507 1.507 0 0 1-.054.134.7.7 0 0 0-.048.134.137.137 0 0 1-.026.065.477.477 0 0 0-.05.117.57.57 0 0 1-.05.117c-.01.012-.018.05-.018.085s-.006.06-.013.055c-.016-.01-.055.068-.055.109a.317.317 0 0 1-.034.093.913.913 0 0 0-.058.17c-.013.056-.03.103-.037.103-.008 0-.014.01-.014.024a.262.262 0 0 1-.028.078c-.033.068-.098.31-.082.31.006 0 0 .007-.013.016-.013.008-.025.046-.025.085 0 .038-.005.058-.01.044-.014-.039-.107.263-.097.315a.034.034 0 0 1-.014.033c-.01.006-.019.03-.019.055 0 .024-.006.044-.014.044-.016 0-.058.17-.058.238 0 .027-.007.049-.015.049-.018 0-.066.209-.059.255.003.017-.002.032-.01.032-.02 0-.06.14-.063.216 0 .034-.008.066-.016.071a.541.541 0 0 0-.044.144 8.3 8.3 0 0 1-.047.205l-.026.126a13.993 13.993 0 0 0-.159.816c-.037.218-.034.384.008.5.02.054.042.102.05.108a.183.183 0 0 1 .033.046c.03.057.131.097.245.098.057 0 .103-.007.103-.017zm6.837-.04c.054-.03.157-.132.157-.154 0-.01.008-.021.018-.024.01-.003.02-.025.022-.047.002-.022.008-.04.014-.04.017 0 .053-.086.053-.127 0-.02.007-.032.015-.027.008.005.024-.041.037-.102.058-.288.131-.617.144-.65.008-.02.032-.07.053-.113a.395.395 0 0 0 .038-.103c0-.014.012-.026.027-.026s.027-.007.027-.016c0-.034.103-.121.206-.174.108-.056.13-.06.502-.096.211-.02.601-.134.601-.176 0-.013.008-.019.018-.013.01.006.018.003.018-.008 0-.01.006-.017.013-.015.03.008.095-.026.095-.05 0-.014.013-.025.028-.025.038 0 .136-.106.121-.13-.007-.012-.003-.014.01-.007.012.008.035-.018.06-.069.021-.044.045-.081.053-.081s.015-.04.015-.09c0-.05.008-.09.018-.09.01 0 .018-.058.018-.139 0-.076.009-.175.02-.22a.687.687 0 0 0 .018-.133c0-.04.004-.046.016-.027.014.022.017.022.017-.003 0-.016.012-.052.026-.08.015-.027.022-.056.017-.064-.005-.008-.002-.015.008-.015.019 0 .069-.107.061-.131-.003-.008.002-.01.011-.005.01.005.041-.03.073-.078.068-.106.175-.216.21-.216.014 0 .025-.007.025-.016 0-.009.024-.026.054-.038.05-.02.062-.038.055-.077 0-.008.004-.011.013-.006.036.022.129-.107.13-.18 0-.034.004-.043.015-.027.01.016.022-.002.038-.059a.658.658 0 0 0-.018-.33 2.654 2.654 0 0 1-.066-.146.66.66 0 0 0-.077-.144.131.131 0 0 1-.033-.052.133.133 0 0 0-.036-.054.34.34 0 0 1-.05-.064c-.012-.02-.031-.034-.042-.031-.012.003-.017-.003-.011-.012.006-.009 0-.028-.013-.04a.913.913 0 0 1-.066-.087.607.607 0 0 0-.055-.072.237.237 0 0 1-.033-.05c-.012-.022-.03-.035-.042-.028-.011.007-.014.004-.008-.007.007-.011.001-.03-.011-.044a.913.913 0 0 1-.067-.086.714.714 0 0 0-.054-.072.71.71 0 0 1-.054-.072.931.931 0 0 0-.066-.086c-.013-.013-.023-.03-.023-.039a.234.234 0 0 0-.05-.068.698.698 0 0 1-.08-.11c-.028-.052-.103-.08-.103-.037 0 .01-.015.017-.033.017a.082.082 0 0 0-.049.018c-.029.028-.27.049-.398.033a.792.792 0 0 1-.202-.052l-.125-.06a1.08 1.08 0 0 1-.17-.14 1.014 1.014 0 0 0-.138-.121c-.007 0-.027.024-.045.053-.017.03-.038.054-.046.054s-.014.01-.014.02a.575.575 0 0 1-.167.159c-.008 0-.03.016-.049.034a.6.6 0 0 1-.158.073c-.106.036-.15.04-.327.034-.179-.006-.219-.014-.321-.06a.868.868 0 0 1-.137-.072 1.09 1.09 0 0 1-.295-.357c-.022-.045-.048-.082-.057-.082a.34.34 0 0 0-.087.072c-.04.04-.083.072-.097.072-.015 0-.026.007-.026.016 0 .009-.029.028-.063.044l-.13.06c-.051.024-.114.032-.258.032-.184 0-.19.001-.188.039 0 .021.008.035.015.03.02-.013.017.02-.005.041-.01.011-.02.137-.021.309-.002.165-.01.29-.02.29s-.013.182-.005.47c.015.597.057 1.233.08 1.233.007 0 .013.05.016.112.006.153.043.408.06.408.008 0 .01.017.007.037-.014.072.16.904.208.99a.322.322 0 0 1 .017.111c0 .045.007.081.015.081s.024.043.036.096c.041.183.059.234.074.21.008-.014.014.007.015.05 0 .04.01.089.02.109.01.02.02.052.02.072 0 .02.006.037.015.037s.02.032.027.07a.214.214 0 0 0 .038.098.105.105 0 0 1 .027.064c0 .02.017.076.038.123l.073.164c.02.044.067.127.106.185.038.058.07.114.07.123 0 .027.235.25.263.25.013 0 .023.005.023.013 0 .047.172.073.238.036zm.514-6.024c.112-.035.134-.044.217-.084.077-.037.25-.185.25-.214a.22.22 0 0 1 .043-.063l.043-.05.115.113c.21.205.47.293.735.249.116-.019.301-.096.317-.132.003-.007.016-.013.029-.013.03 0 .123-.09.164-.16.018-.03.04-.056.047-.056.008 0 .014-.012.014-.027 0-.045.055-.116.09-.116.017 0 .057.024.09.054.03.03.068.054.082.054.014 0 .025.006.025.013 0 .021.122.06.258.08a.822.822 0 0 0 .387-.04l.117-.056a.956.956 0 0 0 .37-.392.25.25 0 0 0 .023-.08c.018-.098.042-.126.08-.094.044.037.208.099.326.123.124.026.33 0 .463-.058a.436.436 0 0 1 .103-.034c.014 0 .025-.008.025-.018 0-.01.01-.018.023-.018a.238.238 0 0 0 .085-.053.314.314 0 0 1 .076-.054.318.318 0 0 0 .102-.113.14.14 0 0 1 .03-.048.759.759 0 0 0 .123-.367.786.786 0 0 1 .014-.13.384.384 0 0 1 .11.02c.141.038.36.035.49-.005.122-.038.381-.207.381-.248 0-.01.016-.034.035-.055.032-.034.066-.1.124-.244a.988.988 0 0 0 .02-.233v-.184h.185c.174 0 .19-.004.324-.068a.832.832 0 0 0 .401-.405c.064-.132.066-.14.066-.342 0-.195-.003-.212-.06-.331a1.216 1.216 0 0 1-.057-.134c0-.004.052-.018.114-.03.119-.025.283-.092.283-.117 0-.008.01-.015.023-.015.03 0 .131-.094.203-.188a.948.948 0 0 0 .168-.494c0-.137-.079-.383-.147-.456-.062-.067-.033-.117.068-.117a.387.387 0 0 0 .133-.054.781.781 0 0 1 .1-.054.814.814 0 0 0 .103-.094.799.799 0 0 0 .151-.937 1.06 1.06 0 0 0-.065-.117 2.105 2.105 0 0 1-.072-.075l-.06-.066.051-.023a.306.306 0 0 0 .08-.05.362.362 0 0 1 .075-.053c.028-.014.05-.031.05-.038 0-.007.018-.033.04-.057a.49.49 0 0 0 .118-.176c.014-.034.04-.1.057-.148a.9.9 0 0 0 .026-.493.864.864 0 0 0-.043-.148.396.396 0 0 1-.04-.063.932.932 0 0 0-.217-.25.472.472 0 0 1-.084-.067c-.034-.037-.034-.037.032-.08a.694.694 0 0 0 .197-.207c.016-.028.035-.05.043-.05.008 0 .014-.011.014-.024 0-.014.013-.05.028-.08.075-.15.07-.464-.01-.64a1.345 1.345 0 0 0-.187-.27 1.024 1.024 0 0 0-.293-.17c-.108-.039-.14-.075-.086-.095.026-.01.048-.046.127-.208a.84.84 0 0 0 .072-.396c-.024-.148-.054-.269-.067-.269-.008 0-.014-.012-.014-.028a.452.452 0 0 0-.104-.166.343.343 0 0 1-.04-.058c-.01-.02-.027-.035-.037-.035-.01 0-.036-.017-.058-.037a.525.525 0 0 0-.12-.074 2.435 2.435 0 0 1-.112-.052.193.193 0 0 0-.075-.016c-.024 0-.048-.006-.053-.015-.005-.008.014-.06.041-.117.188-.389.05-.83-.336-1.065a.399.399 0 0 0-.135-.059.103.103 0 0 1-.061-.02.41.41 0 0 0-.152-.032c-.103-.008-.129-.016-.124-.037a.911.911 0 0 0-.053-.644c-.056-.11-.194-.27-.23-.27a.018.018 0 0 1-.02-.019c0-.01-.01-.018-.025-.018-.014 0-.028-.006-.031-.013a.714.714 0 0 0-.221-.104c-.086-.02-.35-.03-.35-.013 0 .009-.022.015-.05.015-.048-.001-.048-.001-.043-.118.008-.159-.019-.272-.11-.463-.036-.077-.234-.267-.303-.291-.037-.013-.068-.03-.068-.036 0-.007-.022-.017-.049-.022a1.026 1.026 0 0 0-.726.04c-.06.03-.068.03-.068.004a.697.697 0 0 0-.092-.35.63.63 0 0 0-.088-.134c-.009-.003-.017-.017-.017-.031 0-.014-.01-.026-.022-.026-.013 0-.048-.024-.08-.053a.22.22 0 0 0-.076-.054.018.018 0 0 1-.02-.018.018.018 0 0 0-.017-.018.452.452 0 0 1-.094-.034.796.796 0 0 0-.675.017.74.74 0 0 1-.11.053c-.008 0-.031-.038-.053-.085a.852.852 0 0 0-.262-.34c-.023-.023-.049-.041-.057-.041s-.031-.015-.05-.032a.78.78 0 0 0-.923.09c-.026.027-.055.05-.064.049a.6.6 0 0 1-.106-.126.515.515 0 0 0-.109-.125c-.01 0-.034-.014-.053-.032a.654.654 0 0 0-.232-.12c-.217-.046-.282-.049-.4-.02a1.27 1.27 0 0 1-.143.029c-.044 0-.272.164-.35.252l-.078.088-.08-.076a.736.736 0 0 0-.285-.19.882.882 0 0 0-.504-.028.444.444 0 0 0-.142.048c0 .008-.009.014-.02.014-.057 0-.257.171-.316.27-.017.03-.037.052-.044.052-.008 0-.014.011-.014.025a.33.33 0 0 1-.073.146c-.01.006-.017.002-.017-.009 0-.01-.011-.019-.025-.019-.013 0-.034-.011-.047-.026a.902.902 0 0 0-.278-.135c-.111-.032-.529-.002-.529.038 0 .009-.016.016-.036.016-.02 0-.036.008-.036.018 0 .01-.01.018-.023.018s-.04.015-.06.033a.245.245 0 0 1-.054.04 1.21 1.21 0 0 0-.2.234.58.58 0 0 0-.057.15c-.035.163-.026.154-.122.114a3.144 3.144 0 0 1-.127-.057.857.857 0 0 0-.243-.02c-.177 0-.21.006-.297.048-.205.099-.226.118-.427.381-.024.031-.07.175-.095.291l-.024.112-.146-.011a.807.807 0 0 0-.279.02.765.765 0 0 0-.141.044.688.688 0 0 1-.094.055c-.047.024-.085.05-.085.058s-.014.014-.03.014c-.036 0-.257.227-.257.263 0 .013-.006.024-.014.024A.428.428 0 0 0 7.188 3a.58.58 0 0 0-.019.246c.008.062.015.12.015.13 0 .01-.075.023-.17.03-.177.012-.289.03-.304.049a.656.656 0 0 1-.09.054c-.083.045-.269.215-.269.246 0 .01-.014.033-.032.052a.63.63 0 0 0-.073.16.622.622 0 0 0-.033.287c.005.09.014.188.021.22l.013.057-.092.012c-.05.007-.096.02-.101.028-.005.009-.03.015-.054.015s-.044.007-.044.015-.022.027-.049.04a.415.415 0 0 0-.069.044 1.54 1.54 0 0 1-.076.06c-.031.025-.057.054-.057.067 0 .013-.015.034-.034.047a.352.352 0 0 0-.074.113 2.812 2.812 0 0 1-.059.125.86.86 0 0 0-.027.209.79.79 0 0 0 .088.442c.046.079.044.085-.024.112-.129.05-.157.063-.157.076 0 .007-.01.013-.024.013-.032 0-.245.21-.284.28-.072.13-.095.229-.095.42 0 .189.031.322.093.395a.1.1 0 0 1 .023.05c0 .013.026.046.056.074l.056.05-.051.034a.624.624 0 0 0-.075.055.509.509 0 0 1-.071.05c-.06.036-.17.185-.232.315-.04.084-.047.122-.048.285 0 .18.031.36.065.36.008 0 .014.013.014.03 0 .036.15.243.183.254.032.011.068.05.068.074 0 .01-.04.058-.087.104-.173.167-.236.329-.236.602 0 .176.03.37.058.37.008 0 .014.014.014.031 0 .041.135.219.215.284l.072.061a.852.852 0 0 0 .094.053.38.38 0 0 1 .085.05.316.316 0 0 1-.054.059.244.244 0 0 0-.054.061.234.234 0 0 1-.03.059.847.847 0 0 0-.107.365.582.582 0 0 0 .035.281c.025.08.065.173.088.205.069.097.18.212.205.212.014 0 .024.007.024.016 0 .01.03.03.068.047l.118.055c.028.014.079.03.112.036.034.006.061.02.061.029a.26.26 0 0 1-.052.104.743.743 0 0 0-.045.14.74.74 0 0 0-.022.278c.006.08.02.15.03.153.01.003.018.026.018.05 0 .044.026.102.067.146.012.014.022.032.022.04 0 .01.047.064.103.12a.744.744 0 0 0 .467.23.72.72 0 0 1 .13.018c0 .003-.013.057-.03.12-.071.28.016.58.231.787.06.058.121.106.134.106.013 0 .023.008.023.018 0 .01.019.018.041.018.023 0 .05.007.059.014.048.043.19.066.385.064l.207-.002v.2c0 .264.013.311.135.495a.836.836 0 0 0 .267.25.239.239 0 0 1 .054.036c.019.025.27.072.38.072a.692.692 0 0 0 .185-.027.444.444 0 0 1 .112-.026c.036 0 .04.009.04.08 0 .09.083.33.12.345a.041.041 0 0 1 .024.036c0 .032.23.256.264.256.012 0 .023.008.023.018 0 .01.012.018.027.018s.041.007.058.015c.13.066.384.076.542.022.118-.04.22-.09.237-.116.007-.01.022.005.033.035.122.3.213.41.427.517a.6.6 0 0 0 .266.075c.14.011.396-.014.416-.04a.537.537 0 0 1 .099-.06.806.806 0 0 0 .164-.121c.079-.078.098-.09.098-.06 0 .033.123.226.191.3.078.084.23.186.278.186.018 0 .033.007.033.014 0 .045.352.073.465.037zm-.262-.65a.394.394 0 0 1-.106-.033c-.007-.007-.032-.014-.055-.014s-.042-.008-.042-.017c0-.01-.013-.018-.03-.018-.015 0-.052-.025-.08-.054-.028-.03-.064-.054-.078-.054a.027.027 0 0 1-.027-.027.042.042 0 0 0-.025-.037c-.013-.005-.039-.042-.056-.08-.018-.04-.039-.071-.047-.071s-.015-.016-.015-.036c0-.05-.057-.046-.09.004-.014.022-.024.045-.022.052.002.006-.02.016-.048.021a.189.189 0 0 0-.076.034.55.55 0 0 1-.17.085c-.09.034-.527.003-.527-.037 0-.01-.016-.016-.036-.016-.02 0-.036-.008-.036-.018 0-.01-.012-.018-.028-.018-.073 0-.33-.34-.33-.437 0-.032-.045-.04-.063-.011-.006.01-.023.018-.038.018-.014 0-.043.015-.062.033-.052.049-.275.084-.367.058a.566.566 0 0 0-.12-.02c-.079 0-.257-.102-.363-.208a.437.437 0 0 1-.1-.124c0-.014-.007-.026-.017-.026-.01 0-.018-.016-.018-.036 0-.02-.006-.036-.014-.036-.017 0-.058-.13-.058-.186 0-.071-.019-.1-.064-.1-.024 0-.043.007-.043.017 0 .011-.078.018-.197.018a.66.66 0 0 1-.207-.018c-.006-.01-.03-.018-.055-.018-.024 0-.043-.008-.043-.018 0-.01-.017-.018-.036-.018-.02 0-.036-.008-.036-.016 0-.01-.017-.022-.037-.029a.38.38 0 0 1-.1-.073.29.29 0 0 0-.079-.06c-.008 0-.02-.017-.026-.037-.006-.02-.02-.036-.028-.036-.01 0-.017-.016-.017-.036 0-.02-.008-.035-.018-.035-.01 0-.018-.017-.018-.036 0-.02-.008-.036-.018-.036-.01 0-.018-.016-.018-.036 0-.02-.008-.036-.018-.036-.01 0-.017-.083-.017-.213v-.213h-.186c-.151-.001-.2-.008-.264-.039a.441.441 0 0 0-.096-.037c-.011 0-.03-.016-.042-.036-.012-.02-.034-.036-.049-.036a.135.135 0 0 1-.065-.031c-.09-.074-.16-.145-.16-.162 0-.01-.01-.023-.025-.028-.023-.01-.042-.044-.097-.179a.352.352 0 0 1-.02-.11c0-.034-.01-.066-.023-.071-.018-.008-.018-.013 0-.021.015-.007.022-.057.022-.153v-.142h-.072c-.079 0-.215-.036-.215-.058 0-.007-.016-.013-.035-.013-.02 0-.036-.008-.036-.018 0-.01-.01-.018-.023-.018s-.036-.014-.053-.032a1.084 1.084 0 0 0-.084-.076c-.03-.025-.055-.055-.055-.068 0-.013-.017-.04-.036-.062-.02-.02-.036-.049-.036-.062 0-.012-.006-.023-.014-.023-.031 0-.058-.156-.057-.336 0-.164.007-.206.043-.282.05-.104.043-.135-.028-.135-.029 0-.052-.008-.052-.018 0-.01-.011-.018-.025-.018-.073 0-.37-.232-.37-.29 0-.01-.012-.03-.027-.045a.182.182 0 0 1-.038-.08c-.006-.028-.018-.051-.026-.051-.01 0-.016-.045-.016-.1a.39.39 0 0 0-.02-.138c-.016-.029-.016-.04 0-.045.01-.004.02-.04.02-.082 0-.08.06-.268.09-.278.01-.003.018-.016.018-.028 0-.013.016-.038.035-.055.046-.042.046-.082 0-.094-.02-.005-.035-.016-.035-.025 0-.01-.012-.016-.026-.016-.041 0-.2-.17-.236-.25-.018-.04-.039-.073-.047-.073s-.014-.016-.014-.036c0-.02-.007-.035-.015-.035-.022 0-.057-.211-.057-.343 0-.12.035-.303.058-.303.008 0 .014-.016.014-.036 0-.02.007-.036.015-.036s.026-.022.04-.05a.618.618 0 0 1 .096-.119c.043-.042.063-.073.05-.077-.012-.004-.022-.023-.022-.042 0-.023-.012-.035-.036-.035-.02 0-.036-.01-.036-.022a.252.252 0 0 0-.054-.084.238.238 0 0 1-.053-.086c0-.012-.006-.023-.014-.023s-.025-.035-.037-.078c-.036-.119-.006-.618.035-.593.009.005.016-.003.016-.018 0-.016.008-.028.018-.028.01 0 .017-.012.017-.025 0-.034.227-.262.26-.262.043 0 .046-.03.008-.074a.974.974 0 0 1-.14-.305c-.028-.1-.003-.455.033-.482a.657.657 0 0 0 .062-.096c.06-.105.211-.262.251-.262.016 0 .029-.008.029-.018 0-.01.009-.018.02-.018.043 0 .16-.062.16-.084 0-.013-.009-.024-.019-.024s-.018-.01-.018-.023a.384.384 0 0 0-.036-.098.36.36 0 0 1-.035-.119c0-.024-.01-.048-.023-.054-.018-.008-.018-.013 0-.021.014-.007.023-.05.023-.121 0-.102.029-.227.06-.257.006-.007.011-.027.011-.045s.008-.033.018-.033c.01 0 .018-.008.018-.019 0-.037.209-.25.247-.25a.204.204 0 0 0 .058-.036.182.182 0 0 1 .093-.035c.027 0 .07-.01.094-.021.044-.02.045-.022.042-.248-.003-.22.019-.341.06-.341.01 0 .016-.013.016-.028 0-.072.192-.277.308-.328.147-.064.178-.075.222-.075.024 0 .044-.008.044-.018 0-.01.06-.018.143-.018h.144v-.197c0-.108.006-.197.013-.197.007 0 .033-.04.057-.09.025-.05.05-.09.059-.09.008 0 .014-.01.014-.024 0-.033.156-.19.189-.19.014 0 .026-.009.026-.019s.016-.017.036-.017c.02 0 .036-.008.036-.018 0-.01.016-.018.035-.018.018 0 .037-.01.041-.023.005-.016.07-.022.235-.022.243 0 .236.003.228-.094-.002-.022.005-.04.016-.04.01 0 .019-.017.019-.037 0-.05.042-.179.058-.179.007 0 .014-.012.014-.027 0-.016.018-.047.04-.071.022-.024.05-.054.06-.067a.77.77 0 0 1 .895-.186c.063.041.07.037.097-.054a1.34 1.34 0 0 1 .06-.157c.043-.09.255-.298.304-.298.02 0 .04-.015.044-.032.005-.02.027-.034.056-.036a.381.381 0 0 0 .096-.023c.05-.02.315-.014.428.01a.194.194 0 0 1 .092.047c.016.019.039.034.05.034.013 0 .043.016.068.036.068.053.088.044.124-.05a.445.445 0 0 1 .069-.122l.084-.09a.412.412 0 0 1 .149-.118c.025-.011.045-.026.045-.034 0-.023.113-.039.335-.047.194-.007.228-.004.295.03a.43.43 0 0 0 .096.036c.01 0 .029.016.041.036.013.02.034.036.048.036.014 0 .04.018.058.041.06.075.073.073.171-.022a.48.48 0 0 1 .113-.09c.01 0 .03-.017.045-.037a.098.098 0 0 1 .075-.036c.028 0 .05-.006.05-.013 0-.027.145-.058.268-.058.127 0 .306.032.306.054 0 .007.023.017.052.023a.186.186 0 0 1 .079.038c.015.015.036.028.047.028.01 0 .029.016.041.036.013.02.033.036.045.036.013 0 .023.01.024.022a.3.3 0 0 0 .06.093l.061.071.054-.057c.03-.032.067-.057.082-.057.016 0 .029-.006.029-.014 0-.051.37-.113.48-.08a.51.51 0 0 0 .106.022c.042 0 .13.04.131.058 0 .007.016.014.036.014.02 0 .036.008.036.017 0 .01.01.018.023.018.012 0 .032.016.045.036.012.02.03.036.041.036.026 0 .07.046.07.073 0 .012.014.035.032.05.038.036.076.102.076.132 0 .013.007.034.017.048.016.027.024.024.205-.063.057-.027.46-.036.46-.01 0 .007.036.024.08.037.045.013.08.031.08.04 0 .009.021.016.046.016.033 0 .044.01.044.036 0 .022.012.036.032.036.017 0 .051.03.076.067a.67.67 0 0 0 .072.094.477.477 0 0 1 .107.297c0 .093.013.097.127.04.07-.035.107-.04.3-.04.145 0 .226.008.24.022a.096.096 0 0 0 .06.022c.02 0 .055.016.076.036.021.02.047.036.058.036.03 0 .178.113.179.136 0 .011.025.045.054.076.03.031.05.057.043.057-.006 0 .002.02.018.044a.18.18 0 0 1 .03.08c0 .018.007.037.016.04.01.003.019.076.02.162l.003.156.2.007c.229.009.35.032.373.073.009.016.028.03.042.03.014 0 .026.005.026.013s.032.034.072.058c.04.024.071.058.071.074 0 .016.011.034.025.039.027.01.119.177.119.217 0 .014.01.029.021.033.016.005.021.072.02.234l-.003.227.066.018c.037.01.088.018.113.019.067 0 .335.139.349.18a.052.052 0 0 0 .045.035c.022 0 .035.012.035.032 0 .017.016.043.036.057.02.015.036.037.036.05 0 .013.015.04.034.06.018.02.04.062.047.094.022.099.03.393.011.432a.45.45 0 0 0-.028.085.18.18 0 0 1-.037.075c-.049.048-.034.083.035.083.035 0 .063.007.063.015s.035.026.076.04a.364.364 0 0 1 .126.074c.027.028.062.05.076.05.015 0 .027.013.027.028 0 .015.016.045.036.066.02.021.036.05.036.062 0 .013.006.024.013.024.016 0 .049.074.068.152.024.095.03.407.01.427a.083.083 0 0 0-.019.051c0 .04-.074.195-.093.195-.008 0-.015.016-.015.035 0 .02-.008.036-.017.036-.038 0-.016.028.04.051.172.07.207.09.286.166.047.046.086.095.086.11 0 .016.012.033.026.038.024.009.052.061.099.185.014.036.02.129.016.251-.005.172-.013.207-.059.3a.974.974 0 0 1-.09.152.98.98 0 0 1-.147.138c-.043.037-.043.038-.01.076.02.022.043.04.054.04.024 0 .11.085.11.108 0 .009.025.04.055.068.03.029.053.065.053.081s.008.03.018.03c.01 0 .018.024.018.053 0 .03.008.054.018.054.011 0 .018.09.018.233 0 .144-.007.233-.018.233-.01 0-.018.016-.018.035 0 .069-.115.245-.236.364a.824.824 0 0 1-.141.121c-.032 0-.017.036.036.087.03.029.054.063.054.077 0 .014.016.037.036.052.02.014.036.04.036.057 0 .018.008.032.018.032.03 0 .022.428-.01.511l-.038.104c-.006.017-.017.031-.026.031-.009 0-.016.01-.016.022 0 .013-.02.046-.045.075a.218.218 0 0 0-.045.067c0 .008-.012.015-.026.015-.015 0-.027.01-.027.023 0 .037-.21.153-.282.155-.055.002-.067.032-.034.082a.172.172 0 0 1 .029.071c0 .015.007.028.016.028.04 0 .088.259.07.376a1.365 1.365 0 0 0-.013.157c0 .042-.01.077-.018.077-.009 0-.028.03-.043.067-.03.076-.211.27-.286.308-.027.014-.05.032-.05.04s-.015.015-.035.015c-.02 0-.036.007-.036.016 0 .012-.062.026-.2.045-.029.004-.032.025-.006.046a.094.094 0 0 1 .027.065c0 .022.007.046.016.051a.419.419 0 0 1 .04.135.43.43 0 0 1-.009.237c-.017.063-.035.14-.04.172-.005.032-.017.058-.026.058-.01 0-.016.011-.016.025 0 .014-.024.05-.054.083a.249.249 0 0 0-.054.073c0 .009-.022.03-.05.047a.464.464 0 0 0-.077.063c-.016.017-.037.032-.046.032a.478.478 0 0 0-.096.038.66.66 0 0 1-.262.047l-.183.01.016.043c.022.058.021.233 0 .247-.01.006-.019.031-.019.056a.357.357 0 0 1-.036.119.466.466 0 0 0-.036.088c0 .029-.225.24-.298.28a.336.336 0 0 1-.126.04c-.029 0-.061.009-.072.019-.022.022-.391.015-.44-.008-.029-.014-.032-.003-.032.093 0 .06-.008.114-.018.12-.01.006-.018.026-.018.045 0 .073-.235.376-.292.377a.171.171 0 0 0-.066.035.166.166 0 0 1-.077.036c-.017 0-.03.008-.03.018 0 .01-.02.018-.042.018a.11.11 0 0 0-.058.015.556.556 0 0 1-.24.057c-.095 0-.306-.04-.306-.058 0-.008-.013-.014-.028-.014-.015 0-.045-.016-.066-.036-.035-.033-.04-.033-.061-.004a.132.132 0 0 0-.024.066c0 .04-.108.225-.13.225-.008 0-.014.012-.014.027s-.016.037-.036.05c-.02.012-.036.032-.036.044 0 .013-.014.023-.032.023-.017 0-.043.016-.057.036-.015.02-.037.036-.05.036a.265.265 0 0 0-.081.03.567.567 0 0 1-.138.044l-.141.026a.316.316 0 0 1-.126-.007 5.185 5.185 0 0 0-.15-.04c-.047-.012-.086-.03-.086-.038 0-.009-.013-.015-.029-.015s-.042-.015-.058-.033c-.028-.032-.096-.075-.118-.075-.006 0-.01.016-.01.036 0 .02-.016.046-.036.058-.02.012-.036.034-.036.049 0 .039-.18.202-.27.246a.696.696 0 0 1-.373.077c-.129 0-.182-.008-.24-.036a.402.402 0 0 0-.094-.036c-.012 0-.036-.016-.054-.035-.018-.02-.04-.036-.05-.036a.448.448 0 0 1-.105-.093c-.048-.05-.087-.084-.087-.074 0 .033-.206.23-.287.273a.642.642 0 0 0-.09.054 1.369 1.369 0 0 1-.31.052 1.19 1.19 0 0 1-.132-.022zm.422-.646a.69.69 0 0 0 .3-.211.397.397 0 0 1 .084-.086c.008 0 .045.031.081.069.221.23.556.284.85.137a.988.988 0 0 0 .283-.295c.02-.049.072-.078.072-.04 0 .019.13.093.234.133a.712.712 0 0 0 .871-.43c.046-.112.046-.112.168-.053.068.033.113.04.279.04.182 0 .205-.005.304-.054a.804.804 0 0 0 .33-.32.925.925 0 0 0 .062-.221c.018-.124.022-.133.058-.124.136.034.28.04.405.02.147-.026.266-.07.266-.099 0-.01.014-.02.032-.02.072 0 .242-.211.285-.354a.96.96 0 0 0 .024-.219v-.138l.086.008c.09.01.313-.038.323-.068.003-.009.017-.017.03-.017.068 0 .293-.23.266-.274-.006-.01-.003-.013.007-.007.03.019.098-.167.108-.297a.693.693 0 0 0-.062-.35c-.015-.033-.024-.061-.02-.064l.132-.046a.7.7 0 0 0 .494-.573c.027-.138.004-.263-.076-.423-.056-.112-.054-.124.034-.147.022-.006.035-.02.029-.03-.007-.01-.003-.013.01-.006.027.017.2-.092.2-.126 0-.013.01-.025.023-.025.037 0 .147-.175.18-.287a.764.764 0 0 0 .024-.25.553.553 0 0 0-.064-.274c-.032-.067-.066-.121-.076-.121-.01 0-.013-.008-.008-.017.006-.009.002-.021-.008-.028a.137.137 0 0 1-.036-.044c-.014-.027-.005-.04.058-.082.076-.05.193-.157.193-.176 0-.005.02-.04.044-.075a.655.655 0 0 0 .095-.394.743.743 0 0 0-.122-.37.833.833 0 0 0-.176-.176l-.06-.042.083-.071c.046-.04.08-.075.076-.079-.004-.004.015-.03.041-.06.067-.071.126-.26.126-.404a.8.8 0 0 0-.112-.393c-.052-.074-.146-.168-.175-.175a.151.151 0 0 1-.054-.034.35.35 0 0 0-.112-.053c-.058-.017-.081-.033-.08-.055.001-.017.01-.027.017-.022.008.005.014 0 .014-.012 0-.011.012-.032.027-.047s.022-.036.015-.047c-.007-.01-.004-.014.007-.008.037.023.094-.185.095-.345a.708.708 0 0 0-.507-.656c-.056-.014-.059-.027-.023-.097.043-.083.054-.145.054-.315 0-.205-.049-.32-.2-.473a.665.665 0 0 0-.409-.208c-.12-.02-.125-.022-.116-.064a1.71 1.71 0 0 0 .009-.206c0-.147-.005-.173-.06-.283a.705.705 0 0 0-.676-.402l-.13.01-.01-.144a.574.574 0 0 0-.065-.254c-.056-.112-.147-.227-.18-.227-.01 0-.018-.007-.018-.016 0-.02-.2-.117-.296-.143a.942.942 0 0 0-.413.009c-.142.055-.152.054-.152-.014 0-.074-.103-.29-.173-.365a.68.68 0 0 0-.536-.224.439.439 0 0 0-.152.013c0 .007-.022.015-.05.017a.32.32 0 0 0-.103.032c-.067.035-.098.035-.098 0 0-.014-.008-.026-.018-.026-.01 0-.018-.013-.018-.028 0-.07-.198-.29-.238-.265-.01.006-.013.003-.006-.008.012-.02-.087-.072-.21-.112a.805.805 0 0 0-.474.042c-.058.03-.09.057-.082.069.007.011.004.015-.006.009s-.037.004-.06.024l-.04.035-.056-.063a1.552 1.552 0 0 1-.085-.103.335.335 0 0 0-.099-.075.445.445 0 0 1-.078-.048c-.035-.045-.43-.115-.43-.076 0 .009-.028.018-.062.02-.085.006-.258.112-.349.213l-.075.084-.076-.073a.346.346 0 0 0-.11-.079.146.146 0 0 1-.065-.035c-.039-.038-.185-.07-.318-.07a.789.789 0 0 0-.294.066c-.018.006-.027.018-.022.027.006.009.003.015-.005.014-.072-.013-.218.122-.294.273-.055.11-.081.118-.143.049a.474.474 0 0 0-.135-.073.823.823 0 0 0-.53.006.73.73 0 0 0-.417.487c-.01.04-.019.048-.043.038a.687.687 0 0 0-.374-.075.677.677 0 0 0-.464.218c-.092.094-.187.284-.188.374 0 .105-.013.116-.112.1-.155-.024-.481.046-.45.097.007.011.003.014-.009.006-.011-.007-.04.008-.066.033a.227.227 0 0 1-.056.046c-.02 0-.077.082-.077.112 0 .018-.01.03-.022.027-.012-.002-.041.036-.066.085-.036.072-.046.125-.052.263l-.008.172-.135.01a.437.437 0 0 0-.146.024c-.006.009-.031.018-.056.02a.642.642 0 0 0-.22.13.721.721 0 0 0-.16.225.128.128 0 0 1-.027.058c-.04.043-.052.31-.02.454.004.013-.039.032-.109.048a.8.8 0 0 0-.469.317c-.082.131-.098.19-.098.369 0 .151.006.181.05.267.053.104.053.145-.002.145a.161.161 0 0 0-.077.032.778.778 0 0 1-.093.058c-.068.034-.178.158-.163.183.007.012.004.015-.008.008-.012-.008-.039.024-.069.082-.041.08-.05.123-.056.28a.907.907 0 0 0 .01.225l.042.092c.014.03.044.084.067.12l.043.068-.055.052c-.03.028-.059.048-.063.044-.012-.013-.138.142-.177.218a.71.71 0 0 0 .107.817l.08.09-.072.078a.594.594 0 0 0-.177.444.717.717 0 0 0 .022.26.867.867 0 0 0 .181.339c.012.019.03.032.042.03.012-.003.016.003.01.013-.006.01.03.044.08.075s.09.062.09.069a.179.179 0 0 1-.037.055.595.595 0 0 0-.137.366c-.01.158.018.335.06.377.015.015.022.027.015.027-.007 0 .003.023.021.051a.832.832 0 0 0 .16.182.22.22 0 0 1 .059.034.64.64 0 0 0 .137.063l.114.038c.018.007.016.021-.011.067a.678.678 0 0 0-.015.59.549.549 0 0 0 .084.125c.019.017.034.037.034.045 0 .018.092.091.18.144.084.051.278.113.353.113h.06l-.013.068a1.324 1.324 0 0 0-.014.21c0 .12.009.163.052.256.028.061.062.112.076.112.014 0 .021.008.015.017-.017.028.134.161.25.22.104.053.175.065.422.067.022 0 .027.031.027.167 0 .148.006.178.056.282.053.11.181.28.198.263.004-.004.028.012.052.036.024.024.052.039.062.033.01-.006.018-.003.018.007s.038.032.085.05c.081.032.254.04.453.02.06-.005.063-.003.068.062.003.037.011.068.019.068.007 0 .014.021.016.047.01.12.2.34.353.41.142.064.205.08.314.08.12 0 .285-.045.3-.081.005-.015.031-.026.058-.026.04 0 .056.016.105.117.037.075.066.113.079.105.012-.007.015-.005.009.007-.016.025.04.08.064.065.01-.007.014-.004.008.006s.005.032.024.05c.02.018.036.025.036.016 0-.009.011.001.026.022.045.065.232.12.395.117.143-.003.334-.054.347-.093.003-.01.015-.018.027-.018a.25.25 0 0 0 .083-.053.34.34 0 0 1 .075-.054.31.31 0 0 1 .061.085c.06.102.18.226.205.21.01-.005.018.002.018.016 0 .023.068.06.088.048.004-.002.013.006.02.018.042.068.355.085.517.027zM7.85 10.362a1.395 1.395 0 0 1 .002-.24l.012-.224h.07c.066-.002.409-.102.427-.127a.074.074 0 0 1 .036-.016c.06-.012.125-.045.115-.06-.006-.01-.003-.015.005-.012.024.008.131-.043.131-.061 0-.01.007-.013.015-.008.019.011.086-.04.224-.169.1-.093.167-.19.195-.282l.012-.04-.62-.005-.621-.005-.028-.117a1.828 1.828 0 0 1-.034-.304c-.009-.339.075-.611.238-.775.323-.323 1.03-.327 1.325-.007.028.03.057.054.064.052.007-.002.014.006.014.018a.47.47 0 0 0 .055.113c.062.104.13.35.13.472 0 .06.005.074.018.055.012-.018.017-.02.018-.004 0 .018.378.022 1.83.022h1.828v-.502h.7v.22c0 .332-.036.3.342.3h.321v-.52h.681v.502h.46l.023-.112a1.42 1.42 0 0 1 .292-.568.978.978 0 0 1 .508-.282c.151-.039.495-.023.652.03.064.021.13.04.148.04.019.002.034.009.034.016 0 .007.042.042.095.077.052.035.126.096.163.137.07.075.208.289.208.321 0 .01.009.019.019.019s.014.007.009.015c-.005.01.003.056.018.104.015.048.032.168.038.268a1.08 1.08 0 0 1-.176.69c-.018.026-.027.053-.02.06.007.007.001.01-.013.007-.015-.003-.034.011-.043.031a.694.694 0 0 1-.153.135 1.484 1.484 0 0 0-.15.115c-.007.01-.013.012-.013.005s-.043.004-.095.024a.998.998 0 0 1-.419.087 1.15 1.15 0 0 1-.777-.295.835.835 0 0 1-.125-.123.94.94 0 0 0-.135-.195c-.01-.007-.012-.014-.005-.014.008 0 .001-.024-.013-.054l-.028-.054h-3.098c-1.703 0-3.105.007-3.116.014a.258.258 0 0 0-.042.094 1.18 1.18 0 0 1-.147.302c-.019.024-.03.05-.024.06.006.008.003.013-.005.01a.483.483 0 0 0-.117.107.71.71 0 0 1-.103.102.477.477 0 0 0-.103.07c-.12.094-.355.222-.534.292a.998.998 0 0 0-.134.06c-.005.006-.017.01-.027.012a.59.59 0 0 0-.09.022 4.95 4.95 0 0 1-.428.11c-.015 0-.032-.007-.038-.016zm9.306-1.043c.055-.02.1-.043.1-.05 0-.007.018-.02.04-.03.022-.01.038-.028.036-.04-.002-.012.004-.02.015-.018.01.002.029-.011.04-.03a.43.43 0 0 1 .043-.06.197.197 0 0 0 .034-.072.218.218 0 0 1 .03-.071c.026-.034.026-.332-.001-.34-.012-.005-.022-.027-.022-.05 0-.048-.067-.17-.093-.17-.009 0-.012-.007-.007-.017.013-.02-.116-.132-.202-.175-.124-.061-.559-.034-.559.035 0 .007-.01.013-.024.013-.035 0-.14.106-.128.127.006.01.001.015-.01.013-.011-.003-.046.043-.077.101-.052.097-.057.121-.057.27 0 .14.007.177.045.251.05.097.174.239.215.247a.071.071 0 0 1 .038.02c.006.008.055.03.108.049a.7.7 0 0 0 .436-.003zm-7.934-.672c0-.053-.04-.187-.056-.187-.01 0-.015-.006-.014-.014.01-.069-.102-.206-.217-.266-.067-.034-.359-.06-.359-.032 0 .009-.019.017-.042.018-.086.005-.244.145-.25.221 0 .02-.008.037-.015.037-.016 0-.054.215-.041.235.005.01.23.016.502.016.433 0 .492-.003.492-.028zm4.114 1.529a2.535 2.535 0 0 1-.004-.292l.005-.268h2.044v.574l-1.018.005c-.823.004-1.02 0-1.027-.019zm-.631-2.15a.322.322 0 0 1-.176-.345c.024-.162.22-.303.375-.27.168.036.272.155.272.312 0 .146-.012.183-.074.239-.121.106-.263.13-.397.064zm1.623-6.662a.069.069 0 0 1 .045 0c.012.005.002.01-.023.01-.024 0-.034-.005-.022-.01z"/></svg>