<svg role="img" viewBox="0 0 24 24" xmlns="http://www.w3.org/2000/svg"><path d="M24 3.363c-1.889.766-3.625 1.776-4.965 3.421-2.91 3.092-4.92 7.401-6.066 12.868-.023.11-.263-.065-.292.045-2.475-1.082-4.288-4.507-5.182-8.201-.293-1.21-.623-2.498-1.132-3.706 1.993-.55 4.106.704 6.363 4.135.547-1.893 4.276-7.423 4.276-7.423l.04-.146a10.176 10.176 0 0 0-6.813-2.606C4.58 1.75 0 6.34 0 12s4.58 10.25 10.229 10.25c6.895 0 9.427-5.03 11.197-10.469.858-2.806 1.551-5.818 2.574-8.418z" fill-rule="evenodd"/></svg>