<svg role="img" viewBox="0 0 24 24" xmlns="http://www.w3.org/2000/svg"><path d="M11.73 23.884c-.265-.133-1.257-.79-1.743-1.154-.743-.558-1.407-1.33-1.56-1.813-.025-.08-.055-.147-.065-.147-.01 0-.09.03-.176.069-.415.183-.877.25-1.591.229-.585-.018-.82-.049-1.74-.23-1.03-.203-1.324-.298-1.404-.453-.055-.105-.102-.297-.265-1.063-.226-1.065-.263-1.363-.264-2.09 0-.692.018-.818.192-1.32.095-.274.1-.322.03-.322-.135 0-.73-.377-1.096-.694C1.573 14.485.485 12.998.09 12.22c-.1-.197-.102-.27-.013-.446.373-.737 1.366-2.108 1.899-2.623.314-.304 1.043-.775 1.198-.775.027 0 .036-.016.026-.043a6.201 6.201 0 0 1-.254-.946c-.076-.506-.042-1.307.084-1.977.111-.59.328-1.566.378-1.7.102-.274.135-.288 1.11-.5 1.784-.387 2.688-.415 3.53-.11.146.053.28.096.3.096.018 0 .05-.053.069-.118.106-.355.376-.725.91-1.248A9.453 9.453 0 0 1 11.051.524c.17-.1.082-.026-.167.14C10.47.94 9.376 1.801 9.198 1.99a6.115 6.115 0 0 0-.353.426c-.177.236-.426.698-.426.79 0 .065-.031.06-.338-.05-.472-.168-.662-.196-1.319-.194-.685.002-.983.038-1.963.234-.736.148-1.094.242-1.21.318-.11.071-.14.163-.31.902-.26 1.148-.302 1.461-.302 2.276 0 .76.031.995.192 1.42l.088.238c.01.03-.03.057-.148.097-.223.076-.55.278-.864.533-.461.374-.896.89-1.44 1.708-.604.91-.768 1.187-.768 1.295 0 .193.99 1.692 1.574 2.381.25.297.653.682.887.849.184.13.618.349.695.349.076 0 .077.049.007.222-.28.69-.314 1.678-.099 2.897.085.48.33 1.56.377 1.657.077.162.185.201 1.075.388 1.154.242 1.967.343 2.488.308.365-.025.833-.117 1.067-.21.112-.045.226-.082.252-.082.033 0 .064.048.1.156.174.51.77 1.202 1.54 1.786.734.556 1.677 1.17 1.906 1.238.102.03.123.026.293-.058.404-.2 1.684-1.073 2.173-1.483.493-.415 1.018-1.08 1.155-1.465.073-.205.063-.203.398-.082.598.217 1.411.257 2.364.116.577-.086 1.91-.373 2.04-.44.124-.064.182-.145.251-.347.05-.144.06-.161.048-.076a1.232 1.232 0 0 1-.082.26c-.076.168-.172.225-.503.296-.105.022-.348.078-.54.124-1.641.392-2.922.413-3.717.062a1.045 1.045 0 0 0-.152-.06c-.01 0-.04.068-.067.15-.055.176-.297.57-.506.826a7.35 7.35 0 0 1-.947.908C13.392 23.2 12.136 24 12 24a1.59 1.59 0 0 1-.27-.116zm-.36-.629c-1.097-.7-1.491-.997-1.926-1.45-.512-.534-.775-1.026-.831-1.56-.018-.163-.026-.959-.02-2.024l.007-1.754.75-.007.75-.007.1.07c.145.1 1.04 1.01 1.021 1.04-.008.013-.391.39-.851.84l-.837.815v-.854l.404-.404c.222-.222.404-.409.404-.415 0-.024-.252-.289-.362-.38l-.117-.098h-.637l.008 1.65c.008 1.65.008 1.65.072 1.809.202.5.786 1.117 1.62 1.71.46.328.993.651 1.073.651.093 0 .3-.127.877-.537.718-.511.987-.732 1.277-1.047.44-.48.57-.719.607-1.122.01-.105.027-.19.04-.19.022 0 .44.48.5.575.03.049.018.09-.091.318-.35.73-.932 1.292-2.233 2.154-.428.284-.95.601-.99.601-.008 0-.285-.172-.615-.383zm.026-1.078c-.327-.22-.698-.484-.823-.584-.29-.234-.748-.717-.87-.92-.142-.234-.17-.383-.17-.887v-.443l.063.02c.18.06.168.07 1.046-.786.46-.448.846-.815.858-.815.013 0 .131.107.263.238l.24.239.264-.25.264-.251.597.604 1.067 1.082.471.478-.096.04c-.092.039-.096.047-.126.255-.054.371-.18.583-.58.977-.281.276-.683.606-.683.56 0-.005.091-.084.202-.173.315-.251.679-.617.802-.806.132-.203.214-.422.24-.64.014-.13.03-.163.083-.188.036-.016.066-.043.066-.06 0-.047-2.014-2.05-2.06-2.05-.023 0-.148.107-.279.236l-.237.236-.25-.234a2.075 2.075 0 0 0-.28-.236c-.014 0-.4.371-.855.826l-.828.828-.093-.034a.66.66 0 0 0-.115-.034c-.012 0-.017.205-.012.455l.01.454.123.249c.109.221.162.288.487.612.211.21.49.453.66.575.385.275 1.117.755 1.153.755.015 0 .14-.072.278-.16.297-.19.262-.144-.058.077l-.225.156zm-5.26-1.465c-.398-.045-.873-.132-1.6-.294-.825-.184-.823-.183-.823-.272a2.3 2.3 0 0 0-.07-.328c-.195-.739-.368-1.814-.394-2.447-.037-.895.125-1.478.54-1.949.165-.186 2.634-2.646 2.655-2.644.027.002.949.912 1.014 1l.07.096v1.52H6.344c-.737 0-1.183-.01-1.183-.026 0-.035.546-.566.607-.59.026-.011.295-.02.597-.022l.55-.002v-.637l-.104-.12a3.695 3.695 0 0 0-.233-.239l-.129-.119-1.14 1.128c-1.224 1.209-1.256 1.247-1.364 1.63-.08.285-.072 1.267.014 1.81.1.628.275 1.453.318 1.496.046.046 1.257.294 1.746.357.508.065 1.234.06 1.51-.012.26-.067.328-.1.563-.28.1-.077.189-.14.197-.14.008 0 .015.179.015.398v.398l-.258.1a3.797 3.797 0 0 1-.466.148c-.252.055-1.1.078-1.448.04zm10.523.002a3.785 3.785 0 0 1-.67-.167c-.34-.127-.467-.239-1.863-1.645l-1.354-1.362.348-.364c.19-.2.44-.445.553-.544l.207-.18.744.007.743.007.007 1.176c.004.648-.003 1.177-.014 1.177-.034 0-.525-.507-.562-.58-.022-.043-.032-.244-.03-.619l.001-.555h-.649l-.239.234-.238.234.577.598c.317.329.827.843 1.132 1.143.486.476.582.557.759.642.607.29 1.567.264 3.122-.082.248-.056.464-.116.482-.133.035-.037.204-.79.286-1.272.09-.533.121-.95.107-1.428-.018-.617-.085-.812-.428-1.238l-.073-.09h.81l.072.155c.183.4.249.771.247 1.39a8.195 8.195 0 0 1-.16 1.524c-.075.403-.313 1.47-.332 1.49-.044.043-1.49.35-2.023.429-.42.062-1.312.092-1.562.052zm.045-.933c-.428-.07-.558-.146-.974-.573l-.279-.285.084-.037a.49.49 0 0 1 .118-.037c.027-.001.035-.266.035-1.227v-1.225h.724v-.724h1.532c.842 0 1.531.007 1.531.015s-.018.06-.041.114l-.042.1.139.152a.807.807 0 0 1 .202.352c.058.184.063.252.062.854 0 .502-.012.716-.05.92a36.72 36.72 0 0 1-.279 1.297c-.02.015-.854.185-1.132.231-.7.116-1.221.139-1.63.073zm1.24-.058c.16-.024.54-.092.842-.153.302-.06.574-.11.604-.11.068 0 .06.028.208-.78.146-.804.184-1.116.183-1.523-.002-.542-.088-.856-.301-1.103-.127-.146-.128-.15-.089-.254l.027-.071h-2.951l.003.337c.002.221-.008.348-.03.369-.02.02-.145.03-.364.026l-.332-.006-.007 1.19-.007 1.189-.09.042c-.05.023-.09.055-.09.071 0 .016.135.163.3.327.376.37.5.43 1.022.504.147.021.77-.01 1.072-.055zm-12.045.028a19.748 19.748 0 0 1-1.311-.264c-.086-.028-.087-.03-.176-.464-.305-1.487-.33-2.278-.086-2.78.058-.12.677-.765.733-.765.02 0 .047.04.061.09l.027.091 1.218.007 1.219.007v.723h.724v1.532c0 .843-.01 1.532-.024 1.532a.609.609 0 0 1-.112-.03c-.081-.03-.096-.024-.198.068a1.067 1.067 0 0 1-.508.254c-.224.053-1.208.052-1.567-.001zm1.656-.066c.19-.066.296-.128.435-.258.075-.07.096-.076.162-.051a.627.627 0 0 0 .088.029c.007 0 .012-.666.012-1.479v-1.479l-.285.02c-.182.011-.314.007-.362-.011l-.077-.03v-.697l-1.19-.007-1.191-.007-.042-.09c-.023-.05-.05-.09-.059-.09-.01 0-.152.133-.316.298-.435.435-.485.557-.507 1.247-.017.508.017.827.172 1.631.142.73.147.75.224.75.035 0 .193.03.352.069.727.173 1.245.235 1.889.226.449-.007.538-.016.695-.07zm13.148-.046c0-.032.008-.039.017-.017.008.02.007.044-.002.054-.01.009-.016-.007-.015-.037zm.03-.123c0-.038.006-.054.014-.035.008.02.008.05 0 .07-.008.019-.014.003-.014-.035zm.026-.114a3.827 3.827 0 0 1 .067-.385c.13-.638.184-1.086.2-1.645.017-.64-.02-.946-.17-1.41a2.46 2.46 0 0 1-.089-.31c.02-.019.161.337.21.531.165.643.153 1.411-.039 2.45-.077.418-.174.836-.179.769zM9.533 17.639v-.267h.102c.098 0 .288.109.288.165 0 .013-.088.102-.195.197l-.195.173zm.206.032.128-.146-.071-.063a.27.27 0 0 0-.153-.063h-.082v.21c0 .114.011.208.025.208a.69.69 0 0 0 .153-.146zm4.506.037-.173-.194.093-.071a.325.325 0 0 1 .196-.071h.101v.264c0 .146-.01.265-.022.265-.012 0-.1-.087-.195-.194zm.19-.1V17.4h-.082a.271.271 0 0 0-.16.07l-.079.069.154.138c.084.076.156.139.16.14.004 0 .007-.094.007-.209zm-3.163-.522c-.38-.387-.764-.769-.853-.85l-.164-.145H7.89v-2.365l-.207-.231a27.57 27.57 0 0 0-.85-.853c-.353-.342-.642-.632-.642-.645 0-.013.383-.404.85-.868l.85-.845V7.847h2.432l.824-.821c.454-.452.837-.822.851-.822.015 0 .397.37.85.822l.823.821h2.435v2.437l.849.837c.467.46.85.852.85.869 0 .016-.29.31-.643.652a23.63 23.63 0 0 0-.849.856l-.207.234v2.359h-2.369l-.173.162c-.096.09-.48.472-.854.85-.375.377-.696.686-.714.686-.019 0-.344-.316-.724-.703zm1.464-.888c.36-.364.69-.676.733-.691.048-.018.455-.03 1.051-.03h.973v-1.996l.094-.123c.051-.067.364-.383.695-.701.33-.319.609-.606.619-.638.015-.048-.096-.172-.669-.744a26.83 26.83 0 0 1-.713-.728c-.014-.022-.025-.483-.026-1.05v-1.01h-2.045l-.712-.71c-.391-.39-.726-.71-.742-.71-.017 0-.292.267-.61.592-.318.326-.64.645-.716.71l-.137.119H8.503v2.044l-.71.712c-.391.392-.71.73-.71.752 0 .022.319.354.71.737l.71.698v2.047h.973c.611 0 1.002.01 1.051.03.043.015.388.343.766.728.621.632.693.696.738.662.028-.02.345-.335.705-.7zm-1.31-.295a24.402 24.402 0 0 0-.662-.655l-.12-.104H9.032v-1.01c0-1.097.006-1.148.162-1.481.315-.674 1.056-1.286 1.717-1.42.15-.031.169-.042.177-.109.006-.052-.004-.074-.035-.074-.055 0-.055-.03-.003-.1.06-.08.053-.15-.016-.15-.05 0-.056-.012-.04-.077a.551.551 0 0 1 .066-.146c.045-.068.047-.06.06.276l.014.345.178.037c.226.046.633.244.867.421.25.191.578.544.703.76.22.377.3.772.3 1.504v.472h.305v-.526c0-.72-.074-1.085-.322-1.571-.153-.301-.248-.428-.51-.686-.13-.13-.223-.24-.204-.246.044-.015.048-.536.005-.536-.044 0-.166-.13-.166-.179 0-.035.063-.043.383-.05l.383-.008.008-.57c.007-.556.006-.572-.052-.616-.082-.061-.082-.24 0-.354.1-.142.337-.337.448-.37.142-.043.212-.022.412.126.271.2.389.467.257.587-.053.047-.056.085-.056.63v.581h.39c.228 0 .39.011.39.027a.494.494 0 0 1-.126.13l-.125.106.001.223c0 .153.014.242.042.278.031.042.04.143.04.428v.375l-.166.178c-.284.303-.264.187-.273 1.576l-.008 1.219h-.429a3.16 3.16 0 0 0-.493.024c-.073.028-1.157 1.09-1.233 1.208-.027.042-.064.076-.08.077-.018 0-.277-.248-.576-.55zm3.098-1.894c.01-1.326-.01-1.223.27-1.512a.995.995 0 0 0 .191-.258c.024-.075.03-.079.032-.025.004.094-.037.157-.22.34-.112.111-.174.2-.194.275-.02.073-.028.495-.023 1.227.006.901 0 1.116-.028 1.116-.03 0-.035-.223-.028-1.163zm.572 1.143.063-.012V13.3l.644-.655.644-.654-.613-.614-.613-.613-.1.077c-.084.063-.102.094-.102.177a.35.35 0 0 1-.027.143c-.02.032-.027.022-.028-.044 0-.123.053-.259.114-.291.046-.025.053-.062.053-.264v-.236h-.752v-.36c0-.297.009-.379.055-.48.08-.174.072-.32-.027-.514a3.243 3.243 0 0 1-.083-.171c0-.004.194-.007.431-.007h.432v.94l-.001.94.57.557c.313.306.61.605.659.663l.09.106-.66.661-.658.661v1.85l-.077-.004c-.066-.003-.067-.006-.014-.016zm.063-5.606v-.724h-.376c-.207 0-.376.005-.376.012 0 .006.025.07.056.141a.704.704 0 0 1-.001.54c-.045.097-.055.181-.055.438v.317h.752v-.724zM8.12 12.63c-.313-.31-.58-.586-.596-.614-.023-.043.072-.148.629-.697l.656-.647V8.794h1.879l.65-.66.65-.659.527.527c.29.29.527.539.527.553a.97.97 0 0 1-.154.187 1.203 1.203 0 0 0-.198.267.651.651 0 0 0 .015.495c.048.11.059.188.059.444 0 .205-.012.322-.034.344-.022.023-.153.034-.406.034h-.373l.019.216c.014.162.032.227.072.262.03.025.053.069.052.097 0 .048-.003.047-.032-.004a.342.342 0 0 0-.068-.083c-.022-.017-.043-.129-.055-.285l-.019-.257.401-.008.4-.008.009-.299c.007-.271 0-.313-.063-.448-.13-.276-.077-.51.179-.78a.844.844 0 0 0 .14-.175c0-.04-.957-.985-1-.985-.02 0-.315.282-.654.626l-.617.627H8.837V10.7l-.64.63c-.353.348-.641.645-.641.66 0 .035 1.109 1.12 1.144 1.12.014 0 .025-.028.025-.064 0-.183.2-.643.417-.965a3.152 3.152 0 0 1 1.155-.99l.225-.111.119-.306c.065-.169.14-.35.167-.404l.048-.097h.585l.008.38.008.38.09.017c.05.009.183.06.295.114.111.053.213.097.226.097.014 0 .03-.04.035-.09.01-.079.012-.075.016.028.002.065-.006.118-.02.118-.013 0-.128-.049-.257-.109a2.295 2.295 0 0 0-.323-.127l-.09-.019-.008-.367-.008-.367-.23-.008a.955.955 0 0 0-.28.02c-.031.016-.104.166-.184.374-.073.191-.16.372-.193.4a.91.91 0 0 1-.207.113c-.342.138-.903.614-1.14.967-.224.334-.426.817-.426 1.02 0 .044-.014.08-.032.08-.017 0-.288-.254-.6-.564zm12.618 2.967a.39.39 0 0 1 .146-.064c.15-.042.506-.253.764-.452l.18-.14-.125.131c-.135.142-.424.334-.668.444-.184.084-.322.121-.297.081zm-4.27-.995v-.764l.543-.538.543-.538.842.843.842.843h-.871l-.407-.411-.407-.411-.236.24-.237.24v.65l1.664-.008 1.664-.008.22-.106c.305-.145.544-.33.884-.681.352-.365.67-.784 1.082-1.426.27-.422.31-.498.295-.57-.022-.108-.696-1.121-.986-1.482a9.644 9.644 0 0 0-.51-.57c-.436-.448-.725-.611-1.188-.673l-.23-.03.272-.275c.312-.314.288-.308.641-.146.688.315 1.453 1.114 2.227 2.324.398.624.51.818.51.885 0 .099-.113.291-.56.953-.846 1.253-1.443 1.895-2.058 2.213-.416.215-.348.21-2.569.21h-1.97zm-13.142.693c-.47-.148-1.002-.55-1.492-1.126-.333-.391-1.156-1.57-1.407-2.014l-.09-.16.132-.229c.2-.347.801-1.252 1.04-1.565.117-.154.4-.467.63-.697.47-.47.772-.68 1.17-.815l.223-.076 1.998-.008 1.998-.008v1.542l-.543.546-.544.546-.82-.836c-.45-.46-.82-.846-.82-.858-.002-.013.186-.02.416-.014l.419.01.384.396c.212.219.404.397.428.397.023 0 .138-.1.255-.222l.212-.223V9.21l-1.636.008-1.636.008-.166.067c-.655.264-1.24.868-2.06 2.13-.189.291-.322.525-.322.565 0 .087.718 1.173 1.038 1.57.285.352.79.842 1 .967a1.6 1.6 0 0 0 .656.222c.096.008.174.023.174.034 0 .011-.116.14-.257.286l-.258.267zm.71-.746c-.038-.092-.042-.094-.244-.107-.24-.016-.419-.096-.682-.304-.219-.174-.574-.55-.825-.872-.217-.28-.856-1.232-.856-1.277 0-.035.27-.467.456-.73.732-1.034 1.231-1.535 1.672-1.675.098-.031.289-.05.612-.059l.47-.013-.022.08c-.05.183-.06.17.805 1.038l.833.833-.234.255c-.128.14-.237.264-.24.275-.005.01.098.133.227.272l.235.252L5.18 13.58a40.923 40.923 0 0 1-1.084 1.063c-.011 0-.038-.043-.06-.094zm.915-.777c.44-.433.9-.897 1.024-1.032l.225-.246-.241-.242c-.133-.133-.241-.254-.241-.27 0-.014.11-.136.243-.27l.243-.245-.845-.846-.846-.846.031-.09a.605.605 0 0 0 .032-.119c0-.045-.824-.005-.993.047-.32.1-.93.657-1.377 1.26-.228.306-.693 1.017-.71 1.084-.014.054.047.164.308.554.417.624.66.937.988 1.277.4.413.699.59 1.053.623.152.015.184.027.209.083.016.035.045.065.064.065.019 0 .394-.354.833-.787zm17.551.467c.341-.42.52-.676.985-1.407.447-.704.487-.788.445-.945-.033-.122-.835-1.358-1.184-1.825-.624-.834-1.234-1.367-1.838-1.604l-.174-.069a3.78 3.78 0 0 1 .104-.324c.164-.473.204-.782.185-1.457-.02-.751-.14-1.53-.384-2.506-.118-.473-.162-.562-.308-.626-.161-.07-.552-.166-1.303-.318-.893-.18-1.05-.198-1.74-.198-.68 0-.844.023-1.382.197a6.676 6.676 0 0 1-.309.095c-.008 0-.03-.053-.05-.118-.203-.682-.992-1.489-2.368-2.422-.549-.373-.996-.633-1.124-.653a.419.419 0 0 0-.191.02 5.55 5.55 0 0 0-.544.299c-.034.022-.062.034-.062.026 0-.036.542-.358.65-.387.107-.029.135-.025.27.038.198.091 1.001.601 1.462.928.779.553 1.098.845 1.49 1.363.26.346.472.718.472.832 0 .031.014.046.035.037.546-.24.889-.306 1.567-.306.596 0 .905.035 1.81.207 1.048.199 1.402.307 1.507.463.065.098.203.64.36 1.414.155.775.19 1.102.19 1.754 0 .655-.048.966-.21 1.385a1.26 1.26 0 0 0-.075.229c.005.005.074.029.152.054.294.096.763.433 1.168.838.453.453.851.982 1.46 1.938.355.556.419.676.419.788 0 .24-1.18 2.035-1.603 2.44-.093.09-.059.037.118-.18zm-2.932.217-.226-.01.044-.125.045-.124-.849-.85-.848-.849.243-.244c.134-.134.243-.256.243-.271 0-.015-.11-.137-.243-.272l-.244-.244 1.086-1.07 1.086-1.069.04.09c.04.088.05.093.273.123.274.036.41.103.727.357.257.205.534.51.856.944.26.35.764 1.111.764 1.155 0 .016-.128.22-.283.453-.807 1.21-1.345 1.779-1.844 1.944-.157.053-.52.078-.87.062zm.782-.079c.33-.086.547-.25 1.011-.763.147-.162.353-.41.459-.553.232-.312.689-1.019.689-1.065 0-.044-.295-.494-.665-1.014a6.117 6.117 0 0 0-.672-.798c-.323-.328-.405-.395-.585-.482a1.437 1.437 0 0 0-.414-.128c-.237-.033-.254-.04-.254-.113 0-.03-.016-.054-.035-.054-.019 0-.497.463-1.062 1.028l-1.028 1.029.241.26c.132.142.24.268.24.278 0 .011-.105.13-.234.267l-.235.247.838.856.838.857-.046.095-.045.096h.397c.268 0 .452-.014.562-.043zm-14.105-.11c.099-.1.195-.182.213-.182.065 0 .149.144.149.255v.108h-.541zm.306.046c0-.068-.018-.124-.05-.153-.047-.043-.06-.036-.2.107l-.152.153h.402zm10.834.029c0-.074.022-.132.076-.196l.077-.091.194.196.194.197h-.541zm.32-.062a.64.64 0 0 0-.171-.139c-.053 0-.121.115-.121.201v.078h.429zm-.704-3.6-.535-.538V8.6h1.183c.651 0 1.184.007 1.184.017 0 .01-.122.142-.27.293-.209.212-.296.282-.383.305-.076.02-.276.024-.607.011l-.495-.02v.675l.213.222c.117.123.23.223.253.223.022 0 .543-.505 1.159-1.121 1.192-1.195 1.217-1.224 1.328-1.608.088-.3.108-1.044.042-1.562-.06-.483-.31-1.723-.355-1.768-.023-.023-.9-.211-1.289-.277-.602-.1-1.016-.135-1.434-.117-.554.024-.875.126-1.16.37l-.15.127v-.799l.235-.103c.414-.184.53-.202 1.298-.201.515 0 .76.013 1.002.05.432.068 1.912.373 1.978.409.068.037.102.164.334 1.253.232 1.096.27 2.04.109 2.701-.032.13-.115.356-.184.501l-.125.265-1.39 1.386c-.765.762-1.394 1.385-1.398 1.385-.004 0-.249-.242-.543-.538zM6.264 9.73a1.577 1.577 0 0 1-.156-.195c0-.01.113-.017.25-.017h.251v.12c0 .096-.016.136-.078.195a.395.395 0 0 1-.094.075c-.01 0-.087-.08-.173-.178zm.317-.091c0-.089-.005-.093-.104-.093a1.43 1.43 0 0 0-.214.019l-.109.018.15.132.152.133.063-.058a.202.202 0 0 0 .062-.151zm10.88.19c-.056-.058-.074-.105-.074-.194v-.117l.132.005.132.005-.118.01c-.113.011-.118.016-.118.103 0 .062.023.112.072.158l.072.068.146-.164c.08-.09.162-.159.182-.152.02.007-.045.083-.158.184l-.194.171zm1.43-1.384a.433.433 0 0 1-.028-.098c0-.015-.497-.029-1.219-.033l-1.218-.007-.008-.369-.008-.369h-.723V4.507l.072.027c.12.046.193.03.278-.059.352-.37 1.335-.403 2.853-.095.268.054.513.11.543.122.046.02.074.108.162.508.15.69.187.937.2 1.348.01.361.01.361-.014.097a9.706 9.706 0 0 0-.072-.543 31.347 31.347 0 0 0-.267-1.365c-.023-.02-1.13-.238-1.415-.277-.472-.067-1.005-.085-1.28-.045-.317.047-.49.116-.664.27-.132.115-.157.126-.243.11l-.097-.018v2.926h.33c.259 0 .34.01.366.042.022.026.035.156.038.369l.004.327 1.187.007 1.188.007.034.084c.02.045.05.083.068.083.046 0 .612-.582.664-.683.063-.125.133-.383.16-.593l.024-.186-.01.236c-.016.399-.084.53-.514.98-.316.334-.355.36-.393.26zm-15.308-.16c-.246-.39-.367-1.015-.333-1.719.03-.62.116-1.154.355-2.206l.144-.634.1-.016c.055-.01.22-.046.365-.083.4-.1 1.334-.28 1.727-.335.729-.1 1.496-.057 1.985.114.434.152.51.218 2.2 1.916l1.109 1.113-.287.293c-.158.16-.403.403-.545.539l-.257.246h-1.56v-1.17c0-1.036.005-1.17.043-1.17.041 0 .527.484.583.581.015.027.024.28.02.596l-.009.55H9.9l.195-.188a2.09 2.09 0 0 0 .22-.235c.021-.038-.182-.256-1.114-1.191-1.036-1.04-1.156-1.151-1.316-1.224-.52-.234-1.3-.257-2.39-.07-.6.103-1.149.235-1.207.29-.055.052-.238.9-.342 1.574-.065.425-.073 1.421-.014 1.657.06.239.181.485.306.62a.55.55 0 0 1 .115.156c0 .047-.741.044-.77-.003zm.952.009c-.009-.015.002-.072.026-.128.041-.1.04-.102-.04-.17-.111-.093-.242-.369-.296-.623-.058-.271-.056-.931.002-1.378.042-.319.205-1.167.266-1.383l.028-.103.3-.069c.842-.196 1.409-.275 1.969-.276.456 0 .73.043.937.148.127.064.67.565.757.7.044.067.046.078.008.078a.358.358 0 0 0-.114.032l-.07.032v2.413l-.356.008-.355.008-.014.362-.014.362-1.509.007c-.947.005-1.515-.003-1.525-.02zm2.987-.376c.004-.186.021-.348.038-.369.022-.026.122-.036.361-.036h.331V5.119l.089-.023c.048-.012.093-.036.098-.053.015-.044-.556-.61-.68-.673-.487-.249-1.462-.22-2.814.083-.345.077-.4.096-.41.147l-.068.309c-.291 1.304-.327 2.386-.095 2.836.023.044.092.135.154.202.102.11.11.129.083.203-.016.045-.021.09-.012.099.01.009.67.013 1.467.009l1.45-.007zm5.795-.926c-.29-.286-.525-.534-.525-.55 0-.033 1.617-1.659 1.65-1.659.011 0 .02.189.02.419v.418l-.403.407-.403.406.054.077c.03.042.131.147.224.233l.17.157h.665V3.721l-.068-.203c-.124-.368-.346-.682-.762-1.078a6.649 6.649 0 0 0-.466-.4c-.31-.234-1.409-.96-1.454-.96-.11 0-.673.363-1.362.88-.93.696-1.331 1.2-1.41 1.772-.018.134-.044.244-.059.244-.014 0-.138-.114-.275-.254-.238-.242-.249-.258-.233-.352.02-.13.177-.453.319-.659.37-.54.856-.972 1.902-1.693.558-.384 1.018-.663 1.096-.663.101 0 1.115.646 1.741 1.11.388.287.886.765 1.148 1.103.224.288.424.682.466.919.019.106.03.854.03 2.095v1.93h-1.54zm-3.784-.649c0-.138.01-.25.02-.25.011 0 .099.077.195.172l.174.173-.074.078c-.06.061-.1.078-.195.078h-.12zm.291.152c.053-.04.05-.046-.082-.18a.827.827 0 0 0-.159-.14c-.012 0-.022.082-.022.182v.18h.105a.32.32 0 0 0 .158-.042zm4.324.02-.075-.077.175-.173c.096-.095.183-.173.194-.173.011 0 .02.113.02.251v.25h-.12c-.095 0-.135-.016-.194-.077zm.287-.158c0-.1-.01-.181-.02-.181-.032 0-.259.232-.259.265 0 .059.068.097.173.097h.106zm-4.032-1.19a44.872 44.872 0 0 1-1.065-1.085c0-.01.042-.032.094-.05.091-.03.094-.034.111-.224.01-.107.043-.258.072-.336.158-.414.858-1.066 1.846-1.715.287-.189.53-.343.54-.343.03 0 .398.252.42.287.011.018-.01.013-.048-.012a13.36 13.36 0 0 0-.22-.137l-.15-.093-.114.064a11.9 11.9 0 0 0-1.172.817c-.842.673-1.156 1.105-1.156 1.59 0 .074-.016.099-.084.131l-.084.04 1.043 1.043 1.043 1.042.268-.246.269-.246.248.247.249.247.174-.166c.096-.09.483-.471.86-.844.62-.614.69-.676.743-.648.032.017.078.03.104.03.042 0 .045-.04.034-.424-.013-.46-.042-.587-.192-.843-.078-.133-.079-.135-.01-.055.04.046.106.146.146.223.072.133.075.16.085.65l.01.513-.065-.016a3.047 3.047 0 0 1-.131-.035c-.06-.018-.154.069-.891.82-.454.461-.839.839-.856.839-.016 0-.06-.033-.097-.073a5.466 5.466 0 0 0-.257-.241l-.19-.169-.243.241a3.434 3.434 0 0 1-.255.242c-.007 0-.493-.48-1.08-1.066zm3.433-2.342c-.153-.156-.26-.27-.236-.254.187.135.297.236.405.377.07.09.123.163.118.162a8.81 8.81 0 0 1-.287-.285z"/></svg>