<svg role="img" viewBox="0 0 24 24" xmlns="http://www.w3.org/2000/svg"><path d="M11.99 24l-2.65-2.65 6.64-6.676c1.953-1.963 5.28-1.152 6.54 1.713-1.32-.118-2.608-.323-3.702.792zM2.647 9.355l6.667 6.648c1.961 1.955 1.151 5.285-1.71 6.548.117-1.323.322-2.612-.792-3.707L0 12.006zM12.028 0l2.648 2.65-6.641 6.676c-1.952 1.963-5.279 1.152-6.54-1.713 1.321.118 2.609.323 3.703-.792zM24 11.988l-2.648 2.651-6.667-6.648c-1.961-1.954-1.151-5.285 1.71-6.547-.117 1.322-.322 2.611.792 3.707zm-15.75.013a3.751 3.751 0 1 1 7.502 0 3.751 3.751 0 0 1-7.502 0z"/></svg>