<svg role="img" viewBox="0 0 24 24" xmlns="http://www.w3.org/2000/svg"><path d="M10.014 23.67c-.165-.646-.424-1.014-1.35-1.919a12.89 12.89 0 0 0-1.652-1.392l-.48-.336c-.356-.25-.724-.761-.931-1.294l-.094-.242-.224-.078a2.756 2.756 0 0 1-.805-.443c-.257-.193-.425-.392-1-1.193-.374-.52-1.22-1.464-1.78-1.986-.47-.437-.88-.678-1.396-.818L0 13.888l.132-.057c.572-.247 1.387-.192 2.04.138l.16.081.018-.423c.01-.233.045-.54.078-.683.066-.285.215-.616.256-.568.015.017.046.155.07.307.062.386.16.686.318.983.19.354.394.611.902 1.134.505.519.525.563.493 1.11-.03.536.102.936.406 1.227.172.164.543.408.574.377.01-.01.033-.114.052-.232.11-.684.572-1.377 1.191-1.787.412-.272.677-.372 1.209-.453.148-.023.145-.017.083-.166-.136-.322-.57-.701-1.038-.904l-.25-.11-1.162-.016-1.162-.018V13.1l.873-.009.873-.009.09-.106a.396.396 0 0 0-.012-.525l-.102-.113-.87-.01-.872-.011.01-.32.01-.318.875-.018c.853-.017.877-.02.954-.096.105-.106.114-.447.013-.558-.063-.07-.103-.073-.954-.082l-.888-.01-.01-.372-.01-.373H5.4c1.154 0 1.325-.022 1.684-.205.386-.196.62-.406.836-.747.139-.219.138-.262-.004-.262-.216-.001-.566-.107-.913-.276a2.901 2.901 0 0 1-1.272-1.267c-.106-.21-.234-.615-.234-.74a.327.327 0 0 0-.034-.144c-.084-.133-.71.379-.87.71-.074.155-.086.237-.105.764-.017.47-.034.616-.084.711-.034.066-.268.332-.52.591-.699.72-1.022 1.274-1.127 1.93-.07.44-.061.425-.164.253-.138-.232-.219-.591-.242-1.082l-.02-.44-.09.046a3.944 3.944 0 0 1-1.022.3c-.345.043-.77-.006-1.04-.12-.16-.066-.142-.112.055-.144.081-.013.257-.066.39-.117.504-.195.959-.556 1.742-1.386.641-.68.944-1.047 1.366-1.657.386-.557.732-.893 1.128-1.095.17-.086.39-.185.49-.22.17-.06.184-.074.238-.239a3.2 3.2 0 0 1 .574-1.006c.116-.127.341-.323.501-.436.574-.408 2.07-1.683 2.426-2.067.628-.68.777-.917.922-1.473.041-.16.087-.305.1-.32.041-.048.164.323.205.617.061.445-.046 1.056-.262 1.482-.046.09-.083.172-.083.183 0 .01.12.018.269.018.429 0 .929.09 1.187.212.263.125.26.128-.223.22-.717.135-1.147.386-1.878 1.098-.625.607-.683.637-1.172.605a2.566 2.566 0 0 0-.541.014 1.496 1.496 0 0 0-.787.43c-.176.192-.354.488-.317.526.012.012.137.045.277.074.518.106.91.314 1.32.702.15.142.345.367.434.502.204.306.38.765.41 1.07.016.153.04.235.068.235.085 0 .465-.283.656-.49.208-.224.321-.419.42-.724.053-.161.066-.365.083-1.318l.02-1.127.353-.01.354-.01.01.885c.01.867.012.886.09.963.114.114.456.114.57 0 .077-.077.08-.1.096-.954l.018-.874h.624l.017.85c.01.467.031.877.048.911.083.171.439.219.6.08l.098-.084.017-.879.018-.878h.728l.018 1.179c.017 1.127.022 1.188.098 1.378.187.467.652.97 1 1.08.067.022.076.008.099-.16.06-.437.295-.98.588-1.352.217-.277.609-.591.937-.753.276-.137.626-.245.79-.245.047 0 .103-.022.125-.048.088-.106-.405-.688-.728-.858-.137-.072-.214-.083-.76-.1-.403-.014-.635-.036-.693-.067-.048-.025-.297-.252-.555-.503-.806-.787-1.255-1.039-2.073-1.164-.158-.024-.295-.057-.306-.074-.025-.04.29-.184.558-.256.115-.03.407-.064.65-.076a5.54 5.54 0 0 0 .443-.03c0-.005-.053-.131-.117-.28-.174-.409-.242-.711-.243-1.087-.001-.336.087-.731.196-.88.044-.06.054-.042.11.19.15.624.365.964 1.058 1.674a14.82 14.82 0 0 0 2.362 1.998c.482.337.819.789 1.02 1.368l.072.206.282.11c.33.13.46.204.798.461.25.192.309.261.932 1.115.453.622.83 1.058 1.438 1.665.748.748 1.341 1.132 1.857 1.202.085.012.163.033.172.047.028.046-.312.17-.577.21-.444.07-.979-.02-1.478-.246a3.562 3.562 0 0 0-.24-.103c-.007 0-.012.164-.012.366 0 .525-.144 1.139-.297 1.266-.052.043-.05.047-.119-.349a3.218 3.218 0 0 0-.563-1.335 8.275 8.275 0 0 0-.585-.642c-.238-.238-.463-.496-.5-.572-.057-.118-.067-.218-.068-.676 0-.517-.005-.545-.098-.735-.164-.334-.557-.715-.8-.776-.083-.02-.091-.014-.091.078 0 .328-.296.998-.605 1.371-.431.521-1.135.925-1.716.986-.26.027-.267.06-.07.353.18.272.418.483.718.641.401.211.55.23 1.733.232h1.05v.361c0 .258-.013.366-.044.378a9.54 9.54 0 0 1-.772-.002c-.858-.021-.986 0-1.071.179a.58.58 0 0 0-.056.191c0 .099.086.299.144.336.026.017.437.038.914.048l.867.017.01.321.01.32-.825.001c-.92 0-.96.01-1.063.218a.413.413 0 0 0 .05.455l.072.09h1.763v.763h-1.066c-1.18 0-1.336.02-1.717.212-.26.13-.705.563-.817.794l-.076.156.095.023c.053.013.192.039.31.058.75.122 1.513.726 1.918 1.517.13.254.244.64.244.828 0 .122.06.112.307-.053.252-.168.45-.39.582-.654.093-.186.097-.214.1-.73.002-.428.015-.566.063-.675.035-.08.26-.342.553-.642.646-.66.842-.959 1.01-1.535a3.9 3.9 0 0 0 .108-.496c.04-.331.066-.343.188-.084.137.294.21.677.21 1.11 0 .19.009.344.021.344.012 0 .117-.045.234-.1.593-.282 1.409-.326 1.924-.102l.162.07-.26.066c-.648.163-1.186.544-2.036 1.44-.634.668-1.046 1.165-1.403 1.69-.378.557-.754.932-1.122 1.12a5.443 5.443 0 0 1-.491.219c-.173.063-.218.095-.237.17-.043.176-.294.672-.449.888-.19.268-.422.479-.851.775-.52.36-.71.51-1.284 1.014-1.243 1.093-1.825 1.861-1.926 2.54-.013.09-.036.164-.052.164-.03 0-.113-.21-.17-.434a2.915 2.915 0 0 1-.037-.506c0-.42.077-.777.24-1.117a1.55 1.55 0 0 0 .095-.221 9.416 9.416 0 0 0-.5-.043c-.365-.026-.557-.057-.738-.12-.23-.08-.435-.186-.41-.212a3.92 3.92 0 0 1 .36-.07c.76-.13 1.181-.369 1.969-1.123.278-.266.542-.505.586-.53.054-.03.275-.052.67-.063.554-.017.6-.023.78-.112a2.02 2.02 0 0 0 .35-.232c.165-.143.39-.449.43-.584.02-.071.011-.078-.11-.078-.525-.002-1.412-.526-1.82-1.075a2.844 2.844 0 0 1-.517-1.223c-.022-.129-.054-.234-.072-.234-.167 0-.624.388-.831.706-.284.436-.287.453-.308 1.757l-.018 1.161-.306.026c-.473.04-.44.107-.44-.896v-.85l-.087-.08c-.163-.152-.47-.132-.605.038-.067.085-.07.136-.07.93v.84l-.259.02c-.434.032-.395.116-.407-.877-.01-.788-.016-.866-.077-.933-.142-.157-.455-.156-.596 0-.061.068-.066.137-.066.917 0 .463-.012.854-.026.869-.028.027-.166.033-.5.021l-.214-.008-.013-1.135c-.012-1.073-.017-1.149-.091-1.362a2.153 2.153 0 0 0-.59-.854c-.18-.147-.418-.29-.482-.29-.015 0-.046.115-.069.256-.044.28-.22.75-.367.982-.164.26-.505.628-.726.785-.39.277-.95.509-1.226.509-.145 0-.147.034-.015.265.15.26.42.521.65.627.184.085.245.093.721.104.286.006.573.02.637.03.092.015.222.12.609.497.525.51.823.75 1.13.904.215.11.7.261.936.294.265.037.347.058.347.086 0 .044-.383.203-.626.26a2.172 2.172 0 0 1-.397.054c-.095 0-.276.01-.402.022l-.229.022.116.264c.063.145.14.379.171.518.108.48.016 1.434-.142 1.486-.02.006-.07-.125-.113-.292zM6.94 17.586a1.981 1.981 0 0 0 1.01-.885c.12-.226.218-.564.218-.754 0-.146-.01-.148-.351-.076-.78.166-1.43.874-1.51 1.648l-.021.2.234-.032a2.37 2.37 0 0 0 .42-.101zm10.759.008c.017-.177-.149-.662-.307-.899a1.867 1.867 0 0 0-1.13-.805c-.397-.102-.43-.097-.43.064 0 .336.255.878.557 1.185.216.219.624.445.97.536.274.073.327.06.34-.081zm-5.498-.446c.163-.086.214-.095.534-.094h.354l.074-.208c.173-.484.614-1.048 1.055-1.348.22-.149.709-.37.819-.37.044 0 .073-.032.086-.096.075-.351.359-.838.687-1.18.33-.344.74-.609 1.11-.718l.138-.04.003-.362c.003-.326.012-.38.102-.558l.1-.197-.072-.1c-.11-.155-.157-.397-.135-.706.014-.204.008-.274-.024-.274-.076 0-.456-.167-.682-.3-.478-.28-1.006-.938-1.175-1.465l-.077-.238-.203-.061c-.75-.227-1.493-.95-1.735-1.69-.074-.224-.08-.233-.168-.208-.11.03-.427.029-.598-.004a.813.813 0 0 1-.25-.109l-.124-.083-.211.108c-.215.111-.415.137-.738.097l-.132-.017-.112.277a2.882 2.882 0 0 1-1 1.269c-.246.167-.66.369-.817.398-.067.013-.114.043-.114.072 0 .028-.048.166-.107.308-.3.72-.91 1.328-1.583 1.576-.214.078-.268.112-.26.162.005.035.013.182.017.327.007.237-.004.286-.104.481-.112.216-.112.218-.048.309.035.05.084.154.11.23.046.141.057.546.017.67-.018.059.005.078.162.13.788.257 1.474.955 1.757 1.788.058.171.068.18.25.237.77.238 1.54 1.004 1.765 1.754l.042.14.353-.001c.317-.001.37.008.526.091.095.05.185.094.2.095.014.002.108-.04.208-.092zm.425-1.498c-.011-.017-.11-.042-.22-.054-.305-.035-.52-.117-.651-.247a.488.488 0 0 1-.12-.155c0-.02.053.02.117.087.161.17.34.24.612.238a.84.84 0 0 0 .608-.223c.25-.22.296-.454.117-.594-.092-.072-.105-.1-.085-.189.041-.19.348-.391.594-.391.091 0 .164.105.132.188-.028.075-.006.07.194-.04.246-.136.243-.14-.155-.219-.242-.048-.45-.145-.481-.224-.027-.07.06-.244.135-.273a.984.984 0 0 1 .236-.022c.117 0 .243-.03.362-.085.264-.123.297-.123.32-.001.023.134.132.15.382.055.19-.072.26-.067.228.018-.02.051.068.065.168.027.08-.03.067-.104-.05-.274a1.14 1.14 0 0 1-.144-.325.444.444 0 0 1 .02-.331c.078-.205.118-.202.098.007-.013.142.003.2.127.435.078.148.142.309.142.357 0 .176-.15.371-.318.413-.072.018-.1.007-.131-.05-.046-.086-.108-.09-.297-.018-.175.067-.317.025-.349-.103l-.021-.087-.193.103a.916.916 0 0 1-.317.105c-.115.003-.118.005-.039.033.048.016.177.047.286.069.23.045.304.104.304.242 0 .122-.165.268-.477.423-.183.09-.235.102-.33.076-.084-.024-.12-.06-.145-.144-.038-.126-.06-.135-.138-.057-.073.072-.07.095.032.216.162.192.146.446-.044.729-.161.24-.44.397-.51.286zm.989-1.236c.062-.075-.015-.12-.157-.094-.135.026-.142.032-.089.096.057.069.188.068.246-.002zm-2.441.665c-.01-.027-.11-.068-.221-.09-.309-.064-.522-.169-.654-.323-.168-.196-.15-.24.028-.067a.98.98 0 0 0 .737.3.912.912 0 0 0 .705-.286c.183-.183.232-.357.182-.646-.052-.298-.047-.42.022-.55l.06-.11.033.277c.061.494.046.74-.057.94-.137.265-.25.38-.484.498-.234.117-.323.13-.351.057zm.75-.059c.231-.19.362-.53.394-1.026.018-.263.011-.335-.036-.407-.075-.115-.072-.257.013-.479.065-.171.069-.267.07-1.55V10.19l.092-.097c.052-.053.106-.097.122-.097.015 0 .028.78.028 1.735v1.734l.095-.021c.116-.026.84-.383.904-.445.038-.037.014-.058-.128-.12-.216-.093-.235-.092-.26.005-.026.107-.248.362-.37.424-.151.079-.15.063.007-.078.138-.125.27-.348.271-.46 0-.03-.055-.084-.123-.12-.2-.109-.303-.253-.28-.396a.406.406 0 0 1 .093-.193l.073-.071-.024.097c-.027.108.064.234.232.321.085.044.094.042.119-.03.015-.041.033-.952.04-2.023l.014-1.946.102-.098.102-.097v1.898c0 1.586-.01 1.941-.054 2.16-.03.145-.05.266-.044.271.006.005.108.06.227.122.119.063.226.144.237.182.032.1-.012.287-.08.348-.083.073-.939.47-1.07.496-.099.02-.107.034-.145.257-.084.492-.327.962-.572 1.112-.17.103-.196.082-.05-.039zm.43-1.86c-.01-.034-.017-.006-.017.06 0 .067.007.094.016.061a.276.276 0 0 0 0-.121zm-2.622 1.235c-.265-.044-.44-.153-.524-.325-.12-.248-.072-.552.126-.802.206-.26.21-.268.12-.24-.16.051-.711.031-.83-.03-.283-.147-.337-.615-.094-.817.043-.036.04-.014-.015.107a.799.799 0 0 0-.07.215c0 .11.182.258.35.283.213.032 1.48-.063 1.531-.115.061-.061-.03-.21-.355-.578-.36-.407-.493-.674-.513-1.025-.02-.337.051-.59.232-.83.254-.338.636-.566 1.11-.664l.206-.043.011-.563c.011-.54.015-.567.096-.652.046-.05.097-.09.113-.09.015 0 .028.294.028.654v.654l.242.02c.133.011.27.038.304.06.057.037.057.038-.002.02a2.402 2.402 0 0 0-.301-.043l-.237-.022-.012 1.245-.01 1.252a.642.642 0 0 0 .136-.033c.19-.059.486-.34.56-.533.052-.138.055-.19.02-.424-.054-.351-.052-.474.012-.597.07-.137.11-.13.092.019-.008.066.012.253.044.414.054.271.054.31.002.511-.105.41-.356.71-.722.861-.181.075-.202.095-.234.223-.09.356-.185.552-.36.742-.163.177-.22.198-.292.108-.078-.096-.17-.071-.356.097-.146.132-.17.203-.074.23l.407.122.65.194c.182.054.304.108.304.135 0 .12-.127.16-.713.23-.636.075-.702.077-.982.03zm.915-.235c.164-.032.192-.019-.52-.24-.514-.161-.554-.18-.545-.252.013-.109.018-.11.169-.068.113.032.139.028.168-.02a1.7 1.7 0 0 1 .378-.4c.164-.119.314-.129.37-.025.034.063.046.066.088.025.075-.075.177-.4.217-.687.02-.142.033-.26.029-.262-.004 0-.132-.038-.284-.081-.338-.097-.479-.18-.61-.362-.152-.21-.122-.228.054-.033.173.193.386.3.668.335l.182.023v-1.25c0-1.42.033-1.297-.314-1.194-.45.133-.826.427-.993.773-.075.157-.094.245-.095.456 0 .227.014.292.11.486.06.123.2.325.309.449.517.59.537.643.359.954l-.104.182-.306.015c-.247.011-.326.03-.416.093-.246.175-.386.606-.27.83.064.124.201.206.414.248.187.037.764.04.942.005zm3.64-2.673a.586.586 0 0 0-.18-.104c-.06 0-.055-.074.01-.167.07-.1.106-.096.293.03l.156.106.097-.115.096-.115.164.087c.178.094.224.204.137.325-.046.062-.052.06-.147-.027-.157-.146-.249-.152-.365-.025a.705.705 0 0 1-.112.108c-.007 0-.075-.046-.15-.103zm.097-.388c-.157-.11-.18-.178-.092-.275.051-.057.063-.054.208.043.157.107.18.158.117.275-.045.084-.054.083-.233-.043zM8.167 8.028c0-.34-.195-.783-.473-1.083A2.034 2.034 0 0 0 6.477 6.3l-.182-.024v.112c0 .178.1.52.218.747.133.255.564.693.809.823.213.114.498.194.698.197l.148.002v-.13zm8.251.039c.63-.208 1.152-.817 1.25-1.46.02-.136.037-.265.037-.285 0-.095-.458.012-.83.194-.333.163-.676.499-.828.811-.118.241-.215.576-.215.739v.101l.2-.019c.11-.01.283-.047.386-.081z"/></svg>