<svg viewBox="0 0 24 24" xmlns="http://www.w3.org/2000/svg" role="img"><path d="m5.338 23.444-.77-.01-.04-.117-.404-1.164c-.687-1.978-.856-2.659-.887-3.573-.028-.825.1-1.348.466-1.894.343-.51.695-.852 1.147-1.113.12-.069.213-.13.208-.134a1.42 1.42 0 0 0-.23.02c-.644.083-1.512-.105-2.09-.454-.518-.313-.972-.865-1.384-1.687-.325-.65-.539-1.24-1.02-2.823C-.019 9.34-.029 9.3.021 9.254c.028-.027.314-.247.635-.49l.917-.692C3.218 6.83 4.388 6.278 5.375 6.278c.417 0 .935.135 1.427.374.32.154.514.286.724.491.092.09.178.164.19.164.012 0-.015-.066-.06-.146-.234-.417-.37-1.202-.311-1.79.076-.748.34-1.27 1.022-2.028.535-.594.997-.958 2.909-2.292l.72-.502.684.478c1.88 1.313 2.128 1.504 2.743 2.121.596.598.906 1.047 1.085 1.573.249.733.184 1.73-.156 2.398a1.87 1.87 0 0 0-.101.215c.005 0 .083-.072.174-.16.524-.51 1.467-.896 2.19-.896.874 0 1.938.457 3.262 1.402.803.574 2.122 1.588 2.123 1.633.002.055-.674 2.276-.82 2.693-.328.942-.703 1.704-1.09 2.218-.419.557-.847.861-1.516 1.078-.421.137-.79.19-1.186.172a2.972 2.972 0 0 1-.385-.034c-.125-.04-.06.04.088.107.504.23 1.173.964 1.45 1.589.3.68.29 1.716-.033 3.018-.132.533-1.018 3.187-1.087 3.256-.014.015-.784.029-1.817.032-1.925.007-2.106-.002-2.812-.148-.82-.17-1.563-.57-1.971-1.06-.398-.476-.697-1.068-.78-1.54-.034-.2-.06-.196-.095.016-.049.301-.253.776-.483 1.126-.625.95-1.413 1.37-2.923 1.559-.371.047-1.734.067-3.202.049zm2.27-.898c.873-.034 1.239-.067 1.52-.138.837-.21 1.393-.645 1.719-1.34.267-.571.25-1.18-.047-1.72-.142-.259-.497-.605-.741-.725-.33-.16-.654-.141-.884.052a.596.596 0 0 0-.19.379c0 .193.194.426.397.476a.229.229 0 0 0 .194-.405c-.09-.071-.176-.07-.239.003-.07.083-.095.04-.028-.05a.436.436 0 0 1 .366-.197c.272-.02.489.134.633.448.174.382-.01.791-.445.995-.87.407-1.884-.47-1.682-1.455a1.82 1.82 0 0 1 .126-.342c.358-.737 1.222-1.054 2.036-.748.726.273 1.39 1.056 1.564 1.847.033.145.065.283.073.306.008.023.042-.071.077-.209.154-.603.387-1.03.765-1.404.71-.703 1.626-.848 2.342-.372.486.323.754.89.662 1.401a1.17 1.17 0 0 1-.36.67c-.452.453-1.114.534-1.55.188a.684.684 0 0 1-.28-.522c-.032-.443.259-.809.643-.809.152 0 .218.028.344.148.112.106.126.19.017.104-.094-.074-.127-.072-.23.015-.144.121-.11.314.067.373.127.042.253.002.37-.12.247-.256.175-.627-.159-.808a.768.768 0 0 0-.635-.023c-.21.08-.488.29-.66.498-.676.82-.552 1.957.3 2.75.414.384.832.561 1.573.667.502.071 2.942.127 3.363.076.126-.015.153-.03.189-.097.108-.21.746-2.218.912-2.874.278-1.098.188-1.843-.304-2.534a2.485 2.485 0 0 0-.633-.59c-.536-.321-1.221-.338-1.82-.045-.245.12-.496.346-.606.546-.163.297-.081.708.17.85.366.208.884-.15.648-.45-.08-.101-.256-.093-.338.017-.051.07-.052.078-.01.164.053.106.054.11.018.11-.015 0-.065-.052-.111-.116a.36.36 0 0 1-.084-.252c0-.171.048-.264.21-.407.32-.28.815-.253 1.053.06.145.19.195.348.196.617 0 .224-.009.27-.088.437-.217.46-.666.745-1.173.745-.395 0-.712-.143-.979-.442-.474-.53-.532-1.365-.136-1.968.32-.488.975-.896 1.643-1.024.262-.05.795-.059.941-.016.147.044.16-.01.017-.066-.257-.098-.714-.489-.96-.822a2.96 2.96 0 0 1-.424-.852c-.093-.323-.091-.885.003-1.173.2-.61.697-1 1.338-1.052.407-.032.73.08 1.012.351.299.287.42.59.4.999-.02.417-.212.735-.544.898-.232.115-.48.126-.661.03-.34-.179-.52-.615-.374-.91.068-.137.162-.209.3-.228l.103-.015-.09.074c-.104.085-.107.098-.047.224.051.108.173.163.274.125.178-.067.207-.306.065-.517-.2-.293-.483-.311-.774-.05-.167.151-.23.308-.229.566.004.578.421 1.179 1.023 1.475.3.148.499.194.833.194.81 0 1.523-.41 2.004-1.151.312-.48.452-.823.919-2.242.341-1.036.457-1.418.457-1.503 0-.042-.661-.552-1.376-1.06-1.151-.82-1.74-1.157-2.253-1.292a2.553 2.553 0 0 0-1.243-.002c-.93.246-1.538.975-1.534 1.841.002.475.143.846.418 1.098.178.162.295.205.513.19.24-.018.392-.148.444-.381.056-.247-.094-.504-.292-.504-.176 0-.257.152-.184.344.02.055.05.072.132.08l.106.01-.11.05c-.3.137-.622-.15-.648-.577-.012-.184-.005-.212.081-.38.376-.724 1.522-.427 1.762.458.037.136.045.245.035.443-.012.23-.027.291-.115.476-.282.595-.978.91-1.656.75-.62-.147-1.106-.647-1.312-1.353-.085-.29-.107-.979-.041-1.302.06-.294.109-.442.225-.674.052-.103.085-.188.073-.188-.01 0-.095.077-.186.17-.45.461-1.126.728-1.849.73-.409 0-.625-.046-.963-.207-.56-.267-.88-.761-.878-1.36 0-.651.352-1.172.904-1.34.286-.086.664-.066.91.05.384.181.639.525.662.89.02.3-.142.555-.435.685a.88.88 0 0 1-.524.051c-.22-.06-.425-.376-.35-.54.028-.058.03-.057.05.023.03.122.064.153.168.153.207 0 .316-.23.178-.376-.198-.21-.635-.082-.749.218-.14.373.185.758.722.854.864.156 1.75-.467 2.007-1.411.083-.303.081-.846-.003-1.162a2.687 2.687 0 0 0-.635-1.13c-.206-.223-.877-.782-1.425-1.188l-.751-.556a20.38 20.38 0 0 0-.58-.414l-.26-.177-.11.065c-.227.134-1.654 1.183-2.206 1.621-.816.648-1.174 1.102-1.351 1.715-.084.289-.104.825-.043 1.137.134.681.598 1.2 1.282 1.432.285.097.691.11.935.03.205-.067.408-.224.49-.38.085-.158.08-.426-.01-.549-.15-.208-.556-.27-.696-.108-.14.163-.03.391.179.374.087-.007.11-.024.148-.103.057-.122.093-.071.068.096-.063.42-.67.544-1.047.213-.163-.143-.234-.318-.233-.576.001-.189.013-.246.079-.371.21-.404.57-.616 1.047-.616.371 0 .691.13.946.385.45.451.51 1.232.14 1.809-.214.333-.647.62-1.104.728a2.76 2.76 0 0 1-1.178-.03 2.944 2.944 0 0 1-1.203-.691c-.103-.1-.187-.172-.187-.162 0 .01.031.07.07.13.09.144.163.33.24.617.05.19.062.307.063.662.002.61-.096.977-.37 1.396-.475.724-1.38.967-2.126.57-1.025-.543-.844-2.125.27-2.355.588-.122 1.083.378.922.93-.08.278-.358.49-.584.448a.26.26 0 0 1-.127-.058c-.029-.035-.017-.041.078-.041.092 0 .114-.011.128-.063.072-.27-.1-.457-.305-.33-.177.109-.23.39-.116.615.16.314.642.335.947.043.247-.236.363-.575.36-1.044-.008-.909-.474-1.539-1.355-1.832-.873-.29-1.697-.1-2.809.645a53.94 53.94 0 0 0-1.745 1.262c-.56.422-.515.333-.392.76.123.42.707 2.173.82 2.453.453 1.138 1.005 1.733 1.86 2 .178.056.266.065.611.065.367 0 .422-.007.607-.075.741-.27 1.293-.995 1.25-1.643a.685.685 0 0 0-.207-.494c-.283-.314-.812-.193-.885.201-.023.124.026.29.098.329.1.054.241.033.303-.046.08-.102.074-.203-.019-.282l-.076-.066.096.017c.279.047.407.336.303.683a.85.85 0 0 1-.385.452.485.485 0 0 1-.334.07c-.315-.019-.562-.193-.73-.514-.234-.45-.198-.902.106-1.315.505-.686 1.471-.709 2.13-.05.208.208.383.525.438.795.18.874-.377 1.996-1.245 2.507a3.25 3.25 0 0 0-.267.167c-.005.008.218.015.495.016.473 0 .521.006.755.078.82.253 1.418.767 1.614 1.387.082.261.093.638.026.896a1.61 1.61 0 0 1-.643.905c-.346.22-.852.26-1.206.094a1.39 1.39 0 0 1-.63-.613.879.879 0 0 1-.114-.439c-.02-.378.108-.656.375-.813.116-.068.162-.078.356-.078.195 0 .241.01.371.082.265.147.399.378.34.589-.033.123-.142.288-.19.288-.045 0-.044-.027.004-.08a.199.199 0 0 0 .048-.162c-.004-.047-.151-.12-.24-.12-.09 0-.209.116-.208.201 0 .103.117.276.222.332.183.098.48.047.618-.106.147-.163.176-.486.064-.725-.196-.421-.793-.754-1.4-.78-.358-.015-.564.024-.86.162-.422.197-.76.524-.982.952-.332.636-.377 1.174-.178 2.07.132.59.788 2.693.939 3.008.054.114.074.13.172.145.187.029 1.514.027 2.28-.003zm4.017-4.612c-.676-.688-1.12-.895-2.02-.94l-.368-.018-.074-.226c-.21-.64-.504-1.051-1.025-1.434-.19-.14-.726-.423-.899-.475-.064-.019-.117-.048-.117-.065s.08-.176.179-.355c.34-.619.46-1.02.46-1.535 0-.326-.045-.6-.15-.905a2.467 2.467 0 0 1-.072-.227c0-.011.091-.087.202-.168.342-.251.437-.337.59-.539.326-.428.577-1.139.61-1.724l.015-.271c.002-.03.076-.026.134.006.027.014.18.055.34.09.225.049.378.063.668.063.627-.001 1.06-.134 1.563-.476a2.82 2.82 0 0 1 .326-.204c.015 0 .137.078.272.174.303.214.56.334.916.429.234.062.333.072.69.074.366.002.454-.007.714-.073.45-.115.429-.124.45.176.07.974.448 1.724 1.125 2.227l.277.205c.004.002-.025.097-.064.21-.12.351-.159.575-.16.93 0 .537.132.977.472 1.563.099.172.173.323.165.337a.755.755 0 0 1-.19.09c-.621.227-1.102.58-1.438 1.057a2.64 2.64 0 0 0-.39.763l-.099.278-.377.019c-.657.032-1.041.16-1.524.508a4.713 4.713 0 0 0-.719.69.42.42 0 0 1-.11.103c-.013 0-.18-.16-.372-.356zm.596-.557c.604-.51 1.054-.725 1.758-.84.196-.031.367-.064.38-.071.012-.008.086-.142.164-.297.194-.388.306-.55.563-.82.248-.258.474-.433.83-.643.134-.079.244-.158.244-.177 0-.018-.038-.113-.084-.21a4.138 4.138 0 0 1-.292-.866c-.06-.296-.045-.952.03-1.304.048-.227.048-.233-.004-.262a2.18 2.18 0 0 1-.238-.206c-.454-.437-.8-1.094-.94-1.782l-.05-.242-.164.005c-.727.02-.923.013-1.198-.044a3.322 3.322 0 0 1-1.005-.367l-.232-.136-.27.153c-.59.334-1.182.45-1.992.393l-.334-.024-.035.204c-.13.756-.59 1.564-1.142 2.01l-.094.075.052.228c.071.315.072 1.022 0 1.349a3.85 3.85 0 0 1-.277.82l-.1.217.2.127c.47.296.603.396.828.62.302.302.475.545.627.885.125.28.18.339.323.34.129 0 .644.108.845.177.404.137.697.319 1.124.695.114.1.22.184.233.184.013 0 .126-.085.25-.19zm-.886-.98c-.306-.01-.778-.045-1.05-.077a35.05 35.05 0 0 0-.506-.059c-.02 0-.105-.17-.092-.183.006-.006.186.007.399.03.653.069 1.602.106 2.25.087a26.885 26.885 0 0 0 1.815-.116c.134-.018.153.02.073.141-.034.052-.07.069-.146.07-.056 0-.251.018-.435.041-.303.038-.59.053-1.46.078-.16.005-.542 0-.848-.011zm-.302-.39c-.66-.034-1.371-.1-1.434-.134-.061-.033-.127-.136-.102-.16.008-.008.169.005.357.03.641.084 1.12.11 2.079.11.951 0 1.58-.03 2.139-.108.393-.054.417-.053.4.017-.025.093-.154.136-.543.178a18.91 18.91 0 0 1-2.896.067zm-.06-.32c-.763-.048-1.49-.135-1.617-.195-.082-.038-.139-.112-.11-.141a.91.91 0 0 1 .217.032c.622.134 1.64.196 2.86.174.955-.018 1.563-.065 2.08-.161.172-.033.32-.052.33-.043.027.028-.055.108-.15.148-.142.059-.91.144-1.585.175-.56.026-1.675.032-2.025.01zm.288-.286c-.21-.009-.39-.025-.401-.037-.035-.034-.015-.386.031-.563.088-.338.296-.595.594-.732.124-.057.21-.074.424-.083.308-.013.477.029.705.176.223.144.359.327.458.622.06.176.076.486.03.559-.048.076-.833.1-1.841.058zm2.48-.112c0-.015.071-.076.16-.136.31-.21.531-.505.67-.894l.035-.097.095.197c.09.188.213.328.416.475l.083.06-.097.103c-.134.141-.213.17-.657.232-.564.079-.706.091-.706.06zm-4.125-.071a5.369 5.369 0 0 1-.573-.11c-.135-.045-.266-.154-.248-.207.005-.015.083-.088.174-.161.2-.162.315-.301.361-.438.02-.056.046-.104.058-.107.013-.003.044.057.07.134.114.334.283.583.527.775a.755.755 0 0 1 .168.158c0 .034-.023.032-.537-.044zm.617-.112c-.428-.134-.72-.584-.802-1.24-.038-.306-.039-2.453 0-2.43.015.01.074.09.13.176l.102.158-.006.737c-.011 1.237.035 1.594.246 1.927.119.188.15.161.054-.045-.158-.338-.164-.413-.163-2.104V10.74l.07.084c.172.204.163.124.18 1.654l.015 1.404.077.215c.074.205.228.46.259.43.008-.009-.02-.088-.06-.177-.152-.326-.158-.418-.173-2.463-.012-1.572-.008-1.884.024-1.883.02 0 .08.072.134.16l.098.16.002 1.71c.002 1.532.007 1.727.05 1.875.068.235.133.371.254.528.105.138.106.139.07.265-.021.07-.045.195-.054.279l-.016.153-.18.006a1.15 1.15 0 0 1-.31-.035zm3 .027c-.012-.012-.02-.064-.02-.115 0-.052-.021-.174-.046-.273l-.045-.178.092-.091a.984.984 0 0 0 .159-.24c.157-.343.153-.3.17-2.188l.017-1.753.093-.145c.051-.08.105-.146.12-.146.016 0 .022.738.017 1.954l-.01 1.953-.072.195c-.04.107-.093.241-.118.298-.06.14-.056.154.023.08a.895.895 0 0 0 .14-.227c.144-.32.153-.433.154-1.828 0-1.257.002-1.29.06-1.404.08-.159.16-.27.196-.27.02 0 .024.487.015 1.55-.015 1.672-.02 1.737-.17 2.076-.087.194-.088.207-.02.145a1.09 1.09 0 0 0 .141-.243c.14-.303.167-.564.167-1.606v-.9l.084-.146c.077-.135.16-.232.175-.205.003.006-.001.586-.01 1.29-.016 1.209-.02 1.29-.077 1.473-.09.294-.216.527-.363.679-.195.2-.331.26-.615.275-.13.006-.246.002-.257-.01z"/></svg>