<svg role="img" viewBox="0 0 24 24" xmlns="http://www.w3.org/2000/svg"><path d="M9.986 23.997a.16.16 0 0 0-.05-.01 7.92 7.92 0 0 1-.366-.06l-.098-.014a23.558 23.558 0 0 0-.2-.03 1.548 1.548 0 0 1-.277-.051.107.107 0 0 1-.032-.038c-.013-.025-.013-.038-.004-.085A3.69 3.69 0 0 0 9 23.49c.02-.134.05-.262.092-.396l.027-.088a.895.895 0 0 1 .037-.098 63.014 63.014 0 0 0 .097-.213c.01-.021.02-.042.02-.046 0-.005.014-.032.031-.061.031-.051.046-.072.114-.157a1.81 1.81 0 0 0 .121-.172c.024-.036.022-.092-.004-.132-.019-.03-.028-.034-.07-.038a.561.561 0 0 0-.232.052.576.576 0 0 1-.207.065.223.223 0 0 1-.066 0c0-.009.186-.144.226-.164a.53.53 0 0 0 .099-.09 2.08 2.08 0 0 0 .192-.227c.1-.206.113-.25.13-.416a1.644 1.644 0 0 0-.021-.46 1.272 1.272 0 0 0-.058-.196c-.1-.19-.121-.237-.111-.252.014-.022.118-.02.247.003l.142.025a2.19 2.19 0 0 1 .641.186.47.47 0 0 1 .173.124.38.38 0 0 1 .127.206c.023.07.024.089.026.305 0 .208 0 .24-.02.328l-.043.186c-.022.101-.045.2-.058.25l-.023.092a7.752 7.752 0 0 1-.036.137 1.265 1.265 0 0 0-.023.098c-.003.023-.028.12-.055.21a2.7 2.7 0 0 0-.068.282.27.27 0 0 1-.015.062c-.014.039-.083.3-.118.444a10.984 10.984 0 0 0-.088.342c-.06.242-.07.27-.106.294-.023.015-.123.031-.133.021zm3.768-.05c-.04-.023-.06-.066-.09-.202a4.999 4.999 0 0 0-.033-.133 4.756 4.756 0 0 1-.035-.142 62.103 62.103 0 0 1-.118-.449l-.051-.195-.027-.113a3.552 3.552 0 0 0-.06-.23 4.784 4.784 0 0 1-.146-.582 10.466 10.466 0 0 1-.098-.442 2.469 2.469 0 0 1-.01-.259c0-.215.001-.22.03-.31a.41.41 0 0 1 .145-.221.527.527 0 0 1 .202-.132l.123-.052c.053-.023.158-.052.28-.075a.712.712 0 0 0 .097-.023c.012-.007.298-.052.382-.06.05-.005.063-.003.085.014.033.026.033.048 0 .144a2.6 2.6 0 0 0-.078.296l-.024.118c-.005.024-.014.07-.018.102-.005.033-.016.09-.024.128a.857.857 0 0 0-.006.28l.049.15c.034.108.046.134.082.176.024.027.078.09.12.142.07.083.092.103.23.196.085.056.155.106.155.11 0 .01-.057.004-.127-.013a2.21 2.21 0 0 0-.083-.018.664.664 0 0 1-.177-.07c-.1-.047-.152-.05-.191-.01a.141.141 0 0 0-.033.063c-.006.034-.003.044.029.09l.052.071.05.065.059.075a.607.607 0 0 1 .074.126l.03.063c.006.016.033.074.058.128a2.1 2.1 0 0 1 .112.298l.03.098c.022.073.045.18.062.298.008.054.022.133.032.176.018.084.015.116-.013.149-.022.024-.059.032-.346.076a9.82 9.82 0 0 0-.503.084 2.523 2.523 0 0 0-.11.02c-.056.012-.14.01-.167-.006zm-.316-.028a.74.74 0 0 1-.136-.413v-.052l-.1-.004c-.085-.003-.108-.008-.15-.03-.07-.036-.104-.083-.11-.149-.01-.13.116-.382.217-.43.058-.027.101-.02.143.021.065.066.1.197.116.453a.729.729 0 0 0 .099.363l.039.065-.028.083c-.03.09-.046.125-.058.125-.004 0-.018-.015-.031-.032zm-.165-.716c0-.068-.05-.151-.096-.159-.019-.003-.074.017-.066.024.003.003-.002.011-.01.019-.017.017-.027.056-.02.076.013.033.082.06.156.063.032 0 .036-.002.036-.023zm-2.504.716a1.092 1.092 0 0 1-.025-.134 1.608 1.608 0 0 0-.195-.6l-.054-.094.035-.106c.045-.136.05-.142.09-.093.072.09.149.29.19.493.019.093.022.141.022.302 0 .164-.002.195-.017.222-.02.038-.034.04-.046.01zm.61.01a5.55 5.55 0 0 1-.033-.16c-.016-.08-.045-.2-.064-.263a2.01 2.01 0 0 0-.174-.391l-.025-.037.043-.087a.407.407 0 0 1 .051-.087.63.63 0 0 1 .08.075c.08.08.124.106.167.096.034-.008.086-.057.136-.13a.508.508 0 0 1 .053-.069c.025-.021.038-.003.031.043-.005.035-.003.046.017.067.012.014.042.03.068.037.062.016.09 0 .124-.067.028-.058.043-.062.05-.012.017.114-.03.266-.098.31-.03.021-.041.023-.099.018-.065-.006-.129-.026-.14-.045-.004-.006-.025.006-.05.029a.291.291 0 0 1-.08.05c-.027.009-.033.015-.029.032l.023.1c.025.11.026.412.002.466-.016.036-.044.05-.052.025zm1.025-.024a6.82 6.82 0 0 1-.062-.183 2.191 2.191 0 0 0-.247-.516.522.522 0 0 1-.055-.084c0-.014.097-.23.108-.241.011-.012.053.035.1.112.042.07.112.232.17.396a.632.632 0 0 0 .048.117c.004 0 .032-.073.063-.163.031-.09.076-.199.1-.242.049-.091.145-.226.16-.226.008 0 .013.044.017.122l.006.122-.054.081c-.077.115-.18.33-.244.506-.062.175-.083.225-.093.225-.004 0-.012-.012-.017-.026zm3.129-1.79a.97.97 0 0 1-.347-.087.827.827 0 0 1-.27-.141c-.143-.105-.254-.224-.254-.272 0-.026.027-.047.083-.064.027-.008.09-.03.142-.05a1.982 1.982 0 0 1 .154-.055l.086-.034.17-.06c.253-.09.286-.101.299-.101.015 0 .042.024.072.064a1.525 1.525 0 0 0 .578.425c.006 0 .02.004.03.01l.04.02c.01.005.027.01.036.01.01 0 .022.004.027.009a.259.259 0 0 0 .073.02c.096.018.168.042.18.061.017.026-.01.066-.057.083l-.088.032-.115.043a1.85 1.85 0 0 1-.311.074 2.678 2.678 0 0 0-.105.02 2.156 2.156 0 0 1-.423-.006zm-7.484-.081c0-.006-.028-.01-.064-.01-.036 0-.063-.004-.063-.01 0-.005-.02-.01-.044-.01-.024 0-.046-.004-.05-.01-.002-.005-.025-.01-.049-.01s-.043-.004-.043-.01c0-.005-.015-.01-.034-.01-.018 0-.036-.004-.039-.008-.003-.004-.018-.006-.034-.004-.018.003-.03 0-.03-.007 0-.006-.017-.011-.04-.011-.02 0-.038-.004-.038-.01 0-.005-.016-.01-.034-.01-.019 0-.037-.004-.04-.01-.003-.005-.017-.01-.03-.01-.013 0-.024-.004-.024-.01 0-.005-.01-.01-.024-.01-.013 0-.026-.004-.03-.01-.002-.005-.016-.01-.029-.01-.013 0-.026-.005-.03-.01a.016.016 0 0 0-.018-.007c-.006.002-.022 0-.035-.008-.013-.007-.029-.01-.035-.008-.006.002-.015 0-.018-.006-.004-.006-.018-.01-.03-.01-.014 0-.025-.004-.025-.01 0-.005-.009-.01-.019-.01a.155.155 0 0 1-.054-.02.15.15 0 0 0-.054-.02c-.01 0-.021-.003-.024-.01a.035.035 0 0 0-.023-.01.174.174 0 0 1-.052-.018c-.02-.01-.038-.017-.04-.015-.003.003-.021-.004-.041-.015a.164.164 0 0 0-.048-.02.607.607 0 0 1-.098-.044.592.592 0 0 0-.099-.044.3.3 0 0 1-.101-.051c-.002-.004-.012-.007-.022-.007-.01 0-.02-.004-.02-.01a.01.01 0 0 0-.01-.01c-.005 0-.073-.031-.15-.069a1.854 1.854 0 0 0-.151-.068.757.757 0 0 0-.128-.076 14.864 14.864 0 0 1-.563-.305 1.17 1.17 0 0 1-.112-.069 9.493 9.493 0 0 1-1.006-.69l-.13-.103a5.064 5.064 0 0 1-.161-.135 11.788 11.788 0 0 1-1.04-1.038c-.047-.052-.29-.351-.36-.446l-.102-.136a10.95 10.95 0 0 1-.72-1.135 5.255 5.255 0 0 1-.083-.161 9.414 9.414 0 0 1-.33-.684.198.198 0 0 0-.02-.047 2.047 2.047 0 0 1-.083-.194 1.359 1.359 0 0 0-.056-.134.086.086 0 0 1-.009-.035.044.044 0 0 0-.009-.027 2.697 2.697 0 0 1-.103-.264 1.167 1.167 0 0 0-.025-.068 1.265 1.265 0 0 1-.03-.083 2.13 2.13 0 0 0-.028-.083 1.601 1.601 0 0 1-.025-.079 1.306 1.306 0 0 0-.025-.078 1.025 1.025 0 0 1-.02-.064.94.94 0 0 0-.02-.063 1.014 1.014 0 0 1-.017-.054l-.03-.093a3.888 3.888 0 0 1-.06-.215 12.894 12.894 0 0 0-.03-.113 2.125 2.125 0 0 1-.033-.132.301.301 0 0 0-.015-.049.247.247 0 0 1-.013-.044 71.94 71.94 0 0 0-.066-.308l-.02-.088a4.198 4.198 0 0 1-.038-.18l-.019-.099a4.64 4.64 0 0 1-.02-.107l-.02-.118a3.996 3.996 0 0 1-.034-.225 9.285 9.285 0 0 1-.055-.43 11.579 11.579 0 0 1-.038-1.399 9.175 9.175 0 0 1 .147-1.436l.02-.107a3.95 3.95 0 0 1 .065-.301 11.757 11.757 0 0 1 .63-1.932A11.42 11.42 0 0 1 2.65 5.36c.09-.12.465-.53.51-.558a.886.886 0 0 0 .07-.058c.028-.025.059-.052.07-.06l.118-.095a.796.796 0 0 1 .112-.08c.006 0 0 .016-.012.036a2.337 2.337 0 0 0-.134.239.169.169 0 0 0-.027.042l-.063.118a5.419 5.419 0 0 0-.076.146.428.428 0 0 1-.043.074c-.01.006-.38.776-.439.915l-.085.2a1.656 1.656 0 0 1-.055.122.986.986 0 0 0-.045.103c-.031.08-.049.121-.104.242-.014.031-.038.09-.053.132a6.39 6.39 0 0 0-.196.541c-.121.372-.158.498-.18.62a11.627 11.627 0 0 0-.206 1.024c-.021.122-.074.508-.093.674-.05.455-.064 1.133-.034 1.625.02.341.073.801.122 1.075l.024.137a12.346 12.346 0 0 0 .152.69l.025.098c.009.035.028.105.044.156l.064.21a9.272 9.272 0 0 0 .347.954c.067.163.091.218.197.44a8.2 8.2 0 0 0 .427.793l.084.137c.115.189.353.537.485.71l.113.146a2.56 2.56 0 0 0 .146.18 10.262 10.262 0 0 0 1.042 1.071c.048.043.22.185.342.283a9.205 9.205 0 0 0 1.135.755c.06.033.529.267.607.301.289.127.54.222.836.316.286.09.317.101.453.167.072.034.137.062.144.062.008 0 .015.004.015.01 0 .005.006.01.013.01.008 0 .031.008.052.019a1.946 1.946 0 0 0 .232.102l.085.04c.02.008.041.022.048.03.007.008.017.015.024.015a.69.69 0 0 1 .172.18c.016.016.03.035.03.042 0 .007.003.013.008.013s.012.008.015.017a.723.723 0 0 0 .034.066.259.259 0 0 1 .03.064c0 .02.024.068.032.068.004 0 .007.01.007.024 0 .013.005.026.01.03.007.004.009.012.007.02-.003.006 0 .02.009.03.008.01.014.032.014.049s.005.032.01.034c.012.004.017.275.006.331l-.012.069a2.377 2.377 0 0 1-.176.362.034.034 0 0 0-.013.023c0 .006-.013.025-.03.04-.015.015-.027.03-.024.035.005.008-.078.087-.091.087-.005 0-.016.008-.025.018a.16.16 0 0 1-.05.031c-.02.007-.035.018-.035.022 0 .005-.004.006-.009.003-.005-.003-.012 0-.015.004-.003.005-.015.01-.025.01a.154.154 0 0 0-.053.02.16.16 0 0 1-.064.02c-.016 0-.03.004-.03.01 0 .005-.019.01-.043.01-.024 0-.046.004-.05.01-.002.005-.025.01-.049.01s-.043.004-.043.01-.08.01-.22.01-.22-.004-.22-.01zm8.574-.426a1.07 1.07 0 0 1-.088-.027 1.534 1.534 0 0 0-.102-.032.44.44 0 0 1-.075-.026 2.53 2.53 0 0 1-.502-.344c-.02-.021-.03-.039-.025-.043.01-.007.102-.051.245-.115l.313-.141c.281-.133.378-.171.408-.163a.293.293 0 0 1 .076.057c.073.07.227.184.25.184.007 0 .182.063.215.078.01.005.037.014.058.02l.079.027a.618.618 0 0 0 .078.022l.088.019.073.014c.056.01.146.03.153.037.004.004-.014.016-.038.027a.185.185 0 0 0-.052.03.324.324 0 0 1-.057.041l-.07.044a1.977 1.977 0 0 1-.25.14c-.08.032-.086.034-.17.073a4.197 4.197 0 0 1-.142.062.512.512 0 0 1-.063.02 1.804 1.804 0 0 1-.402-.003zm-2.018-.371c-.016-.02-.018-.037-.015-.11.002-.048.007-.121.012-.164a.455.455 0 0 0 .005-.085 2.261 2.261 0 0 1 .144-.36.905.905 0 0 1 .213-.252c.116-.082.684-.36.701-.343.01.009-.027.11-.08.223a.768.768 0 0 0-.09.298c-.007.043-.015.11-.02.147a1.244 1.244 0 0 0 0 .213.673.673 0 0 1 0 .162c-.015.027-.053.042-.29.114a1.887 1.887 0 0 0-.136.044c-.011.005-.097.033-.191.063s-.179.06-.188.065c-.028.014-.044.01-.064-.015zm3.32-.325c-.254-.016-.315-.025-.42-.059a1.739 1.739 0 0 1-.153-.052.681.681 0 0 1-.1-.054 1.13 1.13 0 0 0-.094-.054c-.016 0-.08-.07-.08-.087 0-.021.04-.054.108-.088.045-.023.07-.037.235-.129l.142-.078.137-.077c.048-.029.117-.067.153-.085l.066-.033.042.018c.023.01.065.032.093.048.048.03.183.082.257.101.067.018.27.05.342.054.217.012.417.026.425.027.02.004-.185.17-.32.258a3.648 3.648 0 0 0-.142.098.37.37 0 0 1-.064.041.252.252 0 0 0-.05.03.71.71 0 0 1-.272.098.224.224 0 0 0-.061.014.771.771 0 0 1-.245.008zm-2.222-.034c-.017-.018-.019-.037-.019-.178a.93.93 0 0 1 .023-.256c.074-.315.187-.54.363-.722a.715.715 0 0 1 .193-.142l.096-.049c.196-.1.284-.14.305-.134.013.003.023.011.023.018a.728.728 0 0 1-.036.1c-.038.094-.042.12-.062.43-.011.164-.003.35.02.46.006.027.005.042-.003.05-.017.017-.069.045-.276.148a4.096 4.096 0 0 0-.19.1 2.515 2.515 0 0 1-.142.073 2.56 2.56 0 0 0-.142.074.398.398 0 0 1-.116.049c-.01 0-.026-.01-.037-.02zm1.146-.572c-.02-.02-.023-.038-.028-.15a1.907 1.907 0 0 1 .105-.666.461.461 0 0 1 .118-.215c.111-.138.226-.234.516-.427.091-.061.174-.111.183-.111.02 0 .018.015-.017.151a1.803 1.803 0 0 0-.032.157 1.099 1.099 0 0 1-.02.108 1.157 1.157 0 0 0-.019.132c-.013.12.003.426.026.498a.175.175 0 0 1 .011.045 4.1 4.1 0 0 1-.273.17 2.56 2.56 0 0 0-.176.109 3.544 3.544 0 0 1-.256.16c-.115.064-.114.064-.138.04zm2.083-.196l-.176-.019a1.167 1.167 0 0 1-.333-.074 23.992 23.992 0 0 0-.2-.065c-.014-.004-.025-.012-.025-.018a.6.6 0 0 1 .14-.111c.005 0 .017-.01.027-.02.01-.01.02-.02.025-.02.006 0 .12-.069.175-.107l.213-.142c.01-.005.083-.052.164-.104.082-.053.16-.098.174-.102.027-.007.071.005.149.04a.548.548 0 0 0 .078.03c.016.003.05.013.073.02.107.036.17.043.409.043h.237v.03c0 .026-.02.051-.14.173-.2.205-.377.36-.442.387a.354.354 0 0 1-.059.017 1.865 1.865 0 0 0-.078.017l-.064.016a3.74 3.74 0 0 1-.347.009zm-1.004-.434c-.025-.015-.036-.062-.043-.19-.006-.112 0-.179.025-.314a5.18 5.18 0 0 0 .033-.21.666.666 0 0 1 .057-.194.146.146 0 0 0 .017-.041c0-.005.008-.029.02-.051a.645.645 0 0 0 .025-.065.289.289 0 0 1 .047-.069c.022-.025.05-.058.06-.073a2.35 2.35 0 0 1 .322-.27l.134-.095c.024-.018.035-.02.05-.012.022.012.023.006-.012.195-.031.175-.028.408.007.523.016.05.075.185.112.253.016.03.018.042.01.06a5.814 5.814 0 0 1-.483.333c-.01.005-.04.026-.069.045a3.25 3.25 0 0 1-.276.178.049.049 0 0 1-.036-.004zm1.718-.446c-.13-.018-.271-.054-.293-.074-.034-.032-.01-.063.117-.162a2.451 2.451 0 0 1 .171-.126l.18-.15c.017-.013.055-.046.085-.073a11.185 11.185 0 0 1 .184-.166l.053-.048.084.005.246.016c.102.007.237.007.367.002.113-.004.21-.006.217-.004.016.006.016.046.001.074a4.3 4.3 0 0 1-.347.379c-.151.147-.27.236-.39.292-.093.043-.476.063-.675.035zm-.694-.313a.283.283 0 0 1-.05-.08 1.508 1.508 0 0 1-.05-.234 1.71 1.71 0 0 1 .033-.36l.02-.081c.003-.012.009-.025.014-.028.005-.003.009-.012.009-.02a1.266 1.266 0 0 1 .126-.318.32.32 0 0 1 .035-.063.642.642 0 0 0 .034-.057c0-.007.067-.115.094-.15.03-.041.183-.209.274-.302.064-.065.076-.07.107-.048.018.013.019.026.015.305-.003.296.002.35.034.424.037.083.093.187.14.26.027.043.05.081.05.086 0 .022-.065.097-.128.149l-.146.122c-.155.13-.464.387-.497.413-.048.037-.069.034-.114-.018zm-6.447-.553c-.215-.017-.45-.067-.543-.114-.037-.019-.059-.037-.07-.06-.016-.031-.016-.034 0-.056.024-.034.116-.08.363-.185.062-.026.268-.144.357-.203a1.9 1.9 0 0 0 .465-.442c.054-.08.119-.21.135-.27l.01-.036-.187-.007c-.35-.012-.488-.035-.62-.102a.335.335 0 0 1-.174-.171c-.026-.055-.026-.062-.022-.186.013-.342.212-.877.39-1.05.07-.067.126-.091.211-.091.24 0 .43.201.54.573.065.219.09.398.09.647-.001.653-.167 1.194-.49 1.593a.685.685 0 0 1-.163.16c-.024.012-.142.012-.292 0zm.546-2.02c.052-.007.054-.013.026-.077-.068-.16-.208-.268-.347-.269-.135 0-.21.068-.21.191 0 .041.004.054.026.075.034.032.064.044.17.067.084.018.25.024.335.013zm7.322 1.913c-.036-.022-.022-.061.044-.122.24-.224.457-.45.586-.608.182-.224.289-.336.32-.339.014 0 .092.002.173.006.173.01.323-.003.463-.04.11-.028.138-.024.138.018 0 .033-.011.052-.093.16a3.867 3.867 0 0 0-.137.188 1.403 1.403 0 0 1-.084.111.436.436 0 0 0-.031.044.534.534 0 0 1-.043.059c-.01.01-.04.048-.067.083-.116.152-.33.33-.423.352a5.702 5.702 0 0 1-.286.06c-.166.028-.53.047-.56.028zm-13.79-.04c-.387-.037-.729-.221-.87-.47-.145-.256-.153-.56-.026-1.07.069-.274.138-.412.221-.437.038-.01.041-.01.06.012.017.022.018.033.013.103a3.142 3.142 0 0 1-.042.25c-.039.19-.047.334-.024.43.02.081.074.187.124.243.206.23.556.324 1.193.324.703 0 1.1-.118 1.1-.327 0-.051-.041-.078-.177-.112a2.864 2.864 0 0 0-.458-.07 2.175 2.175 0 0 1-.476-.092c-.15-.068-.22-.22-.206-.446.013-.212.1-.441.261-.684.274-.414.55-.61.802-.569.226.037.467.272.523.51.036.154-.003.22-.094.159a.977.977 0 0 0-.297-.117 1.281 1.281 0 0 0-.43 0 .76.76 0 0 0-.271.13c-.1.082-.204.243-.204.317 0 .036.029.072.074.096.043.022.145.042.308.06.43.05.569.089.685.193.097.087.127.173.127.361 0 .38-.077.6-.277.797-.238.236-.618.373-1.132.41a3.87 3.87 0 0 1-.506 0zm2.517-.122c-.382-.04-.502-.095-.424-.194.029-.036.07-.061.23-.136.343-.163.587-.306.773-.455.198-.157.297-.313.285-.443-.012-.124-.16-.31-.428-.54a16.204 16.204 0 0 1-.112-.095c-.005-.004.012-.043.037-.086.077-.134.242-.387.273-.42.028-.029.031-.03.055-.017.101.053.258.308.319.519.08.279.086.633.014.958-.085.382-.335.806-.53.898-.053.026-.061.027-.21.026a3.51 3.51 0 0 1-.282-.015zm1.668.004c-.29-.03-.403-.054-.464-.1-.036-.028-.04-.055-.012-.098a.485.485 0 0 1 .138-.094c.004 0 .088-.04.186-.087.515-.25.826-.481.935-.696a.294.294 0 0 0 .027-.118c.004-.07.002-.08-.027-.14-.058-.118-.202-.272-.458-.493l-.06-.051.077-.125c.11-.18.22-.345.249-.377.031-.033.046-.027.117.046.175.182.298.513.316.847.012.228-.029.535-.1.75-.105.321-.314.637-.477.718-.058.029-.06.03-.21.028-.085 0-.19-.005-.237-.01zm9.2-.07a.28.28 0 0 1-.057-.075.343.343 0 0 0-.016-.044c-.027-.06-.041-.168-.046-.348-.005-.206.004-.28.062-.484.013-.048.028-.105.032-.127.018-.083.139-.346.188-.406.028-.035.065-.088.084-.122.055-.098.163-.252.182-.259.025-.01.056.012.056.038 0 .01.006.022.012.028a.344.344 0 0 1 .02.107.773.773 0 0 0 .042.242.359.359 0 0 0 .02.059l.05.117a.389.389 0 0 0 .111.161c.041.041.11.105.154.143.043.037.08.074.08.08.002.04-.688.784-.849.915-.047.039-.068.035-.126-.024zm-5.796-.716a.464.464 0 0 1-.214-.13.76.76 0 0 1-.083-.134c-.09-.182-.112-.347-.118-.846a52.74 52.74 0 0 0-.021-.875l-.016-.518.043-.038a6 6 0 0 1 .328-.254c.073-.05.094-.047.103.012.004.024.007.464.008.978 0 .6.005.95.011.978.014.06.054.115.101.14a.397.397 0 0 0 .246.012c.065-.024.086-.06.122-.2.032-.128.058-.19.083-.2.017-.007.031.019.104.185.082.185.123.23.21.23.121-.001.195-.08.238-.256.036-.142.058-.177.1-.155.026.014.04.047.077.174.018.06.044.129.059.152.061.097.214.114.286.032.025-.029.034-.054.068-.177.034-.126.048-.156.081-.178.023-.015.026-.014.044.002.011.01.031.056.045.102.058.198.086.246.165.284.04.019.063.02.238.022.265.002.426-.023.49-.076.019-.016.03-.035.03-.05 0-.054-.08-.206-.308-.585-.162-.27-.2-.342-.2-.378 0-.061.09-.353.13-.423.019-.034.031-.042.11-.07a29.879 29.879 0 0 0 .572-.215l.195-.074.21-.078.294-.107c.515-.19.558-.205.573-.19.007.008.01.086.01.23 0 .25.01.228-.102.267-.065.023-.119.042-.373.138l-.196.073a13.577 13.577 0 0 0-.597.226c-.253.09-.367.135-.367.146 0 .004.03.057.065.118.161.277.232.445.263.63.029.17.012.393-.044.568a.847.847 0 0 1-.298.413.807.807 0 0 1-.26.1 1.444 1.444 0 0 1-.386-.005.329.329 0 0 1-.172-.155c-.025-.047-.037-.052-.053-.02a.356.356 0 0 1-.205.181c-.126.034-.272-.03-.358-.156-.019-.028-.038-.05-.044-.05-.006 0-.017.012-.026.027a.645.645 0 0 1-.166.16c-.143.072-.311.004-.426-.174-.011-.017-.013-.017-.034.011a.482.482 0 0 1-.23.18 1.791 1.791 0 0 1-.405-.004zm7.392-.354c-.025-.006-.034-.02-.034-.054 0-.036.04-.125.068-.15a1.751 1.751 0 0 0 .216-.304 1.08 1.08 0 0 0 .055-.093c.015-.029.048-.083.073-.121.025-.038.086-.141.135-.23a8.888 8.888 0 0 1 .17-.295c.024-.043.03-.047.082-.057.031-.006.104-.026.162-.044a.95.95 0 0 1 .12-.034c.027 0 .13-.056.261-.143.07-.045.127-.082.129-.082.002 0 .006.009.009.02.01.039-.013.106-.162.478-.016.04-.051.12-.078.176l-.068.147c-.047.103-.11.223-.148.278a35.79 35.79 0 0 0-.186.28 1.2 1.2 0 0 1-.075.105c-.027.029-.121.055-.27.076a.872.872 0 0 0-.068.014 1.321 1.321 0 0 1-.391.033zm-.465-.05a1.111 1.111 0 0 0-.08-.062c-.063-.042-.154-.166-.23-.312-.09-.174-.093-.19-.106-.47a.732.732 0 0 1 .028-.283 2.38 2.38 0 0 1 .07-.245.847.847 0 0 0 .034-.105.25.25 0 0 1 .02-.053.22.22 0 0 0 .02-.063c0-.012.038-.096.084-.186l.123-.238c.048-.094.07-.122.089-.115.016.006.073.17.099.286.009.038.02.082.027.098.02.052.145.21.246.312l.1.099.154.058a.678.678 0 0 1 .165.076c.01.019-.026.094-.075.158a.196.196 0 0 0-.025.037c0 .003-.068.12-.152.258l-.173.288a3.598 3.598 0 0 1-.137.206.902.902 0 0 1-.078.09.261.261 0 0 0-.047.056.204.204 0 0 1-.034.05.503.503 0 0 0-.05.07c-.007.015-.017.027-.021.027a.261.261 0 0 1-.051-.037zm-6.004-1.475a1.728 1.728 0 0 1-.13-.146c-.01-.02-.008-.028.032-.08a2.39 2.39 0 0 1 .131-.148l.087-.092.105.106c.058.059.112.117.12.129.008.012.02.021.027.022.006 0 .067-.059.135-.13l.124-.13.138.138a.753.753 0 0 1 .138.158.236.236 0 0 1-.05.078 1.927 1.927 0 0 1-.219.218c-.01 0-.218-.215-.233-.24-.004-.008-.013-.014-.02-.013-.005 0-.063.057-.127.127a.936.936 0 0 1-.129.126.945.945 0 0 1-.13-.123zm6.9-.034l-.176-.095a.59.59 0 0 1-.207-.164.619.619 0 0 1-.171-.264 1.397 1.397 0 0 1-.098-.373 2.285 2.285 0 0 1 .01-.463l.02-.098c.025-.129.042-.195.06-.235a.849.849 0 0 0 .03-.087c.015-.05.038-.07.064-.054a.5.5 0 0 1 .066.108.788.788 0 0 0 .112.184c.01.006.079.11.079.118 0 .016.06.069.107.092.03.015.078.04.108.057.03.016.07.032.088.035l.078.017c.08.017.21.037.292.044l.082.007-.004.03a3.74 3.74 0 0 1-.096.354c-.019.054-.058.164-.102.294-.03.087-.065.174-.1.245a.661.661 0 0 0-.033.076.852.852 0 0 1-.037.087c-.021.045-.041.09-.045.103-.01.032-.047.027-.128-.018zm.388 0a.344.344 0 0 1 .025-.088c.033-.07.07-.168.07-.182 0-.007.005-.013.01-.013.006 0 .01-.01.01-.02s.004-.02.01-.024c.005-.003.01-.013.01-.02 0-.009.009-.034.02-.057.026-.054.082-.203.122-.324.077-.238.14-.444.147-.48.018-.097-.005-.079.258-.204.03-.014.118-.074.196-.133.078-.059.148-.107.155-.108.013 0 .01.054-.008.162a5.873 5.873 0 0 0-.02.122.985.985 0 0 1-.02.103.22.22 0 0 0-.01.053.296.296 0 0 1-.008.058 2.51 2.51 0 0 1-.118.458 3.86 3.86 0 0 1-.163.251c-.035.05-.2.213-.268.264-.268.2-.288.213-.37.22l-.053.004zm-12.79-.162a1.516 1.516 0 0 1-.2-.22c-.02-.03-.023-.04-.014-.057.03-.055.25-.294.27-.294.033 0 .298.28.298.313 0 .012-.05.075-.118.152-.11.123-.15.16-.168.16a.45.45 0 0 1-.068-.054zm5.77-.308a2.28 2.28 0 0 1-.13-.142c-.015-.023-.015-.026.009-.058a2.43 2.43 0 0 1 .223-.25c.015-.007.04.012.155.126.076.074.138.14.138.146 0 .028-.245.296-.27.296a.964.964 0 0 1-.125-.118zm6.95-.944a1.215 1.215 0 0 1-.176-.074.583.583 0 0 1-.211-.15.604.604 0 0 1-.15-.215 1.114 1.114 0 0 1-.11-.289 1.683 1.683 0 0 1-.045-.517c.006-.23.018-.381.039-.48.01-.051.013-.055.04-.055.026 0 .033.007.054.05a.591.591 0 0 0 .052.084.179.179 0 0 1 .027.041.74.74 0 0 0 .057.092.42.42 0 0 0 .128.134c.038.027.08.057.09.067.026.02.167.089.214.103a.883.883 0 0 0 .326.028c.092-.003.095.006.065.257a6.22 6.22 0 0 0-.019.24 7.22 7.22 0 0 1-.02.256 1.9 1.9 0 0 0-.01.142c0 .1-.042.245-.084.286-.02.02-.187.02-.267 0zm.588-.163c-.016-.015-.014-.107.003-.179a.54.54 0 0 0 .014-.1.7.7 0 0 1 .02-.122 2.14 2.14 0 0 0 .029-.247 3.73 3.73 0 0 1 .025-.26c.008-.05.014-.119.015-.151 0-.063.009-.08.054-.109a5 5 0 0 0 .162-.118.745.745 0 0 0 .18-.163c.063-.089.095-.095.122-.023l.039.098c.01.022.031.383.024.402a1.646 1.646 0 0 0-.015.133 8.694 8.694 0 0 1-.018.19.58.58 0 0 1-.218.385c-.07.055-.402.276-.416.276a.04.04 0 0 1-.02-.011zm-5.466-.153a3.226 3.226 0 0 1-.299-.314c-.128-.145-.165-.193-.165-.21 0-.047.436-.553.476-.553.01 0 .261.253.362.362.032.035.08.09.105.124.054.07.055.062-.034.18a5.64 5.64 0 0 1-.381.398l-.035.031zm-4.798.002a1.067 1.067 0 0 1-.553-.318 2.217 2.217 0 0 1-.469-.752 2.966 2.966 0 0 1-.123-.52c0-.004-.683-.008-1.518-.01-1.652-.003-1.554 0-1.704-.057a.829.829 0 0 1-.224-.145 1.148 1.148 0 0 1-.232-.374 2.699 2.699 0 0 1-.097-.395c-.044-.254-.05-.403-.06-1.233a53.165 53.165 0 0 0-.049-1.901 4.149 4.149 0 0 1-.007-.25l.053-.046c.37-.322.643-.527.701-.527.042 0 .041-.035.047 1.726.004 1.335.008 1.683.018 1.722.035.13.102.226.19.268.107.05.087.05 1.55.05h1.357l.024-.105a2.42 2.42 0 0 1 .666-1.197 1.4 1.4 0 0 1 .65-.392.725.725 0 0 1 .21-.022c.13 0 .134 0 .2.03.163.078.287.273.308.487.036.353-.136.728-.505 1.1a.971.971 0 0 0-.088.095c.002.002.62.004 1.373.004 1.755.002 1.878-.005 2.305-.118.268-.071.918-.305.917-.33a.361.361 0 0 0-.085-.04c-.1-.04-.24-.1-.575-.25a3.562 3.562 0 0 0-.503-.205c-.245-.074-.344-.074-.494.001a.809.809 0 0 0-.204.168c-.074.073-.149.14-.166.15-.039.02-.094.022-.12.003-.05-.035-.056-.19-.014-.338.062-.223.282-.54.518-.749.203-.18.39-.247.563-.206.197.048.562.183.89.328l.161.07c.068.027.143.06.167.07.062.027.261.11.371.154.352.14.826.246 1.184.263.313.015.322.035.165.38-.107.237-.255.506-.298.541-.03.025-.134.036-.294.031a.737.737 0 0 0-.25.018c-.17.04-.431.166-.76.363a36.04 36.04 0 0 1-.758.441 3.452 3.452 0 0 1-.862.345c-.29.07-.207.067-1.765.07l-1.404.004.123.124c.155.156.24.269.312.416a.82.82 0 0 1 .1.393.604.604 0 0 1-.359.578.764.764 0 0 1-.397.088c-.088.002-.172 0-.185-.002zm.35-.794c.113-.043.13-.115.06-.257-.066-.131-.25-.305-.528-.496l-.073-.05-.306-.003-.306-.003.006.039c.009.054.068.214.104.278.115.207.347.4.565.468.06.019.143.037.21.045a.8.8 0 0 0 .267-.021zm-.436-2.039c.097-.094.184-.213.223-.307a.412.412 0 0 0 .037-.166c.004-.079.002-.096-.017-.135-.026-.054-.068-.081-.148-.095-.23-.041-.467.138-.658.5a2.557 2.557 0 0 0-.124.27c0 .002.138.004.307.004h.306zm10.103 1.744a.179.179 0 0 0-.05-.004c-.017.01-.283-.08-.331-.111a1.973 1.973 0 0 1-.255-.227 1.25 1.25 0 0 1-.206-.313.59.59 0 0 1-.073-.21 3.15 3.15 0 0 0-.023-.133 3.347 3.347 0 0 1 .01-.489c.012-.07.024-.081.052-.048a.25.25 0 0 1 .027.035c.005.012.16.15.169.15.003 0 .046.019.096.042a.97.97 0 0 0 .233.094c.077.017.204.03.332.033l.112.003.007.053c.03.22.037.393.034.736-.002.297-.005.362-.017.373-.02.018-.064.024-.117.015zm.378-.19c-.03-.02-.035-.093-.045-.554a7.421 7.421 0 0 0-.02-.474.606.606 0 0 1-.01-.044c0-.011.084-.116.146-.181.036-.038.117-.147.18-.242.064-.096.12-.174.124-.174.017 0 .03.03.055.118.014.05.03.108.037.127.007.021.012.156.014.367.004.37-.002.417-.069.601-.059.162-.103.228-.25.37-.11.106-.125.114-.162.087zM5.099 12.06c-.376-.058-.621-.342-.68-.786a4.299 4.299 0 0 1 .015-.666c.036-.26.122-.397.227-.363.049.017.086.075.122.19a.81.81 0 0 0 .145.298.607.607 0 0 0 .213.117c.119.04.228.053.516.057.574.01.97-.05 1.128-.17a.175.175 0 0 0 .066-.153.59.59 0 0 0-.12-.227c-.169-.212-.685-.66-.952-.823-.231-.143-.302-.158-.434-.095l-.075.035-.043-.016c-.035-.013-.046-.024-.058-.055-.033-.082-.015-.208.064-.45.103-.314.237-.612.314-.7.057-.064.084-.075.15-.063.172.032.351.159.562.399.136.155.224.272.376.501.196.295.319.52.404.736.093.236.11.32.11.562 0 .605-.115 1.08-.319 1.318a.823.823 0 0 1-.3.238 1.224 1.224 0 0 1-.456.12c-.145.014-.876.011-.975-.004zm17.476-.91a1.563 1.563 0 0 0-.15-.008l-.147-.004-.113-.056a.793.793 0 0 1-.264-.193.725.725 0 0 1-.205-.344.234.234 0 0 0-.01-.06 2.11 2.11 0 0 1-.063-.504 6.248 6.248 0 0 0-.012-.278c-.006-.066-.006-.067.016-.06.012.004.077.044.144.09a.7.7 0 0 0 .233.116c.147.046.187.052.367.058l.153.005c.007.002.036.07.043.098.057.248.118.58.127.687.026.336.028.436.009.448a.328.328 0 0 1-.128.005zm.356-.239a.104.104 0 0 1-.006-.056c.005-.033-.007-.114-.047-.336a2.234 2.234 0 0 1-.018-.162 1.798 1.798 0 0 0-.014-.13 21.365 21.365 0 0 0-.085-.359.662.662 0 0 0-.02-.071.28.28 0 0 1-.008-.075c0-.04.005-.06.022-.08.046-.06.208-.318.25-.4.02-.041.051-.073.07-.073.016 0 .059.038.059.052 0 .004.015.04.033.08.019.04.04.091.049.114l.045.125a.74.74 0 0 1 .054.176 75.227 75.227 0 0 1 .035.265.956.956 0 0 1-.016.426c-.015.05-.089.182-.157.279-.158.226-.214.277-.246.225zm-.717-1.239a.288.288 0 0 0-.061-.014 1.597 1.597 0 0 1-.295-.147.477.477 0 0 1-.061-.036 1.495 1.495 0 0 1-.299-.28 1.764 1.764 0 0 1-.152-.295 3.547 3.547 0 0 1-.086-.343c-.009-.036-.01-.11-.001-.119.003-.003.022.005.043.019a.35.35 0 0 0 .076.037c.021.007.054.02.073.03a.882.882 0 0 0 .122.038.6.6 0 0 0 .23.016 1.72 1.72 0 0 0 .275-.035c.004 0 .017.023.029.05a4.024 4.024 0 0 1 .183.457c.013.042.039.114.057.163.018.048.038.107.044.132a.7.7 0 0 0 .024.073c.007.016.024.066.038.11.042.132.023.16-.111.158a.568.568 0 0 1-.128-.014zm.463-.29a.565.565 0 0 1-.032-.086 8.066 8.066 0 0 0-.108-.308 4.567 4.567 0 0 1-.054-.167 10.603 10.603 0 0 0-.123-.385.594.594 0 0 1-.028-.1c0-.01.019-.04.042-.065a.712.712 0 0 0 .069-.088c.046-.074.14-.33.169-.457.011-.054.037-.053.069.005a1.377 1.377 0 0 1 .174.338l.063.156c.076.173.11.366.09.513a.846.846 0 0 1-.071.245 4.091 4.091 0 0 0-.141.262c-.047.093-.086.149-.103.149-.004 0-.011-.006-.016-.012zm-.981-1.036a.922.922 0 0 1-.318-.078c-.148-.061-.149-.062-.207-.175a2.305 2.305 0 0 1-.088-.196l-.062-.161a1.401 1.401 0 0 1-.079-.286.07.07 0 0 1 .018-.046c.016-.014.023-.014.061-.003.024.007.06.02.08.03.098.042.172.053.37.05a1.63 1.63 0 0 1 .207.006c.023.012.063.093.135.277l.017.044.023.06c.006.018.05.117.098.22.047.101.089.197.092.212.013.051-.002.056-.155.055-.076 0-.163-.005-.192-.01zm.505-.277a1.211 1.211 0 0 1-.109-.216 2.135 2.135 0 0 1-.073-.167c0-.003-.019-.043-.04-.09-.063-.131-.09-.209-.091-.252 0-.03.012-.06.055-.134.081-.14.131-.247.156-.335.019-.067.026-.08.049-.087.018-.007.03-.006.04.003.022.017.114.208.172.357l.059.147c.012.027.04.155.046.21a.292.292 0 0 1-.02.125 1.53 1.53 0 0 0-.03.103 1.268 1.268 0 0 1-.027.095l-.046.142c-.023.072-.047.099-.097.109a.047.047 0 0 1-.044-.01zm-.857-.794a1.584 1.584 0 0 1-.335-.063c-.11-.036-.143-.059-.19-.131a1.577 1.577 0 0 1-.13-.305.127.127 0 0 0-.016-.04c-.022-.043-.018-.078.01-.097.022-.014.034-.015.096-.005.09.014.237.012.374-.004.089-.01.11-.01.127 0 .02.012.114.185.142.26a.526.526 0 0 0 .038.073c.013.021.046.08.072.132l.056.103c.015.02.017.053.003.072-.012.017-.023.02-.08.02a3.106 3.106 0 0 1-.168-.015zM21.723 7a2.577 2.577 0 0 0-.15-.271.697.697 0 0 1-.092-.186c0-.02.004-.03.06-.13a.692.692 0 0 0 .046-.092 2.26 2.26 0 0 0 .07-.231c0-.035.032-.128.046-.133.05-.02.158.136.24.342a.761.761 0 0 1 .047.369.645.645 0 0 1-.07.193 2.572 2.572 0 0 0-.072.115.703.703 0 0 1-.075.11.381.381 0 0 1-.05-.086zm-.859-.535a1.32 1.32 0 0 1-.274-.089.275.275 0 0 1-.075-.057 1.41 1.41 0 0 1-.179-.373.823.823 0 0 1-.044-.136c-.003-.031.032-.057.067-.05l.09.015c.032.005.078.014.102.02l.127.03c.046.01.101.026.123.034a.462.462 0 0 1 .182.188.51.51 0 0 0 .047.075c.005.003.016.03.026.062.01.03.032.086.05.123.046.094.05.118.02.137a.454.454 0 0 1-.168.034.784.784 0 0 1-.094-.013zm.459-.17a.143.143 0 0 1-.037-.057 1.327 1.327 0 0 0-.09-.186 3.66 3.66 0 0 1-.124-.221.165.165 0 0 1 0-.159 1.41 1.41 0 0 0 .081-.205c.061-.184.077-.2.14-.15.022.018.04.037.04.042 0 .005.022.033.048.062.055.06.096.153.11.248.012.086.011.3-.002.362-.027.131-.072.241-.108.267-.028.02-.03.019-.058-.003zM7.38 6.104c-.023-.035-.033-.09-.045-.237a42.31 42.31 0 0 0-.025-.293c-.023-.266-.028-.424-.015-.502.04-.232.224-.384.498-.41l.07-.006v-.052c0-.055.013-.102.029-.102.005 0 .083.05.173.11.292.196.364.23.537.251.108.013.269.014.269.002 0-.005-.014-.019-.03-.03a.19.19 0 0 1-.058-.248c.025-.05.167-.192.191-.192.033 0 .01-.03-.035-.044a.182.182 0 0 1-.053-.025c-.006-.01.094-.27.13-.335.036-.069.047-.072.12-.034.099.051.312.19.444.289.444.33.596.627.45.877a.406.406 0 0 1-.169.15c-.124.037-.257-.002-.526-.154l-.039-.023-.039.027a1.02 1.02 0 0 1-.234.112 1.03 1.03 0 0 1-.401.041.458.458 0 0 0-.052-.01.442.442 0 0 0-.008.114c0 .125-.01.173-.049.233-.095.147-.344.13-.487-.036a.83.83 0 0 1-.16-.435l-.005-.075-.09.006a.657.657 0 0 0-.135.022c-.055.018-.111.077-.12.125-.004.019-.002.167.003.33.01.313.006.383-.027.47-.024.06-.036.079-.066.094-.028.016-.03.015-.046-.01zm.944-.721c.057-.016.087-.05.087-.1 0-.03-.006-.049-.017-.059a7.86 7.86 0 0 0-.395-.262c-.013 0 .002.108.025.181.055.178.176.274.3.24zm1.572-.374c.02-.02.013-.062-.016-.102-.041-.056-.253-.219-.286-.219-.009 0-.019.018-.027.052a.414.414 0 0 1-.041.098.311.311 0 0 0-.03.054c0 .01.11.069.187.1.07.03.19.04.213.017zm-.543-.22c.087-.04.085-.148-.003-.218a.314.314 0 0 0-.188-.078.235.235 0 0 0-.148.053c-.021.021-.02.063.001.089.049.058.235.17.281.17a.163.163 0 0 0 .057-.015zm1.917 1.02l-.093-.092.02-.028c.041-.052.16-.17.174-.17.017 0 .2.175.2.192 0 .017-.176.19-.194.19a.57.57 0 0 1-.107-.092zm9.203-.218a1.412 1.412 0 0 1-.202-.073.393.393 0 0 1-.04-.084c-.03-.075-.03-.077-.042-.385-.013-.346-.011-.368.043-.4.04-.025.071-.024.14.001.032.012.079.026.106.033a.84.84 0 0 1 .215.108.615.615 0 0 0 .068.042.41.41 0 0 1 .075.054c.02.019.05.044.067.056a.457.457 0 0 1 .07.072l.04.05-.006.079c-.013.176-.02.211-.067.298-.04.075-.05.086-.095.109a.804.804 0 0 1-.371.04zM13.82 5.31a.612.612 0 0 1-.252-.223.356.356 0 0 0-.035-.047.44.44 0 0 0-.038.057.486.486 0 0 1-.168.164c-.04.017-.274.02-.33.004-.092-.025-.166-.118-.21-.264a.666.666 0 0 0-.033-.09c-.004-.005-.02.02-.038.056-.04.081-.062.097-.125.088a.976.976 0 0 1-.39-.166c-.036-.034-.036-.034-.032-.1.01-.168.108-.271.407-.43.088-.046.09-.048.086-.076a1.568 1.568 0 0 1-.012-.079l-.006-.05.088-.117c.048-.064.1-.127.113-.14l.026-.023.01.023c.005.013.032.184.06.38.06.434.07.48.11.525.042.049.086.064.183.066.067.001.09-.002.116-.018.062-.036.072-.06.08-.188.01-.158.041-.239.119-.313a.319.319 0 0 1 .186-.09.287.287 0 0 1 .216.041c.072.047.091.071.188.232.118.196.147.24.187.278.06.058.084.064.237.064a.633.633 0 0 0 .138-.008.2.2 0 0 0-.038-.045.31.31 0 0 1-.054-.07.203.203 0 0 1 .003-.156.57.57 0 0 1 .167-.18c.055-.036.06-.045.027-.053a.509.509 0 0 1-.058-.02l-.035-.015.052-.137c.06-.158.092-.223.12-.248.019-.018.02-.018.057 0 .062.03.128.07.273.165.586.384.8.701.664.989a.402.402 0 0 1-.16.169c-.111.05-.28.01-.495-.116-.084-.05-.089-.051-.112-.037a1.121 1.121 0 0 1-.358.153c-.093.018-.36.01-.407-.013a.43.43 0 0 1-.133-.126c-.009-.015-.02-.027-.027-.027-.006 0-.022.023-.035.05a.39.39 0 0 1-.15.16.324.324 0 0 1-.182 0zm1.916-.335c.003-.037 0-.045-.052-.1-.053-.057-.231-.187-.257-.187-.007 0-.012.007-.012.015a.516.516 0 0 1-.088.188c0 .009.165.095.22.115a.373.373 0 0 0 .113.012l.073-.002zm-1.666.004c.034-.049.015-.162-.051-.3-.074-.155-.176-.235-.264-.206-.107.036-.068.269.072.43.078.088.206.129.243.077zm1.117-.19c.046-.021.062-.048.062-.102 0-.038-.006-.051-.038-.089a.39.39 0 0 0-.103-.075c-.057-.03-.07-.032-.127-.029a.169.169 0 0 0-.106.034c-.05.034-.057.066-.027.105.045.057.233.172.282.173a.165.165 0 0 0 .057-.016zm-2.452-.04c0-.026-.04-.26-.045-.265a.554.554 0 0 0-.165.08c-.068.044-.113.084-.113.1 0 .021.165.084.25.096.063.008.073.007.073-.01zm-1.84.517a.27.27 0 0 1-.124-.082.404.404 0 0 1-.101-.205c-.018-.07-.022-.128-.03-.457a32.142 32.142 0 0 0-.018-.587l-.01-.21.026-.02c.167-.127.27-.191.284-.177.004.004.01.285.013.625l.005.618.023.032c.037.052.07.064.197.069.184.007.275-.02.282-.083.004-.037-.053-.114-.16-.221l-.077-.076.106-.156.105-.156.027.014c.056.029.116.136.163.294a.574.574 0 0 1 .027.21.661.661 0 0 1-.067.327.454.454 0 0 1-.198.213l-.066.032-.19.002a1.848 1.848 0 0 1-.216-.006zm8.922-.89a2.188 2.188 0 0 1-.267-.265c-.048-.055-.057-.061-.066-.047-.025.042-.165.05-.265.014a.442.442 0 0 1-.188-.123c-.091-.087-.132-.194-.104-.278.024-.074.127-.163.229-.198.072-.025.072-.012.002.044a.46.46 0 0 0-.085.082c-.064.105.03.246.232.349a.32.32 0 0 0 .08.03c.017 0 .061-.06.208-.281l.189-.283a.966.966 0 0 1 .159.024c.01.005-.01.036-.071.115-.047.059-.128.165-.182.236l-.098.13.125.134c.12.13.151.159.138.13a1.753 1.753 0 0 0-.04-.093c-.083-.188-.052-.241.141-.242.114-.001.158.016.186.072.067.13-.049.374-.217.46-.048.024-.056.024-.107-.01zm.21-.233c.035-.113.03-.176-.014-.208-.036-.026-.127-.039-.127-.019 0 .024.11.283.118.278a.172.172 0 0 0 .022-.051zm-16.26.08c-.03-.02-.055-.105-.056-.185 0-.063.003-.077.046-.166l.047-.097-.02-.022c-.02-.02-.02-.026-.01-.078l.01-.06c0-.02.045.02.158.136.116.12.137.137.154.13.021-.01.324-.289.324-.299 0-.003-.082-.08-.182-.17-.125-.113-.18-.17-.177-.18.002-.01.012-.05.02-.092.01-.042.02-.076.026-.076.005 0 .038.034.075.075.115.13.327.355.335.355a.845.845 0 0 0 .094-.075l.127-.108.038-.032-.175-.176-.176-.175.023-.094a.335.335 0 0 1 .03-.093c.004 0 .034.032.065.071.03.039.117.141.19.227.14.165.215.262.215.279 0 .019-.068.085-.217.211-.082.07-.233.207-.337.305-.103.098-.2.183-.214.189-.034.012-.085 0-.136-.036l-.038-.026.007.033c.021.107.022.101-.034.145-.105.084-.173.11-.211.084zm.066-.182c.034-.012.048-.022.106-.074l.035-.03-.053-.055a.334.334 0 0 0-.062-.055.554.554 0 0 0-.081.184c-.007.046-.001.05.055.03zm16.375-.153a5.049 5.049 0 0 1-.027-.088c-.002-.009.012-.012.05-.012h.054l.03.088.03.088h-.113zm-.15-.112l-.03-.08a.513.513 0 0 1-.022-.07.529.529 0 0 1 .052-.01l.05-.007.03.085c.018.047.032.087.032.09 0 .01-.109.002-.113-.009zM5.134 3.697a.847.847 0 0 1 .033-.28c.011-.011.017-.012.026-.003.009.009.009.039 0 .127a2.584 2.584 0 0 1-.018.136c-.006.026-.027.036-.04.02zm13.127-.057c-.15-.018-.183-.03-.167-.056.007-.012.035-.011.191.008.1.012.19.024.197.027.008.003.013.013.012.021-.004.023-.052.023-.233 0zm2.259-.11c-.01-.02-.02-.024-.076-.028-.08-.007-.14-.03-.132-.051.007-.018 0-.018.069 0a.46.46 0 0 0 .083.014c.023 0 .027-.004.027-.024 0-.014.011-.036.025-.05.02-.02.032-.024.075-.021.062.004.08.023.057.063a.124.124 0 0 1-.047.041c-.025.013-.03.02-.026.037.003.015-.001.025-.014.032-.027.014-.03.013-.041-.013zm.072-.078c.023-.018.022-.052-.003-.06-.027-.01-.049.011-.049.045 0 .032.022.038.052.015zM3.87 3.255c-.03-.016-.054-.065-.044-.09.006-.014.008-.014.021.006.019.027.05.027.063 0 .01-.016.008-.03-.005-.062-.009-.023-.013-.049-.009-.058.006-.015.008-.015.024 0a.06.06 0 0 0 .04.012c.03-.004.036-.044.013-.087-.01-.022-.013-.034-.006-.041.022-.022.09.064.09.113 0 .026-.033.06-.067.07-.018.006-.022.014-.022.05a.1.1 0 0 1-.025.072c-.028.034-.037.035-.073.015zm14.726-.026a.928.928 0 0 1 .064-.092 2.18 2.18 0 0 0 .124-.195l.111-.192.044-.074.05-.006a1.07 1.07 0 0 1 .096-.006h.047l-.07.114c-.1.164-.262.406-.281.42a.41.41 0 0 1-.143.038c-.039.006-.047.004-.042-.007zm-.214-.154a1.418 1.418 0 0 1-.122-.084 33.83 33.83 0 0 0-.184-.14.62.62 0 0 1-.116-.101c-.003-.01-.01-.018-.018-.018-.052 0-.2-.125-.237-.2-.02-.04-.025-.044-.043-.034-.039.021-.097.004-.194-.055a.963.963 0 0 1-.124-.089c-.052-.05-.047-.076.07-.359l.113-.272c.01-.021.02-.027.062-.032.073-.009.114-.008.114.003 0 .005-.052.121-.117.257a2.64 2.64 0 0 0-.117.27c0 .012.012.03.031.045.06.044.212.133.23.133.01 0 .042-.014.071-.032.114-.069.208-.085.27-.047.05.03.058.07.038.2a1.83 1.83 0 0 0-.018.125c-.001.014.063.065.28.221.025.019.05.03.056.027.006-.003.01-.044.01-.092v-.086l.07-.02a.665.665 0 0 1 .084-.022c.017 0 .016.117 0 .183-.03.106-.11.248-.142.247a.232.232 0 0 1-.066-.028zm-.391-.496a.31.31 0 0 0 .006-.067c0-.047-.003-.055-.032-.079-.028-.024-.037-.026-.084-.02a.204.204 0 0 0-.058.01c-.015.015.041.093.093.131.062.046.067.047.075.025zM5.79 3.024c-.054-.012-.049-.029.013-.043.178-.04.324-.2.343-.374l.007-.062-.085.045c-.073.038-.092.044-.144.044-.053 0-.062-.003-.086-.029-.074-.078-.09-.317-.025-.386.02-.022.031-.025.082-.025.089 0 .156.03.215.093l.048.053.088-.058c.055-.037.09-.066.094-.08a.783.783 0 0 0 .006-.112c0-.113.018-.167.07-.215.052-.047.085-.042.167.024.142.113.177.18.139.26-.032.068-.182.142-.284.142h-.05l-.007.037c-.006.04-.03.068-.107.12-.028.018-.045.036-.042.044a.76.76 0 0 1 .016.09.56.56 0 0 1-.03.276.296.296 0 0 1-.153.148.64.64 0 0 1-.275.008zm.21-.58c.03-.015.053-.032.053-.04 0-.012-.085-.044-.118-.044a.076.076 0 0 0-.071.094c.006.024.01.025.044.02A.386.386 0 0 0 6 2.445zm.547-.326c.074-.031.08-.051.026-.088-.079-.052-.168-.002-.168.095 0 .027.002.028.039.024a.454.454 0 0 0 .103-.03zm-2.757.83c-.037-.037-.045-.052-.045-.08v-.033l.019.024a.63.63 0 0 1 .077.132.196.196 0 0 1-.05-.042zm1.737-.17c-.033-.05-.1-.136-.15-.193a8.39 8.39 0 0 1-.142-.168l-.053-.064.017-.094a.31.31 0 0 1 .024-.094c.01 0 .136.158.292.361l.1.133-.005.095a.393.393 0 0 1-.014.106c-.006.006-.03-.02-.07-.081zm12.97-.38a.41.41 0 0 1-.048-.07.905.905 0 0 1 .1-.056.89.89 0 0 1 .113.141 1.274 1.274 0 0 1-.11.055.65.65 0 0 1-.056-.07zM7.033 2.312c-.078-.02-.11-.035-.11-.05 0-.004.016-.01.037-.01a.432.432 0 0 0 .4-.34c.005-.04.004-.043-.012-.036-.129.054-.196.065-.252.041-.056-.023-.08-.082-.08-.202 0-.12.008-.159.045-.2.035-.04.063-.044.142-.02a.29.29 0 0 1 .162.123.39.39 0 0 0 .033.048c.01 0 .294-.12.3-.126.005-.004-.037-.008-.092-.008-.148 0-.184-.02-.184-.1 0-.087.054-.225.104-.264.05-.04.127-.02.199.05.06.057.095.111.118.18a.21.21 0 0 0 .027.063c.013 0 .35-.13.362-.14.015-.012-.01-.041-.077-.087L8.11 1.2l.024-.078a1.17 1.17 0 0 1 .029-.086c.012-.02.1.054.148.126.054.078.108.221.097.252a.247.247 0 0 1-.077.048 4.513 4.513 0 0 1-.478.174l-.054.03c-.04.023-.148.072-.273.123l-.067.027-.002.117c-.003.178-.045.284-.137.347-.076.053-.164.062-.286.03zm.21-.572c.023-.01.042-.02.042-.025 0-.011-.098-.058-.123-.058-.033 0-.055.023-.063.068l-.008.042.055-.005a.426.426 0 0 0 .097-.022zm.511-.348a.454.454 0 0 0-.115-.112c-.003.003-.011 0-.019-.006-.02-.017-.07-.012-.093.008a.259.259 0 0 0-.056.1c0 .005.034.011.075.013.175.008.208.007.208-.003zm9.04.657c0-.004.021-.054.048-.11a3.27 3.27 0 0 0 .107-.272c.09-.261.07-.231.172-.264a.613.613 0 0 1 .091-.025 6.93 6.93 0 0 1-.238.588c-.02.032-.18.105-.18.083zm-.32-.187a4.393 4.393 0 0 0-.205-.077c-.189-.065-.385-.15-.39-.17-.005-.012-.017-.017-.042-.017a.591.591 0 0 1-.1-.015 7.8 7.8 0 0 1-.628-.244.218.218 0 0 0-.082-.025c-.063 0-.222-.037-.396-.093a1.743 1.743 0 0 1-.18-.064c-.005-.005-.02-.009-.034-.009-.014 0-.084-.015-.156-.034a.742.742 0 0 0-.176-.032c-.042.003-.045.005-.043.027l.01.167c.006.163-.007.232-.052.274l-.026.024.006-.036a4.117 4.117 0 0 0-.02-.434c-.004-.034 0-.047.035-.1a.254.254 0 0 1 .056-.068.67.67 0 0 1 .13.01.687.687 0 0 0 .12.01c.01-.006-.024-.07-.054-.104-.03-.031-.068-.035-.137-.011-.071.024-.075.013-.016-.05.076-.08.125-.106.186-.1.07.007.096.036.157.175a.736.736 0 0 0 .068.131c.033.03.462.162.476.147.008-.008-.068-.105-.143-.183-.052-.054-.072-.069-.088-.065-.014.004-.026-.003-.044-.027-.044-.057-.05-.078-.031-.108.024-.037.068-.051.188-.063.118-.01.395-.013.395-.004a.262.262 0 0 1-.025.05l-.025.042h-.15c-.083 0-.164.003-.182.006l-.031.006.083.084c.135.138.212.244.212.293 0 .035.124.054.165.025.047-.033.096-.203.108-.37l.007-.098.063-.037a.613.613 0 0 1 .07-.037c.003 0 .008.019.01.042a.297.297 0 0 0 .053.13c.015.021.014.023-.028.047-.039.023-.043.03-.054.082a.525.525 0 0 1-.105.216c-.044.05-.038.05.093.016.274-.073.327-.07.425.016.07.06.094.165.059.248-.008.02-.012.04-.007.045.008.007.213.097.222.097.002 0-.002-.018-.01-.04a.294.294 0 0 1-.014-.083c0-.037.005-.049.038-.081a.29.29 0 0 1 .202-.074.15.15 0 0 1 .108.03c.077.05.126.144.12.228l-.003.04-.042-.055a.282.282 0 0 0-.204-.109l-.055-.006.007.029c.025.107.09.211.156.245a.953.953 0 0 0 .106.041.383.383 0 0 1 .079.032.702.702 0 0 1-.14.105l-.093-.038zm-.543-.436c.006-.043-.152-.164-.229-.176a1.066 1.066 0 0 0-.255.024l-.028.008.034.021c.032.02.303.13.348.142.01.003.043.004.073.003.046-.001.054-.004.057-.022zm2.103.417c-.13-.006-.158-.015-.13-.043.01-.011.027-.014.057-.011.022.002.113.007.202.01.16.005.181.01.17.04-.006.015-.055.015-.299.005zM6.149 1.807c-.003-.003 0-.026.008-.05a.392.392 0 0 0 .013-.088c0-.04 0-.043-.028-.043-.042 0-.07-.039-.07-.098 0-.039.005-.05.021-.059.027-.014.065.012.087.057.011.024.02.03.035.026a.035.035 0 0 1 .034.011c.012.015.01.02-.012.038-.021.018-.026.03-.03.089-.007.092-.032.143-.058.117zm.02-.24c.001-.008-.006-.025-.015-.037-.022-.027-.052-.02-.052.014 0 .038.06.058.066.023zm6.949.032c-.017-.006-.014-.03.006-.04.009-.005.076-.027.148-.049.103-.031.134-.038.145-.029.011.01.012.014 0 .025a1.605 1.605 0 0 1-.299.093zm-4.167-.03c-.15-.038-.235-.286-.167-.485.028-.081.048-.097.036-.028-.036.21-.009.312.095.351.039.015.052.015.1.005a.926.926 0 0 0 .29-.143c.055-.044.056-.047.05-.08a.408.408 0 0 0-.099-.178L9.213.965 9.24.897A.502.502 0 0 1 9.273.82c.012-.013.07.045.1.102.06.111.085.314.046.39-.05.098-.273.246-.392.26a.264.264 0 0 1-.076-.004zm2.656-.106c-.016-.015-.003-.032.035-.046l.191-.06c.131-.04.153-.044.165-.032.02.022.005.03-.129.072-.249.076-.252.077-.262.066zm1.678-.182a.218.218 0 0 1-.061-.038c0-.004.013-.03.03-.056l.03-.05.065.036.069.038a.384.384 0 0 1-.065.102.636.636 0 0 1-.068-.032zm-.609-.045a.507.507 0 0 1-.22-.167c-.02-.027-.034-.052-.031-.055.003-.003.02.003.038.014.097.06.27.068.372.017.056-.028.144-.106.144-.128 0-.007-.021-.015-.05-.018a.313.313 0 0 1-.185-.082c-.03-.033-.03-.039-.026-.095.007-.09.085-.232.147-.27.05-.03.08-.025.135.027a.3.3 0 0 1 .104.208l.006.065.162.022c.226.03.232.03.229.006a.47.47 0 0 0-.034-.086l-.031-.066.058-.059.058-.059.021.027c.04.048.057.134.057.268 0 .163-.002.166-.1.166-.042 0-.145-.011-.228-.025-.24-.039-.224-.037-.224-.021a.548.548 0 0 1-.229.295.325.325 0 0 1-.172.016zm.313-.505a.288.288 0 0 0-.057-.095c-.038-.041-.09-.035-.114.013-.014.027-.014.028.017.045.059.03.154.053.154.037zm-5.671.429a.132.132 0 0 1-.042-.007l.015-.055.016-.052.05.006c.028.003.065.006.082.006h.031l-.017.052c-.017.05-.018.051-.056.052a.8.8 0 0 1-.08-.003zM9.6 1.079a2.883 2.883 0 0 0-.084-.355 15.219 15.219 0 0 1-.065-.22L9.436.443 9.488.36c.047-.075.053-.081.06-.061.022.057.144.567.144.6 0 .036-.04.133-.071.175-.012.016-.016.017-.02.005zm-2.04-.013a.754.754 0 0 1-.076-.011.172.172 0 0 1 .01-.051l.014-.048.063.003c.105.005.11.01.074.09-.012.025-.012.025-.085.017zm8.347-.062a8.224 8.224 0 0 0-.07-.06.213.213 0 0 1 .042-.05l.048-.048.076.06.075.06-.045.047a.275.275 0 0 1-.052.046.516.516 0 0 1-.074-.055zm-8.062.017C7.817 1.01 7.794 1 7.794.995c0-.02.045-.112.054-.112a.32.32 0 0 1 .058.015c.066.02.069.019.082-.018.024-.066.028-.068.103-.049.036.01.066.02.066.024a.486.486 0 0 1-.028.065L8.1.978 8.043.96A.826.826 0 0 0 7.98.942a.173.173 0 0 0-.03.048c-.025.054-.028.055-.106.03zm2.282-.05a.144.144 0 0 1-.043-.036c-.02-.024-.021-.036-.017-.096a.316.316 0 0 1 .04-.142 1.66 1.66 0 0 1 .159-.244 1.195 1.195 0 0 0 .156.083.822.822 0 0 1 .113.06c.03.027.031.065.004.142-.03.088-.08.136-.197.195-.083.041-.173.057-.216.039zm.167-.16a.434.434 0 0 0 .146-.063 1.094 1.094 0 0 0-.231-.13c-.004 0-.016.016-.025.035-.009.019-.019.034-.022.034-.003 0-.007.006-.008.013-.012.082-.012.092 0 .102.029.023.075.026.14.009zm.468.113A.118.118 0 0 1 10.73.88a.577.577 0 0 1-.004-.19c.007-.028.023-.029.023-.002a.1.1 0 0 0 .059.086c.023.008.051.007.115-.004.116-.02.149-.031.149-.052a.501.501 0 0 0-.097-.179l-.038-.043.039-.071.04-.071.024.022c.033.03.097.167.119.253l.017.068.15.002c.26.004.45 0 .45-.011a.697.697 0 0 0-.174-.14.24.24 0 0 0-.196-.008c-.072.024-.08.025-.08.006 0-.02.065-.09.1-.108a.3.3 0 0 1 .19-.024c.075.014.143.053.252.145.097.081.152.119.175.119.015 0 .017.01.017.072 0 .046-.004.076-.012.082-.017.013-.277.025-.6.027a1.743 1.743 0 0 0-.292.013c-.016.006-.08.025-.142.04-.13.034-.22.038-.252.013zm1.46-.323a10.673 10.673 0 0 0-.012-.333l-.006-.091.067-.068.068-.068.007.042c.004.023.007.172.007.332v.29l-.043.057a.386.386 0 0 1-.062.069c-.019.011-.02.006-.025-.23zM8.927.76C8.875.755 8.875.754 8.89.677l.011-.05.076.003a.378.378 0 0 1 .082.009c.003.003.002.02-.003.039a1.644 1.644 0 0 0-.014.06c-.006.03-.004.029-.116.02zM7.697.62c0-.01.049-.09.109-.177.103-.15.13-.177.142-.141.007.02-.213.336-.233.336-.011 0-.018-.007-.018-.018zm7.792-.01a.111.111 0 0 1-.063-.125c.014-.05.052-.077.108-.077.043 0 .053.004.078.032a.103.103 0 0 1-.065.174.162.162 0 0 1-.057-.004zm.102-.05c.047-.047.011-.118-.058-.118-.048 0-.079.027-.079.068 0 .042.03.069.079.069.026 0 .045-.007.058-.02zm-.86-.117c0-.014.01-.02.04-.025a.434.434 0 0 0 .084-.025c.038-.017.042-.021.033-.038-.02-.036-.012-.066.024-.098.04-.035.086-.04.102-.012.012.022-.001.074-.026.101-.016.018-.016.02-.001.028.01.006.014.017.01.029-.006.028-.017.032-.05.015-.015-.008-.031-.01-.036-.006a.528.528 0 0 1-.155.05c-.018 0-.025-.005-.025-.019zm.244-.123c.016-.031.007-.054-.023-.054-.027 0-.04.026-.03.058.008.027.037.025.053-.004zM9.307.291A1.62 1.62 0 0 1 9.5.017c.019-.02.047-.022.047-.002 0 .023-.203.291-.22.291a.021.021 0 0 1-.019-.014z"/></svg>