<svg role="img" viewBox="0 0 24 24" xmlns="http://www.w3.org/2000/svg"><path d="M.016 15.635C.025 11.176.04 5.892.049 3.892L.066.257H24v8.891h-4.064l-.02-.716c-.023-.8.004-3.57.036-3.904a2.23 2.23 0 0 0 .017-.22c-.002-.003-1.115-.02-2.474-.036l-2.471-.03-.406-.416a88.048 88.048 0 0 0-2.247-2.161 4.403 4.403 0 0 1-.41-.42c-.097-.131-.162-.163-.189-.093a.45.45 0 0 1-.126.113c-.232.155-.472.39-1.705 1.669L8.673 4.247l-2.09.002c-1.494.001-2.15.012-2.293.035l-.2.032-.031 1.593-.05 2.455-.02.863-1.67 1.798-1.673 1.797.054.084c.146.233 1.016 1.1 2.713 2.708l.449.425.007 2.452.007 2.453.08-.012a1.12 1.12 0 0 1 .201-.004c.067.005.687.01 1.38.012l1.258.004.017.295c.023.41.027 1.751.006 2.162l-.017.342H0l.017-8.108zm9.221 3.784c-.241-.076-.348-.156-.645-.482a2.324 2.324 0 0 0-.257-.255c-.04-.022-.073.006-.202.175-.212.277-.338.378-.55.443-.16.048-.21.051-.51.029-.248-.018-.362-.039-.44-.08-.243-.124-.392-.376-.459-.774-.041-.243-.041-.285.002-.633a3.42 3.42 0 0 0 .036-.382 1.409 1.409 0 0 0-.236.02c-.374.052-.428.045-.707-.093-.179-.09-.282-.16-.36-.249-.3-.34-.378-.835-.194-1.227.06-.127.123-.205.275-.338.298-.26.495-.462.512-.526.012-.047-.024-.09-.196-.234a1.83 1.83 0 0 0-.273-.2c-.136-.051-.287-.522-.287-.893 0-.099.226-.55.33-.658.212-.221.5-.298 1.126-.298h.452l-.017-.074a4.11 4.11 0 0 1-.032-.422l-.016-.348.177-.232c.307-.401.427-.46.922-.457.299.002.344.008.468.07.14.07.51.409.691.632.118.145.158.134.272-.074.202-.372.666-.577 1.117-.494a.58.58 0 0 0 .158.017c.018-.018-.118-.178-.432-.507a13.875 13.875 0 0 1-.676-.79 232.46 232.46 0 0 0-.381-.481c-.007-.007-.063.015-.126.048-.134.072-.413.308-1.05.89-.252.23-.535.477-.63.548-.093.072-.24.193-.324.268-.19.17-.473.27-.43.153.07-.195.436-.572 1.32-1.362.332-.296.673-.613.76-.704.184-.195.184-.2-.001-.525-.146-.255-.484-.736-.517-.736-.024 0-.491.372-1.123.895-.2.166-1.334 1.04-2.52 1.942a153.774 153.774 0 0 0-2.263 1.74c-.189.177-.256.216-.365.216-.057 0-.103-.011-.103-.025 0-.082.07-.171.206-.264.086-.058.237-.179.336-.269.098-.09.352-.3.563-.468.657-.521 1.55-1.39 2.17-2.107.171-.199.42-.48.55-.624a6.62 6.62 0 0 0 .387-.469c.145-.201.231-.335.903-1.397.494-.78.73-1.313.91-2.051a8.54 8.54 0 0 1 .137-.513c.052-.16.058-.167.126-.15.104.024.097.015.192.256.115.288 1.466 2.993 1.496 2.993.043 0 .232-.153.37-.3.217-.231.39-.517.741-1.226.412-.831.52-1.128.974-2.658.037-.125.17.01.235.234.157.55.338.994.681 1.66.16.31.384.768.5 1.018.116.25.312.624.436.83.124.207.298.508.386.67a20.452 20.452 0 0 0 2.553 3.643c.219.252.584.678.811.947.508.603.84.951 1.402 1.47 1.157 1.068 2.01 1.704 3.006 2.242.942.508 1.706.983 1.874 1.165l.08.087-.105-.02c-.64-.114-2.997-1.515-4.65-2.762a88.625 88.625 0 0 1-2.243-1.842c-.065-.06-.283-.297-.486-.525-.41-.46-.546-.595-.807-.798-.242-.189-.58-.548-.954-1.019-.46-.577-1.537-2.06-1.806-2.486a79.735 79.735 0 0 0-.375-.595 3.4 3.4 0 0 0-.318-.413l-.176-.189-.079.057c-.074.054-.567.55-1.254 1.262l-.32.33.115.232c.383.774 1.053 1.77 1.846 2.749 1.13 1.391 1.44 1.734 2.28 2.517.933.869 1.562 1.41 2.21 1.898.176.133.525.404.776.603.797.63 1.486 1.05 2.774 1.692.722.36.938.453 1.041.453.05 0 .135.092.135.144 0 .042-.375-.004-.621-.075-.347-.1-.733-.28-1.282-.594-.272-.156-.669-.38-.882-.498-.914-.507-1.11-.622-1.567-.925-.265-.175-.7-.482-.966-.681-.266-.2-.836-.618-1.266-.93-.43-.312-.905-.665-1.055-.784-.154-.121-.754-.694-1.365-1.303-.6-.597-1.095-1.08-1.1-1.074-.02.022.023 1.163.044 1.197.03.049.087.042.282-.036.211-.085.334-.076.59.044.232.109.407.246.56.44l.125.16v.728l-.112.228c-.097.195-.148.26-.353.447a2.27 2.27 0 0 0-.298.313l-.058.093.297.32c.164.177.31.353.324.39.014.039.026.245.026.458v.388l-.316.315-.317.315-.467-.01c-.256-.007-.514 0-.573.012l-.108.024.01.228a1.37 1.37 0 0 1-.384 1.03c-.29.291-.666.374-1.092.24zm.762-.25a.784.784 0 0 0 .351-.339c.11-.209.09-.923-.029-1.084-.059-.08-.083-.093-.285-.166a.968.968 0 0 1-.295-.18 17.195 17.195 0 0 0-.193-.173l-.057-.05-.045.156a1.816 1.816 0 0 0-.053.223c-.005.05-.022.068-.07.068-.047 0-.067-.02-.084-.086a.44.44 0 0 0-.13-.177c-.12-.103-.159-.204-.159-.41v-.139l-.135-.032c-.129-.031-.14-.03-.24.041a.388.388 0 0 0-.107.092c0 .01.036.044.08.077a.52.52 0 0 1 .188.376c0 .058-.043.242-.096.41-.123.388-.12.567.01.833.146.295.398.508.702.594.189.052.49.037.647-.034zm-2.655-.06c.202-.037.404-.137.545-.267.249-.23.3-.495.156-.799a1.279 1.279 0 0 1-.1-.308c-.022-.163-.05-.205-.136-.205-.056 0-.064.013-.065.1v.1l-.053-.066c-.258-.327-.244-.7.038-1.011a.476.476 0 0 0 .096-.134c0-.051-.191-.173-.293-.187l-.102-.013-.018.184c-.042.42-.196.568-.734.706-.115.03-.116.032-.1.121.02.101-.005.16-.126.312-.06.075-.075.116-.062.167.009.037.027.232.04.432.022.32.035.384.1.515a.633.633 0 0 0 .404.343c.16.043.231.045.41.01zm4.307-1.494a.89.89 0 0 0 .43-.311c.105-.155.136-.264.136-.481 0-.261-.079-.421-.335-.684-.125-.129-.2-.228-.2-.265 0-.053-.014-.058-.168-.058a.506.506 0 0 0-.39.142.25.25 0 0 1-.148.06c-.355.008-.343.004-.334.1.007.073.018.085.073.08a.227.227 0 0 1 .127.033c.06.04.061.046.024.118-.055.106-.163.136-.485.136h-.274l-.113-.093c-.128-.108-.129-.108-.208-.052-.119.083-.052.153.215.225.186.05.238.119.323.42.116.413.244.582.506.668.169.055.634.033.821-.039zm-5.532-.417c.126-.053.22-.17.274-.338.056-.178.14-.296.267-.374.072-.045.094-.076.094-.136 0-.049-.019-.087-.052-.105-.08-.043-.1-.033-.118.053-.02.1-.047.101-.105.002-.142-.24.042-.464.522-.633l.207-.072-.058-.082c-.04-.057-.048-.085-.026-.093.044-.015.104-.135.116-.23.007-.06-.004-.083-.048-.099-.08-.03-.157.032-.235.184a.409.409 0 0 1-.294.23.664.664 0 0 0-.174.085l-.097.067-.04-.057c-.118-.165-.193-.231-.313-.274l-.131-.048-.283.134c-.23.109-.308.161-.42.284-.185.202-.266.347-.301.535-.074.398.156.842.501.964.139.05.6.052.714.003zm2.75-1.277c.22-.113.24-.147.257-.426.014-.232.01-.266-.047-.375-.073-.14-.19-.226-.39-.284-.188-.055-.331-.03-.455.079a.575.575 0 0 0-.194.45c-.002.466.436.76.83.556zm1.253-.443c.039-.01.067-.046.08-.1.017-.069.05-.099.181-.162a.963.963 0 0 1 .302-.09c.127-.012.155-.004.287.084.183.122.32.152.584.132l.21-.016.212-.2c.165-.155.234-.244.312-.401.088-.18.1-.225.1-.406a.677.677 0 0 0-.068-.352c-.137-.292-.358-.456-.664-.495-.121-.016-.187-.004-.415.069l-.305.095c-.018.006-.033.03-.033.057 0 .026-.027.146-.06.267-.057.207-.065.22-.145.235-.1.019-.137.058-.16.17-.015.077-.01.085.05.085a.263.263 0 0 0 .135-.053c.107-.085.153-.07.153.047 0 .257-.352.622-.6.622-.086 0-.221.137-.243.248a2.09 2.09 0 0 1-.03.134c-.015.05.015.057.117.03zm-4.104-.639c.085-.05.208-.113.274-.138.108-.041.125-.042.19-.004.047.027.09.034.129.02.085-.033.096-.069.05-.158-.044-.086-.114-.136-.193-.136-.104-.001-.122-.038-.07-.146l.048-.102.22.016c.22.015.297.041.57.191.148.082.188.083.278.012.054-.042.07-.079.07-.157 0-.1-.003-.103-.114-.12-.126-.018-.195-.057-.379-.212a.883.883 0 0 0-.222-.138c-.089-.03-.102-.048-.13-.164-.084-.372-.337-.572-.721-.572-.443 0-.832.284-.938.684a.833.833 0 0 0 .236.83c.077.067.163.167.193.221a.26.26 0 0 0 .147.131c.146.05.197.042.362-.058zm3.775-.49c-.08-.19-.082-.174.052-.397.196-.325.236-.359.422-.359.14 0 .166-.009.258-.092.12-.11.238-.314.289-.506.043-.162.048-.543.01-.71-.093-.4-.385-.7-.68-.7-.265 0-.633.223-.915.555-.242.286-.242.284-.16.39.038.05.069.1.069.113 0 .012.037.08.082.15l.082.128-.088.079-.088.078.073.11c.081.122.083.123.203.081.095-.033.137-.094.137-.196 0-.09.077-.092.16-.003.06.064.06.068.017.176a.694.694 0 0 0-.037.277c.008.17-.014.23-.183.518-.047.081-.048.09-.006.16.084.143.356.275.304.149zm-1.057-.445c0-.006-.041-.117-.091-.248a3.31 3.31 0 0 1-.11-.325.234.234 0 0 0-.082-.13c-.13-.085-.114-.16.086-.406.194-.24.204-.396.044-.713a1.47 1.47 0 0 0-.486-.506c-.426-.232-.839-.179-1.046.134-.145.22-.237.651-.205.966.026.264.043.288.268.395.12.057.267.157.364.246.15.139.167.148.225.117.054-.03.066-.062.082-.232.01-.109.03-.198.044-.198.08 0 .205.108.349.303l.163.22-.016.167c-.015.164-.015.167.057.183.04.008.085.02.1.025.038.012.254.015.254.002z"/></svg>