<svg viewBox="0 0 24 24" xmlns="http://www.w3.org/2000/svg" role="img"><path d="M5.8 21.219c-.692-.087-1.278-.298-1.792-.644-.83-.56-1.307-1.282-1.526-2.31-.063-.297-.078-.493-.077-.993.001-1.53.377-3.136 1.146-4.904.302-.694.949-1.963.988-1.939.053.033.043.236-.023.46-.032.109-.19.526-.35.927-1.085 2.718-1.174 3.902-.379 5.071.428.63 1.296 1.097 2.38 1.282.48.082.807.09 1.328.035 1.396-.149 2.648-.668 3.585-1.488.213-.186.229-.21.229-.354 0-.424.458-4.044.717-5.659.237-1.482.379-2.119.61-2.745.293-.785.537-1.345.598-1.368.111-.043.113.137.01.856-.18 1.236-.529 4.115-.615 5.069-.068.752-.117 1.894-.092 2.133l.026.238.123-.216a5.06 5.06 0 0 0 .252-.545c.374-.962.502-1.824.487-3.294-.01-.934.009-1.08.216-1.72.203-.63.809-2.222.884-2.324.037-.05.094-.097.127-.103.08-.016.078.053-.014.677a64.74 64.74 0 0 0-.22 1.933c-.161 1.585-.27 2.35-.459 3.22-.23 1.063-.564 2.152-.916 2.982-.193.455-.196.44.129.706.307.252.698.357 1.327.357.64 0 .933-.13 1.662-.73.55-.454.81-.53 1.27-.368.423.149.787-.053 1.172-.65.104-.162.202-.197.282-.1.058.07.282.07.451 0 .184-.077.4-.316.556-.61.137-.26.175-.287.294-.197.091.07.213.07.342.003.137-.07.605-.575.727-.784.095-.162.1-.192.118-.864l.02-.696.589-1.208c.464-.951.604-1.207.658-1.207.081 0 .08-.059.022 1.372-.054 1.303-.14 1.715-.52 2.504-.347.72-.997 1.601-1.471 1.994a3.623 3.623 0 0 1-.597.37c-.227.11-.456.257-.604.386-.319.28-.638.485-.8.514-.195.036-.37.133-.613.343a2.87 2.87 0 0 1-.472.316l-.256.13-.368-.023c-.322-.02-.395-.014-.575.054-.262.098-.523.332-.744.669-.455.694-.929 1.203-1.409 1.513-.35.226-.607.309-.966.31-.713.002-1.21-.347-1.585-1.109l-.138-.282-.234.296c-1.031 1.305-2.34 2.209-3.697 2.555-.572.146-1.361.215-1.812.159zm2.716-8.274a16.962 16.962 0 0 0-.777-.667c-.51-.41-.528-.429-.529-.517 0-.06.654-1.197 1.142-1.984.226-.362.306-.464.352-.447.142.055.92.644 1.144.867.562.56.613 1.083.176 1.831-.3.512-.952 1.2-1.139 1.2-.037 0-.203-.127-.37-.283zM15.92 9.71a19.03 19.03 0 0 0-.723-.568c-.135-.097-.23-.19-.23-.23 0-.057 1.35-2.152 1.494-2.318.082-.095.134-.082.438.108.909.566 1.217 1.245.885 1.948-.294.623-1.04 1.468-1.294 1.466-.043 0-.294-.18-.57-.406zm2.794-.244a14.07 14.07 0 0 0-.714-.55.46.46 0 0 1-.157-.141c-.034-.09 1.48-2.428 1.572-2.428.165 0 .794.449 1.039.74.41.492.44 1.009.09 1.605-.387.66-.95 1.241-1.201 1.241-.027 0-.31-.21-.63-.467zM1.049 7.912c-.034-.87-.172-1.701-.396-2.386a9.32 9.32 0 0 0-.38-.889C.123 4.329 0 4.054 0 4.027c0-.029.084-.255.187-.503l.243-.59.057-.138.278.27c.393.382.522.442.956.444.424.002.608-.067.748-.277a1.16 1.16 0 0 0 .093-.155c0-.008.027-.079.06-.157l.062-.141.028.128a1.5 1.5 0 0 1-.004.384c-.097.766-.426 1.233-1.028 1.46l-.227.085-.006 1.13c-.006 1.12-.036 1.487-.171 2.083-.051.226-.14.457-.176.457-.015 0-.038-.267-.05-.595zm3.598.129c-.001-1.028-.304-2.077-.918-3.178l-.287-.516.202-.527c.111-.29.214-.54.229-.554.014-.015.083.058.153.162.303.447.53.682.716.738.064.02.088-.007.161-.184.198-.478.644-1.007.971-1.151.307-.136.672-.064.79.155.05.094.012.263-.078.344-.066.06-.083.06-.284.004a1.62 1.62 0 0 0-.333-.06c-.278 0-.577.252-.537.453.049.244.4.458.668.408.2-.038.315-.107.517-.312.1-.101.19-.183.204-.183.05 0 .017.123-.092.34-.38.751-.924 1.213-1.554 1.316a4.558 4.558 0 0 0-.262.047c-.006.003.014.12.043.258.088.42.142 1.14.116 1.534-.047.692-.23 1.372-.37 1.372-.045 0-.054-.08-.055-.466zm17.73-.165a7.598 7.598 0 0 1-.486-.386c-.23-.19-.546-.436-.705-.546-.159-.109-.288-.216-.288-.239 0-.063.143-.294.899-1.44.556-.845.725-1.076.786-1.076.088 0 .517.268.78.486.235.197.524.615.596.863.109.373.003.778-.336 1.288-.3.45-.815.952-1.083 1.054a.19.19 0 0 1-.162-.004zm-4.364-1.35c-.047-.017-.294-.201-.549-.41a14.25 14.25 0 0 0-.635-.493c-.23-.157-.295-.226-.277-.296.022-.085 1.45-2.283 1.516-2.335.075-.058.169-.019.515.215.549.369.867.804.913 1.25.045.443-.288 1.08-.902 1.72-.278.291-.455.397-.581.35z"/></svg>