<svg role="img" viewBox="0 0 24 24" xmlns="http://www.w3.org/2000/svg"><path d="M.056 12.01L.072.018l4.4-.016c2.941-.01 4.502.006 4.71.05.17.036.392.08.494.097.102.017.24.055.308.083.068.03.213.09.323.134.11.045.2.103.2.129 0 .025.037.046.083.046.163 0 .995.787 1.151 1.09.211.408.365.427.527.065.109-.242.651-.84.923-1.016.247-.16.616-.355.764-.403.837-.272.565-.26 5.418-.26h4.587V23.97l-5.804.015L12.35 24l.025-2.386c.025-2.352.06-2.971.17-2.971.03 0 .054-.044.054-.097 0-.107.306-.66.383-.693.027-.011.049-.06.049-.108s.02-.088.046-.089c.025 0 .167-.11.315-.241.396-.353.845-.459 1.773-.418.823.036.868.048 2.008.562.195.088.382.16.415.16.033 0 .06.028.06.062s.055.062.123.062.123.02.123.047c0 .026.104.095.231.154s.273.13.323.159c.255.142.376.194.456.194.049 0 .098.021.109.047.011.027.248.125.527.218.41.138.626.172 1.14.178.368.005.686-.02.762-.061.072-.039.147-.053.168-.032.043.042-.214.282-.468.436-.093.056-.17.124-.17.15 0 .027-.055.049-.122.049-.068 0-.124.022-.124.05 0 .073-.547.255-.894.296-.357.042-1.378-.07-1.469-.16-.034-.035-.126-.063-.204-.063-.078 0-.142-.028-.142-.062s-.055-.061-.123-.061c-.067 0-.123-.026-.123-.058 0-.031-.05-.073-.112-.093a.78.78 0 0 1-.23-.143 1.63 1.63 0 0 0-.288-.193 1.596 1.596 0 0 1-.277-.185c-.166-.15-.621-.437-.692-.437-.035 0-.063-.02-.064-.046 0-.062-.356-.261-.466-.261-.048 0-.087-.028-.087-.062s-.05-.062-.111-.062a.286.286 0 0 1-.17-.055c-.136-.128-.672-.184-1.09-.113-.228.038-.415.092-.415.12 0 .026-.036.048-.08.048-.204 0-.782.719-.782.972a.306.306 0 0 1-.077.189c-.058.058-.081.617-.096 2.26l-.02 2.182h10.782V.537l-4.521.018c-3.516.014-4.54.035-4.6.095a.354.354 0 0 1-.218.077c-.078 0-.141.027-.141.061s-.043.062-.095.062c-.154 0-.548.274-.823.574-.088.096-.221.239-.296.318a.829.829 0 0 0-.176.304c-.022.088-.065.175-.095.193-.03.019-.055.088-.055.154 0 .065-.025.12-.055.12s-.075.193-.099.43l-.043.431h-.471l-.104-.477c-.058-.262-.129-.503-.159-.536a.289.289 0 0 1-.054-.169c0-.06-.027-.11-.061-.11s-.063-.05-.064-.109C11.363 1.711 10.157.727 9.84.727A.302.302 0 0 1 9.654.65C9.594.59 8.594.573 5.071.573H.564L.548 12.009.533 23.445h10.841l-.024-1.924c-.026-2.034-.065-2.416-.293-2.91-.16-.343-.544-.769-.697-.769-.054 0-.1-.022-.1-.05 0-.028-.169-.083-.376-.121a2.128 2.128 0 0 0-1.132.107c-.333.138-.85.415-.954.51a.486.486 0 0 1-.153.108c-.037 0-.536.317-.586.372-.124.139-.685.48-1.163.708-.387.184-1.229.307-1.715.25-.298-.035-.805-.196-.877-.279a1.216 1.216 0 0 0-.216-.127c-.178-.09-.646-.512-.646-.585 0-.02.062-.002.138.039.176.094 1.328.084 1.637-.014.573-.182 2.11-.891 2.155-.993.011-.026.048-.048.083-.048.034 0 .29-.111.57-.247.762-.373 1.245-.492 2.001-.492.62 0 1.358.142 1.358.26 0 .027.03.048.066.048.036 0 .107.041.157.091.05.05.14.126.2.17.181.128.562.698.562.84 0 .072.023.13.052.13.028 0 .097.192.153.425.087.357.103.791.103 2.74v2.315H.04zm3.65 5.22c-.022-.035-.106-.065-.187-.065-.08 0-.161-.024-.18-.054-.019-.03-.131-.073-.25-.095-.119-.023-.216-.06-.216-.085 0-.024-.09-.083-.2-.13a1.056 1.056 0 0 1-.293-.188 3.14 3.14 0 0 0-.32-.272c-.205-.153-.603-.668-.603-.778 0-.023.097-.011.215.026.119.037.216.088.216.114 0 .025.056.046.124.046s.172.027.23.06c.244.134.717.172 1.45.114.413-.032.777-.084.81-.116.032-.032.13-.058.22-.058s.181-.02.205-.043c.059-.058 1.037-.324 1.455-.395.968-.165 1.453-.135 2.247.14.204.07.432.141.508.158.077.017.139.056.139.086 0 .03.038.054.085.054.075 0 .419.18.738.388.147.095.976.905.926.905-.072 0-.395-.212-.395-.26 0-.026-.055-.048-.123-.048-.067 0-.123-.023-.123-.052 0-.079-.745-.379-.94-.379a.639.639 0 0 1-.287-.073c-.09-.056-.207-.056-.514 0-.218.04-.478.073-.576.073-.182 0-1.073.26-1.268.371a.495.495 0 0 1-.2.06c-.052 0-.094.028-.094.062s-.048.062-.107.063c-.06 0-.274.06-.478.13-.559.196-.864.25-1.548.28-.403.018-.64.004-.666-.038zm9.14.01c0-.086.994-1.06 1.081-1.06.044 0 .089-.02.1-.046.09-.202 1.24-.713 1.867-.83.843-.157 1.19-.135 2.278.147.271.07.597.14.724.157.127.017.23.056.23.086 0 .03.058.055.128.055s.18.028.244.062c.193.104 1.553.171 1.932.096.185-.037.356-.088.38-.113.026-.025.092-.045.147-.045.056 0 .22-.057.366-.127.145-.07.28-.11.302-.09.02.022.011.058-.022.082a2.19 2.19 0 0 0-.243.289 2.74 2.74 0 0 1-.678.678c-.136.101-.26.199-.277.217-.063.07-.813.367-.924.367-.064 0-.133.028-.154.062-.047.076-1.215.082-1.296.006-.032-.03-.17-.07-.305-.086-.31-.038-1.162-.3-1.19-.364-.011-.027-.087-.05-.17-.05-.08 0-.148-.021-.148-.048s-.132-.087-.292-.135l-.478-.14c-.515-.153-1.54-.265-1.597-.174-.023.037-.149.067-.28.067-.132 0-.254.024-.272.054-.019.029-.11.069-.204.088-.202.04-.847.448-1.083.683-.09.091-.165.141-.165.112zm-2.186-1.33c-.066-.089-.145-.16-.176-.16-.03 0-.102-.055-.16-.122-.124-.143-.838-.556-.962-.556-.047 0-.086-.021-.087-.046 0-.026-.173-.097-.384-.16a8.499 8.499 0 0 1-.526-.169 1.29 1.29 0 0 0-.385-.056c-.134 0-.243-.023-.243-.05 0-.027-.534-.082-1.185-.121-.973-.059-1.268-.1-1.647-.226-.254-.085-.51-.155-.57-.156-.06 0-.108-.029-.108-.063s-.055-.061-.123-.061c-.067 0-.123-.023-.123-.05 0-.027-.097-.084-.215-.127a1.092 1.092 0 0 1-.292-.15 1.413 1.413 0 0 0-.26-.166c-.243-.123-1.152-1.029-1.266-1.262a1.363 1.363 0 0 0-.168-.266.3.3 0 0 1-.077-.174c0-.08.013-.08.097.004.053.053.136.097.185.097.048 0 .088.027.088.061s.055.062.124.062a.61.61 0 0 1 .23.054c.28.141.995.292 1.708.36.17.015.334.053.366.084.033.03.183.056.335.056.151 0 .36.026.464.058.25.076 1.358.314 1.652.354.127.018.23.057.23.087 0 .03.056.055.124.055.067 0 .332.097.589.216.256.118.492.215.523.215.032 0 .058.028.058.062s.055.061.123.061c.067 0 .123.022.123.049 0 .026.09.1.2.165.11.064.242.16.292.214.051.053.204.179.339.278.27.2.582.525.584.61 0 .03.05.1.11.155.132.12.445.598.445.678 0 .032.032.068.07.081.04.013.06.06.045.104-.018.053-.067.026-.147-.08zm2.724-.203c.06-.13.125-.249.143-.266.019-.017.116-.14.216-.276.407-.55 1.515-1.51 1.744-1.51.038 0 .069-.027.069-.06 0-.035.055-.062.123-.062s.123-.028.123-.062.04-.062.087-.062c.048 0 .18-.046.293-.102.38-.19.418-.205.54-.205.065 0 .137-.028.157-.062.021-.034.107-.062.19-.062s.199-.024.258-.055c.127-.065.613-.175 1-.226.152-.02.332-.06.4-.09a1.92 1.92 0 0 1 .43-.085c.784-.08 1.787-.25 2.035-.345.088-.033.227-.06.309-.06.082 0 .15-.028.15-.062s.07-.062.154-.062c.085 0 .154-.02.154-.046 0-.061.292-.195.334-.153.043.042-.218.507-.284.507-.028 0-.051.035-.052.077-.002.102-.4.525-.706.751a3.62 3.62 0 0 0-.339.277c-.05.053-.175.138-.277.188-.102.05-.198.106-.215.123-.091.09-.73.37-.848.37-.076 0-.138.027-.138.061s-.043.062-.096.062a1.97 1.97 0 0 0-.385.094c-.158.052-.815.134-1.458.183-1.283.097-1.6.135-1.785.214a1.782 1.782 0 0 1-.323.087 2.14 2.14 0 0 0-.458.159c-.142.068-.309.125-.37.125s-.112.02-.112.046c0 .025-.107.097-.237.16-.13.061-.307.172-.394.245-.543.457-.562.465-.432.184zm-2.726-1.098c-.136-.215-.96-1.073-1.03-1.075-.027 0-.11-.058-.185-.127a1.607 1.607 0 0 0-.29-.207c-.084-.045-.376-.21-.647-.366-.27-.157-.527-.286-.57-.286-.041 0-.076-.028-.076-.062s-.056-.062-.123-.062c-.068 0-.123-.022-.123-.048 0-.027-.125-.1-.277-.164-.153-.062-.278-.137-.278-.166 0-.029-.041-.053-.092-.053-.05 0-.092-.02-.093-.046 0-.025-.102-.115-.227-.2a3.11 3.11 0 0 1-.354-.278 4.504 4.504 0 0 0-.372-.308 5.574 5.574 0 0 1-.89-.915 1.93 1.93 0 0 0-.155-.196 3.26 3.26 0 0 1-.218-.292c-.084-.125-.174-.227-.2-.227-.025 0-.046-.04-.046-.087 0-.048-.02-.097-.046-.108-.082-.037-.387-.694-.386-.831 0-.074-.034-.146-.076-.161-.042-.015-.058-.048-.035-.073.023-.025.104.012.18.083a.85.85 0 0 0 .25.164c.062.02.113.062.113.093 0 .032.042.058.092.058.051 0 .093.028.093.061 0 .034.024.062.054.062.058 0 .73.387.851.49.041.036.1.064.132.064.083 0 1.083.566 1.107.627.012.028.048.05.081.05.034 0 .152.07.263.154.11.085.234.154.273.154.039 0 .07.028.07.062s.042.061.093.061.093.021.093.047c0 .025.104.115.23.2.304.201 1.628 1.528 1.775 1.776.063.107.136.194.163.194.026 0 .048.041.048.092s.023.093.05.093c.064 0 .812 1.49.812 1.618 0 .052.032.106.07.119.04.013.058.063.042.112-.02.061-.064.033-.146-.096zm2.624.063c-.006-.072.196-.663.242-.708a7.63 7.63 0 0 0 .277-.508c.135-.263.266-.477.292-.477.026 0 .047-.03.047-.065 0-.088.218-.4.554-.793a9.433 9.433 0 0 1 1.724-1.575c.186-.133.352-.259.37-.28.016-.02.168-.117.338-.214.17-.097.321-.192.338-.21.017-.019.156-.095.308-.17.286-.14.623-.333.677-.388.017-.016.156-.092.308-.166.369-.181.642-.346.667-.403.012-.025.048-.046.081-.046.034 0 .152-.07.263-.154.255-.195.366-.2.311-.016-.065.22-.355.808-.442.898-.044.044-.08.101-.08.127 0 .025-.048.099-.107.164a5.9 5.9 0 0 0-.29.366c-.249.334-1.307 1.38-1.59 1.57-.125.085-.228.175-.228.2 0 .026-.037.046-.081.046-.045 0-.137.049-.204.108-.143.125-.338.236-1.101.624-.305.155-.563.303-.575.33-.01.025-.073.046-.138.046-.065 0-.118.024-.118.052 0 .029-.097.104-.216.168-.118.064-.215.133-.215.154 0 .02-.07.07-.154.108-.278.126-1.125.953-1.22 1.19-.017.045-.035.055-.038.022zm-.677-.19c.003-.072.018-.087.038-.037.017.044.015.097-.005.118-.02.02-.035-.016-.033-.081zm-.682-.29c0-.158-.027-.406-.06-.55-.135-.576-.331-1.634-.356-1.91-.015-.161-.049-.293-.076-.293-.027 0-.065-.131-.083-.292a14.71 14.71 0 0 0-.097-.662c-.15-.881-.213-2.112-.134-2.633.043-.279.092-.611.11-.738.018-.127.057-.247.087-.265.03-.02.055-.116.055-.216 0-.1.028-.18.062-.18s.062-.092.062-.204c0-.112.022-.23.05-.261.028-.033.103-.225.167-.428.064-.204.138-.396.165-.428a.406.406 0 0 0 .048-.205c0-.277.153-.101.313.36.087.252.174.499.193.55.019.05.068.217.11.37.042.151.1.345.13.43.113.318.195.785.222 1.262.015.271.056.527.091.569.035.042.043.125.02.185-.025.06-.068.399-.097.755A18.21 18.21 0 0 1 12.6 11.5a11.81 11.81 0 0 0-.101.57c-.019.127-.058.246-.088.265-.03.019-.056.129-.056.245 0 .116-.025.33-.057.474-.031.144-.1.495-.151.78-.111.611-.222.79-.222.357zm-.677.077c0-.068-.097-.325-.215-.569-.119-.244-.216-.479-.216-.521 0-.043-.026-.077-.057-.077-.032 0-.078-.063-.102-.139-.048-.153-.7-1.142-.853-1.295-.053-.053-.096-.114-.096-.136 0-.022-.097-.141-.215-.266-.118-.125-.215-.262-.216-.304 0-.042-.023-.077-.052-.077-.028 0-.104-.097-.168-.215-.064-.119-.135-.216-.16-.216-.023 0-.078-.097-.121-.215-.043-.119-.1-.216-.127-.216-.027 0-.05-.027-.05-.06s-.096-.259-.215-.502c-.118-.244-.215-.494-.215-.556 0-.062-.025-.113-.055-.113s-.068-.076-.085-.17a3.486 3.486 0 0 0-.238-.707.793.793 0 0 1-.053-.288c0-.1-.024-.197-.053-.215-.03-.018-.07-.193-.092-.388a30.139 30.139 0 0 0-.078-.646c-.064-.472 0-.536.26-.256.122.131.295.335.384.453.09.119.226.285.302.37.076.084.139.181.139.217 0 .035.055.103.123.152.068.05.123.118.123.153s.07.139.154.23c.084.091.154.195.154.23 0 .036.024.064.054.064s.1.09.156.2c.127.253.24.438.29.478.062.048.3.49.3.554 0 .055.25.641.375.876a.564.564 0 0 1 .056.22c0 .063.018.133.041.156.07.07.267.676.267.823 0 .078.028.141.062.141.033 0 .061.084.061.186s.026.233.057.292c.031.059.13.481.219.938.088.457.187.917.22 1.02.076.247.075.52-.003.52-.034 0-.062-.057-.062-.126zm1.517-.36c.017-.25.057-.521.088-.604a1.22 1.22 0 0 0 .057-.358c0-.114.028-.225.062-.246.034-.02.062-.131.062-.246 0-.114.027-.225.061-.246.034-.021.062-.111.062-.2 0-.165.273-1.129.375-1.323a.591.591 0 0 0 .056-.23c0-.07.028-.125.061-.125.034 0 .062-.052.062-.115 0-.064.07-.272.154-.464.085-.191.154-.389.154-.439 0-.05.028-.09.061-.09.034 0 .062-.049.062-.108 0-.06.07-.188.154-.286.085-.099.154-.217.154-.262 0-.046.028-.083.061-.083.034 0 .062-.036.062-.08 0-.045.055-.14.123-.214.068-.072.123-.154.123-.181 0-.027.07-.124.154-.215.085-.092.154-.183.154-.204 0-.033.334-.5.492-.689.034-.04.062-.089.062-.107 0-.019.097-.136.216-.262.118-.126.215-.252.215-.282 0-.054.05-.106.304-.32l.145-.124-.036.527c-.02.29-.067.664-.105.831l-.133.581a3.15 3.15 0 0 1-.116.4 6.634 6.634 0 0 0-.143.4c-.202.617-.757 1.786-.847 1.786-.03 0-.054.053-.054.118s-.02.127-.046.139c-.057.025-.385.46-.385.51 0 .021-.097.135-.215.253-.119.119-.216.237-.216.263 0 .027-.049.102-.11.168-.234.256-.813 1.156-.813 1.266 0 .03-.028.054-.062.054s-.062.034-.062.077c0 .042-.07.213-.154.38-.084.166-.153.353-.153.415s-.026.113-.058.113c-.031 0-.071.062-.088.138-.018.076-.017-.066 0-.315z"/></svg>