<svg role="img" viewBox="0 0 24 24" xmlns="http://www.w3.org/2000/svg"><path d="M.682 22.993c.05-.06.407-.382.794-.716l.704-.608 4.681.01c2.575.007 7.067.009 9.983.006l5.3-.006.167-.166.166-.166V2.876l-.14-.178-.14-.178H12.08c-10.026 0-10.118 0-10.252.135-.13.13-.135.226-.135 2.148v2.013l-.709.7c-.469.464-.75.693-.83.678-.113-.022-.12-.22-.12-3.596 0-3.102.013-3.581.101-3.637C.2.92 4.705.903 12.12.913L24 .929v22.138l-11.704.017C1.584 23.1.6 23.092.682 22.993zm-.637-.547C.02 22.421 0 21.953 0 21.406v-.995l.525-.496c2.156-2.042 3.28-3.13 4.516-4.373 1.751-1.76 2.177-2.046 2.706-1.824.272.114.77.622.897.913.19.438.305 1.612.192 1.966-.038.12-.065.128-.192.062a2.637 2.637 0 0 1-.391-.295c-.422-.378-.951-.37-1.483.023-.13.096-.496.42-.812.719-.317.3-1.124 1.05-1.794 1.668l-2.624 2.42a61.646 61.646 0 0 1-1.427 1.297c-.012 0-.043-.02-.068-.045zm9.873-1.35c-.586-.15-.842-.381-1.03-.928-.144-.419-.101-1.942.055-1.942.032 0 .105.092.164.204.246.477.944.764 1.496.616.405-.11 1.05-.532 1.564-1.023.644-.617 3.2-3.046 3.809-3.62.278-.262.756-.716 1.063-1.01.372-.356.591-.52.661-.492.089.034.105.19.1.973-.002.513-.025.982-.05 1.043-.107.255-6.19 5.878-6.537 6.042-.25.119-1.04.202-1.295.136zM.045 17.231C.02 17.208 0 16.724 0 16.156v-1.031l1.035-.972a397.895 397.895 0 0 0 3.399-3.2c1.965-1.87 2.404-2.27 2.608-2.375.283-.146.702-.193.962-.107.685.226 1.196 1.43 1.04 2.453-.074.498-.131.53-.42.234-.265-.274-.596-.447-.853-.446-.516 0-.936.308-2.746 2.01-1.737 1.633-2.13 2-2.994 2.796-.466.428-1.044.962-1.286 1.187-.552.513-.645.583-.7.527zm10.147-1.543c-.766-.204-1.322-1.206-1.231-2.223.023-.268.062-.558.086-.644.043-.155.045-.154.143.048.055.113.251.348.437.522l.338.315.45-.032c.263-.019.564-.09.722-.171.209-.107 2.262-1.908 3.109-2.728.116-.113.121-.155.048-.4-.045-.15-.107-.274-.137-.274-.03 0-.136-.075-.235-.166-.298-.277-.241-.451.297-.914.262-.225.498-.41.525-.41.186.003 2.046 1.756 2.046 1.93 0 .053-1.09 1.113-2.42 2.355-3 2.798-2.933 2.74-3.134 2.781-.432.09-.736.092-1.044.01zM0 10.785v-1.01l1.1-1.044c2.857-2.713 5.665-5.293 5.932-5.45.241-.142.384-.175.778-.176.672-.003.998.189 1.304.768.1.19.13.428.15 1.202.017.718.003.965-.057.965-.045 0-.23-.133-.41-.296-.363-.326-.787-.475-1.158-.406-.124.023-.405.136-.625.251-.393.206-.642.423-2.655 2.309l-2.584 2.42C.908 11.13.155 11.794.1 11.794c-.083 0-.099-.166-.099-1.01zm10.338-.38c-.574-.212-.88-.617-1.098-1.454-.118-.455-.109-1.095.02-1.325.059-.105.086-.09.227.13.208.323.722.586 1.145.586.252 0 .398-.054.734-.271.23-.15.477-.271.547-.271.2 0 1.086.886 1.086 1.087 0 .242-1.214 1.38-1.62 1.519a1.49 1.49 0 0 1-1.04-.002z"/></svg>