<svg role="img" viewBox="0 0 24 24" xmlns="http://www.w3.org/2000/svg"><path d="M9.671 0a1.161 1.161 0 0 0-1.116 1.123v2.183c1.965-.77 4.285-1.216 6.774-1.216 1.277 0 2.516.117 3.677.349v2.283a17.032 17.032 0 0 0-3.174-.27c-5.187 0-9.523 2.051-10.916 4.8.165-.146.339-.286.518-.424.716-.94 1.788-1.77 3.12-2.427v.704c1.974-.775 4.301-1.221 6.775-1.221 1.277 0 2.516.116 3.677.348v2.284c-1.006-.155-2.09-.27-3.174-.27-5.187 0-9.523 2.051-10.916 4.838.033.066.074.13.11.194.675-1.212 1.91-2.275 3.529-3.077v6.128c1.465.717 3.237 1.224 5.187 1.439a3.91 3.91 0 0 1-2.206-3.523c0-2.206 1.82-3.987 4.064-3.987 2.284 0 4.065 1.781 4.065 3.987 0 2.207-1.78 3.987-4.065 3.987l-.542-.038A15.484 15.484 0 0 1 4.49 14.439l-.038.541c0 .082.005.164.01.245l.028-.399a15.484 15.484 0 0 0 4.065 2.512v2.824c1.97.97 4.503 1.554 7.277 1.554 1.084 0 .774.271-.503.271-6.975 0-12.632-3.49-12.805-7.847-.001.06-.008.121-.008.183 0 2.887 2.412 5.414 6.039 6.835v1.758A1.123 1.123 0 0 0 9.677 24h10.684c.62 0 1.123-.504 1.123-1.084V1.123C21.484.503 20.98 0 20.36 0H9.677a1.161 1.161 0 0 0-.006 0zM2.525 10.35c-.002.06-.009.118-.009.179 0 .588.098 1.146.284 1.7.022-.063.04-.129.065-.19a5.323 5.323 0 0 1-.34-1.69z"/></svg>