<svg viewBox="0 0 24 24" xmlns="http://www.w3.org/2000/svg" role="img"><path d="M11.6 20.959a17.549 17.549 0 0 0-.39-.077 4.65 4.65 0 0 1-1.858-.839 5.962 5.962 0 0 1-.77-.743c-.409-.488-.78-1.228-.912-1.819-.115-.511-.16-1.088-.103-1.35.078-.368.325-.688.671-.869.165-.086.319-.117.56-.115.403.004.733.16.955.453.193.255.25.428.284.87.025.31.072.51.18.76.245.569.75 1.001 1.366 1.172.232.064.67.088.911.049.953-.154 1.65-.764 1.84-1.61.027-.121.033-.4.04-1.986l.01-1.845h.066c.037 0 .17.026.294.058.125.032.303.07.396.082a7.73 7.73 0 0 0 1.299-.01c.167-.024.233-.026.25-.01.027.026.019 3.406-.01 3.744-.02.245-.14.762-.25 1.075-.394 1.125-1.304 2.118-2.385 2.6-.33.147-.588.239-.822.29a3.2 3.2 0 0 0-.273.072c-.059.023-.059.024-.015.04.025.01.045.023.045.03 0 .023-1.268.003-1.38-.023zm-4.151-8.722a4.695 4.695 0 0 1-1.91-.702c-.751-.496-1.251-1.074-1.69-1.953-.164-.328-.21-.403-.25-.414a32.752 32.752 0 0 0-1.31-.017C.897 9.148.86 9.146.633 9.026a1.296 1.296 0 0 1-.449-.447 2.605 2.605 0 0 1-.125-.303L0 8.094V4.24l.12-.25c.102-.208.146-.273.255-.382.291-.29.736-.405 1.154-.298.24.06.36.128.53.298.158.16.27.346.361.601.046.13.046.136.053 1.305l.01 1.176H3.52l.053-.175c.281-.93.64-1.57 1.208-2.152a3.97 3.97 0 0 1 .812-.645 3.62 3.62 0 0 1 .83-.404c.31-.117.465-.158.908-.244.291-.055.354-.06.727-.06.396 0 .418.001.802.08.53.106.842.215 1.31.454a5.387 5.387 0 0 1 1.486 1.168c.088.104.165.177.187.177.04 0 .083-.046.276-.294a4.383 4.383 0 0 1 1.201-1.002c.279-.145.7-.317.943-.386.116-.033.38-.09.586-.128.348-.065.406-.07.774-.07.392 0 .406.002.845.09.245.049.495.106.556.127.378.131.878.367 1.11.523.555.376.99.817 1.362 1.38.274.417.445.771.607 1.264.046.14.095.263.108.275.016.013.515.022 1.444.027 1.556.007 1.475 0 1.724.13.287.149.471.384.594.76.028.083.033.162.028.41-.01.302-.01.306-.075.445-.05.099-.116.187-.23.301a1.24 1.24 0 0 1-.541.342l-.16.057-1.48.01a39.01 39.01 0 0 0-1.505.025 2.76 2.76 0 0 0-.18.33c-.643 1.292-1.59 2.147-2.836 2.563a3.397 3.397 0 0 1-1.244.202c-.848 0-1.501-.146-2.192-.492-.622-.312-1.064-.67-1.55-1.253a1.21 1.21 0 0 0-.161-.175c-.01 0-.09.084-.179.186-.645.745-1.531 1.308-2.426 1.543-.4.105-.532.129-.886.161a3.692 3.692 0 0 1-.902-.003zm8.57-2.446c.31-.069.65-.21.871-.362a2.51 2.51 0 0 0 .495-.489 2.04 2.04 0 0 0 .416-1.292c0-.555-.198-1.073-.561-1.464a2.195 2.195 0 0 0-1.38-.696c-.586-.071-1.252.156-1.707.581-.504.472-.764 1.189-.672 1.851.089.636.41 1.156.944 1.525.205.142.343.207.604.285.35.104.7.126.99.061zm-.277-1.333a1.05 1.05 0 0 1-.767-1.153c.091-.631.698-1.017 1.324-.842a1 1 0 0 1 .683.667c.06.188.058.505 0 .67-.12.323-.394.573-.722.66a1.207 1.207 0 0 1-.515-.002zM8.277 9.73a2.049 2.049 0 0 0 1.075-.426c.4-.3.648-.667.784-1.153.048-.174.053-.222.053-.55 0-.434-.032-.58-.2-.92a2.132 2.132 0 0 0-1.091-1.044c-.241-.108-.399-.144-.709-.16-.65-.032-1.184.168-1.632.613a2.117 2.117 0 0 0-.62 1.246c-.027.214 0 .59.054.807a2.14 2.14 0 0 0 1.202 1.416 2.031 2.031 0 0 0 1.085.17zM7.95 8.454a1.1 1.1 0 0 1-.432-.283.962.962 0 0 1-.298-.705c0-.534.368-.965.888-1.037.483-.068.921.187 1.104.64.062.156.085.427.05.61-.062.332-.372.664-.718.771a1.192 1.192 0 0 1-.595.004zm14.434-2.536a1.183 1.183 0 0 1-.707-.559 1.088 1.088 0 0 1-.142-.58c.001-.214.045-.376.157-.577.168-.299.533-.525.911-.564.489-.05 1.016.294 1.18.771.067.195.076.532.02.718-.08.268-.349.59-.586.707a1.419 1.419 0 0 1-.833.084z"/></svg>