<svg role="img" viewBox="0 0 24 24" xmlns="http://www.w3.org/2000/svg"><path d="M12 7.386c1.66 0 3.008 1.37 3.008 3.057 0 1.687-1.348 3.057-3.008 3.057s-3.008-1.37-3.008-3.057c0-1.687 1.348-3.057 3.008-3.057zm3.565 1.874c1.154-.686 3.562-2.062 4.862-2.415.11-.03.22-.043.327-.043h.008a1.254 1.254 0 0 1 1.195.938 1.268 1.268 0 0 1-.883 1.55c-1.177.32-3.553.373-4.985.374h-.05l-.368-.001a3.823 3.823 0 0 0-.106-.403zm-7.236.403c-1.337.009-4.103-.02-5.403-.373a1.268 1.268 0 0 1-.883-1.55 1.248 1.248 0 0 1 1.53-.895c1.3.353 3.708 1.729 4.862 2.415a3.835 3.835 0 0 0-.106.403zm.441-1.155C7.5 8.08 4.892 7.153 3.774 6.396a1.277 1.277 0 0 1-.345-1.755 1.24 1.24 0 0 1 1.733-.35C6.28 5.05 8.122 7.135 9 8.16a3.822 3.822 0 0 0-.229.348zm6.209-.378c.873-1.027 2.712-3.12 3.83-3.88a1.24 1.24 0 0 1 1.734.345c.384.58.231 1.367-.341 1.756-1.117.76-3.722 1.693-4.992 2.124a3.84 3.84 0 0 0-.231-.345zm-5.417-.581C8.496 6.726 6.33 4.994 5.515 3.91a1.277 1.277 0 0 1 .236-1.774 1.24 1.24 0 0 1 1.751.24c.815 1.082 1.888 3.656 2.389 4.916a3.865 3.865 0 0 0-.329.256zm4.53-.268c.499-1.255 1.578-3.841 2.396-4.927a1.24 1.24 0 0 1 1.751-.238c.548.424.654 1.218.235 1.774-.817 1.085-2.994 2.821-4.057 3.64a3.77 3.77 0 0 0-.326-.25zm-3.487-.376c-.75-1.127-2.25-3.467-2.679-4.756A1.27 1.27 0 0 1 8.712.546a1.246 1.246 0 0 1 1.582.795c.428 1.289.63 4.071.706 5.429a3.686 3.686 0 0 0-.395.135zM13 6.77c.075-1.358.276-4.14.704-5.429a1.246 1.246 0 0 1 1.583-.796 1.27 1.27 0 0 1 .785 1.603c-.428 1.29-1.928 3.63-2.677 4.757A3.694 3.694 0 0 0 13 6.77zm-1.209-.132c-.355-1.31-1.04-4.013-1.04-5.372A1.257 1.257 0 0 1 12 0c.69 0 1.25.567 1.25 1.266 0 1.36-.686 4.061-1.041 5.372a3.754 3.754 0 0 0-.418 0zm4.02 16.283v.586a.493.493 0 0 1-.493.493H8.966a.492.492 0 0 1-.493-.493v-.586a.493.493 0 0 1 .493-.493h6.352a.492.492 0 0 1 .493.493zm-3.446-7.424s2.317-2.611 4.513-3.845c2.592-1.456 6.497-1.118 6.497-1.118s-3.106.936-4.979 3.682c-1.678 2.46-2.72 7.549-2.72 7.549s-1.567-3.82-3.311-6.268zm2.407 6.213H8.488s-.875-1.154-1.197-2.742c-.349-1.72-.917-3.763-1.795-4.889C3.834 11.95.625 10.625.625 10.625s6.043-1.001 9.732 3.65c1.79 2.256 4.412 7.43 4.415 7.435z"/></svg>