<svg viewBox="0 0 24 24" xmlns="http://www.w3.org/2000/svg" role="img"><path d="M11.555 23.6c-1.754-.069-2.788-.722-3.346-2.115l-.056-.14-.057.01c-.032 0-.146.019-.256.033-.783.1-1.511.119-2.062.053-.346-.042-.7-.139-.925-.252a5.926 5.926 0 0 1-.771-.507 6.81 6.81 0 0 1-.816-.701c-.381-.384-.642-.736-.843-1.137a2.983 2.983 0 0 1-.316-1.024 4.64 4.64 0 0 1 0-.684 4.31 4.31 0 0 1 .417-1.362.434.434 0 0 0 .045-.111l-.158-.069C1.208 15.08.395 14.231.283 13.374a4.804 4.804 0 0 0-.067-.34 8.14 8.14 0 0 1-.208-1.275 7.01 7.01 0 0 1 0-.768C.101 9.896.58 9.12 1.496 8.583c.212-.125.614-.308.84-.382a.227.227 0 0 0 .059-.025s-.01-.066-.026-.137a7.527 7.527 0 0 1-.147-1.008 6.612 6.612 0 0 1 .016-.92c.098-.782.29-1.24.862-2.043.718-1.012 1.564-1.62 2.457-1.766.587-.096 1.197-.02 1.882.235a6.5 6.5 0 0 1 .481.204l.06.03.114-.185c.572-.92 1.191-1.567 1.788-1.867.238-.12.391-.17.67-.215.43-.071.744-.102 1.124-.111.737-.018 1.413.098 1.996.343.488.205.849.446 1.224.819.27.267.464.516.651.836.055.093.213.402.244.478l.016.039.16-.082a3.889 3.889 0 0 1 1.325-.412 4.85 4.85 0 0 1 .852.01c.27.04.507.101.716.185.179.07.236.102.637.343.316.19.722.478.998.708.157.13.52.488.634.626.437.525.679 1.044.758 1.625.022.158.024.53.01.685-.062.505-.196.913-.501 1.532 0 0 .1.062.228.129 1.02.538 1.642 1.071 1.952 1.675.098.191.178.436.195.598 0 .037.023.14.042.23.14.648.211 1.38.183 1.881-.03.537-.105.893-.275 1.296a2.706 2.706 0 0 1-1.075 1.223 4.83 4.83 0 0 1-1.153.49c-.046.013-.09.024-.096.027-.01 0 0 .032.022.091.14.356.248.779.3 1.168.031.233.034.707 0 .915-.073.524-.27 1-.543 1.311a6.757 6.757 0 0 0-.22.277c-.441.582-.825.98-1.265 1.313a3.417 3.417 0 0 1-1.573.684c-.15.023-.537.032-.706.016a4.483 4.483 0 0 1-1.268-.33 3.086 3.086 0 0 0-.141-.058s-.041.069-.085.154c-.624 1.192-1.474 1.993-2.355 2.218-.214.054-.799.128-1.245.156a11.34 11.34 0 0 1-.763.015zm1.9-.251c.2-.043.503-.154.635-.233.177-.104.464-.307.539-.38l.18-.17c.08-.074.178-.174.219-.223.04-.049.107-.126.147-.173.172-.204.429-.593.605-.916l.088-.162-.184-.095c-.507-.262-1.105-.652-1.971-1.287-.04-.03-.076-.05-.08-.047 0 0-.017.075-.03.159-.051.332-.108.64-.148.804l-.079.324c-.096.393-.22.731-.382 1.045a3.06 3.06 0 0 1-.32.511 3.808 3.808 0 0 1-.44.467.35.35 0 0 0-.063.06c0 .013.175.103.294.15.196.08.45.146.672.176.15.02.18.019.316-.01zm-1.38-.378c.12-.093.35-.317.452-.442.42-.508.675-1.116.862-2.052a28.4 28.4 0 0 0 .164-.96c0-.026-.017-.044-.237-.212-.8-.609-1.431-1.071-1.464-1.071a5.29 5.29 0 0 0-.473.333c-.44.343-.867.784-1.092 1.125l-.028.042.042.162c.438 1.684.891 2.558 1.603 3.091.04.03.074.054.077.054l.095-.07zm-5.228-1.592c.377-.018.928-.068 1.03-.093.02 0 .058-.012.086-.016.041-.01.05-.01.046-.024 0-.01-.027-.093-.054-.184-.155-.53-.267-1.163-.37-2.103-.018-.157-.032-.29-.032-.296 0-.01-.027.01-.06.035a7.188 7.188 0 0 1-.227.159 9.666 9.666 0 0 0-.199.136 8.51 8.51 0 0 1-.886.475 8.32 8.32 0 0 1-.645.224 4.669 4.669 0 0 1-1.191.205c-.124.01-.226.013-.228.015-.01.01.052.22.088.317.093.25.262.508.467.715.087.087.189.146.39.222.15.057.423.134.553.156.35.06.79.08 1.233.058zm-2.392-1.588c1.076-.085 2.103-.5 3.037-1.225.116-.09.134-.107.134-.133 0-.048-.06-.583-.106-.946-.064-.503-.165-1.1-.19-1.115a4.321 4.321 0 0 0-.51-.112 6.865 6.865 0 0 0-1.179-.082h-.255l-.221.376c-.563.955-.809 1.446-.994 1.985-.1.292-.16.565-.182.852-.01.127-.01.342.01.39 0 .015.022.017.165.017.088 0 .22 0 .294-.01zm15.39-.015c.04-.04.046-.664.01-.946-.085-.646-.284-1.191-.655-1.798a6.666 6.666 0 0 0-.669-.89l-.035-.04-.316.037c-.411.047-.74.09-1.033.136a9.55 9.55 0 0 0-.656.125c-.01.01-.054.22-.085.397a6.184 6.184 0 0 0-.08 1.238c0 .175.01.339.014.363.01.043.01.046.111.109.186.114.674.4.873.51.842.469 1.445.697 2.012.763.04 0 .168.01.284.01.173 0 .213 0 .226-.014zm.28-.145c.313-.08.466-.154.852-.419a1.96 1.96 0 0 0 .276-.323 2.1 2.1 0 0 0 .219-.443c.238-.658.236-1.377-.01-2.223-.082-.285-.14-.446-.16-.44-.028.01-.382.076-.592.115-.46.084-1.366.213-1.878.268-.068.01-.123.017-.123.021 0 0 .056.078.124.163a5.596 5.596 0 0 1 .884 1.524c.065.172.084.235.14.46.092.364.111.537.111.984 0 .191 0 .348.01.348l.147-.035zm-9.699-.289.152-.177a6.203 6.203 0 0 1 .779-.71c.032-.027.115-.089.185-.137l.127-.088-.096-.062a9.205 9.205 0 0 0-.734-.424c-.383-.19-.781-.324-1.068-.361l-.055-.01.026.07c.074.197.254.835.434 1.54l.13.506.025-.035c.014-.02.057-.07.094-.115zm5.806-1.487a6.023 6.023 0 0 1 .115-1.29l.01-.033-.066.015a8.69 8.69 0 0 0-.965.302 3.142 3.142 0 0 0-.535.27c-.111.074-.244.181-.244.197 0 0 .095.056.212.116a27.281 27.281 0 0 1 1.476.823v-.4zm-1.824-.547c.028-.04.044-.084.079-.222.334-1.305 1.237-2.224 2.794-2.846l.09-.035v-.1c0-.088-.012-.12-.076-.312a5.496 5.496 0 0 1-.144-3.026c.07-.313.2-.727.32-1.02l.043-.103-.045-.04c-.041-.036-.055-.042-.154-.059a3.634 3.634 0 0 1-1.466-.594 4.168 4.168 0 0 1-1.016-1.061 6.78 6.78 0 0 1-.62-1.157c-.065-.15-.085-.187-.1-.186a3.34 3.34 0 0 0-.202.06c-.594.19-1.162.28-1.777.28-.704 0-1.372-.115-2.13-.368l-.222-.074-.028.022c-.022.018-.042.062-.092.207a5.523 5.523 0 0 1-.366.84c-.572 1.042-1.409 1.737-2.685 2.231-.06.024-.105.047-.107.056 0 .01.015.046.038.084.056.092.181.343.242.485.06.14.144.394.186.564.116.46.136.985.06 1.515-.072.49-.26 1.1-.505 1.643l-.062.138.027.026c.022.02.059.033.179.059a3.477 3.477 0 0 1 1.529.74c.124.106.355.343.463.477.338.42.628.957.866 1.604.04.106.072.195.074.197l.032-.018a.325.325 0 0 1 .103-.036c.048-.01.126-.04.225-.088a4.506 4.506 0 0 1 1.583-.44 6.24 6.24 0 0 1 .721 0c.507.042.99.156 1.548.365.234.088.552.222.564.239l.036-.047zm-3.074-2.065-.572-.595-.147-.153.01-.244c.01-.258.018-.333.029-.332a24.069 24.069 0 0 0 .549.572c.217.222.435.45.485.504.08.088.093.1.109.088.022-.015.35-.31.552-.496.298-.275.49-.45.642-.585.167-.15.185-.17.287-.324.121-.185.216-.407.263-.618a1.19 1.19 0 0 0 .024-.318c0-.18 0-.223-.024-.317-.137-.613-.646-1.107-1.287-1.249a1.79 1.79 0 0 0-1.197.15 2.416 2.416 0 0 0-.229.13.969.969 0 0 1-.106.066c-.01-.01.034-.496.042-.508.012-.02.218-.116.346-.162.279-.1.513-.142.786-.142.9 0 1.719.588 1.998 1.437.183.558.111 1.157-.203 1.694a1.173 1.173 0 0 1-.297.361l-.994.907c-.555.507-.63.575-.638.575 0 0-.196-.199-.43-.442zm-.725-1.383a2.08 2.08 0 0 1-.993-.457 10.956 10.956 0 0 1-.47-.467l-.791-.82c-.223-.23-.405-.423-.405-.429 0-.01.037-.041.081-.079l.764-.669c.713-.627.709-.623.714-.615 0 0 0 .13-.01.285-.01.265-.012.281-.033.298l-.4.352-.44.386-.06.052.169.189.374.424c.275.316.433.485.575.613.33.3.604.453.944.527.04.01.135.014.271.013.176 0 .227 0 .319-.024.235-.05.505-.156.747-.293a1.92 1.92 0 0 1 .137-.074c.01 0 0 .169-.013.39l-.01.102-.05.026c-.239.12-.614.237-.876.272a2.67 2.67 0 0 1-.551 0zm.596-.104c.212-.039.399-.094.628-.184l.158-.063.01-.048a.784.784 0 0 0 0-.223s-.036.017-.07.038a2.34 2.34 0 0 1-.69.258 1.42 1.42 0 0 1-.34.023c-.194 0-.24 0-.333-.024a1.76 1.76 0 0 1-.388-.138 3.61 3.61 0 0 1-.444-.296 7.135 7.135 0 0 1-.708-.736 6.039 6.039 0 0 1-.146-.168 16.06 16.06 0 0 0-.342-.383c-.049-.052-.063-.079-.063-.117 0-.046.018-.067.151-.181.07-.06.159-.139.2-.176.04-.038.14-.127.224-.198.083-.07.196-.169.25-.219l.1-.091.01-.141c0-.078.01-.142 0-.144 0 0-.224.187-.357.306a8.53 8.53 0 0 1-.187.162 5.855 5.855 0 0 0-.177.157 7.74 7.74 0 0 1-.217.19c-.073.062-.16.139-.193.17-.033.033-.09.083-.125.112l-.065.053.322.33c.177.182.34.352.363.378.022.026.138.146.258.266.12.121.275.28.344.356.069.075.151.16.184.192.09.085.311.255.404.31.21.124.454.206.742.249.07.01.41 0 .501-.02zm3.106-.41c0-.01.02-.557.022-.564l.809-.713a.835.835 0 0 0 .102-.097c0-.01-.062-.078-.14-.163-.075-.084-.2-.223-.273-.31-.687-.798-1.023-1.083-1.439-1.222a1.17 1.17 0 0 0-.473-.073c-.162 0-.207 0-.32.028a2.7 2.7 0 0 0-.804.325.419.419 0 0 1-.082.043c-.01-.01.018-.486.024-.496.01-.016.326-.145.473-.192.294-.095.517-.128.797-.118.209.01.322.027.517.092.3.099.64.316.857.543.04.042.39.406.779.807.388.401.705.736.705.743 0 .01-.139.135-.308.284-.948.833-1.243 1.09-1.246 1.083zm.384-.461a6.712 6.712 0 0 1 .33-.289c.089-.075.194-.167.234-.205.04-.038.13-.117.2-.176.068-.06.157-.138.196-.175l.072-.068-.06-.064c-.12-.126-.36-.372-.674-.697a24.1 24.1 0 0 1-.376-.391 8.995 8.995 0 0 0-.445-.452 3.466 3.466 0 0 0-.49-.32 1.82 1.82 0 0 0-.575-.154c-.337-.036-.784.049-1.158.221-.137.063-.132.054-.132.221v.092l.06-.03a5.23 5.23 0 0 1 .478-.205 1.47 1.47 0 0 1 .512-.085c.22-.01.332.01.502.054.16.046.444.197.627.334.111.084.435.39.537.508a56.945 56.945 0 0 0 .363.417c.139.16.265.302.344.386.093.098.109.121.109.162 0 .045-.025.081-.1.142a3.858 3.858 0 0 0-.156.135 8.155 8.155 0 0 1-.2.178 26.09 26.09 0 0 0-.295.26l-.18.16v.113c0 .062 0 .128-.01.148-.01.035-.01.034.087-.047a26.2 26.2 0 0 1 .198-.173zm-2.952.08c-.75-.065-1.407-.51-1.72-1.16-.296-.62-.255-1.315.116-1.936.13-.218.164-.254.71-.753l.856-.783a9.68 9.68 0 0 1 .357-.317c.01 0 .272.263.59.588l.578.592-.01.21c-.01.256-.017.365-.028.361 0 0-.263-.264-.574-.583a16.07 16.07 0 0 0-.58-.58c-.01 0-.256.221-.55.491l-.712.653c-.151.139-.185.176-.235.256-.112.181-.2.396-.244.592a2.18 2.18 0 0 0-.02.537c.05.385.247.755.535 1.005.47.408 1.075.523 1.7.321a2.83 2.83 0 0 0 .498-.238.489.489 0 0 1 .084-.048c.01 0 .01.095.01.27v.271l-.091.038a2.72 2.72 0 0 1-1.267.214zM7.187 16.1c-.137-.645-.338-1.175-.576-1.518-.06-.085-.13-.17-.137-.162 0 0-.169.304-.369.669a315.801 315.801 0 0 1-.533.973c-.01.014.032.017.295.023.31.01.452.016.713.044.16.017.467.067.565.092.032.01.06.015.064.016l-.023-.137zm-4.525-.779c.317-.509.787-1.177 1.19-1.69a.714.714 0 0 0 .07-.098s-.068-.017-.144-.033a7.84 7.84 0 0 1-1.006-.282 8.207 8.207 0 0 1-.352-.127c-.293-.115-.847-.399-.99-.508a2.873 2.873 0 0 0-.126-.086 3.472 3.472 0 0 1-.415-.33 1.975 1.975 0 0 0-.123-.109c-.01 0-.124.203-.167.3a2.8 2.8 0 0 0-.188.625 1.95 1.95 0 0 0-.042.365c.018.133.085.34.172.535.056.125.208.355.33.499.148.175.191.22.338.345l.178.152c.072.062.217.162.387.267.072.044.15.095.175.112.062.043.547.27.578.27 0 0 .064-.093.135-.207zm15.336-1.434c.457-.145 1.12-.337 1.47-.424l.07-.018-.102-.118-.226-.263a5.434 5.434 0 0 1-.146-.172 5.323 5.323 0 0 0-.126-.152 5.048 5.048 0 0 1-.136-.165 6.438 6.438 0 0 0-.138-.17 2.753 2.753 0 0 1-.183-.237l-.025-.03-.11.14a5.87 5.87 0 0 0-.34.47c-.303.456-.472.833-.52 1.167-.01.062-.02.12-.023.13 0 .015.012.012.103-.019l.431-.14zm1.98-.45c.565-.14 1.002-.26 1.383-.38.66-.209 1.161-.442 1.54-.717.119-.085.416-.366.457-.43l.018-.029-.06-.055c-.599-.547-1.407-.974-2.272-1.198a6.749 6.749 0 0 0-1.214-.205l-.069-.01-.218.259c-.744.882-1.068 1.271-1.077 1.296-.01.024.533.7.91 1.132.256.294.354.398.37.393.01 0 .114-.03.232-.058zm-15.602-.273.505-.598c.137-.162.32-.38.405-.485l.155-.191-.027-.044a9.878 9.878 0 0 0-1.11-1.412l-.058-.062-.288.06c-1.35.28-2.029.51-2.571.869a2.51 2.51 0 0 0-.573.51l-.065.082.024.026c.013.014.078.076.144.136.654.6 1.488 1.008 2.644 1.292.204.05.517.12.543.12.01 0 .131-.137.272-.304zm19.027-1.506a1.92 1.92 0 0 0 .268-.995c0-.14 0-.17-.028-.272a2.165 2.165 0 0 0-.412-.807 3.357 3.357 0 0 0-.285-.31c-.4-.362-.71-.579-1.254-.875a11.73 11.73 0 0 1-.204-.113c-.064-.04-.07-.037-.12.045a31.74 31.74 0 0 1-.866 1.271 52 52 0 0 1-.515.69.204.204 0 0 0-.03.044s.018.01.04.01c.12 0 .568.068.854.13.276.06.712.2 1.029.33.289.117.756.371.968.525l.209.151c.074.053.17.13.212.17.043.04.082.073.085.073 0 0 .026-.03.048-.065zm-17.828-.112c.37-.49.604-.89.722-1.24.043-.128.094-.353.083-.364 0 0-.06.01-.125.032-.346.112-.971.274-1.53.398-.149.033-.272.06-.274.062 0 0 .122.15.264.31.046.052.11.126.142.165a8.282 8.282 0 0 1 .55.744c.02.035.041.058.045.053l.123-.16zm11.95-2.135.342-.634.54-1.007s-.066-.01-.155 0a6.8 6.8 0 0 1-.791-.032 5.626 5.626 0 0 1-.831-.15c-.01.01.053.293.093.45.117.467.285.84.517 1.152.064.086.237.288.246.288 0 0 .02-.03.04-.065zM2.836 7.946a19.72 19.72 0 0 1 2.074-.403l.227-.036s-.027-.047-.064-.101a5.445 5.445 0 0 1-.148-.234 8.784 8.784 0 0 1-.363-.726 29.738 29.738 0 0 0-.07-.18A8.068 8.068 0 0 1 4.21 5.26a11.151 11.151 0 0 1-.157-1.043c0-.024-.03-.024-.174 0a2.186 2.186 0 0 0-.923.421c-.245.192-.27.224-.376.493a3.33 3.33 0 0 0-.204.716c-.104.606-.086 1.252.058 2.011.017.092.034.17.036.175 0 0 .036 0 .075-.013l.29-.077zm15.647-.284.087-.01.035-.053c.05-.077.395-.625.545-.866.478-.767.735-1.275.87-1.722.081-.268.108-.442.103-.69V4.15h-.078a4.654 4.654 0 0 0-.637.041c-.973.126-1.975.555-2.98 1.278l-.133.095-.001.063a12.49 12.49 0 0 0 .19 1.716l.022.118.04.01c.301.082.777.16 1.133.187.141.011.689.014.808 0zM5.954 7.496a46.8 46.8 0 0 0 .825-.12c.265-.043.713-.124.719-.13.01-.01.069-.298.097-.468.066-.394.1-.828.09-1.152l-.01-.177-.442-.241c-.777-.425-1.134-.605-1.519-.768-.547-.23-.966-.337-1.396-.352h-.18c-.01.01.015.225.046.463.106.822.31 1.553.603 2.165.132.275.276.514.454.754.076.102.087.113.111.108.015 0 .284-.041.597-.084zM8.175 7a6.33 6.33 0 0 0 .888-.294c.138-.058.475-.227.475-.238 0 0-.058-.03-.128-.058-.345-.137-.89-.397-1.388-.66a7.146 7.146 0 0 0-.231-.119s-.01.11-.012.243a6.539 6.539 0 0 1-.15 1.235c-.01.018.28-.04.546-.108zm5.691-.848c-.09-.244-.28-.812-.4-1.203a2.466 2.466 0 0 0-.083-.248s-.03.018-.054.04a7.235 7.235 0 0 1-.239.184c-.105.08-.199.153-.207.163-.01.01-.103.083-.21.162-.223.166-.405.31-.406.32 0 .016.499.327.715.444.206.112.447.217.648.284.111.037.307.086.316.08 0 0-.034-.103-.08-.226zm-1.13-1.08c.342-.263.641-.494.665-.514l.043-.035-.052-.17c-.416-1.364-.683-2.036-1.035-2.605a3.444 3.444 0 0 0-.445-.572l-.072-.071-.156.16c-.698.715-1.097 1.615-1.264 2.852a3.168 3.168 0 0 0-.024.207c.01.016 1.151.875 1.435 1.077l.208.148c.035.025.043.027.058.015.01-.01.296-.23.638-.493zm3.9.125c.127-.085.32-.204.52-.321.182-.106.678-.346.89-.43a6.2 6.2 0 0 1 .573-.189c.078-.02.16-.045.183-.053a5.04 5.04 0 0 1 .968-.141c.123-.01.225-.013.227-.015l-.02-.09c-.073-.292-.235-.558-.495-.82-.218-.217-.25-.242-.408-.324-.464-.24-.82-.323-1.38-.323-.57 0-.934.084-1.565.361-.103.045-.19.084-.193.088 0 0 .018.087.048.187.194.65.324 1.35.374 2.016l.018.237.063-.046a8.2 8.2 0 0 1 .198-.136zm-6.3-1.186c.028-.187.098-.555.138-.711.142-.564.38-1.103.695-1.572.04-.057.095-.136.126-.173l.118-.147c.034-.043.111-.127.17-.189l.109-.11-.087-.069a2.065 2.065 0 0 0-.9-.415l-.148-.03-.11.02a1.996 1.996 0 0 0-.726.307c-.245.16-.318.22-.6.492a6.324 6.324 0 0 0-.76.938 3.424 3.424 0 0 0-.232.368l.176.094c.542.288 1.179.704 1.899 1.238.061.045.112.082.113.081l.02-.122z"/></svg>