<svg viewBox="0 0 24 24" xmlns="http://www.w3.org/2000/svg" role="img"><path clip-rule="evenodd" d="M19.622 2.525c-.947.005-1.71.796-1.707 1.77.003.973.787 1.772 1.736 1.769.939-.004 1.732-.826 1.726-1.789a1.76 1.76 0 0 0-1.755-1.75zm2.29 2.139-.056.151a4.01 4.01 0 0 1-1.464 1.946c-.768.551-1.633.88-2.543 1.101-1.713.415-3.452.442-5.196.318a23.032 23.032 0 0 1-5.697-1.115 4.802 4.802 0 0 0-1.403-.26c-1.16-.03-1.818.688-1.665 1.835.072.536.295 1.021.554 1.49.026.046.084.094.048.15-.03.047-.092.015-.14.013a4.845 4.845 0 0 0-2.142.37c-1.366.576-2.34 1.894-2.193 3.574.1 1.153.65 2.103 1.356 2.978.328.408.7.776 1.105 1.109.293.24.58.494.898.698.277.177.557.352.851.507a15.3 15.3 0 0 0 2.156.928c.444.152.899.275 1.354.395.4.107.807.186 1.21.274.477.105.964.174 1.45.226.534.058 1.07.097 1.606.113.62.02 1.24-.006 1.86.01.309.007.605-.076.91-.075.264.001.517-.083.776-.106.437-.038.856-.162 1.279-.258.444-.1.88-.26 1.3-.441.831-.359 1.638-.764 2.374-1.301a11.01 11.01 0 0 0 1.607-1.395c.327-.353.637-.72.901-1.12.276-.416.54-.839.7-1.322.04-.124.078-.254.122-.379.043-.122.053-.258.11-.371.065-.126.005-.256.06-.377a7.96 7.96 0 0 1-.83 1.438c-.534.732-1.2 1.326-1.945 1.843-.58.403-1.2.72-1.845.997-.364.157-.74.283-1.118.402a10.89 10.89 0 0 1-1.233.334c-.342.064-.683.134-1.025.204-.323.065-.654.062-.979.128-.182.037-.379 0-.564.028-.501.073-1.008.037-1.51.062-.333.017-.686-.014-1.029-.032-.36-.019-.726-.004-1.08-.063-.354-.06-.714-.093-1.069-.147a20.535 20.535 0 0 1-1.858-.378 13.996 13.996 0 0 1-1.757-.578 9.847 9.847 0 0 1-1.41-.676 8.538 8.538 0 0 1-1.546-1.175c-.548-.522-1.032-1.088-1.341-1.786-.163-.366-.261-.751-.224-1.155.065-.72.462-1.218 1.094-1.527.873-.429 1.767-.363 2.659-.054a4.811 4.811 0 0 1 1.438.802c.204.163.427.284.7.237.356-.062.6-.267.69-.62.094-.369-.024-.686-.33-.901-.49-.344-.879-.783-1.237-1.251-.426-.557-.834-1.127-1.086-1.79-.068-.18-.046-.206.149-.18.358.045.7.156 1.043.267 1.426.462 2.888.764 4.373.95 1.483.184 2.959.077 4.423-.195 1.386-.257 2.717-.68 3.925-1.431.913-.568 1.662-1.293 2.12-2.283.166-.36.287-.735.315-1.136zm-.678 5.826c-.97-.022-1.743.653-1.968 1.683.145-.15.217-.303.346-.41.347-.284.733-.436 1.191-.42.44.015.815.15 1.086.502.106.138.237.291.217.476-.021.195-.015.39-.04.587-.1.755-.447 1.397-.894 1.986-.333.44-.736.822-1.18 1.154a9.708 9.708 0 0 1-1.191.763c-.46.25-.936.456-1.424.632-.579.21-1.175.372-1.784.483-.163.03-.33.035-.489.077-.36.095-.726.114-1.094.128-.107.004-.2.021-.28.092.797.048 1.589-.018 2.376-.114.576-.07 1.144-.198 1.705-.36.486-.14.959-.314 1.418-.517a8.11 8.11 0 0 0 1.868-1.18c.73-.6 1.28-1.32 1.664-2.179.169-.378.297-.768.32-1.178a2.18 2.18 0 0 0-.447-1.48c-.283-.37-.66-.623-1.093-.696a2.138 2.138 0 0 0-.307-.03z"/></svg>