<svg role="img" viewBox="0 0 24 24" xmlns="http://www.w3.org/2000/svg"><path d="M5.354 23.257c0-.698.008-.743.135-.743.074 0 .135.029.135.064s.105.02.233-.033c.244-.102.397-.078.595.091.097.083.118.215.118.733 0 .586-.01.631-.135.631-.124 0-.135-.045-.135-.535 0-.684-.161-.884-.545-.678-.114.06-.13.145-.13.641 0 .527-.011.572-.136.572-.127 0-.135-.045-.135-.743zm1.983.613c-.244-.149-.398-.524-.33-.802a1 1 0 0 1 .219-.365c.473-.498 1.303-.158 1.303.533 0 .607-.66.959-1.192.634zm.709-.258c.348-.295.159-.828-.295-.828-.406 0-.583.48-.291.79.175.186.394.2.586.038zm1.054.222c-.15-.15-.166-.22-.166-.743 0-.568.003-.577.166-.577s.167.014.186.59c.021.64.058.69.43.597.157-.04.164-.064.164-.614 0-.566.002-.573.169-.573h.169v.711c0 .573-.02.72-.103.751a.21.21 0 0 1-.185-.027c-.048-.038-.142-.044-.219-.013-.246.1-.443.066-.611-.102zm1.638.123c-.026-.026-.048-.361-.048-.745v-.698h.17c.106 0 .168.038.168.103 0 .084.036.077.191-.037.164-.121.216-.13.369-.06.143.065.165.105.113.202-.05.093-.118.113-.293.084-.295-.048-.338.025-.38.653-.026.385-.059.51-.138.526-.058.01-.126-.001-.152-.028zm1.35 0c-.025-.026-.047-.361-.047-.745 0-.646.01-.698.132-.698.072 0 .148.028.17.063.022.037.115.024.22-.031a.526.526 0 0 1 .644.118c.093.107.118.26.118.74 0 .59-.004.605-.152.584-.14-.02-.155-.064-.186-.589-.038-.642-.126-.77-.43-.63-.162.073-.174.112-.192.637-.015.44-.042.563-.124.579-.058.01-.126-.001-.152-.028zm1.968-.072c-.588-.366-.353-1.377.325-1.395.349-.009.6.157.7.465.045.134.07.255.055.27-.014.014-.26.037-.546.051-.287.014-.54.044-.562.067-.07.07.295.387.444.387.078 0 .246-.044.375-.098.229-.095.234-.094.234.061 0 .286-.67.411-1.025.192zm.692-.958c-.12-.224-.403-.275-.574-.104-.18.18-.12.231.268.231.345 0 .369-.01.306-.127zm.915.363a13.41 13.41 0 0 1-.312-.743c0-.018.069-.033.152-.033.123 0 .186.082.326.423.096.232.199.421.23.421.03 0 .124-.182.207-.405.2-.54.361-.574.528-.111.22.612.263.622.477.118.158-.371.217-.446.35-.446h.16l-.173.388c-.096.214-.24.548-.32.743-.08.195-.18.355-.22.355-.042 0-.16-.205-.265-.456a4.747 4.747 0 0 0-.231-.505c-.023-.027-.133.178-.243.456-.11.277-.236.505-.278.505-.042 0-.217-.32-.388-.71zm2.475.64c-.091-.036-.152-.118-.152-.205 0-.11.028-.134.118-.099.227.088.457.107.55.046.126-.085.047-.19-.265-.348-.307-.157-.423-.336-.365-.566.06-.237.371-.352.694-.255.183.055.252.113.252.212 0 .091-.034.127-.104.106-.338-.1-.464-.108-.51-.036-.06.099.076.24.378.39.192.096.235.158.252.363.016.194-.012.27-.133.354-.168.118-.476.135-.715.039zM5.354 21.603v-.304h.743v-1.156l.422.02.422.02.02.725c.025.972 0 .998-.932.998h-.675zm2.23 0v-.304h1.484v-.473H7.583v-.772c0-.611.022-.794.106-.878.088-.087.294-.106 1.182-.106h1.076v1.08h.676v-1.08h.811v1.08h.739c.431 0 .756.03.781.07.024.038.024.157 0 .265-.065.296-.296.341-1.733.341H9.947v.435c0 .646 0 .646-1.288.646H7.583zm1.485-1.689c0-.235-.002-.236-.304-.236s-.304.001-.304.236c0 .236.002.237.304.237.303 0 .304-.001.304-.237zm1.554 1.69v-.305h1.588l-.024.304-.024.304h-1.54zm2.23 0v-.305h.742V20.29c0-1.178.02-1.22.545-1.22h.333v1.306c0 1.61.049 1.53-.934 1.53h-.687zm2.228.001v-.302l.76-.019.76-.019.021-.217.021-.217-.764-.02-.764-.019-.019-.753c-.016-.618 0-.772.09-.86.09-.091.286-.11 1.184-.11h1.076v1.081h.737c.784 0 .81.013.763.341-.038.257-.256.335-.93.335h-.57v.47c0 .397-.021.482-.131.541-.074.04-.587.07-1.182.07H15.08v-.302zm1.554-1.69v-.237h-.676v.473h.676zm-10.538-.538v-.307h.883l-.02.287-.02.287-.421.02-.422.02zm6.012 0v-.307h.886l-.02.287-.022.287-.422.02-.422.02zm6.012 0v-.307h.885l-.027.287-.026.287-.416.02-.416.02zm-7.395-1.396a11.558 11.558 0 0 1-1.86-.472c-.502-.184-1.35-.612-1.35-.68 0-.03.285-.056.633-.056 1.252 0 2.766-.374 3.987-.986 1.682-.842 2.847-2.078 3.415-3.623.106-.291.34-1.279.34-1.438 0-.023.069-.032.152-.02.192.027.236.219.246 1.088.03 2.441-1.437 4.643-3.96 5.946-.658.34-.79.36-1.603.241zm2.059-.004c0-.017.193-.131.43-.254 1.067-.553 2.213-1.627 2.959-2.775.92-1.418 1.32-3.108 1.06-4.49-.181-.96-.058-1.135.354-.508.548.834.854 2.053.77 3.067-.093 1.123-.588 2.608-1.088 3.264-.372.487-1.738 1.165-3.033 1.505-.512.134-1.452.258-1.452.191zm-6.011-1.655c-.231-.049-.905-.597-1.407-1.144-.408-.445-1.26-1.638-1.208-1.69.014-.015.263.081.553.213 2.038.93 5.056.92 7.127-.02.972-.44 1.901-1.228 2.397-2.032.28-.453.507-.56.507-.24 0 .476-.513 1.68-.964 2.261-.734.946-1.883 1.775-2.999 2.163-1.068.37-1.644.475-2.758.5-.594.014-1.156.009-1.248-.01zm11.635-1.052c.2-.519.476-1.533.563-2.061.258-1.566-.112-3.215-1.005-4.484-.426-.606-.192-.724.44-.222.878.699 1.673 1.968 1.954 3.123l.145.594-.306.639a10.074 10.074 0 0 1-1.316 2.033c-.315.375-.543.556-.475.378zM7.245 13.894a47.262 47.262 0 0 0-.743-.128c-.804-.134-1.179-.248-2.127-.652-.6-.255-.651-.32-.947-1.197-.193-.573-.477-2.02-.409-2.086.028-.028.148.06.265.194.759.87 2.272 1.73 3.758 2.135.927.252 2.52.294 3.446.091.659-.144 1.526-.516 2.056-.88.554-.381.757-.216.359.291-1.094 1.394-2.728 2.176-4.678 2.238-.446.014-.887.011-.98-.007zm.068-2.293c-1.373-.296-2.805-1.056-3.862-2.05l-.477-.448.008-.54a7.54 7.54 0 0 1 .046-.775c.082-.521.318-1.419.373-1.419.033 0 .14.16.238.355.547 1.082 1.76 2.28 3.043 3.006.515.29 1.504.681 2.117.835.524.132 2.092.116 2.52-.025.294-.097.33-.097.366-.002.066.172-.06.294-.61.593-.746.405-1.5.576-2.516.57-.444-.004-1.005-.048-1.246-.1zm13.408-.993c-.087-.419-.526-1.438-.807-1.874a5.486 5.486 0 0 0-1.594-1.62c-.295-.19-.537-.37-.537-.401 0-.282.848-.109 1.79.364.343.172.792.47 1.03.682l.423.377v.877c0 .873-.108 1.815-.208 1.815-.028 0-.072-.1-.097-.22zM8.292 9.582c-.944-.196-1.638-.51-2.435-1.1-.6-.445-1.162-1.033-1.665-1.741-.538-.757-.616-.943-.523-1.238.147-.464.956-1.836 1.082-1.836.033 0 .078.084.101.186.463 2.098 1.962 4.01 3.822 4.875.31.144.792.314 1.07.377.787.178.845.202.845.343 0 .088-.063.142-.203.172-.346.074-1.668.05-2.094-.038zm.946-1.587c-1.485-.44-2.764-1.62-3.477-3.21-.224-.498-.542-1.468-.542-1.651 0-.132.702-.846 1.266-1.287.195-.152.357-.269.358-.258.002.01.015.352.03.761.027.781.143 1.441.362 2.06.476 1.345 1.33 2.492 2.334 3.139.805.519.645.735-.33.446zm11.247-1.29c-.318-.272-1.185-.762-1.668-.943a6.717 6.717 0 0 0-.898-.245c-.581-.112-.748-.22-.568-.37.162-.133 2.162-.121 2.592.016.294.094.308.111.517.648.189.485.349 1.102.284 1.097a2.251 2.251 0 0 1-.259-.204zm-11.1-.64C8.233 5.082 7.59 3.795 7.38 2.05l-.085-.705.16-.133c.206-.17 1.201-.641 1.465-.694l.201-.04-.057.294c-.195.999-.213 1.215-.177 2.046.053 1.206.336 2.066 1.016 3.091.482.726.238.8-.518.155zm.969-1.281c-.646-.939-.936-2.334-.75-3.606.125-.854.164-.928.533-1.023C10.546.05 11.595-.02 11.56.06c-.014.034-.169.351-.342.707-.59 1.207-.782 2.386-.56 3.443.155.74.158.833.022.86-.071.015-.19-.089-.325-.286zm5.851-.677c-.021-.057.027-.163.111-.241.27-.253 1.218-.67 1.815-.8l.584-.125.294.365c.536.665.598.752.598.832 0 .044-.052.063-.118.042-.065-.02-.406-.085-.759-.146-.682-.116-1.179-.097-1.947.077-.527.12-.53.12-.578-.004zm-4.497-.229c-.11-.206-.087-1.79.033-2.305.16-.685.456-1.427.604-1.52.102-.063.284-.069.736-.023.764.078.828.111.631.33-.896.99-1.33 1.82-1.593 3.046-.127.59-.264.747-.41.472zm3.103-.477c0-.15.511-.787.941-1.175.317-.285 1.067-.788 1.176-.788.119 0 1.068.76 1.01.81-.03.026-.236.085-.459.132a5.956 5.956 0 0 0-1.917.819c-.54.359-.751.416-.751.202zm-1.62-.19c.002-.61.665-1.991 1.246-2.596l.24-.25.354.124c.544.19.996.398.995.457 0 .03-.192.155-.426.28-.695.368-1.414 1.046-1.877 1.767-.346.54-.534.617-.532.218z"/></svg>