<svg role="img" viewBox="0 0 24 24" xmlns="http://www.w3.org/2000/svg"><path d="m.228 15.888.007-.049 11.883-.005L24 15.83v.109H.221zm17.321-.39c-.217-.04-.216-.04-.223-.187l-.006-.134.12.063c.222.117.429.106.444-.023.009-.075-.024-.097-.201-.138-.188-.044-.292-.106-.33-.2-.132-.315.192-.539.644-.443l.13.028v.127c0 .118-.021.16-.054.106-.025-.04-.173-.09-.277-.094-.079-.003-.113.007-.149.043-.062.061-.04.13.052.156l.204.059a.45.45 0 0 1 .196.102c.053.056.06.08.06.201 0 .118-.007.147-.054.197a.54.54 0 0 1-.12.092c-.08.042-.318.066-.435.045zm-16.781-.54v-.522h.338l.162.288.163.289.006-.289.006-.288h.238v1.044H1.54c-.078 0-.141-.009-.141-.02 0-.019-.075-.156-.28-.513l-.101-.174-.007.13a5.167 5.167 0 0 0 0 .354l.007.223h-.25zm1.98.516c0-.01.315-.946.337-1 .012-.031.043-.038.165-.038.083 0 .15.004.15.008s.074.222.165.484l.177.514c.01.034-.006.038-.13.038H3.47l-.024-.099-.025-.098-.179.006-.178.006-.024.087-.025.087-.134.006a.496.496 0 0 1-.134-.002zm.562-.521-.056-.169c-.01-.028-.115.235-.115.287 0 .01.048.018.107.018h.108zm1.504.005v-.522h.32l.111.239c.062.132.117.24.124.24.007 0 .04-.062.074-.137.033-.075.083-.182.11-.24l.049-.102h.321v1.044h-.281l-.006-.328-.006-.327-.089.202-.088.203h-.188l-.09-.207-.089-.207-.006.332-.006.332h-.26zm2.262 0v-.522h.718v.218h-.457v.151h.414v.218h-.416l.007.125c.004.08.016.126.034.128.015 0 .115.004.223.005l.196.003v.196h-.718zm1.85 0v-.522h.271l-.007.184-.007.185h.373v-.369h.272v1.044h-.272v-.457h-.37v.457h-.26zm2.083-.001.006-.523.166.006.166.006.159.283c.088.155.16.273.162.26v-.288l-.002-.266h.26v1.044h-.271l-.196-.353-.196-.353-.006.353-.006.353h-.249l.006-.523zm2.05 0v-.521h.741l-.007.103-.007.103-.223.006-.223.006v.151h.414v.218h-.416l.007.125.007.125.196.004.223.005c.017 0 .027.036.027.099v.098h-.74zm2.054.496a22.765 22.765 0 0 1-.136-.517l-.125-.49.129-.007c.07-.004.136.001.145.011.01.01.043.145.075.3.031.156.063.298.07.316.01.03.041-.074.147-.484l.038-.147h.274l.08.332c.044.182.082.334.086.338.003.003.038-.146.078-.332l.072-.338h.137c.076 0 .138.005.138.012 0 .012-.145.579-.22.864l-.046.168h-.312l-.026-.125c-.048-.228-.13-.495-.142-.462a7.633 7.633 0 0 0-.082.31l-.07.277h-.15c-.1 0-.153-.009-.16-.027zm4.15-.11.005-.135h.24l.006.136.006.136h-.266zm1.365.051c0-.082.003-.086.078-.092l.077-.007v-.3l-.001-.33c0-.019-.028-.034-.072-.038-.066-.006-.07-.012-.077-.1l-.007-.092h.59v.197l-.076-.008-.076-.008v.69h.076c.074 0 .076.002.076.087v.087h-.588v-.085zm1.719-.436v-.522h.294c.325 0 .407.02.485.12.036.044.047.09.047.179 0 .11-.006.126-.089.208-.103.103-.108.085.086.33l.14.18c.016.02-.017.027-.15.027h-.172l-.052-.082c-.119-.183-.23-.307-.28-.309-.046 0-.048.006-.048.195v.196h-.261v-.522zm.504-.102c.045-.04.053-.159.014-.198-.015-.015-.078-.027-.142-.027h-.115v.261h.101c.064 0 .117-.013.142-.036zM.175 14.17a.135.135 0 0 1 0-.065c.01-.036.59-.038 11.89-.033l11.88.005v.109l-11.88.005c-9.494.004-11.883 0-11.89-.022zm12.47-.4a3.65 3.65 0 0 1-.65-.174c-.709-.285-1.127-.76-1.23-1.4a2.048 2.048 0 0 0-.04-.21.586.586 0 0 0-.055.14c-.066.206-.226.51-.37.7-.322.43-.752.72-1.28.864a1.52 1.52 0 0 1-.508.058 1.54 1.54 0 0 1-.506-.058 2.068 2.068 0 0 1-.902-.5l-.135-.13-.076.067c-.288.253-.762.473-1.253.582a4.398 4.398 0 0 1-1.024.034c-.673-.09-1.244-.466-1.466-.964a.718.718 0 0 0-.076-.146c-.023 0-.207.25-.616.836-.106.15-.206.28-.223.286-.04.016-.495-.204-.692-.335a2.468 2.468 0 0 1-.782-.865c-.195-.385-.262-.68-.261-1.132 0-.337.035-.558.128-.816.122-.34.25-.542.491-.775.33-.318.722-.5 1.286-.594.244-.041.341-.045 1.147-.04l.881.006.016 1.23c.02 1.486.032 1.582.238 1.817.143.163.424.243.725.206.252-.031.4-.098.526-.237a1.3 1.3 0 0 0 .205-.398c.018-.064.03-.505.039-1.356l.013-1.262h1.338c1.033 0 1.375.007 1.5.03.259.047.54.146.73.256.228.132.509.417.64.648.098.172.244.54.277.698.01.053.022-.407.029-1.166l.01-1.254.217.092c.119.051.42.19.667.307l.452.215.007.348.007.349.059-.12c.032-.066.11-.172.173-.235a.907.907 0 0 1 1.296-.011c.133.13.24.336.26.504l.013.111.687.006.688.006.007.74c.009 1.001-.024 1.29-.193 1.696a2.367 2.367 0 0 1-1.003 1.098c-.204.11-.504.209-.721.239a4.02 4.02 0 0 1-.69.009zm-9.571-2.242v-.992l-.234.014c-.744.045-1.071.325-1.071.915 0 .502.234.825.696.957.145.041.57.118.592.106.01-.005.017-.454.017-1zm10.334.839a.7.7 0 0 0 .325-.301c.1-.198.111-.296.122-1.11.01-.765.01-.771-.03-.663a.905.905 0 0 1-.73.62.925.925 0 0 1-.962-.49.612.612 0 0 0-.068-.12c-.005 0-.006.321-.001.713.007.658.012.723.055.855.091.277.247.44.503.524.097.033.174.04.393.034.238-.006.287-.013.393-.062zm-4.62-.109a.856.856 0 0 0 .368-.24.814.814 0 0 0 .216-.375 1.025 1.025 0 0 0-.033-.585 1.01 1.01 0 0 0-.451-.474c-.141-.07-.158-.074-.387-.074-.227 0-.247.004-.386.073a1.028 1.028 0 0 0-.453.479.97.97 0 0 0 .037.758c.205.388.695.585 1.09.438zm6.967 1.464c-.025-.008-.028-.957-.003-.998.008-.013.084-.074.167-.136a7.12 7.12 0 0 0 .185-.137 138.346 138.346 0 0 0 .913-.69c.102-.075.189-.146.193-.156.004-.01.02-.018.038-.018.017 0 .03-.008.03-.018 0-.01.038-.039.085-.065.105-.06.234-.06.307-.004.03.023.064.043.077.043.012 0 .056.028.097.063.065.053.342.262.522.395.03.022.117.087.192.145.076.057.154.114.173.126a1 1 0 0 1 .102.082c.036.033.077.06.091.06.014 0 .029.008.033.016.012.027.416.322.475.346.169.07.197.073.301.024.108-.05.27-.153.34-.217.023-.021.054-.039.068-.039.015 0 .03-.008.034-.018.006-.015.22-.17.32-.232a24.295 24.295 0 0 1 .557-.382c.132-.088.29-.197.35-.242a.559.559 0 0 1 .135-.083c.013 0 .026-.008.03-.017.02-.046.152-.113.223-.113.067 0 .22.064.252.105a.22.22 0 0 0 .046.036 15.967 15.967 0 0 1 .566.392c.072.043.35.24.379.266a.11.11 0 0 0 .047.028c.01 0 .042.02.072.044.03.024.128.094.217.156.09.061.17.121.178.133.008.012.011.266.008.565l-.007.543-3.885.002c-2.137.001-3.896 0-3.908-.005zm3.731-1.422c-.14-.051-.507-.291-.53-.347-.003-.01-.016-.018-.029-.018-.012 0-.132-.08-.267-.18a43.182 43.182 0 0 0-.382-.277 14.918 14.918 0 0 1-.462-.338c-.02-.017-.047-.031-.058-.031a.031.031 0 0 1-.026-.018.62.62 0 0 0-.116-.091c-.06-.04-.114-.08-.12-.088a.457.457 0 0 0-.078-.056 1.708 1.708 0 0 1-.141-.1 15.69 15.69 0 0 0-.27-.2l-.219-.16a9.453 9.453 0 0 0-.13-.091.677.677 0 0 1-.116-.093c-.004-.009-.02-.017-.038-.017-.017 0-.03-.007-.03-.016a.473.473 0 0 0-.12-.093.473.473 0 0 1-.12-.092c0-.01-.01-.016-.021-.016-.02 0-.077-.042-.143-.104-.016-.015-.039-.027-.052-.027a.022.022 0 0 1-.023-.022.022.022 0 0 0-.022-.021c-.02 0-.037-.013-.154-.112-.04-.034-.042-.065-.036-.566l.006-.53h7.721l.006.581.006.58-.296.203c-.163.111-.47.322-.68.468a12.008 12.008 0 0 1-.46.31 1.107 1.107 0 0 1-.238.153.023.023 0 0 0-.024.023c0 .012-.017.028-.038.036a.59.59 0 0 0-.105.065.34.34 0 0 1-.081.05.531.531 0 0 0-.135.104c-.016.014-.04.027-.052.027-.013 0-.024.01-.024.021 0 .012-.01.022-.022.022a.598.598 0 0 0-.137.082 4.88 4.88 0 0 1-.149.103c-.14.089-.444.304-.45.32-.004.01-.02.017-.036.017-.016 0-.032.008-.036.019-.012.029-.65.447-.763.5a.382.382 0 0 1-.31.02zm-3.694-.27c-.021-.022-.018-1.656.003-1.67.024-.014.075.016.33.192.12.083.238.161.26.174.024.013.144.092.267.176.123.084.234.157.246.163.058.03.141.094.141.11a.721.721 0 0 1-.158.128l-.18.126c-.036.03-.454.32-.492.343a6.4 6.4 0 0 0-.212.147c-.188.134-.184.132-.205.11zm7.51-.156-.433-.298a2.717 2.717 0 0 1-.258-.189.03.03 0 0 0-.026-.018c-.032 0-.304-.204-.303-.228 0-.022 1.129-.779 1.201-.806.036-.013.038.035.038.826 0 .461-.008.84-.017.84-.01 0-.1-.058-.202-.127zM.039 8.154A.132.132 0 0 1 0 8.1c-.013-.036.562-.038 11.886-.038h11.9l-.008.049-.007.049-11.855.005C5.396 8.168.05 8.163.037 8.154z"/></svg>