<svg viewBox="0 0 24 24" xmlns="http://www.w3.org/2000/svg" role="img"><path d="M4.764 17.63a714.248 714.248 0 0 1-2.927-1.451C.197 15.363-.01 15.256 0 15.234a3.33 3.33 0 0 0 .069-.19 13.883 13.883 0 0 1 .201-.562c.01-.022.048-.118.083-.212a6.34 6.34 0 0 1 .096-.24l.1-.235c.04-.092.096-.221.127-.288l.098-.212a16.556 16.556 0 0 1 .488-.94c.26-.46.557-.922.825-1.282.08-.108.347-.45.395-.508.262-.312.423-.488.704-.769a9.266 9.266 0 0 1 2.04-1.572 8.265 8.265 0 0 1 1.603-.69c.6-.183 1.378-.282 2.195-.28a8.515 8.515 0 0 1 1.612.147c.444.084 1.125.289 1.461.44a7.193 7.193 0 0 1 1.105.59c.305.196.68.499.98.79.616.6 1.082 1.24 1.509 2.073.136.265.337.706.337.737 0 .024.042.057.073.057.041 0 .2-.177.564-.631a12.298 12.298 0 0 0 1.134-1.674c.27-.468.608-1.193.845-1.811a10.263 10.263 0 0 0 .263-.713c.034-.102.066-.198.073-.213.036-.092.218-.665.218-.69 0-.021.028-.037.04-.02.008.013.083.053.637.342a19.137 19.137 0 0 1 .537.285 39.986 39.986 0 0 1 .597.319 700.814 700.814 0 0 1 1.187.635c.266.14.944.504 1.54.825.145.078.264.15.264.159a.253.253 0 0 1-.02.062 7.15 7.15 0 0 0-.076.196 15.175 15.175 0 0 1-.251.624c-.217.527-.59 1.27-.914 1.825-.906 1.543-2.06 2.804-3.356 3.668-.297.199-.293.196-.617.382a8.1 8.1 0 0 1-2.038.807c-.217.057-.671.12-1.098.15-.239.019-.994.019-1.241 0a7.957 7.957 0 0 1-2.683-.652 6.87 6.87 0 0 1-2.813-2.35 9.162 9.162 0 0 1-.937-1.758c-.026-.064-.056-.119-.067-.12-.017-.004-.179.16-.266.27a14.326 14.326 0 0 0-.799 1.08 9.735 9.735 0 0 0-.445.718c-.11.193-.463.876-.463.898 0 .003-.02.051-.046.106-.105.226-.234.529-.306.718a20.045 20.045 0 0 0-.529 1.564 11.81 11.81 0 0 0-.115.39c-.049.176-.056.194-.071.192a.774.774 0 0 1-.085-.04zm.1-.528a5.89 5.89 0 0 1 .115-.383c.034-.098.063-.19.064-.204.002-.019-.042-.052-.168-.128a.928.928 0 0 0-.185-.096c-.02.008-.096.24-.18.558a6.592 6.592 0 0 1-.05.18.15.15 0 0 0-.008.072c.009.024.325.215.346.21.008-.003.037-.096.066-.209zm10.41-.615c0-.017-.145-.134-.226-.183a.609.609 0 0 0-.186-.018c-.087 0-.184-.006-.216-.012-.05-.01-.058-.008-.058.013 0 .013.043.062.095.109.113.1.136.106.409.108.149.001.182-.002.182-.018zm-.988-.012a.435.435 0 0 0-.075-.101c-.072-.08-.08-.085-.155-.094a2.9 2.9 0 0 1-.322-.056c-.042-.016-.029.03.033.118.064.09.082.099.244.122.223.032.275.034.275.011zm1.81-.054.183-.035c.02-.004.037-.014.037-.024 0-.024-.242-.175-.278-.174-.017 0-.098.013-.18.03a1.693 1.693 0 0 1-.25.027c-.153 0-.15.016.032.134l.126.083.093-.006c.052-.003.159-.019.238-.034zm-2.716-.08a.376.376 0 0 0-.054-.087c-.054-.071-.057-.073-.168-.096a2.698 2.698 0 0 1-.186-.046c-.04-.012-.076-.018-.081-.013-.012.012.034.097.078.145.027.03.063.045.158.067.188.045.253.053.253.03zm3.7-.171c.194-.05.384-.115.403-.138.013-.016.01-.022-.016-.032-.311-.125-.303-.123-.368-.102a5.31 5.31 0 0 1-.464.123c-.098.014-.076.045.083.117.077.035.16.064.184.065.023 0 .103-.014.178-.033zm-4.483-.003a.346.346 0 0 0-.038-.092c-.035-.065-.04-.068-.167-.113a2.592 2.592 0 0 1-.171-.066c-.055-.026-.067-.01-.047.063.025.087.043.102.183.155.227.086.242.089.24.053zm-.753-.259a.975.975 0 0 0-.052-.164 2.29 2.29 0 0 0-.311-.157c-.02 0 .003.113.03.15.015.02.088.067.162.107.128.067.17.083.17.064zm6.275-.13c.142-.053.392-.194.402-.227.005-.014-.306-.143-.347-.143a.662.662 0 0 0-.126.054 3.719 3.719 0 0 1-.391.165c-.029.01-.05.024-.047.033.009.027.313.144.376.145a.439.439 0 0 0 .133-.027zm-12.724-.205c.04-.111.106-.263.2-.465.041-.085.074-.164.074-.173 0-.017-.316-.213-.343-.213-.016 0-.204.388-.253.522l-.048.13c-.032.076-.04.115-.023.128.009.007.087.054.174.103.12.068.16.086.172.074a.55.55 0 0 0 .047-.106zm5.833.013a.817.817 0 0 1-.012-.07c-.006-.045-.014-.053-.109-.1a1.804 1.804 0 0 1-.151-.086c-.039-.026-.052-.03-.061-.015-.006.01-.009.026-.005.036.004.01.007.03.007.046 0 .038.057.085.185.156.11.06.156.071.146.033zm-.55-.368c0-.05-.007-.058-.095-.124a1.107 1.107 0 0 1-.112-.09c-.03-.036-.054-.025-.054.026 0 .053.017.077.13.172.102.086.13.09.13.016zm8.476-.015c.153-.074.4-.244.4-.275 0-.01-.347-.15-.374-.15a.995.995 0 0 0-.154.102 2.3 2.3 0 0 1-.25.16c-.062.033-.111.066-.109.073.005.017.31.143.346.144a.61.61 0 0 0 .141-.054zM.609 15.11c.012-.028.041-.104.065-.168.069-.18.124-.315.168-.404a.498.498 0 0 0 .039-.098c0-.009-.051-.043-.113-.075a4.964 4.964 0 0 1-.18-.098.37.37 0 0 0-.078-.039c-.017 0-.124.228-.192.405l-.031.083c-.077.198-.091.246-.078.259.023.024.335.186.357.186.012 0 .031-.022.043-.051zm9.591-.176c.017-.016-.024-.106-.064-.139a4.213 4.213 0 0 1-.13-.117c-.1-.094-.13-.092-.086.007.02.044.06.09.142.16.115.098.124.104.138.09zm9.94-.448c.151-.108.375-.322.375-.361 0-.023-.036-.045-.18-.114l-.182-.086-.145.143c-.146.144-.36.325-.385.325-.007 0-.014.011-.014.025 0 .02.037.04.168.089.093.034.185.063.205.064.022 0 .08-.03.157-.085zm-10.41.023c0-.035-.02-.061-.128-.174-.102-.106-.132-.126-.132-.085 0 .039.03.08.128.18.097.1.133.12.133.079zm2.916-.061c.01-.016-.03-.066-.116-.146l-.062-.057-.175-.006a.662.662 0 0 0-.175.006c0 .026.142.19.17.196l.056.012c.059.012.294.008.302-.005zm-.761-.05a.431.431 0 0 0-.122-.175 2.288 2.288 0 0 0-.132-.023.712.712 0 0 1-.135-.03c-.016-.007-.03-.008-.039 0-.015.016.07.18.104.199.032.017.196.049.265.05.046.001.059-.004.059-.021zm1.392-.032c.168-.045.179-.05.179-.072 0-.012-.04-.054-.089-.093-.1-.08-.08-.079-.316-.028a1.31 1.31 0 0 1-.176.028c-.065 0-.053.026.053.116.086.073.091.076.171.076a.819.819 0 0 0 .178-.027zm-7.317-.05c.014-.013.025-.03.025-.037 0-.019.144-.3.252-.494.05-.09.09-.17.09-.179a1.68 1.68 0 0 0-.3-.228c-.028 0-.179.245-.306.5a3.341 3.341 0 0 0-.098.208c-.008.025.013.045.144.14.084.062.156.112.16.112.004 0 .02-.01.033-.022zm5.227-.026a.562.562 0 0 0-.036-.09c-.034-.074-.037-.077-.12-.101a1.03 1.03 0 0 1-.138-.051c-.029-.015-.057-.023-.064-.019-.015.01.036.142.067.175.021.023.258.11.28.103.006-.002.011-.01.01-.017zm2.86-.187c.17-.052.334-.133.335-.165a.868.868 0 0 0-.25-.12.276.276 0 0 0-.086.026c-.03.015-.128.05-.216.079a.534.534 0 0 0-.161.068c0 .02.216.14.255.141a.674.674 0 0 0 .124-.029zm-3.46.003a.228.228 0 0 0-.016-.088c-.024-.075-.024-.075-.147-.138a1.247 1.247 0 0 0-.134-.063c-.006 0-.01.027-.01.06 0 .08.031.116.164.186.108.057.13.064.143.043zm1.97-.058c.102-.013.352-.053.473-.076.162-.03.577-.158.804-.249a7.479 7.479 0 0 0 .747-.373 9.995 9.995 0 0 0 .633-.428c.073-.053.24-.19.362-.297.136-.12.466-.443.466-.456a1.41 1.41 0 0 0-.097-.137 7.457 7.457 0 0 0-1.3-1.307 7.55 7.55 0 0 0-.5-.338c-.004 0-.055-.028-.113-.062-.287-.17-.822-.393-1.051-.438a.796.796 0 0 1-.08-.021 2.243 2.243 0 0 0-.145-.034c-.4-.084-.507-.094-.975-.087-.23.004-.45.014-.5.023-.191.036-.23.043-.357.069a3.364 3.364 0 0 0-.495.136c-.284.1-.33.119-.589.24a6.4 6.4 0 0 0-1.14.729c-.312.251-.726.646-.726.691 0 .038.03.08.245.35.264.332.639.711.99 1.002.238.196.718.508.933.607l.158.073a4.274 4.274 0 0 0 .94.316c.026.007.113.022.192.033l.226.034c.122.018.762.018.898 0zm-3.293-.066a.642.642 0 0 0-.152-.186c-.032 0-.014.048.047.126.05.065.105.096.105.06zm.777-.162a1.554 1.554 0 0 1-.018-.09c-.007-.043-.018-.057-.071-.088a1.222 1.222 0 0 1-.114-.075.253.253 0 0 0-.06-.038c-.006 0-.007.035-.002.078.01.088.02.101.148.189.105.072.13.077.117.024zm11.029-.158c.129-.132.319-.354.385-.45.033-.047.036-.058.02-.074a2.945 2.945 0 0 0-.37-.21 1.208 1.208 0 0 0-.105.12 5.81 5.81 0 0 1-.282.31c-.104.107-.19.204-.19.216 0 .012.049.046.12.083.067.035.149.078.182.097a.286.286 0 0 0 .089.035c.016 0 .076-.05.15-.127zm-6.155.016c.136-.074.29-.188.29-.213 0-.012-.053-.045-.131-.081-.148-.069-.126-.07-.282.03a2.002 2.002 0 0 1-.198.11.364.364 0 0 0-.102.061c0 .016.26.148.293.149a.524.524 0 0 0 .13-.056zm-13.649.015a5.178 5.178 0 0 1 .227-.508c.056-.11.101-.21.101-.223 0-.017-.052-.048-.187-.113a2.014 2.014 0 0 0-.203-.089c-.034 0-.34.588-.384.736-.011.038-.003.044.205.14.181.084.222.094.241.057zm7.641-.181a.584.584 0 0 0-.133-.189c-.03 0-.02.031.038.12.052.079.095.11.095.069zm.647-.058c-.003-.052-.011-.073-.034-.089a1.303 1.303 0 0 1-.1-.087c-.04-.037-.079-.063-.086-.058-.008.005-.015.035-.015.068 0 .057.005.065.1.15.054.05.108.09.12.087.014-.003.018-.02.015-.072zm-.378-.319c-.005-.038-.025-.069-.086-.13a.385.385 0 0 0-.096-.08c-.011 0-.018.018-.018.05 0 .04.013.062.078.13.092.096.131.106.122.03zm6.585-.051c.087-.059.267-.225.267-.246 0-.017-.246-.146-.278-.146-.01 0-.042.025-.072.056a2.343 2.343 0 0 1-.305.244c-.017.01-.03.025-.03.036 0 .01.056.047.124.08.124.062.126.063.175.042a.846.846 0 0 0 .119-.066zm-9.069-.032c.064-.11.253-.39.325-.48.037-.047.066-.096.063-.108a.672.672 0 0 0-.161-.12l-.157-.095-.033.04c-.19.23-.415.562-.415.613 0 .027.27.214.311.215.021 0 .04-.019.067-.065zm1.885-.096c0-.04-.131-.27-.155-.275-.04-.008-.025.044.05.173.068.118.107.156.105.102zm.262-.112c0-.049-.024-.09-.104-.18-.107-.12-.137-.125-.098-.018.02.055.16.224.184.224.01 0 .018-.012.018-.026zm13.062-.212c.138-.164.452-.621.452-.659 0-.012-.013-.03-.03-.04-.235-.141-.346-.202-.36-.197a.377.377 0 0 0-.07.094 6.957 6.957 0 0 1-.31.443c-.135.184-.128.171-.106.192.042.04.36.225.374.217a.349.349 0 0 0 .05-.05zm-13.378-.164c0-.035-.021-.072-.1-.17a.636.636 0 0 0-.116-.127c-.025 0-.02.07.007.112.057.087.176.23.192.23.01 0 .017-.017.017-.045zm7.973-.069c.157-.134.342-.36.322-.392a1.494 1.494 0 0 0-.273-.18c-.01 0-.046.036-.079.08a3.44 3.44 0 0 1-.228.247 2.088 2.088 0 0 0-.168.18c0 .009.287.146.316.15a.792.792 0 0 0 .11-.085zm-14.513-.088.131-.21c.055-.086.149-.227.21-.313.093-.13.107-.159.092-.174a3.137 3.137 0 0 0-.374-.212c-.041 0-.489.666-.489.727 0 .016.066.059.214.139.06.032.12.066.136.076.039.027.044.024.08-.033zm6.197-.204a1.35 1.35 0 0 0-.126-.248c-.022-.027-.042-.004-.032.035.018.075.11.235.134.235.013 0 .024-.01.024-.022zm-.802-.002a.358.358 0 0 0 .048-.058c.057-.083.213-.264.307-.356a.527.527 0 0 0 .09-.103.652.652 0 0 0-.16-.08c-.18-.075-.163-.078-.293.047-.09.086-.196.212-.258.303-.05.075-.059.062.115.176.134.087.13.086.151.071zm8.527-.255c0-.03-.06-.111-.086-.116-.035-.007-.03.035.011.089.036.046.075.06.075.027zm1.28-.187a.863.863 0 0 1 .066-.08c.125-.137.37-.483.369-.522 0-.022-.284-.235-.313-.235a.535.535 0 0 0-.093.12 5.702 5.702 0 0 1-.332.454c-.052.062-.059.076-.043.091.033.033.293.2.31.2.009 0 .025-.013.036-.028zm-1.479-.051c-.015-.08-.219-.32-.253-.3-.04.025-.011.08.112.213.07.076.132.138.139.138.007 0 .008-.023.003-.051zm7.076-.337c.027-.04.065-.098.085-.131.055-.088.269-.517.269-.54 0-.024-.4-.225-.427-.214-.01.004-.034.047-.052.095a4.948 4.948 0 0 1-.261.525.62.62 0 0 0-.066.136c.006.018.354.2.382.201.013 0 .044-.032.07-.072zm-14.53-.164c.055-.055.139-.128.186-.161.047-.034.085-.07.085-.08 0-.02-.214-.126-.252-.126-.057 0-.208.106-.349.247-.062.062-.082.09-.071.101.023.024.237.116.27.117.02 0 .065-.033.13-.098zm7.308.052c.008-.043-.166-.35-.198-.35-.01 0-.02.005-.02.012 0 .013.057.133.136.287.043.083.072.102.082.051zm-12.736-.087c.173-.217.231-.287.365-.43a1.67 1.67 0 0 0 .148-.173 1.26 1.26 0 0 0-.207-.113l-.206-.1-.07.066c-.165.162-.464.541-.464.589 0 .021.03.044.12.092.066.036.148.08.182.1a.49.49 0 0 0 .071.034.296.296 0 0 0 .061-.065zm12.425.01c-.005-.04-.044-.097-.123-.183-.058-.062-.11-.086-.094-.042.005.012.008.03.008.041 0 .027.178.228.197.222.01-.003.014-.02.011-.039zm-.36-.352c0-.042-.011-.061-.08-.13-.044-.044-.09-.08-.104-.08-.021 0-.024.008-.016.057.007.047.024.071.088.13.043.04.086.073.095.073.011 0 .018-.018.018-.05zm3.118-.245c.149-.212.347-.583.333-.621a.934.934 0 0 0-.153-.13c-.12-.09-.148-.106-.163-.09-.01.01-.048.077-.085.149a4.83 4.83 0 0 1-.169.302c-.085.134-.136.23-.136.255 0 .021.037.058.133.134a.98.98 0 0 0 .151.104.38.38 0 0 0 .09-.103zm-8.965-.005c.065-.044.164-.103.219-.13a.361.361 0 0 0 .1-.064c0-.02-.25-.136-.289-.136-.076 0-.425.226-.425.276 0 .012.218.12.271.134.002 0 .058-.035.124-.08zm5.49-.047c0-.054-.005-.066-.065-.12-.161-.147-.182-.153-.171-.044.005.047.015.072.036.087.016.01.06.046.098.077.089.075.103.075.103 0zm.563-.09a.698.698 0 0 0-.115-.155.023.023 0 0 0-.027.003c-.018.018.086.165.117.165.014 0 .025-.006.025-.013zm-1.02-.21c-.01-.083-.045-.126-.161-.197-.09-.054-.108-.058-.108-.02 0 .037.03.151.04.151.005 0 .058.031.117.069.06.038.112.069.115.069a.237.237 0 0 0-.002-.071zm-10.33-.081a4.9 4.9 0 0 1 .388-.37c.085-.068.099-.083.084-.098a1.82 1.82 0 0 0-.193-.073c-.214-.074-.183-.08-.389.083-.132.105-.326.303-.326.332a.43.43 0 0 0 .12.067l.182.084a.46.46 0 0 0 .072.03.261.261 0 0 0 .062-.055zm6.078-.05a2.78 2.78 0 0 1 .22-.086.666.666 0 0 0 .14-.057.746.746 0 0 0-.128-.079l-.129-.07-.094.03c-.131.04-.376.157-.376.18 0 .022.199.118.25.12a.4.4 0 0 0 .117-.038zm3.75-.084a.748.748 0 0 0-.017-.082l-.015-.069-.123-.062c-.123-.063-.175-.077-.175-.046 0 .01.011.048.025.086.02.055.033.073.072.09.026.01.078.036.116.056.07.038.116.049.116.027zm1.18-.014c0-.033-.136-.196-.157-.189-.027.009-.009.052.058.134.066.082.098.1.098.055zm8.796-.155a7.15 7.15 0 0 0 .245-.573c0-.016-.36-.222-.376-.215a.371.371 0 0 0-.055.107 7.781 7.781 0 0 1-.217.497c-.052.105-.053.11-.029.132.04.038.31.192.337.192.017 0 .046-.043.095-.14zm-10.565-.099a.404.404 0 0 1-.03-.075c0-.02-.248-.111-.306-.111-.019 0-.006.045.026.096.019.03.034.06.034.066 0 .018.279.11.293.097.007-.006 0-.038-.017-.073zm-2.264.02a1.42 1.42 0 0 1 .185-.038c.11-.014.11-.036.003-.121a2.68 2.68 0 0 0-.103-.079c-.04-.024-.427.072-.44.11-.007.022.202.17.228.163l.126-.035zm1.659-.07a.504.504 0 0 0-.045-.096c-.052-.094-.077-.106-.269-.121-.135-.011-.147 0-.092.079.069.1.082.109.182.119.051.005.115.014.141.02.07.016.083.016.083 0zm-.673-.05a.356.356 0 0 0-.076-.107l-.074-.082-.18-.005c-.118-.003-.186 0-.195.01-.011.011.009.04.072.104l.088.089.173.004c.094.002.177.006.182.007.006.002.01-.008.01-.021zm2.645-.105c-.034-.065-.237-.262-.257-.249-.027.017.018.086.127.196a.548.548 0 0 0 .137.113c.022 0 .022-.005-.007-.06zm4.45-.427c.064-.128.126-.258.138-.288l.052-.129a.233.233 0 0 0 .024-.09 2.436 2.436 0 0 0-.339-.214.517.517 0 0 0-.068.143c0 .014-.101.228-.194.41a.887.887 0 0 0-.086.204c.02.032.301.204.328.2.02-.002.057-.061.144-.236zm-14.02.11a2.12 2.12 0 0 1 .24-.166c.062-.035.113-.072.113-.082 0-.01-.026-.027-.058-.038a12.39 12.39 0 0 1-.154-.056c-.118-.044-.146-.044-.236-.002-.138.064-.416.266-.416.302 0 .01.038.031.086.048l.168.062a.602.602 0 0 0 .106.033.617.617 0 0 0 .151-.1zm9.124-.03c.022-.02-.047-.11-.158-.204-.122-.102-.148-.118-.146-.085.003.05.057.124.136.19.049.04.097.08.107.09.02.019.048.023.061.01zm-.516-.385c-.009-.055-.064-.113-.186-.196-.07-.048-.09-.04-.076.033.008.041.027.063.114.13a.522.522 0 0 0 .13.083c.023 0 .025-.006.018-.05zm-7.568-.235c.101-.052.223-.109.27-.127.047-.018.086-.04.086-.048 0-.014-.056-.037-.298-.125a.234.234 0 0 0-.109-.013c-.1.016-.472.216-.49.265-.005.011.005.024.023.032.068.03.292.107.312.109.012 0 .104-.041.206-.093zm7.093-.047c0-.05-.035-.117-.074-.139-.132-.076-.258-.135-.268-.124-.006.007-.008.04-.003.072l.009.06.15.078c.142.074.186.087.186.053zm-.604-.276a.265.265 0 0 0-.02-.081c-.018-.043-.04-.058-.18-.127a.773.773 0 0 0-.166-.07.557.557 0 0 0 .05.174c.01.014.272.133.299.135.009.001.017-.013.017-.031zm-5.505-.145a4.45 4.45 0 0 1 .282-.084c.087-.023.12-.036.116-.05a.517.517 0 0 0-.155-.082c-.15-.06-.151-.06-.238-.045-.162.028-.527.158-.518.185.005.015.29.129.327.13.013 0 .097-.024.186-.054zm4.814-.114a.938.938 0 0 1-.023-.076c-.02-.07-.038-.081-.241-.148-.206-.067-.207-.067-.147.054l.036.074.16.055c.17.058.227.07.215.041zm-3.713-.2c.071-.015.178-.032.237-.037.161-.015.158-.03-.03-.144l-.115-.07-.137.017c-.152.017-.374.07-.398.092-.015.015.008.057.031.057.006 0 .06.028.119.063a.36.36 0 0 0 .135.056l.158-.033zm2.977.008a.355.355 0 0 0-.053-.085c-.05-.067-.058-.071-.154-.093a2.954 2.954 0 0 0-.156-.03l-.093-.016c-.055-.011-.049.02.023.108.058.071.065.075.14.084.045.005.124.02.177.033.099.026.116.025.116 0zm8.48-.01c.018-.035.11-.299.156-.453a2.97 2.97 0 0 0 .09-.322c0-.017-.317-.227-.343-.227-.007 0-.025.045-.04.1a6.69 6.69 0 0 1-.158.495c-.041.111-.071.21-.068.22.007.015.318.212.338.214.005 0 .016-.012.025-.027zm-9.294-.088a.846.846 0 0 0-.071-.102c-.06-.078-.068-.083-.148-.098-.124-.023-.357-.04-.373-.026-.015.014.135.173.179.19a.982.982 0 0 0 .163.021c.074.005.15.015.17.02.06.019.088.016.08-.005zm-.887-.026a.45.45 0 0 0-.102-.103l-.103-.085-.155-.009c-.164-.009-.34.003-.34.023a.74.74 0 0 0 .127.102l.127.09h.223c.171 0 .223-.005.223-.018z"/></svg>