<svg viewBox="0 0 24 24" xmlns="http://www.w3.org/2000/svg" role="img"><path d="M8.464 16.374a1.247 1.247 0 0 1-.953-.957l-.054-.232-.691-.01-.69-.008-.223.147c-.273.182-.567.305-.992.417-.66.173-1.181.188-1.74.05a2.411 2.411 0 0 1-.92-.43l-.254-.183h-.278c-.313 0-.594-.063-.837-.186-.226-.114-.555-.451-.656-.671C.012 13.95 0 13.812 0 12.127c0-1.449.004-1.58.065-1.832.035-.149.104-.34.152-.423.098-.169.427-.51.522-.54.046-.014.07-.074.1-.254.148-.88.965-1.388 1.895-1.176.458.104.881.5 1.014.948l.07.236h3.06l.108-.35c.225-.722.47-1.075.794-1.146.216-.048.388-.01.631.135.234.141.417.35.462.526.038.152.008.311-.121.633a1.97 1.97 0 0 0-.07.188c0 .008.536.011 1.19.007l1.19-.01.054-.163c.252-.744 1.03-1.16 1.82-.975.517.122.94.496 1.081.957.054.173.062.182.174.192.097.008.145-.013.272-.119.275-.228.409-.279.74-.28.338-.002.428.034.655.261l.144.144h1.036l.037-.138c.129-.477.543-.87 1.052-1a2.13 2.13 0 0 1 .4-.066c.2 0 .583.092.758.18.327.167.635.536.719.862.04.156.045.162.157.16.088 0 .167-.04.327-.163.26-.198.485-.272.765-.25.25.02.405.093.579.272l.136.142h.296c.878.002 1.49.442 1.669 1.2.064.272.068.38.067 1.846 0 1.68-.012 1.82-.176 2.18-.101.22-.43.557-.656.67-.29.148-.513.186-1.078.186-.437 0-.549.01-.71.067-.582.2-1.267.325-1.786.326-.73 0-1.336-.104-1.718-.295l-.195-.098h-1.032c-.853 0-1.056.01-1.173.051a9.475 9.475 0 0 1-1.197.294c-.775.125-1.866.01-2.38-.249l-.19-.096h-1.518l-.057.242c-.12.504-.476.853-.999.977-.262.061-.377.06-.671-.013zm.838-.464c.322-.19.47-.455.467-.84-.004-.579-.377-.951-.954-.95-.39 0-.659.15-.831.468-.076.14-.097.224-.108.438-.012.23-.003.289.065.44a.937.937 0 0 0 .464.473c.143.068.2.077.458.067.247-.009.318-.025.44-.096zm-4.528-.559c.813-.228 1.357-.65 1.678-1.3.22-.445.291-.777.292-1.37 0-.67-.112-1.062-.453-1.583-.204-.313-.857-.962-1.071-1.066-.233-.114-.463-.126-.652-.034a1.04 1.04 0 0 0-.44.506c-.097.295.17.652.8 1.074.444.297.697.553.833.843.248.531.106 1.144-.378 1.626-.276.274-.58.436-1.042.553-.787.2-1.331.053-1.838-.495-.411-.446-.59-.857-.589-1.36 0-.273.034-.435.188-.902.026-.078-.159-.244-.3-.271-.162-.03-.251.043-.35.289-.204.51-.24 1.208-.087 1.697.267.859 1.027 1.623 1.828 1.84.202.053.315.061.758.05.436-.01.569-.026.823-.097zm9.462-.234c.464-.068 1.068-.247 1.425-.42.688-.333.93-.782.725-1.34-.123-.335-.53-.661-1.376-1.103-.225-.118-.423-.239-.439-.27-.055-.101.013-.15.184-.135.7.066 1.113-.025 1.396-.307.244-.244.293-.484.19-.924-.138-.583-.72-1.478-1.009-1.55-.157-.04-.346.01-.533.142-.382.269-.364.342.222.918.592.581.648.712.414.97-.172.19-.478.247-1.043.194-.463-.043-.612-.023-.738.104-.077.076-.093.12-.093.253 0 .327.32.606 1.315 1.148.414.225.539.345.539.517 0 .245-.265.445-.83.629a3.514 3.514 0 0 1-1.298.18c-.412-.01-.476-.02-.637-.097-.396-.187-.688-.474-.802-.788-.079-.218-.09-.704-.026-1.094.089-.537.09-.59.021-.716-.115-.21-.54-.36-.769-.272-.076.029-.206.303-.282.592a2.858 2.858 0 0 0 .161 1.87c.364.776.896 1.275 1.533 1.439.431.11 1.23.138 1.75.06zm6.25-.046c.408-.086 1.02-.293 1.286-.434.285-.151.546-.42.618-.636.07-.21.051-.486-.046-.706-.126-.285-.551-.61-1.376-1.054-.402-.216-.493-.293-.425-.36.042-.043.09-.044.482-.013.22.017.347.01.513-.03.817-.192 1.024-.718.64-1.623-.183-.428-.562-.978-.757-1.098-.206-.125-.506-.054-.767.182-.25.226-.19.347.49.978a2.4 2.4 0 0 1 .317.342c.215.351-.09.673-.654.689a8.271 8.271 0 0 1-.595-.02c-.365-.025-.398-.023-.498.041a.382.382 0 0 0-.172.428c.082.274.477.592 1.249 1.006.238.128.428.255.5.334.103.115.113.143.098.262-.034.256-.399.477-1.094.663-.276.074-.376.084-.896.086l-.586.003-.211-.1c-.273-.13-.562-.368-.669-.55-.19-.324-.225-.798-.111-1.466.073-.43.06-.529-.09-.673a.713.713 0 0 0-.497-.186c-.2 0-.28.071-.384.342a2.968 2.968 0 0 0-.043 1.837c.113.345.31.701.558 1.012.518.645 1.098.853 2.309.827.329-.007.574-.032.81-.082zM9.04 13.731c.325-.101.488-.197.685-.405.645-.68.715-1.636.191-2.61-.154-.286-.433-.666-.542-.737-.07-.046-.088-.043-.244.041-.21.113-.317.265-.317.445 0 .165-.005.156.327.501.154.16.32.37.377.48.185.347.217.824.078 1.14-.139.314-.497.537-.873.542-.29.004-.43-.048-.587-.218-.166-.18-.212-.272-.316-.625-.151-.517-.141-1.06.037-1.963.108-.549.179-.776.423-1.353.219-.516.239-.605.16-.717-.064-.092-.34-.266-.46-.29-.255-.051-.508.42-.761 1.417-.195.768-.237 1.095-.24 1.854-.003.943.072 1.337.34 1.793.243.413.599.702.955.777.18.037.51.007.767-.073zm4.048-3.278c.206-.1.405-.298.507-.505.117-.238.13-.702.029-.974a1.08 1.08 0 0 0-.594-.598 1.5 1.5 0 0 0-.922 0 1.082 1.082 0 0 0-.591.59c-.085.227-.096.657-.023.865.11.308.38.576.681.675.084.027.25.04.443.035.248-.007.34-.025.47-.088zm5.985-.007c.219-.113.398-.297.5-.513.076-.158.086-.22.086-.52 0-.31-.01-.358-.091-.514a1.152 1.152 0 0 0-.497-.497c-.141-.07-.204-.08-.534-.08-.353 0-.384.006-.547.096-.216.12-.38.3-.487.535-.07.153-.084.23-.084.48 0 .27.01.319.105.511.123.25.328.445.57.54.25.1.752.08.98-.038zM2.75 10.4c.229-.078.536-.39.614-.624.082-.248.06-.745-.043-.941a1.18 1.18 0 0 0-.52-.49c-.156-.072-.228-.085-.476-.085-.247 0-.322.013-.473.084a.999.999 0 0 0-.527.51c-.097.198-.106.242-.104.51.004.515.245.878.69 1.04.174.065.643.062.839-.004z"/></svg>