<svg viewBox="0 0 24 24" xmlns="http://www.w3.org/2000/svg" role="img"><path d="m2.78 15.43-.93-.93-.925.924-.924.924V7.652h5.04l.903.924.903.923.932-.93.932-.932-.008 4.355-.007 4.355-2.491.008-2.491.008zm8.343.878c-.186-.093-.22-.206-.22-.734 0-.432.004-.462.063-.48.034-.011.076-.011.094 0 .019.011.031.202.031.473 0 .445.002.455.08.534.075.074.098.08.3.068.148-.008.229-.027.248-.058.016-.025.03-.261.03-.525 0-.398.008-.482.048-.497.026-.01.068 0 .094.02.037.032.046.135.046.539 0 .279-.014.526-.032.559-.073.137-.58.202-.782.1zm3.958.01c-.18-.08-.213-.17-.225-.634l-.01-.415-.115-.009c-.199-.017-.168-.18.034-.181.077 0 .086-.012.086-.107 0-.116.066-.193.14-.165.032.012.048.06.048.143v.125l.18.01c.17.008.18.014.18.087 0 .074-.01.079-.182.088l-.183.01.01.388c.012.44.031.48.236.514.101.016.12.031.12.097 0 .067-.016.08-.11.085a.526.526 0 0 1-.21-.036zm.71-.01c-.185-.093-.22-.206-.22-.734 0-.432.005-.462.063-.48.034-.011.077-.011.094 0 .02.011.032.202.032.473 0 .445.001.455.08.534.074.074.098.08.3.068.147-.008.228-.027.248-.058.016-.025.029-.261.03-.525 0-.398.008-.482.047-.497.026-.01.069 0 .094.02.038.032.047.135.047.539 0 .279-.014.526-.032.559-.073.137-.58.202-.783.1zm2.088.022a.434.434 0 0 1-.258-.224c-.07-.134-.06-.67.014-.81.086-.158.232-.233.459-.233.211 0 .357.067.466.213.05.067.066.134.066.282v.194l-.43.008-.431.01v.11c0 .153.048.23.179.284a.41.41 0 0 0 .446-.086c.151-.152.287-.087.175.084-.106.162-.437.243-.686.168zm.565-.837c-.028-.174-.141-.258-.347-.258-.208 0-.332.101-.332.27v.106h.697zm-8.223.802c-.027-.028-.038-.184-.038-.534v-.495h-.107c-.069 0-.113-.018-.125-.05-.028-.073.037-.138.138-.138.08 0 .09-.015.13-.177.049-.206.134-.286.344-.326.097-.018.148-.014.177.014.052.05.016.144-.055.144-.1 0-.249.068-.263.12a4.213 4.213 0 0 0-.033.139l-.02.086h.187c.198 0 .238.025.206.126-.017.053-.047.062-.205.062h-.185l-.008.524c-.008.44-.017.526-.057.534a.11.11 0 0 1-.086-.03zm1.982-.002a5.56 5.56 0 0 1-.008-.574l.009-.531.112-.055c.062-.03.2-.058.313-.063.196-.007.201-.005.201.07 0 .074-.013.08-.2.101a.866.866 0 0 0-.219.042c-.01.01-.026.247-.035.526-.015.496-.017.507-.086.517-.04.005-.078-.01-.087-.033zm.783 0a5.56 5.56 0 0 1-.008-.574l.009-.531.123-.06c.169-.083.565-.088.685-.01.177.116.195.18.195.71v.488h-.157l-.016-.465c-.015-.463-.016-.466-.103-.54-.091-.079-.28-.098-.46-.048l-.08.021-.015.516c-.015.506-.017.516-.086.526-.039.005-.078-.01-.087-.033zm1.308.002c-.06-.062-.054-1.134.008-1.185.026-.022.069-.03.095-.02.072.027.056 1.22-.016 1.234a.11.11 0 0 1-.087-.03zm2.577-.002a5.56 5.56 0 0 1-.008-.574l.009-.531.112-.055c.062-.03.2-.058.313-.063.196-.007.202-.005.202.07 0 .074-.014.08-.2.101a.866.866 0 0 0-.22.042c-.01.01-.026.247-.035.526-.015.496-.017.507-.086.517-.039.005-.078-.01-.087-.033zm-2.579-1.43c-.023-.015-.037-.06-.031-.102.008-.06.03-.075.104-.075.104 0 .143.08.078.159-.043.051-.09.057-.15.018zm-4.36-2.244v-1.175h.271l.624.669.625.67.008-.67.008-.67h.25v2.351h-.251v-.61l-.619-.663-.618-.662-.009.968-.008.967h-.28Zm2.737 1.13a.676.676 0 0 1-.41-.326c-.085-.144-.087-.158-.097-.734-.012-.704.015-.825.229-1.022.382-.352 1.154-.278 1.41.135l.095.154v.66c0 .624-.004.668-.07.792a.73.73 0 0 1-.414.338c-.164.058-.562.06-.743.003zm.665-.24a.502.502 0 0 0 .296-.313c.017-.059.03-.326.03-.594 0-.443-.006-.5-.07-.627-.185-.367-.898-.386-1.104-.03-.055.096-.064.175-.072.642-.01.505-.006.54.062.672.04.077.108.165.15.196.151.11.453.132.708.054zm1.016-.89v-1.175l.117-.002c.111 0 .142.025.54.439l.424.44.404-.439c.385-.418.409-.438.524-.438h.121v2.35h-.249l-.009-.97-.008-.97-.358.39c-.198.213-.38.397-.408.408-.034.013-.166-.104-.447-.399l-.4-.418v1.959h-.251Zm2.57 1.151c0-.015.202-.54.45-1.169l.452-1.142h.264l.45 1.14c.248.628.45 1.153.45 1.168 0 .014-.06.026-.135.026h-.135l-.119-.298-.118-.298-.535.008-.535.009-.114.282-.113.282-.132.01c-.072.005-.13-.003-.13-.018zm1.414-.971c-.266-.696-.368-.948-.382-.948-.014 0-.281.657-.424 1.042-.019.05.014.055.422.055h.441zm1.092-.18v-1.175h.122c.118 0 .14.02.744.663l.622.662.008-.662.009-.663h.28v2.349h-.281v-.62l-.618-.662-.62-.663-.007.973-.009.972h-.249zm2.225 1.057c.001-.101.091-.248.64-1.042l.64-.924-.64-.009-.64-.008v-.251l.806.009.807.008.01.085c.013.113.023.097-.674 1.103l-.61.88.66.009.66.008v.25h-1.66l.001-.118zm2.098-1.057v-1.175H24v2.349h-.251z"/></svg>