<svg viewBox="0 0 24 24" xmlns="http://www.w3.org/2000/svg" role="img"><path d="M10.854 22.885a4.22 4.22 0 0 1-2.082-.85c-.288-.231-6.363-6.154-7.39-7.206-.56-.573-.82-.919-1.032-1.375-.568-1.226-.437-2.718.34-3.872.083-.124 1.053-1.118 2.154-2.208l2.002-1.982-1.082-1.085L2.682 3.22l.582-.57 1.089-1.064.505-.492 1.07 1.051c.587.579 1.088 1.052 1.112 1.052.025 0 .532-.474 1.127-1.053L9.25 1.092l1.056 1.053c.581.58 1.08 1.053 1.11 1.053.03 0 .538-.474 1.13-1.053l1.076-1.052 1.087 1.064 1.088 1.065-1.095 1.076-1.095 1.075 1.278 1.257 2.975 2.918c.934.915 1.796 1.79 1.916 1.944.343.442.626 1.067.737 1.628.115.58.12.83.022 1.354-.14.756-.341 1.227-.766 1.786-.303.399-5.515 5.509-5.964 5.848-.797.6-1.878.885-2.951.777zm3.19-2.571c.457-.124 1.073-.433 1.073-.537 0-.08-3.871-3.893-3.93-3.871-.06.022-2.133 2.04-2.133 2.077 0 .02.408.424.906.899.582.554 1.02.93 1.225 1.051a3.811 3.811 0 0 0 2.859.38zm2.649-2.003c.69-.698.841-.877.99-1.174.479-.96.504-2.073.068-3.042-.22-.49-.522-.863-1.262-1.561a305.13 305.13 0 0 1-2.595-2.512c-1.043-1.02-1.925-1.861-1.96-1.869-.08-.018-.425.676-.537 1.084-.132.482-.118 1.436.027 1.902.245.786.324.887 1.926 2.471.808.799 1.563 1.584 1.678 1.745.234.326.484.844.617 1.276.07.225.088.442.089 1.023 0 .71-.005.754-.159 1.212a4.44 4.44 0 0 1-.25.624.753.753 0 0 0-.09.183c0 .064.629-.524 1.457-1.362zM8.606 17.26c.398-.602.564-1.234.529-2.007-.051-1.095-.503-1.953-1.467-2.78-.193-.164-1.273-1.206-2.402-2.314C4.138 9.05 3.193 8.143 3.167 8.143c-.082 0-.437.745-.537 1.128-.204.78-.101 1.718.272 2.486.16.331.275.458 1.588 1.76.778.771 1.5 1.52 1.605 1.664.538.74.82 1.712.755 2.613-.032.465-.217 1.16-.39 1.47a1.14 1.14 0 0 0-.117.254c0 .098 2.075-1.973 2.263-2.26zm.965-7.843c.13-.15 1.079-1.1 2.107-2.113 1.028-1.012 1.876-1.874 1.883-1.915.008-.045-.411-.486-1.059-1.113l-1.072-1.04-.748.715c-.412.392-.898.865-1.08 1.05-.182.185-.35.337-.374.337-.024 0-.52-.474-1.105-1.053L7.06 3.232l-.465.431c-.256.238-.754.722-1.107 1.077l-.642.646.57.566c1.553 1.542 3.85 3.761 3.881 3.75.02-.007.143-.136.274-.286zm11.748 5.26c.59-1.191.552-2.547-.106-3.727-.17-.305-.436-.597-1.821-1.997l-1.623-1.64-.243-.5c-.378-.775-.473-1.45-.313-2.225.083-.403.283-.911.462-1.175l.115-.169 2.662 2.612c1.464 1.436 2.728 2.696 2.81 2.798.211.268.513.848.602 1.16.12.417.164.964.118 1.448-.087.926-.313 1.254-1.992 2.9l-.81.795z"/></svg>