<svg viewBox="0 0 24 24" xmlns="http://www.w3.org/2000/svg" role="img"><path d="M11.91 23.993c-1.626-.102-3.12-.798-4.326-2.016a7.38 7.38 0 0 1-1.795-2.943c-.45-1.388-.464-2.809-.045-4.158a7.22 7.22 0 0 1 .965-1.935l.047-.064v.446c0 .492.012.617.097 1.041a4.91 4.91 0 0 0 1.04 2.199c.155.188.474.505.643.64.732.582 1.676.945 2.788 1.072a9.34 9.34 0 0 0 1.397-.001 8.642 8.642 0 0 0 2.724-.768 8.717 8.717 0 0 0 1.987-1.275c.439-.383.587-.477.92-.583.216-.07.353-.09.599-.091.26-.001.38.022.557.103.462.215.69.711.72 1.566.016.501-.06.974-.243 1.511-.54 1.577-1.868 3.11-3.557 4.1-.25.148-.797.418-1.08.535-.994.41-2.127.638-3.125.628-.134 0-.274 0-.312-.01zm-5.25-1.538a12.1 12.1 0 0 1-.885-.898 8.613 8.613 0 0 1-2.032-6.604c.197-1.749.877-3.191 2.091-4.439 1.073-1.102 2.51-2.007 4.415-2.782.77-.313 1.276-.572 1.801-.922.97-.646 1.557-1.374 1.788-2.217.081-.296.097-.43.096-.803 0-.365-.02-.525-.103-.855-.228-.902-.832-1.912-1.634-2.73A2.05 2.05 0 0 1 12.01 0c.007 0 .128.019.269.04 2.038.325 3.767.985 4.833 1.846A9.318 9.318 0 0 1 18.664 3.5a8.176 8.176 0 0 1 1.532 3.54c.098.584.126.964.116 1.593-.01.595-.05.983-.156 1.521-.488 2.469-2.027 4.64-4.22 5.953-1.172.702-2.34 1.112-3.52 1.233a7.17 7.17 0 0 1-1.136-.01c-1.217-.149-2.151-.66-2.845-1.559-.428-.552-.752-1.338-.854-2.074a4.397 4.397 0 0 1 .005-1.099c.086-.579.312-1.17.653-1.707a5.47 5.47 0 0 1 1.856-1.783 1.19 1.19 0 0 0 .117-.074c-.015 0-.357.15-.545.24-1.65.788-3.1 2.106-3.991 3.63a7.403 7.403 0 0 0-1.043 3.994c.019.856.162 1.677.417 2.396.333.936.964 2.049 1.739 3.064.14.184.156.233.077.239-.035 0-.067-.019-.208-.144z"/></svg>