<svg role="img" viewBox="0 0 24 24" xmlns="http://www.w3.org/2000/svg"><path d="M12.605 1.888a.897.897 0 0 0-.11.128c-.284.367-.483.82-.569 1.297-.127.705-.054 1.545.225 2.61l.137.518c.034.132.058.243.054.248-.017.017-.316-.295-.436-.454a3.27 3.27 0 0 1-.574-1.223 4.52 4.52 0 0 1-.138-1.403c.01-.14.016-.257.011-.26a.418.418 0 0 0-.115.038c-.54.23-.9.82-1.036 1.695-.089.574-.074 1.326.038 1.997.017.103.036.206.041.228.014.056-.009.051-.101-.022-.315-.249-.646-1.046-.687-1.654l-.01-.155-.047.033a3.026 3.026 0 0 0-.192.172c-.72.684-.926 1.57-.594 2.562.134.401.394.89.679 1.276l.063.086h5.773l.13-.164c.643-.82.874-1.627.692-2.413a3.462 3.462 0 0 0-.158-.497c-.296-.609-.44-.828-.96-1.455a72.331 72.331 0 0 1-.493-.596 52.324 52.324 0 0 1-.752-.895c-.444-.569-.752-1.154-.84-1.597-.012-.055-.025-.1-.031-.1zm-4 8.646c-.01 0-.018.007-.018.016v.696l3.467-.004c1.296-.002 2.166-.004 2.719-.008h.81v-.683h-.01c-.06-.012-1.101-.017-3.463-.017-2.732 0-3.315 0-3.44.016h-.059c.005-.009.002-.016-.007-.016zm.01.7h.005c0 .002-.002.004-.003.004l-.003-.004zm.143 0h.03a.047.047 0 0 1-.03 0zm1.062.981v.53l.211-.003.211-.003.164.139c.723.613 1.24 1.44 1.563 2.502.038.125.073.228.077.228a.99.99 0 0 0 .045-.18 5.22 5.22 0 0 1 .29-.873 5.02 5.02 0 0 1 1.254-1.68l.16-.139.286.005.286.005v-.531h-2.273zm-2.538.674c-.126 0-.249.007-.4.022a4.424 4.424 0 0 0-1.726.524c-1.196.67-1.902 1.82-1.959 3.192l-.01.24.118.088c.561.413.778.631.934.94.309.615.294 1.44-.036 2-.246.418-.612.673-1.123.783-.165.036-.547.05-.659.023-.339-.079-.63-.401-.696-.769-.03-.167-.018-.325.023-.313.235.071.618.132.918.147.205.01.225.008.312-.026.364-.143.628-.397.738-.708.06-.169.07-.434.022-.622-.13-.515-.546-.919-1.099-1.066a1.265 1.265 0 0 0-.408-.044c-.278 0-.41.02-.682.11-.337.113-.772.37-.94.554-.446.491-.649 1.06-.602 1.684.023.316.097.592.237.885.269.562.672.982 1.195 1.241.375.187.644.236 1.2.219.912-.027 1.5-.297 1.964-.9a5.39 5.39 0 0 0 .397-.64l.105-.197c.002-.003.081.024.176.06.561.21 1.24.317 2.06.323.162.001.375.007.474.012l.18.01.104.12c.18.207.27.431.291.715.005.072.015.14.022.15.017.029.147-.052.258-.162a.72.72 0 0 0 .154-.217c.058-.123.06-.13.06-.31a.742.742 0 0 0-.124-.461 1.588 1.588 0 0 0-.357-.38c-.06-.042-.087-.07-.081-.087l.08-.233c.24-.704.218-1.353-.062-1.744a1.014 1.014 0 0 0-.498-.362 2.055 2.055 0 0 0-.476-.079h-.077l.013.1c.007.055.012.215.012.356 0 .216-.006.276-.037.384-.108.382-.345.555-.825.602a1.26 1.26 0 0 1-.749-.129c-.364-.185-.707-.634-.907-1.185a1.681 1.681 0 0 1-.116-.568c-.086-1.18.4-2.135 1.32-2.602.387-.196.78-.288 1.24-.288a2.788 2.788 0 0 1 1.83.66c.433.371.74.934.846 1.55.041.24.058.662.035.888l-.016.16.19.192.19.192-.057.064a2.865 2.865 0 0 0-.657 1.275 3.06 3.06 0 0 0 .006.912c.105.462.339.879.688 1.224.193.191.398.336.654.463a2.2 2.2 0 0 0 .834.245c.17.016.516-.002.662-.035.951-.21 1.744-.996 1.946-1.93.04-.186.05-.567.019-.769a2.802 2.802 0 0 0-.599-1.318l-.088-.11.054-.058c.03-.033.113-.12.186-.195l.133-.137-.019-.253a3.442 3.442 0 0 1 .187-1.413c.307-.831 1.02-1.411 1.938-1.577.257-.047.709-.05.943-.008.206.037.652.183.816.266.646.331 1.127.98 1.314 1.77.059.246.077.444.068.725-.023.684-.28 1.246-.79 1.73-.16.152-.18.165-.293.2-.286.09-.643.108-.874.044-.364-.101-.594-.339-.673-.697a1.102 1.102 0 0 1-.019-.336c.005-.116.02-.25.033-.3l.023-.092-.08-.019c-.264-.063-.672.107-.9.374-.238.282-.338.568-.336.964.002.32.072.616.224.95.03.065.054.123.054.129 0 .006-.032.03-.071.055-.04.025-.122.099-.183.164-.376.402-.418 1.044-.086 1.319.057.047.226.137.236.126.003-.003.014-.077.024-.164.022-.186.063-.329.137-.476.051-.101.21-.316.271-.366.025-.02.113-.024.551-.025.894-.002 1.506-.089 2.169-.306a.588.588 0 0 1 .185-.043.928.928 0 0 1 .056.126c.118.301.358.658.605.9.514.502 1.222.756 1.975.708 1.004-.064 1.882-.659 2.235-1.513.143-.345.207-.76.177-1.144-.05-.616-.245-1.065-.638-1.46a2.2 2.2 0 0 0-1.446-.632c-.607-.03-1.143.203-1.425.62a1.066 1.066 0 0 0-.151.299c-.2.563-.01 1.167.447 1.43.379.216.962.216 1.429 0l.1-.047v.18c0 .222-.03.368-.107.523-.147.3-.434.454-.838.452-.403-.002-.754-.129-1.107-.399a1.715 1.715 0 0 1-.658-1.038 2.432 2.432 0 0 1-.008-.77c.096-.525.395-1.06.758-1.35.142-.115.297-.207.436-.26l.103-.037-.01-.217a3.686 3.686 0 0 0-1.051-2.407c-.689-.71-1.602-1.157-2.658-1.3a6.188 6.188 0 0 0-1.065-.008 3.894 3.894 0 0 0-1.829.71c-.2.148-.563.506-.704.693-.47.623-.746 1.346-.861 2.257-.025.195-.03.214-.09.306a1.12 1.12 0 0 1-.392.361.421.421 0 0 1-.225.05.4.4 0 0 1-.234-.057 1.132 1.132 0 0 1-.364-.327c-.044-.06-.051-.088-.073-.272-.144-1.245-.648-2.232-1.488-2.911a3.969 3.969 0 0 0-2.153-.85 4.359 4.359 0 0 0-.41-.022zm4.722 5.797c.478.002.915.323 1.044.814.036.138.036.392 0 .528a1.081 1.081 0 0 1-2.121-.14 1.07 1.07 0 0 1 1.077-1.202z"/></svg>