<svg role="img" viewBox="0 0 24 24" xmlns="http://www.w3.org/2000/svg"><path d="M20.696 8.696a3.304 3.304 0 1 0 0 6.607 3.304 3.304 0 0 0 0-6.607zm-18.622 1.32v1.82s.013.232-.116.375c-.082.088-.205.129-.375.129H1.01s-.232.013-.376-.116c-.088-.081-.129-.204-.129-.373l.007-.877H0v.877c0 .319.096.57.294.747.286.258.661.252.743.252h.539c.32 0 .573-.096.75-.293.26-.285.253-.659.253-.74v-1.801zm.907.265v.924a.94.94 0 0 0 .293.713c.287.265.696.3.88.3.035 0 .062 0 .076-.007h2.1v-.503H4.203c-.102.007-.416-.007-.586-.163-.089-.075-.13-.19-.13-.34v-.924zm9.762 0v.924c0 .272.096.51.273.68.32.312.805.332.942.332h2.128v-.502h-2.115c-.095 0-.43-.028-.6-.19a.424.424 0 0 1-.123-.32v-.924zm6.574.404h2.085c.05.009.109.025.168.042.328.101.538.37.555.707.009.185.026.378-.025.571a.716.716 0 0 1-.673.564c-.21.008-.43.008-.647.008h-.683c-.05 0-.067-.008-.067-.068v-.282c0-.039.032-.071.071-.071h1.158c.033 0 .076 0 .118-.008.21-.034.302-.135.327-.37a1.544 1.544 0 0 0-.008-.345c-.025-.193-.143-.302-.336-.311-.126-.008-.261-.008-.387-.008h-1.506c-.042 0-.092 0-.134.008-.184.034-.294.16-.302.354v1.412c0 .025 0 .05-.009.083h-.437v-1.546c.008-.025.008-.042.017-.067.068-.32.244-.547.572-.64.05-.007.092-.025.143-.033zm-12.208.275v.89c0 .32.095.571.293.748.286.258.662.252.743.252h.253v-.008c.19-.006.593-.06.866-.325a.92.92 0 0 0 .273-.68v-.116h.007c0-.135-.007-.258-.007-.258h1.89v-.503H9.032s.007.483.007.755h-.007v.115c0 .136-.04.238-.123.32-.17.163-.504.19-.6.19h-.095c-.164-.007-.39-.034-.471-.116-.089-.081-.13-.204-.13-.373v-.89zm4.734 0v.877c0 .007.013.23-.116.374-.075.088-.205.129-.375.129h-.771v.502h.764c.32 0 .573-.102.75-.292.266-.278.26-.659.252-.74v-.85zm10.528.07h.437v1.545c-.009.025-.009.042-.018.068-.067.319-.244.546-.572.638-.05.008-.092.026-.142.034H19.99a1.79 1.79 0 0 1-.168-.042.764.764 0 0 1-.555-.707c-.008-.185-.025-.378.025-.571a.716.716 0 0 1 .673-.564c.21-.008.43-.008.647-.008h.683c.05 0 .067.008.067.068v.282a.072.072 0 0 1-.071.071h-1.158c-.033 0-.075 0-.118.008-.21.034-.302.135-.327.37-.008.109-.008.227.008.345.025.193.143.302.337.311.126.008.26.008.387.008h1.505c.042 0 .093 0 .135-.008.185-.033.294-.16.302-.353v-1.412c0-.025 0-.05.008-.084zM5.335 12.706v.503h1.003v-.503zm9.79 0v.49h.968v-.49zm-9.286.768v.502h.492v-.502zm9.776.013v.49h.478v-.49z" fill-rule="evenodd"/></svg>