<svg viewBox="0 0 24 24" xmlns="http://www.w3.org/2000/svg" role="img"><path d="M11.658 23.085c-1.436-.332-3.06-.996-4.409-1.803-1.644-.984-3.052-2.294-4.038-3.755-.944-1.4-1.548-2.937-1.846-4.696-.218-1.289-.254-2.493-.119-3.99.059-.65.058-1.677-.001-2.002a3.275 3.275 0 0 0-.817-1.687c-.335-.383-.452-.623-.424-.862.009-.071.18-.49.459-1.122.245-.555.45-1.012.453-1.017.01-.009.682.21 1.361.444 2.055.708 4.435.707 6.46-.003a9.754 9.754 0 0 0 2.514-1.304c.204-.143.453-.299.553-.345l.184-.085.143.054c.142.052.254.123.797.496 1.338.92 2.776 1.457 4.45 1.663.49.06 1.736.06 2.22 0 .75-.093 1.614-.286 2.169-.485.415-.149 1.313-.446 1.32-.437.04.046.898 2.055.91 2.126.018.121-.038.348-.122.49-.033.056-.15.213-.26.349-.48.592-.721 1.057-.85 1.64-.07.316-.074 1.012-.012 1.824.068.877.092 2.218.05 2.83-.184 2.756-1.085 5.088-2.733 7.08a18.167 18.167 0 0 1-1.496 1.502c-1.435 1.193-3.054 2.088-4.911 2.715-.587.199-.925.296-1.32.381-.347.075-.357.075-.685 0zm5.752-4.567c.148-.065.229-.205.29-.503l.048-.235c0-.003.26-.006.578-.006.425 0 .583-.008.596-.03.03-.049.014-1.881-.018-2.045-.077-.393-.395-.634-.801-.608l-.117.008.142.094c.218.145.23.183.25.88.01.318.01.754 0 .968l-.019.39-.287-.008-.287-.007-.012-.788-.013-.79-.258.01a2.544 2.544 0 0 0-.268.016 21.61 21.61 0 0 0-.007.842c.002 1.131-.02 1.315-.176 1.465a2.19 2.19 0 0 1-.335.19c-.25.12-.275.138-.23.162.029.016.22.031.433.036.337.007.393.003.491-.04zm-5.003-.04c.112-.055.186-.193.188-.347.002-.148.041-.29.091-.328.037-.028.33-.032 1.709-.023.915.006 1.857.005 2.093-.001l.429-.012-.018-.976c-.01-.537-.02-.978-.022-.98a4.574 4.574 0 0 0-.257.009l-.253.013v.72c0 .397-.007.756-.015.799l-.016.077h-.339V15.8h-.443l-.006.82-.007.82h-.37l-.006-.807-.007-.808h-.492l-.003.253a68.6 68.6 0 0 1-.019.807l-.015.555h-.764l-.015-.74c-.008-.406-.017-.77-.019-.807l-.003-.068h-.191c-.332.001-.298-.086-.307.773-.005.409-.017.761-.028.783-.025.052-.179.07-.45.053l-.207-.013v-.703c0-.83.004-.814-.265-.947-.15-.074-.183-.08-.4-.08-.268 0-.43.044-.593.162-.187.135-.192.168-.188 1.07.002.433.012.802.023.819.015.023.139.03.478.03h.458l-.014.141c-.02.19-.11.317-.3.418-.15.08-.395.132-.624.132-.064 0-.16.008-.215.017-.211.036.029.054.666.05.577-.005.65-.01.736-.053zm-.604-1.044-.064-.008-.012-.621c-.007-.367-.003-.65.011-.69.031-.09.087-.116.24-.116.101 0 .138.012.187.06l.06.06v.637c0 .35-.01.65-.021.668-.02.03-.185.035-.4.01zm-2.863.844c.166-.189-.08-.461-.286-.317-.183.129-.063.429.157.392a.26.26 0 0 0 .129-.075zm.518 0c.173-.197-.09-.47-.296-.307-.17.133-.046.418.166.382a.26.26 0 0 0 .13-.075zm3.6 0a.238.238 0 0 0 .055-.138c0-.102-.118-.218-.222-.218-.094 0-.222.116-.222.201.002.214.25.313.388.155zm.517 0c.078-.09.072-.195-.016-.284a.21.21 0 0 0-.346.228.214.214 0 0 0 .362.056zm.518 0c.078-.09.072-.195-.017-.284a.21.21 0 0 0-.345.228.214.214 0 0 0 .362.056zm4.032.018a.288.288 0 0 0 .058-.134c.013-.078.004-.1-.06-.165-.1-.1-.205-.101-.303-.003-.155.155-.03.394.187.358a.253.253 0 0 0 .118-.056zm.504-.018a.206.206 0 0 0-.06-.328.215.215 0 1 0 .06.328zm.518 0a.206.206 0 0 0-.06-.328.215.215 0 1 0 .06.328zM10.92 17.14c0-.35-.008-.81-.017-1.024l-.016-.389h-.43l-.017.2c-.01.11-.01.49 0 .847.01.374.009.653-.004.66a2.114 2.114 0 0 1-.324 0l-.302-.012V15.85H9.3l-.018.783c-.01.43-.024.788-.03.795-.02.019-.583.014-.632-.006-.04-.016-.043-.078-.043-.81v-.793l-.248.013a1.39 1.39 0 0 0-.263.028c-.008.008-.02.364-.026.79l-.012.776-.102.015a.945.945 0 0 1-.188.007l-.085-.008-.007-.795-.006-.795h-.394v1.604l-.24-.007-.24-.007-.016-.666-.018-.795-.004-.13h-.419v1.581H5.305l-.018-.91c-.02-1.028-.024-.996.17-1.218.094-.107.105-.13.071-.149-.053-.03-.279.017-.442.092a.44.44 0 0 0-.2.165l-.07.105-.006 1.117-.007 1.117.783.007c.431.003 1.807.01 3.058.013l2.275.007v-.636zm-5.294-2.737c.095-.034.128-.036.166-.012.063.04.136.037.266-.008.094-.033.122-.033.25 0 .123.032.434.038 2.11.038h1.966l-.013-.352c-.016-.404-.045-.563-.144-.772-.154-.328-.54-.553-.948-.553-.3 0-.368-.102-.298-.456.056-.284.202-.567.376-.726.18-.163.282-.216.613-.31l.272-.079.007-.1c.022-.293-.227-.902-.53-1.3-.25-.327-.753-.75-1.226-1.035a2.362 2.362 0 0 1-.412-.302c-.139-.144-.187-.156-.367-.093-.138.05-.201.047-.46-.015a1.236 1.236 0 0 0-.452-.037 2.476 2.476 0 0 0-.813.191c-.177.077-.2.08-.506.082a7.438 7.438 0 0 0-.53.022c-.19.018-.226.014-.379-.04-.185-.067-.245-.063-.3.015-.092.132.013.432.195.556a.89.89 0 0 0 .176.094c.067.021.075.036.089.157.008.074.027.167.041.208.015.04.037.16.05.264.02.168.035.204.125.317.139.175.137.26-.01.55-.124.245-.135.34-.062.502.075.164.166.206.433.2.122-.002.289.005.371.015.191.025.256-.007.443-.219.15-.17.19-.196.262-.173.08.025.057.143-.053.27a.87.87 0 0 0-.099.127c0 .036.31.384.37.416.128.065.215.048.316-.065.098-.109.143-.14.257-.172.073-.02.074-.02.058.058a1.458 1.458 0 0 1-.111.266 1.953 1.953 0 0 0-.135.332c-.041.162-.09.584-.09.79 0 .11-.007.133-.05.147-.097.03-.43.018-.652-.025-.535-.103-.928.026-1.063.35-.046.11-.069.345-.047.488.015.104.037.136.181.274a.82.82 0 0 0 .202.157c.02 0 .09-.018.155-.042zm.252-.335c-.053-.127-.046-.185.037-.325a.813.813 0 0 0 .073-.143c0-.011-.056-.017-.126-.013-.164.01-.215.073-.243.302a1.11 1.11 0 0 1-.03.176.324.324 0 0 1-.094.016c-.083.007-.084.006-.103-.116a.544.544 0 0 1 .035-.292c.09-.282.243-.365.574-.314l.394.061c.332.052.532.027 1.264-.159.761-.192.987-.23 1.289-.216.2.01.265.024.4.087.2.094.334.214.424.38.06.11.072.164.082.37l.012.243h-.219c-.12 0-.874.008-1.674.016-.8.009-1.497.008-1.547-.001-.171-.032-.174-.157-.006-.261.048-.03.086-.062.086-.072 0-.033-.173-.101-.259-.101-.098 0-.132.041-.195.237a.49.49 0 0 1-.089.17c-.046.043-.049.041-.085-.045zm1.326-1.24c.021-.477.063-.602.413-1.243.194-.354.246-.521.245-.8a.834.834 0 0 0-.085-.402 1.801 1.801 0 0 0-.171-.32c-.141-.189-.218-.325-.204-.362a1.16 1.16 0 0 1 .22-.175 1.12 1.12 0 0 0 .352-.35c.182-.257.19-.265.263-.227.235.12.8.632 1.005.91.235.318.412.728.439 1.015l.012.139-.257.172c-.425.286-.651.527-.75.8a6.05 6.05 0 0 0-.133.715c0 .035-.148.094-.423.168-.154.041-.39.112-.526.158a4.493 4.493 0 0 1-.33.1l-.085.018zm-.547-1.234c-.115-.115-.125-.174-.05-.295.07-.114.069-.267-.003-.343-.137-.146-.353-.086-.565.158-.123.14-.139.151-.237.151-.085 0-.116-.013-.156-.065-.05-.062-.05-.067-.008-.138.105-.181.407-.34.643-.339.233.002.456.105.547.253.082.135.06.54-.035.672-.034.045-.04.043-.136-.054zm.388-.221c-.034-.01-.043-.055-.05-.268-.008-.255-.008-.257-.094-.346-.116-.121-.233-.177-.435-.21a.705.705 0 0 1-.19-.047c-.012-.012-.004-.08.017-.151.037-.127.036-.132-.022-.233-.083-.141-.077-.212.025-.321.08-.086.093-.09.19-.075.148.024.327.128.505.293.299.279.45.594.452.936 0 .21-.04.344-.118.385a.575.575 0 0 1-.28.037zM5.11 11.13c-.084-.084-.077-.188.025-.401.143-.3.14-.393-.025-.668a.85.85 0 0 1-.098-.232c-.035-.203.096-.448.253-.478.095-.018.107.024.035.117-.069.088-.127.21-.127.266 0 .103.109.338.198.428.084.084.104.092.228.092a.92.92 0 0 0 .301-.062c.202-.076.247-.057.227.094-.016.12-.05.156-.33.367a1.557 1.557 0 0 0-.34.329c-.16.225-.237.258-.347.148zm.344-1.053c-.01-.016.01-.053.05-.086.073-.064.226-.078.316-.03.05.027.047.032-.057.086-.117.061-.28.077-.309.03zm-.1-.332c.03-.182.188-.27.45-.249.177.014.314.082.326.16.013.089-.073.113-.33.094-.203-.014-.24-.01-.328.034a.661.661 0 0 1-.116.051c-.01 0-.01-.04-.002-.09zm1.2-.234c-.09-.025-.173-.1-.173-.158 0-.018.025-.062.056-.097.044-.051.102-.073.302-.113.297-.059.425-.118.715-.332.303-.224.303-.224.333-.147.035.093.03.159-.023.271-.188.405-.79.691-1.21.576zm-.481-.164c-.106-.013-.12-.038-.073-.13.04-.079.04-.221-.001-.393-.014-.058-.003-.066.177-.134.164-.06.243-.074.526-.088.474-.024.64-.004.64.076 0 .073-.299.206-.612.273-.291.061-.38.111-.487.275-.092.14-.08.131-.17.12zm-1.11-.261a3.36 3.36 0 0 1-.425-.11c-.067-.037-.13-.151-.13-.237 0-.074 0-.074.215-.023.147.035.209.036.5.01.289-.027.346-.026.423.006.217.091.269.31.094.401-.101.053-.26.041-.677-.047zm8.184 5.156c.008-.098.053-.944.1-1.88.047-.936.093-1.804.102-1.93l.015-.227h-2.708l.008.142c.01.17.204 4.014.204 4.05 0 .015.4.024 1.132.024h1.132zm-1.994-.173a109.57 109.57 0 0 1-.088-2.47v-.147l.093.089c.128.122.192.15.33.143.148-.007.341-.008.495-.002a.423.423 0 0 0 .166-.022c.035-.019.08-.018.161.002a.927.927 0 0 0 .251.016c.127-.01.149-.021.243-.12a.782.782 0 0 0 .116-.146c.007-.02.017-.03.023-.024.01.01-.09 2.686-.1 2.706 0 .003-.38.006-.841.006-.65 0-.842-.007-.85-.03zm1.26-2.526c-.035-.009-.042-.026-.03-.077.04-.17.043-.259.013-.364-.027-.095-.026-.116.003-.135.145-.091.392.103.392.307 0 .144-.229.307-.378.27zm-1.069-.043c-.215-.094-.2-.405.025-.508.195-.088.238-.058.173.123-.04.115-.04.129 0 .255.022.073.041.14.041.15 0 .028-.157.015-.239-.02zm.547-.007c.061-.16.07-.276.026-.389-.052-.137-.031-.17.094-.146.05.009.09.02.09.023 0 .004-.017.054-.037.111a.661.661 0 0 0-.037.173.5.5 0 0 0 .037.156.71.71 0 0 1 .037.102c0 .007-.051.013-.114.013-.098 0-.11-.006-.096-.043zm-.21-.154c-.04-.1.007-.293.062-.247.047.039.066.146.042.233-.027.1-.066.104-.103.014zm.509-.037c-.018-.07.004-.185.035-.185.03 0 .055.138.036.197-.021.068-.053.062-.071-.012zm.681-.274c-.061-.118-.132-.17-.285-.208a.337.337 0 0 0-.235.012c-.114.038-.133.038-.24.002a.362.362 0 0 0-.248-.01.528.528 0 0 1-.261.001c-.22-.047-.385.016-.49.186l-.058.093-.018-.098a2.025 2.025 0 0 1-.018-.265l-.002-.166h1.978l-.018.178c-.01.099-.025.223-.035.278l-.017.098zm4.79 3.352c.175-.039.193-.039.333.004.143.043.149.043.198-.002.05-.044.056-.044.17-.004.065.024.14.043.167.043.027 0 .119-.074.21-.168.181-.188.207-.256.185-.496a.754.754 0 0 0-.373-.576c-.132-.069-.385-.071-.808-.008-.239.036-.348.042-.468.025l-.157-.022-.015-.308a2.191 2.191 0 0 0-.205-.899 3.626 3.626 0 0 1-.126-.316c-.015-.061-.01-.068.05-.068.046 0 .106.04.2.13.224.217.297.208.559-.065.105-.11.19-.206.19-.216a.805.805 0 0 0-.093-.136 1.05 1.05 0 0 1-.11-.16c-.016-.044.043-.144.086-.144.014 0 .114.088.222.197.236.238.312.268.534.21a.491.491 0 0 1 .27-.011c.234.05.414-.053.472-.269.036-.135.017-.216-.101-.453-.129-.256-.127-.337.009-.527.099-.138.105-.156.113-.343a.7.7 0 0 1 .037-.23.678.678 0 0 0 .054-.197c.025-.155.03-.164.103-.179.15-.03.238-.104.321-.27.092-.183.097-.234.038-.358-.04-.082-.05-.088-.13-.077a1.49 1.49 0 0 0-.233.066c-.138.05-.161.052-.343.023a2.622 2.622 0 0 0-.48-.016c-.276.013-.288.012-.421-.055-.414-.209-1.116-.282-1.527-.16-.124.036-.14.036-.282-.012a.993.993 0 0 0-.204-.051c-.033 0-.115.06-.211.154-.09.087-.28.228-.44.326-.506.309-.923.67-1.204 1.04-.084.112-.165.21-.18.22-.032.02-.02-.114.054-.627a5.91 5.91 0 0 0 .047-.388v-.06h-4.34l.001.08c0 .088.115.916.136.981.01.036.083.043.598.055.321.007 1.234.016 2.027.018.793.003 1.446.008 1.45.013.005.004-.032.095-.082.2-.114.244-.15.36-.193.634-.025.159-.027.22-.007.228.015.005.16.05.323.098.184.056.344.122.425.176.24.16.421.446.492.78.037.174.032.422-.009.463a1.134 1.134 0 0 1-.254.048c-.495.059-.804.233-.96.54-.123.238-.204.75-.164 1.02l.018.115 1.866.006c1.026.004 1.89.01 1.92.013.03.003.139-.013.241-.035zm-2.607-.25c-.998-.007-.92.02-.901-.302.025-.44.321-.735.789-.786.377-.041.67.006 1.645.266.495.133.802.148 1.267.063.382-.07.559-.034.663.134.047.076.055.125.056.312v.222l-.078.007c-.078.008-.078.008-.094-.135-.022-.196-.057-.275-.139-.317-.071-.037-.254-.05-.24-.017l.08.16c.074.15.076.255.005.352-.048.066-.1.017-.152-.145-.068-.212-.094-.238-.228-.238-.107 0-.227.05-.227.095 0 .01.037.038.08.064.097.056.117.083.117.154.001.111-.054.118-.948.118-.462 0-1.224-.003-1.695-.006zm1.35-1.116a10.388 10.388 0 0 0-.58-.172c-.19-.05-.297-.09-.325-.123a.463.463 0 0 1-.057-.191c-.041-.385-.141-.653-.34-.913-.1-.13-.463-.423-.692-.556l-.12-.07.016-.115c.068-.48.365-.998.827-1.44.278-.267.61-.511.693-.511.032 0 .091.067.184.207.153.233.259.338.463.46.077.046.14.094.14.107 0 .013-.078.142-.172.287-.26.4-.338.62-.315.895.019.214.066.334.316.8.287.536.344.712.362 1.12l.013.315h-.059a2.69 2.69 0 0 1-.355-.1zm.767-1.46a.722.722 0 0 1-.04-.43c.1-.477.78-.576 1.156-.167.144.156.135.254-.028.293-.106.025-.222-.04-.322-.178-.113-.158-.189-.208-.312-.206a.367.367 0 0 0-.266.11c-.072.066-.07.087.02.261.053.1.072.163.06.2-.023.07-.157.222-.198.222-.018 0-.05-.047-.07-.104zm-.515-.246c-.14-.106-.117-.614.042-.928.033-.065.117-.182.187-.258.16-.175.542-.435.64-.435.082 0 .207.097.262.202.036.07.034.078-.03.17-.057.084-.064.113-.051.214.008.064.022.14.03.168.013.047-.005.055-.228.105-.41.091-.473.164-.495.565l-.012.228h-.153a.46.46 0 0 1-.192-.03zm1.97-.215a.327.327 0 0 1-.065-.102c0-.047-.213-.252-.412-.395-.22-.16-.286-.25-.274-.374.01-.106.089-.114.292-.03a.875.875 0 0 0 .261.062c.089 0 .12-.014.192-.09.2-.205.249-.443.128-.625-.097-.147-.122-.222-.073-.222.094 0 .205.082.257.189.083.17.061.37-.062.573-.139.23-.144.34-.026.591.146.31.126.456-.065.487-.075.013-.095.004-.152-.064zm-.35-1.035c-.057-.023-.123-.095-.104-.113a.54.54 0 0 1 .137-.028c.111-.013.13-.008.19.05.035.036.057.077.05.09-.019.03-.202.03-.273.001zm.263-.291c-.106-.063-.113-.064-.303-.036-.2.03-.25.023-.323-.04-.07-.06-.05-.102.074-.158.15-.067.404-.073.518-.011.09.049.16.166.15.25l-.008.059zm-8.298-.062a2.07 2.07 0 0 1-.026-.21l-.015-.178h3.603l-.014.154c-.007.085-.019.18-.025.21l-.011.055h-1.75c-1.38 0-1.754-.006-1.761-.03zm6.832-.195c-.412-.055-.88-.461-.879-.762 0-.188.074-.185.295.012a1.4 1.4 0 0 0 .7.344c.346.077.456.153.408.282-.04.105-.267.16-.524.124zm.7-.28c-.098-.186-.149-.213-.618-.32-.266-.061-.493-.186-.493-.272 0-.017.025-.037.056-.045.088-.024.682-.017.845.01.19.03.446.134.435.176a2.358 2.358 0 0 0-.022.194c-.01.122-.004.18.027.24.044.085.04.091-.083.113-.083.015-.09.011-.147-.097zm.664-.08a.206.206 0 0 1-.162-.288c.062-.148.133-.166.627-.157.24.004.493-.002.565-.014.123-.02.13-.02.13.032a.302.302 0 0 1-.15.238c-.075.038-.658.167-.85.188a.772.772 0 0 1-.16 0zm-5.411-.35c.02-.065-.031-.644-.074-.827a3.925 3.925 0 0 0-.282-.764 1.616 1.616 0 0 1-.125-.337c0-.146.153-.25.723-.488.58-.242.958-.516 1.14-.826.132-.227.163-.363.177-.786l.013-.39-.367.008-.367.009-.012-.21-.013-.208-.135-.033c-.108-.025-.466-.03-1.738-.019-.882.007-1.644.02-1.695.028l-.091.015-.007.201-.007.201-.376.007-.376.007v.222c0 .536.183.981.538 1.308.13.12.241.188.534.331.204.1.448.21.542.245.533.2.59.374.288.897-.21.364-.3.736-.3 1.246 0 .172.004.185.056.193.03.005.48.01.998.011.885.003.943 0 .956-.041zm-1.714-.414c0-.347.093-.734.285-1.189a.716.716 0 0 0 .066-.323c-.002-.26-.06-.338-.388-.517-.28-.152-.397-.268-.508-.504a2.88 2.88 0 0 1-.269-1.256c0-.216.007-.257.042-.27.126-.05 1.925-.078 2.761-.045l.226.009.017.183a3.45 3.45 0 0 1-.09.962 2.26 2.26 0 0 1-.299.609c-.04.051-.198.175-.35.275-.517.34-.543.44-.282 1.089.13.324.183.525.206.774.008.088.02.202.027.253l.011.092h-1.455v-.142zm-.924-2.488c-.314-.169-.568-.568-.617-.973a.644.644 0 0 1 0-.192c.015-.049.03-.052.191-.046l.175.008.055.258c.08.388.154.635.242.82.083.174.076.19-.046.125zm3.143.014c0-.015.043-.123.095-.24.102-.227.153-.425.201-.775l.03-.217.188.007.189.007.007.157c.02.41-.167.765-.523.994-.154.1-.187.112-.187.067z"/></svg>