<svg role="img" viewBox="0 0 24 24" xmlns="http://www.w3.org/2000/svg"><path d="M6.387 0C5.01 0 3.633 0 2.257.01c.02.15.047.298.078.445 4.188.009 8.378.008 12.567 0 .03-.147.06-.295.084-.444C13.497-.01 12.008.01 10.519.002c-1.377.004-2.754 0-4.132 0zM2.822.681c-.148 0-.296.004-.444.013.194 1.307.415 2.612.625 3.917.398-.114.69-.49.73-.895-.111-.173-.28-.31-.344-.511-.068-.232-.073-.477-.136-.71-.064-.25-.202-.474-.249-.73.356.198.629.515.88.827a9.2 9.2 0 0 1 .721-.725.742.742 0 0 1 .229-.13c-.057.215-.177.405-.244.617-.108.293-.075.62-.203.907a.9.9 0 0 1-.324.389c.029.32.177.641.449.824.246.183.577.17.863.117.357-.103.573-.44.67-.78.035-.013.107-.04.143-.052.051.6-.555 1.122-1.137 1.083a1.128 1.128 0 0 1-1.038-.654c-.112-.18-.075-.395-.068-.595L3.8 3.68c.047.189.077.402-.042.572-.148.286-.432.454-.716.582l.05.338c.82.028 1.642.004 2.463.012 2.867-.005 5.734.009 8.6-.007l.047-.328c-.349-.094-.684-.296-.844-.633-.102-.153-.05-.336-.032-.503-.032-.055-.088-.09-.133-.133-.013.231.043.483-.11.68-.297.574-1.1.756-1.636.419-.31-.199-.573-.553-.495-.94.223.145.223.451.418.622.264.275.68.31 1.033.225.364-.125.626-.494.648-.871-.09-.16-.229-.288-.303-.458-.134-.3-.093-.642-.218-.945-.057-.201-.22-.374-.2-.593.342.247.63.561.916.87.19-.254.42-.477.658-.686a.743.743 0 0 1 .244-.136c-.069.253-.21.478-.269.733-.051.22-.065.447-.121.665-.059.218-.235.37-.356.551.045.434.381.877.845.895.204-1.307.405-2.614.616-3.92-.276-.012-.553-.01-.829-.008H3.267L2.822.68zm.999.454c.078.031.213.015.215.131.012.22-.062.432-.102.645L3.756 2c-.158-.19-.36-.389-.352-.655.048.002.143.009.19.012.118.129.134.32.212.475.008-.232-.036-.466.015-.696zm6.984.006c.082.026.207.01.219.124-.012.208-.057.413-.043.623.082-.187.13-.39.242-.563l.2.051a1.286 1.286 0 0 1-.299.538c-.07.09-.19.017-.282.02.005-.265-.123-.53-.037-.793zm2.512.003c.05.23-.01.463.01.695.085-.174.124-.373.249-.527l.181.072c-.06.243-.217.442-.378.627a28.19 28.19 0 0 0-.179-.098c-.046-.245-.109-.49-.093-.742l.21-.027zm-4.865.006c.068.007.137.014.206.018.004.239-.02.476-.024.713.07-.178.134-.36.205-.537l.208.008c.007.26-.185.46-.352.637a14.191 14.191 0 0 0-.186-.078c-.053-.25-.13-.507-.057-.76zm-2.228.002c.06 0 .12.036.118.109-.007.228-.055.454-.048.684l-.138-.005c.006-.23-.053-.454-.058-.681.004-.071.066-.107.126-.107zm-.318.174c.135.198.19.433.222.666-.235-.119-.349-.381-.423-.62l.2-.046zm7.026.007c.105.198.186.412.185.64-.22-.125-.352-.37-.396-.614l.21-.026zm-8.73 0l.207.027c-.034.246-.17.49-.392.613.001-.228.088-.439.186-.64zm4.044 0c.1.2.195.41.184.638-.217-.124-.345-.369-.388-.61l.204-.028zM6.6 1.345c.047 0 .1.013.14.01-.05.254-.194.508-.425.638.036-.2.078-.404.175-.584.02-.053.062-.064.11-.064zm3.928.003c.048.001.09.013.11.064.09.17.13.36.168.548-.26-.063-.366-.374-.42-.61.04.008.094-.003.142-.001zm-7.36.108c.244.163.394.427.503.691a2.148 2.148 0 0 1-.617-.5l.115-.19zm10.79 0c.037.065.075.13.114.193a2.546 2.546 0 0 1-.61.495c.113-.26.253-.527.496-.687zm-2.42.03l.13.009.061.1-.09.2.18-.02c-.114.297-.28.582-.312.905-.041.345-.109.724-.399.953-.074.11-.185.008-.272-.023.003.157.034.318-.007.472a1.167 1.167 0 0 1-.818.735c-.32.052-.67.031-.943-.161-.254-.149-.384-.422-.514-.671-.149.231-.256.508-.504.655-.28.208-.65.238-.982.168a1.179 1.179 0 0 1-.794-.772c-.043-.114.007-.227.053-.33.144.246.211.55.453.725.256.219.622.224.935.154.348-.125.596-.457.647-.82-.076-.198-.24-.348-.318-.546-.089-.191-.074-.407-.116-.609-.06-.298-.207-.568-.32-.848l.23.048-.121-.17.027-.153.178.01c.141.21.319.404.388.654-.16-.104-.306-.225-.47-.322.222.267.493.492.717.759.191-.27.433-.5.7-.696l-.005-.088c-.156.117-.31.234-.474.339.092-.241.223-.476.424-.643.076-.032.133.051.193.083l-.102.21.181-.02c-.124.305-.288.603-.319.937-.042.277-.075.586-.282.797-.057.079-.18.139-.16.252.069.283.209.574.47.726.21.145.478.15.723.128.441-.042.769-.464.813-.885-.072-.16-.219-.273-.292-.433-.133-.27-.107-.58-.197-.863-.07-.248-.205-.471-.283-.716l.217.105a.86.86 0 0 1-.091-.331c.064 0 .13.003.195.005.144.208.318.403.39.652-.128-.077-.25-.16-.378-.237.184.246.423.443.623.675.154-.18.316-.354.492-.512.087-.079.184-.155.225-.27-.153.099-.295.217-.461.295.074-.232.223-.428.38-.612zm-4.535.001c.009.07.07.157.006.218-.148.17-.325.32-.539.397.088-.226.234-.42.383-.607.038-.003.113-.006.15-.007zm5.417.002c.062.002.124.004.187.008.134.213.324.4.382.653a2.523 2.523 0 0 1-.567-.47 1.78 1.78 0 0 1-.002-.191zm-7.02 0c.06.002.12.008.181.017.138.144.25.313.345.489l-.003.131c-.143-.112-.278-.234-.436-.325.213.29.51.505.735.785.288-.288.532-.655.915-.82-.074.254-.213.484-.272.743-.064.27-.058.56-.183.813-.07.145-.188.256-.303.365a.764.764 0 0 0-.331.003c-.135-.158-.289-.313-.344-.52-.069-.217-.076-.445-.123-.667-.063-.25-.187-.48-.281-.72l.17.001a.632.632 0 0 1-.07-.295zm-.691.001c0 .064 0 .127-.004.19-.153.19-.359.33-.56.466.063-.248.231-.446.375-.65.063-.003.126-.004.19-.006zM6.105 2c.12.012.263.013.31.149.002.128-.125.212-.191.31-.062-.067-.128-.133-.18-.209-.02-.087.043-.168.061-.25zm4.766.009c.101-.008.198.101.246.196a5.14 5.14 0 0 1-.25.239c-.079-.106-.242-.259-.097-.383a.158.158 0 0 1 .101-.052zm-2.308 0c.1.001.145.129.21.195a3.6 3.6 0 0 1-.249.23l-.203-.237c.063-.059.099-.173.196-.18a.14.14 0 0 1 .046-.008zm4.643.001c.096 0 .198.102.25.186-.08.082-.162.164-.246.242-.076-.1-.245-.22-.126-.352.036-.054.079-.075.122-.076zm-9.266.001c.014 0 .03.003.045.007.061.043.09.116.113.184-.042.09-.113.162-.176.239a.792.792 0 0 1-.252-.302c.084-.05.168-.13.27-.127zm9.503 3.406c-.212 0-.425.007-.637.002H3.489c-.108.001-.215.01-.322.017L3.15 5.6c3.649.004 7.299.004 10.948 0l-.018-.159a5.976 5.976 0 0 0-.637-.023zm-4.82.32l-5.449.002C3.805 9.573 4.4 13.411 5.03 17.246c.272 1.392.76 2.781 1.669 3.891.813 1.009 2.005 1.728 3.298 1.89.06.014.116.037.17.07-.29.056-.584.03-.876.035-2.552 0-5.103-.002-7.655 0a5.378 5.378 0 0 0-.006.552c5.9.013 11.802.003 17.703.005 1.015-.01 2.032.018 3.047-.013a40.84 40.84 0 0 1-.001-.543c-3.043-.005-6.087 0-9.13-.002-.693-.088-1.321-.66-1.426-1.36-.068-.454.21-.899.613-1.094.624-.34 1.372-.212 2.009.02.254.117.543.11.813.062.26-.076.485-.318.49-.599.027-.299-.114-.58-.296-.808-.334-.411-.798-.697-1.289-.884-.639-.247-1.126-.812-1.334-1.458-.344-1.003-.254-2.093-.042-3.113.43-2.718.846-5.439 1.284-8.156a3297.86 3297.86 0 0 0-5.448-.004zm-.05 2.788c.182-.002.368.012.505.136.11.101.083.26.03.383-.156.41-.29.828-.444 1.238-.24.021-.48.055-.716.103-.012-.498.007-.997.01-1.495-.02-.238.232-.366.438-.362.057 0 .117-.003.177-.004zm1.134.203a.685.685 0 0 1 .616.36c.076.19-.065.355-.179.49-.236.275-.43.583-.684.843-.213-.04-.424-.091-.635-.14.118-.392.284-.766.416-1.152.05-.13.087-.285.225-.348a.593.593 0 0 1 .241-.053zm-2.149.015c.118 0 .228.032.248.167.033.49.014.983.035 1.474-.202.092-.398.199-.608.272-.183-.37-.36-.745-.544-1.115-.07-.127-.106-.293-.008-.415.166-.203.426-.304.674-.365.059-.008.132-.018.203-.018zm3.175.612a.37.37 0 0 1 .134.025.92.92 0 0 1 .4.522c.028.21-.137.392-.31.488-.31.174-.625.34-.94.502a4.783 4.783 0 0 0-.396-.428c.254-.309.483-.64.755-.932a.49.49 0 0 1 .357-.177zm-4.2.155c.191.425.438.827.586 1.27-.145.165-.285.335-.432.498-.323-.316-.687-.588-1.015-.899.012-.256.07-.529.273-.704.167-.126.385-.155.588-.165zm-1.159.959a.42.42 0 0 1 .068.003c.164.02.28.152.404.249.256.232.53.444.783.682a8.84 8.84 0 0 1-.198.506c-.315-.079-.585-.267-.882-.393-.182-.094-.39-.158-.533-.308-.157-.268.03-.729.358-.74zm3.243.06c.02.142.025.286.025.43-.01.295.127.569.143.862-.162.057-.315.15-.488.169a1.623 1.623 0 0 1-.626-.751c-.079-.184-.103-.464.111-.566.261-.113.553-.136.835-.144zm.35.067c.33.005.667.132.853.415-.136.248-.226.52-.24.804-.188.005-.378.029-.564-.006-.269-.338-.218-.805-.19-1.208a1.66 1.66 0 0 1 .141-.005zm-1.63.377c.116.198.22.403.347.593.14.21.337.37.51.553-.08.105-.152.218-.246.31-.342.005-.652-.184-.93-.365-.142-.107-.337-.27-.269-.47.11-.267.29-.545.588-.62zm9.546.332c-.46-.006-.926.096-1.314.352-.668.434-1.206 1.044-1.65 1.7-.594.892-.998 1.933-1.028 3.012.008.466.11.964.45 1.307.51.565 1.305.687 1.93 1.079.37.221.666.577.788.993.126.406.052.836-.07 1.233.382.014.765.02 1.14.103.363.024.717.12 1.058.246-.082-.365-.099-.739-.126-1.11-.144-1.242-.222-2.491-.373-3.733-.216-.03-.436-.042-.647-.103.053-.088.108-.174.165-.26-.231-.022-.567.059-.682-.205-.004-.139.15-.18.24-.25-.173-.028-.366-.062-.479-.211-.097-.096-.095-.24-.11-.365.125-.012.25-.022.375-.035-.19-.117-.386-.25-.442-.482.114-.074.23-.145.351-.206a5.87 5.87 0 0 1 .02-.136c-.143-.033-.36-.002-.408-.182-.111-.388.14-.738.41-.987.101-.063-.005-.149-.072-.18a.913.913 0 0 1-.466-.655c-.03-.205.148-.36.313-.444.223-.104.473-.192.723-.15.19.037.216.35.426.311.1-.154.21-.305.373-.396-.173-.118-.37-.2-.578-.226a3.118 3.118 0 0 0-.317-.02zm-11.89.22c.117-.004.232.053.34.094.353.15.707.301 1.052.469-.006.195-.018.39-.022.584-.174-.026-.35-.051-.521-.09-.347-.08-.714-.066-1.049-.198-.119-.071-.13-.227-.114-.35.021-.183.063-.392.232-.496a.325.325 0 0 1 .081-.013zm13.05.182a.305.305 0 0 0-.146.04c-.217.145-.373.369-.614.479-.139-.16-.277-.386-.517-.38-.241-.035-.461.117-.6.3.024.28.215.543.458.68.172.06.383.072.545-.017.251-.215.381-.552.673-.724a.69.69 0 0 1 .652.1c.253.148.5.307.745.472-.157-.405-.602-.542-.895-.822a.418.418 0 0 0-.301-.128zm-11.387.245c.334.368.817.521 1.29.618-.005.208-.003.417.004.625-.362.013-.72.112-1.083.072-.135-.079-.196-.235-.234-.378-.069-.307-.084-.636.022-.937zm2.637.029c.1-.001.2.004.3.015.071.314.16.629.321.91.588 1.055 1.4 1.958 2.045 2.975.537.943.907 1.97 1.225 3.004.145.497.231 1.014.44 1.49-.313-.04-.64-.064-.945.033-.223.05-.41.186-.596.312.015-1.015-.079-2.054-.45-3.006-.52-1.274-1.448-2.323-2.39-3.304-.253-.269-.483-.56-.736-.828-.139-.148-.281-.309-.323-.512-.072-.3.009-.649.26-.841.246-.18.548-.245.849-.248zm8.79.3c-.382.013-.63.445-.637.796-.042.267.257.498.504.408.202-.131.313-.363.517-.493.188-.144.432-.153.657-.178-.139-.255-.432-.316-.698-.323-.072-.086-.133-.218-.266-.207-.026-.004-.052-.004-.078-.004zm.062.134c.026 0 .053.002.08.008-.075.149-.288.099-.387.222-.079.096-.06.246.004.344.08.076.193.095.292.136-.116.112-.273.261-.441.148-.223-.322.057-.858.451-.857zm-.02.197c0 .099.002.198.005.297.146-.001.196-.138.247-.25.153-.017.308-.009.458.025-.207.106-.406.23-.623.314-.126-.009-.303-.13-.236-.274.024-.062.1-.075.148-.112zm-12.901.1c.054 0 .108.005.16.006.328.024.657.043.98.104.072.256.201.488.312.727-.468 0-.936-.002-1.404.017-.152 0-.37.008-.427-.17-.036-.21-.045-.47.121-.63a.497.497 0 0 1 .258-.054zm11.974.24c-.314.084-.627.243-.815.517-.106.144-.095.33-.105.498.175.044.355.044.533.035.011.306-.222.52-.393.744.193.04.389.067.585.088-.027.256-.271.387-.437.552.222.067.453.024.663-.058.016.248-.173.422-.295.615.247-.008.486-.07.729-.11-.05.128-.109.254-.151.385l.086.068a.883.883 0 0 0 .644-.363c-.218-.216-.466-.41-.632-.672-.44-.67-.564-1.52-.412-2.3zm1.862.026a.782.782 0 0 0-.377.068c-.179.088-.31.245-.463.367-.16.14-.35.242-.492.4-.098.1-.053.253-.06.379.186.032.412.045.543-.118.24-.243.147-.655.408-.877.184-.17.45-.136.674-.206-.077-.005-.155-.012-.233-.013zm.185.128a.633.633 0 0 0-.216.045c.201.048.429.049.595.188.174.135.244.363.43.487a1.9 1.9 0 0 0 .115-.516c-.311-.027-.614-.217-.924-.204zm-11.378.207c.038 0 .077 0 .116.004.147.155.271.33.406.498-.312.045-.613.149-.926.18-.295.077-.603-.329-.4-.577.27-.008.534-.103.804-.106zm11.376.09a.575.575 0 0 0-.357.122c-.288.217-.4.582-.655.83.283-.018.574.006.85-.078.24-.075.481-.14.726-.196-.04-.189-.09-.386-.225-.53a.436.436 0 0 0-.339-.148zm-12.534.23c.116.17.219.35.355.506-.541.16-1.091.316-1.655.359a.726.726 0 0 1-.318-.42c-.015-.08-.025-.193.074-.224.204-.107.44-.098.664-.118.295-.02.583-.11.88-.102zm1.806.307c.147.153.284.314.409.486-.322.131-.664.202-.999.29-.258.086-.519-.161-.528-.412-.02-.113.1-.163.188-.19.31-.061.616-.138.93-.174zm11.377.252c-.253.081-.482.23-.749.264-.389.09-.818.008-1.176.215-.22.119-.25.425-.13.626.093.181.282.274.43.402.059.12.067.26.145.371.16.06.386.086.507-.063.092-.095.094-.236.134-.355.05-.241.228-.422.329-.64-.191.103-.313.293-.495.406a1.439 1.439 0 0 1-.623.004c-.26-.066-.374-.436-.154-.613.29-.2.669-.174 1.004-.16.167-.018.249.144.348.247.19-.202.34-.44.43-.704zm-12.756.121c.06.214.193.394.368.528-.404.122-.813.228-1.214.36-.142.028-.303.13-.438.03-.155-.092-.27-.281-.239-.465.09-.143.277-.145.422-.193.37-.076.728-.205 1.101-.26zm1.925.277c.194.103.31.31.464.462-.255.122-.537.16-.804.242-.156.035-.306.113-.468.109-.16-.063-.314-.226-.283-.41-.005-.15.168-.188.28-.226.268-.067.533-.163.811-.177zm9.635.221a.858.858 0 0 0-.447.105c.295.014.588.045.856.177-.008-.07.06-.213-.052-.228a1.519 1.519 0 0 0-.357-.054zm-10.987.159c.034.213.124.422.324.528-.473.159-.955.294-1.436.427-.258.075-.491-.232-.402-.474.109-.135.292-.14.445-.186.356-.1.707-.215 1.069-.295zm1.903.221c.164.15.314.315.432.505-.295.086-.588.174-.88.265-.158.039-.332.086-.49.024-.163-.104-.241-.393-.066-.523.333-.094.67-.174 1.004-.271zm-1.395.441c.072.196.173.379.317.53-.42.122-.837.25-1.257.37-.154.041-.368.081-.473-.075-.115-.142-.129-.437.1-.473.436-.119.866-.276 1.313-.352zm1.913.197a5 5 0 0 1 .425.496c-.293.124-.606.19-.907.291-.135.036-.281.096-.42.045-.197-.072-.26-.344-.16-.515.34-.14.703-.236 1.062-.317zm-1.445.447c.098.196.206.391.371.54-.432.109-.854.253-1.283.372-.15.03-.353.074-.46-.07-.11-.119-.059-.292-.055-.436.474-.139.946-.289 1.427-.406zm1.97.167c.122.173.236.351.33.541-.258.125-.545.168-.813.27-.165.064-.352.112-.524.048-.173-.118-.176-.339-.124-.522.381-.1.753-.23 1.132-.337zm-1.391.435c-.015.22.068.42.22.576-.33.138-.685.206-1.024.32-.178.046-.36.14-.548.096-.197-.09-.26-.344-.164-.53.495-.184 1.015-.296 1.516-.462zm1.8.232c.092.174.203.342.25.535l-.049.074c-.232.076-.47.13-.7.214-.167.059-.358.121-.528.042-.156-.115-.265-.409-.051-.522.352-.133.722-.217 1.078-.343zm-1.417.439c-.014.232.1.434.25.601a74.74 74.74 0 0 0-1.25.364c-.125.03-.27.075-.389.001-.126-.094-.226-.275-.152-.429.045-.1.163-.113.254-.149.43-.126.865-.238 1.287-.389zm1.753.278c.086.188.145.387.173.592-.302.096-.603.192-.903.29-.238.11-.508-.144-.467-.388-.012-.148.15-.194.263-.225.313-.082.615-.204.934-.269zm-1.445.451c.02.107.02.22.066.321.062.097.16.163.245.238-.405.118-.81.233-1.213.358-.154.037-.325.09-.476.018-.184-.105-.244-.482.003-.544.461-.12.911-.279 1.375-.39zm1.67.284c.043.208.09.416.12.628-.321.07-.622.224-.948.264-.276.054-.456-.332-.299-.538.368-.142.755-.224 1.127-.354zM10.202 19a.813.813 0 0 0 .235.576c-.298.13-.617.195-.925.296-.183.048-.363.126-.555.13-.217.006-.339-.26-.294-.446.016-.125.156-.132.248-.173.432-.122.864-.244 1.29-.383zm1.544.324c.036.207.068.416.09.626-.26.079-.512.18-.773.251-.244.082-.486-.183-.427-.421-.008-.118.12-.146.205-.184.302-.091.608-.167.905-.272zm-1.362.438a.677.677 0 0 0 .29.559c-.395.134-.801.23-1.199.36-.125.036-.25.094-.383.075-.154-.077-.28-.244-.247-.423-.01-.152.176-.175.285-.214.423-.102.83-.263 1.254-.357zm1.457.34c.004.217.002.433-.005.65-.257.07-.501.187-.761.245-.31.06-.54-.492-.21-.6.32-.114.65-.199.976-.294zm-1.383.443c.027.12.031.252.092.363.062.08.156.124.237.18-.49.147-.98.292-1.471.433-.121.046-.237-.034-.32-.116-.098-.105-.065-.259-.08-.389.192-.113.413-.153.625-.215.306-.082.606-.19.917-.256zm3.205.315a1.375 1.375 0 0 0-.681.143c-.244.112-.48.292-.56.558-.106.361-.001.789.29 1.037.313.278.748.35 1.15.392 2.48.006 4.962.039 7.441.005-.084-.198-.206-.411-.42-.487-.176-.063-.352-.13-.534-.174a5.664 5.664 0 0 0-.032.445.704.704 0 0 1-.559-.2c-.529-.428-1.243-.332-1.868-.467-.476-.114-.96-.2-1.447-.249-.56-.11-1.14-.035-1.7-.15-.37-.036-.758-.132-1.121-.011-.131.119-.097.347.034.454.228.242.586.164.881.161a82.54 82.54 0 0 1 2.618.01c.311.009.632.024.921.152l.062.118c-.383-.013-.766-.034-1.15-.014-.54-.012-1.075.088-1.616.075-.533-.012-1.067.04-1.599-.01-.262-.046-.542-.124-.724-.33-.196-.226-.251-.603-.04-.837.154-.151.379-.194.584-.224.378.008.729.19 1.108.2.532.028 1.068-.019 1.596.065.483.023.965.076 1.432.203.22.06.42.2.655.193.325-.001.655.029.964.133.25.085.46.28.733.295.012-.269-.3-.411-.269-.688.1.013.226-.02.3.069.152.143.29.299.444.44a1.537 1.537 0 0 1-.111-.399c.085.07.164.145.232.231.246.31.515.602.777.898l.194-.01a2.58 2.58 0 0 0-.303-.608c-.109-.168-.328-.188-.478-.3-.089-.125-.137-.273-.228-.395-.085-.091-.217-.059-.327-.062-.168.016-.308-.127-.477-.102-.262.011-.456.245-.721.236-.336.012-.677-.004-.994-.124a4.587 4.587 0 0 0-1.293-.226c-.445-.092-.904-.065-1.35-.154-.307-.047-.628-.008-.923-.117-.283-.087-.59-.167-.891-.175zm-1.81.04c-.072.199-.105.407-.152.611-.016.092-.117.118-.19.15-.167.056-.344.143-.524.1-.213-.08-.36-.458-.103-.569.314-.123.652-.175.968-.291zm-1.346.429c.01.217.092.426.291.536-.392.164-.811.245-1.213.378-.096.028-.191.066-.292.068-.278.001-.481-.468-.18-.591.467-.12.925-.278 1.394-.392zm11.13 2.496c-.247.001-.495.009-.742.003H1.926c-.11.015-.284-.022-.31.126.066.066.17.034.255.046 6.837-.008 13.675.004 20.514-.006l-.006-.134a5.54 5.54 0 0 0-.741-.034z"/></svg>