<svg role="img" viewBox="0 0 24 24" xmlns="http://www.w3.org/2000/svg"><path d="M11.877 20.447a10.79 10.79 0 0 1-.113-.565c-.03-.164-.09-.493-.155-.836a67.76 67.76 0 0 1-.105-.567 13.908 13.908 0 0 0-.099-.499l-.047-.21-.054.097c-.072.13-.762 1.454-.932 1.788-.165.325-.277.53-.306.557-.015.015-.018-.082-.01-.32.015-.378.047-1.354.066-1.996.011-.374.01-.416-.02-.405-.018.007-.032.018-.032.026a.622.622 0 0 1-.084.106 9.403 9.403 0 0 0-.242.289c-.087.107-.298.358-.47.557-.17.198-.388.458-.484.578-.226.28-.455.54-.467.53-.008-.009.219-.912.438-1.748.132-.505.234-.916.229-.922-.01-.009-.184.117-.596.432l-.79.604c-.215.165-.47.362-.566.439-.298.236-.303.238-.212.053a199.51 199.51 0 0 1 1.152-2.266c.066-.095.015-.083-.322.077l-.33.155a87.89 87.89 0 0 0-.475.222 99.4 99.4 0 0 1-.619.287l-.481.225a5.556 5.556 0 0 1-.253.116c-.044 0 .075-.15 1.399-1.749l.255-.31c.03-.037.052-.07.047-.076-.01-.01-.618.111-.812.162-.068.018-.24.056-.382.086-.142.03-.332.071-.423.093-.09.021-.281.063-.423.093-.142.03-.334.073-.428.095a.968.968 0 0 1-.205.035c-.023-.004.181-.177.568-.482.333-.26.634-.495.67-.52l.065-.047h6.054c5.765 0 6.055.002 6.087.037.018.02.066.062.106.095.04.032.123.107.185.166l.67.619.588.54c.05.048.013.05-.135.01-.161-.044-.119-.032-1.247-.378-.831-.255-1.204-.367-1.226-.367-.015 0 .27.42.72 1.062l.438.624c.054.077.17.242.259.366.088.123.157.228.152.233-.01.01-.164-.066-.415-.21-.574-.326-.865-.49-1.279-.722-.25-.14-.509-.288-.576-.329a.558.558 0 0 0-.13-.067c-.011.012.09.282.236.632.193.462.376.907.407.99.03.082.219.534.289.692.076.173.1.238.09.248-.008.009-.385-.318-.841-.73a94.618 94.618 0 0 0-.66-.591 48.4 48.4 0 0 1-.391-.35c-.129-.117-.158-.136-.163-.103-.005.032.337 2.013.428 2.483.012.06.021.134.021.162 0 .047-.005.044-.072-.037a64.43 64.43 0 0 1-.81-1.118l-.737-1.032-.014.121c-.008.067-.024.372-.037.679l-.043 1.093c-.028.692-.04.877-.06.877-.01 0-.056-.1-.104-.222a9.934 9.934 0 0 0-.126-.304c-.02-.046-.13-.3-.242-.568-.633-1.493-.603-1.423-.62-1.423a.952.952 0 0 0-.062.201c-.027.11-.076.289-.11.396-.032.108-.115.413-.183.68-.07.266-.147.555-.174.64a12.39 12.39 0 0 0-.123.444c-.04.159-.078.292-.083.297-.005.005-.014-.004-.02-.02zm9.108-5.237a.651.651 0 0 1-.265-.157.775.775 0 0 1-.106-.322c0-.027.022-.096.049-.153.16-.343.605-.366.806-.04a.343.343 0 0 1 .063.226c0 .21-.113.358-.329.43-.11.038-.14.04-.218.016zm1.045-.013a.521.521 0 0 1-.298-.293.427.427 0 0 1 .1-.446c.097-.11.173-.144.33-.145.11 0 .153.01.229.055.312.182.314.615.005.783a.431.431 0 0 1-.366.046zm1.086 0a.634.634 0 0 1-.287-.271c-.065-.154-.016-.366.114-.497a.508.508 0 0 1 .385-.119c.314.047.491.42.326.686-.107.174-.357.267-.538.2zm-11.57-1.078c-.266-.068-.457-.271-.577-.615-.122-.35-.12-.333-.106-1.287.007-.482.018-.93.025-.996l.011-.118h.795l.013.17c.007.093.013.526.014.961 0 .894-.001.888.15.975l.087.05 1.042.005c1.225.006 1.211.007 1.3-.17l.051-.103.007-.944.007-.944h.857l.013.2c.023.347.111.46.369.475.196.012.311-.042.388-.18.045-.082.051-.117.051-.304v-.212h.872l.01.232c.014.373.1.47.416.47.26 0 .384-.17.387-.532v-.17l.396.005.395.006.007.365c.007.402-.01.539-.091.72-.096.214-.345.408-.638.5a1.73 1.73 0 0 1-.633.056 2.205 2.205 0 0 1-.53-.16l-.17-.072-.16.074a1.103 1.103 0 0 1-.527.116c-.124 0-.22-.017-.56-.096-.04-.009-.04.001-.042.39-.001.31-.01.427-.038.53-.102.377-.282.55-.62.6-.232.033-2.843.037-2.97.004zm9.552-.058-.154-.03a.897.897 0 0 1-.613-.48l-.079-.148-.006-1.15-.006-1.15h.91v.845c0 .802.002.85.042.958a.46.46 0 0 0 .105.166l.062.053h1.583l.058-.05.058-.05.006-.497.006-.497H24l-.006.645-.006.645-.06.144c-.11.266-.24.416-.487.565-.07.043-.087.044-1.186.041a43.6 43.6 0 0 1-1.155-.01zm-3.405-.055a5.563 5.563 0 0 1-.005-.47l.006-.442.52-.006.521-.006.072-.072c.128-.128.135-.185.135-1.087v-.801l.449.006.449.006.005 1c.003.606-.003 1.045-.016 1.114a.913.913 0 0 1-.261.474 1.624 1.624 0 0 1-.321.205l-.212.106h-.666c-.521 0-.669-.006-.677-.027zm-15.134-.488v-.476h.486c.52 0 .574-.009.663-.105.079-.086.088-.199.089-1.045v-.81h.888V12.3l2.226-.006c2.226-.006 2.227-.006 2.286-.049.066-.049.083-.116.047-.184-.025-.047-.084-.082-.195-.116-.036-.01-.876-.018-2.005-.017-1.561 0-1.944-.004-1.952-.025a5.14 5.14 0 0 1 0-.424l.01-.397h1.943c1.838 0 1.95.002 2.096.04.455.115.736.314.885.625.099.207.117.327.078.518-.088.42-.34.67-.88.868l-.175.064-2.163.01-2.162.01-.047.134c-.115.326-.241.502-.42.584-.095.044-.123.046-.898.052l-.8.006v-.476zM.006 13.5l.006-.428.505-.01c.356-.007.52-.018.552-.037.095-.054.108-.12.108-.526 0-.209.006-.618.014-.91l.014-.529h.836l.002 1.058c.001.604-.007 1.127-.019 1.22-.027.21-.083.307-.273.466l-.148.124H.001zm4.093-2.935c-.19-.074-.28-.209-.28-.418-.003-.404.489-.604.775-.317a.452.452 0 0 1-.175.745.397.397 0 0 1-.32-.01zm1.143.028c-.197-.077-.287-.17-.333-.342a.456.456 0 0 1 .21-.5c.11-.064.35-.06.473.01a.424.424 0 0 1 .216.378.335.335 0 0 1-.061.23.475.475 0 0 1-.367.23.525.525 0 0 1-.138-.006zm1.021-.628a4.804 4.804 0 0 1-.113-.087 9.503 9.503 0 0 0-.163-.123A84.021 84.021 0 0 0 4.654 8.72a2.672 2.672 0 0 0-.21-.15.069.069 0 0 1-.034-.035c-.008-.02.015-.022.096-.01.12.017.972.194 1.09.225.08.022.082.022.584.122.182.036.384.08.45.096.144.037.435.089.445.08.01-.009-.068-.12-.134-.195a88.873 88.873 0 0 1-.503-.596l-.392-.466-.32-.383a5.333 5.333 0 0 0-.337-.4c-.024-.022-.044-.052-.044-.067 0-.034.066-.009.567.22.204.093.441.2.526.237.085.037.225.1.31.14.085.04.303.14.485.222.181.081.393.18.47.218.157.08.168.07.085-.087-.073-.136-.266-.509-.803-1.545A73.015 73.015 0 0 0 6.7 5.8a2.66 2.66 0 0 1-.115-.233c0-.01.043.013.097.05.122.083 1.78 1.326 1.972 1.479A.81.81 0 0 0 8.8 7.2c.015-.016-.049-.276-.228-.926a85.012 85.012 0 0 1-.31-1.176 9.636 9.636 0 0 0-.106-.387.597.597 0 0 1-.04-.185c.008-.007.053.033.101.088l.191.215a27.728 27.728 0 0 0 .843.981c.021.023.125.148.231.279.106.13.252.301.324.38l.131.143-.006-.133-.079-2.01a18.9 18.9 0 0 0-.024-.472c-.014-.2.003-.218.073-.079.126.254.23.453.336.64.067.117.12.218.12.224 0 .006.055.109.122.23.066.121.166.309.22.417.143.278.423.782.443.794.021.013 0 .129.27-1.393.125-.709.232-1.293.236-1.297.005-.005.013.005.018.02.04.116.104.366.165.637.076.338.148.644.28 1.187l.125.526c.057.249.063.273.073.264a4.02 4.02 0 0 0 .082-.265c.041-.141.12-.396.174-.566.055-.17.134-.421.175-.557.042-.137.088-.285.104-.33.034-.1.154-.494.218-.718a.557.557 0 0 1 .06-.16c.016 0 .02.026.072.547.017.17.04.407.053.526l.092.926c.038.39.073.712.078.717.013.012.168-.215.48-.704.455-.712.492-.77.618-.97.068-.106.184-.292.258-.41.074-.12.143-.218.153-.218.01 0 .012.052.005.118l-.035.314c-.011.108-.039.317-.06.465-.022.147-.05.388-.062.535a3.304 3.304 0 0 1-.03.279c-.005.007-.033.224-.063.482s-.06.484-.066.502c-.008.02-.003.03.01.025.013-.004.46-.443.994-.976.533-.532.974-.964.98-.958.011.012-.16.547-.225.698-.07.163-.115.289-.27.744a94.135 94.135 0 0 1-.395 1.14c-.014.042.133-.04.564-.318.147-.095.474-.303.725-.461.252-.16.59-.375.752-.48.162-.104.297-.181.3-.171a.628.628 0 0 1-.08.159c-.218.357-.29.473-.707 1.142-.244.391-.487.78-.54.862a.603.603 0 0 0-.086.162c.006.006.13-.033.275-.086.146-.054.353-.128.461-.165.108-.037.48-.172.826-.3a83.51 83.51 0 0 1 .995-.36c.082-.033.023.043-.227.296-.33.334-1.025 1.042-1.375 1.401a3.09 3.09 0 0 0-.258.282c.005.004.11-.005.235-.021.415-.052.865-.112 1.001-.132.074-.01.292-.038.485-.061.193-.024.473-.062.622-.085.15-.023.301-.04.338-.036.062.006.054.015-.169.164-.129.087-.448.295-.709.463a16.14 16.14 0 0 0-.55.363l-.075.059-6.083-.001-6.084-.001z"/></svg>