<svg role="img" viewBox="0 0 24 24" xmlns="http://www.w3.org/2000/svg"><path d="M20.083 16.78a.579.579 0 0 1-.34-.322c-.035-.075-.04-.106-.04-.23 0-.128.005-.152.042-.223.108-.205.345-.323.607-.302.188.015.411.16.484.316l.033.071.026-.055a.552.552 0 0 1 .2-.223c.256-.17.543-.142.772.074a.822.822 0 0 1 .125.152c.036.063.045.07.053.046a.513.513 0 0 1 .286-.326c.302-.142.697-.01.84.282.044.09.047.106.04.21a.638.638 0 0 1-.36.508.443.443 0 0 1-.24.056.486.486 0 0 1-.235-.028c-.159-.058-.324-.26-.324-.395 0-.05-.023-.028-.067.067a.725.725 0 0 1-.306.31.491.491 0 0 1-.228.047c-.13.005-.146.002-.237-.04a.621.621 0 0 1-.304-.298c-.028-.058-.05-.093-.051-.077-.001.052-.096.208-.166.27a.827.827 0 0 1-.16.104c-.078.038-.107.043-.226.043a.504.504 0 0 1-.224-.037zm-5.16-2.285v-.691l-.058.128a2.069 2.069 0 0 1-.753.886c-.327.204-.737.302-1.206.29l-.166-.006-.004-.617-.004-.618-.104.157a2.602 2.602 0 0 1-.855.819c-.334.19-.705.275-1.17.264l-.204-.005-.008-.654-.008-.653-.067.114a3.07 3.07 0 0 1-.673.77 2.079 2.079 0 0 1-.823.388l-.159.035H5.55l-.004-2.39-.004-2.39h1.646v3.126h1.555l.004-.706.004-.706.078-.005.077-.005.246.193c.135.106.473.379.75.606l.503.412v.21h.268c.24 0 .274-.003.317-.03.105-.064.102-.042.107-.751l.004-.639h.147l.745.602.745.601.004.108.004.109h.246c.233 0 .25-.002.323-.038.128-.064.125-.046.125-.761v-.62h.15l.673.605.672.606v.283h1.707v-.502c0-.494-.001-.504-.038-.607-.061-.173-.156-.29-.287-.349a3.38 3.38 0 0 0-.398-.021l-.367-.008.934-.522c1.056-.589.949-.547 1.19-.466.392.13.634.393.738.797.033.13.033.132.033 1.731v1.601l-1.764.004-1.763.004v-.69zm-13.516.598c-.67-.077-1.159-.458-1.33-1.038C.005 13.818 0 13.721 0 12.78v-.887h1.645l.005.625.005.624.053.104a.374.374 0 0 0 .118.15l.065.045.618.004.618.004v-1.556H4.85v3.217l-1.665-.002a70.737 70.737 0 0 1-1.776-.015zm17.589.007c-.006-.006-.01-1.031-.01-2.28v-2.27h1.812v2.972l.653.005c.36.003.68 0 .711-.008a.26.26 0 0 0 .175-.168c.01-.04.017-.276.017-.69v-.631H24v.663c0 .595-.003.677-.03.804-.093.454-.286.842-.557 1.12a1.564 1.564 0 0 1-1.014.478c-.16.017-3.387.022-3.403.005zm-3.983-3.21v-.23l2.608-1.519 2.697-1.568.088-.05-.004.268-.004.267-2.666 1.517-2.692 1.53c-.025.015-.026 0-.026-.215zm-12.796-.478a.642.642 0 0 1-.377-.306c-.029-.055-.035-.089-.035-.202 0-.117.006-.148.042-.226a.639.639 0 0 1 .304-.297c.101-.048.116-.05.273-.05.152 0 .173.003.245.04.113.06.174.12.227.22a.637.637 0 0 1 .076.356.481.481 0 0 1-.14.326c-.109.116-.208.158-.385.163a.617.617 0 0 1-.23-.024zm12.8-.2.004-.23 2.68-1.56c1.475-.859 2.687-1.56 2.693-1.561.006 0 .011.117.01.26v.26l-2.682 1.526c-1.475.84-2.689 1.528-2.696 1.53-.008.004-.012-.093-.01-.225zm-.003-.666v-.232l2.682-1.563c1.475-.86 2.689-1.565 2.696-1.568.008-.003.013.102.01.264l-.004.269-.256.145c-.824.467-5.038 2.862-5.08 2.887l-.048.03z"/></svg>