<svg role="img" viewBox="0 0 24 24" xmlns="http://www.w3.org/2000/svg"><path d="M12.302 18.827c-.67-.085-1.121-.215-1.66-.477-.997-.486-1.772-1.276-2.356-2.401-.149-.286-.268-.55-.255-.563a.586.586 0 0 1 .153.112 6.4 6.4 0 0 0 .416.344c.169.13.403.295.475.335.025.013.06.037.079.053.019.015.189.108.379.205.482.248.906.396 1.48.516.189.04.748.097.943.096.386-.002 1.028-.095 1.493-.217.233-.061.72-.227.872-.296.065-.03.187-.083.27-.118.528-.221 1.438-.79 2.02-1.263l.171-.136c.45-.35 1.58-1.488 1.922-1.935a1.98 1.98 0 0 1 .096-.12c.052-.044.318-.412.54-.746l.156-.233h2.258c1.87 0 2.256.006 2.246.032-.033.086-.506.725-.745 1.006-.465.548-.874.973-1.458 1.515-.653.606-1.087.982-1.48 1.281l-.266.203c-.077.06-.163.124-.192.144l-.401.282c-.314.221-.837.564-1.029.674a18.729 18.729 0 0 1-1.598.835 11.504 11.504 0 0 1-2.069.7 7.47 7.47 0 0 1-1.112.184 8.879 8.879 0 0 1-1.348-.012zm-1.087-2.546a8.01 8.01 0 0 1-1.003-.214 6.85 6.85 0 0 1-1.183-.47 7.624 7.624 0 0 1-1.003-.587 48.42 48.42 0 0 0-.193-.144 6.798 6.798 0 0 1-.916-.79c-.578-.578-1.077-1.263-1.39-1.909l-.068-.138.137-.271c.59-1.163 1.596-2.222 2.821-2.973.278-.17.876-.473 1.138-.577a8.03 8.03 0 0 1 1.17-.357c.328-.083.577-.106 1.171-.107.69 0 .833.016 1.529.183.907.216 2.046.774 2.834 1.387l.24.184c.224.17 1.007.972 1.202 1.23.256.34.492.707.656 1.023l.143.274-.058.116a6.95 6.95 0 0 1-.911 1.383c-.171.205-.81.839-1.025 1.015a8.432 8.432 0 0 1-2.221 1.302l-.347.132a7.435 7.435 0 0 1-1.352.31c-.187.029-1.2.028-1.37-.002zm1.258-.665a3.54 3.54 0 0 0 1.441-.546 3.645 3.645 0 0 0 1.467-1.909c.144-.432.179-.664.178-1.166 0-.405-.008-.483-.065-.728a4.165 4.165 0 0 0-.296-.872 5.198 5.198 0 0 0-.34-.561 4.281 4.281 0 0 1-.135-.168c-.433-.548-1.218-1.046-1.902-1.204a3.55 3.55 0 0 0-1.75.009c-.333.08-.78.285-1.133.522a5.059 5.059 0 0 0-.862.828c-.26.356-.507.872-.608 1.267-.138.54-.144 1.262-.015 1.767l.046.18c.049.186.227.6.347.801.194.329.31.476.612.775.597.59 1.198.88 2.151 1.035.17.027.609.012.864-.03zm-1.029-.422c-1.242-.208-2.237-1.21-2.525-2.542-.066-.305-.06-.975.01-1.307a3.077 3.077 0 0 1 .847-1.575 3.162 3.162 0 0 1 1.685-.93 3.323 3.323 0 0 1 1.486.11c.946.317 1.747 1.107 2.04 2.014.117.358.191.975.164 1.348l-.013.173h-2.41c-2.278 0-2.409.002-2.408.042 0 .093.097.407.17.554.12.24.39.5.644.621.306.146.46.179.834.179.375 0 .535-.034.824-.176.211-.104.416-.274.55-.456l.087-.119h.75c.634 0 .75.005.75.034 0 .068-.286.605-.43.807-.184.26-.557.624-.802.784-.352.23-.726.374-1.14.441-.273.045-.84.043-1.113-.002zm2.162-3.921a2.376 2.376 0 0 0-.126-.292 1.263 1.263 0 0 0-.292-.408c-.313-.312-.683-.453-1.195-.453-.33 0-.486.035-.766.171-.165.08-.243.14-.42.317-.182.18-.235.251-.314.42a2.334 2.334 0 0 0-.109.257l-.012.053h3.249zM0 11.993c0-.014.37-.54.497-.705.302-.395.707-.836 1.334-1.455.763-.753 1.114-1.068 1.685-1.515.083-.065.156-.125.163-.133.014-.017.645-.489.764-.57.85-.588 1.527-.993 2.27-1.357a11.479 11.479 0 0 1 1.564-.651c.026-.012.145-.05.263-.085.118-.036.247-.074.286-.087.152-.046.773-.184.944-.208l.382-.056c.274-.04 1.432-.04 1.672 0 .264.046.429.077.55.105.147.035.627.188.657.21.013.01.05.026.081.036.183.056.626.297.898.488a5.47 5.47 0 0 1 1.305 1.34c.214.308.666 1.15.666 1.24 0 .04-.047.008-.2-.135a7.917 7.917 0 0 0-.814-.623c-.356-.233-1.03-.55-1.387-.651a4.738 4.738 0 0 0-1.52-.213c-.575 0-.91.043-1.478.187-.576.146-1.398.491-1.869.784a.616.616 0 0 1-.1.055c-.037 0-.857.558-1.065.724l-.143.112c-.598.464-1.419 1.264-1.986 1.935-.198.236-.619.798-.771 1.033l-.136.21H2.256A89.174 89.174 0 0 1 0 11.992z"/></svg>