<svg viewBox="0 0 24 24" xmlns="http://www.w3.org/2000/svg" role="img"><path d="M13.512.052C19.412.8 24 5.857 24 11.952c0 6.607-5.39 11.996-12 11.996S0 18.559 0 11.952C0 10.235.364 8.6 1.02 7.12l.62.798.036.044s.118.14.258.26a1.461 1.461 0 0 0 .676.34c.407.08.823.075 1.125.06.24-.01.41-.023.41-.023 1.569-.074 2.169.633 2.576 1.114.374.44 4.034 5.313 4.034 5.313l1.82-1.82s-1.529-1.948-2.206-2.82c-.758-.976-1.307-1.677-1.642-1.96-.731-.616-2.35-.69-2.72-.753 0 0-1.366-.167-2.18-1.003-.193-.196-.326-.37-.326-.37l-1.17-1.437c.3-.407.625-.795.972-1.16l1.262 1.625c.247.314.381.496.63.744.634.632 1.529.718 1.529.718 1.867.336 2.887.424 3.48 1.11.71.822.847 1.01 1.44 1.775.219.282 1.935 2.525 1.935 2.525l1.763-1.766s-1.128-1.454-1.784-2.315c-.32-.422-.829-1.08-1.204-1.35-.772-.552-1.46-.47-2.16-.545-.602-.064-1.157-.076-1.88-.42 0 0-.311-.07-.956-.899s-.826-1.069-.826-1.069L5.15 2.113c.408-.284.833-.544 1.275-.777l1.362 1.767.68.887c.981 1.251 1.615 1.265 2.269 1.342 1.037.123 2.013.058 2.857.694.488.368.744.758 1.095 1.211.53.683 1.675 2.17 1.675 2.17l1.764-1.766s-1.016-1.313-1.41-1.812a2.943 2.943 0 0 0-.69-.59c-.526-.342-1.051-.447-2.4-.646-1.347-.199-1.785-.433-2.422-1.13-.305-.332-.473-.569-.678-.833L8.76.402c.55-.154 1.116-.27 1.695-.346l1.203 1.66c.403.49.763 1.126 1.788 1.583 1.233.549 2.165.42 3.009.638 0 0 .23.056.483.167.269.119.444.296.612.485.279.315.523.622.58.695l1.046 1.304 1.744-1.745-.722-.918c-.198-.25-.284-.34-.45-.441a1.742 1.742 0 0 0-.518-.212c-.253-.06-.6-.103-1.196-.127-1.573-.063-2.154-.188-3.154-1.385l-.743-.9z"/></svg>