<svg role="img" viewBox="0 0 24 24" xmlns="http://www.w3.org/2000/svg"><path d="M12.733 14.47c-.398-.062-.89-.275-1.446-.625a9.294 9.294 0 0 1-1.491-1.185l-.149-.15-.04.098c-.146.35-.22.632-.22.843a.55.55 0 0 0 .026.227c.046.152.15.24.31.263.149.02.357-.042.594-.18a.236.236 0 0 1 .07-.032c.01.004-.17.167-.297.267-.18.144-.456.303-.606.35a.71.71 0 0 1-.236.042c-.216 0-.345-.103-.403-.322a1.374 1.374 0 0 1 0-.406c.038-.24.161-.611.303-.914.076-.161.193-.388.243-.47a.107.107 0 0 0 .017-.037c0-.006-.075-.098-.166-.205a3.216 3.216 0 0 1-.18-.222c-.014-.03-.01-.056.01-.056.01 0 .089.071.181.16.21.198.229.213.234.197.011-.033.241-.361.366-.522.173-.222.461-.555.664-.769l.035-.037-.115-.07c-.436-.27-.817-.449-1.118-.525a1.219 1.219 0 0 0-.41-.04c-.188.026-.329.111-.388.235-.066.138-.066.275 0 .488.027.088.1.23.169.338.044.068.062.117.043.117-.034 0-.163-.179-.323-.447-.254-.425-.379-.788-.348-1.013a.34.34 0 0 1 .208-.287.588.588 0 0 1 .314-.059c.48.005 1.228.347 2.027.926l.15.107c.01.006.048-.027.155-.13.264-.258.498-.454.59-.498.055-.026.08-.033.08-.022 0 .003-.085.098-.19.212-.196.214-.483.538-.486.549a.163.163 0 0 0 .042.04c.081.062.406.338.505.43l.225.208.126.118.065-.048c.117-.087.278-.154.443-.184.063-.012.08-.008.036.008a.497.497 0 0 0-.072.037c-.023.016-.047.025-.052.022-.01-.003-.01 0-.01.01s0 .011-.017.004c-.027-.014-.034-.011-.04.02 0 .026-.011.031-.043.04-.05.013-.07 0-.043-.029.04-.043 0-.043-.04 0-.04.04-.04.05 0 .05.026 0 .022.003-.041.035-.057.03-.08.036-.121.036-.042 0-.057.004-.086.025a.4.4 0 0 0-.102.115c0 .005-.01.02-.018.032a.333.333 0 0 0-.036.075c-.036.107-.071.144-.071.075 0-.026.01-.049.049-.104a.253.253 0 0 0 .044-.077 13.753 13.753 0 0 0-.866-.66l-.074-.051-.065.077c-.337.4-.676.906-.88 1.31l-.035.072.107.088a8.99 8.99 0 0 0 1.68 1.068c.525.25.967.357 1.214.296a.45.45 0 0 0 .171-.092c.057-.055.083-.121.088-.224 0-.087-.013-.203-.029-.199l-.11.037a.971.971 0 0 1-.37.057 1.034 1.034 0 0 1-.679-.245 1.086 1.086 0 0 1-.383-.715v-.064l.015.048c.016.05.048.084.07.076.021-.008.063.038.07.076a.29.29 0 0 0 .027.081.454.454 0 0 1 .03.109c.01.04.018.08.04.124.065.127.086.151.134.151.033 0 .079-.073.072-.113 0-.025 0-.03.027-.047.036-.023.037-.033.017-.11a.187.187 0 0 1-.01-.073.43.43 0 0 1 .072-.094.468.468 0 0 0 .08-.114c.015-.044.013-.044-.056-.028-.04.009-.054.004-.058-.021 0-.007-.015-.028-.031-.046a.586.586 0 0 1-.103-.213c-.01-.023 0-.024.01-.016.02.011.126.213.126.242 0 .023.012.02.103-.023.06-.028.138-.094.138-.116 0-.005-.013-.022-.029-.038l-.029-.028-.022.017a.102.102 0 0 1-.029.018.384.384 0 0 1-.078-.107c0-.015.032-.01.048.008.028.031.1.055.181.061.075.005.078.006.12.044a.196.196 0 0 0 .056.039c.01 0 .018.023.027.051.01.028.03.079.048.112.025.05.033.06.043.05.013-.01.03-.063.03-.094 0-.03.112-.135.15-.142.034-.006.043 0 .075.066.016.033.022.038.04.033.027-.007.03.001.04.074a.31.31 0 0 0 .035.117.22.22 0 0 1 .023.061.154.154 0 0 1-.044-.024c-.022-.016-.041-.026-.041-.023 0 .011.089.135.115.16.03.028.08.04.18.039.06 0 .048-.003-.07-.017l-.093-.01.01-.027c0-.017 0-.031-.01-.041-.01-.008-.015-.032-.018-.052a.192.192 0 0 0-.037-.084c-.023-.034-.032-.058-.032-.082 0-.043.013-.043.061 0l.038.032.027-.026c.032-.03.03-.052-.01-.102-.037-.047-.032-.089.011-.089.012 0 .016.007.016.027 0 .016 0 .025.01.022 0-.003.01-.015.01-.026 0-.015.01-.024.037-.037a.145.145 0 0 0 .086-.113c0-.03 0-.048-.023-.09-.02-.04-.025-.056-.019-.068.013-.024.011-.027-.012-.027a.048.048 0 0 1-.033-.014c-.01-.012-.01-.018.017-.042l.028-.028v.024c0 .014 0 .023.01.02.017-.01.046.015.065.058.015.034.023.042.032.036.01-.007.01-.015-.01-.048-.032-.053-.03-.082 0-.111.022-.02.026-.03.026-.07 0-.026 0-.05.01-.053.023-.014-.04-.088-.096-.11-.023-.01-.028-.018-.033-.052v-.042l.06.002c.04.003.055.008.055.017 0 .018.033.08.075.14l.037.052v-.078l.037.054c.12.175.177.349.188.564.01.126-.01.233-.046.368a1.196 1.196 0 0 1-.13.277l-.018.022v-.17l-.012.028c-.01.024-.03.04-.047.04v-.032c0-.04-.014-.042-.055-.004-.016.015-.034.027-.04.027-.01 0-.03.02-.054.045a.411.411 0 0 1-.086.067.175.175 0 0 0-.055.042.454.454 0 0 0-.028.147.67.67 0 0 0 .095-.042l.092-.045.017.042.017.042-.04.034-.04.034.065.136c.237.495.26.867.064 1.048-.092.084-.207.119-.393.117a2.26 2.26 0 0 1-.148-.005zm-.687-1.541a.247.247 0 0 0 .017-.078v-.033l-.035.024c-.028.02-.036.032-.04.063-.01.05 0 .075.023.071.013-.002.023-.015.034-.047zm1.177-.197c0-.002-.01-.003-.013-.003-.01 0-.013.004-.013.009 0 .005.01.006.013.004.01-.003.013-.007.013-.01zm-.038-.042c.01.024.02.01.02-.024 0-.033 0-.036.025-.036h.024l-.022-.013c-.02-.01-.02-.013-.01-.018.024-.01.02-.022-.01-.022a.058.058 0 0 0-.04.016c-.019.021-.034.072-.027.093 0 .014.01.015.02.005.01-.009.014-.009.017 0zm.225-.003c.021-.004.027-.009.023-.02 0-.007 0-.016.01-.02.016-.01-.023-.026-.078-.034-.056-.008-.066.007-.021.03.016.009.027.022.027.032 0 .02 0 .02.044.012zm-.283-.059a.13.13 0 0 0 .017-.061c0-.013 0-.027.01-.03.01-.004.01-.01 0-.019-.01-.01-.02-.004-.066.038a.591.591 0 0 0-.057.057c0 .003 0 .017.01.03.01.019.015.023.04.023.028 0 .033-.004.051-.038zm.171.021c0-.004 0-.01-.01-.013-.01-.004-.011-.013-.01-.041 0-.03 0-.036-.01-.036s-.013.01-.013.037a.08.08 0 0 1-.016.049c-.014.01-.012.012.017.012.018 0 .035-.003.038-.008zm.184-.027v-.01s-.01.005-.01.01v.009c.01 0 .01-.004.01-.01zm-.906-.086c.026-.01.01-.075-.017-.075-.01 0-.013.01-.013.04 0 .04 0 .045.03.035zm.688-.052c.01-.033-.018-.098-.044-.12-.01-.007-.015-.025-.015-.042 0-.025 0-.03-.018-.03-.015 0-.018.006-.018.042 0 .023.01.058.016.078a.3.3 0 0 1 .022.06c.01.027.03.054.042.047 0-.003.01-.018.013-.035zm-.076-.282c0-.04-.013-.046-.028-.014-.012.026 0 .05.014.05.01 0 .014-.01.014-.036zm.141-.205l.021-.014-.015-.057a.233.233 0 0 1-.01-.083v-.024c-.01 0-.016-.012-.024-.025-.01-.013-.012-.016-.01-.007.01.027.03.123.03.14a.155.155 0 0 1-.03.052c-.019.02-.032.047-.032.06v.022l.024-.026a.318.318 0 0 1 .046-.039zM.32 13.969c-.214-.005-.24-.013-.29-.082-.025-.035-.027-.042-.027-.119 0-.077 0-.085.026-.118.039-.054.094-.077.195-.081l.082-.004v-1.726l-.1-.01c-.113-.012-.136-.022-.176-.081-.026-.039-.028-.047-.028-.117 0-.043.01-.084.011-.094A.21.21 0 0 1 .1 11.45c.038-.02.047-.02.314-.024l.274-.003v.162s.034-.021.071-.048a.814.814 0 0 1 .417-.157.905.905 0 0 1 .921.51.777.777 0 0 1 .072.382c0 .176-.015.255-.067.359a.87.87 0 0 1-.566.458c-.109.032-.301.04-.426.018a1.052 1.052 0 0 1-.349-.142l-.077-.05v.649l.168.003c.192.004.218.011.265.078.025.035.027.044.027.116 0 .071 0 .082-.027.121a.159.159 0 0 1-.067.064c-.038.018-.053.02-.294.023-.14.002-.339 0-.442-.001zm1.097-1.273a.521.521 0 0 0 .358-.31.517.517 0 0 0 0-.266c-.07-.206-.24-.32-.496-.334-.356-.02-.626.233-.573.538.036.208.203.353.446.387.07.01.2.003.269-.015zm1.624.523a.74.74 0 0 1-.492-.289c-.069-.102-.083-.296-.03-.437.057-.152.25-.332.433-.404.126-.05.243-.068.441-.068.15 0 .288.01.364.026.019.004.02.002.02-.062 0-.074-.017-.11-.07-.146-.06-.04-.12-.051-.274-.05-.148 0-.23.011-.437.061-.146.036-.225.025-.282-.037a.23.23 0 0 1-.033-.231c.025-.055.058-.077.16-.11.202-.066.372-.094.57-.094.387 0 .618.12.726.377l.028.068v.932h.047c.067 0 .148.017.182.038.016.01.04.036.053.059.02.036.024.051.024.11 0 .06 0 .073-.027.11a.171.171 0 0 1-.071.066c-.044.023-.045.023-.318.026l-.273.003-.01-.02c0-.012-.01-.03-.01-.041 0-.019 0-.019-.078.012-.212.086-.482.128-.658.101zm.317-.423a1.23 1.23 0 0 0 .39-.155l.038-.024v-.09c0-.08 0-.092-.016-.096a1.96 1.96 0 0 0-.368-.036.63.63 0 0 0-.208.02c-.174.05-.287.142-.298.246 0 .036 0 .042.033.076.082.082.225.102.429.06zm4.21.423a1.421 1.421 0 0 1-.295-.066l-.086-.03-.052.018c-.094.032-.186.01-.231-.058-.035-.052-.042-.099-.038-.276 0-.142.01-.168.022-.204.033-.07.093-.106.182-.106.075 0 .136.042.165.111.034.084.094.127.239.176a.57.57 0 0 0 .207.031c.229.008.416-.048.464-.14.015-.03 0-.065-.041-.103-.058-.053-.131-.073-.396-.111a2.164 2.164 0 0 1-.393-.077.594.594 0 0 1-.258-.15.299.299 0 0 1-.088-.13.493.493 0 0 1 .017-.39c.067-.135.244-.256.455-.31.187-.047.494-.03.683.04l.069.025.024-.034c.067-.097.203-.075.259.042.022.045.032.219.022.354-.01.096-.011.11-.033.143a.185.185 0 0 1-.153.077c-.064 0-.102-.02-.147-.075-.07-.085-.108-.116-.172-.141a.771.771 0 0 0-.46-.025c-.167.04-.214.105-.123.166.046.03.115.047.394.093.447.073.618.16.72.368a.47.47 0 0 1 .052.26.408.408 0 0 1-.13.284.857.857 0 0 1-.488.229 2.129 2.129 0 0 1-.388.009zm15.359 0a.966.966 0 0 1-.648-.308.837.837 0 0 1-.22-.544.885.885 0 0 1 .238-.684.962.962 0 0 1 .732-.304c.226 0 .42.054.58.163a.97.97 0 0 1 .358.477c.029.08.029.082.033.275v.194h-.76c-.417 0-.758.003-.758.007a.541.541 0 0 0 .317.283c.189.064.42.05.807-.046.239-.06.297-.052.367.044.024.033.026.042.026.115v.08l-.04.043c-.045.048-.102.077-.22.11a2.596 2.596 0 0 1-.815.096zm.646-1.109a.525.525 0 0 0-.105-.16.597.597 0 0 0-.23-.137.48.48 0 0 0-.195-.025.63.63 0 0 0-.183.016.537.537 0 0 0-.367.313c0 .003.243.005.54.005.439 0 .54-.002.54-.012zM4.894 13.157c-.082-.017-.13-.059-.151-.133a.23.23 0 0 1 .013-.168c.042-.08.08-.094.284-.099l.163-.004v-.914l-.114-.006c-.145-.008-.154-.01-.199-.049a.195.195 0 0 1-.07-.155c-.001-.1.04-.158.131-.186.052-.016.083-.017.346-.017h.289v.24l.098-.071c.138-.099.228-.15.316-.182a.416.416 0 0 1 .188-.027c.094 0 .12.003.174.02.137.048.285.17.306.255.03.114-.01.2-.1.243a.197.197 0 0 1-.143.013.626.626 0 0 1-.088-.057c-.113-.083-.154-.09-.258-.04a1.68 1.68 0 0 0-.35.244l-.148.12v.571h.287c.322 0 .373.006.42.05.081.077.084.23.01.304a.254.254 0 0 1-.058.036c-.033.015-.08.016-.673.018-.351 0-.655-.002-.675-.006zm9.15 0c-.12-.022-.184-.117-.16-.241.019-.103.073-.145.198-.157l.07-.006v-.915l-.025-.005-.058-.01a.201.201 0 0 1-.128-.09.225.225 0 0 1-.017-.102c0-.06 0-.073.027-.111.02-.03.04-.05.07-.066.04-.02.05-.022.278-.026l.236-.004v.171l.067-.053a.611.611 0 0 1 .364-.16c.298-.033.57.101.678.334.066.142.067.15.07.618v.42l.044.006c.062.01.134.047.154.083a.33.33 0 0 1 .015.187.181.181 0 0 1-.1.115c-.033.014-.072.016-.27.02-.29.003-.351-.007-.418-.069-.048-.044-.059-.167-.023-.24.017-.034.03-.047.07-.067a.358.358 0 0 1 .091-.03l.044-.006v-.389c0-.386 0-.39-.023-.431-.05-.103-.137-.145-.3-.145-.163 0-.24.036-.388.18l-.081.078v.707l.063.006c.148.014.21.082.203.219 0 .052-.01.069-.03.1a.24.24 0 0 1-.067.061l-.04.022-.29.002a4.67 4.67 0 0 1-.33-.005zm2.115 0a.191.191 0 0 1-.154-.194c0-.06.02-.111.053-.148.05-.052.061-.054.37-.058l.283-.003V11.1l-.204-.005c-.194-.004-.206-.006-.243-.026a.225.225 0 0 1-.065-.06c-.05-.072-.04-.205.02-.262.057-.056.06-.056.486-.059l.39-.003v2.069l.28.003c.27.003.28.004.32.024.096.047.134.169.084.274a.151.151 0 0 1-.091.091c-.033.015-.085.016-.762.017-.4.001-.746-.002-.768-.007zm2.115 0a.171.171 0 0 1-.118-.076c-.06-.092-.04-.233.04-.288.046-.031.109-.037.377-.037h.253v-.459c0-.405 0-.459-.014-.464a.447.447 0 0 0-.09 0 1.986 1.986 0 0 1-.2-.003c-.113-.007-.125-.01-.158-.033-.115-.08-.108-.283.011-.344l.044-.022.395-.003.395-.003v1.328l.28.003c.276.003.278.003.323.026.03.014.053.035.07.062.024.035.027.047.027.111 0 .103-.03.155-.107.19-.033.015-.085.016-.762.017-.4.001-.745-.002-.766-.006zm1.883-.001c-.062-.01-.095-.03-.127-.078-.066-.1-.036-.245.063-.293a.345.345 0 0 1 .105-.026l.065-.006v-.915l-.05-.01c-.132-.028-.179-.088-.17-.22 0-.071.017-.097.063-.132.054-.041.114-.05.343-.05h.207v.17l.071-.056c.14-.11.21-.142.355-.158a.734.734 0 0 1 .535.141.597.597 0 0 1 .203.351c.012.057.014.14.014.474v.405l.046.006c.095.013.15.051.174.124.034.102 0 .211-.09.256l-.044.022h-.264c-.236 0-.268-.002-.308-.016-.107-.04-.152-.138-.117-.254.024-.08.073-.115.182-.132l.038-.006v-.385c0-.374 0-.386-.022-.426a.29.29 0 0 0-.121-.127.57.57 0 0 0-.217-.03c-.14.012-.23.06-.357.185l-.075.075v.706l.077.01c.133.019.185.074.186.195 0 .124-.057.189-.18.201-.092.01-.52.008-.581-.002zm-8.744-.945c0-.036.03-.185.06-.272.032-.094.033-.096.036-.06 0 .027 0 .05-.019.08a.444.444 0 0 0-.033.104c-.012.066-.042.17-.043.148zm.185-.103c-.024-.016-.034-.028-.034-.045 0-.024-.01-.025-.06-.006-.012.005-.014.002-.01-.02.01-.036.043-.094.062-.105.013-.008.02-.004.042.021.03.036.036.024.01-.022-.021-.035-.02-.037.019-.018.015.008.026.021.026.03 0 .009 0 .03.01.045.01.022.012.026.022.018.01-.007.01-.015 0-.027-.01-.013-.01-.019.01-.023.017-.007.03.01.03.04 0 .022.018.025.077.01a.143.143 0 0 1 .038-.005s0 .023-.01.048c-.01.042-.013.047-.04.052a.277.277 0 0 1-.112-.011c-.011-.003-.018.002-.024.018-.01.028-.014.028-.056 0zm.416-.134c-.01-.002-.01-.018-.01-.035 0-.02 0-.037-.01-.047a.1.1 0 0 1-.023-.04c-.01-.02-.01-.026.014-.042.024-.02.063-.032.071-.024 0 .003 0 .015-.01.027-.014.021-.013.025.013.085a.46.46 0 0 1 .027.072c0 .009-.057.012-.076.004zm-.262-.068c0-.004.01-.02.014-.035.01-.02.017-.025.024-.018.01.005.023.01.038.01.026 0 .076.03.066.039a.454.454 0 0 1-.143.005zm-.06-.224c.019-.037.029-.05.03-.039 0 .01-.01.032-.02.052-.036.052-.04.049-.01-.013zm.149-.157c0-.01.036-.036.05-.036.019 0 .015.025-.01.035-.021.012-.044.012-.044.001zm.803-.282c-.11-.016-.121-.023-.027-.017.076.005.194.03.138.029-.015 0-.065-.006-.11-.012zm6.063-.18c0-.033-.01-.13-.01-.214v-.154h.455v.428h-.444z"/></svg>