<svg viewBox="0 0 24 24" xmlns="http://www.w3.org/2000/svg" role="img"><path d="M2.163 17.962c-.019-.019-.034-.278-.034-.577 0-.604 0-.602.34-.602.21 0 .438.074.493.16a.62.62 0 0 1 .037.236c.001.225-.133.33-.418.33h-.205l-.014.23c-.01.16-.038.233-.09.243-.041.008-.09-.001-.109-.02zm.587-.786c.02-.135-.059-.198-.246-.199-.12 0-.133.016-.133.172 0 .17.003.172.181.157.15-.012.185-.035.198-.13zm.75.74c-.028-.073.285-.946.386-1.075.027-.034.093-.056.146-.048.073.01.15.142.312.533.119.286.203.552.187.593-.046.12-.16.084-.225-.071-.055-.134-.08-.146-.294-.146-.212 0-.243.014-.31.146-.083.16-.157.185-.202.068zm.634-.516c-.065-.207-.12-.34-.136-.321-.008.01-.05.111-.095.224l-.08.206h.173c.156 0 .169-.01.138-.109zm1.075.486c-.05-.182-.036-.908.019-1.01.086-.16.767-.109.88.067.099.157.008.42-.168.482-.043.016-.032.055.042.138.14.157.222.325.187.382-.062.1-.17.039-.32-.182-.179-.262-.23-.307-.333-.29-.049.008-.08.09-.097.254-.026.266-.156.364-.21.16zm.6-.62c.114-.061.124-.22.018-.26a.887.887 0 0 0-.242-.03c-.15 0-.166.014-.166.138 0 .075.015.151.033.169.048.049.252.039.358-.018zm1.222.68c-.192-.082-.287-.389-.12-.389.05 0 .115.056.146.124.048.106.083.122.238.109.157-.013.18-.031.18-.136 0-.102-.036-.132-.235-.196-.234-.074-.417-.235-.417-.368 0-.134.228-.307.406-.307.302 0 .538.181.44.338-.038.063-.169.064-.169.002 0-.026-.053-.082-.118-.124-.091-.06-.14-.065-.217-.024-.168.09-.115.183.154.27.317.104.423.194.423.363 0 .21-.142.344-.39.365a.849.849 0 0 1-.32-.026zm2.29-.027c-.056-.146-.034-1.016.027-1.078.113-.113.189-.054.44.341l.252.4.025-.388c.021-.346.034-.387.12-.387.09 0 .098.037.111.484.008.266.002.533-.013.593-.053.213-.196.125-.466-.288l-.26-.397-.025.384c-.019.304-.04.388-.102.4a.103.103 0 0 1-.11-.064zm1.772.042c-.044-.018-.06-.18-.06-.576 0-.639-.02-.618.533-.592.252.011.315.03.328.099.014.074-.025.085-.302.085h-.318v.29h.294c.254 0 .292.012.278.085-.013.066-.075.087-.294.099l-.278.014v.334h.307c.331 0 .4.028.316.129-.053.064-.666.089-.804.033zm1.64-.123c-.148-.464-.251-.975-.207-1.02.098-.098.186.012.248.311.094.461.12.47.224.085.157-.578.336-.574.48.011.094.386.13.371.218-.092.034-.18.087-.32.128-.336.158-.06.164.07.026.62-.129.513-.146.552-.255.552-.106 0-.128-.04-.236-.434-.065-.239-.125-.413-.134-.387l-.126.433c-.09.315-.13.39-.213.402-.08.012-.114-.021-.153-.145zm2.016.083c-.134-.076-.213-.23-.16-.315.053-.087.152-.052.21.075.048.106.083.122.238.109.157-.013.18-.031.18-.136 0-.101-.036-.133-.223-.194-.3-.097-.381-.175-.381-.362 0-.199.088-.272.362-.303.267-.03.46.077.46.255 0 .143-.111.16-.202.03-.09-.127-.246-.164-.355-.085-.125.092-.042.188.23.269a.958.958 0 0 1 .291.136c.115.102.11.362-.01.47-.128.116-.475.144-.64.051zm2.544-.244c-.077-.033-.44-.364-.805-.735-.588-.596-.665-.694-.665-.837 0-.143.08-.242.713-.88.393-.397.763-.733.824-.748.188-.047.364.068.859.565l.48.481.538-.531c.428-.422.566-.532.674-.532.108 0 .248.111.685.542l.55.542.548-.542c.443-.436.576-.542.688-.542.114 0 .268.13.878.74.663.663.74.757.74.903 0 .146-.074.24-.665.837-.366.37-.708.696-.76.725-.238.13-.36.066-.906-.479l-.524-.522-.52.515c-.707.702-.717.702-1.424.005l-.526-.518-.519.512c-.285.282-.565.523-.62.537a.466.466 0 0 1-.243-.037zm1.286-1.447.119-.128-.615-.615-.615-.615-.617.617-.616.616.6.603.602.602.511-.476c.282-.262.565-.534.63-.604zm3.184.47.617.615.6-.602c.544-.544.595-.61.536-.69-.137-.18-1.089-1.127-1.135-1.127-.027 0-.316.266-.642.592l-.594.592-.593-.592c-.327-.326-.616-.592-.643-.592-.044 0-.32.273-.965.956l-.24.255.603.604.603.604.618-.616.617-.616zM1.96 16.047c-.138-.079-1.72-1.38-1.851-1.523L0 14.407V10.34l.141-.141c.2-.2.338-.182.668.086.96.78 1.65 1.374 1.677 1.443.016.043.03.47.03.948v.869l1.524-.014 1.523-.014.182-.182.182-.182.025-1.595c.02-1.332.036-1.606.096-1.664.284-.271 1.874-1.537 1.957-1.558.174-.044.365.062.44.244.056.131.071.428.071 1.363v1.196l.127-.118c.184-.169.26-.385.26-.735 0-.283.012-.318.157-.453.42-.391 1.778-1.467 1.887-1.495.133-.033.313.04.41.167.043.055.06.425.06 1.348.003 1.268.003 1.272.102 1.219.185-.1.287-.337.289-.676 0-.173.028-.36.06-.417.052-.09 1.56-1.363 1.873-1.58.173-.121.328-.103.489.058l.141.141-.002 2.12c-.002 2.304-.025 2.579-.265 3.187-.255.646-.755 1.266-1.299 1.61l-.22.14.542.032c.298.017.873.031 1.278.031h.735l.153-.22c.21-.305.451-.843.61-1.357l.134-.43.026-2.855c.019-2.121.04-2.882.085-2.958.091-.16 1.842-1.827 1.97-1.877.154-.059.386.04.456.195.038.084.055.841.055 2.525 0 2.258.006 2.413.09 2.54a.92.92 0 0 0 .193.21l.104.072v-.805c0-.442.022-.844.048-.894.042-.078.697-.638 1.66-1.418.327-.266.504-.294.69-.109l.118.119v2.053c0 1.886-.007 2.062-.085 2.152-.046.054-.483.427-.97.828l-.885.73-.518-.001c-.733 0-1.271-.168-1.805-.56l-.237-.174v-.582l.273.25c.488.446 1.092.68 1.758.68h.365l.858-.71.859-.711v-1.879c0-1.033-.012-1.878-.026-1.878-.014 0-.406.316-.87.702l-.846.702v1.016c0 .81-.013 1.015-.064 1.015-.168 0-.533-.17-.726-.34-.387-.342-.371-.218-.371-2.92 0-1.32-.017-2.4-.037-2.4-.02 0-.412.375-.871.834L16.5 8.1v2.444c0 2.498-.025 2.961-.196 3.633-.165.65-.58 1.5-.876 1.799l-.135.135-1.481-.014-1.482-.015-.093-.114a.508.508 0 0 1-.063-.462c.016-.042.178-.175.36-.296a3.112 3.112 0 0 0 1.302-1.77c.095-.346.1-.47.088-2.52l-.013-2.154-.823.677-.822.677-.032.336c-.042.45-.196.743-.496.945-.199.134-.276.157-.523.157h-.291l.035-.133c.02-.073.046-.706.058-1.407.022-1.226.02-1.272-.066-1.222a22.06 22.06 0 0 0-.863.696l-.774.644-.03.336c-.033.392-.081.526-.261.74a.977.977 0 0 1-.722.346h-.22l-.012-1.4-.013-1.399-.859.705-.858.706-.001 1.48c-.001 1.633-.014 1.712-.32 1.998-.292.274-.348.281-2.194.281H2.129v-2.027l-.846-.704a20.531 20.531 0 0 0-.871-.704c-.014 0-.025.846-.025 1.88v1.882l.858.707.859.708h1.943c1.804 0 1.965-.007 2.25-.096.426-.133.721-.315 1.063-.654.34-.339.598-.82.682-1.27l.056-.302.293-.001a2.612 2.612 0 0 0 1.938-.828c.298-.316.325-.333.533-.333h.218v1.176l.424-.03c.663-.047 1.2-.268 1.642-.675l.209-.193v.57l-.305.207c-.469.317-.92.456-1.567.483-.53.022-.543.02-.665-.102-.11-.11-.125-.164-.125-.466 0-.187-.013-.34-.029-.34s-.133.093-.26.207c-.432.388-1.228.71-1.763.713h-.198l-.112.357c-.306.964-1.17 1.727-2.196 1.936-.302.062-.727.076-2.226.075-1.292 0-1.882-.018-1.95-.056z"/></svg>