<svg viewBox="0 0 24 24" xmlns="http://www.w3.org/2000/svg" role="img"><path d="M9.73 14.53c0-.01.03-.14.065-.286.064-.267.064-.27.08-1.593l.017-1.326-.09-.328a4.442 4.442 0 0 1-.085-.334c.002-.003.192-.028.423-.055.381-.046.425-.047.491-.013.07.036.073.045.073.197v.16l.14-.11c.298-.235.604-.308.93-.224.544.139.852.632.852 1.364 0 .483-.12.842-.377 1.124-.395.434-1 .49-1.464.136l-.089-.068.016.401c.01.267.035.497.073.688l.057.285h-.556c-.305 0-.555-.008-.555-.018zm1.525-1.502c.289-.086.44-.368.482-.9.028-.347-.062-.721-.213-.885-.14-.151-.415-.211-.627-.136-.206.072-.193.008-.193.975v.86l.055.03a.56.56 0 0 0 .496.056zm2.35.437a.948.948 0 0 1-.614-.486.993.993 0 0 1-.026-.672c.095-.252.333-.461.622-.547.253-.074.793-.057 1.027.033.035.013.037-.016.023-.275-.017-.323-.063-.512-.147-.61-.046-.054-.076-.065-.167-.063-.195.002-.457.153-.989.57-.099.078-.19.141-.2.141-.012 0-.022-.174-.022-.387v-.387l.262-.062c.61-.146 1.158-.176 1.458-.08.166.054.378.2.466.32.155.212.162.259.163 1.144.001.58.01.817.032.857.035.065.12.09.235.069.095-.018.102-.004.052.114-.092.22-.272.333-.534.333-.255.001-.392-.072-.528-.284l-.065-.102-.108.11a.948.948 0 0 1-.94.264zm.87-.486c.132-.067.138-.09.156-.565l.016-.444h-.214c-.288 0-.387.03-.51.159-.162.169-.19.434-.068.67.103.198.407.287.62.18zm5.285.487a.93.93 0 0 1-.605-.479.972.972 0 0 1-.048-.643.934.934 0 0 1 .61-.573c.267-.086.797-.076 1.048.02.028.011.035-.019.035-.158 0-.214-.041-.515-.085-.619-.121-.291-.386-.226-1.027.253a7.689 7.689 0 0 1-.39.282c-.024.01-.03-.075-.03-.377v-.39l.27-.064c.466-.11.73-.142 1.053-.13.223.01.327.025.43.065.286.11.455.273.547.526.038.105.046.233.058.957.012.798.015.837.062.872.034.025.082.032.164.023.126-.014.133-.006.083.113-.093.22-.272.333-.534.333-.26.001-.446-.107-.539-.311l-.04-.09-.152.149a.818.818 0 0 1-.297.203c-.185.07-.445.086-.613.038zm.87-.487c.133-.068.14-.09.158-.565l.018-.444H20.6c-.347 0-.506.075-.617.292-.06.118-.057.345.007.489.107.24.405.346.64.228zm2.253.476a.804.804 0 0 1-.369-.27c-.13-.187-.13-.2-.132-1.307v-1.027h-.415v-.264l.128-.042c.399-.129.849-.465 1.011-.756.02-.036.03-.038.063-.01.033.026.04.094.04.417v.386l.37.006.37.007-.004.091c0 .05-.004.108-.005.128-.002.03-.06.037-.367.037h-.365v.894c0 .819.004.902.046.993.096.211.32.28.587.18a.59.59 0 0 1 .156-.045c.024.024-.122.263-.225.369a.786.786 0 0 1-.577.253.657.657 0 0 1-.313-.04zm-6.827-.02c0-.01.028-.144.063-.298.062-.273.064-.309.084-1.569l.021-1.289-.092-.34c-.08-.298-.087-.343-.054-.356.074-.028.782-.1.84-.085.142.036.135-.055.135 1.706 0 1.69 0 1.699.11 2.195l.013.055h-.56c-.308 0-.56-.009-.56-.019zm1.933 0a54.6 54.6 0 0 1-.904-1.47c-.005-.009.156-.162.358-.34.29-.255.379-.348.427-.448a.73.73 0 0 0 .05-.466l-.02-.104.3.003c.166.001.398.01.516.018l.215.016-.55.483c-.302.266-.55.49-.55.496 0 .008.258.416.572.907.315.492.572.9.572.909 0 .021-.956.017-.986-.004zM0 13.338c.001-.167.071-.622.135-.879.396-1.58 1.684-2.686 3.453-2.964a5.79 5.79 0 0 1 1.533.016c.95.166 1.743.563 2.36 1.181.668.671 1.044 1.517 1.12 2.524l.017.213H7.566v-.095c0-.171-.093-.643-.171-.866-.243-.694-.73-1.24-1.416-1.59-.853-.434-1.929-.507-2.877-.195a3.44 3.44 0 0 0-.914.47c-.65.489-1.028 1.168-1.123 2.015l-.029.261H0Zm1.873-.012c0-.057.022-.191.047-.298.219-.904.887-1.522 1.872-1.729a3.362 3.362 0 0 1 1.037.001c.826.174 1.444.654 1.74 1.35.077.18.161.506.174.67l.007.097-.526.007-.527.006-.017-.121c-.045-.327-.322-.686-.65-.84a1.47 1.47 0 0 0-.724-.161c-.71 0-1.243.382-1.368.981l-.029.14H1.873v-.103z"/></svg>