<svg viewBox="0 0 24 24" xmlns="http://www.w3.org/2000/svg" role="img"><path d="M15.469 6.105a.399.399 0 0 0-.17.016c-.35.104-.726.427-.918.787-.114.215-.139.442-.145 1.402a9.27 9.27 0 0 1-.015.654c-.007.011-.016.62-.02 1.352a97.841 97.841 0 0 1-.027 1.984c-.042 1.374.137 2.047.723 2.72.269.306.774.597 1.254.72.277.072.319.077.877.065.472-.01.643-.028.877-.08.42-.096.917-.301 1.142-.471a.254.254 0 0 1 .115-.053c.026 0 .158.071.291.158.41.266.89.436 1.497.524.352.052.392.052.742 0 .687-.1 1.126-.278 1.512-.608.643-.548.863-1.327.779-2.756-.038-.65-.046-.692-.127-.666-.046.015-.055.01-.041-.027.055-.142-.397.075-.617.297-.241.245-.348.593-.348 1.13-.001.699-.274 1.053-.957 1.24-.144.04-.3.054-.654.054-.41 0-.487-.006-.657-.065-.564-.194-.71-.466-.738-1.353-.016-.525-.024-.572-.088-.547-.032.012-.041.007-.027-.016.044-.072-.137-.098-.578-.084-.454.015-.572.04-.612.129-.013.029-.03.3-.039.604-.016.514-.022.562-.092.71a.768.768 0 0 1-.324.368c-.259.134-1.254.173-1.644.066-.358-.099-.56-.25-.7-.525-.153-.301-.146-.114-.142-3.957.002-1.965-.006-3.605-.016-3.645-.014-.057-.03-.07-.08-.059-.05.01-.055.007-.021-.017.037-.026.026-.044-.012-.051zm-8.569.44c-.283 0-.416.046-.594.212a.782.782 0 0 0-.279.627c0 .401.22.687.623.815.333.105.75-.036.94-.319.234-.35.226-.692-.022-1.021-.16-.21-.38-.315-.668-.315Zm4.202 2.101c-.449.003-.897.127-1.377.373-.489.25-.836.657-1.079 1.264-.185.464-.183.435-.183 3.793 0 1.924.01 3.064.029 3.111a.206.206 0 0 0 .094.102v.002c.098.041.327.01.502-.07.296-.135.548-.436.654-.776.05-.16.057-.28.057-1.355 0-.691.01-1.197.025-1.223.023-.036.166-.046.863-.06.807-.018.846-.021 1.17-.106a3.158 3.158 0 0 0 .971-.451c.19-.135.454-.46.611-.75.179-.327.199-.376.274-.692.16-.673.08-1.218-.27-1.857a2.128 2.128 0 0 0-.412-.54c-.224-.226-.303-.285-.55-.41-.483-.24-.931-.358-1.38-.355Zm-3.72.043a.661.661 0 0 0-.234.016c-.302.07-.62.274-.742.474-.15.246-.157.313-.174 1.453-.017 1.065-.018 1.076-.088 1.22-.09.181-.412.503-.578.577-.22.1-.22.104-.24-.726-.02-.792-.044-.998-.166-1.342-.121-.342-.25-.538-.555-.846-.394-.397-.791-.624-1.308-.744-.326-.075-1.093-.067-1.405.016a3.1 3.1 0 0 0-1.01.517c-.335.282-.65.747-.756 1.114-.14.483-.162.9-.074 1.332a2.57 2.57 0 0 0 .729 1.355c.395.391.696.552 1.236.662.307.063.415.07 1.1.07.65 0 .765.008.805.048l.05.05a69.743 69.743 0 0 1 .022 1.207l.017 1.206.08.162a1.159 1.159 0 0 0 .731.623c.152.048.34.05.402.004a.316.316 0 0 0 .078-.153c.015-.063.028-.788.028-1.611 0-1.388.004-1.501.05-1.543.029-.025.163-.072.3-.104.355-.084.547-.163.8-.328a2.423 2.423 0 0 0 .73-.748c.196-.294.282-.524.325-.857.034-.258.035-2.946.002-2.999-.014-.022-.039-.03-.057-.02-.019.013-.025.003-.015-.023.012-.032-.023-.053-.082-.062zm3.72 1.277c.317 0 .343.004.527.094.143.07.248.154.41.326.327.348.464.681.4.97-.068.302-.31.716-.529.902-.123.104-.4.229-.6.271-.146.031-1.26.043-1.382.014-.123-.03-.13-.076-.13-.746 0-.353.014-.701.03-.772.089-.386.408-.798.748-.965.183-.09.207-.094.526-.094zm-8.282.022c.146.024.296.074.443.148.344.173.518.368.65.73.058.158.063.233.065.893.003.682.001.722-.053.762-.073.054-1.347.054-1.568 0-.311-.076-.664-.334-.846-.619-.202-.315-.24-.787-.09-1.115.093-.203.431-.564.63-.672a1.55 1.55 0 0 1 .347-.121c.134-.028.276-.03.422-.006zm18.62 6.26a1.09 1.09 0 0 0-.246.045c-.124.037-.193.082-.326.217-.092.095-.184.172-.204.172-.02 0-.086-.053-.148-.116a.951.951 0 0 0-.625-.271.792.792 0 0 0-.805.76c-.024.362.129.617.469.775a.913.913 0 0 0 .637.021.998.998 0 0 0 .306-.203 1.17 1.17 0 0 1 .19-.156 1.032 1.032 0 0 1 .176.143.82.82 0 0 0 .607.234c.26 0 .438-.07.6-.236.074-.077.154-.14.174-.14.02 0 .09.054.154.12.17.177.331.24.611.24.383.001.644-.155.791-.472a.559.559 0 0 0 .057-.35.716.716 0 0 0-.22-.506c-.162-.17-.303-.229-.573-.244-.288-.016-.462.048-.652.24-.07.072-.143.131-.163.131-.019 0-.105-.072-.191-.158a.783.783 0 0 0-.62-.246zm-3.707.027c-.318 0-.517.1-.704.354-.056.077-.12.138-.14.138-.022 0-.08-.057-.129-.128a.807.807 0 0 0-.752-.358.836.836 0 0 0-.703.45c-.091.19-.094.55-.004.72a.885.885 0 0 0 .5.422 1.25 1.25 0 0 0 .291.018c.282-.01.447-.093.656-.327l.155-.173.16.18c.186.207.34.292.584.318a.808.808 0 0 0 .804-.46c.126-.251.087-.606-.095-.857-.124-.17-.39-.297-.623-.297z"/></svg>