<svg viewBox="0 0 24 24" xmlns="http://www.w3.org/2000/svg" role="img"><path d="M19.229 22.306a6.272 6.272 0 0 1-.415-.332 4.454 4.454 0 0 0-.424-.323.77.77 0 0 1-.114-.086c-.01-.017-.01-.02.001-.057a45.81 45.81 0 0 1 1.005-1.527c.043-.031.085-.017.235.077.315.198.509.388.612.598.172.35.096.652-.293 1.17a2.519 2.519 0 0 1-.29.325c-.098.095-.161.14-.216.157-.049.015-.07.014-.101-.002zm-8.46-1.147a.137.137 0 0 1-.04-.046c-.014-.028-.016-.041-.015-.116 0-.055.005-.095.012-.115a.398.398 0 0 0 .016-.073.915.915 0 0 1 .018-.095l.025-.102c.032-.142.051-.225.064-.268a5.25 5.25 0 0 0 .048-.184 2.11 2.11 0 0 1 .025-.092l.059-.213a.57.57 0 0 1 .02-.062.513.513 0 0 0 .02-.078.326.326 0 0 1 .014-.06.295.295 0 0 0 .012-.062c.004-.03.012-.087.019-.127.009-.056.01-.108.009-.213a1.09 1.09 0 0 0-.697-1.032.755.755 0 0 0-.182-.051 1.1 1.1 0 0 0-.312.008 1.45 1.45 0 0 0-.422.162c-.17.103-.348.304-.508.573a549.582 549.582 0 0 1-.44.74c0 .003-.008.011-.015.019-.008.007-.015.016-.015.02a3.107 3.107 0 0 1-.614.752c-.1.09-.14.12-.22.172a.967.967 0 0 1-.15.088 1.084 1.084 0 0 1-.192.077.344.344 0 0 0-.057.021.116.116 0 0 1-.04.012.358.358 0 0 0-.064.014.794.794 0 0 1-.094.018.395.395 0 0 0-.066.013c-.016.006-.27.023-.328.021l-.195-.006c-.189-.006-.183-.005-.38-.056a.203.203 0 0 1-.055-.021 1.355 1.355 0 0 1-.245-.122 1.637 1.637 0 0 1-.503-.536.93.93 0 0 1-.1-.173 1.17 1.17 0 0 0-.032-.062.333.333 0 0 1-.019-.037 2.019 2.019 0 0 0-.021-.048.758.758 0 0 1-.054-.14 2.03 2.03 0 0 1-.082-.25 1.404 1.404 0 0 0-.021-.071.147.147 0 0 1-.008-.04.283.283 0 0 0-.011-.056 2.09 2.09 0 0 1-.048-.24 3.363 3.363 0 0 0-.017-.12 2.375 2.375 0 0 1-.02-.166l-.014-.154a54.135 54.135 0 0 1 0-1.646l.014-.15c.004-.053.013-.129.02-.17.005-.04.012-.1.014-.135a.759.759 0 0 1 .01-.092c.005-.016.013-.069.019-.117a5.86 5.86 0 0 1 .051-.35l.033-.19c.01-.05.022-.122.03-.158a.658.658 0 0 0 .014-.08.48.48 0 0 1 .015-.078l.03-.136a9.17 9.17 0 0 1 .106-.455 1.08 1.08 0 0 1 .02-.081 2.877 2.877 0 0 1 .05-.176 2.626 2.626 0 0 0 .043-.155c.017-.049.037-.119.037-.128 0-.006.006-.027.014-.048.008-.02.028-.081.045-.136a9.72 9.72 0 0 1 .112-.334 4.253 4.253 0 0 0 .062-.181c.007-.01.014-.032.057-.151.014-.042.03-.081.033-.088a.943.943 0 0 0 .03-.07c.021-.056.04-.1.067-.157a4.557 4.557 0 0 1 .22-.435.798.798 0 0 1 .25-.266c.075-.038.13-.025.167.039.04.068.028.258-.029.472L6.35 13c-.009.036-.02.074-.063.224l-.024.091a2.834 2.834 0 0 1-.048.172.461.461 0 0 0-.015.063.422.422 0 0 1-.014.063c-.014.051-.045.17-.063.246l-.03.128c-.01.049-.026.112-.033.14a.376.376 0 0 0-.014.073c0 .012-.005.04-.011.063a.973.973 0 0 0-.019.088 3.381 3.381 0 0 0-.062.356 6.297 6.297 0 0 0-.056.459 4.717 4.717 0 0 0-.004.327c.003.256.004.271.019.449.005.057.01.214.011.349.002.135.005.257.007.27l.019.144a3.878 3.878 0 0 0 .04.257c.009.063.076.276.109.349.117.258.24.419.45.592a2.287 2.287 0 0 0 .342.215 1.384 1.384 0 0 0 .224.086c.028.012.094.03.169.044l.089.018a1.937 1.937 0 0 0 .594-.008 1.683 1.683 0 0 0 .61-.232l.062-.045c.052-.036.274-.252.36-.351l.153-.175c.03-.034.159-.174.269-.29a3.882 3.882 0 0 1 .33-.292c.08-.067.262-.181.335-.211l.07-.028a1.261 1.261 0 0 1 .286-.072.986.986 0 0 1 .242-.009 1.248 1.248 0 0 1 .25.048c.041.007.15.044.204.07a.765.765 0 0 1 .142.068c.218.125.36.27.548.556.021.032.035.037.04.015a8.1 8.1 0 0 1 .221-.436l.038-.07a24.452 24.452 0 0 1 .315-.547c.014-.025.024-.041.073-.118l.05-.077a11.02 11.02 0 0 1 .23-.342 5.609 5.609 0 0 1 .383-.476 2.863 2.863 0 0 1 .429-.381 1.69 1.69 0 0 1 .213-.133.761.761 0 0 1 .165-.07c.007 0 .005-.007-.007-.02l-.018-.02.024.012c.029.015.052.016.1.001a1.36 1.36 0 0 1 .114-.023c.083-.014.076-.015.243.027l.14.032c.047.01.11.026.14.034.076.02.151.035.191.04a.448.448 0 0 0 .2-.048 1.02 1.02 0 0 0 .309-.27l.085-.112c.157-.203.262-.32.302-.331.05-.015.075-.004.126.053.031.035.06.06.09.075.041.022.05.023.111.022.06 0 .072-.004.113-.024.088-.044.19-.167.268-.322.028-.056.111-.183.15-.228.062-.073.093-.077.189-.022.053.03.074.039.113.043a.26.26 0 0 0 .136-.014.705.705 0 0 0 .164-.13c.137-.17.22-.289.274-.396a.419.419 0 0 1 .103-.14c.03-.016.05-.013.095.015a.584.584 0 0 0 .099.045c.1.033.163.022.336-.062l.166-.08c.157-.073.265-.167.275-.24a.19.19 0 0 0-.005-.068 1.946 1.946 0 0 1-.056-.277 1.087 1.087 0 0 0-.017-.103 3.345 3.345 0 0 1-.009-.364c0-.274.002-.337.012-.39a1.14 1.14 0 0 0 .017-.106c.005-.047.018-.11.041-.202a3.67 3.67 0 0 1 .125-.422 4.15 4.15 0 0 1 .441-.869c.076-.11.134-.161.171-.152.038.01.037.005.038.34 0 .223.003.32.009.34a.533.533 0 0 1 .016.071c.014.088.07.213.135.302a.517.517 0 0 0 .25.192.31.31 0 0 1 .107.056c.02.023.082.196.11.3.036.144.044.179.048.216a.671.671 0 0 0 .014.081c.006.022.014.082.018.132.004.051.012.12.016.154a4.9 4.9 0 0 1-.01.618.955.955 0 0 0-.012.103.236.236 0 0 1-.011.066.521.521 0 0 0-.018.08c-.02.136-.114.416-.156.46-.026.028-.077.034-.238.03a1.395 1.395 0 0 1-.367-.042.254.254 0 0 1-.054-.014.409.409 0 0 0-.083-.02l-.045-.005-.162.165c-.09.09-.207.212-.262.271-.1.109-.311.307-.383.36a.54.54 0 0 0-.07.065 4.037 4.037 0 0 1-.28.251c-.015.012-.1.065-.19.118-.151.091-.206.12-.33.168a5.524 5.524 0 0 0-.139.058c-.093.04-.145.076-.36.25a1.262 1.262 0 0 1-.426.243c-.19.052-.216.066-.304.15a1.491 1.491 0 0 1-.518.33c-.246.074-.324.1-.375.128-.037.02-.052.032-.054.044-.002.014-.004.015-.017.009-.012-.006-.018-.005-.031.007a1.425 1.425 0 0 0-.226.156c-.05.048-.108.097-.234.198-.205.163-.332.206-.529.178a1.636 1.636 0 0 0-.308-.021c-.096.006-.22.028-.287.05a1.355 1.355 0 0 0-.117.044 1.322 1.322 0 0 0-.112.067 2.181 2.181 0 0 0-.4.365 3.273 3.273 0 0 0-.192.278l-.071.11a8.861 8.861 0 0 0-.165.265 12.24 12.24 0 0 0-.456.831.8.8 0 0 0-.051.109 8.045 8.045 0 0 1-.103.25 2.902 2.902 0 0 1-.03.07l-.029.07a3.863 3.863 0 0 1-.062.146c-.01.026-.026.061-.033.077l-.023.052a13.54 13.54 0 0 0-.128.319 3.445 3.445 0 0 0-.077.2c-.003.012-.02.057-.037.1a6.188 6.188 0 0 0-.045.117l-.029.079a71.28 71.28 0 0 1-.152.422l-.027.08a1.04 1.04 0 0 1-.034.093.139.139 0 0 0-.014.043c0 .007-.004.02-.009.029a.4.4 0 0 0-.02.06 1.684 1.684 0 0 1-.044.132l-.025.074a3.38 3.38 0 0 0-.048.154.456.456 0 0 1-.108.205c-.062.063-.154.088-.207.056zM.21 20.877a.347.347 0 0 1-.076-.019.424.424 0 0 1-.096-.09.082.082 0 0 0-.018-.03.079.079 0 0 1-.019-.043.7.7 0 0 1 .09-.213 1.95 1.95 0 0 1 .186-.234l.107-.114a1.272 1.272 0 0 1 .146-.14 4.496 4.496 0 0 1 .305-.272c.028-.025.07-.06.093-.077l.169-.135c.134-.107.193-.155.218-.173a26.934 26.934 0 0 0 .357-.276c.016-.016.101-.087.14-.117.165-.127.554-.496.702-.664.114-.131.16-.2.223-.341.019-.042.012-.37-.01-.484a.65.65 0 0 0-.022-.092.297.297 0 0 1-.016-.053.224.224 0 0 0-.015-.048 2.293 2.293 0 0 0-.125-.268l-.073-.11a2.081 2.081 0 0 0-.301-.36 3.086 3.086 0 0 0-.348-.31 2.236 2.236 0 0 0-.14-.106l-.05-.038a.175.175 0 0 1-.042-.038c0-.004.015-.039.033-.078a89.103 89.103 0 0 0 .158-.337l.052-.11a16.58 16.58 0 0 1 .124-.264c0-.003.03-.065.067-.139l.076-.151a19.324 19.324 0 0 1 .4-.766.644.644 0 0 1 .03-.052c.115-.205.265-.402.305-.402.008 0 .03.01.048.022a2.689 2.689 0 0 0 .134.089l.062.046c.197.143.441.404.546.58.047.08.056.097.09.163a.921.921 0 0 1 .081.184c.006.008.014.03.019.047.005.018.011.04.015.048a1.322 1.322 0 0 1 .055.213c.006.018.016.07.022.116.006.045.014.105.02.134.012.07.012.812 0 .896a4.589 4.589 0 0 0-.02.158.904.904 0 0 1-.017.12 1.974 1.974 0 0 0-.027.133 2.651 2.651 0 0 1-.074.316 1.043 1.043 0 0 1-.021.073l-.045.14c-.019.06-.04.127-.048.148-.008.021-.02.056-.029.077a10.569 10.569 0 0 1-.203.504l-.043.093a12.15 12.15 0 0 1-.194.397 6.205 6.205 0 0 1-.213.396.45.45 0 0 1-.031.058 2.976 2.976 0 0 0-.049.085.507.507 0 0 1-.031.051.067.067 0 0 0-.014.025.074.074 0 0 1-.014.027.65.65 0 0 0-.036.06c-.04.075-.094.156-.181.275-.198.27-.47.55-.757.784a3.355 3.355 0 0 1-.157.114.636.636 0 0 0-.056.04c-.008.007-.017.013-.02.013a.208.208 0 0 0-.041.024c-.03.021-.102.065-.165.1a7.932 7.932 0 0 1-.406.2 2.902 2.902 0 0 1-.142.059.151.151 0 0 1-.044.014.147.147 0 0 0-.042.014.137.137 0 0 1-.042.015.156.156 0 0 0-.044.014.456.456 0 0 1-.064.023 6.678 6.678 0 0 0-.096.027.706.706 0 0 1-.162.024 1.543 1.543 0 0 0-.117.01.38.38 0 0 1-.077-.005zm16.607-.788a7.23 7.23 0 0 1-.404-.325 7.33 7.33 0 0 0-.238-.193 2.2 2.2 0 0 0-.257-.173.928.928 0 0 0-.067.086 4.605 4.605 0 0 1-.116.154 3.53 3.53 0 0 1-.321.332c-.083.066-.165.093-.218.073a6.02 6.02 0 0 1-.424-.338c-.18-.15-.27-.218-.425-.323a.74.74 0 0 1-.107-.084c-.015-.02-.015-.02-.001-.058.013-.038.95-1.47.99-1.512.05-.055.096-.039.333.118.181.12.318.241.42.374a.8.8 0 0 1 .192.49l.005.102.326-.496.347-.522c.03-.038.058-.048.1-.037.057.015.303.172.42.268.134.11.255.245.325.362a.779.779 0 0 1 .105.52.368.368 0 0 0-.008.061c.003.003.047-.062.722-1.087a.684.684 0 0 1 .112-.148c.05-.026.084-.013.256.097.236.15.377.275.5.441.06.081.093.141.122.224a.732.732 0 0 1 .049.257c0 .043.002.078.003.077l.37-.56c.202-.307.377-.57.388-.582.052-.059.102-.041.347.121.283.189.481.411.557.627a.738.738 0 0 1-.003.52c-.062.171-.186.375-.374.617a3.47 3.47 0 0 1-.34.353c-.083.067-.164.094-.218.074a6.342 6.342 0 0 1-.42-.335 8.054 8.054 0 0 0-.209-.17 3.452 3.452 0 0 0-.28-.194 1.2 1.2 0 0 0-.086.12 5 5 0 0 1-.15.207 3.387 3.387 0 0 1-.348.365c-.083.066-.164.093-.218.073a6.062 6.062 0 0 1-.42-.335 4.064 4.064 0 0 0-.41-.314c-.11-.073-.12-.079-.128-.066l-.09.13a2.452 2.452 0 0 1-.334.405c-.132.132-.168.163-.238.198-.043.021-.103.024-.137.006zm.789-2.625c-.165-.02-.34-.108-.522-.265a28.99 28.99 0 0 0-.487-.394c-.642-.512-1.29-1.04-1.29-1.053a.58.58 0 0 1 .17-.076l.106-.034.122-.037a1.51 1.51 0 0 0 .54-.337c.093-.088.093-.088.293-.147.142-.042.28-.12.44-.25.246-.199.271-.215.463-.29l.114-.047.053-.025c.044-.019.315-.18.377-.224.047-.033.16-.13.273-.237a10.665 10.665 0 0 0 .694-.674l.187-.195.058.02c.033.011.067.02.076.02.01 0 .04.006.066.014.07.02.157.026.354.026.166 0 .174 0 .211-.017.06-.027.083-.06.132-.187.024-.061.049-.131.055-.156l.03-.114a.564.564 0 0 0 .02-.093c0-.012.007-.044.014-.07a.337.337 0 0 0 .015-.078c0-.018.007-.087.016-.154.014-.11.015-.146.011-.372a3.462 3.462 0 0 0-.012-.292 1.706 1.706 0 0 1-.014-.121 1.679 1.679 0 0 0-.018-.138l-.018-.095a2.233 2.233 0 0 0-.1-.35c-.037-.107-.049-.133-.074-.16a.337.337 0 0 0-.143-.083.397.397 0 0 1-.206-.157.704.704 0 0 1-.13-.32c-.01-.034-.012-.083-.013-.352-.001-.334-.001-.336-.04-.377a.133.133 0 0 0-.105-.041c-.054 0-.09.019-.147.078-.069.071-.109.13-.26.385-.048.08-.192.382-.237.494-.04.1-.089.242-.14.403a.321.321 0 0 0-.015.067.25.25 0 0 1-.011.053c-.018.057-.04.169-.052.253a1.624 1.624 0 0 1-.019.114 7.93 7.93 0 0 0 0 .771c.005.02.014.072.02.114.012.099.029.182.048.244l.015.05-.016.026a.59.59 0 0 1-.202.144l-.314.145c-.049.02-.13.004-.197-.037-.139-.085-.229-.044-.336.152-.061.11-.156.25-.243.357a.562.562 0 0 1-.16.136c-.042.017-.093.01-.145-.022-.095-.058-.163-.07-.228-.04-.07.033-.167.158-.264.34-.045.084-.12.191-.153.22-.071.062-.138.077-.199.047a.4.4 0 0 1-.078-.067.322.322 0 0 0-.071-.062.304.304 0 0 0-.168.004c-.035.016-.123.107-.223.23-.07.088-.095.12-.18.232a.843.843 0 0 1-.262.236.493.493 0 0 1-.152.052c-.016 0-.083-.014-.2-.043a16.514 16.514 0 0 0-.398-.094c-.052-.013-.049-.013-.223.013a.43.43 0 0 0-.066.015.377.377 0 0 1-.074.014.515.515 0 0 0-.066.011c-.012.004-.056-.028-.206-.148a28.13 28.13 0 0 0-2.43-1.742c-.18-.117-.303-.246-.336-.355a.165.165 0 0 1-.006-.103c.017-.097.094-.304.174-.464.014-.029.452-.7.973-1.49l.947-1.437.119.081c.183.125.322.235.655.516l.035.03-.387.588c-.213.323-.395.604-.405.624-.035.074-.026.089.111.18.132.087.232.164.419.32l.236.194a.4.4 0 0 1 .06.053c.001.003-.181.283-.404.621-.223.338-.413.63-.422.65-.024.047-.023.079.003.102.01.01.06.045.108.078.131.087.246.175.422.322.243.203.39.32.416.33.072.03.153-.007.296-.137.246-.224.533-.625.632-.884a.67.67 0 0 0 .055-.294.546.546 0 0 0-.02-.184 1.017 1.017 0 0 0-.157-.313 1.72 1.72 0 0 0-.401-.37.278.278 0 0 1-.042-.03c0-.003.03-.036.065-.075.204-.221.412-.53.492-.732a.669.669 0 0 0 .063-.312.54.54 0 0 0-.02-.187c-.06-.218-.226-.437-.472-.62a5.26 5.26 0 0 1-.076-.057.605.605 0 0 1 .054-.067c.07-.08.19-.238.268-.354.243-.362.302-.619.205-.895-.076-.217-.264-.434-.539-.62a1.768 1.768 0 0 0-.27-.16l-.035-.013 1.7-2.58a545.51 545.51 0 0 1 1.748-2.644c.121-.162.255-.263.394-.298.115-.03.329.012.524.103.096.044.543.313.915.55 1.2.763 1.877 1.284 2.571 1.98.413.414.747.815 1.075 1.292.411.599.667 1.17.845 1.888.068.272.105.48.13.728a6.72 6.72 0 0 1-.003.815 5.3 5.3 0 0 1-.27 1.198c-.226.675-.546 1.343-.998 2.082a29.49 29.49 0 0 1-.895 1.324c-.746 1.041-1.278 1.678-2.014 2.41-.51.508-.76.735-1.04.945-.466.35-.839.496-1.165.458zM3.47 12.98a1.225 1.225 0 0 1-.191-.148 5.149 5.149 0 0 0-.335-.258c-.058-.04-.066-.05-.064-.077.002-.024.58-.913.613-.942.023-.022.032-.021.084.005.152.077.33.227.406.34.097.147.11.318.039.487-.056.13-.23.37-.361.494-.087.082-.144.111-.191.099zm1.158-.076a2.708 2.708 0 0 1-.262-.208 3.497 3.497 0 0 0-.191-.148c-.124-.086-.131-.093-.131-.118 0-.016.08-.144.295-.477.163-.25.304-.463.314-.472.01-.009.024-.016.032-.016.033 0 .225.12.314.196.067.058.15.16.18.226a.486.486 0 0 1-.014.467c-.098.198-.337.485-.445.536-.048.023-.064.025-.092.014zm1.049-1.214c-.06-.03-.083-.089-.068-.18.02-.114.086-.192.251-.295.69-.428 1.065-.774 1.065-.985 0-.045-.008-.062-.036-.076-.031-.016-.047-.014-.098.012-.045.024-.046.024-.148.024a.453.453 0 0 1-.249-.053.31.31 0 0 1-.13-.131c-.014-.029-.016-.04-.011-.086.017-.188.145-.514.368-.933.089-.166.14-.243.188-.288.137-.122.287-.105.444.052a.48.48 0 0 1 .141.228c.041.124.049.191.049.414 0 .213-.006.29-.038.463-.092.509-.347 1.023-.674 1.358-.16.165-.294.263-.478.354-.238.117-.484.17-.577.123zm-4.038-.236c-.147-.028-.203-.093-.19-.22.015-.132.131-.266.366-.421a.98.98 0 0 1 .242-.12c.447-.171.726-.32.858-.46a3.26 3.26 0 0 0 .46-.693 2.57 2.57 0 0 1 .465-.603c.16-.16.346-.29.595-.413.075-.037.164-.079.199-.093a.664.664 0 0 0 .221-.138c.093-.087.119-.133.169-.3.046-.151.07-.21.083-.206.02.006.028.06.028.174a1.346 1.346 0 0 1-.568 1.111c-.03.022-.117.073-.194.112-.323.166-.53.298-.62.398a4.028 4.028 0 0 0-.256.342c-.094.14-.168.265-.262.442a2.847 2.847 0 0 1-.23.379c-.29.399-.605.627-.961.698-.103.02-.325.026-.405.011zm-1.481-.39c-.073-.03-.111-.078-.141-.176a.778.778 0 0 1 0-.29c.049-.234.188-.53.435-.927a.731.731 0 0 0 .128-.334c.012-.06.03-.11.083-.232.192-.438.325-.681.384-.704.023-.009.044 0 .119.05.074.05.186.154.236.222.074.1.128.23.15.363.015.083.015.269.001.372-.05.371-.242.794-.55 1.208a1.511 1.511 0 0 1-.385.358c-.16.098-.352.135-.46.09zm.432-.665c.226-.05.368-.144.413-.274a.325.325 0 0 0 .013-.096c0-.05-.003-.065-.02-.096a.677.677 0 0 0-.151-.185 1.405 1.405 0 0 0-.226-.164c-.02 0-.155.218-.212.34a.949.949 0 0 0-.082.262c-.009.098.027.179.095.21.047.022.083.023.17.003zm2.483-3.3a.484.484 0 0 1-.075-.053 8.345 8.345 0 0 0-.492-.387c-.018-.017-.022-.041-.008-.066.019-.037.582-.892.6-.91.032-.036.05-.029.206.073.336.22.447.48.325.757a2.13 2.13 0 0 1-.215.332 1.265 1.265 0 0 1-.258.246c-.044.02-.052.021-.083.008zm1.165-.075c-.027-.012-.073-.047-.236-.183a3.198 3.198 0 0 0-.281-.216c-.063-.042-.079-.064-.066-.092.014-.03.583-.903.603-.924.032-.034.052-.028.187.057.187.12.306.245.362.383.082.206.031.38-.201.689-.074.097-.23.254-.273.274-.048.022-.067.024-.095.012zm-.529-1.37a2.87 2.87 0 0 1-.267-.213c-.09-.075-.2-.157-.268-.2-.039-.024-.052-.05-.041-.077.009-.024.578-.902.6-.925.032-.036.076-.019.245.095a.91.91 0 0 1 .223.206c.087.116.12.214.115.34-.005.114-.043.21-.147.365-.08.12-.157.215-.25.305-.099.097-.156.126-.21.104z"/></svg>