<svg viewBox="0 0 24 24" xmlns="http://www.w3.org/2000/svg" role="img"><path d="M20.918 17.61v-.633l.031-.017c.115-.058.182-.198.152-.313a.277.277 0 0 0-.48-.116.256.256 0 0 0-.045.282c.025.055.116.149.144.149.009 0 .013.23.013.619l-.001.619-.05-.134a4.243 4.243 0 0 0-.146-.333c-.19-.389-.429-.704-.939-1.245-.229-.243-.33-.382-.429-.595a1.163 1.163 0 0 1-.139-.58c0-.188.001-.205.043-.32.06-.169.155-.306.328-.476l.148-.145h2.559l.095.087c.27.25.392.45.43.709.032.22-.02.48-.152.753-.095.2-.185.323-.402.552-.648.685-.924 1.09-1.113 1.635l-.046.134v-.632zM4.924 16.318v-.191h.382v.184h-.198v.198h-.184zm11.054 0v-.191h.368v.182l-.096.004-.095.004-.004.096-.004.095h-.169zm-15.703.054c-.123-.028-.189-.074-.237-.166a.51.51 0 0 1 .006-.38.322.322 0 0 1 .047-.082c.005 0 .03.01.058.021.048.02.049.022.029.06-.128.247.011.423.295.373a.798.798 0 0 0 .148-.039l.05-.022-.098-.025c-.12-.03-.156-.065-.145-.145.017-.129.085-.166.32-.177.186-.008.189-.01.284-.165.05-.082.116-.135.164-.135.05 0 .112.052.153.128.022.042.056.098.075.123.034.046.034.046.16.046.151 0 .184-.02.184-.112 0-.048.005-.056.039-.064l.064-.017c.02-.006.024.002.024.051 0 .06.02.112.048.131.01.006.147.01.307.01.333 0 .338 0 .35-.102.004-.049.014-.068.033-.074l.053-.015c.022-.006.028.003.035.066.011.095.04.126.116.126.075 0 .106-.032.106-.11 0-.05.004-.058.039-.066l.061-.016c.018-.005.025.008.032.066.01.092.04.126.109.126.092 0 .1-.037.032-.146-.034-.053-.034-.054-.006-.092a.478.478 0 0 1 .056-.064c.028-.026.029-.025.065.038a.547.547 0 0 1 .051.11c.033.115.003.245-.067.291-.08.053-.219.048-.28-.01L3 15.881l-.044.037c-.075.063-.24.053-.292-.018-.015-.02-.02-.019-.052.01-.051.049-.117.059-.378.059-.263 0-.344-.012-.385-.053l-.028-.028-.049.033a.492.492 0 0 1-.284.042.248.248 0 0 1-.096-.042l-.042-.033-.025.04c-.022.037-.032.042-.094.042a.298.298 0 0 1-.146-.04l-.077-.041-.039.033c-.04.035-.053.037-.256.04a.36.36 0 0 0-.135.015c-.004.008.038.025.092.038.056.013.107.035.118.05.024.032.013.105-.024.157-.07.099-.343.181-.49.148zm.995-.592c.006-.046-.048-.12-.088-.12-.035 0-.093.057-.093.092 0 .023.096.063.142.06.023-.003.036-.013.039-.032zm2.745.558a.19.19 0 0 1-.053-.056c0-.007.05-.046.11-.089.133-.093.258-.225.258-.272 0-.039-.02-.09-.066-.164l-.031-.051.06-.059.059-.058.028.053a.641.641 0 0 0 .068.098c.04.046.042.047.167.047.149 0 .182-.02.182-.111 0-.051.004-.055.055-.07a.615.615 0 0 1 .062-.017.23.23 0 0 1 .013.08c.01.111.025.12.208.115.185-.005.198-.017.132-.124l-.046-.073.053-.062c.035-.04.06-.056.069-.048a.511.511 0 0 1 .055.093c.073.15.048.315-.056.364-.11.052-.39.045-.456-.012l-.038-.032-.047.032a.45.45 0 0 1-.283.037l-.06-.013-.016.051c-.033.101-.122.204-.27.315-.051.038-.096.07-.099.07a.423.423 0 0 1-.058-.044zm6.637-.01-.053-.055.096-.064c.13-.087.236-.185.264-.243.02-.043.02-.056.003-.103a.752.752 0 0 0-.052-.11l-.032-.054.057-.056.057-.057.044.072c.085.138.052.129.461.129.356 0 .36 0 .382-.032a.172.172 0 0 0 .022-.083c0-.045.005-.053.04-.061l.063-.017c.02-.006.025.002.025.056 0 .042.01.075.03.1l.03.04.207-.006c.2-.005.21-.007.31-.052a.395.395 0 0 0 .102-.058.96.96 0 0 0-.206-.085.38.38 0 0 0-.055.043c-.051.046-.057.045-.134-.01-.013-.01.091-.145.127-.166.059-.034.097-.028.27.043.1.04.19.068.243.072.076.007.082.01.074.038a.842.842 0 0 0-.016.08c-.008.05-.011.052-.082.06a.54.54 0 0 0-.157.055c-.242.129-.272.141-.384.155a1.459 1.459 0 0 1-.23.007c-.096-.006-.127-.014-.164-.042l-.046-.035-.03.03a.213.213 0 0 1-.097.04 5.03 5.03 0 0 1-.671 0c-.05-.011-.05-.011-.067.047-.024.086-.11.188-.24.288a1.038 1.038 0 0 1-.128.088.271.271 0 0 1-.064-.054zm-9.195-.11v-.091h.368v.184h-.368zm2.087.036c-.03-.031-.051-.058-.048-.06a2 2 0 0 0 .317-.238l.071-.073-.072.01c-.087.012-.161-.015-.197-.069-.018-.028-.023-.059-.018-.125.019-.3.304-.365.393-.09a.55.55 0 0 1-.018.34c-.053.114-.21.268-.358.352-.008.005-.04-.016-.07-.047zm.289-.518c.05-.01.054-.03.023-.09-.037-.072-.105-.072-.142 0-.02.038-.02.043.007.07.03.03.044.033.112.02zm2.125.565c-.073-.012-.14-.05-.164-.096-.058-.108.011-.287.142-.368l.069-.043.479-.004.479-.004.023-.035c.02-.032.022-.075.015-.368l-.008-.332.07-.036.07-.035v.365c0 .265.004.374.018.4.016.033.025.036.15.04.155.004.179-.009.193-.105.01-.062.01-.062.093-.085.018-.005.024.009.031.067.013.11.034.126.174.126.174 0 .165.022.159-.394l-.005-.347.057-.025a.512.512 0 0 1 .067-.026c.006 0 .01.15.01.335 0 .189.008.36.015.39.019.066.038.071.25.064.165-.006.169-.007.287-.068l.12-.062-.098-.032c-.13-.042-.145-.042-.19.008l-.04.041-.044-.027c-.025-.015-.045-.033-.045-.04 0-.029.107-.148.15-.165.05-.021.046-.022.301.056a.84.84 0 0 0 .17.037c.08 0 .094.015.079.086-.012.057-.018.062-.077.08-.108.03-.106.029-.078.06.023.026.044.028.212.028.225 0 .248-.009.209-.084a1.133 1.133 0 0 0-.05-.086c-.024-.036-.023-.037.037-.096l.062-.06.046.087c.088.164.07.322-.042.388-.043.025-.074.028-.257.028-.233 0-.258-.009-.311-.106-.015-.027-.033-.048-.04-.046a1.056 1.056 0 0 0-.1.06c-.104.067-.15.081-.305.094-.148.012-.236-.001-.287-.045-.04-.034-.04-.034-.066-.006-.038.043-.127.061-.244.051-.104-.009-.18-.035-.19-.068-.005-.012-.02-.006-.051.02-.082.069-.337.071-.402.004l-.032-.034-.03.03a.218.218 0 0 1-.086.04c-.03.007-.255.013-.5.013-.416 0-.449.002-.491.028-.064.04-.085.082-.055.112.02.02.073.024.395.028l.372.004-.014.084-.014.084-.327-.002a5.943 5.943 0 0 1-.361-.008zm1.203-.075v-.085h.368v.17H7.16zm8.138 0v-.085h.368v.17h-.368zm-3.75-.043v-.085h.183v.17h-.184zm-1.56.023c-.152-.041-.23-.154-.23-.333 0-.087.009-.124.04-.196a.509.509 0 0 1 .046-.088c.003 0 .027.009.053.02l.047.02-.034.1c-.04.121-.034.18.026.25.058.065.16.088.292.064.098-.017.248-.082.25-.108 0-.008-.047-.022-.106-.031-.125-.02-.16-.037-.182-.084-.04-.087-.003-.21.092-.317a.416.416 0 0 1 .237-.127c.045 0 .136.04.136.058 0 .01-.041.126-.05.137a.14.14 0 0 1-.047-.012.208.208 0 0 0-.094-.006c-.08.015-.198.133-.166.165a.522.522 0 0 0 .128.033c.167.03.201.055.201.15 0 .132-.175.269-.401.312a.482.482 0 0 1-.238-.007zm3.417-.263c-.052-.032-.083-.114-.07-.187a.689.689 0 0 1 .046-.124c.024-.053.03-.08.02-.086-.015-.01.01-.073.055-.14.018-.027.09.018.177.112.081.087.108.146.108.24 0 .14-.074.213-.213.213a.233.233 0 0 1-.123-.028zm.201-.156c.022-.024.023-.033.007-.071-.017-.042-.076-.1-.1-.1-.017 0-.07.107-.07.139 0 .04.029.06.086.06.033 0 .06-.01.077-.028zm.5.171c-.129-.027-.152-.092-.16-.45-.005-.154-.01-.32-.014-.369l-.006-.088.057-.03c.032-.015.062-.025.067-.02.005.005.012.167.016.36.01.453-.006.426.234.426.162 0 .178-.002.212-.032.034-.029.036-.036.022-.074a.645.645 0 0 0-.11-.137l-.093-.095.01-.068a.196.196 0 0 1 .026-.084c.044-.042.6-.34.612-.328a.497.497 0 0 1-.005.088l-.009.084-.225.114a1.715 1.715 0 0 0-.23.13c-.004.007.083.101.19.208l.197.194h.297c.35 0 .365-.004.319-.093a.727.727 0 0 0-.05-.084c-.02-.026-.018-.032.036-.088l.059-.06.033.05c.108.159.097.353-.024.423-.046.027-.074.029-.368.029-.365 0-.365 0-.487-.136l-.063-.07-.016.048a.245.245 0 0 1-.135.137c-.053.02-.321.03-.392.016zm1.949.004a1.663 1.663 0 0 0-.06-.013.159.159 0 0 1-.067-.054c-.046-.06-.06-.166-.07-.55l-.009-.293.059-.03c.032-.017.06-.027.064-.024.003.003.01.169.016.368.014.445.002.42.202.42.185 0 .199-.017.116-.144l-.034-.052.028-.04a.49.49 0 0 1 .057-.065c.028-.026.03-.025.072.05a.353.353 0 0 1 .055.245c-.011.131-.074.174-.27.183a1.083 1.083 0 0 1-.159 0zm-11.528-.6v-.085h.354v.17h-.354zM2.561 15.2v-.19h.184v.198h.199v.183H2.56zm6.369.106v-.084h.368v.169H8.93zm3.368-.042v-.085h.184v.17h-.184zm2.08-.089c0-.043.01-.054.075-.098.087-.057.355-.21.369-.21.017 0 .01.084-.008.1-.01.01-.088.055-.174.103-.085.049-.18.103-.208.121l-.053.033zm.722-1.156v-.666h1.445l-.004.358-.004.357-.358.004-.357.004v.608H15.1zm-4.991-.089-.315-.315.206-.112c.208-.114.615-.37.818-.515l.111-.08-.147-.01a1.429 1.429 0 0 1-.21-.026.574.574 0 0 1-.365-.281c-.036-.075-.039-.092-.038-.257 0-.142.009-.21.04-.347a3.93 3.93 0 0 1 .219-.666c.112-.23.18-.27.46-.257a.848.848 0 0 1 .273.043c.288.1.513.344.627.675.11.32.115.782.014 1.112-.117.38-.45.76-.969 1.109-.2.135-.376.242-.397.242-.007 0-.155-.142-.327-.315zm1.668 0-.315-.316.159-.106c.507-.336.893-.673.983-.857.035-.072.037-.082.02-.137a2.376 2.376 0 0 0-.247-.463l-.106-.163.342-.343c.189-.188.347-.343.352-.343.005 0 .1.14.21.312.125.192.222.327.253.35.05.039.05.039.299.039.218 0 .253-.003.287-.027l.039-.026.004-.34.004-.34.41-.11.41-.108.008.419c.008.461.012.489.096.524.046.019.629.016.648-.003a1.068 1.068 0 0 0-.125-.214l-.136-.203.35-.35.35-.35.109.183c.25.42.352.715.354 1.03.002.456-.24.76-.705.886-.102.028-.158.031-.55.037-.543.007-.643-.007-.803-.118l-.05-.035-.107.056c-.166.086-.273.104-.58.096a2.57 2.57 0 0 1-.29-.016c-.025-.009-.032 0-.054.058-.097.259-.312.523-.68.832-.184.156-.587.46-.608.46-.008 0-.157-.141-.33-.315zm-10.829.143c-.326-.043-.602-.203-.758-.437-.188-.282-.24-.716-.141-1.187.032-.156.16-.575.19-.623.01-.014.092.006.363.09.193.059.353.11.357.114.003.003-.014.078-.038.166-.117.424-.115.641.009.769.084.087.158.112.322.112.132 0 .149-.003.237-.046a.546.546 0 0 0 .295-.421c.016-.1-.002-.948-.046-2.106a3.715 3.715 0 0 1-.004-.448c.013-.012.863-.41.876-.41.004 0 .007.48.007 1.068 0 .921.003 1.075.021 1.11.04.077.067.086.266.086.182 0 .26-.016.288-.059.007-.01.015-.169.02-.351l.006-.333.382-.102.414-.11.031-.008.004.44.004.44.046.041.047.042h.211c.212 0 .212 0 .256-.04a.193.193 0 0 0 .054-.088c.011-.053-.001-.516-.033-1.252a9.814 9.814 0 0 1-.015-.472c.007-.007.872-.413.88-.413.003 0 .005.476.005 1.058 0 .685.005 1.077.014 1.11.028.099.014.097.622.095h.545l-.389-.129a18.95 18.95 0 0 1-.394-.132c-.01-.008.156-.309.248-.45.109-.167.22-.282.312-.323a.759.759 0 0 1 .376-.026c.048.009.31.084.583.166.491.147.747.213.96.246.09.014.108.021.103.04a16.62 16.62 0 0 0-.136.591c0 .016.064.019.343.018.19 0 .368-.005.397-.01l.053-.01-.134-.202a2.801 2.801 0 0 1-.135-.212c0-.006.155-.166.345-.356l.345-.344.077.125c.112.183.185.32.25.473.296.693.118 1.27-.454 1.465-.198.067-.3.077-.844.077-.549 0-.634-.01-.777-.08a.786.786 0 0 1-.292-.28l-.055-.092-.065.038c-.036.02-.107.062-.157.093-.151.091-.358.19-.492.235-.235.08-.331.088-.9.083-.488-.004-.516-.006-.595-.035a.637.637 0 0 1-.132-.07l-.049-.036-.102.05c-.179.09-.23.097-.686.09-.37-.004-.414-.007-.5-.036a.688.688 0 0 1-.154-.075l-.062-.045-.043.026c-.196.118-.298.138-.676.132l-.293-.005-.009.056c-.014.085-.088.3-.137.397-.23.459-.635.704-1.192.721a2.06 2.06 0 0 1-.275-.009zm1.882-.359v-.36h1.387l-.004.357-.004.357-.69.004-.69.004zm15.677.341c-.095-.026-.165-.087-.22-.195a.354.354 0 0 1-.01-.342c.047-.098.107-.146.208-.165.051-.01.872-.013 2.39-.01l2.313.003.068.034c.08.04.113.082.145.192.058.2-.025.377-.219.466l-.064.03-2.272.003c-1.82.002-2.285 0-2.34-.015zm-.17-1.027a.783.783 0 0 1-.105-.138 2.931 2.931 0 0 1-.438-1.173 4.225 4.225 0 0 1 0-.939c.056-.355.17-.708.328-1.017.077-.151.26-.442.343-.544l.044-.054.016.103c.113.7.26 1.04.59 1.368.081.08.151.143.155.14a.79.79 0 0 0-.041-.162 4.743 4.743 0 0 1-.153-.62 4.33 4.33 0 0 1-.028-.894 3.319 3.319 0 0 1 .716-1.672.41.41 0 0 1-.015.096c-.058.268-.055.688.008.99.08.387.246.725.5 1.021.091.106.272.264.287.25a2.135 2.135 0 0 0-.07-.268 5.886 5.886 0 0 1-.238-1.094 5.332 5.332 0 0 1 .007-.941c.079-.577.287-1.13.579-1.536.075-.104.152-.197.152-.184 0 .024.119.556.15.67.22.81.635 1.56 1.292 2.338.457.54.59.703.753.92.533.706.794 1.265.828 1.769.023.347-.1.763-.308 1.04-.097.128-.487.514-.546.54-.038.016-.426.019-2.408.019-2.338 0-2.362 0-2.398-.028zM8.18 10.147v-.361h1.387v.722H8.18zm5.321 0v-.361h1.401v.722h-1.4z"/></svg>