<svg role="img" viewBox="0 0 24 24" xmlns="http://www.w3.org/2000/svg"><path d="M12.049 24l-.452-.406a.674.674 0 0 0-.074-.083 3.83 3.83 0 0 1-.452-.416l-.453-.406a3.692 3.692 0 0 0-.332-.323 1.108 1.108 0 0 1-.258-.25.25.25 0 0 0-.37 0 .812.812 0 0 0-.11.14h-.065l-.37.34-.165.14-.462.424-.757.702c-.065.046-.101.046-.185 0l-.415-.342a1.375 1.375 0 0 0-.13-.11 4.366 4.366 0 0 1-.368-.342l-.148-.12h-.055a3.36 3.36 0 0 0-.508-.517c-.074-.074-.176-.102-.231-.203a.36.36 0 0 0-.268-.074H.806c-.13 0-.157 0-.157-.166V2.409a.923.923 0 0 0 0-.157c0-.092.046-.129.12-.138h6.406a.406.406 0 0 0 .25-.065 5.594 5.594 0 0 1 .701-.36c.36-.166.73-.304 1.098-.452.37-.148.674-.25.988-.314.314-.065.545-.148.812-.212.268-.065.794-.203 1.182-.268.388-.065.61-.092.923-.13l.923-.091 1.006-.093L16.277 0h.969a.25.25 0 0 1 .092.055c.12.111.24.24.37.351.129.11.323.259.47.397.148.139.268.277.416.415l.738.684.056.055c.073.083.147.148.267.074h3.526c.148 0 .167 0 .167.175a1.495 1.495 0 0 1 0 .203v19.717H18.64a.332.332 0 0 0-.342.157c-.046.092-.138.166-.203.268a.24.24 0 0 0 0 .221h-.249a1.403 1.403 0 0 1-.268.25c-.157.101-.249.276-.397.369-.147.092-.36.36-.581.507a.13.13 0 0 1-.157 0l-.203-.101c-.065-.203-.268-.268-.397-.406-.13-.139-.259-.222-.379-.333a1.412 1.412 0 0 0-.166-.166c-.221-.184-.415-.397-.627-.59a1.422 1.422 0 0 0-.268-.213c-.102-.074-.139-.064-.23 0l-.269.259-.461.424-.499.471-.572.517c-.148.065-.221.148-.323.24zm-2.705-2.88c-.064 0-.046.065 0 .11.047.047.093 0 .111 0h.074c.102.102.194.213.286.315l.508-.471.48-.443.48-.443a5.538 5.538 0 0 0 .47-.462h-.322l-.453.056a1.108 1.108 0 0 1-.184 0H9.16c-.259 0-.692-.102-1.043-.148a.24.24 0 0 0-.194 0l.221.23c.139.14.287.26.434.398l.166.156zm12.924.055V3.305c0-.157-.056-.213-.213-.231a.692.692 0 0 0-.138 0h-3.019a.342.342 0 0 0-.166 0 1.265 1.265 0 0 0-.212.175c-.323.296-.646.6-.97.923a1.265 1.265 0 0 1-.36.296l-.212-.213a4.938 4.938 0 0 1-.461-.415c0-.055-.12-.083-.166-.13-.047-.045-.36-.322-.517-.498a.47.47 0 0 0-.37-.147c-.636 0-1.273 0-1.91.055a7.006 7.006 0 0 0-1.246.194h-.093a3.692 3.692 0 0 0-.923.277c-.083.046-.175.064-.258.12-.083.055-.139.12-.213.175-.073.056 0 0 0 0s-.138.056-.193.102c-.056.046-.13.175-.259.212-.13.037-.138.138-.203.212l-.185.286a.923.923 0 0 0-.138.684.203.203 0 0 1 0 .101.702.702 0 0 0 .138.545 2.16 2.16 0 0 0 .619.609.618.618 0 0 0 .388.11c0 .102.073.14.147.158a3.295 3.295 0 0 1 .425.147 2.77 2.77 0 0 0 .618.176 1.283 1.283 0 0 0 .499.083 1.145 1.145 0 0 0 .526.11c.397.047.794.074 1.19.093h1.478a.35.35 0 0 0 .138 0c.166-.065.342 0 .517 0a1.67 1.67 0 0 1-.166.25c-.065.073-.139.128-.203.202l-.342.342a.23.23 0 0 1-.147.074c-.24 0-.471 0-.702.055a6.12 6.12 0 0 0-.923.065h-.453l-.462.046c-.425 0-.84.138-1.255.203a.868.868 0 0 1-.453.11 3.637 3.637 0 0 0-.6.167c-.147.046-.277.166-.452.147l-.766.314c-.13.065-.25.157-.379.222-.129.064-.24.11-.35.184a1.385 1.385 0 0 0-.36.203.138.138 0 0 1-.056.047 2.612 2.612 0 0 0-.526.35.923.923 0 0 0 .139.083c.277 0 .553.102.821.111a9.018 9.018 0 0 0 1.412 0 3.388 3.388 0 0 0 .924-.101h.046a1.2 1.2 0 0 0 .48 0l.664-.111.517-.102c.286-.064.582-.12.859-.193.12 0 .221-.065.341-.084a.434.434 0 0 0 .277-.073h.102a.692.692 0 0 0 .194 0 1.91 1.91 0 0 0 .516-.111h.675a5.76 5.76 0 0 1 .922-.056h.296c.101 0 .434.047.655.056a5.538 5.538 0 0 1 1.486.295l.61.222.064.064s.046.056.083.074a1.698 1.698 0 0 1 .397.277c.12.102.305.139.332.332a1.846 1.846 0 0 1 .259.333 3.074 3.074 0 0 1 .406 1.163 6.11 6.11 0 0 1 0 1.006c0 .175-.074.36-.101.535-.028.176 0 .13 0 .194a.452.452 0 0 1 0 .102.48.48 0 0 0-.056.12c-.055.157-.101.323-.166.489-.065.166-.185.406-.277.61l-.046.055c-.074.092-.074.12 0 .203a.425.425 0 0 0 .065.064 1.274 1.274 0 0 1 .396.877.185.185 0 0 0 0 .065 3.24 3.24 0 0 1-.046 1.154 2.455 2.455 0 0 1-.203.314 7.265 7.265 0 0 1-.295.683 10.55 10.55 0 0 1-.332.627 3.212 3.212 0 0 1-.259.36c-.083.13-.157.268-.25.388-.091.12-.276.342-.424.508a.074.074 0 0 0 0 .12h2.871zm-20.539.056h3.84c.102 0 .203.046.259-.083.055-.13 0 0 .055 0a.37.37 0 0 0 .12-.065l.59-.545.462-.433.425-.388-.49-.212a4.67 4.67 0 0 1-.922-.462c-.12-.083-.259-.148-.388-.23a4.615 4.615 0 0 1-.628-.49 3.37 3.37 0 0 1-.692-.858 3.452 3.452 0 0 1-.508-1.145 3.018 3.018 0 0 0-.12-.498.702.702 0 0 1 0-.24v-.536a1.366 1.366 0 0 1 .056-.508 1.468 1.468 0 0 1 .12-.535c.064-.166 0-.36.166-.498.166-.139 0-.056 0-.074a.462.462 0 0 1 0-.12c.092-.176.175-.351.258-.526a1.625 1.625 0 0 1-.378-.416c-.083-.157-.203-.286-.296-.434a5.123 5.123 0 0 0-.406-.683 1.422 1.422 0 0 0-.184-.498.49.49 0 0 1 0-.176c0-.101 0-.212-.056-.313-.055-.102 0-.203-.064-.305-.065-.102 0-.323-.065-.48a2.852 2.852 0 0 1 0-.97 5.686 5.686 0 0 1 .157-1.125c.064-.176.064-.36.138-.536.074-.175.111-.369.194-.544a4.726 4.726 0 0 1 .36-.767 1.975 1.975 0 0 1 .296-.48.23.23 0 0 0 0-.064l.11-.176c.139-.184.296-.36.425-.553.13-.194.323-.351.47-.545a2.298 2.298 0 0 1 .268-.23 2.77 2.77 0 0 1 .36-.287s.083-.065.056-.148h-3.97v18.176zm4.265-7.385a.517.517 0 0 1 0 .065 2.455 2.455 0 0 0 .812 1.523 3.222 3.222 0 0 0 1.357.664 6.406 6.406 0 0 0 1.735.167h.194l.102.147a2.188 2.188 0 0 0 1.91.923 2.225 2.225 0 0 0 2.096-1.643.166.166 0 0 1 .157-.157l1.449-.295a11.548 11.548 0 0 1 1.948-.222 4.938 4.938 0 0 1 1.68.24l.24.093a.517.517 0 0 0 .064-.148 1.846 1.846 0 0 0 .065-.6 1.292 1.292 0 0 0-.462-.923 1.588 1.588 0 0 0-.498-.286 2.686 2.686 0 0 0-1.57-.102l-3.027.554-.295.046a2.27 2.27 0 0 0-4.09.49h-.073a9.406 9.406 0 0 1-3.434-.517.785.785 0 0 0-.36-.019zm2.058-4.883l-.13-.138-.47-.342a1.32 1.32 0 0 1-.24-.175 4.8 4.8 0 0 1-.323-.434 1.597 1.597 0 0 1-.185-.296 3.35 3.35 0 0 1-.193-.535 2.686 2.686 0 0 1 0-1.181 2.77 2.77 0 0 1 .618-1.247 4.33 4.33 0 0 1 .97-.867 5.538 5.538 0 0 1 1.06-.591c.158-.065.296-.148.453-.203.296-.102.59-.203.923-.286.333-.083.748-.213 1.136-.305a6.148 6.148 0 0 1 .701-.11 4.615 4.615 0 0 1 .923-.12h.046l1.09-.084a3.582 3.582 0 0 0 .544 0 .305.305 0 0 0 .185-.101 1.514 1.514 0 0 1 .277-.277 3.24 3.24 0 0 1 .369-.342c.138-.11.222-.277.388-.36a.166.166 0 0 1 0-.046 1.19 1.19 0 0 0-.176 0h-1.504a2.705 2.705 0 0 0-.268.046 3.812 3.812 0 0 1-.462 0 11.474 11.474 0 0 0-1.255.203h-.397c-.203.046-.415.12-.628.148a1.91 1.91 0 0 0-.544.148.148.148 0 0 1-.092 0h-.222c-.185.046-.35.12-.535.157a.794.794 0 0 0-.213.221 1.532 1.532 0 0 1-.341.13 3.692 3.692 0 0 0-.563.212c-.111.046-.203.147-.314.166a3.692 3.692 0 0 0-.628.35c-.13.056-.24.158-.37.213a3.692 3.692 0 0 0-.368.258 4.394 4.394 0 0 0-.628.462c-.203.175-.388.37-.59.554a5.797 5.797 0 0 0-.86 1.089c-.082.138-.128.295-.22.425-.093.129-.12.443-.25.646 0 .194-.065.387-.102.581a3.102 3.102 0 0 0 0 .97 2.77 2.77 0 0 0 .157.535c.074.175.176.341.259.508a.332.332 0 0 0 .138.11s.065.111.093.176a3.618 3.618 0 0 0 .849.701l.157.074a.185.185 0 0 0 .221 0l.12-.101c.056-.065.102-.157.176-.185a1.366 1.366 0 0 0 .36-.24l.175-.148zm6.268 12.545a4.717 4.717 0 0 1 .388-.36c.138-.102.23-.259.378-.351a3.305 3.305 0 0 0 .268-.24l.72-.683c.129-.12.23-.259.36-.379.129-.12.387-.369.572-.553a.868.868 0 0 0 .13-.176.11.11 0 0 1 .045 0 1.33 1.33 0 0 0 .36-.323c-.064 0-.11-.046-.147 0a2.012 2.012 0 0 0-.48.083c-.268.092-.563.092-.831.212a4.79 4.79 0 0 1-.757.213c-.166 0-.332.129-.508.166l-.286.092a4.33 4.33 0 0 0-.941.176h-.203l-.702.147-.24.065c-.12 0-.138.11-.046.194l.314.295.674.628.369.332a2.003 2.003 0 0 1 .332.286c.046.139.13.148.23.176zm2.87-1.302l.204.157.646.61c.129.11.148.1.268 0 .12-.102 0-.065.064-.084.065-.018.046-.157.176-.157.129 0 .101-.083.147-.129l.093-.101c.11-.13.24-.25.341-.379a4.92 4.92 0 0 0 .462-.683 1.403 1.403 0 0 0 .175-.6.434.434 0 0 0-.258-.406s-.084 0-.111-.065c-.028-.064-.24-.074-.36-.101-.12-.028 0 0 0 0s-.176.147-.157.267c.018.12-.102 0-.13.056-.193.212-.369.434-.581.627a1.57 1.57 0 0 0-.212.277c-.157.083-.24.25-.37.351a2.714 2.714 0 0 0-.396.36zm-4.92-3.591c.194.12.37.074.536.12a1.45 1.45 0 0 1-.71.074l-.14.203-.138-.203c-.23 0-.47.065-.701-.064.166-.065.341 0 .48-.139-.111-.101-.213-.203-.314-.286a1.302 1.302 0 0 1-.314-.397 2.03 2.03 0 0 1-.258-1.228 1.45 1.45 0 0 1 .397-.923l.064-.046h.056a1.975 1.975 0 0 1-.084.25 1.892 1.892 0 0 0-.156.71 1.578 1.578 0 0 0 .083.59 2.418 2.418 0 0 0 .175.453 1.597 1.597 0 0 0 .185.296c.083.083.157.175.23.258.074.083.047 0 .083 0a.858.858 0 0 0 0-.13V13.8a.738.738 0 0 1 0-.138 2.77 2.77 0 0 1-.258-.222v-.166a.415.415 0 0 0 .342.12 1.31 1.31 0 0 1 .267 0c.111 0 .203 0 .268-.102a.185.185 0 0 1 .083-.055c0 .212 0 .286-.258.37v2.575a.434.434 0 0 0 .046.092h.074a3.286 3.286 0 0 0 .36-.443 2.65 2.65 0 0 0 .221-.499 1.2 1.2 0 0 0 .083-.36 2.105 2.105 0 0 0-.12-1.015l-.184-.24h.12a1.846 1.846 0 0 1 .323.545.868.868 0 0 1 .073.378v.637a2.252 2.252 0 0 1-.193.545 1.117 1.117 0 0 1-.222.323c-.101.11-.203.23-.314.341a1.07 1.07 0 0 1-.184.13zm-1.449-.165a.757.757 0 0 1-.313-.213 1.68 1.68 0 0 1-.425-1.394 1.45 1.45 0 0 1 .221-.572 3.692 3.692 0 0 1 .324-.425l.286-.101a2.29 2.29 0 0 0-.563 1.347 2.003 2.003 0 0 0 .47 1.357zm2.327-.065a1.846 1.846 0 0 0 .443-1.357 2.252 2.252 0 0 0-.582-1.33h.083a1.477 1.477 0 0 1 .59.6 1.246 1.246 0 0 1 .158.425 1.67 1.67 0 0 1-.157 1.172 2.77 2.77 0 0 1-.25.323l-.082.102c-.074.102-.074.102-.203.065z"/></svg>