<svg viewBox="0 0 24 24" xmlns="http://www.w3.org/2000/svg" role="img"><path d="M17.064 19.695c-.208-.118-.208-.115-.208-1.874v-1.676l.129-.144c.175-.196.337-.187.91.049.675.277 1.207.46 1.548.531.466.097 1.183.132 1.57.076.491-.071.635-.12.982-.329.511-.308.776-.23.773.23 0 .288-.138.563-.414.832-.482.47-1.206.682-2.148.63a9.891 9.891 0 0 1-.705-.059c-.148-.026-.15-.024-.152.152-.002.21-.097.497-.203.613-.04.046-.308.203-.593.35-.285.147-.658.347-.828.446-.35.203-.527.25-.661.173zM1.12 19.353c-.304-.15-.682-.55-.832-.878-.265-.58-.263-.524-.282-6.005-.017-5.24-.01-5.5.178-6.065.173-.524.552-.885 1.018-.972.385-.072.478.114.218.436-.184.229-.383.65-.489 1.035-.077.28-.082.634-.074 5.41.008 4.547.017 5.162.086 5.568.093.546.205.861.42 1.18.257.383.164.495-.243.291zm1.476-.274c-.612-.191-1.054-.777-1.192-1.583-.092-.533-.118-9.983-.028-10.384.092-.414.244-.72.452-.907.442-.398.725-.375 2.855.227.89.251 2.994.85 4.676 1.33l3.06.874v.196c.001.108-.018.197-.041.197-.072 0-1.45-.342-4.3-1.066-3.362-.855-4.426-1.106-4.677-1.105-.374.002-.69.217-.853.578-.074.164-.082.318-.074 1.462.014 1.893.195 7.869.25 8.213.152.97.848 1.276 2.17.957 1.147-.277 2.744-.946 6.303-2.642 2.39-1.14 3.025-1.395 3.844-1.55.344-.065 1.099-.038 1.179.042.118.118-.024.21-.412.265-.9.128-1.812.503-4.334 1.778-4.284 2.165-5.821 2.825-7.198 3.09-.572.109-1.378.123-1.68.028zm2.526-2.992c-.606-.213-1.062-.578-1.426-1.14-.281-.436-.382-.775-.41-1.376-.023-.507-.021-.518.096-.635a.37.37 0 0 1 .281-.12c.137 0 .205.044.43.27.474.474.97.629 1.672.52.888-.138 3.26-1.057 5.732-2.222 1.952-.919 2.988-1.264 4.089-1.361.178-.016.401-.04.496-.054l.174-.025v2.576l-.59.056c-1.366.132-2.413.488-4.469 1.52-1.93.969-3.006 1.448-4.138 1.842-.561.196-.669.218-1.129.235-.441.017-.547.005-.808-.086zm14.238-.248a3.808 3.808 0 0 1-1.1-.442c-.357-.214-.853-.749-1.029-1.107-.257-.523-.28-.754-.282-2.686V9.86h2.5l-.01 2.299c-.008 2.438-.001 2.539.214 2.968.132.261.342.464.668.643l.254.14-.462-.004a4.586 4.586 0 0 1-.753-.067zm1.56-.313c-.445-.12-.827-.475-.946-.879-.038-.126-.06-.238-.049-.249.011-.01.093.036.183.104.447.341 1.035.298 1.277-.093.087-.141.108-.267.141-.844.022-.373.027-1.045.01-1.493-.042-1.202-.081-1.145 1.287-1.84.842-.429.919-.441 1.109-.187.082.11.084.177.039 1.34-.073 1.892-.152 2.48-.383 2.864-.56.927-1.787 1.515-2.669 1.277zM13.76 7.06V4.27h2.497l-.012 2.576-.011 2.575-.347.032a9.956 9.956 0 0 0-1.615.268l-.51.13zm3.188-.226V4.27h2.495v5.128h-2.495z"/></svg>