<svg viewBox="0 0 24 24" xmlns="http://www.w3.org/2000/svg" role="img"><path d="m7.135 23.963-.062-.028.257-.227.257-.228v-.112c0-.134.004-.135-.223.082-.23.219-.426.398-.443.405-.008.003-.042-.017-.077-.045l-.062-.05.402-.375.403-.375v-.245l-.062.048a6.694 6.694 0 0 0-.284.263c-.417.403-.59.561-.608.561-.01 0-.041-.023-.068-.051l-.049-.052.469-.444.468-.444-.106-.007-.107-.007-.389.39c-.214.216-.399.389-.412.385-.012-.004-.037-.034-.055-.067-.033-.058-.032-.06.284-.377l.316-.318-.108-.007-.109-.007-.24.245c-.131.136-.247.241-.257.235-.01-.006-.026-.047-.034-.091-.014-.076-.008-.087.165-.261l.18-.182-.185-.21c-.179-.201-.185-.212-.163-.278a.38.38 0 0 1 .037-.085c.008-.01.113.094.233.228l.22.245h.11c.135 0 .145.016-.205-.354a2.97 2.97 0 0 1-.262-.3c-.004-.017.013-.054.038-.084l.044-.053.084.089.372.395.288.307h.272L7 22.013l-.463-.463.056-.053.057-.054.081.077c.045.042.128.123.184.179.056.056.23.226.387.377l.284.275v-.246l-.391-.388c-.39-.386-.391-.388-.343-.427a.176.176 0 0 1 .089-.039c.022 0 .054.018.07.039.016.021.152.159.302.305l.273.267v-.227l-.233-.23c-.128-.125-.228-.236-.222-.246.006-.01.046-.024.09-.033.076-.014.087-.008.253.158.096.095.184.17.197.165a2.4 2.4 0 0 0 .205-.173l.181-.165.09.027.09.027-.052.055c-.028.03-.14.132-.247.226l-.196.17v.243l.128-.119c.07-.065.216-.202.323-.305l.194-.186.068.035c.037.02.067.044.067.054 0 .017-.25.257-.663.636-.116.107-.117.109-.117.24v.133l.373-.352.463-.437a.581.581 0 0 1 .102-.084c.007 0 .035.024.062.053l.05.053-.207.198c-.113.108-.322.31-.463.448l-.257.25h.339l.348-.356a5.57 5.57 0 0 1 .365-.356c.01 0 .033.028.053.063l.036.062-.28.289-.28.288.11.007.111.007.196-.202c.108-.112.2-.202.205-.202.005 0 .02.035.034.08.03.087.04.07-.172.295l-.093.1.145.166c.09.103.14.178.132.199a.934.934 0 0 0-.026.087c-.007.03-.02.052-.028.051a2.39 2.39 0 0 1-.2-.211l-.185-.21h-.227l.043.05.064.075.19.2c.266.28.254.261.213.341-.04.075-.067.087-.095.038a8.246 8.246 0 0 0-.338-.368l-.32-.336h-.17l-.17.001.463.45.464.452-.063.06-.063.06-.462-.46-.462-.46v.272l.39.373a6.4 6.4 0 0 1 .39.392c0 .01-.032.034-.07.054l-.07.036-.248-.244a16.187 16.187 0 0 0-.314-.304l-.067-.06-.007.107-.007.106.251.238.252.237-.093.028-.094.028-.128-.119c-.07-.065-.158-.147-.193-.182-.064-.063-.066-.063-.112-.022-.39.344-.375.335-.487.285zm4.343 0-.066-.027.25-.218.249-.218v-.11c0-.06-.006-.11-.014-.11s-.153.132-.322.292l-.309.292-.068-.04c-.037-.022-.067-.046-.067-.054 0-.011.28-.28.663-.633.116-.107.117-.109.117-.24v-.134l-.358.342c-.197.189-.408.387-.47.44l-.112.1-.055-.056-.055-.055.374-.357.475-.449.1-.093h-.242l-.389.401-.388.402-.052-.073-.051-.073.327-.329.327-.329h-.25l-.23.247c-.13.14-.237.238-.248.227a.273.273 0 0 1-.039-.088c-.018-.065-.01-.077.157-.243.096-.096.176-.185.176-.196 0-.018-.083-.118-.317-.383-.035-.04-.037-.057-.015-.123a.6.6 0 0 1 .034-.085.782.782 0 0 1 .136.134c.33.368.318.358.434.35l.105-.007-.144-.156a82.37 82.37 0 0 1-.298-.323l-.153-.167.05-.074.05-.073.062.073c.033.04.201.222.372.402l.312.33.137-.002h.137l-.465-.459-.465-.459.058-.057.058-.058.207.198c.113.11.317.308.451.441l.246.242.007-.117.007-.117-.383-.383-.383-.383.052-.036a.202.202 0 0 1 .076-.037c.013 0 .158.13.324.29l.3.288.007-.103.007-.103-.229-.23c-.126-.126-.223-.235-.216-.242a.297.297 0 0 1 .093-.026c.077-.013.09-.004.256.157.096.093.182.17.191.17a.624.624 0 0 0 .121-.098c.271-.253.277-.256.392-.207l.064.028-.248.22-.249.219v.111c0 .137-.015.146.366-.214l.279-.263.068.04c.037.022.067.046.067.054s-.112.118-.249.246l-.391.365-.143.134.007.126.007.125.368-.354c.202-.196.411-.392.464-.436l.096-.081.056.055.055.056-.452.432c-.25.237-.456.44-.46.45-.004.01.066.017.155.017h.164l.351-.362.352-.362.044.052c.024.03.044.064.044.079 0 .014-.12.145-.267.292a3.352 3.352 0 0 0-.268.284c0 .009.05.017.11.017.11 0 .11 0 .293-.2.1-.11.191-.201.201-.201.01 0 .029.037.041.083.023.083.023.084-.125.233l-.15.15.044.051.147.167c.101.115.103.119.08.208-.012.05-.03.087-.038.084a3.595 3.595 0 0 1-.2-.213l-.184-.206H12.8l.047.061c.026.034.115.132.197.218.324.342.302.309.261.387-.02.038-.044.07-.055.07a.325.325 0 0 1-.092-.084c-.04-.046-.193-.212-.34-.368l-.266-.284h-.17l-.17.002.451.442c.248.243.451.452.451.463 0 .012-.022.042-.05.068l-.05.046-.457-.444-.457-.444-.007.117-.007.117.392.389c.282.279.384.394.364.408-.12.08-.07.112-.558-.361l-.195-.19v.222l.238.239.238.239-.06.023c-.11.042-.086.055-.388-.229l-.113-.107-.197.18c-.109.098-.212.178-.23.178a.358.358 0 0 1-.1-.028zm4.345 0-.065-.027.25-.22.249-.221v-.243l-.128.12-.14.13-.195.186-.185.174-.066-.04c-.036-.02-.066-.045-.066-.054 0-.008.175-.179.39-.38l.39-.363v-.262l-.359.342a20.71 20.71 0 0 1-.47.44l-.11.099-.057-.056-.056-.056.207-.198.464-.448.258-.25h-.114l-.114-.002-.391.4-.392.4-.045-.071-.046-.071.219-.223c.12-.123.26-.268.31-.323l.093-.1-.105-.008-.106-.008-.24.25a2.464 2.464 0 0 1-.247.242.636.636 0 0 1-.033-.086c-.026-.075-.024-.08.08-.189.058-.06.139-.142.178-.18a.317.317 0 0 0 .073-.088c0-.01-.081-.107-.18-.217-.115-.128-.175-.213-.167-.234a.966.966 0 0 0 .026-.087c.007-.03.02-.053.028-.053.008.001.11.111.226.246l.211.243h.245l-.124-.128c-.067-.07-.205-.216-.306-.325l-.182-.196.038-.065c.021-.036.045-.066.053-.066s.154.148.324.329l.369.39c.053.055.076.061.2.06h.142l-.468-.454-.468-.455.06-.062.062-.063.329.324c.18.179.384.376.451.44l.123.114.008-.116.008-.116-.381-.37a5.34 5.34 0 0 1-.38-.39c0-.011.027-.036.062-.056l.062-.035.309.297c.17.163.312.297.316.297a.386.386 0 0 0 .008-.107c0-.106-.002-.109-.223-.326a2.21 2.21 0 0 1-.223-.237c0-.01.035-.025.078-.033.073-.014.088-.005.26.155.1.093.19.17.198.17.01 0 .1-.076.203-.168.167-.15.193-.166.253-.154.137.03.133.039-.121.264l-.246.217v.225l.065-.053c.036-.03.181-.162.322-.294l.257-.242.068.04c.037.022.065.047.062.056-.003.008-.179.178-.39.376l-.384.361v.12c0 .13.003.136.048.092.38-.366.868-.818.883-.818.01 0 .041.023.068.052l.048.051-.362.345-.474.45-.111.104h.34l.353-.356c.193-.197.361-.354.372-.35a.21.21 0 0 1 .056.067l.037.06-.272.274c-.15.15-.273.28-.273.29 0 .008.046.016.101.016.1 0 .107-.005.3-.206.108-.114.203-.2.211-.193a.29.29 0 0 1 .027.097c.013.078.006.09-.127.224-.16.16-.162.13.03.344.097.108.107.13.096.199a.252.252 0 0 1-.03.095c-.011.01-.102-.076-.204-.193l-.184-.211h-.11c-.06 0-.11.008-.109.016 0 .01.12.142.265.295l.264.277-.035.074c-.02.04-.042.073-.05.073s-.168-.165-.356-.367l-.34-.368h-.34l.452.45c.248.248.451.457.451.464 0 .008-.023.036-.05.062l-.05.047-.134-.126a48.31 48.31 0 0 1-.462-.45l-.33-.323v.246l.39.388.39.387-.06.04a.268.268 0 0 1-.08.04c-.011 0-.16-.136-.33-.304l-.31-.305v.228l.234.227c.129.125.229.236.222.246-.006.01-.047.025-.09.033-.077.015-.087.008-.265-.169l-.184-.183-.202.18c-.11.1-.215.181-.23.18a.382.382 0 0 1-.096-.029zm-8.426-3.748a2.715 2.715 0 0 1-1.993-1.528 2.73 2.73 0 0 1-.094-2.026 2.73 2.73 0 0 1 1.63-1.638c.328-.117.527-.146 1.11-.16l.54-.014-.006.778-.006.778-.501.012c-.52.013-.56.02-.774.13a1.42 1.42 0 0 0-.42.393 1.13 1.13 0 0 0 .157 1.427c.16.159.356.268.563.312a.99.99 0 0 0 .521-.01c.37-.095.658-.35.805-.713.05-.125.05-.131.062-1.607L9 14.866l2.023-.006 2.023-.006v1.56h-2.49l-.013.742c-.01.63-.019.771-.057.942-.233 1.048-.963 1.804-2.007 2.077-.275.072-.805.09-1.083.039zm2.921-.15c.572-.607.865-1.164.984-1.866.04-.235.051-.848.022-1.165l-.017-.195h1.424l.012.05c.007.028.024.186.038.352a4.628 4.628 0 0 1-.705 2.858l-.097.15h-1.834zm5.437.16a2.85 2.85 0 0 1-.78-.251 2.687 2.687 0 0 1-1.425-1.73c-.088-.326-.104-.693-.097-2.107l.007-1.27.775-.006.774-.006v1.433c0 1.216.005 1.453.034 1.564.117.449.532.802.998.85.69.07 1.308-.527 1.256-1.217-.035-.462-.31-.83-.756-1.01-.102-.04-.178-.048-.618-.058l-.501-.013v-1.538l.501.002c.561.002.725.023 1.065.134a2.69 2.69 0 0 1 1.549 1.302c.33.616.397 1.426.172 2.099a2.7 2.7 0 0 1-2.116 1.81 3.379 3.379 0 0 1-.837.011zm-4.279-6.632-.279-.032c-1.616-.183-3.2-1.02-4.278-2.26a6.78 6.78 0 0 1-1.63-3.533c-.043-.272-.05-.419-.052-.925-.002-.655.017-.873.121-1.394a6.82 6.82 0 0 1 2.073-3.67A6.878 6.878 0 0 1 11.264.03a9.653 9.653 0 0 1 1.627.013c1.557.215 2.883.87 3.967 1.956a6.757 6.757 0 0 1 1.953 4.12c.048.46.032 1.214-.035 1.661a6.806 6.806 0 0 1-3.391 4.954 6.727 6.727 0 0 1-2.605.84c-.271.031-1.099.044-1.304.02zm.97-.432a6.329 6.329 0 0 0 3.557-1.376 6.358 6.358 0 0 0 2.36-4.252 8.25 8.25 0 0 0 0-1.467 6.38 6.38 0 0 0-3.566-5.006A6.437 6.437 0 0 0 10.93.526a6.387 6.387 0 0 0-5.16 5.091 7.26 7.26 0 0 0-.066 1.916 6.386 6.386 0 0 0 1.355 3.252c.231.291.698.758.996.995a6.411 6.411 0 0 0 3.511 1.379c.383.027.517.027.88.002zm-.196-1.253c-.055-.026-.067-.06-.082-.225a.442.442 0 0 0-.02-.12 3.276 3.276 0 0 0-.357-.022l-.346-.013-.012.054a1.189 1.189 0 0 0-.018.131l-.006.078-.417.006c-.394.006-.42.003-.463-.039-.05-.05-.06-.164-.017-.202a.9.9 0 0 1 .1-.067c.118-.07.101-.142-.064-.287-.23-.203-.326-.397-.465-.93-.191-.736-.297-1.57-.348-2.744-.008-.188-.024-.346-.034-.352-.029-.018-.233.273-.33.47a2.94 2.94 0 0 0-.247.78c-.088.47-.184.913-.203.934-.027.03-.024-.935.004-1.302.111-1.487.42-2.314 1.161-3.109.172-.183.488-.465.504-.448a.672.672 0 0 1-.078.161c-.33.568-.499 1.008-.6 1.568-.084.465-.026 1.893.117 2.897.166 1.163.379 1.775.684 1.97.152.098.388.182.597.213.834.124 1.595.022 1.837-.245.093-.103.117-.187.137-.481.022-.324.007-.34-.12-.13a.88.88 0 0 1-.13.183c-.016.005-.028-.27-.038-.924-.021-1.37-.045-1.748-.164-2.57-.098-.68-.1-.713-.087-1.076.013-.36.048-.68.146-1.33.103-.685.028-1.092-.248-1.35a.63.63 0 0 0-.464-.195c-.307-.001-.58.144-.92.492-.107.11-.195.19-.195.178 0-.012.088-.174.195-.36l.195-.337v-.279c0-.27-.002-.284-.073-.427-.132-.268-.4-.456-.869-.608-.112-.037-.193-.076-.206-.102-.045-.083.034-.087.48-.02.68.104.835.113 1.292.073.642-.055.89 0 1.15.259.27.27.321.448.352 1.238.026.658.057.802.268 1.256.203.438.744 1.618.855 1.865.327.73.44 1.185.456 1.848.01.38.004.5-.04.83-.069.52-.09.552-.146.205a5.637 5.637 0 0 0-.265-.99c-.088-.22-.531-1.095-.58-1.144-.036-.039-.04-.015-.088.666-.084 1.16-.124 1.416-.416 2.625-.075.31-.13.57-.122.578.008.008.045-.008.082-.036.037-.027.09-.047.117-.043.106.015.025.273-.12.376-.047.033-.125.053-.282.07-.236.024-.3.059-.33.178-.011.047.001.076.068.15.09.1.09.146 0 .18-.08.03-.722.026-.786-.004z"/></svg>