<svg viewBox="0 0 24 24" xmlns="http://www.w3.org/2000/svg" role="img"><path d="M13.824 23.657a3.232 3.232 0 0 0-.24-.054 2.057 2.057 0 0 1-.806-.343.938.938 0 0 0-.132-.092 1.968 1.968 0 0 1-.221-.249c-.131-.162-.265-.46-.333-.74-.015-.062-.025-.572-.032-1.649l-.01-1.559-.508-.03a9.734 9.734 0 0 1-1.024-.095 14.14 14.14 0 0 1-1.559-.316 14.178 14.178 0 0 1-1.448-.485 8.577 8.577 0 0 0-.205-.088 6.996 6.996 0 0 1-.24-.105.847.847 0 0 0-.135-.055.019.019 0 0 1-.019-.018c0-.01-.012-.02-.026-.02a6.31 6.31 0 0 1-.575-.28.73.73 0 0 0-.094-.055 4.038 4.038 0 0 1-.335-.19.639.639 0 0 0-.144-.075c-.014 0-.028-.007-.031-.016a3.737 3.737 0 0 0-.451-.299 2.017 2.017 0 0 0-.27-.207 4.088 4.088 0 0 1-.31-.236 1.496 1.496 0 0 0-.07-.053 8.674 8.674 0 0 1-.454-.39c-.284-.251-.881-.863-1.039-1.065a1.572 1.572 0 0 0-.07-.084 4.153 4.153 0 0 1-.254-.306l-.109-.15a5.5 5.5 0 0 0-.094-.125 3.366 3.366 0 0 1-.088-.122.632.632 0 0 0-.08-.1c-.008-.003-.014-.014-.014-.024a.532.532 0 0 0-.071-.116c-.04-.054-.1-.144-.134-.201a1.085 1.085 0 0 0-.075-.113c-.012-.01-.03-.037-.116-.188a1.003 1.003 0 0 0-.071-.112.738.738 0 0 1-.059-.104.431.431 0 0 0-.061-.1c-.008-.003-.014-.017-.014-.031a.088.088 0 0 0-.024-.05c-.049-.051-.497-.943-.567-1.129-.019-.049-.041-.089-.05-.089-.01 0-.016-.013-.016-.03a.532.532 0 0 0-.045-.126 3.457 3.457 0 0 1-.162-.42c0-.012-.006-.025-.014-.028-.016-.007-.111-.276-.243-.683a8.282 8.282 0 0 0-.101-.3 2.306 2.306 0 0 1-.056-.188 2.888 2.888 0 0 0-.057-.193.291.291 0 0 1-.017-.086.109.109 0 0 0-.017-.06c-.018-.019-.19-.695-.235-.92a46.4 46.4 0 0 0-.064-.31c-.09-.436-.135-.77-.135-1 0-.278.07-.727.131-.84.01-.02.019-.05.019-.067 0-.05.15-.344.233-.46.142-.194.244-.298.399-.403.06-.041.114-.08.12-.085.02-.023.318-.148.46-.193.26-.083.48-.116.779-.114.15 0 .319.011.376.024.126.028.475.136.488.15a.449.449 0 0 0 .075.044c.146.072.232.128.313.2a.854.854 0 0 0 .09.077c.01 0 .123.114.123.125 0 .005.022.031.048.06.056.06.153.204.217.322a.385.385 0 0 0 .06.091c.007.003.013.017.013.03 0 .014.022.073.048.133a3.4 3.4 0 0 1 .186.798c.025.368.1.834.192 1.193l.064.254c.098.423.324 1.033.574 1.551.056.115.1.219.1.23 0 .012.008.022.017.022.009 0 .038.044.066.098.028.055.076.141.107.193.03.051.06.109.067.127.006.018.018.033.026.033s.019.014.025.032c.01.033.05.1.069.118.005.005.052.073.103.15.052.078.1.144.108.147.008.003.014.018.014.033 0 .015.007.027.015.027s.028.023.045.051a.8.8 0 0 0 .065.093c.085.1.1.12.1.131 0 .007.02.035.046.061.025.027.103.116.173.199.13.153.54.57.711.724.217.193.597.487.63.487.01 0 .018.007.018.015s.034.036.075.061a.29.29 0 0 1 .075.06c0 .009.01.015.02.015a.19.19 0 0 1 .071.039c.063.049.33.213.501.308.209.116.711.366.737.366.013 0 .024.01.024.02s.019.018.043.018c.024 0 .05.007.06.017.01.009.099.047.197.085.098.037.195.076.216.085.02.01.11.04.197.068l.197.065c.205.075.686.211.841.239.096.016.053-.027-.103-.105a4.473 4.473 0 0 1-.416-.233 4.378 4.378 0 0 1-.213-.132.41.41 0 0 0-.097-.052.027.027 0 0 1-.024-.015.828.828 0 0 0-.128-.097 1.944 1.944 0 0 1-.132-.093.785.785 0 0 0-.08-.058c-.038-.025-.07-.053-.07-.06 0-.009-.009-.015-.02-.015a.72.72 0 0 1-.189-.134 1.86 1.86 0 0 0-.132-.105 3.217 3.217 0 0 1-.204-.168 8.741 8.741 0 0 0-.157-.139 18.8 18.8 0 0 1-.58-.582 6.477 6.477 0 0 1-.12-.14 70.32 70.32 0 0 0-.183-.22.812.812 0 0 1-.106-.144c0-.01-.006-.02-.014-.024a.89.89 0 0 1-.136-.175.792.792 0 0 0-.075-.113.528.528 0 0 1-.075-.122c0-.011-.016-.038-.037-.06a1.251 1.251 0 0 1-.106-.158.453.453 0 0 0-.086-.12c-.009 0-.015-.011-.015-.025a.4.4 0 0 0-.046-.108c-.055-.102-.25-.494-.282-.571a20.15 20.15 0 0 1-.091-.216 2.171 2.171 0 0 1-.06-.16 2.286 2.286 0 0 0-.046-.131 5.653 5.653 0 0 1-.11-.33c-.096-.299-.193-.792-.258-1.314-.027-.211-.03-.365-.022-.92.009-.635.03-.926.088-1.212.1-.496.096-.478.209-.864.143-.49.414-1.124.676-1.583.064-.11.137-.24.163-.286a.664.664 0 0 1 .06-.094 2.41 2.41 0 0 0 .099-.14c.097-.146.313-.446.331-.46.006-.006.054-.06.106-.122.19-.229.638-.687.767-.786l.17-.136c.158-.13.317-.25.462-.347a.831.831 0 0 0 .129-.097c.003-.008.015-.015.026-.015.01 0 .071-.033.134-.072.063-.04.187-.11.275-.155.087-.046.162-.09.166-.097.003-.008.014-.014.023-.014s.1-.04.2-.087a7.271 7.271 0 0 1 1.01-.383 4.51 4.51 0 0 1 .32-.092l.234-.06c.152-.04.69-.131.986-.165.664-.077 1.133-.096 1.455-.06.56.064.704.084.856.116.093.02.22.045.281.056a6.908 6.908 0 0 1 1.28.402.684.684 0 0 0 .122.047c.03 0 .56.262.666.329.052.033.145.088.207.122.137.076.315.195.41.275a.82.82 0 0 0 .1.067c.034.02.062.045.062.054 0 .01.009.017.02.017.01 0 .03.01.042.02l.07.057.12.098c.151.124.776.76.875.891l.175.226c.04.049.087.118.106.154a.437.437 0 0 0 .074.102c.022.02.04.046.04.057 0 .012.017.04.038.064.033.035.053.04.127.032.048-.005.41-.027.802-.048.392-.022.82-.047.948-.056.232-.018.904-.054 1.113-.06a.336.336 0 0 1 .12.009c.012.013-.175.258-.197.258-.007 0-.028.025-.046.055a.521.521 0 0 1-.057.08c-.013.013-.128.151-.254.306l-.262.32c-.018.02-.074.092-.125.159a2.508 2.508 0 0 1-.104.132 6.115 6.115 0 0 0-.244.3 2.578 2.578 0 0 1-.125.149 4.507 4.507 0 0 0-.158.188 3.1 3.1 0 0 1-.163.2c-.013.013-.024.03-.024.036a.38.38 0 0 1-.065.081.42.42 0 0 0-.066.08.354.354 0 0 1-.056.074c-.031.034-.057.074-.057.087 0 .013.036.033.08.045a14.01 14.01 0 0 0 .532.14 54.337 54.337 0 0 1 .966.243c.067.017.148.038.179.048.03.01.178.048.328.086a25.251 25.251 0 0 1 .583.149c.267.067.252.061.225.094a2.19 2.19 0 0 1-.261.188c-.018.01-.095.063-.172.118-.077.055-.216.15-.309.212a5.814 5.814 0 0 0-.254.177c-.046.036-.11.079-.14.096a.326.326 0 0 0-.066.044 1.13 1.13 0 0 1-.122.086c-.062.04-.16.11-.22.153a.568.568 0 0 1-.126.081c-.011 0-.02.008-.02.019a.02.02 0 0 1-.02.019c-.02 0-.107.06-.281.192a.662.662 0 0 1-.104.07c-.006 0-.1.062-.209.137a4.895 4.895 0 0 1-.242.16c-.025.014-.046.033-.046.043 0 .01-.011.018-.025.018-.046 0-.084.063-.097.16a9.396 9.396 0 0 1-.18.882l-.084.329a.68.68 0 0 1-.027.084 21.428 21.428 0 0 1-.299.808c-.025.064-.336.69-.392.789a4.43 4.43 0 0 1-.122.2 5.365 5.365 0 0 1-.354.542c-.009.007-.075.09-.148.188-.072.098-.15.2-.171.225a10.81 10.81 0 0 1-.526.545.712.712 0 0 0-.113.1 6.079 6.079 0 0 1-1.05.775.424.424 0 0 0-.075.048 1.203 1.203 0 0 1-.14.082l-.16.086a20.55 20.55 0 0 1-.48.223c-.134.06-.374.15-.398.15-.013 0-.024.009-.024.02 0 .01-.016.018-.036.018-.02 0-.104.023-.186.05-.114.037-.153.059-.161.089-.006.022-.011 1.578-.011 3.458 0 1.956-.008 3.467-.018 3.531a2.555 2.555 0 0 1-.121.505 1.388 1.388 0 0 1-.176.379.591.591 0 0 0-.036.065c-.063.144-.41.475-.602.573-.08.041-.15.08-.156.084-.021.022-.267.096-.441.134-.201.044-.672.065-.76.035zm.507-12.527c.14-.02.313-.054.385-.075.18-.052.506-.174.514-.192.003-.008.027-.015.051-.015.025 0 .046-.007.046-.016 0-.008.032-.03.07-.048.091-.043.397-.233.448-.278a.15.15 0 0 1 .052-.034c.026 0 .467-.436.583-.576a.239.239 0 0 0 .049-.078c0-.01.006-.022.014-.025a1.41 1.41 0 0 0 .174-.25c.338-.603.471-1.094.47-1.738 0-.327-.009-.411-.079-.742-.05-.24-.22-.704-.262-.72-.01-.003-.017-.018-.017-.033 0-.057-.269-.49-.395-.634-.206-.239-.721-.689-.787-.689-.011 0-.02-.006-.02-.014s-.019-.023-.042-.035a84.103 84.103 0 0 1-.272-.136 2.067 2.067 0 0 0-.255-.115.07.07 0 0 1-.042-.017 1.834 1.834 0 0 0-.365-.114l-.17-.038a2.85 2.85 0 0 0-.654-.057 2.56 2.56 0 0 0-.68.068c-.296.061-.799.24-.822.294-.003.008-.019.014-.034.014a.3.3 0 0 0-.128.062 1.15 1.15 0 0 1-.088.057 4.222 4.222 0 0 0-.298.199 2.9 2.9 0 0 1-.122.103 2.682 2.682 0 0 0-.363.362 4.562 4.562 0 0 1-.109.131c-.152.175-.367.554-.477.842l-.058.15c-.025.06-.106.414-.14.614-.043.255-.02.929.037 1.143l.033.131c.03.136.172.532.223.624a.14.14 0 0 1 .018.053c0 .01.009.03.019.042.01.013.067.103.125.201.058.098.117.191.13.207.015.015.062.075.105.131.115.15.246.29.402.432.221.2.623.462.842.548.05.02.131.054.178.076.048.022.112.046.143.054l.235.062c.417.11.88.134 1.333.068zM14 9.167a1.706 1.706 0 0 1-.368-.105.167.167 0 0 0-.069-.018c-.02 0-.04-.007-.042-.015a.518.518 0 0 0-.12-.075 1.158 1.158 0 0 1-.258-.18.166.166 0 0 0-.04-.03 1.81 1.81 0 0 1-.18-.181.177.177 0 0 0-.033-.042c-.187-.2-.332-.503-.4-.838a1.331 1.331 0 0 1-.03-.434 1.83 1.83 0 0 1 .117-.586c.17-.382.336-.603.606-.807a1.83 1.83 0 0 1 1.13-.38c.308 0 .6.068.842.197a.734.734 0 0 0 .148.066c.013 0 .024.007.024.015 0 .01.046.048.103.087.103.071.296.272.403.42a.303.303 0 0 0 .072.079c.008 0 .023.027.035.06.012.034.055.138.095.23.111.254.128.349.126.715 0 .29-.006.334-.051.483-.047.154-.173.444-.202.465a.44.44 0 0 0-.051.082c-.072.133-.414.46-.577.549l-.123.068c-.302.168-.79.242-1.157.175zM6.34 22.832a2.15 2.15 0 0 1-.54-.241 1.83 1.83 0 0 1-.412-.436.883.883 0 0 1-.091-.163c0-.012-.007-.024-.016-.028a.978.978 0 0 1-.08-.203c-.059-.186-.063-.214-.063-.46 0-.272.018-.377.106-.602.108-.271.349-.56.62-.74.08-.052.15-.096.158-.096.007 0 .068-.021.134-.048.153-.06.385-.102.58-.102.264 0 .702.138.844.266.021.02.048.035.06.035.011 0 .023.006.027.014a.421.421 0 0 0 .077.067 1.586 1.586 0 0 1 .345.427c.036.043.128.276.156.39.013.054.028.095.034.089a1.3 1.3 0 0 0 .06-.165c.052-.16.152-.364.217-.445l.098-.115a.286.286 0 0 0 .061-.09c0-.013.01-.022.02-.022s.071-.04.136-.09c.165-.128.228-.162.398-.218l.207-.07c.094-.032.424-.043.566-.017.63.112 1.067.508 1.264 1.145.04.125.042.166.035.413-.008.246-.015.292-.07.452a1.467 1.467 0 0 1-.152.33c0 .05-.323.388-.443.464a1.479 1.479 0 0 1-.864.258c-.71 0-1.306-.458-1.503-1.155l-.032-.113-.015.068c-.028.128-.168.448-.218.502-.013.014-.024.031-.024.039a.66.66 0 0 1-.085.116l-.1.12a.643.643 0 0 1-.076.066c-.033.026-.088.07-.12.099a.396.396 0 0 1-.093.062c-.018.006-.033.019-.033.028 0 .01-.008.018-.018.018a.915.915 0 0 0-.14.056c-.21.096-.392.132-.653.13a1.656 1.656 0 0 1-.363-.035zm12.305-.038a1.814 1.814 0 0 1-1.1-.648 1.78 1.78 0 0 1-.338-1.55 1.786 1.786 0 0 1 1.2-1.261l.15-.047c.016-.006-.042-.03-.128-.056a1.696 1.696 0 0 1-1.185-2.047 1.717 1.717 0 0 1 1.068-1.175 1.9 1.9 0 0 1 .908-.063 1.694 1.694 0 0 1 1.33 1.387c.021.127.014.495-.013.631l-.013.065.111-.093a1.666 1.666 0 0 1 1.933-.183c.201.118.477.397.59.595a1.638 1.638 0 0 1-.262 1.986c-.178.18-.316.276-.527.366-.532.226-1.114.158-1.62-.188a1.593 1.593 0 0 0-.133-.086.53.53 0 0 0 .028.117c.077.252.087.597.026.87a1.777 1.777 0 0 1-1.258 1.333 1.367 1.367 0 0 1-.422.057c-.14.004-.295 0-.345-.01zm1.47-3.251a1.37 1.37 0 0 1-.03-.43 2.62 2.62 0 0 1 .023-.301c.013-.044.008-.043-.06.021a1.833 1.833 0 0 1-.672.385c-.144.04-.162.055-.08.071a1.9 1.9 0 0 1 .783.384c.036.03.068.054.07.051a1.521 1.521 0 0 0-.034-.181z"/></svg>