<svg role="img" viewBox="0 0 24 24" xmlns="http://www.w3.org/2000/svg"><path d="M11.871 23.948a5.261 5.261 0 0 1-.183-.235c-.66-.885-.91-1.168-1.394-1.58-.502-.426-1.038-.803-1.961-1.377-1.637-1.018-2.208-1.5-2.765-2.334a6.343 6.343 0 0 1-.536-1.03.97.97 0 0 0-.09-.2c-.007 0-.082.058-.167.129-.158.133-.4.41-.558.636a.645.645 0 0 1-.104.129c-.083.002-.107-1.331-.034-1.96.148-1.268.483-2.325 1.053-3.32.141-.247.142-.248.148-.16.054.835.39 1.65 1.042 2.523.087.116.166.216.176.222.023.014.575-.425.575-.456 0-.008-.06-.109-.134-.225a6.402 6.402 0 0 1-.929-2.443 1.758 1.758 0 0 0-.048-.25 17.13 17.13 0 0 0-.992.039 52.89 52.89 0 0 1-1.266.055c-.275.004-.291.001-.394-.059a.706.706 0 0 1-.34-.624c0-.336.214-.577.578-.653.108-.022.232-.018.7.02a35.37 35.37 0 0 0 1.54.098l.195.006.016-.08c.009-.043.033-.193.054-.331.123-.812.489-1.715.984-2.43.085-.122.159-.235.165-.25.013-.034-.354-.376-1.271-1.184-.206-.182-.41-.362-.451-.4a.726.726 0 0 1-.133-.183c-.133-.27-.094-.57.102-.77.208-.214.453-.277.718-.183.174.06.257.137.683.62l.754.852.382.43.191-.152a6.272 6.272 0 0 1 2.369-1.153l.343-.088.007-.333.007-.334-2.357-.006-2.357-.006-.114-.073a.94.94 0 0 1-.332-.417 1.664 1.664 0 0 1-.068-.307c-.063-.508.123-.9.5-1.052l.13-.053 2.346-.006c1.843-.005 2.343-.012 2.334-.035a91.139 91.139 0 0 0-.183-.394c-.273-.586-.32-.744-.332-1.105-.008-.259-.003-.325.037-.458.11-.362.39-.681.755-.865a1.46 1.46 0 0 1 .714-.154c.394 0 .628.1 1.005.422.16.137.799.781 2.208 2.226l.4.41 1.077.003 1.076.003.138.064c.338.158.516.468.516.899 0 .363-.147.671-.395.827-.172.11-.293.124-1.048.124h-.7v.79c0 .435.006.791.014.791.012 0 .299-.31 1.035-1.122a3.04 3.04 0 0 1 .262-.26.765.765 0 0 1 .431-.13c.233 0 .507.192.612.43.068.152.05.41-.039.573-.09.165-.025.106-1.553 1.425l-.357.308.144.208c.606.877.994 1.868 1.096 2.807l.03.262.147-.005c.082-.003.484-.026.894-.05.41-.025.925-.052 1.146-.06.381-.014.407-.012.516.036a.765.765 0 0 1 .363.39c.033.09.04.16.033.284-.022.327-.21.55-.536.633-.151.039-.43.034-1.156-.02-1.093-.082-1.371-.1-1.404-.087-.02.008-.046.098-.072.25-.153.892-.44 1.607-.957 2.386-.099.148-.18.283-.18.299 0 .016.04.066.086.112.125.118.462.385.488.385.032 0 .251-.303.426-.589.32-.526.658-1.314.744-1.737.023-.114.057-.353.076-.532.03-.284.06-.42.095-.42s.29.596.459 1.07a9.109 9.109 0 0 1 .553 3.377 6.955 6.955 0 0 1-.108 1.203c-.055.325-.084.424-.124.424-.016 0-.094-.147-.173-.326-.164-.37-.205-.448-.315-.585-.072-.09-.144-.127-.144-.076 0 .037-.336.727-.474.974-.192.343-.441.71-.63.93-.412.476-1.145 1.028-1.967 1.481-.673.371-.853.472-1.112.622a9.108 9.108 0 0 0-.905.588c-.55.395-1.214 1.123-1.628 1.784-.069.11-.131.2-.139.2a.198.198 0 0 1-.06-.05zm.428-.86a7.178 7.178 0 0 1 1.226-1.222c.487-.365.841-.58 1.96-1.192.926-.505 1.219-.709 1.704-1.186.657-.645 1.045-1.273 1.309-2.119.084-.269.148-.383.213-.383.094 0 .34.239.548.533.094.133.096.134.109.07.064-.307.084-1.196.038-1.635a11.18 11.18 0 0 0-.164-1.089c-.078-.389-.12-.538-.179-.65l-.041-.078-.015.135a17.15 17.15 0 0 0-.038.56c-.041.726-.09 1.056-.241 1.638-.115.438-.2.674-.358.984-.44.868-1.027 1.486-1.75 1.845-.492.244-.842.33-1.353.33-.487 0-.898-.098-1.29-.307-.55-.294-.968-.826-1.164-1.48-.06-.197-.062-.23-.083-1.063a97.997 97.997 0 0 1-.013-2.378l.008-1.518-.047.014a4.54 4.54 0 0 0-.574.294l-.126.081v5.089c.001 2.798.009 5.088.018 5.087.009 0 .145-.163.303-.36zm-3.12-3.774a2.37 2.37 0 0 0 1.238-.845c.108-.148.278-.484.278-.55 0-.032-.05.005-.178.13a2.253 2.253 0 0 1-2.044.666c-.952-.154-1.901-.905-2.336-1.846-.08-.174-.197-.504-.181-.513.11-.06.447-.145.655-.164.111-.01.164-.025.164-.045a.056.056 0 0 0-.022-.043c-.033-.02-.376-.468-.59-.768a9.07 9.07 0 0 1-.833-1.427.882.882 0 0 0-.093-.177c-.045-.003-.059 1.18-.02 1.594.103 1.064.447 2.056.949 2.737.5.678 1.189 1.134 1.926 1.274.218.042.886.027 1.087-.023zm6.455-.608a2.842 2.842 0 0 0 1.12-.57c.238-.194.564-.6.538-.667a1.7 1.7 0 0 0-.122-.152c-.924-1.074-1.187-1.363-1.237-1.362-.013 0-.122.072-.242.16-.801.586-1.25.81-2.154 1.077-.22.065-.42.125-.442.133-.035.014-.028.04.073.246.294.599.754.992 1.342 1.148.187.05.243.054.574.046.284-.007.408-.02.55-.059zm-6.84-.208c.012 0 .021-.015.021-.033 0-.057-.16-.402-.248-.533-.237-.354-.222-.316-.22-.544.001-.136.019-.272.052-.396.059-.22.089-.465.057-.465a.537.537 0 0 0-.123.065c-.244.155-.39.385-.407.636-.013.183.052.416.203.736.064.136.138.3.164.362a.965.965 0 0 0 .062.13c.016.02.345.062.387.05a.219.219 0 0 1 .052-.007zm.575-.038c.153-.037.16-.04.145-.098a6.513 6.513 0 0 0-.284-.653c-.026-.016-.345.227-.346.262 0 .02.043.145.096.281.111.283.101.277.39.208zm-1.356-.132c0-.005-.05-.141-.113-.303-.164-.43-.191-.553-.18-.81.006-.176.02-.244.07-.352.074-.16.317-.411.492-.51a.44.44 0 0 0 .12-.082c0-.013-.081-.085-.46-.4-.04-.034-.049-.023-.66.77-.17.221-.363.47-.43.553a.863.863 0 0 0-.123.177.97.97 0 0 0 .14.188 2.8 2.8 0 0 0 .926.694c.182.081.218.094.218.075zm1.893-.077c.094-.051.216-.156.216-.185 0-.013-.037-.104-.083-.202a25.61 25.61 0 0 1-.215-.489 28.45 28.45 0 0 0-.174-.4c-.063-.137-.196-.316-.219-.294-.034.034-.112.376-.112.49 0 .105.112.407.362.977.069.158.1.172.225.103zm.7-.69c.062-.093.113-.183.115-.2l.006-.057c.002-.022-.648-.201-.737-.203-.02 0-.014.035.02.12.071.183.196.456.264.577l.06.107.08-.087c.045-.048.132-.164.193-.257zm-1.66.064c.052-.08.08-.189.172-.693.23-1.248.273-1.526.249-1.613-.054-.193-.21-.247-.353-.122-.067.06-.08.09-.104.235a98.332 98.332 0 0 1-.268 1.51c-.096.514-.097.579-.02.692.052.077.067.085.16.085s.106-.007.164-.094zm8.607-.598c.135-.27.135-.278-.01-.349a3.457 3.457 0 0 0-.696-.174c-.024 0 0 .045.075.142.143.184.512.571.532.559a1.18 1.18 0 0 0 .099-.178zm-10.872.016c.104-.113.438-.559.438-.585 0-.01-.131-.024-.292-.032-.23-.012-.321-.008-.425.02-.073.02-.138.035-.144.035-.027 0-.002.098.068.258.082.187.213.407.242.407.01 0 .06-.046.113-.103zm6.607-.012c.396-.08 1.113-.363 1.553-.612.91-.514 1.755-1.408 2.249-2.379.456-.897.644-1.805.592-2.861-.102-2.045-1.318-3.87-3.194-4.794-.539-.265-1.05-.438-1.364-.463l-.172-.013.007.438.007.438.097.025c.297.077.758.251 1.065.403.685.339 1.218.79 1.704 1.441.337.45.586.945.743 1.472a5.23 5.23 0 0 1 .184 1.553c-.069 1.277-.539 2.314-1.45 3.2-.473.46-.922.766-1.462.998-.267.115-.66.238-.76.238-.067 0-.077.067-.077.553 0 .28.008.41.025.41.014 0 .128-.022.253-.047zm-2.387-.454v-.455l-.097-.024a9.702 9.702 0 0 1-.365-.107 3.426 3.426 0 0 0-.295-.083 1.11 1.11 0 0 0-.197.125 1.19 1.19 0 0 1-.292.16.46.46 0 0 0-.172.09l-.051.055.224.23c.217.22.231.23.397.28.205.06.723.18.796.182l.052.002zm5.994-.466c.064-.067.14-.151.171-.186l.055-.064-.147-.15c-.16-.164-.399-.353-.446-.353-.033 0-.378.34-.378.373 0 .025.209.272.386.457l.126.13.059-.042a1.77 1.77 0 0 0 .174-.165zm-9.372-.147a2.32 2.32 0 0 0 .192-.277c0-.023-.366-.443-.452-.52-.046-.04-.053-.036-.325.183-.152.122-.277.235-.277.25 0 .035.25.347.44.55.166.178.137.191.422-.186zm.994.013a3.538 3.538 0 0 0-.149-.186 1.218 1.218 0 0 1-.164-.27c-.055-.133-.063-.182-.064-.403 0-.203.01-.287.053-.427l.054-.174-.083-.11c-.441-.577-.794-1.337-.93-2.001-.128-.63-.114-1.477.035-2.067a4.737 4.737 0 0 1 1.27-2.248c.601-.603 1.148-.92 2.127-1.239l.235-.076V5.87h-.058c-.031 0-.173.025-.315.056-1.236.268-2.39 1.042-3.25 2.179a5.435 5.435 0 0 0-.913 1.94c-.232.947-.228 1.972.011 2.86.2.74.57 1.476 1.053 2.091.264.338 1.023 1.05 1.118 1.05.01 0-.003-.03-.03-.068zm1.176-.049c.2-.101.185-.083.769-.937l.276-.4c.179-.259.23-.396.23-.608a.844.844 0 0 0-.029-.238l-.028-.066-.12.123c-.174.178-.386.463-.79 1.067-.38.568-.397.605-.442.976-.018.151-.01.156.134.083zm3.718-.138c.5-.152 1.096-.491 1.432-.816l.103-.1-.079-.061c-.424-.332-1.341-1.224-1.663-1.617a1.633 1.633 0 0 0-.176-.197c-.01-.001-.013.037-.01.084.005.048.01.698.011 1.446l.003 1.36.075-.015c.04-.008.177-.046.304-.084zm-2.51-.443c0-.284-.006-.516-.013-.516-.06 0-.617.846-.58.881.005.004.101.036.215.07l.229.07a.456.456 0 0 0 .086.009l.063.002zm-2.246.158c.101-.395.236-.665.545-1.095.125-.172.27-.409.34-.553.097-.2.16-.294.308-.458.103-.113.202-.236.22-.273l.035-.066-.15.012a.998.998 0 0 0-.499.204c-.091.082-.243.293-.649.898-.419.627-.46.72-.443.986.006.098.03.21.06.277.052.115.161.275.178.259.005-.005.03-.09.055-.19zm1.11-.699a5.07 5.07 0 0 0 .21-.306c.007-.017-.018-.041-.06-.058a1.958 1.958 0 0 1-.195-.105l-.125-.075-.078.095c-.126.155-.335.473-.335.51 0 .018.019.033.042.033a.59.59 0 0 1 .178.09c.074.05.142.09.15.091.008.001.105-.122.214-.275zm5.637-.341c.113-.125.108-.18-.035-.39a5.682 5.682 0 0 0-.774-.918c-.498-.496-.996-.887-1.317-1.034-.067-.03-.088-.014-.258.203l-.057.073.113.164a8.932 8.932 0 0 0 1.848 1.954l.228.173.084-.066c.046-.037.122-.108.168-.16zm-6.783-.43c.113-.161.28-.402.372-.536.336-.49.646-.671 1.138-.66l.19.004.107-.112c.067-.07.107-.133.108-.168 0-.106-.08-.46-.106-.46-.032 0-.57.337-.702.439a7.466 7.466 0 0 0-1.062 1c-.202.231-.422.52-.422.553 0 .028.14.232.16.231.006 0 .104-.132.217-.292zm1.462.15c.078-.023.167-.113.62-.625 1.033-1.164 1.08-1.222 1.075-1.333a.267.267 0 0 0-.176-.238c-.138-.046-.17-.022-.561.424-.144.164-.268.303-.275.31a65.09 65.09 0 0 0-.797.887 1.723 1.723 0 0 0-.201.26c-.021.066.003.179.057.268.051.083.105.093.258.047zm5.74-.3c.32-.491.554-1.094.624-1.602l.019-.14-.438.02c-.62.03-1.479.02-1.882-.021a5.894 5.894 0 0 0-.348-.03c-.003.003.131.12.298.26.317.266.832.761 1.057 1.015.073.082.221.265.33.407.11.141.206.257.215.257a.848.848 0 0 0 .124-.165zm-7.707-.026.365-.435c.36-.428.577-.636 1.064-1.022.167-.132.304-.254.304-.27 0-.022-.015-.02-.059.01-.051.033-.121.036-.636.024a8.155 8.155 0 0 1-1.471-.141 2.903 2.903 0 0 0-.282-.048 4.4 4.4 0 0 0 .32 1.238c.094.214.339.677.358.677.006 0 .023-.015.037-.032zm3.94-.891c.152-.075.19-.11.384-.342.119-.143.375-.444.569-.67.194-.225.372-.455.397-.51.096-.219.104-.557.012-.557-.062 0-.17.122-1.27 1.42-.177.209-.39.448-.473.532-.209.208-.205.234.03.22a.736.736 0 0 0 .35-.093zm-.872-1.07c.332-.37.58-.671.793-.963a4.37 4.37 0 0 1 .32-.378c.203-.21.325-.36.325-.403 0-.04-.28-.015-.413.038-.169.065-.255.142-.575.514a41.44 41.44 0 0 1-.367.423c-.264.295-.425.5-.473.605-.063.135-.09.35-.064.519l.016.108.07-.066c.038-.036.204-.215.368-.398zm9.363.124a.366.366 0 0 0 .214-.198.446.446 0 0 0-.12-.528.645.645 0 0 0-.398-.117c-.146-.001-1.98.113-2.183.135l-.12.013v.566l.108.013c.166.02.947.082 1.462.116.661.043.935.043 1.037 0zm-8.389-.087c.099-.107.225-.286.21-.298a1.88 1.88 0 0 1-.3-.202l-.108-.089-.15.178c-.166.2-.168.17.016.303a.75.75 0 0 1 .133.131c.03.042.067.076.081.076.015 0 .068-.044.118-.1zm-2.149-.038c.275-.031.438-.077.494-.139.05-.055.286-.441.276-.451-.015-.015-.378-.076-.695-.118-.92-.122-1.849-.116-2.596.015l-.103.018-.006.245-.006.245.095.025c.303.082.786.16 1.178.192a15.44 15.44 0 0 0 1.364-.032zm6.166.002c.107-.013.228-.03.27-.037l.075-.013-.006-.255-.006-.255-.069-.02a6.565 6.565 0 0 0-.759-.141c-.574-.073-1.045-.07-1.73.012l-.22.026-.04.129a2.41 2.41 0 0 1-.12.284c-.055.11-.069.158-.048.164.066.022.509.086.797.116.35.036 1.524.03 1.857-.01zm-11.54-.037c1.181-.076 1.306-.085 1.314-.092.013-.012.016-.6.003-.613-.027-.027-1.948-.176-2.266-.176a.538.538 0 0 0-.431.202c-.137.179-.082.489.113.643.127.1.227.103 1.266.036zm7.99-.555c.072-.06.198-.189.642-.659.777-.824.937-1 .95-1.053.01-.041-.002-.093-.04-.168l-.056-.108-.148-.007-.148-.007-.264.27c-.753.77-1.275 1.325-1.31 1.39-.075.138-.043.285.078.359.106.064.203.058.296-.018zm3.848-.37c0-.124-.061-.457-.126-.688-.11-.394-.36-.936-.46-1.002-.055-.036-.062-.036-.114.005-.03.024-.231.245-.448.49-.542.617-.621.696-.8.79a1.187 1.187 0 0 1-.66.143c-.173-.012-.19-.01-.18.026.006.021.018.082.026.135.01.066.029.101.058.11.023.008.226-.004.45-.025a8.56 8.56 0 0 1 1.795.047c.208.028.397.054.419.055.031.002.04-.015.04-.085zm-5.572-.307.002-.271-.164-.222a10.132 10.132 0 0 0-1.403-1.504c-.252-.216-.553-.41-.61-.391-.05.016-.298.284-.299.322 0 .043.383.604.568.834a7.57 7.57 0 0 0 1.198 1.147c.056.044.231.166.389.27.337.223.315.236.318-.185zm-2.928.291a10.768 10.768 0 0 1 1.761.002c.221.021.446.035.5.03l.097-.006-.155-.119c-.697-.531-1.385-1.25-1.784-1.864a41.512 41.512 0 0 0-.119-.181c-.02-.03-.34.462-.465.72a4.598 4.598 0 0 0-.397 1.358c-.01.097-.01.097.066.097.042 0 .266-.016.496-.036zm6.394-.567c.134-.064.287-.208.585-.552.086-.1.276-.316.422-.481.146-.165.277-.32.29-.345.044-.08-.113-.31-.212-.31-.036 0-.183.158-.767.825-.51.583-.554.63-.722.77l-.112.095.067.038c.097.054.288.037.45-.04zm-1.653-3.045V4.746h4.962l.115-.054a.649.649 0 0 0 .312-.327c.047-.132.041-.519-.009-.663a.607.607 0 0 0-.326-.335l-.115-.053-2.53-.003-2.53-.003-.232-.238c-1.102-1.133-1.095-1.124-1.14-1.4-.083-.519.257-.958.743-.958.29 0 .543.19.657.493.055.148.059.268.014.456-.028.12-.027.143.003.19.02.029.044.053.054.053.03 0 .439-.226.485-.268.092-.083.033-.493-.111-.767-.232-.441-.813-.72-1.327-.638-.54.086-.916.434-1.032.954-.076.34.018.721.374 1.52a15.402 15.402 0 0 0 .28.602c0 .004-1.107.006-2.462.006H6.435l-.065.048c-.125.093-.149.305-.052.464l.044.072h5.616v3.045c0 1.675.005 3.05.01 3.055.007.006.171-.02.367-.058l.357-.069zm-1.819 2.086a62.095 62.095 0 0 1-.015-1.419v-.934l-.143.034a4.325 4.325 0 0 0-1.77.928c-.013.013-.003.034.029.056.315.22 1.29 1.153 1.718 1.642.085.098.164.178.175.178.013 0 .015-.197.006-.484zm2.442.059c.393-.36 1.076-1.1 1.118-1.21.027-.071.03-.21.009-.366-.01-.078-.025-.106-.053-.106-.04 0-.323.281-.623.619-.597.67-.663.773-.68 1.06-.007.119-.002.177.014.177a1.3 1.3 0 0 0 .215-.174zm1.325-.298c.094-.108.175-.206.18-.216.003-.01-.023-.035-.06-.054a1.235 1.235 0 0 1-.184-.14c-.066-.06-.128-.104-.138-.1-.011.005-.09.088-.174.186l-.154.177.168.168c.092.092.172.17.179.172a1.69 1.69 0 0 0 .183-.193zm-1.506-.416c.195-.205.364-.392.543-.602.07-.081.213-.244.318-.361.105-.118.187-.219.181-.224-.03-.03-.42-.23-.579-.297-.186-.077-.518-.172-.605-.172-.048 0-.048.003-.048.917 0 .504.005.917.01.917.006 0 .087-.08.18-.178zm1.883-.11c.079-.037.15-.157.15-.253 0-.07-.166-.254-.32-.352a.732.732 0 0 0-.123-.07 1.01 1.01 0 0 0-.015.242c0 .263.022.337.128.42.073.058.084.059.18.014zm-7.45-1.249a1.39 1.39 0 0 0 .196-.235c0-.042-.788-.958-1.347-1.567-.227-.247-.32-.306-.483-.306-.27 0-.46.184-.461.444 0 .226-.016.209.915 1.021.182.159.47.415.642.568.17.154.317.28.325.281.008 0 .104-.092.212-.206zm9.184-.016c1.018-.842 1.534-1.303 1.596-1.426.06-.117.068-.271.02-.363-.136-.26-.553-.343-.76-.15a11.7 11.7 0 0 0-.295.317l-.334.367c-.046.05-.15.168-.23.262-.527.606-.664.77-.664.79 0 .032.37.404.4.404.014 0 .133-.09.267-.201zm-.895-.596c.056-.109.056-.11.063-.951l.007-.842h-.415v.62c0 .34-.012.717-.026.836-.025.202-.024.22.017.266.052.058.236.18.273.18.015 0 .051-.05.082-.109zm-.703-.421c.046-.233-.007-.453-.125-.514-.164-.084-.292.006-.33.23-.012.08-.006.1.038.142.053.048.35.214.384.214.01 0 .025-.033.033-.072zM14.487 6a2.15 2.15 0 0 0 .12-.699l.013-.326h-.464l.003.418c0 .23.009.448.017.485.01.05.04.08.118.12.13.066.174.067.193.002zm-.583-.601v-.424h-.894v.18c0 .099.007.242.014.318l.015.138.163.048c.165.05.62.158.673.162.022 0 .029-.098.029-.422zm1.36.12c.007-.041.02-.18.028-.31l.016-.234h-.465v.55l.063.002c.035 0 .11.015.166.031.163.047.177.044.192-.039zm-.111-2.49c.05-.02.09.024-.602-.682-.344-.352-.442-.418-.71-.48-.202-.048-.48-.033-.636.035-.153.066-.29.162-.282.198.004.016.073.098.154.182l.148.153.162-.035c.285-.063.443.011.835.39l.266.257h.31c.17 0 .33-.01.355-.019zm-1.148-.024c.017-.027-.197-.261-.292-.32-.076-.046-.245-.088-.245-.06 0 .028.204.28.276.341.072.061.233.085.261.04zm-.676-.087a61.608 61.608 0 0 0-.629-.64c-.305-.308-.573-.598-.601-.652-.076-.142-.068-.245.028-.38.107-.147.113-.163.08-.203-.043-.052-.25-.105-.342-.088-.254.046-.42.271-.42.571 0 .24.035.29.65.913l.56.565h.753zm-.897-1.432c.006-.066-.003-.09-.041-.11-.098-.052-.157.076-.076.165.06.066.11.042.117-.055zm1.257.033a.377.377 0 0 0-.17-.164c-.05-.026-.05-.024-.05.1v.127h.252z"/></svg>