<svg role="img" viewBox="0 0 24 24" xmlns="http://www.w3.org/2000/svg"><path d="M22.421 24H12.38v-9.82c.134-1.583.372-3.041.956-4.082.347.195.967 1.056 1.152 2.723.453-.818 1.004-1.735 2.005-2.317.068 1.806-.04 2.493-.546 3.75-.71 1.764-2.664 2.174-2.664 2.174v6.67h8.235c0-5.428.103-10.857 0-16.284a2.577 2.577 0 0 0-.199-.924 2.572 2.572 0 0 0-1.328-1.343h-.001c.179-.275.362-.521.543-.742a3.467 3.467 0 0 1 1.693 1.93c.13.368.193.755.195 1.146zm-10.8 0H1.578V6.88a3.51 3.51 0 0 1 .195-1.145 3.46 3.46 0 0 1 1.693-1.93c.181.22.364.467.543.741A2.572 2.572 0 0 0 2.68 5.89a2.577 2.577 0 0 0-.199.924c-.103 5.427 0 10.856 0 16.283h8.235v-6.669s-1.954-.41-2.664-2.175c-.506-1.256-.614-1.943-.546-3.749 1 .582 1.552 1.5 2.005 2.317.185-1.667.805-2.528 1.152-2.723.584 1.04.822 2.499.956 4.081zm9.87-21.722c-1.586 1.143-3.442 3.64-3.66 6.27-.178 2.14-.544 3.076-.817 3.477a8.145 8.145 0 0 0-.016-2.495c-.303.134-.806.443-1.267.901-.057-.187-.527-1.15-2.075-.723a10.6 10.6 0 0 1 .248-.71 11.377 11.377 0 0 1 .793-1.631 12.14 12.14 0 0 1 2.282-2.81c.296-.267.605-.52.928-.754.904-.655 1.925-1.178 3.018-1.425.187-.043.376-.075.566-.1zm-18.982 0c1.586 1.143 3.442 3.64 3.66 6.27.178 2.14.544 3.076.817 3.477a8.145 8.145 0 0 1 .016-2.495c.303.134.806.443 1.267.901.057-.187.527-1.15 2.075-.723a10.6 10.6 0 0 0-.248-.71 11.377 11.377 0 0 0-.793-1.631 12.14 12.14 0 0 0-2.282-2.81 10.97 10.97 0 0 0-.928-.754c-.904-.655-1.925-1.178-3.018-1.425a6.276 6.276 0 0 0-.566-.1zm10.45 7.665c-.174-.127-.448-.355-.965-.353-.517.001-.785.23-.953.353-.129-.812-.662-1.786-1.13-2.728.21-.398.839-1.78 1.006-2.304.446-1.39.835-3.095 1.083-4.014.238.922.627 2.685 1.083 4.014.178.52.796 1.906 1.007 2.304-.469.942-1.002 1.916-1.131 2.728zM15.795.614a3.374 3.374 0 0 1-.11.585c-.256.92-.848 1.702-1.49 2.39-.12.128-.241.253-.364.377-.116.117-.233.232-.35.348a17.332 17.332 0 0 0 .975 2.3 12.81 12.81 0 0 1 1.922-2.32c-.239-.455-.376-.958-.464-1.463-.126-.73-.15-1.476-.12-2.217zm-7.59 0a3.374 3.374 0 0 0 .11.585c.256.92.848 1.702 1.49 2.39.12.128.241.253.364.377.116.117.233.232.35.348a17.332 17.332 0 0 1-.975 2.3 12.81 12.81 0 0 0-1.922-2.32c.239-.455.376-.958.464-1.463.126-.73.15-1.476.12-2.217zm8.26 1c.12-.952 1.196-1.023 1.86-.8.952.319 1.281 1.209.515 1.703-.369.239-.766.434-1.125.684-.302.21-.593.437-.873.675l-.004-.01c-.323-1.036-.44-1.72-.373-2.252zm-8.93 0C7.415.662 6.339.59 5.675.814c-.952.319-1.281 1.209-.515 1.703.369.239.766.434 1.125.684.302.21.593.437.873.675l.004-.01c.323-1.036.44-1.72.373-2.252zm5.194-.445c-.11-.752.677-1.242 1.24-1.16.37.054 1.374.31 1.092 1.172-.11.336-.274.653-.466.95-.337.518-.759.972-1.191 1.41a61.42 61.42 0 0 1-.128.128 17.582 17.582 0 0 1-.547-2.5zm-1.458 0c.11-.752-.677-1.242-1.24-1.16-.37.054-1.374.31-1.092 1.172.11.336.274.653.466.95.337.518.759.972 1.191 1.41l.128.128a17.582 17.582 0 0 0 .547-2.5z"/></svg>