<svg viewBox="0 0 24 24" xmlns="http://www.w3.org/2000/svg" role="img"><path d="M3.03 16.241v-1.046l.27-.067c.75-.183 1.202-.59 1.435-1.288l.072-.217.01-2.033.01-2.033h2.1v1.7H8.26l-.152-.12c-.373-.294-.626-.858-.626-1.393v-.187h2.838c3.132 0 3.038-.005 3.373.195.392.235.778.79.892 1.282l.052.224h.643c.602 0 .647-.004.705-.062.059-.059.062-.103.062-.85v-.789h2.102v1.7h1.794c1.752 0 1.795 0 1.855-.061.059-.059.062-.103.062-.85v-.789H24l-.014 1.044c-.012.946-.02 1.068-.081 1.306-.204.79-.699 1.285-1.441 1.438-.226.047-.844.051-7.236.048-3.843-.002-7.282.006-7.643.017l-.655.021-.02.204c-.071.715-.306 1.342-.756 2.019-.633.953-1.468 1.483-2.52 1.602a5.16 5.16 0 0 1-.441.031H3.03zm.877.553c.947-.242 1.802-.969 2.23-1.894.226-.49.336-.945.375-1.553.018-.268.03-.328.07-.33a667.79 667.79 0 0 1 3.204-.009l3.154-.003.201-.069c.726-.247 1.179-.976 1.053-1.696-.092-.534-.516-1.094-.935-1.236-.114-.039-.516-.044-2.75-.037l-2.616.008.043.17c.11.435.362.756.733.93.377.176.45.182 2.44.182h1.816v.434h-6.4V9.959H5.227l-.01 1.863c-.01 1.837-.011 1.866-.08 2.094a2.2 2.2 0 0 1-.592.99c-.282.28-.467.404-.855.573l-.243.106-.009.635-.008.634h.12c.065 0 .225-.027.356-.06zm12.674-3.847c.572-.16.936-.544 1.09-1.148.064-.25.107-.796.108-1.368v-.472h-1.325l-.01.704c-.014 1.042.024 1.006-1.084 1.022l-.735.01v.642c0 .353.01.65.02.662.01.01.41.015.89.009.681-.008.907-.022 1.046-.06zm5.852-.002c.566-.165.91-.528 1.086-1.146.042-.148.056-.356.066-1.013l.013-.827h-1.304v.626c0 .796-.03.911-.263 1.04-.082.044-.304.052-1.979.066l-1.886.015-.009.64-.008.642.457.01c.25.006 1.173.009 2.049.006 1.417-.004 1.613-.01 1.778-.059zm-2.32 4.139c-.142-.074-.229-.169-.265-.29-.02-.067-.029-.336-.023-.687l.01-.578-.106-.02a.988.988 0 0 1-.507-.296c-.177-.207-.206-.338-.206-.93v-.52h3.437l-.01.58c-.011.632-.019.664-.217.89-.101.115-.316.24-.473.273l-.093.02v.657c0 .743-.007.767-.25.887-.111.056-.186.063-.664.062-.428 0-.559-.01-.632-.048zm2.018-2.834c-.006-.09-.011-.024-.011.146 0 .17.005.244.01.164.007-.08.007-.22.001-.31zm-11.914 1.638c-.252-.171-.274-.246-.286-.966-.011-.688.006-.79.158-.964.18-.205.266-.225.974-.226.497 0 .65.01.742.047a.617.617 0 0 1 .326.308c.058.11.067.186.077.669.014.663-.017.849-.168 1.016-.187.207-.232.217-.995.217h-.68Zm-9.044-2.476c-.43-.119-.76-.49-.834-.937a8.69 8.69 0 0 1-.03-.838v-.658H0V9.526h1.557c.924 0 1.625.013 1.724.032.369.07.693.324.857.673l.083.176v2.165l-.098.206a1.123 1.123 0 0 1-.562.562l-.206.098-1.02.006c-.742.005-1.06-.004-1.162-.032zm2.147-.43c.168-.05.396-.277.445-.445.027-.088.038-.414.038-1.066-.001-1.055-.007-1.086-.23-1.304-.212-.205-.236-.208-1.8-.208H.37v.649h.804v.371H.742v.706c0 .802.02.906.21 1.102.22.227.245.232 1.302.233.652 0 .978-.011 1.066-.038zm13.052-4.038a.71.71 0 0 1-.353-.399c-.018-.064-.033-.382-.033-.706 0-.582.001-.592.085-.758a.564.564 0 0 1 .235-.26c.148-.089.162-.091.641-.103.655-.017.855.006 1.025.119a.79.79 0 0 1 .21.222c.075.13.077.148.077.797 0 .652-.002.668-.078.803a.844.844 0 0 1-.211.232l-.134.094-.67.008c-.597.007-.683.002-.794-.05z"/></svg>