<svg viewBox="0 0 24 24" xmlns="http://www.w3.org/2000/svg" role="img"><path d="M5.992 18.023A1307.82 1307.82 0 0 1 .01 12.02c0-.012 2.7-2.721 5.999-6.02l5.998-6 .064.06c.035.032 2.736 2.73 6.002 5.996 3.334 3.334 5.929 5.947 5.917 5.959-.011.011-.893.017-1.96.014l-1.941-.006-1.184-1.183-1.183-1.183V6.32h-3.335l-1.17-1.171c-.645-.645-1.183-1.172-1.196-1.172-.013 0-.55.527-1.195 1.172L9.655 6.32H6.32v3.336l-1.171 1.17c-.644.645-1.171 1.183-1.171 1.196 0 .013.527.55 1.17 1.195l1.172 1.17.006 1.662.006 1.662 1.661.006 1.662.006 1.189 1.19 1.19 1.188-.007 1.946c-.004 1.272-.014 1.949-.03 1.953-.013.004-2.716-2.686-6.006-5.977zm3.797-1.075c-.294-.294-.53-.546-.526-.559.005-.013.682-.701 1.503-1.529 1.4-1.41 1.505-1.51 1.662-1.586.157-.077.181-.081.418-.081.334 0 .438.048.749.344.125.12.244.217.262.217.059 0 .16-.096.16-.152 0-.037-.142-.195-.48-.53-.417-.416-.49-.499-.565-.65a.96.96 0 0 1-.002-.863c.039-.084.26-.32.89-.954.46-.463.85-.842.865-.842.016 0 .5.478 1.077 1.064.931.945 1.056 1.081 1.124 1.221a.92.92 0 0 1 .086.573c-.054.315-.057.32-1.376 1.64a62.79 62.79 0 0 1-1.232 1.214c-.009 0-.183-.167-.387-.37-.33-.332-.383-.376-.494-.408a.484.484 0 0 0-.366.027c-.033.017-.673.645-1.422 1.395-.75.75-1.374 1.364-1.387 1.364-.013 0-.265-.24-.559-.535zm5.261-4.335c.37-.37.58-.599.604-.657a.506.506 0 0 0 0-.367c-.037-.09-.336-.416-.38-.416-.042 0-1.103 1.078-1.147 1.164-.051.102-.049.29.006.435.044.117.277.409.325.409.014 0 .28-.256.592-.568zm-7.179 2.414c-.67-.673-1.161-1.185-1.197-1.249-.211-.37-.217-.845-.016-1.267.068-.14.206-.287 1.488-1.571l1.412-1.417.539.538c.296.296.552.538.568.538.023 0 .03-.237.03-1.086 0-.597-.01-1.092-.02-1.098-.01-.007-.266.235-.567.536l-.549.549-.544-.544c-.299-.299-.544-.555-.544-.568 0-.013.245-.269.544-.568l.544-.543.55.55c.302.302.56.55.573.55.014-.001.313-.291.667-.646.353-.355.651-.646.663-.646.012 0 .021.474.021 1.094v1.093l.544-.543c.3-.3.555-.544.568-.544.013 0 .27.245.57.546l.544.545-.553.558-.554.557-.56-.56-.559-.558v3.894l-.67.67-.668.67v-1.916c0-1.055-.01-1.923-.02-1.93-.01-.006-.64.61-1.397 1.368-1.359 1.36-1.377 1.38-1.393 1.492a.705.705 0 0 0 .014.239c.028.119.058.154.534.64 1.056 1.076 1.15 1.174 1.158 1.196.009.025-.53.573-.563.573-.011 0-.532-.514-1.157-1.142zm4.705-7.435-.544-.544.551-.55.562-.557c.005-.005.259.241.564.546l.554.556-.547.547c-.301.3-.558.547-.571.547-.014 0-.27-.245-.569-.545z"/></svg>