<svg viewBox="0 0 24 24" xmlns="http://www.w3.org/2000/svg" role="img"><path d="M2.611 20.151a3.092 3.092 0 0 1-2.438-2.07c-.169-.512-.18-.786-.17-3.933.008-2.696.001-2.557.157-3.022a3.102 3.102 0 0 1 2.082-1.99c.403-.112.29-.11 4.144-.11h3.589l.01.071c.006.04.022.42.035.845.026.82.074 1.676.11 1.983.034.278.119.576.227.795.206.419.483.578 1.007.578.215 0 .248-.006.367-.063.243-.115.439-.377.547-.733.057-.186.06-.219.062-.653 0-.417-.003-.474-.05-.632a2.41 2.41 0 0 0-.112-.305c-.078-.163-.26-.447-.285-.447-.054 0-.165.336-.19.576-.021.191-.02.195.179.535.1.171.177.341.197.435.012.054.003.087-.041.155-.116.174-.327.26-.645.26-.217 0-.384-.04-.504-.12-.177-.116-.34-.467-.386-.828-.022-.17-.056-.95-.086-1.956l-.015-.495h.556l-.044.086a.509.509 0 0 0-.044.104c0 .01.057.052.125.094.07.041.23.15.357.242.128.091.241.16.253.152.036-.024.24-.378.289-.502a.379.379 0 0 0 .035-.147c-.009-.024.233-.03 1.436-.03h1.446l.012.115c.006.063.018.266.025.452.007.186.022.475.033.643l.042.643c.011.186.036.548.054.806a411.78 411.78 0 0 1 .098 1.417 202.913 202.913 0 0 1 .11 1.601c.095 1.378.104 1.8.054 2.375-.042.47-.027.523.082.304.162-.324.28-.768.344-1.306.048-.392.025-1.201-.066-2.375a179.01 179.01 0 0 1-.067-.915 770.334 770.334 0 0 0-.195-2.704c-.027-.302-.027-.532 0-.532.01 0 .05.036.086.08.081.099.237.225.277.225.069 0 .02-.204-.175-.738a3.04 3.04 0 0 1-.035-.099c0-.001 1.322.003 2.937.01 3.205.013 2.997.005 3.421.14 1.038.33 1.803 1.169 2.068 2.267l.057.24.018 2.712c.01 1.492.012 2.792.006 2.888-.095 1.454-1.135 2.62-2.554 2.866-.239.041-.355.043-3.193.04-1.62-.003-2.91-.008-2.869-.012.246-.027.663-.17.97-.33a8.624 8.624 0 0 0 1.026-.696l.24-.196.087.065a1.5 1.5 0 0 0 .205.123c.108.052.144.057.37.057.222 0 .267-.008.388-.059.181-.077.415-.234.59-.397.077-.073.466-.485.864-.917.397-.431.786-.842.863-.913.738-.683 1.365-1.015 1.926-1.021.259-.003.385.033.544.153.06.045.14.126.18.18l.124.163.05.066.038-.088a1.5 1.5 0 0 0 .117-.628c-.009-.238-.047-.33-.196-.476-.5-.49-1.522-.254-2.568.593-.33.267-.639.573-1.294 1.284-.832.903-.903.97-1.256 1.188-.153.094-.51.227-.537.2-.008-.009.11-.14.261-.292.433-.435.549-.617.662-1.04.052-.199.058-.255.058-.622 0-.365-.005-.422-.055-.61-.131-.485-.32-.844-.584-1.113-.212-.214-.36-.288-.578-.288a.53.53 0 0 0-.298.07 1.48 1.48 0 0 0-.49.458c-.202.301-.295.745-.214 1.018.066.223.22.37.464.442.173.051.258.062.69.088.415.024.583.072.696.197.044.049.078.11.078.14a.493.493 0 0 1-.094.179c-.111.15-.535.57-.799.793l-.309.263a.73.73 0 0 1-.144.107c-.05 0-.136-.512-.123-.727.024-.383.033-.476.062-.613.032-.15.03-.191-.007-.152-.03.033-.105.371-.134.608-.031.256-.015.715.032.868l.031.104-.074.06c-.227.18-.84.525-1.168.655-.329.13-.5.165-.835.165-.27 0-.327-.007-.492-.059-.556-.174-.863-.67-.816-1.312.021-.281.085-.62.2-1.057.055-.21.107-.416.115-.458.008-.042.05-.15.094-.24.198-.403.246-1.01.115-1.432-.106-.337-.221-.547-.272-.494-.027.027-.197.588-.21.695-.01.076.005.122.12.345.073.141.133.284.133.317 0 .037-.023.081-.06.116-.133.124-.294.17-.59.172-.354.001-.538-.094-.66-.34-.063-.128-.07-.164-.072-.344-.001-.11.006-.272.016-.358l.02-.158h-.06c-.034 0-.29.099-.572.22-1.597.686-2.746 1.033-4.026 1.216a6.715 6.715 0 0 1-1.787-.01c-.806-.13-1.382-.479-1.617-.98-.058-.124-.06-.15-.068-.5a3.63 3.63 0 0 1 .018-.524c.029-.173.103-.418.132-.436a.348.348 0 0 1 .135.02c.063.018.253.043.422.055.278.021.322.02.471-.019.307-.078.543-.224.818-.505a2.57 2.57 0 0 0 .55-.831c.07-.162.075-.168.119-.137.516.368.957.548 1.44.59.215.018.287-.01.368-.149.252-.43.292-1.157.093-1.706-.09-.246-.211-.417-.357-.503a.668.668 0 0 0-.53-.031c-.24.092-.556.382-.756.694a1.092 1.092 0 0 1-.14.176c-.04.037-.13.205-.247.458a3.99 3.99 0 0 1-.267.508c-.159.21-.471.403-.828.512-.166.051-.228.059-.47.058-.153 0-.34-.014-.414-.029-.375-.076-.626-.29-.941-.806-.243-.397-.297-.466-.422-.54-.248-.145-.574-.021-.945.358-.338.347-.461.55-.901 1.494-.426.913-.52 1.056-.77 1.183-.107.054-.317.049-.457-.011-.144-.062-.316-.245-.394-.42a2.91 2.91 0 0 1-.18-.68c-.041-.282-.035-1.078.012-1.476.023-.189.035-.359.027-.378-.036-.095-.125.109-.195.448-.064.305-.086.576-.088 1.035 0 .39.006.494.048.703.091.456.304.97.504 1.218.367.454.831.411 1.18-.108.116-.174.304-.563.496-1.028.223-.543.269-.635.413-.837.143-.2.375-.445.506-.536.122-.085.325-.162.427-.163.158 0 .23.075.495.52.256.432.421.632.615.748l.115.069-.05.1c-.201.398-.317 1.139-.253 1.618.09.67.417 1.139.993 1.424.516.255 1.16.339 2.016.26.665-.06 1.177-.158 1.942-.372.816-.228 1.88-.628 2.773-1.042.118-.055.218-.1.22-.1.004 0 .013.08.021.18.052.632.329.987.833 1.065.285.045.505-.008.677-.164.104-.094.126-.1.085-.019-.09.175-.263.762-.317 1.073-.07.413-.088.886-.044 1.184.09.616.479 1.135.958 1.28.079.024.207.052.284.062.077.01-2.64.019-6.038.019-4.933 0-6.21-.005-6.341-.028zm9.628-1.434c.05-.088.108-.2.128-.25.02-.05.045-.092.056-.092.011 0 .171.103.356.228l.335.228.053-.07a2.52 2.52 0 0 0 .264-.504c.028-.092.027-.097-.03-.15a5.903 5.903 0 0 0-.572-.394c-.12-.069-.106-.081-.26.226a7.486 7.486 0 0 1-.12.236.878.878 0 0 1-.144-.105c-.176-.142-.542-.373-.567-.357a3.38 3.38 0 0 0-.182.336l-.162.324.07.053c.04.03.125.088.19.13.067.042.194.131.284.198.09.066.174.12.187.121.013 0 .064-.07.114-.158zM8.08 14.759a2.94 2.94 0 0 0 .133-.256c.025-.057.048-.107.052-.11.004-.004.152.093.33.215.179.122.34.226.36.231.056.015.346-.51.346-.625 0-.022-.036-.07-.081-.105-.117-.092-.616-.419-.64-.419-.01 0-.078.118-.15.262l-.131.261-.115-.093c-.166-.135-.529-.365-.576-.365-.03 0-.08.08-.198.318-.087.174-.152.326-.145.337.007.012.093.074.19.139a9.2 9.2 0 0 1 .343.24c.09.066.17.12.179.12a.696.696 0 0 0 .103-.15zm9.807 1.044c-.368-.016-.489-.047-.567-.146-.098-.125-.01-.27.19-.312.224-.046.388.012.599.214.07.066.145.153.17.193l.042.074-.048-.004-.386-.019zM8.572 11.88c-.291-.109-.709-.338-.709-.39 0-.041.102-.14.184-.178.123-.056.377-.056.487 0a.95.95 0 0 1 .34.375.475.475 0 0 1 .031.174c-.006.068-.013.075-.083.08a.851.851 0 0 1-.25-.06zm1.396-3.262a119.92 119.92 0 0 0-.08-1.956 8.921 8.921 0 0 0-.328-1.981c-.073-.251-.069-.315.05-.66l.069-.202h.158l.07.19c.276.744.392 1.676.462 3.7.012.347.027.776.035.953l.013.321h-.435zm1.012.349c.002-.05.212-.41.24-.415.03-.006.458.266.61.387l.054.043h-.453c-.248 0-.451-.006-.45-.015z"/></svg>