<svg viewBox="0 0 24 24" xmlns="http://www.w3.org/2000/svg" role="img"><path d="M1.221 17.745a1.467 1.467 0 0 1-.782-.347 1.401 1.401 0 0 1-.395-.695c-.04-.155-.045-.211-.044-.555.002-.33.009-.417.052-.64.159-.813.494-1.67 1.036-2.647.19-.344.186-.337.228-.337.058 0 .034.065-.224.623-.398.862-.551 1.3-.633 1.806-.128.788.16 1.304.821 1.474.202.052.583.07.815.038.786-.108 1.581-.625 1.865-1.213.084-.176.114-.319.08-.389s-.187-.146-.446-.218c-.51-.143-.66-.302-.66-.695.001-.265.092-.545.29-.898.203-.36.415-.638.682-.894.503-.483.82-.616 1.14-.477l.095.04.102-.05c.137-.066.295-.215.421-.395a1.93 1.93 0 0 1 .11-.149.68.68 0 0 1 .075.03c.04.016.09.023.118.016.07-.017.17-.145.22-.278.043-.115.08-.153.116-.117.027.027-.013.253-.08.445-.116.332-.304.572-.543.693-.064.032-.2.124-.302.205-.21.166-.39.278-.498.31-.063.02-.09.017-.2-.022-.252-.09-.48-.036-.763.178-.244.186-.485.498-.485.63 0 .065.108.126.459.257.347.13.442.25.456.574.022.512-.174 1.326-.464 1.928-.347.72-.852 1.262-1.456 1.563a2.21 2.21 0 0 1-1.206.206zm13.17-1.74c-.025-.016-.025-.021 0-.046.016-.015.176-.12.354-.232.683-.43.99-.675 1.246-.993.151-.188.334-.48.39-.623.022-.058.072-.16.11-.23.038-.068.143-.27.233-.449.132-.262.172-.326.207-.331.075-.01.071.048-.021.32-.1.294-.106.35-.051.509a.83.83 0 0 0 .593.555c.165.042.378.03.502-.029.12-.057.324-.249.522-.49.225-.272.334-.313.532-.2.054.03.143.068.197.084l.099.029.293-.328c.792-.886.974-1.043 1.282-1.108.2-.042.394.057.494.253.052.102.052.305-.002.464-.1.303-.429.793-.748 1.118-.239.243-.582.447-.868.514-.21.05-.655.029-.868-.04-.154-.05-.352-.147-.375-.184-.006-.01-.035-.017-.065-.017-.075 0-.132.076-.333.446-.193.355-.244.432-.387.586a.791.791 0 0 1-.233.177.448.448 0 0 1-.282.06.946.946 0 0 1-.465-.129c-.195-.124-.383-.414-.43-.666a.35.35 0 0 0-.032-.11c-.005 0-.068.088-.138.196-.15.228-.32.43-.46.546-.188.154-.327.203-.902.318-.265.052-.348.059-.394.03zm5.725-2.131c.287-.055.61-.223.848-.44l.093-.085-.064-.066a.598.598 0 0 0-.749-.1c-.092.057-.443.402-.61.598l-.101.12h.22c.121 0 .284-.012.363-.027zM6.652 15.785c-.006-.015.008-.057.03-.093.045-.073.123-.142.505-.449.376-.3.669-.564.809-.727.216-.253.313-.483.61-1.457.16-.527.205-.64.26-.67.094-.05.095.012.007.508-.14.786-.243 1.226-.403 1.716-.171.523-.307.716-.606.863a4.09 4.09 0 0 1-.87.288c-.27.057-.327.06-.342.021zm2.588.016c-.05-.05.09-.201.465-.502.511-.408.746-.623.92-.84.192-.237.262-.413.572-1.418.164-.531.207-.638.262-.66.043-.016.085.038.073.093-.005.022-.035.194-.067.383-.172 1.003-.373 1.766-.566 2.153-.122.244-.239.364-.455.469a4.23 4.23 0 0 1-.868.287c-.238.049-.314.057-.336.035zm2.397-.003c0-.032.114-.12.402-.31.495-.328.739-.53.942-.778.101-.124.262-.393.263-.439 0-.015-.025-.012-.081.008-.045.016-.15.033-.235.038-.277.016-.486-.067-.61-.242-.124-.173-.077-.43.17-.924.237-.473.434-.685.637-.685.247 0 .474.215.562.533.043.157.046.45.007.675-.08.462-.408 1.217-.69 1.598a.766.766 0 0 1-.374.3c-.32.146-.993.3-.993.226zm10.074.003c-.05-.05.075-.185.456-.492.405-.326.648-.539.805-.704.294-.31.359-.454.689-1.533.09-.296.18-.57.2-.608.04-.08.09-.106.127-.068.023.023.016.091-.052.474-.14.8-.276 1.37-.432 1.817-.166.476-.3.653-.61.8-.369.178-1.12.377-1.183.314zM8.338 11.135a4.82 4.82 0 0 0-.32-.25.67.67 0 0 1-.13-.102c0-.038.684-1.07.718-1.083.044-.017.257.124.396.262.323.32.3.623-.078 1.06-.118.135-.306.279-.363.276a1.17 1.17 0 0 1-.223-.163zm-3.558-2a5.349 5.349 0 0 0-.31-.241c-.06-.04-.1-.081-.1-.102 0-.043.646-1.03.674-1.03.064 0 .381.228.46.331.116.153.156.34.108.513a1.38 1.38 0 0 1-.136.247c-.172.262-.37.458-.46.457-.014 0-.12-.079-.236-.174zm1.272-.047c-.1-.08-.244-.193-.32-.25a.643.643 0 0 1-.139-.122c0-.023.584-.93.638-.988.02-.024.049-.043.062-.043a.83.83 0 0 1 .165.094c.335.224.47.478.388.73a1.663 1.663 0 0 1-.312.5c-.234.266-.248.268-.482.08zm-.624-1.502a18.316 18.316 0 0 0-.318-.252c-.04-.029-.072-.06-.072-.069 0-.029.64-1.001.672-1.02.044-.028.245.097.395.247.26.257.275.488.057.824a2.03 2.03 0 0 1-.337.402c-.117.087-.13.083-.397-.132z"/></svg>