<svg role="img" viewBox="0 0 24 24" xmlns="http://www.w3.org/2000/svg"><path d="M16.976 18.59a6.37 6.37 0 0 1-2.552-.694 6.198 6.198 0 0 1-1.68-1.206 6.586 6.586 0 0 1-1.914-3.858c-.087-.649-.05-1.535.094-2.232.457-2.219 2.123-4.108 4.29-4.864.331-.116.85-.243 1.23-.302.421-.065 1.471-.066 1.883-.002 1.234.193 2.299.656 3.23 1.406.33.267.873.829 1.127 1.168a6.73 6.73 0 0 1 1.271 3.072c.06.39.06 1.409 0 1.815-.43 2.905-2.621 5.154-5.48 5.624-.246.04-1.09.111-1.146.096a11.645 11.645 0 0 0-.353-.023zm-.058-1.694a4.962 4.962 0 0 0 3.583-2.179 4.927 4.927 0 0 0 .582-4.27 6.039 6.039 0 0 0-.574-1.182c-1.397-2.082-4.082-2.801-6.31-1.69a5.265 5.265 0 0 0-.872.556 6.553 6.553 0 0 0-.84.848 4.96 4.96 0 0 0-.919 4.017 4.961 4.961 0 0 0 2.723 3.45 4.98 4.98 0 0 0 2.627.45zm-.835-.115a4.922 4.922 0 0 1-2.731-1.082 5.967 5.967 0 0 1-.81-.847 4.803 4.803 0 0 1 3.212-7.62 5.938 5.938 0 0 1 1.305.003 4.802 4.802 0 0 1 4.113 4.263 6.07 6.07 0 0 1-.037 1.272 4.836 4.836 0 0 1-1.37 2.637 4.82 4.82 0 0 1-2.637 1.326 7.035 7.035 0 0 1-1.045.049zm1.7-1.23c2.316-.49 3.565-3.002 2.55-5.129a3.79 3.79 0 0 0-1.513-1.61 3.637 3.637 0 0 0-3.953.277 3.939 3.939 0 0 0-1.1 1.35 4.294 4.294 0 0 0-.296.928c-.064.346-.057.973.016 1.315.332 1.57 1.537 2.697 3.12 2.917.26.037.9.01 1.176-.048zM3.155 16.755c-.163-.035-.511-.17-.511-.198a.83.83 0 0 1 .06-.17l.06-.137.22.074c.442.15.582.073.582-.32v-.134l-.076.076c-.169.17-.494.157-.664-.026-.211-.226-.262-.955-.09-1.276.162-.298.513-.38.755-.175l.073.061.07-.077c.055-.061.096-.08.202-.092l.132-.015-.007 1.007c-.007.966-.01 1.012-.06 1.122-.061.131-.163.213-.328.263a1.05 1.05 0 0 1-.418.017zm.249-1.055c.109-.042.161-.197.162-.481 0-.356-.076-.517-.248-.517-.183 0-.261.156-.262.524 0 .266.05.411.161.467.076.038.103.039.187.007zm4.133.32a.777.777 0 0 1-.346-.403c-.068-.2-.06-.632.014-.823a.654.654 0 0 1 .339-.382.613.613 0 0 1 .675.095c.13.12.2.286.224.536.028.289.039.282-.464.282h-.425l.017.094c.053.294.235.37.575.243a.973.973 0 0 1 .17-.056c.003.003.035.077.071.163l.067.156-.069.027c-.255.1-.349.122-.54.12-.15 0-.228-.014-.308-.053zm.498-.982c.025-.025-.024-.217-.073-.283a.205.205 0 0 0-.27-.042c-.05.033-.135.233-.135.318 0 .022.456.029.478.007zM0 14.988c0-1.132.003-1.169.123-1.233.027-.014.22-.026.445-.026.391 0 .399.001.547.076.212.105.286.218.3.458.014.207-.016.328-.11.44-.07.082-.228.174-.3.174-.032 0-.023.013.032.046.158.097.247.24.418.674.091.232.166.429.166.438a.98.98 0 0 1-.24.008l-.242-.007-.115-.35c-.166-.503-.27-.635-.499-.635H.424v.998H0zm.797-.294c.12-.04.2-.168.2-.314 0-.212-.118-.301-.397-.301H.424v.648l.143-.001a.907.907 0 0 0 .23-.031zm1.098.618c0-.62.007-.75.04-.813.042-.083.166-.146.284-.146h.075v1.696h-.399zm2.494-.387c0-.953.006-1.134.038-1.196.049-.095.108-.124.247-.124h.114v.929l.056-.04a.523.523 0 0 1 .385-.128c.202 0 .282.04.37.19.046.077.05.136.057.788l.008.705h-.402v-.605c0-.699-.007-.725-.166-.737-.127-.01-.245.08-.282.215-.014.05-.026.325-.026.61v.517H4.39zm1.87.151v-.972h-.573v-.375h1.417l.065.077a.253.253 0 0 1 .064.187v.11H6.66v1.946h-.4zm2.52-.15c0-.954.005-1.135.037-1.197.05-.095.108-.124.248-.124h.114v2.444h-.4zm-6.884-.886c0-.115.058-.25.121-.284a.45.45 0 0 1 .165-.027h.113v.4h-.399zM.868 12.655a1.04 1.04 0 0 1-.753-.571c-.076-.161-.077-.168-.097-.736a7.158 7.158 0 0 1-.006-.654.429.429 0 0 1 .23-.272.704.704 0 0 1 .219-.034h.138v.617c0 .375.011.656.028.717.036.13.204.297.334.334.129.035.818.035.947 0a.584.584 0 0 0 .334-.334c.019-.069.028-.611.028-1.723V8.375l.057-.085c.077-.116.199-.172.373-.172h.144v1.18c0 1.33.003 1.359.167 1.519.052.05.126.103.165.118.04.015.282.026.58.026.555 0 .615-.011.742-.14.134-.134.15-.194.165-.584.015-.402.035-.463.181-.538a.786.786 0 0 1 .237-.054l.157-.012v.433c0 .239.012.477.026.53a.643.643 0 0 0 .29.332.737.737 0 0 0 .522-.029c.23-.115.284-.244.284-.683 0-.268.007-.327.049-.395.065-.107.178-.16.37-.176l.158-.013-.008.596c-.007.595-.008.596-.077.738a1.03 1.03 0 0 1-.486.487l-.19.094h-.35c-.402 0-.522-.03-.742-.183l-.134-.094-.112.082c-.24.178-.315.192-1.013.202-.512.008-.657.002-.782-.03a1.915 1.915 0 0 0-.174-.04c-.01 0-.024.099-.029.219a.787.787 0 0 1-.086.38c-.147.31-.436.524-.776.573-.2.03-.907.029-1.109 0zm4.519-.297v-.3h.573v.181c0 .298-.116.418-.405.418h-.168zm.748 0v-.3h.599v.156c0 .302-.137.443-.428.443h-.171zm2.045.015c0-.27.003-.293.056-.333.03-.024.103-.091.16-.149.177-.176.188-.244.206-1.193.013-.729.02-.832.058-.89.063-.096.18-.148.36-.163l.158-.012v1.008c0 1.098-.008 1.176-.145 1.426-.144.265-.503.54-.76.582l-.093.015zm-.742-2.407c.006-1.574.007-1.596.058-1.665.099-.133.202-.183.376-.183h.158v3.441h-.6zM3.89 8.935c0-.31.129-.442.43-.443h.168v.624H3.89zm.748.025c.001-.319.139-.468.433-.468h.165v.624H4.64z"/></svg>