<svg role="img" viewBox="0 0 24 24" xmlns="http://www.w3.org/2000/svg"><path d="M1.003 18.392a4.077 4.077 0 0 1-.366-.153 1.476 1.476 0 0 1-.327-.232c-.023-.02-.031-.05-.02-.07.013-.02.008-.025-.012-.013-.042.025-.135-.098-.135-.178 0-.031-.014-.057-.032-.057-.017 0-.031-.025-.031-.057a.158.158 0 0 0-.04-.097c-.031-.03-.04-.472-.04-1.989v-1.948h1.146l.016 1.751c.015 1.575.022 1.761.07 1.851.03.055.081.11.112.125.032.013.32.031.64.039l.582.014-.566.553c-.644.628-.6.607-.997.461zm11.63.067c-.039-.005-.071-.019-.071-.03 0-.022 1.125-1.164 1.525-1.548.13-.125.295-.29.366-.368.53-.574 4.417-4.443 4.5-4.48.084-.035.487-.043 2.235-.043 1.173 0 2.14.01 2.148.025.02.032-.275.357-.324.357a.037.037 0 0 0-.038.037c0 .05-.293.345-.324.325-.014-.009-.026 0-.026.02 0 .048-.52.573-.567.573-.02 0-.034.018-.03.04.004.022-.01.036-.032.032-.022-.005-.04.008-.04.028 0 .034-2.3 2.371-2.797 2.844-.176.167-1.648 1.644-1.955 1.96-.25.258-.039.237-2.396.238-1.156 0-2.134-.004-2.174-.01zm6.847-1.112c.502-.503 1.597-1.607 2.434-2.452.837-.846 1.532-1.537 1.545-1.537.028.001.034 4.78.006 4.853-.018.047-.246.052-2.458.052h-2.439zm-17.299.866c0-.043.92-.932 1.011-.977.092-.045.377-.051 2.6-.051 2.23 0 2.507-.005 2.595-.051.222-.115.389-.543.316-.813-.041-.154-.251-.393-.393-.447-.048-.018-.849-.031-1.99-.032-2.029-.001-2.007 0-1.84-.146.063-.056.067-.056.047-.003-.013.036-.009.05.013.037.019-.012.027-.04.018-.062-.018-.047.676-.729.816-.8.08-.042.31-.048 1.658-.039l1.565.01.176.078c.288.128.44.25.648.524.428.561.48 1.45.113 1.982a.682.682 0 0 0-.093.164c0 .047-.358.375-.476.436a3.54 3.54 0 0 1-.285.124c-.177.067-.195.068-3.339.076-1.738.004-3.16 0-3.16-.01zm7.674-.098c0-.011.04-.056.088-.1.048-.044.552-.539 1.12-1.1.644-.635 1.07-1.033 1.132-1.054.06-.021.346-.03.745-.025l.647.01-.377.366c-.208.202-.714.701-1.126 1.11-.411.408-.78.758-.818.778-.074.038-1.41.052-1.41.015zm-6.798-3.117c-.416-.13-.578-.353-.552-.763.016-.244.112-.403.297-.493.176-.086.616-.111.826-.048.177.054.305.128.305.177 0 .019.02.054.045.08.09.09.103.618.015.618-.018 0-.025.012-.016.026.023.038-.099.227-.162.251a.393.393 0 0 0-.11.077c-.09.09-.462.133-.648.075zm11.368-.157a25.08 25.08 0 0 1-.336-.133c-.167-.07-.678-.364-.694-.4a.046.046 0 0 0-.04-.026c-.058 0-.435-.308-.682-.559-.294-.298-.568-.636-.568-.701 0-.025-.01-.045-.023-.045-.052 0-.413-.68-.5-.94a4.679 4.679 0 0 1-.229-.882c-.112-.642-.074-1.634.08-2.075a.852.852 0 0 0 .045-.18c0-.061.2-.55.234-.576.015-.01.026-.032.023-.048-.007-.046.102-.267.131-.267.015 0 .027-.016.027-.035 0-.124.485-.782.792-1.074.38-.362 1.194-.929 1.334-.929a.563.563 0 0 0 .16-.06c.245-.127.571-.23.994-.312.243-.048.706-.055 4.549-.065L24 5.523l-.449.455a146.332 146.332 0 0 1-2.106 2.113 4.152 4.152 0 0 0-.283.293c-.095.108-.182.19-.195.182-.013-.008-.06.014-.104.049-.078.062-.135.063-2.59.064-1.577 0-2.563.013-2.65.033-.32.073-.816.454-.967.74-.179.338-.222.481-.239.788-.023.42.052.659.35 1.126.128.2.37.381.695.52l.204.088.932.01c.911.009.93.01.898.071-.018.034-.054.062-.08.062-.025 0-.046.014-.046.03 0 .038-1.148 1.223-1.503 1.553-.023.02-.306.304-.628.628-.323.325-.596.59-.605.59a3.252 3.252 0 0 1-.21-.077zm-8.627-.49c-.015-.025.072-.118.609-.65l.345-.341 2.579-.001h2.653c.068 0 .06.014-.08.162-.425.445-.82.812-.896.833-.11.03-5.19.028-5.21-.003z"/></svg>