<svg role="img" viewBox="0 0 24 24" xmlns="http://www.w3.org/2000/svg"><path d="M12 16.5a3.001 3.001 0 0 1 0 6 3.001 3.001 0 0 1 0-6zm9.684-.765H2.316C.86 14.11 0 12.107 0 9.94c0-2.042.764-3.939 2.07-5.51h6.643c-2.379 1.031-4.011 3.146-4.011 5.585 0 2.005 1.103 3.79 2.816 4.935h8.964c1.713-1.145 2.816-2.93 2.816-4.935 0-2.439-1.632-4.554-4.011-5.585h6.643C23.236 6.002 24 7.9 24 9.941c0 2.166-.86 4.17-2.316 5.794zm-8.972-2.931H5.986c2.556-.974 4.34-3.17 4.34-5.719 0-2.439-1.633-4.554-4.012-5.585h6.644c1.306 1.571 2.07 3.468 2.07 5.51 0 2.166-.86 4.17-2.316 5.794z"/></svg>