<svg viewBox="0 0 24 24" xmlns="http://www.w3.org/2000/svg" role="img"><path d="M.402 19.522c-.128-.033-.333-.248-.373-.391A2.528 2.528 0 0 1 0 18.693v-.333h.299v.328c0 .326 0 .328.079.407.075.075.092.08.3.08.21 0 .227-.005.302-.08.158-.158.07-.273-.212-.273h-.17v-.266c0-.222.01-.286.06-.387.093-.183.203-.243.446-.243h.2v.353h-.16c-.169 0-.202.02-.23.138-.016.067-.01.07.151.1.216.04.27.095.287.287.024.298-.104.571-.322.684-.091.047-.493.069-.628.034zm2.164-.06a2.058 2.058 0 0 1-.02-.179l-.007-.095.227-.013c.212-.013.23-.02.292-.095.062-.079.065-.098.065-.523v-.441h.299v.212c0 .128.013.224.032.244.045.044.515.044.56 0 .02-.02.032-.116.032-.246v-.213l.156.008.157.008.002.211c0 .116.015.224.03.24.019.018.131.026.297.02.228-.008.29-.02.417-.085.082-.042.18-.1.217-.13.067-.052.067-.054.016-.093-.039-.03-.126-.04-.32-.04-.294 0-.28.01-.304-.198l-.015-.129h.33c.408 0 .54.049.622.228.063.139.069.357.01.38-.022.009-.04.028-.04.044 0 .02.099.026.292.021l.292-.008.014-.23.013-.231.16-.008.158-.008-.01.293c-.008.244-.02.31-.07.39-.097.157-.16.176-.553.168-.393-.008-.47-.028-.533-.139l-.045-.079-.107.068a1.285 1.285 0 0 1-.213.104c-.137.049-.666.06-.747.017-.043-.023-.08-.024-.134-.004a2.05 2.05 0 0 1-.395.034c-.317.006-.321.006-.321.07 0 .098-.083.249-.198.36-.116.113-.297.167-.519.156-.116-.006-.125-.013-.139-.09zm1.596.051a.183.183 0 0 1 .027-.35c.088-.022.11-.017.17.039.159.15.004.396-.197.311zm.632-.018c-.152-.217.113-.466.298-.28.073.072.084.148.036.24-.043.082-.076.099-.191.1-.073 0-.112-.016-.143-.06zm1.43.026a.583.583 0 0 1-.047-.19l-.02-.156h.207c.19 0 .213-.006.295-.08l.089-.079.009-.45.009-.45h.295v.443c0 .339-.01.474-.045.573-.057.17-.234.354-.376.393-.147.04-.38.038-.415-.004zm1.7.007c-.145-.026-.28-.14-.363-.312-.064-.132-.075-.19-.087-.502l-.015-.353h.334v.31c0 .172.014.341.03.378.043.094.135.126.358.125.203 0 .259-.023.314-.126.08-.152.007-.226-.226-.226-.198 0-.205-.008-.203-.24.002-.22.036-.37.11-.477.096-.14.182-.179.402-.179h.193v.353h-.158c-.174 0-.223.03-.223.138 0 .067.013.075.162.104.225.044.273.11.273.367 0 .504-.333.74-.901.64zm7.71.01a1.053 1.053 0 0 1-.032-.193l-.018-.17h.21c.191 0 .217-.007.286-.073.106-.101.096-.135-.046-.15-.249-.029-.366-.192-.366-.51 0-.326.112-.487.356-.51.173-.017.3.043.36.168.094.199.128.731.062.985-.044.17-.186.355-.313.408-.112.047-.479.08-.499.046zm.522-1.068c0-.103-.011-.14-.05-.162-.072-.038-.113.015-.113.149 0 .129.013.148.1.148.058 0 .063-.012.063-.135zm.445 1.065c-.017-.011-.04-.097-.05-.19l-.02-.17h.208c.22 0 .292-.022.33-.1.013-.027.03-.25.037-.497l.014-.448h.299l.014.23.013.231.353.004c.34.004.347.003.202-.029a2.153 2.153 0 0 1-.198-.051c-.101-.04-.163-.352-.102-.514a.496.496 0 0 1 .293-.25c.213-.04.415.116.468.364.065.306.026.596-.101.736-.093.104-.322.145-.677.122l-.25-.017-.017.076c-.056.257-.226.446-.444.493-.16.034-.327.038-.372.009zm1.62-1.311c0-.016-.032-.06-.07-.097-.118-.119-.305-.04-.201.085.037.046.27.055.27.011zm3.109 1.305a.972.972 0 0 1-.032-.189l-.017-.165h.192c.204 0 .314-.033.35-.105a3.59 3.59 0 0 0 .035-.492l.014-.448h.299l.013.23.014.231.229.008c.164.006.234-.002.25-.027a.897.897 0 0 0 .023-.245v-.21h.3v.227c0 .24.027.302.127.283.041-.008.05-.046.062-.253l.014-.244.142-.008.143-.008v.19c0 .244.031.329.121.329.076 0 .075 0 .07-.286-.003-.214.015-.236.178-.225l.133.008.008.265c.006.216-.002.288-.045.385-.094.212-.308.282-.484.156-.058-.041-.092-.05-.104-.03a.297.297 0 0 1-.107.067.31.31 0 0 1-.325-.067c-.046-.051-.048-.051-.145.006-.08.047-.143.058-.351.059-.272 0-.257-.008-.292.167-.022.11-.176.289-.297.346-.104.05-.494.083-.518.045zm-17.624-.055c-.108-.12-.027-.326.127-.326.156 0 .239.184.143.32-.055.079-.2.082-.27.006zm6.544-.445a.874.874 0 0 1-.18-.08c-.057-.038-.085-.041-.149-.017a1.369 1.369 0 0 1-.322.032c-.32.002-.43-.042-.503-.202-.047-.104-.053-.18-.053-.748v-.63h.298v.549c0 .302.008.577.017.61.014.054.034.062.152.062s.133-.006.116-.047a.465.465 0 0 1 .11-.524c.077-.076.117-.093.223-.097.11-.004.14-.019.213-.103.046-.054.095-.098.109-.098.013 0 .08.07.146.154.412.522.47.72.293 1.008-.097.159-.247.2-.47.13zm.206-.316c.072-.039.068-.172-.008-.295l-.061-.098-.017.109a.976.976 0 0 1-.046.182c-.026.062-.023.078.016.101.059.034.054.034.116 0zm-.41-.229c.08-.098-.026-.28-.128-.216-.071.045-.073.134-.003.199.072.067.088.07.13.017zm4.437.497a.276.276 0 0 1-.119-.064c-.044-.053-.094-.051-.183.007-.1.066-.676.059-.792-.01-.07-.041-.08-.041-.15.004-.064.042-.136.05-.513.05-.37-.001-.456-.009-.544-.051-.177-.084-.191-.149-.202-.89l-.01-.644h.331v1.222h.395c.466 0 .456.04.094-.406-.23-.283-.247-.314-.268-.465l-.022-.163.115-.05c.28-.124.69-.283.702-.272.007.007.02.086.03.176l.019.165-.231.107-.232.107.294.377c.162.208.313.389.337.402.023.013.155.02.294.016l.252-.008.013-.23.014-.232h.298l.008.216c.008.226.034.287.117.287.044 0 .05-.029.058-.252l.008-.25h.298l.007.19c.01.27.023.312.1.312.084 0 .097-.042.097-.301v-.215h.299v.267c0 .3-.03.417-.13.527-.1.107-.22.122-.359.044-.094-.053-.12-.057-.166-.028-.1.062-.172.078-.258.055zM1.61 18.968c-.026-.011-.034-.19-.034-.759v-.744h.3l-.008.753-.007.754-.108.005a.482.482 0 0 1-.143-.01zm.74-.015a.543.543 0 0 1-.194-.75.658.658 0 0 1 .094-.125c.013-.008.019-.046.011-.085-.01-.054.008-.093.077-.164a.492.492 0 0 1 .107-.093c.017 0 .19.21.389.47.09.12.1.148.1.302 0 .195-.06.311-.215.415-.1.068-.276.082-.37.03zm.271-.402c.018-.057-.06-.218-.105-.218-.055 0-.126.094-.126.166 0 .151.186.193.231.052zm8.564.373c-.227-.151-.281-.511-.113-.76.047-.07.08-.148.072-.175-.013-.052.141-.262.181-.247.039.014.438.519.464.586a.583.583 0 0 1-.038.426c-.127.223-.374.297-.565.17zm.318-.386c.017-.07-.058-.202-.116-.204-.046 0-.117.109-.117.18 0 .082.1.152.167.116a.162.162 0 0 0 .066-.092zm7.604.42c-.2-.06-.27-.205-.273-.557l-.002-.271.155-.008.155-.008.008.239.008.239h1.058l.014-.231.013-.231h.299l.013.23.014.232.387.008c.273.005.387-.001.387-.023 0-.017-.121-.178-.269-.358-.25-.302-.27-.337-.287-.475-.01-.082-.008-.158.004-.17.056-.05.75-.329.784-.316.022.008.04.043.04.077s.007.105.016.158l.016.095-.222.094a1.54 1.54 0 0 0-.233.112c-.006.01.075.131.18.27.245.32.297.418.297.563 0 .154-.059.261-.168.307-.112.046-.965.045-1.052-.001-.043-.023-.072-.022-.118.005-.072.04-1.098.058-1.224.02zm-4.638-.93c-.138-.045-.155-.275-.025-.345.181-.097.355.116.234.288-.05.071-.115.09-.209.058zm.42.004c-.125-.046-.154-.224-.054-.319.077-.072.156-.075.238-.009.156.126.004.397-.184.328zm8.174 0c-.136-.05-.152-.241-.029-.333.092-.068.202-.04.262.067.08.144-.077.324-.233.266zm.439.002c-.214-.08-.143-.412.078-.368.118.024.153.065.153.178 0 .14-.113.234-.231.19zm-17.465-.026c-.07-.029-.116-.17-.09-.272.036-.136.23-.174.338-.066.057.057.054.21-.005.279a.22.22 0 0 1-.243.059zm13.283-.04c-.091-.09-.089-.21.005-.284a.258.258 0 0 1 .118-.057c.086 0 .19.107.19.194 0 .095-.106.214-.19.214-.031 0-.087-.03-.123-.067zm.414.012c-.053-.041-.074-.082-.073-.144 0-.102.019-.135.1-.178.138-.073.3.056.266.21-.032.15-.176.204-.293.112zM6.76 17.798c-.206-.076-.167-.415.048-.415.163 0 .249.131.185.284-.05.122-.133.168-.233.131zm7.848-.198c-.074-.073-.069-.178.012-.259.084-.084.178-.085.254-.004.118.125.039.317-.13.317a.218.218 0 0 1-.136-.054zm8.6.007a.248.248 0 0 1-.05-.19c.006-.064.112-.142.191-.142.105 0 .203.117.178.216-.026.105-.094.164-.19.164-.048 0-.105-.021-.128-.048zm-5.275-.046a.234.234 0 0 1-.067-.137c0-.07.107-.204.163-.204.07 0 .185.085.2.147.033.128-.062.26-.186.26-.024 0-.074-.03-.11-.066zm-5.447-.138a2.549 2.549 0 0 0-.007-.069c-.004-.039.724-.354.753-.325.066.066-.007.125-.323.26-.442.187-.419.18-.424.134zM.38 15.805a.605.605 0 0 1-.302-.279c-.045-.098-.05-.184-.051-.709 0-.329.012-.643.027-.698a.543.543 0 0 1 .273-.321c.099-.05.167-.053 1.339-.053H2.9l.226-.078a1997.918 1997.918 0 0 1 4.906-1.744c.491-.174.644-.219.679-.196.074.047.06.342-.023.507-.15.295-.328.426-1.575 1.156-.962.563-1.389.814-1.643.966-.104.063-.593.35-1.086.637-.493.288-.97.57-1.059.625-.382.237-.237.218-1.635.216-.749-.001-1.27-.013-1.31-.029zm19.062-.502c0-.603.02-.693.186-.832.091-.077.112-.084.578-.192.31-.072.696-.239.965-.416.192-.128.571-.486.727-.689.063-.082.171-.253.24-.38.263-.487.37-.902.371-1.439 0-.187.014-.419.03-.516.068-.426.371-.828.763-1.014.178-.084.456-.153.615-.153h.059v.989c0 1.03-.015 1.234-.122 1.672a4.726 4.726 0 0 1-.98 1.928 4.36 4.36 0 0 1-3.141 1.566l-.292.017v-.54zm-7.93-1.831a2.128 2.128 0 0 1-1.236-.656c-.458-.482-.628-.937-.602-1.61.012-.307.024-.385.1-.593.123-.348.28-.597.531-.846.22-.22.527-.422.773-.511.33-.12.42-.127 1.717-.127h1.242v1.174c0 1.234-.012 1.393-.124 1.714a2.199 2.199 0 0 1-2.4 1.455zm.685-1.539a.784.784 0 0 0 .346-.437c.015-.055.028-.28.028-.5v-.401h-.457c-.44 0-.463.003-.591.07-.18.095-.244.16-.325.326a.625.625 0 0 0-.07.313c0 .263.095.437.336.619.179.135.502.139.733.01zm4.583 1.54c-.855-.132-1.536-.738-1.797-1.602l-.061-.204-.01-2.552c-.007-1.89-.002-2.611.022-2.78.091-.63.596-1.091 1.269-1.161l.17-.018v3.12c.001 2.887.004 3.13.048 3.256a.73.73 0 0 0 .344.413l.137.075 1.31.008c.855.005 1.348-.002 1.417-.02a.737.737 0 0 0 .538-.665l.014-.17-.526-.015c-.578-.016-.81-.06-1.13-.209a2.224 2.224 0 0 1-1.22-1.54c-.067-.33-.04-.821.063-1.122.312-.906 1.111-1.492 2.046-1.498.482-.003.844.098 1.223.343.456.295.767.725.93 1.287.059.203.06.237.06 1.742v1.534l-.078.23c-.256.764-.793 1.288-1.538 1.5-.195.055-.266.058-1.643.064-.791.004-1.506-.004-1.588-.016zm3.38-4.25c0-.421-.004-.47-.058-.57a.71.71 0 0 0-.664-.398c-.408 0-.702.297-.702.71 0 .356.227.638.57.709.052.01.265.017.474.015l.38-.004zM.384 12.95a.616.616 0 0 1-.315-.308c-.051-.123-.06-1.25-.01-1.397a.61.61 0 0 1 .347-.335c.102-.033.426-.042 1.808-.052a88.92 88.92 0 0 0 2.294-.04c2.103-.099 3.295-.147 3.67-.15l.372-.004.083.08c.22.21.158.574-.12.706-.054.026-.406.13-.782.231l-1.091.297a713.766 713.766 0 0 1-3.207.873l-.492.135-1.233-.003C.903 12.981.444 12.97.384 12.95zm6.8-2.641c-.449-.02-1.286-.054-1.861-.078a368.93 368.93 0 0 1-1.6-.07 55.885 55.885 0 0 0-1.874-.027c-.853 0-1.356-.01-1.423-.03-.142-.039-.327-.214-.366-.346-.043-.143-.043-1.223 0-1.367a.591.591 0 0 1 .355-.345c.083-.024.462-.03 1.364-.024l1.25.008.841.235c.889.249 1.224.341 1.358.375a588.376 588.376 0 0 0 2.39.652c.447.121.862.247.922.28.27.149.305.508.07.706-.103.086-.114.087-1.427.03zm.936-1.195a72.557 72.557 0 0 0-.679-.244 213.48 213.48 0 0 1-1.317-.47l-.842-.3c-.882-.311-2.091-.744-2.2-.786-.09-.035-.304-.043-1.343-.05a38.838 38.838 0 0 1-1.32-.022c-.12-.02-.297-.183-.35-.321-.038-.1-.043-.214-.036-.758l.009-.64.081-.116a.686.686 0 0 1 .202-.179l.12-.063H1.69c.879 0 1.264.009 1.306.03.032.018.475.276.982.575l1.236.727c1.568.92 2.381 1.4 2.71 1.596.593.356.813.607.841.962.014.172-.018.239-.113.235a5.272 5.272 0 0 1-.533-.176zm11.098-3.255a.728.728 0 0 1-.481-.545c-.066-.317.078-.62.377-.795.106-.062.156-.073.329-.072.174 0 .225.012.35.08.272.15.402.393.376.709a.723.723 0 0 1-.95.623z"/></svg>