<svg viewBox="0 0 24 24" xmlns="http://www.w3.org/2000/svg" role="img"><path d="M16.206 15.858c-.355-.043-.75-.22-1.163-.52l-.179-.131h-6.6c-4.658 0-6.661-.013-6.805-.043a1.983 1.983 0 0 1-.893-.474 2.107 2.107 0 0 1-.527-.984C.016 13.583 0 12.562 0 11.19V8.88h16.224l.377-.375.376-.376.32.317.318.318.318-.318.317-.317.377.375c.51.507.52.507 1.007.01.197-.202.37-.367.384-.367.015 0 .162.142.328.316l.3.315.327-.325.327-.325.373.376.373.376H24v6.328h-5.978l-.132.116a2.202 2.202 0 0 1-1.684.535zm.692-.325c.814-.192 1.628-1.146 1.778-2.086.091-.573-.096-1.126-.709-2.089-.151-.239-.284-.434-.295-.433-.018 0-.185.251-.534.8l-.13.205.102.124c.239.292.64.84.64.875 0 .021-.042.065-.093.098-.075.05-.209.06-.717.056a7.26 7.26 0 0 0-.631.008l-.132.272-.124.26-.116-.067c-.137-.078-.14-.098-.046-.234.233-.333.288-.888.129-1.286a1.21 1.21 0 0 0-.56-.607c-.15-.077-.217-.087-.5-.075-.308.013-.354.027-.728.217-.449.228-.851.518-1.493 1.075-.241.21-.481.407-.533.439-.09.054-.1.051-.188-.05-.105-.12-.157-.288-.195-.635-.014-.133-.04-.241-.059-.241-.018 0-.2.043-.404.096-.205.053-.377.097-.385.097-.007 0-.002.18.01.399l.023.399-.185.025a3.89 3.89 0 0 1-.43.025h-.245v-1.948c0-1.072-.015-1.949-.033-1.949-.019 0-.257.136-.53.303l-.498.302-.01 1.42c-.012 1.628-.027 1.552.313 1.572l.198.011v.27l-.242-.007-.242-.006.023.141c.038.231.252.62.42.768.268.232.363.256.914.228.521-.026.746-.083.926-.234l.113-.095.182.113c.324.2.54.23 1.601.23 1.021 0 1.396-.043 1.7-.198l.149-.077.28.097c.375.13.609.156.91.102.31-.055.606-.187.825-.366a1.18 1.18 0 0 1 .187-.136c.011 0 .05.045.086.1.063.096.062.103-.022.193-.345.368-1.139.611-1.636.502a2.602 2.602 0 0 1-.294-.078c-.048-.02-.103.035-.232.235-.092.145-.173.273-.179.285-.014.03.272.23.54.378a1.73 1.73 0 0 0 1.3.177zm-3.972-2.365c0-.018.048-.054.106-.08.059-.027.432-.23.83-.452.433-.241.744-.392.772-.375.106.064.627.533.638.574.018.072-.342.24-.656.304-.321.066-1.69.09-1.69.03zm-9.924 1.607c.766-.277 1.458-.922 1.696-1.583.033-.091.067-.321.077-.512.015-.318.009-.36-.075-.482-.166-.244-.384-.32-1.301-.453-.115-.016-.216-.049-.223-.072-.022-.064.275-.38.483-.513.192-.123.366-.155.416-.075a.678.678 0 0 1 .052.163c.022.112.042.123.35.204.18.047.368.086.418.087l.091.002-.016-.665c-.015-.633-.021-.676-.12-.868-.148-.285-.333-.396-.66-.396-.138 0-.26.016-.272.036-.012.02-.077.047-.143.062a.537.537 0 0 0-.164.06c-.535.423-.701.599-.981 1.033-.304.471-.523 1.236-.455 1.593.068.362.378.524 1.181.616.18.02.342.052.36.07.049.048-.188.178-.533.293-.418.138-1.005.174-1.299.078-.25-.081-.435-.216-.52-.378-.081-.158-.05-.726.063-1.164.043-.168.07-.334.06-.368-.012-.034-.073-.093-.136-.13a3.795 3.795 0 0 1-.29-.202c-.096-.073-.2-.133-.23-.133-.132 0-.56 1.687-.56 2.208 0 .24.083.629.173.803.09.173.406.498.59.606.292.17.475.202 1.107.191.514-.009.611-.021.861-.111zm19.493-.108c.096-.06.326-.2.511-.309l.338-.198V9.302l-.203.101a14.04 14.04 0 0 0-.54.295l-.337.194v2.445c0 1.345.013 2.444.029 2.442.016-.001.107-.052.202-.112zm-2.797-.25c1.09-.039 1.681-.33 1.974-.97.118-.256.18-.798.145-1.25-.073-.931-.446-1.402-1.531-1.935-.356-.175-.294-.223-.802.623-.321.535-.43.81-.437 1.103-.004.2.01.254.1.373.058.075.17.178.25.228.136.084.193.091.808.103.733.014.706.004.708.287v.106h-1.968v.253c0 .259-.114.677-.268.978l-.074.145.277-.012.818-.031zM7.02 14.339c.158-.034.375-.098.482-.143.214-.09.567-.309.64-.397.026-.031.062-.047.08-.036.05.03.254-.272.34-.504.115-.306.136-.548.065-.747a5.43 5.43 0 0 1-.14-.636c-.1-.59-.166-.824-.327-1.165-.126-.264-.57-.805-.64-.781-.02.006-.19.244-.379.528l-.344.516.182.144c.239.189.372.35.504.613.118.234.33.862.367 1.09.022.134.017.144-.103.182-.263.084-.783.16-1.09.16-.276 0-.35-.015-.527-.108-.181-.095-.344-.263-.39-.404-.012-.034-.058-.031-.182.01l-.165.054.017.542c.013.436.032.577.095.717.087.196.275.374.43.408.057.012.121.03.142.038.074.03.659-.02.943-.081zm10.266-4.861c.158-.16.298-.29.311-.29.013 0 .156.13.317.29.161.16.308.29.326.29.017 0 .168-.138.335-.305l.302-.305-.314-.32-.314-.32-.328.325-.327.325-.315-.32-.315-.32-.321.32-.321.32.298.3c.164.164.316.3.338.3.023 0 .17-.13.328-.29zm3.048 0c.158-.16.3-.29.317-.29.015 0 .154.13.308.29.154.16.299.29.32.29.023 0 .175-.135.339-.3l.297-.3-.314-.32-.315-.32-.322.32-.323.321-.315-.32-.315-.32-.32.32-.321.319.298.3c.164.164.316.3.338.3.023 0 .17-.13.328-.29z"/></svg>