<svg viewBox="0 0 24 24" xmlns="http://www.w3.org/2000/svg" role="img"><path d="M2.986 20.57c-.909-.22-1.785-.8-2.467-1.97-1.203-2.062-.046-4.096.763-5.49-2.477 5.167.87 6.748 4.835 3.269l6.21-6.218c.627-.628 1.562-1.044 2.491-.936 1.388.161 2.32.953 2.881 1.193.368.158.702-.073.575-.379-.129-.31-.403-.643-.923-1.164-1.542-1.544-3.435-3.345-3.435-3.345-1.1-1.059-1.539-2.023-1.478-2.97.095-1.502 1.49-2.395 2.43-2.435-.57.68-.521 1.262-.186 1.686l5.415 5.423c.669.67 1.528 3.462-.916 4.192a1.573 1.573 0 0 1-.922-.015c-.87-.251-2.186-.49-3.084.392-1.619 1.592-6.813 6.844-7.266 7.276-.452.432-1.817 1.506-3.769 1.595.468 1.654 2.728 1.437 5.378-.89l6.21-6.217c.627-.628 1.556-.95 2.491-.936.687.01 1.186.193 1.567.468.774.557 1.05 1.089 1.161 1.681-.9-.522-1.473-.454-2.37.429a1152.883 1152.883 0 0 0-6.022 6.027.442.442 0 0 0 .165.348c.4.306 1.319.311 1.753-.123l4.764-4.77c.627-.628 1.441-1 2.377-.985.686.01.943.165 1.324.44.774.558.95 1.283 1.062 1.875-.813-.574-1.259-.333-1.915.312-.948.933-3.029 3.02-4.59 4.587-.542.546-1.956 1.248-3.556.681-.9-.32-1.51-1.278-1.899-1.841-.108.389-5.335 4.514-8.352.07a8.284 8.284 0 0 1-.702-1.26zm1.911-9.894a1.933 1.933 0 0 1 1.694-2.861 1.933 1.933 0 1 1-.927 3.629 1.933 1.933 0 0 1-1.694 2.861 1.933 1.933 0 1 1 .927-3.63z"/></svg>