<svg viewBox="0 0 24 24" xmlns="http://www.w3.org/2000/svg" role="img"><path d="M.034 18.256c-.007-.006-.008-.13-.01-1.962-.002-1.076-.004-3.887-.005-6.246v-4.29h.215l.002 4.03.002 4.03.01.025c.016.04.057.133.09.202.021.043.093.172.126.225a2.201 2.201 0 0 0 .286.373.592.592 0 0 0 .056.056l.074.067c.14.128.334.255.472.31a1.573 1.573 0 0 0 .34.097l.073.011c.024.005.075.012.112.015a.613.613 0 0 1 .082.01c.01.004.24.006.758.008l.743.003.004.015c.002.008.003.69.003 1.514-.001 1.222-.002 1.5-.007 1.505-.009.009-3.415.011-3.427.003zm3.936.003c-.004-.001-.01-.007-.01-.013-.003-.006-.004-.686-.004-1.511 0-1.194.001-1.503.006-1.51.005-.006.09-.007 1.2-.008 1.074-.001 1.197-.002 1.224-.01a.6.6 0 0 1 .075-.01.457.457 0 0 0 .07-.01 1.644 1.644 0 0 0 .45-.142c.176-.086.309-.181.447-.32.106-.106.216-.246.289-.368.055-.092.125-.228.154-.298l.033-.077.028-.07.02-.059a.822.822 0 0 0 .046-.146c.004-.033.009-.042.023-.042.013 0 .027.023.038.061.015.054.08.218.13.329.117.257.269.48.45.662.198.199.36.3.606.38a1.455 1.455 0 0 0 .252.069.222.222 0 0 0 .042.008l.07.011c.022.005.06.01.084.012.025.002.064.006.088.01.023.004.094.009.157.01l.114.003v1.515c.002 1.42.002 1.516-.006 1.521-.006.005-.62.006-3.039.005-1.666 0-3.033-.001-3.038-.003zm6.599-.003c-.007-.005-.008-.1-.007-1.521V15.22l.463-.003c.399-.002.466-.004.492-.01a.53.53 0 0 1 .06-.011 1.904 1.904 0 0 0 .204-.051l.053-.02c.07-.027.142-.062.212-.103.078-.046.105-.064.191-.13a2.95 2.95 0 0 0 .346-.346c.048-.06.07-.09.15-.203.013-.018.026-.031.029-.03a.24.24 0 0 1 .033.044c.096.146.18.25.291.361.131.132.256.227.399.304a1.684 1.684 0 0 0 .61.186c.027.007.277.011.333.005a2.765 2.765 0 0 0 .237-.036.845.845 0 0 0 .094-.024c.024-.005.08-.023.14-.047.265-.105.5-.292.686-.547a1.695 1.695 0 0 0 .135-.207 1.28 1.28 0 0 0 .056-.104c.01-.023.02-.03.036-.03.014 0 .03.011.03.021a1.878 1.878 0 0 0 .184.352l.04.057a1.275 1.275 0 0 0 .492.405c.105.052.202.087.304.11.121.026.142.03.179.033a.74.74 0 0 1 .077.01.887.887 0 0 0 .18.009h.141l.02-.014.02-.013.018.012c.021.015.025.015.063.003a1.822 1.822 0 0 0 1.003-.554 3.554 3.554 0 0 0 .558-.931l.018-.047.019-.047c.005-.012.011-.024.014-.024.003-.001.006.017.008.046.002.027.002 1.073.002 2.325-.001 2.247-.002 2.277-.01 2.283-.009.006-.603.007-4.303.007-3.426 0-4.294 0-4.3-.006zm9.09 0c-.006-.003-.007-.013-.007-.08v-.075l.03.003.075.008a.953.953 0 0 1 .064.009.5.5 0 0 0 .077.009l.094.011a.777.777 0 0 0 .089.01.743.743 0 0 1 .089.011c.03.007.095.008.767.008.673 0 .736 0 .76-.008a.44.44 0 0 1 .054-.01 1.05 1.05 0 0 0 .37-.156c.138-.092.27-.22.385-.37.039-.05.086-.108.127-.155a6.158 6.158 0 0 0 .239-.298 7.385 7.385 0 0 0 .51-.762 7.602 7.602 0 0 0 .318-.624l.015-.035.025-.056a5.18 5.18 0 0 0 .051-.123l.028-.072c.01-.023.023-.059.03-.08.009-.02.018-.046.022-.056l.019-.052.02-.06a1.67 1.67 0 0 1 .031-.092c.01-.023.02-.06.03-.09.008-.032.02-.053.025-.045.002.003.004.73.004 1.616 0 1.587 0 1.61-.009 1.615-.012.007-4.32.007-4.33 0zm-.005-1.694c-.001-.003-.002-2.435-.001-5.404v-5.4h4.345l.001 2.587v2.598c-.005.017-.015.005-.024-.024a.924.924 0 0 0-.018-.052l-.026-.068a3.903 3.903 0 0 0-.2-.448 4.101 4.101 0 0 0-.626-.912 2.99 2.99 0 0 0-.26-.268.294.294 0 0 0-.158-.091.864.864 0 0 1-.07-.025.242.242 0 0 0-.112-.006.357.357 0 0 0-.116.105 4.734 4.734 0 0 0-.265.353c-.059.084-.207.31-.293.445-.102.16-.3.481-.341.552a.608.608 0 0 1-.045.06 1.602 1.602 0 0 0-.193.273c-.047.082-.109.21-.111.23-.003.025.006.038.055.074a18.821 18.821 0 0 1 .856.653c.373.306.704.624.908.872.086.104.1.122.173.232.125.186.2.362.212.5.002.027.003.111.002.187a.627.627 0 0 1-.016.194 1.266 1.266 0 0 1-.186.404c-.117.183-.39.466-.676.7-.348.285-.85.622-1.4.939a25.767 25.767 0 0 1-.525.294 22.72 22.72 0 0 1-.882.453c-.003 0-.006-.003-.007-.006zM1.9 12.752zm-.512-.02a3.3 3.3 0 0 1-.003-.205c0-.187 0-.203.008-.21.008-.007.675-.308.84-.38l.248-.101c.149-.06.188-.078.183-.083a.101.101 0 0 0-.029.007c-.03.01-.037.011-.025.004.004-.003.007-.008.005-.012-.002-.006.002-.007.02-.007.015 0 .021-.002.018-.005-.007-.007-.087-.007-.389 0-.152.003-.412.005-.577.005l-.3-.002v-.357H3.39v.202c.002.157 0 .204-.004.21-.01.013-.824.38-1.127.507-.104.044-.129.056-.124.061.001.001.012 0 .023-.005.011-.004.021-.006.023-.005l-.001.002c-.002 0-.001.003.002.007.005.006.003.007-.015.007-.023 0-.038.006-.026.011a17.326 17.326 0 0 1 .824-.013h.424v.361l-1 .001c-.549 0-1 0-1.002-.002zm-.02-.205zm2.04.026c0-.086.001-.122.002-.079a5.345 5.345 0 0 1-.001.079zM0 9.234zm3.967 3.418c-.006-.004-.007-.393-.008-3.445-.001-2.89 0-3.441.005-3.446.005-.004.8-.005 3.048-.004l3.041.001.001 3.444.001 3.444-.01.005a1.982 1.982 0 0 1-.344-.01 2.224 2.224 0 0 0-.075-.013.974.974 0 0 1-.16-.038 1.246 1.246 0 0 1-.7-.575 1.775 1.775 0 0 1-.128-.267c-.008-.02-.016-.043-.02-.05a3.337 3.337 0 0 1-.054-.168 1.027 1.027 0 0 1-.04-.19.869.869 0 0 0-.01-.066.379.379 0 0 1-.008-.06.728.728 0 0 0-.012-.071.613.613 0 0 1-.012-.068.217.217 0 0 0-.007-.038.189.189 0 0 1-.009-.043.393.393 0 0 0-.01-.05.697.697 0 0 1-.014-.055 1.373 1.373 0 0 0-.149-.398.322.322 0 0 0-.112-.106l-.031-.016h-.08c-.076 0-.078 0-.116.015a.387.387 0 0 0-.12.075.688.688 0 0 0-.098.137 1.154 1.154 0 0 0-.104.307.225.225 0 0 1-.01.046.568.568 0 0 0-.011.065.4.4 0 0 1-.02.094.277.277 0 0 1-.011.047l-.022.072c-.063.21-.145.416-.23.577-.176.33-.382.553-.645.696a1.2 1.2 0 0 1-.32.12.332.332 0 0 1-.057.011.548.548 0 0 0-.068.013c-.03.008-.105.008-1.149.01-.722.001-1.119 0-1.123-.003zm3.778-3.365a.627.627 0 0 0 .207-.124c.05-.042.169-.16.238-.234.112-.12.243-.291.371-.48.176-.26.27-.463.314-.673a.662.662 0 0 0 .01-.158.598.598 0 0 0-.01-.157 1.096 1.096 0 0 0-.047-.166c-.082-.24-.289-.491-.58-.709a3.592 3.592 0 0 0-.435-.274.172.172 0 0 0-.11.002c-.037.019-.04.021-.33.465a142.604 142.604 0 0 1-.45.676c-.003.003-.007.004-.008.002a.687.687 0 0 1-.02-.074 2.067 2.067 0 0 0-.035-.122 1.364 1.364 0 0 0-.332-.497c-.14-.14-.268-.24-.506-.39-.158-.098-.178-.108-.235-.108-.036 0-.043.001-.062.012-.03.018-.044.036-.114.142a420.025 420.025 0 0 1-.669 1.016c-.374.567-.468.71-.484.745a.172.172 0 0 0-.021.068c-.003.053.006.062.165.168.168.113.318.226.453.34.232.198.547.454.587.476.045.026.112.026.175-.002.082-.034.175-.11.329-.267a3.5 3.5 0 0 0 .38-.46c.019-.028.035-.046.04-.046.026 0 .317.216.479.355.107.092.27.227.482.397.106.085.14.097.219.077zm2.825 3.364c-.008-.006-.008-.171-.007-3.45l.001-3.442 4.304-.001c3.002-.001 4.305 0 4.308.004.006.006.01 4.228.005 4.337-.003.053-.004.062-.01.057a.019.019 0 0 1-.007-.012.625.625 0 0 0-.02-.069 4.287 4.287 0 0 1-.055-.17 5.934 5.934 0 0 1-.084-.253l-.022-.066a.955.955 0 0 0-.06-.155c-.046-.095-.09-.15-.141-.173-.047-.022-.065-.015-.14.059-.13.125-.265.289-.475.577a15.673 15.673 0 0 0-.447.64c-.058.084-.088.13-.091.14-.006.015.006.032.065.094a2.607 2.607 0 0 1 .15.167c.11.125.235.292.328.44a1.917 1.917 0 0 1 .211.482.247.247 0 0 1 .01.043c.001.017.006.04.01.054.009.032.014.215.007.252a.47.47 0 0 1-.18.299.836.836 0 0 1-.337.138c-.03.01-.04.01-.253.012a4.797 4.797 0 0 1-.493-.012.637.637 0 0 0-.068-.012 1.181 1.181 0 0 1-.152-.03l-.068-.02a1.21 1.21 0 0 1-.205-.083 1.221 1.221 0 0 1-.298-.204.432.432 0 0 1-.114-.141 2.578 2.578 0 0 1-.148-.392.07.07 0 0 1-.007-.022 5.135 5.135 0 0 1-.094-.326c-.006-.022-.014-.053-.02-.07a.648.648 0 0 1-.012-.054.237.237 0 0 0-.012-.04.096.096 0 0 1-.007-.029c0-.026-.02-.05-.069-.089a1.214 1.214 0 0 0-.073-.052l-.024-.015h-.066c-.075 0-.098.006-.154.04-.093.055-.173.19-.23.384a1.047 1.047 0 0 0-.031.119.539.539 0 0 1-.012.047.286.286 0 0 0-.01.052.255.255 0 0 1-.01.05.302.302 0 0 0-.01.062.363.363 0 0 1-.01.064.765.765 0 0 1-.132.364 1.052 1.052 0 0 1-.21.234.657.657 0 0 1-.314.15l-.06.015a1.078 1.078 0 0 1-.226.008c-.185 0-.199 0-.237-.01a.804.804 0 0 0-.067-.013.322.322 0 0 1-.045-.009.314.314 0 0 0-.04-.009.626.626 0 0 1-.099-.027 1.421 1.421 0 0 1-.167-.065.758.758 0 0 1-.254-.21.639.639 0 0 1-.102-.255c-.012-.118-.016-.136-.034-.169a.249.249 0 0 1-.027-.076.428.428 0 0 0-.012-.05.367.367 0 0 1-.007-.052.777.777 0 0 0-.01-.083.72.72 0 0 1-.01-.097.472.472 0 0 0-.056-.215.547.547 0 0 0-.113-.16.282.282 0 0 0-.19-.088c-.031 0-.039.002-.075.02a.357.357 0 0 0-.155.155 1.495 1.495 0 0 0-.128.307l-.022.07a.431.431 0 0 0-.012.048 1.175 1.175 0 0 1-.05.214.175.175 0 0 0-.007.036.282.282 0 0 1-.01.048.558.558 0 0 0-.012.067.416.416 0 0 1-.054.16.885.885 0 0 1-.217.256c-.124.094-.285.16-.46.188a1.157 1.157 0 0 0-.075.014 8.84 8.84 0 0 1-.497.008c-.394.002-.48 0-.487-.004zm-7.706-.299zm.547-.76v-.09a7.152 7.152 0 0 1 0 .09zm-1.329.17a.089.089 0 0 1 .024 0c.006 0 0 .002-.013.002s-.018-.001-.01-.002zm.242-.004a.023.023 0 0 1 .012 0c.003 0 0 .002-.006.002s-.01-.001-.006-.002zm-.954-.192zm.02-.67a37.895 37.895 0 0 1-.002-.587l.001-.582h.385l.002.388.002.388.01.011.011.01h.342l.01-.01.011-.01.002-.354.002-.352h.371l.002.352.002.353.01.011.011.01h.422l.01-.01.011-.01.002-.403.002-.402h.38V10.9l-1 .001c-.798 0-1 0-1.003-.005zm-.02-.582zm2.04-.014c0-.318.001-.448.002-.29a81.589 81.589 0 0 1-.001.29zm-1.62.206c0-.008.01-.007.013.002.001.003 0 .006-.006.006a.007.007 0 0 1-.007-.007zm.347.003c0-.002.002-.006.005-.007.003-.002.005 0 .005.004s-.002.007-.005.007-.005-.002-.005-.004zm.423-.003c0-.004.002-.006.005-.004s.005.005.005.007-.002.004-.005.004-.005-.003-.005-.007zm.422.003c0-.002.002-.006.005-.007.003-.002.005 0 .005.004s-.002.007-.005.007-.005-.002-.005-.004zm.137-.83zM1.39 9.454a2.67 2.67 0 0 1-.003-.184.88.88 0 0 1 .006-.187c.007-.006.024-.009.738-.118.608-.094.644-.1.658-.108.006-.004.003-.005-.016-.005s-.024-.002-.024-.008.004-.007.025-.005c.03.003.03-.003.002-.01a31.08 31.08 0 0 0-.669-.102c-.712-.105-.706-.104-.714-.11a1.033 1.033 0 0 1-.006-.205v-.198l.012-.004c.006-.002.303-.047.66-.099.676-.098.729-.106.733-.113.001-.002-.008-.004-.02-.004-.018 0-.023-.002-.023-.008s.004-.007.026-.005c.023.002.025.002.018-.004-.012-.01-.002-.008-.728-.12a27.275 27.275 0 0 1-.672-.109c-.005-.004-.006-.037-.005-.189l.001-.183.019.001c.024.001 1.957.418 1.973.425l.011.005.001.181c.001.15 0 .182-.005.187-.004.003-.3.05-.658.106a87.29 87.29 0 0 0-.702.11c-.06.01-.08.021-.031.017.021-.002.028 0 .022.002-.005.003-.007.007-.005.01.002.002-.006.003-.024 0-.031-.004-.033.004-.003.012.01.003.189.031.397.064.88.136.99.153 1 .157l.01.004v.183c0 .182 0 .183-.01.188-.008.005-1.971.427-1.985.427-.003 0-.007-.001-.009-.003zm-.02-.182zm2.04-.429c0-.089.001-.125.002-.08a5.669 5.669 0 0 1-.001.08zm-2.04-.427zm2.04-.427c0-.089.001-.125.002-.08a5.669 5.669 0 0 1-.001.08zM1.37 7.56zm1.38-.428a2.421 2.421 0 0 1-.003-.175c0-.197-.004-.18.045-.185.131-.015.218-.063.265-.145a.397.397 0 0 0 .007-.327c-.04-.08-.103-.115-.194-.11-.054.002-.09.014-.119.04-.031.028-.052.07-.123.254-.1.26-.159.368-.246.455a.561.561 0 0 1-.306.16 1.239 1.239 0 0 1-.265-.002.564.564 0 0 1-.464-.45 1.236 1.236 0 0 1-.005-.283.555.555 0 0 1 .36-.443.68.68 0 0 1 .232-.041h.038v.348l-.02.005-.055.015c-.124.033-.182.103-.197.236a.34.34 0 0 0 .017.129.22.22 0 0 0 .07.097.164.164 0 0 0 .105.033.113.113 0 0 0 .07-.016c.079-.038.135-.124.227-.345.103-.25.16-.353.222-.413a.581.581 0 0 1 .41-.147c.2 0 .342.053.455.17a.49.49 0 0 1 .105.15.724.724 0 0 1 .066.252.753.753 0 0 1-.08.457.596.596 0 0 1-.148.155.855.855 0 0 1-.468.126zm-.804-.01a.03.03 0 0 1 .014 0c.003.002 0 .003-.008.003s-.01-.001-.006-.002zm-.063-.394a.075.075 0 0 1 .021 0c.006.001.001.002-.01.002-.012 0-.017 0-.011-.002zm1.583-.23c0-.012.001-.017.002-.011a.075.075 0 0 1 0 .02c0 .007-.002.002-.002-.01zm-.654-.694h.009c.002.003-.001.004-.006.003-.005 0-.007-.001-.003-.003zm.019 0h.009c.002.003-.001.004-.006.003-.005 0-.007-.001-.003-.003zm2.664-.066zm7.236 0zm8.023 0z"/></svg>