<svg viewBox="0 0 24 24" xmlns="http://www.w3.org/2000/svg" role="img"><path d="M3.138 0v17.724h17.724V0zm.43.43h16.859v16.859H3.567zm8.468 1.422a7.052 7.052 0 0 0 0 14.103 7.056 7.056 0 0 0 6.009-3.358 5.619 5.619 0 1 1-4.262-9.278c1.773 0 3.358.826 4.39 2.115a7.053 7.053 0 0 0-6.137-3.582zm-2.13 16.865c-.012 0-.029.006-.04.028l-.256.569a.76.76 0 0 0-.034.134 4.65 4.65 0 0 0-.022.463c-.006.245-.012.48-.012.714-.005.228-.005.485-.005.759 0 .345-.04.641-.112.886-.111.358-.312.63-.591.82a1.11 1.11 0 0 1-.352.157 1.694 1.694 0 0 1-.362.044c-.218 0-.396-.044-.547-.133-.178-.118-.268-.296-.268-.547 0-.123.028-.274.09-.458a3.86 3.86 0 0 1 .145-.34c.067-.145.106-.234.117-.273.011-.034.005-.056-.017-.062-.028-.01-.061.028-.111.118a4.7 4.7 0 0 0-.19.379 3.79 3.79 0 0 0-.195.535c-.056.19-.084.38-.09.564 0 .268.073.49.212.664.14.173.352.262.636.262.592.006 1.066-.33 1.417-.999.134-.234.24-.502.318-.786.1-.408.156-.798.162-1.172l.062-1.54c.005-.117.016-.24.027-.357.012-.117.028-.24.04-.357-.006-.05-.012-.067-.023-.072zm10.172.534-.064.001a.39.39 0 0 0-.212.073.634.634 0 0 0-.173.2c-.056.09-.095.163-.112.213-.01.039-.01.061.006.061.028.011.061-.011.106-.078.056-.061.09-.1.1-.106.04-.022.1-.034.185-.034.089 0 .195.012.306.04.112.022.168.044.168.06 0 .007-.1.057-.296.151-.1.05-.2.106-.301.173a1.387 1.387 0 0 0-.335.324c-.156.173-.284.318-.385.435-.1.117-.173.206-.223.268a.872.872 0 0 1-.106.1c-.033.028-.073.056-.106.09a.286.286 0 0 1-.145.06c-.061.012-.095.012-.112-.005.028-.045.045-.078.056-.1.011-.023.022-.04.034-.068a.23.23 0 0 0 .028-.106c0-.083-.04-.139-.123-.173a.803.803 0 0 0-.285-.05.544.544 0 0 0-.15.028c-.05.011-.095.034-.145.056a.61.61 0 0 0-.24.257c-.011.039-.006.055.028.055a.299.299 0 0 1 .111-.028c.056 0 .1.028.134.09a.464.464 0 0 1 .045.15.762.762 0 0 1-.112.073c-.072.05-.128.084-.167.1v-.006a.184.184 0 0 1-.106.034c-.006 0-.023-.006-.04-.011-.072-.017-.15.01-.222.072l-.151.15a.803.803 0 0 1-.212.18.946.946 0 0 1-.246.1l-.078.022h-.005a.215.215 0 0 1-.1.006c.01-.106 0-.15-.045-.14-.045.05-.145.118-.296.213-.15.094-.324.172-.508.228-.184.056-.362.1-.535.129a6.25 6.25 0 0 1-.552.072c-.19.011-.358.022-.503.022-.178 0-.407-.01-.669-.027-.268-.023-.463-.056-.591-.112a.372.372 0 0 1-.23-.312c-.01-.1-.027-.151-.05-.151-.027 0-.055.084-.077.245a3.586 3.586 0 0 0-.034.447c0 .228.067.385.206.468a.92.92 0 0 0 .397.106 5.8 5.8 0 0 0 1.249-.011 4.53 4.53 0 0 0 1.272-.307c.168-.067.335-.167.513-.306.112-.079.23-.201.34-.358l.213.067v.006a.65.65 0 0 1 .083.034c.034.011.05.016.056.016.05 0 .129-.055.229-.172.078-.084.162-.168.245-.235.079-.067.145-.1.201-.1.106.017.19-.011.251-.084l.196-.123c.066-.039.128-.066.172-.083a.296.296 0 0 1 .112-.034c.022.011.05.023.084.034a.24.24 0 0 0 .106.006 1.38 1.38 0 0 0 .19-.05 1.34 1.34 0 0 0 .178-.09l.061-.061c.034-.033.09-.09.157-.162.133-.14.24-.212.312-.212a.6.6 0 0 1 .156.034c.067.028.14.05.218.078.039 0 .094-.028.161-.084a.542.542 0 0 0 .146-.195.274.274 0 0 0 .027-.112c0-.039-.005-.067-.022-.089a.758.758 0 0 0-.072-.084c-.006-.006-.028-.022-.067-.061a.313.313 0 0 1-.09-.218c.056-.044.145-.1.28-.167.133-.067.267-.128.395-.178.134-.05.224-.09.285-.123.178-.112.268-.223.268-.335-.006-.072-.028-.111-.073-.134a1.03 1.03 0 0 0-.173-.061 4.464 4.464 0 0 0-.284-.062 1.658 1.658 0 0 0-.243-.029zm-13.696.129h-.064a.39.39 0 0 0-.212.073.634.634 0 0 0-.173.201c-.056.09-.095.162-.112.212-.01.039-.01.061.006.061.028.011.061-.01.106-.078.056-.061.09-.1.1-.106.04-.022.1-.033.185-.033.089 0 .195.01.306.039.112.022.168.044.168.061 0 .006-.1.056-.296.15-.1.051-.2.107-.301.174a1.388 1.388 0 0 0-.335.323l.006.006-.034.078c-.044.04-.083.078-.128.129-.04.05-.09.111-.14.178a2.176 2.176 0 0 0-.19.134c-.06.05-.128.112-.194.179a3.43 3.43 0 0 0-.274.334h.017a4.79 4.79 0 0 0-.173.235 16.6 16.6 0 0 1-.34.48c-.078.094-.14.161-.184.206-.045.05-.112.128-.212.217-.034.04-.145.129-.324.268l-.273.195c-.023.017-.04.034-.062.045-.016.017-.033.028-.044.04-.023.021-.028.038-.017.06.022.012.061.007.106-.016.056-.028.145-.067.257-.123.078-.04.15-.078.212-.112.273-.184.524-.418.747-.702.106-.134.234-.29.385-.47.145-.183.279-.295.396-.34l.218-.083c.028-.011.05-.017.072-.028.067-.011.134-.017.207-.017.106 0 .178-.01.206-.033a.807.807 0 0 0 .14-.14.494.494 0 0 0 .089-.3.205.205 0 0 0-.045-.113.447.447 0 0 0-.123-.145c-.05-.044-.083-.066-.089-.083a.119.119 0 0 1-.039-.09h-.005c.055-.044.145-.1.278-.167.134-.067.268-.128.397-.178.133-.05.223-.09.284-.123.179-.112.268-.223.268-.335 0-.05-.022-.084-.073-.111a1.04 1.04 0 0 0-.173-.062 4.407 4.407 0 0 0-.284-.061 1.66 1.66 0 0 0-.243-.03zm4.954.217c-.009.002-.018.013-.03.03a4.93 4.93 0 0 0-.196.518 2.763 2.763 0 0 0-.128.82c-.006.184-.022.396-.034.647a1.313 1.313 0 0 1-.055.324.66.66 0 0 1-.23.301.583.583 0 0 1-.362.14l-.083-.007c-.028 0-.05-.006-.05-.01a1.84 1.84 0 0 0 .223-.458 2.821 2.821 0 0 0 .133-.725l.073-.854c0-.022.005-.084.011-.173.006-.09.011-.15.011-.19 0-.083-.005-.122-.022-.122-.006 0-.011.006-.017.01-.005.007-.01.018-.022.034-.1.274-.173.486-.218.647-.067.235-.1.458-.106.659v.223l-.005.206c-.006.067-.012.15-.017.246a1.598 1.598 0 0 1-.04.228.556.556 0 0 1-.055.14l-.05.078c-.028.034-.05.067-.073.095a.133.133 0 0 0-.033.078c0 .028.017.061.045.09a.465.465 0 0 0 .066.055c.04.045.084.084.129.112.05.027.1.044.162.044a.479.479 0 0 0 .323-.128c.067-.062.128-.14.195-.24.067-.1.118-.19.151-.279l.084-.229c.005-.01.005-.016.01-.028.09.106.213.157.375.157a.72.72 0 0 0 .424-.15c.134-.101.278-.24.44-.42l.179-.022c.05 0 .09-.006.123-.016a.264.264 0 0 0 .1-.073.952.952 0 0 0 .15-.229.504.504 0 0 0 .05-.19c0-.094-.038-.156-.122-.195a2.153 2.153 0 0 0-.234-.072 1.006 1.006 0 0 1-.28-.129c-.066-.05-.127-.094-.167-.139-.016-.011-.033.011-.055.061a.502.502 0 0 0-.045.14c-.005.045-.017.078-.022.112a.543.543 0 0 1-.1.172.895.895 0 0 0-.123.218.626.626 0 0 0-.034.212c0 .011 0 .028-.006.04 0 .01-.027.021-.078.021-.172 0-.29-.044-.357-.134a.496.496 0 0 1-.095-.312v-.022a23.15 23.15 0 0 1 .078-1.054c.023-.168.029-.252.017-.257a.01.01 0 0 0-.008-.001zM6.88 20.601c-.013.002-.025.014-.038.035-.022.05-.05.106-.083.167a3.684 3.684 0 0 0-.084.201c-.028.067-.05.14-.072.212-.023.073-.034.145-.045.212a3.26 3.26 0 0 0-.017.508c.006.217.006.39-.006.513a2.223 2.223 0 0 1-.05.374 2.757 2.757 0 0 0-.039.2c-.005.017 0 .029.017.04.011.006.028 0 .056-.023a.744.744 0 0 0 .078-.106c.033-.05.072-.145.128-.29.056-.145.09-.312.106-.502a2.64 2.64 0 0 0 .017-.323c0-.129.005-.268.011-.43v-.1c0-.045.006-.09.006-.145 0-.05.005-.106.005-.157.006-.055.006-.106.012-.15.005-.045.005-.09.01-.123.006-.033.006-.056.012-.067.011-.028.005-.039-.011-.045-.005 0-.009-.002-.013 0zm7.94.135c-.017 0-.056.045-.106.134-.056.09-.1.168-.145.24-.04-.05-.09-.111-.162-.184-.072-.067-.128-.095-.162-.084-.022.011-.078.095-.167.263-.09.167-.134.262-.134.29 0 .016.034.05.095.1.067.05.112.095.145.117.034.028.056.04.073.04.072 0 .161-.118.284-.358.05.034.106.084.167.15.062.062.106.096.134.096.04 0 .095-.056.173-.168a.517.517 0 0 0 .123-.295c-.006-.073-.045-.145-.123-.223-.078-.079-.14-.118-.195-.118zm-2.678.106c.05 0 .1.023.15.067.051.045.073.084.068.123-.017.112-.1.162-.246.162-.095 0-.145-.04-.145-.123 0-.05.017-.1.056-.15.04-.05.078-.079.117-.079zm.407.112c.04.011.067.022.084.022.106.034.162.073.162.112 0 .061-.073.095-.223.095h-.168a.638.638 0 0 1 .067-.145c.034-.056.062-.084.078-.084zm7.265 1.445c-.006 0-.012.003-.018.005-.022.011-.072.095-.15.245-.078.151-.117.257-.117.302 0 .022.016.05.044.078.04.028.09.067.162.117.073.05.117.078.128.078.034 0 .084-.067.157-.195.072-.129.111-.229.111-.302-.006-.05-.05-.122-.14-.217-.073-.078-.133-.118-.177-.112zm-2.255.457c-.016 0-.056.045-.106.134-.056.09-.1.168-.145.24a1.8 1.8 0 0 0-.162-.184c-.072-.067-.128-.095-.161-.084-.023.011-.078.095-.168.263-.089.161-.134.262-.134.29 0 .01.034.044.095.1.067.05.112.09.145.117.034.028.056.04.073.04.072 0 .162-.118.284-.358.05.034.106.084.168.15.061.062.106.096.134.096.039 0 .094-.056.173-.168a.516.516 0 0 0 .122-.295c-.005-.073-.044-.145-.122-.224-.079-.078-.146-.117-.196-.117z"/></svg>