<svg viewBox="0 0 24 24" xmlns="http://www.w3.org/2000/svg" role="img"><path d="M9.543 15.98a2.838 2.838 0 0 1-1.927-1.223c-.135-.203-.332-.658-.366-.848l-.022-.118.33.013c.362.015.753-.066.968-.199l.108-.067.11.082c.596.447 1.515.472 2.16.058.354-.227.643-.621.779-1.063.064-.21.07-.319.079-1.62.007-.959.022-1.435.049-1.52a1.86 1.86 0 0 1 .957-1.1c.24-.114.287-.124.633-.136.29-.01.413 0 .551.044.791.255 1.262.928 1.263 1.804 0 .448.162.811.522 1.173.19.192.3.27.551.39.362.174.566.223.926.223.382 0 .803-.13 1.146-.354.086-.057.093-.056.35.078.34.177.603.243.969.242.381 0 .658-.068.988-.24l.265-.137.206.102c.113.056.281.128.373.16.22.076.85.104 1.128.05a2.187 2.187 0 0 0 1.084-.58c.221-.215.25-.192.27.21.035.742-.202 1.474-.616 1.896a1.763 1.763 0 0 1-.897.48 1.776 1.776 0 0 1-1.283-.282 1.185 1.185 0 0 0-.192-.122.584.584 0 0 0-.134.085c-.645.492-1.637.504-2.273.027l-.107-.08-.16.122c-.88.676-2.24.417-2.796-.532a1.037 1.037 0 0 0-.102-.157 1.32 1.32 0 0 0-.114.183c-.292.518-.937.882-1.499.846l-.158-.01-.009-.946-.009-.945.219-.222c.349-.354.448-.634.45-1.266 0-.504-.137-.982-.339-1.17a.744.744 0 0 0-.49-.177c-.3 0-.52.145-.65.426-.073.157-.074.182-.081 2.062-.007 1.79-.012 1.922-.077 2.209-.046.203-.109.37-.189.501l-.188.313c-.346.592-1.016 1.1-1.672 1.268a3.41 3.41 0 0 1-1.084.067zm-7.74-2.218c-.524-.141-.818-.306-1.175-.656-.28-.274-.38-.426-.526-.8-.096-.246-.117-.335-.093-.4.027-.077.042-.082.195-.067.091.01.497.017.9.016.607 0 .814-.014 1.181-.077.746-.126 1.185-.329 1.488-.685.385-.454.464-.828.463-2.203 0-.766-.035-.72.531-.72.316 0 .399.01.434.052.034.041.045.277.048 1.042.004 1.085.01 1.13.225 1.573.156.322.564.724.89.878.32.15.627.225.924.225.264 0 .67-.093.884-.202.214-.11.22-.091.228.763.006.665 0 .732-.054.78-.143.125-.296.156-.904.185-.306.014-.385.005-.751-.089a3.948 3.948 0 0 1-.629-.216c-.255-.128-.83-.548-.891-.65a.154.154 0 0 0-.121-.07c-.064 0-.095.036-.165.192-.258.58-.9 1.024-1.679 1.16-.429.075-1.064.06-1.403-.031zm7.551-.1c-.184-.058-.486-.213-.576-.296-.074-.068-.075-.081-.075-.879 0-.692.008-.817.052-.862.069-.069.08-.067.27.03.09.046.27.098.402.117.49.068 1.17-.104 1.102-.28-.017-.044-.047-.039-.213.036-.261.118-.8.148-1.097.062-.558-.162-1.007-.539-1.166-.979a4.302 4.302 0 0 0-.114-.274.869.869 0 0 1-.07-.377.764.764 0 0 0-.067-.355.644.644 0 0 0-.948-.248.657.657 0 0 0 .054 1.114.658.658 0 0 0 .616.005.658.658 0 0 1 .238-.073c.087 0 .106.02.173.184.04.102.141.289.223.416.182.285.17.323-.147.47a1.8 1.8 0 0 1-.895.185c-.467-.023-.826-.186-1.172-.533-.37-.37-.515-.717-.513-1.237 0-.368.036-.532.176-.817.29-.591.923-.973 1.614-.972.968.001 1.673.672 1.863 1.77.077.444.117.538.27.627.114.066.168.076.375.064.314-.017.48-.12.596-.368.132-.284.09-.523-.132-.745-.179-.18-.363-.234-.618-.182-.1.02-.247.036-.326.036-.128 0-.152-.013-.228-.124a.54.54 0 0 1-.084-.164.872.872 0 0 0-.117-.213c-.084-.124-.117-.21-.117-.302 0-.117.013-.137.142-.21.253-.145.485-.202.826-.203.348-.001.544.048.877.223.24.126.611.511.732.76.184.38.195.486.204 1.91.008 1.272.006 1.32-.066 1.546a1.681 1.681 0 0 1-1.105 1.12c-.25.077-.745.087-.959.019zm12.407-2.12c-.29-.079-.472-.175-.746-.396-.38-.305-.593-.717-.659-1.277-.022-.188-.052-.282-.122-.381a.658.658 0 0 0-.829-.216c-.153.077-.315.066-.315-.02 0-.067-.255-.55-.335-.636-.036-.039-.066-.087-.066-.107 0-.06.186-.198.425-.316.217-.107.239-.11.626-.11.341 0 .43.012.596.078.26.104.622.355.773.537.244.294.418.743.42 1.086.001.495.458.817.884.624.256-.116.444-.427.406-.67-.057-.361-.422-.649-.747-.588a.757.757 0 0 0-.233.103c-.095.065-.13.074-.168.042-.05-.04-.344-.482-.344-.515a.966.966 0 0 0-.103-.163c-.096-.134-.1-.151-.059-.24.031-.064.115-.128.263-.2.299-.148.523-.19.911-.17.309.014.345.024.646.173.498.248.812.614.96 1.119.078.263.072.773-.012 1.045a2.146 2.146 0 0 1-.394.68c-.47.488-1.156.688-1.777.519zm-4.956-.04c-.548-.129-1.031-.602-1.235-1.208-.11-.325-.056-.858.12-1.21a1.734 1.734 0 0 1 2.079-.855c.576.19 1.003.662 1.154 1.275l.103.415c.052.204.182.401.322.489.113.07.164.079.508.079h.382l.119.219c.065.12.152.265.194.322.15.206.095.295-.254.415a1.77 1.77 0 0 1-1.788-.416 1.807 1.807 0 0 1-.522-.958c-.125-.556-.31-.82-.634-.904-.216-.056-.411.004-.589.182-.525.524.035 1.422.71 1.14a.89.89 0 0 1 .285-.05c.16 0 .167.005.217.125.063.15.31.51.35.51.062 0 .024.098-.067.174-.103.087-.166.114-.514.223a2.22 2.22 0 0 1-.94.032z"/></svg>