<svg role="img" viewBox="0 0 24 24" xmlns="http://www.w3.org/2000/svg"><path d="M2.385 14.697a2.772 2.772 0 0 1-1.759-.964c-.202-.243-.225-.277-.336-.504A2.606 2.606 0 0 1 0 12.006c0-.757.26-1.388.79-1.916a2.615 2.615 0 0 1 1.682-.792 2.734 2.734 0 0 1 2.492 1.172c.18.257.293.513.392.88.064.238.07.285.07.637.002.338-.004.404-.056.614-.258 1.035-.996 1.779-2.025 2.038-.26.065-.697.092-.96.059zm.71-.114c.564-.067 1.238-.43 1.607-.868a2 2 0 0 0 .363-.544c.158-.306.243-.641.279-1.088.024-.307-.006-.313-.091-.018-.148.516-.311.81-.632 1.135-.351.356-.743.563-1.274.671-.494.1-1.009.017-1.34-.217-.043-.03-.06-.05-.039-.042.112.037.354.063.515.054.341-.018.587-.161.72-.42.056-.107.064-.146.064-.323 0-.168-.008-.217-.053-.305-.114-.222-.27-.33-.629-.432-.242-.07-.518-.233-.494-.294.009-.023.005-.03-.012-.02-.074.046-.315-.37-.36-.621-.026-.14.004-.468.045-.493.025-.015.026-.092.001-.107-.025-.016-.254.106-.416.221-.173.123-.31.256-.438.428-.057.076-.11.132-.117.124-.008-.008-.014.003-.014.023a.67.67 0 0 1-.065.165 2.065 2.065 0 0 0 .017 1.914c.045.085.087.16.094.167a1.532 1.532 0 0 0 .232.276c.43.412.882.605 1.507.644.124.008.29-.002.53-.03zm.692-1.266.25-.164c.34-.22.636-.595.777-.986a2.04 2.04 0 0 0-.097-1.654 1.597 1.597 0 0 0-.358-.49c-.17-.169-.268-.25-.354-.294a.39.39 0 0 1-.08-.05c-.021-.027-.347-.163-.524-.217-.214-.066-.725-.093-1.048-.055-.787.092-1.589.641-1.959 1.342-.212.4-.33.924-.308 1.367.005.097.037.054.068-.09.126-.578.461-1.116.902-1.447.506-.38 1.254-.576 1.78-.465.247.052.465.132.465.171 0 .011.009.015.019.008.01-.006.036.001.057.016.031.023-.029.028-.326.028-.397-.001-.372-.007-.624.16-.168.112-.302.423-.28.647.016.15.11.35.21.444.09.084.28.178.426.21.166.036.295.091.295.126 0 .021.014.027.042.018.05-.015.315.192.315.247 0 .018.014.039.032.045.042.017.168.24.168.299 0 .024.01.045.02.045.024 0 .07.244.07.372a.96.96 0 0 1-.045.23.45.45 0 0 0-.032.158c.02.032.073.024.139-.02zm4.128.334c-.266-.07-.456-.156-.546-.25-.047-.05-.063-.092-.07-.187-.024-.274.19-.38.502-.248.344.144.85.21 1.043.137.205-.079.3-.223.265-.406a.462.462 0 0 0-.207-.263 3.144 3.144 0 0 0-.527-.145 3.353 3.353 0 0 1-.602-.185c-.26-.128-.405-.279-.483-.5-.061-.173-.05-.49.026-.688.063-.165.285-.395.468-.484.39-.19.895-.204 1.4-.038.156.052.293.165.34.283.057.145-.04.307-.206.347-.039.01-.168-.014-.368-.068-.518-.139-.85-.11-.99.085-.072.102-.082.264-.023.36.051.083.198.166.37.21l.338.084c.599.15.871.313 1.018.61.178.362.07.881-.236 1.13-.242.196-.537.28-.972.28a1.671 1.671 0 0 1-.54-.064zm2.538-.003c-.18-.114-.173-.052-.166-1.5.006-1.201.009-1.28.049-1.354.119-.222.308-.36.62-.453.14-.042.217-.049.553-.05.434 0 .568.025.823.149a.716.716 0 0 1 .423.528c.017.078.025.502.025 1.266 0 1.219-.002 1.239-.106 1.355a.462.462 0 0 1-.286.127.435.435 0 0 1-.322-.173l-.055-.08-.011-1.21-.011-1.211-.067-.07a.492.492 0 0 0-.307-.157c-.199-.038-.418.032-.511.162l-.052.073-.011 1.206-.011 1.206-.056.082a.443.443 0 0 1-.15.127.345.345 0 0 1-.371-.023zm3.766.033c-.359-.082-.567-.221-.699-.467l-.06-.112-.005-1.062c-.006-1.043-.006-1.064.042-1.191.089-.238.291-.402.622-.505.15-.046.211-.052.58-.052.392 0 .422.003.594.061.329.112.494.24.596.46.047.101.048.127.048 1.185 0 1.062 0 1.084-.048 1.186-.11.236-.336.397-.687.486-.215.055-.764.062-.982.011zm.645-.512c.126-.038.25-.125.27-.19.008-.024.022-.04.033-.033.01.006.017-.407.015-.92-.004-1.043-.001-1.023-.166-1.13-.298-.193-.785-.057-.786.22-.007 1.34-.001 1.814.023 1.867.052.114.248.215.423.218a.764.764 0 0 0 .188-.032zm2.674.505c-.378-.096-.694-.33-.836-.62l-.074-.152-.007-1.176c-.007-1.306-.013-1.252.142-1.37a.38.38 0 0 1 .418-.023c.193.113.181.031.194 1.346.01 1.139.012 1.165.058 1.226.068.092.237.17.388.182.255.018.482-.117.505-.3.006-.047.012-.578.015-1.18.005-1.23-.005-1.159.179-1.275.075-.048.109-.055.224-.047.153.01.244.062.316.18.041.068.044.136.055 1.236l.01 1.164.056.06c.15.163.445.213.658.113a.583.583 0 0 0 .149-.094c.078-.09.085-.203.085-1.298 0-1.196-.002-1.177.147-1.29.073-.056.103-.064.235-.064.169 0 .237.035.328.168l.051.076-.007 1.183-.007 1.182-.07.15c-.224.471-.852.752-1.417.632a1.732 1.732 0 0 1-.487-.17l-.124-.066-.122.066c-.328.178-.75.241-1.064.161zm4.867.018c-.342-.053-.614-.185-.749-.363-.125-.166-.154-.291-.154-.667 0-.369.032-.516.157-.71.074-.116.28-.3.378-.339a5.215 5.215 0 0 0 .212-.087c.041-.017.242-.032.524-.04l.457-.012.007-.15c.01-.212-.054-.354-.193-.436-.096-.056-.12-.06-.337-.059a.974.974 0 0 0-.368.052c-.234.086-.439.136-.5.121-.17-.04-.251-.162-.204-.305.05-.152.205-.249.549-.344.204-.056.252-.06.623-.06.378.001.411.005.566.061.223.081.337.151.43.266.191.233.197.277.197 1.41 0 .894-.002.95-.046 1.091-.114.36-.51.566-1.125.584a2.99 2.99 0 0 1-.424-.013zm.549-.546a.41.41 0 0 0 .238-.2c.03-.055.037-.146.037-.513l.001-.446h-.29c-.314 0-.414.023-.525.116-.126.106-.144.167-.143.486 0 .232.008.305.039.362a.54.54 0 0 0 .244.21c.094.027.301.02.399-.015z"/></svg>