<svg viewBox="0 0 24 24" xmlns="http://www.w3.org/2000/svg" role="img"><path d="m19.894 16.044-.1-.01a2.544 2.544 0 0 1-.88-.27 2.76 2.76 0 0 1-.244-.131 4.585 4.585 0 0 1-.43-.297c-.11-.071-.577-.512-.718-.677a8.547 8.547 0 0 1-.605-.785.285.285 0 0 0-.024-.038.36.36 0 0 1-.024-.035l-.02-.031.02.016a.09.09 0 0 1 .022.03c.002.007.006.012.009.012.003 0 .081.075.175.17a4.976 4.976 0 0 0 .496.438c.004.005.039.03.172.121.145.1.28.178.445.26.252.124.439.186.696.231.1.018.12.02.306.02.215 0 .238-.004.453-.053.293-.068.58-.202.785-.366.085-.068.234-.22.294-.302a2.713 2.713 0 0 0 .19-.295c.014-.022.079-.162.115-.248a4.47 4.47 0 0 0 .236-.854c.018-.115.049-.341.061-.457.024-.231.029-.289.043-.583a2.79 2.79 0 0 1 .032-.356c.053-.293.188-.55.382-.73a.485.485 0 0 1 .076-.058l.033-.027a.933.933 0 0 1 .26-.138 1.19 1.19 0 0 1 .263-.07c.111-.018.329-.011.447.013.08.017.206.056.275.085a1.502 1.502 0 0 1 .36.224c.22.183.395.48.463.79.065.29.054.655-.028.964a3.544 3.544 0 0 1-.293.747 5.35 5.35 0 0 1-.359.599 4.021 4.021 0 0 1-.17.235l-.048.063c-.08.108-.27.328-.376.437a.416.416 0 0 0-.047.053 5.28 5.28 0 0 1-.478.437 1.26 1.26 0 0 1-.14.112 4.77 4.77 0 0 1-.52.344 3.35 3.35 0 0 1-.82.332 2.314 2.314 0 0 1-.324.061c-.09.013-.397.024-.46.016zm-16.632-.482c-.27-.011-.496-.076-.664-.193a.97.97 0 0 1-.362-.56 1.578 1.578 0 0 1-.01-.349c.03-.263.18-.664.35-.942.078-.126.097-.131.232-.059.128.068.132.082.062.242-.138.313-.176.505-.136.696a.72.72 0 0 0 .115.252c.074.099.217.168.413.2.08.013.357.01.489-.004.213-.024.413-.064.626-.126.116-.033.291-.099.291-.108a.22.22 0 0 0-.038-.041c-.12-.11-.307-.169-.537-.169-.102 0-.125-.009-.149-.055a.14.14 0 0 1-.015-.052c0-.023.15-.495.164-.519a.095.095 0 0 1 .033-.028c.02-.011.064-.013.577-.016.48-.004.561-.006.603-.016.134-.032.183-.091.29-.352.213-.517.325-.709.49-.843a.781.781 0 0 1 .253-.13.541.541 0 0 1 .154-.015c.093 0 .1 0 .166.023.156.053.287.17.418.37.174.267.29.638.294.939 0 .093 0 .1-.021.162-.069.196-.274.507-.362.547-.048.022-.23.016-.46-.015-.26-.036-.515-.107-.656-.183l-.042-.023-.032-.085-.032-.086-.016.03a.698.698 0 0 1-.26.28.731.731 0 0 1-.323.067h-.056l.007.042c.017.106-.052.364-.156.583-.044.091-.069.124-.121.158-.18.116-.642.282-.933.333a3.673 3.673 0 0 1-.566.048l-.08-.003zm3.625-1.797a.819.819 0 0 0-.02-.08c-.082-.28-.26-.568-.393-.634-.16-.078-.33.088-.493.477l-.036.087c0 .01.215.07.345.095.235.046.597.08.597.055zm1.04 1.597a3.46 3.46 0 0 1-.578-.293c-.17-.103-.211-.142-.2-.195a.76.76 0 0 1 .084-.185c.028-.025.058-.026.151-.006.363.08.592.034.814-.168a1.664 1.664 0 0 0 .364-.597c0-.005-.038-.095-.084-.198a6.813 6.813 0 0 1-.237-.564c0-.01.004-.029.01-.041.015-.035.322-.404.348-.418.016-.01.038-.012.077-.012.06 0 .097.011.11.034.003.008.036.136.073.285.083.343.12.468.172.57.055.108.114.137.308.151.12.01 1.006.003 1.212-.008.143-.008.298-.023.305-.03.009-.008-.103-.145-.19-.231a4.233 4.233 0 0 0-.668-.52l-.068-.043-.027.025c-.034.03-.07.038-.109.024a2.923 2.923 0 0 1-.226-.153c-.226-.162-.221-.157-.22-.247.004-.145.16-.63.22-.685.01-.008.414-.243.9-.523.877-.506.882-.509.92-.509.033 0 .046.004.077.024.04.026.056.053.056.093 0 .013-.022.138-.048.277a1.59 1.59 0 0 1-.062.272 12.96 12.96 0 0 1-.687.363c-.371.19-.675.348-.675.35a5.88 5.88 0 0 1 .491.323c.242.18.44.375.596.584.132.175.21.356.21.482 0 .055-.021.13-.075.262-.108.26-.19.393-.266.432-.098.049-.27.081-.538.101-.055.004-.354.01-.663.011-.502.003-.567.003-.617-.008a.251.251 0 0 1-.074-.024.874.874 0 0 0-.077-.043.899.899 0 0 1-.1-.054 1.8 1.8 0 0 0-.027.094 1.807 1.807 0 0 1-.464.82.61.61 0 0 1-.402.191.261.261 0 0 1-.116-.013zm4.118.005c-.112-.032-.368-.16-.608-.306-.16-.096-.188-.124-.188-.18 0-.031.068-.186.088-.199.028-.019.066-.019.15 0 .31.072.508.048.71-.088.162-.109.341-.358.446-.623l.022-.056-.06-.132a12.478 12.478 0 0 1-.268-.63c0-.031.02-.059.182-.253.124-.149.173-.202.189-.208a.31.31 0 0 1 .142.002.08.08 0 0 1 .035.032c.006.012.04.137.073.278.084.346.114.446.168.556.015.03.036.067.048.081.062.074.225.099.458.068l.063-.008.079-.236a3.15 3.15 0 0 1 .09-.25 2.47 2.47 0 0 1 .319-.207c.055-.01.14.036.157.086.009.026.009.04-.006.153a16.36 16.36 0 0 1-.04.278 1.144 1.144 0 0 0-.019.158c.011.01.15.034.24.04.09.006.227.001.327-.012l.038-.005.096-.354c.053-.194.1-.364.106-.376.008-.019.038-.042.158-.12.081-.054.16-.1.175-.105.032-.009.065 0 .113.031.054.034.058.05.048.185a9.297 9.297 0 0 1-.06.525l-.015.114.062.032a1.961 1.961 0 0 0 .569.18 17.8 17.8 0 0 0-.061-.539c-.054-.45-.063-.54-.057-.561.007-.022.034-.048.196-.18a2.57 2.57 0 0 1 .206-.16.403.403 0 0 1 .16.002.061.061 0 0 1 .035.033 18.337 18.337 0 0 1 .055 1.212v.22l-.025.06a1.656 1.656 0 0 1-.3.423c-.115.118-.164.14-.285.128-.222-.02-.56-.147-.802-.3l-.08-.051-.01.017a.673.673 0 0 1-.21.194c-.16.086-.478.11-.701.053a.747.747 0 0 1-.323-.173l-.03-.03-.05.049a.698.698 0 0 1-.174.123.087.087 0 0 0-.033.022c-.02.027-.08.037-.228.037-.151 0-.209-.01-.23-.04a.181.181 0 0 0-.05-.033 1.013 1.013 0 0 1-.07-.039c-.023-.013-.031-.016-.033-.009l-.018.065c-.06.242-.195.52-.338.698-.146.18-.257.266-.408.314a.452.452 0 0 1-.223.014zm5.986-1.898a1.66 1.66 0 0 1-.338-.094 2.164 2.164 0 0 1-.126-.061.977.977 0 0 1-.173-.114 1.357 1.357 0 0 1-.394-.464 1.603 1.603 0 0 1-.17-.568c-.034-.269-.005-.547.092-.897a6.79 6.79 0 0 1 .096-.272 5.527 5.527 0 0 1 .866-1.409c0-.002.01-.013.02-.024l.11-.124c.055-.066.124-.137.25-.265a4.455 4.455 0 0 1 .402-.364c.026-.024.102-.083.148-.115a.162.162 0 0 0 .04-.034c0-.003.003-.006.007-.006s.03-.017.058-.038a3.344 3.344 0 0 1 .24-.16 3.572 3.572 0 0 1 .383-.21l.08-.038.07-.03c.017-.009.064-.027.104-.042l.088-.033c.013-.006.116-.038.164-.051l.041-.013a2.212 2.212 0 0 1 .283-.06c.194-.04.635-.038.816.005l.098.022a2.609 2.609 0 0 1 .39.124 3.305 3.305 0 0 1 .615.324c.01.002.017.007.017.012 0 .004.004.007.01.007.005 0 .014.005.018.01a.322.322 0 0 0 .048.036 3.386 3.386 0 0 1 .323.249 6.038 6.038 0 0 1 .303.277c.13.126.27.275.371.396.116.14.247.302.292.364l.133.185c.082.115.151.22.148.224a.336.336 0 0 1-.056-.055 6.349 6.349 0 0 0-.254-.256 5.428 5.428 0 0 0-.536-.437 4.044 4.044 0 0 0-.478-.286l-.047-.02a.228.228 0 0 0-.047-.018c-.005 0-.013-.005-.017-.01a.063.063 0 0 0-.03-.014.114.114 0 0 1-.03-.01 1.4 1.4 0 0 0-.259-.094 2.655 2.655 0 0 0-.268-.063 2.178 2.178 0 0 0-.42-.019 2.265 2.265 0 0 0-.246.032l-.119.028a.835.835 0 0 0-.13.038 1.808 1.808 0 0 0-.82.499 1.94 1.94 0 0 0-.216.286 2.743 2.743 0 0 0-.27.593 4.493 4.493 0 0 0-.151.614 9.158 9.158 0 0 0-.112 1.11c-.008.17-.027.323-.048.402a1.654 1.654 0 0 1-.14.362l-.04.06c-.03.045-.028.044-.08.107a1.265 1.265 0 0 1-.174.169c-.046.04-.265.166-.29.166a.587.587 0 0 0-.059.018.932.932 0 0 1-.359.056c-.11.002-.18 0-.227-.007zM.758 12.963a4.303 4.303 0 0 1-.708-.375c-.032-.026-.05-.058-.05-.09 0-.028.07-.183.087-.195.03-.02.062-.019.19.007.218.044.323.049.443.021A.91.91 0 0 0 1.21 12c.104-.13.2-.286.258-.422l.025-.058-.248-.488a11.73 11.73 0 0 1-.251-.511.082.082 0 0 1 .009-.048c.019-.036.327-.416.349-.43a.174.174 0 0 1 .077-.015c.068-.003.108.007.123.029.022.034.23.704.301.971l.026.098v.352l.001.353-.02.076c-.062.24-.197.509-.358.709a1.71 1.71 0 0 1-.262.256.604.604 0 0 1-.343.12.328.328 0 0 1-.14-.027zm2.173.008c-.186-.061-.678-.331-.746-.41a.106.106 0 0 1-.025-.09c.006-.026.058-.148.07-.168a.077.077 0 0 1 .037-.024c.023-.007.04-.005.124.014.145.032.28.05.38.05a.988.988 0 0 0 .708-.283c.094-.092.177-.214.177-.258 0-.019-.005-.014-.037.04l-.046.072c-.021.025-.15.07-.256.09a1.95 1.95 0 0 1-.432.008c-.212-.032-.395-.14-.459-.271a2.572 2.572 0 0 1-.117-.345.487.487 0 0 1-.022-.16c.001-.232.092-.514.248-.774.152-.253.327-.394.544-.44a.864.864 0 0 1 .267.001c.115.03.182.07.28.167.087.087.14.164.208.297.165.326.243.695.232 1.106a1.755 1.755 0 0 1-.133.68c-.004.01.017.015.117.034.228.044.313.05.42.032a.717.717 0 0 0 .308-.128 1.26 1.26 0 0 0 .339-.367c.052-.08.153-.272.162-.312.004-.015-.04-.105-.241-.501a11.952 11.952 0 0 1-.25-.506.113.113 0 0 1 .004-.044c.004-.01.083-.114.176-.23.126-.157.174-.212.19-.217a.371.371 0 0 1 .155.002.082.082 0 0 1 .034.026c.025.039.255.788.306.995l.02.085-.002.358-.002.358-.022.078c-.067.233-.192.48-.336.661a2.051 2.051 0 0 1-.255.258.598.598 0 0 1-.342.135.281.281 0 0 1-.141-.018 2.59 2.59 0 0 1-.354-.163c-.245-.13-.394-.223-.415-.257l-.012-.02-.041.057a1.458 1.458 0 0 1-.246.25c-.183.133-.413.186-.574.132zm.478-1.63a.59.59 0 0 0 .142-.023c.014-.01-.062-.218-.125-.344-.093-.184-.186-.285-.282-.307-.074-.016-.16.02-.24.1a1.149 1.149 0 0 0-.252.488c0 .03.142.079.282.097.073.009.384.003.475-.01zm6.081.278a.097.097 0 0 1-.041-.046l-.017-.034.01-.125c.008-.103.013-.128.024-.143.01-.012.32-.188.875-.496.474-.263.876-.484.892-.492.039-.018.07-.013.102.016.039.034.041.051.026.18-.014.11-.024.15-.043.166-.005.005-.401.227-.88.494-.65.365-.875.488-.896.49a.086.086 0 0 1-.052-.01zm-8.296-2c-.094-.05-.328-.3-.34-.363a.088.088 0 0 1 .009-.052c.029-.065.303-.344.351-.358.043-.013.072-.003.127.044.083.07.178.165.233.23.078.094.083.131.026.21a2.12 2.12 0 0 1-.25.25c-.074.06-.104.068-.156.04z"/></svg>