<svg viewBox="0 0 24 24" xmlns="http://www.w3.org/2000/svg" role="img"><path d="m19.099 23.95-.524-.282a791.437 791.437 0 0 1-1.992-1.079l-.12-.063-.083.035c-.222.093-.754.272-1.118.378a11.717 11.717 0 0 1-3.404.459 11.492 11.492 0 0 1-3.212-.485 11.786 11.786 0 0 1-5.284-3.299A11.578 11.578 0 0 1 1.4 16.701 10.57 10.57 0 0 1 .751 15c-.31-1.06-.45-2.005-.467-3.14-.012-.785.031-1.377.154-2.107a11.68 11.68 0 0 1 3.005-6.056 11.812 11.812 0 0 1 3.777-2.69 11.694 11.694 0 0 1 3.665-.96c.123-.013.26-.028.304-.034.046-.007.377-.012.816-.012h.737l.382.045c.72.086.948.122 1.414.224.938.207 1.803.512 2.67.94.499.247.74.386 1.215.697a11.412 11.412 0 0 1 2.16 1.818c.435.466.721.822 1.08 1.345a11.628 11.628 0 0 1 1.992 5.345c.101.91.08 2.055-.056 2.998-.136.94-.441 2.02-.819 2.898a11.855 11.855 0 0 1-2.016 3.161 13.9 13.9 0 0 1-1.176 1.158l-.05.042-.002 1.414c0 .778-.006 1.488-.011 1.578l-.01.163-.05.087-.051.087H19.3c-.111 0-.113-.001-.202-.05zM12.2 19.366a6.88 6.88 0 0 0 3.573-1.429c.39-.307.797-.72 1.09-1.107.291-.387.467-.709.647-1.185.376-.994.43-2.024.17-3.205a5.5 5.5 0 0 0-.347-1.058 10.294 10.294 0 0 0-.522-1.038c-.01-.014-.015-.029-.011-.032.017-.017-.307-.477-.763-1.085-.628-.837-.883-1.212-1.092-1.608-.19-.36-.298-.64-.348-.9a2.445 2.445 0 0 1-.018-.56 2.27 2.27 0 0 1 .826-1.482l.043-.033-.023-.023c-.031-.03-.106-.039-.384-.04a4.494 4.494 0 0 0-2.053.483c-.389.191-.7.396-1.035.682-.153.13-.473.447-.473.468a.718.718 0 0 1-.085.122 5.035 5.035 0 0 0-.983 2.132c-.051.27-.066.47-.067.894 0 .76.047.997.448 2.288.23.74.316 1.092.374 1.527a5.19 5.19 0 0 1-.005 1.007 3.349 3.349 0 0 1-.944 1.868 3.293 3.293 0 0 1-2.035.972 3.768 3.768 0 0 1-1.198-.082 2.278 2.278 0 0 1-.495-.173c-.15-.067-.392-.155-.4-.146-.007.006.123.202.2.304.188.25.468.533.841.852.285.244.3.256.467.373a6.994 6.994 0 0 0 3.674 1.24c.212.01.71-.005.928-.026z"/></svg>