<svg role="img" viewBox="0 0 24 24" xmlns="http://www.w3.org/2000/svg"><path d="M11.369 23.984a11.991 11.991 0 0 1-6.717-2.498 11.741 11.741 0 0 1-1.117-.989A11.798 11.798 0 0 1 1.2 17.23a12.028 12.028 0 0 1-.48-9.329 12.072 12.072 0 0 1 4.675-5.92A12 12 0 0 1 14.384.238a12.01 12.01 0 0 1 8.065 5.86 12.018 12.018 0 0 1 1.26 8.53 11.975 11.975 0 0 1-2.666 5.259c-.227.26-.747.788-1.023 1.036a11.973 11.973 0 0 1-8.651 3.06zm1.657-.634a11.4 11.4 0 0 0 10.212-9.452c.114-.68.154-1.176.155-1.887 0-.858-.067-1.527-.235-2.343-.748-3.628-3.264-6.693-6.694-8.157a11.501 11.501 0 0 0-3.386-.859c-.37-.038-1.693-.044-2.058-.008a11.66 11.66 0 0 0-3.094.713A11.414 11.414 0 0 0 .818 9.822 11.448 11.448 0 0 0 1.16 15.5c.862 2.66 2.623 4.862 5.046 6.31.368.22 1.14.603 1.541.763a11.58 11.58 0 0 0 3.526.801c.336.024 1.412.01 1.753-.023zm-1.43-.344c-.216-.007-.48-.02-.585-.03a11.189 11.189 0 0 1-.658-.083c-.029-.008-.03-.058-.03-.728v-.72l-.17-.031a12.072 12.072 0 0 1-1.41-.387c-.011-.005-.166.247-.376.611-.196.341-.366.62-.378.62a2.69 2.69 0 0 1-.27-.106A11.082 11.082 0 0 1 5.372 20.8l-.267-.2.042-.073a55.48 55.48 0 0 0 .675-1.178 1.38 1.38 0 0 0-.161-.151c-.208-.179-.68-.651-.859-.859-.092-.107-.148-.158-.164-.152-.014.005-.293.164-.62.352l-.607.349c-.018.01-.39-.495-.612-.832a11.315 11.315 0 0 1-.962-1.803c-.084-.201-.096-.245-.077-.264.013-.012.287-.173.608-.357.322-.185.591-.342.599-.35.008-.006-.01-.078-.037-.158-.118-.334-.26-.865-.336-1.25l-.039-.196H1.113l-.01-.04a13.362 13.362 0 0 1-.082-.684c-.03-.308-.03-1.615 0-1.91.029-.277.071-.625.083-.676l.009-.039h1.441l.04-.205c.061-.313.18-.766.287-1.095.075-.23.092-.3.075-.315-.011-.01-.284-.17-.605-.355a25.311 25.311 0 0 1-.6-.351c-.039-.036.401-.98.695-1.49.093-.163.258-.43.366-.593.192-.289.55-.78.584-.802.01-.006.297.15.639.348l.621.36.073-.084c.287-.33.633-.68.936-.946.082-.072.15-.136.153-.143.003-.007-.152-.286-.345-.62a24.552 24.552 0 0 1-.354-.624c-.004-.024.422-.345.738-.557.62-.414 1.288-.773 1.935-1.04l.21-.085.058.099.36.624.302.525.281-.092a9.541 9.541 0 0 1 1.04-.277l.27-.055.01-.723.008-.723.21-.03c.916-.13 2.05-.125 3.048.015l.083.011v.722c0 .563.005.724.021.728.012.003.144.032.293.062.323.067.742.18 1.06.287l.23.078.068-.116a330.21 330.21 0 0 0 .654-1.132c.01-.01.56.232.857.378.429.21.812.43 1.212.693.306.202.82.577.82.599 0 .006-.16.29-.357.629l-.358.617.126.113c.163.143.792.773.939.938l.112.127.62-.358c.34-.197.624-.356.631-.353.027.009.374.485.582.798.272.41.49.789.706 1.23.146.297.388.847.378.857-.003.003-.211.123-1 .58l-.248.142.077.23c.11.325.223.743.288 1.06.03.149.058.28.061.292.005.017.165.022.728.022h.722l.012.083c.14.998.145 2.13.014 3.049l-.03.208-.722.01-.723.008-.048.24c-.067.33-.17.717-.282 1.062l-.094.29.625.361.624.361-.026.064a11.44 11.44 0 0 1-1.065 2.029c-.18.272-.52.739-.567.777-.02.015-.148-.052-.626-.33a18.247 18.247 0 0 0-.628-.355c-.015-.004-.064.04-.12.107a10.66 10.66 0 0 1-.993.988l-.076.063.36.622c.197.342.354.63.348.64-.019.03-.489.376-.74.544-.36.241-.772.481-1.186.69-.398.2-.912.428-.944.417a9.91 9.91 0 0 1-.366-.606c-.19-.33-.353-.607-.361-.615-.01-.01-.063.003-.127.026a10.65 10.65 0 0 1-1.311.353l-.17.032-.005.725-.005.725-.157.021a9.909 9.909 0 0 1-1.047.085c-.191.005-.376.01-.41.013a10.78 10.78 0 0 1-.453-.008zm.99-1.002.073-.009v-1.442l.11-.011a8.945 8.945 0 0 0 1.3-.22 8.805 8.805 0 0 0 1.476-.512l.165-.077.36.626c.198.345.366.627.373.627.048 0 1.082-.602 1.11-.646.005-.009-.153-.297-.35-.64l-.36-.623.04-.027a11.3 11.3 0 0 0 .277-.203 8.41 8.41 0 0 0 1.714-1.729c.127-.172.205-.263.222-.259.014.003.297.164.628.356.465.27.606.345.622.33.092-.093.66-1.095.633-1.117a59.577 59.577 0 0 0-.624-.362c-.462-.266-.614-.361-.608-.382.005-.015.051-.121.104-.236a8.529 8.529 0 0 0 .672-2.512l.031-.28.725-.004.726-.005.013-.315c.007-.174.007-.468 0-.654l-.013-.339h-1.453l-.032-.292a8.638 8.638 0 0 0-.7-2.567c-.066-.148-.077-.185-.058-.202.013-.012.28-.168.592-.348.313-.179.583-.336.6-.348.027-.02.022-.036-.059-.197-.147-.294-.536-.947-.563-.947-.006 0-.292.162-.635.36-.54.312-.625.356-.64.33a10.83 10.83 0 0 0-.5-.656 11.464 11.464 0 0 0-1.031-1.03 10.81 10.81 0 0 0-.656-.501c-.026-.015.018-.099.33-.64.199-.343.36-.628.36-.635 0-.013-.354-.236-.6-.376-.263-.152-.518-.275-.534-.26-.008.009-.168.282-.356.608-.188.326-.349.6-.356.607-.008.008-.096-.022-.196-.067-.8-.36-1.7-.606-2.566-.7l-.293-.032V1.993l-.338-.012a10.1 10.1 0 0 0-.654 0l-.315.013-.005.726-.005.725-.27.03c-.91.1-1.823.349-2.607.71a1.64 1.64 0 0 1-.167.072c-.007 0-.172-.277-.367-.615a50.989 50.989 0 0 0-.361-.623c-.02-.022-.969.514-1.093.617l-.044.037.357.616c.196.339.357.622.357.63 0 .008-.034.036-.075.063-.235.154-.63.477-.984.805A9.205 9.205 0 0 0 4.93 7.141c-.007.008-.291-.147-.632-.344-.341-.198-.623-.36-.628-.36-.031 0-.657 1.067-.657 1.121 0 .005.282.173.627.371l.627.362-.024.046a8.554 8.554 0 0 0-.768 2.735l-.026.258c0 .005-.325.009-.722.009h-.721l-.011.08a15.737 15.737 0 0 0 0 1.162l.01.066h1.44l.012.109c.109 1.044.332 1.896.729 2.777l.078.174-.046.028c-.025.016-.289.168-.586.338-.298.17-.558.321-.58.335l-.04.025.087.171c.107.214.243.452.423.74.13.208.141.22.177.202l.63-.361.591-.342.036.05c.354.488.55.722.909 1.089a8.36 8.36 0 0 0 1.145.991.726.726 0 0 1 .137.11c0 .008-.153.278-.34.6l-.358.62c-.015.03.006.048.187.163.245.155.546.327.768.438l.16.08.041-.065c.023-.036.184-.315.36-.62.175-.304.325-.553.333-.553.008 0 .12.046.247.102.633.28 1.336.49 2.02.604.232.039.682.096.755.096.028 0 .03.046.03.724 0 .398.002.725.004.727.031.02 1.075.024 1.23.004zm-.627-1.996a.535.535 0 0 1-.096-.126c-.16-.265-.331-.38-.608-.406-.174-.017-.183-.02-.183-.076 0-.035.037-.095.134-.213.188-.231.396-.512.562-.762.08-.119.162-.223.185-.234.078-.035.131.007.262.208.143.219.373.532.577.786.08.1.147.195.147.211 0 .048-.037.072-.113.072-.102 0-.291.044-.373.086-.113.057-.194.138-.293.292a.76.76 0 0 1-.127.162c-.04.021-.037.021-.074 0zm-4.345-1.15c-.07-.056-.089-.139-.078-.357.018-.347.12-.743.265-1.028.113-.221.218-.362.419-.56.276-.273.5-.413.806-.502.134-.039.15-.04 1.14-.04h1.002l.005.339c.003.226-.002.345-.014.36-.016.02-.205.025-.947.03-.824.006-.94.01-1.032.038a.872.872 0 0 0-.375.212c-.09.097-.104.155-.054.205l.037.038 1.175.005c.96.004 1.179.009 1.195.028.014.017.018.205.015.64l-.005.618-1.755.004c-1.738.004-1.755.004-1.8-.03zm5.223.013c-.015-.015-.02-.178-.02-.624s.005-.61.02-.625c.016-.016.302-.02 1.179-.02 1.284 0 1.26.001 1.26-.107 0-.07-.14-.22-.266-.282-.21-.106-.217-.107-1.225-.113-.837-.005-.927-.008-.947-.034-.025-.034-.031-.644-.007-.682.012-.019.207-.022 1.016-.017.9.006 1.013.01 1.115.038.175.049.413.168.567.285.168.127.428.393.526.536.224.331.366.757.407 1.219.022.26-.002.384-.086.43-.052.027-3.511.024-3.539-.004zm-1.067-1.394a.71.71 0 0 1-.348-.355.504.504 0 0 1-.032-.253.579.579 0 0 1 .341-.527.443.443 0 0 1 .265-.057.48.48 0 0 1 .254.049c.47.218.496.86.044 1.108-.103.056-.128.063-.27.067a.531.531 0 0 1-.254-.032zm-4.04-1.014a6.94 6.94 0 0 1-.185-.24c-.58-.777-1.18-1.208-1.894-1.361a3.97 3.97 0 0 0-.934-.036c-.275.033-.28 0-.056-.373.212-.354.174-.332.556-.33.616.004.99.093 1.573.373.265.128.453.267.707.522.292.294.765.906.796 1.028.017.069-.023.12-.23.295-.21.177-.267.197-.334.122zm8.193-.135c-.285-.236-.285-.223.008-.629.286-.397.636-.776.904-.978.268-.203.864-.46 1.248-.538.195-.04.542-.07.794-.07s.262.007.442.304c.081.134.158.272.17.307.035.099.015.114-.135.104a9.336 9.336 0 0 0-.476-.007c-.287.001-.379.008-.519.039-.574.125-.988.367-1.462.852a4.36 4.36 0 0 0-.461.538c-.149.202-.2.253-.255.253-.034 0-.105-.048-.258-.175zm-6.876-.452c-.161-.007-.246-.018-.265-.034a1.05 1.05 0 0 1-.11-.174c-.314-.58-.8-1.097-1.414-1.508-.574-.383-1.106-.52-1.707-.44-.219.03-.239.03-.265.004-.036-.037-.018-.08.095-.228a2.376 2.376 0 0 1 1.096-.775c.673-.226 1.525-.17 2.138.137.543.272 1.074.806 1.498 1.506.228.376.463.877.584 1.246.038.114.045.158.032.2l-.015.056-.27.01a2.66 2.66 0 0 1-.314-.001c-.048-.012-.057-.03-.23-.402-.325-.7-.605-1.132-.964-1.491-.465-.465-.888-.679-1.114-.563-.053.027-.085.126-.065.202.028.102.059.133.274.275.318.21.76.671 1.025 1.07.195.295.394.7.394.804 0 .057-.04.104-.087.104a.3.3 0 0 0-.055.005c-.013.003-.13.001-.26-.004zm2.088-.011c-.025-.025-.028-.31-.028-2.874 0-1.721-.007-2.94-.017-3.082a5.054 5.054 0 0 0-.15-.944 7.13 7.13 0 0 0-.813-1.972c-.07-.116-.117-.213-.11-.225.041-.065.388.077.628.258.162.123.415.38.543.553.344.462.517.992.582 1.78.01.127.017 1.462.017 3.353 0 3.09 0 3.144-.033 3.162-.02.01-.154.018-.313.018-.23 0-.284-.005-.307-.027zm1.098-.001c-.026-.026-.028-.305-.022-3.249.006-2.838.01-3.247.035-3.447.076-.611.216-1.06.44-1.407.12-.188.325-.435.477-.575.235-.218.563-.411.727-.43.12-.013.117.02-.015.236a7.02 7.02 0 0 0-.948 2.69c-.025.208-.03.584-.035 3.201-.006 2.734-.01 2.967-.036 2.987-.02.016-.112.022-.312.022-.237 0-.288-.005-.311-.028zm1.309.016a1.012 1.012 0 0 1-.25-.025c-.04-.035-.023-.153.058-.375.29-.801.794-1.61 1.31-2.1.456-.434.93-.677 1.474-.757.289-.042.544-.051.78-.028.713.068 1.32.392 1.713.913.104.138.128.213.074.233a1.407 1.407 0 0 1-.262-.02c-.6-.081-1.135.06-1.714.451a4.08 4.08 0 0 0-.645.525 3.851 3.851 0 0 0-.751.97c-.056.103-.108.176-.133.188-.022.01-.164.02-.314.022-.266.003-.276.002-.307-.036-.042-.053-.04-.069.022-.225.115-.29.323-.638.557-.937.155-.197.653-.685.773-.758.246-.15.326-.235.326-.349 0-.192-.232-.24-.514-.107-.271.129-.739.542-.986.87-.232.31-.524.83-.722 1.287a1.36 1.36 0 0 1-.114.223c-.037.038-.088.043-.376.035zm-3.022-1.876a4.224 4.224 0 0 1-.164-.223c-.07-.1-.194-.251-.275-.334-.107-.112-.15-.17-.161-.218a28.555 28.555 0 0 1-.016-1.242c0-.833-.006-1.195-.02-1.242a.416.416 0 0 0-.067-.123c-.04-.047-.06-.056-.141-.063-.079-.006-.106 0-.156.034-.126.084-.122.051-.122 1.113 0 .833-.003.956-.027.99-.04.056-.076.049-.192-.038a3.27 3.27 0 0 0-.598-.332 6.398 6.398 0 0 1-.23-.102l-.043-.022-.011-1.648a61.517 61.517 0 0 0-.024-1.709c-.02-.091-.052-.145-.158-.264-.149-.166-.121-.22.14-.28.154-.034.592-.029.773.01.854.182 1.355.741 1.541 1.72.038.197.038.236.045 2.067a96.519 96.519 0 0 1-.003 1.905c-.013.05-.046.05-.091 0zm2.884.027a78.115 78.115 0 0 1-.012-1.862c0-1.965.002-2.002.086-2.354.205-.862.763-1.39 1.606-1.52.357-.055.786-.008.88.096.037.04.022.074-.095.21-.163.19-.147-.003-.157 1.901a57.483 57.483 0 0 1-.022 1.704.3.3 0 0 1-.105.05 4.35 4.35 0 0 0-.715.37c-.153.101-.176.112-.213.095l-.042-.02-.005-.973c-.004-.864-.008-.98-.035-1.037-.037-.082-.1-.122-.204-.132-.114-.011-.18.026-.231.13l-.041.084-.01 1.248-.008 1.248-.154.165a4.35 4.35 0 0 0-.311.387c-.145.205-.182.242-.213.21zm-6.27-1.928c-.016-.015-.021-.298-.022-1.164 0-.985-.004-1.158-.027-1.248a1.03 1.03 0 0 1-.03-.157c-.004-.051-.002-.052.09-.058a.602.602 0 0 1 .548.306c.098.182.1.201.1 1.306 0 .91-.003 1.016-.028 1.026-.054.02-.61.011-.631-.01zm9.087 0c-.032-.032-.029-1.935.004-2.092.069-.321.276-.515.574-.534.168-.01.18.003.129.154-.038.11-.038.131-.044 1.28-.004.8-.011 1.175-.024 1.19-.026.032-.608.033-.639.003zm1.648-3.036a5.161 5.161 0 0 1-.29-.534c0-.016.012-.047.028-.07a.621.621 0 0 1 .284-.141h.042l-.04.042-.039.042.128.228c.07.125.136.225.146.222.038-.011.117-.15.166-.29l.05-.148.15-.005c.168-.006.169-.005.12.122-.071.181-.282.437-.417.506a.932.932 0 0 1-.27.066c-.019 0-.045-.018-.058-.04zM6.1 8.777a.552.552 0 0 1-.303-.258c-.046-.09-.033-.104.037-.037.116.111.206.131.291.064a7.76 7.76 0 0 0 .441-.625c.002-.005-.018-.022-.046-.038-.135-.077-.228-.496-.141-.638.035-.058.057-.065.183-.058a.52.52 0 0 1 .291.16l.055.068.043-.066c.024-.036.106-.129.182-.207.077-.078.135-.15.129-.16a.67.67 0 0 0-.237-.09c-.027 0-.039-.029-.07-.16a.756.756 0 0 1-.027-.168c.017-.017.368.168.464.245a.938.938 0 0 1 .163.177l.065.099-.122.134a4.38 4.38 0 0 1-.177.187 1.538 1.538 0 0 0-.128.148 1.517 1.517 0 0 1-.143.166.345.345 0 0 0-.093.143c-.019.066-.442.72-.533.823a.33.33 0 0 1-.324.09zm.576-1.11c.107-.055.1-.148-.017-.208-.094-.049-.142.01-.105.126.02.062.047.109.063.109.004 0 .03-.012.059-.026zm5.314.986a3.993 3.993 0 0 1-.056-.26c-.076-.388-.21-.726-.373-.943-.23-.307-.55-.618-.758-.74-.075-.044-.115-.078-.112-.095.019-.097.32-.14.532-.075.23.07.513.317.679.594.046.078.09.141.097.141a.532.532 0 0 0 .083-.118c.158-.266.354-.457.593-.576.126-.063.135-.064.323-.064.151 0 .205.007.25.03.073.04.074.092.002.132a1.64 1.64 0 0 0-.388.3 3.943 3.943 0 0 0-.476.545 2.545 2.545 0 0 0-.32.86c-.047.248-.062.303-.075.27zm5.415-.38c.004-.011.185-.181.404-.378l.396-.357.18.01c.097.007.18.013.182.015.002.002-.064.057-.148.124a32.26 32.26 0 0 0-.41.333c-.16.133-.282.22-.323.232-.106.03-.289.044-.281.02zm-10.24-.274v-.113h.174V7.8c0-.096.015-.106.153-.107h.074v.227h-.174v.191h-.227zm10.025-.03c-.251-.3-.327-.403-.327-.441 0-.03-.008-.04-.025-.033-.013.005-.043 0-.065-.011-.066-.034-.276-.249-.276-.282 0-.021-.013-.031-.04-.031-.039 0-.215-.163-.251-.232a.204.204 0 0 0-.07-.061c-.106-.058-.266-.18-.286-.216a.136.136 0 0 1-.011-.076c.007-.037.004-.039-.036-.024-.068.026-.145-.006-.352-.148a3.534 3.534 0 0 0-.278-.176c-.17-.086-.177-.13-.064-.399.042-.1.125-.32.185-.488l.108-.305.15-.063a.644.644 0 0 1 .157-.054c.005.005-.079.221-.186.48-.107.26-.195.492-.195.515 0 .03.017.05.054.07.029.015.139.086.244.158a.898.898 0 0 0 .19.116c0-.01-.019-.157-.043-.329a5.457 5.457 0 0 1-.042-.356c0-.03.032-.07.107-.135.103-.089.108-.091.212-.091.206 0 .547.072.82.175l.102.038-.108.109-.108.109-.18-.058a2.523 2.523 0 0 0-.527-.112c-.038 0-.042.006-.034.048.036.18.082.584.078.679-.006.126-.015.111.152.233l.106.078c.016.012.04 0 .081-.04.057-.054.062-.056.214-.055h.156l-.104.1a1.793 1.793 0 0 1-.146.13l-.041.028.058.053a.24.24 0 0 0 .076.054c.009 0 .04-.022.07-.05.048-.046.066-.051.205-.058a.533.533 0 0 1 .153.004c0 .015-.186.191-.244.233l-.044.03.068.059c.038.032.08.054.092.05a.206.206 0 0 0 .058-.067c.034-.055.043-.059.162-.07.07-.006.149-.009.177-.006.05.006.05.008-.1.16l-.15.153.073.082c.04.046.112.131.16.19l.086.107.04-.055a.636.636 0 0 0 .07-.137c.033-.09.031-.089.245-.112.063-.007.109-.005.109.004 0 .036-.177.3-.264.394-.088.094-.274.223-.322.223-.012 0-.056-.042-.099-.092zM7.751 7.47c.143-.28.144-.699.001-.752a.802.802 0 0 0-.128-.027c-.1-.014-.09.009-.121-.25l-.012-.091.17.06c.092.034.184.062.203.062.02 0 .07-.02.113-.045.083-.05.097-.093.05-.155-.033-.043-.031-.095.006-.243.036-.14.036-.14.15.081l.076.15.063-.043c.074-.05.075-.056.03-.145-.034-.065-.034-.07-.003-.2a.912.912 0 0 1 .042-.144c.011-.01.147.228.163.286.006.022.017.04.026.04.024 0 .155-.09.155-.107a.284.284 0 0 0-.054-.076l-.054-.061.039-.17.038-.17.034.042c.092.114.22.382.266.553l.023.09-.173.106a.885.885 0 0 1-.214.106c-.024 0-.052.018-.068.042-.034.051-.22.168-.27.168-.018 0-.047.019-.062.042-.033.05-.21.14-.246.126-.022-.008-.021 0 .006.055.111.221.126.492.032.593a1.375 1.375 0 0 1-.32.195c-.012 0 .005-.05.04-.117zm-1.799-.167a1 1 0 0 1-.043-.195c0-.03.018-.04.101-.057.056-.012.11-.02.12-.02.018 0 .07.22.056.233a1.179 1.179 0 0 1-.117.032c-.08.02-.112.022-.117.007zm12.006-.041-.066-.007v-.242h.11a.44.44 0 0 1 .129.013c.013.009.017.051.01.13l-.009.118-.054-.003a3.236 3.236 0 0 1-.12-.01zm-6.036-.422a.902.902 0 0 0-.34-.314c-.057-.029-.11-.065-.115-.081-.018-.047.04-.145.156-.26.208-.205.365-.252.542-.161.178.09.397.34.368.417a.363.363 0 0 1-.116.084.79.79 0 0 0-.323.296.606.606 0 0 1-.093.122.447.447 0 0 1-.08-.104zm5.316-.093a.54.54 0 0 1-.012-.092l-.005-.07-.083.001c-.092.001-.093 0-.104-.143l-.005-.072.1-.012a.358.358 0 0 1 .119 0c.009.006.017.049.017.096v.087h.192v.102c0 .092-.004.104-.04.113-.068.018-.17.012-.178-.01zm.09-.269a.276.276 0 0 1-.011-.103c0-.103.01-.112.132-.112h.077v.209h-.068a.38.38 0 0 0-.093.009c-.013.005-.03.004-.036-.003zm-7.843-.184c-.133-.08-.198-.207-.207-.404-.01-.189.034-.377.085-.377.007 0 .016.08.02.178.005.139.014.193.041.238.086.148.203.171.444.09.19-.063.415-.176.47-.235l.038-.04-.062-.012c-.057-.01-.33.016-.362.036-.031.019-.02-.231.012-.282.025-.04.377-.17.545-.202l.108-.02-.034-.067a.76.76 0 0 0-.088-.129l-.054-.061.046-.127c.066-.182.067-.183.12-.115.059.078.183.328.197.396.006.03.012.055.013.055l.263-.027c.2-.02.269-.033.292-.056.019-.019.025-.04.016-.054-.022-.034-.14-.055-.218-.038l-.067.015.011-.054c.05-.253.118-.309.373-.31.125 0 .188.027.255.106.056.067.062.19.013.27l-.032.053h.189c.222 0 .223 0 .137-.18l-.052-.11.083-.13a.71.71 0 0 1 .094-.13c.029 0 .117.296.145.49l.01.063.14.011a.72.72 0 0 0 .156.002c.009-.005.025-.04.036-.078.017-.056.042-.082.14-.147.066-.044.124-.08.13-.08.022 0-.01.189-.045.27-.033.077-.033.08 0 .096.059.032.1.02.335-.103.39-.204.641-.262.753-.174a.529.529 0 0 1 .146.315.29.29 0 0 1-.038.197c-.057.117-.186.254-.238.254-.07 0-1.14-.195-1.176-.214a.511.511 0 0 0-.155-.022c-.11-.002-.125-.007-.168-.055l-.047-.052-.053.048-.054.048h-.298c-.28.002-.3 0-.335-.034-.036-.036-.036-.036-.073-.002-.067.06-.109.072-.325.094-.21.02-.211.02-.266-.02-.043-.032-.057-.036-.063-.018-.02.062-.088.101-.21.123-.116.02-.124.025-.112.059.007.02.013.085.013.145-.001.105-.004.112-.079.19a1.542 1.542 0 0 1-.427.297.574.574 0 0 1-.286.072c-.144.006-.153.004-.245-.052zm4.413-.96a.402.402 0 0 0-.094-.204c-.054-.045-.188-.026-.388.054-.102.04-.177.077-.166.08.042.015.554.106.6.107.039.001.048-.006.048-.037zm.486.57c-.146-.047-.242-.12-.242-.182 0-.097.17-.33.288-.397.028-.016.03-.023.01-.046-.02-.024-.014-.04.04-.106a.78.78 0 0 1 .118-.115c.047-.034.058-.036.098-.014.075.04.19.169.25.282a.383.383 0 0 1 .06.242c0 .125-.004.138-.053.19-.029.03-.098.086-.155.123-.126.083-.214.088-.414.023zm.341-.274a.497.497 0 0 0-.093-.183l-.054-.074-.06.039c-.057.038-.114.113-.114.15 0 .046.147.1.284.106.044.002.048-.003.037-.038zm-6.714.054a.553.553 0 0 1-.092-.022.521.521 0 0 1 .016-.114l.022-.107.07.012c.123.02.121.022.138-.067.017-.091.004-.088.173-.046.061.016.064.02.053.073-.029.148-.025.144-.13.137l-.096-.006-.016.075c-.009.04-.024.075-.033.077a.562.562 0 0 1-.105-.012zm8.6-.305a2.823 2.823 0 0 0-.319-.08c-.07-.01-.126-.026-.126-.033 0-.025.101-.067.16-.067.032 0 .105.011.164.025.108.026.446.13.459.142.004.004-.007.022-.025.042-.041.046-.085.042-.314-.03zm-8.632.007c-.074-.016-.083-.022-.074-.055a1.1 1.1 0 0 0 .021-.104c.01-.056.017-.065.048-.057.02.005.066.014.102.02.04.007.066.022.066.037 0 .058-.04.18-.059.179a1.848 1.848 0 0 1-.104-.02zm2.308-.827a2.316 2.316 0 0 1-.085-.052.38.38 0 0 1 .051-.102l.059-.096.073.044a.438.438 0 0 0 .09.043c.009 0 .033-.032.055-.07.039-.07.04-.07.082-.045a7.197 7.197 0 0 0 .144.091.678.678 0 0 1-.117.18.523.523 0 0 1-.086-.042l-.074-.043-.044.069a.235.235 0 0 1-.056.069.508.508 0 0 1-.092-.046zm1.768-.206-.084-.077.087-.088.088-.089.092.081.093.081-.084.085a.545.545 0 0 1-.095.085.527.527 0 0 1-.097-.078z"/></svg>