<svg viewBox="0 0 24 24" xmlns="http://www.w3.org/2000/svg" role="img"><path d="M11.408 23.986c-.06-.01-.21-.02-.33-.027-.122-.01-.266-.019-.32-.03a3.663 3.663 0 0 0-.276-.033c-.172-.014-.175-.015-.175-.067 0-.132.53-1.577.597-1.628.018-.014.035-.052.038-.085.005-.073.359-.784.602-1.21a13.722 13.722 0 0 1 5.73-5.434 13.469 13.469 0 0 1 6.149-1.448h.493l-.01.055-.073.335a8.783 8.783 0 0 0-.083.41c-.01.07-.05.228-.087.35-.038.12-.084.279-.104.35a15.137 15.137 0 0 1-.587 1.54c-.151.333-.124.281-.423.811a12.127 12.127 0 0 1-1.866 2.508c-.466.472-1.145 1.059-1.543 1.333-.515.355-.66.45-.886.58l-.474.27a11.05 11.05 0 0 1-1.28.594c-.376.148-.95.347-1.005.347a2.31 2.31 0 0 0-.243.07 2.674 2.674 0 0 1-.345.09c-.072.01-.261.052-.42.09-.177.045-.45.09-.709.122a10.03 10.03 0 0 0-.59.084c-.139.028-.308.034-.92.037-.413 0-.8 0-.86-.013zm-1.666-.192a.045.045 0 0 1 .05 0c.014.01.002.01-.025.01-.027 0-.039 0-.025-.01zm-.079-.02c.015-.01.032-.01.039 0 .007.01-.005.01-.027.01-.023 0-.028-.01-.012-.012zm-1.656-.447c-.017-.01-.021-.019-.01-.019.01 0 .033.01.05.02.016.01.02.018.01.018a.147.147 0 0 1-.05-.019zm-.38-.15c-.066-.037-.043-.038.042 0 .037.016.054.029.037.029a.225.225 0 0 1-.08-.028zm-1.291-.65c-.026-.01-.03-.018-.01-.018a.16.16 0 0 1 .06.018c.037.024.005.024-.05 0zm-1.18-.725a11.898 11.898 0 0 1-.69-.536 10.642 10.642 0 0 1-1.228-1.16 9.33 9.33 0 0 0-.225-.25c-.026-.024-.463-.57-.591-.74-.091-.12-.403-.58-.499-.737C1.325 17.41.835 16.304.56 15.305c-.226-.819-.35-1.451-.4-2.05-.004-.046-.014-.059-.04-.055-.033.01-.035-.038-.035-.68 0-.414.013-.887.032-1.194.026-.399.027-.51.008-.522-.018-.011-.018-.017 0-.023.032-.011.054-.118.1-.498.023-.181.073-.465.112-.63l.12-.51a12.02 12.02 0 0 1 1.04-2.724c.27-.51.403-.73.776-1.271.347-.505 1.177-1.474 1.508-1.761.074-.064.21-.188.305-.277.183-.172.585-.51.7-.59a3.21 3.21 0 0 0 .211-.16c.165-.134.385-.28.423-.28.023 0 .037 7.486.037 19.939l-.3-.217zm5.351-14.459V.121l.045-.01a15.56 15.56 0 0 1 1.01-.091c.19-.011.655-.02 1.035-.02.678 0 .691 0 .691.04 0 .033.014.04.075.04.041 0 .246.022.455.049.407.053.906.164 1.71.38.18.049.692.226.911.315l.252.096c.21.076.897.418 1.334.664.336.19.365.21.365.261 0 .062.005.065.06.031.032-.021.05-.015.124.04.047.035.167.115.266.177.687.432 1.699 1.346 2.38 2.148.434.514.548.663.853 1.122.495.743.993 1.696 1.171 2.238.038.115.086.241.107.28.088.164.32.973.32 1.114v.062l-.375.014c-1.964.072-3.776.358-5.336.843-1.38.428-2.764 1.105-4.132 2.02a26.664 26.664 0 0 0-2.986 2.329l-.335.303zm9.701 1.158c.657-.095.996-.447 1.084-1.123.02-.156.02-.373 0-1.11-.013-.503-.029-.92-.034-.926-.024-.023-1.76-.01-1.938.016-.775.109-1.08.4-1.17 1.112-.021.17-.029 1.987-.008 2.04.01.027.12.03.965.021.525-.01 1.02-.019 1.102-.03zM16.91 6.213c.105-.016.24-.044.3-.062.394-.117.654-.403.765-.842.044-.171.045-.204.04-.928-.003-.412-.013-.88-.02-1.04l-.014-.29h-.87c-1.102.002-1.33.028-1.672.19a.885.885 0 0 0-.44.445c-.128.275-.134.335-.144 1.434-.005.543-.003 1.018.004 1.055l.013.067h.924c.707 0 .97-.01 1.115-.03zm-3.26-2.09c.707-.151 1.003-.524 1.033-1.302.012-.317-.022-1.775-.043-1.826-.014-.033-.073-.035-.844-.035-.878 0-1.1.014-1.4.09-.23.06-.326.102-.473.212a.875.875 0 0 0-.293.409c-.1.27-.106.333-.116 1.447l-.009 1.046 1.017-.01c.672-.01 1.055-.017 1.127-.032z"/></svg>