<svg viewBox="0 0 24 24" xmlns="http://www.w3.org/2000/svg" role="img"><path d="M7.062 18.432c-.233-.03-.593-.148-.903-.294-.157-.074-.199-.107-.164-.128a.626.626 0 0 1 .145.031c.122.035.16.039.417.04.27 0 .29-.001.418-.04.646-.201 1.265-.782 1.488-1.398.028-.078.059-.181.067-.228.015-.08.013-.092-.022-.162a2.943 2.943 0 0 0-.377-.523c-.145-.138-.268-.175-.337-.1a.622.622 0 0 0-.062.164 1.664 1.664 0 0 1-.23.5c-.142.22-.26.301-.536.371-.249.063-.414.076-.968.075h-.514l-.134-.042a.886.886 0 0 1-.425-.247.895.895 0 0 1-.174-.232c-.13-.25-.137-.321-.153-1.402a69.459 69.459 0 0 0-.114-3.173 14.593 14.593 0 0 1-.027-.574c-.003-.225-.013-.256-.155-.492-.263-.436-.647-.78-1.15-1.029l-.184-.092-.195.061a5.376 5.376 0 0 1-1.227.225c-.27.02-.771.02-1.044 0-.395-.03-.393-.041.005-.033.807.016 1.464-.065 2.06-.252.109-.034.198-.067.198-.072 0-.013-.358-.124-.522-.162a8.608 8.608 0 0 0-.64-.113l-.143-.016A8.142 8.142 0 0 0 .412 9.07a7.3 7.3 0 0 1-.352.016L0 9.084l.06-.012c.13-.026.673-.06.962-.06.617.001 1.137.068 1.63.212l.262.076c.048.014.066.008.204-.06.687-.34 1.125-.804 1.384-1.464.03-.078.06-.147.066-.153.006-.006.042.064.08.157.095.228.172.353.429.696.224.3.356.44.62.66l.137.114.176-.113a5.69 5.69 0 0 1 .86-.427c.422-.155.858-.25 1.417-.309.117-.012 1.29-.019 4.18-.023a358.77 358.77 0 0 0 4.441-.021c2.265-.083 4.095-.44 5.329-1.043.474-.231.778-.441 1.089-.752.251-.251.382-.438.544-.78a1.46 1.46 0 0 1 .122-.227c.009 0 .01.097.005.25-.013.348-.022.844-.039 2.046-.008.57-.018 1.143-.022 1.274s-.012.676-.017 1.211c-.006.536-.015.976-.02.98-.007.003-.015-.3-.02-.675a481.007 481.007 0 0 0-.067-4.032l-.01-.31-.082.116a4.15 4.15 0 0 1-.597.603c-.647.5-1.506.872-2.653 1.15-.875.212-1.76.342-2.854.42-.726.052-1.121.056-5.23.05-3.263-.004-4.087 0-4.219.015-.786.093-1.434.3-1.991.637a5.91 5.91 0 0 0-.145.088c-.01.01.267.172.43.254.572.286 1.223.452 1.967.498.139.01.953.017 1.87.018 3.096.005 6.569.044 7.095.08 1.97.132 3.545.477 4.722 1.034.591.28 1.12.666 1.432 1.045.178.217.157.202-.07-.05a3.653 3.653 0 0 0-.55-.476c-1.031-.72-2.66-1.18-4.811-1.359-.843-.07-1.244-.073-5.53-.04-3.044.024-4.182.02-4.478-.018-.85-.107-1.639-.388-2.193-.78l-.09-.064-.148.122a4.005 4.005 0 0 0-.734.806l-.078.116.015.294a79.567 79.567 0 0 1 .069 3.384c.005.805.015 1.338.024 1.388a.619.619 0 0 0 .36.447c.189.091.281.105.718.105.615 0 .896-.035 1.147-.143.148-.063.24-.14.267-.219.052-.154-.067-.505-.388-1.147a4.34 4.34 0 0 1-.14-.294c0-.008.035-.072.077-.143.092-.153.116-.216.117-.306 0-.109-.049-.183-.217-.324a1.099 1.099 0 0 1-.148-.138c0-.017.34-.445.353-.446.017 0 .296.238.435.373l.132.127-.071.096a3.92 3.92 0 0 1-.154.192c-.079.09-.084.1-.083.172 0 .06.021.123.094.292.052.119.127.314.166.434.04.12.082.238.095.262.034.067.123.139.171.139.059 0 .094-.044.173-.215a.497.497 0 0 1 .077-.138c.005.005.042.079.08.164.248.542.506.812.888.929.085.025.292.027 4.731.031 3.243.003 4.685 0 4.784-.011.308-.035.512-.104.708-.24.144-.1.22-.185.43-.481.166-.237.166-.237.256-.27.176-.066.167-.067.113.024a3.276 3.276 0 0 0-.231.474c-.062.208-.002.383.16.466.2.101.61-.006.804-.21a.814.814 0 0 0 .112-.145c.04-.077.123-.318.175-.505.023-.082.047-.157.055-.166a.806.806 0 0 1 .194-.116.603.603 0 0 1-.014.121c-.027.155-.03.395-.005.496.03.129.114.275.204.357.29.265.73.22.796-.08.021-.095-.01-.383-.077-.728l-.047-.236.125-.128c.204-.21.265-.264.273-.241.019.054.056.465.064.699.009.286-.005.401-.08.633-.122.378-.393.697-.684.806a.564.564 0 0 1-.365-.006 1.122 1.122 0 0 1-.386-.304c-.091-.11-.099-.116-.157-.116-.055 0-.07.01-.143.083-.232.236-.506.37-.798.39a.541.541 0 0 1-.24-.023c-.161-.05-.24-.15-.281-.36-.014-.07-.032-.09-.085-.09-.036 0-.07.023-.16.11-.18.171-.366.267-.641.328l-.142.032H9.21l-.092-.032a.748.748 0 0 1-.166-.086c-.073-.054-.124-.066-.166-.039-.018.011-.023.055-.024.227-.003.41-.104.72-.354 1.092-.31.462-.64.746-.952.82a1.18 1.18 0 0 1-.394.007zm10.057-4.017c-.103-.019-.151-.04-.151-.066 0-.006.058-.037.13-.067 1.359-.581 3.356-1.498 3.498-1.606.027-.021.024-.024-.049-.04a.754.754 0 0 1-.327-.162c-.272-.272.011-.845.435-.879.125-.01.213.03.285.129.088.12.119.246.119.481v.204l.056.017c.032.009.06.026.065.037.006.016-.122.218-.181.288-.002.003-.025-.006-.05-.018-.046-.024-.047-.023-.138.046-.277.21-1.248.7-2.591 1.305-.723.326-.795.354-.9.353a1.524 1.524 0 0 1-.2-.022zm3.742-2.07c.023-.12-.069-.349-.171-.431-.173-.138-.47.068-.338.235.054.068.158.128.315.18.084.028.16.051.17.052.01 0 .02-.016.024-.036zM.064 9.689c.01-.004.023-.004.028 0 .005.006-.004.009-.02.009-.017-.001-.02-.004-.008-.01z"/></svg>