<svg viewBox="0 0 24 24" xmlns="http://www.w3.org/2000/svg" role="img"><path d="M11.06 23.656c0-.016.03-.038.04-.03.017.017.007.04-.016.04-.013 0-.024-.004-.024-.01zm-.811-.195a2.05 2.05 0 0 0-.3-.071c-.424-.072-.56-.112-.579-.167a.561.561 0 0 0-.113-.107c-.157-.124-.165-.129-.2-.113-.042.02-.121.018-.27-.005-.161-.024-.178-.031-.24-.095-.065-.065-.056-.082.052-.1.125-.022.153-.018.318.052.086.037.163.066.171.066.008 0 .06-.043.114-.096.108-.104.138-.116.21-.078.048.025.046.035-.01.052-.054.016-.08.042-.07.068.026.066.384.172.651.193.153.012.224.027.252.053.014.012.06.031.102.042.042.01.09.03.108.042.038.027.27.08.401.092a.296.296 0 0 0 .152-.014c.056-.02.063-.02.112 0 .03.01.06.02.068.02.03 0 .013-.061-.03-.109-.035-.039-.04-.049-.023-.055.023-.009.147.028.303.09l.118.048.001.067.001.067-.049.012a.487.487 0 0 0-.176.063c-.03.022-.04.023-.127.011a3.171 3.171 0 0 0-.233-.019 2.452 2.452 0 0 1-.225-.02.626.626 0 0 0-.3.031c-.057.024-.078.022-.19-.02zm3.375-.036c-.066-.013-.074-.018-.066-.048.01-.035.048-.057.12-.066.082-.01.103.004.085.058a1.03 1.03 0 0 0-.017.054c-.004.017-.044.018-.122.002zm-.646-.046a.662.662 0 0 1-.135-.017c-.008-.005-.015-.025-.015-.045 0-.034.002-.035.054-.035a.417.417 0 0 0 .117-.025c.057-.023.07-.024.135-.011.112.022.141.047.097.084a.055.055 0 0 0-.018.038c0 .024.002.024-.235.01zm-.77-.186c-.019-.03-.027-.032-.11-.032-.072 0-.096.005-.123.026l-.034.025-.055-.024a1.101 1.101 0 0 1-.141-.085c-.096-.068-.107-.07-.15-.043-.024.016-.063.019-.237.015-.201-.004-.21-.005-.268-.037-.055-.03-.08-.035-.289-.05-.268-.021-.476-.048-.51-.067-.017-.009-.025-.025-.025-.048 0-.027-.012-.045-.047-.073a.244.244 0 0 1-.054-.054c-.01-.029.02-.115.05-.138.055-.043.1-.031.201.054.11.092.113.093.226.084a.61.61 0 0 1 .202.013c.07.015.155.022.276.023h.174l.083.065.083.063.116-.008c.143-.01.196.005.326.09a.78.78 0 0 0 .15.08c.076.022.199.022.23 0 .029-.023.067-.024.12-.002.046.02.059.041.048.083-.009.036-.053.056-.146.064-.071.007-.076.005-.096-.024zm2.853-.004c-.012-.012.016-.04.041-.04.03 0 .03.02 0 .036-.028.014-.03.015-.041.005zm-1.028-.018c-.045-.046.016-.079.116-.063.112.018.085.077-.034.077-.037 0-.074-.006-.082-.014zm1.056-.262c0-.02.066-.048.147-.064l.075-.015v-.12l-.061-.013a.463.463 0 0 1-.076-.022c-.034-.022.003-.067.056-.067.012 0 .086.024.165.054a1.2 1.2 0 0 0 .162.054c.04 0 .055.02.04.053-.016.034-.04.042-.04.013 0-.01-.004-.018-.011-.018-.007 0-.012.013-.012.029 0 .034-.08.11-.127.123a.093.093 0 0 1-.061-.008c-.024-.013-.04-.013-.084-.002-.064.017-.173.019-.173.003zm.577-.025c-.028-.017.004-.038.05-.034l.04.004-.036.02c-.024.014-.043.017-.054.01zm-7.775-.135c-.05-.027-.074-.047-.076-.066-.008-.054.11-.047.183.01.023.019.031.035.029.057-.005.046-.05.046-.136 0zm7.91-.02c-.07-.017-.073-.034-.008-.062.079-.033.153-.037.16-.008a.086.086 0 0 1-.016.052c-.02.031-.058.036-.137.017zm-8.223-.11c-.004-.007-.005-.016-.002-.02.009-.008.032.008.032.022 0 .015-.021.014-.03-.002zm5.87-.018c-.01-.028.002-.041.041-.041.044 0 .06.022.03.044-.03.021-.062.02-.07-.003zm-1.373-.022c-.012-.01-.02-.02-.017-.022.008-.007.233-.081.236-.078a.3.3 0 0 1 .01.04l.008.038-.086.02c-.106.023-.121.023-.15.001zm4.305-.002c-.014-.037.066-.074.087-.04.01.016-.016.041-.052.052-.02.006-.03.002-.035-.012zm-3.76-.03c-.047-.036-.04-.053.027-.082a.376.376 0 0 1 .165-.026c.058 0 .14-.008.183-.018.07-.017.08-.017.12.003.024.012.043.03.043.04 0 .014-.028.017-.181.018-.193 0-.216.006-.224.057-.005.039-.088.044-.133.008zm.697-.128c-.015-.015.031-.052.065-.052.048 0 .054.02.012.042-.038.02-.064.023-.077.01zm1.279-.04c0-.007.008-.012.019-.012.01 0 .015.005.01.012a.022.022 0 0 1-.018.012.012.012 0 0 1-.011-.012zm-4.793-.014a1 1 0 0 0-.328-.007c-.037.013-.052.007-.282-.108-.272-.136-.537-.235-.572-.212-.012.008-.023.034-.027.065-.008.073-.041.077-.11.014-.044-.042-.05-.053-.05-.105-.003-.09-.027-.101-.227-.114a.952.952 0 0 1-.191-.025.763.763 0 0 1-.168-.132c-.013-.026-.13-.086-.438-.228-.565-.26-.96-.47-1.132-.603a1.395 1.395 0 0 1-.132-.122 1.324 1.324 0 0 0-.292-.246c-.066-.037-.08-.04-.104-.028a.078.078 0 0 1-.052.007.647.647 0 0 1-.147-.145.569.569 0 0 0-.074-.069c-.035-.029-.059-.058-.064-.081-.005-.024-.025-.048-.058-.071a1.928 1.928 0 0 1-.279-.296.889.889 0 0 0-.106-.118c-.06-.056-.07-.071-.056-.08.042-.028.087-.014.143.045l.203.21.147.153h.167l.052.062a.77.77 0 0 0 .11.103c.047.035.067.043.112.042a.501.501 0 0 1 .242.09c.04.03.053.076.022.076-.028 0-.03.027-.006.089.026.07.054.104.088.104a.41.41 0 0 1 .114.055c.05.03.107.058.13.062.037.006.04.004.04-.025 0-.036.013-.041.036-.014.01.012.012.036.007.07-.008.05-.006.054.046.102.082.076.135.082.165.018.014-.029.025-.035.077-.04.071-.007.126-.038.126-.072 0-.034.021-.03.103.02l.157.097c.089.054.32.148.364.148.054 0 .023-.038-.068-.082-.09-.043-.094-.046-.097-.09-.004-.05-.034-.077-.12-.111-.072-.029-.063-.043.021-.034.068.007.073.006.073-.018 0-.014-.006-.026-.014-.026a.432.432 0 0 1-.088-.072c-.048-.047-.082-.07-.094-.066-.012.005-.037-.015-.074-.056a.402.402 0 0 1-.055-.073c0-.005-.008-.01-.018-.01-.01 0-.018.011-.018.025 0 .06-.054.12-.106.12-.03 0-.099-.077-.099-.11 0-.032.113-.138.155-.146.075-.015.205.034.393.148.12.073.213.108.285.108.05 0 .056.005.171.125.117.12.21.198.292.24.023.012.04.03.04.043 0 .043-.057.047-.24.018-.234-.037-.285-.004-.12.078.099.05.135.059.149.037.02-.031.075-.008.21.089.14.102.225.152.258.152.01 0 .054.028.098.061a.531.531 0 0 0 .112.07c.03.009.031.013.031.082 0 .083.02.113.099.152l.064.031c.03.015.02.042-.021.06-.052.025-.046.046.026.09.06.038.147.05.206.028.019-.007.04 0 .079.027.029.02.095.053.147.074.082.033.094.042.1.073.005.027.02.042.06.061.051.025.053.025.069.003.011-.015.03-.022.059-.022.081.002.387.178.38.218-.006.025-.066.033-.1.012zm2.567-.052c-.016-.02-.006-.038.025-.042.038-.006.048 0 .048.03 0 .024-.006.03-.029.03a.063.063 0 0 1-.044-.019zm.412-.054a.15.15 0 0 1-.048-.017c-.012-.012.014-.047.047-.063.037-.018.395-.027.395-.01 0 .02-.11.052-.189.053-.058 0-.08.006-.1.025-.024.025-.041.027-.105.012zm-2.408-.015c-.043-.023-.048-.102-.009-.148.025-.029.038-.033.097-.033.112 0 .157.048.105.114-.012.016-.022.04-.02.052.001.021-.008.024-.07.027a.265.265 0 0 1-.103-.012zm2.997-.072c-.022-.027.003-.041.088-.048a.32.32 0 0 0 .11-.03c.033-.018.042-.019.055-.005.013.013.01.02-.013.039-.054.044-.215.074-.24.044zm1.59-.038c-.03-.027-.033-.032-.016-.048a.2.2 0 0 1 .08-.03c.217-.042.569-.206.569-.265 0-.007-.024-.013-.053-.013-.072 0-.08-.02-.017-.037l.068-.018c.024-.007.006-.026-.032-.035-.056-.012-.11-.052-.11-.08 0-.018.03-.056.092-.112.13-.12.129-.12.177-.102.035.013.052.011.126-.013.09-.03.109-.054.053-.068-.043-.01-.34.015-.42.036a.56.56 0 0 0-.114.048.722.722 0 0 1-.148.055.3.3 0 0 0-.132.058 1.531 1.531 0 0 1-.26.16c-.063.032-.165.037-.207.009-.051-.034-.132-.002-.172.067-.008.015-.045.028-.12.043a.875.875 0 0 0-.181.058c-.158.079-.293.101-.64.105-.157.002-.264 0-.26-.008.012-.02.098-.057.148-.066.028-.004.048-.013.046-.02-.007-.021-.083-.042-.157-.043-.067-.001-.071-.003-.126-.06-.047-.049-.068-.06-.113-.068-.067-.01-.137.01-.155.044a.18.18 0 0 1-.116.07c-.034 0-.034.004.003.058.016.024.025.049.02.054a.459.459 0 0 1-.12.02.359.359 0 0 0-.162.042c-.07.04-.144.042-.17.004-.018-.024-.018-.028-.001-.04a1.56 1.56 0 0 1 .31-.09c.059 0 .034-.043-.058-.102-.047-.03-.192-.031-.235-.001-.02.013-.053.02-.105.02-.058 0-.085.006-.112.024-.04.029-.117.029-.13 0l-.03-.058c-.011-.021-.017-.044-.013-.05.012-.02.157-.015.174.005.026.03.173.016.176-.018l.003-.033c.001-.01.032-.015.107-.015.058 0 .168-.006.244-.013.12-.011.382-.022.6-.024.037 0 .105.003.152.008.08.008.09.006.15-.028a1 1 0 0 1 .171-.067.97.97 0 0 0 .12-.04.396.396 0 0 1 .106-.01.352.352 0 0 0 .16-.034.317.317 0 0 1 .145-.032c.088 0 .129-.019.14-.064a.166.166 0 0 1 .025-.052c.025-.03.165-.095.311-.142.076-.025.152-.052.169-.06a1.108 1.108 0 0 0 .234-.093c.1-.049.137-.06.213-.068.087-.008.096-.012.18-.076.049-.037.129-.088.178-.112.098-.05.096-.05.14.025.011.02.018.02.061.008a.46.46 0 0 0 .101-.05l.053-.036.004.04c.006.064.025.072.19.077l.15.005v.034c0 .052-.011.07-.068.108-.064.044-.06.072.01.072.097 0 .274-.085.274-.132 0-.028.021-.04.101-.06.078-.019.176-.07.176-.09 0-.012-.02-.02-.055-.026-.047-.007-.06-.004-.098.023-.048.034-.088.027-.088-.016 0-.04.162-.144.253-.162.077-.015.084-.02.084-.05 0-.03-.048-.06-.08-.048-.026.01-.052-.006-.052-.03 0-.019-.01-.023-.054-.023-.05 0-.054-.002-.054-.03 0-.023.033-.065.124-.16.114-.118.164-.185.164-.218 0-.026-.05-.011-.16.047-.124.065-.176.076-.176.037 0-.023-.001-.023-.055 0-.03.014-.06.022-.066.018-.02-.013-.013-.055.019-.096.034-.045.08-.056.247-.06.076-.002.1-.008.15-.036.19-.111.297-.209.46-.423.123-.16.151-.182.212-.16.032.012.044.01.071-.007a.175.175 0 0 0 .05-.055c.022-.042.058-.052.156-.043l.075.007.053-.054a.33.33 0 0 1 .119-.078c.048-.018.073-.036.094-.067a.152.152 0 0 0 .024-.045c-.097-.046-.102-.07-.034-.145a.297.297 0 0 1 .118-.08c.085-.03.113-.057.151-.137.035-.074.093-.124.236-.205.227-.127.3-.197.366-.348.045-.101.06-.115.128-.115.054 0 .06-.004.113-.063.064-.073.068-.093.02-.093-.02 0-.039-.005-.043-.01-.009-.014.042-.082.154-.206.051-.057.125-.15.165-.207.074-.108.11-.142.145-.142a.917.917 0 0 0 .217-.112c.049-.036.086-.098.076-.129-.012-.04-.048-.052-.09-.03-.065.034-.043-.01.061-.12.095-.102.097-.104.078-.133a.12.12 0 0 1-.019-.053c0-.05.162-.191.188-.165.012.011-.015.277-.038.376a.26.26 0 0 0-.011.087c.004.004.018 0 .032-.008.049-.03.05.004.005.09a.442.442 0 0 0-.044.102c0 .01-.027.055-.06.097-.066.086-.096.158-.096.227 0 .052-.021.072-.124.12-.047.022-.075.05-.157.16-.114.153-.119.157-.21.207a.335.335 0 0 0-.09.069c-.024.032-.024.034-.004.144.025.13.022.144-.053.229-.055.063-.078.069-.123.033a.111.111 0 0 0-.048-.024c-.016 0-.056.037-.074.069-.01.018.017.101.038.115.024.015.017.1-.016.18-.064.156-.05.218.041.19.1-.03.182-.119.182-.198 0-.024-.006-.032-.024-.032-.028 0-.03-.01-.008-.041.017-.023.061-.028.127-.013.03.007.038-.001.104-.092.085-.12.496-.542.548-.564.047-.02.058-.004.059.076 0 .056-.033.142-.061.16-.031.019-.08.103-.075.126.004.015-.003.035-.017.051a.469.469 0 0 0-.047.066.267.267 0 0 1-.067.07 1.112 1.112 0 0 0-.13.127c-.073.08-.084.098-.072.113.047.056-.125.217-.378.355a.5.5 0 0 0-.124.083c-.016.055-.042.098-.07.116-.028.019-.032.019-.054-.002-.024-.022-.026-.021-.075.028-.045.045-.049.054-.036.075.042.067-.027.138-.099.101-.048-.025-.054-.023-.133.04-.105.085-.128.1-.158.1-.021 0-.033.016-.066.097-.035.086-.048.104-.103.145a1.439 1.439 0 0 1-.109.073c-.1.058-.259.196-.251.217.003.01.026.013.06.01.063-.003.07.009.038.07-.028.055-.05.064-.295.12a1.001 1.001 0 0 0-.358.141c-.041.031-.041.032-.018.051.026.021.044.084.03.106a.408.408 0 0 1-.105.05c-.207.076-.32.137-.296.16a.606.606 0 0 0 .157.017c.08.002.151.007.158.011.022.014.012.027-.025.034a.431.431 0 0 0-.111.06 1.47 1.47 0 0 1-.31.17c-.068.027-.102.048-.112.068-.018.035-.107.095-.21.14-.066.029-.075.036-.068.06.009.034-.03.051-.113.051-.057 0-.098-.024-.098-.058 0-.02-.03-.017-.083.01-.038.019-.047.03-.053.071-.01.063-.032.077-.196.123-.33.093-.592.192-.68.257-.047.034-.058.049-.058.079 0 .058-.057.077-.237.077h-.147l-.004.036c-.005.05-.053.056-.101.014zm.862-.014a.26.26 0 0 1 .042-.057.196.196 0 0 0 .042-.065c0-.01-.024-.031-.054-.05-.03-.017-.054-.038-.054-.047-.001-.047.195-.085.245-.047.023.017.02.02-.045.061a.24.24 0 0 0-.068.056c0 .02.085.013.19-.014.082-.022.104-.024.13-.012l.032.014-.035.037a1.09 1.09 0 0 1-.093.084l-.058.047h-.137a.67.67 0 0 1-.137-.007zm-6.038-.042c0-.007.005-.01.012-.005.007.004.012.01.012.013 0 .003-.005.005-.012.005s-.012-.006-.012-.013zm1.346-.139a14.01 14.01 0 0 1-.463-.123c-.313-.087-.342-.097-.405-.145-.055-.042-.075-.05-.102-.044a.58.58 0 0 1-.188-.041 1.56 1.56 0 0 0-.176-.049c-.027 0-.042.02-.024.03.019.012.002.03-.028.03-.062 0-.08-.075-.023-.097a.522.522 0 0 1 .284.032.24.24 0 0 0 .112.027c.045-.004.046-.005.042-.049-.005-.056.025-.063.044-.01.02.057.054.07.197.076.137.006.166.017.166.064 0 .048.085.058.158.018l.045-.024.004.033c.003.025.016.04.057.06.068.034.133.036.133.004 0-.05.022-.054.286-.044l.315.012c.095.003.096.004.096.028 0 .023-.049.075-.093.097-.029.015-.037.05-.012.05a.39.39 0 0 1 .063.013l.048.013-.03.024c-.026.021-.041.024-.114.018a1.908 1.908 0 0 1-.13-.016c-.04-.007-.047-.005-.052.018-.01.034-.045.033-.21-.005zm3.681-.005c0-.007.017-.02.038-.029.043-.018.1-.008.1.018 0 .013-.018.019-.069.021-.044.002-.069 0-.069-.01zm2.41-.13c.01-.014.054-.036.244-.116.166-.07.282-.14.323-.195.043-.057.044-.057.21-.128l.21-.088a.25.25 0 0 1 .149-.025c.073.006.078.004.132-.036.083-.064.29-.28.294-.308.002-.015.026-.036.064-.055a1.12 1.12 0 0 0 .167-.126.82.82 0 0 1 .183-.13c.079-.035.102-.06.078-.085-.026-.026-.013-.045.073-.108.048-.035.144-.113.213-.174.117-.104.17-.133.17-.097a.792.792 0 0 1-.114.124c-.11.106-.143.15-.11.15.015 0 .377-.236.417-.271.026-.024.047-.022.047.004a.74.74 0 0 1-.121.236.687.687 0 0 1-.108.091c-.053.036-.073.058-.088.1-.017.044-.034.062-.094.098-.166.103-.43.337-.528.47-.102.139-.198.192-.392.221a.802.802 0 0 0-.119.025c-.04.015-.054.007-.054-.03 0-.017-.003-.03-.008-.03a1.18 1.18 0 0 0-.11.062 2.52 2.52 0 0 1-.555.245c-.205.065-.53.171-.565.184-.01.004-.013 0-.009-.008zm2.148-.12c0-.006.027-.031.06-.055a.4.4 0 0 0 .089-.088c.037-.059.05-.07.169-.137.088-.05.098-.06.104-.1a.435.435 0 0 1 .053-.116c.04-.064.044-.08.038-.124-.006-.043-.003-.059.026-.102.05-.074.435-.516.457-.525.028-.01.037.005.052.083.022.12.004.163-.133.319a1.85 1.85 0 0 0-.097.114c0 .003.017.023.037.044l.038.04.05-.026c.061-.033.067-.033.06-.002-.006.018-.001.024.018.024.015 0 .026.008.026.018 0 .01.009.018.02.019.058.003.08.009.089.024.016.026.008.038-.056.08-.066.044-.13.06-.154.04-.012-.01-.034-.003-.093.03-.165.09-.38.195-.443.216a.29.29 0 0 0-.12.076c-.08.081-.182.147-.24.155-.03.004-.05.002-.05-.006zm-13.522-.099c-.093-.015-.094-.016-.09-.08.003-.041.01-.059.023-.061.022-.004.155.116.155.139 0 .016-.004.016-.088.002zm5.857-.096c-.051-.015-.076-.043-.084-.095-.014-.086-.086-.083-.354.016-.035.013-.059.016-.072.008a.612.612 0 0 1-.16-.18c0-.027-.022-.042-.079-.054-.035-.008-.038-.005-.058.046-.024.064-.048.074-.141.063-.065-.008-.124-.037-.112-.057.004-.006.038-.011.076-.011.06 0 .07-.004.08-.027a.093.093 0 0 1 .05-.04.186.186 0 0 0 .047-.02c.004-.004-.035-.03-.086-.055a1.188 1.188 0 0 1-.173-.11c-.12-.097-.217-.137-.217-.091 0 .01-.014.027-.031.038-.031.02-.032.02-.064-.015-.029-.032-.044-.038-.113-.044-.09-.008-.128-.026-.23-.103-.093-.07-.105-.085-.096-.124.006-.027 0-.036-.037-.058-.033-.02-.046-.024-.06-.013a.216.216 0 0 1-.082.021c-.055.006-.074.002-.11-.02-.03-.018-.053-.024-.074-.019-.033.008-.065-.01-.065-.036 0-.01.012-.028.027-.042l.027-.025-.072-.07c-.057-.055-.083-.07-.123-.077a.57.57 0 0 1-.118-.038 1 1 0 0 0-.116-.043c-.034-.009-.072-.036-.126-.09-.063-.062-.077-.082-.074-.11.003-.032.001-.034-.103-.064-.084-.024-.11-.036-.12-.058-.008-.018-.05-.047-.116-.08a3.113 3.113 0 0 1-.397-.253 1.283 1.283 0 0 0-.137-.084c-.047-.022-.047-.022-.064.004-.01.014-.025.026-.034.026a.978.978 0 0 1-.152-.1c-.132-.099-.255-.215-.284-.27a2.163 2.163 0 0 0-.246-.19 8.664 8.664 0 0 1-2.388-2.552 9.892 9.892 0 0 1-.707-1.43c-.02-.053-.043-.09-.056-.092-.016-.004-.02-.019-.02-.062 0-.082-.126-.458-.17-.509a.127.127 0 0 1-.035-.075c0-.053-.027-.044-.059.02-.018.038-.03.052-.04.044a1.695 1.695 0 0 1-.075-.204c-.073-.222-.108-.299-.175-.387-.053-.071-.06-.116-.036-.243.013-.068.025-.083.069-.083.015 0 .049-.023.079-.053l.052-.053-.01-.082c-.013-.113-.034-.21-.044-.21-.005 0-.016.006-.024.015-.02.02-.041-.004-.036-.04.003-.024.01-.028.038-.025.032.003.034 0 .028-.03a1.505 1.505 0 0 1-.015-.122c-.005-.058-.013-.09-.024-.094-.02-.008-.023-.047-.004-.059.017-.01 0-.114-.023-.141-.016-.018-.016-.028-.004-.064.012-.031.013-.087.007-.219-.008-.152-.012-.181-.034-.21-.033-.046-.033-.178.003-.424a7.17 7.17 0 0 0 .062-.517c.03-.347.063-.59.103-.752.053-.214.068-.288.096-.45.077-.446.273-1.048.529-1.624.029-.066.04-.107.035-.129-.005-.026.001-.039.032-.066a1.03 1.03 0 0 0 .159-.304c0-.013.008-.026.016-.03.03-.01.104-.165.12-.25a.344.344 0 0 0 .01-.091c-.002-.003-.02 0-.037.009-.037.017-.05.01-.028-.017.008-.01.03-.018.05-.018.067 0 .129-.044.182-.13.18-.29.408-.61.662-.928.077-.096.143-.188.147-.206.008-.035.04-.07.083-.089.033-.014.211-.201.211-.221 0-.026-.051-.013-.116.03a.893.893 0 0 0-.14.129l-.107.119c-.033.034-.058.043-.058.021 0-.02-.031-.013-.057.015a.407.407 0 0 0-.049.075c-.025.051-.19.22-.203.207-.013-.013.023-.117.058-.165a.19.19 0 0 0 .035-.065c0-.01-.02-.032-.044-.05-.042-.033-.043-.036-.036-.093.009-.075.054-.169.084-.175.018-.003.021.001.015.017a.456.456 0 0 0-.014.064l-.007.044.058.003a.41.41 0 0 0 .108-.01c.054-.014.118-.07.091-.08-.025-.009-.017-.035.018-.058a.98.98 0 0 0 .195-.17c0-.009-.01-.016-.024-.016-.013 0-.028-.009-.032-.02-.013-.033.014-.058.064-.059a.276.276 0 0 0 .165-.075c.032-.035.021-.077-.025-.097-.034-.015-.04-.023-.04-.062 0-.044 0-.045-.04-.044-.024 0-.047-.003-.052-.008-.017-.017.05-.117.126-.19a.645.645 0 0 1 .14-.1.994.994 0 0 0 .17-.11c.096-.072.108-.078.112-.056.002.014.01.028.02.032.018.007.177-.019.3-.048.097-.022.15-.022.15.001 0 .034-.071.135-.119.168a.297.297 0 0 0-.065.06.38.38 0 0 1-.107.07c-.085.042-.092.048-.133.126-.042.079-.138.178-.279.288-.063.049-.138.159-.138.201 0 .018.005.031.011.03.024-.01.153-.142.185-.19a.218.218 0 0 1 .078-.07.448.448 0 0 0 .079-.048.129.129 0 0 1 .075-.027c.045 0 .063-.015.121-.1a.36.36 0 0 1 .114-.099 1 1 0 0 0 .135-.097.349.349 0 0 1 .068-.053.234.234 0 0 0 .05-.063 1.08 1.08 0 0 1 .149-.192.326.326 0 0 1 .084-.041.84.84 0 0 0 .302-.187.554.554 0 0 1 .098-.082 2.756 2.756 0 0 1 .435-.23c.138-.061.227-.124.273-.194.031-.046.043-.053.112-.069.069-.016.08-.023.114-.07.039-.056.044-.057.14-.033.023.006.04 0 .068-.023a.124.124 0 0 1 .06-.03c.013 0 .106-.034.209-.074.283-.111.3-.12.315-.16.01-.031.014-.033.027-.015.025.034.104.018.186-.036a.166.166 0 0 1 .092-.029.12.12 0 0 0 .086-.03c.043-.036.329-.167.438-.2a.292.292 0 0 1 .127-.017c.071.012.09.012.15-.006.052-.015.062-.014.097.005.038.02.046.02.19-.003a3.37 3.37 0 0 1 .28-.031.464.464 0 0 0 .157-.025c.057-.038.789-.085 1.137-.074.534.017.738.032 1.059.079.082.012.163.022.18.022.048.001.157.015.21.028a.511.511 0 0 0 .09.011c.022 0 .069.016.103.035.056.032.063.034.074.015.007-.011.01-.04.005-.067-.007-.046-.008-.046-.098-.073a1.024 1.024 0 0 0-.187-.033 1.988 1.988 0 0 1-.173-.02 8.83 8.83 0 0 0-.174-.025.562.562 0 0 1-.188-.06.504.504 0 0 0-.21-.06c-.162-.018-.249-.043-.244-.07.003-.016.035-.026.153-.046.149-.025.195-.024.252.006.052.028.14.047.273.06.233.024.25.026.347.05a.88.88 0 0 1 .141.048c.035.018.07.024.147.024h.102l.067.063c.053.05.065.068.06.09-.006.021 0 .03.027.04a.303.303 0 0 0 .089.013.17.17 0 0 1 .084.02c.112.072.173.098.228.098.053 0 .06.004.1.053.048.058.08.07.243.092a.701.701 0 0 1 .161.043c.077.035.086.035.086.007 0-.03-.065-.089-.157-.142a1.227 1.227 0 0 1-.129-.085c-.042-.035-.054-.04-.075-.028-.017.009-.038.009-.075 0a1.943 1.943 0 0 1-.377-.194l-.023-.026.06.007c.033.004.077.01.098.015.03.007.038.004.044-.018.005-.02.016-.025.055-.025.057 0 .238.055.392.12.206.086.256.102.278.084.017-.014.023-.012.045.02a.609.609 0 0 0 .152.14c.03.02.093.074.14.12.085.083.088.085.136.077a.541.541 0 0 1 .265.058c.059.03.095.07.074.084-.006.004-.013.023-.017.043-.006.032-.012.036-.05.036a.549.549 0 0 1-.243-.113c-.031-.039-.055-.05-.203-.091-.152-.043-.162-.044-.198-.015-.026.021-.026.023-.007.06.025.049.075.086.195.144.054.026.127.069.162.096.082.06.416.231.452.231.029 0 .251-.113.264-.134.011-.018-.027-.053-.147-.137-.104-.072-.132-.102-.116-.118.023-.023.135.015.171.058.009.01.029.019.044.019.02 0 .058.028.116.084.072.07.093.084.127.084.03 0 .042-.006.047-.024.008-.031.015-.03.071.008.079.054.254.05.243-.005-.002-.012-.017-.022-.034-.025-.071-.008-.156-.06-.156-.094 0-.008-.03-.04-.066-.072-.054-.047-.066-.064-.066-.095a.083.083 0 0 0-.028-.062.725.725 0 0 0-.166-.1c-.027 0-.003.055.034.078.053.033.048.068-.014.088-.038.012-.05.012-.072-.001a.438.438 0 0 1-.08-.192.23.23 0 0 0-.05-.082c-.047-.056-.053-.06-.093-.053a.173.173 0 0 1-.08-.007.315.315 0 0 0-.086-.017c-.078-.004-.182-.08-.53-.393l-.101-.09-.146-.039a3.027 3.027 0 0 1-.332-.117 2.6 2.6 0 0 0-.295-.106 1.134 1.134 0 0 1-.233-.092c-.123-.064-.125-.065-.22-.062-.142.004-.178-.02-.178-.117 0-.03-.006-.048-.018-.053-.012-.004-.018-.022-.018-.049 0-.023-.005-.042-.012-.042-.006 0-.024-.022-.039-.047a.153.153 0 0 0-.131-.074c-.028 0-.247-.072-.27-.088-.024-.019-.017-.066.019-.126.029-.047.04-.045.203.03.192.09.34.136.433.136a.67.67 0 0 1 .181.03.73.73 0 0 0 .14.03c.032 0 .039-.005.045-.033a1.26 1.26 0 0 1 .015-.06c.006-.02.003-.027-.015-.027-.03-.001-.155-.067-.141-.075a.635.635 0 0 1 .128.003c.168.014.231.063.132.105l-.045.019.029.02c.157.107.333.185.454.2.062.008.062.008.066-.026.003-.028.01-.036.038-.039.062-.007.278.057.396.117.063.032.17.076.24.098.232.073.33.127.364.199.025.053.017.093-.024.111-.035.016-.078.001-.078-.027 0-.016-.24-.192-.313-.23-.046-.023-.057-.022-.062.008-.007.046-.034.052-.134.029a.556.556 0 0 1-.13-.047l-.04-.025.033-.004c.051-.006.042-.044-.02-.08-.063-.037-.13-.04-.185-.006a.182.182 0 0 1-.078.024.133.133 0 0 0-.073.028l-.034.027.078.068c.091.081.107.088.239.105.156.021.174.03.286.145.12.122.218.2.415.333.08.053.204.143.277.2.121.095.174.123.174.092 0-.029.062-.006.163.06.195.128.198.131.222.185.012.03.039.064.06.08.046.033.059.077.03.109-.012.013-.029.023-.037.023-.04 0 .007.11.068.161.05.042.098.04.177-.005.09-.05.185-.151.298-.312.309-.439.534-.753.675-.942a1.7 1.7 0 0 0 .16-.236c0-.038-.052-.089-.301-.29-.226-.182-.3-.253-.3-.286 0-.008.007-.014.015-.014.041 0 .456.237.669.381a.16.16 0 0 0 .062.028.334.334 0 0 0 .098-.08c.394-.414.676-.637.945-.748.166-.07.28-.091.466-.09.196 0 .3.023.46.1a.84.84 0 0 1 .479.602c.027.115.035.377.016.535a2.608 2.608 0 0 0-.017.234.388.388 0 0 1-.042.21 2.6 2.6 0 0 0-.076.242 4.304 4.304 0 0 1-.794 1.509 6.766 6.766 0 0 1-.396.427c-.324.324-.385.406-.478.646-.11.284-.164.36-.3.421a.376.376 0 0 0-.087.049c-.012.019.003.042.15.242a8.822 8.822 0 0 1 1.597 3.74l.047.284c.01.06.022.173.062.607.008.086.015.325.015.532l.001.376.038-.007c.032-.006.038-.003.044.021a.13.13 0 0 1 0 .056c-.007.029.017.037.041.013.02-.02.04-.002.04.039 0 .02.013.06.03.092.016.031.03.071.03.09 0 .057-.079.113-.138.098-.037-.009-.04 0-.06.124-.015.086-.023.11-.047.13-.026.02-.031.039-.043.144a1.583 1.583 0 0 1-.02.147c-.006.02-.003.027.012.027a.03.03 0 0 0 .027-.018c.011-.03.06-.022.069.012.014.057-.036.115-.101.115-.031 0-.041.043-.029.13.013.092.01.115-.033.232a4.618 4.618 0 0 0-.142.469c-.05.191-.057.24-.037.24.016 0 .027.04.017.064-.004.011-.023.028-.042.038a.081.081 0 0 0-.041.05.412.412 0 0 1-.02.064.485.485 0 0 0-.023.084l-.017.087c-.012.049.01.041.068-.022.06-.065.092-.085.11-.067.026.026-.01.08-.142.217-.118.121-.142.153-.162.212a1.145 1.145 0 0 1-.068.15c-.07.126-.147.312-.14.339.005.02.013.023.048.016.038-.007.041-.006.038.02-.004.025-.01.028-.059.025a.16.16 0 0 0-.067.006 3.368 3.368 0 0 0-.144.268 8.76 8.76 0 0 1-1.586 2.182 8.496 8.496 0 0 1-2.01 1.5c-.264.143-.257.138-.332.273-.025.046-.075.05-.117.012-.036-.034-.074-.027-.224.042-.066.03-.173.074-.238.098-.231.085-.26.105-.198.132a.099.099 0 0 1 .04.039.257.257 0 0 0 .035.05c.028.032.018.056-.027.065a1.256 1.256 0 0 1-.317-.022c-.069-.014-.087-.013-.132.002a.293.293 0 0 1-.125.012c-.06-.005-.115.004-.336.058a9.927 9.927 0 0 1-.506.109 2.006 2.006 0 0 0-.294.069c-.047.022-.085.027-.277.034-.122.004-.371.017-.553.028a6.056 6.056 0 0 1-.47.014c-.152-.007-.31-.029-.332-.046a.3.3 0 0 0-.103-.01 1.834 1.834 0 0 1-.111 0c-.042-.003.028-.02.092-.022a6.116 6.116 0 0 0 1.886-.455c1.32-.548 2.553-1.588 3.717-3.136.243-.323.546-.756.99-1.411.062-.092.093-.165.083-.191-.02-.054-.138.03-.288.203-.301.351-.951 1.023-1.152 1.19-.23.191-.672.5-.971.679-.59.352-1.42.663-2.126.797-.48.09-.816.121-1.335.121-.772 0-1.271-.093-1.762-.33a2.418 2.418 0 0 1-.66-.463c-.38-.367-.585-.784-.665-1.352a5.536 5.536 0 0 1-.006-.891c.073-.645.272-1.276.628-1.99a8.612 8.612 0 0 1 1.545-2.128c.276-.282.473-.465.751-.697.76-.635 1.273-1.008 1.762-1.283.427-.239.677-.458.795-.697.083-.17.081-.28-.006-.36-.061-.054-.154-.083-.375-.114a9.666 9.666 0 0 0-2.194-.043l-.258.024c-.078.005-.078.005-.04-.012.046-.021.046-.022.02-.061-.019-.029-.02-.03-.042-.01-.038.034-.037.01.002-.042a5.12 5.12 0 0 1 .454-.446c.285-.237.703-.484.987-.583.206-.072.357-.095.584-.089.23.006.326.032.484.13a.503.503 0 0 0 .322.084.686.686 0 0 0 .575-.266 6.74 6.74 0 0 0 .333-.495c.14-.227.28-.406.316-.406.007 0 .006.007-.002.018-.019.023-.006.043.03.043.034 0 .035-.004.017-.039-.023-.043.017-.01.083.07a.73.73 0 0 0 .243.2c.25.137.543.2.922.201.673.001 1.163-.173 1.766-.63.175-.132.547-.499.696-.687.39-.49.704-1.134.818-1.675.07-.328.093-.739.05-.892a.585.585 0 0 0-.169-.295.794.794 0 0 0-.58-.222c-.182 0-.389.07-.569.192-.215.146-.585.5-.826.79-.235.283-.64.841-1.024 1.414a6.4 6.4 0 0 1-.254.364c-.046.04-.176.032-.391-.027-.421-.116-.518-.095-.674.143-.473.72-.576.847-.762.94-.141.069-.286.054-.546-.057a1.36 1.36 0 0 0-.2-.069c-.068-.014-.088-.013-.204.01a3.382 3.382 0 0 0-.837.292c-.721.352-1.262.849-1.902 1.746-.445.624-.662 1.007-.622 1.096.02.041.058.046.22.026.571-.069 1.622-.047 2.03.042.222.048.277.111.188.216-.017.02-.126.114-.243.208-.991.798-1.493 1.236-1.987 1.738-.443.45-.74.795-1.126 1.315a9.461 9.461 0 0 0-1.056 1.755c-.5 1.076-.76 2.01-.838 2.99-.015.198-.008.673.014.823.076.54.185.898.386 1.264.419.762 1.079 1.196 2.07 1.364.18.03.523.066.632.066.04 0 .061.005.057.012-.004.007-.028.012-.053.012-.055 0-.065.008-.048.039.022.04.104.069.2.07.048 0 .087-.006.087-.012 0-.022.042-.033.08-.023.03.008.04.018.043.044.008.069.175.105.403.088a.572.572 0 0 1 .139 0c.015.009.02.026.02.07 0 .042.006.06.02.065.031.013.056.008.078-.011.02-.018.023-.017.042.012.03.047.08.042.145-.017.028-.027.06-.048.07-.048a.39.39 0 0 1 .086.03c.083.036.12.038.131.006.012-.037.05-.03.064.012.014.038.029.042.113.028.045-.007.045-.008.042-.063-.004-.073.025-.08.082-.02.03.033.05.043.081.043.05 0 .164-.038.222-.074.057-.036.195-.046.237-.018a.2.2 0 0 0 .085.02c.061 0 .073.02.018.031-.02.004-.036.015-.036.026 0 .015.019.017.123.011.068-.004.153-.015.19-.026.036-.01.094-.025.13-.033.059-.014.064-.013.09.012l.026.027-.032.027a.133.133 0 0 0-.039.059c-.007.033-.027.047-.157.117-.095.052-.1.056-.105.1-.003.033-.01.041-.054.057a.177.177 0 0 0-.069.043c-.014.02-.031.024-.1.024-.092 0-.127.017-.12.058a.037.037 0 0 0 .027.03c.087.015.009.063-.148.09-.17.03-.342.043-.57.044-.112 0-.202.004-.202.009 0 .005-.018.02-.04.036-.048.033-.116.035-.233.008-.094-.022-.147-.017-.192.018a.133.133 0 0 1-.083.025 2.96 2.96 0 0 1-.369-.067c-.019-.006-.022-.002-.019.026.004.038-.012.045-.067.029zm6.556-6.317c.014-.011.022-.069.009-.069a.328.328 0 0 0-.048.018c-.04.016-.055.05-.034.07.01.01.051 0 .073-.019zm.003-.1c.3-.139.72-.562.963-.97.172-.288.216-.512.15-.772a.946.946 0 0 0-.155-.345c-.127-.192-.275-.34-.531-.53-.154-.116-.264-.178-.311-.178-.042 0-.084.05-.358.434l-.586.82c-.402.561-.399.556-.399.605 0 .041.016.058.133.14.134.095.288.222.487.405.386.356.46.415.529.42a.366.366 0 0 0 .078-.029zm-8.385-3.945c.443-.09.771-.589 1.005-1.526.094-.375.136-.724.094-.766-.034-.035-.089.048-.153.23-.04.115-.125.278-.183.355a.542.542 0 0 1-.403.199c-.203 0-.412-.143-.524-.358-.13-.249-.154-.553-.11-1.338.032-.548.186-1.912.343-3.033.03-.21.053-.393.053-.406 0-.033-.019-.031-.042.004-.038.059-.296.717-.353.902a8.53 8.53 0 0 0-.152.733c-.04.237-.057.309-.071.309-.003 0-.003-.016 0-.035.009-.04-.001-.05-.047-.04-.032.005-.033.008-.026.055.006.043-.001.033-.053-.07-.102-.206-.245-.356-.487-.513-.138-.09-.168-.096-.213-.051-.032.033-.738 1.1-.776 1.173-.03.06-.015.084.118.176.128.09.141.1.41.324.09.074.176.14.192.146.115.044.41-.22.652-.585.079-.118.114-.155.073-.077-.026.052-.023.067.017.082.036.014.037.013.05-.036.036-.144.029-.042-.032.408-.152 1.136-.243 1.942-.254 2.254-.024.641.14 1.176.42 1.375a.582.582 0 0 0 .244.11c.095.022.1.022.208 0zm-3.455-.03c.224-.057.476-.218.715-.457.384-.385.678-.865.962-1.574.155-.387.41-1.165.41-1.252 0-.049-.018-.052-.054-.01-.04.048-.087.148-.235.504a8.19 8.19 0 0 1-.415.86c-.249.41-.673.789-1.258 1.121-.465.264-.606.41-.606.63 0 .074.021.117.073.151.084.055.257.067.408.028zm-2.152-.468c.34-.086.64-.356.963-.864.254-.399.418-.787.487-1.154a1.71 1.71 0 0 0-.006-.656 1.037 1.037 0 0 0-.31-.52c-.102-.094-.221-.173-.262-.173-.08 0-.206.215-.464.793-.111.25-.123.284-.169.487-.035.16-.044.178-.216.457-.229.374-.365.653-.446.916-.056.182-.07.378-.036.504.022.079.087.17.143.2.073.04.187.043.316.01zm.06-.796a.274.274 0 0 1-.163-.17.647.647 0 0 1 .027-.327c.086-.248.282-.577.358-.601.033-.01.099.028.243.144.215.173.297.295.297.44a.368.368 0 0 1-.11.283.532.532 0 0 1-.17.123c-.171.086-.385.134-.482.108zm.248-1.056c.008 0 .007-.007-.003-.018-.012-.014-.02-.015-.032-.005-.022.018-.02.039.003.03a.111.111 0 0 1 .032-.007zm8.91.06c0-.013-.011-.029-.024-.036-.03-.016-.037-.015-.032.003l.013.05c.006.028.01.031.025.02a.053.053 0 0 0 .017-.037zm5.728-3.37a.521.521 0 0 0 .131-.124c.013-.024.013-.024-.016 0-.048.04-.177.163-.171.163a.382.382 0 0 0 .056-.04zm.347-.335c.015-.02.05-.062.076-.093a3.35 3.35 0 0 0 .256-.34 2.21 2.21 0 0 0-.116.144 4.651 4.651 0 0 1-.278.33c-.017.022-.017.023.008.01a.225.225 0 0 0 .054-.05zm-8.569-.178c.109-.07.272-.243.432-.457.079-.106.145-.19.147-.188a.157.157 0 0 1-.015.047c-.016.039-.016.045 0 .051.025.01.054-.004.046-.023-.003-.01.004-.03.017-.046l.024-.029-.006.033c-.007.037.014.061.149.165.046.037.169.144.272.238.266.246.268.247.331.24.074-.008.16-.072.312-.23.155-.162.315-.382.37-.508a.525.525 0 0 0 .048-.35.948.948 0 0 0-.055-.166 1.15 1.15 0 0 0-.241-.308 1.987 1.987 0 0 0-.316-.214c-.044 0-.047.003-.516.649a11.96 11.96 0 0 1-.292.39l-.043.049.03-.055c.04-.07.04-.075-.003-.091-.034-.013-.036-.011-.056.033-.012.026-.023.045-.026.042a.452.452 0 0 1 .014-.098.6.6 0 0 0-.076-.42c-.056-.108-.242-.296-.393-.4-.172-.116-.146-.126-.336.131-.487.661-.68.929-.68.943 0 .009.026.038.057.064.214.179.335.284.424.369.176.167.203.186.26.186.037 0 .067-.012.122-.047zm6.15-.41c.011-.022.01-.023-.043-.005a.207.207 0 0 0-.054.024c0 .003.019.005.042.005.029 0 .045-.007.054-.024zm.482-.713c.304-.442.65-.91.808-1.095a.343.343 0 0 0 .052-.069c-.004 0-.06.064-.125.142-.271.324-.94 1.253-.9 1.253.002 0 .077-.104.165-.231zm.89-1.197c.015-.019.015-.02-.005-.005a.077.077 0 0 0-.02.021c0 .01.01.004.025-.016zm.08-.093c-.004-.004-.01.003-.015.015-.007.017-.005.018.007.007.008-.008.012-.018.008-.022zM4.94 20.87c-.022-.026.003-.055.047-.055.037 0 .07.03.053.048-.023.023-.084.027-.1.007zm15.61-.079c0-.016.127-.162.208-.238.058-.055.074-.063.116-.063.065 0 .073.023.03.086a.779.779 0 0 1-.253.19c-.077.039-.101.045-.101.025zm-2.641-.065c-.017-.046.033-.132.09-.153.026-.01.035-.008.052.013.028.036.01.07-.06.115-.075.047-.074.047-.082.025zM3.28 20.654c-.077-.057-.09-.074-.102-.136-.018-.093.08-.034.168.102.069.105.047.117-.066.034zm9.301.022c-.104-.032-.095-.044.024-.035.11.008.136.017.121.041-.01.018-.073.015-.145-.007zm1.804-.005c-.014-.024.01-.032.076-.027.04.003.062.01.06.02-.007.018-.125.024-.136.006zm1.858 0c0-.017.036-.048.055-.048.021 0 .023.026.003.045-.017.017-.057.02-.057.003zm-12.43-.295a2.214 2.214 0 0 1-.143-.124 3.802 3.802 0 0 0-.163-.145c-.098-.082-.106-.094-.107-.16-.002-.087-.085-.25-.127-.25-.009 0-.033-.02-.054-.044-.028-.03-.037-.053-.035-.077.003-.027-.011-.053-.064-.117-.121-.148-.263-.382-.263-.436 0-.045.04-.025.122.063l.081.087.036-.034c.045-.043.069-.036.094.025.047.113.218.304.272.304a.083.083 0 0 0 .048-.021c.023-.02.026-.018.115.075.05.053.173.172.272.265.2.188.425.429.478.51.034.054.045.11.02.11a.598.598 0 0 1-.104-.086 2.572 2.572 0 0 0-.27-.202 8.05 8.05 0 0 1-.25-.168c-.092-.067-.134-.065-.067.004.06.062.12.137.139.172.017.032.007.074-.018.074-.028 0-.02.024.029.083.066.079.08.107.061.129-.02.024-.025.023-.102-.038zm16.629-.059c-.024-.029-.038-.092-.025-.117a.329.329 0 0 1 .081-.065.482.482 0 0 0 .179-.17.154.154 0 0 1 .047-.06c.028-.017.033-.018.049-.001.015.015.016.027.004.074-.01.042-.01.065-.001.086.023.05.024.05-.182.19-.065.044-.122.08-.128.08-.006 0-.016-.008-.024-.017zm.896-.246c-.005-.008-.006-.018-.002-.022.01-.011.022.005.017.022-.004.012-.007.012-.015 0zm-1.318-.025c0-.027.041-.054.067-.044.028.01.02.043-.014.056-.044.017-.053.015-.053-.012zm-14.95-.102a.02.02 0 0 1 .02-.019c.01 0 .016.006.014.014-.007.023-.034.026-.034.005zm10.935.006c-.026-.016-.002-.046.092-.116a1.04 1.04 0 0 0 .117-.097l.024-.028.075.035c.041.02.075.043.074.051 0 .022-.1.08-.16.093a1.192 1.192 0 0 0-.129.041c-.043.017-.085.026-.093.021zm2.764-.029c0-.022.02-.037.03-.022.003.006-.002.018-.012.026-.015.012-.018.011-.018-.004zM5.7 19.673c-.062-.038-.095-.109-.05-.109.015 0 .131.108.131.122 0 .018-.04.011-.08-.013zm14.43.014c0-.005.007-.024.018-.044.02-.039.014-.073-.012-.063-.021.008-.043-.014-.043-.045 0-.026.046-.114.124-.24a.362.362 0 0 0 .068-.2c0-.036.011-.053.068-.108.037-.037.119-.128.182-.205.212-.255.352-.382.352-.32 0 .009-.046.108-.102.22a6.855 6.855 0 0 0-.103.207c0 .002.019 0 .041-.003.025-.005.045-.003.05.005.01.018-.029.09-.111.2-.097.131-.123.182-.101.196.012.007.036-.004.08-.036.099-.076.13-.055.076.052-.04.08-.273.292-.295.27-.007-.008.02-.057.062-.116.03-.04.04-.085.019-.085a.222.222 0 0 0-.057.057c-.069.087-.16.18-.222.226-.052.039-.095.053-.095.033zm1.505-.047c.002-.012.012-.022.022-.022.025 0 .022.035-.004.04-.016.003-.021-.002-.018-.018zm-2.46-.012c-.023-.023-.005-.065.039-.093a.263.263 0 0 0 .055-.042c.018-.03.042-.012.042.028 0 .032-.008.047-.034.066-.043.03-.093.05-.103.04zm-14.43-.065c-.026-.019-.039-.022-.057-.012-.032.018-.044.016-.067-.006-.027-.027-.023-.044.01-.036.018.005.034 0 .044-.01.02-.024-.01-.07-.06-.097a.148.148 0 0 1-.045-.033 3.61 3.61 0 0 0-.34-.252c-.086-.054-.138-.071-.191-.063-.042.007-.051 0-.21-.133-.188-.16-.216-.192-.42-.493a2.818 2.818 0 0 0-.217-.286.373.373 0 0 1-.069-.082c0-.007.01-.028.02-.047a.09.09 0 0 0 .012-.062.92.92 0 0 0-.14-.222c-.056-.072-.057-.1-.001-.113.026-.006.026-.006-.01-.055-.02-.03-.049-.053-.07-.058-.055-.014-.086-.04-.116-.1-.064-.126-.079-.24-.027-.197.026.021.043.006.043-.037 0-.063-.068-.187-.144-.26a.39.39 0 0 1-.106-.159 1.79 1.79 0 0 0-.175-.353.21.21 0 0 1-.044-.087c0-.03.061-.101.087-.101a.25.25 0 0 1 .067.054c.03.03.058.054.063.054.005 0 .013-.02.017-.045.012-.062.04-.104.06-.088.025.02.07.13.063.15-.004.012-.021.02-.044.02-.034 0-.036.002-.036.045 0 .066.04.216.089.327.054.124.152.289.172.289.036 0 .035-.033-.006-.174-.004-.014-.002-.02.006-.015.016.01.084.151.111.23.022.063.052.08.058.035.007-.05.033-.058.105-.036a.355.355 0 0 1 .102.052c.031.026.036.038.036.091 0 .056.004.064.048.102.038.032.048.05.048.08 0 .024.017.062.045.104.024.036.07.124.101.195.031.071.079.157.105.19.048.06.053.088.02.1-.044.017-.014.076.129.252.134.165.146.19.122.25-.024.06-.018.094.023.124.03.022.038.023.089.01.067-.018.093-.005.148.073.111.159.289.34.39.397l.046.027.035-.043c.028-.032.034-.05.029-.077-.01-.05-.042-.082-.073-.074-.018.004-.034-.002-.05-.02-.038-.04-.046-.063-.087-.219-.05-.192-.079-.249-.177-.355-.23-.246-.37-.477-.545-.89l-.14-.33c-.06-.138-.077-.19-.077-.237a.552.552 0 0 0-.03-.145.619.619 0 0 1-.03-.107c0-.022-.059-.071-.083-.071-.007 0-.014.01-.014.024 0 .063-.107.01-.15-.074a.605.605 0 0 0-.066-.088.562.562 0 0 1-.048-.06c0-.003.009-.014.02-.025.017-.017.018-.026.005-.062-.033-.092-.091-.208-.103-.208-.007 0-.02.018-.029.042-.02.057-.05.054-.092-.01a9.042 9.042 0 0 0-.126-.183 1.696 1.696 0 0 1-.224-.407c-.015-.05-.03-.073-.048-.08-.054-.021-.076-.128-.029-.14.022-.007.024-.014.017-.075-.008-.072-.017-.105-.111-.444-.067-.24-.09-.356-.084-.437.003-.044.008-.053.031-.056a.092.092 0 0 1 .054.015c.041.029.045.024.045-.049 0-.049-.007-.075-.024-.097-.031-.04-.032-.1 0-.1a.05.05 0 0 1 .035.016c.017.02.06.142.072.2a.67.67 0 0 1-.03.258.23.23 0 0 0-.011.108c.008.043.009.044.058.04l.05-.002.02.072c.012.045.045.11.088.172a.598.598 0 0 1 .068.116c0 .009.007.019.016.022.011.004.018.042.024.124.007.114.007.119-.024.158-.028.037-.03.05-.024.103.008.068.065.194.089.196l.027.003c.007.001.012.01.012.02s-.005.016-.011.012a.014.014 0 0 0-.019.005c-.008.013.046.127.065.139.007.004.033-.003.06-.017l.046-.024.001-.09c.001-.08-.003-.094-.034-.141a.313.313 0 0 1-.036-.061c0-.014.058-.011.066.003.013.02.042.013.042-.01a.71.71 0 0 0-.042-.122c-.051-.124-.056-.176-.01-.097.037.063.083.123.164.216.032.037.08.1.107.142a.317.317 0 0 0 .059.075c.005 0 .011-.03.013-.069.003-.066.005-.069.034-.066l.076.008c.066.006.082.029.091.123.013.133.042.167.144.167.065 0 .069.002.097.045.035.054.054.056.079.01.028-.055.023-.095-.019-.134a.415.415 0 0 0-.186-.091c-.023.002-.025-.007-.015-.07.003-.016-.006-.025-.034-.033a.196.196 0 0 1-.075-.052c-.034-.038-.038-.05-.038-.118a.65.65 0 0 0-.087-.297c-.033-.058-.037-.076-.035-.155.002-.085 0-.091-.039-.133a.188.188 0 0 1-.048-.097 1.549 1.549 0 0 0-.094-.233c-.07-.146-.087-.196-.097-.27a.668.668 0 0 0-.052-.183c-.047-.104-.05-.14-.017-.183.031-.039.03-.085 0-.127-.034-.046-.051-.26-.02-.247a.25.25 0 0 1 .059.069c.033.054.04.075.043.158.005.092.007.099.051.146a.169.169 0 0 1 .052.103l.013.094c.01.064.027.207.043.354a.922.922 0 0 0 .02.141c.002.005.015.01.027.01.03 0 .045.021.063.088.02.077.045.073.081-.013a.57.57 0 0 1 .04-.08c.014-.017.063.034.157.168l.15.207c.07.093.081.137.047.188-.014.023-.017.038-.009.06.006.016.025.085.042.152.03.117.03.125.011.146-.019.021-.019.026-.002.062.01.021.04.063.064.093a.72.72 0 0 1 .079.127c.02.045.042.076.056.08.014.004.027.02.03.04.006.027.026.046.082.08a.338.338 0 0 1 .098.088c.019.033.032.042.06.042h.036l-.008.071c-.008.066-.006.074.023.102.02.022.043.031.073.031.054 0 .068.021.109.167a.77.77 0 0 0 .154.324c.059.066.069.102.039.141-.044.057-.008.183.073.265.03.029.056.073.072.119.015.04.04.105.057.145.029.07.03.074.013.15a1.33 1.33 0 0 0-.017.09c0 .019.069.088.123.124.04.026.05.028.076.016.028-.013.03-.018.023-.062-.008-.046-.007-.048.023-.048a.303.303 0 0 0 .099-.036c.1-.053.132-.027.1.087-.014.053-.038.058-.08.02-.054-.052-.051.02.004.085.034.04.134.097.17.097.043 0 .063.028.07.096.008.061.014.072.082.142.07.072.074.078.071.131-.002.059.023.121.077.191a.14.14 0 0 1 .028.057c0 .026-.034.057-.054.049a.978.978 0 0 1-.113-.123c-.116-.14-.164-.187-.214-.204a1.083 1.083 0 0 1-.143-.08.917.917 0 0 0-.117-.067.76.76 0 0 1-.183-.09c-.064-.05-.09-.033-.042.027.028.035.031.063.008.063-.025 0-.05-.036-.067-.096-.023-.085-.051-.133-.075-.126-.048.016-.147-.043-.28-.168-.141-.131-.194-.206-.21-.298-.005-.036-.015-.052-.03-.055-.035-.007-.044.02-.035.11.01.114-.01.104-.09-.047l-.154-.277c-.07-.124-.09-.17-.09-.207 0-.036-.011-.065-.05-.121-.11-.159-.127-.194-.142-.282a1.995 1.995 0 0 0-.02-.107c-.008-.032-.064-.093-.083-.093-.032 0-.032-.036 0-.073a.132.132 0 0 0 .031-.06.36.36 0 0 0-.077-.108 1.03 1.03 0 0 1-.154-.231c-.081-.156-.118-.192-.115-.113a.099.099 0 0 1-.02.067c-.023.025-.021.049.013.178.01.037-.01.034-.06-.01-.044-.037-.068-.045-.068-.02 0 .008.013.061.028.118.028.106.166.38.197.393.01.003.027-.003.04-.016.027-.024.027-.024.03.079.001.091.01.111.133.295.048.072.1.167.116.21.025.07.031.078.06.08.02 0 .036.003.038.006.025.027.08.151.093.206.008.038.02.069.025.069.022 0 .008.057-.02.082-.026.022-.028.03-.018.058a.32.32 0 0 0 .051.076c.022.023.092.112.157.197.065.084.16.197.209.25.076.081.089.101.082.126-.006.023.002.042.03.077.079.1.132.285.116.404-.006.044-.002.057.033.103.022.029.095.104.162.167.114.107.146.156.104.156-.011 0-.018.011-.018.03 0 .028-.004.03-.063.03-.094 0-.102.01-.078.085.011.034.02.08.02.1 0 .021.015.058.032.084.026.039.03.053.02.084-.013.046-.035.051-.078.019zm16.406-.082c0-.015.019-.035.05-.053.067-.04.112-.127.059-.113-.04.01-.028-.013.052-.107.043-.05.125-.16.183-.247l.105-.157-.02-.035c-.033-.055-.007-.143.041-.143.029 0 .082-.07.097-.127.011-.038.01-.047-.012-.067-.024-.022-.024-.026-.006-.06.013-.026.04-.047.097-.072.063-.029.081-.044.095-.077.022-.053.022-.078 0-.078-.033 0-.02-.045.032-.112.094-.12.324-.37.335-.362.006.004.01.016.008.027-.006.039.055.016.11-.04.048-.051.052-.06.045-.102-.007-.047.007-.074.024-.046.026.041-.022.232-.11.44-.046.11-.064.138-.119.189-.051.047-.067.07-.073.108-.026.158-.087.259-.155.259-.042 0-.076.036-.091.099l-.025.094c-.022.083-.104.135-.093.06.008-.057-.018-.044-.076.038-.085.119-.131.205-.131.245 0 .066-.023.11-.063.124-.02.007-.04.01-.046.007-.014-.009-.032.02-.042.065a.32.32 0 0 1-.135.157.206.206 0 0 0-.066.062c-.035.05-.07.062-.07.024zm-18.432-.148c-.062-.059-.077-.08-.075-.105.005-.04.04-.046.076-.013a.734.734 0 0 1 .102.185c0 .022-.034 0-.103-.067zm1.52-.005a.044.044 0 0 1-.01-.027c0-.013.004-.015.014-.005.007.007.011.02.009.027-.003.008-.01.01-.014.005zm17.441-.172c.03-.059.049-.072.049-.034 0 .034-.032.081-.055.081-.015 0-.013-.009.007-.047zm-15.31-.028c-.048-.024-.056-.035-.08-.105-.038-.106-.057-.128-.154-.183-.087-.048-.139-.095-.139-.125 0-.038.053-.014.12.053.04.039.113.108.164.153.1.09.186.19.186.217 0 .025-.036.021-.097-.01zm.252-.104a.915.915 0 0 1-.137-.176 3.195 3.195 0 0 0-.113-.183c-.067-.102-.069-.113-.015-.13.024-.007.05.014.205.17.097.1.192.198.21.221.027.033.041.041.07.039.067-.005.105.057.06.098a.38.38 0 0 1-.165.055.43.43 0 0 1-.115-.094zm-3.848-.152c-.016-.017-.036-.028-.044-.024-.025.01-.054-.047-.05-.097.005-.06.027-.064.077-.01.054.056.08.108.071.138-.01.031-.02.03-.054-.007zm18.134-.073c-.004-.004.009-.04.029-.081l.05-.104c.014-.028.022-.03.091-.029.074.001.077 0 .12-.046.042-.045.052-.049.151-.065a.474.474 0 0 1 .114-.01c.007.007-.045.056-.138.13-.034.029-.042.042-.037.067.009.045-.011.073-.05.073-.05 0-.11-.024-.11-.043 0-.035-.037-.016-.06.03a.166.166 0 0 1-.046.06c-.03.014-.105.027-.114.018zM5.18 18.37c-.029-.03-.067-.116-.057-.126.01-.01.09.068.11.107.027.052-.01.065-.053.02zm15.83.002c-.005-.007.006-.044.023-.081a.679.679 0 0 0 .037-.098.638.638 0 0 1 .097-.137c.093-.11.1-.125.078-.148-.013-.013-.007-.04.039-.205.008-.027.01-.054.006-.059-.015-.014-.053.032-.075.09-.035.095-.094.137-.135.096-.024-.023-.018-.047.031-.127.056-.091.084-.123.12-.136.048-.02.176-.22.228-.361.033-.09.048-.1.1-.06a.115.115 0 0 0 .055.025c.033 0 .096-.074.115-.134.011-.039.01-.049-.014-.082a.12.12 0 0 1-.023-.088c.003-.046.001-.05-.022-.047a.037.037 0 0 1-.039-.02c-.01-.02-.005-.034.03-.08.042-.056.043-.06.035-.13-.006-.055-.017-.085-.04-.112a.712.712 0 0 1-.046-.06c-.014-.022-.017-.02-.059.023-.038.041-.042.051-.034.085.01.044.01.095-.001.149-.007.032-.013.038-.035.032-.033-.008-.051.016-.121.157-.037.073-.056.099-.082.108-.054.018-.058-.004-.018-.089l.036-.077-.031-.023c-.017-.013-.032-.03-.032-.04 0-.01-.005-.017-.01-.017-.026 0-.074.078-.104.167a.575.575 0 0 1-.066.14 1.66 1.66 0 0 1-.252.226c-.056.033-.047.003.034-.107a.733.733 0 0 1 .184-.187c.025-.018.028-.03.028-.108 0-.083-.002-.09-.027-.093-.034-.005-.035-.035-.003-.098.033-.065.064-.08.095-.047.013.014.03.021.038.016.008-.005.065-.086.127-.181.102-.156.116-.173.148-.173.046 0 .107-.07.145-.163.037-.094.044-.102.09-.102.052 0 .065-.018.08-.109a.512.512 0 0 1 .024-.1c.024-.045.073-.09.109-.098.046-.01.15.028.18.066.03.038.022.07-.037.158-.082.118-.106.19-.073.21.007.003.012.023.012.042 0 .02.005.036.012.036.016 0 .104-.113.135-.174a.225.225 0 0 0 .024-.116c-.001-.06.003-.072.031-.1a.418.418 0 0 1 .122-.061.751.751 0 0 0 .12-.05.228.228 0 0 1 .067-.028c.032-.007.041-.02.082-.114.06-.139.134-.355.17-.496.016-.062.033-.118.037-.124.01-.016.066-.016.066 0 0 .007.01.012.022.012.028 0 .045-.037.062-.134.007-.042.032-.176.056-.298.04-.204.042-.23.032-.336-.01-.116-.01-.116-.042-.113-.035.004-.04-.007-.053-.12-.008-.065.01-.154.03-.154.006 0 .015.057.02.127.005.095.012.126.024.126.01 0 .017-.007.017-.015a.39.39 0 0 1 .101-.18c.062-.027.088.037.043.105-.024.036-.032.078-.015.077a.152.152 0 0 0 .04-.017c.045-.026.072-.023.072.009 0 .017-.03.054-.083.105a.652.652 0 0 0-.101.115.737.737 0 0 0-.024.216c-.006.199-.036.37-.136.768-.065.259-.111.358-.209.453l-.068.066-.021.132c-.037.228-.12.448-.373.985-.066.14-.158.397-.188.523-.014.059-.02.066-.066.086-.062.026-.098.07-.196.233-.094.156-.169.242-.229.26-.075.025-.17.075-.17.091 0 .008.007.018.017.022.024.009.025.126.002.157-.022.03-.037.017-.063-.053-.012-.033-.027-.06-.035-.06-.025 0-.126.071-.126.09 0 .01.005.018.012.018.025 0 .01.059-.023.095-.028.03-.044.037-.083.037-.027 0-.053-.006-.057-.013zm-.562-.219a.535.535 0 0 0 .05-.064c.007-.012.016-.018.021-.013.014.013-.058.11-.085.115-.019.004-.016-.004.014-.038zm-18.285.001c-.062-.07-.086-.141-.047-.141.057 0 .115.073.115.144 0 .033-.038.031-.068-.003zm18.236-.488c-.007-.011.054-.114.074-.127.008-.005.008.008.001.038a.5.5 0 0 0-.01.053c0 .012-.037.046-.049.046-.006 0-.013-.005-.017-.01zm-16.274-.038c-.004-.007-.002-.012.005-.012s.016.005.02.012.002.012-.005.012a.025.025 0 0 1-.02-.012zm16.567-.084c0-.007.005-.012.012-.012s.012.005.012.012a.012.012 0 0 1-.012.012.012.012 0 0 1-.012-.012zm-1.6-.042c-.017-.021-.007-.069.02-.096.02-.02.101-.026.101-.007 0 .007.008.012.017.012.02 0 .026-.016.037-.099.008-.063.029-.081.088-.081.05 0 .117.074.098.109-.007.013-.022.023-.035.023-.012 0-.045.027-.073.06a.2.2 0 0 1-.111.078c-.078.023-.122.023-.141 0zm1.398-.079c-.014-.013-.026-.035-.026-.048 0-.054.095-.098.113-.053.008.022-.033.126-.05.126-.006 0-.022-.011-.037-.025zm-17.03-.294c-.06-.063-.074-.084-.071-.111.003-.028.01-.034.041-.037.046-.004.076.029.112.125.048.127.024.134-.082.023zm15.906-.026c-.015-.016-.008-.114.012-.152a.598.598 0 0 1 .054-.08.438.438 0 0 0 .052-.088c.017-.041.023-.045.066-.045.038 0 .052-.007.075-.037l.06-.075a.687.687 0 0 0 .055-.08c.022-.039.028-.042.077-.041.047 0 .052.004.05.028-.008.074-.07.156-.124.167-.04.008-.041.012-.055.086-.01.054-.02.081-.036.09a1.397 1.397 0 0 0-.131.123c-.1.103-.133.125-.154.104zm3.841-.142c-.011-.014-.008-.037.018-.113.037-.114.056-.135.09-.104.044.04.023.127-.051.207-.03.032-.037.034-.057.01zm-2.381-.178c0-.022.021-.04.033-.028.004.004-.002.017-.013.028-.019.019-.02.019-.02 0zm-1.269-.188c-.004-.006.02-.043.054-.08.044-.051.058-.076.053-.093a.143.143 0 0 1 .008-.07c.013-.038.012-.048-.003-.063-.025-.025-.04-.184-.02-.207a.114.114 0 0 1 .051-.027c.034-.01.04-.018.058-.087.021-.077.062-.132.1-.132.031 0 .032.024 0 .101a.241.241 0 0 0-.023.096c.01.025.046.035.09.026.035-.008.156-.107.156-.128 0-.006-.015-.024-.033-.04l-.032-.027.061-.138c.034-.075.087-.201.117-.28.03-.082.079-.18.109-.224a.388.388 0 0 0 .054-.098.302.302 0 0 0-.025-.075c-.03-.068-.022-.103.024-.103.054 0 .077.026.076.085 0 .07-.042.228-.091.35-.055.14-.072.207-.064.258.009.056-.006.083-.062.111-.078.04-.09.062-.093.176l-.003.102h.056a.176.176 0 0 0 .09-.022c.048-.032.12-.135.104-.15-.017-.018-.015-.04.007-.061.021-.021.084-.026.095-.007.013.02.028.013.05-.023a.202.202 0 0 1 .064-.06c.032-.018.053-.044.079-.097a.245.245 0 0 1 .044-.073c.016 0 .011.157-.007.223a.325.325 0 0 1-.108.183c-.066.068-.076.073-.097.044-.012-.016-.022-.013-.085.025a.61.61 0 0 1-.12.056c-.124.033-.206.102-.315.263a.487.487 0 0 1-.089.114c-.005-.003-.013-.022-.017-.041-.006-.028 0-.046.036-.092.052-.068.05-.094-.004-.1-.058-.005-.108.054-.172.205a.933.933 0 0 1-.081.157c-.028.033-.078.045-.092.022zM3.45 16.354c-.044-.04-.052-.085-.014-.085.026 0 .072.063.072.1 0 .029-.013.026-.058-.015zm-.757-.2c-.018-.02-.02-.037-.002-.048.018-.01.048.017.048.044 0 .027-.024.029-.045.005zm-.923-.094c-.041-.042-.075-.188-.043-.188.022 0 .11.148.11.185 0 .03-.037.032-.067.003zm.494-.067c-.004-.006-.001-.014.005-.019.007-.004.012.001.012.012 0 .02-.007.024-.018.008zm20.564-.026a.46.46 0 0 1-.035-.069c-.02-.046-.02-.059-.008-.108a.768.768 0 0 1 .194-.33c.054-.058.104-.102.111-.098.015.01.004.153-.019.24a.309.309 0 0 1-.116.187c-.05.042-.06.058-.06.09 0 .05-.048.113-.067.087zm.91-.082a.079.079 0 0 0-.057-.021c-.049.003-.048-.022.007-.15.027-.062.054-.15.061-.194.007-.045.033-.16.056-.258.033-.135.042-.189.035-.231a.387.387 0 0 1 .013-.193c.021-.087.087-.231.108-.238.01-.003.016.032.021.102l.015.22c.008.112.007.117-.028.18a.828.828 0 0 0-.094.325c-.01.076-.033.172-.049.215-.02.055-.025.081-.016.092.011.014.008.07-.007.147-.007.033-.034.035-.065.004zM1.55 15.554a.752.752 0 0 1-.136-.292c0-.055.013-.07.072-.081a.307.307 0 0 0 .076-.028c.02-.013.037-.015.043-.008.024.024.1.228.094.251-.043.177-.054.2-.093.2-.012 0-.037-.02-.056-.042zm-1.044-.235c-.026-.029-.04-.137-.018-.15.008-.005.024 0 .037.012.018.016.023.037.023.092 0 .075-.008.084-.042.046zm20.285-.007c.002-.012.012-.024.02-.027.011-.003.015.002.013.016-.002.012-.012.024-.02.027-.01.003-.015-.002-.013-.016zM4.073 15.24c-.018-.021-.005-.067.018-.067.012 0 .017.014.017.042 0 .045-.012.054-.035.025zm16.804-.166c-.019-.023-.026-.083-.014-.114.008-.022.018-.028.044-.025.028.003.033.01.036.046.005.069-.037.13-.066.093zm.276-.01c-.048-.019-.027-.092.044-.16.035-.034.038-.034.038-.01 0 .013.005.028.012.032.022.014.012.076-.02.114-.033.04-.034.04-.074.024zm1.407-.078c.005-.026.026-.028.031-.002.003.013-.003.021-.015.021s-.019-.008-.016-.019zm-1.843-.047a.58.58 0 0 1 .04-.123 3.29 3.29 0 0 0 .049-.115c.004-.012.019-.02.035-.02.066 0 .13-.122.087-.169-.015-.017-.019-.034-.013-.069.007-.04.004-.047-.02-.058-.025-.01-.027-.018-.026-.108.001-.092.075-.463.102-.513a2.52 2.52 0 0 0 .059-.206c.068-.264.106-.381.126-.381.028 0 .032.043.012.113-.024.083-.02.121.012.121.02 0 .025.01.03.06.005.055.01.06.036.06.026 0 .031.006.035.043.002.023-.005.114-.018.202-.017.126-.018.165-.007.183.022.034.019.057-.021.168l-.036.103a.655.655 0 0 1-.047.058.416.416 0 0 0-.08.289c.008.072-.009.114-.058.137a.3.3 0 0 0-.071.06 1.26 1.26 0 0 1-.21.194c-.008 0-.015-.013-.015-.029zm2.799-.026c-.013-.013-.01-.053.004-.053.018 0 .029.036.015.05-.006.006-.015.008-.02.003zM2.84 14.84c-.023-.065-.024-.088-.007-.088.016 0 .047.075.047.114 0 .048-.02.036-.04-.026zm-2.344-.01a.207.207 0 0 1-.008-.07.325.325 0 0 0-.025-.12c-.024-.055-.025-.059-.005-.11.026-.068.072-.123.088-.107.021.021.111.3.108.331-.003.024-.01.03-.032.027-.018-.002-.037.008-.052.027-.023.03-.057.04-.074.022zm22.103-.04c-.004-.008-.005-.016-.002-.02.01-.009.032.007.032.021 0 .015-.02.014-.03-.002zm-1.297-.078c.027-.114.11-.318.155-.382.023-.034.023-.025-.005.074-.027.099-.101.27-.135.313l-.024.03zm-.703-.346c-.026-.025-.014-.072.042-.173.07-.123.09-.129.12-.033.024.076.015.105-.034.11-.02.003-.036.017-.05.045-.022.049-.058.072-.078.051zM.762 14.204a.625.625 0 0 1-.021-.058.233.233 0 0 0-.104-.14c-.054-.033-.084-.099-.094-.203a5.07 5.07 0 0 0-.021-.176.84.84 0 0 1 .043-.375c.035-.1.055-.135.081-.135.036 0 .067.19.046.286-.012.055-.01.066.01.096.015.02.027.063.031.107.004.04.021.127.038.193a.61.61 0 0 1 .025.256c-.006.123-.018.177-.034.149zm22.65-.316c-.012-.008-.014-.025-.008-.066l.015-.11c.005-.033.003-.053-.005-.053-.02 0-.028-.036-.014-.062.01-.018.017-.02.036-.01.038.02.046.058.028.132-.02.086-.02.108.001.108.024 0 .024.055 0 .065-.026.01-.033.009-.053-.004zm.235-.1c.007-.103.006-.117-.025-.193a.407.407 0 0 0-.043-.087.349.349 0 0 0-.076-.008c-.044-.001-.064-.006-.058-.015l.035-.054c.023-.034.028-.056.028-.14 0-.102.015-.143.028-.076.007.034.01.036.059.032l.051-.004.007-.113c.006-.098.01-.116.034-.135.06-.048.076-.026.097.129a.807.807 0 0 1-.011.306 3.671 3.671 0 0 0-.02.117.178.178 0 0 1-.036.074l-.03.036.025.05c.03.058.025.094-.02.153-.047.062-.055.05-.046-.072zm-21.431.091c-.014-.014-.008-.06.01-.076.015-.012.02-.009.032.016.008.017.01.04.007.05-.007.019-.034.025-.048.01zm18.495-.067a.572.572 0 0 0 .005-.154.075.075 0 0 1 .024-.063l.027-.026.023.028a.102.102 0 0 1 .023.05c0 .012.005.026.012.03.023.014.013.046-.037.122-.063.097-.09.101-.078.013zM2.126 13.62a1.453 1.453 0 0 1-.177-.31.36.36 0 0 1-.027-.2c.004-.085.011-.119.027-.134.019-.019.021-.018.043.008a.354.354 0 0 1 .043.093c.012.036.026.066.032.066.006 0 .022-.014.035-.03a.135.135 0 0 1 .062-.04l.038-.01-.003-.144c-.004-.164.004-.187.05-.157.039.025.04.035.048.248.003.096.015.218.025.271.027.139.025.152-.03.218a.887.887 0 0 0-.075.104c-.03.052-.054.056-.09.018zm20.98-.088a6.73 6.73 0 0 1-.06-.224c-.008-.038-.043-.045-.043-.01 0 .013-.005.026-.011.03-.023.014-.04-.034-.047-.131-.006-.089-.004-.103.014-.11.013-.005.027 0 .038.015.027.035.036.008.059-.168l.038-.288c.009-.072.017-.154.017-.183 0-.06.01-.093.025-.084.006.004.01.064.01.133 0 .11.004.128.025.15.045.044.047.071.024.283l-.043.396c-.02.185-.032.237-.045.19zm-19.584-.324c-.014-.028-.007-.053.015-.053.023 0 .03.03.013.055-.015.02-.016.02-.028-.002zm17.592-.176c-.03-.067-.03-.114.001-.166.036-.06.057-.074.086-.059.021.011.023.02.015.086-.007.064-.006.072.011.065.013-.005.02 0 .02.01s-.014.021-.03.025-.035.022-.043.043c-.022.053-.034.053-.06-.003zm-18.447-.127a.312.312 0 0 1-.015-.152c.006-.018.013-.011.03.033.017.046.026.056.051.056.029 0 .03-.003.023-.041-.009-.048.007-.064.035-.036.03.03.02.094-.015.099-.015.002-.035.019-.045.039-.023.044-.047.045-.064.002zm18.675-.047c-.018-.048-.009-.125.016-.141.017-.01.024-.01.033.005.013.02.016.12.005.15-.011.029-.04.022-.054-.014zm2.218.003a.507.507 0 0 1 .052-.145c.073-.158.088-.161.116-.021.006.03.004.039-.01.039-.01 0-.018.005-.018.01a.54.54 0 0 1-.122.134c-.006 0-.014-.008-.018-.017zM2.95 12.59a.015.015 0 0 1 .005-.02c.018-.011.03.004.015.02-.01.009-.016.009-.02 0zm18.382-.061a.938.938 0 0 1-.011-.178 1.412 1.412 0 0 0-.006-.171c-.009-.047.026-.12.057-.12.019 0 .032.05.032.12 0 .026.005.049.01.053.016.01.028.277.014.313-.009.023-.02.03-.047.03-.032 0-.038-.006-.05-.047zm1.437-.042c-.064-.064-.054-.136.027-.188.089-.056.1-.05.1.05 0 .088-.02.146-.055.16-.032.012-.041.009-.072-.022zm.742-.032c-.062-.037-.063-.038-.054-.081a.44.44 0 0 0 .006-.098c-.005-.082.008-.157.028-.157.01 0 .026.014.037.03.02.03.02.051.002.18-.002.015.01.03.03.042.03.017.034.016.056-.003.032-.03.054-.014.045.032-.01.05-.04.093-.065.092a.297.297 0 0 1-.084-.037zm-22.012-.138c-.018-.047-.014-.075.012-.101.053-.053.105-.01.089.072-.013.062-.08.082-.1.03zm20.297-.048c-.022-.066-.025-.129-.007-.163.022-.04.033-.015.042.093.01.124-.006.156-.035.07zm-20.248-.377c-.037-.038-.033-.157.006-.157.021 0 .057.095.052.138-.005.043-.026.05-.057.019zm1.342-.383c-.015-.09-.007-.151.027-.206.017-.03.037-.054.044-.054.019-.002.054.079.054.126 0 .046-.077.18-.103.18-.008 0-.018-.021-.022-.046zm20.581-.485c-.02-.02-.024-.036-.019-.073.013-.097.06-.101.073-.006.008.056 0 .104-.018.104-.006 0-.022-.011-.036-.025zm-22.108-.555-.026-.14a.852.852 0 0 1 .01-.37c.057-.153.127-.305.198-.425.075-.127.112-.172.128-.155a.885.885 0 0 1 .039.113c.036.12.03.183-.017.204-.02.009-.028.025-.033.078a2.322 2.322 0 0 1-.06.36.22.22 0 0 0-.012.103c.006.038 0 .068-.024.13a.375.375 0 0 1-.05.093c-.018.016-.025.002-.055-.102-.02-.074-.046-.082-.073-.025-.015.032-.017.05-.008.073.015.04.015.09 0 .09-.006 0-.014-.012-.017-.027zm22.381-.212c-.005-.008-.006-.019-.002-.023.011-.01.023.005.017.023-.004.012-.007.012-.015 0zm.067-.083c-.026-.1-.029-.147-.01-.147.023 0 .08.076.08.106 0 .04-.022.086-.04.086-.011 0-.023-.018-.03-.045zM.02 10.042c-.041-.08-.025-.178.076-.452.041-.114.081-.242.089-.285.014-.083.005-.193-.018-.2-.007-.003-.026.032-.043.076-.016.045-.035.08-.04.076-.018-.009-.007-.145.014-.19A.095.095 0 0 1 .2 9.015c.01.002.03-.009.042-.022.02-.023.024-.046.025-.17.001-.107-.003-.148-.015-.16-.022-.022-.02-.055.005-.086.04-.048.097-.045.156.01.025.024.027.032.02.129-.008.089-.026.18-.028.136-.001-.022-.026-.018-.045.006a.752.752 0 0 0-.117.407.248.248 0 0 1-.005.091c-.024.073-.075.437-.062.441.02.007.013.044-.026.124-.068.138-.103.171-.128.122zm2.103-.448c0-.007.006-.012.013-.012.007 0 .009.005.005.012-.004.007-.01.012-.013.012-.003 0-.005-.005-.005-.012zm.337-.205c0-.007.005-.012.012-.012s.012.005.012.012a.012.012 0 0 1-.012.012.012.012 0 0 1-.012-.012zm21.186-.246a.721.721 0 0 1-.055-.358c.02-.137.06-.19.095-.125.02.038.025.46.006.516l-.013.039zm-.664-.706c-.038-.041-.078-.126-.07-.147.005-.01.02-.02.033-.02a.084.084 0 0 0 .046-.018c.019-.018.022-.017.032.003.024.043.023.156 0 .189-.015.02-.018.019-.041-.007zm-1.8-.34c-.07-.101-.055-.151.043-.151.053 0 .07.022.078.096.006.067-.018.12-.055.12-.011 0-.04-.03-.066-.065zm1.497.026a.972.972 0 0 1-.056-.235c.012-.013.028.018.06.117.024.076.03.114.022.122-.009.01-.017.007-.026-.005zm.102-.353c-.004-.004-.005-.026-.001-.047.006-.03.001-.044-.02-.064a.098.098 0 0 0-.055-.026c-.037 0-.063-.043-.072-.118-.006-.05-.004-.063.013-.07.052-.02.133.129.16.294.006.036-.005.05-.025.03zM4.426 7.724c-.014-.035 0-.06.036-.065.055-.006.067.018.025.052-.042.035-.052.037-.062.013zm-.593-.198a.137.137 0 0 1 .03-.05c.013-.01.014-.007.005.024-.013.045-.023.061-.036.061-.006 0-.005-.016.002-.035zm.275-.017c0-.015.01-.054.02-.086.016-.045.017-.063.006-.08-.016-.027-.008-.046.053-.125.046-.06.084-.153.074-.18-.011-.028-.095-.024-.122.006-.012.014-.026.024-.031.024-.028 0-.048-.159-.022-.175.007-.004.03.01.051.03.078.075.137.03.122-.093l-.008-.07.063-.048c.096-.072.12-.097.12-.128 0-.03.07-.124.214-.283.137-.152.279-.248.279-.19 0 .01-.005.02-.01.025a.237.237 0 0 0-.037.06.757.757 0 0 1-.098.135 3.78 3.78 0 0 0-.323.44c-.077.121-.088.15-.052.135.049-.021.109-.033.127-.026.049.018.02.055-.225.28-.083.076-.1.117-.056.128.03.008.03.037.001.1-.056.12-.145.195-.145.122zM2.34 7.278c-.033-.087-.003-.146.155-.309.12-.123.149-.143.14-.096a1.485 1.485 0 0 1-.011.053c-.004.02-.024.042-.05.059-.036.022-.055.05-.104.154-.08.171-.107.2-.13.139zM4.03 7.2c-.01-.015.025-.072.042-.072.016 0 .015.032 0 .061-.014.026-.03.03-.042.01zm.114-.7a.39.39 0 0 1 .044-.087c.055-.091.1-.18.1-.198 0-.007-.016-.013-.035-.013-.048 0-.046-.02.005-.049a.165.165 0 0 0 .064-.08c.037-.088.041-.109.027-.135-.017-.032.001-.066.046-.09.04-.02.194-.176.216-.218a.084.084 0 0 1 .048-.037c.051-.013.219-.172.22-.209 0-.055.043-.126.112-.185.073-.062.356-.382.356-.403 0-.007-.009-.017-.02-.023-.017-.01-.018-.016-.005-.047a.554.554 0 0 1 .208-.193.634.634 0 0 0 .134-.073.443.443 0 0 1 .113-.062.135.135 0 0 0 .052-.018c.04-.023.072-.023.072 0 0 .027.043.022.076-.009a.205.205 0 0 0 .044-.08c.022-.079.076-.127.161-.145.106-.022.109-.005.014.095-.044.047-.078.092-.075.1.003.008.02.013.042.011.09-.009.067.105-.036.173a2.385 2.385 0 0 0-.324.336.15.15 0 0 0-.022.06.62.62 0 0 1-.076.142c-.065.1-.087.124-.148.16a.783.783 0 0 0-.097.067.162.162 0 0 1-.082.031c-.054.006-.058.01-.121.1a.682.682 0 0 1-.355.281c-.09.037-.144.08-.144.12a.86.86 0 0 1-.123.195c-.116.156-.22.263-.348.357a.344.344 0 0 0-.077.087c-.03.05-.065.072-.065.039zm16.354-.319a.982.982 0 0 1-.07-.123 1.176 1.176 0 0 0-.073-.131c-.035-.045-.025-.17.014-.17.006 0 .039.035.072.077.043.055.072.08.097.086.043.009.069.047.102.146.018.053.02.069.008.073a.233.233 0 0 0-.05.034c-.04.034-.074.037-.1.008zm-16.75-.07c.008-.01.017-.015.02-.012.008.008-.009.031-.023.031-.008 0-.007-.007.002-.018zm18.428-.104a1.986 1.986 0 0 1-.08-.157c-.065-.139-.067-.14-.106-.14-.053 0-.088-.027-.12-.088-.022-.044-.024-.061-.016-.161.005-.069.013-.11.02-.105a.664.664 0 0 1 .064.088.612.612 0 0 0 .1.12c.04.033.06.067.123.211.075.174.087.237.047.244a.036.036 0 0 1-.032-.012zm.839-.834c0-.01.005-.015.012-.011s.012.012.012.019a.012.012 0 0 1-.012.011c-.007 0-.012-.008-.012-.019zm-1.913-.33c0-.007.008-.012.018-.012.01 0 .018.005.018.012s-.008.012-.018.012c-.01 0-.018-.005-.018-.012zm1.495-.171c-.073-.067-.143-.177-.268-.418-.108-.209-.157-.272-.265-.346-.062-.043-.068-.052-.102-.147-.038-.106-.066-.138-.066-.074 0 .051.059.197.17.424.176.358.209.456.151.456-.033 0-.053-.016-.094-.073a1.227 1.227 0 0 0-.114-.12c-.287-.27-.351-.347-.302-.364.02-.007-.022-.082-.138-.242-.093-.128-.127-.183-.117-.192a.243.243 0 0 1 .048-.012c.04-.007.045-.005.081.047.038.053.068.076.083.061.004-.004 0-.017-.011-.028a1.32 1.32 0 0 1-.153-.396 1.02 1.02 0 0 0-.018-.087c-.024-.073.068.008.258.228.078.09.155.188.172.217a.73.73 0 0 0 .086.11c.03.03.085.098.123.15.038.051.115.147.172.213.19.221.289.344.289.36 0 .009.027.07.06.138s.06.128.06.135c0 .027-.053.007-.105-.04zm-16.203.03c0-.018.033-.052.102-.105.068-.053.094-.064.106-.045.01.017-.008.034-.1.097-.087.06-.109.071-.108.053zm11.287-.098c-.004-.006.007-.014.024-.018.025-.006.028-.012.018-.029-.032-.057-.035-.058-.06-.026-.037.047-.03.002.01-.061.115-.182.492-.69.633-.853.268-.31.455-.483.604-.558.184-.093.429-.112.673-.054.153.037.414.14.486.193.051.036.058.059.011.034-.034-.019-.038-.013-.029.046l.008.05.029-.038c.045-.062.033-.01-.017.072a2.087 2.087 0 0 1-.412.465c-.399.333-1.02.6-1.738.746-.226.046-.23.046-.24.031zm1.125-1.436.041-.034-.039.021a.84.84 0 0 0-.126.112l-.087.09.085-.078a3.84 3.84 0 0 1 .126-.111zm1.07-.033a1.567 1.567 0 0 0-.377-.132.46.46 0 0 0-.1-.009c-.003.003 0 .02.006.036.016.043.167.093.284.094a.67.67 0 0 1 .144.017c.084.021.09.02.042-.006zm-.834-.06c.047-.013.117-.027.154-.031a.192.192 0 0 0 .087-.028c.018-.017.017-.02-.013-.023a.876.876 0 0 0-.302.07c-.09.042-.055.048.074.012zm3.636 1.36c-.027-.028-.029-.035-.012-.06.01-.016.015-.016.03.004.017.022.025.08.012.08a.115.115 0 0 1-.03-.025zM7.303 4.401a.04.04 0 0 1-.008-.024c0-.018.031-.022.042-.005.008.013-.023.04-.034.03zM6.35 4.25c-.009-.023.003-.043.027-.043.012 0 .017.009.014.026-.005.032-.031.043-.04.017zm16.232-.272c0-.007.005-.01.012-.005.007.004.012.01.012.012 0 .003-.005.005-.012.005s-.012-.006-.012-.012zm-5.88-.05c-.017-.018-.019-.05-.001-.04.017.01.039.054.027.054-.006 0-.017-.006-.025-.014zM7.007 3.6c0-.024.038-.043.07-.035.019.005.056-.013.136-.067.104-.07.155-.087.144-.048a.713.713 0 0 0-.012.064l-.007.047-.139.028c-.163.033-.192.035-.192.01zm14.297-.189a3.411 3.411 0 0 0-.094-.111c-.138-.155-.182-.227-.156-.253.01-.009.017-.007.027.01a.739.739 0 0 0 .082.093.282.282 0 0 1 .083.117c.008.03.024.055.04.063.05.026.08.063.08.097 0 .047-.015.043-.062-.016zM7.756 3.27c-.031-.075-.014-.097.105-.134.056-.018.14-.05.188-.07.088-.04.124-.047.124-.028 0 .014-.13.134-.145.134-.006 0-.017.014-.023.03-.007.018-.024.035-.04.039a.669.669 0 0 0-.09.04.334.334 0 0 1-.082.035c-.01 0-.026-.02-.037-.045zm3.776-.388c-.02-.008-.027-.02-.027-.052 0-.046.02-.06.068-.048.023.006.03.002.036-.017.007-.026.036-.038.091-.038.043 0 .044-.034.003-.073-.04-.037-.038-.046.015-.068.052-.022.266-.035.29-.018.01.006.021.035.025.063.006.045.012.053.043.062.023.007.06.005.1-.004.056-.013.078-.011.174.011a.606.606 0 0 0 .143.02c.046-.01.075.036.064.103-.005.028-.015.052-.022.055a1.33 1.33 0 0 1-.174-.005 3.917 3.917 0 0 0-.439.005c-.332.018-.355.018-.39.004zm-6.826-.1c-.011-.028.02-.06.05-.05.014.005.026.015.026.023 0 .038-.064.06-.076.027zm3.107-.09c0-.038.42-.199.502-.192.044.004.042.005-.074.061-.191.092-.428.164-.428.13zM10 1.959c0-.016.041-.03.21-.078.49-.137.585-.164.648-.188.068-.025.072-.025.168-.007.055.01.2.024.325.03l.226.01.102-.035c.15-.052.234-.046.224.016-.004.024.06.057.157.082.048.011.07.01.127-.004a.456.456 0 0 1 .164-.01c.093.006.097.008.119.047.043.073-.008.082-.224.037-.153-.031-.228-.026-.325.025-.061.032-.076.036-.109.025a.97.97 0 0 0-.132-.025c-.108-.013-.116-.017-.116-.049 0-.013-.009-.027-.02-.031a3.207 3.207 0 0 0-.467.038 13.77 13.77 0 0 1-.764.083 1.66 1.66 0 0 0-.198.025c-.097.021-.115.022-.115.008zm8.22-.056c-.02-.015-.021-.02-.007-.043.014-.022.013-.03-.006-.05a.284.284 0 0 0-.067-.047c-.025-.013-.045-.028-.045-.034 0-.03.032-.021.11.03.084.056.085.057.076.1-.012.068-.02.074-.06.044zm-4.988-.026c-.015-.015-.008-.029.015-.029.031 0 .06.013.06.026 0 .012-.063.014-.075.003zm-.419-.077c-.037-.048-.111-.072-.245-.08-.137-.006-.186-.014-.186-.028 0-.006.025-.025.055-.043.055-.033.055-.033.118-.013.035.011.072.02.083.02.031 0 .025-.047-.016-.111-.035-.056-.037-.057-.099-.057-.044 0-.072.007-.093.024-.035.028-.082.031-.092.007-.004-.012-.043-.022-.116-.032-.108-.014-.112-.016-.16-.067-.05-.055-.12-.089-.285-.137a.314.314 0 0 1-.093-.037c0-.006.026-.011.057-.012.032 0 .136-.005.232-.01.165-.009.18-.011.276-.053.134-.058.182-.059.237 0 .022.023.04.052.04.063a.2.2 0 0 1-.037.073c-.02.028-.033.056-.027.06a.37.37 0 0 0 .156.015c.007-.004.016-.018.02-.03.006-.018.017-.021.042-.017.077.016.08.015.084-.01a.05.05 0 0 0-.015-.041c-.042-.035-.01-.063.073-.063.03 0 .05.01.08.041.035.037.057.046.201.081.187.046.293.08.298.093.027.08.09.11.186.09a.926.926 0 0 1 .103-.018c.046-.005.051-.003.045.016-.004.012-.001.025.006.03.026.016.01.028-.05.036a.25.25 0 0 0-.079.02c-.008.008-.035.01-.06.005-.112-.02-.22-.02-.338-.002-.11.016-.13.017-.174 0-.123-.044-.225-.044-.225 0 0 .01.017.052.037.094.032.07.041.08.084.092.064.02.05.038-.03.038-.057 0-.067-.004-.092-.037zm1.974-.03c-.066-.058-.126-.072-.157-.035-.017.021-.061.019-.068-.003-.003-.008.019-.027.048-.04l.053-.027.101.04c.101.04.163.085.15.108-.017.027-.068.01-.127-.042zm2.646-.007a1.517 1.517 0 0 0-.196-.047.487.487 0 0 1-.12-.031c-.058-.03-.127-.1-.135-.14a.09.09 0 0 0-.034-.05 63.267 63.267 0 0 1-.152-.096 1.014 1.014 0 0 0-.17-.092c-.07-.019-.08-.04-.049-.1.035-.066.023-.102-.047-.148-.047-.032-.05-.032-.066-.012-.026.037-.044.011-.035-.052.005-.037.003-.06-.005-.066-.021-.013-.015-.03.011-.03a.71.71 0 0 1 .13.04c.057.023.134.05.17.061a.485.485 0 0 1 .19.093c.013.016.023.05.027.098l.006.073.09.077c.142.12.312.244.457.335.141.087.161.116.084.121a.682.682 0 0 1-.156-.033zm-3.28-.054a1.447 1.447 0 0 0-.205-.073c-.138-.036-.14-.037-.122-.06.017-.02.076-.021.111-.001a.351.351 0 0 0 .11.017c.168.005.287.034.314.078.012.02-.06.083-.094.082a.503.503 0 0 1-.114-.043zm3.623-.167a.35.35 0 0 0-.116-.054c-.036 0-.05-.015-.067-.067a.093.093 0 0 0-.04-.05l-.121-.057a.386.386 0 0 1-.136-.094 2.234 2.234 0 0 0-.067-.076c-.05-.053.023-.056.126-.006.127.061.455.293.475.335.01.022.04.05.07.065.059.032.06.05.001.055-.032.002-.06-.009-.125-.051zM9.4 1.44c0-.014.064-.049.09-.049.026 0 .038.036.017.05-.023.014-.107.013-.107-.001zm1.379-.07c-.01-.017.023-.028.117-.036.092-.008.106.013.017.025-.028.004-.069.01-.09.015-.02.004-.04.002-.044-.004zm.32-.017c-.034-.017-.034-.029-.001-.038.031-.008.074.012.067.032-.006.02-.033.022-.066.006zm-4.706-.04c0-.003.031-.026.07-.05a.87.87 0 0 0 .11-.083c.052-.049.318-.178.423-.205.139-.035.288.012.203.065a4.57 4.57 0 0 1-.196.094c-.16.074-.174.078-.234.07-.073-.008-.143.011-.27.075-.077.038-.106.048-.106.034zm10.783-.037c-.02-.02-.02-.043 0-.043.006 0 .019.011.027.024.02.03 0 .045-.027.019zm-7.334-.03c-.054-.024-.059-.025-.105-.007-.06.024-.108.025-.138.003-.032-.023-.008-.06.063-.094.052-.026.073-.028.231-.028.179 0 .265.01.265.031 0 .007-.01.015-.021.02a2.777 2.777 0 0 0-.122.053 1.119 1.119 0 0 1-.108.046.56.56 0 0 1-.065-.025zm.574-.172c-.013-.01-.02-.021-.015-.026.012-.011.1.011.097.025-.004.02-.056.02-.082.001zm5.768-.166a.912.912 0 0 1-.132-.064 1.641 1.641 0 0 0-.181-.088l-.297-.115c-.21-.082-.253-.107-.22-.128.059-.037.202-.023.38.037.12.041.46.203.564.27.07.045.07.046.042.057a.63.63 0 0 0-.062.029c-.036.019-.037.019-.094.003zM8.312.898c-.017-.028.215-.109.24-.083.018.018-.021.043-.112.071-.085.027-.117.03-.128.012zm.424.005c-.022-.022-.007-.07.036-.112.066-.066.245-.17.29-.17A.91.91 0 0 0 9.23.579c.154-.052.266-.068.266-.037 0 .011-.014.027-.032.035a.244.244 0 0 0-.06.042C9.39.633 9.37.646 9.36.646c-.03 0-.114.07-.118.097-.003.018-.036.049-.098.091-.084.058-.1.065-.15.062-.031 0-.1.002-.153.007a.343.343 0 0 1-.105 0zM17.223.79a.222.222 0 0 0-.066-.081C17.12.687 17.11.67 17.137.67a.69.69 0 0 1 .223.123c.002.013-.004.021-.015.021a.018.018 0 0 0-.02.018c0 .012-.011.018-.035.018-.031 0-.04-.008-.067-.061zM8.362.686c-.024-.024-.005-.04.045-.04.062 0 .084.02.035.03L8.389.69a.038.038 0 0 1-.027-.003zM9.869.519c0-.01.008-.018.018-.018.01 0 .018.008.018.018 0 .01-.008.018-.018.018A.018.018 0 0 1 9.87.52zm.277-.005c0-.012.074-.036.111-.036.034 0 .024.02-.017.035-.046.016-.094.017-.094.002zm-.834-.08c-.03-.03.026-.1.08-.1.024 0 .032.005.032.024 0 .048-.083.104-.112.076z"/></svg>