<svg role="img" viewBox="0 0 24 24" xmlns="http://www.w3.org/2000/svg"><path d="M.175 0v24h23.65V0zm1.113 1.113h21.424v4.33l-1.933 1.41V2.932h-9.194l4.842 7.094-1.536 1.12-1.671-2.194-2.475 1.884L9.371 8.85l2.214-1.702-2.896-4.216H3.457v10.464l1.548-1.19 1.477 1.878-.079.074-2.946 2.388v4.419h9.753l-.856-1.082 2.011-1.532 1.792 2.614h4.622v-7.501l1.933-1.472v10.895H1.288zm3.388 3.139H7.47l1.981 2.896-4.775 3.302zm9.804 0h5.03v3.527l-1.803 1.314zm8.232 3v3.098l-11.026 8.33-5.41-7.451 1.78-1.368 3.884 5.313zm-9.703 3.26l.982 1.29-1.48 1.08-.96-1.26zm6.5 3.92v5.263h-2.54l-1.438-2.232zm-12.293.996l3.2 4.267h-5.74v-2.337z"/></svg>