<svg viewBox="0 0 24 24" xmlns="http://www.w3.org/2000/svg" role="img"><path d="M10.319 17.62 8.6 15.904h1.882l.777.777.777.776.759-.758.758-.759h.928c.51 0 .928.006.928.014s-.76.772-1.687 1.7l-1.686 1.686zm3.834-1.348-.305-.005-.92.92-.918.918-.892-.89-.89-.892H9.66l1.188 1.188 1.188 1.188 1.211-1.21 1.211-1.212zm-2.866.197-.749-.75-1.12.005-1.12.005v-2.248l-.744-.745-.745-.745.745-.745.745-.745V8.262h2.233l.752-.74.752-.741.74.74.742.741h2.258v2.24l.278.279c.154.153.285.278.291.278a.265.265 0 0 0 .068-.05l.056-.052-.255-.255-.256-.255V8.564l1.714 1.714 1.713 1.713-1.695 1.696-1.695 1.695V13.5l.753-.754.754-.755-.447-.447a9.397 9.397 0 0 0-.464-.448.306.306 0 0 0-.08.039l-.063.04.404.403c.222.223.404.413.404.423 0 .01-.333.351-.74.758l-.74.74v2.221h-2.24l-.75.75-.75.75zm1.435-.338.667-.667h2.13v-2.129l.672-.672.672-.672-.32-.32-.321-.32-.132.083a.586.586 0 0 0-.132.1c0 .008-.018.021-.04.028a.212.212 0 0 0-.064.034 1.971 1.971 0 0 1-.092.07l-.218.16a1.493 1.493 0 0 1-.2.133c-.14.118-.245.198-.245.189 0-.012-.03.012-.18.141-.144.124-.148.134-.071.204a.28.28 0 0 1 .076.116c.016.07-.036.246-.094.325a.24.24 0 0 0-.042.074c0 .03-.19.201-.252.225-.076.03-.214.015-.261-.028a.36.36 0 0 1-.092-.181c-.006-.054.02-.19.04-.202.009-.006.017-.027.017-.046 0-.02.007-.05.016-.068.009-.017.03-.069.048-.114.068-.175.106-.247.17-.323.11-.128.136-.094.063.083-.014.034-.02.066-.015.071.008.008.132-.099.267-.232a.813.813 0 0 1 .08-.065 3.15 3.15 0 0 0 .248-.194c.008-.012.195-.15.293-.217a.645.645 0 0 0 .061-.047c.012-.01.058-.045.104-.076a.733.733 0 0 0 .108-.087.257.257 0 0 1 .083-.054.553.553 0 0 0 .12-.078c.035-.03.097-.075.14-.1l.077-.045-.292-.291-.292-.291V8.536H13.39l-.677-.676-.676-.677-.676.677-.677.676H8.573v1.056l.002 1.055-.682.671-.682.671.681.682.681.682v2.111h2.106l.677.667c.372.367.682.667.688.667.006 0 .312-.3.678-.667zm-2.269-2.54a.769.769 0 0 0-.116-.019l-.174-.02a2.202 2.202 0 0 1-.155-.025 53.9 53.9 0 0 0-.186-.038 1.945 1.945 0 0 1-.71-.35c-.09-.08-.123-.1-.183-.103-.283-.016-.455-.077-.59-.21a.736.736 0 0 1-.202-.332c-.015-.08-.014-.46.002-.567.022-.153.062-.309.093-.37a.276.276 0 0 0 .03-.08.8.8 0 0 1 .081-.142c.07-.105.153-.195.348-.377.08-.075.356-.248.564-.354.117-.06.214-.107.214-.103a.52.52 0 0 0 .108-.046.708.708 0 0 1 .18-.07.872.872 0 0 1 .16-.065c.01-.001.063-.018.118-.038a2.25 2.25 0 0 1 .11-.037.985.985 0 0 0 .193-.065.204.204 0 0 1 .073-.025c.03-.006.1-.023.154-.039a5.25 5.25 0 0 1 .549-.129.502.502 0 0 1 .073-.019l.137-.033c.05-.014.124-.03.165-.035.153-.02.36-.101.434-.172.065-.061.092-.037.063.058-.028.089-.123.17-.316.265a2.606 2.606 0 0 1-.474.176c-.02.003-.074.014-.119.025l-.137.03c-.051.012-.1.025-.42.117a5.26 5.26 0 0 1-.183.049 1.52 1.52 0 0 0-.137.04.99.99 0 0 1-.11.031c-.026.004-.05.013-.214.085a.401.401 0 0 1-.114.034c-.02 0-.04.006-.044.014a.663.663 0 0 1-.143.06.51.51 0 0 0-.148.068.05.05 0 0 1-.038.023c-.02 0-.248.13-.294.168-.01.009-.069.048-.129.088-.164.108-.193.13-.29.22a1.122 1.122 0 0 0-.314.51c-.028.114-.035.323-.01.338.008.005.02.042.027.081a.752.752 0 0 0 .14.295.49.49 0 0 1 .07.09c.041.07.218.257.241.257.008 0 .026.012.04.026.04.04.073.04.127.004.047-.032.05-.031.155.019a1.404 1.404 0 0 0 .144.064c.03.02.213.091.273.107l.22.06c.186.051.474.105.703.131a.339.339 0 0 1 .064.01c0 .03 1.045.017 1.094-.013a.195.195 0 0 1 .065-.017c.12-.013.313-.047.395-.07.083-.022.209-.05.256-.055a3.662 3.662 0 0 0 .54-.19c.197-.08.453-.202.466-.223.006-.01.025-.017.043-.017.018 0 .053-.018.077-.039a.545.545 0 0 1 .117-.07c.09-.04.16-.113.145-.152-.006-.016-.056-.052-.112-.08-.129-.065-.195-.147-.177-.22.07-.293.363-.479.62-.394.08.026.086.026.137-.011a.197.197 0 0 1 .08-.04c.016 0 .047-.028.07-.063.048-.074.082-.092.117-.063a.07.07 0 0 1-.002.108c-.015.013-.028.033-.028.045 0 .036-.193.21-.27.242a.483.483 0 0 1-.123.034c-.056.004-.118-.035-.118-.075 0-.035-.073-.045-.152-.021-.056.017-.08.036-.099.083-.027.064-.008.119.037.102.03-.01.12.051.157.109.026.039.029.066.017.144-.026.163-.03.175-.062.237l-.052.1c-.01.023-.026.042-.034.042-.008 0-.013.012-.013.026 0 .034-.2.212-.238.212-.016 0-.048.016-.07.036-.058.055-.246.165-.281.165a.06.06 0 0 0-.046.023c-.017.028-.121.073-.261.115a6.6 6.6 0 0 0-.238.076c-.075.026-.17.053-.21.06l-.183.041a1.19 1.19 0 0 1-.146.029.383.383 0 0 0-.11.022 4.784 4.784 0 0 1-.475.064c-.123.012-1.025.028-1.035.018zm.25-1.249a1.215 1.215 0 0 0-.149-.013c-.348-.021-.413-.028-.448-.047-.02-.01-.042-.015-.047-.01-.006.006-.032-.005-.058-.023a1.306 1.306 0 0 0-.15-.082c-.097-.046-.254-.188-.254-.23a.197.197 0 0 0-.032-.069c-.046-.071-.042-.335.007-.435l.052-.1.058-.112a.885.885 0 0 1 .107-.136.506.506 0 0 0 .082-.103c0-.021.07-.088.091-.088.035 0 .018.086-.026.137a.807.807 0 0 0-.135.252 1.899 1.899 0 0 0-.01.21l-.002.17.118.115c.123.117.174.14.466.214.22.054 1 .03 1.257-.04.043-.01.098-.024.124-.029.025-.005.107-.029.182-.055a1.71 1.71 0 0 1 .165-.05.236.236 0 0 0 .064-.023.477.477 0 0 1 .1-.033c.07-.015.222-.076.396-.157a.634.634 0 0 1 .14-.053c.016 0 .034-.01.041-.02a.296.296 0 0 1 .09-.053.562.562 0 0 0 .117-.066c.055-.048.113-.057.209-.034.04.01.061.003.096-.03.025-.022.045-.049.045-.058 0-.009.055-.075.123-.145l.157-.165a.35.35 0 0 1 .2-.087c.023 0 .074.016.114.036a.37.37 0 0 0 .092.037c.012 0 .036-.016.054-.037a.118.118 0 0 1 .074-.036c.023 0 .06-.02.083-.044.043-.045.09-.045.09 0 0 .014-.007.026-.016.026a1.01 1.01 0 0 0-.15.135.698.698 0 0 1-.18.145c-.061.011-.13-.017-.13-.054 0-.069-.13-.11-.155-.048-.04.1-.042.13-.009.16a.236.236 0 0 1 .052.083c.016.046.012.06-.034.109-.055.058-.097.061-.195.014-.061-.03-.12-.005-.18.076a.337.337 0 0 1-.105.094c-.044.019-.057.016-.092-.015a.489.489 0 0 0-.062-.048c-.018-.01-.117.054-.32.207a.187.187 0 0 1-.068.037c-.01 0-.02.007-.02.016 0 .01-.014.02-.032.025-.053.014-.065.02-.16.082a.417.417 0 0 1-.115.06.187.187 0 0 0-.074.033c-.056.039-.314.136-.314.119 0-.006-.014 0-.032.016a.207.207 0 0 1-.077.038 1.535 1.535 0 0 0-.083.02 4.063 4.063 0 0 1-.63.13l-.21.02c-.135.015-.283.02-.292.012zm3.843-1.17-.085-.086.073-.078a.334.334 0 0 1 .095-.078c.012 0 .053.035.09.078l.068.078.073-.078a.343.343 0 0 1 .09-.077.43.43 0 0 1 .102.095l.083.096-.075.069c-.086.078-.096.081-.13.037a.675.675 0 0 0-.071-.074l-.047-.042-.078.074a.479.479 0 0 1-.09.074.547.547 0 0 1-.098-.087zm-3.204-.102a.36.36 0 0 1-.082-.098c0-.01.023-.045.05-.075a1.65 1.65 0 0 0 .081-.098l.03-.042.103.1c.056.055.102.11.102.123 0 .028-.117.137-.167.156-.026.01-.055-.006-.117-.066zm3.35-.171-.084-.087.08-.082.08-.082.04.045.087.096.047.05-.072.074a.457.457 0 0 1-.082.073.605.605 0 0 1-.095-.087zm-3.969-1.205c-.078-.072-.076-.087.018-.196l.046-.053.057.053c.14.128.147.149.074.216-.068.063-.11.058-.195-.02zm7.31 1.584c-.694-.695-.714-.713-.744-.677-.016.02-.035.037-.042.037a.834.834 0 0 0-.171.133c-.003.008-.012.01-.02.006-.006-.004-.024 0-.039.009-.02.013.103.146.545.588.314.315.571.58.571.59 0 .01-.407.426-.905.923l-.905.905v.621l1.211-1.21 1.211-1.211zm-3.387 1.637c.07-.015.112-.083.088-.145-.011-.03-.032-.048-.054-.048-.02 0-.04-.007-.046-.016-.013-.022-.095-.015-.18.014-.056.02-.068.032-.068.073 0 .08.106.155.192.137.01-.002.04-.01.068-.015zm2.322-2.27a.352.352 0 0 0 .084-.064c.003-.01.017-.016.032-.016.014 0 .026-.008.026-.018 0-.01.01-.018.024-.018s.038-.015.054-.032c.027-.03 0-.06-.39-.44l-.42-.409v.542l.251.251c.139.139.254.252.257.252a.89.89 0 0 0 .082-.048zm1.677 4.664-1.014-1.015 1.014-1.014 1.015-1.015 1.014 1.015 1.014 1.014-1.014 1.015-1.015 1.014zm1.782-1.8-.777-.778-.772.772-.772.773.777.777.776.777.773-.773.772-.772zM3.313 15.294l-1.01-1.01 1.015-1.015 1.014-1.014 1.015 1.014 1.014 1.015-1.01 1.01a79.758 79.758 0 0 1-1.019 1.01c-.005 0-.463-.455-1.019-1.01zm1.805-.224.777-.777-.781-.781-.782-.782-.781.782-.782.781.777.777c.427.427.781.777.786.777.005 0 .359-.35.786-.777zm1.274-1.362L4.678 12l1.7-1.7L8.08 8.6v1.883l-.753.754-.754.754.772.772.772.773-.005.941-.005.941zm.418-.804-.887-.887.913-.914.914-.914V9.57l-1.21 1.21-1.211 1.212 1.178 1.179 1.18 1.18.004-.28.005-.277zm-5.8.087L0 11.982l1.015-1.015 1.014-1.014 1.015 1.014 1.014 1.015-1.01 1.01a79.638 79.638 0 0 1-1.019 1.01c-.005 0-.464-.455-1.02-1.01zm1.805-.224.777-.777-.777-.776-.777-.775-.785.777-.784.776.775.776c.427.427.78.776.785.776.005 0 .359-.35.786-.777zm18.138.224-1.01-1.01 1.014-1.014 1.014-1.015 1.01 1.005A239.31 239.31 0 0 0 24 11.968c.009.007-2.013 2.034-2.028 2.034-.005 0-.464-.455-1.02-1.01zm1.805-.243.777-.776-.782-.782-.781-.781-.782.781-.781.782.777.776c.427.428.78.777.786.777.005 0 .359-.35.786-.777zM3.327 10.684 2.312 9.669 3.33 8.653l1.016-1.016 1.008 1c.555.55 1.008 1.01 1.008 1.021 0 .011-.454.475-1.01 1.03l-1.01 1.01zm1.8-1.782-.776-.777-.782.781-.781.782.776.777.777.776.782-.78.781-.782zm13.522 1.786-1.01-1.01 1.015-1.014L19.67 7.65l1.014 1.014 1.015 1.014-1.01 1.01a79.75 79.75 0 0 1-1.02 1.01c-.004 0-.463-.454-1.019-1.01zm1.81-.246.782-.782-.786-.786-.786-.786-.786.786-.786.786.781.782c.43.43.786.781.79.781.006 0 .362-.352.791-.781zm-7.645-3.14-.777-.777-.759.759-.758.759H8.638l1.69-1.691c.93-.93 1.699-1.691 1.709-1.691.02 0 3.41 3.384 3.41 3.404 0 .008-.418.014-.929.014h-.927zm-1.668-.507.918-.918.892.891.892.892.269-.005.27-.005-1.18-1.18-1.18-1.178-1.21 1.21-1.211 1.212h.621z"/></svg>