<svg role="img" viewBox="0 0 24 24" xmlns="http://www.w3.org/2000/svg"><path d="M1.602 16.846a2.555 2.555 0 0 1-.632-.122 1.456 1.456 0 0 1-.637-.487c-.296-.392-.395-.934-.296-1.62.073-.498.26-1.079.538-1.666.07-.148.28-.56.333-.65a2.29 2.29 0 0 1 .19-.283c.074-.086.15-.142.195-.142.03 0 .034.008.03.058-.004.09-.064.221-.244.535-.343.599-.525 1.114-.563 1.591-.009.107-.003.31.01.402.046.31.167.551.357.71.196.164.455.276.77.334.274.05.58.017 1.035-.114.77-.221 1.32-.558 1.751-1.07a4 4 0 0 0 .502-.78 3.37 3.37 0 0 0 .288-1.006c.01-.091.01-.313-.002-.375a.517.517 0 0 0-.112-.264l-.03-.031-.085.042a.72.72 0 0 1-.334.097.376.376 0 0 1-.18-.044.311.311 0 0 1-.168-.17.588.588 0 0 1 .014-.283 3.13 3.13 0 0 1 .163-.454l.127-.314c.1-.25.162-.376.225-.459a.185.185 0 0 1 .102-.073c.119-.042.343.01.482.113.181.134.297.37.344.702.017.115.02.154.022.335a4.34 4.34 0 0 1-.069.857 5.43 5.43 0 0 1-.346 1.198c-.335.847-.77 1.584-1.254 2.132-.08.09-.278.287-.364.363-.46.402-.966.677-1.55.843-.294.083-.425.103-.611.095zm2.653-.063c-.022-.008-.026-.015-.03-.054s.003-.057.049-.125c.102-.152.227-.279.514-.521.257-.218.333-.29.463-.442.316-.367.597-.774.86-1.241.097-.174.113-.209.229-.5.107-.27.155-.372.23-.485.136-.206.329-.324.495-.302.081.01.118.026.364.151.087.045.152.069.264.1.054.014.177.05.272.08.362.111.433.128.78.178.31.045.683.085 1.104.117.586.044.656.049.912.054 1.23.028 3.018-.174 4.228-.477 1.781-.445 3.616-1.212 5.277-2.204.46-.275.728-.453 1.487-.986.928-.652 1.273-.875 1.6-1.039.172-.085.375-.17.462-.192.097-.025.154-.002.176.07a.482.482 0 0 1-.005.211c-.051.195-.216.448-.434.667-.072.072-.093.085-.26.149a5.506 5.506 0 0 0-.432.214c-.072.041-.225.144-1.076.716a302.163 302.163 0 0 1-1.07.72c-1.439.99-2.842 1.77-4.23 2.35-.82.342-1.36.513-2.172.687-.273.059-.799.162-1.01.198a18.887 18.887 0 0 1-2.916.23c-.493 0-.6-.005-1-.052-.833-.096-1.374-.188-1.787-.303a5.015 5.015 0 0 1-.477-.174c-.392-.153-.397-.154-.46-.142a.288.288 0 0 0-.154.088c-.085.084-.135.178-.245.455-.064.16-.088.212-.247.532-.096.194-.199.395-.227.445-.207.365-.382.556-.59.645l-.046.02-.246.003-.246.003-.034.016a1.487 1.487 0 0 0-.102.059 1.519 1.519 0 0 1-.114.064.167.167 0 0 1-.092.023.213.213 0 0 1-.064-.005zm9.462-7.035a2.996 2.996 0 0 1-.116-.095 2.444 2.444 0 0 0-.419-.294 8.119 8.119 0 0 1-.17-.107l-.045-.03v-.043c0-.04.001-.043.018-.063.01-.012.069-.094.132-.182.167-.232.3-.402.44-.559l.054-.06h.058c.101 0 .186.017.265.054.075.034.294.191.37.265a.354.354 0 0 1 .1.143c.016.05.014.14-.003.208-.042.162-.192.374-.436.618-.084.084-.19.178-.201.178a.436.436 0 0 1-.047-.033zm1.548.003a3.46 3.46 0 0 1-.122-.101 2.324 2.324 0 0 0-.39-.275l-.183-.115-.058-.038V9.14l.033-.043.14-.193a6.55 6.55 0 0 1 .42-.532l.052-.057h.056c.1 0 .202.02.269.054.044.023.092.053.18.117.107.075.143.104.192.152.069.068.095.114.105.185.027.2-.116.448-.452.782a1.45 1.45 0 0 1-.197.175.22.22 0 0 1-.045-.029zm-10.9-1.045a2.996 2.996 0 0 1-.115-.094 2.53 2.53 0 0 0-.427-.3 7.363 7.363 0 0 1-.162-.102l-.045-.03v-.084l.03-.04a4.61 4.61 0 0 0 .13-.18c.149-.207.294-.39.43-.543l.055-.062.083.003c.16.006.225.031.402.156.114.08.159.115.213.17.09.089.106.13.102.245a.384.384 0 0 1-.016.115c-.048.16-.2.371-.436.606a1.686 1.686 0 0 1-.197.174.693.693 0 0 1-.046-.033zm1.502.003a3.338 3.338 0 0 1-.12-.098 2.273 2.273 0 0 0-.386-.274 12.846 12.846 0 0 1-.189-.119l-.058-.038v-.083l.046-.06.14-.194a6.902 6.902 0 0 1 .451-.562c.01-.009.017-.01.093-.007.163.006.226.032.414.165.112.08.163.12.212.172.07.072.091.122.091.213a.48.48 0 0 1-.063.244c-.047.097-.11.187-.232.33-.098.115-.3.31-.35.337-.006.004-.017-.002-.049-.026zm8.653-.12a3.236 3.236 0 0 1-.112-.092 2.275 2.275 0 0 0-.393-.28 15.641 15.641 0 0 1-.191-.119l-.053-.034v-.081l.025-.033.138-.19a7.557 7.557 0 0 1 .438-.554l.048-.054.07.003a.582.582 0 0 1 .347.113c.259.173.356.268.377.371.03.14-.03.31-.175.502-.08.105-.2.241-.299.336a1.01 1.01 0 0 1-.172.143.231.231 0 0 1-.048-.031z"/></svg>