<svg role="img" viewBox="0 0 24 24" xmlns="http://www.w3.org/2000/svg"><path d="M7.555 21.86a3.326 3.326 0 0 0 .656-.616 6.156 6.156 0 0 0 .685-1.1 7.056 7.056 0 0 0 .196-.435l.01-.024a9.561 9.561 0 0 0 1.878 1.482 6.375 6.375 0 0 0 .826.392l.084.033c-.409.899-1.118 1.675-1.84 2.283-.949-.591-1.853-1.27-2.495-2.015zm-5.479-4.051a2.796 2.796 0 0 0 .716.18l.161.012a5.106 5.106 0 0 0 1.185-.07l.083-.015a7.136 7.136 0 0 0-.128 1.733 4.268 4.268 0 0 0 .125.742 2.926 2.926 0 0 0 .756-.198 3.924 3.924 0 0 0 .325-.154 5.7 5.7 0 0 0 1.005-.664 7.902 7.902 0 0 0 .672 1.666c.038.07.078.137.12.204a5.079 5.079 0 0 0 .46.615c-.662.475-1.482.754-2.243.912-.47-.753-.89-1.58-1.095-2.38a4.653 4.653 0 0 1-1.339-.042 7.166 7.166 0 0 1-.795-.179c-.104-.777-.141-1.615-.008-2.362zm9.814 3.783a3.818 3.818 0 0 0 .313-1.055 7.245 7.245 0 0 0-.048-2.084l.035.01.035.009a13.16 13.16 0 0 0 2.253.382 7.498 7.498 0 0 0 .686.034 9.002 9.002 0 0 0 1.285-.086c.217 1.208 0 2.493-.367 3.623a22.85 22.85 0 0 1-1.768-.212c-.876-.142-1.701-.342-2.424-.621zm-5.396-2.383a7.247 7.247 0 0 0 .982-1.133 3.008 3.008 0 0 0 .236-.409c.051.134.115.262.182.388a7.618 7.618 0 0 0 .665 1.021c.111.144.228.283.352.415l-.05.123-.01.024a6.243 6.243 0 0 1-.736 1.319 3.033 3.033 0 0 1-.477.52l-.044.037a4.333 4.333 0 0 1-.482-.75 7.906 7.906 0 0 1-.436-1.029 7.85 7.85 0 0 1-.118-.38l-.024-.086zm2.709.221l.001-.004a6.093 6.093 0 0 0 .359-2.15 8.39 8.39 0 0 0 2.095 1.03c.077.025.154.049.232.072l.024.146.005.029a7.06 7.06 0 0 1 .06 1.742 3.457 3.457 0 0 1-.223.972l-.017-.007a5.75 5.75 0 0 1-1.075-.59 9.096 9.096 0 0 1-1.46-1.24zm-4.716-1.573a5.29 5.29 0 0 0 1.093-.41c.16-.08.315-.17.462-.27l.044-.031c-.018.144-.024.29-.024.435a7.477 7.477 0 0 0 .084 1.074c.023.152.052.304.087.454l-.106.087a5.606 5.606 0 0 1-.903.6 5.265 5.265 0 0 1-.414.193c-.13.05-.265.089-.401.116v-.002a3.865 3.865 0 0 1-.076-.76 7.1 7.1 0 0 1 .124-1.334zm3.375-.495a4.5 4.5 0 0 0 .39-1.463c.256.43.613.83 1.058 1.186l.004.232a5.846 5.846 0 0 1-.026.61 5.908 5.908 0 0 1-.28 1.3l-.01-.011a6.407 6.407 0 0 1-.393-.497 7.574 7.574 0 0 1-.506-.811 3.311 3.311 0 0 1-.147-.311zm-1.5-.419c.376-.296.7-.647.955-1.041.003.474.095.959.266 1.44l-.104.233-.003.008a2.36 2.36 0 0 1-.158.277 4.863 4.863 0 0 1-.202.289 6.75 6.75 0 0 1-.67.762l-.002-.004a7.006 7.006 0 0 1-.132-1.294c0-.122.003-.245.014-.368l.005-.045zm12.983-3.563c1.2.994 2.03 2.383 2.588 3.776-1.892.796-3.796 1.426-5.484 1.646l-.004-.023a4.314 4.314 0 0 0-.555-1.477 8.62 8.62 0 0 0-1.36-1.756 17.354 17.354 0 0 0 2.68-.94c.11-.049.221-.098.33-.15.112-.052.222-.107.331-.163a11.818 11.818 0 0 0 1.474-.913zm-5.099 2.236l.133.132.024.025.025.025a8.449 8.449 0 0 1 1.362 1.835c.03.056.058.114.086.171.117.25.207.513.272.781l-.018.002a8.275 8.275 0 0 1-1.359.038l-.271-.02a12.755 12.755 0 0 1-2.382-.421 4.628 4.628 0 0 0-.14-.554 7.611 7.611 0 0 0-.332-.86 7.637 7.637 0 0 0-.349-.675 1.812 1.812 0 0 0-.124-.183l.035.002.035.003a9.43 9.43 0 0 0 1.443-.036 11.923 11.923 0 0 0 1.56-.265zm-4.698 1.35a4.342 4.342 0 0 0-.41-1.57c.474.243 1.04.405 1.678.482l.17.2.002.003.006.008c.027.036.052.074.076.113a7.005 7.005 0 0 1 .31.589c.092.198.177.4.252.604.086.231.16.467.214.708l-.025-.008a7.888 7.888 0 0 1-1.613-.711 9.552 9.552 0 0 1-.66-.418zM1.203 14.5a3.517 3.517 0 0 0 .599.551 5.56 5.56 0 0 0 .879.488 5.498 5.498 0 0 0 .39.152A6.415 6.415 0 0 0 2.311 17a4.067 4.067 0 0 0-.234.808c-.639-.244-1.252-.699-1.78-1.183.199-.735.487-1.507.906-2.124zm2.115 1.28a4.24 4.24 0 0 0 .6.124 5.295 5.295 0 0 0 1.07.029l-.017.027a5.61 5.61 0 0 0-.47.969 6.33 6.33 0 0 0-.22.72l-.147.027a4.868 4.868 0 0 1-1.36.057 2.398 2.398 0 0 1-.408-.09v-.002a3.59 3.59 0 0 1 .37-.953 6.177 6.177 0 0 1 .458-.742l.051-.07zm1.988.111a3.836 3.836 0 0 0 1.254-.445 4.5 4.5 0 0 0-.433 1.362l-.207.147a3.93 3.93 0 0 1-.59.334c-.25.116-.51.213-.774.29l.001-.004c.07-.26.157-.517.261-.766a5.442 5.442 0 0 1 .35-.692l.138-.226zm-.442-1.478c.416.164.848.25 1.28.248-.37.267-.7.61-.98 1.005l-.219.019-.02.002a5.266 5.266 0 0 1-1.16-.06 3.296 3.296 0 0 1-.275-.059l.003-.003a5.41 5.41 0 0 1 .904-.846 5.05 5.05 0 0 1 .27-.183l.197-.123zm6.779-.434l.265.105a7.02 7.02 0 0 1 .767.366 7.438 7.438 0 0 1 1.345.96l-.012.002a11.89 11.89 0 0 1-1.511.234 9.149 9.149 0 0 1-1.136.025 13.685 13.685 0 0 1-.376-.023 4.452 4.452 0 0 0-1.269-1.151c.597-.051 1.248-.225 1.927-.518zm-8.476-.752l.008.008c.143.152.295.296.455.43a4.838 4.838 0 0 0 .876.586l.08.04-.026.016a5.146 5.146 0 0 0-.827.641 5.797 5.797 0 0 0-.498.535l-.12-.041a5.078 5.078 0 0 1-1.248-.652 2.966 2.966 0 0 1-.343-.308 3.138 3.138 0 0 1 .51-.53 5.598 5.598 0 0 1 .956-.636l.075-.039zm11.64-1.337l.243.038.041.006a12.031 12.031 0 0 1 2.693.775 5.42 5.42 0 0 1 .79.418 6.181 6.181 0 0 1 .35.241l-.01.008-.03.02a11.31 11.31 0 0 1-1.45.832 19.07 19.07 0 0 1-.933.403 17.418 17.418 0 0 1-1.949.65l-.234.06a8.164 8.164 0 0 0-.668-.557 7.158 7.158 0 0 0-1.69-.95c.141-.068.282-.14.42-.214.363-.196.715-.415 1.055-.65a14.076 14.076 0 0 0 1.373-1.08zM1.204 14.5c-.49-.57-.888-1.343-1.203-2.12.489-.621 1.092-1.24 1.76-1.626l-.006-.021c-.225-.902-.28-1.99-.25-3.064a7.56 7.56 0 0 1 .924-.382C2.955 7.112 3.501 7 4.03 7.01a7.588 7.588 0 0 0-.117.983 5.652 5.652 0 0 0-.004.465 9.97 9.97 0 0 0 .209 1.857 5.234 5.234 0 0 0-1.15.036 5.28 5.28 0 0 0-.41.076 2.963 2.963 0 0 0-.747.299l-.052.028c.064.247.141.49.242.724a3.822 3.822 0 0 0 .169.347 6.918 6.918 0 0 0 .763 1.139l.06.07a5.758 5.758 0 0 0-1.247.835c-.04.037-.08.074-.118.113a3.62 3.62 0 0 0-.425.52zm3.943-1.74c.292.4.632.726 1.01.961a3.777 3.777 0 0 0-1.306.42l-.18-.088-.025-.012-.026-.013a4.319 4.319 0 0 1-.372-.216 4.892 4.892 0 0 1-.837-.693l.02-.008a4.508 4.508 0 0 1 1.194-.315c.064-.008.128-.012.192-.017l.135-.008zm6.16-.753l.289-.051a24.873 24.873 0 0 1 .552-.09 10.107 10.107 0 0 1 2.325-.015l-.028.024c-.158.135-.318.267-.481.396a12.34 12.34 0 0 1-1.424.973 10.406 10.406 0 0 1-.643.343l-.267.129a5.27 5.27 0 0 0-1.845-.276 7 7 0 0 0 1.522-1.433zM4.03 7.01c.222-1.227.73-2.605 1.337-3.95.995.13 2.044.447 2.851 1.116.933-1.37 2.26-2.751 3.704-4.051.835 1.004 1.566 2.261 1.828 3.713 1.034-.596 2.199-1.09 3.427-1.504a30.748 30.748 0 0 1 2.483-.712c-.104 1.882-.46 3.88-1.275 5.675 1.92.04 3.855.604 5.615 1.373-1.406 1.81-2.983 3.505-4.655 4.71l-.022-.018-.022-.017a5.946 5.946 0 0 0-1.67-.968 12.458 12.458 0 0 0-2.33-.66 16.215 16.215 0 0 0-.255-.042l.036-.033a17.916 17.916 0 0 0 1.575-1.67 19.417 19.417 0 0 0 .69-.881 10.147 10.147 0 0 0 1.038-1.794h-.034l-.033-.001a9.175 9.175 0 0 0-2.318.25 18.242 18.242 0 0 0-1.957.57 16.963 16.963 0 0 0-.848.328l.014-.042a13.653 13.653 0 0 0 .618-2.92 5.992 5.992 0 0 0-.01-1.161 6.622 6.622 0 0 0-.063-.457l-.004-.026a11.63 11.63 0 0 0-1.564 1.072 20.179 20.179 0 0 0-.633.551A18.9 18.9 0 0 0 9.965 7.09l-.114.135-.008-.034a8.16 8.16 0 0 0-.734-1.916 3.36 3.36 0 0 0-.585-.816 3.736 3.736 0 0 0-.306-.282 10.233 10.233 0 0 0-.829 1.445l-.112.253a15.381 15.381 0 0 0-.74 2.09l-.028.107-.01.035-.02-.018a5.444 5.444 0 0 0-1.524-.91 2.741 2.741 0 0 0-.86-.166L4.03 7.01zm.95 5.51c-.115.006-.23.012-.344.024a4.887 4.887 0 0 0-1.405.38l-.051-.056a6.515 6.515 0 0 1-.914-1.407 4.206 4.206 0 0 1-.213-.58 2.708 2.708 0 0 1 .726-.245 5 5 0 0 1 1.398-.065l.036.14c.123.47.29.932.512 1.365a5.552 5.552 0 0 0 .255.444c-.007-.01-.02-.01-.038 0zm.298.001l-.105-.164a5.21 5.21 0 0 1-.195-.336 6.105 6.105 0 0 1-.395-.938 7.111 7.111 0 0 1-.139-.476l.016.003a4.42 4.42 0 0 1 1.28.416c.074.038.147.078.22.12l.053.033.183.113c.06.582.2 1.104.416 1.548a3.427 3.427 0 0 0-1.334-.319zm4.67-1.813l.261-.217a11.545 11.545 0 0 1 1.562-1.068 13.41 13.41 0 0 1 .896-.468l.095-.045c-.187.483-.403.954-.646 1.41-.21.394-.44.778-.704 1.138l-.05.069-.21.271a6.497 6.497 0 0 0-1.854.759c.3-.547.519-1.173.65-1.85zm-3.517.45l-.012-.228a8.2 8.2 0 0 1 .045-1.278c.04-.36.102-.719.18-1.073l.003.003a5.389 5.389 0 0 1 1.105 1.6l.112.253c-.25.636-.396 1.245-.434 1.809a3.708 3.708 0 0 0-.999-1.086zm1.684-.745l.122-.217.028-.049c.13-.233.26-.466.393-.697.155-.27.315-.536.48-.798.18-.285.369-.565.568-.837.005-.007.01-.015.017-.022v.003a9.077 9.077 0 0 1 .107 1.778 6.593 6.593 0 0 1-.05.605l-.008.057c-.017.117-.036.233-.055.35a7.054 7.054 0 0 0-1.296 1.536 4.876 4.876 0 0 0-.306-1.709zm3.418 1.3c.037-.047.072-.095.107-.143.128-.175.247-.357.36-.542a13.143 13.143 0 0 0 1.084-2.265l.25-.106.043-.017a16.26 16.26 0 0 1 2.127-.713 18.184 18.184 0 0 1 .87-.207 8.878 8.878 0 0 1 1.614-.174l-.006.015a10.09 10.09 0 0 1-1.049 1.664 18.219 18.219 0 0 1-2.206 2.405 10.255 10.255 0 0 0-2.613-.011 11.921 11.921 0 0 0-.58.094zM4.38 10.345l-.023-.109-.006-.027a9.558 9.558 0 0 1-.192-1.757 6.52 6.52 0 0 1 0-.368 6.696 6.696 0 0 1 .08-.811 2.535 2.535 0 0 1 .792.207 5.02 5.02 0 0 1 .9.502 5.523 5.523 0 0 1 .502.395 11.171 11.171 0 0 0-.207 1.156c-.039.32-.062.64-.066.96a7.632 7.632 0 0 0 .011.49 4.503 4.503 0 0 0-1.791-.638zm5.632-.025l.002-.009c.037-.24.057-.484.066-.727a9.425 9.425 0 0 0-.069-1.554 6.377 6.377 0 0 0-.086-.506l.145-.173.028-.033a17.333 17.333 0 0 1 1.477-1.537 19.86 19.86 0 0 1 .72-.637 10.638 10.638 0 0 1 1.235-.883l.028-.017.003.024a5.818 5.818 0 0 1-.015 1.483 13.361 13.361 0 0 1-.56 2.532l-.098.295a12.99 12.99 0 0 0-2.156 1.204 11.041 11.041 0 0 0-.722.548c.003-.002.004-.006.002-.01zM6.71 8.294l.042-.16a13.917 13.917 0 0 1 .52-1.589c.07-.179.142-.356.218-.532.076-.176.155-.35.24-.521.162-.322.344-.633.538-.936l.012.011a3.162 3.162 0 0 1 .61.826 7.884 7.884 0 0 1 .703 1.824l.062.252c-.196.252-.378.514-.554.78-.294.449-.567.91-.83 1.378-.092.162-.182.326-.274.489A5.595 5.595 0 0 0 6.71 8.294z"/></svg>