<svg viewBox="0 0 24 24" xmlns="http://www.w3.org/2000/svg" role="img"><path d="M11.337 23.987c-.231-.014-.746-.06-.776-.068a2.784 2.784 0 0 0-.195-.029 12.588 12.588 0 0 1-1.908-.419l-.229-.075a12.35 12.35 0 0 1-.488-.172 6.456 6.456 0 0 0-.18-.07 4.968 4.968 0 0 1-.332-.14.588.588 0 0 0-.078-.033 12.792 12.792 0 0 1-1.354-.706 1.797 1.797 0 0 0-.128-.078c-.02-.01-.09-.054-.154-.098a.966.966 0 0 0-.129-.079c-.007 0-.024-.013-.04-.03-.014-.016-.032-.03-.039-.03a8.96 8.96 0 0 1-.558-.396 18.44 18.44 0 0 1-.483-.386c-.468-.412-.452-.397-.76-.704a12.464 12.464 0 0 1-1.552-1.904 4.305 4.305 0 0 0-.069-.107 11.141 11.141 0 0 1-.622-1.096 8.98 8.98 0 0 1-.285-.608 13.186 13.186 0 0 1-.307-.777.599.599 0 0 1-.03-.094.57.57 0 0 0-.029-.09 2.342 2.342 0 0 1-.084-.255 2.212 2.212 0 0 0-.035-.12 6.573 6.573 0 0 1-.108-.383 3.26 3.26 0 0 0-.047-.173 1.513 1.513 0 0 1-.035-.15 1.006 1.006 0 0 0-.036-.147.276.276 0 0 1-.017-.082c0-.022-.013-.098-.03-.168a4.802 4.802 0 0 1-.082-.481 4.148 4.148 0 0 0-.036-.226 1.992 1.992 0 0 1-.024-.202 7.093 7.093 0 0 0-.031-.293 15.48 15.48 0 0 1-.045-1.344c.02-.622.026-.773.04-.863a7.96 7.96 0 0 0 .035-.3 7.9 7.9 0 0 1 .07-.525l.035-.21a13.21 13.21 0 0 1 .15-.713 9.651 9.651 0 0 1 .196-.706c.027-.105.124-.396.15-.453A.238.238 0 0 0 .7 7.926c0-.017.006-.034.014-.04.008-.004.022-.033.032-.064a5.703 5.703 0 0 1 .202-.514 5.42 5.42 0 0 1 .067-.157L1.083 7c.05-.11.297-.605.348-.699.02-.037.08-.143.134-.236.053-.092.096-.172.096-.176 0-.004.024-.042.053-.083a.58.58 0 0 0 .052-.083c0-.005.013-.027.028-.049a4.33 4.33 0 0 0 .152-.235 11.69 11.69 0 0 1 1.568-1.923 9 9 0 0 1 .579-.548l.135-.119c.073-.069.562-.449.864-.672l.04-.027a3.156 3.156 0 0 0 .314-.217.547.547 0 0 0 .105-.06.98.98 0 0 1 .097-.06.603.603 0 0 0 .078-.05c.039-.026.088-.057.109-.067.035-.018.06-.032.183-.109l.094-.053a20.026 20.026 0 0 1 .893-.455l.177-.078.129-.059a.422.422 0 0 1 .077-.03 9.018 9.018 0 0 1 .654-.251 18.111 18.111 0 0 1 .878-.27c.154-.036.252-.06.344-.086a.732.732 0 0 1 .12-.024.67.67 0 0 0 .105-.021c.145-.042.36-.079.954-.167.079-.012.234-.028.346-.037.111-.01.243-.023.292-.03.144-.023 1.168-.034 1.51-.017.563.03 1.197.104 1.613.19.058.012.147.028.2.036.05.008.1.019.108.024a.828.828 0 0 0 .123.03c.099.02.196.042.447.105.046.012.11.031.143.044a.378.378 0 0 0 .087.023c.025 0 .15.038.28.084l.189.06c.074.023.141.047.15.052a.224.224 0 0 0 .06.02c.055.013.195.066.25.094.022.012.049.02.06.02a.27.27 0 0 1 .076.03c.031.017.064.03.074.03a.41.41 0 0 1 .086.033c.12.055.157.07.257.111.154.063.67.314.87.423.081.044.404.225.436.244l.128.079a4.779 4.779 0 0 1 .296.187c.09.06.168.11.173.11a.13.13 0 0 1 .04.028c.017.016.089.068.159.116a12.193 12.193 0 0 1 .833.644c.346.286.86.786 1.209 1.173.188.21.514.61.702.862.078.105.333.466.333.472 0 .003.046.075.103.16.122.186.13.197.3.493a11.946 11.946 0 0 1 .77 1.565.115.115 0 0 1 .013.045c0 .01.01.036.02.057.011.022.031.069.044.106a12.798 12.798 0 0 1 .31.94l.062.21c.016.057.03.113.03.127 0 .013.009.057.021.097a8.107 8.107 0 0 1 .175.832 7.3 7.3 0 0 1 .08.563l.037.3c.009.066.02.213.026.326a.878.878 0 0 0 .023.207c.007 0 .013.283.013.63 0 .347-.006.63-.013.63-.007 0-.018.1-.024.222a5.073 5.073 0 0 1-.025.327c-.008.058-.024.193-.036.3-.035.311-.106.74-.173 1.043a10.03 10.03 0 0 1-.273 1.036l-.065.21a12.085 12.085 0 0 1-.494 1.254 13.131 13.131 0 0 1-.766 1.404c-.053.084-.318.477-.41.61a12.291 12.291 0 0 1-2.165 2.288 10.827 10.827 0 0 1-1.147.825c-.185.118-.18.114-.432.26l-.252.145c-.013.007-.07.038-.128.067a3.31 3.31 0 0 0-.128.069.432.432 0 0 1-.06.03 11.447 11.447 0 0 1-.705.33c-.011 0-.115.042-.203.083a1.302 1.302 0 0 1-.208.082.201.201 0 0 0-.06.022.638.638 0 0 1-.09.036 3.902 3.902 0 0 0-.152.054c-.058.021-.16.056-.226.077a7.54 7.54 0 0 1-.585.178 7.965 7.965 0 0 1-.353.09l-.15.036a11.885 11.885 0 0 1-1.047.19c-.092.011-.18.024-.195.028-.03.01-.49.05-.8.07a19.38 19.38 0 0 1-1.298-.001zm1.899-1.628c.111-.012.263-.026.338-.03a4.477 4.477 0 0 0 .488-.069c.179-.027.332-.054.405-.072.156-.038.282-.066.347-.078.039-.007.103-.022.143-.035l.178-.052a4.21 4.21 0 0 0 .375-.114.643.643 0 0 1 .095-.03.438.438 0 0 0 .09-.032.193.193 0 0 1 .063-.022c.012 0 .05-.014.083-.03a.378.378 0 0 1 .073-.03c.023 0 .21-.077.226-.091a.063.063 0 0 1 .036-.014.372.372 0 0 0 .09-.031l.115-.051a6.52 6.52 0 0 0 .128-.057l.105-.047a.289.289 0 0 0 .045-.024.438.438 0 0 1 .06-.03.428.428 0 0 0 .06-.029 1.76 1.76 0 0 1 .105-.055c.045-.022.136-.07.202-.105l.166-.088.105-.06a.985.985 0 0 1 .082-.049.864.864 0 0 0 .094-.06.537.537 0 0 1 .08-.05.203.203 0 0 0 .048-.027l.196-.132a9.586 9.586 0 0 0 2.12-1.927 7.38 7.38 0 0 0 .566-.773l.194-.294a.303.303 0 0 0 .035-.063c0-.005.02-.039.043-.074a2.93 2.93 0 0 0 .098-.162c.07-.125.415-.819.415-.834 0-.006.013-.04.03-.077l.06-.13a.364.364 0 0 0 .03-.085c0-.01.009-.036.02-.058a2.04 2.04 0 0 0 .093-.242 1.315 1.315 0 0 0 .074-.203c.022-.074.05-.159.062-.188a1.11 1.11 0 0 0 .035-.112 5.47 5.47 0 0 1 .045-.165 8.618 8.618 0 0 0 .097-.36 4.16 4.16 0 0 0 .07-.331c.01-.05.026-.127.037-.173a1.9 1.9 0 0 0 .029-.165c.005-.045.019-.14.03-.21.012-.07.03-.202.039-.293a26 26 0 0 1 .032-.3c.02-.175.02-1.398 0-1.584a15.22 15.22 0 0 0-.065-.548l-.036-.251a1.287 1.287 0 0 0-.028-.16.874.874 0 0 1-.025-.123 2.025 2.025 0 0 0-.036-.186 7.385 7.385 0 0 1-.054-.226 5.001 5.001 0 0 0-.114-.427 5.401 5.401 0 0 0-.112-.354.573.573 0 0 1-.028-.09.55.55 0 0 0-.03-.09L21.5 9.29c-.049-.127-.117-.29-.206-.496a13.538 13.538 0 0 0-.467-.902l-.084-.143a2.992 2.992 0 0 0-.077-.126l-.124-.187a7.704 7.704 0 0 0-.26-.375 10.133 10.133 0 0 0-.597-.735 11.858 11.858 0 0 0-.947-.924c-.06-.052-.47-.377-.518-.409a20.09 20.09 0 0 0-.684-.458 9.52 9.52 0 0 0-1.208-.626 6.562 6.562 0 0 1-.16-.07.343.343 0 0 0-.082-.03.112.112 0 0 1-.05-.022.108.108 0 0 0-.05-.022.243.243 0 0 1-.068-.022 2.225 2.225 0 0 0-.25-.091 7.144 7.144 0 0 1-.27-.09 6.107 6.107 0 0 0-.391-.111 5.27 5.27 0 0 1-.195-.054 1.533 1.533 0 0 0-.158-.036 1.384 1.384 0 0 1-.16-.037c-.038-.012-.074-.018-.079-.013-.014.014-.01.034.006.034.008 0 .05.025.094.056.246.173.427.35.61.595.065.088.242.413.242.446 0 .009.01.038.023.064.033.071.063.19.106.423.034.187.037.238.032.473-.006.243-.044.56-.084.705l-.047.18c-.018.07-.041.152-.052.18a2.86 2.86 0 0 0-.09.284c-.037.142-.065.14-.206-.008l-.162-.169a5.086 5.086 0 0 1-.15-.166c-.333-.384-.69-.719-.968-.91a4.89 4.89 0 0 0-.638-.377 9.028 9.028 0 0 0-.308-.14 2.792 2.792 0 0 0-.233-.083l-.135-.042a10.287 10.287 0 0 0-.18-.055 5.976 5.976 0 0 1-.623-.217 4.574 4.574 0 0 1-.483-.248c-.005 0-.07-.046-.145-.103a1.636 1.636 0 0 1-.602-.833c-.01-.043-.012-.043-.087-.033a.448.448 0 0 0-.104.024.765.765 0 0 1-.129.036 2.01 2.01 0 0 0-.306.083.38.38 0 0 1-.083.024.456.456 0 0 0-.096.03.432.432 0 0 1-.093.028.438.438 0 0 0-.097.032.205.205 0 0 1-.065.022.316.316 0 0 0-.082.03.332.332 0 0 1-.083.03.335.335 0 0 0-.083.03.35.35 0 0 1-.076.03c-.016 0-.106.035-.209.081l-.142.062c-.191.081-.608.28-.706.337l-.263.15c-.282.162-.278.159-.37.222a4.163 4.163 0 0 0-.375.25 12.711 12.711 0 0 0-.712.548l-.18.158c-.194.169-.662.645-.864.879-.209.243-.358.433-.588.75-.084.116-.368.553-.403.619a10.876 10.876 0 0 0-.59 1.168 1.86 1.86 0 0 1-.062.138.178.178 0 0 0-.022.06c0 .01-.01.039-.022.062a.638.638 0 0 0-.037.09 3.865 3.865 0 0 1-.053.153 7.174 7.174 0 0 0-.143.428c-.018.062-.043.14-.054.173-.011.033-.027.09-.034.127a9.53 9.53 0 0 0-.214 1.006 5.592 5.592 0 0 1-.037.233 3.809 3.809 0 0 0-.036.307 25.16 25.16 0 0 1-.032.367c-.02.215-.01 1.24.015 1.443l.04.337a5.185 5.185 0 0 0 .11.713c.026.139.048.248.07.33l.051.203c.061.243.112.417.168.578l.036.113c.034.113.069.208.143.39l.067.172a3.5 3.5 0 0 0 .093.219l.06.135a11.257 11.257 0 0 0 .424.823c.015.034.094.16.153.246a10.036 10.036 0 0 0 .61.875c.25.334.762.877 1.174 1.246.162.144.633.524.735.593.019.012.072.05.119.083.148.107.242.172.248.172.003 0 .06.036.126.079a7.113 7.113 0 0 0 .536.319c.148.086.79.398.82.398a.19.19 0 0 1 .056.021 4.267 4.267 0 0 0 .573.224c.02.01.098.038.173.06l.195.063a23.556 23.556 0 0 0 .57.157c.042.01.125.028.185.039.06.01.114.023.121.028.013.008.204.04.407.07l.226.037c.07.012.225.028.345.037.12.008.228.02.24.025.032.013.645.028.976.023.153-.002.369-.014.48-.025zm-.72-.808a3.656 3.656 0 0 0-.309-.025 6.237 6.237 0 0 1-.427-.038 4.525 4.525 0 0 0-.233-.03 1.19 1.19 0 0 1-.158-.025c-.029-.008-.1-.02-.157-.029a3.159 3.159 0 0 1-.21-.038l-.24-.053a6.43 6.43 0 0 1-.609-.164 10.74 10.74 0 0 1-.669-.228 1.798 1.798 0 0 0-.119-.049 3.985 3.985 0 0 1-.33-.143 13.426 13.426 0 0 1-.732-.373 2.688 2.688 0 0 1-.17-.101.55.55 0 0 0-.087-.051.509.509 0 0 1-.083-.053.473.473 0 0 0-.083-.052.913.913 0 0 1-.119-.08 8.342 8.342 0 0 1-.693-.525c-.46-.4-1.037-1.07-1.42-1.655a6.07 6.07 0 0 1-.304-.487.74.74 0 0 1-.037-.059l-.052-.09a11.105 11.105 0 0 1-.59-1.24.56.56 0 0 1-.03-.09.272.272 0 0 0-.031-.075.122.122 0 0 1-.02-.057.321.321 0 0 0-.029-.09.685.685 0 0 1-.039-.113.44.44 0 0 0-.031-.09.192.192 0 0 1-.021-.07.182.182 0 0 0-.02-.07.423.423 0 0 1-.032-.097.555.555 0 0 0-.031-.104.542.542 0 0 1-.03-.113.451.451 0 0 0-.032-.108.2.2 0 0 1-.02-.074c0-.019-.013-.089-.03-.155a4.4 4.4 0 0 1-.084-.398 4.34 4.34 0 0 0-.036-.195 2.655 2.655 0 0 1-.03-.215 2.31 2.31 0 0 0-.03-.21c-.036-.158-.072-.968-.058-1.31a10.6 10.6 0 0 1 .064-.846c.004-.007.018-.09.03-.183.038-.28.093-.561.145-.734a.704.704 0 0 0 .029-.132.2.2 0 0 1 .02-.076.426.426 0 0 0 .03-.1.611.611 0 0 1 .032-.113 4.92 4.92 0 0 0 .066-.195c.056-.177.087-.264.115-.325a.238.238 0 0 0 .022-.068.11.11 0 0 1 .022-.05.111.111 0 0 0 .022-.05.4.4 0 0 1 .032-.09l.06-.13c.035-.08.27-.552.3-.605.044-.08.232-.363.342-.517.147-.206.345-.431.617-.702.153-.153.306-.302.339-.331a8.8 8.8 0 0 1 .529-.41c.212-.148.208-.145.477-.299l.202-.116.105-.052a4.386 4.386 0 0 1 .735-.291c.24-.067.372-.081.657-.073.395.012.683.053.924.132a.636.636 0 0 0 .113.03c.014 0 .039.01.055.022a.11.11 0 0 0 .053.022c.013 0 .047.012.076.028a.64.64 0 0 0 .087.039c.044.014.302.162.4.23.25.173.364.276.892.799.374.37.603.57.77.668.205.121.386.217.407.217a.28.28 0 0 1 .06.022c.217.1.44.142.806.153.312.009.423 0 .586-.046.119-.034.237-.09.375-.181a2.74 2.74 0 0 1 .215-.128c.074-.04.1-.022.1.07 0 .074-.05.284-.083.347a.195.195 0 0 0-.022.058c0 .052-.148.326-.26.483-.143.197-.266.289-.558.416a2.397 2.397 0 0 1-.696.127 3.16 3.16 0 0 1-.85-.147 6.983 6.983 0 0 1-.863-.393 7.823 7.823 0 0 0-.436-.243 4.115 4.115 0 0 0-.12-.069l-.165-.093a4.197 4.197 0 0 0-.143-.078l-.187-.094a3.484 3.484 0 0 0-.69-.289c-.352-.096-.612-.118-.87-.072a1.928 1.928 0 0 0-.377.105l-.12.06a2.25 2.25 0 0 0-.444.3c-.158.13-.569.57-.652.698a6.81 6.81 0 0 0-.372.54 7.165 7.165 0 0 0-.53 1.054 4.51 4.51 0 0 0-.082.24c-.038.119-.076.236-.085.26a1.314 1.314 0 0 0-.034.137.631.631 0 0 1-.028.108.507.507 0 0 0-.026.104 4.549 4.549 0 0 1-.037.184 4.504 4.504 0 0 0-.083.524 3.506 3.506 0 0 1-.033.257c-.026.14-.026 1.426 0 1.564.011.055.026.17.034.255.008.085.024.213.036.283a7.369 7.369 0 0 0 .188.893c.039.142.176.56.195.594.007.013.032.07.054.128.035.09.134.31.172.382l.114.225c.087.174.153.292.314.563.09.153.123.204.186.297l.122.182a2.811 2.811 0 0 0 .383.483 7.06 7.06 0 0 0 1.274 1.102c.004 0 .077.046.162.103a4.061 4.061 0 0 0 .399.237 7.967 7.967 0 0 0 .854.395.7.7 0 0 1 .095.032c.148.057.187.07.294.102l.187.055c.092.028.214.058.36.089.054.011.145.03.203.044.058.013.127.023.153.024.026 0 .09.01.143.021.114.026.61.061.86.061.239 0 .728-.034.84-.06.05-.01.137-.024.194-.03a.908.908 0 0 0 .164-.031.363.363 0 0 1 .091-.021c.018 0 .08-.014.137-.031l.21-.062a8.637 8.637 0 0 0 .496-.166l.15-.06a1.93 1.93 0 0 0 .118-.05.21.21 0 0 1 .057-.022 5.676 5.676 0 0 0 .546-.263 4.408 4.408 0 0 0 .42-.247c.01 0 .13-.077.143-.09a.993.993 0 0 1 .09-.063c.045-.03.11-.075.142-.1.078-.06.11-.085.166-.126.297-.222.865-.792 1.053-1.058.04-.057.134-.182.252-.337a.484.484 0 0 0 .053-.079.6.6 0 0 1 .05-.08 1.63 1.63 0 0 0 .08-.122 2.17 2.17 0 0 1 .1-.164c.023-.036.048-.08.057-.098a6.387 6.387 0 0 0 .195-.37c.05-.104.098-.2.106-.215a8.18 8.18 0 0 0 .24-.569.409.409 0 0 0 .028-.093c0-.012.01-.041.022-.064.03-.06.101-.285.135-.426.01-.045.03-.116.042-.157.034-.113.058-.213.08-.335a.867.867 0 0 1 .028-.122c.009-.014.048-.26.07-.437l.039-.315c.032-.25.036-1.095.006-1.276a4.663 4.663 0 0 1-.032-.257 5.314 5.314 0 0 0-.13-.719 4.477 4.477 0 0 1-.036-.15 1.392 1.392 0 0 0-.035-.127 7.705 7.705 0 0 1-.055-.173 5.617 5.617 0 0 0-.18-.494l-.075-.16c-.341-.718-.896-1.31-1.5-1.6a2.186 2.186 0 0 0-.451-.17 2.803 2.803 0 0 1-.15-.04c-.104-.031-.701-.028-.811.004a1.324 1.324 0 0 1-.15.034 1.71 1.71 0 0 0-.308.088c-.194.064-.34.13-.678.311-.133.071-.147.062-.133-.093a.49.49 0 0 1 .032-.153.115.115 0 0 0 .02-.049c0-.027.055-.11.178-.27.245-.32.487-.511.849-.671a3.833 3.833 0 0 1 1.016-.25 3.47 3.47 0 0 1 .615 0c.498.068.78.136 1.015.242a.365.365 0 0 0 .077.028 5.04 5.04 0 0 1 .53.273c.114.056.461.337.645.522.346.347.521.611.804 1.21.037.08.067.148.067.154 0 .006.014.038.03.07.016.034.03.067.03.075 0 .013.038.117.076.21a6.184 6.184 0 0 1 .292 1.216c.04.241.071.766.063 1.073-.008.289-.048.847-.062.869a1.028 1.028 0 0 0-.023.138 7.43 7.43 0 0 1-.098.548 9.15 9.15 0 0 1-.175.672 15.184 15.184 0 0 1-.293.844.777.777 0 0 1-.043.1.178.178 0 0 0-.022.056c0 .009-.028.075-.062.147l-.092.2c-.128.285-.422.837-.56 1.051l-.086.135a8.373 8.373 0 0 1-1.767 2.05l-.112.099a5.838 5.838 0 0 1-.534.41.512.512 0 0 1-.078.052 1.73 1.73 0 0 0-.142.088c-.176.114-.186.12-.238.146-.025.012-.092.05-.15.082a6.742 6.742 0 0 1-1.216.52c-.36.117-.392.126-.415.126a.816.816 0 0 0-.12.028 2.73 2.73 0 0 1-.186.047 7.401 7.401 0 0 1-.561.099 1.702 1.702 0 0 0-.183.03c-.044.027-1.356.086-1.38.062z"/></svg>