<svg viewBox="0 0 24 24" xmlns="http://www.w3.org/2000/svg" role="img"><path d="M1.766 23.58v-.418h.965c1.1 0 1.154-.012 1.275-.258.06-.124.062-.15.017-.275-.092-.26-.156-.282-.895-.303-.61-.016-.661-.023-.848-.11a1.352 1.352 0 0 1-.613-.613c-.08-.17-.093-.243-.093-.528 0-.286.013-.358.093-.529.119-.253.36-.495.613-.613l.199-.093 1.104-.01 1.104-.011v.838h-.965c-1.1 0-1.155.012-1.275.258-.06.124-.062.15-.018.275.092.26.157.282.895.303.611.016.662.023.848.11.253.118.495.36.614.613.08.17.093.243.093.528 0 .286-.013.358-.093.529a1.355 1.355 0 0 1-.614.613l-.198.093-1.104.01L1.766 24zm3.547-1.67v-2.087h.835v1.669h1.67v-1.669h.834v4.173h-.834v-1.669h-1.67v1.669h-.835zm3.937 1.746c.715-1.321 2.101-3.83 2.115-3.83.015 0 1.4 2.509 2.116 3.83l.185.342-.529-.01-.529-.01-.613-1.12c-.337-.616-.62-1.12-.63-1.12-.01 0-.293.504-.63 1.12l-.613 1.12-.528.01-.53.01zm1.83.27a.598.598 0 0 1-.332-.516.595.595 0 0 1 .574-.657.6.6 0 0 1 .662.559c.04.495-.47.842-.904.613zm2.998-1.6v-1.669h-1.252v-.834h3.34v.834h-1.254v3.34h-.835zm2.504-.417v-2.086h2.713v.834h-1.878v.835h1.67v.835h-1.67v.835h1.878v.834h-2.713zm3.13 0v-2.086h.836v3.339h1.878v.834h-2.713zM1.825 18.471A6316.145 6316.145 0 0 1 11.99 0c.013 0 9.184 16.66 10.168 18.47l.168.31-2.337-.01-2.337-.008-2.822-5.138c-1.552-2.826-2.83-5.137-2.84-5.137-.01 0-1.287 2.311-2.84 5.137l-2.82 5.138-2.337.009-2.337.009zm9.606.258a2.783 2.783 0 0 1-1.44-.798c-.269-.271-.34-.37-.496-.682-.253-.508-.301-.716-.301-1.287 0-.57.048-.778.3-1.287.16-.32.224-.407.514-.697.29-.29.378-.355.697-.514.51-.252.717-.301 1.287-.301.571 0 .778.049 1.287.301.32.159.407.224.698.514.29.29.355.378.513.697.253.509.301.716.301 1.287 0 .57-.048.778-.301 1.287-.158.319-.223.407-.513.697-.29.29-.379.355-.698.513-.2.1-.459.206-.574.237-.288.076-.983.094-1.274.033z"/></svg>