<svg role="img" viewBox="0 0 24 24" xmlns="http://www.w3.org/2000/svg"><path d="M4.985 21.411c-.462-.802-.838-1.46-.835-1.462l3.927-2.267 3.92-2.262 3.922 2.262 3.927 2.267c.003.002-.373.66-.836 1.462l-.841 1.458-.088-.051c-4.046-2.342-6.04-3.484-6.083-3.484-.043 0-2.048 1.149-6.084 3.484l-.088.05zm-2.13-2.678l-.832-.482.005-.986.005-.985 4.128-2.384 4.129-2.383.01-4.78.01-4.78.844-.41.843-.412.844.41.844.412.011 4.78.01 4.78 4.129 2.383 4.128 2.384.006.988.006.988-.833.475c-.459.262-.853.475-.876.474-.023 0-1.889-1.068-4.146-2.372a651.525 651.525 0 0 0-4.121-2.37c-.01 0-1.864 1.066-4.121 2.37-2.257 1.303-4.123 2.372-4.146 2.375-.025.003-.393-.197-.875-.475zM.847 14.245A69.098 69.098 0 0 1 0 12.755c.001-.01 1.395-.823 3.097-1.806l3.096-1.787.005-3.6.005-3.6h3.438v4.59l-.001 4.59-3.965 2.286A1144.14 1144.14 0 0 1 1.7 15.715c-.005 0-.39-.662-.855-1.47zm17.472-.817l-3.963-2.287v-4.59l-.001-4.59h3.439l.004 3.6.005 3.601 3.099 1.789c1.704.983 3.099 1.795 3.099 1.803 0 .022-1.696 2.96-1.709 2.96-.006 0-1.794-1.029-3.974-2.286z"/></svg>