<svg viewBox="0 0 24 24" xmlns="http://www.w3.org/2000/svg" role="img"><path d="M12 7.77A12 4.23 0 0 0 0 12a12 4.23 0 0 0 12 4.23A12 4.23 0 0 0 24 12a12 4.23 0 0 0-12-4.23zm3.304 2.387v3.112c0 .102.037.124.136.124h1.01c.119 0 .147-.027.146-.141l-.01-.922.805-.671v1.692c0 .233-.077.298-.328.298h-2.187c-.478 0-.464.018-.464-.44v-2.16zm-7.149.205v2.573l-.846.69-.017-2.452zm5.785 0v2.573l-.846.69-.018-2.452zm-10.335.11-.002 2.158-.002.318c.003.27.372.525.69.225l2.625-2.47a.121.121 0 0 1 .088-.035c.087.003.155.11.05.208L4.24 13.518c-.693.648-1.515.286-1.515-.729l-.01-1.4zm8.176 0c.457.005.83.392.777 1.047l-.88.69v-.846c-.003-.27-.372-.524-.69-.224l-2.625 2.469c-.111.104-.277-.042-.138-.173l2.814-2.642c.238-.222.502-.324.742-.321zm-6.958.173a.553.553 0 0 1 .553.553.553.553 0 0 1-.553.552.553.553 0 0 1-.552-.552.553.553 0 0 1 .552-.553zm15.564.744c.402.004.888.248.89.665l.008 1.165c.002.344-.358.354-.55.354H17.72c-.283.005-.293-.351-.013-.345h2.526c.176 0 .148.037.146-.147v-.75c0-.355-.506-.4-.69-.243l-1.168 1.006c-.08.081-.268.024-.18-.108.279-.277 1.318-1.302 1.693-1.52a.698.698 0 0 1 .352-.077zM10.78 12.62a.553.553 0 0 1 .552.553.553.553 0 0 1-.552.552.553.553 0 0 1-.553-.552.553.553 0 0 1 .553-.553zm1.243 0a.553.553 0 0 1 .553.553.553.553 0 0 1-.553.552.553.553 0 0 1-.552-.552.553.553 0 0 1 .552-.553z"/></svg>