<svg role="img" viewBox="0 0 24 24" xmlns="http://www.w3.org/2000/svg"><path clip-rule="evenodd" d="M4.71 8.256a.605.605 0 0 0-.606.603c-.002 1.464-.002 2.928 0 4.392 0 .315.26.576.575.591a.607.607 0 0 0 .639-.623c.003-.721 0-1.443 0-2.164 0-.725.003-1.45 0-2.175a.607.607 0 0 0-.608-.624zM1.7 10.184a6.099 6.099 0 0 0-.563.025.584.584 0 0 0-.527.638c.028.33.285.565.621.567.205.001.409-.002.613 0a.565.565 0 0 1 .503.297.601.601 0 0 1-.51.912c-.391.008-.782 0-1.173.004a.846.846 0 0 0-.239.03.602.602 0 0 0-.418.674.609.609 0 0 0 .597.512c.365.006 1.099.017 1.435-.02a1.803 1.803 0 0 0 1.604-1.686A1.816 1.816 0 0 0 2.26 10.25a2.468 2.468 0 0 0-.56-.066zm19.227.01c-.026 0-.052.004-.09.008.104.182.198.354.3.521.037.06.034.104 0 .163-.102.167-.198.338-.307.526h.1c.426 0 .851-.004 1.277.003.385.007.66.392.556.764-.078.28-.309.446-.626.446h-4.33l-2.882.001a.645.645 0 0 1-.431-.139c-.16-.13-.219-.304-.225-.502a.563.563 0 0 0-.19-.41.58.58 0 0 0-.658-.111.578.578 0 0 0-.363.547c-.01.283-.175.512-.43.588-.386.115-.781-.15-.794-.614A.595.595 0 0 0 11 11.46c-.244.103-.362.297-.375.561-.022.436-.412.708-.812.571-.256-.087-.401-.314-.408-.637-.016-.826-.644-1.585-1.46-1.715a5.099 5.099 0 0 0-1.02-.035.593.593 0 0 0-.559.624.615.615 0 0 0 .628.586c.2.001.401-.002.602 0a.566.566 0 0 1 .458.221c.153.194.184.41.082.634a.57.57 0 0 1-.542.355c-.39.005-.781 0-1.172.003a.849.849 0 0 0-.229.028.6.6 0 0 0-.426.657.602.602 0 0 0 .598.53c.42.004.838.005 1.257 0 .226-.002.45-.04.655-.14.184-.09.359-.2.542-.304.662.576 1.673.618 2.417-.015.348.302.754.46 1.215.46.46 0 .864-.163 1.215-.463.405.357.878.469 1.401.467 2.323-.008 4.646-.003 6.97-.004.126 0 .253-.006.378-.019.852-.09 1.561-.861 1.584-1.72.03-1.072-.775-1.905-1.847-1.91-.408-.003-.816-.001-1.225 0zm-10.915 0a.617.617 0 0 0-.605.607.613.613 0 0 0 .607.613.615.615 0 0 0 .61-.61.617.617 0 0 0-.612-.61zm5.21 1.65v.523h.205v-.524zm.313 0v.523h.205v-.524zm.288 0v.523h.205v-.524zm.289 0v.523h.204v-.524zm.29 0v.523h.204v-.524zm.288 0v.523h.204v-.524zm.288 0v.523h.205v-.524zm.312 0v.523h.205v-.524zm.288 0v.523h.205v-.524zm.289 0v.523h.204v-.524zm.29 0v.523h.204v-.524zm.288 0v.523h.205v-.524zm.288 0v.523h.205v-.524zm.313 0v.523h.204v-.524zm.288 0v.523h.205v-.524zm.288 0v.523h.205v-.524zm.307 0v.523h.204v-.524zm.288 0v.523h.205v-.524zm.288 0v.523h.205v-.524zm.434 0v.523h.668v-.524zm-9.068 2.393a.627.627 0 0 0-.166.02.605.605 0 0 0-.472.585.611.611 0 0 0 .47.6c.313.075.542-.07.752-.483.097.346.358.53.685.491a.612.612 0 0 0 .525-.585.616.616 0 0 0-.493-.614c-.32-.064-.583.112-.721.48-.17-.33-.35-.487-.58-.494zm-3.535.083a.11.11 0 0 0-.08.032.105.105 0 0 0-.033.078.11.11 0 0 0 .033.08.11.11 0 0 0 .08.033.11.11 0 0 0 .08-.032.11.11 0 0 0 .034-.081.11.11 0 0 0-.113-.11zm-4.916.117a.094.094 0 0 0-.07.028.095.095 0 0 0-.028.069c0 .028.009.051.028.07a.097.097 0 0 0 .07.027.096.096 0 0 0 .069-.166.093.093 0 0 0-.069-.028zm-1.188.059-.51.179.024.19.248.262c.01.01.013.02.01.03-.003.012-.013.017-.03.017h-1a.053.053 0 0 1-.033-.012.331.331 0 0 1-.029-.025l-.426-.48-.157.16a.098.098 0 0 1 .019.018.2.2 0 0 0 .022.022l-.053.066a.517.517 0 0 0-.052.094.313.313 0 0 0-.025.128c0 .033.007.065.022.097.015.031.036.06.063.085a.315.315 0 0 0 .217.084.257.257 0 0 0 .215-.095c.021.021.044.04.067.057.024.017.05.025.078.025h1.15c.06 0 .111-.015.153-.045.02.02.043.032.066.037.024.005.05.008.078.008h.224a.17.17 0 0 0 .084-.023.134.134 0 0 0 .079.023h.245a.301.301 0 0 0 .083-.01.152.152 0 0 0 .056-.03.2.2 0 0 0 .075.04.282.282 0 0 0 .17.002.2.2 0 0 0 .076-.04c.017.017.04.03.07.04a.35.35 0 0 0 .094.012.21.21 0 0 0 .168-.07.267.267 0 0 0 .06-.18v-.228h-.225v.219c0 .024-.014.036-.04.036a.046.046 0 0 1-.03-.01c-.008-.005-.012-.014-.012-.026v-.219h-.225v.219c0 .012-.004.02-.011.027a.047.047 0 0 1-.03.009.05.05 0 0 1-.027-.01.03.03 0 0 1-.014-.026v-.219h-.225v.183c0 .038-.018.057-.053.057h-.13c-.016 0-.027-.005-.033-.016a.098.098 0 0 1-.008-.041v-.183h-.225v.183a.096.096 0 0 1-.008.042c-.005.01-.017.015-.036.015h-.122a.06.06 0 0 1-.038-.01 76.04 76.04 0 0 1-.17-.18l-.08-.087-.075-.083.25-.098zm2.909.079v.823h.226v-.823zm1.398 0v.596c0 .07.019.124.056.165a.196.196 0 0 0 .153.062h.956a.17.17 0 0 0 .083-.023.134.134 0 0 0 .08.023h.557c.076 0 .129-.021.16-.063.03-.041.045-.1.045-.175v-.212a.34.34 0 0 0-.072-.207.276.276 0 0 0-.084-.073.227.227 0 0 0-.113-.028.344.344 0 0 0-.11.018.289.289 0 0 0-.095.053.254.254 0 0 0-.09.205c0 .052.008.093.026.123s.043.053.076.068a.361.361 0 0 0 .116.03c.045.005.094.008.15.008a.036.036 0 0 1-.007.021c-.004.005-.01.008-.019.008H7.94c-.016 0-.027-.005-.033-.016a.098.098 0 0 1-.008-.041v-.183h-.225v.183a.096.096 0 0 1-.008.043c-.006.01-.017.014-.036.014h-.814c-.034 0-.05-.019-.05-.057v-.542zm1.191.024a.11.11 0 0 0-.08.032.105.105 0 0 0-.033.078.11.11 0 0 0 .033.08.11.11 0 0 0 .08.034.11.11 0 0 0 .08-.033.11.11 0 0 0 .033-.08.106.106 0 0 0-.032-.079.11.11 0 0 0-.08-.032zm-4.423.032a.095.095 0 0 0-.069.027.091.091 0 0 0-.028.068c0 .026.01.049.028.068a.097.097 0 0 0 .138 0c.02-.02.03-.042.03-.068a.09.09 0 0 0-.03-.068.099.099 0 0 0-.069-.027zm.225 0a.095.095 0 0 0-.069.027.091.091 0 0 0-.028.068c0 .026.01.049.028.068.019.02.042.029.07.029.026 0 .048-.01.067-.029a.093.093 0 0 0 .03-.068.088.088 0 0 0-.03-.068.096.096 0 0 0-.068-.027zm1.076.08a.111.111 0 0 0-.08.19.11.11 0 0 0 .08.033.11.11 0 0 0 .08-.032.11.11 0 0 0 .034-.08.105.105 0 0 0-.033-.079.11.11 0 0 0-.08-.032zm1.56.092a.272.272 0 0 0-.117.024.245.245 0 0 0-.086.066.302.302 0 0 0-.055.102.43.43 0 0 0-.018.132.237.237 0 0 0 .096.206.29.29 0 0 0 .102.047c.038.01.08.016.122.018a.137.137 0 0 1-.074.067.291.291 0 0 1-.099.017h-.147l.03.221h.135c.05 0 .097-.01.14-.03a.365.365 0 0 0 .184-.189.337.337 0 0 0 .026-.13v-.21c0-.119-.021-.205-.064-.26a.212.212 0 0 0-.175-.08zm2.162.034c.032 0 .057.01.075.032a.12.12 0 0 1 .028.079l-.113-.009a.13.13 0 0 1-.048-.013c-.012-.006-.018-.019-.018-.038 0-.013.007-.025.02-.035a.088.088 0 0 1 .056-.016zm-3.544.097v.403a.105.105 0 0 1-.035.084.142.142 0 0 1-.095.03H4.55a.106.106 0 0 1-.081-.035.113.113 0 0 1-.032-.08v-.291H4.21v.294c0 .045.007.088.02.129a.318.318 0 0 0 .06.107.29.29 0 0 0 .226.1h.194a.279.279 0 0 0 .281-.197.399.399 0 0 0 .02-.126v-.418zm.749 0v.432a.124.124 0 0 1-.012.06.094.094 0 0 1-.033.036.13.13 0 0 1-.047.018.283.283 0 0 1-.053.005h-.079l.032.222h.082c.053 0 .1-.009.141-.026a.288.288 0 0 0 .105-.072.327.327 0 0 0 .066-.11.41.41 0 0 0 .023-.14v-.425zm-5.018.05.036.04a.2.2 0 0 1 .043.05.09.09 0 0 1 .01.04c0 .02-.007.036-.02.051-.014.015-.035.022-.062.022-.029 0-.05-.008-.065-.026a.09.09 0 0 1-.022-.059c0-.01.003-.02.008-.033a.175.175 0 0 1 .034-.046zm5.633.014a.06.06 0 0 1 .042.02c.014.012.02.033.02.061v.095h-.016c-.039 0-.066-.008-.083-.025-.016-.017-.024-.041-.024-.073a.1.1 0 0 1 .013-.054c.009-.016.025-.023.048-.023zm-3.551.523a.11.11 0 0 0-.08.033.11.11 0 0 0-.033.08c0 .03.01.056.033.078a.11.11 0 0 0 .08.032.11.11 0 0 0 .08-.032.106.106 0 0 0 .033-.078.11.11 0 0 0-.032-.08.11.11 0 0 0-.081-.033z" image-rendering="optimizeQuality" shape-rendering="geometricPrecision" text-rendering="geometricPrecision"/></svg>