<svg role="img" viewBox="0 0 24 24" xmlns="http://www.w3.org/2000/svg"><path d="M9.28 23.788c-1.2-.399-1.807-.793-1.807-1.174 0-.028.366-.051.813-.052 1.934-.003 2.975-.585 6.933-3.875.78-.65 1.73-1.392 2.111-1.65.675-.459 1.631-.86 2.046-.86.341.002.966.448 1.165.832.25.485.246.494-.22.494-.225 0-.618.087-.874.194-.66.275-2.316 1.635-3.66 3.003-2.893 2.947-4.558 3.737-6.507 3.088zm-3.75-2.06c-1.054-.577-1.432-1.516-1.429-3.554.002-1.453.255-2.887.775-4.398.169-.492.308-.993.308-1.114 0-.31-.38-.28-1.06.081-.716.382-.911.389-.802.03.045-.149.171-.372.28-.496.322-.37 2.24-1.928 2.631-2.14.2-.107.57-.505.821-.884 1.37-2.065 3.423-3.585 5.398-3.997 1.565-.326 2.525.142 3.15 1.535.303.676.329.84.284 1.857-.043.988-.099 1.217-.49 2.008-.817 1.654-2.292 2.796-3.796 2.941-.736.071-1.278-.048-3.812-.836-.722-.225-1.415-.381-1.54-.349-.315.083-.437.352-.772 1.698-.692 2.78-.074 4.88 1.524 5.179 1.109.207 3.2-.53 4.862-1.715 2.917-2.078 4.69-3.068 5.673-3.17.595-.06.654-.04 1.127.387.274.248.499.518.499.6 0 .091-.245.18-.62.224-1.068.126-1.326.295-6.279 4.099-.715.549-1.757 1.202-2.485 1.558-1.234.602-1.276.613-2.532.653-1.097.035-1.34.007-1.715-.198zm8.677-10.688c.678-.474.938-1.945.509-2.876-.45-.975-1.289-1.432-2.604-1.418-1.452.016-3.018.826-4.056 2.098-.723.886-.69.965.501 1.192.564.108 1.621.39 2.35.626 1.66.54 1.68.544 2.413.561.385.01.708-.058.887-.183zM10.14 5.326c-.076-.231-.356-.683-.621-1.005-.811-.98-.796-1.222.189-2.977.785-1.399.965-1.585 1.07-1.108.04.186.316.661.613 1.057.596.797.764 1.372.56 1.913-.193.512-.862 1.597-1.298 2.104l-.374.435z"/></svg>