<svg role="img" viewBox="0 0 24 24" xmlns="http://www.w3.org/2000/svg"><path d="M6.804 16.754c-.411-.074-.886-.285-1.134-.503a1.645 1.645 0 0 1-.312-.429c-.121-.247-.134-.321-.13-.756.005-.545.126-1.001.273-1.029.069-.013.085.02.086.169.005.884 1.252 1.415 2.966 1.264.558-.049 1.016-.132 2.725-.495 1.098-.233 1.942-.336 2.545-.309.273.012.507.034.522.05.015.014-.174.329-.42.698l-.447.671-.524-.022c-.61-.025-1.157.041-1.98.238-2.108.507-3.214.627-4.17.453zm9.034-1.537c-.296-.137-.508-.483-.506-.822.002-.228.161-.531.36-.683.233-.178.647-.219.917-.09.563.267.65 1.085.155 1.485-.152.123-.232.15-.482.162-.185.01-.355-.01-.444-.052zM.006 14.324c.014-.043.118-.322.232-.62l.208-.542.256-.053c.583-.12 1.543-.758 1.498-.994-.014-.075-.078-.093-.402-.116-.458-.032-.535-.061-.628-.242-.142-.274-.094-.576.178-1.102.418-.81.799-1.079 1.272-.898a.9.9 0 0 1 .51.55c.064.182.131.15.266-.128.063-.13.095-.352.117-.806.023-.457.054-.673.117-.796.226-.448.82-1.395.854-1.362.054.054-.089 1.833-.178 2.218-.144.622-.72 1.674-1.128 2.06-.082.077-.15.17-.15.204 0 .243-.619 1.326-1.008 1.763-.433.486-1.167.86-1.806.921-.2.02-.23.011-.208-.057zm5.497-.474c-.063-.164.307-.757.712-1.142.587-.557.523-.665-.412-.695a5.468 5.468 0 0 0-1.086.063c-.86.14-.816.137-.85.047-.045-.115.633-1.46.937-1.86.31-.408.784-.842 1.174-1.072.645-.382 1.571-.644 2.129-.604.253.018.309.04.429.175.135.152.137.163.137.75 0 .942.097 1.286.466 1.655.709.71 2.49 1.002 4.359.713 1.562-.242 2.798-.708 4.846-1.83.992-.543 1.214-.607 1.356-.39.082.126.082.145-.005.477-.167.64-.1 1.122.175 1.264a.89.89 0 0 0 .157.07c.011 0 .077-.18.146-.401l.125-.402.688-.673c1.076-1.051 1.667-1.395 2.346-1.361.328.016.366.03.491.17.172.192.215.464.144.905-.115.713-.482 1.375-1.077 1.94-.42.4-.656.567-1.143.812-.602.303-.986.416-1.507.445-.56.03-.795-.038-1.069-.312-.267-.267-.348-.596-.272-1.106.061-.41.048-.5-.076-.5-.04 0-.392.193-.781.428-.937.564-1.431.826-2.144 1.136-2.284.996-4.85 1.267-6.349.673-1.082-.429-1.501-1.13-1.503-2.513 0-.424-.007-.453-.14-.603l-.142-.157-.595.003c-.537.003-.632.017-.988.148-.423.156-.807.37-1.078.602-.116.1-.138.136-.072.118.262-.071 1.105-.172 1.449-.172.419 0 .866.095 1.067.227.205.133.264.336.19.646-.142.597-.323.83-1.04 1.343-.413.294-1.015.87-1.015.971 0 .078-.15.088-.179.012zm15.899-2.552c.854-.282 1.89-.885 1.89-1.1 0-.098-.325-.222-.58-.222-.52 0-1.105.338-1.857 1.076l-.483.472.266-.03c.146-.017.49-.105.764-.196zM10.526 9.63c-.043-.069.02-.121.135-.113.061.004.11.037.11.073 0 .07-.205.105-.245.04zm3.321-.024c-.1-.04-.067-.153.049-.17.107-.015.135-.128.08-.329-.011-.04.011-.072.05-.072.04 0 .092.072.117.16.037.13.028.182-.05.286-.102.137-.152.162-.246.125zm2.027 0c-.1-.04-.068-.153.048-.17.095-.013.107-.04.1-.22-.007-.142.01-.205.054-.205.143 0 .163.395.027.53-.1.1-.125.107-.23.065zm.41-.02c-.128-.075-.101-.14.057-.14.078 0 .155-.023.172-.049.016-.027-.003-.048-.044-.048-.112 0-.187-.173-.125-.29.066-.122.223-.124.288-.003a.387.387 0 0 1-.069.464c-.131.131-.157.137-.28.066zm.253-.43a.048.048 0 0 0-.048-.048.048.048 0 0 0-.048.048c0 .026.021.048.048.048a.048.048 0 0 0 .048-.048zm.163.411c-.099-.073-.11-.062.156-.147.078-.024.076-.133-.006-.33-.03-.07-.018-.085.052-.072.105.02.17.261.113.415-.057.153-.203.216-.314.134zm-6.63-.126c-.058-.108-.025-.334.048-.334.025 0 .051.06.06.133.016.139.124.192.271.132.07-.028.065-.04-.033-.077-.106-.041-.11-.051-.04-.128.052-.058.062-.108.031-.163-.032-.057-.023-.088.03-.108.048-.019.089.014.12.099.027.069.038.137.024.151-.014.014-.001.054.028.09.04.048.034.095-.025.185-.106.162-.431.174-.514.02zm.69-.1c-.069-.068-.083-.552-.018-.592.05-.03.1.13.102.322 0 .123.015.133.195.133.178 0 .19-.008.145-.094-.036-.065-.035-.103.003-.126.086-.053.148.052.132.226-.016.159-.022.163-.257.177-.147.009-.266-.01-.302-.046zm.663-.258c0-.246.016-.313.073-.313.056 0 .072.067.072.313 0 .247-.016.314-.072.314-.057 0-.073-.067-.073-.314zm.241.217c0-.07.033-.096.121-.096.137 0 .155-.056.046-.146-.05-.042-.058-.078-.026-.11.059-.06.19.039.245.182.06.158-.03.267-.218.267-.135 0-.168-.019-.168-.097zm.796.055c-.205-.044-.22-.215-.035-.396.163-.16.204-.142.204.084 0 .156.006.161.194.161.183 0 .192-.007.164-.12-.023-.09-.011-.121.045-.121.081 0 .162.292.106.383-.034.054-.438.06-.678.009zm.025-.248c0-.026-.01-.048-.022-.048-.011 0-.034.022-.05.048-.017.027-.008.049.02.049a.05.05 0 0 0 .052-.049zm.792.227c-.045-.119-.043-.541.003-.564.027-.014.061.067.076.18.034.259.085.307.177.17.096-.144.243-.139.31.01.082.178-.01.257-.302.26-.144 0-.25-.022-.264-.056zm.462-.13c0-.027-.023-.048-.051-.048-.028 0-.038.021-.022.048.017.026.04.048.052.048.011 0 .02-.022.02-.048zm.748.15c-.206-.043-.22-.214-.035-.395.162-.16.204-.142.204.084 0 .184.088.214.183.062a.169.169 0 0 1 .169-.085c.086.012.106.047.106.184v.169l-.241.006a2.177 2.177 0 0 1-.386-.024zm.024-.247c0-.026-.01-.048-.022-.048-.011 0-.034.022-.05.048-.017.027-.008.049.02.049a.05.05 0 0 0 .052-.049zm.778.225c-.032-.038-.071-.18-.087-.316-.025-.208-.017-.246.05-.246.058 0 .079.044.079.165 0 .207.1.313.264.28.093-.017.122-.049.112-.121-.02-.144.097-.16.133-.018.06.24.016.296-.249.311-.168.01-.263-.007-.302-.055zm3.105-.07c.027-.03.179-.122.338-.206.597-.317 1.23-.913.968-.913-.087 0-.268-.228-.268-.337 0-.046.064-.172.143-.282.326-.45.773-.45.773-.003 0 .455-.675 1.26-1.306 1.56-.37.175-.738.277-.648.18zm1.608-1.566c-.02-.145-.233-.184-.233-.043 0 .094.058.14.185.148.039.002.057-.038.048-.105zM10.94 8.89c0-.04.032-.072.072-.072.04 0 .073.033.073.072a.073.073 0 1 1-.145 0zm1.833.004c0-.042.034-.076.076-.076.086 0 .07.104-.019.134-.031.01-.057-.016-.057-.058zm2.702-.004c0-.04.032-.072.072-.072a.072.072 0 0 1 0 .145.073.073 0 0 1-.072-.073zM1.73 8.83c-.501-.255-.644-.932-.284-1.342a1.26 1.26 0 0 1 .294-.245c.212-.11.578-.092.818.04.58.32.564 1.245-.026 1.53-.255.124-.58.13-.802.017zm12.187.053c-.063-.063-.033-.113.067-.113.056 0 .092.025.081.057-.023.07-.104.101-.148.056zm2.041-.04a.073.073 0 0 1 .145-.001.073.073 0 0 1-.145 0z" opacity=".98"/></svg>