<svg role="img" viewBox="0 0 24 24" xmlns="http://www.w3.org/2000/svg"><path d="M11.698 22.76c-.976-1.159-1.555-1.817-2.017-2.293l-.535-.552.335-.528c.32-.503 1.05-1.55 2.085-2.99l.476-.662-.364-.462a56.73 56.73 0 0 0-3.942-4.486c-.86-.88-1.599-1.598-1.642-1.598-.043 0-.078 1.72-.078 3.823 0 2.103-.03 3.822-.067 3.821-.037 0-.574-.409-1.192-.906-1.234-.992-2.81-2.067-3.66-2.495-.667-.338-.99-.704-1.063-1.208-.03-.21-.043-2.568-.028-5.24l.028-4.857.244-.416c.406-.69.49-.709 3.31-.709h2.447l.598.316c.329.173.881.526 1.227.784.646.48 3.03 2.8 3.748 3.647l.401.474.648-.754c1.505-1.754 3.628-3.613 4.8-4.205l.519-.262h2.508c2.455 0 2.515.004 2.814.204.168.112.387.365.485.562.173.344.181.564.204 5.487.028 5.98.097 5.527-.932 6.106-1.077.606-2.83 1.809-3.943 2.704-.59.476-1.106.832-1.146.791-.04-.04-.084-1.751-.096-3.802l-.024-3.73-1.35 1.35c-1.696 1.696-4.362 4.81-4.362 5.093 0 .043.276.453.614.91a77.26 77.26 0 0 1 1.393 1.977l.778 1.144-.938 1.039a40.9 40.9 0 0 0-1.356 1.57c-.23.293-.478.556-.553.584-.082.032-.226-.057-.374-.232z"/></svg>