<svg role="img" viewBox="0 0 24 24" xmlns="http://www.w3.org/2000/svg"><path d="M0 12V0h24v24H0zm23.41 0V.595H.595v22.81H23.41zM.965 12V.965h22.07v22.07H.965zm21.698 0V1.332H1.332l-.001 10.663.001 10.67c.002.004 2.138.005 10.667.004h10.664zM3.828 22.399a1.266 1.266 0 0 1-.598-.202 1.254 1.254 0 0 1-.386-.427c-.14-.245-.23-.563-.268-.938a3.57 3.57 0 0 1-.02-.444c0-.255.01-.43.039-.684.09-.793.34-1.697.633-2.292.134-.27.261-.449.372-.52.026-.017.051-.028.056-.024a13.375 13.375 0 0 0-.347.956c-.379 1.202-.423 2.109-.13 2.687.145.285.373.488.652.582.14.048.228.057.431.047.7-.036 1.492-.222 2.343-.55.358-.137.766-.33.834-.393.02-.02.009-.064-.025-.094a.339.339 0 0 0-.05-.031c-.066-.033-.145-.054-.38-.099a2.985 2.985 0 0 1-.388-.094c-.224-.076-.346-.184-.39-.342a.52.52 0 0 1-.01-.167 3.324 3.324 0 0 1 .531-1.816c.114-.174.227-.312.384-.469.12-.12.189-.18.301-.264.352-.263.72-.4.94-.348.168.039.348.182.483.385l.021.03-.005.104c-.007.138-.003.494.007.605.036.396.118.676.258.883.202.298.51.41.93.34.211-.035.475-.13.742-.268.274-.141.591-.347.867-.562.123-.097.139-.11.134-.12a1.878 1.878 0 0 0-.798-.564l-.013-.005.028-.048c.131-.227.363-.526.63-.813l.038-.04.054.03c.27.15.472.331.551.492.064.13.057.244-.026.41a2.678 2.678 0 0 1-.39.532l-.042.045-.01-.01c-.01-.014-.01-.013-.02.062-.032.254-.013.455.054.583a.351.351 0 0 0 .222.18.81.81 0 0 0 .231.01c.22-.03.485-.14.813-.337.124-.075.343-.222.456-.308l.016-.013.003.023c.044.333.162.512.363.557a.63.63 0 0 0 .21-.002c.188-.038.4-.144.655-.33a4.21 4.21 0 0 0 .345-.285l.024-.022-.003.015a.931.931 0 0 0-.005.267.403.403 0 0 0 .138.248c.038.03.113.068.168.084.117.034.29.037.458.01a1.18 1.18 0 0 0 .141-.031c.004-.002.012-.016.016-.032.35-1.14 1.112-3.022 1.336-3.297l.021-.026-.008-.069a1.718 1.718 0 0 1-.008-.205v-.137l-.029.004c-.078.01-.223.045-.734.177a35.127 35.127 0 0 1-1.008.25.224.224 0 0 0 .013.058c.11.353.133.738.07 1.135-.062.393-.228.825-.392 1.023-.037.044-.048.049-.125.057-.095.01-.3.01-.39 0-.388-.047-.673-.214-.865-.507a1.624 1.624 0 0 1-.13-.262 2.257 2.257 0 0 1-.123-.78v-.117l-.04.003a4.444 4.444 0 0 0-.19.027c-.31.05-.42.061-.553.057a.604.604 0 0 1-.198-.03.725.725 0 0 1-.488-.532.993.993 0 0 1-.03-.29.573.573 0 0 0-.006-.12c-.024.01-.508.169-.644.212-1.165.371-2.035.574-2.704.63a5.85 5.85 0 0 1-.285.012c-.526.013-.808-.02-1.067-.123-.483-.194-.8-.642-.965-1.359a1.101 1.101 0 0 0-.019-.077l-.016.054c-.098.34-.44.831-.852 1.218-.59.556-1.254.891-1.92.97a1.9 1.9 0 0 1-.441.006.732.732 0 0 1-.43-.24c-.252-.29-.351-.81-.278-1.46.07-.63.3-1.286.602-1.716a1.5 1.5 0 0 1 .116-.147l-.035.105a5.82 5.82 0 0 0-.307 1.228c-.01.097-.014.29-.007.37.033.364.182.563.462.617.055.01.19.012.259.003.326-.045.734-.227 1.18-.527.302-.205.563-.42.824-.68a3.25 3.25 0 0 0 .34-.384c.124-.164.197-.297.227-.415a.582.582 0 0 0 .011-.176c0-.703-.114-1.32-.454-2.45a4.246 4.246 0 0 1-.067-.24c-.036-.207-.002-.561.085-.875.056-.204.147-.433.225-.566l.021-.036.018.055.054.168c.116.364.228.766.336 1.207.11.45.2.88.36 1.71.137.705.194.975.262 1.25.127.508.262.836.428 1.039.071.087.16.16.247.204.091.045.152.06.292.07l.176.014c.153.016.388.011.616-.013.785-.082 2.047-.404 3.547-.906l.13-.044-.001.047c-.003.06.006.196.018.282.035.243.117.437.238.565.124.13.271.192.468.2.18.005.365-.033.605-.127l.08-.032.034-.118c.105-.355.27-.85.435-1.301a18.323 18.323 0 0 1 .63-1.545.865.865 0 0 1-.157-.107 1.495 1.495 0 0 1-.2-.211l-.006-.01-.011.013a1.988 1.988 0 0 1-.163.177c-.277.27-.568.395-.827.356-.164-.025-.297-.097-.446-.242l-.066-.065-.09.089c-.273.268-.536.427-.804.485a.588.588 0 0 1-.147.01.569.569 0 0 1-.31-.07c-.148-.072-.286-.214-.4-.41a1.269 1.269 0 0 0-.027-.044 8.163 8.163 0 0 1-1.097.589c-.627.276-1.192.429-1.694.457-.21.011-.327 0-.454-.041a.755.755 0 0 1-.312-.197 1.124 1.124 0 0 1-.256-.405c-.121-.307-.188-.745-.188-1.244v-.137l-.022-.021a1.11 1.11 0 0 1-.13-.16c-.126-.193-.2-.426-.234-.735A4.92 4.92 0 0 1 7 9.426a29.684 29.684 0 0 0-.036-1.274c-.047-.875-.117-1.545-.298-2.861a22.97 22.97 0 0 1-.15-1.236 6.438 6.438 0 0 1-.026-.42 3.602 3.602 0 0 1 .095-1.02c.048-.188.112-.357.197-.527.024-.047.038-.07.044-.07.004 0 .017.01.03.022.195.205.421 1.824.65 4.648.024.298.033.424.058.782.046.682.076.964.132 1.246.097.49.264.773.53.903a.86.86 0 0 0 .408.083c.583 0 1.753-.345 2.326-.687.106-.064.181-.119.24-.177.075-.073.106-.127.107-.184 0-.031-.014-.058-.05-.096-.09-.096-.282-.211-.758-.459a64.061 64.061 0 0 1-.495-.258c-.809-.429-1.31-.767-1.646-1.113-.265-.272-.407-.531-.437-.798a1.116 1.116 0 0 1-.003-.152c.026-.895.72-1.734 2.057-2.487.438-.246 1.01-.511 1.544-.714a.89.89 0 0 0 .076-.032.709.709 0 0 0-.038-.172c-.04-.122-.09-.19-.153-.208-.027-.007-.056-.002-.142.026-.345.112-.985.396-1.513.672a10.67 10.67 0 0 0-1.73 1.103.432.432 0 0 1 .01-.11.924.924 0 0 1 .117-.278c.14-.224.4-.473.754-.725.468-.333 1.14-.697 1.831-.993.37-.158.705-.275.787-.274.13 0 .226.088.264.242.02.082.024.122.024.25 0 .122-.008.216-.03.348a.522.522 0 0 0-.008.056l.113-.04c.255-.092.659-.223.956-.31.39-.115.85-.233 1.055-.27a.725.725 0 0 1 .379.056c.34.149.479.529.37 1.012-.065.287-.213.606-.437.941a3.32 3.32 0 0 1-.238.324c-.003-.003.02-.096.045-.188a9.84 9.84 0 0 1 .134-.437c.098-.297.12-.382.125-.477a.245.245 0 0 0-.023-.14c-.035-.07-.118-.112-.258-.13a2.145 2.145 0 0 0-.358.003c-.626.077-1.728.466-2.938 1.035a31.7 31.7 0 0 0-.69.346c-.848.45-1.396.837-1.555 1.1a.254.254 0 0 0-.04.118c-.006.067.008.09.113.187.343.319.722.558 1.604 1.012.58.299.8.42 1.027.571.368.244.587.48.666.721a.666.666 0 0 1 .036.28c-.003.795-.314 1.455-.9 1.91-.57.444-1.389.699-2.461.768-.098.006-.296.014-.462.017l-.132.003-.003.03c-.005.044-.003.164.002.202.018.131.07.222.152.265.073.04.225.068.397.076.114.005.31-.009.481-.036.71-.11 1.706-.474 2.946-1.076l.194-.094c.005-.002.006.001.004.018a1.152 1.152 0 0 0 .001.343c.039.176.125.278.27.32a.754.754 0 0 0 .246.007c.282-.045.641-.217 1.112-.533a10.282 10.282 0 0 0 .262-.182c.004-.002.005.026.003.101-.001.066 0 .123.003.154.015.134.06.22.13.254.023.012.031.013.074.013a.305.305 0 0 0 .145-.036c.072-.032.175-.104.28-.195.07-.06.223-.212.312-.31l.069-.076.01.062a.74.74 0 0 0 .114.308c.09.134.24.202.386.176a.416.416 0 0 0 .34-.481 2.903 2.903 0 0 0-.103-.31c-.2-.543-.285-.88-.324-1.283a4.892 4.892 0 0 1-.002-.552c.035-.371.124-.704.276-1.027l.03-.066.044.131c.137.415.238.653.37.873.085.139.101.178.117.272.01.052.01.046-.053.206-.1.251-.136.412-.116.523a.9.9 0 0 0 .036.105c.108.276.16.562.16.883 0 .797-.334 1.55-.768 1.734a.6.6 0 0 1-.069.024l-.03.007.021.073c.244.846.245 1.707.004 2.44a.64.64 0 0 0-.024.086 2.2 2.2 0 0 0 .226-.04c.561-.114 1.283-.325 2.092-.609l.118-.04c.002 0 .003.049.004.109.002.425.105.735.296.887a.59.59 0 0 0 .193.096.773.773 0 0 0 .263.009c.283-.04.63-.216 1.056-.534l.085-.064-.004.04a1.675 1.675 0 0 0-.003.138.45.45 0 0 0 .011.137c.039.14.124.208.266.208.142 0 .347-.076.56-.21.091-.056.125-.114.125-.213 0-.107-.039-.229-.157-.489-.119-.262-.134-.31-.125-.398.015-.158.141-.493.345-.918.05-.105.065-.132.068-.126.013.022.076.168.107.247.21.533.286 1.035.228 1.512a2.227 2.227 0 0 1-.468 1.123c-.348.434-.855.696-1.186.612a.373.373 0 0 1-.134-.07c-.075-.068-.104-.147-.104-.278v-.07l-.066.041c-.349.223-.71.371-.994.41a1.096 1.096 0 0 1-.257-.004.543.543 0 0 1-.32-.172c-.018-.022-.024-.027-.022-.018l.02.101c.149.78.186 1.529.1 2.037-.042.254-.105.44-.199.59a.464.464 0 0 0-.036.064s.062-.003.136-.01c1.46-.133 2.862-.455 3.343-.77.074-.048.097-.069.11-.095.011-.022.012-.028.012-.105 0-.076-.002-.091-.028-.237a1.416 1.416 0 0 1-.035-.334.872.872 0 0 1 .081-.313c.094-.208.273-.434.395-.497.021-.012.055-.022.055-.017l.012.068c.025.14.052.354.066.524.008.103.008.461 0 .554-.05.542-.212.936-.52 1.259-.104.11-.276.242-.426.327a3.118 3.118 0 0 1-.627.257c-.325.093-.657.15-1.316.228a8.06 8.06 0 0 0-.785.116l-.032.007.017.066c.04.16.079.382.097.546.03.28.025.563-.016.785-.094.504-.365.839-.767.948a1.501 1.501 0 0 1-.707-.006.94.94 0 0 1-.575-.393 1.368 1.368 0 0 1-.112-.228 1.627 1.627 0 0 1-.077-.581 2.58 2.58 0 0 1 .092-.647s-.027 0-.058.003a1.542 1.542 0 0 1-.665-.093.95.95 0 0 1-.424-.321.484.484 0 0 0-.036-.045.547.547 0 0 0-.068.039c-.342.214-.697.363-.958.4a.795.795 0 0 1-.327-.014c-.159-.05-.26-.167-.308-.352a.598.598 0 0 0-.013-.045 2.826 2.826 0 0 1-.388.258c-.26.145-.504.215-.691.198-.221-.021-.376-.136-.484-.36a1.451 1.451 0 0 1-.105-.338l-.006-.027-.046.034c-.12.088-.291.198-.442.285-.431.248-.835.394-1.197.435a2.085 2.085 0 0 1-.317 0 1.021 1.021 0 0 1-.624-.294c-.18-.186-.299-.455-.365-.83a5.646 5.646 0 0 1-.064-.646c-.021-.348-.034-.437-.075-.49-.01-.013-.02-.018-.054-.029a.817.817 0 0 0-.241-.038.787.787 0 0 0-.144.005 1.182 1.182 0 0 0-.579.27 2.778 2.778 0 0 0-.276.275c-.129.155-.26.36-.295.458-.026.073.078.139.346.219l.24.067c.409.112.585.172.763.259.138.068.228.13.301.206.114.12.152.237.134.42-.046.478-.353.923-.932 1.352-.474.352-1.124.676-1.843.917a6.773 6.773 0 0 1-1.404.328 4.825 4.825 0 0 1-.403.01zm13.774-1.543c0-.014-.04-.159-.056-.2-.171-.459-.633-.75-1.228-.773l-.08-.003.002.017c.018.082.056.187.102.28.158.323.42.54.758.634.065.017.18.038.252.044.062.006.25.007.25.001zm-.98-2.422c.398-.134.647-.385.735-.742.022-.09.03-.166.03-.28 0-.222-.052-.448-.146-.638-.041-.085-.044-.088-.06-.08-.036.016-.13.175-.231.394-.205.442-.386.971-.45 1.317a2.228 2.228 0 0 0-.012.068.97.97 0 0 0 .134-.04zm-1.186-1.829a.182.182 0 0 0-.007-.04 1.508 1.508 0 0 0-.273-.51c-.161-.2-.358-.333-.555-.376a.935.935 0 0 0-.263 0 .868.868 0 0 0-.162.051l-.044.02.002.02c.034.304.097.473.224.6.155.155.401.228.814.24.06.002.26-.002.264-.005zm-1.01-2.144c.073-.029.205-.094.27-.133.11-.067.185-.124.268-.205a.917.917 0 0 0 .279-.815.972.972 0 0 0-.218-.473l-.033-.035-.015.006c-.099.04-.337.518-.53 1.06a3.53 3.53 0 0 0-.14.494c-.01.055-.008.125.002.137.007.008.014.006.118-.036zm-5.783 7.85a2.448 2.448 0 0 0-.16-.236c-.177-.225-.406-.405-.606-.475a.237.237 0 0 1-.035-.015c-.01-.008.108-.194.203-.323a6.689 6.689 0 0 1 .493-.585c.01-.01.011-.008.055.021.218.146.429.346.527.498a.84.84 0 0 1 .082.174.412.412 0 0 1 .01.158c-.03.174-.203.444-.502.782a.621.621 0 0 1-.04.043.321.321 0 0 1-.027-.041zm1.4-.05a1.289 1.289 0 0 0-.07-.111c-.176-.265-.379-.455-.603-.566a1.15 1.15 0 0 0-.104-.046c-.017-.006-.03-.014-.03-.017 0-.009.082-.144.126-.21.136-.198.326-.431.53-.65l.05-.054.044.03c.116.077.25.187.349.286.174.173.262.322.275.466.012.13-.076.318-.276.583a4.868 4.868 0 0 1-.266.319c-.005.005-.01 0-.025-.03zm1.458-.02a.507.507 0 0 1-.01-.086 2.675 2.675 0 0 0-.158-.787 2.488 2.488 0 0 0-.228-.432l-.026-.038.065-.128c.07-.135.08-.154.09-.154.026 0 .132.177.194.324.082.195.149.482.17.725.007.101.002.325-.01.392-.024.132-.045.192-.068.195-.01 0-.014-.002-.019-.012zm2.978-.006-.005-.02a3.317 3.317 0 0 1-.007-.128l-.005-.122.028-.037c.088-.115.175-.269.247-.436.064-.147.095-.242.195-.588.052-.18.072-.238.088-.252.023-.021.04.013.087.18.075.263.15.462.245.651a2.36 2.36 0 0 0 .276.431c.006.01.004.02-.023.102-.04.12-.066.19-.074.198-.01.01-.021 0-.077-.074a2.375 2.375 0 0 1-.41-.905.785.785 0 0 0-.02-.077c-.009-.012-.018.008-.033.072-.106.425-.27.776-.461.986-.033.035-.046.04-.051.02zm-2.071.001a.448.448 0 0 1-.013-.102 2.374 2.374 0 0 0-.175-.8 2.083 2.083 0 0 0-.188-.345.156.156 0 0 1-.025-.043l.019-.066c.023-.083.07-.226.078-.238a.024.024 0 0 1 .018-.011c.013 0 .034.023.127.134.099.118.113.129.182.14a.226.226 0 0 0 .175-.048.456.456 0 0 0 .112-.159c.042-.083.067-.115.083-.106.02.011.024.033.02.118-.002.032-.001.041.008.057.022.043.093.079.165.083.038.002.043.001.057-.008.024-.017.042-.048.074-.126.024-.06.032-.074.04-.075.008 0 .013.003.02.015a1.197 1.197 0 0 1 .003.24c-.03.162-.086.257-.174.292a.336.336 0 0 1-.164.002.367.367 0 0 1-.137-.072l-.029-.026-.021.029a.272.272 0 0 1-.196.12c-.03 0-.031.002-.015.055.072.24.088.568.038.779-.02.085-.046.155-.062.163-.012.007-.012.007-.02-.002zm1.229 0a.275.275 0 0 1-.01-.083c-.022-.412-.122-.765-.3-1.061a2.333 2.333 0 0 0-.065-.103.17.17 0 0 1-.024-.04c0-.02.08-.276.095-.305.008-.016.026-.018.039-.004.005.005.05.057.099.116.05.059.1.113.11.12.035.026.1.038.151.029.09-.017.147-.069.213-.2.056-.11.07-.126.093-.105l.014.011-.001.07c-.001.068 0 .073.01.091.026.044.105.08.178.08.03 0 .033-.001.05-.017a.282.282 0 0 0 .06-.105c.024-.064.037-.09.047-.09.024 0 .034.066.028.17a.624.624 0 0 1-.064.264c-.05.098-.124.137-.233.124a.32.32 0 0 1-.189-.083.214.214 0 0 0-.025-.022.45.45 0 0 1-.066.078.261.261 0 0 1-.153.07c-.029 0-.03.002-.012.06a1.7 1.7 0 0 1 .06.336 2.45 2.45 0 0 1 0 .297c-.013.13-.057.29-.086.305-.012.006-.012.006-.02-.002zm6.504-.142a2.268 2.268 0 0 0-.155-.23c-.182-.234-.397-.405-.61-.485a.21.21 0 0 1-.042-.019c0-.007.082-.139.124-.202a5.398 5.398 0 0 1 .567-.693l.02-.018.034.023c.122.08.256.19.364.3.143.143.22.257.256.382.009.031.01.05.01.1 0 .07-.01.112-.045.192-.074.167-.272.444-.473.66l-.028.03zm-9.687-4.167a1.949 1.949 0 0 0-.294-.289 1.693 1.693 0 0 0-.48-.261c-.008-.007.102-.182.192-.305a5.542 5.542 0 0 1 .453-.536c.013 0 .177.12.271.198.06.05.183.172.222.22.093.116.14.213.144.305a.342.342 0 0 1-.044.182c-.05.106-.132.213-.264.347a1.82 1.82 0 0 1-.177.164.175.175 0 0 1-.022-.025zm.487-1.102a1.65 1.65 0 0 0-.326-.348 1.41 1.41 0 0 0-.33-.19.145.145 0 0 1-.042-.022c0-.003.014-.03.032-.06.11-.192.318-.458.526-.674l.059-.062.036.018c.02.01.062.034.094.053.322.194.48.408.444.6-.03.157-.178.393-.425.674l-.043.049-.025-.037zm6.133-3.868a.95.95 0 0 1-.366-.088.452.452 0 0 1-.137-.097c-.187-.196-.247-.67-.17-1.343.06-.518.207-1.108.338-1.36.03-.057.068-.101.085-.098.027.004.023.046-.024.335-.058.352-.069.461-.07.67 0 .115.003.162.009.21.026.19.077.315.168.41.124.128.305.164.589.116.674-.115 1.845-.676 2.635-1.264.421-.313.67-.591.712-.796a.234.234 0 0 0 0-.114c-.016-.07-.05-.109-.168-.189a15.437 15.437 0 0 1-.92-.689c-.593-.478-1.078-.946-1.342-1.294a1.5 1.5 0 0 1-.308-.718 1.712 1.712 0 0 1 .002-.312c.023-.155.062-.282.127-.41a.538.538 0 0 1 .078-.126c.002 0 .03.035.063.075a4.725 4.725 0 0 0 1.338 1.131c.002.002.006.088.01.193l.007.19.046.043c.132.128.276.241.664.524.251.183.362.267.475.358.377.304.58.546.66.787.027.085.036.14.035.228-.002.375-.232.855-.652 1.358-.188.227-.448.49-.7.712-.818.717-1.814 1.289-2.585 1.485-.22.056-.435.082-.6.073zm-13.496-.325a.382.382 0 0 1-.236-.152c-.161-.213-.206-.642-.125-1.202A6.03 6.03 0 0 1 3.59 9.91c.004-.012.004-.015-.006-.023-.063-.05-.309-.231-.467-.344-.283-.202-.389-.287-.47-.376a1.14 1.14 0 0 1-.283-.664 2.55 2.55 0 0 1-.02-.381c0-.152.002-.192.008-.225.01-.046.027-.084.039-.086.025-.005.284.178.81.573.253.19.646.488.782.593l.04.032.046-.087c.256-.497.498-.801.646-.814.025-.002.027-.002.031.011.02.05-.05.201-.28.623-.117.214-.214.4-.214.411 0 .002.069.06.152.13.184.15.282.233.381.324.344.317.536.6.591.872.01.049.011.067.01.17 0 .123-.007.212-.028.348-.07.45-.228.83-.462 1.109-.05.06-.15.156-.21.205a1.557 1.557 0 0 1-.82.318c-.084.009-.25.01-.288.003zm.648-1.069c.181-.015.387-.067.519-.131.073-.036.105-.062.113-.09a.402.402 0 0 0-.012-.167c-.05-.156-.191-.352-.423-.584a6.224 6.224 0 0 0-.475-.428l-.13-.108-.022.047c-.107.228-.18.645-.163.926.01.151.031.246.075.337a.316.316 0 0 0 .245.186c.077.017.174.02.273.012zm12.964-.49c-.013-.017-.016-.048-.02-.2-.021-.723-.096-1.452-.252-2.446a81.48 81.48 0 0 0-.197-1.164c-.215-1.233-.295-1.75-.355-2.292a9.753 9.753 0 0 1-.069-1.263c.003-.301.013-.468.04-.693.039-.32.249-.917.406-1.154.054-.082.106-.131.147-.14l.016-.003v.15c0 .164.007.435.014.602.028.582.086.979.187 1.264.03.087.053.14.118.275.03.062.063.134.073.16.058.145.083.285.093.52.011.26-.014.397-.129.697-.095.249-.111.322-.102.458.012.172.048.396.182 1.136.227 1.246.295 1.707.327 2.2.007.112.007.35 0 .44-.033.408-.16.904-.32 1.256-.068.147-.134.23-.159.197zm-4.235-3.677a2.107 2.107 0 0 0-.068-.11c-.193-.29-.436-.502-.69-.602a.969.969 0 0 1-.048-.02 1.34 1.34 0 0 1 .088-.145 4.11 4.11 0 0 1 .38-.475c.076-.085.28-.293.287-.293.006 0 .085.055.157.11.268.203.449.413.502.583l.012.041.031-.052c.12-.2.325-.464.571-.734.075-.082.09-.097.098-.093.035.02.193.14.28.216.06.053.187.182.229.233.07.089.13.195.15.27a.353.353 0 0 1-.001.174c-.03.108-.135.277-.284.456a4.499 4.499 0 0 1-.306.332c-.002 0-.008-.01-.015-.023a2.071 2.071 0 0 0-.21-.33 1.733 1.733 0 0 0-.2-.208 1.246 1.246 0 0 0-.308-.188l-.025-.009-.003.045c-.01.164-.177.418-.506.763-.05.053-.092.096-.095.097-.003 0-.014-.016-.026-.038zm-8.088-.888a2.111 2.111 0 0 0-.068-.11c-.193-.29-.436-.502-.69-.602a.949.949 0 0 1-.047-.019c-.004-.004.09-.16.149-.242.139-.198.292-.385.52-.634l.025-.027-.031-.05c-.196-.313-.478-.562-.738-.652-.014-.005-.025-.01-.026-.013a1.754 1.754 0 0 1 .124-.206 5.74 5.74 0 0 1 .574-.7c.01-.009.012-.009.06.026.221.158.408.337.51.49a.818.818 0 0 1 .092.189.357.357 0 0 1 0 .197c-.05.168-.214.417-.452.687a.6.6 0 0 0-.045.054c0 .002.03.024.064.05.187.138.348.297.44.435a.56.56 0 0 1 .11.294c0 .162-.169.444-.476.794l-.07.078a.29.29 0 0 1-.025-.039zm8.688-.429a2.312 2.312 0 0 0-.411-.434 1.639 1.639 0 0 0-.404-.235l-.043-.016.03-.064c.089-.186.233-.44.335-.588.116-.17.242-.302.332-.35.05-.026.052-.026.12.021.265.183.475.396.563.572.047.094.064.18.05.26-.031.178-.211.477-.491.814a.546.546 0 0 1-.051.056.2.2 0 0 1-.03-.036zm5.22-.438a2.18 2.18 0 0 0-.26-.352 1.371 1.371 0 0 0-.543-.372 1.957 1.957 0 0 1 .132-.21c.133-.189.296-.378.505-.59L18.726 4l.04.027c.17.12.354.283.457.407a.895.895 0 0 1 .155.251l.012.036.014-.024c.023-.04.102-.16.145-.219.122-.17.3-.384.49-.589l.033-.036.043.028c.168.112.374.293.473.416.124.155.18.297.162.408-.027.172-.218.447-.525.757l-.076.078-.033-.062a1.59 1.59 0 0 0-.504-.584 1.485 1.485 0 0 0-.197-.104c-.007-.002-.008.004-.01.04-.009.136-.13.336-.368.61a4.093 4.093 0 0 1-.235.244.234.234 0 0 1-.027-.042zm-3.554-.199a2.508 2.508 0 0 0-.058-.09c-.225-.337-.497-.582-.76-.684l-.046-.018.067-.07c.122-.13.242-.27.384-.447a11.884 11.884 0 0 0 .303-.398c.007 0 .114.07.19.122.202.144.374.308.459.44.07.108.099.205.085.292-.028.182-.218.472-.537.822a.895.895 0 0 1-.063.066.162.162 0 0 1-.024-.035zm4.18-1.095a1.994 1.994 0 0 0-.736-.658 1.263 1.263 0 0 0-.137-.055c-.003 0-.005-.003-.005-.007 0-.01.097-.202.159-.314.21-.385.417-.641.563-.697l.027-.01.02.013a2.7 2.7 0 0 1 .493.444c.138.173.19.31.161.435-.035.16-.168.391-.38.664a2.7 2.7 0 0 1-.16.192c-.002 0-.005-.003-.006-.007z"/></svg>