<svg viewBox="0 0 24 24" xmlns="http://www.w3.org/2000/svg" role="img"><path d="M10.901 23.994c-.45-.03-.839-.066-1.146-.107-1.388-.183-2.871-.598-4.416-1.234-.338-.14-.297-.075-.411-.636a13.931 13.931 0 0 1-.165-4.302c.185-1.46.63-2.83 1.292-3.984.131-.228.506-.816.521-.816.004 0-.029.09-.073.2-.276.685-.402 1.368-.4 2.17.001.843.138 1.515.463 2.272.29.676.622 1.16 1.285 1.872a10.12 10.12 0 0 0 1.9 1.627 8.5 8.5 0 0 0 1.09.635c1.381.69 2.917 1.07 4.68 1.156.266.013.488.028.494.033.02.021-.822.417-1.132.532a9.578 9.578 0 0 1-2.346.536c-.33.035-1.363.065-1.636.046zm4.255-1.434c-1.994-.15-3.807-.748-5.293-1.745a1.181 1.181 0 0 1-.187-.14c.004-.005.099.028.21.073a5.87 5.87 0 0 0 6.97-2.18c.08-.117.243-.336.362-.485 1.241-1.56 1.982-3.407 2.226-5.547.036-.32.081-1.06.091-1.5l.006-.233.128.217c.466.788.827 1.785 1.008 2.784.24 1.32.232 2.64-.022 4.148-.212 1.257-.635 2.682-1.184 3.988-.11.262-.114.267-.208.292-.51.137-1.412.272-2.211.33a21.26 21.26 0 0 1-1.896-.002zM4.312 19.487c-.129-.203-.42-.817-.553-1.167a9.573 9.573 0 0 1-.574-2.525c-.048-.5-.048-1.529 0-2.071.12-1.359.444-2.767.973-4.222.196-.54.453-1.165.488-1.187.082-.05 1.12-.234 1.657-.293 2.75-.301 5.354.203 7.394 1.43.363.22.413.258.262.203a7.888 7.888 0 0 0-.967-.248 5.902 5.902 0 0 0-3.572.497c-.789.377-1.44.893-2.078 1.648l-.524.62c-1.293 1.522-2.103 3.5-2.352 5.745-.039.35-.094 1.471-.079 1.601a.242.242 0 0 1 .003.082.838.838 0 0 1-.078-.113zm13.014-1.996c.214-.498.358-1 .441-1.542.059-.38.059-1.231 0-1.612a5.843 5.843 0 0 0-1.16-2.735c-.222-.288-.82-.896-1.25-1.271a12.94 12.94 0 0 0-1.355-1.007 13.605 13.605 0 0 0-1.69-.857 11.226 11.226 0 0 0-2.537-.67 11.76 11.76 0 0 0-1.564-.117l-.64-.015.21-.125a7.85 7.85 0 0 1 1.532-.693c2.541-.848 5.624-.599 8.96.724.621.246.656.263.67.325.116.544.169.82.217 1.16.258 1.788.173 3.541-.248 5.153a10.033 10.033 0 0 1-1.364 3.056c-.313.466-.335.49-.222.226zM12.122 4.77c-.313-.039-.391-.06-.391-.105 0-.125.055-.53.096-.708.225-.969.87-1.985 1.704-2.683.957-.802 2.34-1.305 3.497-1.271l.261.007-.004.225c-.01.566-.274 1.368-.662 2.014-.726 1.21-1.87 2.08-3.17 2.41-.413.104-.993.153-1.331.11z"/></svg>