<svg role="img" viewBox="0 0 24 24" xmlns="http://www.w3.org/2000/svg"><path d="M18.768 23.927c-.452-.11-1.038-.453-1.341-.785a2.707 2.707 0 0 1-.706-2.29c.053-.355.053-.509 0-.736-.094-.4-.169-.527-.473-.812-.362-.338-.668-.448-1.173-.42-.37.02-.464.054-1.3.469-1.363.677-2.287.9-3.737.901-1.838.002-3.442-.531-4.938-1.642-1.678-1.245-2.88-3.23-3.195-5.274-.114-.746-.084-2.339.057-2.976.385-1.741 1.424-3.498 2.692-4.553C6.122 4.59 7.806 3.915 9.602 3.83c.624-.03.668-.024.927.107.332.168.425.267.577.61.226.512.018 1.14-.472 1.428-.211.124-.34.151-.892.19-1.665.115-2.888.678-3.992 1.834-.764.8-1.142 1.477-1.414 2.53-.331 1.286-.224 2.576.324 3.88.433 1.03 1.521 2.192 2.568 2.74 1.474.774 3.138.893 4.756.34a5.271 5.271 0 0 0 1.785-1.023c1.27-1.08 1.947-2.435 2.079-4.155.043-.565.068-.675.206-.9.104-.171.247-.309.426-.41.237-.133.317-.15.662-.135.497.02.783.2 1.01.636.18.343.195.678.074 1.59a7.857 7.857 0 0 1-.935 2.87c-.42.776-.468 1.192-.21 1.812.128.308.496.649.84.778.274.103.37.11 1.042.076.834-.043 1.214.021 1.707.288.98.53 1.568 1.691 1.401 2.772-.238 1.545-1.802 2.606-3.303 2.24zm-9.497-9.274a2.95 2.95 0 0 1-1.902-1.94c-.122-.418-.112-1.111.022-1.544A2.897 2.897 0 0 1 9.14 9.35c.134-.048.54-.11.903-.138 1.313-.102 2.119-.425 2.904-1.167.587-.554.939-1.087 1.168-1.769l.177-.526.005-1.255c.005-1.397.03-1.556.354-2.238.48-1.014 1.269-1.71 2.385-2.108.453-.161 1.494-.2 2.047-.078 2.131.474 3.478 2.636 2.977 4.78-.087.372-.5 1.189-.78 1.54-.338.427-.78.766-1.366 1.048-.772.372-1.357.464-2.286.358-.969-.11-1.988.103-2.772.58-.435.263-1.056.874-1.342 1.318-.39.604-.663 1.482-.666 2.14a3.034 3.034 0 0 1-.395 1.516c-.294.515-.654.84-1.242 1.124-.452.218-.48.224-1.091.237-.405.008-.706-.013-.849-.06z"/></svg>