<svg viewBox="0 0 24 24" xmlns="http://www.w3.org/2000/svg" role="img"><path d="M10.981 18.734c-.126-.101-.28-.222-.344-.268-.068-.05-.11-.097-.104-.116.007-.018.167-.27.357-.562.21-.324.359-.53.382-.53.058 0 .319.175.428.288.19.196.25.446.159.662-.107.252-.497.71-.605.71-.024 0-.147-.083-.273-.184zm-.59-1.611c-.119-.1-.262-.21-.318-.246a.385.385 0 0 1-.115-.098c-.01-.028.61-1.01.7-1.106.072-.079.49.242.598.458.125.253.076.462-.195.827-.162.217-.312.348-.396.347-.035 0-.14-.071-.273-.182zm1.324-.086a6.911 6.911 0 0 0-.33-.255c-.05-.033-.091-.08-.091-.102 0-.034.586-.965.676-1.074.045-.054.088-.04.277.091.377.26.489.546.34.868-.134.292-.473.67-.597.667-.019 0-.143-.088-.275-.195zM1.18 15.127a1.42 1.42 0 0 1-.997-.757c-.14-.295-.185-.518-.183-.926.005-.942.42-2.193 1.182-3.561.157-.282.218-.373.248-.373.054 0 .007.132-.238.668-.486 1.06-.682 1.665-.717 2.219-.058.894.474 1.396 1.48 1.396.68 0 1.4-.296 1.9-.78.37-.356.603-.802.51-.974-.037-.07-.223-.16-.488-.235-.546-.154-.707-.325-.7-.742.004-.33.108-.635.36-1.053.21-.35.388-.582.642-.838.391-.392.602-.528.937-.605.1-.024.138-.02.293.029l.178.056.113-.067c.163-.095.274-.202.41-.396.096-.137.128-.167.167-.155.15.044.194.038.269-.039a.663.663 0 0 0 .116-.176c.064-.157.075-.172.12-.181.04-.008.042.005.03.12a1.985 1.985 0 0 1-.234.67 1.099 1.099 0 0 1-.428.43 3.73 3.73 0 0 0-.376.254c-.256.193-.486.327-.559.326a.9.9 0 0 1-.177-.048.57.57 0 0 0-.45.004c-.196.072-.376.196-.58.4-.176.174-.306.391-.289.48.012.064.141.138.448.258.31.122.386.176.468.33.049.094.054.137.053.43-.002.444-.097.923-.301 1.505-.215.614-.624 1.252-1.062 1.657-.214.199-.641.47-.887.566a2.53 2.53 0 0 1-1.258.108zm6.008-2.093c-.02-.053.093-.189.287-.345.94-.754 1.239-1.049 1.4-1.382.094-.197.272-.72.53-1.561.092-.301.148-.398.213-.373.055.02.052.06-.045.604-.148.834-.281 1.382-.46 1.9-.168.482-.31.67-.626.828a4.508 4.508 0 0 1-.955.317c-.285.058-.326.06-.344.012zm3.444-.02c-.207-.096-.34-.292-.436-.645-.058-.21-.058-.85 0-1.32.222-1.818.385-2.837.517-3.225.119-.349.299-.769.33-.769.05 0 .054.053.02.277-.045.296-.24 1.869-.286 2.298-.02.192-.044.57-.052.842-.016.548.01.733.127.934a.492.492 0 0 0 .4.245c.24 0 .357-.107.5-.452.086-.209.123-.259.178-.238.075.03.03.381-.12.927-.091.335-.316.784-.473.942-.228.232-.468.295-.705.184zm3.148.01c-.165-.075-.27-.286-.272-.545-.001-.253.163-.669.41-1.035.095-.14.113-.181.084-.19l-.075-.024c-.027-.008-.033-.027-.02-.066.03-.1.543-1.112.603-1.191.073-.097.12-.098.293-.006.348.186.638.473.718.71.115.34-.057 1.048-.379 1.563-.264.423-.539.691-.803.784-.175.061-.424.061-.56 0zm.903-.82a.806.806 0 0 0 .197-.14c.057-.07.063-.24.013-.338-.054-.102-.207-.229-.384-.316-.147-.072-.166-.076-.223-.046-.075.04-.254.286-.324.444-.093.21-.024.412.158.469.04.012.15.019.243.015a.614.614 0 0 0 .32-.088zm1.215.83c-.025-.065.111-.202.559-.565.552-.447.934-.823 1.063-1.046.125-.217.223-.482.465-1.266.205-.665.242-.761.301-.784.08-.03.09.03.047.298-.179 1.103-.428 2.083-.643 2.525-.169.348-.369.495-.933.684-.263.088-.694.19-.799.19-.025 0-.052-.016-.06-.037zm3.658.004a.932.932 0 0 1-.379-.263c-.196-.262-.328-.693-.328-1.076 0-.43.288-2.6.46-3.464.052-.265.204-.713.347-1.027.065-.142.091-.178.113-.157.03.03.028.054-.089.907-.164 1.205-.236 1.958-.239 2.514-.002.515 0 .549.055.692.11.29.305.441.626.487.366.052.574-.033.976-.396.332-.3.42-.327.657-.209.184.092.254.106.37.075.117-.032.297-.192.434-.388l.096-.137.148.004c.215.006.294-.047.402-.264.116-.234.133-.252.204-.22.045.02.072.016.137-.025.094-.058.156-.16.258-.424.087-.227.142-.28.192-.186.027.05-.076.494-.177.762-.12.316-.3.565-.513.705-.075.05-.17.127-.21.172-.093.106-.33.259-.456.296-.053.015-.197.1-.32.186-.285.203-.468.278-.625.256-.326-.046-.338-.046-.447.007-.137.066-.323.263-.54.57-.195.277-.405.482-.575.563a.975.975 0 0 1-.577.04zm.336-6.32a14.65 14.65 0 0 0-.327-.258c-.116-.089-.21-.177-.21-.196 0-.044.676-1.08.714-1.096.065-.025.386.202.507.36.083.107.15.27.15.364 0 .183-.195.519-.448.773-.18.181-.225.187-.386.053zm1.213-.174a18.277 18.277 0 0 0-.337-.266c-.05-.037-.09-.078-.09-.092 0-.055.703-1.103.74-1.103.065 0 .338.192.45.316.235.262.235.517 0 .877-.125.19-.401.467-.466.467-.028 0-.161-.09-.297-.199z"/></svg>