<svg viewBox="0 0 24 24" xmlns="http://www.w3.org/2000/svg" role="img"><path d="M16.23 15.877v-.353H24v.705h-7.77zm2.82-2.467V12h-.705v-.705h1.378l.023.033c.021.03.024.219.024 1.73 0 1.51-.003 1.698-.024 1.728-.023.033-.029.033-.36.033h-.336zm4.244 0V12h-.705v-.705h.687c.514 0 .691.005.705.018.024.024.026 3.433.002 3.477-.015.028-.035.03-.353.03h-.336zM.101 14.79c-.064-.026-.089-.073-.095-.182L0 14.505h.183v.12h.615V14.4H.484a2.56 2.56 0 0 1-.351-.015c-.074-.028-.092-.08-.092-.265 0-.191.02-.238.114-.27.07-.025.632-.025.702 0 .07.024.103.076.115.178l.01.087H.798v-.105h-.57v.191l.312.007c.184.004.328.014.353.024.064.027.085.097.085.28 0 .19-.02.251-.09.276-.057.02-.74.022-.787.003zm1.477-.2v-.213l-.224-.262a4.77 4.77 0 0 1-.225-.274c0-.006.058-.011.13-.011h.132l.135.166c.074.091.142.172.151.18.012.01.064-.043.165-.166l.149-.18h.116c.064 0 .116.003.116.007s-.101.126-.225.27l-.225.264v.433h-.195v-.214zm.876.193c-.056-.025-.08-.085-.08-.198v-.08h.18v.12h.614V14.4h-.314a2.56 2.56 0 0 1-.352-.015c-.073-.028-.091-.08-.091-.264 0-.277.006-.28.412-.288.354-.006.41 0 .467.057.038.037.043.053.043.134v.092l-.086-.005c-.085-.004-.086-.005-.091-.053l-.005-.049h-.553v.192l.311.006c.439.009.448.016.437.34-.005.159-.008.169-.047.208l-.042.041-.378.004c-.296.003-.389 0-.425-.017zm1.449-.376v-.397h-.39v-.18h1.005v.18h-.405v.794h-.21zm.795-.09v-.487h.9v.18h-.69v.21h.404v.165h-.404v.24h.704v.18h-.914zm1.23 0v-.487h.158l.2.285c.112.156.206.284.21.284.005 0 .097-.127.205-.282l.196-.28.085-.005.085-.004v.976h-.194l-.004-.324-.004-.324-.18.264c-.108.16-.188.264-.203.264-.015 0-.097-.103-.203-.255l-.18-.255-.003.315-.004.315h-.165zm1.924.472a.161.161 0 0 1-.06-.054c-.025-.037-.027-.08-.027-.411 0-.4.005-.428.08-.466.029-.015.133-.022.384-.025.41-.006.463 0 .52.057.038.037.043.053.043.134v.09h-.195v-.104h-.63v.6h.63v-.195h-.33v-.18h.525v.225c0 .255-.013.3-.092.328-.058.02-.8.021-.848 0zm1.45-.472v-.487h.386c.56 0 .549-.006.556.294.007.268-.011.297-.196.318l-.091.01.187.172.187.173-.144.005-.143.005-.172-.181-.173-.182h-.094l-.093.001v.36h-.21zm.732-.07c.01-.01.018-.059.018-.11 0-.051-.008-.1-.018-.11-.013-.012-.094-.017-.27-.017h-.252v.255h.252c.176 0 .257-.005.27-.018zm.788.536a.116.116 0 0 1-.064-.07c-.02-.06-.023-.73-.003-.784a.165.165 0 0 1 .056-.065c.037-.024.082-.027.454-.027.228 0 .432.005.454.012a.132.132 0 0 1 .068.06c.023.042.026.093.026.416 0 .406-.003.422-.09.458-.072.03-.832.03-.901 0zm.79-.474v-.3l-.334.004-.334.004-.004.296-.004.296h.675zm.817.482a.211.211 0 0 1-.06-.046c-.029-.032-.03-.058-.035-.475l-.005-.442.102.004.102.004.004.394.004.394h.57v-.795h.21v.4c0 .417-.009.49-.062.538-.03.027-.062.03-.416.032a4.108 4.108 0 0 1-.415-.009zm1.447-.474v-.487h.386c.557 0 .549-.004.555.282.007.31-.004.317-.435.317h-.296v.375h-.21zm.705-.072c.032-.016.038-.03.042-.106.003-.051-.003-.096-.013-.108-.014-.017-.071-.021-.271-.021h-.253v.255h.228c.154 0 .241-.007.267-.02zm5.879-3.269c0-2.816.002-3.142.023-3.172l.023-.033h1.731c1.696 0 1.731 0 1.746.029.01.019.016.267.016.705v.676h-.705v-.705h-2.115v5.639h-.72zM.003 12.478c0-.311.006-.486.018-.525a.397.397 0 0 1 .184-.21c.052-.023.102-.027.353-.028.27 0 .297.002.344.031.102.062.146.155.162.341a.33.33 0 0 0 .033.14c.034.04.176.062.366.055.213-.01.21-.006.22-.234l.007-.175.092-.004.092-.004.005.172c.005.156.01.177.04.207l.034.034.61.005c.678.005.811 0 .862-.042.031-.025.035-.044.042-.197l.007-.17h.18l.007.177c.007.172.009.179.05.214.054.047.16.05.205.006.027-.027.03-.05.03-.218v-.189l.093.004.094.004.008.178c.007.172.01.179.05.214.032.027.06.036.114.036.104 0 .112-.016.121-.239l.008-.189.093-.004.094-.004.004.176c.004.171.005.176.045.206.038.028.063.03.28.031.31.001.299.01.305-.23l.004-.174.092-.004.092-.004.005.173c.006.22.015.23.186.243.134.01.237-.01.256-.05.007-.015.016-.101.02-.192l.008-.165h.18l.008.178c.007.172.01.178.05.213.03.026.06.037.106.037.112 0 .12-.016.13-.235l.007-.193h.18l.007.178c.007.172.01.178.05.213.03.026.06.037.106.037.112 0 .12-.016.13-.235l.006-.193h.18l.005.158a1.31 1.31 0 0 1-.012.237c-.03.136-.137.228-.266.227a.33.33 0 0 1-.205-.087c-.037-.042-.048-.041-.108.012-.112.098-.227.094-.363-.014l-.075-.059-.028.03c-.065.073-.125.088-.347.088-.186 0-.213-.003-.247-.03-.047-.037-.058-.037-.12 0-.043.027-.075.03-.316.03-.218 0-.277-.005-.32-.024-.029-.014-.056-.034-.06-.045-.005-.014-.025-.005-.069.032-.104.09-.218.088-.352-.003l-.08-.054-.04.04a.376.376 0 0 1-.23.084.312.312 0 0 1-.211-.087c-.053-.047-.054-.047-.08-.017-.063.07-.129.075-.912.075-.723 0-.735 0-.786-.032l-.052-.032-.057.032c-.052.029-.08.032-.312.032a1.77 1.77 0 0 1-.298-.016.333.333 0 0 1-.089-.061l-.046-.045-.026.039c-.043.065-.112.097-.208.097a.332.332 0 0 1-.255-.101c-.074-.072-.1-.164-.1-.344 0-.086-.007-.14-.016-.14-.035 0-.115.044-.15.082l-.037.04-.004.465-.004.463h-.18zm.802-.202c.042-.016.068-.09.068-.191 0-.123-.023-.155-.133-.175-.16-.03-.152-.038-.152.143 0 .148.002.16.037.195.037.037.122.05.18.028zm7.278.654a.528.528 0 0 1-.285-.268c-.027-.06-.032-.105-.038-.336l-.006-.266h.198v.24c0 .28.016.33.123.401.06.04.071.042.283.046.253.006.306-.01.384-.112l.042-.055.005-.358.005-.357h.196l-.005.364c-.005.355-.006.365-.044.446a.417.417 0 0 1-.196.218c-.08.044-.081.044-.35.047a2.25 2.25 0 0 1-.31-.01zm1.408-.055c-.018-.13-.029-.121.16-.128.18-.006.251-.03.32-.104.059-.063.066-.108.066-.449v-.329h.196l-.005.364c-.005.363-.005.363-.046.449a.527.527 0 0 1-.261.243.828.828 0 0 1-.245.024H9.5zm-4.373-.073v-.097h.195v.195h-.195zm.284 0v-.097h.195v.195h-.195zm8.954-.284a1.818 1.818 0 0 1-.145-.066l-.092-.046-.091.03c-.077.027-.12.03-.278.026-.182-.005-.189-.006-.231-.047l-.045-.042-.04.04c-.11.11-.332.106-.436-.009-.027-.03-.028-.03-.07.012-.042.04-.05.041-.197.041-.16 0-.214-.016-.291-.086l-.033-.03-.033.04c-.065.083-.07.084-.86.084-.691 0-.73-.001-.807-.03-.096-.036-.137-.077-.16-.158a4.497 4.497 0 0 1-.016-.528v-.469h.195v.431c0 .44.01.531.057.553.031.015 1.292.027 1.363.014a.09.09 0 0 0 .071-.119 3.38 3.38 0 0 0-.289-.316l-.414-.424-.135-.139h1.102v.195l-.315.004-.315.004.205.217c.391.415.507.53.558.55.063.027.204.03.232.007.014-.011.023-.064.028-.149.015-.261.127-.393.334-.393.202 0 .317.13.334.378.011.167.02.175.203.187l.146.01-.048-.093c-.094-.183-.048-.373.11-.454a.381.381 0 0 1 .275-.005l.045.023-.037-.038-.036-.04.074-.065.074-.066.073.07c.125.12.308.349.355.443.07.14.058.253-.038.366a.294.294 0 0 1-.243.107.526.526 0 0 1-.14-.02zm.221-.196c.056-.04.046-.135-.025-.242a.987.987 0 0 0-.105-.131l-.046-.044.015.051c.03.108.008.226-.055.29-.046.045-.045.046.033.075.079.029.143.029.183 0zm-1.284-.038c.066-.036.095-.202.052-.304-.039-.094-.176-.11-.25-.031-.032.034-.036.052-.036.159 0 .112.002.122.042.156.046.04.138.049.192.02zm.896-.132c.039-.036.047-.056.047-.11 0-.082-.03-.127-.1-.145-.097-.027-.155.02-.155.125 0 .063.034.12.088.15.056.03.068.028.12-.02zm-4.902-.28v-.592h.195v1.185h-.195zm-.99.09v-.098l.094.004.093.004.004.093.004.094h-.196zm-7.139-.42v-.097h.195v.195h-.195zm.285 0v-.097h.195v.195h-.195zm14.787-1.98c0-1.166.005-1.743.016-1.762.015-.028.05-.03 1.746-.03h1.731l.023.034c.02.03.024.122.024.705v.672h-.72v-.705h-2.115v2.82h-.705z"/></svg>