<svg role="img" viewBox="0 0 24 24" xmlns="http://www.w3.org/2000/svg"><path d="M10.962 23.549c-.243-.249-.988-1.003-1.654-1.676l-1.211-1.225-2.559.008c-1.407.004-2.542.003-2.522-.003.034-.01.038-.044.038-.314v-.303l1.226-.014a274.15 274.15 0 0 1 2.66-.014h1.435l.509.515 1.526 1.542 1.018 1.027 1.569-1.572 1.569-1.572 2.082.042c1.145.023 2.085.038 2.09.033.005-.005.062-1.069.126-2.364l.117-2.355.08-.073a616.48 616.48 0 0 0 2.835-2.74l.314-.31-1.576-1.496a939.415 939.415 0 0 0-1.69-1.603l-.113-.106.105-2.113.12-2.365.014-.252-.39.013c-.214.007-1.255.024-2.312.038l-1.922.025-.362-.37c-.2-.204-.942-.969-1.65-1.7L11.146.92 9.503 2.572 7.86 4.223l-2.069-.038a428.685 428.685 0 0 0-2.343-.04h-.274l.014 1.024.028 1.986.014.96h-.782l.07-.058.07-.058-.035-2.247a124.27 124.27 0 0 1-.025-2.257c.006-.006 1.148.01 2.538.035l2.527.046 1.781-1.788L11.155 0l.572.591.882.91 1.21 1.249.899.93.799-.014c1.087-.02 4.216-.065 4.223-.062.003.002-.019.48-.048 1.063-.03.583-.081 1.643-.116 2.355-.035.713-.07 1.383-.076 1.489l-.014.193.411.39c.226.216 1.048.997 1.828 1.736.78.74 1.417 1.348 1.417 1.351 0 .003-.657.64-1.46 1.415-.802.775-1.597 1.544-1.764 1.709l-.305.299-.127 2.536a419.77 419.77 0 0 1-.132 2.542 233 233 0 0 1-2.266-.04l-2.26-.044-1.697 1.7A158.07 158.07 0 0 1 11.419 24c-.007 0-.213-.203-.456-.451zm-1.08-3-1.376-1.393-2.726.015-2.726.015v-1.02l.08-.013c.043-.007.16-.014.261-.014h.182l-.009.065-.009.064 2.67-.015 2.67-.015 1.187 1.198 1.186 1.198 1.221-1.227 1.222-1.226.08.01c.115.015 3.146.063 3.158.05a82.7 82.7 0 0 0 .102-1.844l.091-1.833.14-.13c.354-.323 2.354-2.272 2.349-2.286a105.89 105.89 0 0 0-1.307-1.25l-1.3-1.236v-.099c0-.054.038-.88.086-1.837.047-.956.083-1.74.08-1.743a228.61 228.61 0 0 0-2.814.04l-.767.013L12.33 4.71l-1.28-1.324L9.763 4.67 8.476 5.954 6.738 5.92c-.956-.018-1.74-.031-1.742-.028a68.75 68.75 0 0 0-.02 1.1L4.96 8.088l-.255.014c-.14.008-.346.014-.457.014h-.2l.015-1.577c.01-.867.017-1.579.02-1.581.001-.002.906.013 2.01.035l2.005.039 1.476-1.484 1.476-1.484 1.465 1.52 1.465 1.519 1.046-.012 2.093-.026 1.048-.014-.008.125c-.016.256-.198 3.976-.198 4.039 0 .058.143.2 1.407 1.4l1.51 1.43.102.095-.326.32c-.178.176-.75.73-1.27 1.23l-1.142 1.103-.196.192-.105 2.089a93.177 93.177 0 0 1-.117 2.101c-.007.007-.851-.004-1.875-.024l-1.863-.037-1.408 1.413a278.54 278.54 0 0 1-1.414 1.413c-.003 0-.624-.626-1.381-1.392zm.796-1.67c-.209-.034-.502-.202-.68-.39-.072-.074-.072-.077-.022-.066.133.027.518.035.692.013a.906.906 0 0 0 .678-.382 7.51 7.51 0 0 0 .304-.46c.207-.332.507-.793.53-.814.027-.026-.019.536-.057.692-.186.76-.635 1.313-1.146 1.41-.128.024-.137.024-.299-.003zm-2.108-.926-.248-.25.186-.356.187-.356.28.319.28.319-.212.287a7.013 7.013 0 0 1-.219.287 8.08 8.08 0 0 1-.254-.25zm1.505.091a.436.436 0 0 1-.251-.253c-.046-.1-.05-.135-.049-.49.001-.413.06-1 .109-1.099a.365.365 0 0 0 .029-.067.647.647 0 0 0-.154.052c-.271.112-1.035.352-1.439.452-1.806.446-3.31.396-4.449-.146a3.64 3.64 0 0 1-.776-.517c-.115-.11-.129-.132-.123-.195.005-.055.024-.081.077-.112l.07-.04.164.074c1.532.696 3.622.72 5.763.067 1.446-.44 2.801-1.191 3.804-2.106.354-.323.71-.735.957-1.106.205-.31.191-.254.344-1.373.151-1.113.173-1.209.277-1.197.138.017.176.185.177.796.002 1.193-.235 1.892-.932 2.744-.258.315-.988 1.058-1.191 1.214-.483.367-1.254.81-2.01 1.152l-.174.078.046.084c.042.076.043.091.018.155-.156.381-.161.766-.012.889.029.024.039.025.046.003a.7.7 0 0 1 .22-.27c.17-.09.272.057.273.39 0 .18-.006.212-.066.334-.171.348-.513.57-.748.487zm3.74-.055c-.333-.054-.66-.373-.813-.795-.056-.152-.058-.174-.046-.4.036-.63.3-1.212.885-1.956.141-.179.167-.202.227-.202.068 0 .135.045.134.09-.001.045-.075.19-.232.45-.383.639-.473.989-.363 1.412.054.207.13.313.282.39.31.16.718.073 1.012-.215.087-.086.15-.131.173-.125.059.015.274-.026.358-.07a.669.669 0 0 0 .263-.287.293.293 0 0 1 .122-.133c.208-.12.324-.284.351-.496a.665.665 0 0 1 .034-.151c.028-.056.117-.047.157.015.105.16.078.387-.087.73-.133.277-.203.373-.351.482a.442.442 0 0 0-.138.154c-.087.208-.25.316-.443.294l-.11-.013-.178.194c-.443.48-.86.693-1.237.632zm-1.594-2.112a4.05 4.05 0 0 1-.206-.255c0-.006.106-.169.235-.362l.235-.351.038.049c.02.027.125.17.232.32l.194.27-.257.287c-.14.158-.258.287-.26.287a6.7 6.7 0 0 1-.211-.245zm-6.328-.797a.837.837 0 0 1-.62-.434 2.604 2.604 0 0 0-.149-.24.979.979 0 0 1-.18-.585c0-.134.097-1.028.114-1.048.01-.011.437-.078.445-.07.005.006-.009.101-.03.212a1.884 1.884 0 0 0-.02.652c.034.152.047.167.123.136.091-.038.165-.123.226-.262.053-.12.056-.122.138-.122.117 0 .18.08.164.206-.042.302-.22.634-.47.874l-.14.136.055.112c.165.338.573.276.994-.151.26-.264.447-.584.558-.96a1.26 1.26 0 0 0 .057-.43c0-.33-.029-.913-.047-.913-.008 0-.114.034-.236.075-.758.257-1.557.434-2.293.51-.424.044-1.294.034-1.603-.019-.824-.139-1.373-.368-1.903-.796-.243-.195-.28-.316-.126-.396.054-.028.07-.028.135 0a7.798 7.798 0 0 0 2.393.428 9.996 9.996 0 0 0 2.506-.258c.317-.071 1.056-.277 1.097-.305.012-.008.015-.209.008-.497a4.583 4.583 0 0 1 .002-.483c.008 0 .124.138.26.307.223.278.246.316.246.393 0 .047.008.086.018.086.05 0 .701-.285 1.038-.454 1.606-.805 2.879-1.963 3.331-3.03.076-.178.077-.182.066-.413a3.071 3.071 0 0 0-.076-.52 2.09 2.09 0 0 1-.065-.48c-.001-.323.065-.588.153-.616.058-.018.14.065.166.17.012.048.054.188.094.312.258.809.227 1.437-.105 2.11-.25.508-.541.88-1.282 1.629-.521.528-.676.655-1.21.992-.507.32-1.191.675-1.764.916l-.326.137.01.488.012.488.066.059c.036.032.085.059.107.059.077 0 .19-.127.282-.316a2.05 2.05 0 0 1 .313-.445c.347-.407.519-.513.832-.513.136 0 .884.115.908.14.02.02-.143.31-.26.468a5.9 5.9 0 0 1-.648.673l-.177.163-.05.2c-.167.655-.502 1.143-.925 1.347a1.6 1.6 0 0 1-.312.11 2.037 2.037 0 0 1-.684-.031l-.117-.033-.17.073c-.32.136-.677.198-.93.159zm1.792-.637c.16-.063.326-.179.516-.361l.168-.161-.091-.154c-.05-.084-.134-.2-.185-.257-.109-.121-.256-.19-.331-.154-.052.024-.319.506-.395.712-.06.165-.06.292.002.348.09.082.16.088.316.027zm1.413-1.615c.153-.047.296-.276.28-.448-.006-.061-.022-.078-.124-.13-.227-.117-.459-.045-.658.202a2.066 2.066 0 0 0-.133.184l-.037.064.133.065c.208.102.353.12.539.062zm.942 1.07c-.091-.046-.17-.192-.17-.313.002-.143.032-.237.285-.878.253-.64.476-1.247.533-1.448.028-.096.064-.15.202-.298l.168-.18v.097a3.28 3.28 0 0 1-.03.333c-.034.256-.046.487-.027.506.007.007.032.002.055-.01.062-.033.186-.029.26.008.105.055.157.184.157.393a.54.54 0 0 1-.07.323c-.133.273-.353.401-.683.4-.208 0-.29.035-.361.153-.107.174-.008.356.218.403.243.05 1.004-.07 1.81-.284.334-.088.413-.103.462-.084.075.028.073.05-.011.128-.05.046-.138.086-.313.141-.135.042-.417.142-.627.221-.644.243-.996.34-1.25.34a.856.856 0 0 0-.213.043c-.155.052-.297.054-.395.005zm5.51-.022c-.137-.03-.153-.196-.033-.346a1.54 1.54 0 0 0 .237-.477c.04-.179.025-.54-.042-.97-.06-.378-.06-.404-.03-.52.082-.314.24-.45.367-.315.06.063.072.139.109.677.052.748-.055 1.267-.352 1.709-.12.179-.199.254-.255.242zm-4.129-3.28a.368.368 0 0 1-.227-.172c-.043-.083-.045-.329-.003-.445l.028-.08.103.086c.125.103.186.12.299.087a.928.928 0 0 1 .183-.031c.112-.006.232-.072.274-.151.016-.03.036-.054.044-.054.022 0 .041.14.041.298 0 .254-.12.41-.324.416a.787.787 0 0 0-.204.038c-.104.038-.111.038-.214.009zm-4.362-.524-.25-.25.159-.317a5.9 5.9 0 0 1 .188-.354c.025-.033.054-.008.3.272.15.17.268.32.263.335a6.53 6.53 0 0 1-.21.295l-.2.27zm.269-1.979a.654.654 0 0 1-.238-1.046.655.655 0 0 1 .965-.01.59.59 0 0 1 .168.452c0 .135-.01.191-.05.27a.744.744 0 0 1-.316.318.75.75 0 0 1-.53.016zm.422-.308c.153-.079.217-.333.12-.474-.084-.123-.153-.161-.293-.161-.14 0-.21.038-.292.159-.082.12-.053.335.058.435.102.092.274.11.407.041zm7.699.322a.68.68 0 0 1-.41-.406.801.801 0 0 1 .03-.513.665.665 0 0 1 .855-.3c.514.239.52.947.01 1.188a.68.68 0 0 1-.485.03zm.293-.29a.367.367 0 0 0 .265-.338c0-.09-.07-.22-.151-.278a.365.365 0 0 0-.369-.015.355.355 0 0 0-.17.348c.017.12.112.231.234.274.104.037.09.036.19.009z"/></svg>