<svg viewBox="0 0 24 24" xmlns="http://www.w3.org/2000/svg" role="img"><path d="M11.457 15.73c-.19-.047-.334-.197-.303-.32.02-.076.133-.11.187-.053a.88.88 0 0 1 .068.089c.057.081.125.115.24.115.161.001.244-.079.193-.189-.02-.045-.082-.074-.253-.12-.27-.073-.386-.15-.416-.278-.026-.106.01-.205.105-.289.087-.076.166-.1.339-.1.101 0 .167.007.217.023.164.05.272.171.24.27-.018.052-.05.073-.118.073-.044 0-.06-.01-.134-.083-.095-.093-.152-.118-.239-.107-.11.016-.17.07-.152.14.013.052.07.081.268.136.275.075.377.135.42.247a.351.351 0 0 1-.018.256.398.398 0 0 1-.154.15c-.103.053-.351.073-.49.04zm.969-.02-.042-.037-.003-.68-.003-.68h.293v.434l.058-.053c.09-.083.156-.108.291-.108a.352.352 0 0 1 .361.232c.024.061.036.758.014.83-.019.064-.067.099-.135.099-.077 0-.12-.04-.133-.121a4.426 4.426 0 0 1-.011-.355 2.51 2.51 0 0 0-.015-.342c-.039-.14-.214-.176-.336-.068-.085.075-.087.083-.095.448-.007.357-.013.387-.077.42a.142.142 0 0 1-.166-.019zm1.601.019a.562.562 0 0 1-.353-.307c-.09-.241-.052-.505.097-.665a.609.609 0 0 1 .821-.037c.117.103.175.25.175.443 0 .295-.145.498-.404.565a.841.841 0 0 1-.336 0zm.276-.211a.319.319 0 0 0 .146-.155c.025-.056.03-.088.03-.2 0-.123-.002-.139-.038-.209-.066-.132-.169-.181-.317-.154-.06.012-.143.087-.175.16a.726.726 0 0 0-.023.34c.045.187.207.28.377.218zm.743.196a.188.188 0 0 1-.052-.079 8.795 8.795 0 0 1 0-.957c.02-.07.068-.103.139-.095.066.007.109.048.122.117l.008.045.051-.047c.178-.16.456-.153.581.015l.032.042.057-.055a.36.36 0 0 1 .292-.114c.162 0 .264.058.325.18.022.044.024.081.024.478v.43l-.041.036c-.066.058-.17.048-.215-.022-.02-.03-.024-.076-.03-.403-.006-.343-.008-.372-.032-.414-.07-.118-.256-.079-.318.067-.019.045-.024.106-.03.384-.007.345-.01.366-.067.406-.06.042-.166.017-.203-.048-.012-.02-.018-.134-.023-.396-.006-.342-.008-.371-.032-.413-.035-.059-.097-.08-.182-.062-.138.03-.166.112-.167.487 0 .147-.005.293-.011.324-.023.116-.143.166-.228.095zm2.035.011c-.144-.051-.221-.158-.221-.303 0-.089.034-.165.098-.222.064-.056.107-.071.337-.12.11-.024.232-.052.27-.063l.067-.02-.007-.047c-.018-.115-.056-.155-.164-.173a.419.419 0 0 0-.233.042.475.475 0 0 0-.074.079c-.074.098-.077.1-.122.1-.065 0-.122-.052-.122-.112 0-.109.092-.212.238-.27.064-.026.096-.03.264-.03.234 0 .309.018.392.098.086.083.098.136.11.498.007.223.014.325.03.379.025.086.02.11-.032.154-.073.061-.154.034-.228-.075-.017-.025-.036-.045-.041-.045a.189.189 0 0 0-.052.031.908.908 0 0 1-.127.072.571.571 0 0 1-.383.027zm.425-.215c.074-.047.112-.12.123-.244l.009-.094-.03.007-.184.041a1.284 1.284 0 0 0-.2.06c-.13.065-.093.244.056.275a.348.348 0 0 0 .225-.046zm1.298.217c-.062-.044-.065-.072-.065-.57 0-.394.003-.472.02-.507.056-.12.227-.079.243.06l.006.059.056-.058a.444.444 0 0 1 .565-.052c.034.026.07.07.093.117l.038.074.004.375c.004.252 0 .391-.009.423-.026.088-.118.125-.202.081-.065-.033-.07-.06-.078-.445-.006-.306-.01-.361-.03-.397-.057-.107-.214-.12-.32-.026-.085.075-.087.083-.095.448-.007.357-.013.387-.077.42-.047.024-.113.023-.15-.002zm1.598 0a.51.51 0 0 1-.383-.4 1.02 1.02 0 0 1 .026-.416.496.496 0 0 1 .293-.295.81.81 0 0 1 .37-.024.48.48 0 0 1 .38.402c.02.119 0 .178-.07.213-.046.023-.085.026-.386.03l-.335.006.006.06c.007.08.06.17.126.213.04.026.071.035.137.039.11.006.164-.018.292-.124.086-.073.098-.079.14-.072.054.008.076.036.076.097 0 .09-.109.2-.252.255a.916.916 0 0 1-.42.017zm.419-.676a.456.456 0 0 0-.02-.09.248.248 0 0 0-.182-.177c-.163-.035-.29.06-.314.233l-.008.057h.262c.245 0 .262 0 .262-.023zm.787.68a.193.193 0 0 1-.058-.056 15.56 15.56 0 0 1-.33-.947c-.024-.103.107-.19.194-.13.035.025.057.086.17.473.05.177.096.317.1.311.005-.005.05-.155.1-.333.11-.383.125-.422.18-.451a.17.17 0 0 1 .19.028c.04.04.063.106.172.496.041.148.078.27.082.27.003 0 .055-.167.114-.372.12-.413.134-.44.222-.44.037 0 .057.009.09.043.025.024.043.055.043.073 0 .027-.226.708-.299.9-.041.11-.075.141-.161.149-.06.005-.073 0-.109-.03-.053-.044-.056-.053-.167-.435-.051-.176-.097-.314-.102-.304-.006.009-.047.15-.094.314-.093.33-.13.42-.179.443a.22.22 0 0 1-.158-.001zm1.704-.002c-.137-.039-.226-.102-.269-.189-.037-.077-.034-.129.011-.174.058-.058.115-.052.169.016.1.127.14.159.217.175.205.042.36-.089.247-.211-.028-.03-.08-.052-.245-.098-.176-.049-.25-.08-.31-.131-.178-.152-.114-.407.126-.502a.869.869 0 0 1 .459 0c.18.062.278.21.198.3-.027.03-.054.037-.122.034-.02 0-.058-.03-.108-.082-.1-.104-.181-.131-.288-.095-.105.035-.134.12-.063.18.038.032.084.048.275.097.278.07.393.17.391.338-.002.154-.084.262-.245.324a1.029 1.029 0 0 1-.443.018zm-16.64-.261a.82.82 0 0 1-.66-.596 1 1 0 0 1-.001-.4.834.834 0 0 1 .529-.566.664.664 0 0 1 .258-.03.63.63 0 0 1 .248.03c.256.09.46.308.526.565a1.03 1.03 0 0 1 0 .395.832.832 0 0 1-.57.581.926.926 0 0 1-.33.02zm.325-.345c.13-.06.23-.176.27-.314.022-.074.027-.191.01-.191-.007 0-.014-.031-.018-.068-.014-.136-.112-.26-.261-.33-.077-.036-.097-.04-.206-.04-.109 0-.128.004-.205.04a.493.493 0 0 0-.233.224.687.687 0 0 0-.052.303c.02.174.163.34.342.399a.623.623 0 0 0 .353-.023zm1.402.345a.82.82 0 0 1-.661-.596 1 1 0 0 1 0-.4.834.834 0 0 1 .528-.566.664.664 0 0 1 .26-.03.63.63 0 0 1 .247.03c.256.09.46.308.526.565a1.05 1.05 0 0 1 0 .395.832.832 0 0 1-.57.581.926.926 0 0 1-.33.02zm.324-.345c.13-.06.23-.176.27-.314.022-.074.028-.191.01-.191-.006 0-.014-.031-.018-.068-.014-.136-.112-.26-.26-.33-.077-.036-.097-.04-.206-.04-.11 0-.129.004-.206.04a.493.493 0 0 0-.232.224.687.687 0 0 0-.053.303c.02.174.163.34.342.399a.623.623 0 0 0 .354-.023zM0 14.803v-.604h.124a1.6 1.6 0 0 0 .454-.06 1.3 1.3 0 0 0 .88-1.036c.01-.067.015-.601.015-1.641V9.92h1.206v1.6c0 1.728 0 1.73-.07 2.012-.191.787-.805 1.452-1.593 1.726-.245.085-.482.125-.841.14L0 15.407zm.643.132c.68-.138 1.303-.687 1.522-1.338.105-.315.109-.387.105-1.944l-.003-1.32h-.381l-.008 1.428c-.006 1.287-.01 1.437-.028 1.517a1.672 1.672 0 0 1-.466.832c-.25.251-.524.4-.857.467l-.114.023-.004.187-.003.188.06-.009a3.02 3.02 0 0 0 .178-.032zm2.696-.271v-.605h.18c.301 0 .501-.057.722-.205.14-.093.328-.289.41-.426.065-.11.13-.28.143-.375l.008-.058-.335-.005c-.308-.005-.345-.009-.462-.039a1.59 1.59 0 0 1-.875-.572 1.535 1.535 0 0 1-.341-1.01c0-.466.153-.849.466-1.161a1.528 1.528 0 0 1 1.063-.461 1.61 1.61 0 0 1 1.176.417c.17.148.333.372.414.565.097.232.134.457.134.814v.244h.877V9.794h1.206v.38c0 .406.012.579.05.73.108.42.41.746.786.848.079.021.147.027.367.032l.27.006V9.794h1.218v3.2h-.872c-.721 0-.894-.004-1.004-.02a1.898 1.898 0 0 1-.686-.243 1.655 1.655 0 0 0-.124-.068 1.21 1.21 0 0 0-.006.165v.165l-1.044.004L6.038 13l-.022.152a2.29 2.29 0 0 1-.651 1.324 2.481 2.481 0 0 1-1.788.787l-.238.007zm.758.112c.353-.093.647-.268.937-.558.194-.195.299-.337.4-.546.137-.283.177-.46.186-.822l.007-.264h2.091v-.374c0-.206.004-.375.008-.375s.083.06.174.132c.477.376.68.497.954.567.166.042.32.05.94.05h.603V10.2h-.38l-.004.997-.003.997h-.463c-.509-.002-.599-.01-.795-.077-.491-.167-.874-.623-.996-1.188a2.097 2.097 0 0 1-.034-.428l-.006-.302-.192.003-.192.003-.004.997-.003.997-.847-.004-.848-.003-.007-.517c-.008-.556-.01-.567-.085-.763a1.266 1.266 0 0 0-.489-.57 1.245 1.245 0 0 0-1-.142 1.2 1.2 0 0 0-.78.733c-.104.298-.089.675.038.95.148.321.442.57.778.661.122.033.13.034.641.038l.517.006v.059c0 .3-.05.59-.136.79a1.586 1.586 0 0 1-.4.567 1.668 1.668 0 0 1-.87.448l-.092.015v.18c0 .1.004.185.007.188.01.01.215-.025.345-.06zm.11-2.615a.89.89 0 0 1-.271-.123 2.294 2.294 0 0 1-.125-.115.72.72 0 0 1-.218-.553c0-.394.218-.7.578-.81a.755.755 0 0 1 .234-.022c.137 0 .174.005.263.034.13.043.23.11.345.23a.863.863 0 0 1 .193.318c.012.037.019.193.024.556l.007.504h-.476c-.344-.001-.497-.006-.553-.019zm.617-.626c0-.293-.01-.338-.103-.44-.1-.109-.158-.138-.291-.144-.133-.006-.213.016-.287.08-.126.107-.177.339-.11.502.037.09.175.204.277.229.021.005.145.01.276.01l.238.002zm7.96 2.422a2.758 2.758 0 0 1-.476-.102c-.661-.221-1.133-.75-1.313-1.474-.085-.34-.081-.26-.086-2.032l-.004-1.61.606.004.607.003.008 1.612c.007 1.729.004 1.647.07 1.842.066.2.206.36.4.454.184.091.263.104.646.103.294 0 .333-.003.425-.029.215-.06.393-.182.552-.378a1.59 1.59 0 0 0 .261-.5c.103-.297.208-.47.399-.66.312-.311.68-.46 1.137-.461.204 0 .337.02.524.085.147.05.204.078.34.167.302.195.542.492.658.815.072.201.097.39.097.74v.228h.571l.003-1 .003-1h1.206l.008.476c.006.433.01.485.034.573.09.325.34.632.653.804.081.045.28.116.344.124l.035.004.003-.99.003-.99h1.206l.008.482c.006.437.01.491.034.578.06.222.17.41.33.57.18.18.4.3.628.342l.06.01.004-.99.003-.993.6-.003.6-.003v3.212h-.584c-.444 0-.617-.004-.727-.019a2.416 2.416 0 0 1-.8-.248l-.15-.074v.341h-.589c-.635 0-.755-.008-1.003-.069a2.366 2.366 0 0 1-.515-.19 22.47 22.47 0 0 0-.168-.081.723.723 0 0 0-.01.168v.173l-1.799-.004-1.8-.005-.146-.033a1.627 1.627 0 0 1-.525-.22 1.992 1.992 0 0 1-.344-.285c-.005 0-.063.042-.13.093-.308.234-.533.34-.877.416-.108.024-.171.027-.523.03a7.016 7.016 0 0 1-.495-.007zm.944-.43c.232-.05.426-.137.623-.278a8.93 8.93 0 0 0 .49-.405l.046-.04.1.155c.206.315.448.491.783.57.118.027.128.028 1.677.032l1.558.004v-.381c0-.21.004-.382.008-.382s.105.079.225.175c.12.096.267.206.326.243.211.135.49.25.729.299.163.034.325.044.67.045h.328v-.387c0-.213.003-.387.008-.387.004 0 .093.071.197.159.253.214.37.296.55.386.364.182.638.234 1.207.226l.304-.004.004-1.19.003-1.19h-.381v1.996l-.245-.007c-.261-.008-.372-.026-.555-.092a1.714 1.714 0 0 1-.905-.802c-.128-.247-.172-.45-.183-.832l-.008-.264h-.377v1.997l-.238-.007c-.27-.007-.385-.028-.578-.105a1.751 1.751 0 0 1-1.057-1.25 2.956 2.956 0 0 1-.027-.364l-.007-.27h-.377v1.993h-1.41v-.48c0-.492-.005-.565-.053-.713a1.121 1.121 0 0 0-.325-.498 1.113 1.113 0 0 0-.879-.337 1.106 1.106 0 0 0-.468.112c-.31.147-.505.382-.63.755a1.804 1.804 0 0 1-.67.93 1.71 1.71 0 0 1-.415.188c-.114.032-.14.034-.467.04-.487.008-.643-.017-.898-.143-.22-.11-.4-.276-.511-.476a1.796 1.796 0 0 1-.16-.47c-.024-.128-.025-.19-.03-1.527l-.004-1.393h-.38v1.355c0 1.44.002 1.48.063 1.736.083.353.252.655.49.881.209.199.46.325.778.39.168.034.31.042.637.037.256-.004.333-.01.435-.031zm2.09-.377a.891.891 0 0 1-.61-.614 1.167 1.167 0 0 1 .006-.418.785.785 0 0 1 .403-.495c.326-.16.745-.105.98.13a.861.861 0 0 1 .203.326c.026.078.028.106.032.587l.004.504h-.474c-.37-.001-.488-.006-.543-.02zm.608-.65c-.004-.253-.005-.265-.038-.334a.359.359 0 0 0-.196-.193c-.196-.064-.39-.023-.502.104-.066.075-.092.166-.084.294.006.112.036.176.125.265.11.109.173.126.466.127l.233.001zm3.475-1.996a.82.82 0 0 1-.661-.596.998.998 0 0 1 0-.4.834.834 0 0 1 .529-.566.664.664 0 0 1 .258-.03.63.63 0 0 1 .248.03.872.872 0 0 1 .44.356c.02.035.039.064.042.064a.294.294 0 0 0 .042-.063.852.852 0 0 1 .442-.357.664.664 0 0 1 .26-.03.63.63 0 0 1 .247.03.875.875 0 0 1 .44.355l.036.064.035-.063a.853.853 0 0 1 .442-.356.664.664 0 0 1 .26-.03.63.63 0 0 1 .247.03c.256.09.46.308.526.565a1.05 1.05 0 0 1 0 .395.834.834 0 0 1-.577.584.984.984 0 0 1-.403.002.833.833 0 0 1-.494-.372.402.402 0 0 0-.036-.055.69.69 0 0 0-.049.074.87.87 0 0 1-.478.352.984.984 0 0 1-.403.002.833.833 0 0 1-.501-.386.2.2 0 0 0-.035-.054.45.45 0 0 0-.05.077.858.858 0 0 1-.477.358.926.926 0 0 1-.33.02zm.325-.345c.13-.06.23-.176.27-.314.021-.074.027-.191.01-.191-.007 0-.015-.03-.019-.068-.014-.136-.111-.26-.26-.33-.077-.036-.097-.04-.206-.04-.109 0-.129.004-.206.04a.493.493 0 0 0-.232.224.687.687 0 0 0-.053.303c.02.174.164.34.342.399a.623.623 0 0 0 .354-.023zm1.472 0c.13-.06.23-.176.27-.314.022-.074.028-.191.01-.191-.006 0-.014-.03-.018-.068-.014-.136-.112-.26-.26-.33-.077-.036-.097-.04-.206-.04-.11 0-.129.004-.206.04a.493.493 0 0 0-.232.224.687.687 0 0 0-.053.303c.02.174.163.34.342.399a.623.623 0 0 0 .354-.023zm1.46 0c.13-.06.23-.176.27-.314.022-.074.028-.191.01-.191-.006 0-.014-.03-.018-.068-.014-.136-.112-.26-.26-.33-.077-.036-.097-.04-.206-.04-.11 0-.129.004-.206.04a.493.493 0 0 0-.232.224.687.687 0 0 0-.053.303c.02.174.163.34.342.399a.623.623 0 0 0 .354-.023zM8.807 9.938a.807.807 0 0 1-.601-.543.904.904 0 0 1-.013-.458.842.842 0 0 1 .427-.512.8.8 0 0 1 1.078.365.807.807 0 0 1-.891 1.147zm.375-.344a.494.494 0 0 0 .285-.404c.005-.057.004-.083-.005-.078-.009.005-.016-.023-.02-.074-.008-.101-.046-.17-.142-.258a.427.427 0 0 0-.325-.12.456.456 0 0 0-.18.028.58.58 0 0 0-.244.209.42.42 0 0 0-.053.226c.006.034.005.037-.005.017-.01-.019-.011-.005-.007.056.022.26.243.453.51.441a.4.4 0 0 0 .186-.043zm-7.233.25a.82.82 0 0 1-.66-.596 1 1 0 0 1-.001-.4.834.834 0 0 1 .53-.566.662.662 0 0 1 .258-.03.63.63 0 0 1 .247.029c.257.09.46.309.527.566a1.05 1.05 0 0 1 0 .395.832.832 0 0 1-.571.581.926.926 0 0 1-.33.02zm.325-.345c.13-.06.23-.176.27-.314.022-.074.028-.191.01-.191-.006 0-.014-.031-.018-.069-.014-.135-.112-.259-.26-.329-.078-.037-.097-.04-.206-.04-.11 0-.129.004-.206.04a.493.493 0 0 0-.233.224.689.689 0 0 0-.052.303c.02.174.163.34.342.399a.623.623 0 0 0 .353-.023z"/></svg>