<svg viewBox="0 0 24 24" xmlns="http://www.w3.org/2000/svg" role="img"><path d="M12.019 1.469c1.222 0 2.213 1.001 2.213 2.237 0 1.236-.992 2.238-2.213 2.238a2.226 2.226 0 0 1-2.215-2.238c0-1.236.992-2.237 2.215-2.237zM17.172 0a2.226 2.226 0 0 1 2.215 2.238 2.226 2.226 0 0 1-2.215 2.238c-1.222 0-2.213-1.002-2.213-2.238S15.95 0 17.172 0zM7.297 3.758c1.222 0 2.214 1.002 2.214 2.239 0 1.235-.992 2.237-2.214 2.237a2.227 2.227 0 0 1-2.215-2.237c0-1.237.992-2.239 2.215-2.239zm4.674 13.998.034-3.535c.147-.008 1.623-.066 2.53.392.333.167.367.383.367.611 0 1.062-2.868 2.577-3.15 2.721C8.12 19.798 3 20.113 3 20.113L3.048 24c2.191-.304 6.144-.75 10.914-3.335 2.359-1.278 4.912-3.382 4.436-6.394-.46-2.906-3.503-3.725-6.37-3.6l-.033 3.537c-.145.007-1.622.065-2.53-.392-.332-.167-.366-.383-.366-.611 0-1.062 2.867-2.578 3.15-2.721C15.88 8.63 21 8.316 21 8.316l-.048-3.888c-2.192.305-6.144.751-10.913 3.335-2.36 1.278-4.912 3.383-4.436 6.395.46 2.906 3.503 3.724 6.368 3.598z"/></svg>