<svg viewBox="0 0 24 24" xmlns="http://www.w3.org/2000/svg" role="img"><path d="M.014.34 0 9.58c.018 3.247 2.774 6.312 5.534 6.664H.1c.114 4.457 2.525 7.222 6.58 7.416H24v-9.517c-.047-3.058-2.695-5.93-5.51-6.347l5.46.01c-.09-3.878-2.594-7.3-6.62-7.466zM17.34 1.616c3.13.336 4.606 2.28 5.253 4.89l-5.922.001v1.997c3.934.444 5.764 2.744 6.025 5.689v8.156l-15.97.013c-4.008-.609-4.892-2.961-5.146-4.865h5.756v-2.014c-3.306-.318-5.881-2.606-6.03-5.867l.002-7.997zM7.54 9.58H5.82v4.573h1.72zm1.088 0v2.57c.003.264-.112.409-.348.435h-.348v1.567c1.276.043 2.142-.542 2.417-1.69V9.58zm2.069 0v4.573h1.699V9.58zm5.465 0c-1.124.082-2.084.428-2.46 1.72-.182.9-.436 1.279-1.002 1.285v1.568c1.173-.063 2.12-.457 2.439-1.764.124-.843.436-1.272 1.023-1.262zm.296 0v4.573h1.7V9.58z" fill="#231f20"/></svg>