<svg viewBox="0 0 24 24" xmlns="http://www.w3.org/2000/svg" role="img"><path d="M5.835 23.994c3.635-.003 9.583-.003 13.218 0s.661.006-6.61.006c-7.27 0-10.244-.003-6.608-.006zm8.211-.96a.66.66 0 0 1-.266-.157c-.037-.04-.04-.234-.038-2.922 0-1.877.009-2.929.024-3.024.076-.473.382-.589.573-.218.11.214.108.139.108 3.16v2.842l.049.094c.047.092.047.096.006.127a.627.627 0 0 1-.456.098zm2.161-.094a.883.883 0 0 1-.4-.428l-.073-.152-.006-1.132c-.005-.98-.01-1.133-.04-1.133-.026 0-.033-.038-.033-.188 0-.104-.007-.304-.015-.445-.015-.25-.014-.258.034-.27.046-.013.05-.027.05-.24 0-.211-.004-.226-.043-.213-.042.013-.044-.03-.058-1.348-.008-.748-.02-1.544-.028-1.767-.014-.4-.013-.405.035-.418.06-.015.06-.022 0-.171-.042-.109-.046-.158-.04-.519.007-.333.015-.413.05-.484.064-.128.166-.11.234.04.01.025.02.565.02 1.207v1.16l.079.115c.21.302.374.334.57.11.152-.173.158-.206.159-.85 0-.32-.006-1.297-.015-2.173l-.015-1.591-.188-.138c-.626-.46-1.262-.77-1.9-.928-.188-.046-.272-.053-.66-.054-.408 0-.463.004-.683.06-.31.08-.583.195-.882.375-.133.08-.25.145-.26.145-.01 0-.02-.511-.02-1.136V9.238l.158-.148c1.682-1.586 3.526-1.676 5.656-.276.16.105.298.191.307.191a.74.74 0 0 0 .102-.176c.081-.167.087-.193.1-.464l.015-.287-.06-.015a.446.446 0 0 0-.147 0c-.078.012-.09.007-.114-.048-.024-.053-.02-.087.03-.236.06-.18.06-.206 0-.509-.004-.027.039-.068.138-.134.119-.077.15-.11.173-.183.018-.063.058-.113.136-.173a.716.716 0 0 0 .11-.094c0-.006-.071-.198-.159-.428-.132-.345-.16-.44-.16-.551v-.134l-.174-.185c-.16-.17-.183-.186-.285-.2-.06-.008-.116-.022-.122-.032-.006-.01.15-.105.348-.21.666-.358 1.216-.672 1.25-.714.053-.067.771.753 1.163 1.328.895 1.314 1.41 2.83 1.478 4.347l.016.35h-1.612c-1.11 0-1.638-.007-1.696-.024l-.084-.026-.072-.276-.072-.277.01 2.458.011 2.457-.073.15c-.138.28-.323.41-.516.361-.116-.029-.29-.208-.384-.395l-.068-.135.02-1.329c.024-1.466.02-1.517-.109-1.619-.053-.042-.066-.043-.108-.016a.362.362 0 0 0-.09.143c-.037.098-.042.179-.04.68.003.979.026 3.091.04 3.764l.014.644.096-.056c.09-.053.106-.055.25-.035.085.012.247.044.359.07a.744.744 0 0 0 .412.016c.194-.031.216-.03.317.008.06.023.134.041.165.041.03 0 .061.01.068.021.031.051-.836.686-1.37 1.004-.212.126-.28.178-.281.214-.003.097.005.412.01.418.012.01.475-.25.738-.415.546-.343 1.167-.82 1.576-1.21.097-.093.182-.168.19-.168.008 0 .015.015.015.034 0 .04.012.041.195.009.158-.028.226-.006.37.119a.355.355 0 0 0 .091.065c.035 0 .095-.135.095-.213 0-.066.02-.1.101-.18.128-.126.143-.187.094-.369l-.039-.143.059-.116a.494.494 0 0 0 .059-.251v-.136l.165-.028c.144-.024.577-.173.644-.22a.48.48 0 0 0 .124-.279c0-.072.015-.1.086-.162.12-.104.168-.193.16-.29-.008-.088-.032-.102-.226-.128-.089-.012-.11-.026-.146-.09l-.04-.077.143-.315a8.8 8.8 0 0 0 .742-2.57c.05-.353.069-1.382.034-1.792a8.564 8.564 0 0 0-.89-3.15c-.624-1.262-1.51-2.344-2.675-3.27-1.49-1.183-3.426-1.986-5.397-2.239-.979-.125-2-.125-2.994 0-1.66.21-3.31.814-4.665 1.71-.182.12-.31.19-.348.19-.042 0-.08.022-.117.07-.048.062-.066.069-.155.062-.084-.006-.105-.017-.13-.07-.034-.07-.046-.073-.13-.036-.05.023-.068.02-.125-.022-.09-.068-.163-.063-.328.022-.076.04-.18.093-.23.117-.177.088-.199.19-.058.272.111.063.116.074.131.303.016.236-.003.273-.298.58a9.008 9.008 0 0 0-2.5 5.271c-.047.39-.04 1.517.01 1.913.215 1.669.843 3.16 1.903 4.509.586.746 1.453 1.54 2.292 2.099a11.114 11.114 0 0 0 4.611 1.748c.495.072.994.103 1.622.104h.632v.871l-.768-.013c-.797-.013-1.173-.042-1.805-.14-2.958-.459-5.588-1.951-7.364-4.177C1.636 14.997.916 13.369.67 11.749.139 8.255 1.568 4.812 4.508 2.5 5.944 1.372 7.81.537 9.655.196 10.56.029 10.924-.001 12.023 0c1.012 0 1.314.023 2.071.15 3.64.607 6.759 2.8 8.302 5.838a9.248 9.248 0 0 1 1.04 4.577 9.23 9.23 0 0 1-.973 3.939c-.999 2.042-2.772 3.788-4.927 4.854l-.316.156.015.649c.008.357.015.997.016 1.423 0 .658-.004.79-.035.876a.912.912 0 0 1-.242.375.588.588 0 0 1-.456.172.54.54 0 0 1-.31-.069zm-1.885-12.148c.204-.054.395-.165.56-.329a1.209 1.209 0 0 0-.045-1.76 1.143 1.143 0 0 0-.811-.313 1.212 1.212 0 0 0-1.164 1.613c.134.381.46.686.84.789.16.043.455.043.62 0zm-3.244 8.54a11.853 11.853 0 0 1-1.446-.216c-1.364-.326-2.366-.739-3.427-1.412a7.388 7.388 0 0 1-.598-.418c-.356-.263-.976-.796-.95-.819.06-.054 1.238-.663 1.65-.852.58-.267.703-.32 1.217-.52.205-.08.391-.147.413-.147.027 0 .08.076.167.239.634 1.187 1.563 2.368 2.631 3.346.328.3.73.646.874.753.033.025.06.053.06.063 0 .023-.193.017-.591-.018zm.82.025c0-.005.064-.061.142-.124.079-.062.24-.196.359-.298l.216-.184.006.288c.005.216-.001.294-.023.308-.03.018-.701.028-.701.01zm-.479-.371a14.152 14.152 0 0 1-2.474-2.649c-.359-.502-.87-1.375-.844-1.442.01-.025.548-.208.89-.304.393-.109.816-.211 1.305-.315.038-.008.082.027.208.17.153.172.16.186.186.347.015.092.035.182.044.2.016.03.653.251.724.251.023 0 .03.125.03.6v.598l.065.102a.975.975 0 0 0 .125.156l.06.055v1.225c0 .673-.008 1.229-.017 1.234-.01.006-.145-.097-.302-.228zm.433-.972v-1.216l.08-.015c.116-.022.237-.14.31-.303.062-.135.065-.158.065-.472v-.33h.32v.312l-.105.012a.35.35 0 0 0-.118.027c-.031.03.053.058.137.045l.085-.014v2.526l-.165.147c-.203.18-.584.496-.599.496-.006 0-.01-.547-.01-1.215zM4.32 16.136a8.296 8.296 0 0 1-.616-.735 8.505 8.505 0 0 1-1.562-3.424 9.74 9.74 0 0 1-.174-1.486v-.12h4.58l.096.093a.67.67 0 0 0 .142.112c.042.017.05.051.076.402.06.783.15 1.286.382 2.126.103.375.35 1.03.547 1.454.11.236.117.272.059.291-.138.048-.815.32-1.053.424-.647.283-1.368.637-1.95.958a4.615 4.615 0 0 1-.289.152c-.007 0-.114-.111-.237-.247zm8.075-1.126c-.07-.047-.079-.066-.092-.188a7.061 7.061 0 0 1-.017-.484c-.002-.34-.001-.35.053-.404.074-.074.138-.07.22.01l.066.067v1.051h-.076a.33.33 0 0 1-.154-.052zm-4.46-.398a10.457 10.457 0 0 1-.97-3.723.984.984 0 0 1-.002-.222c.018 0 .133.173.212.32.073.133.122.332.122.494 0 .118.044.213.117.253.098.052.156.165.156.303 0 .188.054.323.158.392a.632.632 0 0 1 .152.16c.057.091.084.11.202.147.11.035.149.06.198.131.067.098.118.105.184.028.06-.07.049-.112-.062-.224-.057-.057-.102-.124-.102-.153-.002-.093.07-.234.137-.269.092-.048.116-.043.222.048l.095.082-.045.064c-.071.1-.061.219.025.299.039.036.082.066.096.065a.718.718 0 0 0 .15-.068.434.434 0 0 1 .338-.053c.04.01.05.03.051.096 0 .046.014.11.032.143.054.104.329.376.424.418.075.034.095.058.116.135.045.168.093.295.13.347.034.045.052.05.155.038.102-.012.12-.007.142.033.02.036.015.07-.021.157l-.046.11-.256.053c-.511.104-1.17.282-1.695.458a2.76 2.76 0 0 1-.309.092c-.02 0-.064-.064-.107-.153zm1.836-.7c.012-.037-.08-.17-.117-.17-.041 0-.047.094-.01.162.024.046.113.052.127.009zm-.205-.387c.013-.036-.028-.102-.063-.102-.024 0-.028.099-.005.121.025.025.053.017.067-.02zm11.649.137c-.054-.061-.431-.256-.722-.373-.219-.088-.469-.266-.547-.39a.613.613 0 0 0-.123-.139.406.406 0 0 1-.115-.181c-.03-.085-.064-.138-.093-.147a.742.742 0 0 1-.164-.138.739.739 0 0 0-.218-.162c-.116-.044-.131-.068-.153-.242-.015-.12-.01-.145.056-.273a4.8 4.8 0 0 1 .282-.437c.198-.28.312-.491.312-.582 0-.027-.054-.068-.165-.125a3.359 3.359 0 0 1-.175-.093c-.005-.005.588-.008 1.319-.008h1.328l-.016.335a8.902 8.902 0 0 1-.265 1.724c-.13.491-.424 1.288-.475 1.288-.01 0-.04-.025-.066-.056zM1.969 10.127c0-.141.052-.728.09-1.008.15-1.143.655-2.445 1.344-3.472.286-.427.797-1.058 1.066-1.318l.09-.087.01.144a.61.61 0 0 0 .133.361c.074.092.081.205.017.273-.13.139-.134.155-.071.27.031.058.09.131.132.162a.55.55 0 0 1 .127.154.547.547 0 0 0 .123.15c.039.031.1.11.136.175.059.107.063.127.04.204-.039.128-.032.405.012.528.037.105.04.108.181.143.079.02.2.036.267.036h.125l.015.093a.883.883 0 0 1 0 .216.456.456 0 0 0 .014.202c.026.07.023.091-.024.19-.04.088-.049.133-.036.205.014.084.007.104-.077.218-.113.153-.131.165-.182.12-.043-.04-.093-.045-.202-.024-.059.012-.074.03-.1.12-.042.148-.026.296.04.375.064.076.066.096.019.21-.06.144-.03.224.151.396.127.121.158.163.158.219 0 .052.016.078.068.109.087.052.107.129.055.217-.038.064-.038.073 0 .17a.797.797 0 0 0 .126.202l.088.098.27-.003c.256-.003.302.007.303.066 0 .009-1.014.017-2.254.017H1.97v-.131zm12.985-2.398a1.558 1.558 0 0 1-1.226-1.183 1.578 1.578 0 0 1 .177-1.09c.126-.214.387-.456.611-.567.271-.134.454-.172.763-.16.282.012.49.072.71.204.558.338.848 1.02.694 1.636a1.411 1.411 0 0 1-.413.729 1.4 1.4 0 0 1-.672.398 1.93 1.93 0 0 1-.644.033zM9.86 5.842a2.572 2.572 0 0 1-.414-.26l-.187-.15.013-.147c.013-.137.01-.148-.042-.182-.098-.065-.187-.069-.329-.016l-.132.05-.058-.069c-.053-.063-.061-.066-.102-.036-.05.037-.14.045-.16.013-.02-.034.332-.582.646-1.004a14.012 14.012 0 0 1 2.232-2.337c.28-.23.376-.303.395-.304.009 0 .015.93.011 2.066l-.006 2.066-.318.109c-.176.06-.411.151-.524.204-.204.096-.206.096-.501.102l-.296.006zm1.654.08c-.017-.02-.026-.045-.022-.056.013-.034.219-.183.234-.169a.365.365 0 0 1 .013.124c0 .078-.009.11-.031.11a.68.68 0 0 0-.098.013c-.046.01-.076.002-.096-.022zm.339-.215c0-.093.01-.122.05-.15l.051-.036h-.101v-2.06c0-1.134.008-2.061.017-2.061.065 0 1.11.922 1.463 1.29.493.513 1.093 1.219 1.093 1.286 0 .027-.012.025-.15-.018l-.12-.038-.1.077a1.056 1.056 0 0 0-.179.185c-.047.066-.09.104-.111.098-.237-.067-.635-.103-.698-.062a.925.925 0 0 0-.112.176 6.995 6.995 0 0 1-.176.306l-.09.147.013.193c.013.183.01.2-.048.294a.432.432 0 0 1-.19.165c-.07.036-.157.09-.193.12a.7.7 0 0 1-.25.137 2.84 2.84 0 0 0-.13.05c-.034.014-.04.002-.04-.099zm5.534-.59c-.112-.02-.312-.187-.441-.368a2.631 2.631 0 0 0-.26-.303l-.134-.127-.197-.016c-.18-.015-.21-.012-.34.04l-.142.057-.128-.099-.128-.098-.214.024-.214.025-.161-.163c-.129-.129-.176-.162-.234-.165a.637.637 0 0 1-.095-.009.834.834 0 0 0-.097-.009c-.063-.002-.093-.027-.213-.179a12.35 12.35 0 0 0-1.09-1.224 15.51 15.51 0 0 0-1.274-1.136c-.129-.105-.113-.126.087-.115.077.004.293.014.48.02 1.204.047 2.543.355 3.709.854 1.056.452 2.1 1.125 2.861 1.843l.171.16-.054.044c-.067.053-1.02.582-1.44.8-.301.156-.333.166-.452.143zm-9.133-.2c-.03-.082-.032-.08.07-.08h.092l-.036.07c-.043.083-.096.087-.126.01zm.134-.14a.997.997 0 0 0-.168-.116l-.16-.096-.073-.245c-.085-.283-.085-.286-.037-.519.025-.12.029-.18.013-.19a1.783 1.783 0 0 0-.23-.057c-.114-.023-.207-.051-.207-.063a.333.333 0 0 0-.084-.099l-.084-.077.044-.081.044-.081-.055-.1c-.046-.083-.05-.108-.027-.136.016-.019.025-.068.021-.108-.006-.065-.02-.08-.118-.12l-.112-.046-.105.056a.357.357 0 0 0-.15.14c-.049.092-.1.117-.292.143-.104.014-.114.022-.2.153a1.138 1.138 0 0 0-.089.155c0 .038-.14.073-.232.058-.115-.018-.155-.048-.155-.114a.123.123 0 0 0-.026-.075c-.02-.02.04-.069.234-.195a10.645 10.645 0 0 1 4.076-1.566c.463-.076 1.455-.164 1.455-.13 0 .006-.126.114-.28.239-1.095.892-1.971 1.84-2.695 2.913-.225.334-.287.405-.308.356z"/></svg>