<svg viewBox="0 0 24 24" xmlns="http://www.w3.org/2000/svg" role="img"><path d="M10.27 20.048c-.263-.065-.42-.206-.483-.433-.045-.16-.044-.241.003-.43.043-.173.093-.306.181-.485l.063-.125-.127-.305a2.567 2.567 0 0 0-.14-.305c-.028 0-.03.06-.005.123.109.26.004.61-.242.806-.34.271-1.01.393-1.5.274a1.314 1.314 0 0 1-.49-.204 1.111 1.111 0 0 1-.296-.268c-.058-.071-.074-.083-.074-.052 0 .07-.07.23-.141.315-.172.21-.426.266-.758.17a.452.452 0 0 1-.207-.132c-.12-.118-.166-.209-.2-.402l-.025-.136-.04.164c-.045.187-.063.227-.155.34a.586.586 0 0 1-.358.203c-.252.053-.54-.05-.668-.238a.38.38 0 0 0-.076-.093c-.007 0-.028.017-.046.037a1.75 1.75 0 0 1-.36.235c-.316.132-.668.145-1.067.04a1.084 1.084 0 0 1-.505-.265.611.611 0 0 1-.198-.373.483.483 0 0 1 .008-.268.705.705 0 0 1 .189-.35l.047-.044-.065-.097a1.095 1.095 0 0 1-.14-.514c0-.238.122-.536.294-.716.18-.188.41-.304.72-.362.195-.037.37-.03.614.028a.94.94 0 0 1 .338.126l.067.04.002-.238c.005-.545.17-.821.541-.903a.525.525 0 0 1 .279-.007.639.639 0 0 1 .48.362c.04.094.082.288.097.443l.013.133.173-.007c.283-.012.583.074.8.23.109.078.237.238.293.364l.037.083.11-.146c.121-.16.34-.34.507-.414.145-.065.392-.123.563-.134.167-.01.462.04.637.11.115.045.327.183.403.262l.053.056.055-.084c.19-.286.636-.375.952-.19.133.078.258.253.337.473.011.03.024.015.068-.076.127-.264.295-.418.516-.472a.725.725 0 0 1 .617.125c.096.073.103.075.126.041a.566.566 0 0 1 .288-.167.638.638 0 0 1 .378.009c.085.03.106.03.158.009.306-.13.745-.103 1.06.063.163.085.364.27.471.431a.671.671 0 0 0 .093.123.987.987 0 0 0 .105-.137c.24-.342.672-.547 1.163-.55.521-.002.939.206 1.21.604l.064.095.084-.124a.986.986 0 0 1 .302-.316c.15-.107.244-.148.473-.208.353-.093.785-.05 1.077.106.16.085.356.239.43.335l.064.083.027-.094c.064-.217.25-.374.51-.43.142-.03.15-.03.318.01.134.034.185.039.223.024a1.51 1.51 0 0 1 .379-.082.858.858 0 0 1 .439.126c.28.203.347.682.134.951-.091.116-.196.176-.425.245-.117.036-.22.073-.231.083-.012.012-.02.208-.02.505 0 .449-.004.497-.044.628-.085.281-.229.424-.486.482a.494.494 0 0 1-.284 0c-.207-.042-.316-.117-.44-.303a.774.774 0 0 1-.097-.173c0-.016-.032.01-.071.058a1.436 1.436 0 0 1-.407.317c-.06.03-.2.077-.312.104a1.06 1.06 0 0 1-.392.039c-.5-.027-.952-.269-1.201-.642a.298.298 0 0 0-.057-.07c-.005 0-.06.068-.122.152-.127.172-.344.35-.53.434-.17.077-.431.132-.63.132-.197 0-.469-.062-.63-.143-.218-.11-.465-.322-.56-.483-.018-.03-.038-.055-.044-.055a.827.827 0 0 0-.102.133 1.052 1.052 0 0 1-.372.345c-.185.11-.528.203-.744.203h-.105v.12c0 .155-.063.398-.127.49-.142.206-.391.295-.675.241a.544.544 0 0 1-.45-.423c-.03-.121-.031-.222-.023-1.099.01-.869.007-.96-.019-.916-.016.028-.138.313-.273.634-.521 1.248-.586 1.392-.684 1.525-.11.148-.23.24-.356.274-.116.03-.192.028-.355-.012zm.363-.404a1.09 1.09 0 0 0 .109-.133c.033-.053.33-.747.627-1.46.09-.22.227-.53.304-.692.076-.162.149-.34.16-.394.03-.139.01-.254-.06-.333-.07-.08-.161-.111-.292-.1-.202.017-.298.152-.474.667-.113.332-.195.524-.232.547-.01.006-.035-.038-.056-.098-.117-.334-.348-.92-.385-.977-.069-.105-.165-.149-.307-.14-.094.006-.134.019-.188.06-.133.101-.157.227-.08.41.486 1.148.656 1.574.644 1.612a2.867 2.867 0 0 1-.105.227c-.174.346-.225.58-.158.721.045.097.172.158.331.161.078.001.094-.006.162-.078zm2.134.022c.1-.089.112-.157.097-.592l-.013-.375.06.042c.292.208.9.113 1.17-.182.192-.21.285-.45.3-.774.03-.674-.33-1.208-.875-1.295a.788.788 0 0 0-.635.161l-.09.067-.033-.067c-.044-.094-.094-.123-.208-.123-.11 0-.186.045-.22.13-.013.033-.019.524-.018 1.464.002 1.273.005 1.422.033 1.48.042.089.107.12.248.121.105 0 .125-.006.184-.057zm.32-1.472c-.1-.046-.152-.101-.212-.229-.042-.089-.05-.129-.05-.277.001-.16.006-.183.067-.302a.466.466 0 0 1 .147-.186c.076-.053.095-.057.24-.057s.164.005.24.057c.228.16.272.57.09.845a.429.429 0 0 1-.521.149zm.248-.38a.45.45 0 0 0 .01-.285c-.031-.057-.107-.047-.142.02a.399.399 0 0 0-.007.273c.032.069.101.065.139-.008zm-9.557 1.032c.275-.059.481-.207.588-.423.056-.114.062-.142.062-.297 0-.153-.006-.18-.056-.272-.103-.186-.286-.313-.611-.426-.221-.076-.262-.095-.321-.15-.054-.048-.055-.114-.003-.166.063-.063.248-.044.444.046.24.109.374.09.462-.068a.35.35 0 0 0-.018-.339c-.178-.26-.756-.343-1.132-.164a.902.902 0 0 0-.374.358.821.821 0 0 0-.047.488c.05.184.28.344.705.492.278.097.337.145.31.254-.017.068-.101.095-.263.085a.623.623 0 0 1-.297-.09c-.243-.124-.364-.113-.479.04a.413.413 0 0 0-.043.27c.018.072.137.196.237.247.24.121.583.168.836.115zm4.84.008c.4-.05.708-.195.804-.38a.361.361 0 0 0-.01-.296c-.102-.166-.253-.176-.543-.033-.168.082-.201.092-.348.1-.208.01-.343-.025-.439-.119-.082-.08-.13-.21-.088-.24.018-.011.148-.012.368-.003.187.008.476.015.643.015.271 0 .309-.004.368-.038.092-.053.12-.145.107-.34a1.167 1.167 0 0 0-.545-.912c-.241-.144-.652-.178-.926-.076-.432.16-.723.593-.748 1.112-.034.71.417 1.196 1.139 1.226.031.001.13-.006.217-.017zm-.644-1.473c0-.027.02-.083.043-.124.168-.297.699-.243.788.08a.78.78 0 0 1 .02.081c0 .006-.192.01-.426.011h-.425v-.048zm8.019 1.465c.353-.064.649-.293.806-.625a1.14 1.14 0 0 0 .123-.558c0-.365-.102-.63-.333-.862-.226-.228-.493-.325-.842-.304-.313.019-.54.113-.732.306a1.194 1.194 0 0 0-.299.567 1.78 1.78 0 0 0 0 .625c.104.4.409.722.786.828a.92.92 0 0 0 .49.023zm-.373-.654c-.274-.14-.35-.653-.136-.913a.379.379 0 0 1 .32-.146c.207 0 .347.114.416.338.09.292 0 .615-.201.713a.528.528 0 0 1-.399.008zm.26-.362a.403.403 0 0 0 .015-.16c-.006-.095-.018-.13-.05-.164l-.044-.042-.046.053c-.085.099-.045.354.056.354a.08.08 0 0 0 .07-.04zm2.788.995c.342-.089.606-.351.742-.737.048-.137.053-.174.052-.406 0-.228-.006-.27-.05-.394-.188-.521-.632-.827-1.15-.79-.468.033-.762.24-.942.667a1.499 1.499 0 0 0-.07.83c.103.398.43.721.842.83.14.036.437.037.576 0zm-.533-.641c-.174-.081-.268-.297-.244-.559.015-.169.106-.347.217-.425.075-.053.095-.057.238-.057.207 0 .283.046.373.229a.475.475 0 0 1 .06.29c-.001.262-.11.47-.283.542a.487.487 0 0 1-.361-.02zm.27-.379c.052-.125.016-.331-.058-.331-.05 0-.104.114-.104.223 0 .125.025.174.087.174.036 0 .054-.016.075-.066zm-13.123.991c.177-.086.218-.302.179-.949-.032-.525.004-.687.173-.773a.425.425 0 0 1 .391.028c.155.102.193.29.165.816-.009.167-.012.38-.008.475.013.282.097.403.3.433.133.02.244-.035.3-.15.062-.13.073-.277.069-.994-.003-.63-.005-.656-.046-.76a.709.709 0 0 0-.518-.413c-.21-.047-.54-.003-.795.104-.03.012-.032-.014-.028-.362.003-.318-.001-.39-.03-.472-.054-.154-.16-.234-.307-.234-.162 0-.26.076-.314.246-.028.088-.059 2.312-.035 2.534.032.298.098.433.236.482a.303.303 0 0 0 .267-.01zm15.03.013a.313.313 0 0 0 .166-.198c.013-.042.026-.283.033-.617.01-.485.015-.557.047-.62.046-.094.144-.15.39-.22.28-.081.362-.152.362-.31 0-.122-.033-.212-.1-.268-.147-.124-.4-.1-.629.061l-.092.065-.045-.056c-.087-.111-.27-.148-.415-.082-.206.093-.241.312-.187 1.156.018.286.028.602.023.704-.01.178-.008.186.041.255.068.093.103.12.177.138.096.023.161.02.229-.008zM5.846 17.516c-.007-.065-.02-.118-.03-.118-.02 0-.021.082-.004.407l.014.246.016-.209a2.37 2.37 0 0 0 .004-.326zm-.387-2.36c-1.17-.065-2.15-.343-2.92-.83a5.48 5.48 0 0 1-2.158-2.665C.002 10.633-.104 9.337.107 8.31A5.563 5.563 0 0 1 1.25 5.872c.519-.653 1.303-1.223 2.131-1.548.802-.316 1.878-.462 2.806-.383 1.873.16 2.87.707 3.702 2.03.063.1.25.443.416.76.372.714.48.88.736 1.128.295.288.59.45 1.094.6.216.065.58.14.596.123a.797.797 0 0 0-.03-.178 1.335 1.335 0 0 1 .026-.677c.043-.155.044-.175.02-.245a1.365 1.365 0 0 1-.028-.85c.067-.266.157-.443.307-.607.258-.282.576-.442 1.113-.563.168-.037.25-.044.53-.044.286 0 .354.006.5.045.094.025.207.061.253.08.102.044.323.19.382.254l.043.046.12-.086a2.083 2.083 0 0 1 1.323-.348c.489.042.91.18 1.253.41.49.33.759.808.759 1.349 0 .171-.05.439-.108.57-.035.08-.035.082.008.199.023.065.053.173.065.24l.023.124.126-.119c.318-.3.801-.551 1.352-.702.453-.124.616-.15.946-.15.266 0 .33.006.53.053.294.07.474.142.664.268.501.333.844.958 1.042 1.9.04.196.05.287.05.538.001.34-.032.537-.15.898-.267.811-.962 1.478-1.758 1.687-.208.055-.252.06-.53.06-.25.001-.333-.006-.482-.041-.502-.12-.856-.295-1.448-.715a3.237 3.237 0 0 0-.353-.224c-.19-.087-.488-.123-1.329-.161a84.079 84.079 0 0 0-3.508 0c-1.323.06-2.08.235-2.674.618-.192.124-.497.43-.929.933-.423.493-.595.663-.916.904a4.65 4.65 0 0 1-1.516.767 9.662 9.662 0 0 1-1.746.314 15.36 15.36 0 0 1-1.202.027zm1.361-.395c1.354-.145 2.225-.46 2.998-1.083.234-.189.456-.417.784-.81.343-.409.743-.806.946-.939.433-.283.9-.447 1.627-.572.633-.11 1.35-.143 3.054-.143 1.977 0 2.764.051 3.168.206.057.022.176.09.265.152.698.49.992.65 1.402.762.137.037.203.043.489.043.288 0 .35-.006.479-.043.57-.165 1.14-.67 1.402-1.239.164-.356.227-.678.212-1.082a2.851 2.851 0 0 0-.172-.908c-.2-.601-.47-.995-.827-1.206-.14-.084-.4-.17-.607-.204a2.976 2.976 0 0 0-.905.045c-.924.217-1.55.61-1.856 1.167l-.062.112h-.404l.036-.08c.062-.142.094-.3.094-.467 0-.2-.038-.363-.122-.534l-.065-.131.064-.117a.994.994 0 0 0 .125-.524c0-.45-.203-.79-.64-1.078-.336-.221-.898-.364-1.306-.331-.435.034-.868.246-1.087.531-.068.088-.083.1-.099.073a1.337 1.337 0 0 0-.539-.495c-.325-.145-.855-.142-1.33.008-.472.149-.765.411-.875.783a1.06 1.06 0 0 0 .038.766c.059.125.061.137.035.187-.1.191-.145.52-.1.735.035.168.152.383.29.53l.122.13-.22-.012c-1.05-.063-1.905-.36-2.407-.838-.308-.293-.451-.51-.88-1.338-.374-.722-.587-1.041-.931-1.397-.581-.601-1.288-.93-2.29-1.07-1.083-.149-2.094-.079-2.95.206-1.247.413-2.23 1.257-2.844 2.441a5.327 5.327 0 0 0-.503 1.477c-.15.888-.068 2.034.206 2.851.396 1.183 1.171 2.157 2.2 2.768.649.384 1.448.619 2.359.694.31.025 1.297.01 1.626-.026zm-1.692-.722c-.622-.064-1.175-.212-1.648-.444-1.053-.514-1.867-1.517-2.194-2.702-.288-1.043-.244-2.218.117-3.133a4.18 4.18 0 0 1 .944-1.46c.37-.382.683-.61 1.13-.826.875-.421 1.912-.553 3.116-.396.809.106 1.394.356 1.847.789.315.301.481.551.882 1.328.322.625.487.9.69 1.155.3.374.635.641 1.092.868.84.418 1.747.556 3.667.558h.489l-.013-.08a3.914 3.914 0 0 0-.165-.651.963.963 0 0 0-.133-.223c-.112-.127-.195-.163-.424-.181-.234-.02-.323-.042-.467-.118-.27-.142-.37-.411-.233-.619.104-.157.45-.265.85-.265.188 0 .189 0 .154-.038-.047-.052-.187-.088-.433-.112-.23-.022-.352-.067-.473-.173-.132-.116-.195-.323-.142-.465.067-.177.338-.3.764-.348.222-.025.348-.007.475.067.35.206.516 1.044.495 2.51l-.009.674.057.01c.031.007.156.012.277.012h.22V9.12c.001-.711.024-1.007.114-1.495.109-.587.29-.938.548-1.063.257-.125.726-.085 1.097.092.184.088.269.16.334.28.144.265.047.515-.22.575-.114.026-.23.016-.578-.05-.372-.069-.581.022-.73.315-.07.14-.077.164-.04.136.053-.042.193-.082.347-.099.378-.043.863.071 1.08.254.087.073.173.22.198.337.038.18-.05.329-.23.39-.096.031-.27.025-.512-.02-.541-.098-.775.017-.965.477-.056.135-.15.45-.15.499 0 .026.166.029 1.694.025l1.694-.005.052-.163c.125-.39.372-.657.805-.873a3.178 3.178 0 0 1 1.084-.31c.503-.036.8.168 1.015.695.211.52.274 1.084.162 1.445-.211.674-.873 1.17-1.452 1.088-.329-.047-.624-.201-1.357-.713-.448-.312-.792-.38-2.252-.443-.593-.026-3.273-.012-3.668.019-1.11.087-1.82.233-2.434.503-.572.251-.968.58-1.626 1.352-.182.213-.43.484-.552.6-.62.594-1.398.903-2.612 1.037-.27.03-1.577.055-1.778.034zm.624-1.076a3.62 3.62 0 0 0 .63-.144c.195-.062.593-.244.75-.343.893-.563 1.532-1.54 1.656-2.536.033-.261.013-.803-.036-1.016-.189-.817-.686-1.515-1.446-2.03a4.168 4.168 0 0 0-.726-.38c-.562-.212-1.286-.254-1.965-.113-.604.126-1.063.364-1.454.756-.612.614-.91 1.44-.874 2.43.017.447.073.774.203 1.182.371 1.158 1.265 1.997 2.326 2.184.249.044.676.049.936.01zM21.69 10.78a.751.751 0 0 0 .374-.348.866.866 0 0 0 .004-.756.654.654 0 0 0-.308-.331c-.43-.215-.947.07-1.04.571-.039.212.05.484.218.67.21.233.472.3.752.194z"/></svg>