<svg viewBox="0 0 24 24" xmlns="http://www.w3.org/2000/svg" role="img"><path d="M.24 23.962c-.083-.084-.03-.244.092-.282.195-.061.214-.124.215-.705v-.536l.217.018.216.017.018.49c.022.597-.05.878-.25.97-.162.072-.447.089-.507.028zm.894-.091c.016-.115.056-.132.35-.147.401-.021.443-.127.05-.127-.37 0-.44-.088-.44-.56 0-.496.108-.591.665-.591.504 0 .574.063.574.522 0 .324.007.341.141.341.19 0 .262-.152.262-.546v-.324l.205.018.205.017.019.356c.01.195.036.383.057.417.052.084.452.08.538-.007.04-.039.07-.226.07-.432v-.362h.46v.424c0 .341-.023.453-.12.575l-.119.152h-.86c-.86 0-.861 0-.915.14-.078.207-.231.263-.72.263-.424 0-.44-.005-.422-.13zm.738-.825c0-.253-.006-.262-.158-.244-.126.014-.163.052-.177.181-.028.237.024.326.19.326.134 0 .145-.02.145-.263zm.576.81c0-.13.023-.144.23-.144.207 0 .23.015.23.144 0 .13-.023.144-.23.144-.207 0-.23-.014-.23-.144zm.518 0c0-.13.023-.144.23-.144.207 0 .23.015.23.144 0 .13-.023.144-.23.144-.207 0-.23-.014-.23-.144zm2.428.015c.015-.104.061-.133.235-.148.198-.016.216-.005.216.13 0 .134-.022.147-.235.147-.21 0-.232-.013-.216-.13zm.508-.015c0-.13.023-.144.23-.144.208 0 .23.015.23.144 0 .13-.022.144-.23.144-.207 0-.23-.014-.23-.144zm1.795-.259c-1.222-.035-1.161.01-1.161-.875V22.1h.46v.57c0 .6.018.64.293.64.099 0 .11-.045.11-.436v-.435l.216.018.216.017.017.418c.013.313.037.417.098.417.061 0 .086-.104.098-.417l.017-.418.216-.017.216-.018v.435c0 .397.01.435.115.435.105 0 .115-.038.115-.432v-.431h.408l-.017.56-.016.56-.202.03c-.11.017-.65.017-1.2.001zm-2.946-.115c-.101-.101-.115-.192-.115-.748V22.1h.46v.57c0 .466.017.576.091.604.157.06.574.038.646-.034.04-.039.07-.226.07-.432v-.362h.46v.424c0 .341-.023.453-.12.575-.115.148-.137.152-.748.152-.552 0-.643-.014-.744-.115zM.575 22.338c-.015-.015-.027-.074-.027-.132 0-.085.045-.106.23-.106.188 0 .23.02.23.109 0 .082-.05.115-.203.133-.112.013-.215.011-.23-.004zm3.278-.003c-.013-.013-.024-.071-.024-.13 0-.084.046-.105.235-.105.207 0 .232.015.216.125-.015.097-.06.125-.21.129-.106.003-.203-.005-.217-.019zm3.546-.12c0-.096.039-.115.23-.115.192 0 .23.02.23.115 0 .096-.038.116-.23.116-.191 0-.23-.02-.23-.116zm.633 0c0-.096.039-.115.23-.115.193 0 .231.02.231.115 0 .096-.038.116-.23.116s-.23-.02-.23-.116zm.691 0c0-.093.039-.115.202-.115s.201.022.201.115c0 .094-.038.116-.201.116s-.202-.022-.202-.116zM.63 21.907c-.19-.087-.427-.35-.427-.474 0-.042.092-.093.205-.114.167-.032.23-.014.345.093.165.155.45.174.585.039.128-.129.02-.252-.292-.332-.593-.151-.728-.276-.728-.678 0-.21.033-.285.196-.448.178-.178.226-.196.533-.196.365 0 .653.13.768.344.057.107.041.13-.147.208-.2.084-.215.082-.294-.03-.097-.138-.428-.164-.53-.042-.102.124.044.248.385.326.572.132.82.511.616.941a.855.855 0 0 1-.243.3c-.2.13-.746.166-.972.063zm16.359.036a.77.77 0 0 1-.466-.367c-.112-.216-.113-.214.121-.257.167-.032.231-.014.347.095.247.232.69.152.643-.116-.008-.047-.165-.128-.36-.186-.6-.177-.72-.298-.72-.719 0-.156.047-.25.196-.4.184-.184.22-.196.582-.196s.398.012.581.196c.108.108.196.22.196.25 0 .029-.095.082-.212.118-.189.058-.22.053-.293-.051-.118-.168-.495-.135-.52.045-.016.11.032.141.384.246.645.192.86.571.582 1.028-.179.293-.625.425-1.061.314zm-14.77-1.08v-1.066h.518v.806h.604v-.777l.245-.018.244-.017v2.143l-.244-.018-.245-.017-.002-.403-.002-.403-.3-.018-.3-.017v.869h-.519Zm1.835.938c.028-.073.185-.555.349-1.071l.298-.939.296.018.296.017.275.892c.402 1.307.395 1.21.085 1.21-.245 0-.263-.011-.326-.202-.065-.2-.07-.202-.399-.202-.326 0-.333.004-.386.188-.048.168-.077.188-.296.204-.232.017-.24.012-.192-.115zm1.039-.844a1.368 1.368 0 0 0-.08-.296l-.075-.202-.057.144a2.51 2.51 0 0 0-.096.322c-.037.171-.032.176.137.151.116-.017.174-.057.17-.12zm1.27.537c0-.416-.012-.456-.316-1.016-.174-.32-.317-.605-.317-.632 0-.027.124-.049.276-.049h.276l.191.389.192.388.195-.388c.194-.384.2-.389.43-.389h.234l-.32.599c-.315.585-.322.609-.322 1.065v.466h-.518Zm.922.386c0-.027.142-.497.317-1.046.174-.55.316-1.007.316-1.018 0-.01.13-.019.29-.019.338 0 .271-.119.676 1.196l.288.934h-.28c-.267 0-.282-.008-.328-.187-.047-.183-.056-.187-.401-.204l-.354-.017-.038.204c-.036.193-.051.204-.262.204-.123 0-.224-.021-.224-.047zm.984-1.137-.092-.31-.096.272c-.135.381-.131.396.087.37l.193-.022zm1.895.116v-1.068l.271.017.272.018.318.569.319.569.016-.584.017-.583h.399v2.13h-.453l-.364-.638-.363-.638-.017.638-.016.638h-.4zm2.015.003v-1.065h1.504l-.018.216-.018.216h-.921l-.018.216-.018.216h.755v.403h-.748v.46h.979v.403h-1.498zm1.96.536a53.046 53.046 0 0 0-.258-1.071l-.137-.536.265.018.265.017.142.652c.079.359.16.618.183.576.022-.042.1-.342.172-.667l.132-.59h.479l.099.418c.054.23.132.532.173.672l.076.254.128-.571c.186-.825.16-.773.384-.773.108 0 .198.02.198.043 0 .024-.11.504-.244 1.067l-.246 1.024-.259-.016-.259-.016-.105-.403-.167-.634-.062-.23-.15.633-.15.634-.268.017-.268.017-.122-.535zm6.273-1.13c-1.298-.339-2.18-1.688-1.958-2.998.247-1.467 1.64-2.493 3.064-2.257a2.698 2.698 0 0 1 1.958 3.945c-.207.388-.725.905-1.094 1.092a2.687 2.687 0 0 1-1.97.218zm1.755-.38a3.83 3.83 0 0 0 .63-.396l.224-.193-.095-.191a.9.9 0 0 1-.096-.295c0-.057-.027-.12-.061-.14-.04-.026-.028-.075.035-.145.09-.1.09-.116-.02-.254-.063-.082-.103-.196-.088-.254.034-.128-.096-.174-.42-.148-.165.013-.257-.014-.353-.104-.137-.128-.177-.389-.06-.389.054 0 .054-.015 0-.07-.103-.102-.085-.157.075-.218.079-.03.144-.094.144-.142 0-.058.055-.088.161-.088a.53.53 0 0 0 .274-.085c.142-.107.198-.11.198-.008 0 .098.136.158.403.179.11.009.239.025.284.037.046.011.093-.025.105-.08.016-.071-.013-.1-.099-.1-.072 0-.142-.053-.173-.13-.04-.1-.053-.106-.056-.03-.004.118-.119.14-.119.024 0-.042-.051-.124-.115-.181-.063-.058-.115-.076-.115-.042 0 .035.026.08.058.1.078.048.073.258-.006.258-.036 0-.049-.04-.03-.088.022-.058-.017-.11-.111-.154-.126-.057-.157-.049-.235.063a.236.236 0 0 1-.243.11c-.19-.021-.21-.192-.023-.185.071.002.13-.024.13-.058.001-.034.063-.12.138-.191.104-.099.178-.121.309-.095.187.037.264-.028.208-.176-.033-.085-.042-.084-.106.004-.05.069-.115.085-.224.058-.164-.041-.213-.21-.062-.21.368 0-.606-.538-1.156-.639a2.378 2.378 0 0 0-1.296.127c-.39.168-.442.243-.254.366.082.054.166.082.187.06.021-.02-.007-.062-.062-.093-.166-.093-.115-.151.127-.145.213.006.221.012.135.108-.082.09-.082.102-.004.102.048 0 .121-.04.162-.089.048-.058.093-.07.13-.033.036.037.085.028.139-.026.117-.117.268-.102.395.038.107.118.107.122-.002.201-.155.114-.218.102-.175-.034.028-.088.01-.115-.076-.115a.276.276 0 0 0-.185.09c-.041.048-.11.074-.154.058-.099-.038-.305.085-.305.183 0 .04.037.072.082.072.045 0 .091.03.103.066.032.096.261-.06.298-.204.028-.105.04-.107.134-.024.056.05.134.078.173.064.04-.014.085.044.105.137.02.09.046.195.058.235.012.04-.016.072-.062.072-.047 0-.085-.024-.085-.054 0-.092-.196-.095-.294-.005-.52.48-.627.595-.629.68-.001.091-.007.091-.078-.002-.15-.198-.553-.057-.553.192 0 .133.107.199.189.116.09-.09.156-.08.156.023 0 .047.026.086.058.086.031 0 .057.036.057.08 0 .117.16.16.29.078.087-.054.138-.055.221-.003.075.047.126.049.168.007.042-.042.084-.023.137.062.041.067.109.121.15.121.04 0 .099.067.13.148.044.116.082.14.176.11.083-.026.163.002.259.092.121.114.129.143.057.222a.558.558 0 0 0-.1.263c-.016.142-.043.17-.149.155-.107-.015-.13.01-.13.14 0 .183-.202.425-.355.425-.126 0-.126-.015-.019.288.105.298.105.288.004.288-.119 0-.332-.295-.3-.415.014-.057 0-.12-.031-.139-.031-.02-.044-.084-.029-.144.016-.06.004-.123-.025-.142-.03-.018-.037-.123-.017-.233.032-.167.02-.206-.07-.23-.223-.057-.446-.655-.245-.655.028 0 .051-.052.051-.115 0-.067-.038-.115-.092-.115a.52.52 0 0 1-.236-.114.932.932 0 0 0-.34-.15c-.175-.033-.204-.065-.261-.29-.035-.14-.091-.27-.124-.291-.035-.022-.048-.003-.03.044.017.045.051.146.076.225.04.128.035.135-.05.065a.307.307 0 0 1-.094-.209.294.294 0 0 0-.086-.2c-.134-.112-.222.179-.225.747-.003.573.113.973.411 1.426.654.994 2.046 1.377 3.094.852zM20.8 16.503c.07-.07.143-.109.165-.088.056.056-.091.215-.2.215-.074 0-.067-.025.035-.127zm1.544-.29c.04-.13.039-.13-.083-.02-.068.06-.142.09-.165.068-.04-.04.198-.26.283-.264.059-.001.118.22.076.287-.069.112-.152.058-.111-.072zm-2.106.417c0-.032-.011-.058-.025-.058-.014 0-.041.026-.061.058-.02.031-.008.057.025.057.034 0 .061-.026.061-.057zm.014-.125c.116.116.182.072.073-.048-.134-.148-.182-.145-.267.014-.063.119-.06.123.03.049.074-.062.114-.065.164-.015zm-1.118-.102c.014-.043-.008-.065-.05-.05a.18.18 0 0 0-.102.1c-.014.043.008.065.05.05a.18.18 0 0 0 .102-.1zm.644-.58c0-.031-.04-.057-.087-.057-.047 0-.086.026-.086.057 0 .032.039.058.086.058.048 0 .087-.026.087-.058zM.482 19.02a.551.551 0 0 1-.216-.265c-.094-.269-.081-1.337.018-1.574.158-.378.19-.383 2.567-.364l2.128.016.188.188.188.189v1.561l-.188.168-.188.168-2.172-.002c-1.776-.002-2.2-.017-2.325-.085zm6.014.03c-.258-.104-.335-.323-.335-.948 0-.318.022-.805.049-1.082l.048-.504H.607l-.188-.168-.188-.168.004-.739c.006-1.108.37-2.947.907-4.57C2.39 7.087 5.29 3.58 8.82 1.582 10.432.67 12.587-.072 13.397.005c.993.096 1.316 1.378.538 2.133-.228.222-.337.269-1.297.56-1.995.606-3.801 1.58-5.283 2.846-1.253 1.07-2.292 2.48-3.09 4.188-.53 1.14-.885 2.235-1.322 4.092l-.037.158H4.85l1.945-.001.201-.56c.688-1.916 2.144-4.162 3.553-5.484 2.267-2.126 5.897-3.728 8.519-3.759.542-.006.61.006.916.163.258.132.362.227.466.424.244.463.146 1.272-.191 1.572-.215.19-.537.274-1.278.33-2.222.17-4.176.963-6.02 2.446a10.297 10.297 0 0 0-2.914 3.689 9.966 9.966 0 0 0-.955 3.57l-.037.46h8.103l.279.137c.858.423.877 1.594.033 2.025-.215.11-.37.112-5.535.109-2.928-.002-5.37-.027-5.44-.055zm10.317-2.387c-.382-.14-.484-.372-.384-.87.224-1.116 1.41-2.286 2.556-2.523.518-.107.755-.065.965.174a.57.57 0 0 1 .173.458c0 .444-.229.714-.605.714-.24 0-.747.223-.998.438-.3.257-.506.604-.632 1.065-.065.242-.143.39-.24.462-.203.147-.56.182-.835.082zm-2.505-.56c-.289-.081-.46-.261-.46-.483 0-.568.578-1.946 1.11-2.644.587-.772 1.759-1.583 2.78-1.925.985-.329 1.572-.293 1.78.11.164.317.078.945-.157 1.14-.049.04-.305.109-.57.152-1.145.187-1.873.625-2.504 1.509a3.627 3.627 0 0 0-.622 1.403c-.054.237-.142.48-.195.54-.218.245-.704.328-1.162.199zm-2.92-.272c-.276-.071-.47-.218-.513-.389-.087-.345.307-1.725.753-2.64.983-2.013 2.883-3.687 5.058-4.454 1.011-.357 1.877-.487 2.238-.336.34.143.422.325.422.944 0 .498-.01.544-.15.683-.157.157-.459.253-.807.255-.339.002-1.29.268-1.75.49-1.072.515-2.155 1.418-2.728 2.275-.403.603-.76 1.48-.92 2.264-.123.607-.166.69-.427.825-.197.102-.908.152-1.176.083z"/></svg>