<svg viewBox="0 0 24 24" xmlns="http://www.w3.org/2000/svg" role="img"><path d="M1.98 3.569c.113 0 .225-.02.337-.02h19.184c.115.002.231-.009.345.012a2.17 2.17 0 0 1 1.532.707c.397.424.624 1.001.62 1.582v1.037H12.46c-.21-.024-.42-.011-.628-.02-.147-.028-.298 0-.445-.02-.122-.015-.244-.005-.366-.012-.485-.03-.974-.055-1.459-.1-.55-.038-1.087-.18-1.632-.256a7.077 7.077 0 0 0-1.867-.025c-.284.035-.594.084-.81.29a.32.32 0 0 0-.08.368c.108.173.305.263.497.307.128.039.264.002.393.032.174.01.35-.008.523.015a9.19 9.19 0 0 0 1.777-.105l.09-.006c.195-.034.393-.06.59-.09.763-.1 1.536-.12 2.303-.163.317-.005.635-.02.951-.036h11.7v.972c-4.11-.002-8.218.003-12.328-.002-.055-.011-.112-.016-.167-.026-.129-.01-.256-.027-.384-.041-.797-.1-1.593-.233-2.397-.258-.254-.035-.512.009-.766-.027-1.047-.004-2.094-.001-3.142-.002-.29.033-.583-.003-.874.032-.31.002-.654-.021-.921.167-.149.091-.264.283-.193.456.074.179.266.257.44.305.346.086.707.054 1.06.06.4.032.8.01 1.201.016.443.006.886-.016 1.328.017.72-.003 1.44.015 2.159-.044.14-.006.28-.016.42-.033.314-.024.627-.06.94-.096a6.36 6.36 0 0 0 .259-.033c.184-.018.368-.043.551-.066l.088-.008c.48-.08.965-.017 1.446-.06h6.03c.086-.003.171-.018.258-.017h4.992v.957H13.595a3.955 3.955 0 0 1-.57-.028c-.582-.04-1.162-.1-1.743-.139a32.66 32.66 0 0 0-1.426-.097 30.85 30.85 0 0 0-2.256-.06c-.452-.033-.907-.01-1.36-.017H3.972a.717.717 0 0 0-.15.013c-.2.009-.4-.001-.599.005-.317.038-.65-.027-.954.098-.187.069-.366.223-.37.436.016.11.08.214.177.27.22.138.487.168.74.17.297.029.598.005.895.012.54.032 1.08.01 1.621.017h1.556c.561.044 1.124-.006 1.686-.016a157.89 157.89 0 0 0 3.712-.24c.415-.023.829-.047 1.243-.068h5.445c.227-.003.455.009.681-.016 1.448-.002 2.895 0 4.343 0v.923H13.725c-.288.01-.57-.05-.857-.07a5.96 5.96 0 0 0-.29-.032 6.318 6.318 0 0 0-.293-.032 5.623 5.623 0 0 0-.291-.032 13.884 13.884 0 0 0-.648-.065 21.482 21.482 0 0 0-1.62-.096c-.207-.034-.419.006-.627-.024-.338-.018-.677.013-1.014-.021H3.939a.664.664 0 0 0-.118.012c-.328.013-.658-.011-.986.02-.226-.01-.452.019-.678.017-.223.014-.458.076-.613.246-.117.11-.146.315-.038.44.151.179.398.228.62.254.225.033.454-.002.68.028.366.014.734-.015 1.1.02.388.001.777-.002 1.165 0 .216.024.433.014.65.016h1.232c.453.03.909.012 1.363.014.242-.032.487.002.73-.024a61.602 61.602 0 0 0 2.98-.18c.312-.019.623-.05.935-.075.077-.01.155-.01.233-.022.478-.058.96-.032 1.44-.037h4.698c.528-.033 1.058-.01 1.588-.016h3.078v.875H14.21c-.179.005-.354-.037-.532-.054a7.155 7.155 0 0 0-.259-.032c-.194-.028-.389-.043-.583-.065a4.017 4.017 0 0 0-.324-.032 20.811 20.811 0 0 0-1.161-.081c-.181-.025-.364.003-.544-.023-.214-.015-.43.01-.643-.019-.477-.013-.956.017-1.432-.019H3.484c-.104.002-.209-.007-.31.013-.253.012-.507-.01-.758.02-.3-.002-.626-.018-.89.15-.147.077-.255.241-.228.41.024.143.155.226.273.287.218.095.46.112.695.113.306.035.616-.01.922.026.294.006.587 0 .88.002.495.043.994-.01 1.49.032.583.008 1.168-.017 1.751.017.584-.003 1.169.003 1.753-.003.223-.031.45.002.673-.023a51.79 51.79 0 0 0 2.746-.148c.182-.004.362-.03.544-.042.118-.015.238-.024.357-.032.097-.014.194-.024.292-.033.178-.02.355-.048.534-.06h5.317c.312-.029.626-.01.939-.016h3.534v.924H13.66a2.358 2.358 0 0 1-.278-.028c-.139-.013-.278-.028-.416-.042a6.354 6.354 0 0 0-.292-.032 6.369 6.369 0 0 0-.291-.033 21.06 21.06 0 0 0-.616-.064 4.087 4.087 0 0 0-.356-.032 14.438 14.438 0 0 0-.907-.065c-.247-.02-.497-.027-.745-.032-.208-.033-.42.006-.628-.023-.276-.015-.554.003-.83-.009-.082-.017-.165-.013-.247-.013-1.394.002-2.788-.002-4.183.002-.331.037-.666-.007-.997.028-.16.013-.32-.013-.479.016-.24-.002-.495.003-.706.133-.128.08-.262.207-.247.373-.01.11.068.202.15.265.177.125.398.166.61.177.208.028.42-.006.628.025.294.006.587 0 .881.002.442.033.886.01 1.329.015.766.045 1.535-.01 2.3.034.315-.003.63.002.944-.002.253-.033.509.002.762-.024.875-.03 1.75-.08 2.624-.148.281-.018.562-.04.843-.064.13-.01.26-.017.389-.033.274-.018.547-.048.821-.069h5.415c.442-.032.885-.01 1.327-.017h3.533v.875H13.433c-.113 0-.224-.017-.337-.02-.078-.012-.156-.012-.233-.023-1.51-.11-3.02-.224-4.531-.27-.248-.027-.499.004-.746-.017-.114-.015-.229-.01-.342-.01H4.198c-.324-.007-.647.028-.972.016-.302.038-.616-.022-.91.08-.175.064-.368.18-.405.377-.047.162.084.31.218.38.198.096.42.136.64.136.368.029.737.01 1.106.015.581.033 1.165.01 1.747.017.562.007 1.125-.017 1.685.016.537-.005 1.075.014 1.61-.03.215-.005.432-.013.647-.03.162-.009.325-.015.486-.033.303-.014.605-.04.908-.064.72-.05 1.438-.118 2.159-.161.407-.033.816-.02 1.224-.022h4.407c.104-.001.209.008.311-.013 1.646-.009 3.293-.001 4.939-.004v.924H11.746c-.32.01-.635-.054-.95-.086-.132-.018-.264-.034-.394-.055-.107-.014-.213-.032-.32-.042-.28-.04-.56-.075-.842-.098a9.083 9.083 0 0 0-.899-.045c-.182-.022-.366-.013-.55-.014H4.942c-.118 0-.237-.005-.355.01-.211.022-.426-.013-.636.019-.257.01-.523-.02-.768.079-.17.06-.336.192-.375.377-.028.133.062.257.164.333.22.137.487.17.74.172.442.038.887-.01 1.328.03h2.917c.212-.006.425.017.635-.012.184-.003.368-.009.55-.031.325-.02.65-.058.973-.097.086-.01.172-.02.258-.033.087-.009.173-.02.26-.032.184-.018.367-.044.551-.065.098-.009.195-.018.292-.034.447-.014.896.015 1.342-.02h5.767c.215-.001.431.01.645-.015 1.59-.002 3.178 0 4.767 0v.988H13.693c-.609-.003-1.219.011-1.827-.02-.247-.02-.497-.025-.745-.032-.65-.037-1.301-.069-1.948-.147-.357-.055-.713-.118-1.071-.168a8.212 8.212 0 0 0-.352-.043 3.755 3.755 0 0 0-.507-.03c-.291-.041-.582.018-.874.003-.22.021-.442.01-.662.035-.205.053-.433.142-.533.343-.084.154-.02.353.113.458.215.18.5.246.772.271.107.017.215.028.323.032a6.004 6.004 0 0 0 1.725-.09c.36-.069.72-.138 1.078-.21.46-.055.923-.086 1.385-.122a83.49 83.49 0 0 1 2.055-.085h11.374c-.01.448.021.897-.02 1.343-.1.76-.602 1.459-1.303 1.774-.24.123-.506.172-.77.202-6.55.007-13.1 0-19.65.004a2.21 2.21 0 0 1-1.317-.436 2.319 2.319 0 0 1-.934-1.772c-.009-4.12 0-8.24-.004-12.36C.002 5.33.186 4.77.555 4.35a2.22 2.22 0 0 1 1.425-.78"/></svg>