<svg viewBox="0 0 24 24" xmlns="http://www.w3.org/2000/svg" role="img"><path d="M5.919 18.568a1.93 1.93 0 0 0 .097-.179.754.754 0 0 1 .049-.146c0-.032 0-.032-.016-.032 0 0-.017.016-.049.065a.275.275 0 0 1-.097.097.528.528 0 0 1-.195.097c-.081.033-.194.065-.292.098a1.234 1.234 0 0 1-.34.048 2.322 2.322 0 0 1-.325.016c-.275 0-.47-.032-.6-.097-.065-.032-.097-.065-.097-.113 0-.049 0-.081-.016-.098 0-.016-.016-.032-.016-.032-.017 0-.017.016-.033.016 0 .016-.016.049-.016.097-.016.05-.016.098-.032.163 0 .048-.017.097-.017.113 0 .065.017.13.065.162.049.049.13.081.26.114.08.016.178.016.308.016.113 0 .243 0 .373-.016s.26-.033.389-.081a.938.938 0 0 0 .227-.081c.081-.033.162-.081.227-.114a.272.272 0 0 0 .146-.113zm.649-.503a.035.035 0 0 0-.033.032c-.016.033-.032.081-.065.146-.032.065-.065.146-.097.211s-.065.114-.097.162a1.343 1.343 0 0 1-.146.13c-.065.049-.13.081-.179.113-.048.033-.08.05-.097.082-.016.016-.016.016-.016.032l.016.016c.016 0 .032 0 .081-.016s.097-.016.179-.049a.78.78 0 0 0 .162-.065c.032-.032.065-.064.08-.113a.868.868 0 0 0 .098-.21c.032-.098.065-.18.081-.26.016-.081.033-.13.033-.162.032-.033.016-.033 0-.05zm.73.016a.324.324 0 0 0-.147-.032h-.048c.713-.665 1.086-1.038 1.102-1.087.081-.178.098-.243.05-.227-.05.081-.277.308-.682.697-.39.373-.6.584-.665.65 0-.066.016-.147.033-.244.032-.195.032-.324.048-.39 0-.016 0-.016-.016-.016 0 0-.016 0-.016.017-.049.146-.098.243-.114.292-.032.194-.065.356-.08.518-.017.163-.033.276-.033.373 0 .114.016.211.065.276a.178.178 0 0 0 .162.097.184.184 0 0 0 .13-.048.379.379 0 0 0 .113-.114c.049-.065.081-.162.13-.26a.918.918 0 0 0 .048-.291c.017-.114-.016-.178-.08-.21zM7.2 18.6c-.032.032-.097.032-.146.032-.049 0-.081-.016-.113-.032-.033-.032-.05-.065-.05-.097 0-.033.017-.065.066-.098.048-.032.08-.032.13-.032.048 0 .08 0 .13.032.048.033.064.065.064.098a.216.216 0 0 1-.081.097zm-2.449-.454a.05.05 0 0 0 .033.016c.032 0 .08-.065.146-.178.032.016.048.048.08.08.033.033.05.05.066.05s.048-.033.08-.082c.05-.064.066-.113.066-.146a.14.14 0 0 0-.065-.113c-.033-.049-.065-.065-.098-.065-.016 0-.032.033-.048.065-.033.049-.049.081-.081.13a.43.43 0 0 0-.081-.098c-.033-.032-.065-.048-.081-.048-.017 0-.033.048-.082.13a.41.41 0 0 0-.064.145l.048.05c.033.015.065.048.081.064zm3.568-.178c.032.032.065.048.081.064a.05.05 0 0 0 .032.017c.033 0 .082-.065.146-.179.033.016.049.049.081.081.033.033.05.049.065.049.017 0 .049-.032.081-.081.05-.065.065-.114.065-.146a.14.14 0 0 0-.065-.114c-.032-.032-.064-.064-.097-.064-.016 0-.032.016-.049.064-.032.05-.048.082-.08.13a.47.47 0 0 0-.082-.097c-.032-.033-.065-.049-.08-.049-.017 0-.033.049-.082.13a.41.41 0 0 0-.065.146l.049.049zm2.757-.536c-.017.033-.033.05-.049.082l-.049.097a.235.235 0 0 0-.032.113c-.016.033-.016.065-.016.114 0 .065-.016.146 0 .26v.259c0 .065-.016.13-.033.194-.016.065-.016.098-.016.098v.016s.016 0 .033-.016c.016-.017.016-.033.032-.049.016-.032.032-.081.065-.146a.672.672 0 0 0 .048-.26c0-.048.017-.097.017-.162v-.6c0-.016 0-.016-.017-.016.033-.016.017 0 .017.016zm1.183 2.076c-.016 0-.032.033-.08.114a.605.605 0 0 0-.065.13c0 .016 0 .016.016.032l.048.048.049.05.032.032c.017 0 .033-.033.082-.082.032-.064.048-.097.048-.146 0-.032-.016-.064-.048-.113-.033-.032-.05-.065-.082-.065zm.438-1.573c-.016.049-.048.081-.065.081a.354.354 0 0 1-.08.049c-.05.016-.082.049-.098.049a.705.705 0 0 0-.113.097c-.017.032-.065.097-.098.194-.048.098-.065.163-.08.163-.033.032-.066.08-.13.13 0 0-.017.016-.082.048-.08.049-.13.081-.162.097s-.048.033-.048.049c-.033.016-.033.032-.033.049 0 .016.033.016.049.016.032 0 .08 0 .146-.016.048-.017.097-.017.13-.033a.316.316 0 0 0 .162-.162c.016-.049.048-.13.08-.21a.348.348 0 0 1 .066-.114c0-.017.016-.017.048-.033.016-.016.081-.048.179-.097.064-.033.13-.146.194-.357.016-.032 0-.065 0-.065-.032 0-.048.017-.065.065zm-.308 1.168c-.016 0-.032.032-.065.08-.016.033-.048.082-.065.114a.216.216 0 0 0-.08-.097c-.033-.032-.065-.049-.082-.049-.016 0-.032.049-.08.13-.05.081-.066.146-.066.146l.081.081a.36.36 0 0 0 .082.065c.032 0 .08-.065.13-.195a.617.617 0 0 0 .097.081c.032.033.048.05.064.05.017 0 .05-.033.081-.082.033-.065.065-.113.065-.162a.14.14 0 0 0-.065-.114c-.048-.032-.08-.048-.097-.048zm1.881-.065c-.016 0-.032.016-.048.065-.033.048-.049.08-.081.13-.017-.033-.05-.065-.082-.098-.032-.032-.064-.049-.08-.049-.017 0-.033.05-.082.13a.41.41 0 0 0-.065.146l.05.049c.032.032.064.048.08.065a.05.05 0 0 0 .033.016c.032 0 .08-.065.146-.178.032.016.048.048.08.08.033.033.05.05.065.05.017 0 .05-.033.082-.082.048-.065.064-.113.064-.146a.14.14 0 0 0-.064-.113c-.05-.033-.082-.065-.098-.065zm-2.513-.697c0-.146-.065-.26-.211-.357-.032-.016-.049-.016-.049.016-.048.114-.097.21-.13.276-.016.032 0 .048.017.065.13.097.194.178.194.243 0 .016-.032.065-.097.13-.065.064-.146.13-.227.194-.049.033-.065.049-.065.065 0 0 0 .016.016.016h.05a.691.691 0 0 0 .307-.162.847.847 0 0 0 .13-.178c.032-.114.065-.195.065-.308zm-1.33-1.136c.016 0 .049-.032.081-.097a.373.373 0 0 0 .049-.146c0-.032-.033-.065-.065-.113-.049-.049-.081-.065-.097-.049-.017 0-.033.049-.081.13-.05.08-.065.13-.065.162 0 .016 0 .032.016.032.016.017.049.033.08.065.05 0 .066.016.082.016zm-6.438-1.362s.033-.032.065-.097c.065 0 .13-.049.195-.146a.534.534 0 0 0 .097-.308c0-.033 0-.049-.016-.049s-.016.016-.033.065a.264.264 0 0 1-.048.097c-.017.033-.049.05-.065.05s-.033 0-.081-.017H4.07c-.016 0-.032.032-.048.097-.033.065-.049.097-.081.097h-.13a.446.446 0 0 0-.146.13.32.32 0 0 1-.227.081c-.065 0-.13-.016-.162-.048a.218.218 0 0 1-.098-.114c-.016-.065-.032-.113-.032-.146v-.13c0-.016 0-.064.016-.162.016-.097.033-.275.065-.551s.049-.454.065-.551c0-.017 0-.017-.016-.017 0 0-.017 0-.033.017-.08.194-.13.324-.146.405-.048.26-.08.503-.113.713-.033.227-.033.39-.033.503 0 .146.033.26.065.357.049.097.13.146.243.146.098 0 .195-.065.276-.179a.715.715 0 0 1 .179-.194c.032-.016.048-.016.08-.016.017 0 .05 0 .082.016.048.032.08 0 .113-.049zm6.681 1.898c-.032.016-.048.016-.08.016a.439.439 0 0 1-.13-.049c-.065-.032-.13-.032-.163-.032a.306.306 0 0 0-.13.032.166.166 0 0 0-.08.097.124.124 0 0 0-.033.081c-.016.033-.016.05 0 .05 0 0 .016 0 .032-.017.017-.033.033-.065.065-.081a.124.124 0 0 1 .081-.033c.017 0 .05 0 .065.017.017 0 .017 0 .033.016.016 0 .016 0 .032.016.033.016.049.016.065.032.016 0 .032.017.049.033-.017.016-.033.049-.065.081-.016.016-.065.065-.162.146a1.119 1.119 0 0 1-.276.178.718.718 0 0 1-.178.049h-.05c0-.049 0-.081-.015-.065-.016.016-.065.065-.146.114a1.255 1.255 0 0 1-.26.113 1.697 1.697 0 0 1-.275.065 1.806 1.806 0 0 1-.276.032c-.097 0-.178.017-.26.017-.097 0-.21 0-.34-.017a1.113 1.113 0 0 1-.308-.064c-.065-.033-.097-.082-.114-.163 0-.048-.016-.08-.032-.08s-.033.048-.033.13c-.016.08-.016.161-.016.226 0 .114.033.195.114.243.032.033.113.049.21.049.098.016.179.016.26.016.114 0 .243 0 .39-.016.129-.016.259-.032.356-.065.114-.032.195-.065.292-.097a.761.761 0 0 0 .26-.162c.064-.033.113-.098.178-.179l.113.033.13.032c.032 0 .065 0 .097-.032a.211.211 0 0 1 .065-.049l.049-.049.26-.243c.048-.048.08-.065.097-.097a.705.705 0 0 1 .113-.097l.097-.065c.033-.017.049-.049.049-.065s.016-.033.016-.049 0-.032.016-.048c.017-.033 0-.033 0-.033-.113 0-.146.016-.162.033zm3.94.162a.147.147 0 0 0 .114-.049.486.486 0 0 0 .065-.13c.016-.048.033-.08.033-.097v-.049c0-.016 0-.016-.017-.016 0 0-.016.016-.016.033-.032.048-.065.08-.065.08-.016.017-.065.017-.113 0a.274.274 0 0 0-.081.033c-.033.016-.065.049-.098.114a.231.231 0 0 1-.194.097.262.262 0 0 1-.146-.049c-.049-.048-.081-.13-.081-.243 0-.049.016-.146.032-.292 0-.049.016-.113.033-.227 0-.016.016-.032 0-.049h-.017a.757.757 0 0 0-.08.163c-.017.032-.017.064-.033.13-.016.048-.016.097-.032.145-.017.065-.017.13-.033.195l-.016.178v.081c0 .033-.016.065-.049.114-.016.032-.032.065-.065.113l-.048.081a.576.576 0 0 0-.065.146c-.016.05-.033.098-.033.13 0 .049.049.097.13.146.081.033.114.065.114.081 0 .097-.049.195-.163.276a.694.694 0 0 1-.454.146.39.39 0 0 1-.243-.065.356.356 0 0 1-.13-.292c0-.081.033-.178.082-.308.032-.081.08-.195.162-.39.016-.015.016-.048.016-.064s0-.033-.016-.033c-.017 0-.017.017-.033.05-.016.015-.016.032-.032.048s-.016.048-.033.065c-.016.032-.032.08-.048.097-.016.032-.016.049-.033.049-.016.048-.048.113-.08.194a.98.98 0 0 0-.082.26c-.032.097-.032.178-.032.243 0 .146.032.26.097.357a.379.379 0 0 0 .324.162c.065 0 .114-.016.179-.033.048-.016.097-.048.146-.08.146-.098.243-.244.324-.406a1.94 1.94 0 0 0 .097-.276c.017-.08.033-.146.033-.227 0-.049 0-.097-.016-.113-.017-.017-.033-.049-.05-.065-.032-.016-.048-.033-.08-.049-.033-.016-.033-.032-.033-.049 0-.016.033-.064.065-.13.016-.015.033-.032.033-.048.016.016.016.049.032.065.049.065.114.113.195.113.08 0 .162-.048.227-.162.065-.113.113-.178.178-.194.065-.017.097-.017.13 0zm-10.67-6.34a8.223 8.223 0 0 1-.795.713c-.129.113-.242.21-.356.292-.097.08-.243.194-.405.324-.162.13-.292.243-.357.308a.891.891 0 0 0-.113.146c-.033.081-.065.146-.082.195 0 .016.033 0 .065-.033.017-.016.049-.032.065-.049.016-.016.049-.032.065-.048l.324-.26.195-.146c.065-.048.13-.097.178-.13.049-.048.146-.113.276-.21.13-.097.243-.21.373-.308.113-.098.227-.195.324-.308.114-.114.211-.227.308-.34.098-.114.163-.244.211-.39.016-.033.016-.065 0-.049-.032.049-.13.146-.275.292zm-.389 6.713c-.032-.049-.08-.081-.13-.13l-.016.032c.033.017.05.049.065.081l.049.098a.3.3 0 0 1 .032.113c0 .049.017.081.017.13 0 .065 0 .114-.017.178a.576.576 0 0 1-.065.146c-.032.049-.048.081-.097.114l.016.016a.494.494 0 0 0 .13-.13.483.483 0 0 0 .081-.162c.016-.048.016-.113.016-.178 0-.065-.016-.13-.016-.179 0-.032-.032-.08-.065-.13zm-.648-3.52c-.017 0-.033.033-.065.082-.033.065-.065.097-.081.13a.31.31 0 0 1-.13.064c-.065.033-.113.065-.146.082a1.326 1.326 0 0 0-.146.13c-.032.048-.08.129-.146.275-.065.146-.097.227-.113.227a.718.718 0 0 1-.195.162s-.032.016-.113.081c-.098.065-.179.114-.211.146-.033.033-.065.049-.081.065-.033.032-.049.049-.049.065.016.016.032.032.081.032s.114-.016.195-.032c.08-.016.146-.033.194-.049a.512.512 0 0 0 .227-.227c.033-.065.065-.178.13-.308a.709.709 0 0 1 .097-.162.224.224 0 0 1 .065-.049c.033-.016.114-.065.243-.13.098-.048.179-.21.26-.486 0-.065 0-.097-.016-.097zm-.438 2.125c-.016 0-.049.049-.114.162a.918.918 0 0 0-.097.195c0 .016.016.032.032.048.017.017.05.033.065.065l.065.065c.016.016.033.033.049.033s.049-.033.097-.114c.049-.08.081-.146.081-.194 0-.05-.016-.098-.065-.163-.048-.064-.08-.097-.113-.097zm-2.32-1.46c-.015 0-.031.017-.031.05a3.26 3.26 0 0 0-.082.502c0 .113.033.195.098.243.08.065.21.098.405.098.21 0 .39-.05.535-.13.098-.049.162-.114.244-.179.08-.08.162-.21.243-.356.08-.146.146-.357.194-.617.033-.194.049-.373.049-.535 0-.065 0-.194.016-.405 0-.065 0-.146.016-.227.017-.097.017-.146.017-.179 0-.032 0-.064.016-.08v-.05h-.033c-.016.033-.048.114-.113.244-.049.114-.081.195-.114.243 0 .016-.016.081-.016.179 0 .048 0 .227-.016.502 0 .244-.016.406-.032.52a.514.514 0 0 1-.082.226.69.69 0 0 1-.356.276c-.114.049-.26.065-.406.065-.048 0-.113 0-.194-.016a2.66 2.66 0 0 1-.179-.049.243.243 0 0 1-.162-.243v-.065c.016 0 0-.016-.016-.016zm.65-.291h-.05c-.031 0-.031.016-.031.032 0 .049.032.065.08.065.082 0 .13-.016.163-.065.032-.048.032-.08.016-.113s-.016-.065-.016-.081c.016-.033.048-.05.097-.05s.081-.015.081-.064c0-.032-.016-.049-.049-.049a.184.184 0 0 0-.13.05.126.126 0 0 0-.032.129c.017.048.017.08-.016.097a.147.147 0 0 1-.113.049zm2.837-1.444a.858.858 0 0 0-.097.211c0 .017.033.049.097.098.065.048.114.08.114.08.049 0 .113-.08.195-.259.032.016.08.065.13.114.032.032.064.048.08.048.017 0 .065-.048.114-.113.049-.081.08-.146.08-.21 0-.05-.031-.098-.08-.163-.049-.049-.097-.081-.13-.081-.016 0-.032.032-.08.113-.033.049-.066.098-.098.162a.532.532 0 0 0-.098-.13c-.048-.048-.08-.064-.113-.064-.016.016-.049.081-.114.194zm-.859 3.082a.498.498 0 0 0 .081-.211c0-.049-.032-.098-.081-.162-.049-.049-.097-.081-.13-.081-.016 0-.032.032-.08.113-.033.049-.066.114-.098.162a.532.532 0 0 0-.097-.13c-.05-.048-.098-.064-.114-.064s-.049.064-.113.194c-.065.13-.098.195-.098.211 0 .016.033.049.098.097a.333.333 0 0 0 .113.081c.049 0 .114-.08.195-.26.032.033.08.066.13.114.032.033.064.065.08.065.017 0 .05-.048.114-.13zm-.276 1.443c-.016 0-.016 0-.032.016 0 0-.016.016-.016.049l-.033.065s0 .016.016.016c.017 0 .017.016.017.016s0 .016-.017.016l-.032.033-.049.048c-.016.016-.032.049-.048.065a.124.124 0 0 0-.033.081c-.016.033-.016.049-.016.065s0 .033.016.049c0 .016.016.016.033.032.032.016.048.033.065.033l.016.016a.274.274 0 0 1-.033.08.195.195 0 0 1-.08.082c-.033.016-.05.032-.082.032s-.065.017-.097.017c-.049 0-.097-.017-.114-.049a.184.184 0 0 1-.048-.13c0-.032 0-.065.016-.097 0-.016.016-.065.049-.146.016-.049.032-.081.032-.097v-.033s-.016.016-.032.049c-.017.016-.017.049-.033.065-.032.065-.048.13-.08.178a.837.837 0 0 0-.033.179c0 .08.016.145.048.178a.147.147 0 0 0 .13.065c.114 0 .21-.049.276-.162.032-.049.048-.098.08-.163.017-.064.033-.113.033-.162v-.048c0-.017-.016-.017-.032-.033s-.033-.016-.049-.032-.032-.016-.032-.033c0-.016 0-.016.032-.032l.033-.033a.354.354 0 0 1 .08-.048c.017 0 .033-.016.082-.049.016-.016.032-.032.065-.048.016-.033.032-.05.032-.065 0-.017-.016-.033-.032-.049-.033 0-.065 0-.098-.016zm.844.194c-.017.033-.033.05-.033.05h-.016c-.016.015-.016.015-.016.031-.033 0-.033.017-.049.017h-.032c-.017 0-.05.016-.081.065a.224.224 0 0 0-.05.064c0-.016-.015-.016-.015-.032-.017-.016-.033-.032-.065-.032-.016 0-.033 0-.049.016l-.032.032-.033.033c-.016.016-.032.016-.065.016a.124.124 0 0 1-.08-.033c-.017-.032-.017-.064-.017-.097v-.065c0-.032 0-.065.016-.097l.033-.195v-.081c-.016.017-.016.049-.033.081-.016.033-.016.065-.032.065 0 .049-.016.13-.033.227-.016.098-.016.162-.016.162 0 .05.016.098.033.13a.09.09 0 0 0 .08.049c.017 0 .033 0 .05-.016a.035.035 0 0 0 .032-.033c.016-.016.032-.032.048-.065.017-.032.05-.048.065-.048.017 0 .033 0 .049.016s.016.032.016.049v.097s0 .016.016.016c0 0 .017-.016.017-.049.016-.048.032-.08.048-.13 0-.016.017-.032.033-.048.016-.032.032-.032.048-.049h.065l.016-.016.017-.016c.016-.016.016-.016.032-.016s.033-.017.049-.049.032-.049.032-.081v-.016c-.048.032-.048.032-.048.048zm-1.46.098c0-.017.016-.033.016-.033v-.016h-.032s-.033 0-.065-.016c-.016 0-.032-.016-.032-.016-.017 0-.033.016-.065.032a.224.224 0 0 0-.049.065l-.081.13a.124.124 0 0 1-.081-.033c-.016-.016-.033-.048-.033-.097v-.065c0-.032 0-.065.017-.097l.032-.195v-.081c-.016.016-.016.049-.032.081l-.033.065c0 .049-.016.13-.032.227s-.016.162-.016.162c0 .049.016.081.032.114a.147.147 0 0 0 .114.048c.048 0 .08-.016.13-.032a.166.166 0 0 0 .08-.097s.017-.033.049-.065c.016-.016.016-.033.032-.049l.017-.016c0-.016.016-.016.016-.016 0 .032.016.016.016 0zm-.162.113c-.016.016-.033.016-.049.033 0 0-.016 0-.032.016h-.049l.065-.097c.016-.017.016-.033.032-.033.017-.016.033-.016.05-.016h.032c.016 0 .032.016.032.016a.195.195 0 0 1-.081.081zm.065-.584c-.016 0-.016 0 0 0l-.016-.016s0 .016-.017.016c-.016.017-.016.033-.032.05 0 .015-.016.032-.033.048 0 0 0 .016-.016.032 0 0 0 .016.016.016 0 0 .017.017.033.017l.032.032.017.016s.016 0 .016-.016c.016-.016.032-.032.032-.049 0-.016.016-.032.016-.048v-.033c0-.016 0-.016-.016-.032l-.032-.033zm-1.573.26c.032-.049.048-.081.097-.114l-.016-.016a.494.494 0 0 0-.13.13c-.032.049-.065.097-.08.162-.017.065-.017.114-.017.178 0 .065 0 .13.016.179a.309.309 0 0 0 .081.162c.033.049.081.081.13.13l.016-.017c-.032-.016-.049-.048-.065-.08l-.048-.098a.3.3 0 0 1-.033-.113c0-.049-.016-.081-.016-.13 0-.065 0-.114.016-.179.016-.097.033-.145.049-.194zm1.086-.065c-.016 0-.032 0-.032.016l-.049.049c-.016.016-.032.049-.065.065-.016.032-.032.048-.048.08h-.065c-.016 0-.033.017-.049.033 0 .016-.016.049-.016.065v.114c0 .016 0 .048-.016.048 0 .017 0 .033-.016.065-.017.033-.033.081-.05.097-.015.017-.032.033-.064.065.016.017-.016.033-.032.049-.017.016-.05.016-.065.032-.033 0-.065.017-.13.017a.305.305 0 0 1-.13-.033.147.147 0 0 1-.048-.113c0-.033 0-.065.016-.098 0-.016.016-.032.016-.064l.049-.098c0-.016.016-.032.016-.048v-.017l-.016.017s0 .016-.017.032c-.016.032-.032.049-.048.081 0 .016-.016.033-.033.065-.016.032-.016.081-.032.113 0 .033-.016.065-.016.098 0 .08.016.162.08.194a.184.184 0 0 0 .13.049c.033 0 .065 0 .098-.016a.261.261 0 0 0 .113-.065.442.442 0 0 0 .13-.162c.033-.049.049-.098.081-.179.016-.048.033-.097.033-.13 0-.016.016-.032.016-.048v-.032c0-.017 0-.017.016-.017h.032c.017 0 .033 0 .065-.016a.188.188 0 0 0 .114-.08c.016-.033.032-.05.049-.098a.23.23 0 0 0 .032-.098c0-.016 0-.032-.016-.048 0 .032-.016.016-.033.016zm-.016.146c-.016.016-.032.032-.049.032-.016.017-.032.017-.048.017H1.15s0-.017.017-.017c.016-.016.032-.032.032-.048.016-.033.049-.049.065-.049s.032 0 .032.016c.017 0 .017.017.017.017 0 .016-.017.016-.033.032zm2.497-4.995c.033.017.065.049.098.081a.36.36 0 0 0 .08.065c.017 0 .05-.048.098-.13a.436.436 0 0 0 .065-.21c0-.049-.033-.114-.081-.162-.049-.049-.097-.081-.13-.081-.016 0-.049.064-.113.178-.05.113-.081.178-.081.195l.064.064zm4.557-4.28H6.551l-.194.097H4.93l-.211-.098H1.897c-.405 0-.373.292-.373.292 0 .26.357.26.357.26h3.357l.048-.081h.47l.066.064h2.48c.6 0 1.103-.097 1.103-.097H24v-.26H9.422c-.698-.194-1.087-.178-1.087-.178zm.86 1.491H4.022c-.39-.016-.357.276-.357.276.016.26.34.227.34.227h5.14c.358 0 1.023-.081 1.023-.081H24v-.276H10.232c-.567-.097-1.037-.146-1.037-.146zm-2.368-.746H2.676c-.39-.016-.373.292-.373.292-.017.292.308.26.308.26h4.184c.47-.017.989-.114.989-.114H24v-.26H7.832c-.583-.194-1.005-.178-1.005-.178zm3.99 2.222h-2.58l-.453.081h-.73l-.34-.081h-1.85c-.388-.016-.356.26-.356.26 0 .307.324.275.324.275h1.865l.487-.114h.551l.47.098h2.4c.39 0 .973-.114.973-.114H24v-.275H11.595c-.47-.13-.779-.13-.779-.13zm-.617-.746H7.46l-.163.097h-.713l-.098-.097H5.027c-.373-.016-.34.243-.34.243 0 .324.356.276.356.276h1.362l.081-.049h.957l.065.065h2.61c.423.016.99-.097.99-.097H24v-.276H11.14c-.632-.146-.94-.162-.94-.162zM6.454 14.27c-.292.016-.276.211-.276.211 0 .324.357.26.357.26.13 0 .324-.114.324-.114H24v-.26H6.827c-.195-.097-.373-.097-.373-.097zm4.557-1.475H9.29c-.502 0-.956.146-.956.146H7.75a9.945 9.945 0 0 0-.892-.114H5.027c-.357 0-.34.26-.34.26 0 .275.324.243.324.243h1.816c.292 0 .973-.146.973-.146h.486c.325.13.957.146.957.146h1.573a19.205 19.205 0 0 0 1.038-.098H24v-.275H11.903c-.325-.098-.892-.162-.892-.162zm.048.762c-.47-.016-1.086.146-1.086.146H7.751l-.989-.179h-1.2c-.373 0-.324.276-.324.276 0 .276.34.243.308.243h1.151l1.006-.162h2.286c.503.178 1.022.162 1.022.162.357 0 .989-.13.989-.13h12v-.275H11.79c-.325-.081-.73-.081-.73-.081zM0 4.087v.259h24v-.26zm11.303.648h-1.59c-.34.016-.762.114-.762.114H0v.26h8.935c.308.096.649.129.649.129h1.735c.373-.016.795-.114.795-.114H24V4.85H12.049a7.071 7.071 0 0 0-.746-.114zM23.74 15.551c-.13.114-.211.211-.276.26a2.371 2.371 0 0 1-.308.26c-.162.129-.308.243-.438.356a5.615 5.615 0 0 0-.324.276c-.033.032-.05.065-.081.113-.033.049-.05.098-.065.13 0 .016.016 0 .048-.032.017-.017.033-.017.049-.033l.049-.049.243-.178c.08-.065.178-.13.276-.21.064-.05.145-.114.227-.195.064-.049.113-.098.162-.13.048-.033.08-.081.113-.097.081-.081.146-.13.179-.163a.983.983 0 0 0 .097-.113.846.846 0 0 0 .113-.146.566.566 0 0 0 .098-.146c.032-.065.048-.113.065-.146v-.032c.032.032-.05.113-.227.275zM11.254 5.465H8.092c-.373 0-.795.13-.795.13H0v.243h7.216c.243.08.73.146.73.146h3.26c.356 0 .762-.146.762-.146H24V5.61H11.87a3.816 3.816 0 0 0-.616-.146zm-.21.746H7.102a2.766 2.766 0 0 0-.714.146H3.016a5.647 5.647 0 0 0-.68-.146H.388c-.194 0-.194.26-.194.26 0 .259.194.243.194.243h1.833c.389-.033.81-.146.81-.146h3.341c.292.064.665.13.665.13h3.908c.373-.017.73-.114.73-.114H24v-.26H11.708c-.405-.113-.665-.113-.665-.113zm4.232 9.924c.08-.08.146-.13.178-.162.016-.016.049-.049.097-.114.049-.048.081-.097.114-.145a.566.566 0 0 0 .097-.146c.033-.065.065-.114.065-.146v-.033l-.26.26c-.113.113-.21.194-.275.26a2.371 2.371 0 0 1-.308.259c-.081.064-.146.113-.227.178-.065.065-.146.113-.227.178a4.84 4.84 0 0 0-.325.276c-.032.032-.048.065-.08.114-.017.032-.05.08-.066.13 0 0 .017 0 .05-.033a.557.557 0 0 1 .096-.081l.244-.195a.9.9 0 0 0 .13-.097c.048-.033.097-.065.13-.097.08-.065.161-.13.226-.195.195-.097.292-.178.34-.21zm-5.011-8.449H6.243c-.308-.016-.68.114-.68.114h-.73c-.309-.114-.568-.114-.568-.114H.859c-.275 0-.243.26-.243.26 0 .243.211.227.211.227h3.34c.309.016.682-.114.682-.114h.746c.227.114.616.13.616.13h3.957c.486 0 .762-.113.762-.113H24v-.244H10.962c-.486-.162-.697-.146-.697-.146zm.503-.73H6.632c-.437-.015-.73.114-.73.114h-1.75c-.47-.113-.682-.13-.682-.13H.681c-.26 0-.243.244-.243.244 0 .26.21.227.21.227h2.709a4.14 4.14 0 0 0 .697-.114h1.8c.243.098.649.146.649.146h4.2c.34-.016.665-.13.665-.13H24v-.227H11.384c-.357-.13-.616-.13-.616-.13zm-1.07 1.476s-3.212-.016-3.503 0a2.96 2.96 0 0 0-.536.082h-.47c-.162-.05-.389-.098-.389-.098H1.314c-.357 0-.309.26-.309.26 0 .243.276.243.276.243h3.405a5.54 5.54 0 0 0 .487-.081h.486c.195.08.438.097.438.097H9.6c.308 0 .746-.113.746-.113H24v-.26H10.362c-.276-.113-.665-.13-.665-.13zm10.475 7.67a.566.566 0 0 0 .097-.145c.033-.065.049-.114.065-.146v-.033s-.08.098-.26.26c-.048.048-.113.097-.145.146l-.114.113a2.371 2.371 0 0 1-.308.26c-.081.065-.146.113-.227.178l-.227.179c-.162.13-.26.227-.324.275a.493.493 0 0 0-.081.114c-.017.032-.049.08-.065.13 0 0 .016 0 .048-.033.017-.016.033-.016.05-.032.015-.017.032-.033.048-.033l.243-.178a.9.9 0 0 0 .13-.098.891.891 0 0 0 .146-.113c.08-.065.162-.13.227-.195.065-.048.113-.097.162-.13.048-.032.08-.08.113-.097.081-.08.146-.13.179-.162a.983.983 0 0 0 .097-.113.62.62 0 0 0 .146-.146zm-.373.666a.41.41 0 0 0-.065.146c0 .016.016.016.033.032.016.016.048.032.08.065a.285.285 0 0 0 .066.048c.016 0 .048-.032.08-.097a.373.373 0 0 0 .05-.146c0-.032-.017-.08-.066-.13-.032-.032-.064-.064-.097-.064a.721.721 0 0 0-.081.146zm-3.843.227a.05.05 0 0 0 .032.016c.033 0 .081-.065.146-.179.033.017.049.05.081.082.033.032.049.048.065.048s.049-.032.081-.08c.049-.066.065-.114.065-.147a.14.14 0 0 0-.065-.113c-.032-.049-.065-.065-.097-.065-.016 0-.033.032-.049.065-.032.048-.048.08-.08.13-.017-.033-.05-.066-.082-.098s-.065-.049-.081-.049-.032.05-.081.13a.41.41 0 0 0-.065.146l.049.049a.363.363 0 0 1 .08.065zm1.492.648c-.017.033-.033.049-.049.081l-.049.098a.232.232 0 0 0-.032.113c-.016.033-.016.081-.016.114 0 .065-.017.146 0 .26v.259c0 .064-.017.13-.033.194-.016.065-.016.097-.016.097v.017s.016 0 .032-.017c.017-.016.017-.032.033-.048.016-.033.032-.081.065-.146a.672.672 0 0 0 .048-.26c0-.048 0-.097.017-.162v-.6c0-.016 0-.016-.017-.016.033 0 .017 0 .017.016zm-.39-1.119c-.032.033-.048.065-.08.114-.033.048-.05.097-.065.13 0 .016.016 0 .048-.033.016-.016.049-.049.097-.08.503-.374.99-.78 1.427-1.217.033-.033.065-.097.114-.179.049-.08.065-.13.032-.113-.405.39-.94.843-1.573 1.378zm-2.302.26c-.016 0-.033.048-.081.13-.033.08-.065.13-.065.162 0 .016 0 .032.016.032.016.016.049.033.081.065.033.032.065.032.065.032.016 0 .049-.032.081-.097a.373.373 0 0 0 .049-.146c0-.032-.033-.065-.065-.113-.016-.065-.049-.081-.081-.065zm.162 2.092a.274.274 0 0 1 .081-.033.617.617 0 0 0 .081-.097c.033-.049.065-.13.114-.243.016-.017.016-.049.032-.081 0-.033.016-.049.016-.065s0-.049.016-.065v-.081a.262.262 0 0 0-.048-.146c-.033-.033-.065-.065-.114-.065-.032 0-.048.016-.08.049-.033.032-.05.08-.082.13a.282.282 0 0 0-.049.113c-.016.032-.016.049-.016.065 0 .032 0 .065.033.08.032.033.065.033.097.033h.016c.016 0 .016 0 .016-.016h.033A.576.576 0 0 1 15 18.6c-.032.049-.065.065-.097.097-.033.017-.098.065-.195.13-.065.097-.113.13-.113.146h.016c.016 0 .065-.016.146-.032.08-.033.13-.05.162-.065zm2.335-2.14v-.017s-.016.016-.032.016c-.033.033-.049.081-.081.146a.439.439 0 0 0-.05.13c-.015.032-.015.065-.015.113 0 .049-.017.098-.017.114v.276c0 .048-.016.097-.048.113a.147.147 0 0 1-.114.049c-.048 0-.08-.017-.097-.049a.501.501 0 0 1-.032-.21c0-.033 0-.066.016-.098 0-.033.016-.081.032-.178l.065-.325v-.032s-.016-.016-.016 0l-.097.194c0 .017-.017.033-.033.065a.791.791 0 0 0-.049.114c-.016.016-.016.048-.016.097s-.016.097-.016.146c0 .032-.016.081-.016.162v.308a.124.124 0 0 1-.033.081l-.032.033c-.016.016-.065.016-.13.016-.08 0-.146 0-.227.016h-.032c-.016 0-.033 0-.033.016-.065.033-.146.065-.227.13-.08.065-.162.13-.243.243-.032.033-.097.13-.195.276-.032.049-.048.081-.08.13-.065.097-.13.194-.195.26a1.152 1.152 0 0 1-.211.194 5.56 5.56 0 0 1-.178.13.617.617 0 0 0-.098.08c-.016.017-.016.033-.016.033.016.016.033.016.049 0 .016 0 .016 0 .032-.016h.016c.05-.016.098-.049.146-.065l.146-.097c.049-.033.114-.098.195-.179.081-.08.162-.178.243-.275.081-.114.146-.195.195-.276a.768.768 0 0 1 .21-.178c.065-.033.098-.049.13-.049.033-.016.065-.016.098-.016h.178c.016 0 .032 0 .049-.016a.357.357 0 0 0 .097-.082c.032-.032.065-.08.097-.113.016-.016.049-.049.081-.097.033-.033.049-.049.065-.049.033.049.065.065.114.065.048 0 .097-.033.146-.097.048-.065.08-.13.13-.227.032-.082.048-.163.064-.211a1.6 1.6 0 0 0 .049-.39c0-.13 0-.243.032-.34-.016-.032-.016-.065-.016-.065zm2.368 1.02s-.017.017-.033.05a.27.27 0 0 0-.032.08c-.016.017-.033.017-.049.017s-.032-.017-.032 0c-.033.097-.065.13-.098.13 0 0-.016 0-.032-.017-.016 0-.032.016-.049.065-.032.049-.048.065-.097.065l-.065-.016a.274.274 0 0 0-.08.032c-.033.016-.066.049-.098.114a.231.231 0 0 1-.195.097.262.262 0 0 1-.146-.049c-.048-.048-.08-.13-.08-.243v-.065c0-.048 0-.097.015-.178.017-.146.017-.243.033-.308v-.033c-.016 0-.016 0-.016.017l-.065.162-.065.162c-.016.016-.016.065-.016.113 0 .065 0 .114-.017.146v.114c0 .162-.016.26-.016.292 0 .032-.016.065-.016.08a.261.261 0 0 1-.065.114c-.032.033-.065.033-.113.033-.049 0-.065-.016-.081-.016-.033 0-.05-.017-.065-.017a.501.501 0 0 0-.13.033.507.507 0 0 0-.178.146 1.1 1.1 0 0 0-.098.146c-.016.032-.016.048 0 .048h.033a.476.476 0 0 1 .26-.065c.015 0 .048.017.096.017.033 0 .082 0 .13-.017a.383.383 0 0 0 .146-.097l.097-.146c.05-.08.065-.13.081-.13h.017c.048.065.097.098.178.098.081 0 .162-.049.227-.162.065-.114.114-.163.178-.195h.082c.032 0 .08-.049.162-.13.016-.016.048-.016.065-.032.016 0 .048-.016.064-.049.017-.016.05-.048.082-.065.032-.016.048-.065.064-.097l.05-.146c-.017-.065-.017-.081-.033-.097.016 0 .016 0 0 0zm-.94 1.703c-.017 0-.033.05-.082.13-.032.081-.065.13-.065.146 0 .016 0 .033.016.033.017.016.049.032.081.064a.1.1 0 0 0 .065.033c.017 0 .049-.033.081-.097a.373.373 0 0 0 .049-.146c0-.033-.032-.065-.065-.114a.09.09 0 0 0-.08-.049zm1.815-1.345a.05.05 0 0 0 .033.016c.032 0 .08-.065.146-.179.032.017.048.049.08.081.033.033.05.05.066.05s.048-.033.08-.082c.05-.065.066-.114.066-.146a.14.14 0 0 0-.065-.113c-.033-.033-.065-.065-.098-.065-.016 0-.032.016-.048.065-.033.048-.049.08-.081.13a.443.443 0 0 0-.081-.098c-.033-.032-.065-.049-.081-.049-.017 0-.033.049-.082.13a.41.41 0 0 0-.064.146l.048.049a.378.378 0 0 1 .081.065zm3.13-1.525s-.032.033-.065.081c-.032.033-.048.081-.08.114-.017-.033-.05-.065-.082-.098-.049-.032-.065-.048-.097-.048-.017 0-.049.048-.098.13-.048.097-.08.146-.08.162l.08.08c.05.05.081.066.098.066.032 0 .097-.065.162-.195a.434.434 0 0 1 .097.081c.033.033.049.049.065.049s.049-.033.097-.097c.049-.065.065-.114.065-.163a.14.14 0 0 0-.065-.113.178.178 0 0 0-.097-.049zm.016.99c-.016 0-.016.016-.032.032s-.033.048-.049.065c-.032 0-.065 0-.097.016-.033.016-.081.032-.114.081-.032.049-.065.081-.08.097-.033.033-.05.065-.05.081-.032.033-.048.049-.08.049h-.065c-.049 0-.098 0-.13.016h-.032c-.017 0-.033 0-.033.016-.065.033-.146.065-.227.13-.081.065-.162.13-.243.243-.033.033-.097.13-.195.276-.032.049-.048.081-.08.13-.066.097-.13.194-.195.26a1.152 1.152 0 0 1-.211.194c-.065.049-.13.097-.179.13a.617.617 0 0 0-.097.08c-.016.017-.016.033-.016.033.016.016.032.016.048 0 .017 0 .017 0 .033-.016h.016c.049-.016.097-.049.146-.065l.146-.097c.049-.033.114-.098.195-.179.08-.08.162-.178.243-.275.08-.114.146-.195.194-.276a.768.768 0 0 1 .211-.178c.065-.033.098-.049.13-.049.032-.016.065-.016.097-.016h.065c.065 0 .114-.016.146-.049.033-.032.097-.13.195-.292.032-.048.048-.065.08-.08a.123.123 0 0 1 .066-.033c.016 0 .048-.017.065-.017.032 0 .08-.064.13-.178.015-.049.015-.065.015-.081 0-.049 0-.065-.016-.049zm-.227-.957c.033.032.065.048.065.048.016 0 .049-.032.081-.097.033-.065.065-.114.065-.162 0-.049-.016-.081-.065-.13-.048-.032-.08-.065-.113-.065-.017 0-.049.049-.081.13a.598.598 0 0 0-.065.146c0 .016.016.032.032.032.016.049.049.065.081.098zm-1.848 2.027c.016-.017.032-.033.048-.065a.224.224 0 0 0 .049-.065c.032-.033.049-.065.08-.097.033-.033.05-.033.082-.049.032 0 .065-.016.097-.016h.033c.032 0 .048-.016.08-.049a.353.353 0 0 0 .082-.13.576.576 0 0 0 .065-.146.583.583 0 0 0 .032-.178c0-.065.016-.243.033-.535 0-.049 0-.114.016-.162v-.195c0-.016-.016-.016-.016 0l-.065.179-.081.243v.47c0 .032 0 .081-.017.13 0 .048-.016.08-.016.113-.016.049-.032.065-.065.049-.032-.016-.048-.016-.08-.016a.326.326 0 0 0-.13.065c-.017.016-.033.048-.065.08-.033.033-.049.05-.049.066a.256.256 0 0 1-.13.08c-.048.033-.113.05-.194.082-.13.032-.227.065-.308.08-.081.017-.195.017-.325.033h-.356c-.13 0-.227-.016-.292-.032-.065-.016-.114-.033-.146-.065a.147.147 0 0 1-.049-.114c0-.048-.016-.08-.032-.08-.017 0-.033.048-.033.13-.016.08-.016.145-.016.226 0 .114.032.195.114.243a.368.368 0 0 0 .21.049c.081.016.162.016.26.016.243 0 .47-.016.665-.065.194-.048.356-.113.454-.178 0-.032.032-.065.065-.097zm-1.67-1.379c.032.016.048.049.097.081.032.033.048.049.064.049.017 0 .05-.032.082-.081.032-.065.064-.114.064-.162a.14.14 0 0 0-.064-.114c-.05-.032-.082-.065-.098-.065 0 0-.032.033-.065.081-.016.033-.048.082-.064.114a.216.216 0 0 0-.082-.097c-.032-.033-.064-.049-.08-.049-.017 0-.05.049-.082.13a.614.614 0 0 0-.065.146l.081.08c.05.05.082.066.098.066 0 .016.048-.049.113-.179z"/></svg>