<svg viewBox="0 0 24 24" xmlns="http://www.w3.org/2000/svg" role="img"><path d="M12.752 23.42c.015-.317-.002-.946-.036-1.398-.05-.656-.05-.888-.004-1.147.063-.355.286-.906.52-1.285.081-.133.149-.253.149-.266 0-.013-.123-.102-.273-.198a4.2 4.2 0 0 1-.514-.402l-.242-.229-.031.363c-.056.666-.043.819.088.974.182.216.166.51-.04.734-.139.151-.187.174-.376.174-.269 0-.446-.11-.54-.336a.56.56 0 0 1 .109-.616c.11-.11.12-.16.146-.712l.028-.594-.254.2c-.14.111-.426.288-.636.392-.21.105-.388.197-.396.205-.008.007.082.213.2.457.402.827.466 1.261.341 2.315-.041.352-.076.923-.076 1.268v.629l-.225-.001c-.254-.001-.652-.15-1.004-.376l-.237-.152-.158.12c-.186.143-.467.266-.602.266-.118 0-.414-.389-.455-.598l-.03-.148-.505-.026c-.525-.026-.77-.083-.952-.22l-.107-.081.264-.405c.145-.222.459-.796.698-1.276.4-.8.463-.9.773-1.204.2-.197.514-.435.77-.586l.434-.254-.185-.362a3.57 3.57 0 0 1-.242-.6 1.426 1.426 0 0 0-.083-.27c-.014-.017-.163.185-.33.451-.25.396-.303.515-.295.66.02.354-.218.605-.575.605a.523.523 0 0 1-.543-.469c-.046-.344.162-.61.53-.676.058-.01.211-.194.39-.465.162-.247.29-.453.284-.46a1.054 1.054 0 0 0-.223.039c-.117.027-.46.04-.763.03l-.55-.018-.028.524c-.048.91-.216 1.334-.88 2.227a9.15 9.15 0 0 0-.835 1.307 4.599 4.599 0 0 1-.146.278c-.01.009-.09-.03-.183-.086-.235-.146-.514-.477-.695-.827l-.155-.298-.205.038c-.24.045-.626-.016-.684-.108-.073-.118-.101-.467-.053-.658.044-.172.039-.195-.053-.243-.488-.252-1.074-.78-1.074-.968 0-.032.142-.125.315-.206.4-.187.776-.415 1.344-.815.855-.6 1.301-.756 2.21-.77l.527-.007.027-.45a3.75 3.75 0 0 1 .1-.686c.04-.129.063-.243.053-.253-.01-.01-.256.104-.546.255-.436.226-.54.301-.592.428a.57.57 0 0 1-.83.247c-.19-.13-.312-.4-.264-.59a.81.81 0 0 1 .19-.286c.132-.132.194-.158.365-.158.113 0 .236.02.274.044.082.052 1.113-.449 1.069-.52a.11.11 0 0 0-.085-.046c-.099 0-.637-.273-.928-.47l-.281-.191-.22.353c-.537.86-.875 1.146-1.882 1.587-.742.326-1.056.49-1.476.771l-.274.184-.126-.276C.86 16.56.846 16.47.843 16c-.002-.529-.002-.53-.122-.554-.17-.035-.587-.332-.607-.432-.025-.13.127-.482.28-.645l.139-.149-.096-.134c-.204-.288-.39-.761-.413-1.06L0 12.727l.634.023c.349.012.965-.004 1.37-.037.565-.046.817-.047 1.087-.005.371.058.94.28 1.333.523.13.08.252.144.272.144.02 0 .118-.139.218-.309.1-.17.295-.43.435-.578.14-.148.249-.274.242-.28a7.5 7.5 0 0 0-.589-.02c-.516-.008-.59.001-.7.088-.5.394-1.168-.108-.9-.674.158-.333.583-.419.877-.178.155.127.2.137.749.168l.583.032-.228-.3a4.37 4.37 0 0 1-.386-.63l-.159-.333-.54.27c-.858.43-1.248.486-2.449.347a10.385 10.385 0 0 0-1.215-.059c-.364.01-.58-.003-.593-.034-.034-.091.059-.538.16-.766.055-.125.166-.33.246-.455l.146-.228-.098-.104C.372 9.2.204 8.835.202 8.694c0-.127.305-.365.572-.445l.178-.054v-.392c.001-.216.027-.485.057-.598.055-.206.219-.562.258-.562.011 0 .197.12.414.264.216.145.786.458 1.266.695.774.382.91.467 1.189.744.256.254.75.951.819 1.156.009.026.11-.013.225-.086.285-.18.635-.33.942-.402l.255-.06-.464-.3-.463-.3-.3.029c-.294.027-.302.025-.467-.14-.144-.144-.168-.2-.168-.387 0-.614.834-.807 1.068-.246.05.12.182.232.56.473.27.173.505.314.52.314.014 0 .007-.069-.018-.153-.024-.085-.044-.405-.044-.711v-.558h-.399c-.808 0-1.419-.186-2.025-.616-.827-.588-1.39-.958-1.67-1.099a5.491 5.491 0 0 1-.308-.16c-.01-.01.029-.09.085-.182.13-.212.47-.494.833-.694l.295-.164a.772.772 0 0 0-.039-.183.883.883 0 0 1 .005-.436c.046-.22.073-.263.181-.292.149-.039.45-.045.643-.013.102.017.15 0 .19-.07.194-.346.37-.595.53-.752.172-.167.44-.345.467-.308.006.008.133.247.282.53.148.283.448.774.665 1.09.651.947.762 1.245.807 2.164l.024.498.535.03c.294.017.626.064.737.104.11.041.2.06.2.041a6.302 6.302 0 0 0-.25-.505c-.222-.424-.263-.475-.413-.513-.477-.121-.62-.66-.257-.979a.534.534 0 0 1 .636-.075c.202.105.285.253.285.51 0 .18.053.333.261.748.144.286.27.52.28.52.01 0 .051-.105.093-.233.068-.207.282-.6.483-.885.067-.095.052-.11-.346-.352a4.814 4.814 0 0 1-.752-.588c-.352-.352-.321-.298-1.033-1.797a9.731 9.731 0 0 0-.476-.886l-.211-.326.202-.097c.28-.136.706-.207 1.082-.18.316.021.318.02.347-.11.037-.17.287-.549.387-.587.121-.047.507.104.666.26L9.77.53l.277-.168c.318-.193.8-.356 1.052-.356h.173l.003.89c.002.488.012 1.208.022 1.6.02.813-.024 1.003-.405 1.713l-.208.386.317.183c.175.1.439.3.587.443l.269.26.027-.207c.015-.115.028-.367.028-.561 0-.329-.01-.362-.142-.495-.078-.078-.145-.188-.148-.245-.024-.461.173-.696.585-.696.474 0 .717.587.393.948-.042.047-.076.281-.098.686l-.035.615.22-.194a3.43 3.43 0 0 1 .564-.373c.19-.098.35-.183.356-.188.007-.005-.095-.212-.225-.46-.271-.515-.427-1.057-.427-1.485 0-.162.034-.586.075-.943.043-.376.068-.898.06-1.24l-.017-.59h.195c.254 0 .688.152 1.021.357l.268.165.244-.164c.134-.09.322-.179.417-.197.157-.03.186-.017.308.129.074.088.17.26.213.38l.079.22.5.02c.412.018.55.043.774.146.15.068.272.135.272.149 0 .013-.117.2-.26.414-.142.214-.452.78-.688 1.256-.548 1.109-.778 1.365-1.732 1.938-.073.044-.064.077.087.356.093.169.203.424.247.568.145.482.118.483.44-.02.292-.456.293-.458.238-.661-.153-.572.536-.966.955-.546.122.122.144.18.144.382 0 .208-.02.259-.161.4-.089.088-.19.16-.225.161-.036 0-.218.235-.405.522l-.341.52.199-.035c.109-.02.414-.035.677-.035h.48l.029-.498c.052-.884.214-1.303.817-2.11.362-.484.731-1.064.921-1.446.059-.117.114-.222.124-.232.009-.01.1.036.201.103.236.157.477.453.672.827.142.272.164.293.278.264.16-.04.363-.04.586.003.139.027.184.062.211.163.045.17.045.525 0 .673-.034.109-.013.13.238.26.305.157.744.544.85.751.04.075.064.142.056.15-.008.008-.226.123-.483.256-.257.134-.732.424-1.055.646-.977.672-1.321.807-2.18.86l-.48.03-.027.456c-.014.25-.06.548-.101.662a2.358 2.358 0 0 0-.075.23c0 .01.235-.103.522-.254.375-.197.521-.298.521-.361 0-.135.125-.345.257-.431.25-.165.673-.058.809.204.123.238.093.454-.09.654-.146.16-.187.178-.407.18-.195.004-.347.055-.762.26-.285.14-.518.268-.518.283 0 .014.097.055.215.09.119.035.39.168.6.295.212.127.39.226.394.22l.214-.32c.524-.79.834-1.035 1.91-1.51.408-.181.937-.449 1.175-.596.33-.202.45-.254.497-.215.137.114.233.533.233 1.021v.48l.215.075c.237.085.52.333.52.456 0 .113-.221.544-.329.641-.088.08-.086.088.073.35.19.315.351.795.351 1.053v.181l-.527-.027c-.29-.016-.93 0-1.424.034-1.098.077-1.37.034-2.11-.33a8.96 8.96 0 0 0-.503-.239c-.012 0-.108.134-.213.297a3.664 3.664 0 0 1-.413.514l-.22.218.615.032c.605.032.617.03.791-.088.266-.18.535-.166.753.04.142.134.17.192.17.358 0 .268-.103.449-.313.548a.555.555 0 0 1-.64-.098c-.124-.119-.168-.128-.74-.16a6.99 6.99 0 0 0-.624-.02c-.009.007.06.094.154.194.095.099.268.364.385.59l.212.409.307-.163c.776-.412 1.32-.499 2.358-.377.358.042.94.076 1.292.076h.643l-.001.226c-.001.254-.15.652-.376 1.004l-.152.236.12.159c.143.186.267.466.267.602 0 .118-.39.414-.6.455l-.149.03-.018.505c-.016.423-.04.55-.145.778-.07.15-.14.272-.155.272-.016 0-.15-.082-.3-.182a9.73 9.73 0 0 0-1.383-.77c-.912-.416-1.34-.774-1.752-1.468l-.22-.37c-.007-.008-.174.062-.373.156a3.796 3.796 0 0 1-.627.232l-.267.06.539.342c.406.257.58.34.706.341.36 0 .662.349.598.691a.601.601 0 0 1-.195.3.474.474 0 0 1-.383.147c-.183 0-.241-.025-.378-.162-.088-.088-.163-.206-.167-.26a5.387 5.387 0 0 0-.012-.16c-.005-.054-.91-.693-.988-.697-.019 0-.01.057.02.129.032.076.054.38.053.728l-.002.598.456.032c.89.063 1.218.198 2.187.902.375.272.874.596 1.11.719.236.123.437.23.446.238.01.008-.029.089-.086.18-.144.235-.457.497-.823.692-.284.15-.31.177-.282.284.04.155.038.36-.004.58-.027.14-.062.185-.163.212-.149.04-.503.047-.672.014-.101-.02-.136.009-.24.201-.197.364-.432.648-.657.798a1.343 1.343 0 0 1-.244.139c-.019 0-.118-.176-.222-.391-.103-.215-.429-.75-.723-1.19-.35-.523-.573-.908-.644-1.114a4.685 4.685 0 0 1-.21-1.332V17.7l-.365-.034a4.91 4.91 0 0 1-.623-.102 1.266 1.266 0 0 0-.272-.054c-.033.034.61 1.175.662 1.175.107 0 .316.267.345.442.059.365-.19.648-.572.648-.17 0-.249-.028-.363-.13a.629.629 0 0 1-.143-.67c.053-.125.035-.18-.215-.676l-.272-.539-.058.192c-.075.254-.228.55-.462.896-.174.256-.184.286-.108.332.641.389 1.089.779 1.328 1.159.073.115.275.53.45.924.174.394.439.915.587 1.158.149.242.27.46.27.482 0 .023-.123.09-.272.148-.22.086-.372.108-.776.11l-.502.003-.077.214c-.088.242-.33.522-.45.52-.13-.002-.473-.174-.602-.303l-.119-.12-.272.166c-.317.192-.797.353-1.055.353h-.18zm1.133-4.711c.16-.161.386-.605.443-.876.059-.276.044-1.024-.028-1.404-.026-.138-.012-.156.226-.291l.253-.144.371.354c.505.482.939.692 1.438.697.26.002.365-.016.4-.067.026-.04.04-.273.032-.521-.014-.402-.034-.49-.184-.807a3.903 3.903 0 0 0-.397-.64 46.38 46.38 0 0 1-.27-.337c-.027-.034.015-.145.111-.3.122-.196.173-.241.25-.222.782.198 1.32.24 1.662.127.226-.075.64-.336.64-.404 0-.026-.053-.16-.116-.296-.232-.498-.778-.938-1.484-1.196l-.296-.108v-.601l.201-.054c.888-.239 1.412-.585 1.65-1.092l.114-.245-.183-.16c-.447-.385-1.304-.513-2.17-.324-.112.025-.145.002-.253-.168-.195-.31-.195-.311.097-.604.529-.53.78-1.04.78-1.58 0-.36-.049-.396-.537-.39-.571.005-1.14.258-1.68.746l-.19.17-.265-.154c-.184-.108-.257-.177-.239-.226.015-.04.07-.253.123-.474.14-.585.107-1.029-.107-1.453-.089-.176-.2-.343-.246-.37-.134-.08-.653.216-.94.537-.24.267-.576.891-.635 1.18l-.032.153h-.642l-.079-.32c-.101-.41-.32-.875-.534-1.136-.17-.21-.59-.486-.737-.487-.106 0-.29.245-.445.595-.159.359-.203 1.014-.102 1.526l.067.343-.256.144-.256.145-.386-.36c-.52-.482-.863-.65-1.386-.678-.373-.02-.397-.014-.452.089-.04.073-.05.244-.035.525.02.348.051.474.188.763.09.19.267.473.393.63l.273.341c.03.039-.003.14-.1.311l-.146.254-.44-.113c-.61-.157-1.175-.136-1.565.058-.15.074-.307.174-.35.221-.074.082-.07.106.069.388.25.509.745.908 1.445 1.166l.34.126v.607l-.308.08c-.842.217-1.281.521-1.563 1.08l-.104.208.127.132c.156.163.59.363.925.426.329.062.61.057 1.042-.02.195-.035.377-.046.403-.025.026.02.1.134.162.25l.116.213-.34.364a3.14 3.14 0 0 0-.517.722c-.158.32-.177.398-.179.727 0 .203.014.383.032.401.076.076.64.08.927.006.392-.1.676-.249 1.101-.578l.353-.272.25.136c.139.074.252.142.252.15 0 .008-.047.19-.105.405-.156.581-.145 1.15.03 1.535.072.161.178.336.234.389.102.096.103.096.31.003.55-.247.954-.72 1.243-1.458l.152-.388h.591l.083.341c.182.741.574 1.304 1.078 1.548.245.119.217.116.302.03zm-2.261-3.94c-.335-.352-.703-.388-1.558-.151-.446.123-.64.152-1.024.153-.299.001-.513-.02-.58-.058l-.107-.06V9.111l.338.176c.312.162.37.176.723.174.33-.002.447-.027.82-.177.574-.23.858-.262 1.211-.137.15.052.335.14.411.194l.14.1.23-.143c.126-.079.348-.168.494-.199.3-.063.518-.02 1.227.239.255.093.494.148.65.148.268.001.693-.136.883-.285a.552.552 0 0 1 .146-.093c.015 0 .028 1.247.028 2.772v2.771l-.107.06c-.067.039-.281.06-.58.06-.385-.002-.579-.03-1.024-.154-.857-.237-1.241-.2-1.548.15-.135.153-.176.172-.38.172-.202 0-.25-.02-.393-.172zm-1.657-.706c.653-.184 1.079-.213 1.511-.1l.252.065-.033-1.95c-.037-2.165-.034-2.151-.357-2.32-.219-.115-.55-.08-1.136.115-.376.126-.524.151-.893.152l-.442.001.031 2.042c.017 1.123.04 2.07.05 2.102.033.104.409.065 1.017-.107zm5.114-.675c.003-.463.019-1.409.036-2.102l.03-1.26h-.444a2.282 2.282 0 0 1-.888-.15c-.588-.195-.928-.23-1.144-.118-.322.168-.32.155-.357 2.32l-.033 1.95.252-.066c.138-.035.402-.065.587-.065.322 0 .486.033 1.16.234.17.05.419.093.552.095l.244.003.005-.842z"/></svg>