<svg role="img" viewBox="0 0 24 24" xmlns="http://www.w3.org/2000/svg"><path d="M2.014 8.556c-1.05 0-1.808.695-1.808 1.76 0 1.015.563 1.238 1.419 1.481.292.084.827.216.827.598 0 .369-.34.529-.66.529-.466 0-.87-.244-1.21-.543L0 13.473a.01.01 0 0 0 .003.012 3.236 3.236 0 0 0 1.837.593c.528 0 1.078-.146 1.488-.494.417-.354.543-.89.543-1.411 0-.849-.564-1.218-1.294-1.433l-.348-.104c-.236-.077-.605-.195-.605-.501 0-.292.334-.438.584-.438.124 0 .246.019.362.053a.755.755 0 0 0 .887-.378l.194-.377a.01.01 0 0 0-.004-.012 3.59 3.59 0 0 0-1.634-.427zm19.455.14v.065h.105v.277h.082v-.277h.105v-.066zm.334 0v.342h.074v-.277h.002l.1.277h.044l.1-.277h.001v.277h.075v-.343h-.12L22 8.898l-.077-.203zm.897 0l-.857 3.294h.713a.757.757 0 0 0 .733-.568L24 8.695zM6.535 10.252c-.492 0-.846.145-1.138.573-.002.002-.004.004-.008.004a.009.009 0 0 1-.009-.009v-.44a.009.009 0 0 0-.009-.01H4.124a.009.009 0 0 0-.01.01v3.55c0 .004.005.008.01.008h.503a.754.754 0 0 0 .753-.753v-1.097c0-.445.146-.828.661-.828.626 0 .57.598.57.94v1.73c0 .004.004.008.01.008h.503a.754.754 0 0 0 .753-.754v-1.45c0-.877-.382-1.482-1.342-1.482zm3.37 0c-1.057 0-1.787.876-1.787 1.899 0 1.022.744 1.906 1.801 1.906.416 0 .852-.16 1.076-.511.002-.003.004-.004.007-.004.005 0 .009.004.009.009v.378c0 .005.004.01.009.01h.503a.754.754 0 0 0 .754-.754V10.38a.009.009 0 0 0-.01-.009H11.02a.009.009 0 0 0-.01.01v.314c0 .008-.01.012-.015.006-.265-.3-.688-.448-1.09-.448zm5.117 0c-.416 0-.845.166-1.075.518-.002.002-.005.004-.008.004a.009.009 0 0 1-.01-.01v-.394h-1.265v5.073h.512a.754.754 0 0 0 .754-.754v-1.088c0-.001 0-.002.002-.001.271.311.694.457 1.104.457 1.057 0 1.787-.863 1.787-1.892 0-1.023-.737-1.913-1.801-1.913zm4.396 0c-.416 0-.845.166-1.076.518-.002.002-.004.004-.008.004a.009.009 0 0 1-.009-.01v-.385a.009.009 0 0 0-.009-.009H17.07a.009.009 0 0 0-.01.01v5.054c0 .005.005.01.01.01h.503a.754.754 0 0 0 .754-.755v-1.068c0-.008.01-.012.015-.006.272.3.688.441 1.09.441 1.058 0 1.788-.862 1.788-1.891 0-1.023-.737-1.913-1.801-1.913zm-9.179 1.099c.515 0 .814.369.814.807 0 .452-.299.8-.814.8-.514 0-.813-.348-.813-.8 0-.438.299-.807.813-.807zm4.463 0c.515 0 .814.369.814.807 0 .452-.299.8-.814.8-.515 0-.814-.348-.814-.8 0-.438.3-.807.814-.807zm4.396 0c.515 0 .814.369.814.807 0 .452-.3.8-.814.8-.515 0-.814-.348-.814-.8 0-.438.3-.807.814-.807zm3.173 1.104a.801.801 0 1 0 0 1.602.801.801 0 0 0 0-1.602z"/></svg>