<svg viewBox="0 0 24 24" xmlns="http://www.w3.org/2000/svg" role="img"><path d="M4.972 5.857C.976 8.507.81 11.475.5 13.844c3.835 1.56 4.826 2.41 6.72 4.012.771-1.544.858-2.684.7-4.428.915 1.317.911 7.28-3.21 9.325 2.3.377 4.663 1.355 7.047 1.237-.34-7.148-1.613-11.618-6.785-18.133zM9.222.059C16.656-.41 18.324 2 20.783 3.96c-2.71 4.813-3.368 7.704-4.016 10.948-2.086-.972-3.137-1.954-4.417-3.907.136 2.136 5.15 7.765 11.149 6.48a44.63 44.63 0 0 1-7.034 6.256C11.826 17.288 9.22 11.154 9.22.058z"/></svg>