<svg viewBox="0 0 24 24" xmlns="http://www.w3.org/2000/svg" role="img"><path d="M11.397 23.979a8.23 8.23 0 0 1-3.76-1.229 8.275 8.275 0 0 1-1.422-1.136l-.31-.304.304-.304.303-.305.297.29a7.31 7.31 0 0 0 4.361 2.111c.33.041 1.222.046 1.554.01a7.35 7.35 0 0 0 4.474-2.152l.255-.252.306.306.305.306-.278.272a8.181 8.181 0 0 1-6.389 2.388zm-2.294-2.237a.18.18 0 0 1-.08-.126c0-.033.09-.017.11.02.037.069.163.068.2-.002.03-.054-.004-.094-.127-.152-.085-.038-.12-.066-.141-.112-.065-.136.044-.256.213-.236.082.01.146.06.146.113 0 .034-.08.032-.11-.003-.03-.037-.126-.028-.152.014-.03.048.003.087.124.15.124.066.156.104.156.187 0 .044-.015.077-.053.115-.046.046-.067.053-.15.052a.432.432 0 0 1-.136-.02zm1.688-.016a.25.25 0 0 1-.086-.1.607.607 0 0 1-.001-.343.25.25 0 0 1 .309-.14c.07.024.092.045.11.106.011.035.006.04-.033.04a.075.075 0 0 1-.066-.036c-.03-.057-.156-.043-.205.021-.084.114-.048.353.06.398.067.028.14.01.154-.037.008-.023.028-.036.056-.036.06 0 .057.045-.008.11-.045.045-.069.054-.141.054a.292.292 0 0 1-.148-.037zm2.323.01c-.078-.043-.113-.148-.105-.316.008-.172.043-.234.154-.274.142-.05.257.055.275.25.018.21-.07.367-.207.366a.298.298 0 0 1-.117-.026zm.19-.106c.05-.067.053-.265.006-.354-.037-.07-.114-.08-.167-.022-.066.072-.058.332.011.402.048.047.103.038.151-.026zm1.114.088c-.066-.062-.084-.118-.084-.266 0-.213.069-.317.21-.317.062 0 .09.011.133.052.122.117.123.403.002.524a.193.193 0 0 1-.26.007zm.21-.083c.044-.06.06-.19.035-.285-.025-.091-.062-.133-.118-.133-.07 0-.109.063-.117.192-.008.14.004.197.053.246.047.047.103.04.147-.02zm-4.968-.19v-.3h.091v.6H9.66zm.346 0c0-.3 0-.3.04-.3.033 0 .07.044.178.212l.136.213.005-.213c.005-.198.008-.213.04-.213.035 0 .037.014.037.3v.3h-.044c-.036 0-.068-.038-.182-.213l-.138-.214v.214c0 .201-.002.214-.036.214-.035 0-.037-.013-.037-.3zm1.345 0v-.3h.173c.172 0 .173 0 .173.045 0 .044-.004.045-.127.045h-.128v.164h.11c.096 0 .109.004.109.036 0 .033-.012.037-.11.037h-.109v.2h.137c.124 0 .136.003.136.036 0 .034-.012.037-.182.037h-.182zm1 .268c.001-.1.042-.17.165-.278.125-.111.148-.153.105-.196-.032-.031-.136-.028-.149.006-.005.015-.03.027-.056.027-.099 0-.024-.116.088-.137.078-.015.187.019.212.064a.26.26 0 0 1 .018.098c0 .065-.005.07-.194.237a.33.33 0 0 0-.085.102c-.008.034 0 .036.144.036.14 0 .153.003.153.036 0 .035-.012.037-.2.037-.179 0-.2-.004-.2-.032zm1.492-.216c0-.213-.004-.246-.027-.236l-.055.022c-.02.007-.027-.001-.027-.033 0-.033.017-.052.064-.075a.313.313 0 0 1 .1-.03c.034 0 .036.013.036.3v.3h-.091zm3.016-1.516a.455.455 0 0 1-.288-.159c-.103-.117-.137-.23-.137-.46 0-.18.004-.199.061-.315.098-.198.247-.285.49-.285a.51.51 0 0 1 .388.143c.117.118.162.245.162.464 0 .2-.032.316-.117.432-.108.146-.335.22-.559.18zm.268-.253c.092-.056.14-.152.149-.3.01-.16-.017-.265-.09-.348-.158-.18-.428-.095-.488.155-.045.188.017.415.133.49.076.048.22.05.296.002zm-13.043.218a.462.462 0 0 1-.123-.086c-.087-.093-.102-.19-.102-.647v-.415h.254v.369c.001.202.008.4.018.44.023.102.09.155.194.155.192 0 .207-.038.207-.554v-.41h.277l-.009.441c-.01.493-.02.55-.134.65-.08.07-.164.091-.353.091a.54.54 0 0 1-.23-.034zm-2.59-.566v-.582h.142l.14.001.214.377.214.377v-.755h.255v1.164h-.266l-.217-.38-.218-.382-.004.381-.005.381h-.254v-.582zm4.71 0v-.583l.187.005.186.005.094.405c.051.223.097.409.1.413a.831.831 0 0 0 .05-.178l.096-.418.055-.232h.36v1.164h-.235l-.005-.432-.005-.431-.052.236c-.028.13-.072.324-.097.432l-.046.195h-.125c-.069 0-.126-.006-.126-.013 0-.008-.045-.206-.099-.441l-.098-.428v.441l-.001.441h-.237Zm2.547.002v-.584h.323c.177 0 .351.009.387.018a.35.35 0 0 1 .127.083c.06.062.063.07.063.199 0 .12-.005.14-.048.185l-.05.052.045.032c.075.056.103.133.095.26-.008.135-.06.222-.169.284-.068.039-.097.042-.423.048l-.35.007v-.584Zm.607.341c.06-.027.095-.113.073-.176-.026-.073-.088-.094-.276-.094h-.168v.291h.163a.8.8 0 0 0 .208-.02zm-.027-.49c.069-.025.098-.072.082-.136-.016-.064-.071-.08-.263-.08h-.163v.236h.143a.89.89 0 0 0 .2-.02zm1.766.147v-.582h.855v.218h-.6v.218h.563v.219h-.564v.291h.637v.218h-.891zm2.273 0v-.582h.323c.177 0 .353.009.39.019.204.057.28.361.13.527-.05.057-.058.072-.036.085.056.03.084.12.084.27 0 .1.009.158.027.182.053.07.036.081-.118.081-.08 0-.146-.002-.147-.005l-.014-.191c-.017-.241-.023-.248-.24-.256l-.162-.007v.459h-.237zm.578-.092c.063-.022.097-.092.082-.17-.016-.081-.067-.102-.255-.102h-.168v.291h.142a.83.83 0 0 0 .199-.02zm4.95.092v-.582h.282l.21.373.209.373.004-.373.005-.373h.236v1.164h-.249l-.22-.386-.222-.387v.773h-.255v-.582zm2.365 0v-.582h.855v.218h-.6v.218h.563v.219h-.564v.291h.637v.218h-.891ZM.658 17.66v-.427h3.62v.855H.657Zm3.965.36c0-.255.198-.566.433-.685.2-.102.204-.102 1.464-.102h1.163l-.011.123a.866.866 0 0 1-.424.627c-.19.102-.22.104-1.475.104h-1.15v-.067zm3.364-.36v-.427h15.349v.855H7.987zm-.018-.94c0-.234.16-.509.38-.65.177-.113.19-.115.875-.129.6-.012.635-.014.809-.06a1.793 1.793 0 0 0 1.31-1.425c.016-.093.027-.27.027-.435v-.28h.859l-.01.369c-.01.415-.038.602-.13.88-.308.92-1.06 1.57-2.038 1.764-.118.024-.328.03-1.114.037l-.968.009zm7.605.058a1.588 1.588 0 0 1-.967-.53l-.1-.12-.005.327-.005.327-.35-.008c-.364-.009-.45-.024-.671-.113a1.325 1.325 0 0 1-.487-.337 1.42 1.42 0 0 1-.435-.86c-.013-.092-.02-.643-.02-1.533v-1.39h.07c.038 0 .113.013.168.03a.821.821 0 0 1 .567.514c.04.1.04.11.05 1.211l.01 1.11.056.118c.136.284.344.4.719.4h.214l-.037-.087a2.209 2.209 0 0 1-.076-.223c-.036-.128-.038-.189-.045-1.005l-.006-.87 1.233.007 1.233.005.173.059c.507.171.877.565 1.01 1.074.015.057.035.197.045.31.013.169.027.229.07.322a.696.696 0 0 0 .345.35l.138.068 1.046.005c1.163.006 1.434-.006 1.682-.078a1.8 1.8 0 0 0 1.102-.927c.142-.29.167-.409.177-.841l.008-.369h.856l-.01.405c-.012.547-.07.804-.269 1.205a2.64 2.64 0 0 1-1.617 1.347c-.32.093-.39.097-1.764.103l-1.282.004-.152-.041a1.572 1.572 0 0 1-.653-.345l-.096-.081-.09.083a1.505 1.505 0 0 1-.636.342c-.12.033-.198.039-.61.043a7.298 7.298 0 0 1-.587-.01zm1.088-.901a.757.757 0 0 0 .34-.334c.044-.089.05-.123.05-.274 0-.15-.006-.187-.048-.276a.69.69 0 0 0-.321-.329l-.12-.059-.743-.004-.743-.005.005.396.006.396.057.122a.974.974 0 0 0 .132.202c.08.086.244.183.359.211.039.01.258.016.489.014l.418-.004zm-16.003-.23c0-.914.005-1.156.026-1.256a.832.832 0 0 1 .732-.656l.096-.01v2.22l.941-.007c.933-.007.942-.007 1.046-.048a.814.814 0 0 0 .372-.345l.05-.103.012-.546c.012-.582.018-.62.113-.8a.826.826 0 0 1 .62-.423l.12-.01v.9c0 .893-.001.903-.044 1.074a1.582 1.582 0 0 1-.102.295c0 .018 1.46.01 1.59-.009a.961.961 0 0 0 .204-.053.82.82 0 0 0 .326-.323c.051-.102.053-.115.059-.41l.007-.304h.851v.3c0 .34-.026.505-.112.713-.184.443-.563.77-1.03.889-.162.041-.203.044-.695.044-.463 0-.537-.004-.634-.035a.834.834 0 0 1-.571-.649l-.02-.112-.07.11a1.56 1.56 0 0 1-.634.548c-.284.134-.19.127-1.803.133l-1.45.006v-1.133zm8.565-.059a2.2 2.2 0 0 1-.21-.056 1.566 1.566 0 0 1-.998-1.158 2.107 2.107 0 0 1-.003-.664 1.56 1.56 0 0 1 1.226-1.216c.102-.02.325-.026.97-.026h.835l-.011.087a.863.863 0 0 1-.557.714c-.106.037-.16.042-.616.052-.493.011-.502.012-.604.06a.757.757 0 0 0-.346.34c-.057.114-.06.13-.06.33 0 .196.004.215.055.317a.77.77 0 0 0 .331.33c.092.046.126.053.27.053.148 0 .175-.006.285-.06a.732.732 0 0 0 .344-.363c.034-.088.042-.15.048-.382l.008-.277h.856l-.01.322c-.012.365-.044.523-.15.749a1.51 1.51 0 0 1-.978.821 1.89 1.89 0 0 1-.686.027zm10.427-.017a1.566 1.566 0 0 1-1.155-.896c-.092-.202-.125-.382-.137-.738l-.011-.323h.86v.226c0 .255.02.38.085.507.167.332.574.48.939.34a.793.793 0 0 0 .37-.342c.046-.091.052-.124.052-.277 0-.158-.005-.183-.06-.293a.69.69 0 0 0-.328-.322c-.103-.048-.105-.048-.667-.059-.63-.011-.666-.017-.856-.14a.83.83 0 0 1-.38-.627l-.01-.086h.88c.533 0 .92.008.985.02a1.563 1.563 0 0 1 1.25 1.102c.058.205.058.606 0 .811a1.56 1.56 0 0 1-.8.965 1.867 1.867 0 0 1-.254.095c-.2.058-.56.076-.763.037zM2.7 14.875c.009-.686.02-.777.13-1.069.22-.585.71-1.06 1.294-1.256.32-.108.265-.105 1.959-.112l1.56-.007-.012.106a.853.853 0 0 1-.617.723c-.092.024-.272.028-1.203.028-1.172 0-1.257.006-1.465.093a1.34 1.34 0 0 0-.736.789c-.049.142-.05.157-.06.677l-.01.532-.06.06-.06.059-.364.005-.366.006ZM.657 11.751v-.427h9.548v-.573c0-.532-.003-.579-.038-.672-.073-.197-.11-.224-1.179-.865a30.488 30.488 0 0 1-.984-.604.91.91 0 0 1 .112-.132.846.846 0 0 1 .956-.201c.054.024.422.24.818.477.586.351.742.454.832.543.127.128.23.293.288.463.04.116.04.135.046 1.268l.005 1.15H.66Zm10.912 0v-.427h1.361l.008-.723c.008-.794.01-.81.126-1.041.117-.233.231-.322 1.037-.815.397-.242.761-.459.809-.481.075-.035.119-.04.315-.04.228-.001.229 0 .367.067a.902.902 0 0 1 .333.275c.017.027.029.052.025.055l-.94.577c-.519.317-.966.603-1.007.644a.665.665 0 0 0-.187.326c-.024.091-.028.259-.028 1.06v.95H11.57zm2.728 0v-.427h9.038v.854h-9.038zm6.201-.816c0-.014.024-.03.054-.036.084-.017.086-.072.01-.238-.075-.166-.076-.174-.027-.174.028 0 .05.028.09.114.048.108.052.111.069.068.065-.164.076-.182.112-.182.02 0 .038.005.038.01 0 .028-.17.403-.195.43-.035.04-.15.045-.15.007zm-8.93-.72c0-.689-.001-.732-.037-.827-.075-.202-.064-.194-1.882-1.33a75.142 75.142 0 0 1-1.87-1.192 4.215 4.215 0 0 1-1.622-2.771 6.606 6.606 0 0 1-.037-.564l-.011-.382-.096-.1a1.184 1.184 0 0 1-.142-.182.934.934 0 0 1-.104-.358v-.06H6.5c.428 0 .766.009.812.02a.89.89 0 0 1 .543.411c.059.11.085.194.104.337l.012.087H6.963l.011.286c.029.735.243 1.36.659 1.925.106.143.492.553.52.553.01 0 .016-1.147.016-2.549V.971l.12.01a.847.847 0 0 1 .367.137l.05.035.209-.09C9.437.838 10.19.64 10.848.556l.18-.023.12-.126A1.33 1.33 0 0 1 12.261.01c.32.041.556.157.79.39l.161.16.202.035c.642.108 1.305.297 1.746.498l.134.06.08-.052a.874.874 0 0 1 .39-.125h.08V2.59c0 .927-.008 1.701-.019 1.82a3.181 3.181 0 0 1-.796 1.83c-.193.22-.365.363-.856.713l-.412.294-.004-2.747a197.1 197.1 0 0 1 .004-2.757c.02-.02.258.035.365.085a.849.849 0 0 1 .433.48c.039.094.04.113.048 1.587l.01 1.491.122-.245c.132-.264.2-.482.232-.746a26.5 26.5 0 0 0 .019-1.293v-1.14l-.132-.063a5.84 5.84 0 0 0-1.128-.37 77.17 77.17 0 0 1-.245-.054l-.041-.009v2.901c0 2.818-.001 2.901-.034 2.901a1 1 0 0 1-.342-.09.863.863 0 0 1-.431-.47l-.039-.104-.01-2.7-.009-2.701-.04-.074A.48.48 0 0 0 11.765 1c-.134.135-.13.098-.142 1.13-.01.86-.014.94-.05 1.105a2.469 2.469 0 0 1-.635 1.199c-.467.485-1.09.76-1.718.76h-.195v.782h.186c.41 0 .866-.125 1.376-.377a7.9 7.9 0 0 0 .555-.336l.383-.25.005.75c.003.463-.002.784-.014.838a.873.873 0 0 1-.67.649c-.183.034-.167.07-.167-.363v-.381l-.122.047a4.283 4.283 0 0 1-1.092.27l-.15.012 1.34.838c1.442.902 1.47.922 1.612 1.16.037.065.086.17.108.235.04.115.04.147.046.996l.006.877h-.856ZM9.324 4.339a1.652 1.652 0 0 0 1.395-1.208c.038-.138.04-.188.047-.923.004-.428.003-.778-.003-.778a7.01 7.01 0 0 0-.205.038c-.462.088-1.075.273-1.383.417l-.15.07v1.262l.131-.008a.453.453 0 0 0 .354-.167c.092-.104.116-.187.133-.457.015-.233.042-.33.127-.462a.846.846 0 0 1 .51-.355c.223-.05.2-.115.2.555 0 .471-.006.608-.03.714a1.333 1.333 0 0 1-1.297 1.03h-.129v.292h.069c.037 0 .141-.01.23-.02zm-6.642 6.483c-.05-.035-.054-.099-.006-.099.02 0 .04.013.045.028.014.036.096.035.11-.001.008-.021-.013-.038-.08-.066-.083-.035-.09-.043-.09-.098 0-.069.051-.117.126-.117.056 0 .128.047.128.083 0 .016-.018.026-.046.026-.025 0-.045-.008-.045-.02 0-.01-.019-.016-.041-.013-.063.009-.049.057.023.078.094.028.109.042.109.11 0 .073-.052.118-.137.118a.196.196 0 0 1-.096-.028zm.813-.024c-.043-.043-.053-.07-.053-.136 0-.115.06-.183.16-.183.109 0 .167.06.167.173 0 .113-.012.14-.074.172-.08.041-.14.033-.2-.026zm.168-.05c.066-.06.023-.206-.06-.206-.039 0-.089.066-.089.118 0 .05.05.118.086.118a.116.116 0 0 0 .063-.03zm.865.084c-.02-.012-.032-.042-.032-.082 0-.07.04-.105.142-.126.043-.009.059-.022.055-.043-.008-.04-.089-.05-.11-.014-.019.034-.087.04-.086.007 0-.09.189-.138.25-.063.01.012.022.09.025.172l.006.15h-.055a.67.67 0 0 0-.109.01.147.147 0 0 1-.086-.01zm.15-.09c.032-.06.023-.074-.031-.053-.082.03-.097.09-.023.09.02 0 .043-.017.054-.036zm.563.056c-.053-.053-.057-.065-.05-.15.012-.119.06-.17.162-.17.088 0 .144.054.144.138v.053h-.119c-.065 0-.118.007-.118.014a.17.17 0 0 0 .029.055c.028.04.117.057.117.022 0-.01.02-.018.045-.018.094 0 .028.09-.077.103-.067.01-.082.004-.133-.047zm.165-.22a.066.066 0 0 0-.106-.015c-.037.038-.024.051.052.051.068 0 .072-.002.054-.036zm1.424.255a.133.133 0 0 1-.06-.053.404.404 0 0 1-.001-.237c.053-.1.274-.084.274.02 0 .04-.064.046-.08.006-.014-.038-.072-.035-.109.005-.038.042-.039.138-.002.175.033.032.091.038.108.01.018-.028.082-.021.082.009 0 .064-.122.1-.212.064zm.403-.003c-.061-.034-.081-.074-.081-.163 0-.113.011-.14.077-.173.124-.064.25.021.25.17 0 .14-.131.228-.246.166zm.145-.092a.164.164 0 0 0 .028-.078c0-.05-.05-.118-.086-.118-.05 0-.096.056-.096.12 0 .107.098.155.154.076zm11.97.08c-.043-.048-.037-.076.015-.076.026 0 .046.008.046.019 0 .01.018.017.04.014.04-.006.042-.014.047-.21.005-.205.006-.205.05-.205.045 0 .045 0 .045.18s-.019.27-.06.296c-.042.027-.152.015-.183-.019zm.463-.002c-.033-.032-.038-.06-.038-.183 0-.132.002-.146.035-.146.032 0 .036.015.041.13.007.152.039.194.104.135.03-.027.038-.056.038-.15 0-.103.004-.115.036-.115.034 0 .037.012.037.173v.173h-.05a.656.656 0 0 0-.108.01c-.044.009-.066.003-.095-.027zm2.14.015c-.055-.031-.087-.118-.087-.235 0-.168.058-.254.173-.254.114 0 .173.086.173.254 0 .12-.033.206-.09.236a.209.209 0 0 1-.17 0zm.16-.109c.05-.099.019-.285-.055-.313-.014-.006-.045.004-.068.023-.037.03-.042.05-.042.164 0 .115.005.135.042.165.05.041.087.03.122-.039zm-21.304-.03a42.703 42.703 0 0 0-.05-.174c-.008-.027-.001-.032.032-.028.033.005.047.027.07.106l.03.1.031-.105c.027-.09.038-.105.07-.1.028.003.047.03.068.09.016.047.033.09.04.096.005.006.02-.035.034-.09.018-.076.032-.1.057-.1.043 0 .042.029-.009.2-.036.122-.045.137-.084.137-.038 0-.049-.015-.075-.1-.03-.094-.032-.098-.049-.055a.851.851 0 0 0-.03.105c-.01.045-.023.059-.054.059-.036 0-.047-.019-.082-.141zm.545.02c-.067-.229-.067-.229-.019-.222.035.005.048.025.07.112l.028.106.03-.106c.024-.09.035-.106.072-.106.035 0 .047.016.07.087.014.047.032.086.038.086.007 0 .022-.04.035-.09.018-.072.031-.092.06-.092.04 0 .039.013-.02.223-.028.097-.039.114-.075.114-.032 0-.047-.016-.066-.073a3.458 3.458 0 0 0-.036-.1c-.006-.017-.023.012-.041.073-.024.076-.04.101-.07.105-.034.005-.044-.01-.076-.118zm.572.1a3.496 3.496 0 0 1-.083-.304c0-.011.016-.02.035-.02.027 0 .043.023.067.104l.031.104.03-.1c.023-.075.039-.101.068-.105.032-.005.044.012.074.1l.036.105.031-.104c.024-.08.039-.105.066-.105.042 0 .042.003.008.118-.016.05-.036.122-.046.16-.015.053-.028.068-.06.068-.036 0-.048-.017-.076-.112l-.034-.111-.03.107c-.023.084-.038.108-.069.113-.022.002-.043-.005-.048-.019zm.5-.025c0-.036.009-.045.045-.045s.045.01.045.045c0 .037-.01.046-.045.046-.037 0-.046-.01-.046-.046zm.618-.2c0-.233.001-.245.036-.245.03 0 .036.012.036.08v.082l.056-.02c.048-.016.064-.014.105.016.045.034.049.048.054.185.004.138.003.148-.032.148-.034 0-.037-.012-.037-.117 0-.142-.034-.193-.098-.15-.032.021-.04.047-.044.146-.005.106-.01.12-.04.12-.034 0-.036-.013-.036-.245zm.854.073v-.173l.05.003a.346.346 0 0 0 .096-.01.096.096 0 0 1 .08.014c.032.022.044.022.095-.002.054-.026.063-.026.105.002.044.03.047.04.047.185 0 .142-.003.154-.036.154-.033 0-.037-.012-.037-.134 0-.15-.026-.185-.091-.12-.028.028-.036.06-.036.145 0 .097-.004.11-.036.11-.033 0-.037-.013-.037-.126 0-.144-.024-.182-.087-.137-.034.024-.04.045-.04.145 0 .105-.004.117-.036.117-.034 0-.037-.012-.037-.173zm1.019 0v-.172h.059a.856.856 0 0 0 .095-.004c.027-.004.038.007.043.038.005.035 0 .041-.026.031-.061-.023-.099.039-.099.165 0 .103-.003.115-.036.115-.034 0-.036-.012-.036-.172zm.709-.073c0-.233.002-.245.036-.245.031 0 .037.012.037.081 0 .08 0 .081.046.064.068-.026.095-.022.136.018.03.03.036.061.036.182 0 .134-.003.146-.036.146-.033 0-.037-.012-.037-.127 0-.107-.005-.13-.036-.146-.028-.015-.043-.011-.072.018-.03.029-.037.06-.037.146 0 .097-.004.109-.037.109-.034 0-.036-.012-.036-.246zm.564.045c0-.193-.001-.2-.035-.182-.05.026-.056.024-.056-.017s.05-.073.117-.073h.047v.236c0 .225-.002.237-.037.237-.034 0-.036-.012-.036-.201zm.327.155c0-.038.009-.045.055-.045s.054.006.054.045-.008.046-.054.046-.055-.007-.055-.046zm1.073-.127c0-.16.003-.173.036-.173.02 0 .037.008.037.018 0 .009.023.003.051-.013.046-.026.057-.026.105-.002.044.021.06.022.098.002.063-.031.085-.03.128.013.03.03.036.06.036.182 0 .133-.003.145-.036.145-.033 0-.037-.012-.037-.125 0-.144-.024-.181-.087-.137-.034.024-.04.045-.04.145 0 .105-.004.117-.036.117-.033 0-.037-.012-.037-.114a.345.345 0 0 0-.023-.147c-.023-.03-.026-.03-.067.003-.035.028-.045.056-.052.147-.006.094-.013.111-.042.111-.03 0-.034-.015-.034-.172zm12.676-.073c0-.233.002-.245.036-.245.035 0 .036.012.036.245 0 .234-.002.246-.036.246-.035 0-.036-.012-.036-.246zm1.073.208c0-.069.054-.155.136-.217a.381.381 0 0 0 .09-.084c.024-.065-.054-.113-.112-.07-.043.034-.096.033-.096 0 0-.04.074-.082.145-.082.095 0 .146.042.146.121 0 .053-.013.077-.067.122-.113.097-.152.136-.152.156 0 .011.049.019.119.019.106 0 .118.004.118.036 0 .034-.012.037-.164.037-.154 0-.163-.002-.163-.038zm1.073-.009c0-.07.042-.137.134-.214.089-.073.106-.127.05-.156-.024-.014-.044-.011-.068.007-.044.033-.098.035-.098.003 0-.082.185-.117.254-.048.067.066.048.122-.086.253l-.123.12.123.005c.108.005.123.01.123.041 0 .033-.014.036-.155.036-.153 0-.154 0-.154-.047zm.672-.153v-.2l-.046.018c-.062.023-.063.023-.063-.016 0-.037.07-.075.138-.075h.044v.236c0 .224-.002.236-.036.236-.034 0-.037-.012-.037-.2zm-14.253-.065c-.127-.034-.131-.037-.745-.404l-.532-.318.032-.054a.99.99 0 0 1 .288-.265.847.847 0 0 1 .46-.091.668.668 0 0 1 .265.048c.16.07 1.172.684 1.173.71 0 .04-.24.265-.332.31a.9.9 0 0 1-.61.064zm5.884-.007a.769.769 0 0 1-.353-.223c-.17-.18-.215-.128.462-.511.327-.185.632-.349.677-.363a.853.853 0 0 1 .839.182c.09.084.173.199.156.216a22.6 22.6 0 0 1-1.27.699.96.96 0 0 1-.51 0zm-2.02-1.615a.85.85 0 0 1 .177-.957c.043-.041.665-.44 1.382-.884a55.75 55.75 0 0 0 1.453-.922 3.348 3.348 0 0 0 1.321-2.638v-.241h-.927v-.068c.001-.255.198-.566.433-.685.19-.096.245-.102.998-.102h.697v.08a.868.868 0 0 1-.288.575l-.053.04-.01.42a3.914 3.914 0 0 1-.048.64 4.2 4.2 0 0 1-.777 1.83 4.601 4.601 0 0 1-.977.942c-.138.093-3.317 2.075-3.328 2.075a.602.602 0 0 1-.054-.105z"/></svg>