<svg viewBox="0 0 24 24" xmlns="http://www.w3.org/2000/svg" role="img"><path d="M.14 18.77c-.08-.039-.08-.041-.085-.498-.005-.467 0-.505.07-.547.042-.026.168-.026 11.58-.026h11.539l.044.04.044.038.004.446c.004.5.002.513-.085.55-.072.03-23.05.028-23.11-.003zM.11 17.2c-.072-.045-.086-.098-.099-.378-.017-.383-.015-.69.005-.729.037-.073.03-.072.94-.081.921-.01.888-.006.997-.09.103-.079.15-.298.15-.694 0-.543-.078-.784-.29-.892-.074-.038-.296-.049-1.04-.05-.711 0-.66.01-.68-.142a8.074 8.074 0 0 1-.013-.541c0-.5-.006-.471.102-.51.135-.047.282-.056.97-.055 1.02 0 1.338.032 1.695.17.167.064.247.125.403.307.255.297.322.436.365.75.022.166.031 1.05.014 1.43-.018.42-.046.558-.159.783-.208.416-.603.68-1.1.734-.08.01-.528.014-1.173.014-1.022 0-1.044 0-1.088-.027zm5.42.012c-.736-.087-1.21-.453-1.349-1.042-.053-.225-.054-.289-.054-2.287 0-2.097-.003-2.002.067-2.04.049-.025.342-.04.824-.04.487 0 .567.007.589.05.006.014.014.82.018 1.792.007 1.765.007 1.767.037 1.878.064.238.166.39.302.448.099.043.25.054.71.055h.41l-.01-1.386c-.007-1.031-.006-1.401.006-1.443a.188.188 0 0 1 .05-.085c.035-.027.05-.027.712-.027h.676l.04.032c.038.03.042.04.048.142l.007.11.074-.056c.165-.124.238-.15.574-.2.88-.134 1.998-.12 2.691.035.561.125.786.295.979.743.148.344.195.732.166 1.38-.01.203-.017.455-.018.56v.188l.337.004c.394.004.575-.01.662-.051.136-.066.248-.234.297-.445.021-.09.025-.22.031-1.235a27.61 27.61 0 0 1 .02-1.155.08.08 0 0 1 .033-.033c.012-.006.311-.013.664-.016.678-.006.73-.002.782.055.028.029.028.039.027 1.075-.001 1.12.002 1.18.068 1.397.04.128.072.188.143.263.096.103.155.121.435.135.13.007.35.012.489.013h.251l-.007-.605c-.008-.666.003-.883.058-1.158.082-.407.183-.616.396-.817.2-.188.353-.273.605-.336l.154-.038h.576c.972.001 1.179.018 1.385.114.118.054.307.2.435.335.117.123.2.283.293.562.098.297.132.589.132 1.134 0 .47-.038.782-.132 1.079-.077.246-.213.478-.357.611a1.243 1.243 0 0 1-.626.305c-.132.019-3.703.02-4.17.001-.288-.01-.342-.017-.486-.052a3.684 3.684 0 0 1-.28-.082l-.119-.042-.13.059a1.096 1.096 0 0 1-.348.106c-.116.019-9.01.028-9.167.01zm5.653-1.19c.019-.003.034-.007.034-.009 0-.001.017-.005.037-.008a.259.259 0 0 0 .081-.032c.047-.029.13-.11.113-.11-.006 0 0-.01.01-.021.013-.012.02-.026.015-.033-.004-.006 0-.013.007-.016.008-.003.016-.02.019-.038a.25.25 0 0 1 .014-.057c.005-.013.007-.032.002-.043-.004-.011-.002-.024.006-.028.007-.004.013-.028.014-.051 0-.024.004-.07.008-.104a2.59 2.59 0 0 0 .02-.405c0-.115 0-.218-.002-.229a.48.48 0 0 0-.042-.162c-.006 0-.008-.008-.004-.018.004-.01-.002-.028-.013-.04-.011-.01-.017-.023-.012-.028.005-.005 0-.008-.008-.008-.01 0-.013-.006-.008-.013.004-.007-.004-.025-.02-.04-.015-.016-.023-.028-.018-.028.005 0-.014-.024-.042-.053-.029-.03-.057-.051-.062-.048-.005.003-.014-.003-.018-.015-.004-.011-.015-.017-.022-.012-.007.005-.014.002-.014-.007 0-.008-.006-.011-.013-.007-.007.005-.014.002-.014-.007 0-.008-.006-.011-.013-.007-.007.005-.014.003-.014-.004 0-.015-.107-.049-.118-.038-.004.004-.015.001-.025-.007a1.042 1.042 0 0 0-.224-.022c-.113-.004-.285-.01-.381-.015-.287-.012-1.091-.01-1.12.003a.106.106 0 0 1-.05.01c-.014-.003-.024.003-.024.012 0 .008-.005.011-.012.008-.014-.01-.14.032-.152.049-.005.007-.01.01-.014.008-.01-.008-.119.046-.119.059 0 .007-.005.009-.012.005-.006-.004-.028.007-.047.026-.02.018-.035.029-.035.024a.34.34 0 0 0-.07.065.636.636 0 0 0-.068.076c.001.002-.01.016-.025.031-.015.015-.024.033-.02.04.005.008.003.014-.004.014-.02 0-.099.165-.102.212a.16.16 0 0 1-.011.052c-.004.007-.008.253-.009.547l-.002.534 1.285-.004a79.218 79.218 0 0 0 1.32-.01zm8.246-.007a.033.033 0 0 1 .033-.007c.01.004.018 0 .018-.008s.005-.014.01-.012c.019.005.071-.018.071-.03 0-.008.006-.012.013-.01.007.002.022-.009.034-.023.013-.015.018-.018.013-.007-.005.01.006.006.025-.012a.359.359 0 0 0 .083-.142.53.53 0 0 1 .018-.052c.039-.093.045-.266.031-.836 0-.02-.006-.04-.013-.044-.007-.004-.01-.019-.006-.033.004-.014 0-.03-.007-.034-.007-.005-.01-.02-.006-.035.004-.015.002-.027-.005-.027-.006 0-.013-.015-.014-.035-.005-.078-.161-.329-.193-.309-.006.004-.015-.003-.02-.015-.005-.012-.012-.019-.016-.015s-.02-.004-.036-.018c-.016-.015-.036-.024-.045-.02-.01.003-.018 0-.02-.007-.007-.018-.139-.033-.17-.02a.084.084 0 0 1-.035.009c-.006-.001-.02.004-.03.013-.011.009-.02.012-.02.007 0-.025-.175.08-.176.105a.263.263 0 0 1-.04.05c-.022.023-.036.047-.032.054.004.007 0 .012-.008.012s-.012.006-.007.012c.004.007.002.015-.006.017-.007.002-.015.017-.018.032a.143.143 0 0 1-.012.04c-.014.024-.017.103-.017.492 0 .418.004.567.016.586.004.007.01.03.01.05.003.02.017.059.033.085.049.08.211.197.244.176.007-.004.013 0 .013.008 0 .01.01.013.02.008.01-.004.023-.002.027.005.01.017.221.007.24-.01zm2.452 1.172-.04-.04v-5.232l.036-.036.035-.036h1.361l.04.04.04.04v2.596c0 1.622-.006 2.61-.014 2.632-.028.075-.034.075-.756.075h-.663zm-8.197-4.324c-.023-.01-.045-.028-.05-.04a6.952 6.952 0 0 1-.01-.48c0-.429.003-.458.027-.488l.025-.032.689-.004.688-.004.038.033.038.033.004.43c.005.474 0 .517-.065.55-.055.03-1.319.03-1.384.002zm1.605.006c-.07-.029-.072-.039-.072-.524v-.45l.04-.04.039-.038h.668c.461 0 .678.005.701.015.06.027.063.055.063.524v.444l-.033.038-.032.037-.673.003c-.37.001-.685-.003-.7-.009zm4.155-.033-.038-.032-.004-.44c-.004-.503-.002-.521.087-.547.036-.01.25-.014.702-.011l.65.004.034.032.035.033v.927l-.033.034-.033.033h-1.362zm-1.58.01a.12.12 0 0 1-.037-.045c-.016-.032-.02-.117-.02-.477v-.438l.035-.042.035-.041h1.375l.033.033.033.033v.458c0 .442 0 .458-.028.493l-.028.035h-.69c-.38-.001-.698-.005-.708-.009zm-17.62-1.51c-.028-.02-.03-.027-.03-.262 0-.234.002-.241.03-.262.028-.019.64-.02 6.224-.02 5.583 0 6.196.001 6.223.02.03.02.03.028.03.262 0 .235 0 .242-.03.263-.027.019-.64.02-6.223.02-5.584 0-6.196-.001-6.223-.02zm12.845.009c-.03-.013-.03-.016-.03-.282 0-.267 0-.268.03-.276.016-.004.243-.008.503-.008.405 0 .477-.003.502-.022.017-.011.03-.03.03-.04 0-.016-.03-.018-.199-.011-.663.028-.926-.134-1.004-.616a4.19 4.19 0 0 1 .007-.815 1.23 1.23 0 0 1 .122-.382c.078-.124.283-.29.391-.318.035-.01.27-.014.63-.015h.575l.076.038a.443.443 0 0 1 .211.233c.027.07.028.101.028.978v.905l-.041.123a.626.626 0 0 1-.173.295.671.671 0 0 1-.285.188c-.086.03-.099.031-.715.034-.37.002-.64-.002-.658-.009zm1.058-1.311c.015-.012.018-.089.017-.398 0-.246-.006-.382-.014-.382-.007 0-.01-.006-.005-.014.008-.012-.01-.02-.037-.015-.006 0-.01-.005-.01-.013s-.01-.012-.02-.007c-.011.004-.024.002-.028-.005s-.032-.013-.06-.013c-.03 0-.056.006-.06.013-.005.007-.018.009-.029.005-.01-.004-.02 0-.02.008 0 .009-.005.012-.013.007-.007-.005-.013-.002-.013.007 0 .008-.006.011-.013.007-.007-.004-.019.003-.027.016-.008.013-.014.018-.014.012 0-.006-.009-.004-.02.005-.012.009-.017.022-.013.028.004.007 0 .012-.01.012-.008 0-.012.004-.007.008.005.005 0 .017-.01.027a.22.22 0 0 0-.032.083c-.018.086-.02.449-.003.449.007 0 .01.008.006.018-.004.01.003.029.015.04.012.013.017.023.012.023-.005 0 0 .012.014.026.013.015.03.024.036.02.006-.004.012 0 .012.008s.006.011.013.007c.007-.005.014-.001.014.007 0 .009.009.012.02.008.01-.004.022-.003.026.004.011.017.252.017.273-.001zm1.807 1.297c-.363-.043-.603-.219-.707-.518l-.033-.096-.014-1.064c-.01-.764-.009-1.073.001-1.096l.015-.032h.43c.315 0 .433.004.445.016.012.013.016.25.016.982 0 1.091-.006 1.027.109 1.125.073.062.156.087.324.098.304.02.477-.077.53-.298.011-.045.026-.188.034-.317.02-.33.045-.452.112-.556a.788.788 0 0 1 .288-.27c.15-.077.287-.1.708-.113.463-.015.803.024.974.11a.91.91 0 0 1 .288.277c.117.193.138.349.107.795-.018.257-.02.328-.006.344.013.016.063.02.27.02h.256v-.721c0-.43.005-.735.013-.755l.013-.035.408-.004c.318-.003.413 0 .429.014.017.015.02.12.024.759l.004.741h.296V9.99c0-.616.003-.75.018-.762.014-.011.143-.014.449-.012l.43.004.003.752.003.752h.297V9.258l.034-.016c.024-.01.157-.015.424-.015.342 0 .39.003.397.021.015.038.009 1.857-.006 1.91a.27.27 0 0 1-.17.156c-.03.006-1.188.01-2.575.01h-2.523l-.216-.03a4.114 4.114 0 0 1-.268-.045c-.046-.012-.057-.01-.104.02a.388.388 0 0 1-.117.048c-.083.016-1.29.028-1.411.014zm2.589-.584a.098.098 0 0 0 .027-.008c0-.002.012-.005.026-.008.015-.003.03-.012.032-.02.003-.008.013-.014.024-.014.01 0 .019-.007.019-.015s.009-.022.02-.03c.029-.022.073-.157.084-.256.02-.174.007-.395-.023-.414-.01-.005-.015-.014-.015-.018.006-.036-.098-.125-.155-.134a.133.133 0 0 1-.044-.015.393.393 0 0 0-.102-.018c-.095-.008-.234.025-.246.058-.004.01-.016.02-.026.02-.021 0-.076.073-.064.085.005.005.002.009-.005.009-.038 0-.068.306-.042.432.02.097.028.121.04.121.007 0 .01.006.006.013-.004.007.002.021.013.033a.099.099 0 0 1 .023.031c.004.02.035.053.09.098a.358.358 0 0 0 .143.06.651.651 0 0 0 .175-.01zm-10.567-.002a.184.184 0 0 1-.098-.146c0-.032.005-.037.04-.037.03 0 .046.01.063.037.035.057.059.071.121.071.095 0 .152-.075.153-.2v-.032l-.041.035c-.053.045-.159.049-.224.008-.179-.109-.179-.486 0-.594a.235.235 0 0 1 .22.002c.039.024.046.025.046.007 0-.016.013-.022.054-.022h.054v.294c-.001.43-.015.494-.122.566-.035.024-.063.03-.133.03a.431.431 0 0 1-.133-.02zm.204-.36c.055-.043.076-.095.076-.194 0-.103-.023-.166-.075-.207-.109-.086-.214.013-.214.2 0 .07.007.115.023.145.045.085.124.109.19.057zm-5.159.127a.204.204 0 0 1-.116-.12c-.026-.067-.02-.079.045-.09.038-.008.044-.005.044.019 0 .015.018.045.04.067.073.074.216.037.216-.056 0-.046-.013-.054-.158-.1-.125-.04-.178-.085-.188-.166a.194.194 0 0 1 .082-.18c.034-.022.061-.026.145-.023.089.004.11.01.14.038.034.031.074.103.074.133 0 .007-.025.015-.054.018-.039.004-.054 0-.054-.013 0-.01-.015-.033-.033-.05-.061-.062-.197-.034-.197.04 0 .04.016.052.129.088.196.064.231.1.22.23a.182.182 0 0 1-.108.156.504.504 0 0 1-.227.009zm1.143-.018c-.123-.066-.173-.264-.115-.458.035-.116.12-.175.25-.175.164 0 .26.121.26.331 0 .158-.062.276-.166.315a.34.34 0 0 1-.229-.013zm.22-.105c.095-.095.086-.34-.015-.412a.133.133 0 0 0-.152.006c-.058.046-.08.103-.08.208 0 .061.007.11.022.137.053.102.155.13.224.06zm1.224.112c-.05-.027-.078-.086-.078-.162 0-.123.07-.18.258-.21a.65.65 0 0 0 .12-.026c.03-.018-.005-.113-.048-.132-.083-.038-.19-.003-.204.067-.007.037-.012.04-.048.033a.553.553 0 0 0-.052-.008c-.02 0-.014-.038.015-.095.038-.075.107-.107.23-.107.097 0 .153.018.19.062.014.017.02.085.026.274.005.154.014.263.024.281.016.03.014.03-.043.03-.05 0-.06-.005-.067-.028-.007-.028-.008-.028-.067.007-.07.04-.194.048-.256.014zm.244-.108c.03-.025.045-.054.056-.109a.295.295 0 0 0 .011-.08.298.298 0 0 0-.078.015l-.112.026c-.05.01-.09.053-.09.095 0 .087.133.12.213.053zm.903.108c-.05-.027-.078-.086-.078-.162 0-.123.07-.18.258-.21a.65.65 0 0 0 .12-.026c.03-.018-.005-.113-.048-.132-.083-.038-.19-.003-.204.067-.007.037-.012.04-.049.033a.553.553 0 0 0-.052-.008c-.02 0-.013-.038.016-.095.038-.075.107-.107.23-.107.097 0 .153.018.189.062.014.017.021.085.027.274.005.154.014.263.024.281.016.03.014.03-.043.03-.05 0-.061-.005-.067-.028-.007-.028-.008-.028-.067.007-.07.04-.194.048-.256.014zm.244-.108c.03-.025.045-.054.056-.109a.295.295 0 0 0 .011-.08.298.298 0 0 0-.079.015l-.111.026c-.05.01-.09.053-.09.095 0 .087.133.12.213.053zm.4.096c-.08-.048-.118-.125-.126-.253-.013-.233.082-.375.251-.375.163 0 .244.085.266.28l.01.084h-.21c-.205 0-.21 0-.21.028a.24.24 0 0 0 .077.148c.066.052.178.02.206-.058.015-.041.02-.044.068-.04.044.005.053.01.053.036 0 .041-.052.115-.107.152-.066.044-.202.043-.278-.002zm.284-.386-.015-.053c-.012-.044-.084-.095-.134-.095-.051 0-.122.051-.135.098-.024.084-.036.077.135.077.15 0 .156 0 .15-.027zm1.467.386-.038-.032-.004-.244-.004-.244h-.033c-.028 0-.032-.006-.032-.048 0-.041.004-.047.033-.047.032 0 .034-.004.034-.08 0-.078.002-.082.05-.115l.051-.035.004.115.004.115h.047c.044 0 .047.002.047.047s-.002.048-.048.048h-.047v.207c0 .22.008.25.066.234.02-.005.027.002.033.041.01.064.004.07-.065.07a.133.133 0 0 1-.097-.032zm.353 0c-.08-.048-.118-.125-.125-.253-.014-.233.081-.375.25-.375.163 0 .245.085.267.28l.01.084h-.21c-.206 0-.211 0-.211.028 0 .043.04.118.077.148.067.052.178.02.207-.058.014-.041.02-.044.068-.04.044.005.052.01.052.036 0 .041-.051.115-.106.152-.066.044-.203.043-.278-.002zm.285-.386-.015-.053c-.013-.044-.085-.095-.135-.095s-.121.051-.135.098c-.024.084-.036.077.135.077.151 0 .157 0 .15-.027zm.302.409a.204.204 0 0 1-.115-.12c-.026-.067-.02-.079.045-.09.037-.008.043-.005.043.019 0 .015.018.045.04.067.074.074.217.037.217-.056 0-.046-.013-.054-.158-.1-.126-.04-.178-.085-.189-.166a.194.194 0 0 1 .083-.18c.033-.022.06-.026.145-.023.088.004.108.01.14.038.033.031.073.103.073.133 0 .007-.024.015-.054.018-.038.004-.054 0-.054-.013 0-.01-.015-.033-.033-.05-.06-.062-.196-.034-.196.04 0 .04.016.052.128.088.196.064.232.1.22.23a.182.182 0 0 1-.108.156.504.504 0 0 1-.227.009zm.496-.011c-.05-.027-.077-.086-.077-.162 0-.123.069-.18.258-.21a.65.65 0 0 0 .12-.026c.029-.018-.006-.113-.048-.132-.083-.038-.19-.003-.205.067-.007.037-.012.04-.048.033a.553.553 0 0 0-.052-.008c-.02 0-.014-.038.015-.095.039-.075.108-.107.23-.107.097 0 .153.018.19.062.014.017.02.085.027.274.005.154.014.263.024.281.015.03.014.03-.044.03-.049 0-.06-.005-.067-.028-.007-.028-.008-.028-.067.007-.069.04-.194.048-.256.014zm.244-.108c.03-.025.045-.054.057-.109a.295.295 0 0 0 .01-.08.298.298 0 0 0-.078.015l-.112.026c-.05.01-.09.053-.09.095 0 .087.134.12.214.053zm.393.098a.33.33 0 0 1-.083-.102c-.033-.063-.038-.088-.038-.19 0-.149.017-.208.08-.275.047-.05.058-.055.135-.06.071-.006.09-.002.124.022l.039.03V9.63h.108v.877h-.047c-.04 0-.047-.005-.047-.028 0-.027-.002-.027-.042.007-.056.047-.163.05-.229.004zm.202-.098c.126-.107.068-.438-.077-.438-.091 0-.142.088-.141.243 0 .186.111.284.218.195zM.304 10.208a20.572 20.572 0 0 0-.086-.317c-.004-.012.01-.017.049-.017.063 0 .05-.027.124.273.025.102.047.183.05.18.002-.002.074-.288.105-.423.006-.025.016-.03.06-.03.061 0 .054-.017.116.263.02.09.039.168.043.175a.579.579 0 0 0 .051-.155l.059-.226.015-.057h.214l.012.044.057.229c.025.102.048.183.05.18.003-.002.074-.288.105-.422.006-.026.016-.03.06-.03.062 0 .054-.017.116.262.02.09.04.168.044.175a.579.579 0 0 0 .05-.155c.024-.093.05-.194.06-.225l.015-.058h.214l.012.044.057.229c.025.102.047.183.05.18.002-.002.074-.288.105-.422.006-.026.016-.03.06-.03.061 0 .054-.017.116.262.02.09.039.168.043.175a.579.579 0 0 0 .051-.155c.081-.313.067-.283.127-.283h.052l-.03.112c-.018.06-.057.204-.089.317l-.057.205h-.06c-.038 0-.058-.006-.058-.016s-.022-.111-.05-.226c-.041-.174-.051-.203-.06-.169-.004.022-.029.124-.052.226l-.043.185h-.112l-.08-.3a8.155 8.155 0 0 0-.087-.312c-.004-.007-.014.014-.024.047l-.087.312-.07.253h-.059c-.038 0-.059-.006-.059-.016a3.84 3.84 0 0 0-.05-.226c-.04-.174-.05-.203-.059-.17l-.053.227-.043.185h-.112l-.08-.3A8.149 8.149 0 0 0 1 9.896c-.004-.007-.015.014-.024.047l-.087.312-.07.253h-.06c-.038 0-.058-.006-.058-.017a3.84 3.84 0 0 0-.05-.226c-.041-.173-.051-.202-.06-.168-.004.022-.029.124-.052.226l-.043.185H.384l-.08-.3zm2.34.24v-.061h.107v.121h-.108zm.822-.378v-.44h.108v.286l.046-.028a.276.276 0 0 1 .224-.008c.074.038.085.08.092.367l.006.26H3.83v-.22c0-.181-.004-.227-.023-.265-.031-.062-.085-.08-.148-.05-.073.035-.085.083-.085.325v.21h-.108zm1.187.121v-.317h.048c.038 0 .047.005.047.027 0 .025.003.025.049-.007a.188.188 0 0 1 .122-.034c.064 0 .08.005.114.041l.041.04.047-.04c.038-.034.058-.04.114-.04a.29.29 0 0 1 .104.019c.067.034.076.072.08.362l.006.266h-.11v-.243c0-.241 0-.244-.033-.277-.04-.04-.068-.041-.125-.007-.06.036-.072.091-.072.328v.199h-.108v-.247c0-.28-.005-.298-.086-.298a.11.11 0 0 0-.086.036l-.037.037-.004.236-.004.236h-.106zm1.56.01a9.107 9.107 0 0 1-.103-.317c0-.006.024-.01.054-.01h.053l.068.214c.038.118.068.221.068.23 0 .007.005.015.01.015.007 0 .044-.103.084-.23l.072-.229h.052c.029 0 .052.005.052.01 0 .006-.046.148-.102.317l-.103.307h-.103zm2.285-.131v-.44h.108v.286l.046-.028a.276.276 0 0 1 .225-.008c.074.038.084.08.09.367l.007.26h-.111v-.22c0-.181-.004-.227-.024-.265-.031-.062-.085-.08-.148-.05-.072.035-.085.083-.085.325v.21h-.108zm3.265.377v-.06h.108v.121h-.108zm.27-.256v-.317h.108v.634h-.108zm.243 0v-.317h.047c.04 0 .047.005.047.03 0 .027.001.027.033-.008.038-.04.12-.05.162-.018.022.016.023.024.01.066-.016.047-.018.048-.076.041-.056-.006-.061-.004-.087.039-.025.041-.028.067-.028.265v.219h-.108zm3.942-.34.004-.306.865-.71c.476-.39 1.016-.836 1.201-.992.938-.793 1.42-1.162 1.568-1.2.124-.033.234.007.38.139.253.226.993.84 1.014.84a.437.437 0 0 0 .123-.093c.054-.05.465-.402.914-.781s.827-.701.841-.717c.04-.045.02-.082-.112-.196a1.105 1.105 0 0 1-.137-.132.076.076 0 0 1 .02-.091 12.66 12.66 0 0 1 1.082-.033c.032.013.02.925-.012.958-.017.017-.097.009-.146-.016a1.296 1.296 0 0 1-.169-.136 1.628 1.628 0 0 0-.13-.113c-.004 0-.486.407-1.07.906-.633.538-1.088.916-1.123.932-.06.026-.09.025-.17-.006a12.913 12.913 0 0 1-.606-.499 31.884 31.884 0 0 0-.575-.483c-.004 0-.848.683-1.875 1.518a229.083 229.083 0 0 1-1.88 1.517c-.005 0-.008-.138-.006-.306zm-4.185-.152V9.63h.108v.135h-.108zm8.096-.62c-.027-.027-.028-.041-.026-.342 0-.172.006-.438.01-.59l.008-.276.048-.004c.056-.005.035-.02.477.341l.33.27.001.284c0 .224-.004.29-.019.31-.018.025-.041.027-.41.03-.38.005-.392.005-.42-.023zm1.272.018a.13.13 0 0 1-.054-.034c-.023-.025-.026-.058-.029-.313l-.004-.286.38-.33c.208-.182.39-.333.403-.335.013-.002.034.006.046.018.02.02.022.087.022.635v.613l-.037.016a6.21 6.21 0 0 1-.728.016zm1.132-.038-.037-.032-.004-.774-.004-.774.423-.354c.234-.194.428-.354.432-.354.004 0 .008.495.008 1.1 0 1.201.003 1.17-.075 1.205-.023.01-.147.016-.37.016-.335 0-.336 0-.374-.033zm-1.542-2.091v-.1l-.057-.008-.132-.015c-.089-.01-.229-.07-.229-.098 0-.01.013-.068.03-.127.022-.083.034-.106.05-.101l.143.043c.123.037.335.06.403.042a.266.266 0 0 0 .082-.05c.106-.093.043-.183-.181-.257-.353-.117-.526-.27-.527-.464 0-.087.051-.192.124-.255a.98.98 0 0 1 .18-.103l.128-.058v-.211h.255l.009.095c.008.081.013.095.037.101l.127.027a.551.551 0 0 1 .19.068 2.13 2.13 0 0 1-.07.23 2.09 2.09 0 0 1-.137-.03c-.244-.057-.403-.035-.437.063-.027.078.028.13.223.214.328.142.411.196.467.303.041.08.04.237-.004.327a.485.485 0 0 1-.335.244l-.054.007-.01.106-.008.107h-.267z"/></svg>