<svg role="img" viewBox="0 0 24 24" xmlns="http://www.w3.org/2000/svg"><path d="m12 0-.188.002C5.963.106 1.274 4.907 1.377 10.689c.065 3.65 2.025 6.841 4.932 8.672l.039.026-.063.052a7.723 7.723 0 0 1-1.482-.347l-.15-.291a.422.422 0 0 0-.27-.215c-.45-.114-.837.073-1.07.541a.532.532 0 0 0 .01.502c.394.709.84 1.642 1.224 2.426.384.786.694 1.424 1.074 1.539A4.693 4.693 0 0 0 7.436 24c.79-.112 1.207-.442 1.255-.988 1.068-.484 2.158-.747 3.282-.752H12c1.133 0 2.233.264 3.309.752.047.546.465.876 1.255.988a4.693 4.693 0 0 0 1.815-.406c.38-.115.69-.752 1.074-1.54.383-.783.83-1.715 1.225-2.425a.532.532 0 0 0 .01-.502c-.235-.467-.62-.655-1.07-.541a.419.419 0 0 0-.27.215l-.15.29a7.712 7.712 0 0 1-1.483.348l-.063-.052.04-.028c2.906-1.83 4.866-5.02 4.931-8.67C22.727 4.906 18.038.106 12.187.002 12.142 0 12.095 0 12.047 0H12zm0 .34h.045l.137.002c5.662.102 10.197 4.747 10.097 10.342-.063 3.549-1.978 6.648-4.814 8.416l-.09.056-.113-.093.097-.061c1.41-.855 2.503-2.012 3.346-3.434a9.823 9.823 0 0 0 1.379-4.85 9.889 9.889 0 0 0-2.828-7.091A10.083 10.083 0 0 0 12.197.574l-.146-.002H12a10.083 10.083 0 0 0-7.258 3.055 9.889 9.889 0 0 0-2.828 7.092 9.824 9.824 0 0 0 1.38 4.851c.844 1.421 1.935 2.578 3.345 3.434l.097.058-.113.094-.09-.056c-2.836-1.768-4.75-4.867-4.812-8.416C1.62 5.089 6.156.443 11.818.342L12 .34zm5.613 2.539a1.537 1.537 0 0 1 .075.074 1.13 1.13 0 0 1 .277.469 1.105 1.105 0 0 1 .012.512 1.394 1.394 0 0 0-.082-.051 1.26 1.26 0 0 0-.24-.395.853.853 0 0 0-.112-.105 1.22 1.22 0 0 1 .02-.307 1.577 1.577 0 0 1 .05-.197zM7.08 3.08v.002c-.004.035-.009.07-.016.104a1.135 1.135 0 0 1-.216.5.965.965 0 0 1-.164.162 1.717 1.717 0 0 0 .029-.225v-.021c.045-.076.088-.154.123-.237a1.88 1.88 0 0 0-.203.172l-.03.006a1.84 1.84 0 0 0-.19.047h-.007a.968.968 0 0 1 .106-.15 1.119 1.119 0 0 1 .379-.286 1.588 1.588 0 0 1 .19-.074zm9.856.18h.002a1.547 1.547 0 0 1 .1.03 1.131 1.131 0 0 1 .47.27.983.983 0 0 1 .166.217 1.273 1.273 0 0 0-.184-.054l-.084-.02-.004-.002a1.793 1.793 0 0 0-.226-.152 2.6 2.6 0 0 0 .217.308v.004c.004.051.01.103.02.153v.004a.989.989 0 0 1-.425-.561 1.465 1.465 0 0 1-.052-.197zm-10.932.07v.008l.002.012a2.233 2.233 0 0 1 .023.388 1.825 1.825 0 0 0-.529.389 1.84 1.84 0 0 0-.396.709l-.012.039a2.043 2.043 0 0 1 .015-.277c.021-.162.061-.32.131-.47a1.591 1.591 0 0 1 .766-.798zm12.256.244a1.531 1.531 0 0 1 .068.08 1.128 1.128 0 0 1 .238.489c.032.159.022.322-.017.478a1.345 1.345 0 0 0-.098-.055 1.244 1.244 0 0 0-.197-.38c-.031-.04-.104-.114-.104-.114a1.22 1.22 0 0 1 .043-.304 1.525 1.525 0 0 1 .067-.194zm-11.717.14h.004v.005a2.238 2.238 0 0 1-.164.59 1.567 1.567 0 0 1-.281.431 1.602 1.602 0 0 1-.514.37 2.08 2.08 0 0 0 .004-.227 7.851 7.851 0 0 0 .283-.377 4.32 4.32 0 0 0 .22-.344c-.105.087-.204.18-.3.276a8.104 8.104 0 0 0-.274.283l-.04.013-.006.002a2.439 2.439 0 0 0-.202.084 1.7 1.7 0 0 1 .061-.154 1.593 1.593 0 0 1 .262-.412c.11-.126.245-.23.39-.315a2.246 2.246 0 0 1 .557-.224zm10.316.09h.026a1.222 1.222 0 0 1 .1.007h.001l.002.003a1.116 1.116 0 0 0 .477.41v.006a1.469 1.469 0 0 0 .02.057 1.331 1.331 0 0 0-.128-.008 1.827 1.827 0 0 0-.164.006c-.03-.007-.059-.013-.088-.023a1.111 1.111 0 0 1-.443-.287 1.462 1.462 0 0 1-.115-.133h.002c.1-.023.205-.037.31-.037zm.696.098a1.507 1.507 0 0 1 .1.037 1.133 1.133 0 0 1 .447.307.986.986 0 0 1 .148.234 1.294 1.294 0 0 0-.19-.052l-.027-.006a1.975 1.975 0 0 0-.263-.213 2.683 2.683 0 0 0 .195.326 1.459 1.459 0 0 0 .021.17 1 1 0 0 1-.394-.601 1.514 1.514 0 0 1-.037-.202zm-10.707.319h.033a2.2 2.2 0 0 1 .078.002l-.004.004a2.24 2.24 0 0 1-.32.52 1.5 1.5 0 0 1-.615.444h-.004l-.006.002a2.352 2.352 0 0 0-.319.043l-.01.002a1.85 1.85 0 0 0 .536-.39 1.8 1.8 0 0 0 .361-.608 2.38 2.38 0 0 1 .27-.02zm11.976.037a1.537 1.537 0 0 1 .07.078 1.132 1.132 0 0 1 .254.48.94.94 0 0 1 .02.123 1.468 1.468 0 0 0-.08.397.806.806 0 0 0-.02-.012 1.252 1.252 0 0 0-.34-.566 1.218 1.218 0 0 1 .036-.307 1.569 1.569 0 0 1 .06-.193zm-1.498.176h.03a1.17 1.17 0 0 1 .206.02 1.121 1.121 0 0 0 .116.173 1.238 1.238 0 0 0 .369.3 1.388 1.388 0 0 0 .023.063 1.69 1.69 0 0 0-.101-.004h-.018a1.03 1.03 0 0 1-.305-.074 1.102 1.102 0 0 1-.42-.32 1.22 1.22 0 0 1-.105-.143 1.52 1.52 0 0 1 .205-.015zm-6.728.037A.758.758 0 0 0 12 4.71a.758.758 0 0 0 1.402-.24.803.803 0 0 1-.285.953A.802.802 0 0 1 12 5.23a.802.802 0 0 1-1.402-.76zm7.53.133a1.486 1.486 0 0 1 .1.035 1.131 1.131 0 0 1 .458.295 1.016 1.016 0 0 1 .181.289 1.631 1.631 0 0 0-.183-.065l-.01-.002-.102-.088a1.98 1.98 0 0 0-.218-.164 1.888 1.888 0 0 0 .125.213l-.012-.002.006.11a1.388 1.388 0 0 0 .01.093 1.037 1.037 0 0 1-.094-.093 1.108 1.108 0 0 1-.217-.42 1.49 1.49 0 0 1-.043-.2v-.001zM4.84 4.62l.002.006a2.118 2.118 0 0 1 .088.394v.002a1.82 1.82 0 0 0-.483.49 1.867 1.867 0 0 0-.271.776l-.004-.014a1.928 1.928 0 0 1-.024-.263 1.611 1.611 0 0 1 .059-.498 1.605 1.605 0 0 1 .633-.893zm.596.297v.006l.002.012c.002.196-.02.392-.07.582-.04.153-.101.3-.184.435a1.687 1.687 0 0 1-.502.504l-.04-.187v-.002a8.043 8.043 0 0 0 .25-.465 4.451 4.451 0 0 0 .167-.373 6.08 6.08 0 0 0-.477.63l-.014-.042-.1.058a1.97 1.97 0 0 0-.113.078 1.599 1.599 0 0 1 .223-.558c.092-.14.21-.263.34-.37a2.251 2.251 0 0 1 .514-.306l.004-.002zm13.894.031a1.56 1.56 0 0 1 .072.078 1.131 1.131 0 0 1 .26.477 1.035 1.035 0 0 1 .02.377 1.493 1.493 0 0 0-.047.22l-.008.026-.004-.004a1.31 1.31 0 0 0-.271-.562 1.09 1.09 0 0 0-.108-.108l-.002-.002a1.25 1.25 0 0 1 .03-.305 1.517 1.517 0 0 1 .058-.197zm-1.353.192a.877.877 0 0 1 .173.015l.002.004a1.116 1.116 0 0 0 .383.393l.002.004a1.503 1.503 0 0 0 .043.123 1.12 1.12 0 0 1-.334-.067 1.135 1.135 0 0 1-.428-.31 1.463 1.463 0 0 1-.107-.139h.002a1.535 1.535 0 0 1 .232-.021.877.877 0 0 1 .032-.002zm.664.168a1.528 1.528 0 0 1 .1.033 1.13 1.13 0 0 1 .46.287 1.068 1.068 0 0 1 .227.38 1.753 1.753 0 0 0-.12-.052l-.013-.014a3.443 3.443 0 0 0-.203-.177 1.91 1.91 0 0 0-.223-.16 1.993 1.993 0 0 0 .178.277l-.026-.006.002.152v.002a.954.954 0 0 1-.113-.107 1.1 1.1 0 0 1-.224-.416 1.543 1.543 0 0 1-.045-.2zm-12.725.048h.004v.004c-.05.185-.125.365-.22.53a1.645 1.645 0 0 1-.311.388 1.45 1.45 0 0 1-.188.143L5.2 6.375l-.101.025a2.05 2.05 0 0 0-.145.047 1.753 1.753 0 0 0 .328-.357c.133-.197.219-.425.266-.658a2.24 2.24 0 0 1 .369-.075zM12 5.473c.169.236.395.426.656.552v3.268l-.168 4.152a5.56 5.56 0 0 0 1.338-7.61 5.069 5.069 0 0 1-.953 8.335 5.551 5.551 0 0 0 2.176.33 5.05 5.05 0 0 1-2.61.14l-.005.174-.434.596-.434-.596-.005-.173a5.05 5.05 0 0 1-2.61-.141 5.549 5.549 0 0 0 2.176-.33 5.069 5.069 0 0 1-.953-8.334 5.559 5.559 0 0 0 1.338 7.61l-.168-4.153V6.025c.26-.126.487-.316.656-.552zm-2.346.257a5.558 5.558 0 0 0-1.093 7.797 4.246 4.246 0 0 1-1.551-5.8v-.002A4.247 4.247 0 0 1 9.654 5.73zm4.692 0a4.246 4.246 0 0 1 1.093 7.797l.01-.011h-.002a5.558 5.558 0 0 0-1.101-7.786zm5.547.028a1.576 1.576 0 0 1 .068.08 1.13 1.13 0 0 1 .234.488c.034.176.015.358-.035.528a1.46 1.46 0 0 1-.033.1 1.31 1.31 0 0 0-.244-.587.94.94 0 0 0-.104-.113 6.233 6.233 0 0 1 .075-.399 1.552 1.552 0 0 1 .039-.097zm-1.397.092a1.26 1.26 0 0 1 .176.011 1.123 1.123 0 0 0 .38.381 3.21 3.21 0 0 0 .032.131v.002a1.05 1.05 0 0 1-.309-.06 1.12 1.12 0 0 1-.433-.301 1.424 1.424 0 0 1-.11-.137 1.45 1.45 0 0 1 .264-.027zm.69.228a1.497 1.497 0 0 1 .097.04 1.131 1.131 0 0 1 .446.31 1.1 1.1 0 0 1 .222.45l-.06-.038a3.51 3.51 0 0 0-.278-.281 1.903 1.903 0 0 0-.215-.172 2.933 2.933 0 0 0 .235.386l-.02.114a1.009 1.009 0 0 1-.19-.18 1.126 1.126 0 0 1-.202-.426 1.528 1.528 0 0 1-.035-.203zM3.832 6.1l.004.004.006.011a2.235 2.235 0 0 1 .166.354h-.002c-.147.164-.27.35-.352.554-.1.255-.13.534-.11.807l.003.041-.004-.012a2.244 2.244 0 0 1-.082-.252 1.62 1.62 0 0 1-.05-.5c.011-.167.053-.333.116-.488a2.253 2.253 0 0 1 .303-.515l.002-.004zm.647.158.001.006.002.011c.047.195.07.396.061.596a1.59 1.59 0 0 1-.1.492 1.622 1.622 0 0 1-.398.594 2.358 2.358 0 0 0-.05-.14l-.01-.024a8.127 8.127 0 0 0 .156-.553 4.81 4.81 0 0 0 .082-.4H4.22a4.259 4.259 0 0 0-.18.365 8 8 0 0 0-.154.375l-.004.008-.002-.006-.088.074a1.95 1.95 0 0 0-.098.09 1.604 1.604 0 0 1 .09-.627 1.591 1.591 0 0 1 .254-.447 2.242 2.242 0 0 1 .436-.41l.004-.004zm.568.322v.018c-.01.199-.046.4-.111.59a1.499 1.499 0 0 1-.457.681 2.8 2.8 0 0 0-.167.086c-.034.02-.071.04-.105.063l-.01.007a1.86 1.86 0 0 0 .387-.59 1.8 1.8 0 0 0 .115-.699 2.239 2.239 0 0 1 .344-.154l.004-.002zm13.89.031h.045a1.418 1.418 0 0 1 .122.008c.029.004.085.018.085.018a1.12 1.12 0 0 0 .413.431 3.19 3.19 0 0 0 .002.102 1.064 1.064 0 0 1-.334-.078 1.124 1.124 0 0 1-.418-.324 1.101 1.101 0 0 1-.104-.143 1.56 1.56 0 0 1 .19-.014zm1.584.159a1.514 1.514 0 0 1 .051.091 1.13 1.13 0 0 1 .135.528 1.126 1.126 0 0 1-.14.51l-.051.09a1.31 1.31 0 0 0-.125-.624 1.076 1.076 0 0 0-.078-.13 1.222 1.222 0 0 1 .105-.292 1.53 1.53 0 0 1 .103-.173zm-.757.175a1.54 1.54 0 0 1 .09.057 1.131 1.131 0 0 1 .375.393 1.098 1.098 0 0 1 .128.48l-.044-.043-.012-.012a3.572 3.572 0 0 0-.211-.32 1.855 1.855 0 0 0-.178-.21 2.606 2.606 0 0 0 .115.335l-.01-.006-.046.14a1.104 1.104 0 0 1-.098-.15 1.122 1.122 0 0 1-.113-.459 1.474 1.474 0 0 1 .004-.205zm-.534.451a1.47 1.47 0 0 1 .106.01 1.262 1.262 0 0 1 .324.084v.002a1.169 1.169 0 0 0 .272.46 1.605 1.605 0 0 0-.014.13v.004a1.073 1.073 0 0 1-.293-.147 1.136 1.136 0 0 1-.309-.359 1.54 1.54 0 0 1-.086-.184zM3.17 7.78l.004.004a2.22 2.22 0 0 1 .226.334 1.83 1.83 0 0 0-.26.604 1.851 1.851 0 0 0 .03.853l-.008-.011a2.272 2.272 0 0 1-.119-.237A1.598 1.598 0 0 1 3.17 7.78zm17.71.006a1.536 1.536 0 0 1 .04.098 1.13 1.13 0 0 1 .064.54 1.102 1.102 0 0 1-.203.487 1.51 1.51 0 0 1-.062.084 1.31 1.31 0 0 0-.045-.633.93.93 0 0 0-.06-.142 1.224 1.224 0 0 1 .14-.274 1.506 1.506 0 0 1 .127-.16zm-17.05.049.002.004.006.012a2.166 2.166 0 0 1 .15.552c.021.161.02.327-.008.487a1.73 1.73 0 0 1-.34.738 1.953 1.953 0 0 0-.07-.092 7.95 7.95 0 0 0 .084-.678c.011-.135.019-.27.016-.408a5.28 5.28 0 0 0-.12.39 7.958 7.958 0 0 0-.142.65l-.006.007a1.566 1.566 0 0 0-.066.1 2.044 2.044 0 0 1-.065-.315 1.597 1.597 0 0 1 .016-.5 1.598 1.598 0 0 1 .176-.469 2.24 2.24 0 0 1 .365-.474l.002-.004zm16.277.031a1.528 1.528 0 0 1 .082.067 1.132 1.132 0 0 1 .323.437 1.077 1.077 0 0 1 .066.45l-.008-.008a1.85 1.85 0 0 0-.074-.08l-.016-.036a4.155 4.155 0 0 0-.12-.24 1.96 1.96 0 0 0-.15-.23 2.725 2.725 0 0 0 .075.369l-.027.062-.004.006c-.01.02-.018.043-.027.063a.98.98 0 0 1-.094-.188 1.092 1.092 0 0 1-.057-.47 1.545 1.545 0 0 1 .031-.202zm-15.66.223c.02.19.018.386-.013.576a1.61 1.61 0 0 1-.141.451 1.679 1.679 0 0 1-.533.614 1.889 1.889 0 0 0 .363-.75c.05-.23.046-.468.006-.698l.111-.058c.072-.04.207-.135.207-.135zm15.073.154a1.539 1.539 0 0 1 .101.024 1.263 1.263 0 0 1 .313.123v.004a1.117 1.117 0 0 0 .234.521v.006c-.008.035-.017.07-.023.107a1.076 1.076 0 0 1-.303-.195 1.147 1.147 0 0 1-.262-.396 1.479 1.479 0 0 1-.06-.194zm.837.572h.002a1.514 1.514 0 0 1 .073.077 1.128 1.128 0 0 1 .27.472 1.115 1.115 0 0 1 0 .53l-.005.017a3.526 3.526 0 0 0-.158-.478 2.06 2.06 0 0 0-.12-.246 2.21 2.21 0 0 0 .018.271c.008.062.018.124.028.184l-.024-.024-.054.088a1.01 1.01 0 0 1-.082-.22 1.113 1.113 0 0 1 0-.473 1.575 1.575 0 0 1 .052-.198zm.78.012v.002a1.514 1.514 0 0 1 .025.102 1.13 1.13 0 0 1 .004.543 1.12 1.12 0 0 1-.26.46 1.262 1.262 0 0 1-.072.075 1.31 1.31 0 0 0 .03-.633c-.01-.05-.025-.1-.042-.148a1.223 1.223 0 0 1 .17-.254 1.535 1.535 0 0 1 .145-.147zm-1.407.295a1.567 1.567 0 0 1 .1.035 1.27 1.27 0 0 1 .295.16v.002a1.114 1.114 0 0 0 .178.557l-.002.004-.03.078-.007.02a1.068 1.068 0 0 1-.282-.233 1.13 1.13 0 0 1-.212-.424 1.589 1.589 0 0 1-.04-.199zm-16.255.547.004.004a2.24 2.24 0 0 1 .289.537 1.585 1.585 0 0 1 .097.492 1.63 1.63 0 0 1-.056.46 2.07 2.07 0 0 1-.104.288 2.258 2.258 0 0 0-.094-.095 7.936 7.936 0 0 0-.072-.65 4.286 4.286 0 0 0-.078-.401 4.326 4.326 0 0 0-.027.408 7.936 7.936 0 0 0 0 .404l.007.182-.013.025-.002.006a1.302 1.302 0 0 0-.051.108l-.004.01a1.967 1.967 0 0 1-.105-.24 1.617 1.617 0 0 1-.102-.477 1.58 1.58 0 0 1 .06-.499 2.24 2.24 0 0 1 .249-.558l.002-.004zm.648.078.002.006.004.012a2.157 2.157 0 0 1 .123.574 1.63 1.63 0 0 1-.033.47 1.67 1.67 0 0 1-.313.64 1.733 1.733 0 0 1-.064.08 1.89 1.89 0 0 0 .18-.815 1.8 1.8 0 0 0-.16-.69 2.246 2.246 0 0 1 .257-.273l.004-.004zm-1.307.022.004.002.012.007a2.237 2.237 0 0 1 .287.266 1.807 1.807 0 0 0-.111.678 1.867 1.867 0 0 0 .224.793 2.044 2.044 0 0 1-.181-.211 1.603 1.603 0 0 1-.237-.444 1.623 1.623 0 0 1-.08-.494 2.249 2.249 0 0 1 .082-.594v-.003zm17.659.107a1.519 1.519 0 0 1 .064.082 1.13 1.13 0 0 1 .219.498 1.1 1.1 0 0 1-.04.477l-.046-.086a3.591 3.591 0 0 0-.082-.338 1.795 1.795 0 0 0-.094-.26 2.137 2.137 0 0 0-.012.275 3.093 3.093 0 0 0 .01.196l-.066.088a1.069 1.069 0 0 1-.078-.272c-.02-.158.003-.319.05-.47a1.554 1.554 0 0 1 .075-.19zm.771.092v.002a1.487 1.487 0 0 1 .016.103 1.13 1.13 0 0 1-.055.54 1.11 1.11 0 0 1-.305.433 1.06 1.06 0 0 1-.08.066 1.31 1.31 0 0 0 .098-.627 1.137 1.137 0 0 0-.03-.152 1.22 1.22 0 0 1 .198-.234 1.509 1.509 0 0 1 .158-.131zm-1.43.146h.002a1.515 1.515 0 0 1 .094.045 1.27 1.27 0 0 1 .277.192 1.115 1.115 0 0 0 .14.61 1.115 1.115 0 0 1 0 .003 1.69 1.69 0 0 0-.044.076 1.082 1.082 0 0 1-.281-.28 1.1 1.1 0 0 1-.168-.443 1.571 1.571 0 0 1-.02-.203zm.72.81a1.515 1.515 0 0 1 .052.093 1.132 1.132 0 0 1 .135.527c0 .178-.055.353-.137.51l-.004.006-.006-.02a3.566 3.566 0 0 0-.027-.475 1.825 1.825 0 0 0-.051-.267h-.002a2.75 2.75 0 0 0-.072.447l-.088.074a1 1 0 0 1-.027-.261 1.12 1.12 0 0 1 .123-.457 1.585 1.585 0 0 1 .103-.176zm-.686.132a1.558 1.558 0 0 1 .086.058 1.265 1.265 0 0 1 .242.233 1.12 1.12 0 0 0 .033.603 1.717 1.717 0 0 0-.059.074l-.004.004a1.054 1.054 0 0 1-.218-.306 1.1 1.1 0 0 1-.096-.463 1.501 1.501 0 0 1 .016-.203zm1.433.084c.001.035 0 .068-.002.103a1.13 1.13 0 0 1-.14.526c-.087.156-.22.281-.37.378-.029.02-.06.036-.09.053a1.311 1.311 0 0 0 .196-.603.994.994 0 0 0-.004-.155 1.221 1.221 0 0 1 .232-.2 1.491 1.491 0 0 1 .178-.102zm-17.107.324.004.004.006.012a2.153 2.153 0 0 1 .214.558 1.585 1.585 0 0 1 .036.5 1.536 1.536 0 0 1-.116.447 2.03 2.03 0 0 1-.138.282 1.888 1.888 0 0 0 .048-.832 1.812 1.812 0 0 0-.267-.659 2.243 2.243 0 0 1 .21-.308l.003-.004zm-.653.023.002.002.01.01a2.16 2.16 0 0 1 .358.467 1.613 1.613 0 0 1 .171.44 1.72 1.72 0 0 1-.027.792l-.084-.056-.03-.018a7.868 7.868 0 0 0-.173-.625 3.787 3.787 0 0 0-.14-.38 4.349 4.349 0 0 0 .038.405 8.237 8.237 0 0 0 .149.791l-.002.008-.008.032-.002.005a2.043 2.043 0 0 1-.224-.322 1.565 1.565 0 0 1-.178-.467 1.59 1.59 0 0 1-.018-.502 2.242 2.242 0 0 1 .156-.578l.002-.004zm-.632.203.004.002.011.006a2.235 2.235 0 0 1 .326.217 1.82 1.82 0 0 0-.003.688 1.867 1.867 0 0 0 .347.748 2.102 2.102 0 0 1-.22-.192 1.6 1.6 0 0 1-.29-.377 1.587 1.587 0 0 1-.162-.488 2.242 2.242 0 0 1-.013-.6v-.004zm17.5.293h.002v.002a1.508 1.508 0 0 1 .035.1 1.131 1.131 0 0 1 .047.539 1.09 1.09 0 0 1-.194.445 1.633 1.633 0 0 0-.017-.07 3.588 3.588 0 0 0 .035-.379c.004-.09.004-.18-.006-.273a1.95 1.95 0 0 0-.098.256 3.839 3.839 0 0 0-.072.26l-.006.027-.004.004-.054.039a1.052 1.052 0 0 1 .003-.362 1.114 1.114 0 0 1 .198-.43 1.512 1.512 0 0 1 .13-.158zm-.7.018h.002a1.56 1.56 0 0 1 .077.074 1.267 1.267 0 0 1 .2.268c-.025.065-.046.13-.06.197a1.254 1.254 0 0 0 .012.51 1.613 1.613 0 0 0-.035.035 1.13 1.13 0 0 1-.225-.412 1.11 1.11 0 0 1-.017-.473 1.5 1.5 0 0 1 .045-.2zm.28.066a1.415 1.415 0 0 0 .09.094l-.01.016a1.056 1.056 0 0 0-.08-.11zm1.123.252a1.34 1.34 0 0 1-.02.104 1.13 1.13 0 0 1-.222.496 1.1 1.1 0 0 1-.428.31 1.655 1.655 0 0 1-.098.04 1.31 1.31 0 0 0 .291-.565 1.076 1.076 0 0 0 .024-.152 1.221 1.221 0 0 1 .261-.162 1.499 1.499 0 0 1 .192-.07zm-1.664.692a1.528 1.528 0 0 1 .066.082 1.268 1.268 0 0 1 .166.29 1.11 1.11 0 0 0-.084.19 1.258 1.258 0 0 0-.053.516l-.037.023a1.111 1.111 0 0 1-.174-.44 1.113 1.113 0 0 1 .043-.47 1.497 1.497 0 0 1 .073-.191zm.695.07a1.556 1.556 0 0 1 .023.104 1.128 1.128 0 0 1-.02.543c-.05.167-.15.315-.27.441v-.01l-.003-.03a3.54 3.54 0 0 0 .098-.429 1.98 1.98 0 0 0 .03-.271 2 2 0 0 0-.13.24 3.87 3.87 0 0 0-.103.25l-.021.062h-.002l-.05.024a1.1 1.1 0 0 1 .048-.383 1.115 1.115 0 0 1 .25-.402 1.536 1.536 0 0 1 .15-.139zm-15.527.137.004.004.007.01a2.153 2.153 0 0 1 .291.523 1.583 1.583 0 0 1 .108.49 1.62 1.62 0 0 1-.051.46c-.018.07-.04.138-.064.206-.012-.007-.03-.015-.026-.014a1.88 1.88 0 0 0-.08-.726 1.8 1.8 0 0 0-.357-.613 2.241 2.241 0 0 1 .166-.336l.002-.004zm-.643.113.004.002a2.163 2.163 0 0 1 .422.408 1.611 1.611 0 0 1 .244.436 1.66 1.66 0 0 1 .09.646c-.041-.018-.081-.032-.123-.047l-.067-.021a7.956 7.956 0 0 0-.203-.453 4.02 4.02 0 0 0-.193-.36 4.351 4.351 0 0 0 .096.399 8.348 8.348 0 0 0 .255.758l.002.045.002.01a2.04 2.04 0 0 1-.273-.292 1.602 1.602 0 0 1-.242-.437 1.599 1.599 0 0 1-.086-.494 2.242 2.242 0 0 1 .07-.596l.002-.004zm16.824.168v.002a1.65 1.65 0 0 1-.031.1 1.13 1.13 0 0 1-.283.463 1.112 1.112 0 0 1-.463.255 1.5 1.5 0 0 1-.102.028 1.31 1.31 0 0 0 .36-.524c.017-.048.03-.098.04-.148.088-.055.182-.097.28-.127a1.503 1.503 0 0 1 .2-.049zm-17.422.123h.004a2.23 2.23 0 0 1 .366.174 1.818 1.818 0 0 0 .093.68 1.867 1.867 0 0 0 .42.662l.03.031a2.285 2.285 0 0 1-.247-.158 1.596 1.596 0 0 1-.345-.346 1.571 1.571 0 0 1-.223-.45 2.24 2.24 0 0 1-.098-.589v-.004zm15.674.344a1.53 1.53 0 0 1 .05.094 1.27 1.27 0 0 1 .108.316c-.044.053-.085.11-.119.17a1.27 1.27 0 0 0-.146.488h-.002l-.041.024a1.11 1.11 0 0 1-.086-.463 1.1 1.1 0 0 1 .13-.455 1.521 1.521 0 0 1 .106-.174zm.668.201h.002c.002.035.002.07.002.105a1.132 1.132 0 0 1-.123.53 1.04 1.04 0 0 1-.264.318v-.004c.004-.039.004-.078.004-.117v-.025a3.429 3.429 0 0 0 .094-.233 1.89 1.89 0 0 0 .08-.261 1.82 1.82 0 0 0-.172.212c-.054.073-.1.151-.148.227l-.012.018a.628.628 0 0 0-.072.025 1.04 1.04 0 0 1 .115-.34 1.112 1.112 0 0 1 .322-.348 1.527 1.527 0 0 1 .172-.107zm-14.465.531.004.004a2.247 2.247 0 0 1 .408.44 1.584 1.584 0 0 1 .229.476 1.503 1.503 0 0 1 .047.26 2.53 2.53 0 0 0-.004.35l-.041-.012a1.826 1.826 0 0 0-.236-.635 1.8 1.8 0 0 0-.49-.512 2.239 2.239 0 0 1 .083-.37zm15.032.002v.002a2.11 2.11 0 0 1-.051.094 1.13 1.13 0 0 1-.365.4c-.15.098-.327.147-.504.164l-.07.004a2.118 2.118 0 0 0 .003-.023l.008-.004c.162-.108.306-.247.406-.416a1.35 1.35 0 0 0 .069-.137v-.002a1.26 1.26 0 0 1 .37-.08 1.303 1.303 0 0 1 .134-.002zm-1.739.106a1.478 1.478 0 0 1 .035.1 1.261 1.261 0 0 1 .061.33l-.002.001a1.12 1.12 0 0 0-.14.15c-.109.14-.178.305-.22.477l-.038.018a1.114 1.114 0 0 1-.022-.488 1.114 1.114 0 0 1 .195-.43 1.63 1.63 0 0 1 .131-.158zm-13.89.156.004.002a2.242 2.242 0 0 1 .523.314 1.58 1.58 0 0 1 .346.385 1.598 1.598 0 0 1 .199.506 1.694 1.694 0 0 0-.242-.04l-.098-.009.092.008a7.09 7.09 0 0 0-.24-.309 4.132 4.132 0 0 0-.274-.304 4.344 4.344 0 0 0 .186.365 7.994 7.994 0 0 0 .207.348l.058.09a2.348 2.348 0 0 0 .055.22 1.607 1.607 0 0 1-.543-.506 1.583 1.583 0 0 1-.207-.472 2.248 2.248 0 0 1-.066-.594v-.004zm14.523.14a1.89 1.89 0 0 1-.012.106 1.131 1.131 0 0 1-.199.506c-.075.104-.17.188-.277.258v-.008a1.278 1.278 0 0 0 .014-.117l.002-.034c.037-.058.073-.12.107-.181a1.972 1.972 0 0 0 .115-.248 1.837 1.837 0 0 0-.2.183 3.5 3.5 0 0 0-.18.204l-.003.003-.086.024a1.047 1.047 0 0 1 .164-.317 1.13 1.13 0 0 1 .368-.296 1.525 1.525 0 0 1 .187-.082zm-15.039.28h.006l.014.002a2.23 2.23 0 0 1 .38.082 1.82 1.82 0 0 0 .25.639 1.872 1.872 0 0 0 .57.55h-.029s-.148-.046-.218-.076a1.63 1.63 0 0 1-.418-.256 1.601 1.601 0 0 1-.32-.384 2.238 2.238 0 0 1-.233-.553l-.002-.004zm13.787.215a1.546 1.546 0 0 1 .028.101 1.264 1.264 0 0 1 .037.334 1.124 1.124 0 0 0-.393.559l-.023.008-.032.011-.005.002c-.022-.15-.02-.305.02-.453a1.114 1.114 0 0 1 .226-.416 1.515 1.515 0 0 1 .142-.146zm1.475.095.039.002a1.467 1.467 0 0 1 .219.02v.002c-.02.029-.043.057-.065.084a1.13 1.13 0 0 1-.42.342 1.11 1.11 0 0 1-.521.09l-.03-.002.002-.006a1.625 1.625 0 0 0 .012-.037l.002-.006a1.29 1.29 0 0 0 .422-.332 1.084 1.084 0 0 0 .088-.127c.082-.018.168-.03.252-.03zm-13.307.213.004.002a2.164 2.164 0 0 1 .488.326 1.612 1.612 0 0 1 .389.518 4.47 4.47 0 0 0 .008.205 2.333 2.333 0 0 0 .015.127l.002.014a1.765 1.765 0 0 0-.308-.424 1.787 1.787 0 0 0-.594-.387 2.237 2.237 0 0 1-.004-.375v-.006zm12.442.034a1.26 1.26 0 0 1-.022.103 1.13 1.13 0 0 1-.232.49 1.08 1.08 0 0 1-.373.276 1.53 1.53 0 0 0 .015-.08 3.574 3.574 0 0 0 .21-.29 1.97 1.97 0 0 0 .132-.238 1.98 1.98 0 0 0-.213.17c-.05.045-.1.092-.148.14l-.112.02-.004.002a1.024 1.024 0 0 1 .166-.256 1.113 1.113 0 0 1 .387-.27 1.471 1.471 0 0 1 .194-.067zm-12.965.36h.006l.011.003a2.166 2.166 0 0 1 .547.172 1.655 1.655 0 0 1 .404.27 1.602 1.602 0 0 1 .338.456 2.052 2.052 0 0 0-.248-.015h-.029l-.031.002a6.122 6.122 0 0 0-.567-.42 6.03 6.03 0 0 0 .496.556l.047.133c.02.05.043.1.067.15a1.599 1.599 0 0 1-.537-.337 1.614 1.614 0 0 1-.3-.403 2.24 2.24 0 0 1-.202-.562l-.002-.004zm11.59.057a1.539 1.539 0 0 1 .029.102 1.269 1.269 0 0 1 .035.334 1.013 1.013 0 0 0-.152.14 1.26 1.26 0 0 0-.252.454l-.04.013-.003.002-.002-.01a1.114 1.114 0 0 1 .015-.472 1.114 1.114 0 0 1 .229-.414 1.515 1.515 0 0 1 .14-.149zm1.464.184h.018a1.377 1.377 0 0 1 .326.043 1.32 1.32 0 0 1-.068.08 1.131 1.131 0 0 1-.444.313 1.116 1.116 0 0 1-.607.039l.006-.016a1.311 1.311 0 0 0 .51-.326 1.24 1.24 0 0 0 .095-.12c.054-.007.11-.013.164-.013zm-.853.158a1.903 1.903 0 0 1-.022.104 1.131 1.131 0 0 1-.234.49 1.106 1.106 0 0 1-.428.3l.004-.023a3.574 3.574 0 0 0 .276-.37 1.996 1.996 0 0 0 .134-.241 2.128 2.128 0 0 0-.214.172c-.067.06-.132.122-.194.187l-.004.004-.086.016a1.02 1.02 0 0 1 .186-.3 1.114 1.114 0 0 1 .389-.27 1.508 1.508 0 0 1 .193-.069zm-12.352.112a2.435 2.435 0 0 1 .157.005 1.817 1.817 0 0 0 .388.567 1.791 1.791 0 0 0 .53.346c-.01.002-.11.02-.157.033v-.002a1.534 1.534 0 0 1-.427-.15 1.588 1.588 0 0 1-.37-.278 2.154 2.154 0 0 1-.351-.465l-.024-.04h.006l.014-.003a2.04 2.04 0 0 1 .234-.013zm1.713.072.004.002a2.236 2.236 0 0 1 .55.27 1.576 1.576 0 0 1 .376.355 1.598 1.598 0 0 1 .21.394 2.025 2.025 0 0 1 .087.301 2.192 2.192 0 0 0-.219-.338 1.813 1.813 0 0 0-.285-.289 1.851 1.851 0 0 0-.666-.318 2.25 2.25 0 0 1-.057-.373v-.004zm9.201.289a1.545 1.545 0 0 1 .028.101 1.264 1.264 0 0 1 .037.333l-.002.001a1.1 1.1 0 0 0-.15.14 1.3 1.3 0 0 0-.278.534l-.002.008-.017-.082a1.114 1.114 0 0 1 .015-.473 1.115 1.115 0 0 1 .227-.416 1.536 1.536 0 0 1 .142-.146zm1.528.129h.015a1.362 1.362 0 0 1 .328.043 1.32 1.32 0 0 1-.07.08 1.13 1.13 0 0 1-.443.312 1.122 1.122 0 0 1-.631.034 1.31 1.31 0 0 0 .539-.336 1.24 1.24 0 0 0 .098-.12.998.998 0 0 1 .164-.013zm-11.192.043h.004a2.243 2.243 0 0 1 .604.103 1.58 1.58 0 0 1 .459.237 1.6 1.6 0 0 1 .312.32 2.094 2.094 0 0 1 .229.39l-.008.003-.014.005a7.967 7.967 0 0 0-.732-.468 4 4 0 0 0-.363-.186 4.363 4.363 0 0 0 .302.274 8.917 8.917 0 0 0 .61.455l-.076.033-.02.008a2.02 2.02 0 0 1-.24-.063 1.615 1.615 0 0 1-.424-.21 1.563 1.563 0 0 1-.363-.368 2.244 2.244 0 0 1-.278-.53l-.002-.003zm10.274.17a1.17 1.17 0 0 1-.02.101 1.132 1.132 0 0 1-.234.49c-.115.138-.27.236-.434.303l-.017.008a3.575 3.575 0 0 0 .302-.402 1.977 1.977 0 0 0 .133-.24 1.97 1.97 0 0 0-.213.17 3.53 3.53 0 0 0-.195.189c-.045.049-.092.1-.135.15a1.114 1.114 0 0 1 .233-.433 1.114 1.114 0 0 1 .388-.27 1.536 1.536 0 0 1 .192-.066zm-10.197.34a1.818 1.818 0 0 0 .462.507 1.774 1.774 0 0 0 .536.26l-.135.063a1.63 1.63 0 0 1-.385-.075 1.687 1.687 0 0 1-.605-.375 2.177 2.177 0 0 1-.278-.314h.004c.131-.034.266-.056.4-.066zm10.289.261h.015a1.378 1.378 0 0 1 .326.043c-.022.027-.042.054-.066.08a1.13 1.13 0 0 1-.445.313 1.136 1.136 0 0 1-.631.033l.004-.002a1.311 1.311 0 0 0 .535-.336 1.07 1.07 0 0 0 .096-.119c.055-.008.11-.012.166-.012zm-5.073.037H12c1.635-.046 3.262.23 4.55.93a.298.298 0 0 0-.025.01 6.457 6.457 0 0 1-.515.232c-.077.03-.337.125-.389.145a5.03 5.03 0 0 0-.142.054.431.431 0 0 0-.118.077c-.033.032-.067.061-.101.091-.027.027-.038.043-.033.047a1.666 1.666 0 0 0-.086.082c-.036.037-.075.074-.112.114a3.3 3.3 0 0 0-.049.05.295.295 0 0 0-.043.063c-.061.105-.08.12-.156.197a.78.78 0 0 1-.281.184.934.934 0 0 1-.227.06 1.39 1.39 0 0 1-.234.012 3.184 3.184 0 0 1-1.346-.322.662.662 0 0 1-.226-.176.206.206 0 0 1-.045-.102.305.305 0 0 1 .008-.117c.013-.046.013-.07 0-.076-.013-.005-.034.013-.057.05a1.162 1.162 0 0 0-.12.276.511.511 0 0 0-.017.188.338.338 0 0 0 .149.24 1.024 1.024 0 0 0 .146.082 3.083 3.083 0 0 0 .721.244c.152.033.301.05.45.05a1.529 1.529 0 0 0 .708-.17c.086-.048.172-.105.26-.169.032-.022.05-.03.05-.021.002.008-.005.025-.017.048a4.96 4.96 0 0 1-.076.17 3.36 3.36 0 0 0-.072.164v.002a1.607 1.607 0 0 0-.037.12.516.516 0 0 0-.02.138.289.289 0 0 0 .03.127.172.172 0 0 0 .1.084.16.16 0 0 0 .142-.015.54.54 0 0 0 .134-.116c.043-.05.082-.104.116-.164.034-.06.063-.114.084-.16.007-.022.008-.036-.002-.041-.008-.005-.024.005-.04.03a.662.662 0 0 1-.033.046.296.296 0 0 1-.045.047.163.163 0 0 1-.05.03.087.087 0 0 1-.061-.003.14.14 0 0 1-.1-.119.558.558 0 0 1 .043-.24l.002-.002a5.97 5.97 0 0 1 .092-.24 1.984 1.984 0 0 1 .113-.233l.059-.107a2.563 2.563 0 0 1 .2-.312 2.683 2.683 0 0 0 .255-.067l.238-.07.235-.098a1.46 1.46 0 0 0 .273-.142c.09-.06.17-.124.244-.194a.434.434 0 0 0 .055-.06 5.113 5.113 0 0 1 1.457 1.175c.025.205-1.18 2.499-1.432 2.83-.112.108-.15.123-.246.137-1.102-.935-2.708-1.334-4.324-1.318H12c-1.629-.022-3.25.375-4.361 1.318-.095-.014-.134-.03-.246-.138-.252-.331-1.457-2.625-1.432-2.83 1.325-1.57 3.641-2.178 5.984-2.122zm-7.941.655a.629.629 0 0 1 .314.021l1.504 3.858c-.166.01-.334.032-.504.24l-1.705-3.522a.489.489 0 0 1 .39-.597zm15.992 0c.284.057.46.325.39.597l-1.704 3.522c-.17-.208-.338-.23-.504-.24l1.504-3.858a.629.629 0 0 1 .314-.021zM5.05 19.49c.081.006.146.092.29.39l1.837 3.782c-.04.017-.087.035-.133.059-.385.006-.756-.12-1.166-.254l-.025-.078c.67-.353.409-.589.28-.903 0 0-.545-1.323-.741-1.82-.152-.384-.434-1.16-.434-1.16a.25.25 0 0 1 .092-.016zm13.902 0a.25.25 0 0 1 .092.016s-.282.776-.434 1.16c-.196.497-.742 1.82-.742 1.82-.128.314-.389.55.281.903l-.025.078c-.41.134-.781.26-1.166.254-.046-.024-.093-.042-.133-.059l1.836-3.781c.145-.299.21-.385.291-.39zm-13.13 3.395a.75.75 0 0 1 .155.031c.003.157-.131.229-.221.271-.071.034-.228.043-.324-.027.072-.236.232-.289.39-.275zm12.356 0c.158-.014.318.039.39.275-.096.07-.253.06-.324.027-.09-.043-.224-.114-.22-.271a.75.75 0 0 1 .154-.031zm-3.166-.884a.522.522 0 0 1 .126-.14c.075-.068.12-.1.134-.094.046.017.082.054.11.113.026.06.032.11.017.152a.306.306 0 0 1-.114.127c-.061.045-.103.063-.127.055a.45.45 0 0 1-.086-.103l-.048-.066c-.013-.017-.016-.031-.012-.044zm-6.522.044a.846.846 0 0 1 .054-.156c.038-.095.062-.143.073-.145.032-.005.072.009.121.041.05.034.077.07.083.105a.317.317 0 0 1-.04.167c-.033.068-.059.104-.077.107-.01.001-.025-.005-.046-.018a3.001 3.001 0 0 1-.064-.04 2.88 2.88 0 0 1-.069-.028c-.021-.009-.033-.02-.035-.033zm-.26-.317a.7.7 0 0 1 .058-.176c.041-.102.068-.154.079-.155.024-.004.062.007.114.033.05.027.086.053.108.08l.061-.135c.03-.065.049-.097.056-.098.034-.006.078.008.133.042.056.037.087.075.093.114.007.045-.01.104-.05.177-.038.068-.068.103-.089.106-.015.003-.04-.008-.076-.03a.832.832 0 0 0-.126-.072c-.052.143-.1.219-.142.226a.525.525 0 0 1-.115-.051.441.441 0 0 1-.104-.06zm7.735-1.712.007-.006a.069.069 0 0 1 .022-.016c.006-.002.008 0 .008.009a.152.152 0 0 1-.023.046 6.312 6.312 0 0 0-.244.45c-.203.414-.055.11-.16.37a.543.543 0 0 0-.043.24.14.14 0 0 0 .1.12.087.087 0 0 0 .06.002.164.164 0 0 0 .05-.03.299.299 0 0 0 .044-.046.659.659 0 0 0 .034-.048c.017-.024.03-.033.039-.028.01.005.01.019.002.04a1.47 1.47 0 0 1-.2.324.543.543 0 0 1-.135.115.16.16 0 0 1-.14.016.172.172 0 0 1-.102-.083.289.289 0 0 1-.028-.127c0-.046.006-.092.019-.139.012-.046.025-.087.037-.12l.005-.004c.03-.085.079-.192.144-.32.147-.292-.072.128.217-.423a.796.796 0 0 1 .09-.135 3.252 3.252 0 0 1 .183-.193zm-6.158.243c.16-.022.314-.049.464-.082.15-.034.297-.08.442-.142.129-.055.253-.12.373-.193.119-.073.233-.15.343-.233.153-.116.297-.238.43-.365.135-.128.272-.256.412-.385a2.79 2.79 0 0 1 .126-.112c.042-.035.087-.068.136-.1.045-.027.077-.036.096-.024.02.01.02.039.002.084a6.24 6.24 0 0 1-.037.106.675.675 0 0 1-.047.102.155.155 0 0 1-.03.04.237.237 0 0 1-.042.032.613.613 0 0 0-.105.082 16.167 16.167 0 0 0-.415.4 9.893 9.893 0 0 1-.504.468 3.397 3.397 0 0 1-.27.207c-.39.275-.827.45-1.308.526-.124.018-.23.032-.318.043a1.258 1.258 0 0 1-.426-.011 1.065 1.065 0 0 1-.253-.072.113.113 0 0 0-.038-.008.046.046 0 0 0-.032.013.869.869 0 0 0-.082.114 16.91 16.91 0 0 0-.055.092.397.397 0 0 1-.152.14.326.326 0 0 1-.203.03 1.702 1.702 0 0 1-.112-.022.24.24 0 0 0-.114.004.607.607 0 0 0-.112.04.398.398 0 0 0-.103.074c-.05.047-.083.068-.099.063-.016-.004-.007-.036.025-.097.037-.07.08-.14.13-.207a1.126 1.126 0 0 1 .27-.26.254.254 0 0 1 .122-.04.347.347 0 0 1 .108.012c.036.01.073.016.11.02.04.005.076 0 .108-.015a.24.24 0 0 0 .083-.065.708.708 0 0 0 .074-.092l.065-.096a.29.29 0 0 1 .09-.087c.028-.015.07-.017.128-.005.13.024.251.037.364.041a1.99 1.99 0 0 0 .356-.02zm5.505-.257a.534.534 0 0 1 .125-.138c.075-.068.12-.099.134-.094.046.017.082.055.11.114.026.059.032.11.017.152-.014.04-.052.08-.113.125-.061.044-.103.062-.127.054a.448.448 0 0 1-.086-.104 1.272 1.272 0 0 1-.05-.063c-.01-.018-.014-.033-.01-.046z"/></svg>