<svg role="img" viewBox="0 0 24 24" xmlns="http://www.w3.org/2000/svg"><path d="M.375 14.654a.606.606 0 0 1-.284-.202c-.097-.127-.097-.133-.086-2.554l.01-2.246.057-.083a.678.678 0 0 1 .305-.232c.12-.04 4.47-.026 4.598.015a.628.628 0 0 1 .318.282l.052.098v4.509l-.064.129a.511.511 0 0 1-.15.195c-.171.13-.047.124-2.47.123-2.05 0-2.194-.003-2.287-.034zm1.171-.945a.952.952 0 0 0 .026-.224l.01-.208.133.087c.201.13.487.269.654.317.203.058.65.062.865.007a1.66 1.66 0 0 0 .808-.448 1.75 1.75 0 0 0 .512-.876c.036-.147.04-.21.032-.512-.008-.318-.012-.354-.061-.487a1.858 1.858 0 0 0-.704-.92 2.082 2.082 0 0 0-.585-.266c-.142-.036-.198-.04-.468-.032-.269.008-.328.015-.47.061a1.688 1.688 0 0 0-.755.458 1.828 1.828 0 0 0-.402.61c-.118.298-.123.35-.123 1.404 0 1.163-.029 1.06.297 1.05a.981.981 0 0 0 .232-.021zm.981-.539a2.113 2.113 0 0 1-.286-.117 1.203 1.203 0 0 1-.643-.79 1.733 1.733 0 0 1-.01-.63 1.241 1.241 0 0 1 1.225-.962c.354 0 .623.114.88.369.262.258.38.54.38.898 0 .22-.032.36-.132.564-.14.287-.404.515-.725.627a1.011 1.011 0 0 1-.374.064 1.147 1.147 0 0 1-.316-.023zm4.117 1.5a.574.574 0 0 1-.369-.293c-.037-.078-.038-.133-.045-2.363l-.007-2.282.054-.11a.541.541 0 0 1 .307-.276c.092-.032.239-.034 2.323-.028 1.49.004 2.25.012 2.296.026a.578.578 0 0 1 .306.26l.054.103v2.286c-.001 2.257-.001 2.287-.04 2.371a.561.561 0 0 1-.256.265l-.096.05-2.235.004a92.01 92.01 0 0 1-2.292-.012zm2.635-1.002a1.848 1.848 0 0 0 1.128-.937 1.694 1.694 0 0 0 .037-1.479 2.514 2.514 0 0 1-.065-.148c0-.004.116-.007.258-.007h.258v-.575l-.465.006-.465.006-.092.058a.447.447 0 0 0-.207.36c-.001.11.027.175.178.406a.96.96 0 0 1 .176.571 1.218 1.218 0 0 1-.975 1.206 1.373 1.373 0 0 1-.596-.023 1.28 1.28 0 0 1-.852-.899 1.505 1.505 0 0 1 .03-.67 1.48 1.48 0 0 1 .284-.465c.118-.133.125-.105-.077-.343-.16-.188-.192-.193-.334-.054a1.84 1.84 0 0 0-.446.79 2.005 2.005 0 0 0-.023.811 1.7 1.7 0 0 0 .46.882c.286.302.608.473 1.054.558.026.005.163.006.305.003.21-.005.29-.015.429-.056zm3.524.992a.668.668 0 0 1-.312-.264.735.735 0 0 1-.068-.204c-.014-.087-.02-.767-.015-2.273.005-2.034.007-2.154.04-2.24a.66.66 0 0 1 .304-.322l.1-.046 2.255.007c2.211.007 2.256.008 2.346.046.112.047.265.21.296.315.017.057.023.628.023 2.31 0 2.483.006 2.362-.127 2.51a.694.694 0 0 1-.175.128l-.109.053-2.235.004c-1.886.003-2.249-.001-2.323-.024zm2.724-.992c.324-.095.535-.216.772-.44.293-.278.476-.621.535-1.004l.03-.195.01-.053h-.529l-.024.119c-.032.164-.124.41-.19.51a1.817 1.817 0 0 1-.36.368 1.207 1.207 0 0 1-.449.189c-.198.033-.548.014-.696-.039a1.31 1.31 0 0 1-.822-1.017l-.015-.12-.25-.005c-.295-.006-.28-.019-.253.227.043.39.229.735.566 1.05.236.221.521.37.841.44.243.053.6.04.835-.03zm3.554 1.004a.585.585 0 0 1-.38-.308l-.04-.086V9.712l.051-.097a.536.536 0 0 1 .273-.25l.096-.044h2.254c2.225 0 2.255.001 2.34.04a.6.6 0 0 1 .28.275l.045.096v2.255c0 2.496.007 2.353-.123 2.505a.72.72 0 0 1-.166.13l-.103.058-2.235.003a94.172 94.172 0 0 1-2.292-.011zm2.68-.959a1.803 1.803 0 0 0 1.335-1.329 1.81 1.81 0 0 0 .032-.408c.001-.41-.072-.668-.283-.994-.088-.136-.329-.4-.364-.4-.01 0-.089.1-.175.224l-.156.225.065.076c.235.277.333.5.348.795.019.372-.089.648-.357.917-.269.269-.533.373-.9.356a1.14 1.14 0 0 1-.825-.368 1.214 1.214 0 0 1-.343-.839c0-.188.026-.3.109-.482.07-.156.155-.285.263-.402l.073-.08-.174-.211c-.147-.177-.18-.208-.21-.193-.059.032-.253.254-.346.396a1.703 1.703 0 0 0-.28 1.047c.012.293.045.431.159.676.191.408.472.685.895.883.2.093.36.135.584.15.228.016.35.007.55-.039zm-.187-3.246v-.288l-.263.005-.263.005-.005.257a2.39 2.39 0 0 0 .004.282c.007.019.074.025.269.025h.258z"/></svg>