<svg viewBox="0 0 24 24" xmlns="http://www.w3.org/2000/svg" role="img"><path d="M11.892 23.95c-.975-.071-1.586-.17-2.412-.388-.312-.083-1.07-.33-1.244-.408a6.53 6.53 0 0 0-.175-.073l-.159-.064a14.76 14.76 0 0 1-1.27-.63c-2.324-1.34-4.132-3.362-5.153-5.764a14.522 14.522 0 0 1-.584-1.73c-.138-.586-.16-.711-.293-1.609-.058-.396-.057-2.193.001-2.618.104-.746.113-.801.22-1.274.288-1.29.813-2.574 1.51-3.693.215-.344.798-1.146 1.028-1.412a13.755 13.755 0 0 1 2.05-1.912C6.341 1.677 7.705.963 8.763.62a12.918 12.918 0 0 1 2.728-.584c.417-.048 1.97-.048 2.42 0 .656.07.883.153 1.128.412.211.224.277.405.278.763 0 .276-.012.34-.093.492a1.23 1.23 0 0 1-.78.615c-.144.04-.224.04-.51-.002-.44-.065-2.05-.067-2.447-.003-.756.12-1 .172-1.6.335-.994.27-2.236.887-3.119 1.548-.375.28-.458.35-.796.654a9.748 9.748 0 0 0-2.796 4.498l-.072.246a8.823 8.823 0 0 0-.142.668 9.23 9.23 0 0 0-.142 2.242c.041.537.093.978.144 1.22l.071.352c.023.116.054.25.07.298l.071.246c.251.893.63 1.726 1.175 2.584.124.194.467.68.51.72.01.01.08.097.157.193.498.633 1.485 1.507 2.286 2.026.88.57 2.163 1.117 3.058 1.301l.334.07a9.539 9.539 0 0 0 5.184-.363c.429-.157.519-.197 1.125-.503a9.612 9.612 0 0 0 1.834-1.189c.639-.525.713-.578.917-.656.302-.115.563-.092.915.08.407.198.684.79.567 1.21-.088.316-.173.43-.57.773a13.664 13.664 0 0 1-3.435 2.164c-.9.4-2.164.748-3.145.867-.346.042-1.338.11-1.488.103-.052-.003-.37-.025-.709-.05zm-1.002-7.992c-.597-.145-.998-.788-.861-1.38.08-.345.311-.64.632-.808l.159-.082 1.709-.01c1.64-.009 1.717-.007 1.899.061.238.09.49.334.614.595.108.228.13.587.054.851-.102.348-.468.692-.816.767-.2.043-3.215.048-3.39.005zM8.183 13.06a1.176 1.176 0 0 1-.68-1.522c.091-.243.354-.521.601-.636l.167-.078h8.619l.18.09c.232.116.426.303.545.525.083.157.093.214.093.527 0 .313-.01.371-.094.53a1.21 1.21 0 0 1-.661.567c-.169.06-8.608.058-8.77-.003zm2.57-2.888c-.474-.176-.806-.722-.746-1.227.029-.246.205-.586.387-.746.084-.074.237-.166.341-.204.18-.067.277-.07 1.877-.07h1.687l.199.097c.24.118.427.317.55.584.076.16.092.249.092.478 0 .446-.185.772-.567 1.003l-.2.122-1.742.007c-1.446.006-1.764-.002-1.878-.044zm11.349-1.964a1.11 1.11 0 0 1-.61-.356c-.548-.622-.276-1.56.53-1.828.491-.164 1.102.127 1.334.635.12.262.112.666-.019.937-.22.46-.76.727-1.236.612zM20.028 5.38a1.227 1.227 0 0 1-.748-.617c-.078-.15-.093-.225-.094-.477-.001-.258.012-.326.097-.5.407-.828 1.61-.828 2.017 0 .138.28.14.673.008.957a1.11 1.11 0 0 1-.946.654 1.497 1.497 0 0 1-.334-.017zm-2.794-2.056c-.454-.131-.74-.433-.831-.878-.122-.588.227-1.136.843-1.325.435-.133 1.032.159 1.262.617a1.18 1.18 0 0 1-.016 1.015c-.225.441-.802.703-1.258.57z"/></svg>