<svg role="img" viewBox="0 0 24 24" xmlns="http://www.w3.org/2000/svg"><path d="M12.066 23.997a.89.89 0 0 1-.728-.554l-.013-.034-.01.017a.87.87 0 0 1-.388.318.878.878 0 0 1-.914-.142.904.904 0 0 1-.284-.45l-.005-.017-.027.031a.88.88 0 0 1-1.348-.035.915.915 0 0 1-.184-.403l-.026.02a.88.88 0 0 1-1.2-.027.89.89 0 0 1-.27-.595v-.017l-.047.031a.898.898 0 0 1-.285.125.889.889 0 0 1-1.06-.644.724.724 0 0 1-.025-.213c0-.048 0-.097.003-.11l.003-.024-.054.023a.948.948 0 0 1-.209.061.752.752 0 0 1-.142.01.727.727 0 0 1-.215-.026.888.888 0 0 1-.636-1.103.197.197 0 0 0-.05.012.886.886 0 0 1-1.09-1.187l.019-.044-.03.003a.89.89 0 0 1-.902-1.257l.02-.043-.065-.005a.88.88 0 0 1-.738-.497.883.883 0 0 1 .076-.904c.015-.02.022-.033.018-.034a.936.936 0 0 1-.384-.129.939.939 0 0 1-.294-.296.922.922 0 0 1-.12-.344.89.89 0 0 1 .271-.759c.023-.022.039-.04.035-.04a.891.891 0 0 1-.694-.864.87.87 0 0 1 .248-.615.906.906 0 0 1 .192-.152l.014-.01-.05-.025a.952.952 0 0 1-.14-.09.911.911 0 0 1-.312-.473.696.696 0 0 1-.026-.229.62.62 0 0 1 .012-.156.885.885 0 0 1 .47-.63l.034-.016-.045-.027a.893.893 0 0 1-.425-.63 1.228 1.228 0 0 1-.002-.252.882.882 0 0 1 .654-.736c.01-.002.016-.004.016-.006a.96.96 0 0 1-.18-.18.906.906 0 0 1-.169-.386 1.17 1.17 0 0 1-.002-.293.891.891 0 0 1 .757-.734l.018-.003-.015-.018a.896.896 0 0 1-.09-1.067.886.886 0 0 1 .765-.41c.012.002.012.003-.017-.038a.883.883 0 0 1 .887-1.39l-.019-.045a.882.882 0 0 1 1.074-1.188l-.013-.047a.865.865 0 0 1 .007-.538.876.876 0 0 1 .554-.558.873.873 0 0 1 .688.052c.01.006.02.01.02.009.002-.001 0-.018-.004-.038a.773.773 0 0 1-.016-.17c0-.197.059-.374.176-.531a.888.888 0 0 1 .624-.35.89.89 0 0 1 .61.173c.02.015.021.015.019.005a.887.887 0 0 1 .775-.993c.054-.005.2-.002.248.007a.898.898 0 0 1 .457.228l.03.028.005-.043A.892.892 0 0 1 8.17.751a.878.878 0 0 1 1.25.034l.042.044.003-.017a.858.858 0 0 1 .252-.437.877.877 0 0 1 1.334.139l.027.04.026-.053a.884.884 0 0 1 1.624.07c.004.008.006.006.03-.03a.888.888 0 0 1 1.6.243.14.14 0 0 0 .013.037l.02-.023a.894.894 0 0 1 1.081-.254.884.884 0 0 1 .5.683l.003.018.033-.03a.89.89 0 0 1 1.425.333.829.829 0 0 1 .059.294l.002.077.023-.018a.898.898 0 0 1 .583-.168.868.868 0 0 1 .558.248.835.835 0 0 1 .173.233c.066.13.096.253.095.397a.76.76 0 0 1-.011.154c-.003.005-.001.004.041-.014a.89.89 0 0 1 1.134.429.877.877 0 0 1 .047.67l.05-.013a.891.891 0 0 1 .931.321.881.881 0 0 1 .1.907l.047-.005a.882.882 0 0 1 .832 1.39.093.093 0 0 0-.014.023c0 .001.027.004.06.006.13.01.234.038.346.094A.88.88 0 0 1 22.79 7.9l-.009.012.01.002.037.007a.883.883 0 0 1 .412 1.549l-.019.015.019.005c.279.07.507.267.612.528a.874.874 0 0 1-.323 1.06.678.678 0 0 0-.036.024c-.002.002.011.01.03.02a.903.903 0 0 1 .463.641c.01.059.01.223-.001.282a.882.882 0 0 1-.46.638c-.005.002.004.01.031.025.274.158.443.45.443.766a.875.875 0 0 1-.587.83l-.044.015c-.004 0 .012.02.044.054a.881.881 0 0 1-.493 1.48.218.218 0 0 0 .026.039.881.881 0 0 1-.66 1.404l-.028.003.027.042a.867.867 0 0 1 .057.864.881.881 0 0 1-.98.483l-.01-.002.01.02a.911.911 0 0 1 .07.228c.01.06.01.212 0 .271a.886.886 0 0 1-1.098.719.32.32 0 0 0-.035-.008l.004.018a.868.868 0 0 1-.206.883.88.88 0 0 1-1.012.187c-.004-.002-.003.005 0 .024a.884.884 0 0 1-.625 1.01.896.896 0 0 1-.722-.103l-.027-.017v.03a.884.884 0 0 1-.888.886.888.888 0 0 1-.597-.227l-.022-.02v.026a.888.888 0 0 1-1.538.545c-.024-.026-.03-.03-.032-.024l-.017.052a.89.89 0 0 1-.686.609.879.879 0 0 1-.795-.251.96.96 0 0 1-.12-.151l-.012-.02-.016.045a.89.89 0 0 1-.714.576 1.478 1.478 0 0 1-.21.004zm.192-.14a.742.742 0 0 0 .644-.682.28.28 0 0 0-.004-.096.753.753 0 0 1-.011-.092.325.325 0 0 0-.022-.102.74.74 0 0 0-.195-.31.74.74 0 0 0-1.181.212l-.023.044.001.072a.856.856 0 0 1-.036.28l-.011.036.009.045a.715.715 0 0 0 .064.182.743.743 0 0 0 .764.412zm-.243-.227c-.18-.017-.322-.14-.389-.34a1.05 1.05 0 0 1-.048-.312l-.001-.07.07.002c.038 0 .07.002.07.002l.005.083a.75.75 0 0 0 .075.327c.045.087.11.139.199.158.047.011.14.007.2-.008.095-.024.212-.074.32-.138a.595.595 0 0 1 .054-.03c.004 0 .079.12.076.121l-.048.029a1.153 1.153 0 0 1-.478.177.36.36 0 0 1-.105 0zm-1.36.043a.742.742 0 0 0 .665-.857.76.76 0 0 0-.609-.626.635.635 0 0 0-.131-.008.55.55 0 0 0-.142.01.744.744 0 0 0-.47.311c-.043.063-.043.063-.048.129a.91.91 0 0 1-.075.31c-.006.016-.006.023-.002.065a.754.754 0 0 0 .811.665zm-.258-.237c-.216-.045-.35-.224-.388-.522a1.266 1.266 0 0 1-.007-.116l-.002-.08h.057c.031.001.064.002.072.004l.015.003.002.07c.008.22.066.376.168.45.095.07.232.074.403.01.054-.019.164-.073.227-.11.046-.027.052-.03.056-.023.02.028.07.11.07.114a1.29 1.29 0 0 1-.437.195.707.707 0 0 1-.236.006zm3.474.228a.744.744 0 0 0 .647-.662l.005-.048-.019-.047a.916.916 0 0 1-.07-.292c-.001-.04-.003-.045-.018-.07a.755.755 0 0 0-.501-.349.59.59 0 0 0-.14-.01.745.745 0 0 0-.738.89.747.747 0 0 0 .834.588zm-.153-.17a.457.457 0 0 1-.072-.014c-.207-.06-.337-.264-.377-.592a1.852 1.852 0 0 1-.013-.185c0-.001.034-.002.073-.002l.071-.001.003.061c.008.155.038.297.084.393.047.096.111.159.19.185a.456.456 0 0 0 .176.006.934.934 0 0 0 .296-.128c.037-.024.05-.03.053-.026l.042.058.037.053-.011.008a1.3 1.3 0 0 1-.166.097.822.822 0 0 1-.281.087.357.357 0 0 1-.105 0zm-4.607-.173a.747.747 0 0 0 .593-1.075.75.75 0 0 0-.82-.404.745.745 0 0 0-.423.256c-.022.027-.025.034-.025.05l-.006.061a.893.893 0 0 1-.113.325l-.026.046.003.04c.01.136.06.279.137.387.036.052.127.142.179.18a.742.742 0 0 0 .501.134zm-.243-.233c-.212-.036-.35-.2-.396-.473-.01-.06-.02-.163-.02-.219v-.03h.031a.97.97 0 0 1 .072.004l.04.003.004.06c.01.206.05.34.13.427.092.1.244.116.438.045.076-.027.203-.092.27-.136l.012-.007.038.06c.03.047.037.062.033.066a1.36 1.36 0 0 1-.16.09.885.885 0 0 1-.492.11zm6.591.206a.732.732 0 0 0 .393-.208.66.66 0 0 0 .142-.195.684.684 0 0 0 .075-.352.405.405 0 0 0-.043-.202 1.273 1.273 0 0 1-.045-.108.367.367 0 0 0-.034-.076.753.753 0 0 0-1.361.263.994.994 0 0 0-.01.238c.042.328.3.591.633.644.055.009.2.007.25-.004zm-.246-.187c-.195-.03-.33-.17-.383-.399a.989.989 0 0 1-.026-.291c0-.083.001-.152.003-.154.002-.002.1.004.129.008l.013.002v.139c0 .113 0 .148.008.188.03.193.102.305.222.349.116.042.286.011.48-.086l.034-.017.014.026.035.063.02.037-.052.026c-.183.092-.357.13-.497.108zm-7.603-.274a.741.741 0 0 0 .684-.744.54.54 0 0 0-.01-.146.743.743 0 0 0-1.257-.387c-.024.024-.026.026-.038.071a.868.868 0 0 1-.165.333c-.02.024-.021.16-.004.254a.75.75 0 0 0 .79.62zm-.233-.248a.427.427 0 0 1-.319-.23.677.677 0 0 1-.07-.273 1.285 1.285 0 0 1 .01-.244c.004-.031.006-.035.014-.035.015 0 .128.018.131.02a.099.099 0 0 1 0 .035 1.231 1.231 0 0 0-.01.215c.007.092.02.148.052.213a.297.297 0 0 0 .126.127.358.358 0 0 0 .191.033 1.07 1.07 0 0 0 .394-.102.118.118 0 0 1 .039-.012.89.89 0 0 1 .03.064l.029.062-.01.005a1.357 1.357 0 0 1-.393.122.918.918 0 0 1-.214 0zm9.58.1a.75.75 0 0 0 .615-.787 1.156 1.156 0 0 0-.011-.085c-.006-.03-.01-.035-.04-.075a.923.923 0 0 1-.145-.263l-.014-.042-.036-.032a.751.751 0 0 0-1.203.287.745.745 0 0 0 .834.997zm-.252-.193c-.277-.05-.42-.319-.404-.754a.664.664 0 0 1 .006-.083.85.85 0 0 1 .143.008l-.002.074a1.17 1.17 0 0 0 .032.352c.041.14.117.226.227.256.038.01.141.01.19 0a.996.996 0 0 0 .244-.089.675.675 0 0 1 .054-.025c.004 0 .068.116.068.123a1.158 1.158 0 0 1-.37.138.713.713 0 0 1-.187 0zm-10.426-.354a.747.747 0 0 0 .342-1.3.742.742 0 0 0-.82-.106.379.379 0 0 0-.128.088.887.887 0 0 1-.2.298c-.047.046-.047.047-.057.08a.613.613 0 0 0-.024.175.749.749 0 0 0 .637.771c.057.01.194.005.25-.006zm-.31-.235a.429.429 0 0 1-.33-.232.703.703 0 0 1-.071-.34c0-.076.01-.205.017-.212a1.18 1.18 0 0 1 .14.02l-.007.066a1.04 1.04 0 0 0 .007.277.494.494 0 0 0 .052.14c.023.04.068.083.108.103.127.066.327.046.57-.056a.802.802 0 0 1 .058-.023c.004 0 .063.127.06.13l-.04.017a1.56 1.56 0 0 1-.33.103.928.928 0 0 1-.234.006zm12.327.027a.723.723 0 0 0 .258-.077.74.74 0 0 0 .366-.921.112.112 0 0 0-.03-.053.998.998 0 0 1-.199-.24c-.026-.046-.027-.047-.065-.072a.756.756 0 0 0-.785-.02.741.741 0 0 0-.098 1.22.763.763 0 0 0 .553.163zm-.142-.183c-.238-.021-.392-.175-.428-.43a1.299 1.299 0 0 1 .044-.484.48.48 0 0 1 .072.013c.062.015.066.017.063.025a1.284 1.284 0 0 0-.036.418.491.491 0 0 0 .043.15.239.239 0 0 0 .056.078.276.276 0 0 0 .13.074c.04.011.152.016.21.009.052-.007.125-.024.19-.043a.36.36 0 0 1 .057-.015c.002.002.048.126.048.13a1.083 1.083 0 0 1-.323.076.511.511 0 0 1-.126 0zm-13.18-.523a.748.748 0 0 0 .196-1.416.738.738 0 0 0-.686.025c-.033.018-.037.022-.061.058a.912.912 0 0 1-.193.214l-.039.03-.02.046a.776.776 0 0 0-.05.163.59.59 0 0 0-.01.14c0 .082.001.096.012.144a.757.757 0 0 0 .85.596zm-.297-.242a.445.445 0 0 1-.365-.353.848.848 0 0 1-.023-.253.866.866 0 0 1 .017-.175c.002-.002.122.013.137.018.003 0 .003.014-.002.045a1.611 1.611 0 0 0-.002.268c.031.186.115.282.27.308a.795.795 0 0 0 .217-.01 1.71 1.71 0 0 0 .305-.103.754.754 0 0 1 .06.127 1.287 1.287 0 0 1-.338.118.625.625 0 0 1-.153.015c-.068 0-.1 0-.124-.004zm14.896-.042a.739.739 0 0 0 .563-1.058l-.021-.045-.047-.03a.77.77 0 0 1-.129-.105.85.85 0 0 1-.108-.125c-.022-.032-.025-.034-.059-.05a.842.842 0 0 0-.17-.053.61.61 0 0 0-.143-.01.564.564 0 0 0-.144.01.742.742 0 0 0 .064 1.469c.04.005.153.003.194-.004zm-.11-.172a.65.65 0 0 1-.311-.095c-.217-.141-.256-.421-.11-.79a.922.922 0 0 1 .054-.124c.003 0 .126.058.128.06a.674.674 0 0 0-.115.557.353.353 0 0 0 .057.12.42.42 0 0 0 .27.124c.054.006.156.006.228 0 .03-.004.056-.005.057-.004a.62.62 0 0 1 .012.07l.009.069-.011.002c-.051.01-.2.016-.268.01zm-8.152-.008l.182-.04.016-.445c.013-.436.017-.497.03-.548a.407.407 0 0 1 .056-.116c.052-.07.145-.117.272-.137a3.03 3.03 0 0 1 .416.002c.196.035.295.124.324.29.005.028.01.155.021.495l.016.46.376.08-.003-.069a6.26 6.26 0 0 1 0-.432c.016-.25.057-.465.12-.636a1.47 1.47 0 0 1 .125-.247c.153-.229.37-.353.617-.353.207 0 .408.09.506.227a.26.26 0 0 1 .042.232.21.21 0 0 1-.058.11c-.083.084-.236.076-.454-.025l-.065-.03c-.003 0-.007.011-.012.036a.997.997 0 0 0-.006.4.527.527 0 0 0 .275.368.74.74 0 0 0 .34.084 1.02 1.02 0 0 0 .3-.033.702.702 0 0 0 .356-.21c.097-.093.18-.195.387-.468.211-.28.285-.37.382-.465a.811.811 0 0 1 .145-.117c.146-.092.277-.08.393.034.087.086.094.113.102.353.004.12.01.219.015.224.005.005.1-.073.149-.12a.655.655 0 0 0 .17-.263.488.488 0 0 0-.137-.523c-.18-.169-.463-.221-.762-.142-.257.07-.51.224-.763.465-.072.07-.097.087-.144.098a.322.322 0 0 1-.152-.006.371.371 0 0 1-.022-.072c-.04-.16-.098-.29-.172-.385-.17-.218-.43-.28-.833-.196a5.162 5.162 0 0 0-.562.162 10.1 10.1 0 0 1-.443.14c-.32.091-.554.118-.741.085-.048-.008-.044-.008-.089 0-.189.034-.428.006-.757-.089a8.872 8.872 0 0 1-.375-.119 8.576 8.576 0 0 0-.39-.122 2.52 2.52 0 0 0-.418-.088 1.244 1.244 0 0 0-.23 0c-.277.036-.453.198-.554.51a1.385 1.385 0 0 0-.043.165c0 .01-.028.017-.083.02-.084.004-.125-.012-.188-.073a2.872 2.872 0 0 0-.159-.143c-.258-.216-.509-.34-.77-.38a1.152 1.152 0 0 0-.266 0 .669.669 0 0 0-.375.182c-.228.227-.196.558.078.805a.877.877 0 0 0 .115.089c.007-.007.013-.108.019-.28.006-.176.014-.206.08-.275a.374.374 0 0 1 .116-.091c.135-.065.275-.014.455.166a3.8 3.8 0 0 1 .353.431c.233.31.328.424.436.521a.686.686 0 0 0 .344.182c.09.022.139.027.246.027a.73.73 0 0 0 .49-.167.566.566 0 0 0 .163-.314c.01-.05.013-.182.006-.245a1.313 1.313 0 0 0-.027-.161.171.171 0 0 0-.036.015.866.866 0 0 1-.31.096c-.124.007-.201-.046-.233-.16a.306.306 0 0 1-.007-.136c.034-.145.205-.275.418-.318a.844.844 0 0 1 .267 0c.325.066.558.336.666.775.055.223.08.51.068.804a4.76 4.76 0 0 1-.007.137c-.002.01 0 .011.005.01l.188-.041zm.638-.031a.08.08 0 0 0 .019-.019c.007-.01.008-.04.009-.465l-.001-.477a.058.058 0 0 0-.017-.038l-.015-.016h-.12c-.135-.002-.14-.001-.156.025-.008.013-.008.025-.008.484 0 .509-.001.488.022.503.018.01.035.012.146.012.097-.001.111-.002.122-.008zm.505 0c.025-.018.024.01.024-.507v-.475l-.01-.011c-.017-.023-.023-.024-.149-.024-.114 0-.116 0-.13.01a.065.065 0 0 0-.02.02 6.873 6.873 0 0 0-.005.483c0 .511 0 .49.022.502.02.01.037.011.146.01.1 0 .11 0 .122-.008zm-8.627-.584a.746.746 0 0 0 .569-.93.754.754 0 0 0-.403-.48.734.734 0 0 0-.52-.045c-.026.008-.03.01-.06.045a.877.877 0 0 1-.336.235.494.494 0 0 0-.068.11.874.874 0 0 0-.063.183.532.532 0 0 0-.01.144c0 .088.001.105.01.144a.77.77 0 0 0 .274.448.776.776 0 0 0 .317.145c.065.013.062.013.159.011a.588.588 0 0 0 .131-.01zm-.299-.22c-.213-.027-.357-.183-.409-.442a1.161 1.161 0 0 1-.022-.21l-.003-.078h.027c.015 0 .049 0 .074.003l.047.003v.068c.003.214.062.38.16.455.114.086.28.077.506-.025.04-.018.142-.073.17-.09.009-.007.01-.005.046.053a.61.61 0 0 1 .036.063c0 .01-.18.104-.26.135a.797.797 0 0 1-.372.065zm17.162-.123a.75.75 0 0 0 .611-.626 1.065 1.065 0 0 0 0-.212.752.752 0 0 0-.118-.304c-.027-.04-.029-.042-.065-.061a.894.894 0 0 1-.222-.172c-.033-.035-.039-.04-.068-.05a.853.853 0 0 0-.154-.042.749.749 0 0 0-.863.657.745.745 0 0 0 .879.81zm-.197-.175a.456.456 0 0 1-.277-.119.393.393 0 0 1-.092-.125c-.074-.146-.084-.34-.034-.606a.92.92 0 0 1 .012-.06c0-.002.032.004.07.013l.07.015v.007a1.207 1.207 0 0 0-.03.428c.024.158.098.253.227.29a.701.701 0 0 0 .219.007c.055-.008.129-.026.193-.047a.144.144 0 0 1 .05-.012c.004.005.047.12.047.127 0 .006-.1.04-.161.054a.962.962 0 0 1-.294.028zm-15.955.026a.004.004 0 0 0-.004-.004.004.004 0 0 0-.004.004c0 .002.002.004.004.004a.004.004 0 0 0 .004-.004zm2.302-.499a.71.71 0 0 0 .249-.086l.042-.025.001-.02c.002-.024-.009-.045-.034-.068-.027-.025-.041-.033-.185-.098a4.698 4.698 0 0 1-1.728-1.263 5.084 5.084 0 0 1-.465-.636c-.027-.043-.046-.072-.038-.056l.05.104c.279.577.605 1.098.917 1.463.357.416.694.647 1.005.687a.892.892 0 0 0 .186-.002zm10.653 0c.202-.026.425-.141.653-.337a3.71 3.71 0 0 0 .263-.258c.283-.312.563-.726.838-1.24.052-.097.208-.41.208-.417a.66.66 0 0 0-.04.062 4.734 4.734 0 0 1-1.731 1.666c-.156.086-.266.14-.49.24a2.316 2.316 0 0 0-.13.064c-.039.026-.06.058-.06.088 0 .018.001.02.031.038a.696.696 0 0 0 .458.095zm-8.455-.256c.086-.13.158-.2.296-.288a.32.32 0 0 0 .047-.035 1.46 1.46 0 0 0-.15-.121c-.289-.208-.596-.264-.67-.122a.185.185 0 0 0-.005.108c.01.041.049.115.088.167.04.055.158.174.228.232.072.06.133.106.136.102l.03-.043zm6.132.018c.265-.202.417-.392.417-.522 0-.058-.02-.092-.068-.117-.07-.035-.176-.03-.305.013a1.364 1.364 0 0 0-.456.286c0 .002.026.02.059.042a.83.83 0 0 1 .283.279.244.244 0 0 0 .034.044.239.239 0 0 0 .036-.025zm-12.343-.027a.73.73 0 0 0 .464-.227.749.749 0 0 0-.573-1.264l-.07.002-.037.04a.898.898 0 0 1-.425.254l-.042.01-.019.029a.8.8 0 0 0-.106.261.526.526 0 0 0-.011.143c0 .068.002.098.008.131a.754.754 0 0 0 .812.621zm-.207-.22a.386.386 0 0 1-.151-.042c-.156-.077-.26-.248-.302-.5a1.005 1.005 0 0 1-.016-.131c.002-.002.14-.014.141-.013l.008.056c.034.264.127.427.27.474a.421.421 0 0 0 .167.006c.112-.021.244-.085.387-.19l.053-.037c.003 0 .088.107.088.112a1.44 1.44 0 0 1-.37.22.626.626 0 0 1-.275.045zm4.982-.023a.284.284 0 0 1 .1-.1.44.44 0 0 1 .146-.032l.06-.008-.058-.055c-.185-.178-.355-.299-.484-.343a.198.198 0 0 0-.08-.014c-.035 0-.042.001-.056.01-.023.014-.033.036-.033.073 0 .093.088.232.245.386.06.059.126.118.132.118a.21.21 0 0 0 .028-.036zm9.01-.003c.17-.148.295-.31.324-.422.013-.052.009-.082-.015-.106-.069-.069-.277.023-.512.226a4 4 0 0 0-.11.1l-.069.064.08.012c.11.015.144.03.184.075a.565.565 0 0 1 .044.057.173.173 0 0 0 .026.033.427.427 0 0 0 .048-.04zm-3.134-.26c.005-.004.002-.01-.015-.028a1.61 1.61 0 0 1-.36-.68 1.06 1.06 0 0 1-.03-.3c0-.143.005-.186.03-.305.116-.533.54-1.088 1.17-1.527.438-.306.947-.523 1.369-.585.1-.014.148-.018.246-.018.132 0 .233.013.326.043l.037.012.172-.084c.905-.438 1.668-.914 2.269-1.414.673-.56 1.136-1.145 1.375-1.74.075-.187.13-.395.156-.584a1.722 1.722 0 0 0-.062-.751 1.104 1.104 0 0 0-.248-.424c-.196-.202-.426-.25-.607-.13a.593.593 0 0 0-.128.132.943.943 0 0 0-.13.34c-.014.07-.027.165-.025.185l.001.013.056-.041a.91.91 0 0 1 .343-.17.534.534 0 0 1 .154 0c.125.031.216.128.267.286.083.255.05.647-.085 1.007-.113.298-.27.548-.478.755-.138.138-.264.23-.43.314-.18.09-.338.137-.554.164a2.281 2.281 0 0 1-.494-.014l-.016-.003.003.019a.59.59 0 0 1-.007.156.448.448 0 0 1-.117.186c-.106.11-.239.195-.488.315-.204.098-.427.185-1.07.42-.506.183-.659.24-.907.341-.272.11-.472.2-.707.316-.534.264-.876.497-1.172.796-.306.31-.532.657-.675 1.039a2.415 2.415 0 0 0-.134.561 2.038 2.038 0 0 0 .543 1.617l.02.023.198-.119c.108-.065.2-.12.203-.124zm-2.387.209c.198-.22.35-.474.44-.738.15-.439.14-.921-.03-1.399-.187-.528-.563-1.024-1.057-1.392a5.23 5.23 0 0 0-.778-.463c-.436-.217-.776-.356-1.667-.68-.663-.24-.887-.33-1.119-.446a1.506 1.506 0 0 1-.398-.265c-.112-.112-.157-.223-.137-.341.002-.015.004-.028.003-.029a.797.797 0 0 0-.063.007 1.657 1.657 0 0 1-1.43-.47 2.17 2.17 0 0 1-.594-1.226 1.996 1.996 0 0 1-.002-.386c.046-.297.188-.456.396-.444.123.007.266.071.42.19l.044.033-.002-.018a1.235 1.235 0 0 0-.114-.45.59.59 0 0 0-.162-.2.398.398 0 0 0-.401-.032.816.816 0 0 0-.345.325c-.176.286-.236.678-.168 1.086.082.485.337.99.747 1.483.183.219.45.486.702.701.503.431 1.154.86 1.915 1.26.1.052.423.214.525.263.068.032.07.033.087.028.056-.017.117-.031.157-.037.35-.052.814.053 1.296.29.495.245.948.601 1.253.985.26.328.403.641.449.978.011.087.012.243.002.326a1.527 1.527 0 0 1-.373.81.222.222 0 0 0-.029.039c0 .004.395.242.401.243a.183.183 0 0 0 .032-.031zm10.582-.035a.749.749 0 0 0 .547-.411.735.735 0 0 0-.118-.82l-.038-.043-.033-.007a1.174 1.174 0 0 1-.155-.051.983.983 0 0 1-.2-.121l-.019-.017-.056-.004a.753.753 0 0 0-.802.662.746.746 0 0 0 .874.812zm-.19-.175l-.043-.006a.428.428 0 0 1-.317-.228c-.076-.144-.096-.333-.062-.593.009-.066-.001-.061.088-.046l.06.01v.014l-.008.074a1.147 1.147 0 0 0-.008.163c0 .107.003.14.02.206.054.22.21.302.465.248.048-.01.145-.042.192-.062.019-.008.036-.013.038-.011.003.004.053.114.055.123.003.014-.173.075-.268.094a.76.76 0 0 1-.212.015zm-3.975-.084l.232-.152-.016-.305-.001-.015-.266.136-.269.14a3.748 3.748 0 0 0 0 .204l.003.201.043-.028.274-.181zm-10.56.15l.002-.202.003-.145-.269-.138-.27-.138-.006.143a3.184 3.184 0 0 0-.006.161v.019l.27.177c.148.098.27.178.272.178a.27.27 0 0 0 .004-.056zm1.356-.218a.361.361 0 0 1 .09-.135.307.307 0 0 1 .085-.056c.031-.015.076-.034.1-.043l.047-.017c.003-.002-.01-.018-.057-.078-.273-.34-.534-.545-.755-.591a.498.498 0 0 0-.139-.002.226.226 0 0 0-.171.172.49.49 0 0 0 0 .164c.035.164.15.335.322.48.108.09.253.18.393.242l.04.018.014-.056c.008-.03.022-.074.031-.098zm7.675.106c.176-.087.303-.175.416-.288a.842.842 0 0 0 .235-.388.516.516 0 0 0 .005-.179.227.227 0 0 0-.166-.171.428.428 0 0 0-.142 0c-.128.024-.28.11-.439.25-.054.048-.174.17-.228.232-.043.05-.15.182-.15.186 0 0 .02.009.042.016a.472.472 0 0 1 .21.12.27.27 0 0 1 .056.082.72.72 0 0 1 .054.162c.003.015.006.027.008.027l.1-.049zm-5.914-.003l.363-.03-.006-.022a1.134 1.134 0 0 0-.172-.318.668.668 0 0 0-.251-.208.151.151 0 0 0-.076-.013c-.043 0-.05.001-.072.012-.064.03-.116.12-.142.245a1.235 1.235 0 0 0-.025.254l-.002.115.01-.002.374-.033zm4.392-.06c-.01-.3-.061-.46-.165-.516a.115.115 0 0 0-.063-.016.225.225 0 0 0-.125.03c-.124.065-.262.226-.345.403a.66.66 0 0 0-.047.127l.371.034.373.033a.51.51 0 0 0 0-.094zm-8.243-.303l.028-.232-.01-.008a8.367 8.367 0 0 1-1.326-1.353c-.23-.289-.433-.566-.828-1.13a22.148 22.148 0 0 0-.16-.227c-.002-.002-.002 0 0 .006l.047.117c.454 1.143 1.144 2.136 2.007 2.886.094.082.21.177.212.175l.03-.234zm11.84.155a6.98 6.98 0 0 0 .873-.872 7.727 7.727 0 0 0 1.295-2.234l-.101.142c-.501.716-.76 1.064-1.037 1.398-.362.436-.745.82-1.119 1.121a.278.278 0 0 0-.066.063l.052.446c.002.017.003.018.01.013l.093-.077zm-10.79-.45c0-.221 0-.237-.007-.257-.043-.114-.246-.245-.545-.352a.643.643 0 0 0-.05-.017 3.44 3.44 0 0 0-.004.237v.238l.088.082c.11.104.162.148.216.189.105.079.188.114.27.115h.033v-.235zm9.73.22a.605.605 0 0 0 .164-.087c.06-.043.11-.086.227-.195l.093-.087v-.477a2.23 2.23 0 0 0-.157.057c-.245.099-.405.215-.443.32a1.688 1.688 0 0 0-.006.25v.235l.044-.002a.334.334 0 0 0 .08-.013zm-2.367-.188c.114-.204.19-.404.222-.588a.68.68 0 0 0 .01-.142c0-.09-.002-.11-.02-.165-.051-.164-.195-.195-.355-.077-.134.1-.266.278-.391.528a1.81 1.81 0 0 0-.083.18l.035-.007a.468.468 0 0 1 .108-.007c.07 0 .077.001.108.012a.39.39 0 0 1 .17.12c.035.042.091.125.123.185l.025.046.008-.014.04-.071zm-5.042.037c.032-.06.082-.135.118-.178a.363.363 0 0 1 .215-.136.715.715 0 0 1 .209.011 1.292 1.292 0 0 0-.08-.176c-.168-.336-.361-.555-.526-.596-.108-.027-.198.039-.23.168-.049.193.027.511.195.823.036.069.07.127.074.127l.025-.044zm.81.006c.057.007.163-.003.28-.027.055-.01.157-.036.16-.04.006-.006.015-.123.017-.227.003-.132 0-.183-.016-.275-.032-.194-.11-.337-.208-.384a.115.115 0 0 0-.065-.013c-.034 0-.041.002-.063.013-.089.044-.15.168-.18.365a2.623 2.623 0 0 0-.006.355 5.082 5.082 0 0 0 .026.235s.006 0 .012-.003a.139.139 0 0 1 .044 0zm3.385-.001h.02l.01-.081c.03-.265.027-.45-.013-.613-.032-.13-.09-.224-.159-.258a.118.118 0 0 0-.064-.012c-.035 0-.04 0-.067.014-.104.051-.182.209-.213.433-.01.076-.01.298 0 .388l.008.064c.002.002.072.02.12.031a1.128 1.128 0 0 0 .358.034zm-4.603-.033c.095-.041.1-.175.011-.37a.677.677 0 0 0-.035-.07c-.007-.01-.168-.185-.357-.389l-.344-.37-.039-.018a.343.343 0 0 0-.168-.04c-.057 0-.058 0-.086.013-.108.053-.13.205-.059.4l.014.037.343.35c.37.378.354.363.448.41.088.043.149.06.211.058a.155.155 0 0 0 .06-.011zm5.944-.002a.774.774 0 0 0 .172-.078l.046-.029.344-.35.343-.35.018-.053a.558.558 0 0 0 .034-.17c.005-.107-.03-.179-.1-.213-.028-.013-.03-.013-.084-.013a.257.257 0 0 0-.093.012.606.606 0 0 0-.08.032l-.04.02-.347.373c-.334.36-.347.374-.365.411a1.011 1.011 0 0 0-.068.172.357.357 0 0 0-.008.157.125.125 0 0 0 .087.088.32.32 0 0 0 .141-.01zm-13.05-.136a.744.744 0 0 0 .622-.592.58.58 0 0 0 .01-.144.579.579 0 0 0-.009-.143.748.748 0 0 0-.22-.4.732.732 0 0 0-.469-.207c-.085-.005-.102-.003-.133.021a.902.902 0 0 1-.36.159c-.063.013-.063.012-.12.08a.753.753 0 0 0-.036.918c.04.057.127.143.185.182a.775.775 0 0 0 .316.125c.05.008.162.008.214 0zm-.278-.22a.422.422 0 0 1-.196-.09c-.126-.104-.209-.298-.234-.554l-.003-.028.063-.005c.09-.007.08-.009.084.022.032.302.138.478.308.51.091.018.214-.011.347-.081a2.02 2.02 0 0 0 .201-.13l.025-.02.024.03a.52.52 0 0 1 .064.086c-.164.13-.342.222-.486.253a.639.639 0 0 1-.197.006zm4.666-.08v-.295l-.113-.084a8.345 8.345 0 0 1-.69-.575c-.112-.102-.43-.42-.546-.545a21.09 21.09 0 0 1-1.196-1.426 5.105 5.105 0 0 0-.118-.147c-.002.002.051.126.086.203.288.636.793 1.411 1.364 2.093.341.408.661.73.91.915a.793.793 0 0 0 .273.148l.029.006.001-.294zm11.292.275c.26-.098.744-.557 1.263-1.199.303-.374.612-.813.85-1.209a6.932 6.932 0 0 0 .478-.943l-.111.142c-.744.952-1.25 1.524-1.788 2.017a8.385 8.385 0 0 1-.728.595l-.037.027v.587l.023-.004a.291.291 0 0 0 .05-.014zm4.58-.4a.746.746 0 0 0 .573-.401.737.737 0 0 0-.146-.868c-.018-.018-.018-.018-.063-.022a.906.906 0 0 1-.45-.172l-.025-.02-.05.006a.749.749 0 0 0-.568.34.74.74 0 0 0-.08.634.754.754 0 0 0 .81.504zm-.165-.18a.499.499 0 0 1-.313-.15.532.532 0 0 1-.117-.371c0-.087.007-.147.026-.243.01-.048.045-.18.049-.185 0 0 .134.04.136.043l-.015.06a1.086 1.086 0 0 0-.05.347.447.447 0 0 0 .013.119.3.3 0 0 0 .081.145c.056.055.12.082.224.092a.973.973 0 0 0 .305-.032.215.215 0 0 1 .041-.01c.003.004.039.136.037.138a1.247 1.247 0 0 1-.148.034.963.963 0 0 1-.27.012zm-14.733.129a.86.86 0 0 1 .381-.165.318.318 0 0 0 .04-.01s-.02-.029-.048-.063c-.198-.254-.379-.408-.541-.462a.22.22 0 0 0-.09-.012c-.05 0-.053 0-.08.013-.113.053-.133.21-.05.378a.78.78 0 0 0 .232.267c.03.023.115.077.12.077a.4.4 0 0 0 .036-.024zm9.346.002a.97.97 0 0 0 .249-.22.512.512 0 0 0 .114-.282c.009-.2-.145-.272-.35-.165a1.049 1.049 0 0 0-.268.209c-.08.08-.133.14-.203.231l-.038.051.045.01a.808.808 0 0 1 .35.145l.062.042a.316.316 0 0 0 .039-.021zm-2.611-.282c.103-.103.179-.189.248-.28.128-.172.21-.337.228-.463.015-.102-.015-.173-.084-.198a.324.324 0 0 0-.157.002c-.186.05-.427.208-.724.477l-.06.055.053.022c.14.056.203.102.24.178.02.04.032.084.052.18.008.041.022.099.029.128l.012.055.035-.031a4.42 4.42 0 0 0 .128-.124zm-4.017.078l.03-.14a.438.438 0 0 1 .073-.19.523.523 0 0 1 .227-.14c.032-.012.037-.015.032-.02a4.487 4.487 0 0 0-.196-.175c-.338-.282-.62-.413-.751-.348-.05.024-.07.062-.074.129a.402.402 0 0 0 .024.152c.05.155.165.338.334.529.075.085.27.276.281.276a.42.42 0 0 0 .02-.073zm-1.015-.041c.045-.212.072-.25.245-.345l.074-.04.025-.013-.059-.049c-.325-.268-.584-.428-.757-.47a.23.23 0 0 0-.134.002c-.154.072.024.436.398.813.063.063.186.178.19.178a.964.964 0 0 0 .019-.076zm5.983-.014c.217-.202.397-.426.483-.6.047-.095.064-.157.06-.213a.1.1 0 0 0-.035-.076c-.02-.017-.04-.022-.084-.022-.162 0-.468.18-.853.501l-.032.026.06.033a.644.644 0 0 1 .192.127c.042.046.065.104.092.237l.015.072c.003.008.01 0 .103-.085zm-8.325-.24v-.237l-.043-.03c-.074-.05-.23-.162-.332-.237a9.386 9.386 0 0 1-1.803-1.705 9.116 9.116 0 0 1-.871-1.32 12.512 12.512 0 0 1-.232-.45.971.971 0 0 0 .013.087c.154.899.448 1.517 1.05 2.211.262.303.497.539 1.279 1.286l.538.516.119.115h.282v-.236zm10.865.203l.15-.145.446-.426c.725-.691 1.003-.969 1.256-1.253.633-.713.941-1.345 1.1-2.26.008-.049.015-.09.014-.092a3.6 3.6 0 0 0-.08.153 9.034 9.034 0 0 1-1.246 1.88c-.227.26-.502.54-.767.777-.34.304-.676.568-1.151.902l-.036.025-.001.236-.001.236h.28zm-9.733-.279c.08-.165.125-.204.32-.273a.102.102 0 0 0 .027-.013 2.33 2.33 0 0 0-.152-.124c-.212-.158-.42-.26-.572-.283a.432.432 0 0 0-.147.007.133.133 0 0 0-.075.063.095.095 0 0 0-.012.059c0 .155.2.378.522.582l.06.036a.32.32 0 0 0 .03-.053zm8.368.021c.297-.185.495-.392.527-.55.014-.071-.016-.131-.08-.156a.385.385 0 0 0-.164-.006c-.162.03-.359.13-.573.291a1.39 1.39 0 0 0-.137.114c0 .002.027.013.06.026.172.065.205.097.292.275.012.025.02.038.024.037a.845.845 0 0 0 .05-.03zm-9.36-.37c.13-.008.155-.02.172-.074a.655.655 0 0 0 .01-.132l.001-.111-.1-.074c-1.133-.824-1.888-1.533-2.49-2.336a9.562 9.562 0 0 1-1.01-1.714 3.65 3.65 0 0 0-.05-.105c-.002-.001-.002.004 0 .01l.012.085c.056.37.176.771.338 1.129.246.545.607 1.065 1.136 1.64.105.114.48.49.61.611.333.31.675.61 1.128.99l.108.09.035-.002.1-.007zm10.562-.123c.872-.733 1.418-1.247 1.855-1.743.602-.686.984-1.343 1.188-2.046a4.625 4.625 0 0 0 .132-.633l-.032.068c-.047.102-.2.412-.257.52a8.697 8.697 0 0 1-1.368 1.942c-.149.16-.432.437-.624.61-.355.32-.807.68-1.283 1.025l-.082.059-.003.046a.97.97 0 0 0 .01.196c.015.062.044.073.224.083l.075.003c.008 0 .052-.035.165-.13zm-16.058.087a.742.742 0 0 0 .61-.503.755.755 0 0 0-.65-.984l-.05-.005-.058.023a.91.91 0 0 1-.276.062c-.019 0-.027.003-.058.022a.748.748 0 0 0 .277 1.382l.043.006a.995.995 0 0 0 .162-.003zm-.247-.219a.432.432 0 0 1-.248-.124.722.722 0 0 1-.176-.362 1.431 1.431 0 0 1-.026-.17c0-.016.001-.018.01-.018l.07-.006a.555.555 0 0 1 .061-.004 1.27 1.27 0 0 0 .035.205c.03.113.075.2.134.258.143.139.38.093.68-.13.035-.026.038-.027.043-.02l.044.057.039.049-.012.01a1.801 1.801 0 0 1-.06.044 1.16 1.16 0 0 1-.423.203.665.665 0 0 1-.171.009zm8.071.09c-.039-.134-.05-.225-.036-.286a.454.454 0 0 1 .098-.17l.015-.018-.09-.045c-.257-.129-.44-.19-.561-.191-.091 0-.134.03-.134.097 0 .087.071.204.204.337a1.333 1.333 0 0 0 .518.33.441.441 0 0 0-.014-.054zm5.65.036a1.49 1.49 0 0 0 .348-.202c.165-.132.293-.295.318-.403a.177.177 0 0 0 .001-.08.097.097 0 0 0-.045-.048c-.1-.043-.305.012-.622.167l-.113.055.031.039a.463.463 0 0 1 .075.124c.01.031.017.083.014.11a1.207 1.207 0 0 1-.047.214c-.013.042-.013.044-.003.04a.904.904 0 0 1 .044-.016zm-6.674-.098a.54.54 0 0 1 .222-.296l.06-.045-.037-.033a2.987 2.987 0 0 0-.315-.248.989.989 0 0 0-.267-.132.263.263 0 0 0-.146 0c-.094.043-.101.172-.02.334a1.13 1.13 0 0 0 .482.472l.021-.052zm7.79-.013c.072-.048.124-.09.184-.15a.888.888 0 0 0 .225-.336c.057-.17.003-.276-.135-.265-.146.01-.358.136-.623.368l-.062.055.053.039a.701.701 0 0 1 .143.13.84.84 0 0 1 .088.175l.019.05.027-.015a1.24 1.24 0 0 0 .08-.05zm6.828-.219a.747.747 0 0 0 .596-.42.742.742 0 0 0-.23-.915l-.04-.03h-.063a.872.872 0 0 1-.389-.09l-.053-.024-.051.01a.746.746 0 0 0-.563.494.74.74 0 0 0 .384.902.74.74 0 0 0 .409.073zm-.048-.165c-.264-.027-.443-.132-.514-.3a.39.39 0 0 1-.033-.19c0-.07.002-.087.011-.133a1.43 1.43 0 0 1 .179-.419l.011-.018.052.032.061.038.01.006-.024.04a1.155 1.155 0 0 0-.147.348.398.398 0 0 0-.01.104c0 .073.004.094.03.147a.21.21 0 0 0 .05.07c.085.085.218.128.42.135l.081.003.001.07.001.072h-.073a1.51 1.51 0 0 1-.107-.005zM7.365 15.54c.079-.011.121-.033.144-.074.01-.02.012-.028.014-.066a.687.687 0 0 0-.028-.197l-.02-.092-.098-.052c-1.27-.676-2.254-1.428-2.867-2.193-.463-.577-.716-1.158-.761-1.743a3.208 3.208 0 0 1 0-.34 2.52 2.52 0 0 1 .178-.754l.009-.023-.012.01c-.042.04-.121.141-.169.217-.255.407-.261.945-.019 1.587.195.517.561 1.106 1.055 1.7.375.45.835.91 1.283 1.284.366.305.718.551 1.015.71.049.026.065.033.083.034.038.003.147-.002.192-.008zm9.691-.03c.518-.279 1.173-.801 1.767-1.412.917-.94 1.535-1.917 1.704-2.695.033-.148.047-.26.05-.398a1.363 1.363 0 0 0-.139-.67 1.271 1.271 0 0 0-.208-.301l-.028-.03.009.022c.094.237.15.465.176.72.009.086.01.306.002.392-.06.68-.378 1.32-.982 1.987a9.07 9.07 0 0 1-.376.378c-.585.54-1.358 1.07-2.259 1.55-.056.03-.104.056-.106.06a2.033 2.033 0 0 0-.047.207.319.319 0 0 0 .004.134.14.14 0 0 0 .066.064.65.65 0 0 0 .249.03l.05-.002zm-16.021-.913a.78.78 0 0 0 .162-.035.748.748 0 0 0 .357-1.155.744.744 0 0 0-1.3.684c.114.33.44.54.78.506zm-.194-.22c-.216-.017-.363-.158-.438-.418a1.137 1.137 0 0 1-.043-.255.9.9 0 0 1 .072-.009l.07-.006.004.035c.004.043.017.122.028.164.046.18.13.295.242.331a.25.25 0 0 0 .097.01.351.351 0 0 0 .104-.01c.107-.027.227-.089.354-.182a.482.482 0 0 1 .054-.036c.003 0 .024.024.048.055l.043.055-.012.008c-.188.143-.354.226-.497.25a.687.687 0 0 1-.125.008zm22.374-.167a.746.746 0 0 0 .61-.497.743.743 0 0 0-.276-.847.754.754 0 0 0-.653-.107.743.743 0 0 0-.49.472.577.577 0 0 0-.035.236c0 .085.001.103.01.142.033.153.1.277.207.384a.717.717 0 0 0 .241.164.86.86 0 0 0 .18.051c.05.007.155.008.206.002zm-.038-.141c-.33-.058-.527-.196-.58-.408a.556.556 0 0 1 0-.213.96.96 0 0 1 .145-.32c.045-.068.133-.181.14-.181.005 0 .104.085.105.09a.344.344 0 0 1-.042.058c-.135.168-.216.34-.216.463 0 .186.168.316.475.368.026.004.049.01.05.01a.42.42 0 0 1-.005.062c-.009.068-.01.082-.014.08a4.37 4.37 0 0 0-.058-.01zM.762 12.988a.975.975 0 0 1 .302-.015l.049.006.04-.016a.745.745 0 0 0 .469-.598.756.756 0 0 0-.509-.812c-.027-.009-.032-.009-.07-.005a.857.857 0 0 1-.274-.007c-.05-.009-.06-.009-.12.011a.742.742 0 0 0-.481.499.59.59 0 0 0-.027.212c0 .11.005.144.036.236a.758.758 0 0 0 .507.485c.04.012.044.012.078.004zm-.029-.21a.648.648 0 0 1-.07-.015c-.223-.063-.35-.282-.361-.624l-.003-.082h.144l.003.076c.008.227.07.384.18.457.069.046.167.058.281.034.088-.019.217-.073.33-.14a.955.955 0 0 1 .057-.032c.003 0 .07.104.073.115.002.005-.007.012-.033.028a1.2 1.2 0 0 1-.479.183.486.486 0 0 1-.122 0zm22.236-.178a.894.894 0 0 1 .319.005l.047.01.033-.012a.741.741 0 0 0-.018-1.404l-.034-.012-.03.01a.831.831 0 0 1-.251.034.82.82 0 0 1-.184-.018c-.016-.004-.02-.003-.076.026a.735.735 0 0 0-.192 1.186.708.708 0 0 0 .261.172c.045.018.045.018.125.004zm.155-.13a.845.845 0 0 1-.191-.036.473.473 0 0 1-.257-.184.434.434 0 0 1-.073-.246.946.946 0 0 1 .086-.403.968.968 0 0 1 .074-.154.83.83 0 0 1 .065.032l.062.032-.029.06c-.12.25-.146.447-.077.577.059.112.195.173.401.18.04 0 .094 0 .121-.003l.05-.003c.003.003.015.14.013.141a1.27 1.27 0 0 1-.245.007zM7.927 11.01V9.928H5.704v2.163h2.223zm-1.464.008v-.39h.764v.78h-.764zm8.842.483c-.002-.274-.003-.88-.003-1.35v-.85h-.7v2.035h-.347v-1.128h-.692v1.128h-.288v-1.128h-.691l-.001.563-.001.563h-.331l-.001-.563-.001-.563h-.692v1.128h-1.136V9.07h1.802v-.568l-.901-.001L10.11 8.5H9.8l-.003.725-.002.725h-.848L8.946 8.8l-.001-1.15h-.683v4.347h7.048l-.003-.497zm-6.36-.516l.002-.351h.848v.7H9.37l-.426.002zm9.242-.355V9.262h-1.37v.615h.687v1.45h-1.065v.67h1.748zm-17.166.78a.738.738 0 0 0 .644-.708.752.752 0 0 0-.417-.704.171.171 0 0 0-.086-.024.925.925 0 0 1-.192-.04.23.23 0 0 0-.129-.01.744.744 0 0 0-.626.98c.019.055.067.15.101.199a.966.966 0 0 0 .175.175.93.93 0 0 0 .204.102c.042.013.115.03.152.033.038.004.134.002.174-.003zm-.25-.227c-.188-.022-.33-.156-.392-.373a1.17 1.17 0 0 1-.04-.298v-.05h.144v.042a.87.87 0 0 0 .066.348c.06.129.15.188.286.188.12 0 .272-.052.44-.151a.892.892 0 0 1 .057-.032c.003 0 .075.113.075.118a1.188 1.188 0 0 1-.517.208.462.462 0 0 1-.119 0zm22.36-.098a.746.746 0 0 0 .64-.602.619.619 0 0 0 .008-.133.53.53 0 0 0-.01-.142.751.751 0 0 0-.688-.6l-.052-.003-.064.021a.878.878 0 0 1-.206.045l-.054.005-.043.025a.747.747 0 0 0-.366.784.752.752 0 0 0 .835.6zm-.13-.175a.557.557 0 0 1-.35-.153.437.437 0 0 1-.126-.33c0-.145.043-.305.129-.487l.021-.046.065.033.064.032-.026.057a1.34 1.34 0 0 0-.096.283.714.714 0 0 0-.002.227c.036.13.136.207.306.235.057.01.16.013.233.006.035-.003.064-.004.065-.003.002.002.019.14.017.141l-.055.006c-.07.006-.188.005-.245-.002zm-6.706-1.57V7.671h-.674v3.338h.674zm-3.011.272V9.27h-.7v.683h.7zm.962 0V9.27h-.7v.683h.7zm-12.92.222a.745.745 0 0 0 .446-1.26.433.433 0 0 0-.116-.097.952.952 0 0 1-.323-.115c-.029-.017-.03-.018-.075-.02a.75.75 0 0 0-.637.326.75.75 0 0 0 .706 1.166zm-.236-.229a.435.435 0 0 1-.348-.253.893.893 0 0 1-.084-.382l-.002-.086H.8l.003.078c.009.266.093.435.24.485.087.029.202.018.333-.03a1.755 1.755 0 0 0 .274-.138c.004 0 .078.118.076.12a1.952 1.952 0 0 1-.157.09 1 1 0 0 1-.36.116.456.456 0 0 1-.118 0zm21.72-.082a.749.749 0 0 0 .579-.5.612.612 0 0 0 .034-.23.584.584 0 0 0-.01-.137.755.755 0 0 0-.67-.607c-.081-.008-.084-.008-.12.02a.918.918 0 0 1-.415.167l-.043.005-.033.035a.733.733 0 0 0-.205.51c0 .195.073.375.208.515a.762.762 0 0 0 .46.23c.03.003.18-.001.215-.008zm-.047-.155c-.34-.02-.545-.155-.594-.39a.704.704 0 0 1 .006-.244 1.353 1.353 0 0 1 .184-.426s.103.059.118.07c.006.004.003.01-.017.045-.053.09-.107.208-.13.292a.531.531 0 0 0-.018.236c.024.117.117.202.265.243.067.018.13.026.223.029l.09.002.001.07c.001.039.002.07.001.071a.824.824 0 0 1-.13.001zm-9.017-.621V8.46h-.7v.573h.7zm1.565-.006v-.293h-.7v.585h.7zm-13.46-.395a.742.742 0 0 0 .595-1.08.737.737 0 0 0-.184-.236.216.216 0 0 0-.079-.045 1 1 0 0 1-.168-.085.198.198 0 0 0-.087-.033.54.54 0 0 0-.15-.011.578.578 0 0 0-.235.035.746.746 0 0 0-.5.796.751.751 0 0 0 .808.66zm-.22-.238c-.203-.026-.341-.16-.395-.381a.933.933 0 0 1-.026-.257c0-.062.001-.113.003-.114.003-.003.115.005.135.009l.01.002-.003.064a.93.93 0 0 0 .038.315c.044.118.11.183.213.21a.566.566 0 0 0 .194.003 1.2 1.2 0 0 0 .313-.112l.066-.03a.44.44 0 0 1 .037.061c.026.05.031.063.027.066l-.078.04c-.206.1-.392.143-.535.124zm9.85.09v-.11h-.993v.22h.993zm10.733-.104a.749.749 0 0 0 .613-.583.743.743 0 0 0-.398-.814.76.76 0 0 0-.462-.07c-.038.007-.041.008-.093.042a.89.89 0 0 1-.213.105c-.056.019-.057.019-.088.05a.727.727 0 0 0-.224.44.744.744 0 0 0 .666.836c.05.005.151.002.199-.006zm-.174-.176c-.188-.018-.325-.107-.395-.257-.055-.12-.066-.278-.033-.475.009-.056.045-.203.05-.208a1.56 1.56 0 0 1 .137.037c0 .001-.007.034-.018.074-.036.142-.05.261-.04.357.005.07.017.112.041.162.038.077.105.13.196.153a.822.822 0 0 0 .38-.021.316.316 0 0 1 .052-.011c.003.003.04.122.04.13 0 .007-.02.013-.1.032a1.11 1.11 0 0 1-.31.027zm-11.62.05l-.008-.695a71.34 71.34 0 0 1-.006-.667c.001-.002.26-.003.575-.003h.572v1.001h.695v-1h.997v.945h.631c.347 0 .678-.001.736-.003l.105-.003.001-.475.001-.476h.578l.578-.002v-.294c0-.161 0-.601.003-.977l.003-.684h-.625v1.378h-.526V5.08h-1.485v.474c-.002.47-.002.474-.01.476l-.498-.002-.489-.003v-.817l.025-.003.098-.017a2.18 2.18 0 0 0 1.293-.778c.258-.322.43-.726.507-1.19.01-.055.024-.158.024-.168 0-.002-.12-.003-.266-.003h-.267l-.007.052c-.092.634-.416 1.118-.923 1.374a1.673 1.673 0 0 1-.425.15l-.058.013V3.91h-.696v.72l-.014-.003a2.105 2.105 0 0 1-.215-.059c-.542-.183-.92-.582-1.047-1.103a1.69 1.69 0 0 1-.046-.343l-.003-.074h-.603l.003.042c.039.51.213.963.51 1.326.34.414.833.693 1.391.786l.021.004.001.41.001.409-.18.003c-.1.002-.513.003-.917.003H9.72v1.637l-.244-.003-.244-.003v.336h1.188v-.03zm3.351-1.132v-.233h.509v.467h-.509zm.004-1.07v-.257h.488v.513h-.488zM2.644 6.891a.745.745 0 0 0 .592-.817.754.754 0 0 0-.385-.574.742.742 0 0 0-1.064.884.751.751 0 0 0 .602.513c.057.009.198.006.254-.006zm-.327-.231a.434.434 0 0 1-.325-.255.959.959 0 0 1-.069-.44l.003-.052h.05c.064.003.095.007.093.014-.004.02 0 .196.005.238.02.15.072.252.155.307.06.04.111.051.204.048a.98.98 0 0 0 .396-.12 1.25 1.25 0 0 1 .065-.03c.005.005.065.12.065.124a1.43 1.43 0 0 1-.397.157.887.887 0 0 1-.246.008zm19.162.012a.767.767 0 0 0 .338-.133.959.959 0 0 0 .175-.174.742.742 0 0 0 .056-.762.752.752 0 0 0-1.382.1.755.755 0 0 0-.013.419.76.76 0 0 0 .312.432c.085.057.2.101.3.116l.043.006c.028.004.13.002.17-.003zm-.152-.179a.535.535 0 0 1-.283-.107.407.407 0 0 1-.135-.197.545.545 0 0 1-.03-.206c0-.083.004-.131.025-.227.017-.084.061-.227.07-.227.005 0 .124.043.128.047a.145.145 0 0 1-.012.05c-.05.148-.076.303-.066.41.014.15.08.244.201.287a.45.45 0 0 0 .187.027.835.835 0 0 0 .212-.022.277.277 0 0 1 .052-.008.86.86 0 0 1 .03.139c-.008.005-.12.025-.175.031a1.43 1.43 0 0 1-.204.004zM3.61 5.636a.747.747 0 0 0 .266-1.358.74.74 0 0 0-.745-.047.749.749 0 0 0-.397.523.567.567 0 0 0-.01.142c0 .09 0 .102.011.15.022.1.06.19.112.269.025.037.027.04.063.059.093.05.158.102.24.187a.127.127 0 0 0 .06.042.978.978 0 0 0 .163.041c.053.007.185.003.237-.008zm-.325-.232c-.215-.038-.35-.208-.386-.487a1.878 1.878 0 0 1 0-.26.31.31 0 0 1 .065.002l.069.006c.006 0 .007.01.007.101-.001.164.02.268.072.357a.33.33 0 0 0 .115.111c.054.027.078.031.16.031.06 0 .08-.002.118-.01.09-.019.19-.056.3-.11.059-.03.059-.03.065-.02.011.018.062.113.062.117 0 .004-.126.065-.179.086a1.23 1.23 0 0 1-.265.077.837.837 0 0 1-.203 0zm17.23.024a.857.857 0 0 0 .146-.034c.017-.006.028-.015.051-.042a.89.89 0 0 1 .268-.205c.045-.023.048-.025.064-.05a.742.742 0 0 0-.547-1.145.752.752 0 0 0-.794.502.735.735 0 0 0 .192.771c.165.16.384.23.62.203zm-.205-.187a.44.44 0 0 1-.369-.312.569.569 0 0 1-.025-.2c0-.094.007-.154.029-.253.012-.056.046-.175.05-.18a.33.33 0 0 1 .07.02l.067.023-.01.032c-.045.143-.07.298-.063.395.013.19.093.291.259.33.027.006.05.008.125.008a.853.853 0 0 0 .24-.03l.04-.01.005.018.016.062c.017.063.017.06.002.065a1.098 1.098 0 0 1-.436.033zm-15.652-.75a.743.743 0 0 0 .643-.742.75.75 0 0 0-.333-.622.74.74 0 0 0-1.155.648.73.73 0 0 0 .092.333.116.116 0 0 0 .05.056.92.92 0 0 1 .217.205c.027.036.028.037.072.058a.74.74 0 0 0 .414.063zm-.227-.232a.436.436 0 0 1-.387-.281.954.954 0 0 1-.06-.402l.003-.073h.022l.072.005.05.005-.002.045c-.009.232.033.389.124.478.123.118.347.103.637-.042a.723.723 0 0 1 .062-.03c.003 0 .064.11.068.122.002.006-.11.061-.181.09a.945.945 0 0 1-.408.083zM19.43 4.3a.793.793 0 0 0 .188-.06c.043-.019.043-.02.068-.055a.902.902 0 0 1 .228-.224l.037-.023.021-.044a.74.74 0 0 0-.113-.817.758.758 0 0 0-.657-.246.742.742 0 0 0 .022 1.477c.05.006.15.002.206-.008zm-.179-.172a.768.768 0 0 1-.21-.058.441.441 0 0 1-.21-.222c-.056-.139-.05-.331.02-.545a.893.893 0 0 1 .062-.16c.005 0 .126.049.129.052l-.015.043c-.036.09-.067.2-.082.29a.867.867 0 0 0 .004.214.293.293 0 0 0 .215.22c.06.019.09.022.195.022.09 0 .139-.004.206-.017l.01-.002.014.07c.009.048.011.072.008.073a.914.914 0 0 1-.223.02h-.123zm-3.957-.373v-.337h-.649v.674h.649zm.975-.002v-.34h-.658v.68h.658zm-4.042-.407v-.322h-.683v.644h.683zm-6.286.16a.745.745 0 0 0 .564-1.08.741.741 0 0 0-1.365.09.748.748 0 0 0 .034.573.35.35 0 0 0 .057.087l.06.079a.664.664 0 0 0 .32.22.72.72 0 0 0 .33.032zM5.7 3.274c-.225-.024-.37-.18-.416-.445a1.675 1.675 0 0 1-.011-.281c.004-.033-.004-.031.087-.023l.058.005v.115c0 .1.002.122.01.165.022.12.067.21.13.26a.285.285 0 0 0 .167.06c.127.009.27-.029.453-.12a.224.224 0 0 1 .065-.025l.035.062c.023.041.03.06.027.062-.01.008-.102.052-.158.076a.93.93 0 0 1-.447.09zm12.41.081a.77.77 0 0 0 .334-.111c.034-.021.036-.024.05-.053a.899.899 0 0 1 .214-.284l.041-.035.012-.037a.764.764 0 0 0 .015-.383.763.763 0 0 0-.307-.449.751.751 0 0 0-1.161.466.58.58 0 0 0-.01.144c0 .088 0 .105.009.146a.753.753 0 0 0 .802.596zm-.172-.189a.448.448 0 0 1-.254-.13.515.515 0 0 1-.129-.272 1.51 1.51 0 0 1 .001-.307 2.24 2.24 0 0 1 .036-.19l.005-.017.069.016.07.018s-.003.022-.01.047c-.047.212-.047.39 0 .507a.287.287 0 0 0 .135.152c.06.03.09.036.188.036a.945.945 0 0 0 .117-.005 1.802 1.802 0 0 0 .214-.054c.004.007.046.134.044.136a1.201 1.201 0 0 1-.26.064 1.05 1.05 0 0 1-.225 0zM7.411 2.682a.741.741 0 0 0 .588-.602.77.77 0 0 0-.08-.487.755.755 0 0 0-.515-.381.56.56 0 0 0-.14-.01c-.087 0-.1 0-.148.011a.738.738 0 0 0-.469.315.78.78 0 0 0-.113.27.542.542 0 0 0-.01.146c0 .09.001.107.01.146.033.15.095.269.194.372a.746.746 0 0 0 .683.22zm-.294-.231c-.224-.03-.363-.174-.406-.418a1.067 1.067 0 0 1-.01-.228.817.817 0 0 1 .015-.138c.002-.002.138.016.14.018l-.005.056a1.296 1.296 0 0 0 0 .25c.04.264.202.362.497.3a1.54 1.54 0 0 0 .3-.103c.005 0 .06.128.056.131a1.736 1.736 0 0 1-.19.076 1.034 1.034 0 0 1-.397.056zm9.625.149a.757.757 0 0 0 .41-.22.25.25 0 0 0 .07-.101.892.892 0 0 1 .079-.15.298.298 0 0 0 .047-.132.904.904 0 0 0 .002-.252.754.754 0 0 0-1.453-.11.644.644 0 0 0-.036.235c0 .073 0 .09.011.136a.75.75 0 0 0 .633.597l.05.006c.03.004.14-.002.187-.01zm-.182-.175a.554.554 0 0 1-.232-.07.477.477 0 0 1-.142-.143c-.08-.136-.097-.32-.052-.554a2.32 2.32 0 0 1 .038-.16l.004-.013.068.02c.05.014.067.02.067.026l-.009.038c-.036.133-.055.28-.046.378.013.153.065.244.168.295.065.032.09.037.199.037.104 0 .13-.003.242-.031.035-.01.064-.016.064-.016l.022.068.02.067-.01.004a1.384 1.384 0 0 1-.162.04.996.996 0 0 1-.24.014zm-7.672-.29a.743.743 0 0 0 .616-.922.754.754 0 0 0-.527-.541.737.737 0 0 0-.61.099.75.75 0 0 0-.327.55.59.59 0 0 0 .025.249c.016.032.037.09.052.138a.5.5 0 0 0 .14.213.75.75 0 0 0 .443.217c.034.004.149.002.188-.003zm-.275-.242a.431.431 0 0 1-.335-.249.79.79 0 0 1-.062-.366c.003-.068.012-.161.017-.166.002-.002.133.016.138.02a1.474 1.474 0 0 0-.005.301c.03.179.102.274.236.31a.69.69 0 0 0 .222.002 1.34 1.34 0 0 0 .28-.087.32.32 0 0 1 .061-.022c.003.003.059.123.059.126 0 .006-.155.068-.224.09a.908.908 0 0 1-.387.041zm6.632.177a.759.759 0 0 0 .452-.287l.032-.043.01-.048a.945.945 0 0 1 .076-.22l.029-.058v-.076a.648.648 0 0 0-.027-.198.75.75 0 0 0-1.244-.332.728.728 0 0 0-.227.502.744.744 0 0 0 .636.765c.059.01.208.006.263-.006zm-.246-.176a.452.452 0 0 1-.261-.129c-.143-.146-.178-.388-.105-.727.01-.053.014-.063.02-.061l.068.017a.698.698 0 0 1 .063.017.359.359 0 0 1-.009.054c-.04.189-.044.35-.01.464a.297.297 0 0 0 .147.187.36.36 0 0 0 .191.037.835.835 0 0 0 .283-.05.14.14 0 0 1 .044-.008c.004.004.046.123.046.13 0 .007-.144.048-.228.063a1.054 1.054 0 0 1-.249.006zm-4.6-.13A.748.748 0 1 0 9.933.383a.747.747 0 0 0-.346.582l-.002.051.02.05c.032.08.062.213.062.276 0 .015.004.026.021.055.052.088.13.174.212.232a.735.735 0 0 0 .5.134zm-.21-.247a.452.452 0 0 1-.278-.126.49.49 0 0 1-.136-.28 1.207 1.207 0 0 1 .019-.402.998.998 0 0 1 .137.026.382.382 0 0 1-.007.057c-.038.235-.004.416.096.505.116.104.323.105.608.005l.065-.022c.002 0 .016.028.03.065.027.065.027.065.018.07a1.246 1.246 0 0 1-.084.03 1.095 1.095 0 0 1-.468.073zm3.464.23c.234-.047.43-.2.533-.415a.253.253 0 0 0 .027-.097.951.951 0 0 1 .034-.158c.008-.024.009-.033.007-.095a.797.797 0 0 0-.012-.11.75.75 0 0 0-.594-.585.581.581 0 0 0-.137-.01.61.61 0 0 0-.187.02.754.754 0 0 0-.441.309.73.73 0 0 0-.125.41.733.733 0 0 0 .404.662.766.766 0 0 0 .492.069zm-.255-.177a.435.435 0 0 1-.257-.145c-.119-.147-.158-.36-.124-.67a.279.279 0 0 1 .008-.05.756.756 0 0 1 .139.017.197.197 0 0 1-.002.049c-.022.195-.01.36.036.469a.336.336 0 0 0 .126.152c.088.05.204.054.35.015.047-.012.13-.042.179-.064l.024-.01.027.057.03.066c.003.006 0 .01-.028.022-.094.043-.215.08-.305.093a.832.832 0 0 1-.202 0zm-1.425.062a.745.745 0 0 0 .631-.497c.013-.036.013-.04.015-.123a.737.737 0 0 1 .011-.137.276.276 0 0 0-.003-.145.743.743 0 0 0-.398-.51.738.738 0 0 0-.684.017.75.75 0 0 0-.36.46c-.013.053-.013.057 0 .105.022.085.03.186.024.31l-.002.043.027.055a.74.74 0 0 0 .74.422zm-.174-.25c-.257-.035-.41-.167-.448-.386a.849.849 0 0 1 .02-.316.692.692 0 0 1 .064-.188.746.746 0 0 1 .128.055 1.243 1.243 0 0 0-.07.26.723.723 0 0 0 .008.201c.035.121.119.19.267.222a1.17 1.17 0 0 0 .448-.02c.004-.002.009.016.019.063l.013.072c0 .008-.028.014-.13.03a2.08 2.08 0 0 1-.32.008z"/></svg>