<svg role="img" viewBox="0 0 24 24" xmlns="http://www.w3.org/2000/svg"><path d="M12 0A12 12 0 0 0 0 12a12 12 0 0 0 12 12 12 12 0 0 0 12-12A12 12 0 0 0 12 0zm-.605 2.674c.114 0 .228.018.333.051.426.153.745.493 1.04.823l6.414 7.345c.332.38.605.817.765 1.298.084.26.067.538.052.807-.09-.042-.08-.153-.108-.233-.057-.28-.225-.522-.401-.74-.224-.272-.538-.44-.838-.615l-6.104-3.55c-.235-.144-.492-.254-.713-.424-.043-.38.072-.78-.028-1.148-.285-.155-.58-.319-.9-.384-.04.323-.032.651-.042.972a2.367 2.367 0 0 1-.466-.305c-.036-.776.036-1.552.043-2.328.03-.445.05-.93.33-1.303l-.037.026c.156-.206.408-.293.66-.293zm-.428 1.483c.003.338-.03.677-.03 1.013.342.125.661.314 1.013.411.003-.34.058-.678.033-1.019-.32-.168-.652-.358-1.014-.405zM8.784 6.569c.469.003.927.191 1.33.417l7.81 4.51c.43.251.89.475 1.242.833.333.322.58.766.559 1.242.003.495-.285.941-.642 1.262-.284.266-.63.45-.967.641l-8.017 4.63a2.842 2.842 0 0 1-1.314.404c-.405-.01-.817-.162-1.097-.465-.393-.415-.527-1.004-.527-1.562l.002-9.26c0-2.161.62-2.472 1.33-2.627l-.033.004c.108-.02.217-.03.325-.03zm-.153 1.953c-.238 0-.476.01-.711.03l.003.003V9.93c.472.002.946.059 1.416.003l.003-1.38a8.538 8.538 0 0 0-.71-.031zm-.71 2.161V12.1h1.417c.009-.47.006-.94-.001-1.416-.472 0-.94.002-1.416-.001zm.703 2.162c-.236 0-.471.003-.706.007l-.001 1.374c.472.027.947.03 1.417-.002v-1.37a27.93 27.93 0 0 0-.71-.009zm-.704 2.136l-.002 1.41H9.33l-.001-1.408zm.702 2.151c-.237 0-.473.002-.708.01l-.003.001c-.016.472-.02.947 0 1.417H9.33l.003-1.411a17.65 17.65 0 0 0-.71-.017z"/></svg>