<svg role="img" viewBox="0 0 24 24" xmlns="http://www.w3.org/2000/svg"><path d="M5.91 23.986a.623.623 0 0 1-.43-.402l-.023-.066-.002-2.438-.002-2.438h13.094l-.002 2.434-.002 2.434-.019.055a.632.632 0 0 1-.398.41l-.063.023-6.047.002c-5.966.002-6.048 0-6.107-.014zm-.455-5.649.002-.21.063-.014.409-.08c.837-.161 1.134-.257 1.437-.462.147-.1.43-.373.598-.58.487-.594.866-1.323 1.184-2.279.307-.925.533-1.958.794-3.632l.034-.218.031-.004c.038-.005.576-.044.597-.044.018 0 .02-.013-.03.342-.06.424-.12.884-.157 1.21l-.09.766c-.08.666-.105.921-.136 1.391a17.566 17.566 0 0 0 0 1.203c.033.42.078.725.155 1.033.212.846.62 1.427 1.224 1.74l.092.048H5.453l.002-.21zm8.129.168a2.77 2.77 0 0 0 .581-.296c.383-.26.785-.644 1.176-1.123.424-.52.845-1.106 1.115-1.553.232-.383.44-.66.711-.95.301-.323.41-.492.457-.708a.9.9 0 0 0 .004-.27.886.886 0 0 0-.232-.44.398.398 0 0 0-.268-.143c-.076-.012-.166.003-.423.067a8.962 8.962 0 0 1-1.01.189c-.284.037-.715.08-.754.073-.011-.002.224-.155.74-.483 1.525-.97 1.486-.947 1.997-1.194a174.645 174.645 0 0 0 .866-.42c.001 0 .003 1.641.003 3.647v3.646h-5.073l.11-.042zm-8.13-4.917c0-2.834 0-2.98.013-2.975.008.002.039.01.069.02.667.19 1.522.267 3.008.267.31 0 .564.003.564.006s-.035.103-.078.222l-.176.5c-.262.756-.47 1.292-.739 1.906-.255.584-.494 1.04-.676 1.293-.164.229-.487.551-.881.88-.18.152-.654.522-.977.765l-.128.096zm7.398 2.405c-.477-.04-.83-.25-1.004-.594-.127-.253-.21-.626-.25-1.123a10.813 10.813 0 0 1 0-.92c.034-.47.07-.823.159-1.615l.087-.774a5.11 5.11 0 0 1 .038-.297c.003-.003.072-.016.154-.029a22.15 22.15 0 0 0 1.948-.389c.694-.171 1.682-.503 2.193-.738.48-.221 1-.507 1.399-.77a3.79 3.79 0 0 0 .892-.811l.079-.098-.002.662-.002.662-.146.085c-.512.3-1.102.683-1.737 1.124l-.46.32c-.81.563-1.299.94-1.819 1.406-.605.542-.985 1.052-1.213 1.628-.156.396-.153.56.017.816a.54.54 0 0 0 .171.176c.088.045.182.057.538.07a27.948 27.948 0 0 0 1.554-.014c.008.008-.417.346-.615.489-.612.44-1.129.677-1.583.726-.11.012-.307.016-.398.009zm-6.268-5.338c-.007-.013-.004-.017.01-.015.004 0 .007-.004.007-.01 0-.015.013-.016.018-.003.003.006.004.005.005-.003 0-.01.008-.013.026-.013.04 0 .107.016.118.029.015.018-.01.025-.097.027-.069.001-.08 0-.087-.012zm-.266-.012c0-.003-.01-.012-.022-.02-.016-.011-.023-.022-.023-.038 0-.018.003-.022.013-.018a.144.144 0 0 0 .036.007.173.173 0 0 1 .05.015.129.129 0 0 0 .04.013c.008 0 .018.005.024.012.009.01.005.015-.01.013-.003-.001-.006.003-.006.007 0 .01-.052.01-.072-.001-.01-.005-.014-.005-.011-.001.002.004 0 .01-.007.012s-.012.002-.012 0zm-.075-.04c-.01-.007-.014-.033-.005-.033.02 0 .03.01.027.025-.004.016-.01.018-.022.009zm.851-.042c-.017-.012-.017-.013.014-.021a.233.233 0 0 1 .041-.01c.005 0 .01-.002.01-.006s.005-.013.012-.02c.01-.01.01-.012-.01-.017-.024-.006-.07.003-.15.032-.054.02-.065.02-.165.018a1.24 1.24 0 0 1-.13-.01c-.016-.003-.024-.002-.03.005-.004.009-.009.009-.026 0a.187.187 0 0 0-.067-.012c-.04 0-.047-.003-.055-.018-.01-.022-.02-.022-.057-.002-.04.021-.06.02-.07-.004-.01-.022-.018-.024-.046-.008-.018.01-.022.009-.056-.016a.188.188 0 0 0-.044-.027.146.146 0 0 1-.033-.012c-.02-.01-.023-.015-.016-.024.014-.016.002-.026-.027-.021-.021.004-.03 0-.05-.021a.117.117 0 0 1-.025-.031c0-.003-.006-.006-.012-.006-.007 0-.012.005-.012.01 0 .02-.03-.002-.06-.044-.018-.026-.034-.039-.05-.042a.05.05 0 0 1-.035-.028.06.06 0 0 0-.032-.028c-.01-.003-.02-.01-.02-.016 0-.007-.007-.012-.02-.012-.012 0-.02-.002-.017-.005.005-.005-.008-.022-.05-.066-.017-.016-.03-.036-.03-.043 0-.01-.005-.012-.012-.01-.013.006-.014 0-.012-.037 0-.017-.001-.02-.007-.013-.008.012-.024.005-.024-.01a.283.283 0 0 0-.046-.057.43.43 0 0 1-.06-.072.15.15 0 0 0-.044-.046c-.017-.012-.031-.024-.031-.028s-.006-.007-.014-.007c-.01 0-.005.008.016.03.016.017.03.034.03.038 0 .005.005.013.011.019.017.014.015.026-.004.021-.015-.004-.022.01-.01.02a.574.574 0 0 0 .075.135c.01.014.023.024.03.024.006 0 .011.006.011.014s.006.018.012.022c.007.004.008.007.004.008-.004 0 0 .006.01.012.014.01.016.016.01.027-.006.01-.005.015.004.019.006.002.011 0 .011-.003 0-.004.004-.008.008-.008.005 0 .008.005.008.01 0 .006.007.017.015.026.027.029.04.054.033.064-.009.015-.062-.018-.072-.043a.045.045 0 0 0-.023-.024c-.014-.004-.029-.029-.025-.043 0-.003-.004-.004-.01 0-.009.002-.014-.002-.017-.013-.003-.009-.008-.017-.013-.017-.004 0-.006-.005-.003-.01.002-.006-.003-.015-.011-.02a.033.033 0 0 1-.015-.025c0-.01-.005-.015-.014-.015-.019 0-.063-.094-.056-.12.002-.011-.002-.028-.014-.048-.028-.044-.036-.068-.026-.08.006-.007.005-.012-.003-.017-.006-.004-.013-.018-.017-.032-.005-.024-.004-.025.017-.026.02 0 .021 0 .009-.01-.008-.006-.014-.015-.014-.02 0-.005-.003-.009-.006-.009-.004 0-.013-.01-.02-.024-.012-.02-.014-.034-.01-.064a.136.136 0 0 1 .012-.05c.005-.005.008-.013.007-.016-.001-.004.002-.015.008-.025.006-.01.007-.017.001-.017-.004 0-.008-.005-.008-.012 0-.006.006-.012.012-.012.01 0 .01-.003.004-.016-.01-.017-.003-.063.008-.063.003 0 .006-.004.005-.01-.001-.019.013-.068.02-.068.003 0 .002-.01-.003-.02-.007-.015-.005-.023.01-.045a.092.092 0 0 0 .018-.06c0-.018.002-.033.006-.033s.007-.005.007-.01c0-.006.008-.014.017-.016.011-.003.015-.007.01-.01a.065.065 0 0 1-.015-.029c-.004-.018-.007-.02-.016-.013a.064.064 0 0 0-.016.035c-.007.035-.034.064-.065.07-.026.005-.035-.005-.013-.014.007-.003.01-.008.007-.012-.002-.004 0-.008.007-.008.006 0 .01-.004.01-.01-.002-.02.02-.093.028-.093.004 0 .005-.004.002-.008-.003-.005.002-.01.011-.012.01-.002.014-.01.012-.015-.002-.006.003-.02.011-.033a.86.86 0 0 0 .045-.08.362.362 0 0 1 .042-.071.37.37 0 0 0 .056-.074c0-.013.052-.077.084-.103a.816.816 0 0 0 .055-.05c.009-.01.023-.017.03-.017.009 0 .012-.004.01-.011-.003-.007.006-.017.028-.028a.157.157 0 0 0 .042-.03c.006-.007.01-.01.01-.007s.008-.001.016-.01c.019-.018.05-.028.069-.02.01.003.01.007-.01.027a.126.126 0 0 1-.035.028.09.09 0 0 0-.03.029l-.02.024.018.013c.013.01.018.022.018.046 0 .02.004.033.01.033.005 0 .014.01.018.02.011.023.023.024.048.004.017-.015.017-.017.006-.033a.082.082 0 0 1-.013-.04c0-.017-.003-.021-.018-.021a.036.036 0 0 1-.026-.015c-.014-.022.022-.062.086-.096.036-.019.053-.033.056-.046.003-.01.007-.016.01-.014.002.002.01 0 .016-.007a.043.043 0 0 1 .024-.011c.007 0 .02-.01.028-.023a.099.099 0 0 1 .042-.032.07.07 0 0 0 .034-.025.08.08 0 0 1 .036-.027.076.076 0 0 0 .036-.031c.005-.011.014-.018.02-.016.005.002.021-.008.036-.023.015-.015.035-.028.044-.028.009 0 .016-.003.016-.007s.014-.012.032-.02c.017-.006.031-.015.031-.02 0-.003.05-.032.112-.063a.712.712 0 0 0 .142-.084c.005.002.016-.007.023-.019.01-.016.02-.022.037-.022.015 0 .026-.005.032-.015.004-.008.02-.02.035-.024.015-.005.03-.016.032-.025.003-.008.011-.015.02-.015a.022.022 0 0 0 .018-.011c.002-.006.017-.014.032-.017.015-.003.028-.008.028-.01 0-.01.046-.026.055-.02.004.002.01-.001.013-.008.002-.007.011-.012.02-.012.008 0 .014-.004.014-.008s.008-.008.018-.008a.26.26 0 0 0 .073-.028.343.343 0 0 1 .066-.027.156.156 0 0 0 .045-.02c.025-.015.04-.02.057-.016.014.003.032 0 .045-.006a.358.358 0 0 1 .065-.02.234.234 0 0 0 .06-.02.263.263 0 0 1 .099-.011c.084-.001.112.003.104.015-.002.004.002.007.008.007.007 0 .013.004.013.008s-.012.008-.027.008a.056.056 0 0 0-.04.015c-.008.01-.02.014-.028.011-.024-.006-.102.006-.1.015.002.01-.029.014-.042.006-.005-.003-.03.003-.056.014-.049.02-.176.056-.227.064-.035.006-.07.031-.07.05 0 .017.015.018.037.002.011-.008.019-.009.022-.004.003.004.008.006.012.003.005-.003.005-.008.003-.013-.004-.006-.001-.007.008-.004a.313.313 0 0 0 .116-.023.082.082 0 0 0 .02-.02c.007-.01.015-.013.02-.009a.246.246 0 0 0 .086.003c.003 0 .005-.005.004-.01-.001-.006.008-.01.026-.01.043-.002.094-.013.094-.021 0-.004.007-.005.015-.003.018.006.054-.01.057-.025.004-.017.145-.022.161-.006.014.014.048.015.073 0 .014-.007.026-.007.049-.002.023.006.041.005.075-.005.038-.011.046-.011.057-.002.009.008.03.01.077.008.064-.003.066-.002.082.02a.19.19 0 0 0 .068.043.245.245 0 0 1 .072.044.161.161 0 0 0 .061.035c.023.007.041.018.041.024 0 .006.009.013.02.015.011.003.02.01.02.018 0 .016.066.084.08.084.013 0 .054.046.072.08a.09.09 0 0 0 .028.034c.009.005.022.02.029.033a.213.213 0 0 0 .031.045c.02.02.036.05.05.098a.147.147 0 0 0 .017.04c.004.003.007.017.007.029 0 .013.004.022.01.022.007 0 .014.01.017.02a.062.062 0 0 0 .018.032c.011.008.012.01.003.022-.011.013-.007.024.009.024.005 0 .01.012.012.027a.142.142 0 0 0 .01.04c.005.01.003.024-.005.043-.009.02-.01.035-.005.05a.08.08 0 0 1 .003.036.426.426 0 0 0-.006.047c0 .018-.005.033-.01.034-.003 0-.005.024-.004.05a.134.134 0 0 1-.01.072c-.025.048-.027.053-.02.053.004 0 .004.012 0 .03a.935.935 0 0 0-.024.134c0 .014-.006.028-.012.03-.005.002-.01.012-.01.022 0 .022-.017.027-.068.022a.088.088 0 0 1-.064-.032c-.03-.03-.027-.04.016-.046.023-.004.037 0 .065.016.02.012.038.02.04.018.009-.008-.004-.02-.027-.024a.046.046 0 0 1-.03-.024c-.013-.026-.036-.032-.061-.016-.015.01-.029.012-.052.008-.024-.004-.031-.002-.031.006 0 .006-.007.014-.016.017-.023.007-.018.038.006.041.01.001.018.005.018.008 0 .007.043.026.102.043a.295.295 0 0 1 .055.021c.01.007.01.01-.002.02-.01.007-.013.016-.01.03.004.012.003.021-.002.021-.011 0-.017.038-.006.042.005.002.003.007-.006.013-.007.005-.013.013-.013.019s-.009.018-.02.028a.076.076 0 0 0-.021.038c-.002.016-.01.023-.03.03-.015.005-.023.01-.018.01.012.001.014.024.002.024-.014 0-.054.044-.059.066-.005.02-.023.033-.03.022a.101.101 0 0 1-.008-.025.247.247 0 0 0-.017-.049c-.012-.024-.02-.03-.046-.035-.024-.005-.032-.01-.03-.02a.071.071 0 0 0-.01-.033l-.014-.02-.031.018c-.04.022-.049.038-.034.058a.064.064 0 0 1 .012.032c0 .015.003.016.018.01.016-.005.017-.004.018.027 0 .03-.002.036-.022.047-.012.007-.022.02-.022.026 0 .011.003.01.017-.004l.017-.016.036.02c.053.028.054.03.029.056-.016.017-.029.023-.045.022-.012 0-.022-.005-.022-.008 0-.004-.01-.005-.02-.002-.013.003-.02.002-.02-.005s-.002-.007-.01 0a.044.044 0 0 1-.026.009.072.072 0 0 0-.035.015l-.018.014.017.01c.012.005.017.016.017.032 0 .013.004.03.008.038.007.014.01.013.036-.012.033-.031.058-.035.059-.009 0 .015.001.016.008.005.01-.017.078-.036.078-.022a.347.347 0 0 1-.031.052.75.75 0 0 1-.163.163.53.53 0 0 0-.053.04c-.013.01-.028.018-.034.016-.006-.002-.01.002-.01.01 0 .021-.018.041-.037.043-.01 0-.02.006-.021.011-.002.006-.01.01-.016.01a.012.012 0 0 0-.012.012c0 .006-.005.012-.01.012a.094.094 0 0 0-.033.02c-.012.01-.028.016-.034.013-.008-.003-.01 0-.007.005.004.006.001.01-.006.01a.126.126 0 0 0-.06.033 2.282 2.282 0 0 1-.353.182c-.006.007-.012.01-.014.01-.002-.003-.021.005-.044.016-.038.02-.113.042-.225.07l-.108.028a.18.18 0 0 1-.065.01c-.004-.003-.01 0-.013.007-.002.007-.012.015-.021.018a.06.06 0 0 0-.026.018c-.012.016-.061.016-.083 0zm-.056-.083c.005-.003.006-.012.003-.021-.005-.015-.006-.015-.015 0-.013.027-.009.034.012.02zm.07-.065c.028-.009.037-.023.014-.023s-.065.03-.06.044c.004.011.006.011.012 0 .003-.007.019-.016.034-.02zm-.42-.004c.02.007.032-.014.024-.037-.005-.011-.006-.022-.004-.024a.201.201 0 0 0-.005-.056c-.008-.043-.012-.052-.025-.052-.014 0-.014.001-.002.02.012.018.012.02 0 .02-.007 0-.011.003-.008.008.002.004-.002.016-.009.028a.095.095 0 0 0-.012.047c0 .033.016.065.024.051.003-.005.011-.007.018-.005zm.688 0c-.002-.006 0-.013.003-.016.004-.003.008-.002.008.002s.016.007.035.007c.028 0 .034-.002.027-.01-.007-.008-.007-.013 0-.02.006-.009-.004-.01-.06-.008a.433.433 0 0 0-.072.007c-.002.002.006.014.019.027.023.024.048.032.04.012zm-.33-.039a.172.172 0 0 1 .043-.02.148.148 0 0 0 .05-.026c.018-.016.02-.02.008-.029-.01-.009-.014-.008-.022.002a.209.209 0 0 1-.06.032c-.033.013-.053.026-.057.037-.004.012-.003.016.008.016a.06.06 0 0 0 .03-.012zm.472-.03c.014-.006.027-.016.029-.024.003-.011.01-.014.034-.012a.154.154 0 0 1 .037.006c.01.005.043.006.042 0a.12.12 0 0 1 .02-.057c.005-.004.002-.004-.008-.002-.01.003-.02 0-.023-.006-.01-.014-.047-.037-.061-.037-.007 0-.015-.006-.02-.014-.006-.011-.008-.011-.018-.002a.145.145 0 0 0-.021.03c-.01.019-.01.02.014.014.026-.005.026-.006.007.045a.154.154 0 0 1-.049.05c-.022.015-.033.025-.024.022l.04-.015zm-1.435-.045c.018-.01.02-.02.001-.027-.008-.003-.017 0-.023.01-.019.025-.009.034.022.017zm.748-.061c.004-.016.011-.025.02-.025a.132.132 0 0 0 .03-.005c.015-.004.018-.002.018.012 0 .013.004.017.013.013a.061.061 0 0 1 .02-.005c.004 0 .007-.008.007-.018 0-.022.007-.031.03-.041.015-.007.016-.01.007-.022-.01-.014-.012-.014-.036.007a.306.306 0 0 1-.077.04c-.046.015-.055.021-.067.047a.398.398 0 0 0-.014.031c0 .001.01 0 .02-.004.016-.004.024-.013.028-.03zm.985-.028c.003-.003.014-.005.024-.005s.017-.003.014-.008c-.006-.01.007-.01.018.002.008.007.012.007.02 0 .007-.007.006-.009-.005-.009a.024.024 0 0 1-.018-.01c-.002-.006-.011-.01-.02-.009-.01 0-.022 0-.026-.003a.146.146 0 0 0-.039-.004.122.122 0 0 1-.046-.007c-.008-.005-.013-.004-.013 0 0 .005-.014.008-.032.006-.017-.001-.031 0-.031.002 0 .013.016.022.059.035l.055.017c.011.004.034 0 .04-.006zm-1.534-.056c.003-.01.01-.01.026-.007.02.005.02.004.01-.008-.007-.01-.018-.013-.035-.01-.028.003-.083-.03-.083-.05 0-.026.021-.035.055-.024.023.007.036.007.047 0 .023-.012.02-.02-.011-.03a.098.098 0 0 1-.036-.02c-.007-.01-.013-.01-.037 0s-.03.01-.046 0c-.026-.017-.035-.015-.035.007 0 .011.006.02.014.022.009.002.018.017.024.036a.161.161 0 0 0 .03.054c.01.011.016.024.013.028-.002.004-.002.006.002.004s.015 0 .023.002c.024.01.033.01.039-.005zm-.216-.02a.11.11 0 0 0-.022-.033c-.023-.026-.036-.052-.034-.064.001-.004-.008-.004-.021-.002-.019.004-.026.001-.04-.017-.014-.017-.024-.022-.048-.022-.021 0-.03.003-.028.01.003.006-.01.007-.048.004-.053-.004-.064.007-.016.017.014.003.046.02.071.037.033.023.05.03.064.027.026-.006.074.015.084.037.006.013.013.018.024.015.008-.002.014-.007.014-.01zm.48-.023c0-.004.003-.007.006-.007.015.002.025-.002.025-.011a.58.58 0 0 0 .113-.234c.016-.05.037-.1.047-.113.016-.02.024-.023.057-.023.061 0 .16.011.165.02.005.007.07 0 .091-.01.01-.005.015-.005.015 0s.006.005.02 0c.012-.004.027-.006.035-.003.008.003.02.002.025-.002a.091.091 0 0 1 .018-.008l.031-.006.09-.017a.34.34 0 0 0 .077-.02c.006-.005.013-.006.015-.004.003.003.012 0 .021-.004.019-.01.208-.078.226-.081.022-.004.062-.022.062-.027 0-.006.06-.047.126-.087.024-.014.083-.054.13-.088l.091-.062c.002 0 .037-.031.078-.07a.52.52 0 0 1 .094-.079c0-.004.02-.028.043-.053.023-.025.072-.08.108-.124a4.07 4.07 0 0 1 .074-.088.297.297 0 0 0 .027-.04.244.244 0 0 1 .035-.044c.008-.008.015-.017.014-.021-.001-.004.001-.007.006-.007s.006-.003.004-.007.001-.012.007-.017c.007-.005.01-.012.008-.015-.002-.003.01-.026.028-.05a.197.197 0 0 0 .031-.059c0-.007.01-.042.021-.076a.423.423 0 0 0 .003-.255.286.286 0 0 0-.091-.127c-.047-.029-.13-.012-.13.028a.523.523 0 0 1-.014.07.893.893 0 0 0-.021.105c-.005.046-.004.052.016.08.022.032.028.037.038.027a.282.282 0 0 1 .087-.03c.024-.004.076.016.076.029 0 .015-.02.042-.049.07-.02.018-.029.032-.026.04.003.007 0 .018-.008.024-.006.007-.012.015-.012.018 0 .023-.194.229-.297.316-.025.02-.051.044-.06.052a3.634 3.634 0 0 1-.16.124.184.184 0 0 1-.048.026.063.063 0 0 0-.03.02c-.006.008-.014.016-.018.016a2.897 2.897 0 0 1-.303.153.589.589 0 0 1-.18.052c.003.003-.002.01-.01.014-.012.006-.113.03-.151.036a.888.888 0 0 1-.198.032c-.021 0-.038.002-.038.004 0 .003-.008.004-.018.003l-.028-.003c-.005 0-.008-.004-.005-.008.006-.01-.06-.008-.074.003-.008.006-.012.006-.014-.001-.005-.014-.023-.012-.029.002-.002.006-.01.012-.016.012-.014 0-.051.042-.07.079a.748.748 0 0 0-.071.215.382.382 0 0 1-.06.144.155.155 0 0 1-.032.04.149.149 0 0 0-.031.04c0 .004-.008.008-.018.008-.015 0-.016.001-.004.008.011.006.013.012.006.024-.006.01-.006.015 0 .015.005 0 .008.009.008.02 0 .01.004.02.008.02a.008.008 0 0 0 .008-.009zm.451.003c.009-.003.012-.016.012-.042 0-.039.01-.057.029-.05.006.002.01 0 .01-.005s.006-.01.013-.01c.007 0 .011-.003.01-.01a.154.154 0 0 1 .017-.049c.026-.056.026-.067-.001-.065-.016.001-.023.006-.023.016 0 .011-.003.012-.019.007-.015-.006-.018-.005-.015.003.002.006-.002.015-.008.02-.01.008-.01.014-.004.025.006.012.005.02-.004.035a.1.1 0 0 0-.012.046c0 .015-.004.03-.009.032a.012.012 0 0 0-.005.014c.002.005 0 .016-.003.023-.008.015-.007.016.012.01zm.56-.03c.023-.008.023-.017 0-.04-.022-.022-.044-.025-.059-.01-.02.02.002.065.03.058l.03-.01zm.635-.02c-.004-.013-.008-.015-.014-.01-.005.006-.005.012.002.02.013.017.02.011.012-.01zm-.762-.073c0-.01.003-.023.005-.03.002-.009-.004-.011-.029-.01-.036.002-.059.024-.058.056 0 .025.006.035.027.047.013.007.018.005.035-.019a.118.118 0 0 0 .02-.044zm.22.006c.012-.01.013-.015.006-.03a.113.113 0 0 1-.007-.047c0-.018-.002-.03-.01-.033-.014-.006-.056.027-.056.044 0 .01-.006.015-.02.015-.01 0-.02.002-.02.004s.014.016.03.031c.032.03.053.033.076.015zm.483-.004c0-.017-.011-.022-.02-.008-.005.009.002.023.013.023.004 0 .007-.007.007-.016zm-.082-.015c-.014-.023-.11-.027-.1-.004.002.008.01.01.024.007a.095.095 0 0 1 .044.006c.024.01.042.005.032-.01zm-1.83-.058c.01-.01.018-.03.02-.048 0-.016.004-.032.008-.034.003-.002.006-.02.006-.042v-.039l-.032.035c-.018.02-.03.04-.029.046.003.006-.003.015-.011.02-.015.01-.015.011-.003.024a.06.06 0 0 1 .012.035c0 .025.008.026.03.003zm1.213-.027c.019-.02.019-.02.004-.03a.215.215 0 0 1-.03-.022c-.01-.01-.02-.013-.04-.01-.048.011-.049.016-.005.05a.27.27 0 0 0 .046.033.081.081 0 0 0 .025-.02zm-1.046-.015c.005.003.008.002.008-.003 0-.004.017-.025.038-.045.085-.086.098-.122.099-.293 0-.112-.001-.136-.014-.17a.272.272 0 0 0-.088-.126c-.032-.026-.043-.03-.062-.027-.02.004-.024.01-.03.04a.804.804 0 0 0-.01.078.709.709 0 0 1-.003.051.24.24 0 0 0-.001.037c0 .022.005.03.021.037.011.005.023.007.027.005.003-.002.008 0 .01.008.003.006.01.012.017.012.006 0 .012.008.014.017.002.014.006.017.02.015.011 0 .017.001.014.005-.002.004 0 .012.006.016.005.005.01.029.011.054.002.04-.002.053-.033.109-.075.135-.09.169-.09.19v.02l.018-.017c.011-.01.023-.016.028-.013zm-.557-.011a.164.164 0 0 0-.04-.055c-.018-.017-.031-.038-.031-.048 0-.014-.002-.015-.012-.008-.009.008-.014.005-.027-.016a.113.113 0 0 1-.016-.037c0-.006-.003-.008-.007-.006s-.011 0-.017-.007a.039.039 0 0 0-.025-.012c-.012 0-.013.002-.006.017.005.009.017.02.026.024.01.005.023.022.03.04.01.027.018.037.045.049.018.009.035.022.037.03a.176.176 0 0 0 .048.053l-.005-.024zm.066 0c.003-.004 0-.008-.007-.008s-.011.004-.008.008c.002.004.006.008.008.008.001 0 .005-.004.007-.008zm.175-.05c.043-.04.08-.096.08-.12 0-.006.008-.024.017-.038.013-.022.014-.027.004-.03-.009-.003-.011-.021-.011-.076 0-.04.003-.07.006-.067.01.006.015-.014.007-.03a.062.062 0 0 1-.003-.033c.002-.012 0-.02-.006-.02a.514.514 0 0 1-.047-.143l-.048-.187a.33.33 0 0 1-.012-.065c0-.011-.004-.021-.008-.021-.005 0-.008-.01-.008-.022a.075.075 0 0 0-.007-.032c-.012-.019-.016.028-.013.14a.49.49 0 0 0 .022.165c.01.033.024.08.029.106a.497.497 0 0 0 .015.063c.033.079.04.166.021.237a.38.38 0 0 1-.053.12c-.004 0-.006.006-.006.012s-.006.013-.012.015a.049.049 0 0 0-.02.025c-.004.01-.011.02-.016.02-.007 0-.007.003 0 .01.006.008.005.013-.002.02-.026.028.033-.013.07-.048zm.203.034c.002-.004 0-.008-.004-.008a.008.008 0 0 0-.008.008c0 .004.001.008.003.008s.006-.004.009-.008zm1.242.002c.013-.009.02-.053.009-.064-.007-.007-.007-.01.002-.016.009-.005.01-.007.002-.008-.007 0-.009-.006-.006-.016.003-.01.003-.016 0-.016-.014 0-.059.02-.059.025 0 .003-.006.006-.013.006-.01 0-.011.002-.004.01.005.004.01.017.01.026 0 .018.028.056.043.057a.032.032 0 0 0 .016-.005zm.804-.044c.008-.009.005-.013-.014-.02-.037-.012-.087-.055-.081-.07.003-.007.001-.01-.006-.005-.006.004-.018-.004-.033-.023-.013-.015-.027-.028-.033-.028a.102.102 0 0 1-.034-.022c-.022-.018-.027-.03-.037-.084-.015-.077-.015-.075-.001-.075.016 0 .029-.027.023-.05-.004-.016-.002-.02.01-.02s.012-.001-.001-.016c-.014-.016-.015-.015-.045.012-.023.02-.034.026-.041.02-.007-.006-.015-.003-.028.01-.017.018-.017.02-.004.044.01.018.01.028.005.034-.006.006 0 .023.019.06a.167.167 0 0 1 .024.06c-.003.008.001.011.01.011a.06.06 0 0 1 .032.015c.015.012.017.017.01.03a.085.085 0 0 0-.01.021c0 .002.02.017.045.033a.56.56 0 0 1 .067.05c.02.018.024.019.047.01.02-.008.028-.007.041.002.02.015.024.015.035.001zm-.004-.112c.003-.008.001-.01-.004-.009-.012.004-.019.022-.008.022.004 0 .01-.006.012-.012zm-.053-.018c-.003-.004 0-.011.008-.017.01-.008.015-.008.028 0 .019.012.024.008.024-.018 0-.013.006-.022.02-.028l.019-.009-.02-.015c-.025-.02-.054-.026-.096-.02-.04.006-.043.012-.018.035.01.009.014.02.011.028-.004.011.015.051.024.051.002 0 .002-.003 0-.007zm-2.45-.03c.001-.001-.001-.007-.007-.013-.027-.034-.155-.07-.19-.054-.017.008-.017.009.017.024.025.012.04.014.053.009.013-.005.025-.004.04.004.012.006.018.011.014.012-.004 0-.003.005.002.01.007.008.054.013.07.006zm2.645-.01a.023.023 0 0 0-.016-.008c-.007 0-.01.004-.007.008s.01.008.017.008c.006 0 .01-.004.006-.008zm-2.666-.087c-.01-.009-.017-.02-.017-.027 0-.006-.004-.012-.008-.012-.005 0-.008-.007-.008-.015 0-.01-.005-.016-.011-.016a.189.189 0 0 1-.052-.028c-.044-.03-.063-.03-.044 0a.074.074 0 0 1 .012.03c0 .022.03.052.048.047.01-.002.02 0 .022.003.01.014.044.034.06.034.014 0 .014 0-.002-.016zm2.596.008c.002-.004-.01-.027-.028-.05-.019-.025-.031-.05-.03-.059.003-.02-.03-.056-.053-.056-.044 0-.043.086 0 .13.019.018.029.024.035.018.005-.006.016-.003.034.008.03.019.035.02.042.009zm-.24-.008c0-.009-.022-.02-.029-.013-.007.007.005.021.018.021.006 0 .011-.004.011-.008zm-.21-.017c-.006-.006-.01-.006-.01 0 0 .01.01.019.014.014.003-.002 0-.008-.005-.014zm-.103-.008c-.006-.006-.01-.006-.01 0 0 .01.01.019.015.014.003-.002 0-.008-.005-.014zm-1.98-.173c-.001-.007.005-.014.014-.016.01-.003.017-.013.02-.037.006-.037.03-.072.046-.066.016.006.021-.036.007-.057l-.012-.019-.019.022a.119.119 0 0 0-.023.042.198.198 0 0 1-.045.061c-.037.036-.041.044-.039.067.003.025.005.026.028.021.017-.003.024-.009.023-.017zm1.297.017c.033-.009.036-.015.014-.034a.036.036 0 0 0-.036-.01c-.014.005-.026 0-.04-.01l-.021-.017-.019.018c-.022.02-.022.025-.004.045.016.017.06.02.106.008zM8.27 9.36c.003-.004-.001-.008-.008-.008s-.01.004-.008.008c.003.004.006.008.008.008s.005-.004.008-.008zm-.17-.04c0-.004-.004-.007-.01-.007-.013 0-.017.01-.008.019.007.006.019-.001.019-.011zm-1.356-.01c.013-.007.027-.01.03-.007.005.003.009 0 .009-.003 0-.007.025-.02.043-.02.004 0 .009-.007.01-.015.004-.02-.046-.018-.065.002a.066.066 0 0 1-.034.018.03.03 0 0 0-.026.02c-.008.021 0 .023.033.006zm1.92-.067c.003-.004-.002-.008-.013-.008-.014 0-.015.002-.006.008.015.01.014.01.02 0zM5.82 9.18c.002-.004-.003-.008-.013-.008-.015 0-.016.002-.007.008.015.01.014.01.02 0zm1.528-.01c0-.015-.01-.023-.06-.046-.051-.023-.063-.025-.072-.017-.013.013-.01.013-.058-.003l-.04-.013-.017.021c-.011.014-.02.019-.025.013-.005-.006-.014-.003-.027.009l-.019.017.051-.005.088-.01c.028-.003.041 0 .058.01.023.016.047.016.065.001.01-.009.014-.006.033.028.011.02.023.017.023-.004zm-.597.002a.008.008 0 0 0-.008-.008c-.005 0-.006.004-.004.008.003.004.007.008.009.008.001 0 .003-.004.003-.008zm-.51-.043c0-.002-.004-.006-.009-.008-.004-.003-.008 0-.008.003 0 .005.004.008.008.008.005 0 .008-.002.008-.003zm.524 0c.01-.004.016-.009.013-.012-.002-.004.003-.009.011-.01.014-.005.028-.03.026-.046 0-.003.002-.014.006-.025.006-.015.005-.022-.006-.031-.007-.007-.017-.01-.023-.006-.008.005-.035.062-.031.066a.123.123 0 0 1-.02.03.154.154 0 0 0-.021.034c0 .006.021.006.045 0zm1.81-.042c0-.02-.01-.03-.029-.026l-.019.004.017.015c.019.016.03.019.03.008zm-1.986-.048c.02 0 .036-.002.036-.004a.327.327 0 0 0-.048-.083c-.004 0-.012.01-.02.02-.006.011-.016.017-.02.014-.006-.003-.005.001.002.01.008.01.009.015.003.017-.025.008-.036.024-.03.04l.005.019.017-.017c.013-.012.028-.016.054-.016zm1.078.008c.002-.004.011-.008.02-.008.026 0 .017-.02-.016-.035-.028-.013-.035-.013-.054-.004a.114.114 0 0 1-.029.01c-.004 0-.012.007-.017.013-.007.009-.006.013.008.021.02.012.081.013.088.002zm-.949-.05c.004-.041-.01-.072-.038-.084-.022-.009-.055-.005-.055.007 0 .004.005.01.011.016.006.005.01.016.007.024-.003.011.003.018.025.027.02.008.028.017.028.028 0 .03.02.012.022-.02zm-.996 0c-.006-.006-.008-.006-.008.003 0 .016.01.026.014.015.002-.005 0-.013-.005-.018zm.76-.018c.017-.026.018-.029.006-.042-.02-.022-.05-.027-.07-.01-.01.008-.016.018-.016.023l.002.017c.001.007.048.04.056.04a.109.109 0 0 0 .022-.028zm.35-.027c.005-.023 0-.07-.008-.07s-.025.027-.026.04c0 .017.016.054.024.054.003 0 .008-.01.01-.024zm1.055.016c-.003-.004 0-.008.007-.008a.012.012 0 0 0 .012-.012c0-.009-.005-.01-.02-.007-.011.003-.019.002-.019-.004 0-.005-.003-.008-.006-.007a.1.1 0 0 1-.031-.012c-.027-.014-.08-.011-.08.004 0 .013.03.033.052.035a.738.738 0 0 1 .087.018l-.002-.007zm.072-.022c-.008-.017-.021-.024-.021-.01a.063.063 0 0 1-.004.018c-.003.007.002.01.014.01.017 0 .018-.002.011-.018zm-.924-.085a.454.454 0 0 1-.017-.073c0-.01-.005-.016-.013-.016-.01 0-.011.002-.004.009.014.013.012.036-.006.06-.014.02-.015.024-.004.033.007.006.01.017.009.026-.003.009.003.024.013.036l.017.022.01-.02c.01-.017.01-.027-.005-.077zm1.036.08c0-.014-.003-.014-.03-.006-.018.005-.019.006-.004.01.024.01.034.009.034-.004zm-.082-.004c.003-.004.001-.008-.004-.008a.008.008 0 0 0-.008.008c0 .004.002.008.004.008s.005-.004.008-.008zm-1.835-.02a.02.02 0 0 1 .012-.017c.006-.002.011-.009.011-.014 0-.015.028-.044.043-.044.014 0 .027-.026.034-.07l.004-.025-.03.006c-.038.007-.034.004-.047.04-.005.016-.014.03-.018.03a.024.024 0 0 0-.014.006c-.003.003-.014 0-.023-.005-.02-.013-.03-.008-.02.012.007.01.005.014-.011.018-.018.004-.05.04-.042.048a.59.59 0 0 0 .091.027c.005 0 .01-.005.01-.011zm2.077-.032c.003-.006.002-.011-.003-.011-.004 0-.007.005-.007.011 0 .006.001.012.003.012s.005-.005.007-.012zm-1.665-.003c.006-.009-.009-.018-.02-.012-.008.005-.002.02.009.02a.015.015 0 0 0 .011-.007zm1.569-.015c.014-.009.02-.017.016-.02-.015-.009-.01-.018.026-.039.027-.016.034-.024.03-.036-.002-.009 0-.016.004-.016s.008-.01.008-.021c.002-.04.011-.089.018-.093.004-.002-.004-.015-.018-.028-.02-.02-.023-.026-.016-.04.024-.054.025-.068.006-.087a.105.105 0 0 1-.024-.04.051.051 0 0 0-.024-.03.029.029 0 0 1-.019-.028.058.058 0 0 0-.014-.033c-.024-.027-.033-.039-.033-.045a.074.074 0 0 0-.015-.023c-.012-.015-.041-.02-.079-.012-.002 0 0 .005.006.01a.04.04 0 0 1 .01.024c0 .019.022.053.035.053.005 0 .014.005.019.011a.07.07 0 0 0 .032.017c.028.006.036.016.023.031-.007.01-.007.012 0 .012.005 0 .007.004.004.008-.002.004 0 .008.004.008s.008.007.008.015.004.016.01.018c.004.002.01.015.01.03.001.014.008.029.014.032.01.005.012.02.01.064a5.016 5.016 0 0 0-.004.104c-.001.064-.007.071-.046.061-.043-.01-.052-.003-.054.05-.002.06.01.07.053.043zm-1.443-.02c.012.005.03-.042.024-.061-.01-.023-.04-.033-.074-.023-.048.014-.056.012-.051-.013.003-.015-.001-.028-.013-.043-.015-.02-.019-.021-.03-.011-.007.006-.018.01-.025.008-.01-.003-.01-.002 0 .004.008.006.008.009-.001.014-.016.01-.033.055-.027.07.006.016.055.037.071.03a.023.023 0 0 1 .022.004.017.017 0 0 0 .022.001.075.075 0 0 1 .033-.007c.02 0 .02.002.016.026-.005.024-.004.025.008.012.008-.007.019-.012.025-.009zm-.21 0c.003-.003-.004-.014-.016-.024s-.021-.023-.021-.027a.008.008 0 0 0-.008-.008.074.074 0 0 1-.018-.004c-.006-.003-.013.004-.018.017-.01.03.012.055.048.053.015 0 .03-.004.033-.007zm2.332.004a.009.009 0 0 0-.004-.012c-.004-.003-.008 0-.008.007 0 .014.005.016.012.005zm-.839-.015c.018-.011.003-.057-.022-.067-.018-.007-.021-.011-.018-.028.003-.014 0-.025-.008-.031-.009-.007-.013-.024-.013-.05 0-.03-.004-.042-.02-.056-.01-.01-.02-.027-.02-.037v-.02l-.015.02c-.03.04-.04.063-.029.08.005.008.014.015.02.015.01 0 .04.045.04.06a.01.01 0 0 1-.01.01c-.007 0-.008.013-.005.046.004.045.004.045.028.043.015-.001.028.002.034.01.012.013.023.015.038.006zm.803-.066c0-.016.004-.03.009-.03.005 0 .005-.004 0-.014s-.005-.019.004-.03c.014-.019.014-.026 0-.026-.009 0-.01-.005-.004-.026a.264.264 0 0 0 .007-.06c0-.047-.018-.038-.023.012a.343.343 0 0 1-.015.067c-.008.021-.009.034-.002.053a.209.209 0 0 1 .004.07c-.004.042-.004.044.008.03a.088.088 0 0 0 .013-.046zm-1.205.035c.018-.012.019-.034.003-.057-.02-.028-.019-.076.002-.087.017-.009.019-.023.003-.023-.014 0-.022-.021-.014-.037a.04.04 0 0 0 .004-.025.305.305 0 0 1 .02-.082.22.22 0 0 1 .074-.118c.045-.044.054-.05.085-.05.021-.001.036-.007.04-.014.004-.007.01-.01.015-.007.008.005.03-.007.062-.035.012-.011.02-.014.024-.008s.01.006.023 0a.067.067 0 0 1 .037-.007c.014.003.018.001.017-.009-.004-.02-.05-.025-.164-.016-.024.002-.086.024-.086.031 0 .004-.005.007-.01.007-.021 0-.043.028-.049.061-.005.033-.006.033-.057.05a.4.4 0 0 1-.061.015c-.006 0-.012.006-.015.013-.003.009-.01.01-.024.008-.01-.003-.021-.001-.024.003-.006.009-.05.002-.07-.013-.01-.007-.02-.008-.028-.003-.009.005-.02.003-.035-.004-.012-.006-.025-.009-.029-.007-.004.002-.007 0-.007-.004 0-.005-.003-.008-.006-.007-.02.003-.035-.004-.06-.028-.017-.015-.028-.03-.025-.034.002-.004-.01-.011-.025-.017a.102.102 0 0 1-.038-.022c-.017-.024-.027-.003-.014.029a.16.16 0 0 1 .01.04c-.002.006.004.012.013.014.018.004.046.03.053.051.003.008.009.012.013.01.004-.003.021.001.037.008a.36.36 0 0 0 .195.029c.04-.005.06-.004.062.002a.21.21 0 0 1-.013.094.372.372 0 0 0 0 .168.05.05 0 0 1 .01.03c0 .01.004.019.008.019.005 0 .012.009.016.02.008.02.014.023.028.013zm-1.586-.007c.01-.003.02-.011.022-.02.006-.02-.024-.053-.049-.053-.01 0-.02-.004-.022-.008-.009-.014-.018-.01-.023.012-.004.016 0 .025.015.04.011.01.018.022.016.026-.006.01.014.01.04.003zm1.267.001c0-.002-.003-.006-.008-.008-.004-.003-.008 0-.008.003 0 .005.004.008.008.008s.008-.002.008-.003zm.553-.032A.386.386 0 0 1 7.8 8.71c0-.018-.004-.025-.014-.025a.075.075 0 0 1-.025-.005c-.009-.003-.013 0-.013.008 0 .007-.005.013-.01.013-.007 0-.012.008-.012.021 0 .012-.002.03-.005.04-.005.012-.003.017.006.017.006 0 .016.005.02.011.006.006.022.011.037.01h.028zm-.97.02c0-.004-.001-.008-.003-.008s-.006.004-.008.008c-.003.004-.001.008.003.008a.008.008 0 0 0 .009-.008zm1.24-.068c.026-.005.036-.025.029-.056-.004-.014-.009-.017-.02-.013a.048.048 0 0 1-.033-.004c-.026-.014-.06.001-.06.027 0 .045.024.059.085.047zM6.19 8.673c.014-.009.026-.022.026-.029 0-.025-.076-.042-.093-.02-.01.014-.026.06-.021.068.007.01.06 0 .088-.019zm1.18-.023c.014 0 .026-.003.027-.006.006-.036 0-.058-.015-.07-.01-.01-.015-.02-.012-.028.003-.009.002-.01-.006-.006a.13.13 0 0 1-.048.006c-.021 0-.04.003-.043.007-.003.004-.01.004-.016-.002-.008-.007-.012-.005-.019.013-.008.023-.003.054.008.047.004-.002.01 0 .013.006.011.017.061.044.074.039a.117.117 0 0 1 .037-.005zm.348-.008c0-.006.006-.01.014-.01.017 0 .064-.017.064-.026 0-.012-.03-.032-.035-.024a.016.016 0 0 1-.013.008c-.004 0-.006-.003-.004-.007.006-.008-.048-.025-.062-.02-.012.005-.027.044-.027.071 0 .016.004.019.031.019.022 0 .032-.003.032-.012zm.105-.048c.002-.006 0-.011-.003-.011-.005 0-.008.005-.008.011 0 .006.001.012.003.012s.005-.005.008-.012zm.23-.03c0-.01.003-.026.006-.038.006-.02.004-.022-.018-.027-.014-.003-.023-.007-.02-.009.001-.002-.002-.012-.008-.022a.073.073 0 0 1-.008-.041c.002-.019 0-.025-.01-.025-.006 0-.017-.014-.024-.031-.012-.032-.017-.035-.044-.025-.017.007-.024.031-.012.045.004.005.003.018-.003.034-.008.022-.008.027.004.036.008.006.014.015.014.021a.12.12 0 0 0 .028.044.123.123 0 0 1 .027.044c0 .009.008.011.033.01.028 0 .034-.004.035-.017zm.875-.012c0-.008-.003-.018-.008-.02-.004-.003-.008-.014-.008-.025 0-.033-.078-.14-.092-.125-.009.009.025.074.042.082.015.007.019.015.02.038a.38.38 0 0 1 0 .035c0 .003.002.006.007.006.004 0 .008.005.008.012s.007.012.015.012c.01 0 .016-.005.016-.015zm-1.1-.05v-.049l-.03.001a.13.13 0 0 0-.048.01c-.018.01-.016.024.004.024.009 0 .01.003.004.013-.005.01-.002.017.018.031.043.031.052.026.052-.03zM6.97 8.46a.052.052 0 0 0-.033-.011c-.02 0-.022.002-.014.011.01.012.038.02.05.014.003-.002.002-.008-.003-.014zm-.29-.058a.034.034 0 0 0 .024-.014.042.042 0 0 1 .034-.013c.025.001.06-.023.06-.042 0-.01-.035-.012-.052-.002a.229.229 0 0 1-.043.015c-.038.012-.076.044-.074.063.002.026.004.026.02.01.008-.01.022-.018.03-.018zm.94-.225c.009.003.01 0 .006-.013l-.008-.03c-.004-.014-.005-.014-.018 0-.01.008-.012.016-.007.022.005.007.003.011-.006.015-.015.006-.03.04-.023.051.003.004.014-.005.025-.02.012-.019.023-.028.03-.025zm-.681.02c0-.008-.003-.015-.006-.015-.004 0-.01.007-.016.016-.009.013-.008.015.006.015.01 0 .016-.005.016-.015zm.072-.055c.03-.01.032-.01.013-.013-.025-.003-.07.017-.07.032 0 .018.011.022.017.007.003-.008.02-.02.04-.025zm1.247-.058c.021-.056.021-.076-.001-.096-.035-.032-.124-.068-.124-.05 0 .005-.005.008-.01.008-.009 0-.011.008-.01.027.003.019 0 .028-.01.031-.009.003-.01.007-.003.011.007.004.006.018-.002.057a.537.537 0 0 0-.01.051l.06.021.06.02.017-.019a.236.236 0 0 0 .033-.062zm-.743.021c.013-.038.006-.047-.024-.03a.328.328 0 0 1-.036.016c-.013.004-.012.008.012.03.014.014.028.024.031.022a.142.142 0 0 0 .017-.038zm-.571.004c.006.002.01 0 .01-.008s.012-.015.031-.02a.17.17 0 0 0 .049-.024c.016-.013.017-.016.007-.028-.01-.012-.011-.012-.017.002-.003.01-.016.018-.036.021a.11.11 0 0 0-.04.014.038.038 0 0 1-.026.004.033.033 0 0 0-.026.005c-.008.007-.007.013.006.027.01.01.02.014.024.01s.012-.005.018-.003zm.807-.048c-.005-.014-.038-.028-.065-.028-.012 0-.027-.005-.032-.012-.006-.007-.013-.01-.018-.005-.007.008.032.05.054.06a.034.034 0 0 1 .017.02c.004.016.005.016.026-.005.012-.011.02-.025.018-.03zm-.282-.036c.003-.004.012-.008.02-.008.02 0 .02-.008.002-.038-.018-.032-.031-.036-.037-.012-.003.01-.008.019-.012.019-.011 0-.01.026.001.037.012.012.02.012.026.002zm.163-.056c.033-.01.035-.02.006-.037a.04.04 0 0 0-.04-.002c-.02.007-.02.01-.012.028.01.024.007.023.046.011zM6.16 10.556c-.01-.008-.023-.013-.028-.011-.005.002-.011-.001-.014-.005-.003-.005-.012-.008-.02-.008-.01 0-.016-.005-.016-.016 0-.019-.012-.027-.043-.027-.015 0-.023-.004-.022-.01.001-.006-.001-.01-.006-.01a.008.008 0 0 0-.008.008c0 .007-.002.007-.009 0a.039.039 0 0 0-.024-.009c-.008 0-.014-.006-.014-.015 0-.01-.004-.013-.015-.01-.01.003-.018-.001-.021-.01-.008-.02-.043-.05-.059-.05-.023-.001-.035-.031-.031-.078 0-.01.024-.014.024-.003 0 .004.01.011.02.016.012.005.02.014.017.02-.002.004 0 .016.004.025.006.014.006.014.003-.002-.002-.014 0-.018.012-.018.008 0 .015.004.015.009 0 .005.002.007.004.005.003-.003.011 0 .019.009a.288.288 0 0 0 .032.025.23.23 0 0 1 .033.025c.008.008.016.014.019.014.002 0 .016.009.03.02.014.01.033.02.042.02.01 0 .017.002.017.006s.014.014.03.022c.021.01.029.019.027.03-.002.007 0 .016.005.019.005.003.006.01.002.015-.005.008-.01.006-.025-.005zm2.512-.875a.972.972 0 0 1-.019-.01c-.007-.007.02-.039.049-.057.048-.032.101-.033.064-.002-.006.005-.012.014-.012.018 0 .01-.052.06-.061.06a.073.073 0 0 1-.021-.009zm.114-.147c-.009-.006-.006-.015.016-.052a.824.824 0 0 1 .056-.08.47.47 0 0 0 .033-.044c.004-.008.006-.008.01 0 .002.005.011.01.02.01h.018l-.017.014a.269.269 0 0 0-.053.098.02.02 0 0 1-.018.014c-.007 0-.01.002-.008.005.007.006-.025.042-.037.042a.046.046 0 0 1-.02-.007zm.184-.3c-.003-.006 0-.014.007-.02.007-.004.01-.011.007-.014-.003-.003.001-.01.009-.014.01-.005.011-.01.006-.014-.013-.008-.016-.064-.005-.096.006-.016.009-.031.006-.033-.003-.003.004-.022.014-.042a.22.22 0 0 0 .02-.089.803.803 0 0 1 .007-.07c.021-.124.015-.248-.016-.307-.008-.016-.01-.028-.005-.03.005-.004.004-.024-.003-.056-.014-.067-.014-.071.005-.071.008 0 .015.004.015.008s.004.007.01.006c.01-.002.016.019.015.053 0 .02.005.044.02.098.003.006.004.02.004.03 0 .01.003.017.007.017.003 0 .004.013.002.028-.003.019-.001.032.007.041.011.014.014.068.003.078-.002.003-.001.009.003.014.005.006.005.02 0 .038a.135.135 0 0 0-.002.058.48.48 0 0 1-.033.21c-.017.042-.02.055-.012.064.008.01.007.012-.002.012-.008 0-.015.013-.021.037-.014.054-.052.09-.068.063zm-2.78-.885c-.012-.003-.012-.005 0-.025.017-.026.027-.033.039-.03.005.003.014-.001.019-.007.016-.02.055-.037.064-.028.005.005.001.011-.01.018-.023.012-.052.047-.049.059.003.014-.032.021-.063.013zm2.806-.04a.03.03 0 0 1-.018-.018.36.36 0 0 1-.015-.069c-.002-.022-.02-.042-.026-.027-.002.005-.006.008-.01.006s-.005-.01-.002-.017c.003-.009.002-.01-.004-.007s-.01.001-.01-.005-.012-.024-.027-.04a.14.14 0 0 1-.028-.037c0-.004-.005-.013-.013-.02-.017-.017-.02-.048-.005-.054.014-.005.028.002.022.011-.002.004.003.009.012.012a.038.038 0 0 1 .02.022.198.198 0 0 0 .045.067c.01.004.007.025-.004.025-.005 0 0 .006.012.012.012.007.02.015.018.018-.002.003.005.011.017.016.014.007.018.012.012.018-.006.006-.002.017.014.04.012.017.02.036.018.042-.004.011-.005.012-.028.006zm-.271-.354c-.011-.002-.018-.008-.018-.018 0-.008-.007-.018-.016-.023-.008-.005-.015-.013-.015-.02 0-.006-.005-.009-.011-.007-.007.003-.016-.005-.023-.02a.078.078 0 0 1-.01-.024c.016 0 .06.027.063.04.003.009.008.014.012.011.004-.002.013.006.02.019.01.016.018.021.028.019.01-.003.015 0 .015.01 0 .009-.004.012-.011.009-.007-.002-.013-.002-.014 0-.002.004-.01.005-.02.004zm.752-.356c-1.423-.046-2.52-.197-3.316-.457a3.12 3.12 0 0 1-.65-.283l-.058-.037V5.454h13.094v.329l-.077.057c-.51.376-1.176.68-2.1.959a17.402 17.402 0 0 1-3.234.655c-.33.036-.874.08-.883.072a2.105 2.105 0 0 1 .013-.191c.02-.229.038-.46.045-.596a.636.636 0 0 0-.008-.171c-.048-.254-.218-.517-.334-.517-.05 0-.088.034-.128.114-.03.058-.29.73-.481 1.235l-.069.182-.119.005c-.46.02-1.266.026-1.695.012zM5.453 2.948c0-2.633-.002-2.461.044-2.573a.622.622 0 0 1 .455-.367C5.994.001 6.535 0 8.087.001l2.08.002-.557.652c-.621.729-.578.668-.537.75.028.055.087.107.247.217.2.135.26.18.357.259a3.315 3.315 0 0 1 .734.865c.007.015-.063.1-.675.818-.763.895-.704.815-.663.898.03.058.09.11.29.244.095.065.22.156.28.202a4.5 4.5 0 0 1 .423.41l.034.041H5.453zm6.083 2.408c0-.002.026-.033.057-.069a2.974 2.974 0 0 0 .427-.657 3.37 3.37 0 0 1 .83.7l.024.03h-.669c-.368 0-.669-.002-.669-.004zm2.783-.01.07-.085c.307-.364.493-.742.547-1.105a1.59 1.59 0 0 0-.011-.437c-.087-.404-.363-.752-.825-1.04a1.11 1.11 0 0 1-.102-.069.57.57 0 0 1 .078-.076c.094-.083.244-.243.344-.365.268-.329.437-.664.505-1.001.015-.075.018-.112.018-.253a.972.972 0 0 0-.018-.245 1.372 1.372 0 0 0-.301-.606L14.569 0h1.722c1.942 0 1.772-.006 1.917.064a.43.43 0 0 1 .154.111.61.61 0 0 1 .16.253l.02.063.003 2.434.002 2.434h-2.12c-2.015 0-2.118 0-2.108-.013zM12.173 3.91c0-.059-.02-.186-.043-.27a1.362 1.362 0 0 0-.362-.607 2.312 2.312 0 0 0-.464-.37.427.427 0 0 1-.078-.055.94.94 0 0 1 .096-.096c.277-.256.517-.57.663-.865a.284.284 0 0 1 .041-.069c.01 0 .238.157.331.227.276.208.521.474.733.791.106.16.107.16.095.175-.04.05-1.006 1.18-1.009 1.18a.122.122 0 0 1-.003-.04zM12.17.821a1.338 1.338 0 0 0-.347-.788L11.794 0h1.15L12.9.054c-.167.2-.715.84-.719.841a.298.298 0 0 1-.01-.074z"/></svg>