<svg role="img" viewBox="0 0 24 24" xmlns="http://www.w3.org/2000/svg"><path d="M21.459 9.296c.607 1.32.947 2.789.947 4.336a10.36 10.36 0 0 1-.613 3.522 3.086 3.086 0 0 0-3.2 4.522A10.362 10.362 0 0 1 12.798 24v-2.748c3.856-.4 6.867-3.661 6.867-7.62a7.619 7.619 0 0 0-.594-2.96zm-18.95.071 2.389 1.378a7.625 7.625 0 0 0-.564 2.887c0 3.905 2.93 7.131 6.71 7.602v2.753a10.361 10.361 0 0 1-5.636-2.312 3.086 3.086 0 0 0-3.2-4.522 10.36 10.36 0 0 1-.614-3.52c0-1.52.327-2.964.915-4.266zm.19 8.508a2.325 2.325 0 0 1 2.324 2.323 2.324 2.324 0 0 1-4.648 0 2.324 2.324 0 0 1 2.324-2.323zm18.602 0a2.325 2.325 0 0 1 2.324 2.323 2.324 2.324 0 0 1-4.648 0 2.324 2.324 0 0 1 2.324-2.323zM8.777 17.46c.206.394.446.77.717 1.122.315.408.672.783 1.066 1.114.192.162.393.313.602.452a6.557 6.557 0 0 1-3.776-1.839 7.064 7.064 0 0 1 1.37-.84zm6.459.006.007.003c.487.227.948.509 1.37.84a6.557 6.557 0 0 1-3.757 1.837c.208-.139.408-.289.599-.45a7.226 7.226 0 0 0 1.17-1.253c.228-.31.432-.637.61-.977zm-3.034-.702a7.599 7.599 0 0 1 2.681.549 7.249 7.249 0 0 1-.716 1.1 6.782 6.782 0 0 1-1.02 1.042 6.301 6.301 0 0 1-.945.641zm-.404 0v3.324a6.298 6.298 0 0 1-.93-.633 6.782 6.782 0 0 1-1.02-1.042 7.255 7.255 0 0 1-.718-1.105 7.602 7.602 0 0 1 2.668-.544zm6.771-2.929a6.54 6.54 0 0 1-1.7 4.207 7.427 7.427 0 0 0-1.47-.906 8.289 8.289 0 0 0 .762-3.3zm-13.139 0h2.424a8.286 8.286 0 0 0 .76 3.295l-.013.006a7.428 7.428 0 0 0-1.47.906 6.54 6.54 0 0 1-1.7-4.207zm10.348 0a7.901 7.901 0 0 1-.73 3.147 7.97 7.97 0 0 0-2.846-.586v-2.56zm-3.98 0v2.56a7.97 7.97 0 0 0-2.833.581 7.901 7.901 0 0 1-.728-3.14zm-6.368-.403a6.54 6.54 0 0 1 1.7-4.207c.456.36.956.666 1.484.912a8.29 8.29 0 0 0-.76 3.295zm2.807 0c.027-1.083.27-2.16.728-3.142.228.092.46.174.696.245.693.207 1.414.32 2.137.337v2.56zm7.925 0a8.285 8.285 0 0 0-.763-3.301 7.438 7.438 0 0 0 1.47-.906 6.54 6.54 0 0 1 1.7 4.207zm-3.96-2.56a8.136 8.136 0 0 0 2.845-.587c.46.983.704 2.062.731 3.147h-3.576zm-.404-3.693v3.325a7.766 7.766 0 0 1-2.668-.545l.033-.062a7.21 7.21 0 0 1 .635-.978c.33-.428.71-.82 1.133-1.157.272-.218.562-.413.867-.583zm.404-.008c.31.171.605.37.882.59.423.339.803.73 1.133 1.158a7.251 7.251 0 0 1 .666 1.035 7.766 7.766 0 0 1-2.68.55zm-1.04-.052a6.722 6.722 0 0 0-.537.397c-.442.363-.84.781-1.184 1.238a7.67 7.67 0 0 0-.657 1.039l-.007.014a7.076 7.076 0 0 1-1.39-.85 6.556 6.556 0 0 1 3.775-1.838zm1.695.002a6.556 6.556 0 0 1 3.757 1.837 7.072 7.072 0 0 1-1.379.843 7.646 7.646 0 0 0-.714-1.116 7.192 7.192 0 0 0-1.066-1.115 6.76 6.76 0 0 0-.598-.449zm-9.494.715a10.432 10.432 0 0 1 5.836-4.219 3.088 3.088 0 0 0 5.602 0 10.431 10.431 0 0 1 5.792 4.154l-2.382 1.374A7.66 7.66 0 0 0 12 5.972a7.66 7.66 0 0 0-6.257 3.236zM12 0a2.324 2.324 0 0 1 2.324 2.322 2.325 2.325 0 0 1-4.648 0A2.324 2.324 0 0 1 12 0z"/></svg>