<svg viewBox="0 0 24 24" xmlns="http://www.w3.org/2000/svg" role="img"><path d="M12.57 23.773c-.384-.364-1.069-.787-1.47-.907-.065-.02-.12-.05-.12-.068 0-.019.042-.084.093-.145.05-.061.131-.162.18-.225.796-1.03 1.149-1.478 1.302-1.65l.087-.098.217.09c.53.22.973.578 1.141.922.224.457.058 1.013-.5 1.668-.22.26-.624.643-.672.64-.011 0-.127-.103-.258-.227zm-3.948-.671c-.014-.846-.05-1.13-.207-1.609a4.673 4.673 0 0 0-.466-.966c0-.04-.472-.589-.66-.766-.754-.715-1.885-1.369-3.258-1.882-.183-.068-.333-.135-.333-.148 0-.034.131-.221.48-.69.165-.22.41-.552.546-.737.136-.185.276-.373.313-.417l.066-.08.183.076c.916.382 1.856.994 2.48 1.615.403.4.689.788.91 1.235.29.585.432 1.142.49 1.906.014.2.034.372.043.381.08.08.167-.374.168-.873 0-.786-.228-1.48-.737-2.238-.378-.561-.83-1.016-1.46-1.467-1.01-.724-2.114-1.21-3.921-1.724a1.014 1.014 0 0 1-.194-.07c-.026-.022.115-.253.155-.253.014 0 .025-.014.025-.03 0-.017.118-.188.262-.38l.305-.412c.092-.132.523-.709.67-.898.03-.038.073-.03.355.063.482.16 1.294.502 1.713.722 1.638.86 2.64 1.924 3.098 3.287.235.698.305 1.416.245 2.508-.021.4-.02.448.018.41.064-.065.244-.745.28-1.06a5.022 5.022 0 0 0-.183-1.9 6.066 6.066 0 0 0-.517-1.132c-.153-.27-.683-.915-.993-1.207-.608-.573-1.362-1.079-2.237-1.502a16.855 16.855 0 0 0-1.557-.63 17.054 17.054 0 0 0-1.813-.492 6.725 6.725 0 0 1-.488-.12c-.023-.013.088-.188.335-.529a68.698 68.698 0 0 1 1.058-1.428c.046-.064.098-.116.117-.116.067 0 .693.172 1.093.3 1.785.57 3.185 1.358 4.115 2.319.905.933 1.361 1.883 1.566 3.261.098.657.06 1.868-.09 2.806-.048.297-.051.382-.015.382.014 0 .112-.105.218-.233a10.527 10.527 0 0 1 2.005-1.85c.155-.11.195-.174.124-.197l-.243-.074c-.482-.147-.618-.395-.545-.992.091-.741.203-1.1.461-1.482.15-.222.235-.319.574-.655.626-.622 1.439-1.18 2.424-1.663.374-.184.788-.335.918-.335.177 0 .235.234.258 1.049.045 1.58-.124 2.315-.73 3.174-.606.857-1.157 1.338-2.784 2.433-1.386.932-1.966 1.44-2.714 2.374-.25.31-.786 1.08-.786 1.126 0 .009-.056.102-.124.208a7.228 7.228 0 0 0-.501 1.025c-.031.087-.1.324-.153.527-.176.672-.237.836-.31.836-.032 0-.042-.146-.052-.786zm5.964-7.76c.452-.324 1.011-.914 1.335-1.407.261-.399.444-.86.444-1.122 0-.15-.08-.19-.38-.186a1.423 1.423 0 0 0-.498.093c-.666.223-1.522.723-2.211 1.291-.564.465-.676.628-.585.847.06.145.226.216.797.342a12.324 12.324 0 0 1 .932.24.648.648 0 0 0 .166-.098zm-1.927 4.436c.035-.056.217-.17.858-.539.339-.195.836-.484 1.105-.644.697-.412 1.482-.993 1.833-1.355.25-.258.646-.76.646-.82a.86.86 0 0 1 .075-.132c.04-.064.194-.356.34-.648.235-.468.508-.924.677-1.128.437-.53.822-.845 1.501-1.229l.564-.318c.387-.217.512-.309.715-.522a1.74 1.74 0 0 0 .41-.7c.16-.465.217-.426.168.116-.092 1.021-.52 1.906-1.226 2.53-.251.222-.49.38-1.268.842-.873.517-1.133.838-1.629 2.012-.446 1.057-.808 1.668-1.2 2.025-.266.243-.459.349-.788.433-.24.061-.291.064-1.216.055-.77-.007-1.02 0-1.24.035-.364.06-.37.059-.325-.013zm-1.638-7.75c-1.127-.206-1.934-.88-2.343-1.954-.173-.455-.247-.94-.247-1.62 0-.76.126-1.496.43-2.503.102-.343.276-.832.376-1.063.02-.047.053-.13.073-.184.02-.055.067-.17.106-.255l.176-.398c.232-.524.81-1.614.88-1.657.016-.01.027.087.027.253 0 .307-.026.402-.227.823-.26.548-.395.854-.496 1.12a11.3 11.3 0 0 0-.255.737 34.07 34.07 0 0 1-.082.34c-.177.721-.205 1.507-.074 2.055.233.976.982 1.62 2.111 1.813.333.057.97.057 1.363 0 1.467-.212 2.935-1.064 3.71-2.153.332-.467.52-.914.669-1.587.019-.087.039-.755.051-1.729l.02-1.587.177-.439a23.6 23.6 0 0 1 .203-.496c.014-.03.11-.273.212-.538l.288-.744c.056-.144.113-.262.126-.262.039 0 .028 1.487-.017 2.409-.11 2.219-.322 3.36-.9 4.831-.243.618-.796 1.643-1.08 2.003a9.024 9.024 0 0 0-.16.212 8.039 8.039 0 0 1-1.19 1.254c-.89.744-1.83 1.187-2.825 1.333-.27.04-.852.032-1.102-.013zm9.36-2.188c-.122-.093-.75-.588-.822-.646a.227.227 0 0 0-.062-.041 4.3 4.3 0 0 1-.276-.166 7.836 7.836 0 0 0-.44-.258 1.088 1.088 0 0 1-.193-.116c-.012-.019.133-.264.184-.31a2.95 2.95 0 0 0 .132-.185c.063-.093.234-.342.38-.552.633-.92.63-.917.603-.962-.03-.05-.57-.43-.71-.5-.05-.026-.092-.058-.092-.072 0-.013-.01-.022-.021-.018-.042.013-.46-.246-.46-.285 0-.022.085-.163.19-.313l.363-.528c.509-.747.756-1.09.784-1.09.059 0 .63.315.915.505.156.103.36.265.455.358.147.145.181.2.237.375.113.353.06.528-.33 1.09-.516.746-.573.83-.574.861 0 .017.047.062.106.101.468.312.659.485.755.685.085.175.11.431.06.62a1.775 1.775 0 0 1-.275.489c-.014.016-.165.234-.336.483-.287.418-.397.553-.451.553a.516.516 0 0 1-.123-.078zm-6.757-3.67c-.621-.518-1.054-.817-1.59-1.098-.097-.052-.172-.109-.165-.127.007-.018.101-.16.209-.314l.419-.607c.122-.18.23-.332.238-.34.01-.008.117-.164.24-.347a3.67 3.67 0 0 1 .238-.333c.045 0 .56.281.831.453.58.368.762.568.818.902.054.322.009.452-.326.94-.113.163-.281.41-.374.546-.214.315-.306.417-.374.417-.03 0-.103-.041-.164-.092z"/></svg>