<svg viewBox="0 0 24 24" xmlns="http://www.w3.org/2000/svg" role="img"><path d="M13.32 16.129v-.54h.064c.042 0 .064.015.064.041 0 .022.01.036.02.03.286-.146.475-.119.634.093.04.055.053.11.053.234 0 .125-.013.18-.053.234-.136.182-.33.234-.534.143l-.12-.053v.179c0 .173-.001.178-.064.178h-.064zm.608.099a.32.32 0 0 0 .073-.382c-.056-.106-.137-.154-.265-.154-.247 0-.381.295-.221.486.104.124.296.147.413.05zm-10.078.26c-.896-.113-1.709-.511-2.399-1.177-.353-.34-.54-.561-.751-.884-.705-1.082-.898-2.649-.485-3.935.373-1.16 1.266-2.2 2.33-2.709.958-.459 2.218-.579 3.225-.307.752.203 1.468.64 2.082 1.273.704.726 1.073 1.512 1.181 2.513.035.32.022.664-.052 1.369-.043.413-.058.49-.127.638-.072.153-.085.167-.142.153-.034-.009-.07-.005-.077.008-.009.014-.047.011-.093-.006-.077-.03-.078-.031-.062-.171.009-.078.046-.32.083-.54.085-.507.096-1.186.024-1.554-.156-.796-.513-1.501-1.087-2.146-.78-.876-1.857-1.348-3.065-1.343a3.226 3.226 0 0 0-1.186.204c-1.09.378-2.068 1.318-2.487 2.392-.679 1.734-.29 3.55 1.031 4.824.62.598 1.305.933 2.23 1.093.276.047.836.041 1.13-.012.712-.13 1.495-.507 1.968-.949.36-.336.59-.723.721-1.212.063-.236.069-.297.07-.758 0-.473-.003-.513-.07-.727a2.09 2.09 0 0 0-.561-.932c-.6-.578-1.265-.748-2.699-.691l-.481.019v1.506c0 .911.01 1.542.025 1.597.054.192.325.38.484.334a.52.52 0 0 0 .291-.227l.06-.095.013-1.284c.013-1.268.014-1.286.071-1.405l.058-.12h.136c.075 0 .148.008.163.018.018.01.033.265.044.71.008.382.023.913.032 1.182.023.727-.058 1.06-.318 1.3-.188.173-.31.215-.623.214-.242 0-.283-.007-.403-.07a.804.804 0 0 1-.392-.384l-.078-.157v-3.117l-.144-.015a4.878 4.878 0 0 0-.5 0c-.346.015-.357.014-.493-.053a1.225 1.225 0 0 1-.453-.45c-.214-.419-.018-.945.43-1.154l.146-.068.963-.015c.53-.008 1.38-.008 1.888 0l.925.014.171.084a.848.848 0 0 1 .49.776.995.995 0 0 1-.029.258c-.036.107-.286.37-.286.3 0-.055-.022-.056-.082-.001-.026.023-.056.034-.066.024a2.436 2.436 0 0 1-.033-.396c-.017-.468-.056-.555-.307-.689-.085-.045-.179-.048-1.749-.048H2.877l-.126.078c-.332.204-.413.612-.169.856.161.161.164.162 1.83.169 1.63.007 1.793.019 2.242.16 1.225.387 1.907 1.606 1.695 3.033a2.628 2.628 0 0 1-.602 1.374c-.58.694-1.36 1.112-2.414 1.291-.287.049-1.203.071-1.483.036zm14.966-.27v-.295h.465c.368 0 .46.007.441.032-.013.018-.12.15-.235.296l-.212.263h-.46zm-6.254.157a.426.426 0 0 1-.083-.718.426.426 0 0 1 .44-.046c.096.042.119.045.119.015 0-.022.025-.037.064-.037h.064v.796h-.064c-.04 0-.064-.014-.064-.038 0-.032-.017-.03-.096.013a.462.462 0 0 1-.38.015zm.28-.102a.3.3 0 0 0 .196-.292c0-.096-.015-.128-.088-.202-.072-.072-.106-.087-.2-.087-.193 0-.321.147-.295.34a.286.286 0 0 0 .185.24c.097.043.1.043.202.001zm1.64.095c-.304-.149-.3-.617.004-.755a.379.379 0 0 1 .376.008.45.45 0 0 1 .23.359v.072h-.347c-.38 0-.402.01-.289.14a.282.282 0 0 0 .435-.013c.034-.046.08-.076.116-.076.074 0 .074.022.002.128a.423.423 0 0 1-.528.137zm.444-.52c-.055-.107-.137-.156-.261-.156-.087 0-.124.016-.187.079-.137.136-.116.152.204.152h.283zm.359.533c-.079-.042-.116-.1-.116-.18 0-.1.088-.1.123 0 .029.083.094.11.181.078.048-.017.057-.038.05-.105-.006-.074-.024-.092-.156-.155-.16-.076-.212-.153-.185-.277.024-.11.104-.166.236-.166.09 0 .126.014.164.061.07.086.065.158-.012.158-.04 0-.066-.018-.075-.052-.016-.061-.124-.07-.172-.013-.049.06-.011.114.118.17.172.077.216.131.216.265 0 .095-.013.124-.079.18a.265.265 0 0 1-.293.036zm1.513.005c-.062-.025-.19-.17-.191-.214a.476.476 0 0 0-.016-.088c-.013-.05-.005-.058.05-.058.051 0 .071.018.095.09.055.169.23.22.347.104.133-.133.042-.374-.14-.374-.067 0-.079-.01-.079-.064 0-.05.013-.064.06-.064a.163.163 0 0 0 .157-.122c.02-.064-.08-.186-.152-.186-.05 0-.142.09-.142.14 0 .025-.024.04-.064.04-.075 0-.083-.045-.026-.155.05-.096.111-.128.244-.128s.194.032.244.128c.049.095.049.163-.001.26-.038.073-.037.08.025.154.127.15.067.43-.111.522a.402.402 0 0 1-.3.015zm-4.89-.476v-.475h-.129c-.12 0-.128-.004-.128-.064v-.064h.616v.064c0 .059-.01.064-.115.064h-.116v.95h-.128zm3.852-.064v-.54h.064c.062 0 .064.007.064.168v.168l.076-.04a.35.35 0 0 1 .451.123c.04.065.052.144.06.371l.01.29h-.065c-.065 0-.065 0-.074-.281-.008-.255-.014-.287-.07-.347a.191.191 0 0 0-.146-.066c-.198 0-.242.08-.242.435v.258h-.128zm1.72.437c0-.093.007-.103.065-.103.057 0 .064.01.064.103 0 .092-.007.102-.064.102-.058 0-.065-.01-.065-.102zm.334-.296v-.398h.129v.796h-.129zm.283 0v-.398h.064c.035 0 .064.011.064.024 0 .014.032.008.07-.012.109-.057.161-.048.161.027 0 .041-.014.064-.04.064-.023 0-.075.034-.116.075-.073.074-.075.08-.075.347v.271h-.128zm.719-.45v-.307h.86c.473 0 .86.009.86.02 0 .01-.104.149-.231.307l-.232.29h-1.257Zm-8.83.206c-.285-.075-.479-.19-.713-.422a1.486 1.486 0 0 1-.472-1.117 1.603 1.603 0 0 1 1.192-1.555c.285-.072.775-.036.982.073.056.03.052.037-.165.295-.221.263-.224.266-.317.25-.126-.02-.368.028-.51.1a.898.898 0 0 0-.418.419c-.078.16-.084.19-.083.429 0 .23.008.271.072.394a.921.921 0 0 0 .994.494c.294-.053.374-.123 1.035-.916l.587-.704h.835l.015.13c.052.434.452.808.865.808.313 0 .643-.225.798-.545.05-.104.062-.177.074-.479l.014-.356.321-.29.321-.291.007.608a6.96 6.96 0 0 1-.016.715c-.03.143.013.228.206.407a.71.71 0 0 0 .333.195.92.92 0 0 0 1.106-.485c.08-.163.085-.187.093-.512l.008-.341.326-.294.325-.293.007.592c.004.326-.004.652-.017.724-.022.117-.018.14.034.221.229.348.483.448 1.104.432.354-.009.4-.015.534-.078.194-.09.38-.266.471-.45.07-.138.075-.173.085-.507l.01-.36.243-.218c.133-.12.282-.252.331-.293l.09-.074-.004.684c-.004.658-.002.687.052.793a.946.946 0 0 0 .613.473c.214.05 1.077.047 1.276-.005a.988.988 0 0 0 .657-.573c.044-.113.06-.218.068-.474l.012-.328.312-.28.311-.279.008.608c.009.704-.008.829-.153 1.131a1.643 1.643 0 0 1-1.01.837c-.218.057-1.453.058-1.67.002a1.49 1.49 0 0 1-.65-.36l-.171-.161-.145.132c-.184.167-.425.31-.639.38-.135.043-.252.056-.616.065-.395.01-.477.005-.68-.043a1.507 1.507 0 0 1-.7-.348l-.148-.134-.131.12a1.54 1.54 0 0 1-1.076.397c-.24 0-.312-.01-.485-.07a1.425 1.425 0 0 1-.565-.328l-.136-.124-.087.09c-.246.256-.683.435-1.05.431-.523-.005-1.094-.347-1.328-.796-.04-.076-.08-.135-.089-.131a13.57 13.57 0 0 0-.423.507 12.32 12.32 0 0 1-.576.668 1.57 1.57 0 0 1-1.483.41zm7.828-.333c0-.093.007-.103.064-.103.058 0 .065.01.065.103 0 .092-.007.102-.065.102-.057 0-.064-.01-.064-.102zm-6.683-1.951a2.258 2.258 0 0 1-.251-.066c-.115-.038-.126-.048-.097-.085.018-.024.118-.144.222-.267.19-.224.19-.225.31-.225.161 0 .407-.047.5-.096.144-.074.34-.285.41-.441.128-.283.108-.645-.048-.88-.035-.053-.3-.295-.59-.538a10.75 10.75 0 0 1-.527-.458c0-.009.215-.193.476-.411.716-.594.768-.666.769-1.067 0-.196-.01-.253-.068-.377a1.012 1.012 0 0 0-.412-.446c-.122-.068-.16-.076-.367-.076-.214 0-.243.007-.393.088a.924.924 0 0 0-.41.438c-.057.116-.07.182-.075.36l-.005.219-.25.212c-.251.211-.292.237-.292.183 0-.02-.013-.019-.04.004-.05.041-.07.018-.126-.143-.067-.19-.082-.626-.03-.835.139-.553.56-.988 1.12-1.157a2.21 2.21 0 0 1 .9-.026c.572.134 1.053.61 1.196 1.184.057.226.038.618-.04.847-.111.326-.315.596-.64.848a1.54 1.54 0 0 0-.182.154c0 .007.093.088.208.18.115.091.26.23.325.308a2 2 0 0 1 .337.688c.04.19.034.501-.012.696-.12.514-.578.983-1.116 1.144a2.59 2.59 0 0 1-.802.04zm10.766-1.067v-.32h.991c.728 0 .989.007.981.028a4.08 4.08 0 0 1-.265.32l-.256.29-.725.001-.726.002zm-8.148-.02.236-.295.21-.263h1.258v.591h-.864c-.687 0-.858-.007-.839-.032zm.796-.67c.011-.018.1-.134.198-.256l.178-.222h.531v.513h-.464c-.38 0-.46-.006-.443-.034z"/></svg>