<svg viewBox="0 0 24 24" xmlns="http://www.w3.org/2000/svg" role="img"><path d="M11.975 20.416c-.483-.065-.847-.23-1.186-.534-.19-.17-.206-.188-.365-.427a2.534 2.534 0 0 1-.315-.677 1.69 1.69 0 0 1-.071-.368c-.04-.343-.01-.717.079-.994.055-.173.175-.448.215-.493a2.351 2.351 0 0 1 .373-.482c.31-.31.628-.486 1.097-.607.13-.033.148-.035.462-.035h.327l.16.043c.58.154.97.43 1.284.905.139.211.318.672.277.713-.01.009-.182.013-.512.013h-.498l-.022-.04a1.767 1.767 0 0 0-.239-.304 1.027 1.027 0 0 0-.585-.317c-.2-.032-.502-.017-.635.032-.24.09-.472.292-.62.544-.118.198-.167.38-.178.663-.01.29.027.474.145.712.09.183.217.336.365.443a.796.796 0 0 0 .292.154c.152.052.285.068.482.06.308-.013.538-.103.714-.279.096-.095.23-.291.248-.361.019-.078.002-.076.545-.072l.496.003-.004.06a.826.826 0 0 1-.04.167c-.186.536-.453.9-.854 1.165-.227.15-.444.236-.712.284-.111.02-.214.028-.417.03a4.907 4.907 0 0 1-.308-.001zm7.107 0a3.14 3.14 0 0 1-.405-.08 2.282 2.282 0 0 1-.925-.626 3.036 3.036 0 0 1-.334-.492l-.082-.175a.576.576 0 0 1-.043-.11c0-.01-.015-.06-.032-.11a2.464 2.464 0 0 1 .044-1.574c.025-.081.19-.402.248-.485.151-.212.46-.516.637-.627.212-.134.407-.219.654-.286.192-.052.287-.061.566-.055.249.006.27.01.435.052.216.057.458.148.544.205.036.024.085.054.108.066.148.076.446.351.592.546.19.253.329.554.422.915.072.277.067.813-.01 1.112a2.578 2.578 0 0 1-.226.59c-.28.492-.646.817-1.136 1.012-.225.089-.405.119-.75.124a4.907 4.907 0 0 1-.307-.002zm.552-1.068a.871.871 0 0 0 .337-.15c.185-.12.34-.3.458-.53.098-.192.14-.494.104-.746a1.161 1.161 0 0 0-.136-.429 1.188 1.188 0 0 0-.545-.54c-.35-.17-.632-.17-.978.005a1.11 1.11 0 0 0-.416.34 1.321 1.321 0 0 0-.182 1.292c.063.154.088.2.165.301.225.297.466.438.834.487.068.009.254-.006.359-.03zM.699 20.395a133.37 133.37 0 0 1-.01-1.812l-.002-1.796-.344-.003L0 16.781v-.936h2.438v.936l-.337.003-.337.003-.006 1.809-.006 1.809-.523.003c-.412.003-.524 0-.53-.013zm2.26.007a145.92 145.92 0 0 1-.009-2.283v-2.275h.911v.234c0 .222.007.275.034.264a.957.957 0 0 0 .096-.1c.23-.266.514-.423.817-.451.099-.01.137-.01.15.003.016.012.019.092.019.478 0 .255-.004.47-.01.478-.005.008-.039.018-.074.023-.322.045-.515.123-.672.271a.545.545 0 0 0-.144.197c-.03.06-.061.148-.071.194-.062.278-.06.213-.067 1.629l-.008 1.34-.482.004a7.02 7.02 0 0 1-.491-.005zm4.116.002a3.662 3.662 0 0 0-.16-.019 1.51 1.51 0 0 1-.443-.105 2.05 2.05 0 0 1-.793-.54 2.194 2.194 0 0 1-.478-.811 2.306 2.306 0 0 1-.13-.923 2.34 2.34 0 0 1 .653-1.58 2.054 2.054 0 0 1 1.498-.614c.162 0 .278.006.327.017l.167.037c.163.035.349.113.444.186a1.154 1.154 0 0 1 .328.302c.033.046.063.077.07.07.006-.005.012-.117.014-.247l.003-.237H9.5l.003 2.173c.002 1.595 0 2.178-.011 2.19-.02.024-.883.026-.907.002-.011-.01-.016-.084-.016-.25 0-.254-.008-.28-.058-.186a1.266 1.266 0 0 1-.153.176.822.822 0 0 1-.248.19 1.243 1.243 0 0 1-.445.145 4.543 4.543 0 0 1-.59.024zm.43-1.054c.19-.038.365-.136.523-.291a1.11 1.11 0 0 0 .3-.432c.081-.195.093-.261.093-.52 0-.261-.014-.337-.11-.55a1.158 1.158 0 0 0-.291-.407.9.9 0 0 0-.254-.187c-.35-.18-.659-.182-1.012-.009a1.29 1.29 0 0 0-.655.897c-.035.229-.013.563.047.716.068.174.202.38.324.494.07.066.238.182.337.232.163.082.454.106.697.057zm7.8-.74c0-1.484-.004-1.804-.018-1.815-.011-.01-.13-.016-.35-.018l-.332-.003-.003-.465-.003-.465 1.222.003 1.222.003v.924l-.34.006-.34.006-.006 1.808-.006 1.81-.523.002-.522.003zm6.657-.483v-2.283h.924v.25c0 .202.003.25.017.25a.42.42 0 0 0 .1-.098c.15-.18.38-.337.612-.417.074-.025.336-.057.369-.044.015.006.018.084.015.49l-.003.485-.141.023c-.261.043-.377.084-.53.187a.593.593 0 0 0-.217.253c-.14.273-.148.366-.154 1.946l-.004 1.242h-.987zm-15.26-3.7a3.312 3.312 0 0 1-.667-.124 17.96 17.96 0 0 0-.234-.06c-.049-.01-.046-.028.018-.098.08-.088.13-.157.204-.283l.099-.167a5.3 5.3 0 0 0 .216-.488 5.39 5.39 0 0 0 .28-1.36c.008-.098.017-.214.022-.256a7.4 7.4 0 0 0-.005-.789c-.034-.38-.15-.691-.348-.94-.07-.089-.28-.292-.3-.292a.406.406 0 0 1-.078-.044c-.234-.155-.674-.24-1.039-.2-.555.06-.99.328-1.19.734-.156.315-.174.509-.142 1.486.013.386.028.575.06.776a.333.333 0 0 1 .007.113 1.802 1.802 0 0 1-.252.006l-.243-.004-.106-.141a4.775 4.775 0 0 1-.328-.49 6.306 6.306 0 0 0-.11-.187 1.192 1.192 0 0 1-.079-.154 1.73 1.73 0 0 0-.075-.157 1.028 1.028 0 0 1-.058-.122 6.433 6.433 0 0 0-.092-.239 2.528 2.528 0 0 1-.082-.224.988.988 0 0 0-.04-.14 3.61 3.61 0 0 1-.159-.725c-.06-.357-.062-.373-.062-.827 0-.459.002-.486.068-.892.049-.302.064-.37.157-.686l.037-.13a6.66 6.66 0 0 1 .319-.768c.133-.27.428-.725.603-.933a5.53 5.53 0 0 1 .4-.438 6.45 6.45 0 0 1 .451-.414 5.818 5.818 0 0 1 .83-.55.497.497 0 0 1 .078-.042 6.376 6.376 0 0 1 1.212-.45 9.71 9.71 0 0 1 .795-.126c.175-.02.766-.029.847-.012.035.007.136.02.224.028.089.008.237.028.33.045.094.017.184.03.2.03.093 0 .693.184.91.278a.924.924 0 0 0 .113.044 8.7 8.7 0 0 1 .585.292c.275.16.662.435.853.608.134.121.437.42.469.463.015.02.055.066.089.102.21.221.544.729.726 1.1.043.089.087.17.097.183.019.021.192.023 3.305.023 3.638 0 3.39-.006 3.615.085a.949.949 0 0 1 .3.174c.154.124.273.304.355.538l.042.12.006.831.006.832.21.07c.227.076.497.206.672.324a2.569 2.569 0 0 1 .995 1.34c.132.412.16.875.077 1.263-.015.069-.031.15-.037.183-.043.228-.267.695-.42.874a.385.385 0 0 0-.054.074.565.565 0 0 1-.074.087l-.108.114a3.24 3.24 0 0 1-.264.239c-.356.259-.715.42-1.091.487a2.25 2.25 0 0 1-.484.03c-.33-.001-.503-.02-.712-.079a3.821 3.821 0 0 1-.615-.273 14.071 14.071 0 0 0-.147-.097c-.439-.285-.79-.759-.969-1.309a4.955 4.955 0 0 0-.077-.224c-.009-.017-.343-.02-2.868-.023a191.232 191.232 0 0 1-2.87-.014c-.01-.01.017-.27.042-.387.026-.123.04-.528.036-1.032l-.004-.526-.037-.128a1.89 1.89 0 0 0-.184-.428 1.946 1.946 0 0 0-.333-.338 2.033 2.033 0 0 0-.2-.107c-.515-.246-1.224-.222-1.657.056a1.473 1.473 0 0 0-.59.772 3.338 3.338 0 0 0-.078.269c-.044.204-.047.957-.006 1.36.026.262.099.684.145.846a4.732 4.732 0 0 0 .285.784c.036.104.31.533.383.601.043.04.042.06-.002.068-.02.003-.12.03-.222.059-.386.108-.704.146-1.276.151-.374.003-.457 0-.706-.026zm12.912-1.288c.246-.072.402-.16.554-.314.29-.294.422-.7.364-1.117a1.208 1.208 0 0 0-.378-.752 1.071 1.071 0 0 0-.463-.29c-.099-.032-.127-.036-.314-.036-.18-.001-.218.003-.308.03-.272.08-.464.227-.677.516a1.533 1.533 0 0 0-.19.48c-.028.127-.02.39.014.524.105.417.348.725.697.887.081.037.218.079.33.1.065.013.29-.004.372-.028zm-2.702-2.034a2.48 2.48 0 0 1 .665-1.067c.207-.202.428-.356.684-.479.098-.047.401-.153.517-.182l.055-.013-.004-.529-.004-.528-.051-.094a.6.6 0 0 0-.259-.26l-.086-.044-2.864-.003-2.865-.003-.008.032a.174.174 0 0 0 .005.074c.007.023.022.1.033.17.102.67.088 1.235-.048 1.957a7.753 7.753 0 0 1-.13.513 5.676 5.676 0 0 1-.213.568c-.02.048-.035.093-.03.1.005.007.87.012 2.269.012h2.261z"/></svg>