<svg role="img" viewBox="0 0 24 24" xmlns="http://www.w3.org/2000/svg"><path d="M12.318 1.645c-.297-.012-.65-.005-.65.012 0 .033.314.813.337.836.005.005.096.02.2.033.576.074.986.244 1.287.533.105.102.226.262.287.383.093.186.158.45.17.7l.007.161-.56.008c-.308.005-1.087.01-1.73.016l-1.17.008-.006-.03a40.83 40.83 0 0 1-.045-.226c-.153-.785-.469-1.416-.969-1.942l-.113-.119-.326.186c-.18.102-.333.19-.338.195a.676.676 0 0 0 .09.16c.461.703.727 1.383.83 2.125.03.221.03.752 0 .973-.207 1.484-1.235 2.66-2.715 3.11a3.873 3.873 0 0 1-1.154.163 4.18 4.18 0 0 1-1.04-.117l-.097-.023v.388c0 .213.003.39.008.395v.002c.004.004.86.006 1.9.004l1.893-.002.56-1.106.56-1.103.3.004c.44.006 3.172.075 3.177.08.003.002-.216.474-.484 1.05l-.489 1.05 1.016.001c.559.002 1.02 0 1.025-.006.005-.005.24-.498.522-1.095.282-.597.515-1.086.517-1.088.002-.002.92.01 2.038.025 1.118.015 2.036.025 2.039.022a1.194 1.194 0 0 0-.026-.176c-.309-1.684-1.417-3.266-3.035-4.336a7.503 7.503 0 0 0-3.816-1.254zM8.025 2.678c-.04.001-.078.027-.371.252-.294.226-.354.276-.354.301a.84.84 0 0 0 .102.158c.38.514.579 1.036.601 1.58.025.605-.197 1.2-.609 1.633-.614.645-1.51.89-2.416.662-.2-.05-.208-.051-.226-.017-.014.024-.114.806-.114.884 0 .03.008.041.041.055.082.034.477.104.703.125.032.002.202.004.38.002a3.04 3.04 0 0 0 .837-.1c.246-.063.408-.124.633-.234a3.13 3.13 0 0 0 .871-.625c.553-.55.881-1.255.951-2.039a3.297 3.297 0 0 0-.898-2.535c-.078-.082-.103-.102-.131-.102zm-1.223.98-.261.27a17.35 17.35 0 0 0-.3.317l-.038.047.082.105c.107.135.2.324.228.465a.876.876 0 0 1-.521.988.894.894 0 0 1-.657-.035.372.372 0 0 0-.074-.03c-.012.013-.345.754-.345.768 0 .027.322.12.502.145.16.023.46.015.62-.018a1.71 1.71 0 0 0 .91-.492c.212-.212.322-.387.41-.652a1.61 1.61 0 0 0-.003-1.008 2.218 2.218 0 0 0-.45-.76zm3.131 4.28-.047.094c-.025.05-.261.553-.527 1.117l-.485 1.025H6.781c-1.863 0-2.092.003-2.092.02 0 .028.06.3.09.41.302 1.097.945 2.159 1.853 3.066a7.583 7.583 0 0 0 3.004 1.87c.6.2 1.26.32 1.938.357.13.006.802-.002.81-.01.01-.01-.044-.132-.234-.514l-.174-.345-.195-.028c-.682-.095-1.087-.292-1.364-.662-.171-.23-.303-.59-.347-.95a1.42 1.42 0 0 0-.014-.1l-.006-.034h3.508l.016.092c.08.494.26.973.53 1.408.152.244.518.707.589.744.03.016.037.012.119-.045l.21-.146c.068-.047.166-.106.22-.133l.097-.049-.043-.062c-.024-.034-.095-.13-.156-.217-1.027-1.437-1.109-3.13-.215-4.47.167-.25.264-.366.479-.58.273-.274.56-.49.894-.674.856-.471 1.948-.617 2.965-.397a.78.78 0 0 0 .121.022.363.363 0 0 0-.006-.08l-.045-.374a3.935 3.935 0 0 0-.04-.304c-.011-.01-3.08-.052-3.473-.047l-.295.004-.118.246c-.064.135-.187.403-.271.594-.334.755-.42.95-.523 1.164l-.108.222-1.738-.006-1.746-.007a38.92 38.92 0 0 1 .49-1.1c.274-.603.496-1.098.494-1.1a85.039 85.039 0 0 0-1.037-.011zm8.328 1.312a3.852 3.852 0 0 0-.857.086 3.55 3.55 0 0 0-1.055.444 3.142 3.142 0 0 0-1.098 1.246c-.157.32-.254.626-.31.978a4.41 4.41 0 0 0 .006.99 3.372 3.372 0 0 0 .9 1.793.054.054 0 0 0 .055.006c.034-.013.625-.45.685-.507.023-.022.041-.048.041-.057a.486.486 0 0 0-.082-.106 2.473 2.473 0 0 1-.603-1.185c-.025-.126-.028-.182-.028-.436s.004-.308.03-.435a2.38 2.38 0 0 1 .357-.86c.125-.189.378-.45.565-.581.548-.387 1.25-.527 1.994-.4.08.013.188.035.24.048.052.013.1.02.11.018.02-.009.036-.07.066-.27.022-.15.032-.234.058-.518.01-.098-.014-.116-.191-.156a4.215 4.215 0 0 0-.883-.098zm-.258 1.573c-.757.138-1.366.735-1.484 1.457-.03.176-.018.446.025.615.077.304.215.55.461.822.107.118.134.143.164.143s.08-.045.297-.256c.143-.14.27-.271.28-.291.018-.035.016-.038-.038-.102-.26-.31-.337-.696-.209-1.047.152-.415.57-.572 1.09-.412.084.027.087.027.11.004A9.68 9.68 0 0 0 19.05 11c.009-.03.008-.045-.004-.054a2.05 2.05 0 0 0-.398-.121 2.302 2.302 0 0 0-.645-.002zm5.994 4.115c-.014-.014-.094.039-.178.117-1.04.744-1.908 1.26-2.867 2.016-.05.049-.125.14-.17.203-.087.122-.189.293-.189.318 0 .025.037.006.113-.058.208-.175.49-.373 1.324-.928 1.06-.705 1.487-1.013 1.676-1.21.127-.13.318-.431.291-.458zm-.963 1.49c-.024.011-.046.045-.086.111-.096.164-.171.319-.171.354 0 .033.02.054.142.142l.125.09c.021.016.046.03.055.03.03 0 .138-.135.187-.233.058-.113.073-.22.041-.281a.508.508 0 0 0-.187-.186c-.052-.026-.081-.038-.106-.027zm-16.66.455-.039.06a4.244 4.244 0 0 0-.242.542c-.056.158-.073.258-.103.597-.088.99-.103 1.139-.139 1.328a1.615 1.615 0 0 0-.025.164c0 .03.005.028.05-.035.15-.206.26-.514.31-.859.01-.073.039-.336.064-.586.06-.619.092-.89.115-1.018a.81.81 0 0 0 .013-.15zm16.996.131c-.024.013-.104.12-.2.264l-.054.078-.088-.086c-.082-.082-.194-.154-.242-.154-.012 0-.038.02-.058.044a3.1 3.1 0 0 0-.252.428l-.022.06.043.038c.024.02.099.072.164.117.066.045.13.082.145.082.037 0 .171-.143.226-.242a.61.61 0 0 1 .057-.09.532.532 0 0 1 .115.082c.127.104.175.137.205.137.034 0 .125-.091.196-.194.104-.152.127-.242.084-.334-.055-.114-.26-.262-.319-.23zm-9.619.367c-.043 0-.049.005-.111.1a1.605 1.605 0 0 0-.18.37c-.015.059-.015.062.018.095a2.943 2.943 0 0 0 .324.217c.022.002.114-.08.16-.145.122-.171.15-.3.094-.408-.064-.124-.205-.229-.305-.229zm-9.796.092c-.026-.026-.125.161-.243.453-.11.276-.12.322-.183 1.07-.05.594-.08.843-.133 1.143l-.006.037.04-.043c.049-.056.143-.23.189-.348.1-.26.13-.43.207-1.193.063-.633.085-.819.115-.994a.562.562 0 0 0 .014-.125zm7.335.055-.029.029c-.034.032-.176.343-.248.545-.062.174-.084.283-.107.56-.07.838-.105 1.177-.147 1.407a2.15 2.15 0 0 0-.023.148c0 .031.013.016.084-.092.13-.199.216-.444.267-.752.015-.085.05-.389.078-.673.06-.595.096-.915.114-.993a.658.658 0 0 0 .011-.117zm9.293.119c-.072 0-.293.53-.338.81a5.07 5.07 0 0 0-.03.344c-.024.386-.06.525-.153.604-.05.042-.083.041-.219-.006-.188-.066-.222-.049-.498.24-.221.232-.29.285-.488.38-.339.164-.886.298-1.477.364a8.219 8.219 0 0 1-1.154.059c-.476 0-.566-.004-.67-.024-.405-.076-.533-.177-.566-.449a2.986 2.986 0 0 1-.014-.123c0-.033-.024-.015-.057.041-.077.132-.146.65-.107.814.057.246.23.36.63.414v.002c.135.019.977.007 1.188-.017.758-.085 1.565-.291 1.998-.508.254-.127.457-.316.645-.601.171-.26.193-.274.39-.213.207.064.278.048.416-.094.178-.182.312-.553.368-1.016a9.17 9.17 0 0 1 .101-.726c.041-.214.05-.295.035-.295zm-7.486.441c-.015-.023-.039.028-.135.283-.156.419-.165.447-.213.77-.094.636-.113.856-.105 1.197.007.283.028.388.1.535a.5.5 0 0 0 .337.282c.07.012.216.006.301-.014.113-.027.307-.13.414-.223.137-.118.229-.232.414-.515a9.81 9.81 0 0 1 .25-.366c.107-.143.148-.229.153-.316.003-.06.003-.062-.037-.066a.317.317 0 0 0-.11.021c-.108.04-.257.063-.47.072-.196.008-.27 0-.27-.03 0-.017.21-.165.38-.27a4.55 4.55 0 0 1 .595-.301c.179-.072.213-.09.28-.158.14-.14.235-.318.218-.41-.011-.059-.105-.15-.207-.2-.092-.045-.243-.081-.295-.07-.078.017-.354.424-.389.574l-.014.057.059.052.058.053-.08.041c-.18.091-.537.335-.652.446-.133.128-.242.312-.242.41 0 .11.044.136.242.148.116.007.182.002.477-.03l.08-.007-.028.04c-.145.203-.514.366-.8.353a.4.4 0 0 1-.301-.123c-.127-.12-.18-.26-.2-.516-.016-.226.005-.418.12-1.145.082-.522.085-.551.07-.574zm10.373.088a.398.398 0 0 0-.074.113.68.68 0 0 1-.088.137c-.037.036-.044.038-.168.043-.11.005-.14.01-.196.04-.086.044-.196.146-.333.312a.87.87 0 0 1-.172.171c-.067.04-.099.042-.366.024-.21-.014-.332.014-.556.127-.206.103-.342.207-.569.428-.209.204-.277.284-.523.628a4.402 4.402 0 0 1-.572.678 5.681 5.681 0 0 1-.776.63c-.118.08-.16.124-.162.157 0 .028.11-.015.295-.113.488-.258.799-.521 1.18-.996.418-.52.738-.78 1.066-.865.092-.024.124-.025.35-.018.204.007.256.004.293-.012.058-.024.216-.18.35-.347.303-.381.32-.396.492-.424a.506.506 0 0 0 .328-.168c.109-.122.226-.381.226-.5 0-.054-.001-.058-.025-.045zm-5.996.426c-.039-.01-.058.013-.197.22l-.092.135-.086-.086c-.079-.078-.214-.165-.258-.164-.03.001-.21.275-.289.446-.047.1-.055.089.139.236.094.072.141.1.168.1.052 0 .15-.097.228-.225a.381.381 0 0 1 .078-.104c.009 0 .056.033.104.073.21.176.216.179.326.062.134-.143.207-.296.19-.402a.464.464 0 0 0-.14-.203.522.522 0 0 0-.171-.088zm-9.308.125c-.036-.007-.046 0-.084.047-.024.029-.08.11-.127.18l-.086.126-.073-.076a.602.602 0 0 0-.25-.166c-.039-.008-.042-.006-.13.13-.11.165-.216.372-.206.4.007.018.234.2.29.232.044.025.08.015.134-.033.045-.04.19-.243.203-.285.005-.013.06.025.211.15.091.075.114.08.176.039a.948.948 0 0 0 .217-.281c.032-.073.035-.185.006-.24a.649.649 0 0 0-.196-.192.398.398 0 0 0-.085-.031zm-5.332.021c-.036-.022-.12.137-.213.412-.084.247-.091.303-.075.543.018.244.009.535-.019.637-.125.458-.61.864-1.176.986-.144.032-.47.031-.592 0-.22-.056-.395-.179-.47-.33-.058-.114-.07-.19-.063-.357.01-.187.041-.304.178-.65.08-.202.102-.269.088-.272-.036-.008-.073.048-.188.283-.128.263-.225.53-.273.756-.039.186-.042.585-.006.713a.768.768 0 0 0 .613.576H.64c.059.013.137.017.276.014a.995.995 0 0 0 .31-.04c.15-.043.37-.151.5-.247a2.9 2.9 0 0 0 .48-.489c.321-.418.526-.92.598-1.472.039-.295.06-1.044.03-1.063zm2.337.45c-.035 0-.055.026-.097.136-.06.156-.127.228-.332.348-.306.18-.42.302-.58.633-.122.248-.16.3-.313.424a11.55 11.55 0 0 1-.588.42c-.088.055-.174.132-.174.154 0 .009.017.022.036.029.051.019.059.018.263-.03.31-.07.423-.117.545-.228.085-.077.14-.158.252-.377.136-.263.26-.408.49-.564.075-.051.166-.117.2-.149.128-.119.243-.337.287-.548.025-.122.03-.248.011-.248zm7.065.2c-.017.007-.042.049-.073.124-.076.184-.111.221-.332.351-.314.186-.448.332-.591.65-.09.202-.131.26-.266.376-.099.085-.196.156-.598.435-.168.117-.209.16-.183.192.024.028.09.025.28-.018.466-.105.583-.19.773-.559.158-.31.283-.454.53-.62.189-.127.275-.22.358-.381.079-.154.114-.267.13-.413.012-.129.008-.15-.028-.136zm-1.887.04c-.029 0-.072.047-.121.13-.16.273-.437.428-1.082.602a7.642 7.642 0 0 1-2.018.266c-.594 0-.928-.068-1.101-.225-.081-.073-.113-.137-.129-.267-.01-.072-.02-.114-.03-.114-.053 0-.12.253-.156.588-.036.343.095.556.393.64.111.032.233.049.441.06.219.01.59.004.877-.014.638-.042 1.353-.192 1.826-.385.514-.209.754-.409.934-.77.11-.22.204-.511.166-.511zm-8.89.224c-.045-.006-.05-.004-.098.065a1.63 1.63 0 0 0-.2.416l-.015.084.033.035c.02.02.1.075.18.123.082.05.159.088.178.088.07 0 .22-.212.27-.38.024-.087.014-.14-.046-.23a.47.47 0 0 0-.302-.2zm10.505 1.795c-.06 0-.19.21-.295.477a.122.122 0 0 0-.006.066c.009.026.117.105.268.196.04.024.079.044.086.044.052 0 .174-.138.238-.27.05-.102.055-.18.016-.265-.054-.117-.214-.247-.307-.248zm-6.95.014c-.033 0-.087.067-.216.262l-.06.09-.092-.084a.721.721 0 0 0-.24-.16c-.023-.008-.04.009-.104.103a2.21 2.21 0 0 0-.205.355l-.035.082.11.086c.06.048.134.102.165.123.042.028.065.038.088.032.049-.012.134-.103.211-.225a.647.647 0 0 1 .078-.11c.005 0 .057.041.116.09.058.05.13.101.16.116l.053.025.044-.033a.98.98 0 0 0 .206-.26c.047-.092.052-.192.017-.262-.053-.104-.215-.23-.297-.23z"/></svg>