<svg role="img" viewBox="0 0 24 24" xmlns="http://www.w3.org/2000/svg"><path d="M1.386 23.94C.687 23.717.18 23.157.049 22.462c-.065-.348-.065-20.587 0-20.935A1.927 1.927 0 0 1 1.115.157l.318-.15h21.211l.358.177c.41.203.686.48.876.879L24 1.32v21.347l-.122.258c-.19.4-.465.676-.876.879l-.358.177-10.535.009c-8.42.007-10.573-.003-10.723-.051zm12.02-.71a10.98 10.98 0 0 0 3.477-1.033 10.539 10.539 0 0 0 2.992-2.108c1.724-1.715 2.822-3.9 3.193-6.359.101-.667.114-2.256.024-2.908-.232-1.678-.82-3.316-1.644-4.585l-.281-.433-.273.27c-.628.622-1.345.94-2.318 1.028l-.405.037.3.415a8.217 8.217 0 0 1 1.43 3.526c.076.485.076 1.77 0 2.252-.197 1.237-.596 2.266-1.266 3.266a7.824 7.824 0 0 1-4.116 3.136c-.844.28-1.522.388-2.483.39-.852.004-1.28-.052-2.156-.279-1.11-.287-2.175-.084-3.036.577a3.495 3.495 0 0 0-.434.401c-.19.223-.21.21-.075-.053.304-.597.388-1.572.195-2.268-.14-.501-.305-.811-.764-1.43a8.475 8.475 0 0 1-1.031-1.748C3.223 11.817 4.45 7.71 7.649 5.578c2.056-1.369 4.804-1.696 7.077-.842.342.128.429.147.402.086-.227-.518-.28-1.497-.116-2.132a4.11 4.11 0 0 1 .282-.725c.104-.197.183-.363.176-.369-.037-.037-.9-.262-1.31-.34-1.185-.23-2.77-.252-3.907-.057-3.13.539-5.753 2.231-7.491 4.837-.639.957-1.257 2.364-1.536 3.495-.756 3.064-.16 6.31 1.646 8.97 1.765 2.598 4.73 4.387 7.874 4.748.604.07 2.059.059 2.66-.02zm5.53-16.54c.374-.068.964-.36 1.32-.655.309-.256.736-.783.901-1.112.124-.25.225-.682.266-1.146.031-.35.029-.36-.089-.438-.197-.129-.537-.211-1.115-.269-.475-.047-.597-.044-.962.028-.978.191-1.87.889-2.178 1.703-.127.336-.23.888-.232 1.243l-.002.267.387.149c.664.256 1.175.325 1.704.23zM16.46 5.672c.049-1.14.777-2.312 1.732-2.79l.319-.16-.035-.274c-.075-.6-.31-1.244-.587-1.613-.108-.145-.135-.156-.309-.133-.104.014-.362.111-.572.215-.792.393-1.387 1.213-1.596 2.201-.202.953.098 2.02.732 2.608.156.144.288.263.293.263.005 0 .015-.143.023-.317z"/></svg>