<svg role="img" viewBox="0 0 24 24" xmlns="http://www.w3.org/2000/svg"><path color="#000" d="M11.969.002C8.744.025 5.525 1.344 3.313 3.725.043 7.065-.925 12.386.943 16.669c1.787 4.36 6.335 7.394 11.053 7.329a11.95 11.95 0 0 0 5.46-1.313c4.14-2.064 6.82-6.68 6.521-11.301C23.798 6.63 20.48 2.212 15.982.682a11.476 11.476 0 0 0-4.013-.68zm-.003.538c3.009.007 6.02 1.182 8.136 3.355 3.235 3.15 4.26 8.282 2.509 12.44a10.49 10.49 0 0 1-.343.773c-.739-4.168-1.495-8.402-2.234-12.57l-1.752 5.046-.906 2.61-.283.814-.036.104-.234-.549-.343-.803-.622-1.455-.428-1.003-.59 1.132-.796 1.528a40254.552 40254.552 0 0 1-.598 1.15l-.058-.124-.51-1.11-.325-.705-.258-.561-.596.575h-1.085l.133-.178-1.508-1.25-.437.634-5.676-.04-.714-.595-1.6 1.43H.558c.272-4.256 3.127-8.23 7.107-9.802A11.028 11.028 0 0 1 11.966.54zM.546 11.364v.835h1.598l2.767 3.314-2.06 3.386C1.366 16.926.5 14.49.534 12.001c-.003-.213.001-.425.011-.637zm19.012.438.24 1.352.083.455c.335 1.85.691 3.745 1.021 5.616-2.152 2.625-5.482 4.286-8.905 4.237-.175 0-.35-.004-.525-.012l-4.14-7.857 2.528-3.394h2.007l.762 1.368.817 1.469.277.497.147-.294.198-.396.021-.042.065-.129.348-.696.314-.628.427-.854.147-.295.081.207.176.452.347.89.994 2.551.151.39.96.004.026-.086.103-.347.08-.269.016-.051.15-.504.043-.144.11-.366.307-1.033.102-.34.522-1.751zM4.139 12.2h3.693l-1.75 2.124h-.178zm2.043 4.624 3.952 6.488a11.368 11.368 0 0 1-2.471-.696c-1.659-.655-3.122-1.727-4.284-3.063z" fill="#1a1a1a" font-family="sans-serif" font-weight="400" overflow="visible" style="line-height:normal;font-variant-ligatures:normal;font-variant-position:normal;font-variant-caps:normal;font-variant-numeric:normal;font-variant-alternates:normal;font-feature-settings:normal;text-indent:0;text-align:start;text-decoration-line:none;text-decoration-style:solid;text-decoration-color:#000;text-transform:none;text-orientation:mixed;white-space:normal;shape-padding:0;isolation:auto;mix-blend-mode:normal;solid-color:#000;solid-opacity:1"/></svg>