<svg viewBox="0 0 24 24" xmlns="http://www.w3.org/2000/svg" role="img"><path d="M11.728 23.988a3.443 3.443 0 0 1-1.523-.553c-.08-.054-.35-.252-.604-.44-.253-.19-.885-.657-1.403-1.039-1.168-.861-2.023-1.5-2.652-1.98a172.96 172.96 0 0 0-2.6-1.927 32.107 32.107 0 0 1-.691-.512c-.445-.353-.701-.642-.883-.995a2.716 2.716 0 0 1-.292-1.026c-.02-.18-.03-6.421-.013-6.673.032-.426.071-.675.143-.9a3.57 3.57 0 0 1 .3-.621 2.92 2.92 0 0 1 .53-.6c.266-.226 3.716-2.827 5.173-3.902a218.067 218.067 0 0 0 2.82-2.134c.43-.329.962-.564 1.459-.644.781-.126 1.639.036 2.275.43.186.116 1.092.781 2.756 2.023 1.216.908 1.598 1.19 2.078 1.534.521.374.853.62 1.523 1.13.326.249.872.662 1.213.919.655.494.828.643 1.013.874.242.305.413.647.502 1.008.093.376.094.424.088 4.239-.01 3.591 0 3.317-.073 3.603a2.753 2.753 0 0 1-.32.743c-.291.463-.563.707-1.877 1.682-.29.216-.744.56-1.009.765-.264.205-.817.63-1.229.945a113.67 113.67 0 0 0-2 1.555c-.242.192-.61.48-.82.639-.783.593-1.03.784-1.315 1.01-.332.266-.457.35-.685.466-.398.202-.86.344-1.245.381-.162.016-.48.016-.64 0zm.645-2.476a1.78 1.78 0 0 0 .44-.215c.06-.04.28-.205.49-.366.21-.161.723-.554 1.142-.872a91 91 0 0 0 1.684-1.297c.533-.426 1.116-.869 2.369-1.798a81.738 81.738 0 0 0 1.68-1.273c.733-.598 1.151-1.103 1.49-1.801a4.528 4.528 0 0 0 .212-3.408 4.88 4.88 0 0 0-1.687-2.307c-.691-.512-.932-.69-1.173-.863-1.174-.849-1.343-.975-1.98-1.47a158.85 158.85 0 0 0-3.202-2.408l-.87-.641c-.284-.209-.545-.31-.853-.328-.309-.019-.601.074-.936.296-.345.23-7.127 5.314-7.57 5.674-.177.145-.51.472-.66.649a4.403 4.403 0 0 0-.92 1.717c-.092.352-.134.68-.145 1.121-.02.803.12 1.462.45 2.12.237.473.47.793.868 1.19.326.325.446.422 1.247 1.008.373.272.933.687 1.774 1.315.256.19.657.486.891.657.56.408 1.206.89 2.162 1.614.76.576 1.623 1.224 1.846 1.385.21.152.44.268.617.313.142.036.493.03.634-.012zm-.813-2.531c-.236-.015-.674-.063-.688-.076-.016-.016.014-6.226.031-6.318.054-.303.313-.591.654-.73.176-.071.249-.083.494-.083.191 0 .243.005.34.029.293.073.644.308.737.491.073.144.073.139.072 1.396 0 1.068-.025 5.204-.031 5.21-.01.006-.41.056-.557.068-.216.02-.828.027-1.052.013zm-1.348-.23a6.932 6.932 0 0 1-3.793-2.538c-.753-1.01-1.205-2.192-1.345-3.524a9.772 9.772 0 0 1-.02-1.188c.082-1.227.451-2.358 1.082-3.322a6.75 6.75 0 0 1 .926-1.13c.375-.375.66-.613 1.059-.883 1.07-.724 2.221-1.129 3.457-1.215a11.67 11.67 0 0 1 1.19.013c1.376.155 2.543.629 3.586 1.457 1.29 1.025 2.222 2.549 2.53 4.14.087.448.126.883.125 1.386 0 1.133-.238 2.113-.764 3.164-.574 1.148-1.454 2.133-2.485 2.783a7.91 7.91 0 0 1-1.485.713 4.68 4.68 0 0 1-.592.162l-.06.01.01-.631c0-.347.014-1.094.02-1.66.01-.565.013-1.356.013-1.758 0-.417.01-.785.013-.857.053-.496.266-.761.71-.883.097-.026.137-.03.36-.029.302 0 .39.017.568.105a.827.827 0 0 1 .436.529c.02.08.023.158.019.882v.942l.01.148.063-.07c.754-.84 1.223-1.906 1.355-3.085a7.01 7.01 0 0 0 0-.961c-.124-1.239-.652-2.391-1.478-3.225a5.148 5.148 0 0 0-2.9-1.453 5.691 5.691 0 0 0-.993-.04c-.567.017-.96.083-1.427.24a5.265 5.265 0 0 0-3.083 2.73 5.071 5.071 0 0 0-.513 2.498c.017.335.039.52.094.798a5.204 5.204 0 0 0 1.024 2.208c.127.158.357.41.366.4 0-.004.011-.412.016-.907.01-.805.011-.91.032-.984a.943.943 0 0 1 .382-.55c.087-.054.305-.131.44-.155.163-.028.414-.02.566.02.143.037.332.127.442.211.149.113.214.242.24.474.01.088.01.787.001 2.49-.01 1.303-.017 2.417-.02 2.476 0 .068-.013.106-.023.106s-.079-.017-.157-.038zm-.953-6.056a1.258 1.258 0 0 1-.808-.527c-.133-.196-.186-.383-.187-.653 0-.207.023-.313.104-.475.161-.32.414-.536.75-.637.1-.03.135-.034.293-.034.224 0 .328.025.53.126.301.151.5.386.59.697.024.089.03.133.03.31 0 .176 0 .223-.03.316-.06.216-.17.41-.32.56a1.138 1.138 0 0 1-.952.317zm5.292-.065c-.44-.046-.838-.413-.966-.89a.916.916 0 0 1-.03-.283c0-.2.017-.28.095-.447.19-.407.556-.667.982-.697.482-.035.98.272 1.148.705.054.14.069.24.07.465 0 .182 0 .21-.035.315-.128.418-.467.74-.866.822-.123.025-.23.028-.398.01zm-2.668-1.188a1.464 1.464 0 0 1-.445-.133 1.343 1.343 0 0 1-.694-.923 1.448 1.448 0 0 1 .097-.83c.132-.285.38-.534.645-.645.36-.151.683-.163 1.029-.037.252.092.477.262.628.474.071.1.163.291.2.418.04.137.048.427.02.585a1.324 1.324 0 0 1-1.161 1.092 1.084 1.084 0 0 1-.318 0z"/></svg>