<svg role="img" viewBox="0 0 24 24" xmlns="http://www.w3.org/2000/svg"><path d="M11.084 23.986c-.077-.01-.341-.042-.586-.07-2.558-.291-5.114-1.542-6.996-3.424C1.62 18.611.448 16.222.067 13.496c-.081-.586-.081-2.418 0-3.005.38-2.725 1.553-5.114 3.435-6.995C5.383 1.614 7.772.442 10.498.06c.586-.081 2.418-.081 3.004 0 2.726.38 5.115 1.553 6.996 3.435 1.882 1.881 3.054 4.27 3.435 6.995.081.587.081 2.42 0 3.005-.38 2.726-1.553 5.115-3.435 6.996-1.846 1.846-4.183 3.013-6.831 3.41-.445.066-2.28.126-2.583.084zm1.648-3.4a8.652 8.652 0 0 0 4.339-1.612c.511-.364 1.543-1.395 1.91-1.91a8.997 8.997 0 0 0 1.546-3.732c.11-.644.11-2.032 0-2.676a8.988 8.988 0 0 0-1.546-3.733c-.357-.498-1.343-1.495-1.836-1.856-.39-.285-1.206-.784-1.235-.755-.009.01.06.15.155.31.869 1.484 1.287 3.078 1.224 4.672-.105 2.68-1.541 4.84-3.573 5.373-.508.133-1.304.133-1.857 0-.412-.098-1.298-.495-1.676-.75l-.216-.146.033.594c.07 1.27.484 2.25 1.336 3.163l.192.206-.105.127a58.716 58.716 0 0 1-1.372 1.55c-.01 0-.112-.153-.23-.34-.453-.73-.864-1.788-1.052-2.715l-.09-.442-.034.245c-.07.504.088 1.487.38 2.366.217.654.775 1.807.893 1.844.196.061.911.18 1.284.214.589.054.949.054 1.53.002zm-4.16-.74c0-.019-.054-.235-.119-.48-.234-.887-.312-1.504-.337-2.653-.025-1.2.038-1.955.247-2.958l.14-.681c.019-.104-.088-.21-.917-.915-1.063-.903-1.01-.815-.84-1.43.102-.362.408-1.084.46-1.081.016 0 .102.109.19.24.241.355.772.905 1.22 1.267l.396.318.227-.55c.385-.935 1.304-2.66 1.674-3.143l.078-.101.774.192c.426.106.784.2.795.21.011.01-.17.212-.402.45-.726.746-1.315 1.56-1.64 2.264-.161.348-.396 1.132-.396 1.324 0 .213.504.503 1.17.672 1.104.28 2.076.078 2.807-.584 1.15-1.04 1.171-2.536.057-3.875-.452-.544-1.29-1.073-1.99-1.256-.17-.045-.307-.096-.307-.114 0-.018.123-.187.274-.376.292-.367.757-.802 1.44-1.348.49-.393.493-.394.975-.068.377.255.99.894 1.472 1.532.19.253.347.43.347.392 0-.038-.108-.283-.239-.545-.402-.803-1.208-1.785-2.027-2.47-.464-.388-.502-.433-.41-.49.089-.055-.362-.137-1.068-.195-1.976-.161-4.003.415-5.694 1.62-.511.364-1.542 1.395-1.91 1.91a8.997 8.997 0 0 0-1.546 3.732c-.11.644-.11 2.032 0 2.676.308 1.8 1.08 3.345 2.304 4.616a8.285 8.285 0 0 0 2.242 1.7c.423.225.555.272.553.199zm-.53-10.269c-.675-.258-.94-1.045-.547-1.63.368-.55 1.1-.661 1.59-.242.613.525.51 1.443-.201 1.809-.238.122-.614.15-.842.063z"/></svg>