<svg role="img" viewBox="0 0 24 24" xmlns="http://www.w3.org/2000/svg"><path d="M10.793 23.532c-.7-1.093-.945-1.47-.956-1.47-.01 0-.121.083-.256.183l-.685.51c-1.033.77-1.002.749-1.002.722 0-.014-.353-1.977-.385-2.142l-.027-.136-.321.118-.5.185-.808.298c-.345.127-.63.23-.633.226 0-.003 0-.562.013-1.24.011-.68.015-1.239.01-1.244-.01-.005-.411.052-.903.127l-1.107.169a1.253 1.253 0 0 1-.223.023c-.01-.005.106-.547.247-1.204.14-.657.256-1.201.256-1.21 0-.009-.063-.018-.154-.023-.32-.017-2.201-.15-2.208-.156-.01-.008.03-.077.269-.483.698-1.185 1.017-1.74 1.006-1.749a4.36 4.36 0 0 0-.244-.102l-.964-.381-.917-.364-.185-.072.037-.03.885-.718.71-.574a1.24 1.24 0 0 0 .157-.14 7.25 7.25 0 0 0-.413-.353l-.953-.78A22.543 22.543 0 0 1 0 11.073c0-.004.5-.256 1.114-.56.73-.361 1.112-.558 1.107-.57-.01-.016-.31-.41-1.175-1.522-.257-.33-.287-.37-.278-.379 0-.005.282-.068.618-.142 1.624-.356 1.805-.397 1.802-.413 0-.016-.203-.422-.801-1.635l-.338-.684h.08c.074 0 1.572.07 2.205.104.152.008.278.012.281.009 0-.004-.072-.587-.28-2.139a6.971 6.971 0 0 1-.04-.331c0-.002.535.183 1.184.413.65.229 1.185.412 1.19.406 0-.006.037-.336.072-.735.103-1.188.151-1.71.159-1.717 0-.004.27.168.594.383.322.215.815.542 1.095.727l.508.337.393-1.184c.215-.652.395-1.194.4-1.205.01-.022.036.008.456.468a137.804 137.804 0 0 0 .703.77c.467.513.603.658.612.658 0 0 .31-.454.68-1.009.37-.554.677-1.008.682-1.009 0 0 .275.49.602 1.09.327.599.603 1.1.613 1.115.02.026.058-.003.556-.435A56.076 56.076 0 0 1 16.067.806c0 .004.145.554.313 1.223.169.669.309 1.218.312 1.221 0 .003.494-.204 1.093-.46.598-.255 1.09-.462 1.091-.46 0 .002-.012.539-.03 1.193-.02.653-.034 1.19-.032 1.192 0 .002.541-.04 1.199-.092a68.913 68.913 0 0 1 1.2-.09c0 .003-.218.707-.646 2.044-.065.202-.065.205-.034.212.018.004.102.017.189.03.086.012.268.038.403.059l1.045.157c.44.066.801.123.804.126 0 .003-.13.213-.296.467a500.668 500.668 0 0 0-.826 1.268c-.096.147-.17.272-.163.278.01.006.2.082.43.17l1.705.641c.091.034.17.066.176.071.01.005-.29.282-.658.614l-.898.813c-.186.168-.226.21-.21.225.017.016.757.62 1.556 1.27.121.099.216.184.21.19-.01.007-.328.174-.714.373-.387.198-.839.43-1.005.517l-.302.156.178.272.289.445.495.762c.33.507.38.592.357.602-.026.01-.763.174-1.806.4-.272.058-.505.11-.519.117-.02.009.036.156.399 1.02.233.554.42 1.012.416 1.016 0 .004-.55.025-1.212.048a66.97 66.97 0 0 0-1.209.046c0 .003.011.132.031.288.111.866.247 1.954.247 1.978 0 .025-.027.02-.303-.057-1.588-.449-1.926-.543-1.931-.537 0 .003-.048.507-.1 1.12a38.247 38.247 0 0 1-.103 1.125c-.01.006-.47-.235-1.032-.535-.563-.3-1.027-.54-1.033-.534-.01.006-.2.441-.432.968-.233.526-.432.975-.443.997l-.021.041-.774-.645-.92-.77-.147-.123-.047.053c-.047.054-.132.155-.893 1.065-.234.28-.43.51-.436.51-.01 0-.113-.16-.238-.355zm.75-1.214c.708-.844.81-.965.824-.97.01-.004.153.111.323.254.325.273 1.295 1.083 1.336 1.115.025.02.023.023.663-1.424.11-.25.178-.387.19-.384.018.005.288.148 1.425.755l.434.232.01-.07c.01-.038.045-.497.088-1.02.043-.521.083-.954.089-.96.01-.008.19.039.412.101a995.095 995.095 0 0 0 1.433.405c.098.028.181.048.184.045 0-.003-.052-.472-.123-1.04a51.719 51.719 0 0 1-.125-1.04c0-.002.432-.018.955-.036 1.153-.038 1.26-.043 1.25-.066a196.77 196.77 0 0 1-.765-1.83c0-.005.172-.042 1.301-.289.452-.099.832-.183.843-.187.016-.005.015-.015-.01-.047a189.192 189.192 0 0 1-1.198-1.852c0-.003.602-.309 1.005-.515.73-.374.826-.426.824-.44 0-.008-.11-.103-.24-.21-1.095-.893-1.37-1.12-1.366-1.13 0-.011.351-.328.864-.79.552-.497.748-.677.748-.687 0-.008-1.108-.431-1.843-.703a1.92 1.92 0 0 1-.265-.11c0-.008.166-.268.37-.58.627-.962.81-1.246.807-1.25 0-.001-.505-.078-1.118-.17a38.642 38.642 0 0 1-1.123-.176c-.01-.006.137-.468.317-1.027.179-.56.324-1.018.323-1.02l-1.093.086c-.6.048-1.093.086-1.094.085 0-.002.01-.448.026-.99.016-.543.027-1.031.025-1.085V3.2l-.987.422c-.543.232-.99.42-.992.417l-.285-1.12-.28-1.116-.82.703c-.453.387-.826.703-.831.703 0 0-.207-.361-.448-.803-.65-1.191-.664-1.216-.676-1.212-.01.002-.28.408-.61.901-.33.494-.607.905-.617.914-.014.013-.207-.19-.808-.848a45.273 45.273 0 0 0-.8-.866c-.011 0-.72 2.118-.72 2.152 0 .036.12.113-1.24-.789a27.89 27.89 0 0 0-.775-.504c0 .003-.028.264-.056.579-.028.315-.07.802-.096 1.08-.025.28-.045.523-.045.543 0 .019-.01.034-.015.034-.01 0-.493-.168-1.078-.374A32.085 32.085 0 0 0 5 3.649c0 .004.058.506.139 1.114.081.608.143 1.11.137 1.116-.01.005-.52-.014-1.143-.044L2.974 5.78c-.026 0 .044.147.732 1.54.157.317.28.58.275.586-.01.005-.202.051-.436.102a858.531 858.531 0 0 0-1.339.291 8.9 8.9 0 0 0-.413.095c-.023.01.15.237 1.225 1.615.047.06.085.116.085.123 0 .008-.456.241-1.014.519l-1.014.505.177.145.663.544.697.572c.156.129.208.179.197.193a5.38 5.38 0 0 1-.197.164c-.918.74-1.414 1.147-1.404 1.155.01.006.066.031.131.057.066.025.416.164.777.307l.912.361c.14.055.26.104.265.11.01.006-.012.047-.039.092a142.55 142.55 0 0 0-1.128 1.936c0 .003.485.038 1.07.078.586.04 1.07.078 1.076.084.01.005-.096.502-.225 1.103-.13.601-.232 1.096-.229 1.1.01.005.642-.09 1.76-.262.152-.024.28-.04.282-.038 0 .003 0 .434-.01.959-.022 1.177-.022 1.305 0 1.305.01 0 .077-.023.153-.051a78.97 78.97 0 0 1 1.89-.69c0 .004.09.47.192 1.034.102.565.188 1.03.192 1.034 0 .004.1-.062.214-.147.604-.453 1.548-1.152 1.551-1.147 0 .005.608.94.92 1.43.146.226.158.241.18.216.011-.015.193-.232.403-.482zm-3.627-3.469c-.847-.099-1.35-.544-1.483-1.314-.037-.211-.036-.946 0-1.236.107-.837.363-1.555.863-2.415.123-.21.181-.3.44-.671.205-.296.25-.35.288-.342.023.005.026.021.024.14v.133l-.117.195c-.34.56-.64 1.202-.809 1.728-.118.37-.157.631-.156 1.045 0 .52.057.7.286.927.297.293.7.499 1.063.541.756.089 1.566-.478 2.218-1.553a4.55 4.55 0 0 0 .097-.164c.015-.028 0-.04-.189-.152a5.24 5.24 0 0 1-.362-.24c-.328-.243-.373-.352-.291-.712a3.12 3.12 0 0 1 .165-.524c.086-.208.324-.73.482-1.056l.15-.309.01-.154c.035-.57.082-.955.166-1.362.078-.378.152-.652.414-1.521l.122-.408c.029-.1.063-.128.128-.1l.042.017.01.264c.01.145.015.347.02.448l.01.184.292-.212A36.215 36.215 0 0 0 14.104 8.2c.67-.582 1.56-1.467 2.253-2.24l.311-.344.036-.037-.03.075c-.187.476-.543 1.006-1.003 1.495-.629.667-1.83 1.76-3.012 2.742l-.312.26.133.033c.421.107.658.299.688.557.011.09-.059.47-.16.871-.314 1.257-.79 1.925-1.414 1.982a1.131 1.131 0 0 1-.468-.082 1.535 1.535 0 0 1-.345-.203c-.036-.044-.027-.058-.259.383l-.083.158.07.05c.23.163.486.41.58.56.035.058.086.156.111.217l.046.112-.017.15c-.098.857-.418 1.77-.863 2.457-.247.38-.638.816-.927 1.033-.256.192-.56.329-.87.391a2.797 2.797 0 0 1-.651.029zm4.193-6.423c.209-.05.4-.183.482-.337a.507.507 0 0 0 0-.387c-.114-.214-.395-.359-.699-.36-.17 0-.28.024-.417.09-.227.11-.345.27-.343.471 0 .128.045.223.15.328a.936.936 0 0 0 .387.2c.117.023.335.02.44-.005zm.182 4.278c0-.003.117-.07.253-.15a11.94 11.94 0 0 0 1.017-.68 3.36 3.36 0 0 0 .721-.78l.053-.083-.154.007c-.281.012-.464-.056-.623-.234-.112-.124-.147-.21-.147-.354 0-.073.012-.169.03-.24.067-.264.374-.779.526-.883a.613.613 0 0 1 .37-.117c.12 0 .134.002.234.056.117.063.258.183.41.349a.483.483 0 0 0 .111.103c.026-.006.14-.234.167-.336.02-.077.027-.165.029-.405v-.306l.224-.594c.123-.327.228-.598.232-.603.023-.023.081.453.095.772.018.406-.039.86-.144 1.158-.116.33-.316.673-.579.997-.073.091-.124.181-.234.414-.3.637-.574 1.12-.711 1.258-.085.085-.337.245-.524.334a3.4 3.4 0 0 1-1.009.293c-.188.027-.366.04-.35.024zm3.395-6.409a8.362 8.362 0 0 1-.516-.453c-.116-.113-.118-.117-.11-.176 0-.035.037-.107.074-.168l.542-.859c0-.003.134.099.293.226.31.246.365.31.403.462.036.144-.051.415-.215.667-.063.097-.33.393-.353.391a.671.671 0 0 1-.119-.09zm1.298-.107a8.703 8.703 0 0 1-.364-.327l-.133-.13.01-.066c.01-.053.064-.156.303-.536.162-.259.3-.475.305-.481.01-.012.454.329.558.428.12.114.172.3.132.474-.025.111-.15.37-.236.49-.08.114-.299.346-.324.345-.01 0-.12-.09-.248-.197zM10.11 7.11a.21.21 0 0 1-.152-.13c-.051-.108-.076-.287-.071-.513v-.2l.033.06c.018.032.063.098.1.145.185.231.341.222.597-.038l.133-.134.077.084c.206.224.338.211.503-.046.09-.14.096-.13.086.112-.01.274-.09.432-.246.491-.096.037-.224.013-.393-.072l-.138-.069c-.01-.003-.024.022-.04.054a.64.64 0 0 1-.226.228.418.418 0 0 1-.267.028z"/></svg>