<svg role="img" viewBox="0 0 24 24" xmlns="http://www.w3.org/2000/svg"><path d="M20.857 24H3.607v-2.713l.337-.396a12.067 12.067 0 0 1-2.293-2.817l4.46 2.554h.493l-5.392-3.37a11.92 11.92 0 0 1-.466-1.087l6.407 4.457h.34l-7.007-5.24a11.919 11.919 0 0 1-.312-1.34l7.82 6.58h.353l-8.31-7.67a12.098 12.098 0 0 1-.035-1.17l8.685 8.84h.246l-8.88-9.763c.042-.446.109-.886.198-1.317l9.008 11.08h.224L.493 8.584c.112-.375.242-.742.388-1.101L9.73 20.628h.21L1.32 6.525c.194-.376.407-.741.638-1.093l8.218 15.196h.192l-2.11-4.36a1.331 1.331 0 0 1-.371-.245 1.221 1.221 0 0 1-.212-.28c-.074-.13-.13-.27-.196-.404-.02-.04-.04-.08-.063-.118a.206.206 0 0 0-.042-.054c-.03-.024-.06-.045-.09-.068a.35.35 0 0 1-.074-.082.409.409 0 0 1-.036-.083.141.141 0 0 1-.053-.044.125.125 0 0 1-.021-.065c0-.02.003-.02.004-.04 0-.004-.002-.01-.001-.014 0-.022.003-.024.01-.045.003-.03.008-.061.014-.092a.294.294 0 0 1 .028-.083c.041-.075.12-.12.196-.156l-1.293-2.673a3.858 3.858 0 0 1-.042-.014c-.132-.045-.27-.104-.358-.218a.509.509 0 0 1-.097-.215.87.87 0 0 1-.016-.151c-.001-.05.002-.1-.004-.149 0-.004 0-.004-.003-.007-.008-.012-.018-.022-.027-.033-.042-.046-.085-.09-.126-.137a.8.8 0 0 1-.09-.124.44.44 0 0 1-.058-.228.414.414 0 0 1 .019-.105c.018-.053.038-.105.057-.158L2.59 4.556c.246-.31.506-.607.78-.892l.78 1.839a1.03 1.03 0 0 1 .017-.173.556.556 0 0 1 .352-.408.386.386 0 0 1 .21-.023c.05.01.097.03.143.053a.926.926 0 0 1 .12.072L4.2 2.883c.283-.243.578-.472.883-.688l1.056 3.33c.034-.029.067-.06.1-.09.116-.11.226-.224.341-.334.08-.074.164-.153.261-.204l-.88-3.267c.359-.21.73-.4 1.111-.573L8.11 5.89a.734.734 0 0 0 .1-.118.467.467 0 0 0 .049-.09.591.591 0 0 0 .028-.226c-.004-.09-.015-.18-.02-.27a.544.544 0 0 1 .03-.242c.049-.114.17-.173.283-.206a.977.977 0 0 1 .177-.037l.009-.001L8.088.653c.346-.12.7-.224 1.06-.311l.522 4.33.192-.008c.131-.004.262-.008.394-.01.091 0 .184.001.275-.002.017 0 .033-.002.05-.004L10.249.127c.384-.056.774-.094 1.169-.113l.137 5.656a.3.3 0 0 1 .08.143 1.773 1.773 0 0 1 .059.412l.008.201.011.127c.012.11.025.22.035.33l.007.08.002-.001a.697.697 0 0 0 .062-.031c.085-.05.16-.113.234-.177l.202-.176.074-.06c.038-.028.077-.056.118-.082l.163-6.42c.385.019.766.056 1.14.111l-.447 6.108c.182-.017.366-.029.549-.018.096.006.193.018.287.043l.713-5.918c.36.087.714.192 1.06.311l-1.026 6.124.238-.014.174-.006a3.21 3.21 0 0 1 .292.005c.037.003.073.006.11.012l1.228-5.717c.381.172.752.364 1.112.574l-1.523 5.64.036.016c.057.028.112.058.166.091a1.093 1.093 0 0 1 .412.445l1.785-5.628c.305.216.6.445.883.688l-2.84 7.687a.4.4 0 0 1 .05.164c.003.038-.002.074-.007.112a2.755 2.755 0 0 0-.01.086l-.008.125c-.014.36.012.719.051 1.077l3.594-8.47c.275.285.535.582.781.892l-3.767 7.784a.622.622 0 0 1 .28.22.507.507 0 0 1 .085.263.447.447 0 0 1-.006.079l4.04-7.47c.23.352.444.717.637 1.093l-4.973 8.139c.035.029.072.055.11.08.088.058.18.11.268.166a2.6 2.6 0 0 1 .024.017l5.011-7.444c.147.359.276.726.387 1.101l-5.042 6.756a.77.77 0 0 1 .024.082c.027.114.027.23.037.346.039.02.08.033.12.05l.005.002 5.099-6.272c.09.431.156.87.198 1.317l-6.137 6.747a2.332 2.332 0 0 0 .003.239l.016-.002.099-.007.1-.002h.024l5.946-6.052v.053a12.015 12.015 0 0 1-.036 1.116l-5.525 5.1-.006.044c-.005.04-.006.13-.007.168l-.01.24a.291.291 0 0 1-.02.1.109.109 0 0 1-.01.018l5.442-4.579-.016.086c-.076.426-.175.844-.296 1.253l-7.006 5.241h.339l6.407-4.457-.026.07c-.131.347-.278.686-.44 1.017l-5.392 3.37h.493l4.46-2.554-.024.041a12.062 12.062 0 0 1-2.011 2.535l.543.637zm-.3-2.413H3.907V23.7h16.65zm-5.077 1.451a.643.643 0 0 1-.084.264.963.963 0 0 1-.167.247.42.42 0 0 1-.15-.038.43.43 0 0 1-.133-.079c.097-.044.184-.096.26-.155.09-.07.143-.132.16-.188a.366.366 0 0 0-.15-.177l.112-.215a.43.43 0 0 1 .106.156c.03.07.046.132.046.185zm4.796.294l-.13.123-.127-.127.132-.121zm-3.7-.011l-.13.123-.128-.128.132-.12zm-10.36-1.27h.175v.75c0 .099-.006.174-.019.227a.328.328 0 0 1-.092.166.249.249 0 0 1-.177.062.228.228 0 0 1-.198-.098.5.5 0 0 1-.07-.288L6 22.844a.43.43 0 0 0 .022.144c.019.043.048.064.087.064.039 0 .067-.015.083-.046a.473.473 0 0 0 .024-.189zm1.147 1.185h-.191l-.076-.269h-.348l-.072.27H6.49l.339-1.185h.185zm-1.626-.984h-.47v.263h.437v.2h-.437v.322h.486v.2h-.662v-1.185h.646zm1.895.984h-.175v-1.184h.37c.092 0 .16.01.202.032a.226.226 0 0 1 .101.113.438.438 0 0 1 .038.187.39.39 0 0 1-.057.22.256.256 0 0 1-.173.11c.038.03.07.063.095.099.024.036.058.1.1.192l.106.231h-.21l-.127-.258a1.737 1.737 0 0 0-.093-.174.141.141 0 0 0-.053-.049.217.217 0 0 0-.088-.013h-.036zm1.486 0h-.19l-.077-.269h-.348l-.071.27h-.187l.34-1.185h.185zm.633-.984h-.258v.984h-.176v-.984H9.06v-.2h.692zm.747.984h-.296v-1.184h.348c.069 0 .12.004.154.012a.197.197 0 0 1 .09.049.289.289 0 0 1 .068.098.346.346 0 0 1 .026.139c0 .055-.01.106-.033.153a.238.238 0 0 1-.089.104.237.237 0 0 1 .122.107c.029.05.043.11.043.179 0 .054-.01.106-.028.157a.312.312 0 0 1-.075.122.211.211 0 0 1-.118.056c-.03.004-.1.007-.212.008zm1.366 0h-.191l-.076-.269h-.348l-.072.27h-.186l.339-1.185h.186zm.258 0h-.163v-1.184h.17l.357.79v-.79h.163v1.184h-.176l-.35-.772zm.891 0h-.176v-1.184h.176v.526l.355-.526h.236l-.327.461.345.723h-.227l-.24-.556-.142.198zm-8.035-.984H4.72v.984h-.175v-.984h-.258v-.2h.691zm14.155.822h-.052a.273.273 0 0 1-.17-.063.755.755 0 0 1-.115-.125.763.763 0 0 0-.112-.124.37.37 0 0 1-.004.148.37.37 0 0 1-.233.14c-.068.016-.16.024-.279.024-.16 0-.269-.012-.325-.034-.081-.033-.122-.102-.122-.208 0-.096.033-.195.099-.299.025-.002.041.007.048.027a.284.284 0 0 0-.047.147c0 .068.039.111.116.13.043.011.134.016.272.016.126 0 .22-.004.278-.014a.317.317 0 0 0 .134-.053.7.7 0 0 0-.325-.262 1.8 1.8 0 0 1 .025-.275c.233-.13.457-.22.67-.266l-.096.208a2.156 2.156 0 0 0-.292.101c-.095.039-.164.07-.207.093a1.336 1.336 0 0 1 .441.314c.054.055.093.091.118.11a.22.22 0 0 0 .128.044h.083c.116 0 .175-.018.175-.053 0-.024-.03-.077-.091-.16l.124-.169a.421.421 0 0 1 .092.257.535.535 0 0 1-.078.232.308.308 0 0 1-.255.114zm.818 0h-.052c-.103 0-.17-.043-.201-.128-.021-.057-.035-.186-.042-.385a2.595 2.595 0 0 0-.012-.204.704.704 0 0 0-.052-.198l.148-.155c.025.04.04.1.046.182.002.03.003.092.003.188v.237c0 .071.005.123.015.155.019.058.055.087.11.087h.07c.116 0 .174-.018.174-.053 0-.024-.03-.077-.09-.16l.123-.169a.421.421 0 0 1 .092.257.535.535 0 0 1-.077.232.308.308 0 0 1-.255.114zm-5.067-.38a.4.4 0 0 1-.046.136.387.387 0 0 1-.074.122.764.764 0 0 1-.222.07 1.786 1.786 0 0 1-.41.051c-.17 0-.286-.033-.35-.099-.04-.042-.06-.104-.06-.186 0-.112.032-.217.096-.316h.01c.023 0 .04.008.049.027a.505.505 0 0 0-.05.177c0 .119.128.178.384.178.232 0 .414-.028.546-.083a.672.672 0 0 0-.089-.161l.123-.166a.43.43 0 0 1 .067.133c.018.051.026.09.026.117zm1.139.38h-.11c-.103 0-.17-.043-.201-.128-.021-.057-.035-.186-.042-.385a2.62 2.62 0 0 0-.012-.204.703.703 0 0 0-.052-.198l.148-.155c.024.04.04.1.046.182.002.03.003.092.003.188v.237c0 .071.005.123.015.155.018.058.055.087.11.087h.13c.088 0 .16-.01.216-.027a1.8 1.8 0 0 0 .215-.097c-.205-.08-.32-.12-.347-.12a.076.076 0 0 0-.057.022.391.391 0 0 0-.053.084.06.06 0 0 1-.024.005.038.038 0 0 1-.034-.021c.036-.096.064-.161.084-.197.036-.068.07-.102.104-.102.021 0 .095.028.221.085a.788.788 0 0 0 .275.085c.064 0 .163-.013.297-.04l-.085.196c-.07.008-.129.016-.175.026.033.067.095.1.188.1h.17c.117 0 .175-.017.175-.052 0-.024-.03-.077-.09-.16l.124-.169a.422.422 0 0 1 .091.257.534.534 0 0 1-.077.232.308.308 0 0 1-.255.114h-.067a.291.291 0 0 1-.217-.082.54.54 0 0 1-.112-.21 5.941 5.941 0 0 1-.307.21.6.6 0 0 1-.295.082zm-5.503-.354h-.142v.317h.162a.587.587 0 0 0 .121-.008.105.105 0 0 0 .064-.047.181.181 0 0 0 .024-.1.197.197 0 0 0-.019-.09.117.117 0 0 0-.055-.055.445.445 0 0 0-.155-.017zm1.02.048l-.12-.44-.117.44zm-4.5 0l-.12-.44-.118.44zm1.755 0l-.12-.44-.117.44zm-1.026-.516h-.137v.3h.13a.5.5 0 0 0 .158-.014.104.104 0 0 0 .05-.05.197.197 0 0 0 .017-.089.177.177 0 0 0-.023-.096.102.102 0 0 0-.066-.047 1.086 1.086 0 0 0-.129-.004zm2.71-.003h-.101v.274h.115c.068 0 .11-.001.128-.004a.105.105 0 0 0 .07-.043.153.153 0 0 0 .026-.092.162.162 0 0 0-.022-.09.093.093 0 0 0-.066-.04 1.509 1.509 0 0 0-.15-.005zm3.809.11l-.12.112-.117-.118.122-.11zm.295-.016l-.12.112-.116-.118.122-.11zm4.895-.11l-.13.122-.128-.127.133-.121zm-2.01.006l-.111.111-.113-.099-.103.104-.119-.104.111-.114.113.101.103-.106zm-6.713-1.61l-.626-1.695-.014-.002-.045-.008a.142.142 0 0 1-.058-.028.126.126 0 0 1-.036-.139.142.142 0 0 1 .037-.052l.024-.02-.206-.558a.335.335 0 0 1-.064.033.512.512 0 0 1-.231.032l1.033 2.436zm.175 0h.16l-.444-1.642a5.36 5.36 0 0 1-.242-.017zm.346 0h.159l-.273-1.631h-.074l-.163-.002zm.318 0h.159L11.633 19h-.026l-.21-.001zm.492 0l.042-1.645c-.059.037-.124.026-.19.016-.014-.002-.028-.001-.043-.001h-.016l.04 1.63zm.32 0l.272-2.256a.504.504 0 0 1-.052.108.836.836 0 0 1-.237.22l-.142 1.927zm.318 0l.61-2.839-.043.091-.036.07c-.062.107-.14.22-.265.253a.263.263 0 0 1-.02.004l-.405 2.42zm.186 0h.16l.695-2.195a.156.156 0 0 1-.03-.028.218.218 0 0 1-.036-.075.432.432 0 0 1-.007-.184l.009-.049.02-.097a4.61 4.61 0 0 0 .024-.203 2.471 2.471 0 0 0 .013-.309zm.335 0h.186l.808-1.906a.2.2 0 0 1-.157-.137.319.319 0 0 1-.012-.086v-.009a.694.694 0 0 0-.034-.004zm.387 0h.192l.953-1.764a1.197 1.197 0 0 1-.273-.039zm.638 0l1.196-1.777-.322.004-1.083 1.772zm.471 0l1.471-1.81h-.009l-.35.02-1.336 1.79zm.572 0l1.839-1.873-.209.014-.198.013-1.678 1.845zm.694 0l2.325-1.957a.32.32 0 0 1-.144.028.8.8 0 0 1-.052 0l-.073-.005a.968.968 0 0 0-.093-.006c-.05 0-.1.005-.15.009l-.084.007-2.083 1.923zM9.848 17.81h.01l.04.002.018.002h.002a.6.6 0 0 1 .016.004h.003l.015.005.006.001.006.002.008.002.006.002.005.002.006.002.008.003.01.004.009.003.008.004.01.004.007.004.012.005c.041.02.08.044.118.07a.82.82 0 0 1 .188.16.526.526 0 0 1 .089.479.462.462 0 0 1-.069.146v.001c.066.007.133.012.199.016h.009l.058.004h.016l.06.003.024.001.048.002h.024l.048.002h.054l.2.003.248.001.241.003.071-.001.074-.001h.06l.085-.001a.61.61 0 0 1 .074.003l.009.001a.233.233 0 0 1 .075-.124l.082-.06.071-.048.036-.024.035-.025.06-.048.02-.019.01-.009.01-.01.01-.01.005-.005.005-.005.004-.005.004-.006.007-.008.003-.006a.293.293 0 0 0 .03-.064l.029-.08.02-.047a.318.318 0 0 1 .229-.175l.011-.002a.263.263 0 0 1 .013-.002c.056-.007.112 0 .167-.007a.06.06 0 0 0 .023-.007l.008-.007.008-.008.003-.002.008-.008.007-.008.007-.008.007-.01.003-.002.006-.01.006-.008.01-.015.007-.012.007-.012.004-.008.02-.037c.038-.075.071-.152.108-.227.021-.041.045-.08.067-.122.026-.049.05-.098.077-.146.016-.026.031-.052.048-.076a.737.737 0 0 1 .123-.133l.01-.008.007-.005.008-.006.01-.007.006-.004.013-.009h.001a.646.646 0 0 1 .018-.012c.081-.05.181-.1.277-.062a.213.213 0 0 1 .06.038.262.262 0 0 1 .046.054c.02.03.034.064.044.1.018.065.021.133.027.2a2.106 2.106 0 0 1-.001.384v.004a3.416 3.416 0 0 1-.01.088v.015l-.003.024-.002.012v.007l-.002.01-.002.014-.002.021-.002.01v.005l-.001.006-.006.043c-.007.055-.021.108-.03.163a.473.473 0 0 0-.004.045v.003c.037.003.075.004.112.006l.02.002.013.001.016.003h.009l.007.002.012.002a.324.324 0 0 1 .052.014.21.21 0 0 1 .13.13c.01.029.012.058.012.088h.057a.251.251 0 0 1 .174.078c.01.011.02.024.034.032l.007.003.008.002.016.003c.01.003.022.004.033.006.09.014.182.016.273.013l.02-.001.032-.001.126-.006.033-.001.032-.001.288-.004c.067-.001.133-.003.2-.006l.073-.003h.022l.093-.004h.01l.086-.005h.02l.09-.006h.02l.361-.023.271-.018.235-.016.054-.004.236-.016.204-.018.205-.02.024-.002.029-.002.02-.002.023-.002.007-.001a9.477 9.477 0 0 1 .215-.015h.054l.018.002c.047.003.095.008.143.01h.001c.002-.093.008-.185.011-.277l.004-.088-.07.004-.024.001h-.137l-.016.002-.042.003h-.006l-.024.002-.028.002-.026.003-.24.024-.097.008a2.493 2.493 0 0 1-.125.002h-.022l-.018-.001a.445.445 0 0 1-.136-.038c-.05-.022-.097-.051-.148-.074a.348.348 0 0 0-.041-.013l-.013-.002h-.004l-.008-.002h-.005l-.008-.002h-.005l-.008-.002h-.009L16.905 18h-.008l-.018-.002-.1-.008-.056-.01a.55.55 0 0 1-.177-.071l-.002-.001a1.055 1.055 0 0 1-.023-.014l-.001-.001-.016-.01-.007-.004-.002-.001-.003-.002-.006-.004-.007-.005-.01-.006-.015-.01-.004-.002-.004-.003-.001-.001-.039-.025-.02-.014-.013-.008-.006-.004-.024-.015a.764.764 0 0 0-.07-.036l-.011-.004-.003-.001-.006-.002-.012-.004-.004-.001a.747.747 0 0 0-.104-.022 2.195 2.195 0 0 0-.27-.025h-.032l-.006-.001h-.127l-.02.001h-.01l-.02.002h-.008l-.029.003-.032.003-.01.001-.024.003-.01.001-.031.004-.049.008-.131.019-.078.008a1.153 1.153 0 0 1-.229-.003.43.43 0 0 1-.167-.052l-.009-.005-.002-.002h-.001l-.002-.002-.003-.002-.003-.001-.004-.003-.008-.006h-.002v-.001a.552.552 0 0 1-.015-.01l-.001-.002-.002-.002-.006-.004-.006-.004-.002-.002-.001-.001-.002-.002-.004-.003-.008-.007-.007-.006-.003-.002-.003-.002-.003-.003-.006-.005-.01-.008-.014-.013a.669.669 0 0 0-.05-.043c-.066-.052-.137-.096-.205-.146a1.22 1.22 0 0 1-.022-.018l-.006-.004-.005-.005-.002-.001a1.114 1.114 0 0 1-.014-.012l-.003-.003-.01-.01h-.002l-.001-.002-.004-.003-.006-.006-.003-.003-.003-.002-.003-.003-.004-.004-.005-.005-.003-.003-.002-.002-.003-.003-.006-.007-.004-.003v-.001a.632.632 0 0 1-.027-.03v-.001l-.003-.004-.006-.007-.003-.003-.002-.003-.002-.003-.003-.004-.005-.006-.002-.003-.002-.002-.002-.003-.006-.01-.002-.002v-.001a1.103 1.103 0 0 1-.011-.016l-.003-.004-.006-.01-.001-.002-.002-.002-.002-.004-.004-.006-.002-.005-.002-.004-.002-.002-.002-.004-.004-.008-.002-.004-.001-.002v-.001l-.008-.014v-.002h-.001l-.007-.015v-.002l-.001-.001-.003-.005-.003-.008-.001-.003-.002-.004-.001-.004-.002-.004-.003-.006-.002-.005v-.003l-.002-.002-.003-.01-.002-.005v-.001a.73.73 0 0 1-.018-.059c-.024-.093-.032-.189-.047-.283a1.024 1.024 0 0 0-.014-.064.233.233 0 0 0-.04-.083.155.155 0 0 0-.067-.045l-.012-.004-.013-.004h-.002l-.01-.003-.016-.003a.41.41 0 0 0-.063-.007h-.012l-.025.001a.652.652 0 0 0-.24.08l-.036.019c-.077.042-.153.088-.23.13-.05.026-.101.05-.154.07h-.002l-.006.003-.013.005-.004.001-.003.002-.007.002-.007.003-.007.002-.006.003-.004.001-.005.002-.011.003-.007.003h-.002a2.192 2.192 0 0 1-.024.008l-.007.003-.014.004-.003.001-.004.001-.007.002-.008.003-.006.002-.006.001-.005.002-.005.001-.01.003-.007.002h-.003l-.002.001-.019.005-.004.001-.008.003-.013.003h-.003l-.004.002-.008.002-.007.002h-.003a2.476 2.476 0 0 1-.042.01H12.9l-.022.005-.022.005-.006.001c-.11.023-.222.04-.334.054l-.031.004a20.722 20.722 0 0 1-.162.02h-.008l-.014.001h-.004l-.009.002h-.014l-.003.001h-.008l-.01.001h-.008l-.008.001h-.013l-.005.001h-.04a.54.54 0 0 1-.214-.04.571.571 0 0 1-.138-.087l-.003-.001-.006-.005-.006-.006-.002-.001v-.001a.904.904 0 0 1-.03-.027l-.001-.001-.002-.002-.005-.005-.007-.007-.001-.001-.001-.001-.002-.002-.003-.003-.01-.01-.006-.007-.003-.003-.002-.002a2.36 2.36 0 0 1-.02-.02v-.001l-.003-.004-.01-.01-.003-.005-.005-.005-.018-.02-.002-.002v-.001h-.001l-.033-.038-.017-.02-.01-.011-.006-.006-.019-.02a.972.972 0 0 0-.05-.048l-.01-.01-.004-.002-.007-.005-.005-.004-.006-.004-.005-.004-.007-.004-.005-.004-.006-.003-.007-.004-.005-.003-.007-.004-.005-.003-.008-.004c-.098-.051-.212-.072-.32-.093l-.05-.01-.023-.003-.007-.002a2.542 2.542 0 0 1-.212-.05h-.001l-.006-.001-.01-.004-.005-.001-.003-.001-.005-.002-.007-.002-.007-.003-.005-.001-.003-.002-.004-.001-.01-.004-.006-.002h-.002l-.002-.001-.016-.007h-.003l-.004-.002-.015-.007h-.002l-.002-.001-.007-.003-.008-.004a1.384 1.384 0 0 1-.204-.11 2.354 2.354 0 0 1-.22-.167l-.001-.001-.004-.003-.016-.014-.006-.005-.002-.002-.003-.002-.017-.014-.006-.006h-.001l-.003-.003-.039-.034-.012-.01-.002-.002-.053-.046-.055-.048-.045-.037-.016-.014-.029-.023-.054-.045-.04-.033-.025-.02-.054-.044-.008-.007-.006-.005-.015-.012-.014-.013-.007-.005-.01-.008-.014-.012-.013-.011-.019-.016a4.492 4.492 0 0 1-.241-.221 1.154 1.154 0 0 1-.132-.148 1.017 1.017 0 0 1-.138-.307 2.394 2.394 0 0 1-.077-.44c-.004-.05-.004-.102-.008-.154a.61.61 0 0 0-.009-.064c-.005-.02-.01-.042-.026-.057a.045.045 0 0 0-.018-.009.173.173 0 0 0-.064.004l-.096.017a.862.862 0 0 1-.035.003h-.012a.331.331 0 0 1-.086-.005.754.754 0 0 1-.092-.029.42.42 0 0 1-.206-.132c-.032-.042-.046-.093-.068-.14l-.003-.007a.169.169 0 0 0-.042-.011l-.005-.001h-.02l-.001.001-.007.001h-.002l-.005.003H8.3l-.007.003h-.001l-.006.003-.002.001-.005.003h-.002l-.006.004-.01.007v.001l-.01.007-.026.024c-.038.037-.072.077-.108.116-.051.052-.105.101-.155.155a.809.809 0 0 0-.082.114l-.008.012-.009.014-.014.024-.008.011-.004.007-.002.003-.002.004-.008.013-.006.008-.001.002v.001l-.002.002-.006.01-.01.013a1.17 1.17 0 0 1-.042.055.443.443 0 0 1-.063.062.658.658 0 0 1-.125.07l-.063.029-.013.005-.03.015-.004.001a.348.348 0 0 0-.079.045l-.006.007a1.075 1.075 0 0 0-.01.052l-.003.018c.01.016.017.031.025.048.013.031.022.064.036.096.009.01.02.02.031.028.027.02.055.04.081.062.017.015.017.014.033.03l.033.039c.016.024.031.05.046.076.074.132.132.272.198.408.02.039.039.076.06.113a.99.99 0 0 0 .15.196l.012.011.003.003.012.011c.09.082.2.142.31.192l.043.02.013.005.025.011.063.028.074.031.002.001.068.03h.002a4.428 4.428 0 0 1 .183.087.982.982 0 0 1 .142.087 1.352 1.352 0 0 1 .282.305l.007.01.005.006.005.008.007.009.005.007.006.01.015.022.01.014.007.012.013.022.008.013.009.017.005.01.007.013.005.01.007.016a.978.978 0 0 1 .073.23l.004.02.002.008.002.015.002.012.002.01.002.016v.007l.004.022.002.025.003.022c.007.083.01.166.012.25.002.074.007.15.01.225.002.055 0 .111.002.167.001.017.002.035.006.052a.25.25 0 0 0 .128-.01l.012-.004.004-.001a.23.23 0 0 1 .012-.025.14.14 0 0 1 .03-.039.157.157 0 0 1 .008-.007l.007-.005.007-.005.008-.005.008-.004.008-.004.009-.004.008-.003.009-.003.009-.002.008-.003.012-.002.008-.002h.01zm.338.47l.033.106a.262.262 0 0 0-.033-.106zM7.706 6.363a.49.49 0 0 0-.11-.03l-.025-.003-.008-.001-.017-.002-.01-.001-.015-.002h-.01l-.015-.001-.01-.001h-.025l-.025-.001h-.05l-.011.001H7.36l-.012.001-.012.001h-.014l-.01.002-.06.005-.023.003a2.838 2.838 0 0 0-.063.008l-.021.004.022-.188.004-.04.004-.04.002-.025.003-.029.003-.036.002-.02.004-.058a6.177 6.177 0 0 0 .012-.284 2.969 2.969 0 0 0-.007-.217.713.713 0 0 0-.048-.23c-.016-.037-.04-.073-.082-.083a.154.154 0 0 0-.037 0h-.009l-.003.002-.005.001-.004.001-.005.001L7 5.103l-.005.001-.004.001-.005.002-.003.002-.005.002-.003.001-.007.003-.014.007-.002.001-.011.007-.01.006-.005.003-.013.009H6.91l-.015.012c-.05.037-.096.08-.142.122-.1.096-.196.195-.295.292a5.004 5.004 0 0 1-.142.13 2.207 2.207 0 0 1-.227.174 1.3 1.3 0 0 1-.078.047.822.822 0 0 1-.325.103h-.019a.32.32 0 0 1-.185-.057.784.784 0 0 1-.188-.198L5.27 5.74l-.002-.004-.001-.002-.005-.007c-.05-.072-.098-.146-.149-.217a2.773 2.773 0 0 0-.086-.112.895.895 0 0 0-.246-.213.64.64 0 0 0-.065-.03.145.145 0 0 0-.035-.012.166.166 0 0 0-.075.013.321.321 0 0 0-.132.093.28.28 0 0 0-.058.11.452.452 0 0 0-.011.075 1.474 1.474 0 0 0-.005.139c.002.151.02.302.045.451.02.113.043.226.072.338l.003.009.012.044.001.006.013.044.002.006.01.036.004.011.013.042c.029.087.06.173.099.256l.013.027.005.009.009.018.011.022.002.003.013.023.007.012.003.005.02.03.01.015.008.012.009.011.009.01.016.02.014.153.004.046.003.026.007.071c.022.19.048.387.137.559a.891.891 0 0 0 .076.12c.039.051.078.102.12.153l.05.062.01.013.027.032.055.066.027.032.01.013.028.033.018.022a7.718 7.718 0 0 1 .192.245c.031.042.062.085.09.129.03.043.06.085.076.136a.68.68 0 0 1 .028.187c.002.075-.003.15-.01.224l-.001.004v.002l-.004.033a4.07 4.07 0 0 1-.164.713 7.25 7.25 0 0 1-.07.208c-.014.038-.033.077-.043.117a.201.201 0 0 0-.002.021c0 .071.043.128.087.18.048.055.1.106.147.162.017.02.033.042.045.066.02.04.024.084.027.127l.004.164.002.018v.003l.002.017c.003.029.01.057.02.084a.236.236 0 0 0 .065.092c.01.01.022.018.034.026l.013.009.013.008.014.007.012.006.003.002.015.007.005.002.018.007.018.008.005.002.01.003.018.007.007.002.024.008.072.023c.109.03.219.059.328.09l.037.011.033.01.009.003.01.004.016.005.013.004.01.003.012.005.009.003.008.002.008.003.01.004.01.004.01.003.007.003.007.003.013.004.012.005.01.004a1.616 1.616 0 0 1 .258.132 1.023 1.023 0 0 1 .172.142c.069.088.081.207.084.315v.078l-.004.116c-.003.056-.003.056-.004.113 0 .035 0 .07.002.105.006.073.02.156.08.206.022.018.048.026.071.04l.024.02c.044.044.07.101.091.16.02.06.035.124.045.187.024.146.035.294.038.442l.001.043v.182l-.001.007v.036l-.001.013v.003l-.002.052-.002.048.063.043.03-.046.03-.047.01-.016.012-.015.01-.012a.667.667 0 0 1 .015-.018c.06-.067.127-.126.189-.192.026-.029.051-.058.078-.086a.778.778 0 0 1 .078-.07.441.441 0 0 1 .057-.037l.008-.005.009-.004.008-.004.009-.004.009-.004.008-.003.013-.004.006-.002.008-.002.012-.004.008-.001.007-.002.012-.002.009-.001h.007a.26.26 0 0 1 .029-.002h.017a.356.356 0 0 1 .123.026.266.266 0 0 1 .086.048.321.321 0 0 1 .075.118c.01.022.017.047.03.068a.094.094 0 0 0 .02.016.398.398 0 0 0 .068.03l.026.009.01.003.013.004.014.004h.028c.044-.005.088-.015.132-.022a.347.347 0 0 1 .151.008.289.289 0 0 1 .113.062c.074.066.1.16.114.255.006.061.007.123.011.184.015.14.034.28.075.416.026.084.06.167.116.237l.044.047.04.04.034.033.035.033.014.013.022.02.015.013.02.02.016.013.02.018.015.013.022.019.014.012.023.02.013.01.021.019.03.025.051.042.013.01.217.18c.08.068.158.137.238.204.062.05.125.1.192.142l.025.016.026.016.027.014.013.007.013.007.014.007.013.007.014.006.013.006.014.006.014.005.014.006.015.005.023.008.024.007.01.003.014.004.01.003.014.003.01.003.013.003.012.003.012.003.013.003.026.005c.075.016.15.028.225.043a2.849 2.849 0 0 1 .165.045l.011.003.019.007.019.007.018.008.013.005.015.007.009.004.006.003.012.005.003.002.015.007.016.01.013.007.005.003.009.005.008.006.006.003.01.008.003.002.014.01.01.008.01.007.016.014.005.004.006.005.008.008.005.004.006.006.007.007.006.006.005.004.006.006.008.008.009.01.009.01.008.007.016.018.011.013c.04.044.077.089.117.131a.862.862 0 0 0 .05.046.325.325 0 0 0 .093.057.322.322 0 0 0 .103.015h.025l.02-.001.02-.001.02-.002.02-.002.02-.002.04-.005.11-.013.044-.006.037-.005a3.715 3.715 0 0 0 .353-.065l.023-.005.019-.005.022-.006.022-.006.022-.007.021-.006.023-.007.023-.008.01-.004.012-.004.01-.004.012-.004.01-.004.012-.005.01-.004.013-.005.009-.004.013-.006.008-.003.022-.01.021-.01c.097-.051.19-.11.287-.161a1.27 1.27 0 0 1 .16-.07l.01-.003.018-.005.018-.006.017-.004.018-.005.02-.004a.656.656 0 0 1 .017-.003l.015-.002.015-.002.015-.002h.01l.006-.001h.014a.67.67 0 0 1 .034-.002h.03l.01.001h.006l.013.002a.598.598 0 0 1 .036.004l.013.002.016.003.015.003.013.003a.425.425 0 0 1 .205.111.394.394 0 0 1 .064.084.518.518 0 0 1 .047.117l.003.01.003.011a.67.67 0 0 1 .01.041l.003.02.001.008.002.012.003.018.004.024.005.04.003.017.005.039.003.02.002.015.001.007.004.024c.005.024.01.047.017.07l.004.012.005.012.005.013.005.012.005.011.006.012.006.012.006.01.006.012.007.011.007.01.008.011.007.01.009.011.008.01.009.01a.67.67 0 0 0 .08.07c.063.048.13.091.193.138l.019.015.017.015.01.007.038.035.006.004.017.015.018.014.017.014a.17.17 0 0 0 .041.024c.017.006.036.008.054.01l.013.002h.013l.013.002h.013l.013.001h.045c.13-.002.26-.03.39-.046l.081-.007.042-.002h.008l.041-.001h.142l.006.001.088.005h.004a2.743 2.743 0 0 1 .122.01c.09.01.182.022.268.055l.016.007.005.002.02.009.008.004.006.002.006.004.013.006.007.004.011.006.009.005.01.006.009.005.01.006.009.006.008.005.018.011.02.013.01.007.038.025.039.025.018.012.019.011.018.01.019.01a.344.344 0 0 0 .114.035c.055.007.111.01.167.016a.711.711 0 0 1 .093.02l.012.004.006.002.01.004h.002a.37.37 0 0 1 .016.006c.052.022.101.053.153.077a.368.368 0 0 0 .055.016l.044.001h.044c.05-.002.1-.006.15-.01a2.632 2.632 0 0 1 .052-.721l.005-.025.006-.026.003-.012.031-.12a.979.979 0 0 1 .068-.18c.063-.126.156-.233.25-.337l.092-.1.04-.044a.131.131 0 0 1 .023-.015c.045-.02.096-.013.143-.003h.003c.055.013.108.03.162.042.019.004.04.008.06.008h.006a.084.084 0 0 0 .038-.01.152.152 0 0 0 .046-.046.221.221 0 0 0 .038-.141.114.114 0 0 0-.022-.061.086.086 0 0 0-.03-.023c-.03-.015-.06-.027-.092-.04a.67.67 0 0 1-.123-.059.192.192 0 0 1-.052-.047.242.242 0 0 1-.032-.105c-.008-.062-.01-.125-.014-.188l-.002-.015-.001-.02-.003-.027a.615.615 0 0 0-.049-.182l-.005-.01-.002-.004-.003-.007-.003-.004-.003-.007-.003-.004-.004-.006-.002-.004-.004-.006-.003-.004-.005-.008-.001-.001-.007-.01-.003-.003-.005-.006-.003-.004-.004-.005-.003-.004-.005-.005-.003-.004-.003-.003-.013-.014-.001-.001-.014-.014-.002-.001-.014-.014-.002-.002-.009-.007-.01-.01-.009-.006-.01-.008-.009-.007-.01-.008-.009-.006-.01-.007a1.356 1.356 0 0 0-.045-.032l-.005-.003a2.975 2.975 0 0 0-.042-.027c-.08-.05-.163-.099-.243-.15a1.778 1.778 0 0 1-.124-.09l-.002-.002-.003-.003-.009-.007-.005-.004-.003-.003-.003-.002-.005-.004-.008-.008-.004-.003-.002-.001a1.41 1.41 0 0 1-.018-.017l-.015-.014-.002-.002-.002-.002-.004-.004-.007-.007-.005-.005-.003-.003-.003-.003-.004-.004-.008-.008-.003-.004-.002-.002a.922.922 0 0 1-.162-.243l-.001-.001a.796.796 0 0 1-.009-.02v-.003a.765.765 0 0 1-.009-.02v-.003l-.002-.004-.003-.009-.003-.009-.001-.003-.002-.004-.002-.009-.003-.007v-.003l-.002-.006-.003-.009-.001-.005-.001-.003-.002-.008-.003-.01v-.002l-.001-.003-.003-.01-.002-.01-.003-.015c-.041-.203-.015-.419.019-.622.008-.053.013-.074.024-.135a.589.589 0 0 1 .01-.046.685.685 0 0 1 .144-.232c.066-.075.14-.143.208-.216l.04-.046c.058-.073.116-.161.09-.26a.259.259 0 0 0-.08-.127.423.423 0 0 0-.123-.077l-.015-.006-.014-.006-.004-.001-.013-.005-.005-.002-.012-.004-.006-.002-.012-.003-.007-.002-.01-.004-.008-.002-.01-.003-.01-.002-.009-.002-.007-.002-.011-.002-.009-.002-.01-.002-.008-.002-.011-.002-.009-.001-.01-.002-.008-.001-.011-.002-.008-.001-.012-.002h-.007l-.006-.002-.032-.004-.025-.002h-.008l-.016-.002-.01-.001-.015-.001h-.01l-.015-.002h-.01l-.015-.001h-.01l-.014-.001h-.025l-.011-.001h-.098l-.016.001h-.007l-.018.001h-.006l-.019.001h-.003l-.022.002h-.016l-.026.003h-.01a9.908 9.908 0 0 1-.07-.612 7.302 7.302 0 0 1-.03-.727l.001-.033.002-.044v-.013l.001-.018v-.012l.001-.01.001-.013.001-.02.001-.015.001-.019.001-.013a3.454 3.454 0 0 1 .014-.136l.006-.051-.003-.03c-.022-.085-.104-.14-.174-.184l-.044-.027-.087-.057-.04-.029-.013-.011-.001-.001-.003-.003-.006-.005-.003-.003-.003-.002-.004-.004-.001-.001a.348.348 0 0 1-.01-.01l-.002-.002a.288.288 0 0 1-.012-.013l-.002-.003-.001-.001-.002-.003-.001-.001-.001-.001-.002-.003-.002-.002v-.002a.174.174 0 0 1-.025-.046.212.212 0 0 1 .005-.123.867.867 0 0 1 .142-.267c.026-.036.053-.07.08-.105l.086-.107a3.828 3.828 0 0 0 .226-.29.95.95 0 0 0 .147-.291c.03-.112.044-.227.049-.342v-.038l.001-.012V8.64l-.001-.015-.002-.024v-.014l-.002-.027v-.012l-.004-.037-.001-.01-.003-.028-.002-.016-.002-.022-.003-.017-.003-.02-.002-.018-.003-.02-.003-.018-.004-.019-.003-.019-.003-.017a2.181 2.181 0 0 0-.032-.137 1 1 0 0 0-.13-.313.922.922 0 0 0-.3-.269 1.417 1.417 0 0 0-.106-.055.518.518 0 0 0-.06-.026.565.565 0 0 0-.093-.02c-.08-.011-.161-.015-.241-.024-.056-.008-.125-.015-.165-.06a.25.25 0 0 1-.042-.084c-.015-.05-.028-.1-.043-.148a.23.23 0 0 0-.054-.095l-.005-.005-.002-.001-.004-.003-.002-.002-.004-.002-.003-.001-.003-.002-.003-.002-.004-.002h-.003l-.004-.003h-.002l-.005-.002-.002-.001-.007-.002h-.002l-.005-.002-.01-.002-.01-.002h-.005l-.009-.002-.006-.001-.014-.002a1.549 1.549 0 0 0-.168-.01 6.093 6.093 0 0 0-.537.017l-.085.006-.093.008-.035.003a1.31 1.31 0 0 0-.1-.142 1.46 1.46 0 0 0-.298-.278.932.932 0 0 0-.153-.09l-.013-.005-.004-.001-.009-.004-.004-.001-.01-.004h-.003l-.013-.005h-.002a.887.887 0 0 0-.134-.03 1.809 1.809 0 0 0-.279-.018c-.14 0-.279.011-.418.026l-.018.002-.056.006-.076.01-.21.025c-.028.003-.057.005-.086.01a.727.727 0 0 0-.054.012.981.981 0 0 0-.326.189c-.103.082-.198.172-.3.257l-.067.054a1.015 1.015 0 0 1-.284.159l-.018.005-.019.005v.004c-.002.072-.01.146-.025.218l-.011.09c-.006.046-.012.09-.02.135a1.36 1.36 0 0 1-.042.168.4.4 0 0 1-.053.103l-.004.005-.003.004-.002.002-.003.005-.003.002v.002l-.003.002-.003.004-.002.001-.001.002-.003.002-.004.004-.002.002h-.001a.156.156 0 0 1-.009.008h-.001a.154.154 0 0 1-.01.008l-.002.001-.002.002-.004.002-.002.001-.004.003h-.002v.001l-.006.003a.207.207 0 0 1-.08.022h-.007a.093.093 0 0 1-.06-.02.23.23 0 0 1-.05-.06.976.976 0 0 1-.019-.031c-.05.02-.102.035-.154.048a1.891 1.891 0 0 1-.382.04c-.09.002-.181 0-.272 0-.077 0-.155.001-.233-.001a2.6 2.6 0 0 1-.32-.036 1.272 1.272 0 0 1-.082.004h-.02a.565.565 0 0 1-.274-.061 1.085 1.085 0 0 0-.08-.006c-.063-.002-.126.003-.188.003a.737.737 0 0 1-.082-.005.333.333 0 0 1-.098-.025.332.332 0 0 1-.075-.052.925.925 0 0 1-.09-.093c-.063-.072-.122-.148-.186-.22a1.718 1.718 0 0 0-.058-.059c-.06-.057-.129-.11-.214-.116h-.011l-.056-.018a3.022 3.022 0 0 1-.043.004h-.006l-.025.002-.05.001h-.016a.581.581 0 0 1-.066-.004.341.341 0 0 1-.102-.027.253.253 0 0 1-.108-.101l-.166-.05c-.03-.068-.063-.134-.093-.202a.865.865 0 0 1-.064-.256.841.841 0 0 1 .003-.325zm1.128 10.175l.436 1.029-.002-.065a.899.899 0 0 0-.075-.517 1.094 1.094 0 0 0-.162-.25.915.915 0 0 0-.194-.195zm-.291-7.48c.612.264 1.104.736 1.232 1.621a.535.535 0 0 1 .308.119 2.233 2.233 0 0 0-.14.37h-.386a2.506 2.506 0 0 0 0 1.115h.387c.048.176.118.345.208.503l-.274.274c.2.318.47.588.788.788l.274-.274c.158.09.327.16.503.208v.387c.367.084.747.084 1.114 0v-.387a2.17 2.17 0 0 0 .503-.208l.616.616a2.982 2.982 0 0 1-4.657-2.464c0-.228.02-.465.032-.715.01-.218-.063-.587-.262-.786-.35-.349-.703-.58-.703-.58zm6.914 5.337c-.612-.265-1.104-.736-1.232-1.622a.536.536 0 0 1-.308-.119c.058-.119.104-.243.139-.37h.387a2.506 2.506 0 0 0 0-1.115h-.387a2.13 2.13 0 0 0-.208-.503l.274-.274c-.2-.318-.47-.587-.788-.788l-.274.274a2.13 2.13 0 0 0-.503-.208v-.387a2.506 2.506 0 0 0-1.114 0v.387a2.13 2.13 0 0 0-.503.208l-.616-.616a2.982 2.982 0 0 1 4.657 2.464c0 .228-.02.465-.032.715-.01.218.063.587.262.786.349.35.703.58.703.58zm2.365-1.16c-.065.072-.136.139-.2.207-.019.02-.036.04-.053.061a.364.364 0 0 0-.06.102c-.01.034-.014.073-.02.105l-.013.083a4.6 4.6 0 0 0-.016.11zm-5.416-3.55a2.08 2.08 0 0 0-.812 0l.01.317a1.76 1.76 0 0 0-.543.225l-.217-.232a2.082 2.082 0 0 0-.575.575l.232.217a1.77 1.77 0 0 0-.225.543l-.318-.01a2.083 2.083 0 0 0 0 .812l.318-.01c.044.193.12.376.225.543l-.232.218c.152.227.347.422.575.574l.217-.231c.167.104.35.18.543.225l-.01.317c.268.053.544.053.812 0l-.01-.318a1.77 1.77 0 0 0 .543-.224l.217.23c.228-.151.423-.346.575-.573l-.232-.218a1.75 1.75 0 0 0 .225-.543l.318.01a2.083 2.083 0 0 0 0-.812l-.318.01a1.77 1.77 0 0 0-.225-.543l.232-.217a2.082 2.082 0 0 0-.575-.575l-.217.232a1.771 1.771 0 0 0-.543-.225zm-.496.907v-.188h.18v.187c.208-.039.302-.2.299-.186-.034.16-.113.335-.299.379v.386c.371-.042.538-.324.533-.302-.058.27-.197.562-.533.607v.352c.456-.041.66-.365.655-.34-.07.306-.24.638-.655.682v.424c.583-.042.844-.468.837-.436-.093.419-.328.877-.927.88-.6 0-.835-.46-.924-.881-.006-.03.251.398.834.438v-.424c-.418-.04-.588-.376-.655-.684-.005-.023.197.304.655.341v-.35c-.339-.043-.478-.339-.533-.61-.004-.02.16.264.533.303v-.386c-.187-.041-.266-.217-.299-.38-.002-.012.09.15.299.188zm-4.976 1.47l.067.157a.51.51 0 0 0-.007-.063.164.164 0 0 0-.02-.06c-.011-.013-.026-.024-.04-.035zm2.32-4.407l.022.003c.067.003.134-.002.2-.002.034 0 .033 0 .066.002.18.016.356.05.534.077a1.846 1.846 0 0 0 .256.021c.148 0 .296.003.444 0 .101-.002.202-.007.301-.027a.805.805 0 0 0 .18-.057.446.446 0 0 0 .164-.117.375.375 0 0 0 .064-.139.993.993 0 0 0 .028-.24 2.074 2.074 0 0 0-.014-.27c-.013-.14-.031-.28-.043-.42-.008-.11-.01-.22-.015-.33a2.624 2.624 0 0 0-.01-.11.832.832 0 0 0-.033-.152c-.005-.016-.01-.037-.022-.05a.168.168 0 0 0-.027-.02.711.711 0 0 0-.034-.02c-.059-.03-.118-.056-.176-.086a.788.788 0 0 1-.203-.147 1.407 1.407 0 0 1-.292-.66l-.002-.017-.026.002-.017.002h-.004l-.012.001h-.005l-.01.001h-.004l-.02.002c-.052.002-.104 0-.155.001l-.26.004h-.042l-.007.001h-.014l-.022.001h-.022l-.008.001h-.012l-.024.001h-.014l-.049.002H9.91l-.037.002H9.85l-.02.001h-.016l-.008.001H9.79l-.032.002h-.005l-.052.002-.251.011c-.152.004-.305-.002-.457.002a2.207 2.207 0 0 0-.223.018h-.007l-.004.001h-.001l-.005.001h-.004v.001h-.002l-.004.001H8.74l-.002.001h-.005l-.003.002h-.007l-.003.001-.002.001h-.003l-.002.001H8.71l-.002.001h-.003l-.002.001H8.7l-.004.001-.003.001H8.69l-.004.002h-.003l-.001.001H8.68l-.005.002H8.67l-.006.003h-.003l-.01.003a.41.41 0 0 0-.095.04c-.01.006-.023.013-.03.023a.114.114 0 0 0-.009.03.621.621 0 0 0 0 .128v.01l.009.094a4.522 4.522 0 0 1 .01.142.816.816 0 0 1-.054.348.76.76 0 0 1-.083.146 1.092 1.092 0 0 1-.127.143l-.007.006-.002.002-.004.003-.011.01-.002.002-.006.005-.007.007-.007.006-.007.006-.007.006-.006.005-.008.007-.004.003-.024.021c-.04.034-.08.067-.117.102a.401.401 0 0 0-.096.125.419.419 0 0 0-.013.198c.003.038.01.077.016.115.006.031.012.063.022.094.013.039.03.077.048.114l.01.021.498.15h-.016l.048.005c.023.004.023.004.045.01.035.01.069.022.101.038a.917.917 0 0 1 .271.228L9 7.383l.013.014.011.014.012.014.01.012.04.048.02.025.019.022.011.014.012.014.012.013.01.013a.815.815 0 0 0 .052.051c.005.004.013.013.02.015l.011.002zM11.418.014a12.1 12.1 0 0 1 1.19.001z" fill-rule="evenodd"/></svg>