<svg viewBox="0 0 24 24" xmlns="http://www.w3.org/2000/svg" role="img"><path d="M24 9.059a51.679 51.679 0 0 0-1.088.232c-.002.001-.169.599-.371 1.328-.203.729-.371 1.332-.375 1.341-.005.01-.059-.507-.128-1.218a86.02 86.02 0 0 0-.126-1.24 31.059 31.059 0 0 0-1.07.227c-.016.006-.084.214-.405 1.248-.252.807-.389 1.234-.393 1.223-.003-.01-.054-.518-.113-1.13a74.43 74.43 0 0 0-.111-1.118 31.696 31.696 0 0 0-1.072.228c-.007.004-.264.725-.572 1.602l-.563 1.599c-.003.002-.126-.315-.275-.705a22.16 22.16 0 0 0-.278-.707c-.004.002-.156.302-.338.668l-.332.666.347.805.346.805h1.111l.19-.577c.503-1.532.579-1.756.582-1.73.008.072.223 2.294.223 2.305 0 .01.105.011.569.01l.568-.003.373-1.268c.204-.698.373-1.267.374-1.266l.125 1.267c.087.903.126 1.269.135 1.278.01.01.118.012.567.012h.555l.062-.233A1875.48 1875.48 0 0 0 24 9.058zm-14.376.365c-.01 0-.024.012-.056.045-.15.15-.397.267-.672.318a2.045 2.045 0 0 1-.59 0 .673.673 0 0 1-.294-.135c-.055-.048-.088-.055-.118-.022a.998.998 0 0 0-.07.156c-.044.114-.053.144-.053.194 0 .172.17.3.441.33a1.87 1.87 0 0 0 .535-.046c.239-.061.46-.177.622-.326.113-.103.131-.132.208-.323.062-.153.069-.177.056-.187a.014.014 0 0 0-.009-.004zm7.174.919c-.01-.001-.036.018-.072.053-.226.22-.631.351-1.036.334-.233-.01-.41-.064-.514-.158-.05-.046-.089-.054-.115-.025-.016.017-.063.13-.104.245-.04.118-.023.208.056.286.084.084.22.138.381.151.09.008.19.005.305-.009.333-.04.62-.165.839-.366.11-.102.136-.142.21-.33.036-.092.065-.17.065-.172 0-.002-.006-.006-.013-.009h-.002zm-14.837.004a.049.049 0 0 0-.042.022c-.025.039-.12.294-.143.385a.802.802 0 0 0-.021.246c0 .144.004.176.03.3a2484.517 2484.517 0 0 0 .232 1.118c.065.313.095.41.169.549.106.198.26.325.443.366.084.019.29.015.368-.007a.986.986 0 0 0 .273-.135c.116-.087.224-.218.314-.385.052-.096.076-.115.115-.093.02.01.028.03.045.093.07.263.224.427.473.503.194.06.487.048.75-.03.302-.09.566-.233.777-.422a.233.233 0 0 1 .076-.052c.024 0 .045.023.119.138.173.268.385.405.625.405.344 0 .712-.187.937-.476.054-.07.063-.076.091-.076.037 0 .052.019.068.087.006.025.03.085.053.132.034.072.055.1.117.162a.541.541 0 0 0 .429.171c.326 0 .665-.14.914-.376.183-.174.246-.296.336-.65l.042-.166.001-.175c.001-.196-.01-.252-.073-.389-.119-.258-.36-.442-.613-.468-.05-.005-.062-.004-.08.01-.013.012-.057.118-.135.331l-.14.375c-.022.056-.023.065-.013.106.028.112.117.23.208.276a.46.46 0 0 0 .519-.074c.032-.029.044-.034.064-.03.08.02.106.07.061.123-.034.042-.155.14-.23.188a1.62 1.62 0 0 1-.488.205c-.39.101-.652.042-.758-.17-.039-.078-.043-.129-.02-.279.023-.156.023-.159 0-.181-.025-.026-.094-.026-.117 0a.483.483 0 0 0-.044.13c-.025.11-.028.115-.069.155-.176.174-.629.359-.943.386a1.73 1.73 0 0 1-.443-.027c-.241-.048-.256-.062-.201-.18a4.77 4.77 0 0 0 .175-.483.79.79 0 0 0-.08-.287.712.712 0 0 0-.16-.224c-.146-.145-.343-.196-.49-.129-.071.032-.113.07-.207.184-.116.14-.366.386-.452.445a1.09 1.09 0 0 1-.49.182c-.078.008-.088.022-.088.12 0 .067.002.08.02.097.018.019.025.02.103.014a1.25 1.25 0 0 0 .657-.267c.057-.043.167-.141.26-.234l.161-.16.06.004a.55.55 0 0 1 .329.167c.053.06.097.14.101.183.005.039.005.04-.077.117-.2.192-.514.342-.896.427-.412.091-.718.07-.907-.064-.1-.07-.136-.142-.138-.275-.002-.083-.004-.092-.023-.108-.023-.018-.074-.022-.102-.007-.01.005-.024.03-.032.06-.012.041-.024.057-.072.1-.126.11-.295.212-.444.268a1.262 1.262 0 0 1-.538.078.458.458 0 0 1-.27-.13c-.084-.093-.088-.104-.237-.832a22.05 22.05 0 0 1-.147-.76 1.445 1.445 0 0 1 .022-.424c.026-.125.022-.138-.04-.165a.181.181 0 0 0-.074-.018zm12.382 0a.061.061 0 0 0-.037.01.817.817 0 0 0-.07.15c-.207.529-.206.653.009 1.267.163.465.202.616.202.785 0 .16-.043.27-.143.37-.093.091-.265.177-.47.234-.112.031-.131.04-.138.07-.013.049.064.217.128.28a.358.358 0 0 0 .135.085.634.634 0 0 0 .12.005c.087-.002.102-.005.16-.032a.453.453 0 0 0 .192-.16c.184-.247.266-.595.245-1.045-.01-.233-.026-.32-.174-1.02-.065-.31-.064-.301-.074-.427-.01-.134 0-.295.029-.417.023-.096.018-.112-.044-.138a.181.181 0 0 0-.07-.017zm-4.461 0c-.018 0-.032.005-.042.016-.03.033-.15.351-.186.49-.074.292-.058.378.206 1.15.092.269.123.401.125.54a.493.493 0 0 1-.104.343c-.095.119-.263.205-.58.298a.122.122 0 0 0-.06.037l-.017.024.026.077c.048.137.123.228.22.265a.5.5 0 0 0 .254.004c.137-.04.249-.153.347-.349.1-.2.144-.428.144-.746 0-.272-.018-.405-.114-.856a181.984 181.984 0 0 1-.113-.534 1.228 1.228 0 0 1-.02-.29c0-.176.002-.21.021-.296.026-.115.022-.129-.041-.156a.18.18 0 0 0-.066-.017zm-1.558.23c-.013-.002-.038.013-.065.042-.13.133-.316.232-.553.293a1.582 1.582 0 0 1-.485.049c-.252-.008-.405-.054-.525-.158-.055-.047-.082-.052-.11-.022-.02.023-.106.235-.123.305-.02.084.021.19.1.253a.684.684 0 0 0 .303.121c.083.011.318.004.422-.013a1.49 1.49 0 0 0 .774-.358c.106-.097.134-.14.206-.323.036-.09.065-.17.065-.177 0-.008-.003-.012-.01-.013zm3.671.386a.41.41 0 0 0-.074.088l-.062.087.01.177c.005.098.009.282.009.41 0 .133.004.252.01.279a.186.186 0 0 0 .096.125c.02.01.098.012.314.012h.286l.04-.025c.06-.041.087-.088.102-.176a.385.385 0 0 0-.033-.212c-.031-.062-.122-.139-.164-.139a.639.639 0 0 0-.07.198c.003.003.036.02.073.04.067.033.106.074.089.091a4.476 4.476 0 0 1-.558.003c-.034-.018-.037-.064-.038-.5 0-.416-.002-.458-.03-.458zm.215.142a.018.018 0 0 0-.009.003c-.022.014-.064.122-.065.164 0 .078.044.115.233.189.166.066.172.064.204-.04.013-.042.028-.098.034-.125.011-.049.011-.05-.014-.072-.022-.018-.035-.021-.092-.021a.484.484 0 0 1-.246-.076c-.022-.016-.035-.022-.045-.022zm.76.144c-.032 0-.055.041-.094.14-.067.173-.065.239.012.321.06.063.114.092.371.194.124.05.233.09.241.09.036.001.062-.042.132-.223a.973.973 0 0 0 .065-.199.083.083 0 0 0-.021-.03 2.68 2.68 0 0 0-.26-.095c-.262-.087-.324-.114-.386-.165-.025-.02-.044-.032-.06-.033zm-2.276.101c-.114 0-.202.042-.295.14a.41.41 0 0 0-.132.296c0 .087.023.135.081.17.039.022.053.025.149.028.1.003.126 0 .265-.033.018-.004.02-.001.02.026 0 .046.03.104.07.134l.035.026.18.003c.205.003.23 0 .267-.03.034-.03.038-.03.038.007 0 .083.054.179.115.205.075.033.176.004.23-.067.128-.168.088-.416-.09-.553-.085-.065-.292-.155-.31-.134a2.575 2.575 0 0 0-.065.236c0 .003.019.008.042.012.054.008.086.033.072.056a.144.144 0 0 1-.041.035c-.028.016-.052.019-.187.022-.234.004-.235.003-.246-.225-.015-.3-.045-.354-.198-.354zm-9.474.088c-.18-.002-.374.092-.578.28-.073.067-.073.068-.096.28l-.016.155.03.027c.016.014.035.026.042.026.007 0 .055-.02.108-.045.263-.124.477-.146.637-.064.07.036.15.126.196.223a.62.62 0 0 1 .047.13l.005.042-.114.113c-.197.195-.419.325-.753.44a4.932 4.932 0 0 1-.478.128.088.088 0 0 0-.042.02c-.02.015-.024.026-.024.059 0 .027.006.046.017.057.021.022.36.194.457.233a.674.674 0 0 0 .479.036c.222-.093.409-.335.507-.658.039-.129.081-.37.097-.548.023-.27-.017-.536-.104-.689a.533.533 0 0 0-.18-.183.512.512 0 0 0-.237-.062zm9.389.127a.17.17 0 0 1 .057.007c.048.017.069.047.076.11l.006.052-.06.01a.826.826 0 0 1-.232.012c-.045-.01-.073-.041-.065-.074.013-.06.127-.115.218-.117zm.869.3.05.026c.108.055.175.145.137.183-.023.022-.073.024-.117.004-.052-.025-.077-.078-.073-.157zm4.64.152a.626.626 0 0 0-.165.022c-.254.072-.689.376-.734.513l-.067.187c-.07.186-.082.249-.076.365a.92.92 0 0 0 .1.356l.048.102-.02.04a1.149 1.149 0 0 1-.208.245c-.15.13-.415.275-.692.38-.076.03-.3.107-.497.173-.248.084-.365.127-.38.142-.026.026-.027.075-.003.101a.39.39 0 0 0 .127.049l.182.051c.143.042.342.09.447.107a.891.891 0 0 0 .653-.13c.1-.068.225-.196.296-.306.102-.158.238-.508.285-.734.01-.054.022-.145.025-.203.006-.131-.009-.198-.085-.378l-.052-.124.021-.04a1.02 1.02 0 0 1 .241-.239c.155-.107.383-.191.497-.184.072.005.108.041.139.138a.08.08 0 0 0 .029.031c.022.015.026.015.055.001a.147.147 0 0 0 .054-.054c.023-.04.076-.168.117-.285l.022-.061-.035-.07a.343.343 0 0 0-.18-.173.415.415 0 0 0-.144-.022zm-2.82.08a.053.053 0 0 0-.041.015 3.57 3.57 0 0 0-.21.432c0 .015.07.135.2.342.135.214.2.325.2.343 0 .066-.185.284-.337.398-.247.184-.52.304-1.21.53-.174.057-.32.11-.327.118-.018.021-.016.091.002.11a.586.586 0 0 0 .129.045c.307.086.5.135.593.152.08.014.13.017.24.015a.715.715 0 0 0 .356-.08c.323-.16.542-.534.665-1.136.063-.304.064-.527.005-.756-.041-.16-.172-.462-.221-.511a.065.065 0 0 0-.044-.018zm-2.609.308c-.028.005-.065.025-.075.042a.473.473 0 0 0-.038.224.825.825 0 0 0 .183.53c.104.134.295.273.458.333a.714.714 0 0 1 .098.04.121.121 0 0 0 .047.013c.05 0 .193-.036.272-.068a.903.903 0 0 0 .456-.374.854.854 0 0 0 .106-.455c-.006-.055-.01-.068-.037-.094-.049-.049-.06-.042-.06.035 0 .081-.03.23-.063.317a.925.925 0 0 1-.335.403c-.074.05-.267.14-.32.15-.033.007-.109-.03-.235-.115a1.036 1.036 0 0 1-.43-.572.864.864 0 0 1-.021-.24 2.185 2.185 0 0 0-.006-.17zm-3.734 1.698a.157.157 0 0 0-.09.022c-.04.02-.054.033-.069.064a.152.152 0 0 0-.001.141c.022.049.063.076.17.113a.803.803 0 0 1 .112.047c.08.05.077.179-.005.22-.065.034-.148.032-.275-.005-.019-.005-.021-.003-.019.016.003.018.012.024.05.033a.71.71 0 0 0 .138.01c.081-.003.097-.006.134-.028.057-.033.076-.073.071-.15-.006-.095-.043-.13-.184-.178-.133-.045-.164-.073-.164-.151 0-.062.026-.095.09-.113a.386.386 0 0 1 .196.007c.019.004.02-.026.002-.034a1.392 1.392 0 0 0-.156-.014zm-2.72.001a.61.61 0 0 0-.022 0c-.12.007-.195.059-.247.171-.018.038-.02.06-.02.16 0 .098.002.12.02.157.036.08.113.146.191.165.05.013.175.01.224-.005l.048-.014v-.303h-.097c-.08 0-.096.002-.096.013 0 .012.014.014.078.014h.078v.125c0 .123 0 .124-.022.133-.082.03-.22.014-.282-.036-.111-.088-.143-.273-.071-.415.064-.126.188-.167.346-.113.034.01.042.011.049 0 .018-.028-.072-.054-.178-.052zm-2.937.006v.324c0 .317 0 .323.019.323.017 0 .018-.006.018-.143v-.143h.051c.096 0 .117.018.226.191.052.083.062.094.085.095.018 0 .024-.004.019-.012a3.625 3.625 0 0 0-.17-.25l-.029-.033h.023a.17.17 0 0 0 .064-.027c.054-.034.076-.085.07-.166-.005-.066-.024-.096-.082-.129-.036-.02-.053-.023-.167-.026zm8.269 0v.324c0 .317 0 .323.018.323s.019-.006.019-.143v-.143h.05c.097 0 .118.018.227.191.052.083.062.094.085.095.018 0 .023-.004.019-.012a3.625 3.625 0 0 0-.17-.25l-.029-.033h.022a.17.17 0 0 0 .064-.027c.055-.034.076-.085.07-.166-.004-.066-.023-.096-.081-.129-.037-.02-.054-.023-.167-.026zm-9.341.002c-.195 0-.226.002-.226.014s.017.014.101.014h.102v.617h.046v-.617h.1c.085 0 .102-.002.102-.014s-.031-.013-.225-.013zm2.633 0c-.178 0-.207.002-.207.014s.026.014.184.014c.101 0 .184.002.184.005 0 .01-.056.116-.093.177-.057.094-.16.246-.226.333a.458.458 0 0 0-.058.09c0 .01.04.012.216.012.186 0 .216-.002.216-.014s-.027-.014-.188-.014c-.104 0-.19-.001-.19-.004 0-.002.028-.04.062-.085a2.99 2.99 0 0 0 .252-.392.835.835 0 0 0 .055-.122c0-.012-.028-.014-.207-.014zm.493 0v.645h.184c.157 0 .184-.002.184-.014s-.025-.014-.166-.014h-.166v-.294h.143c.12 0 .143-.003.143-.014 0-.012-.022-.014-.143-.014h-.143v-.267h.166c.141 0 .166-.002.166-.014s-.027-.014-.184-.014zm1.408 0c-.018 0-.018.006-.018.323 0 .316 0 .322.018.322s.019-.006.019-.161v-.161h.387v.16c0 .156 0 .162.018.162s.018-.006.018-.322c0-.317 0-.323-.018-.323s-.018.006-.018.148v.147h-.387v-.147c0-.142 0-.148-.019-.148zm.926 0c-.195 0-.226.002-.226.014s.018.014.102.014h.1v.617h.047v-.617h.101c.084 0 .101-.002.101-.014s-.03-.014-.225-.014zm.483 0v.645h.184c.158 0 .185-.002.185-.014s-.025-.014-.166-.014h-.166v-.294h.143c.12 0 .142-.003.142-.014 0-.012-.022-.014-.142-.014h-.143v-.267h.166c.141 0 .166-.002.166-.014s-.027-.014-.185-.014zm1.998 0v.645h.119c.156 0 .199-.013.269-.083.067-.067.086-.12.086-.24s-.019-.172-.086-.24c-.07-.068-.113-.082-.269-.082zm1.06 0c-.019 0-.02.006-.02.323 0 .316.001.322.02.322.017 0 .018-.006.018-.322 0-.317 0-.323-.019-.323zm-8.46.002c-.018-.001-.026.014-.075.13a7.434 7.434 0 0 0-.181.488c-.006.021-.004.025.012.025s.025-.017.054-.108l.035-.108.157-.003.158-.002.035.11c.029.092.038.11.053.11s.017-.003.011-.029a6.03 6.03 0 0 0-.179-.485c-.046-.11-.056-.125-.076-.128a.05.05 0 0 0-.004 0zm1.418 0c-.018-.001-.026.014-.075.13a7.435 7.435 0 0 0-.181.488c-.006.021-.004.025.012.025s.025-.017.054-.108l.035-.108.157-.003.158-.002.035.11c.029.092.038.11.053.11s.017-.003.011-.029a6.03 6.03 0 0 0-.179-.485c-.046-.11-.056-.125-.076-.128a.05.05 0 0 0-.004 0zm5.46 0c-.018-.001-.026.014-.074.13a7.434 7.434 0 0 0-.182.488c-.005.021-.003.025.013.025.015 0 .024-.017.053-.108l.036-.108.157-.003.157-.002.035.11c.029.092.038.11.053.11s.017-.003.012-.029a6.03 6.03 0 0 0-.18-.485c-.046-.11-.056-.125-.076-.128a.05.05 0 0 0-.004 0zm.56.023.103.005c.152.007.216.041.265.143a.45.45 0 0 1 .013.265.277.277 0 0 1-.135.156.508.508 0 0 1-.143.021l-.104.005v-.297zm-6.87 0 .09.005c.149.007.204.044.211.14.005.066-.016.105-.074.133a.302.302 0 0 1-.136.027l-.09.004v-.154zm8.269 0 .09.005c.149.007.204.044.211.14.005.066-.017.105-.074.133a.302.302 0 0 1-.136.027l-.091.004v-.154zm-8.83.024h.001c.01.018.123.299.132.327l.006.02H.768c-.133 0-.143 0-.138-.016.066-.175.134-.332.144-.331zm1.418 0h.001c.01.018.123.299.132.327l.006.02h-.145c-.133 0-.143 0-.138-.016.065-.175.134-.332.144-.331zm5.46 0h.001c.01.018.123.299.132.327l.006.02h-.144c-.134 0-.144 0-.139-.016.066-.175.134-.332.144-.331zm1.235.551c-.023 0-.035.017-.026.04.004.01.015.014.031.012.02-.002.026-.007.026-.026 0-.018-.005-.023-.026-.025h-.005z"/></svg>