<svg viewBox="0 0 24 24" xmlns="http://www.w3.org/2000/svg" role="img"><path d="M16.414 16.765c-.27-.182-.361-.402-.34-.822.01-.207.366-.545.615-.585l.193-.03-.113-.123a.824.824 0 0 1-.189-.656c.036-.192.267-.486.42-.534.121-.039.06-.104-.117-.126-.128-.015-.142.005-.336.488-.25.623-.421.917-.682 1.177-1.075 1.076-2.88.607-3.268-.848-.132-.497-.094-.76.246-1.688l.223-.609h.72c.667 0 .718.007.687.084-.27.685-.553 1.578-.552 1.748.002.325.209.52.552.52.41 0 .492-.124.987-1.503l.307-.855.72.023c.397.012.803.038.902.056.165.03.196.019.337-.13.127-.136.21-.339.463-1.134l.308-.969h.712c.543 0 .711.015.711.061 0 .241-.492 1.739-.746 2.27-.362.76-.739 1.133-1.31 1.3l-.258.075.144.087c.427.26.498.847.143 1.183-.198.188-.33.256-.502.258-.115 0-.123.008-.05.05.117.069.275.396.275.572 0 .221-.11.44-.307.613-.155.137-.21.155-.456.155-.21 0-.318-.027-.44-.108zm1.946-.663c-.185-.046-.6-.192-.6-.212 0-.005.087-.1.193-.212.107-.112.285-.396.396-.632.151-.32.221-.421.275-.4.04.016.152.04.25.054.318.045.413-.108.783-1.255l.32-.996.8.023c.44.012.858.038.93.057.174.047.379-.157.5-.495l.088-.249h.72l-.172-.116a.833.833 0 0 1-.243-.264l-.072-.148-.116.178c-.312.479-.962.488-1.279.018a.757.757 0 0 1 .557-1.192c.293-.029.596.117.735.352l.098.166.083-.155c.1-.187.432-.375.662-.375a.82.82 0 0 1 .615.311c.096.127.117.21.117.467 0 .347-.081.5-.356.667l-.148.09.137.001c.126 0 .135.011.105.132-.072.292-.424 1.013-.626 1.282-.409.545-.812.768-1.392.77-.185 0-.423-.017-.529-.038l-.193-.038-.064.218c-.036.12-.18.451-.319.735-.44.896-.92 1.265-1.679 1.29a2.79 2.79 0 0 1-.576-.034zm-8.568-1.096v-.522l.288-.005c.259-.003.295.009.369.121.193.295.026.665-.296.655-.156-.004-.169.007-.169.135 0 .107-.022.14-.096.14-.09 0-.096-.033-.096-.524zm.519-.164c-.012-.12-.04-.156-.13-.169-.187-.027-.268.203-.122.349.121.12.27.014.252-.18zm-6.464.404c-.087-.054-.05-.216.054-.236a.105.105 0 0 1 .114.063c.039.103-.081.226-.168.173zm1.3-.03c-.207-.146-.109-.383.205-.493.143-.05.143-.05-.06-.054-.335-.006-.253-.196.084-.196.22 0 .288.11.288.46v.308h-.14a.753.753 0 0 0-.204.025c-.036.013-.113-.01-.172-.05zm.267-.176c.084-.084.071-.135-.035-.135s-.167.072-.123.144c.04.064.088.06.158-.01zm2.878.197c-.064-.037-.084-.111-.084-.305 0-.184-.02-.264-.072-.284a.118.118 0 0 1-.072-.101c0-.04.032-.074.072-.074.04 0 .072-.042.072-.096 0-.064.032-.096.096-.096s.096.032.096.096.032.096.096.096c.056 0 .096.032.096.077 0 .042-.043.087-.096.101-.075.02-.096.066-.096.212 0 .127.021.186.067.186.058 0 .15.138.114.17-.056.047-.22.058-.289.018zm.706.006c-.198-.08-.285-.305-.205-.534.056-.161.167-.236.351-.236.264 0 .427.218.373.5-.038.198-.325.348-.519.27zm.264-.215c.031-.038.05-.13.041-.204-.013-.114-.037-.135-.159-.135s-.146.02-.16.135c-.016.143.06.273.16.273.033 0 .086-.03.118-.069zm1.54.215c-.09-.057-.04-.218.07-.218.061 0 .101.037.11.102.016.111-.083.175-.18.116zm-10.7-.333c-.124-.408-.125-.437-.006-.437.07 0 .11.055.16.224l.064.223.064-.226c.051-.183.081-.223.16-.211.066.01.115.075.154.206l.057.192.055-.135a.739.739 0 0 0 .055-.204c0-.042.048-.069.125-.069.08 0 .117.022.103.06l-.13.387c-.09.276-.123.324-.207.312-.069-.01-.116-.073-.156-.207-.058-.196-.063-.193-.164.084-.03.082-.084.132-.141.132-.073 0-.114-.07-.193-.331zm1.27.007c-.05-.178-.1-.35-.112-.384-.013-.037.023-.06.097-.06.1 0 .126.032.166.204.047.206.055.203.155-.072.08-.219.22-.172.292.096l.06.228.056-.216c.042-.165.08-.22.161-.231.132-.02.131-.007-.006.402-.083.247-.137.337-.207.347-.075.012-.109-.032-.166-.216l-.071-.23-.064.228c-.051.181-.085.228-.167.228-.085 0-.117-.054-.193-.324zm1.274-.007c-.124-.407-.125-.437-.007-.437.07 0 .109.057.158.228l.064.228.065-.228c.083-.297.214-.313.297-.037.066.221.115.214.16-.022.026-.14.051-.169.154-.169.078 0 .115.022.1.06l-.13.387c-.091.279-.122.324-.21.312-.071-.01-.117-.07-.157-.207-.036-.123-.066-.166-.084-.12l-.076.204c-.03.082-.083.132-.14.132-.073 0-.115-.07-.194-.331zm1.819-.1v-.433H4.32c-.112 0-.144-.021-.144-.096 0-.088.032-.096.408-.096s.408.008.408.096c0 .075-.032.096-.144.096h-.144v.432c0 .429 0 .432-.12.432s-.12-.003-.12-.432zM6 14.904a3.34 3.34 0 0 0-.012-.372c-.007-.02.09-.041.216-.048.2-.011.228-.001.228.084 0 .062-.032.096-.09.096-.113 0-.15.09-.15.364 0 .18-.015.212-.096.212-.087 0-.096-.032-.096-.336zm.634-.036c.013-.344.022-.373.122-.387.104-.015.108-.002.108.372 0 .383-.001.387-.122.387s-.122-.002-.108-.372zm.55.34c-.018-.017-.032-.187-.032-.377v-.345l.287-.004c.36-.005.433.076.433.48 0 .265-.006.278-.12.278-.115 0-.12-.012-.12-.291 0-.275-.006-.29-.108-.276-.096.013-.11.047-.122.291-.012.228-.03.276-.1.276-.048 0-.1-.014-.118-.032zm4.058-.34c.013-.344.022-.373.122-.387.104-.015.108-.002.108.372 0 .383-.001.387-.122.387s-.122-.002-.108-.372zm.518-.008v-.38h.216c.176 0 .216.016.216.087 0 .047-.043.097-.096.111-.082.021-.096.066-.096.294 0 .254-.006.268-.12.268-.118 0-.12-.007-.12-.38zm-5.119-.507c-.016-.044-.007-.102.021-.13.073-.074.212-.007.193.092-.021.111-.175.138-.214.038zm4.608 0c-.016-.044-.007-.102.021-.13.073-.074.212-.007.193.092-.021.111-.175.138-.214.038zm-10.683-.36c-.35-.105-.566-.403-.566-.78 0-.548.602-.916 1.091-.666.196.1.395.323.399.446 0 .035.03-.002.065-.082.247-.565 1.044-.6 1.372-.06l.085.14.101-.174c.11-.187.416-.357.644-.359.207-.001.43.112.6.306l.155.177v-.436h.71c.794 0 .858-.02 1.012-.327.048-.097.214-.571.368-1.053l.279-.876h1.434l-.034.177c-.018.098-.119.46-.224.804-.4 1.31-.829 2.096-1.316 2.42-.373.246-.616.295-1.47.295h-.759v-.456l-.091.15a.76.76 0 0 1-1.297.004l-.116-.177-.092.15c-.273.451-.783.535-1.158.191a.998.998 0 0 1-.202-.27c-.037-.082-.065-.11-.066-.064-.003.129-.245.382-.456.478-.212.096-.273.102-.468.043zm9.27-.165a1.944 1.944 0 0 1-1.01-.558c-.48-.47-.72-1.176-.615-1.813.025-.15.376-1.18.78-2.289l.735-2.016.777-.013.777-.013-.07.181c-.04.1-.396 1.098-.793 2.218-.793 2.24-.823 2.371-.6 2.636.157.186.533.318.712.25.195-.074.296-.286.617-1.287l.296-.924h.582l-.15-.092c-.188-.115-.294-.263-.359-.503-.105-.39.223-.855.649-.919l.216-.032-.161-.152c-.561-.53-.096-1.435.672-1.31.342.055.646.415.644.762-.002.384-.377.758-.761.758h-.22l.172.117a.74.74 0 0 1 .279.876c-.06.16-.27.393-.405.45-.076.03-.058.04.084.042.112.002.18.026.18.064 0 .221-.482 1.705-.72 2.22-.53 1.139-1.273 1.574-2.308 1.347zm5.044-2.1c-.38-.254-.481-.776-.22-1.12a.715.715 0 0 1 .614-.312c.45 0 .758.31.758.763 0 .452-.263.731-.716.763-.221.015-.297-.001-.436-.094z"/></svg>