<svg viewBox="0 0 24 24" xmlns="http://www.w3.org/2000/svg" role="img"><path d="M5.771 18.552a65.478 65.478 0 0 1-.014-1.92v-1.88l-.493.188c-.522.2-1.866.73-1.897.748-.01.006-.018.005-.018-.001 0-.007.096-.072.213-.144.117-.073.404-.256.638-.406.234-.15.472-.302.53-.337.056-.035.102-.073.102-.083 0-.01-.097-.018-.217-.018-.54 0-1.251-.094-1.84-.243C1.62 14.162.662 13.583.084 12.83c-.093-.12-.097-.133-.065-.185.043-.07.257-.253.443-.38.195-.134.483-.274.699-.341.1-.031.186-.059.19-.062a4.785 4.785 0 0 0-.174-.378 4.092 4.092 0 0 1-.369-1.016 4.523 4.523 0 0 1-.066-.87l.007-.153h.09c.152 0 .709.09.968.156.359.09.707.217 1.093.395l.367.17c.018.008.031-.105.041-.36.023-.573.136-1.143.366-1.844.218-.667.493-1.27.95-2.087l.261-.466.166.176c.876.93 1.642 1.993 2.119 2.943.56 1.117.782 2.232.63 3.18-.057.353-.355 1.126-.548 1.421-.023.034-.034.062-.025.062.008 0 .176-.102.373-.228.44-.279 1.623-1.035 1.715-1.095.083-.055.083-.03.004.149-.064.143-.606 1.47-.674 1.648l-.036.098-.958.323-1.018.342-.061.019-.006 2.072-.006 2.071h-.386c-.33 0-.389-.005-.402-.038zm-1.303-4.316c.1-.014.269-.046.375-.072.258-.063.752-.245.727-.268a1.39 1.39 0 0 0-.275-.044c-.973-.095-1.724-.325-2.518-.77a4.949 4.949 0 0 1-.352-.23 1.702 1.702 0 0 0-.23-.172c-.03 0-.452-.44-.44-.46.012-.02-.062-.017-.255.013l-.133.02a.585.585 0 0 0-.093.033.378.378 0 0 1-.093.03c-.027 0-.415.194-.435.217-.043.052-.264.191-.28.177-.01-.01-.004.008.012.04.04.077.69.716.714.702.002-.001.075.048.162.11.74.527 2.059.813 3.114.674zm2-.905c.125-.118.315-.393.432-.627.057-.113.112-.21.123-.214.011-.004.014-.022.008-.04-.007-.018 0-.04.014-.049.014-.008.026-.032.026-.053 0-.02.015-.072.034-.114.035-.077.133-.438.15-.551l.022-.231.027-.318c.014-.166-.03-.834-.063-.947a1.374 1.374 0 0 1-.034-.176 4.97 4.97 0 0 0-.171-.65.617.617 0 0 1-.037-.151c0-.03-.013-.061-.027-.07-.015-.009-.02-.032-.013-.051.007-.02.005-.03-.006-.024-.01.007-.057-.066-.103-.163a7.126 7.126 0 0 0-.163-.316c-.043-.079-.072-.154-.063-.168.009-.016.004-.019-.012-.009-.017.01-.028.002-.028-.02 0-.021-.01-.038-.023-.038s-.03-.022-.038-.049a.243.243 0 0 0-.052-.085.155.155 0 0 1-.04-.083c-.002-.026-.012-.042-.023-.036-.01.007-.019.002-.019-.01 0-.013-.066-.124-.146-.246a1.867 1.867 0 0 1-.146-.245c0-.012-.015-.03-.033-.042-.028-.016-.075-.081-.198-.27a1.11 1.11 0 0 0-.079-.1.267.267 0 0 1-.055-.079c0-.009-.014-.031-.032-.049a1.72 1.72 0 0 1-.115-.154c-.122-.176-.322-.436-.344-.445a.035.035 0 0 1-.02-.03c0-.023-.032-.066-.163-.214a.464.464 0 0 1-.079-.107c-.002-.056-.072-.004-.116.085-.11.222-.358.798-.48 1.114-.13.338-.147.381-.218.595a5.651 5.651 0 0 1-.086.243 1.75 1.75 0 0 0-.052.163c-.017.062-.037.11-.045.105-.007-.004-.014.021-.015.057 0 .035-.031.175-.067.31a5.18 5.18 0 0 0-.178 1.165c-.016.43.039.808.166 1.154.1.272.35.736.433.804.008.006.066.078.128.158.274.357.864.846 1.275 1.058a.924.924 0 0 1 .13.076.45.45 0 0 0 .103.047c.05.018.092.041.092.052 0 .01.016.02.036.02.034 0 .058.01.183.075.068.035.115.022.2-.057zm-1.276-.003c-.024-.018-.035-.041-.025-.052.01-.011.006-.013-.008-.006-.04.024-.088-.02-.092-.084-.002-.033-.017-.06-.033-.06-.022 0-.022.013-.002.05.026.049.026.049-.044.005a.601.601 0 0 1-.112-.09c-.022-.027-.05-.05-.06-.05-.027-.003-.14-.093-.117-.093.01 0-.018-.026-.064-.057-.045-.032-.08-.071-.076-.087.004-.017-.003-.024-.014-.017-.011.007-.08-.047-.151-.12a.59.59 0 0 1-.115-.133c.009 0-.027-.044-.08-.099-.054-.054-.091-.108-.084-.12.007-.012-.012-.039-.044-.06a.325.325 0 0 1-.092-.104 1.857 1.857 0 0 0-.092-.152c-.147-.219-.44-.933-.44-1.072 0-.045-.124-.215-.158-.216a.274.274 0 0 1-.09-.065.678.678 0 0 0-.122-.093c-.031-.016-.054-.043-.05-.06.004-.016-.005-.023-.018-.014-.037.022-.268-.11-.27-.156-.001-.024-.006-.028-.014-.009-.01.023-.035.019-.102-.014a4.063 4.063 0 0 0-.265-.113c-.097-.038-.177-.078-.177-.09 0-.012-.01-.016-.022-.008a1.227 1.227 0 0 1-.281-.059c-.284-.08-.744-.156-.77-.128-.008.01-.001.143.016.297.046.407.145.73.318 1.04.05.09.107.196.127.235.02.038.053.088.075.11.021.022.066.078.1.123.125.17.301.374.408.471l.196.186c.047.047.077.07.066.051-.017-.028.145.086.28.197.02.017.108.069.194.114.086.046.173.097.193.114.02.017.046.03.056.03.053-.002.163.064.163.098 0 .029.007.031.028.01.02-.02.042-.02.073-.004.143.076 1.037.296 1.334.328.06.007.165.021.231.033.067.011.155.021.195.022.065.002.069 0 .03-.03zm1.884 5.233.308-.992A127.962 127.962 0 0 1 7.874 16c.162-.524.21-.64.287-.686.144-.087.724-.101.913-.022.046.02.103.064.127.1.034.052.497 1.514.924 2.919l.073.237c.012.039-.014.042-.33.042-.332 0-.343-.001-.365-.054-.012-.03-.075-.23-.14-.444l-.117-.39H8.034l-.136.438-.135.438-.35.007c-.275.005-.346 0-.337-.024zm1.95-1.523c.007-.011-.036-.173-.094-.359-.059-.186-.141-.45-.183-.588-.116-.383-.096-.412-.398.578-.06.194-.103.36-.097.37.015.026.756.024.771-.001zm1.607 1.523a59.63 59.63 0 0 1-.006-1.673l.006-1.642h.887c.795 0 .901.005 1.015.044.429.15.647.635.568 1.263-.04.308-.107.467-.268.627-.214.212-.272.226-.955.237l-.578.01-.007.575-.007.576-.322.007c-.245.005-.326 0-.335-.024zm1.75-1.792c.105-.117.145-.491.076-.719-.064-.213-.048-.208-.638-.208h-.519v.973h.52c.479 0 .522-.004.56-.046zm1.157 1.53v-.292h.772c.565-.001.789-.01.833-.031.096-.048.17-.221.17-.399 0-.338-.043-.363-.676-.38-.523-.013-.672-.04-.829-.15-.41-.283-.462-1.178-.092-1.565.043-.045.137-.116.211-.158l.134-.078h1.727v.584l-.742.013c-.408.007-.744.015-.747.018a2.563 2.563 0 0 0-.067.096c-.11.163-.075.52.058.582.021.01.274.025.561.033.617.019.697.04.888.23a.68.68 0 0 1 .178.28c.105.293.097.763-.017 1.027a.964.964 0 0 1-.4.416l-.135.065H13.54zm3.209.235a.616.616 0 0 1-.181-.16l-.073-.104-.007-1.244c-.005-.894 0-1.272.02-1.342a.621.621 0 0 1 .295-.366l.13-.072h1.849v.584l-.815.012-.815.012-.007.351c-.005.264.001.356.024.37.018.011.363.02.767.02l.736.001v.607l-.76.007-.76.006-.007.375c-.005.284 0 .38.024.395.017.011.39.02.829.02h.797l-.007.286-.007.286-.963.007-.962.006zm3.139.04c-.249-.042-.426-.169-.52-.371-.05-.109-.052-.144-.059-1.54l-.007-1.43h.658l.007 1.338c.006 1.245.01 1.34.05 1.38.04.04.11.044.748.051l.704.008v.58l-.76-.003a19.486 19.486 0 0 1-.82-.013zm2.432-.022a.601.601 0 0 1-.401-.303l-.073-.133-.007-1.441-.007-1.441h.658v1.334c0 1.325 0 1.334.052 1.38.047.043.103.047.754.054l.704.008-.007.284-.007.284-.766.005c-.606.004-.794-.003-.9-.03z"/></svg>