<svg role="img" viewBox="0 0 24 24" xmlns="http://www.w3.org/2000/svg"><path d="M7.88 15.876c-.381-.405-.382-.416-.048-.718.29-.263.394-.273.72-.074.327.2.413.19.608-.073.211-.285.252-.278.607.1.326.347.347.45.147.724-.202.275-.284.287-.608.085-.32-.2-.423-.19-.708.067-.315.285-.353.28-.719-.11zm-3.694-.25c-.787-.39-.76-.759.045-.628.482.078.774-.003 1.324-.367.844-.558.88-.737.182-.876-.685-.137-1.242-.708-1.242-1.273 0-.67.486-1.485 1.004-1.682.808-.307 1.159-.03 1.638 1.293.115.319.303.486.545.486.5 0 1.053-.314 1.053-.597 0-.128.159-.376.353-.551.346-.313.353-.309.353.202 0 .712.29.946 1.173.946.908 0 1.047-.178.685-.878-.252-.488-.251-.573.013-.977.37-.564.514-.556.751.044.532 1.345.286 2.538-.593 2.872-.685.26-1.72.213-2.166-.1-.355-.249-.43-.249-.785 0-.216.152-.572.275-.792.275-.285 0-.498.196-.75.69-.683 1.338-1.609 1.71-2.79 1.122zm2.252-3.211c0-.254-.525-.72-.813-.72-.359 0-.527.533-.228.722.326.207 1.041.205 1.041-.002zM.464 15.313c-.705-.306-.59-.614.23-.614.383 0 .79-.164 1.142-.461.884-.744.967-1.037.522-1.83-.344-.612-.363-.752-.161-1.238.125-.301.315-.518.423-.482.398.132.8 1.589.693 2.51-.236 2.032-1.27 2.8-2.849 2.115zm18.807-.056c-.275-.304-.271-.345.058-.642.278-.252.404-.275.605-.107.198.164.334.161.612-.012.302-.189.415-.171.727.11.368.334.368.336.02.685-.297.296-.394.314-.633.116-.213-.177-.331-.185-.486-.03-.29.29-.564.254-.903-.12zm-4.29-.204c-.209-.084-.507-.335-.663-.558-.48-.684-.289-2.976.248-2.976.12 0 .148.297.076.839-.098.746-.06.886.34 1.26.514.48 1.325.452 2.13-.075.55-.36.568-.67.092-1.558-.335-.626-.341-.708-.084-1.101.153-.234.336-.422.407-.419.07.004.287.342.482.751.328.691.404.745 1.056.745.6 0 .755-.084 1.06-.568.394-.626.89-.797.716-.246-.155.49.355.902 1.11.9.966-.005 1.21-.212.85-.725-.37-.528-.362-.732.043-1.232l.33-.408.288.556c.47.91.378 1.924-.229 2.531-.433.433-.658.516-1.4.516-.561 0-.984-.1-1.157-.272-.245-.246-.316-.244-.71.014-.258.17-.7.264-1.075.232-.594-.051-.66-.006-.96.665-.46 1.028-1.867 1.567-2.95 1.13zm.757-5.196c-.495-.404-.499-.422-.202-.875l.303-.463.51.364c.597.424.617.528.202 1.02l-.309.366zM1.84 9.81c-.24-.162-.466-.317-.501-.344-.036-.027.09-.246.28-.486l.343-.437.515.416.516.416-.358.365c-.34.346-.381.35-.795.07zm9.06-.224c-.392-.326-.393-.334-.06-.745l.337-.414.456.428c.428.4.438.448.164.75-.357.395-.402.394-.898-.019zm10.933-.6-.386-.411.356-.323c.337-.304.374-.305.691-.018.318.288.349.285.59-.06l.253-.362.38.404c.354.377.36.432.1.805-.267.38-.297.385-.616.096-.312-.282-.358-.283-.658-.011-.303.273-.348.265-.71-.12z"/></svg>