<svg role="img" viewBox="0 0 24 24" xmlns="http://www.w3.org/2000/svg"><path d="M11.312 17.254a.764.764 0 0 1 .286.65c-.074 1.08-.246 3.58-.329 4.72a.693.693 0 0 1-.603.64c-1.898.227-2.894.792-3.976.273-1.081-.52-1.262-1.65-2.27-3.273a.693.693 0 0 1 .122-.871c.84-.776 2.686-2.473 3.484-3.206a.765.765 0 0 1 .689-.182 4.793 4.793 0 0 0 2.597 1.249zM15.287 16a.765.765 0 0 1 .69.181c.798.732 2.647 2.426 3.487 3.201a.693.693 0 0 1 .124.87c-1.006 1.625-1.186 2.756-2.267 3.277-1.08.52-2.078-.043-3.976-.267a.693.693 0 0 1-.604-.64c-.084-1.139-.259-3.64-.335-4.72a.764.764 0 0 1 .286-.65A4.793 4.793 0 0 0 15.287 16zM7.85 14.926c0 .248-.12.485-.33.63-.891.616-2.954 2.041-3.897 2.688a.694.694 0 0 1-.877-.073C1.387 16.83.323 16.404.055 15.235c-.268-1.17.503-2.016 1.143-3.816a.693.693 0 0 1 .758-.447c1.13.171 3.609.556 4.68.723.251.039.463.2.57.423a4.777 4.777 0 0 0 .644 2.808zm8.939-2.815a.764.764 0 0 1 .57-.423c1.07-.168 3.549-.556 4.679-.73a.693.693 0 0 1 .758.447c.643 1.799 1.416 2.644 1.149 3.814-.267 1.17-1.33 1.597-2.689 2.94a.694.694 0 0 1-.876.074 1659.96 1659.96 0 0 1-3.9-2.683.764.764 0 0 1-.331-.63 4.778 4.778 0 0 0 .64-2.809zm-9.278-1.339a.764.764 0 0 1-.697.135c-1.038-.313-3.44-1.036-4.533-1.37a.693.693 0 0 1-.49-.73c.2-1.9-.13-2.996.618-3.935.747-.938 1.89-.863 3.697-1.486a.693.693 0 0 1 .822.314c.571.99 1.816 3.166 2.353 4.106a.764.764 0 0 1 .025.712 4.825 4.825 0 0 0-1.795 2.254zm7.173-2.258a.763.763 0 0 1 .024-.711c.536-.94 1.778-3.12 2.347-4.11a.694.694 0 0 1 .822-.315c1.808.62 2.951.544 3.7 1.482.748.937.419 2.034.622 3.934a.693.693 0 0 1-.489.73c-1.093.336-3.494 1.062-4.53 1.376a.765.765 0 0 1-.698-.134 4.825 4.825 0 0 0-1.798-2.252zm-4.13-.6a.764.764 0 0 1-.538-.462 1812.89 1812.89 0 0 1-1.75-4.397.693.693 0 0 1 .266-.838C10.145 1.19 10.799.25 11.999.25c1.2 0 1.853.941 3.465 1.967.277.18.389.53.266.838-.42 1.063-1.348 3.392-1.75 4.397a.764.764 0 0 1-.539.462A4.8 4.8 0 0 0 12 7.694a4.8 4.8 0 0 0-1.443.22zm1.443.83a3.762 3.762 0 0 1 3.76 3.76 3.762 3.762 0 0 1-3.76 3.76 3.762 3.762 0 0 1-3.76-3.76 3.762 3.762 0 0 1 3.76-3.76z" fill-rule="evenodd"/></svg>