<svg role="img" viewBox="0 0 24 24" xmlns="http://www.w3.org/2000/svg"><path d="M13.283 20.445c0-.012.01-.021.022-.021.013 0 .017.01.01.021-.008.012-.018.021-.023.021-.005 0-.01-.01-.01-.021zm-3.326-.289a.946.946 0 0 0-.17-.02l-.32-.023a1.502 1.502 0 0 1-.23-.03.997.997 0 0 0-.182-.026.97.97 0 0 1-.199-.032 1.382 1.382 0 0 0-.209-.04c-.067-.009-.128-.024-.135-.035-.007-.01-.04-.02-.074-.02a.39.39 0 0 1-.122-.024.979.979 0 0 0-.146-.04 1.923 1.923 0 0 1-.321-.105 4.699 4.699 0 0 1-1.318-.695c-.376-.276-.89-.827-1.015-1.088a1.163 1.163 0 0 0-.057-.095c-.098-.15-.322-.636-.322-.698 0-.021-.008-.044-.018-.05a.995.995 0 0 1-.068-.221 1.158 1.158 0 0 0-.073-.236c-.019-.02-.106-.02-.41.005-1.272.104-2.367-.054-3.166-.455a2.644 2.644 0 0 1-.734-.539c-.296-.303-.425-.537-.59-1.064-.021-.07-.028-.12-.066-.46a2.48 2.48 0 0 1 .058-.805c.042-.197.116-.445.14-.47a.087.087 0 0 0 .018-.051c0-.096.317-.637.503-.861a4.157 4.157 0 0 1 .591-.579c.184-.17.621-.431.953-.57l.147-.062c.082-.036.157-.03.132.01-.007.012-.036.022-.063.022a.112.112 0 0 0-.076.032c-.015.018-.04.032-.056.032-.017 0-.117.048-.223.107a1.611 1.611 0 0 1-.214.108c-.012 0-.022.008-.022.018 0 .01-.024.029-.055.043a3.16 3.16 0 0 0-.24.146c-.207.135-.738.649-.861.832-.182.272-.43.715-.43.77a.438.438 0 0 1-.025.07c-.125.301-.196.757-.177 1.143.01.186.055.462.095.568.166.45.292.65.588.938.231.224.587.442.945.579l.171.065c.103.039.29.088.493.13a7.463 7.463 0 0 0 2.13.112c.3-.024.357-.034.382-.068.016-.022.023-.055.015-.073a.812.812 0 0 1-.03-.129 5.295 5.295 0 0 1 .005-1.822c.012-.065.029-.17.038-.236.009-.064.033-.17.054-.235.134-.423.227-.702.246-.734a.182.182 0 0 0 .021-.077c0-.021.015-.057.032-.08a.16.16 0 0 0 .032-.07c.001-.034.253-.549.354-.722a5.16 5.16 0 0 0 .09-.158c.031-.065.34-.513.494-.718a9.997 9.997 0 0 1 1.546-1.6 6.91 6.91 0 0 1 .39-.305l.139-.107a13.661 13.661 0 0 1 1.575-.98l.214-.11a12.225 12.225 0 0 1 .858-.378l.118-.05c.023-.01.103-.035.176-.054.13-.035.169-.035.436.003.094.013.102.01.162-.064.054-.065.07-.114.1-.308.02-.126.037-.34.037-.473 0-.16.01-.267.03-.311.016-.037.046-.116.066-.175a.6.6 0 0 1 .067-.141c.016-.019.03-.041.03-.05a3.085 3.085 0 0 1 .257-.495c.127-.247.196-.32.235-.248.028.053.029.816 0 .934a2.049 2.049 0 0 0-.034.225.799.799 0 0 1-.03.172.58.58 0 0 0-.03.117 2.11 2.11 0 0 1-.113.368.373.373 0 0 0-.028.091c0 .014-.01.041-.02.062a8.95 8.95 0 0 0-.102.208 4.02 4.02 0 0 1-.745 1.052c-.216.216-.32.298-.496.39a.622.622 0 0 1-.326.082c-.355.02-.467.048-.766.195a5.889 5.889 0 0 0-.44.236c-.164.077-1.162.73-1.22.8a4.748 4.748 0 0 1-.194.15 10.62 10.62 0 0 0-1.4 1.286c-.186.2-.612.759-.738.965-.2.328-.37.635-.37.67a.083.083 0 0 1-.018.049c-.02.022-.084.204-.143.406l-.065.214c-.068.218-.083.288-.141.654-.03.183-.03.96 0 1.125.052.293.062.336.085.36.025.024.07.016.464-.083a14.066 14.066 0 0 0 1.522-.502l.144-.063a.984.984 0 0 1 .111-.044c.033 0 1.17-.556 1.482-.724a157.63 157.63 0 0 1 .65-.351l.164-.09a.987.987 0 0 0 .118-.07c.018-.013.1-.06.182-.103.083-.043.165-.088.182-.099a12.295 12.295 0 0 1 .493-.28c.09-.055.426-.241.472-.262a19.455 19.455 0 0 1 .675-.371c.185-.1 1.11-.56 1.233-.615l.177-.077c.127-.054.149-.1.077-.16a11.236 11.236 0 0 0-.393-.319c-.103-.079-.15-.129-.146-.157.008-.075.712-1.132.76-1.14.042-.009.293.153.404.258a.743.743 0 0 1 .212.294c.04.095.048.141.039.246-.016.181-.061.271-.334.656-.028.038-.025.042.034.042.034 0 .069-.006.076-.013.023-.023.665-.242.932-.319.593-.17.988-.253 1.53-.323.315-.041 1.211-.035 1.412.009a16.606 16.606 0 0 1 .386.09c.116.026.252.08.434.17.408.204.755.509.915.804l.064.117c.027.048.078.19.111.311.039.139.039.742 0 .933a4.82 4.82 0 0 1-.451 1.329c-.29.586-.588.974-1.266 1.647a11.128 11.128 0 0 1-1.63 1.334c-.064.04-.13.084-.145.1a.1.1 0 0 1-.058.027c-.016 0-.032.008-.036.019-.014.038-.793.45-1.156.61-.229.101-.26.114-.437.186a8.347 8.347 0 0 0-.26.11.562.562 0 0 1-.106.04c-.01 0-.12.037-.244.082-.124.045-.284.1-.355.12-.07.02-.154.051-.185.068a.277.277 0 0 1-.107.03.553.553 0 0 0-.136.029c-.176.06-.525.136-.75.164a7.91 7.91 0 0 0-.28.039c-.07.012-.18.026-.246.032a41.13 41.13 0 0 0-.332.033c-.118.013-.296.029-.397.036-.229.016-1.405.033-1.417.02zm1.246-1.04c.593-.032 1.379-.143 1.75-.248a.842.842 0 0 1 .147-.03.93.93 0 0 0 .16-.035l.237-.066c.065-.018.147-.042.182-.054.035-.012.098-.029.14-.038.117-.027.7-.227.85-.292a.35.35 0 0 1 .097-.03.087.087 0 0 0 .05-.018.664.664 0 0 1 .128-.056c.111-.04.156-.059.353-.147.489-.218.702-.323 1.05-.515.416-.229.41-.225.483-.272a8.574 8.574 0 0 0 .417-.264c.848-.564 1.483-1.192 1.998-1.976a3.1 3.1 0 0 0 .329-.696c.077-.281.039-.617-.096-.84a1.413 1.413 0 0 1-.058-.103c-.033-.073-.204-.278-.323-.388a2.023 2.023 0 0 0-.36-.268 2.524 2.524 0 0 0-.374-.18.416.416 0 0 1-.09-.03 4.122 4.122 0 0 0-.79-.193c-.303-.047-1.131-.048-1.5-.002-.431.053-.854.13-1.08.194a.815.815 0 0 1-.136.03.712.712 0 0 0-.131.031c-.055.017-.157.048-.228.068-.07.02-.16.05-.196.065a.356.356 0 0 1-.098.03.15.15 0 0 0-.07.028c-.037.027-.03.038.1.166.166.163.232.285.247.459.013.156-.034.29-.182.514-.112.17-.109.165-.29.349-.191.194-.213.191-.54-.082a4.225 4.225 0 0 0-.288-.229.46.46 0 0 1-.082-.057c-.06-.053-.051-.114.036-.226.066-.086.43-.64.43-.656 0-.021-.107-.008-.164.021a1.63 1.63 0 0 1-.23.098 1.02 1.02 0 0 0-.125.052 6.128 6.128 0 0 1-.417.184c-.018 0-1.234.607-1.443.72-.182.099-.302.163-.761.405l-.465.245a20.03 20.03 0 0 1-1.051.537l-.075.043c-.021.012-.058.03-.082.041-.024.01-.159.074-.3.14-.468.223-.669.312-.696.312a.157.157 0 0 0-.059.021c-.131.073-.919.363-1.248.46a6.795 6.795 0 0 0-.22.066.743.743 0 0 1-.135.032.181.181 0 0 0-.069.02 2.812 2.812 0 0 1-.407.098c-.085.017-.09.065-.023.216.205.465.622.916 1.199 1.298a8.34 8.34 0 0 0 1.048.538.96.96 0 0 0 .145.048c.038.008.075.024.081.035.007.01.031.02.053.02a.38.38 0 0 1 .112.029c.154.064.663.192 1.024.256.687.123 1.317.16 2.036.122zm8.955-5.8c-.147-.08-.083-.358.112-.489l.333-.218c.141-.093.27-.18.285-.196.015-.015.08-.062.145-.105.201-.133.529-.461.594-.594.063-.129.073-.206.033-.246-.035-.034-.123-.031-.19.006-.12.07-.384.008-.521-.123l-.084-.08.01-.152a.479.479 0 0 1 .036-.176.105.105 0 0 0 .024-.065c0-.022.013-.071.03-.108l.075-.179c.078-.191.367-.742.438-.836.091-.12.16-.157.291-.157.195 0 .385.166.473.413.04.112.098.1.382-.086.215-.14.313-.354.264-.581-.043-.2-.03-.465.031-.667.03-.1.065-.206.076-.234a7.03 7.03 0 0 0 .106-.31 10.472 10.472 0 0 1 .159-.453c.027-.077.058-.129.077-.129.026 0 .032.104.037.697.004.444-.003.747-.018.836a25.45 25.45 0 0 0-.04.236c-.04.256-.284.803-.505 1.135-.1.151-.388.49-.457.54-.063.045-.106.127-.13.243a3.268 3.268 0 0 1-.848 1.561 2 2 0 0 1-.961.526c-.133.032-.185.03-.257-.009zm-9.339-1.415c-.058-.048-.066-.069-.066-.164a.33.33 0 0 1 .065-.21c.115-.179.362-.36.642-.468a5.608 5.608 0 0 0 .94-.462c.186-.137.463-.52.677-.934.07-.134.208-.343.29-.437.215-.248.337-.376.415-.437l.122-.097c.034-.027.236-.159.31-.203.048-.027.284-.144.444-.218.222-.103.38-.269.423-.444a1.97 1.97 0 0 1 .046-.158c.015-.04.03-.087.034-.103.004-.015.017-.022.03-.015.038.025.025.427-.021.585-.097.334-.185.493-.404.72-.145.151-.283.249-.551.39-.307.161-.302.158-.44.248a1.585 1.585 0 0 0-.24.208 6.043 6.043 0 0 0-.595.883.619.619 0 0 0-.032.064.66.66 0 0 1-.039.075 3.234 3.234 0 0 1-.71.887c-.337.269-.554.345-.98.345-.285 0-.296 0-.36-.055zm3.844-.232c-.013-.034.036-.191.097-.308.038-.072.222-.34.28-.407.014-.015.116-.15.229-.3.657-.876 1.266-1.17 1.988-.958.163.048.595.042.758-.01.181-.058.245-.094.326-.187.068-.078.07-.083.058-.227-.015-.173-.062-.265-.165-.326-.073-.042-.155-.047-.46-.027-.147.01-.05-.183.182-.364.168-.13.276-.191.45-.254a2.25 2.25 0 0 1 .535-.095c.154 0 .41.053.526.109.083.04.119.073.16.152l.053.1-.041.125a1.73 1.73 0 0 1-.215.423.335.335 0 0 0-.057.109c-.007.038.006.043.131.049a.512.512 0 0 0 .225-.03c.312-.132.626-.283.708-.34.12-.082.294-.258.39-.392.053-.074.099-.134.102-.134.003 0 .044.013.09.03.15.052.325-.033.478-.233a1.5 1.5 0 0 0 .131-.204c.08-.159.101-.175.204-.16.178.027.293-.077.445-.401a.912.912 0 0 1 .097-.177c.058-.036.067.141.015.298l-.066.215c-.108.358-.323.67-.555.802a.786.786 0 0 0-.192.166c-.1.128-.285.27-.464.353l-.25.116a.457.457 0 0 0-.117.069c-.03.071-.647.458-1.004.63-.258.123-.4.156-.592.137l-.27-.026-.122-.011-.264.22c-.25.21-.573.488-.596.514a5.76 5.76 0 0 1-.326.193c-.035.018-.1.037-.313.087a2.06 2.06 0 0 1-.375.014c-.26-.008-.295-.015-.436-.077a.919.919 0 0 0-.818.021c-.136.073-.529.398-.732.605-.136.138-.205.172-.228.111zm-12.077-.956c0-.011.035-.021.077-.021.045 0 .07.009.063.021-.007.012-.042.022-.077.022-.034 0-.063-.01-.063-.022zm.204-.064c.007-.012.032-.021.055-.021s.041.01.041.021c0 .012-.024.021-.054.021-.031 0-.05-.009-.042-.021zm11.286-.18c0-.027.134-.15.365-.334.575-.46.93-.91 1.058-1.34l.057-.193c.01-.035.024-.137.03-.225.008-.089.023-.243.034-.343.012-.1.031-.38.043-.622.026-.531.056-.883.083-.973l.067-.238c.026-.094.055-.19.065-.214.06-.144.084-.213.084-.24 0-.017.018-.071.039-.12.022-.05.057-.134.078-.187.084-.205.11-.254.148-.278.056-.036.066-.014.039.09-.013.05-.03.173-.036.272-.007.1-.017.187-.021.195-.01.015-.025.203-.043.514a2.642 2.642 0 0 1-.023.258 2.857 2.857 0 0 0-.022.278 6.348 6.348 0 0 1-.04.461c-.017.13-.042.327-.055.44-.057.467-.076.57-.141.761a.555.555 0 0 0-.03.123.38.38 0 0 1-.03.106 2.586 2.586 0 0 0-.064.188 4.02 4.02 0 0 1-.195.504c-.19.437-.459.842-.637.961a1.247 1.247 0 0 1-.675.186c-.137 0-.178-.007-.178-.03zm-2.494-.438c-.075-.014-.044-.053.21-.263l.3-.243c.174-.137.423-.395.564-.586.12-.162.326-.545.326-.606 0-.014.014-.07.032-.125.051-.165.076-.359.097-.76.012-.21.025-.388.03-.397.005-.008.016-.198.024-.422.008-.223.023-.448.034-.498.01-.05.025-.127.031-.171.006-.044.02-.1.03-.123.01-.024.04-.115.067-.204.026-.088.06-.191.077-.228a.354.354 0 0 0 .029-.1c0-.019.01-.04.021-.047.012-.007.022-.03.022-.05 0-.064.21-.529.24-.529.031 0 .036.113.01.268a3.799 3.799 0 0 0-.046.444 3.514 3.514 0 0 1-.022.242 6.96 6.96 0 0 0-.044.515 5.7 5.7 0 0 1-.022.268 5.029 5.029 0 0 0-.02.235 8.83 8.83 0 0 1-.187 1.254 6.262 6.262 0 0 1-.244.756c-.144.385-.403.846-.597 1.06-.102.113-.31.233-.46.266a2.824 2.824 0 0 1-.502.044zm11.657-2.838a4.694 4.694 0 0 1-.268-.208 4.905 4.905 0 0 0-.289-.224.462.462 0 0 1-.099-.083c-.03-.039-.031-.05-.002-.11a.427.427 0 0 1 .045-.077 2.82 2.82 0 0 0 .162-.235l.106-.164c.306-.466.385-.579.413-.595.043-.025.136.017.294.132a.965.965 0 0 1 .282.28.841.841 0 0 1 .116.346c0 .056-.046.208-.09.3-.09.185-.418.574-.535.634-.069.036-.08.036-.135.004zm-4.462-.595c-.065-.026-.098-.098-.082-.173.02-.087.054-.08.054.011 0 .087.05.125.154.115.08-.008.105-.054.036-.064-.116-.017-.033-.115.11-.13.06-.007.076-.019.082-.06.01-.076.046-.11.107-.102.08.01.086.06.007.06-.036 0-.07.009-.077.019-.02.034.05.072.117.062.051-.007.064-.002.06.024-.008.038-.12.063-.29.065-.063 0-.113.011-.113.023s.024.021.053.021c.04 0 .054.012.054.042 0 .087-.152.135-.272.087zm2.079 0c-.064-.026-.098-.098-.082-.173.02-.087.054-.08.054.011 0 .09.051.125.166.114.093-.01.118-.054.035-.063-.032-.004-.062-.019-.067-.033-.012-.036.08-.09.163-.096.04-.003.083-.022.097-.042.024-.035.028-.034.051.004.031.049.08.035.102-.03l.016-.046.009.048c.005.027.018.048.029.048h.036c.009 0 .016-.02.016-.046s.013-.05.027-.056c.04-.013.034.134-.006.167-.024.02-.045.022-.083.004-.036-.016-.057-.016-.075.002-.018.019-.035.018-.066 0-.026-.017-.046-.019-.054-.006-.007.012-.056.021-.11.021-.058 0-.09.008-.083.022.007.011.032.021.055.021.058 0 .054.075-.006.117-.052.036-.15.041-.224.012zm-4.187-.041c-.065-.018-.107-.1-.092-.179.015-.077.05-.076.05.002 0 .09.066.14.162.125.115-.018.194-.1.096-.1-.116 0-.146-.086-.059-.168.057-.054.143-.062.143-.014 0 .02-.02.032-.05.032-.054 0-.11.047-.085.071.008.008.036.014.063.014.06 0 .08.03.063.098-.023.095-.164.152-.29.119zm3.589-.01c-.018-.048.006-.072.039-.039.019.02.019.031 0 .05-.02.02-.029.017-.04-.011zm1.513-.015c0-.011.02-.02.043-.02.023 0 .05 0 .058-.002.01-.001.019.007.022.018.004.01-.022.02-.058.022-.036 0-.065-.007-.065-.019zm-2.1-.105c-.018-.011-.071-.015-.119-.008-.079.01-.09.007-.113-.045-.039-.085-.034-.347.006-.363.027-.01.032.015.032.157 0 .16.003.17.048.177.03.005.071-.012.107-.045l.06-.053.05.048c.073.068.164.08.179.025.013-.051.04-.057.064-.014.023.04.145.058.222.03.08-.027.061-.06-.034-.06-.077 0-.094-.021-.046-.06.033-.028.294.035.293.07 0 .012-.06.049-.134.081-.135.06-.28.078-.306.037-.009-.016-.023-.015-.044.003-.018.014-.061.02-.105.013-.04-.007-.08-.003-.087.008-.015.025-.033.025-.073 0zm.064-.066c0-.026-.06-.053-.079-.035-.018.018.014.057.048.057.017 0 .03-.01.03-.022zm-2.677.046c-.051-.032-.006-.064.072-.052.096.016.123-.037.056-.108-.047-.05-.06-.1-.025-.1.034 0 .108.111.108.163 0 .094-.125.152-.211.097zm.326-.013c-.048-.035-.07-.35-.026-.377.024-.015.031.013.04.145.01.147.016.165.061.181.04.015.052.01.061-.024.013-.05.05-.058.05-.012 0 .063.041.053.128-.03.05-.048.107-.087.128-.087.052 0 .091.052.083.11-.01.064.078.08.11.019.027-.05.065-.057.065-.013 0 .033.125.064.18.043.047-.018.044-.05-.005-.037-.061.016-.096-.041-.065-.109s.07-.071.114-.008c.048.07.042.159-.015.198-.056.04-.23.046-.23.008 0-.02-.007-.02-.026 0-.031.03-.167.035-.167.005 0-.013-.02-.014-.053 0-.073.027-.392.02-.433-.011zm.47-.069c.027-.015.018-.05-.017-.063-.04-.015-.145.05-.127.08.01.018.1.007.144-.017zm.423-.092c0-.012-.015-.021-.032-.021-.018 0-.032.01-.032.021 0 .012.014.022.032.022.017 0 .032-.01.032-.022zm.129-.009c0-.112.01-.208.021-.215.014-.01.021.064.021.202 0 .13-.009.216-.021.216-.013 0-.021-.082-.021-.203zm.15.14c0-.035.009-.069.019-.075.01-.007.014.007.008.03-.006.024 0 .043.013.043s.024.015.024.033a.032.032 0 0 1-.033.032c-.02 0-.032-.022-.032-.063zm1.933-.143c.004-.147.015-.212.034-.218.022-.007.026.037.022.2-.004.147-.015.212-.034.219-.022.007-.026-.037-.022-.2zm.14.179c-.014-.038.02-.123.05-.123.017 0 .016.011-.004.035-.023.028-.024.038-.003.045.036.012.034.07-.003.07a.046.046 0 0 1-.04-.027zm1.026-.007c-.025-.025-.034-.078-.034-.203 0-.223.039-.245.047-.027l.006.167.07.007c.052.005.07-.002.07-.027 0-.04.034-.044.05-.004.019.052.098.058.123.01.023-.043.023-.043.054.001.033.047.094.04.094-.01 0-.016.01-.03.022-.03.011 0 .02.015.02.033 0 .018.02.032.044.032.031 0 .043-.014.043-.054 0-.03.01-.053.021-.053.034 0 .025.142-.011.172-.025.02-.046.02-.083.004-.037-.017-.057-.017-.075.002-.019.018-.035.018-.066-.001-.026-.017-.046-.018-.054-.005-.018.028-.104.026-.133-.002-.017-.017-.027-.017-.038 0-.021.034-.132.028-.17-.01zm-3.667-.245c-.015-.023.007-.033.069-.033.026 0 .05.01.053.02.008.025-.107.037-.122.013zm1.906.003c-.025-.026-.004-.04.055-.037.075.004.078.041.004.044-.027.001-.053-.002-.059-.008zm-1.703-.105c0-.018.013-.026.032-.019.017.007.037.003.044-.009a.025.025 0 0 1 .033-.009c.038.024.02.048-.044.057-.046.007-.065.001-.065-.02zm-1.479-.019c-.085-.028-.128-.06-.15-.116-.032-.077-.012-.141.072-.231l.067-.072-.07.014c-.053.012-.069.007-.069-.016 0-.062.058-.083.207-.073.152.01.182.03.126.086-.048.048-.041.058.041.058.053 0 .082-.013.098-.043.027-.05.064-.057.064-.01 0 .058.067.063.11.008l.04-.052.013.048c.007.027.019.049.025.049a.69.69 0 0 0 .104-.086.38.38 0 0 1 .121-.086c.091 0 .109.146.026.211-.049.039-.087.043-.377.042-.319 0-.323 0-.346-.052-.03-.065-.04-.064-.121.011-.123.116-.065.216.129.223.086.003.116.013.121.04.01.05-.133.08-.23.047zm.79-.37c.017-.01.024-.029.016-.041-.016-.026-.12.011-.12.043 0 .023.067.022.105-.001zm-.466.257c-.033-.02-.018-.087.02-.087.03 0 .052.063.029.086-.011.01-.032.011-.05 0zm1.812-.019c-.006-.009.023-.044.065-.077l.075-.06-.05-.025c-.064-.032-.074-.1-.024-.161.084-.104.187.054.127.197-.043.103-.16.18-.193.126zm.128-.277c-.022-.022-.04.011-.022.04.013.022.019.022.026 0 .005-.015.003-.033-.004-.04zm-.41.253c-.006-.012.015-.035.048-.052a.433.433 0 0 0 .101-.077c.036-.04.038-.053.015-.09-.021-.034-.022-.05 0-.075.024-.029.03-.028.055.006a.2.2 0 0 1 .028.1c0 .112-.2.264-.246.188zm.538.002c-.006-.01.028-.045.076-.077.08-.053.086-.064.074-.128-.009-.048-.004-.079.017-.095.049-.041.091.085.056.169-.042.102-.188.188-.223.13zm-1.23-.136c-.014-.014-.057-.026-.095-.027-.1-.002-.105-.071-.013-.182a.413.413 0 0 1 .085-.086c.008 0 .02.035.028.08.025.139.034.155.088.155.036 0 .062-.02.085-.064.053-.103.16-.074.16.043 0 .079-.036.108-.102.083-.036-.014-.062-.013-.077.002-.03.03-.128.028-.159-.003zm.274-.103a.022.022 0 0 0-.021-.021.022.022 0 0 0-.021.021c0 .012.01.022.02.022.013 0 .022-.01.022-.022zm-.321-.021c0-.012-.01-.022-.02-.022-.011 0-.026.01-.034.022-.007.012.002.021.02.021.019 0 .034-.01.034-.021zm.475.122a.688.688 0 0 1-.038-.206c-.012-.141-.01-.181.015-.197.055-.034.06-.02.067.158.006.176.006.176.067.183.052.006.059.001.048-.034-.02-.064.007-.119.043-.088.04.033.038.137-.004.178-.04.041-.166.045-.198.006zm.376-.265c-.03-.029-.015-.075.022-.067.02.004.038.02.038.037 0 .034-.038.053-.06.03zm-.23-.029c-.028-.017-.027-.024.005-.056.035-.035.038-.035.051 0 .02.049-.014.082-.055.056zm4.76-.207a.896.896 0 0 1-.087-.07 4.28 4.28 0 0 0-.36-.29c-.122-.094-.197-.165-.197-.19 0-.03.47-.773.573-.904a5.04 5.04 0 0 0 .092-.134c.04-.062.09-.112.11-.112.093 0 .554.37.554.444 0 .015.008.027.017.027.02 0 .09.229.09.29 0 .088-.082.308-.16.43-.1.156-.294.384-.405.476-.093.077-.151.086-.227.033zM12.5 5.179a3.79 3.79 0 0 1-.16-.139.404.404 0 0 0-.09-.07c-.008 0-.079-.053-.158-.118a1.04 1.04 0 0 0-.161-.118c-.067 0-.012-.206.075-.277.018-.016.033-.042.033-.058s.01-.03.022-.03c.011 0 .021-.01.021-.022 0-.02.1-.164.171-.25.012-.014.022-.032.022-.041 0-.02.157-.252.177-.261.009-.004.016-.016.016-.027s.035-.068.077-.127c.097-.136.15-.14.326-.023.164.11.307.253.379.382.048.085.058.129.058.266a.534.534 0 0 1-.07.311c-.039.08-.082.156-.095.168a.959.959 0 0 0-.086.115 1.698 1.698 0 0 1-.336.352c-.083.052-.125.046-.221-.033z"/></svg>