<svg viewBox="0 0 24 24" xmlns="http://www.w3.org/2000/svg" role="img"><path d="M4.927 18.686c-.545-.093-.554-.098-.847-.356-.222-.198-.428-.497-.699-1.016-.153-.294-.17-.391-.201-1.113-.049-1.145.138-2.008.665-3.068.304-.61.82-1.42.932-1.464.18-.069.132.129-.2.832-.466.983-.59 1.343-.661 1.906-.113.899.19 1.585.914 2.07.334.223.719.31 1.374.31.92 0 1.469-.174 2.323-.736.391-.258 1.085-1.018 1.304-1.43.404-.756.5-1.45.591-4.217.089-2.712.145-3.091.568-3.856.261-.472.215-.535-.274-.37-.823.278-2.135 1.106-2.927 1.847A9.735 9.735 0 0 0 6.503 9.54c-.25.388-.356.48-.356.31 0-.215.453-.99.927-1.583.426-.535 1.328-1.428 1.91-1.89.656-.523 1.997-1.126 2.501-1.126.225 0 .316.211.194.455-.148.297-.314 1.486-.378 2.714a609.47 609.47 0 0 1-.118 2.19c-.144 2.551-.752 4.405-1.97 6.007-.292.384-.625.695-1.287 1.2-.884.675-1.057.744-2.335.928-.097.014-.395-.012-.664-.059zm5.978-1.83c-.084-.054.056-.195.77-.776 1.302-1.059 1.792-1.562 1.792-1.84 0-.423-.486-.994-1.015-1.192a2.244 2.244 0 0 0-.422-.126c-.047 0-.085-.05-.085-.111 0-.206 1.393-2.959 1.71-3.38.677-.898 2.01-2.057 2.854-2.482.437-.22.897-.357 1.071-.319.21.046.209.127-.011 1.214-.311 1.536-.559 3.647-.499 4.254.086.876.439 1.463 1.01 1.684.374.144 1.13.142 1.43-.004l.218-.106-.153-.243c-.318-.508-.548-.65-.96-.594-.257.035-.288.028-.288-.072 0-.187.327-.638.595-.822.75-.512 1.6-.654 2.344-.391.68.24.693.704.04 1.588-.124.168-.226.32-.226.338 0 .017.088.032.195.032.25 0 .84-.294 1.117-.556.382-.36.442-.579.443-1.615l.001-.911.224-.377c.124-.207.32-.55.437-.763.236-.428.353-.553.458-.488.097.06.025 1.743-.097 2.25-.239 1.004-.637 1.81-1.188 2.405-.625.677-1.237.958-1.77.815-.256-.07-.26-.068-.405.127-.498.663-1.199 1.224-1.775 1.419a1.743 1.743 0 0 1-2.111-.789c-.28-.482-.34-.778-.371-1.81-.026-.848-.008-1.135.149-2.343.24-1.845.373-2.508.572-2.847l.16-.275-.223.036c-.535.087-1.52.69-2.402 1.471-.52.46-1.379 1.521-1.378 1.702 0 .033.125.111.278.174.33.136.772.56.956.917.16.313.216 1 .117 1.46-.193.9-.88 2.15-1.413 2.57-.294.234-.777.395-1.003.336-.214-.056-.462.03-.654.225-.203.208-.38.285-.492.214zM.967 11.169c-.018-.03.046-.101.143-.159.185-.109.218-.19.117-.291-.065-.065-.018-.256.063-.256.027 0 .065.026.085.058.02.033.175.059.345.059.282 0 .308-.011.304-.132-.003-.08.03-.132.082-.132.102 0 .143.157.093.356-.033.132-.063.142-.404.142-.367 0-.367 0-.441.205-.057.156-.108.205-.214.205-.076 0-.154-.024-.173-.054zm1.023-.157c0-.047.06-.08.146-.08.085 0 .147.033.147.08s-.062.08-.147.08c-.085 0-.146-.033-.146-.08zm5.133.056c-.065-.066.025-.137.175-.137.086 0 .138.029.125.068-.025.075-.243.125-.3.069zm-6.994-.11c-.13-.092-.162-.227-.095-.403.02-.05.062-.092.094-.092.033 0 .045.035.029.078-.055.142.062.238.281.232.278-.008.307-.045.187-.247-.092-.156-.092-.17-.002-.205.124-.048.193.06.194.303.002.36-.384.547-.689.333zm5.667.035c0-.035.092-.108.205-.161.226-.108.245-.146.123-.247-.1-.084-.055-.302.055-.26.044.017.103.101.132.187.05.142.054.134.059-.094.01-.528.187-.649.187-.127v.289h.316c.247 0 .325-.022.355-.103.038-.097.043-.097.097 0 .079.14.225.134.188-.008-.016-.06.003-.13.041-.153.136-.084.234.255.124.428-.061.097-1.154.105-1.269.01-.059-.048-.095-.025-.155.101-.058.122-.127.169-.268.183-.108.01-.19-.01-.19-.045zm-4.879-.516c-.026-.25-.014-.358.05-.42.045-.047.1-.068.12-.047.052.051-.032.804-.09.804-.024 0-.06-.151-.08-.337zm1.393.081c-.047-.314 0-.564.11-.564.056 0 .069.093.05.366-.03.459-.107.553-.16.198zm.286.168c-.044-.116.03-.312.085-.225.022.036.114.065.203.065.148 0 .153-.007.059-.08a.399.399 0 0 0-.177-.08c-.09-.002-.092-.034-.01-.187.063-.117.068-.116.235.044l.17.163v-.216c0-.153.026-.216.088-.216.067 0 .088.072.088.293 0 .221.021.293.088.293.048 0 .088-.023.088-.052 0-.029.032-.05.073-.046.04.004.17-.042.287-.102.244-.125.4-.093.4.081 0 .103.038.119.287.119.22 0 .296-.024.326-.103.038-.097.043-.097.097 0 .09.159.216.129.184-.043-.024-.125-.053-.142-.197-.116-.13.022-.17.007-.17-.067 0-.077.041-.09.205-.063.12.02.22.007.243-.03.025-.04.012-.048-.034-.02-.05.032-.067.012-.052-.064.026-.141.342-.191.342-.054 0 .05-.033.092-.074.092-.05 0-.053.014-.009.044.036.024.08.083.098.131.024.063.035.053.038-.032.005-.122.107-.26.192-.26.056 0 .062.378.01.636-.05.252-.138.23-.144-.037-.005-.218-.005-.218-.056-.048-.028.093-.083.19-.123.215-.04.025-.554.046-1.142.048-.918.002-1.078-.01-1.122-.09-.048-.085-.055-.085-.088 0-.048.125-.44.13-.487.007zm-2.208-.42c-.066-.067-.04-.136.05-.136.048 0 .088.025.088.055 0 .074-.092.127-.138.08zm5.671-.136c-.047-.077.023-.187.092-.144.071.044.071.203 0 .203-.03 0-.072-.027-.091-.059zm1.464 0c-.047-.077.023-.187.092-.144.071.044.071.203 0 .203-.03 0-.072-.027-.092-.059zm12.53-.939c-.12-.132-.5-.315-.783-.377-.1-.022-.181-.075-.181-.118 0-.044.256-.347.568-.675.56-.587.573-.596.795-.566.307.04.832.306.897.452.05.112.079.096.408-.22.55-.526.504-.503.795-.389.382.15.747.418.787.578.024.093-.007.212-.087.342-.14.226-.97 1.034-1.062 1.034-.033 0-.14-.09-.236-.201-.175-.2-.599-.445-.761-.442-.046.001-.249.16-.45.352-.394.375-.52.417-.69.23z"/></svg>