<svg viewBox="0 0 24 24" xmlns="http://www.w3.org/2000/svg" role="img"><path d="M10.757 22.5a10.453 10.453 0 0 1-6.783-2.977l-.196-.193-1.772.338C.838 19.89.216 20.004.184 20c-.157-.016-.233-.182-.15-.33.02-.035.446-.722.945-1.526.5-.805.909-1.467.909-1.472a2.54 2.54 0 0 0-.072-.162 10.51 10.51 0 0 1-.644-7.267 10.562 10.562 0 0 1 3.613-5.465 10.469 10.469 0 0 1 10.187-1.617c.344.127.432.176.54.307a.708.708 0 0 1-.653 1.15 3.013 3.013 0 0 1-.296-.1 8.96 8.96 0 0 0-2.774-.59 11.806 11.806 0 0 0-1.245.018c-.9.081-1.73.275-2.539.593a9.173 9.173 0 0 0-4.198 3.35 9.061 9.061 0 0 0-.805 8.804c.098.223.328.67.456.89a9.138 9.138 0 0 0 4.69 3.946 9.092 9.092 0 0 0 2.485.544c.236.02 1.115.02 1.351 0a9.082 9.082 0 0 0 7.323-4.769c.082-.152.1-.193.1-.237 0-.098-.022-.115-.292-.225-.264-.107-.289-.11-.354-.05-.018.017-.07.099-.113.18a8.446 8.446 0 0 1-3.188 3.278 8.307 8.307 0 0 1-5.219 1.043c-3.463-.442-6.329-3.057-7.089-6.467a8.442 8.442 0 0 1-.155-2.692A8.289 8.289 0 0 1 5.344 6.17a8.087 8.087 0 0 1 2.158-1.592c.53-.271.957-.44 1.506-.597a7.994 7.994 0 0 1 2.283-.318 7.961 7.961 0 0 1 1.794.187c.544.119 1.229.342 1.403.459.208.14.333.358.345.605.01.198.021.165-.376 1.135l-.347.848a9.93 9.93 0 0 1-.197.463.788.788 0 0 1-.322.31.662.662 0 0 1-.384.084c-.125-.005-.143-.009-.357-.082a4.375 4.375 0 0 0-1.542-.263c-.333 0-.532.017-.824.07a4.616 4.616 0 0 0-3.374 2.636 4.61 4.61 0 0 0 .162 4.116c.22.392.461.712.781 1.032.752.753 1.67 1.197 2.752 1.33.167.02.84.02 1.007 0a4.604 4.604 0 0 0 2.401-1.008 4.696 4.696 0 0 0 1.346-1.8.795.795 0 0 1 .177-.294.666.666 0 0 1 .507-.22.67.67 0 0 1 .502.201.689.689 0 0 1 .206.492c.001.13-.014.195-.09.38-.388.95-1.1 1.858-1.959 2.5a6.02 6.02 0 0 1-3.012 1.165c-.282.03-.881.03-1.163 0a6.015 6.015 0 0 1-4.059-2.164 5.998 5.998 0 0 1-1.264-2.657 5.57 5.57 0 0 1-.11-1.293c.009-.44.04-.715.123-1.12a6.05 6.05 0 0 1 2.607-3.803 6.014 6.014 0 0 1 4.634-.823c.193.044.23.043.282-.01a6.08 6.08 0 0 0 .272-.637c.028-.096-.034-.171-.167-.204a6.959 6.959 0 0 0-1.89-.217 6.654 6.654 0 0 0-2.034.352 6.869 6.869 0 0 0-2.787 1.75 6.925 6.925 0 0 0-1.883 5.886 6.947 6.947 0 0 0 6.057 5.839c.38.044.894.056 1.27.03a6.941 6.941 0 0 0 5.905-4.2c.107-.25.134-.295.235-.392a.67.67 0 0 1 .49-.198c.054 0 .128.008.164.017.078.02 2.091.837 2.174.882a.797.797 0 0 1 .24.224c.024.037.06.113.079.169a.52.52 0 0 1 .035.22c0 .144-.017.198-.164.536a10.573 10.573 0 0 1-1.815 2.822c-.167.186-.66.676-.853.846a10.454 10.454 0 0 1-5.215 2.5c-.624.106-.96.133-1.667.137-.31.002-.593.001-.629 0zm12.095-8.513a.718.718 0 0 1-.534-.684c0-.05.02-.167.053-.32.093-.427.158-.866.198-1.356.023-.273.02-1.049-.006-1.346a9.096 9.096 0 0 0-4.406-7.092c-.184-.108-.284-.204-.348-.331a.674.674 0 0 1-.08-.331c0-.2.062-.348.208-.493a.63.63 0 0 1 .527-.204c.163.008.231.033.443.16.71.426 1.401.97 2.012 1.58a10.475 10.475 0 0 1 3.06 6.676 12.33 12.33 0 0 1-.02 1.725c-.059.638-.205 1.434-.299 1.636a.732.732 0 0 1-.405.358.818.818 0 0 1-.403.022zm-1.945-.809a1.158 1.158 0 0 1-.264-.095.745.745 0 0 1-.28-.29c-.078-.165-.09-.298-.044-.539.087-.462.107-.701.107-1.261 0-.515-.01-.654-.071-1.055a6.907 6.907 0 0 0-1.776-3.667 6.946 6.946 0 0 0-1.274-1.076 1.105 1.105 0 0 1-.242-.194.711.711 0 0 1 .322-1.124.553.553 0 0 1 .22-.028c.204 0 .276.027.545.207a8.4 8.4 0 0 1 3.366 4.584 8.276 8.276 0 0 1 .25 3.548c-.052.36-.083.495-.136.606a.707.707 0 0 1-.723.384zm-2.277-.923a.724.724 0 0 1-.54-.553c-.016-.074-.017-.116-.006-.282l.019-.309a5.552 5.552 0 0 0-.036-.705 4.597 4.597 0 0 0-.985-2.306 5.583 5.583 0 0 0-.716-.712c-.15-.121-.194-.164-.243-.237A.66.66 0 0 1 16 6.783a.679.679 0 0 1 .302-.608.709.709 0 0 1 .709-.05c.213.103.78.621 1.107 1.014a6.027 6.027 0 0 1 1.373 3.24c.016.137.02.285.021.608 0 .487-.013.659-.063.807a.705.705 0 0 1-.82.461zm-2.93-1.56a.714.714 0 0 1-.603-.784.672.672 0 0 1 .207-.418.706.706 0 0 1 1.119.84.884.884 0 0 1-.265.273.773.773 0 0 1-.458.09z"/></svg>