<svg role="img" viewBox="0 0 24 24" xmlns="http://www.w3.org/2000/svg"><path d="M10.183 19.265c-.735-.082-1.16-.173-1.772-.378-.352-.118-1.187-.519-1.187-.57 0-.028.155-.064.533-.124.986-.157 2.405-.457 2.945-.624.104-.032.248-.067.32-.077.15-.02.15-.02.184.275.056.502.61 1.059 1.191 1.197.08.019.14.048.134.064-.018.056-.38.132-1.072.227-.183.025-1.077.032-1.276.01zm-7.09-.961c-.928-.07-1.019-.085-1.546-.245-.437-.133-.553-.183-.803-.347-.26-.17-.477-.4-.626-.666L0 16.836l.002-.42c.002-.396.008-.436.096-.671.135-.357.307-.656.686-1.192.324-.458 1.532-1.637 1.676-1.637.021 0 .064-.029.096-.064a7.16 7.16 0 0 1 .7-.535c.044-.024.07-.02.103.012.05.05.11.36.11.571 0 .143-.005.15-.295.448a10.23 10.23 0 0 0-.502.56c-.114.14-.269.315-.344.39-.144.142-.429.622-.534.9-.148.392-.18.796-.084 1.066.116.324.387.541.879.702.613.2.981.245 2.012.245.585 0 .846-.013 1.211-.062.256-.035.6-.074.766-.089a6.86 6.86 0 0 0 .554-.073c.25-.046.666-.104.876-.12a.533.533 0 0 0 .165-.04.962.962 0 0 1 .237-.05c.1-.011.295-.048.436-.081a12.133 12.133 0 0 1 .766-.159l.33-.063c.05-.01.225-.05.39-.089.166-.04.463-.107.662-.15.4-.088.594-.14.89-.243.109-.037.305-.09.435-.116.13-.026.29-.067.357-.091.066-.024.282-.085.48-.135a26.659 26.659 0 0 0 2.073-.658 40.31 40.31 0 0 0 1.937-.804 35.868 35.868 0 0 0 1.75-.893c.12-.064.316-.176.435-.248a2.46 2.46 0 0 1 .233-.131c.009 0 .116-.064.24-.143l.44-.278c.12-.074.334-.21.475-.3.141-.092.29-.184.332-.205.041-.02.204-.133.36-.25a5.18 5.18 0 0 1 .364-.252.412.412 0 0 0 .129-.118c.027-.042.072-.076.1-.076.045 0 .133-.05.375-.215.199-.135.194-.011-.006.158-.082.07-.15.141-.151.16-.001.038-.268.284-.529.488-.549.43-1.113.847-1.394 1.03l-.5.334c-.211.142-.52.337-.685.434-.165.097-.32.192-.345.212a2.57 2.57 0 0 1-.226.134c-.428.234-.531.29-.755.417a9.48 9.48 0 0 1-.39.21 1.655 1.655 0 0 0-.195.112c-.037.03-.414.223-.958.49a8.506 8.506 0 0 0-.24.12c-.025.015-.322.15-.66.3-.34.15-.65.294-.692.32-.114.067-.39.193-.525.237a6.066 6.066 0 0 0-.36.143c-.336.143-.98.373-1.412.503a28.003 28.003 0 0 1-1.982.572c-.216.052-.486.12-.602.151a1.78 1.78 0 0 1-.27.058.847.847 0 0 0-.193.047 2.942 2.942 0 0 1-.39.087l-.619.104c-.712.124-1.085.183-1.336.211l-.39.044a20.39 20.39 0 0 1-1.488.123c-.69.04-1.668.052-2.012.026zm10.214-.598a1.864 1.864 0 0 0-.25-.073c-.093-.002-.576-.431-.576-.512 0-.06.169-.15.42-.225.157-.047.448-.145.646-.219l.466-.172a2.84 2.84 0 0 1 .43-.073 3.37 3.37 0 0 0 .504-.09c.263-.082.537-.272.624-.43.064-.117.274-.291.352-.293.015 0 .297-.135.628-.298.369-.183.612-.287.629-.27.036.035-.129.388-.32.685a1.935 1.935 0 0 0-.144.244c0 .053-.566.76-.79.986-.43.437-.736.62-1.242.741-.26.063-.38.075-.739.073-.369-.002-.457-.013-.638-.074zm-8.028-.998c-.541-.656-1.06-1.618-1.34-2.49a7.394 7.394 0 0 1-.322-2.713c.018-.289.046-.537.06-.551.044-.043.093.007.093.094 0 .044.028.14.06.212a.72.72 0 0 1 .06.169c0 .071.15.378.289.588.166.253.543.66.697.754.06.037.117.076.125.087.008.01.117.074.24.142.309.167.523.217.936.216.387 0 1.287-.09 1.603-.16.115-.026.291-.061.39-.079.457-.083 1.022-.24 1.743-.483.198-.066.427-.135.509-.153.082-.017.185-.05.23-.072.107-.056.285-.12.627-.224.157-.048.414-.129.57-.18.648-.211.837-.266 1.037-.302.116-.02.296-.055.4-.078a1.91 1.91 0 0 1 .253-.04c.036 0 .097-.031.136-.068.07-.066.091-.068.835-.077.748-.009.763-.008.816.055.03.036.084.077.121.091.092.036.085.106-.015.142a6.77 6.77 0 0 0-.353.155c-.149.07-.547.245-.886.389-.695.296-.694.296-.81.67-.19.609-.256.795-.307.852-.03.034-.11.23-.177.435a3.77 3.77 0 0 1-.164.439c-.023.035-.148.14-.279.231-.13.092-.283.22-.339.284-.276.315-.331.384-.463.58-.136.203-.279.327-.375.326-.025 0-.173.04-.33.089-.157.05-.427.117-.6.151-.174.035-.364.075-.421.09a36.912 36.912 0 0 1-2.885.529 13.15 13.15 0 0 1-1.276.153l-.27.012zm7.322-1.176c0-.035.31-.313.399-.357.471-.234.822-.337 1.148-.337.34 0 .521.096.367.192-.073.046-.98.33-1.268.398-.1.023-.243.062-.32.087-.156.05-.326.059-.326.017zm3.13-1a.125.125 0 0 1-.036-.073c0-.04-.326-.341-.37-.341a.539.539 0 0 1-.121-.042 2.246 2.246 0 0 0-.152-.061c-.054-.018-.054-.021-.003-.078.03-.033.07-.06.09-.06.02 0 .203-.082.408-.183.205-.101.447-.218.538-.26.203-.094.388-.185.724-.357.158-.08.279-.125.31-.113.093.036.258.537.258.784v.13l-.368.177c-.295.142-1.185.513-1.232.513-.006 0-.027-.016-.046-.036zm-2.72-.044c-.038-.038-.02-.098.052-.167a.343.343 0 0 0 .088-.158 9.8 9.8 0 0 1 .224-.811c.033-.1.068-.221.08-.27.04-.19.118-.423.15-.455.031-.032.22-.13.438-.229l.24-.108c.074-.033.216-.094.315-.135.1-.041.268-.115.376-.164.107-.05.229-.1.27-.111a1.16 1.16 0 0 0 .2-.094.62.62 0 0 1 .16-.072c.078 0 .604-.284.647-.35.025-.038.074-.07.109-.07.052 0 .545-.22.762-.339l.3-.167a32.5 32.5 0 0 1 .435-.237c.108-.058.243-.135.3-.173l.496-.312c1.231-.768 2.016-1.537 2.21-2.162.116-.378.054-.787-.152-.995-.272-.273-.677-.392-1.412-.414-.744-.021-1.346.045-2.544.28-.403.08-.412.077-.729-.216-.47-.436-.533-.532-.369-.57.046-.01.181-.051.301-.09.12-.04.237-.072.26-.072.022 0 .113-.021.202-.047.363-.107 1.133-.258 1.738-.341 1.213-.167 1.618-.195 2.823-.196 1.132-.001 1.383.015 1.996.137.25.05.332.081.496.19.47.314.527.42.527.993 0 .331-.007.378-.086.565-.048.111-.111.216-.142.232a.572.572 0 0 0-.137.172c-.421.736-1.533 1.85-2.795 2.802-.495.373-.613.46-.699.51-.042.024-.15.098-.238.163a2.242 2.242 0 0 1-.46.272c-.061.028-.119.073-.128.1a.323.323 0 0 1-.113.114c-.443.288-1.506.915-1.825 1.076a3.844 3.844 0 0 0-.255.137c-.099.075-1.882.936-2.178 1.051-.253.099-.856.366-.89.394a.457.457 0 0 1-.121.056c-.047.015-.248.088-.446.164-.358.136-.437.155-.476.117zM6.143 10.9c-.67-.058-1.116-.292-1.273-.67a2.964 2.964 0 0 1-.095-.488c-.076-.588-.013-1.028.217-1.513.145-.304.292-.495.679-.884.18-.18.348-.36.373-.399.047-.071.53-.446.67-.52a3.61 3.61 0 0 1 .315-.125c.311-.11.648-.116.959-.018a.747.747 0 0 1 .378.234c.21.21.286.415.279.752-.006.294-.089.46-.36.723-.3.29-.539.427-.777.442-.158.01-.21 0-.299-.055a.59.59 0 0 1-.154-.137c-.042-.064-.042-.086.006-.23.028-.087.077-.194.107-.238a.329.329 0 0 0 .056-.108c0-.016.025-.05.055-.078a.813.813 0 0 0 .125-.199c.113-.24.017-.291-.369-.195-.275.07-.486.228-.673.504-.428.633-.358 1.287.165 1.543.154.075.201.083.457.08a1.14 1.14 0 0 0 .54-.105 2.89 2.89 0 0 0 1.038-.67 5.783 5.783 0 0 0 .51-.568.776.776 0 0 0 .09-.115l.229-.378c.227-.374.25-.437.294-.788.03-.243.008-.64-.044-.796a1.79 1.79 0 0 0-.317-.529 1.236 1.236 0 0 0-.538-.272c-.041-.006-.075-.024-.075-.04 0-.052.85-.243 1.333-.3.881-.104 1.936 0 2.836.282.152.048.31.094.352.103.323.068 1.092.453 1.625.813.996.673 1.93 1.795 2.48 2.978.247.53.498 1.278.447 1.33-.012.011-.064-.033-.115-.1a3.884 3.884 0 0 0-.594-.575c-.334-.238-.74-.392-1.38-.524-.308-.064-.424-.071-1.081-.071-.635 0-.792.01-1.142.07a23.06 23.06 0 0 1-.465.077 3.451 3.451 0 0 0-.46.11.428.428 0 0 1-.126.027.522.522 0 0 0-.157.043 2.403 2.403 0 0 1-.318.091c-.122.027-.31.083-.421.125-.11.042-.289.1-.396.13a1.71 1.71 0 0 0-.261.087.303.303 0 0 1-.115.035.464.464 0 0 0-.145.045 5.07 5.07 0 0 1-.305.118c-.115.04-.305.108-.42.152-.404.15-.904.322-1.292.441l-.48.15c-.05.015-.287.066-.526.113a5.44 5.44 0 0 1-1.442.09z"/></svg>