<svg viewBox="0 0 24 24" xmlns="http://www.w3.org/2000/svg" role="img"><path d="M6.551 14.661c-.05-.029-.08-.069-.08-.107 0-.024.25-.67.925-2.396l.691-1.771c.13-.335.245-.626.256-.646.05-.1.203-.093.256.012.02.036 0 .07-.172.54-.106.276-.412 1.086-.68 1.8a622.01 622.01 0 0 1-.949 2.503c0 .024-.03.054-.04.068-.04.035-.149.033-.208-.003zm-.175-.224v-.009.028-.02zm-.06-.218a6.743 6.743 0 0 0-.464-1.247c-.359-.698-.78-1.113-1.275-1.251-.219-.062-.356-.074-.996-.087-.702-.014-.838-.028-1.248-.13C1.244 11.23.458 10.663.07 9.871 0 9.727 0 9.714 0 9.604c0-.103 0-.123.04-.176.04-.059.128-.117.179-.117.01 0 .06.018.09.04.05.031.09.081.171.21.312.486.612.798 1.002 1.04.411.255.92.424 1.48.494.1.012.346.035.551.052.617.049.897.092 1.177.181.343.11.6.267.835.513.451.469.675 1.104.83 2.343l.02.204a.72.72 0 0 1-.05-.169zm1.535-.771c-.02-.015-.03-.037-.03-.067 0-.047.338-.916.388-.998a.155.155 0 0 1 .24-.027c.04.038.404.92.416 1.001 0 .067-.03.113-.102.113-.06 0-.08-.025-.14-.169l-.05-.118-.238.004-.237.004-.05.12c-.03.066-.05.128-.06.14-.02.026-.1.025-.139-.003zm.657-.433c0-.02-.164-.463-.172-.463 0 0-.1.256-.169.456 0 .013.03.018.167.018.1 0 .174-.005.174-.011zm.995.444c-.04-.03-.05-.078-.05-.56 0-.458 0-.489.03-.52.03-.035.03-.035.348-.035h.32l.07.04a.3.3 0 0 1 .103.086c.06.093.07.247.01.332a.357.357 0 0 1-.174.125c-.03.01-.06.02-.06.023 0 .002.03.03.06.063.102.09.238.306.238.38 0 .059-.106.098-.172.063a1.11 1.11 0 0 1-.135-.19 1.765 1.765 0 0 0-.157-.224.292.292 0 0 0-.206-.073h-.05v.212c0 .252-.02.29-.11.29a.187.187 0 0 1-.07-.012zm.562-.661c.07-.032.1-.091.09-.164-.02-.104-.1-.137-.334-.138l-.133-.001v.33h.161c.126 0 .174-.007.22-.027zm.898.639a.094.094 0 0 1-.03-.06c0-.025.29-.765.367-.94.04-.086.09-.129.156-.129.05 0 .118.038.142.083.04.072.378.917.388.96.01.062-.03.12-.1.12-.06 0-.09-.029-.145-.17l-.05-.11-.236-.005-.236-.004-.05.12c-.03.064-.06.13-.07.143-.03.036-.107.032-.145-.008zm.671-.415c0-.026-.17-.457-.18-.457 0 0-.02.03-.04.069-.01.038-.05.142-.08.23l-.06.162h.178c.1 0 .178-.002.178-.004zm.97.416c-.02-.027-.02-.103-.02-.543v-.512l.05-.039c.04-.031.06-.037.1-.03.03.004.06.016.07.026.01.01.128.186.263.392.135.205.25.375.259.377 0 .003.01-.131.01-.367 0-.37 0-.371.03-.402.04-.041.09-.04.133.005l.04.035v.515c0 .483 0 .517-.03.545-.03.037-.13.042-.177.008a4.163 4.163 0 0 1-.28-.39l-.247-.369v.37c0 .346 0 .372-.03.391-.04.032-.117.026-.143-.011zm3.076.003a.09.09 0 0 1-.03-.064c0-.02.09-.256.196-.525.175-.438.2-.492.24-.516.07-.046.172-.03.215.035.05.07.396.957.396 1.003 0 .062-.04.096-.104.096-.06 0-.08-.019-.14-.174l-.05-.113-.236.004-.236.004-.04.104c-.06.152-.08.175-.137.175a.124.124 0 0 1-.08-.028zm.64-.505c-.02-.05-.06-.156-.09-.238a.73.73 0 0 0-.06-.136c0 .006-.04.103-.08.215s-.08.213-.08.226c0 .02.01.022.172.022h.18zm2.445.496c-.04-.05-.04-.099 0-.144.03-.03.05-.035.09-.028.1.015.13.099.07.172-.02.03-.04.038-.09.038-.04 0-.06-.009-.08-.038zm1.18.017c-.232-.072-.363-.3-.346-.605.01-.176.05-.276.153-.38.11-.11.207-.147.38-.147.153 0 .256.034.349.113.147.126.157.32.02.306-.04-.004-.06-.019-.106-.09-.07-.1-.111-.134-.193-.153-.14-.03-.268.034-.336.17a.672.672 0 0 0 0 .463c.03.068.126.154.19.166.164.03.28-.027.353-.176.04-.089.05-.098.1-.102.148-.014.133.204-.02.341-.09.083-.193.115-.345.114a.808.808 0 0 1-.185-.02zm1.585-.007c-.207-.066-.33-.24-.352-.496-.02-.274.106-.511.323-.597a.801.801 0 0 1 .464 0c.219.086.345.318.323.594-.02.266-.147.442-.358.505a.864.864 0 0 1-.4-.006zm.34-.171c.133-.061.2-.207.19-.417 0-.102-.01-.136-.05-.2a.313.313 0 0 0-.561.008c-.04.075-.04.098-.04.227 0 .125 0 .154.04.224.04.079.1.14.17.169a.42.42 0 0 0 .252-.011zm1.06.176c-.01-.012-.03-.036-.03-.054v-.514c0-.578-.01-.535.186-.535.107 0 .133.004.148.025.01.013.06.175.107.358.109.406.103.388.11.38 0-.002.05-.161.1-.353.05-.191.1-.36.108-.375.02-.033.09-.048.201-.04.142.01.135-.017.14.525v.516c-.01.061-.04.09-.1.09-.09 0-.09-.004-.09-.481 0-.236 0-.422-.01-.415 0 .007-.06.198-.116.422-.118.464-.125.478-.23.47-.05-.003-.07-.01-.09-.047-.02-.025-.07-.21-.13-.437-.05-.217-.103-.4-.11-.408 0-.007-.01.177-.01.41 0 .474 0 .486-.09.486-.03 0-.06-.01-.07-.023zm-8.697-.02c-.03-.028-.03-.042-.03-.522 0-.464 0-.495.03-.527.03-.033.04-.034.246-.039.413-.009.54.046.648.278.03.064.03.093.03.28 0 .193 0 .212-.04.287a.428.428 0 0 1-.211.224c-.08.04-.09.04-.363.045-.27.004-.284.003-.312-.025zm.525-.159c.124-.047.184-.175.182-.394 0-.166-.03-.254-.112-.315-.05-.04-.204-.069-.326-.062l-.08.004v.782h.15a.92.92 0 0 0 .19-.015zm2.449.152c-.04-.04-.04-.087-.01-.137.01-.02.165-.201.337-.404.172-.202.313-.372.313-.376 0-.004-.13-.008-.287-.008h-.286l-.02-.037c-.03-.045 0-.102.04-.114.02-.005.199-.006.403-.004.419.005.41.002.41.121 0 .07 0 .059-.392.528l-.257.302.336.007c.184.004.344.012.353.018.02.015.02.1 0 .122-.01.013-.135.017-.46.017h-.442zm.02-2.134c-.04-.015-.07-.073-.04-.11a.54.54 0 0 1 .14-.094c.15-.087.284-.204.325-.283.02-.031.03-.06.02-.063 0-.003-.03.001-.05.01-.126.044-.276-.044-.295-.175a.33.33 0 0 1 .06-.245c.05-.079.114-.117.196-.116.178.003.288.177.276.435 0 .106-.01.14-.06.223a.878.878 0 0 1-.356.355c-.131.069-.172.08-.221.063zm.404-.723c.04-.009.05-.012.04-.053 0-.024-.02-.055-.03-.07-.05-.053-.163-.017-.163.052s.05.092.157.071zm-6.085.659c-.06-.066-.02-.12.15-.204.171-.084.254-.151.303-.247.04-.074.04-.094.04-.222 0-.21.03-.277.12-.255.115.03.122.352.01.569a.78.78 0 0 1-.342.314c-.148.071-.246.087-.284.045zm4.79.01a.093.093 0 0 1-.02-.063c0-.06.02-.074.188-.16.152-.078.246-.156.29-.242.02-.047.03-.094.04-.242 0-.172.01-.187.04-.212.04-.035.06-.035.11.005.03.024.04.054.05.12a.723.723 0 0 1-.205.596c-.141.14-.408.247-.488.198zm-3.408-.288c-.06-.023-.09-.057-.09-.1 0-.06.05-.083.209-.1.24-.024.323-.066.3-.154 0-.02-.05-.096-.09-.167-.122-.19-.137-.243-.09-.295.08-.075.135-.021.304.275.07.127.125.202.157.223l.05.033h1.116c.672 0 1.13-.005 1.152-.014.06-.023.07-.062.05-.189-.02-.104-.02-.115 0-.141a.101.101 0 0 1 .12-.015c.06.035.09.25.04.376a.328.328 0 0 1-.19.182c-.04.01-.437.016-1.2.016-1.203 0-1.204 0-1.256-.063-.02-.023-.02-.022-.06.011-.1.094-.417.167-.531.122zm-.398-.039c-.04-.023-.04-.1-.06-.612-.02-.491-.02-.534 0-.577.04-.087.139-.075.167.021.01.036.01.233.01.596 0 .518 0 .544-.03.563-.03.023-.06.026-.09.01zm-.533-.84c-.05-.055-.04-.126.03-.161.107-.056.21.082.121.164a.105.105 0 0 1-.15-.002zm3.949-.015c-.04-.043-.04-.098 0-.137.07-.072.175-.038.184.061 0 .102-.104.15-.177.076z"/></svg>