<svg viewBox="0 0 24 24" xmlns="http://www.w3.org/2000/svg" role="img"><path d="M7.388 21.886c.007-.761.02-1.393.03-1.404.011-.01.24-.035.508-.054a9.855 9.855 0 0 0 1.792-.29c.465-.122 1.18-.388 1.456-.542l.152-.085-.135.017c-.766.098-1.94.107-2.674.02-2.699-.315-5.15-1.471-6.957-3.281a12.49 12.49 0 0 1-1.263-1.47c-.28-.37-.323-.443-.286-.487.056-.067 2.234-1.503 2.313-1.524.02-.005.117.107.217.25a9.45 9.45 0 0 0 1.719 1.832c.314.25.992.72 1.04.72.01 0-.1-.149-.244-.33-1.272-1.6-2.087-3.49-2.417-5.61-.089-.566-.124-2.016-.065-2.649.131-1.402.524-2.817 1.102-3.967l.156-.31.146.085c.294.172.935.51 1.651.87l.734.37-.2.414a8.306 8.306 0 0 0-.695 2.283c-.061.382-.109 1.943-.058 1.888.018-.018.076-.155.129-.304.141-.398.359-.884.62-1.385A11.58 11.58 0 0 1 14.303.9c.463-.087 1.184-.17 1.463-.17h.21l.017.11c.021.136.084 1.602.096 2.241l.008.474-.37.025a8.854 8.854 0 0 0-2.066.416c-.334.11-1.108.426-1.09.445.008.008.226-.004.484-.026.586-.049 1.874-.022 2.443.052 1.973.256 3.614.876 5.223 1.975.927.634 1.76 1.424 2.541 2.41.302.381.76 1.041.736 1.06a268.401 268.401 0 0 0-1.53.945c-.48.299-.877.536-.882.53l-.174-.25c-.769-1.11-1.854-2.132-2.908-2.74-.191-.11-.189-.104.123.282.851 1.053 1.643 2.59 2.02 3.916.704 2.48.612 4.918-.277 7.325-.147.4-.429 1.044-.466 1.067-.016.01-.39-.162-.834-.382-.444-.22-.995-.487-1.226-.595l-.419-.195.02-.159c.01-.087.072-.284.138-.438.387-.904.667-2.16.662-2.977l-.001-.264-.282.58c-.67 1.377-1.315 2.29-2.355 3.33-.848.849-1.567 1.397-2.549 1.945-1.597.89-3.603 1.437-5.281 1.439h-.401zm12.526-1.72c.616-1.555.91-3.119.862-4.578a11.523 11.523 0 0 0-1.181-4.756c-.2-.4-.572-1.04-.593-1.02-.006.007.027.155.074.33.156.59.225 1.092.245 1.79.034 1.184-.132 2.215-.58 3.61-.127.39-.155.524-.155.727 0 .838-.262 2.037-.646 2.962-.075.178-.13.34-.124.358.009.028 1.855.96 1.922.971.01.002.09-.176.176-.394zm-9.488-.903a3.635 3.635 0 0 0-.358-.101c-1.02-.259-2.01-.756-3.091-1.553-.463-.34-.688-.54-1.354-1.196-.41-.404-.686-.645-.897-.784a9.44 9.44 0 0 1-2.317-2.193l-.15-.205-.662.422c-.364.232-.773.496-.908.588l-.247.166.145.206c.252.36.841 1.046 1.23 1.432 1.87 1.86 4.335 2.963 7.174 3.21.202.017 1.452.024 1.435.008zm2.124-3.116c.62-.1 1.17-.32 1.72-.686 2.213-1.474 2.477-4.693.535-6.508-1.335-1.246-3.28-1.517-4.845-.674-.838.451-1.562 1.227-1.922 2.06-.399.923-.44 2.159-.1 3.061.553 1.47 1.898 2.569 3.378 2.76.351.047.904.04 1.234-.013zm-1.929-2.48a14.973 14.973 0 0 0-.394-3.105c-.057-.242-.093-.444-.078-.45.014-.005.14-.06.28-.123.186-.083.26-.102.278-.072.062.108.214.717.35 1.406.14.711.157.768.25.853a.74.74 0 0 0 .416.162c.034 0 .09-.059.135-.143.067-.125.077-.192.075-.5-.002-.296-.022-.43-.124-.812a5.211 5.211 0 0 1-.132-.609l-.011-.152.296-.106c.163-.058.304-.092.315-.076.01.017.086.362.17.766.244 1.19.288 1.318.507 1.485.286.219.59.021.589-.384 0-.34-.214-1.002-.444-1.375-.123-.2-.128-.195.255-.38.164-.08.247-.105.276-.08.055.045.37.758.468 1.058.18.552.203 1.087.058 1.37-.182.354-.502.578-.87.608a.637.637 0 0 1-.404-.073 2.553 2.553 0 0 1-.354-.204l-.159-.114-.088.111c-.136.17-.361.264-.63.263a1.25 1.25 0 0 1-.321-.04c-.054-.021-.101-.035-.105-.03-.005.006.004.117.02.247.014.13.028.461.028.736l.002.5h-.632zm-5.796.561a7.92 7.92 0 0 1-.283-1.355 11.448 11.448 0 0 1-.001-1.753c.049-.474.286-1.726.4-2.115.094-.32.1-.383.118-1.134.01-.438.042-.953.07-1.144.121-.807.347-1.589.641-2.22l.145-.31L4.94 3.7l-.975-.498-.064.127c-.136.268-.448 1.101-.577 1.541a12.52 12.52 0 0 0-.356 1.648c-.37 2.546.235 5.303 1.652 7.54.145.227.269.414.275.414.007 0-.024-.11-.07-.243z"/></svg>