<svg role="img" viewBox="0 0 24 24" xmlns="http://www.w3.org/2000/svg"><path d="M11.921 0a10.749 10.749 0 0 0-3.127.491c-1.597.515-3.095 1.386-4.272 2.589-1.83 1.754-2.954 4.207-3.15 6.729-.132 1.56.097 3.149.646 4.614 1 2.661 3.105 4.89 5.718 6.012V24l.078-.062c.905-.9 1.797-1.813 2.712-2.702 1.132.135 2.286.125 3.408-.085a10.656 10.656 0 0 0 4.852-2.266 10.711 10.711 0 0 0 3.127-4.292c.686-1.726.911-3.632.64-5.47a10.571 10.571 0 0 0-2.296-5.199 8.585 8.585 0 0 0-1.136-1.196A10.676 10.676 0 0 0 14.373.265 10.636 10.636 0 0 0 11.92 0zm-.069 1.722c.225 0 .45.006.674.008a8.881 8.881 0 0 1 3.688 1.043 8.937 8.937 0 0 1 3.893 4.105 9.117 9.117 0 0 1 .842 3.938c-.039 2.256-.961 4.488-2.548 6.096a8.885 8.885 0 0 1-4.433 2.478c-.56.118-1.13.216-1.703.202.306-.243.584-.52.867-.791 1.2-1.125 2.408-2.244 3.604-3.374a6.702 6.702 0 0 0 1.977-4.961c-.032-1.64-.717-3.247-1.844-4.433a6.706 6.706 0 0 0-4.392-2.068C10.619 3.82 8.71 4.5 7.373 5.799a6.622 6.622 0 0 0-1.892 3.237 6.726 6.726 0 0 0 .58 4.77c.713 1.368 1.924 2.454 3.34 3.057-.538.56-1.093 1.103-1.643 1.651a2.621 2.621 0 0 1-.018.076l-.013-.07a8.896 8.896 0 0 1-2.768-2.335 8.967 8.967 0 0 1-1.85-6.534 8.946 8.946 0 0 1 8.072-7.896 6.25 6.25 0 0 1 .671-.033zm.093 6.393a2.524 2.524 0 0 1 1.564.492c.6.426.978 1.128 1.036 1.859a2.544 2.544 0 0 1-.734 1.993 2.579 2.579 0 0 1-1.987.752 2.58 2.58 0 0 1-1.572-.69 2.524 2.524 0 0 1-.804-1.838 2.51 2.51 0 0 1 .535-1.58 2.62 2.62 0 0 1 1.578-.954 2.74 2.74 0 0 1 .384-.034z"/></svg>