<svg viewBox="0 0 24 24" xmlns="http://www.w3.org/2000/svg" role="img"><path d="m17.556 16.663-.078-.012a.093.093 0 0 1-.071-.05c-.024-.04-.026-.071-.026-.436 0-.34.002-.395.022-.423.049-.07.035-.069 1.122-.069h1.01l.036.04.036.04v.831l-.032.04-.033.041-.976.002c-.537.001-.991 0-1.01-.004zM.089 16.645a.176.176 0 0 1-.06-.02C.008 16.607 0 16.36 0 15.762c0-1.006.012-1.163.124-1.552.091-.315.197-.497.413-.709.258-.253.531-.39.932-.466.153-.03 1.15-.046 1.181-.02.017.015.02.087.02.467v.45l-.03.02c-.024.015-.117.02-.435.026-.558.009-.724.038-.877.155-.103.077-.19.195-.281.38l-.084.17-.012.438c-.012.469-.01.494.052.534.03.02.409.022 4.92.025l4.888.003.025.033c.024.03.026.063.026.444 0 .41 0 .412-.031.45l-.031.04-5.33.003c-2.932.002-5.353-.001-5.38-.007zm12.227 0a.173.173 0 0 1-.06-.02c-.02-.02-.028-.266-.029-.864 0-1.006.012-1.163.124-1.552.091-.315.197-.497.413-.709.258-.253.529-.388.932-.467.094-.018.238-.023.79-.028.737-.007.71-.004.8-.09.06-.055.084-.104.108-.211.016-.071.021-.272.026-1.054l.006-.967-.083-.009c-.185-.02-.181-.013-.187-.46-.005-.411.002-.518.038-.563.025-.03.027-.03.407-.032.482-.002.466 0 .495-.03.023-.023.026-.063.035-.476.01-.439.009-.454-.019-.528-.06-.16-.19-.237-.378-.223a.513.513 0 0 0-.326.155c-.122.116-.458.485-.915 1.009a23.66 23.66 0 0 1-.439.493 20.24 20.24 0 0 0-.236.263c-.224.253-.325.357-.371.382-.034.018-.101.023-.372.03l-.33.006-.002 1.026-.002 1.025-.034.129a1.39 1.39 0 0 1-.473.74 2.863 2.863 0 0 1-.524.269c-.267.096-.057.089-2.645.094l-2.331.004-.14.131c-.47.446-1.028.977-1.276 1.216-.24.23-.294.276-.326.276-.032 0-.072-.03-.198-.147a10.043 10.043 0 0 0-.423-.377c-.128-.11-.147-.142-.112-.195.024-.037.472-.471 1.617-1.57.64-.613.868-.835 1.439-1.396.287-.283.338-.328.373-.328.032 0 .07.024.163.105.11.094.4.353.552.49.084.078.079.108-.033.208-.05.045-.21.198-.354.34L7.75 13h1.833c2.027 0 1.865.008 1.964-.085.073-.068.098-.132.114-.29.008-.08.016-.54.02-1.038l.004-.893-.041.008c-.053.01-.149-.026-.175-.066-.017-.025-.022-.1-.025-.395-.005-.412.002-.52.038-.564.025-.03.026-.03.434-.031.51-.002.492 0 .522-.03.023-.024.026-.064.035-.477.01-.438.009-.454-.019-.527-.06-.16-.19-.237-.378-.224-.184.013-.26.07-.606.45-.193.21-.278.307-.677.76-.238.272-.311.354-.519.583-.089.099-.246.274-.348.39a3.53 3.53 0 0 1-.199.214c-.012.004-.635-.597-.672-.649a.076.076 0 0 1-.01-.055c.003-.016.07-.1.146-.186.076-.085.2-.228.273-.316l.183-.215c.027-.03.133-.155.236-.277.363-.43.799-.914 1.066-1.182.252-.253.508-.417.783-.5.183-.055.41-.06.604-.014.203.05.338.105.478.197.197.13.35.31.471.553.117.236.14.346.142.716 0 .138.005.264.01.282.008.028.022.015.144-.128.332-.393.775-.882 1.025-1.133.252-.253.509-.417.783-.5.184-.055.41-.06.604-.014.302.073.52.192.695.38.199.212.345.5.382.752.016.107.026 1.472.013 1.876-.006.205-.01.242-.031.263-.021.021-.059.025-.297.03l-.273.008.002.999c.001 1.128-.001 1.096.1 1.213.112.126 0 .116 1.342.116 1.138 0 1.184-.001 1.232-.026a.408.408 0 0 0 .156-.157 1 1 0 0 0 .044-.19c.02-.121.024-.256.026-.783.002-.708.001-.697.09-.713.025-.004.234-.006.466-.004.418.004.422.004.452.034l.031.031.007.678c.007.72 0 .891-.04 1.042a1.399 1.399 0 0 1-.465.707 2.861 2.861 0 0 1-.524.269c-.257.093-.219.09-1.475.09s-1.218.002-1.474-.09a4.149 4.149 0 0 1-.473-.228c-.026-.016-.034-.016-.06 0-.084.053-.37.19-.472.228-.236.085-.274.089-.868.09-.576.003-.729.015-.885.074-.166.062-.294.202-.42.46l-.084.168-.011.33a10.3 10.3 0 0 0-.007.463c.003.115.007.135.034.162l.031.03 1.907.007c1.59.006 1.911.01 1.93.026.02.016.022.065.022.46 0 .359-.003.445-.019.467-.019.025-.06.026-2.365.028-1.29 0-2.369-.003-2.397-.008zm-9.671-1.443a9.667 9.667 0 0 1-.326-.343c0-.004.111-.106.247-.227a91.205 91.205 0 0 1 1.178-1.053c.815-.72.896-.8.945-.946a.568.568 0 0 0 .006-.297.324.324 0 0 0-.18-.192l-.066-.031-.926.007c-.51.004-.956.003-.992-.002-.12-.018-.117-.004-.117-.473v-.41l.032-.039.033-.037h1.017c1.134 0 1.116-.001 1.354.095.452.182.734.5.852.962.064.253.057.457-.025.69-.1.285-.23.478-.502.75-.322.32-.696.654-1.398 1.248-.391.33-.516.438-.645.556-.062.057-.095.078-.123.078-.033 0-.09-.052-.364-.336zm18.26-.027a6.138 6.138 0 0 1-.326-.35c0-.008.098-.1.219-.207.12-.106.316-.282.435-.39.119-.107.34-.305.492-.438a79.482 79.482 0 0 0 .623-.553c.368-.327.554-.517.593-.608a.519.519 0 0 0 .027-.295.322.322 0 0 0-.193-.225c-.081-.037-.174-.04-.698-.022-.285.01-.305.012-.327.038-.022.026-.024.074-.024.564 0 .326-.005.554-.014.585-.011.042-.022.052-.064.064a7.065 7.065 0 0 1-.883 0c-.097-.027-.091.042-.091-1.11v-1.037l.032-.032a.18.18 0 0 1 .08-.041c.026-.005.493-.006 1.037-.003l.99.006.135.036c.143.037.386.15.497.23.244.174.42.427.517.744.035.112.038.138.038.357 0 .267-.01.311-.122.547-.09.188-.14.266-.25.394a13.49 13.49 0 0 1-.795.767l-.228.203a5.73 5.73 0 0 1-.164.142c-.383.315-.911.765-1.04.886-.139.13-.113.144-.496-.252zM9.508 9.081a.578.578 0 0 1-.115-.126c.003-.008.203-.24.445-.518l.467-.535c.022-.028.04-.033.144-.04l.118-.007.06.06c.033.032.06.066.06.075 0 .01-.09.12-.198.244a36.05 36.05 0 0 1-.853.96c-.005 0-.063-.05-.128-.112z"/></svg>