<svg viewBox="0 0 24 24" xmlns="http://www.w3.org/2000/svg" role="img"><path d="M9.798 23.974c-.02-.02-.038-.557-.038-1.193v-1.156h9.6l-.001-5.59c0-3.074-.025-6.002-.056-6.506-.235-3.92-1.163-5.657-3.689-6.904-1.28-.632-2.297-.88-3.606-.878-1.435.002-2.76.337-3.822.967-.642.38-1.657 1.179-2.106 1.656-.815.866-1.214 1.81-1.366 3.23-.037.337-.058 2.697-.058 6.33v5.793l1.04.039c1.24.046 3.02-.038 4.064-.191 2.456-.36 4.18-1.208 5.72-2.813 1.963-2.046 2.734-4.845 1.812-6.58-.35-.658-.926-1.003-1.678-1.003-1.054 0-2.083.664-2.345 1.515-.148.482-.13 1.285.036 1.655.246.547.788.897 1.462.946.207.014.375.045.375.067 0 .022-.147.107-.328.188-1.067.479-1.907.19-2.448-.843-.236-.452-.623-.802-1-.907l-.287-.08.399-.156a2.367 2.367 0 0 0 1.26-1.18c.175-.353.209-.482.23-.883.045-.855-.207-1.636-.664-2.054-.545-.5-1.133-.716-1.831-.676-.372.022-.504.06-.915.263-.384.19-.575.333-.957.717-.783.785-1.028 1.387-1.021 2.504.007 1.041.3 2.13.904 3.357.591 1.202 1.377 2.287 2.466 3.403l.614.63-.278.248c-.736.659-1.194 1.023-1.245.991-.082-.05-1.497-2.199-1.791-2.72-1.94-3.433-2.27-6.097-.998-8.073 1.099-1.708 2.975-2.573 4.462-2.06.898.311 1.633 1.073 2.092 2.17.07.169.145.325.166.347.02.023.283-.02.584-.097 1.247-.316 2.273-.115 2.973.583.363.362.612.81.786 1.417.169.589.183 1.962.028 2.689-.326 1.53-.888 2.61-2.085 4.005-1.485 1.732-3.127 2.738-5.416 3.32-1.796.456-3.577.648-6.969.75l-1.143.034-.04-1.985c-.051-2.47.01-10.35.086-11.062.32-3.015 2.094-5.586 4.876-7.063 1.44-.764 3.307-1.202 4.8-1.127 1.043.053 2.11.253 2.718.508l.222.093-.666.34-.665.339.72.037c1.156.06 2.423.433 3.28.966 1.54.958 2.475 2.638 2.9 5.213.319 1.925.363 3.167.366 10.265l.002 6.214-5.747.014c-3.16.008-5.764-.003-5.784-.023z"/></svg>