<svg role="img" viewBox="0 0 24 24" xmlns="http://www.w3.org/2000/svg"><path d="m.006 13.467.835-.744c.437-.389.797-.721.8-.739.003-.017-.268-.276-.603-.575l-.76-.682-.153-.138h1.14l.358.32c.197.175.42.373.496.438l.137.119.49-.44.49-.439h1.147l-.77.693c-.424.382-.77.7-.769.71 0 .009.317.296.703.639l.84.747.139.125-.583.001-.584.001-.53-.479a13.877 13.877 0 0 0-.562-.492c-.017-.008-.277.207-.577.478l-.545.493H.556c-.503 0-.583-.005-.55-.037zm7.057-.103c-.043-.076-.368-.67-.72-1.319-.354-.649-.678-1.242-.722-1.32l-.079-.14.482.008.483.007.555 1.06c.305.583.564 1.07.574 1.08.011.01.264-.47.562-1.067l.543-1.086h.944l-.127.234-.79 1.458-.663 1.224h-.964l-.078-.14zm2.858-1.318v-1.459h.769l.007 1.266.007 1.266 1.389.007 1.389.007.138-.063c.27-.124.356-.42.182-.627-.14-.165-.166-.17-.95-.188-.576-.013-.745-.026-.862-.063-.46-.146-.674-.398-.672-.796 0-.408.246-.67.723-.77.139-.03.54-.038 1.984-.038h1.81v2.916h-.77v-2.546h-1.332l-1.332.001-.136.063c-.166.077-.254.194-.268.358-.014.163.055.285.219.387l.127.08.758.014c.688.013.772.02.912.072.32.118.55.367.591.64a.83.83 0 0 1-.109.511c-.087.132-.278.27-.477.346l-.16.06-1.968.008-1.968.008v-1.46zm7.884 1.42c-.716-.137-1.176-.507-1.32-1.064a2.103 2.103 0 0 1 .007-.836c.124-.473.545-.857 1.11-1.01.305-.083 1.041-.083 1.347 0 .55.15.957.48 1.104.895.12.341.118.78-.004 1.107-.153.408-.556.731-1.082.87-.267.07-.89.09-1.163.038zm.763-.478a.99.99 0 0 0 .55-.293c.193-.209.228-.318.229-.705 0-.33-.001-.337-.093-.516-.15-.294-.415-.452-.838-.5-.497-.058-.991.201-1.137.596-.079.214-.073.643.012.858.173.441.716.679 1.277.56zm2.118-.943v-1.458l.404.001.404.001.862.984.862.983.007-.985.007-.985H24v2.917h-.835l-.849-.961-.848-.961-.007.96-.007.962h-.768zm-15.976.587a.653.653 0 0 1-.356-.563c0-.13.11-.346.224-.44a.59.59 0 0 1 .969.457.6.6 0 0 1-.837.546z"/></svg>