<svg viewBox="0 0 24 24" xmlns="http://www.w3.org/2000/svg" role="img"><path d="M7.087 23.888a.775.775 0 0 1-.47-.428.923.923 0 0 1-.054-.534l.026-.094-2.73-2.714-2.729-2.715-.231.012c-.197.01-.254.003-.381-.045-.603-.228-.7-1.099-.16-1.446l.118-.075v-3.85l.002-3.85-.1-.057a.877.877 0 0 1-.343-.452.833.833 0 0 1 .431-.99.585.585 0 0 1 .358-.076c.107.002.22.006.25.01.044.005.647-.582 2.785-2.706l2.73-2.71-.027-.095a.975.975 0 0 1 .055-.54c.269-.569 1.102-.638 1.437-.12l.082.125h7.706l.124-.156a.759.759 0 0 1 .61-.316.687.687 0 0 1 .345.046c.377.142.61.565.521.947l-.024.105 2.47 2.461a930.654 930.654 0 0 0 2.734 2.719l.265.257.145-.023a.822.822 0 0 1 .89.469c.166.363.048.813-.268 1.02l-.127.083.001 3.85.001 3.85.118.076a.85.85 0 0 1 .323.46.838.838 0 0 1-.433.962c-.108.054-.159.061-.4.061h-.278l-2.72 2.712-2.721 2.713.024.106a.835.835 0 0 1-.226.754.841.841 0 0 1-1.276-.107l-.092-.126H8.136l-.081.125c-.094.145-.182.213-.378.293a.85.85 0 0 1-.59.01zm8.299-1.154a59.793 59.793 0 0 0-.892-.583l-1.457-.944-.59-.382-.115.053a.992.992 0 0 1-.659 0l-.115-.053-.237.159c-.13.087-.712.466-1.294.842-1.399.906-1.396.904-1.396.918 0 .007 1.525.012 3.39.012 1.868 0 3.378-.01 3.365-.022zm-6.626-.953a287.694 287.694 0 0 1 2.293-1.48c.07-.043.117-.09.113-.111-.004-.021-.118-.084-.258-.142a1595.237 1595.237 0 0 0-4.015-1.654c-.161-.069-.165-.045-.062.44.051.24.12.561.15.714l.186.868.244 1.145c.163.78.144.724.27.773a.412.412 0 0 0 .148.034c.023-.005.442-.269.931-.587zm7.546.555.12-.043.103-.48.305-1.435c.11-.526.252-1.183.313-1.46.087-.391.105-.51.082-.533-.032-.032-.098-.007-1.339.508a436.199 436.199 0 0 1-2.705 1.112c-.307.123-.367.16-.346.214.007.018.114.095.237.17.21.128 1.036.66 2.46 1.583.344.224.631.406.637.406.006 0 .066-.019.133-.042zm-9.664-.953-.276-1.307a225.39 225.39 0 0 1-.234-1.107l-.083-.402-.162-.079a.903.903 0 0 1-.425-.429c-.06-.128-.064-.13-.214-.159a122.49 122.49 0 0 1-1.033-.216l-1.543-.325a14.381 14.381 0 0 1-.686-.153c-.013-.008-.023-.006-.023.004 0 .02 4.79 4.79 4.8 4.78.002-.003-.051-.276-.12-.607zm15.206-3.98c.098-.1.168-.183.157-.183-.012 0-.31.061-.665.136a256.62 256.62 0 0 1-2.67.555c-.08.012-.093.027-.132.137-.06.17-.224.34-.421.44l-.164.083-.056.262a223.276 223.276 0 0 0-.66 3.15c0 .023 3.998-3.949 4.611-4.58zM11.54 19.42c.277-.187.656-.176.97.029.075.05-.079.105 1.367-.493a1211.517 1211.517 0 0 1 2.83-1.165l.212-.087.028-.123a.956.956 0 0 1 .28-.48c.115-.093.323-.184.424-.184.074 0 .083-.016.272-.478l.345-.83a567.428 567.428 0 0 0 .78-1.875l.368-.888.138-.335-.08-.092a.806.806 0 0 1-.194-.475.805.805 0 0 1 .125-.52l.077-.12-.258-.622a549.502 549.502 0 0 0-.765-1.835l-.382-.919c-.387-.927-.336-.833-.453-.853a.814.814 0 0 1-.575-.4.913.913 0 0 1-.106-.263l-.015-.107-.57-.234-1.021-.42-1.032-.425a111.09 111.09 0 0 1-.906-.378c-.828-.353-.816-.348-.89-.3A.8.8 0 0 1 12 4.7c-.202.002-.228-.004-.395-.09l-.178-.094-.423.172c-.232.094-.88.361-1.441.593-1.774.733-1.919.793-2.205.909-.276.111-.281.115-.298.206-.06.334-.36.636-.673.678-.052.007-.104.025-.117.04a3.64 3.64 0 0 0-.142.33 342.9 342.9 0 0 1-1.508 3.643l-.144.345.053.068c.088.112.161.394.146.563a1.115 1.115 0 0 1-.174.457c-.034.046-.012.105.457 1.228a648.195 648.195 0 0 1 1.125 2.705 6.6 6.6 0 0 0 .188.43c.012.016.067.035.121.042.316.042.607.339.669.68.011.065.035.105.07.12l2.319.954c.448.184 1.273.525 1.648.681.159.066.303.121.32.123a.359.359 0 0 0 .123-.062zm-.116-6.176v-2.743H9.562v-.5c0-.57-.017-.532.23-.532.42 0 .978-.112 1.255-.251.352-.178.593-.529.673-.98l.04-.228h1.274v7.976h-1.61zm-5.83 3.944c.005-.018-.004-.06-.021-.095a21.293 21.293 0 0 1-.234-.553 334.808 334.808 0 0 0-.784-1.887c-.113-.27-.324-.785-.47-1.145-.24-.592-.288-.69-.338-.692-.008 0-.354.518-.767 1.151l-1.088 1.664-.337.513.044.132.045.132.204.041c1.037.213 3.303.685 3.5.73.194.046.232.047.245.009zm13.328-.064 1.258-.266 1.526-.321.632-.133.053-.124c.029-.069.045-.137.036-.153l-.684-1.06-1.05-1.627c-.21-.328-.4-.622-.422-.653l-.04-.056-.035.087a472.717 472.717 0 0 1-1.437 3.458c-.31.737-.369.892-.352.92.02.033.034.03.515-.072zM2.163 13.918c.519-.793.942-1.463.94-1.491a.636.636 0 0 0-.041-.151 1.031 1.031 0 0 1-.001-.554c.02-.055.044-.118.05-.14.009-.024-.264-.462-.688-1.107l-.937-1.432a7.951 7.951 0 0 0-.27-.402c-.027-.03-.033.54-.033 3.34 0 1.858.008 3.377.02 3.377.01 0 .442-.648.96-1.44zm20.658-1.944c0-1.861-.01-3.384-.02-3.383-.01 0-.453.642-.987 1.426l-.971 1.424.039.103c.058.157.051.526-.013.667l-.05.112.703 1.084.983 1.517c.153.238.288.434.299.434.01 0 .018-1.523.017-3.384zM4.22 10.15c.453-1.091.58-1.395.905-2.164.464-1.1.49-1.166.462-1.193-.03-.03-.092-.018-1.421.263l-2.455.516c-.051.01-.074.04-.11.147l-.046.135.31.462c.253.38 1.303 1.98 1.753 2.672.07.107.126.168.15.163.025-.005.188-.367.452-1.001zm16.766-.206a348.724 348.724 0 0 1 1.347-1.96l.114-.165-.051-.116c-.048-.108-.06-.118-.183-.144-.135-.03-1.065-.226-2.434-.516-1.301-.274-1.33-.28-1.361-.248-.03.03.028.182.448 1.166.214.5.363.856.9 2.151.402.966.38.918.435.918.028 0 .294-.367.785-1.086zM3.31 6.51l1.432-.3c.359-.074.66-.144.67-.155a.537.537 0 0 0 .05-.12c.046-.142.308-.401.45-.443.064-.02.118-.054.131-.085.013-.028.09-.374.173-.769l.351-1.67c.112-.526.2-.957.197-.96-.01-.01-4.801 4.755-4.8 4.772 0 .01.127-.012.283-.046L3.31 6.51zm16.339-2.119A256.694 256.694 0 0 0 17.24 2.01c-.008.008.128.671.398 1.937.083.388.188.88.232 1.093l.082.388.16.082a.813.813 0 0 1 .412.407c.05.103.096.162.13.17l.783.163c1.298.27 2.388.5 2.49.522.056.013.105.02.11.017a265.87 265.87 0 0 0-2.39-2.397zM7.046 5.538c.076-.035.24-.105.365-.157l.578-.238A1498.5 1498.5 0 0 1 11.021 3.9c.076-.031.141-.073.145-.093.004-.024-.279-.222-.792-.556l-1.679-1.09-.879-.57-.102.043a.613.613 0 0 0-.13.071c-.015.015-.091.327-.17.694l-.608 2.878c-.087.412-.089.41.24.26zm10.199.044c-.01-.068-.282-1.367-.411-1.962-.08-.373-.188-.889-.24-1.145-.11-.554-.154-.754-.175-.775a.74.74 0 0 0-.128-.058l-.113-.043-.509.33A1781.109 1781.109 0 0 0 13.04 3.63c-.114.073-.207.15-.207.17 0 .042.095.086.745.344.261.104.724.293 1.029.42l1.094.452c.298.122.745.307.994.411.422.176.56.215.55.154zm-5.242-2.515c.163 0 .24.013.328.053l.114.053.402-.262 1.479-.958 1.078-.698-1.7-.006c-.936-.004-2.467-.004-3.403 0l-1.702.006.952.617 1.48.959.526.343.116-.054c.089-.04.165-.053.33-.053z"/></svg>