<svg viewBox="0 0 24 24" xmlns="http://www.w3.org/2000/svg" role="img"><path d="M2.62 23.878C1.216 23.454.312 22.465.072 21.09.01 20.73 0 19.409 0 11.982 0 6.3.018 3.186.051 2.98.28 1.574 1.231.523 2.64.12c.316-.09.66-.093 9.391-.093h9.063l.392.131c.458.153.594.218.966.462.766.502 1.34 1.408 1.495 2.358.07.439.07 17.61 0 18.048a3.486 3.486 0 0 1-.51 1.33c-.384.62-.879 1.047-1.571 1.355-.634.281-.073.266-9.882.262-8.601-.004-9.08-.008-9.365-.094zm14.333-3.274c.37-.076.477-.113.949-.325 1.148-.516 2.267-1.833 3.018-3.551.13-.296.235-.571.235-.612 0-.064-.79-.073-6.461-.073-3.554 0-6.462-.012-6.462-.026 0-.049.238-.506.57-1.093.185-.327.432-.777.549-.998.117-.222.354-.661.528-.977.6-1.091.752-1.373.837-1.547.047-.096.098-.185.112-.2.014-.013.102-.17.196-.348.453-.87.857-1.607.964-1.76.052-.077.085-.167.072-.2-.018-.047-.714-.058-3.06-.048l-3.038.014-.331.635-.63 1.209a195.094 195.094 0 0 1-1.221 2.32c-.335.623-.651 1.512-.74 2.083-.083.532-.035 1.503.099 1.995.33 1.217 1.177 2.251 2.35 2.871.616.327 1.178.509 2.02.655.137.024 2.232.046 4.655.05 3.837.004 4.454-.006 4.79-.074zm1.263-5.747c.1-.185.355-.673.569-1.085l.636-1.222c.863-1.65 1.14-2.204 1.235-2.47.06-.164.12-.333.136-.374.038-.1.04-.11.133-.592.102-.53.103-1.445.003-1.93-.398-1.929-2.017-3.35-4.27-3.748-.476-.084-.872-.092-4.884-.092-3.968 0-4.4.008-4.74.087-1.191.276-2.283 1.094-3.115 2.334-.207.309-.788 1.366-.808 1.471-.005.028-.068.19-.139.36-.07.172-.129.335-.129.362 0 .034 2.133.055 6.478.064l6.478.013-.232.424-.415.76c-.102.186-.266.489-.365.674-.1.185-.198.36-.218.387-.02.027-.156.274-.301.549-.145.274-.376.7-.513.948a82.39 82.39 0 0 0-.423.773c-.095.178-.23.425-.298.549-.123.223-.29.529-.625 1.147-.097.179-.245.448-.33.6-.084.15-.154.29-.154.311 0 .02 1.374.037 3.055.037l3.056-.001.18-.336z"/></svg>