<svg viewBox="0 0 24 24" xmlns="http://www.w3.org/2000/svg" role="img"><path d="M3.71 16.829c-1.447-.3-2.547-.737-3.109-1.232C.237 15.277 0 14.9 0 14.645c0-.236.07-.184.17.126.103.324.6.79 1.1 1.03.64.308 1.199.434 2.089.47 1.775.071 3.619-.534 4.319-1.42.121-.153.22-.3.22-.326 0-.025-.193-.283-.43-.572-.235-.29-.468-.603-.517-.697-.112-.217-.077-.48.125-.919l.156-.34.049.227.076.347c.016.065.21.347.434.625s.442.587.484.688c.19.446.003 1.098-.488 1.708-.626.777-1.951 1.382-3.009 1.373a6.88 6.88 0 0 1-1.068-.136zm15.763.025c-1.198-.223-2.273-.604-2.91-1.03-.471-.315-.717-.582-.864-.939-.111-.268-.181-.3-.64-.303-.382-.002-.912-.121-1.106-.248a.473.473 0 0 1-.179-.236c-.02-.077-.048-.141-.063-.141-.069 0-.596.29-.868.477-.372.256-.672.278-.884.065-.077-.076-.14-.165-.14-.197 0-.031-.083-.009-.184.052-.34.2-.825.293-1.322.255a4.21 4.21 0 0 1-.653-.094c-.26-.078-.552-.36-.637-.612-.047-.142-.073-1.115-.087-3.304l-.021-3.102.318-.24c.175-.132.344-.232.376-.221.037.012.06 1.111.068 3.143.011 3.037.015 3.13.128 3.323.16.273.431.357 1.048.327.694-.034.975-.179 1.196-.615.091-.182.281-.471.421-.643.254-.312.255-.314.171-.513-.115-.277-.105-.412.053-.682.194-.33.93-.828 1.224-.828.175 0 .09.13-.209.316-.588.37-.692.533-.47.734.11.1.127.093.642-.247.484-.32.723-.42.723-.305 0 .025-.027.258-.06.518-.033.261-.048.486-.035.5.014.013.334.048.712.076.938.071 1.202.198 1.2.577 0 .213-.317.705-.542.844-.166.103-.327.136-.812.166-.563.035-.594.043-.435.112.2.087.67.094 2.443.035l1.307-.044-.239-.254c-.295-.314-.47-.668-.47-.946 0-.338.354-.946.55-.946.06 0 .07.063.042.275-.05.37.048.548.632 1.148.26.268.488.552.508.632.043.17-.09.526-.268.714-.11.117-.172.129-.693.13-.315 0-1.05.016-1.635.036l-1.062.037.107.21c.152.298.684.764 1.097.96 1.806.86 4.952.445 6.217-.82.196-.196.357-.401.357-.455 0-.054-.147-.275-.327-.492-.491-.591-.696-.907-.696-1.076 0-.174.297-.904.375-.92.028-.005.068.125.088.29.02.164.06.33.09.369.028.039.207.262.396.496.19.235.39.516.447.625.392.76-.39 2.027-1.627 2.635-.986.486-1.696.581-2.798.376zm-6.966-3.02c.247-.086 1.036-.581.847-.532-.211.054-.955.43-1.03.52-.078.095-.062.096.183.011zm.598-1.042.321-.131-.18-.093c-.235-.122-.27-.099-.69.447-.081.107-.08.107.072.008.086-.056.3-.16.477-.232zm1.831.205c.58-.047.882-.11.6-.126l-.684-.042-.575-.037-.092.16c-.086.15-.086.158.009.128.055-.018.39-.055.742-.084zm-1.095-1.243c-.02-.019-.066-.003-.104.036-.055.054-.052.08.015.122.06.038.09.028.104-.035.01-.049.004-.104-.015-.123zm8.626-.335a3.551 3.551 0 0 0-.462-.258c-.133-.059-.242-.128-.242-.152 0-.1.445-.518.551-.518.063 0 .275.104.473.232.3.194.39.226.548.196.26-.049.242.03-.084.367-.32.332-.458.356-.784.133zm-4.656-.353a2.112 2.112 0 0 0-.437-.238c-.117-.042-.213-.092-.213-.111 0-.02.091-.142.203-.273.26-.304.39-.305.89-.002.293.177.406.22.455.17.087-.087.213-.082.213.008 0 .04-.11.193-.246.34-.305.332-.519.358-.865.106z"/></svg>