<svg viewBox="0 0 24 24" xmlns="http://www.w3.org/2000/svg" role="img"><path d="M1.502 14.535A1.748 1.748 0 0 1 .041 13.25C0 13.104 0 13.102 0 12.533v-.57l.041-.07a.404.404 0 0 1 .552-.153c.08.043.123.09.174.186.026.047.029.103.036.585.008.524.01.534.047.632a.862.862 0 0 0 .229.35.858.858 0 0 0 .691.26.788.788 0 0 0 .462-.146.92.92 0 0 0 .373-.484l.036-.11v-.885c0-.487-.003-1.22-.007-1.628-.007-.724-.006-.744.024-.81a.441.441 0 0 1 .373-.24.42.42 0 0 1 .349.207c.04.068.04.077.05.385.022.686.033 2.878.015 3.005a1.724 1.724 0 0 1-1.374 1.467c-.134.029-.435.04-.568.021zm8.026 0c-.82-.111-1.463-.74-1.568-1.532a6.283 6.283 0 0 1-.012-.582l.004-.458.042-.07a.404.404 0 0 1 .552-.153c.079.043.123.09.174.186.025.047.028.103.036.555.008.464.011.509.04.589.06.162.13.271.244.386.2.2.393.285.67.297.317.013.55-.075.764-.288a.922.922 0 0 0 .25-.384c.034-.096.034-.108.042-.893.008-.888.005-.856.117-.973a.4.4 0 0 1 .558-.029c.097.083.135.178.135.338v.131h.905c1.008 0 .985-.002 1.106.102.166.142.18.405.028.556-.12.121-.057.114-1.101.123l-.93.007-.01.308c-.012.392-.046.536-.188.817a1.6 1.6 0 0 1-.31.424 1.79 1.79 0 0 1-.925.515 2.4 2.4 0 0 1-.623.028zm5.634.003a.448.448 0 0 1-.26-.217l-.032-.062v-1.156c0-1.099.001-1.157.028-1.207a.392.392 0 0 1 .173-.186.404.404 0 0 1 .553.153l.04.07.005 1.14c.004 1.25.006 1.218-.085 1.33-.09.109-.298.176-.422.135zm1.769-.006c-.14-.053-.233-.146-.267-.269-.013-.047-.016-.358-.013-1.197l.004-1.133.041-.07a.404.404 0 0 1 .553-.153c.078.043.122.09.173.186.027.05.028.108.028 1.207v1.156l-.033.062a.457.457 0 0 1-.19.188.457.457 0 0 1-.296.023zm3.423.004a.585.585 0 0 1-.41-.832c.029-.059.372-.412 1.578-1.623 1.465-1.472 1.545-1.55 1.645-1.598.096-.046.116-.05.248-.05.131 0 .151.004.243.049a.58.58 0 0 1 .271.794c-.031.058-.406.443-1.533 1.575a141.65 141.65 0 0 1-1.568 1.562.588.588 0 0 1-.474.123zm2.32-.015a.092.092 0 0 1-.04-.08c0-.043.061-.11.588-.645.324-.329.605-.604.626-.612.054-.02.116.01.136.066.01.03.016.257.016.634 0 .558-.001.591-.029.624l-.028.036-.614.004c-.605.004-.615.004-.654-.027zm-17.272-.05a.364.364 0 0 1-.016-.658.387.387 0 0 1 .433.062c.08.072.115.152.115.264a.328.328 0 0 1-.124.272.368.368 0 0 1-.408.06zm6.914-.777a.331.331 0 0 1-.223-.22.305.305 0 0 1 .231-.376c.126-.027 1.147-.023 1.241.005a.298.298 0 0 1 .223.293c0 .09-.025.15-.091.216-.09.091-.093.091-.733.094a8.042 8.042 0 0 1-.648-.012zm-7.424-.139a.306.306 0 0 1-.022-.55l.067-.037.598-.004c.665-.005.698-.001.785.091.066.07.094.134.094.217a.31.31 0 0 1-.132.251l-.065.046-.64.003c-.51.003-.65 0-.685-.017zm-.48-1.147a.404.404 0 0 1-.2-.188l-.04-.077-.01-.615a99.18 99.18 0 0 1-.012-1.2c-.001-.562 0-.586.03-.648a.444.444 0 0 1 .366-.23c.15 0 .308.104.367.241.033.077.034.095.047.988l.013.943.001.034h.754c.447 0 .776.006.807.014.15.042.271.18.292.332a.395.395 0 0 1-.22.395l-.078.039H5.5c-.963 0-1.032-.003-1.089-.028zm5.229-.01a.374.374 0 0 1-.239-.465c.023-.085.15-.205.243-.232a.435.435 0 0 1 .323.04c.15.092.212.301.137.46a.393.393 0 0 1-.23.198.346.346 0 0 1-.234-.001zm10.274-.634c-.02-.022-.024-.11-.029-.654l-.005-.627.036-.03c.033-.026.066-.028.647-.028.56 0 .614.002.643.026a.147.147 0 0 1 .04.068c.01.037-.021.073-.38.442-.215.221-.488.498-.607.616-.196.193-.221.214-.269.214-.031 0-.062-.011-.076-.027zm-2.983-.596a.367.367 0 0 1-.208-.53c.1-.175.327-.24.509-.145a.484.484 0 0 1 .177.214.36.36 0 0 1-.175.428.408.408 0 0 1-.303.033z"/></svg>