<svg role="img" viewBox="0 0 24 24" xmlns="http://www.w3.org/2000/svg"><path d="M12 0A12 12 0 0 0 0 12a12.44 12.44 0 0 0 .25 2.46A13 13 0 0 1 3.56 14a12.45 12.45 0 0 1 5.15 1.1l.76-.5a12.64 12.64 0 0 1 11.36-.88.19.19 0 0 1 .11.17.16.16 0 0 1-.06.13.19.19 0 0 1-.13 0h-.25a8.7 8.7 0 0 0-.89 0 12.9 12.9 0 0 0-9.11 3.34 10.7 10.7 0 0 0-1.17 1.34l-.11.15a.16.16 0 0 1-.12 0 .17.17 0 0 1-.12 0A12 12 0 0 0 .68 16 12 12 0 1 0 12 0zm9.39 7.18h-.56a7.08 7.08 0 0 0-6.21 2.17c-.06.06-.12.07-.18 0a7 7 0 0 0-4.79-2.19 7.44 7.44 0 0 0-2 .09.13.13 0 0 1-.13-.13.14.14 0 0 1 0-.1 7.27 7.27 0 0 1 6.94.12 7.33 7.33 0 0 1 6.8-.26l.14.08a.11.11 0 0 1 .07.11.16.16 0 0 1 0 .09.11.11 0 0 1-.08.02z"/></svg>