<svg role="img" viewBox="0 0 24 24" xmlns="http://www.w3.org/2000/svg"><path d="M21.605.021a2.397 2.397 0 0 0-.47 4.747 2.397 2.397 0 1 0 .47-4.746zm-9.584 2.395C6.73 2.416 2.437 6.707 2.437 12c0 2.142.703 4.121 1.891 5.717l2.586-2.586a5.99 5.99 0 0 1 8.236-8.238l2.586-2.586a9.537 9.537 0 0 0-5.715-1.891zm7.692 3.867L17.127 8.87a5.989 5.989 0 0 1-8.236 8.238l-2.586 2.584a9.543 9.543 0 0 0 5.716 1.893 9.583 9.583 0 0 0 9.583-9.584c0-2.142-.704-4.12-1.891-5.717zM2.396 19.187a2.398 2.398 0 0 0-.47 4.749 2.402 2.402 0 0 0 2.822-2.823 2.399 2.399 0 0 0-2.352-1.925z"/></svg>