<svg role="img" viewBox="0 0 24 24" xmlns="http://www.w3.org/2000/svg"><path d="M20.254 11.421a.81.81 0 0 0-.815.866.839.839 0 0 0 .827.867.816.816 0 0 0 .815-.867.838.838 0 0 0-.827-.866zm-6.51 0a.81.81 0 0 0-.815.866.839.839 0 0 0 .827.867.816.816 0 0 0 .815-.867.838.838 0 0 0-.827-.866zm-7.011-.052a.786.786 0 0 0-.651.307.987.987 0 0 0-.171.736l1.477-.612a.709.709 0 0 0-.655-.431zM0 8v8h24V8zm5.006 5.827H2.227v-4h.857v3.224h1.922zm1.817-.621a1.289 1.289 0 0 0 .884-.326l.534.411a2.025 2.025 0 0 1-1.431.588 1.594 1.594 0 1 1-.093-3.179 1.543 1.543 0 0 1 1.216.5 1.671 1.671 0 0 1 .37.86l-2.162.9a.937.937 0 0 0 .682.246zm4.883.621h-.845v-1.752a.679.679 0 0 0-.712-.651.66.66 0 0 0-.7.651v1.752h-.843v-3.079h.846v.441a1.278 1.278 0 0 1 1-.493 1.185 1.185 0 0 1 1.25 1.222zm1.984.052a1.593 1.593 0 1 1 1.66-1.592 1.6 1.6 0 0 1-1.66 1.592zm2.8-.053l-1.267-3.078h.966l.764 2.1.764-2.1h.966l-1.267 3.078zm3.711.053a1.593 1.593 0 1 1 1.66-1.592 1.6 1.6 0 0 1-1.661 1.592zm2-.418h-.141v.366h-.085v-.366h-.137v-.077h.362zm.541.366h-.082v-.315l-.137.213h-.013l-.136-.213v.315h-.082v-.443h.09l.134.21.134-.21h.088z"/></svg>