<svg role="img" viewBox="0 0 24 24" xmlns="http://www.w3.org/2000/svg"><path d="M2.578 14.583A2.58 2.58 0 0 1 0 12a2.58 2.58 0 0 1 2.578-2.584A2.58 2.58 0 0 1 5.156 12a2.58 2.58 0 0 1-2.578 2.583zm9.486-9.377a2.58 2.58 0 0 1-2.579-2.584A2.58 2.58 0 0 1 12.064.038a2.58 2.58 0 0 1 2.578 2.584 2.58 2.58 0 0 1-2.578 2.584zm9.358 9.377A2.58 2.58 0 0 1 18.844 12a2.58 2.58 0 0 1 2.578-2.584A2.58 2.58 0 0 1 24 12a2.58 2.58 0 0 1-2.578 2.583zm-6.78 6.795a2.58 2.58 0 0 1-2.578 2.584 2.58 2.58 0 0 1-2.579-2.584 2.58 2.58 0 0 1 2.579-2.584 2.58 2.58 0 0 1 2.578 2.584m-2.578-6.795A2.58 2.58 0 0 1 9.485 12a2.58 2.58 0 0 1 2.579-2.584A2.58 2.58 0 0 1 14.642 12a2.58 2.58 0 0 1-2.578 2.583z"/></svg>