<svg role="img" viewBox="0 0 24 24" xmlns="http://www.w3.org/2000/svg"><path d="M12 4.67c1.876 0 3.752.716 5.183 2.147l.017.016.005.006.001.001.002.002a7.294 7.294 0 0 1 1.873 3.26l1.79-1.79a1.832 1.832 0 0 1 2.592 2.59l-6.28 6.281A7.307 7.307 0 0 1 12 19.33a7.307 7.307 0 0 1-5.183-2.147 7.294 7.294 0 0 1-1.898-3.285l-1.791 1.79a1.832 1.832 0 1 1-2.591-2.59L6.784 6.85a4.869 4.869 0 0 1 .033-.033A7.307 7.307 0 0 1 12 4.67zm2.592 9.922a3.666 3.666 0 0 0-5.184-5.184 3.665 3.665 0 1 0 5.183 5.184z"/></svg>