<svg role="img" viewBox="0 0 24 24" xmlns="http://www.w3.org/2000/svg"><path d="M.004 9.189 0 12.922h2.333l.004-3.733zm2.708.004-.004 3.733h2.333l.004-3.733zm2.708 0-.004 3.733h2.332l.004-3.733zm2.712 0-.004 3.733h2.333l.004-3.733zm2.708.004-.004 3.733h2.332l.004-3.733zm2.708 0-.004 3.733h2.332l.004-3.733zm2.708.004-.004 3.733h2.332l.004-3.733zm2.708 0-.004 3.733h2.332l.004-3.733zm2.703.005v3.732H24V9.206zm-17.525.683h.329v1.788h-.33v-.071a.632.632 0 0 1-.949-.548c0-.35.283-.633.634-.63.113 0 .223.03.316.085zm-3.564.223H1.75v.325H.936v.439h.814v.325H.936v.472h.814v.325H.578zm21.667.013h1.173v.325h-.814v.439h.814v.324h-.814v.473h.814v.325h-1.173zm-15.67.308c.115 0 .224.034.317.084v-.05l.329.004v1.181c0 .388-.3.633-.65.633a.62.62 0 0 1-.603-.435h.346c.06.08.152.127.257.127a.31.31 0 0 0 .321-.32v-.043a.632.632 0 1 1-.316-1.181zm2.717.004a.631.631 0 0 1 .625.734h-.924a.321.321 0 0 0 .506.144l.287.143a.631.631 0 0 1-1.126-.392.63.63 0 0 1 .632-.629zm5.412.005a.63.63 0 0 1 .527.286l-.283.14a.312.312 0 0 0-.244-.119.32.32 0 1 0 0 .642.319.319 0 0 0 .244-.119l.279.148a.62.62 0 0 1-.528.287.632.632 0 0 1 .004-1.265zm2.716 0a.632.632 0 1 1-.007 1.267.632.632 0 0 1 .007-1.267zm2.358 0h.329v.143a.63.63 0 0 1 .32-.089h.148v.312h-.148a.324.324 0 0 0-.32.308v.574h-.33zm-15.952.295a.32.32 0 0 0-.321.32.32.32 0 0 0 .32.325c.165 0 .3-.122.317-.282v-.08a.32.32 0 0 0-.316-.283zm2.75.004a.32.32 0 1 0 .316.375v-.11a.318.318 0 0 0-.316-.265zm2.716.008a.32.32 0 0 0-.304.215h.608a.324.324 0 0 0-.304-.215zm8.128 0a.32.32 0 1 0 0 .642.318.318 0 0 0 .32-.321.32.32 0 0 0-.32-.32zm-5.867.131h.898v.33h-.898zm8.516 2.78a.663.663 0 0 0-.253.042.535.535 0 0 0-.262.253.644.644 0 0 0-.055.287c0 .177.051.316.156.417a.56.56 0 0 0 .414.152c.173 0 .308-.05.413-.152a.57.57 0 0 0 .156-.421.57.57 0 0 0-.156-.426.56.56 0 0 0-.413-.152zm3.437 0a.636.636 0 0 0-.232.038.311.311 0 0 0-.147.114.278.278 0 0 0-.05.16c0 .088.033.16.109.223.05.043.139.08.266.11.097.025.16.038.19.05.042.013.067.03.084.047a.096.096 0 0 1 .025.068c0 .042-.021.076-.06.105a.282.282 0 0 1-.172.046.272.272 0 0 1-.173-.05.256.256 0 0 1-.084-.16l-.22.02c.017.127.064.22.144.283.08.068.194.097.341.097a.635.635 0 0 0 .254-.042.305.305 0 0 0 .156-.122.303.303 0 0 0 .054-.177.324.324 0 0 0-.046-.178.346.346 0 0 0-.13-.113 1.287 1.287 0 0 0-.254-.08.581.581 0 0 1-.215-.077.088.088 0 0 1-.034-.067c0-.03.013-.05.038-.067a.29.29 0 0 1 .16-.043c.068 0 .119.013.148.038a.181.181 0 0 1 .063.123l.237-.009a.311.311 0 0 0-.118-.244.531.531 0 0 0-.334-.093zm-8.849.012v1.114h.232v-.726l.494.726h.249v-1.114H15.4v.743l-.502-.743zm1.194.005v1.113h.89v-.185h-.654V14.3h.586v-.19h-.586v-.245h.633v-.19zm1.037 0v.19h.346v.923h.24v-.924h.347v-.19zm1.046 0 .27 1.113h.245l.228-.83.228.83h.244l.279-1.113h-.232l-.173.776-.198-.776h-.275l-.206.763-.173-.763zm2.864.004v1.113l.228-.004v-.464h.047a.4.4 0 0 1 .118.013.19.19 0 0 1 .071.046 1.7 1.7 0 0 1 .127.165l.173.24h.283l-.144-.215a1.243 1.243 0 0 0-.135-.181.612.612 0 0 0-.126-.093.395.395 0 0 0 .232-.101.321.321 0 0 0 .03-.384.276.276 0 0 0-.136-.106.846.846 0 0 0-.27-.03zm1.181 0v1.113h.232v-.337l.194-.186.321.523h.304l-.464-.679.443-.434h-.317l-.476.493v-.493zm-1.91.169c.097 0 .177.033.236.092.06.064.089.156.089.287 0 .13-.03.228-.089.291a.308.308 0 0 1-.232.097.309.309 0 0 1-.232-.097c-.067-.063-.097-.16-.097-.287 0-.126.03-.223.089-.286a.311.311 0 0 1 .236-.097zm.961.016h.186c.097 0 .152 0 .173.005a.146.146 0 0 1 .089.042.131.131 0 0 1 .033.093.14.14 0 0 1-.025.084.13.13 0 0 1-.067.046.996.996 0 0 1-.211.013h-.178z"/></svg>