<svg viewBox="0 0 24 24" xmlns="http://www.w3.org/2000/svg" role="img"><path d="M3.15 20.496c-.93-.07-1.88-.195-2.108-.28-.07-.025-.046-.041.142-.1.585-.181 1.616-.658 2.319-1.071 1.747-1.028 3.184-2.309 4.354-3.882.283-.38.333-.466.275-.477-.04-.007-.29-.158-.555-.334-1.937-1.287-4.226-3.892-5.996-6.826C1.146 6.806.373 5.29.4 5.216c.014-.033.005-.043-.023-.025-.03.018-.037.006-.02-.037.014-.037.005-.064-.02-.064-.024 0-.033-.01-.02-.024.013-.013-.02-.121-.075-.241-.246-.548-.295-.818-.192-1.06.074-.176.192-.268.342-.268.148 0 .957.298 1.384.51.16.079.333.154.386.168.155.038 1.62.828 2.379 1.281a34.268 34.268 0 0 1 3.46 2.393c.702.563 2.065 1.766 3.066 2.705l.532.5.202-.1c.518-.253.995-.77 1.74-1.881.719-1.073 1.094-1.411 1.827-1.65.246-.08.412-.104.812-.119.599-.022.983.035 1.757.262.565.166 1.006.226 1.375.187.128-.014.562-.088.965-.166 1.229-.236 1.865-.306 2.816-.31.71-.002.849.006.88.056.061.097.02.134-.178.163-2.144.314-3.394.584-4.264.92-.63.242-1.199.71-1.675 1.375-.121.169-.776 1.25-1.456 2.402-.68 1.153-1.372 2.293-1.537 2.533-1.25 1.821-2.877 3.32-4.58 4.221-1.454.77-3.333 1.32-5.1 1.494-.438.043-1.727.078-2.034.055zM17.014 8.96c.23-.23.085-.58-.242-.582-.192-.002-.344.129-.349.3-.01.35.35.523.591.282z"/></svg>