<svg viewBox="0 0 24 24" xmlns="http://www.w3.org/2000/svg" role="img"><path d="M6.535 9.085a1.472 1.472 0 0 0 1.938 1.81c-1.195-.055-1.78-.718-1.938-1.81zm-.617.192H5.91c-.444 1.471 1.006 2.792 2.386 2.242-.737.013-1.26-.28-1.649-.64-.389-.362-.683-.89-.72-1.586-.001-.008-.003-.015-.009-.016zm8.57 1.689-.265 1.072h2.717l1.286-.001.266-1.071zm4.364 0-.27 1.072 1.29-.001.267-1.071zm1.82 0-.962 3.867h1.287l.201-.801.293-.217.455 1.018h1.397l-.858-1.68L24 12.023h-1.54l-.95.823h-.013l.462-1.88zm-19.664 0L0 14.834h.43l.876-3.554h.013l.748 3.554h.442l2.567-3.5h.013l-.955 3.5h.436l.994-3.868h-.643l-2.548 3.472-.722-3.472zm11.962.992c-1.196 0-1.872.878-1.872 1.793 0 .7.474 1.164 1.339 1.164 1.241 0 1.859-.92 1.859-1.863 0-.688-.546-1.094-1.326-1.094zM11.235 12c-.6-.005-.956.282-1.216.683h-.013l.169-.645h-.372l-.721 2.795h.41l.378-1.462c.136-.526.526-1.019 1.26-1.03.078 0 .157.006.234.006l.091-.341c-.071-.006-.15-.006-.22-.006zm-4.256.037-.712 2.796h.409l.26-1.013.715-.498.89 1.511h.449l-1.014-1.717 1.586-1.078h-.546l-1.963 1.365-.013-.01.35-1.356zm-.997 0-.722 2.796h.41l.72-2.795zm6.916.207c.656 0 .988.358.988.877 0 .65-.475 1.506-1.371 1.506-.683 0-1.008-.368-1.008-.91 0-.655.494-1.473 1.39-1.473zm2.482.305-.567 2.283h1.43l.569-2.282zm3.075 0-.565 2.283h1.287l.565-2.282z"/></svg>