<svg viewBox="0 0 24 24" xmlns="http://www.w3.org/2000/svg" role="img"><path d="M10.968 23.973a42.362 42.362 0 0 1-2.739-.205c-1.017-.115-1.006-.113-1.192-.234-.183-.12-.66-.486-1.022-.786a42.771 42.771 0 0 1-4.077-3.88c-.713-.774-1.47-1.662-1.52-1.782-.037-.088-.07-.303-.13-.866-.286-2.693-.364-5.636-.208-7.9.054-.8.083-1.04.14-1.15.066-.128.364-.517.708-.922 1.578-1.86 3.603-3.9 5.375-5.414.718-.613.673-.582.907-.626.592-.11 2.563-.197 4.453-.197 1.81 0 3.406.077 4.856.234.49.054.462.04 1 .471 1.555 1.243 3.758 3.464 5.627 5.671.388.457.4.474.452.67.139.52.285 2.053.372 3.909.04.83.04 2.93.001 3.603-.063 1.09-.167 2.046-.24 2.19-.076.15-.461.674-.802 1.09-.867 1.06-2.159 2.398-3.68 3.811-.904.842-2.165 1.95-2.244 1.974-.248.074-1.402.212-2.328.278a42.64 42.64 0 0 1-3.709.061zm3.027-2.12c.931-.057 2.02-.185 2.145-.252.082-.043 1.008-.862 1.8-1.59.194-.179.689-.657 1.098-1.062 1.04-1.029 1.736-1.798 2.263-2.5.345-.46.347-.465.41-1.028.029-.267.068-.685.086-.93.043-.582.043-2.836 0-3.578-.087-1.487-.196-2.539-.3-2.896-.065-.223-1.39-1.72-2.64-2.984-.977-.988-1.615-1.58-2.302-2.132-.366-.295-.48-.365-.624-.383-.24-.03-1.28-.12-1.726-.149-2.041-.13-5.916-.038-6.264.15-.1.053-.71.573-1.337 1.136-1.442 1.3-3.833 3.855-4.178 4.467-.08.142-.094.246-.164 1.245-.043.612-.042 3.018 0 3.76.084 1.46.232 3.015.3 3.146a4.8 4.8 0 0 0 .279.352 36.425 36.425 0 0 0 4.177 4.164c.443.37 1.014.805 1.083.826a29.466 29.466 0 0 0 5.894.238zM8.902 20.85c-.048-.047-.057-.086-.057-.246 0-.105-.012-.762-.026-1.461-.043-2.069-.129-6.54-.146-7.627a41.305 41.305 0 0 0-.025-1.061 1.848 1.848 0 0 1-.011-.197c-.002-.096-.01-.131-.026-.105-.032.055-1.562 4.05-1.656 4.323-.116.34-.208.404-.416.287-.082-.046-.169-.166-.482-.662-.852-1.354-.948-1.497-1-1.497-.106 0-.106.09-.002 1.475.155 2.071.225 3.096.226 3.282 0 .182-.046.288-.125.288-.064 0-1.586-1.528-1.722-1.73l-.115-.17-.029-.472c-.07-1.165-.083-1.601-.097-3.276-.014-1.786.015-3.207.07-3.394.018-.062.229-.319.646-.786.34-.382.635-.704.655-.716.052-.03.136.002.177.069.02.031.332.555.695 1.164.364.61.683 1.12.71 1.133.035.02.062.014.102-.02.034-.027.525-1.167 1.29-2.993.785-1.873 1.26-2.975 1.302-3.02a.415.415 0 0 1 .147-.097c.087-.028 1.103-.078 1.78-.088.37-.006.418 0 .449.04.027.037.038.487.054 2.163.01 1.164.022 2.133.026 2.155.004.022.015.983.024 2.136.01 1.153.022 2.15.028 2.215.006.064.018 1.05.026 2.188.008 1.139.02 2.135.027 2.215.006.079.019 1.094.028 2.255l.017 2.111-.062.072-.062.073-1.182.015-1.181.016zm4.124.01a.313.313 0 0 1-.22-.245c-.014-.053-.032-1.057-.04-2.232a777.942 777.942 0 0 0-.03-3.158 1451.3 1451.3 0 0 1-.038-3.866c-.014-1.564-.031-3.362-.039-3.997-.05-4.345-.051-4.004.01-4.06.052-.047.103-.048 1.437-.03 1.286.017 1.39.022 1.488.069.193.092 1.893 1.668 3.08 2.855 1.054 1.055 1.956 2.047 2.05 2.254.049.106.057.201.081.915l.027.796-.06.049c-.056.045-.12.049-.839.049-.627 0-.788-.007-.828-.037-.045-.033-.052-.079-.06-.426l-.009-.39-1.787-1.79A116.083 116.083 0 0 0 15.415 5.8c-.033-.02-.059-.017-.087.006-.034.028-.037.19-.024 1.305.008.7.02 2.335.028 3.632.038 6.944.044 7.416.081 7.455.032.034.14-.065.812-.733a67.31 67.31 0 0 0 2.326-2.433l.462-.508-.006-.376c-.005-.32-.013-.383-.053-.423-.042-.042-.114-.047-.693-.054-.41-.005-.66-.019-.68-.036-.027-.022-.035-.24-.035-1.007 0-.941.002-.98.051-1.006.081-.043 3.15-.037 3.21.007.055.04.057.266.013 2.443-.025 1.269-.032 1.426-.075 1.523-.052.117-2.233 2.414-3.78 3.982-1.082 1.095-1.204 1.182-1.686 1.207l-1.022.05c-.447.021-.883.045-.97.052a.652.652 0 0 1-.262-.026z"/></svg>