<svg viewBox="0 0 24 24" xmlns="http://www.w3.org/2000/svg" role="img"><path d="M1.313 18.832C.38 18.575-.212 17.354.07 16.268c.155-.595.565-1.135 1.041-1.369.234-.115.262-.117 2.54-.133 1.576-.012 2.386.001 2.567.04.69.151 1.239.85 1.347 1.716.115.917-.337 1.855-1.066 2.213l-.29.142-2.328.01c-1.776.009-2.386-.004-2.57-.055zm4.808-1.01c.331-.16.492-.433.517-.874.034-.6-.225-1.034-.694-1.165-.27-.074-4.067-.072-4.338.003-.274.076-.564.375-.642.661-.118.438.008 1.006.277 1.246.255.228.31.233 2.536.235 2.058.002 2.127-.001 2.344-.107zm2.596 1.009c-.249-.109-.28-.248-.279-1.249.001-.977.066-1.43.257-1.805.157-.308.576-.735.86-.876l.238-.119h2.304c2.297 0 2.303 0 2.54.118.277.136.653.518.807.82.216.422.26.74.26 1.834 0 1.007-.002 1.04-.117 1.173-.17.197-.51.204-.674.013-.11-.129-.117-.185-.139-1.156-.021-.98-.028-1.031-.158-1.297a1.087 1.087 0 0 0-.326-.404l-.19-.128h-4.059l-.207.137c-.377.25-.424.427-.424 1.596 0 1.128-.03 1.259-.314 1.358-.196.068-.187.068-.379-.015zm8.078-.104-.143-.123v-1.169c0-.982.014-1.21.09-1.424.173-.496.674-.999 1.154-1.162.14-.047.925-.068 2.993-.08l2.804-.016.152.152c.197.197.207.465.025.647l-.125.126h-2.651c-1.666 0-2.722.02-2.841.053a1.028 1.028 0 0 0-.58.462c-.047.091-.075.294-.075.544 0 .22-.015.733-.034 1.14-.03.679-.043.75-.15.857-.16.16-.43.156-.619-.007zm1.315-1.411a.385.385 0 0 1 .033-.56c.131-.103.187-.106 2.303-.106 2.1 0 2.171.004 2.27.103.124.123.135.392.023.551l-.08.114h-2.223c-2.155 0-2.227-.003-2.326-.102zm-4.132-4.122c-1.037-.28-2.225-1.457-2.984-2.958l-.228-.452.205-.18c.223-.196.84-.58.933-.58.032 0 .188.25.347.556.834 1.605 1.926 2.459 2.706 2.114.205-.091.258-.147.37-.39.159-.347.213-1.034.128-1.614-.03-.211-.07-.476-.085-.589l-.029-.204.107.204c.06.113.185.412.28.666.54 1.439.42 2.549-.336 3.147-.424.335-.877.424-1.414.28zm-4.37-.095c-.648-.231-1.123-.814-1.2-1.47-.14-1.18 1.044-2.832 2.56-3.574.684-.335 1.102-.43 1.777-.404.433.017.58.045.816.154.389.18.679.453.85.802.121.247.142.35.138.7a1.86 1.86 0 0 1-.115.692c-.123.315-.409.792-.45.751-.014-.015.01-.148.054-.297.103-.347.103-.935-.001-1.24-.196-.574-.887-.777-1.736-.51-.994.312-2.153 1.257-2.566 2.091-.604 1.223.037 2.099 1.408 1.922.239-.031.443-.048.453-.038.038.038-.432.281-.74.386-.365.122-.957.14-1.248.035zm.644-5.338c-.097-1.164.312-2.15 1.04-2.508.71-.349 1.535-.08 2.392.777.32.319.772.884.736.918-.011.01-.205-.12-.43-.29-.697-.525-1.378-.787-1.784-.685-.193.049-.446.285-.55.516-.07.153-.095.332-.096.685 0 .453-.007.48-.116.508a6.359 6.359 0 0 0-.609.277 7.642 7.642 0 0 1-.52.247c-.014 0-.043-.2-.063-.445z"/></svg>