<svg viewBox="0 0 24 24" xmlns="http://www.w3.org/2000/svg" role="img"><path d="M15.88 23.986a5.897 5.897 0 0 1-2.916-1.104c-.634-.453-1.325-1.168-1.852-1.92-.706-1.005-1.35-2.42-1.59-3.49a3.674 3.674 0 0 0-.155-.501c-.092-.223-.094-.225-.43-.554-1.618-1.58-3.273-2.78-4.974-3.606a11.457 11.457 0 0 0-2.25-.836c-.306-.076-.356-.095-.356-.133 0-.042.017-.044.3-.038 1.412.032 2.936.108 4.036.202.773.066.81.067.782.031a20.505 20.505 0 0 0-1.824-2.05C3.309 8.684 1.814 7.654.417 7.07.307 7.024.26 6.992.26 6.963c0-.022.01-.047.02-.053.011-.007.289.043.617.112 2.462.515 3.555.788 6.455 1.613a41.17 41.17 0 0 0 1.183.327 4.15 4.15 0 0 0-.112-.305C7.119 5.44 4.372 1.771 2.198.344 1.758.055 1.79.082 1.827.038 1.844.017 1.868 0 1.879 0c.034 0 .743.36 1.032.524.147.083.506.3.798.48a512.443 512.443 0 0 1 4.616 2.854c3.465 2.164 4.634 2.873 5.316 3.222l.292.15.539-.154c1.121-.32 1.786-.41 2.522-.343.622.057 1.318.237 1.723.445.557.286 1.45 1.027 1.789 1.483.409.55.74 1.74.676 2.431l-.016.172.131.255c.162.315.293.643.312.78.012.089.01.108-.036.138-.028.02-.069.03-.09.025-.024-.006-.155-.131-.293-.278a6.97 6.97 0 0 0-.877-.784l-.163-.12-.24.035c-1.306.192-2.215.608-2.93 1.34-.799.816-1.252 1.946-1.442 3.594-.03.264-.04.545-.041 1.188v.841l.109.26c.43 1.027 1 1.73 1.858 2.29.446.292 1.096.576 1.319.576.165 0 .548-.06.83-.13 1.715-.425 3.034-1.658 3.683-3.444.08-.216.212-.699.261-.95.031-.155.076-.208.132-.153.05.051.066.388.032.713-.11 1.052-.524 2.11-1.248 3.191-.353.527-.836 1.122-1.054 1.297a21.2 21.2 0 0 0-.364.306c-.613.527-.969.786-1.316.958-.1.05-.188.097-.195.103-.012.012-.04.023-.545.21-.597.22-1.19.37-1.773.448a8.4 8.4 0 0 1-1.345.033zm4.333-13.913a.419.419 0 0 0 0-.68c-.221-.15-.486.037-.486.343 0 .294.271.482.486.337z"/></svg>