<svg viewBox="0 0 24 24" xmlns="http://www.w3.org/2000/svg" role="img"><path d="M3.961 15.739v-.777l1.326-.767 1.326-.768v-.642c0-.448 0-.643-.01-.643 0 0-.56.319-1.233.709-.674.389-1.245.716-1.27.726a.418.418 0 0 1-.096.024l-.049.005v-1.637l.128-.072c.13-.074.458-.263 2.286-1.319a892.91 892.91 0 0 1 1.108-.639.268.268 0 0 0 .12-.134.365.365 0 0 0-.039-.383l-.021-.028.041.024c.188.109.275.254.347.578l.022.1v1.744c0 1.817 0 1.853-.032 2.028a.963.963 0 0 1-.388.63c-.032.021-.81.475-1.726 1.007-1.109.644-1.685.974-1.72.986a.494.494 0 0 1-.09.021l-.039.004v-.777zm-.186.732c-.073-.038-3.285-1.89-3.346-1.93a1.068 1.068 0 0 1-.237-.237c-.118-.172-.178-.386-.192-.68-.015-.326.063-.759.17-.936a.588.588 0 0 1 .224-.215l.03-.016-.032.046a.337.337 0 0 0-.044.086c-.027.09-.01.205.048.26.03.032.177.122.671.415l.489.291c.162.098.776.458 1.588.932l.688.402v.802c0 .442 0 .803-.01.803 0 0-.026-.01-.05-.023zm6.302-1.43a.14.14 0 0 1-.083-.052c-.033-.038-.035-.056-.032-.224v-.143l.025-.03c.05-.064 0-.06.782-.06.566 0 .708-.002.733-.011.066-.024.115-.08.153-.174.018-.045.018-.045.021-.626 0-.362 0-.601-.01-.634a.346.346 0 0 0-.115-.207c-.062-.059-.402-.31-.842-.623-.36-.257-.409-.294-.489-.373a.86.86 0 0 1-.266-.525c-.01-.054-.01-.235-.01-.61v-.532l.021-.078a.831.831 0 0 1 .594-.593c.098-.025.19-.028.746-.026l.553.002.034.022c.06.04.066.064.066.234 0 .167 0 .184-.059.228l-.03.025-.575.004c-.648.005-.603 0-.667.068a.316.316 0 0 0-.077.147c-.01.042-.013.117-.012.525 0 .518 0 .564.044.64a.57.57 0 0 0 .19.18c.075.05.814.576 1.041.74.27.194.413.418.444.69.01.047.01.3.01.66 0 .633 0 .676-.044.798a.81.81 0 0 1-.217.336.802.802 0 0 1-.486.221c-.092.01-1.416.01-1.453 0zm3.941 0a.842.842 0 0 1-.715-.636l-.022-.079v-4.109l.022-.08a.862.862 0 0 1 .608-.615c.082-.021.212-.027.561-.027.475 0 .556.009.71.08a.865.865 0 0 1 .459.554l.022.08v4.125l-.022.08a.858.858 0 0 1-.608.608l-.08.022-.437.002c-.24 0-.464-.001-.499-.005zm.897-.527a.31.31 0 0 0 .115-.127c.052-.103.049.053.049-2.115 0-2.165 0-2.013-.048-2.114a.327.327 0 0 0-.116-.128c-.025-.014-.057-.015-.438-.015-.409 0-.412 0-.445.018a.331.331 0 0 0-.138.188c-.014.043-.015.115-.015 2.055v2.01l.018.048c.037.096.102.172.162.189.018.005.186.007.43.007.368-.001.401-.002.426-.016zm2 .531c0-.002-.018-.005-.03-.008-.031-.007-.071-.043-.088-.08-.014-.032-.015-.13-.015-2.674s0-2.64.015-2.672a.158.158 0 0 1 .096-.084c.04-.011.569-.011.609 0a.16.16 0 0 1 .09.07c.01.013.231.896.5 1.964l.486 1.941v-1.937c0-1.81 0-1.94.018-1.963a.165.165 0 0 1 .096-.076c.021-.006.097-.008.205-.006l.17.003.035.022a.178.178 0 0 1 .05.054c.016.032.016.04.016 2.685 0 2.627 0 2.653-.016 2.684a.137.137 0 0 1-.098.073c-.047.01-.614.01-.661 0a.137.137 0 0 1-.1-.078c-.01-.017-.213-.863-.457-1.88a272.184 272.184 0 0 0-.452-1.865c0-.01-.01.72-.01 1.849v1.864l-.017.035a.126.126 0 0 1-.055.057c-.037.022-.038.022-.211.024l-.182-.001zm3.438-.004a.15.15 0 0 1-.099-.076l-.017-.035v-1.899c0-1.576 0-1.903.011-1.925a.163.163 0 0 1 .096-.082c.014-.003.11-.004.213-.002l.186.002.031.023a.168.168 0 0 1 .045.057c.015.032.015.095.015 1.924 0 2.059 0 1.922-.043 1.97-.04.044-.053.046-.24.048-.095 0-.185-.001-.199-.005zm2.29 0a.816.816 0 0 1-.497-.238.802.802 0 0 1-.237-.493c-.011-.1-.011-3.953 0-4.053a.83.83 0 0 1 .617-.712l.081-.022.623-.003c.453-.002.633 0 .658.007a.163.163 0 0 1 .103.104c.01.023.01.083.01.17 0 .123 0 .136-.02.163a.171.171 0 0 1-.05.049l-.03.018-.61.004-.609.004-.038.022a.249.249 0 0 0-.1.114c-.045.089-.043-.016-.043 2.1 0 1.32 0 1.971.01 2.007a.32.32 0 0 0 .135.224l.038.022.573.004c.524.004.576.005.6.018.061.034.077.093.073.268 0 .125-.01.143-.042.181-.043.048-.015.046-.623.047-.306 0-.584-.002-.617-.005zM3.8 13.573c-.013-.005-.826-.472-1.942-1.118C.282 11.544.394 11.611.3 11.517a1.003 1.003 0 0 1-.23-.373 1.93 1.93 0 0 1-.066-.366c-.01-.145 0-.45.013-.59.055-.436.166-.66.384-.775l.02-.01-.014.02a.527.527 0 0 0-.072.166.352.352 0 0 0 .042.225c.05.102.09.14.24.226l.583.338c.76.44 1.451.84 2.062 1.192l.58.334-.01.169v.837c0 .53 0 .669-.01.668-.01 0-.015-.003-.022-.005zm-2.302-.197c-.83-.493-1.009-.602-1.009-.617 0-.007 0-.01-.01-.007-.012.007-.033-.074-.033-.125 0-.055.03-.119.07-.152.014-.012.146-.09.293-.174l.267-.152.66.381c.363.21.665.385.67.39.01.007-.075.058-.339.207-.362.205-.405.234-.426.294-.01.016-.013.03-.016.03 0 0-.061-.034-.13-.075zm1.884-1.878a18.12 18.12 0 0 1-.565-.335c0-.014 1.008-.577 1.06-.595a.51.51 0 0 1 .143-.023.513.513 0 0 1 .235.035c.066.027.927.538.92.545-.01.006-.695.405-1.042.604a2.852 2.852 0 0 1-.178.098s-.261-.149-.573-.33zm16.94-.661a.144.144 0 0 1-.07-.07c-.014-.027-.015-.051-.015-.362 0-.321 0-.334.017-.368a.129.129 0 0 1 .054-.057l.038-.022h.19c.209 0 .218.002.26.053.038.044.04.063.037.412v.328l-.023.034c-.04.06-.061.065-.276.065-.154 0-.19-.002-.21-.013zM1.08 10.165c-.498-.287-.529-.307-.559-.347a.305.305 0 0 1-.069-.207c0-.064 0-.078.023-.117a.533.533 0 0 1 .263-.21.194.194 0 0 0 .05-.028c0-.005.01-.005.01 0 0 .004 0 .004.01-.002 0-.005.679-.394 1.5-.863 1.129-.646 1.51-.86 1.562-.878a.55.55 0 0 1 .397.017c.028.013.307.17.62.349.313.179.615.35.67.38.1.056.1.056.061.051a1.263 1.263 0 0 1-.105-.021.625.625 0 0 0-.317.013c-.033.012-.178.09-.323.172a326.644 326.644 0 0 0-3.162 1.803.237.237 0 0 0-.091.152l-.01.04z"/></svg>